<?xml version="1.0" encoding="UTF-8"?>
<svg xmlns="http://www.w3.org/2000/svg"
     xmlns:xlink="http://www.w3.org/1999/xlink"
     xmlns:gadfly="http://www.gadflyjl.org/ns"
     version="1.2"
     width="200mm" height="140mm" viewBox="0 0 200 140"
     stroke="none"
     fill="#000000"
     stroke-width="0.3"
     font-size="3.88"
>
<defs>
  <marker id="arrow" markerWidth="15" markerHeight="7" refX="5" refY="3.5" orient="auto" markerUnits="strokeWidth">
    <path d="M0,0 L15,3.5 L0,7 z" stroke="context-stroke" fill="context-stroke"/>
  </marker>
</defs>
<g class="plotroot yscalable" id="img-7700c8bf-1">
  <g font-size="3.88" font-family="'PT Sans','Helvetica Neue','Helvetica',sans-serif" fill="#564A55" stroke="#000000" stroke-opacity="0.000" id="img-7700c8bf-2">
    <g transform="translate(106.48,128.39)">
      <g class="primitive">
        <text text-anchor="middle" dy="0.6em">Fonte</text>
      </g>
    </g>
  </g>
  <g class="guide xlabels" font-size="2.82" font-family="'PT Sans Caption','Helvetica Neue','Helvetica',sans-serif" fill="#6C606B" id="img-7700c8bf-3">
    <g transform="translate(23.86,69.58)">
      <g class="primitive">
        <text text-anchor="end" dy="0.35em" transform="rotate(-90,0, 0)">Salick et al., 1997</text>
      </g>
    </g>
    <g transform="translate(35.66,69.58)">
      <g class="primitive">
        <text text-anchor="end" dy="0.35em" transform="rotate(-90,0, 0)">Marchetti et al, 2013. 1992</text>
      </g>
    </g>
    <g transform="translate(47.47,69.58)">
      <g class="primitive">
        <text text-anchor="end" dy="0.35em" transform="rotate(-90,0, 0)">Elias et al, 2000</text>
      </g>
    </g>
    <g transform="translate(59.27,69.58)">
      <g class="primitive">
        <text text-anchor="end" dy="0.35em" transform="rotate(-90,0, 0)">Pujol et al, 2007. 1998</text>
      </g>
    </g>
    <g transform="translate(71.07,69.58)">
      <g class="primitive">
        <text text-anchor="end" dy="0.35em" transform="rotate(-90,0, 0)">Pujol et al, 2007. 2002</text>
      </g>
    </g>
    <g transform="translate(82.87,69.58)">
      <g class="primitive">
        <text text-anchor="end" dy="0.35em" transform="rotate(-90,0, 0)">Fraser et al, 2012. Água Azul</text>
      </g>
    </g>
    <g transform="translate(94.68,69.58)">
      <g class="primitive">
        <text text-anchor="end" dy="0.35em" transform="rotate(-90,0, 0)">Fraser et al, 2012. Barro Alto</text>
      </g>
    </g>
    <g transform="translate(106.48,69.58)">
      <g class="primitive">
        <text text-anchor="end" dy="0.35em" transform="rotate(-90,0, 0)">Fraser et al, 2012. Barreira do Capanã</text>
      </g>
    </g>
    <g transform="translate(118.28,69.58)">
      <g class="primitive">
        <text text-anchor="end" dy="0.35em" transform="rotate(-90,0, 0)">Fraser et al, 2012. Vista Alegre</text>
      </g>
    </g>
    <g transform="translate(130.08,69.58)">
      <g class="primitive">
        <text text-anchor="end" dy="0.35em" transform="rotate(-90,0, 0)">Fraser et al, 2012. Água Azul floodplain</text>
      </g>
    </g>
    <g transform="translate(141.89,69.58)">
      <g class="primitive">
        <text text-anchor="end" dy="0.35em" transform="rotate(-90,0, 0)">Fraser et al, 2012. Genipapo floodplain</text>
      </g>
    </g>
    <g transform="translate(153.69,69.58)">
      <g class="primitive">
        <text text-anchor="end" dy="0.35em" transform="rotate(-90,0, 0)">Duputie et al, 2009</text>
      </g>
    </g>
    <g transform="translate(165.49,69.58)">
      <g class="primitive">
        <text text-anchor="end" dy="0.35em" transform="rotate(-90,0, 0)">Ramos et al. (2011). Duas Comunidades</text>
      </g>
    </g>
    <g transform="translate(177.3,69.58)">
      <g class="primitive">
        <text text-anchor="end" dy="0.35em" transform="rotate(-90,0, 0)">Kawa et al, 2013</text>
      </g>
    </g>
    <g transform="translate(189.1,69.58)">
      <g class="primitive">
        <text text-anchor="end" dy="0.35em" transform="rotate(-90,0, 0)">Marchetti et al, 2013. 2011</text>
      </g>
    </g>
  </g>
  <g clip-path="url(#img-7700c8bf-4)">
    <g id="img-7700c8bf-5">
      <g pointer-events="visible" fill="#000000" fill-opacity="0.000" stroke="#000000" stroke-opacity="0.000" class="guide background" id="img-7700c8bf-6">
        <g transform="translate(106.48,39.6)" id="img-7700c8bf-7">
          <path d="M-88.52,-28.99 L 88.52 -28.99 88.52 28.99 -88.52 28.99 z" class="primitive"/>
        </g>
      </g>
      <g class="guide ygridlines xfixed" stroke-dasharray="0.5,0.5" stroke-width="0.2" stroke="#D0D0E0" id="img-7700c8bf-8">
        <g transform="translate(106.48,66.58)" id="img-7700c8bf-9">
          <path fill="none" d="M-88.52,0 L 88.52 0" class="primitive"/>
        </g>
        <g transform="translate(106.48,57.59)" id="img-7700c8bf-10">
          <path fill="none" d="M-88.52,0 L 88.52 0" class="primitive"/>
        </g>
        <g transform="translate(106.48,48.59)" id="img-7700c8bf-11">
          <path fill="none" d="M-88.52,0 L 88.52 0" class="primitive"/>
        </g>
        <g transform="translate(106.48,39.6)" id="img-7700c8bf-12">
          <path fill="none" d="M-88.52,0 L 88.52 0" class="primitive"/>
        </g>
        <g transform="translate(106.48,30.6)" id="img-7700c8bf-13">
          <path fill="none" d="M-88.52,0 L 88.52 0" class="primitive"/>
        </g>
        <g transform="translate(106.48,21.61)" id="img-7700c8bf-14">
          <path fill="none" d="M-88.52,0 L 88.52 0" class="primitive"/>
        </g>
        <g transform="translate(106.48,12.61)" id="img-7700c8bf-15">
          <path fill="none" d="M-88.52,0 L 88.52 0" class="primitive"/>
        </g>
      </g>
      <g class="guide xgridlines yfixed" stroke-dasharray="0.5,0.5" stroke-width="0.2" stroke="#D0D0E0" id="img-7700c8bf-16">
        <g transform="translate(29.76,39.6)" id="img-7700c8bf-17">
          <path fill="none" d="M0,-28.99 L 0 28.99" class="primitive"/>
        </g>
        <g transform="translate(41.56,39.6)" id="img-7700c8bf-18">
          <path fill="none" d="M0,-28.99 L 0 28.99" class="primitive"/>
        </g>
        <g transform="translate(53.37,39.6)" id="img-7700c8bf-19">
          <path fill="none" d="M0,-28.99 L 0 28.99" class="primitive"/>
        </g>
        <g transform="translate(65.17,39.6)" id="img-7700c8bf-20">
          <path fill="none" d="M0,-28.99 L 0 28.99" class="primitive"/>
        </g>
        <g transform="translate(76.97,39.6)" id="img-7700c8bf-21">
          <path fill="none" d="M0,-28.99 L 0 28.99" class="primitive"/>
        </g>
        <g transform="translate(88.78,39.6)" id="img-7700c8bf-22">
          <path fill="none" d="M0,-28.99 L 0 28.99" class="primitive"/>
        </g>
        <g transform="translate(100.58,39.6)" id="img-7700c8bf-23">
          <path fill="none" d="M0,-28.99 L 0 28.99" class="primitive"/>
        </g>
        <g transform="translate(112.38,39.6)" id="img-7700c8bf-24">
          <path fill="none" d="M0,-28.99 L 0 28.99" class="primitive"/>
        </g>
        <g transform="translate(124.18,39.6)" id="img-7700c8bf-25">
          <path fill="none" d="M0,-28.99 L 0 28.99" class="primitive"/>
        </g>
        <g transform="translate(135.99,39.6)" id="img-7700c8bf-26">
          <path fill="none" d="M0,-28.99 L 0 28.99" class="primitive"/>
        </g>
        <g transform="translate(147.79,39.6)" id="img-7700c8bf-27">
          <path fill="none" d="M0,-28.99 L 0 28.99" class="primitive"/>
        </g>
        <g transform="translate(159.59,39.6)" id="img-7700c8bf-28">
          <path fill="none" d="M0,-28.99 L 0 28.99" class="primitive"/>
        </g>
        <g transform="translate(171.39,39.6)" id="img-7700c8bf-29">
          <path fill="none" d="M0,-28.99 L 0 28.99" class="primitive"/>
        </g>
        <g transform="translate(183.2,39.6)" id="img-7700c8bf-30">
          <path fill="none" d="M0,-28.99 L 0 28.99" class="primitive"/>
        </g>
      </g>
      <g class="plotpanel" id="img-7700c8bf-31">
        <metadata>
          <boundingbox value="17.958333333333343mm 10.611666666666665mm 177.04166666666669mm 57.97000000000001mm"/>
          <unitbox value="0.5 62.22345747637576 15.0 -64.44691495275153"/>
        </metadata>
        <g class="geometry" stroke-width="0.3" id="img-7700c8bf-32">
          <g transform="translate(23.86,61.18)" id="img-7700c8bf-33" stroke="#00BFFF" fill="#00BFFF">
            <path d="M-5.4,-2.25 L 5.4 -2.25 5.4 2.25 -5.4 2.25 z" class="primitive"/>
          </g>
          <g transform="translate(35.66,59.39)" id="img-7700c8bf-34" stroke="#00BFFF" fill="#00BFFF">
            <path d="M-5.4,-2.7 L 5.4 -2.7 5.4 2.7 -5.4 2.7 z" class="primitive"/>
          </g>
          <g transform="translate(47.47,52.19)" id="img-7700c8bf-35" stroke="#00BFFF" fill="#00BFFF">
            <path d="M-5.4,-4.72 L 5.4 -4.72 5.4 4.72 -5.4 4.72 z" class="primitive"/>
          </g>
          <g transform="translate(59.27,61.3)" id="img-7700c8bf-36" stroke="#00BFFF" fill="#00BFFF">
            <path d="M-5.4,-0.34 L 5.4 -0.34 5.4 0.34 -5.4 0.34 z" class="primitive"/>
          </g>
          <g transform="translate(71.07,63.55)" id="img-7700c8bf-37" stroke="#00BFFF" fill="#00BFFF">
            <path d="M-5.4,-0.34 L 5.4 -0.34 5.4 0.34 -5.4 0.34 z" class="primitive"/>
          </g>
          <g transform="translate(82.87,63.88)" id="img-7700c8bf-38" stroke="#00BFFF" fill="#00BFFF">
            <path d="M-5.4,-0.9 L 5.4 -0.9 5.4 0.9 -5.4 0.9 z" class="primitive"/>
          </g>
          <g transform="translate(94.68,64.33)" id="img-7700c8bf-39" stroke="#00BFFF" fill="#00BFFF">
            <path d="M-5.4,-0.45 L 5.4 -0.45 5.4 0.45 -5.4 0.45 z" class="primitive"/>
          </g>
          <g transform="translate(106.48,63.43)" id="img-7700c8bf-40" stroke="#00BFFF" fill="#00BFFF">
            <path d="M-5.4,-1.35 L 5.4 -1.35 5.4 1.35 -5.4 1.35 z" class="primitive"/>
          </g>
          <g transform="translate(118.28,63.43)" id="img-7700c8bf-41" stroke="#00BFFF" fill="#00BFFF">
            <path d="M-5.4,-1.35 L 5.4 -1.35 5.4 1.35 -5.4 1.35 z" class="primitive"/>
          </g>
          <g transform="translate(130.08,63.88)" id="img-7700c8bf-42" stroke="#00BFFF" fill="#00BFFF">
            <path d="M-5.4,-0.9 L 5.4 -0.9 5.4 0.9 -5.4 0.9 z" class="primitive"/>
          </g>
          <g transform="translate(141.89,63.66)" id="img-7700c8bf-43" stroke="#00BFFF" fill="#00BFFF">
            <path d="M-5.4,-0.22 L 5.4 -0.22 5.4 0.22 -5.4 0.22 z" class="primitive"/>
          </g>
          <g transform="translate(153.69,44.66)" id="img-7700c8bf-44" stroke="#00BFFF" fill="#00BFFF">
            <path d="M-5.4,-1.91 L 5.4 -1.91 5.4 1.91 -5.4 1.91 z" class="primitive"/>
          </g>
          <g transform="translate(165.49,63.88)" id="img-7700c8bf-45" stroke="#00BFFF" fill="#00BFFF">
            <path d="M-5.4,-0.9 L 5.4 -0.9 5.4 0.9 -5.4 0.9 z" class="primitive"/>
          </g>
          <g transform="translate(177.3,63.43)" id="img-7700c8bf-46" stroke="#00BFFF" fill="#00BFFF">
            <path d="M-5.4,-0.45 L 5.4 -0.45 5.4 0.45 -5.4 0.45 z" class="primitive"/>
          </g>
          <g transform="translate(189.1,63.43)" id="img-7700c8bf-47" stroke="#00BFFF" fill="#00BFFF">
            <path d="M-5.4,-1.35 L 5.4 -1.35 5.4 1.35 -5.4 1.35 z" class="primitive"/>
          </g>
          <g transform="translate(23.86,56.69)" id="img-7700c8bf-48" stroke="#00BFFF">
            <path fill="none" d="M-3.6,0 L 3.6 0" class="primitive"/>
          </g>
          <g transform="translate(35.66,51.29)" id="img-7700c8bf-49" stroke="#00BFFF">
            <path fill="none" d="M-3.6,0 L 3.6 0" class="primitive"/>
          </g>
          <g transform="translate(47.47,41.4)" id="img-7700c8bf-50" stroke="#00BFFF">
            <path fill="none" d="M-3.6,0 L 3.6 0" class="primitive"/>
          </g>
          <g transform="translate(59.27,60.29)" id="img-7700c8bf-51" stroke="#00BFFF">
            <path fill="none" d="M-3.6,0 L 3.6 0" class="primitive"/>
          </g>
          <g transform="translate(71.07,63.88)" id="img-7700c8bf-52" stroke="#00BFFF">
            <path fill="none" d="M-3.6,0 L 3.6 0" class="primitive"/>
          </g>
          <g transform="translate(82.87,60.29)" id="img-7700c8bf-53" stroke="#00BFFF">
            <path fill="none" d="M-3.6,0 L 3.6 0" class="primitive"/>
          </g>
          <g transform="translate(94.68,62.98)" id="img-7700c8bf-54" stroke="#00BFFF">
            <path fill="none" d="M-3.6,0 L 3.6 0" class="primitive"/>
          </g>
          <g transform="translate(106.48,59.39)" id="img-7700c8bf-55" stroke="#00BFFF">
            <path fill="none" d="M-3.6,0 L 3.6 0" class="primitive"/>
          </g>
          <g transform="translate(118.28,58.49)" id="img-7700c8bf-56" stroke="#00BFFF">
            <path fill="none" d="M-3.6,0 L 3.6 0" class="primitive"/>
          </g>
          <g transform="translate(130.08,60.29)" id="img-7700c8bf-57" stroke="#00BFFF">
            <path fill="none" d="M-3.6,0 L 3.6 0" class="primitive"/>
          </g>
          <g transform="translate(141.89,62.98)" id="img-7700c8bf-58" stroke="#00BFFF">
            <path fill="none" d="M-3.6,0 L 3.6 0" class="primitive"/>
          </g>
          <g transform="translate(153.69,40.5)" id="img-7700c8bf-59" stroke="#00BFFF">
            <path fill="none" d="M-3.6,0 L 3.6 0" class="primitive"/>
          </g>
          <g transform="translate(165.49,60.29)" id="img-7700c8bf-60" stroke="#00BFFF">
            <path fill="none" d="M-3.6,0 L 3.6 0" class="primitive"/>
          </g>
          <g transform="translate(177.3,62.08)" id="img-7700c8bf-61" stroke="#00BFFF">
            <path fill="none" d="M-3.6,0 L 3.6 0" class="primitive"/>
          </g>
          <g transform="translate(189.1,59.39)" id="img-7700c8bf-62" stroke="#00BFFF">
            <path fill="none" d="M-3.6,0 L 3.6 0" class="primitive"/>
          </g>
          <g transform="translate(23.86,65.68)" id="img-7700c8bf-63" stroke="#00BFFF">
            <path fill="none" d="M-3.6,0 L 3.6 0" class="primitive"/>
          </g>
          <g transform="translate(35.66,62.08)" id="img-7700c8bf-64" stroke="#00BFFF">
            <path fill="none" d="M-3.6,0 L 3.6 0" class="primitive"/>
          </g>
          <g transform="translate(47.47,61.18)" id="img-7700c8bf-65" stroke="#00BFFF">
            <path fill="none" d="M-3.6,0 L 3.6 0" class="primitive"/>
          </g>
          <g transform="translate(59.27,61.18)" id="img-7700c8bf-66" stroke="#00BFFF">
            <path fill="none" d="M-3.6,0 L 3.6 0" class="primitive"/>
          </g>
          <g transform="translate(71.07,63.88)" id="img-7700c8bf-67" stroke="#00BFFF">
            <path fill="none" d="M-3.6,0 L 3.6 0" class="primitive"/>
          </g>
          <g transform="translate(82.87,65.68)" id="img-7700c8bf-68" stroke="#00BFFF">
            <path fill="none" d="M-3.6,0 L 3.6 0" class="primitive"/>
          </g>
          <g transform="translate(94.68,65.68)" id="img-7700c8bf-69" stroke="#00BFFF">
            <path fill="none" d="M-3.6,0 L 3.6 0" class="primitive"/>
          </g>
          <g transform="translate(106.48,65.68)" id="img-7700c8bf-70" stroke="#00BFFF">
            <path fill="none" d="M-3.6,0 L 3.6 0" class="primitive"/>
          </g>
          <g transform="translate(118.28,65.68)" id="img-7700c8bf-71" stroke="#00BFFF">
            <path fill="none" d="M-3.6,0 L 3.6 0" class="primitive"/>
          </g>
          <g transform="translate(130.08,65.68)" id="img-7700c8bf-72" stroke="#00BFFF">
            <path fill="none" d="M-3.6,0 L 3.6 0" class="primitive"/>
          </g>
          <g transform="translate(141.89,63.88)" id="img-7700c8bf-73" stroke="#00BFFF">
            <path fill="none" d="M-3.6,0 L 3.6 0" class="primitive"/>
          </g>
          <g transform="translate(153.69,46.79)" id="img-7700c8bf-74" stroke="#00BFFF">
            <path fill="none" d="M-3.6,0 L 3.6 0" class="primitive"/>
          </g>
          <g transform="translate(165.49,65.68)" id="img-7700c8bf-75" stroke="#00BFFF">
            <path fill="none" d="M-3.6,0 L 3.6 0" class="primitive"/>
          </g>
          <g transform="translate(177.3,64.78)" id="img-7700c8bf-76" stroke="#00BFFF">
            <path fill="none" d="M-3.6,0 L 3.6 0" class="primitive"/>
          </g>
          <g transform="translate(189.1,64.78)" id="img-7700c8bf-77" stroke="#00BFFF">
            <path fill="none" d="M-3.6,0 L 3.6 0" class="primitive"/>
          </g>
          <g transform="translate(23.86,57.81)" id="img-7700c8bf-78" stroke="#00BFFF">
            <path fill="none" d="M0,1.12 L 0 -1.12" class="primitive"/>
          </g>
          <g transform="translate(35.66,53.99)" id="img-7700c8bf-79" stroke="#00BFFF">
            <path fill="none" d="M0,2.7 L 0 -2.7" class="primitive"/>
          </g>
          <g transform="translate(47.47,44.43)" id="img-7700c8bf-80" stroke="#00BFFF">
            <path fill="none" d="M0,3.04 L 0 -3.04" class="primitive"/>
          </g>
          <g transform="translate(59.27,60.62)" id="img-7700c8bf-81" stroke="#00BFFF">
            <path fill="none" d="M0,0.34 L 0 -0.34" class="primitive"/>
          </g>
          <g transform="translate(71.07,63.55)" id="img-7700c8bf-82" stroke="#00BFFF">
            <path fill="none" d="M0,-0.34 L 0 0.34" class="primitive"/>
          </g>
          <g transform="translate(82.87,61.63)" id="img-7700c8bf-83" stroke="#00BFFF">
            <path fill="none" d="M0,1.35 L 0 -1.35" class="primitive"/>
          </g>
          <g transform="translate(94.68,63.43)" id="img-7700c8bf-84" stroke="#00BFFF">
            <path fill="none" d="M0,0.45 L 0 -0.45" class="primitive"/>
          </g>
          <g transform="translate(106.48,60.73)" id="img-7700c8bf-85" stroke="#00BFFF">
            <path fill="none" d="M0,1.35 L 0 -1.35" class="primitive"/>
          </g>
          <g transform="translate(118.28,60.29)" id="img-7700c8bf-86" stroke="#00BFFF">
            <path fill="none" d="M0,1.8 L 0 -1.8" class="primitive"/>
          </g>
          <g transform="translate(130.08,61.63)" id="img-7700c8bf-87" stroke="#00BFFF">
            <path fill="none" d="M0,1.35 L 0 -1.35" class="primitive"/>
          </g>
          <g transform="translate(141.89,63.21)" id="img-7700c8bf-88" stroke="#00BFFF">
            <path fill="none" d="M0,0.22 L 0 -0.22" class="primitive"/>
          </g>
          <g transform="translate(153.69,41.62)" id="img-7700c8bf-89" stroke="#00BFFF">
            <path fill="none" d="M0,1.12 L 0 -1.12" class="primitive"/>
          </g>
          <g transform="translate(165.49,61.63)" id="img-7700c8bf-90" stroke="#00BFFF">
            <path fill="none" d="M0,1.35 L 0 -1.35" class="primitive"/>
          </g>
          <g transform="translate(177.3,62.53)" id="img-7700c8bf-91" stroke="#00BFFF">
            <path fill="none" d="M0,0.45 L 0 -0.45" class="primitive"/>
          </g>
          <g transform="translate(189.1,60.73)" id="img-7700c8bf-92" stroke="#00BFFF">
            <path fill="none" d="M0,1.35 L 0 -1.35" class="primitive"/>
          </g>
          <g transform="translate(23.86,64.56)" id="img-7700c8bf-93" stroke="#00BFFF">
            <path fill="none" d="M0,-1.12 L 0 1.12" class="primitive"/>
          </g>
          <g transform="translate(35.66,62.08)" id="img-7700c8bf-94" stroke="#00BFFF">
            <path fill="none" d="M0,0 L 0 0" class="primitive"/>
          </g>
          <g transform="translate(47.47,59.05)" id="img-7700c8bf-95" stroke="#00BFFF">
            <path fill="none" d="M0,-2.14 L 0 2.14" class="primitive"/>
          </g>
          <g transform="translate(59.27,61.41)" id="img-7700c8bf-96" stroke="#00BFFF">
            <path fill="none" d="M0,0.22 L 0 -0.22" class="primitive"/>
          </g>
          <g transform="translate(71.07,63.88)" id="img-7700c8bf-97" stroke="#00BFFF">
            <path fill="none" d="M0,0 L 0 0" class="primitive"/>
          </g>
          <g transform="translate(82.87,65.23)" id="img-7700c8bf-98" stroke="#00BFFF">
            <path fill="none" d="M0,-0.45 L 0 0.45" class="primitive"/>
          </g>
          <g transform="translate(94.68,65.23)" id="img-7700c8bf-99" stroke="#00BFFF">
            <path fill="none" d="M0,-0.45 L 0 0.45" class="primitive"/>
          </g>
          <g transform="translate(106.48,65.23)" id="img-7700c8bf-100" stroke="#00BFFF">
            <path fill="none" d="M0,-0.45 L 0 0.45" class="primitive"/>
          </g>
          <g transform="translate(118.28,65.23)" id="img-7700c8bf-101" stroke="#00BFFF">
            <path fill="none" d="M0,-0.45 L 0 0.45" class="primitive"/>
          </g>
          <g transform="translate(130.08,65.23)" id="img-7700c8bf-102" stroke="#00BFFF">
            <path fill="none" d="M0,-0.45 L 0 0.45" class="primitive"/>
          </g>
          <g transform="translate(141.89,63.88)" id="img-7700c8bf-103" stroke="#00BFFF">
            <path fill="none" d="M0,0 L 0 0" class="primitive"/>
          </g>
          <g transform="translate(153.69,46.68)" id="img-7700c8bf-104" stroke="#00BFFF">
            <path fill="none" d="M0,-0.11 L 0 0.11" class="primitive"/>
          </g>
          <g transform="translate(165.49,65.23)" id="img-7700c8bf-105" stroke="#00BFFF">
            <path fill="none" d="M0,-0.45 L 0 0.45" class="primitive"/>
          </g>
          <g transform="translate(177.3,64.33)" id="img-7700c8bf-106" stroke="#00BFFF">
            <path fill="none" d="M0,-0.45 L 0 0.45" class="primitive"/>
          </g>
          <g transform="translate(189.1,64.78)" id="img-7700c8bf-107" stroke="#00BFFF">
            <path fill="none" d="M0,0 L 0 0" class="primitive"/>
          </g>
          <g stroke-width="0.6" id="img-7700c8bf-108">
            <g transform="translate(23.86,61.18)" id="img-7700c8bf-109" stroke="#B5FFFF">
              <path fill="none" d="M-3.6,0 L 3.6 0" class="primitive"/>
            </g>
            <g transform="translate(35.66,59.39)" id="img-7700c8bf-110" stroke="#B5FFFF">
              <path fill="none" d="M-3.6,0 L 3.6 0" class="primitive"/>
            </g>
            <g transform="translate(47.47,53.54)" id="img-7700c8bf-111" stroke="#B5FFFF">
              <path fill="none" d="M-3.6,0 L 3.6 0" class="primitive"/>
            </g>
            <g transform="translate(59.27,61.18)" id="img-7700c8bf-112" stroke="#B5FFFF">
              <path fill="none" d="M-3.6,0 L 3.6 0" class="primitive"/>
            </g>
            <g transform="translate(71.07,63.88)" id="img-7700c8bf-113" stroke="#B5FFFF">
              <path fill="none" d="M-3.6,0 L 3.6 0" class="primitive"/>
            </g>
            <g transform="translate(82.87,63.88)" id="img-7700c8bf-114" stroke="#B5FFFF">
              <path fill="none" d="M-3.6,0 L 3.6 0" class="primitive"/>
            </g>
            <g transform="translate(94.68,64.78)" id="img-7700c8bf-115" stroke="#B5FFFF">
              <path fill="none" d="M-3.6,0 L 3.6 0" class="primitive"/>
            </g>
            <g transform="translate(106.48,63.43)" id="img-7700c8bf-116" stroke="#B5FFFF">
              <path fill="none" d="M-3.6,0 L 3.6 0" class="primitive"/>
            </g>
            <g transform="translate(118.28,63.88)" id="img-7700c8bf-117" stroke="#B5FFFF">
              <path fill="none" d="M-3.6,0 L 3.6 0" class="primitive"/>
            </g>
            <g transform="translate(130.08,63.88)" id="img-7700c8bf-118" stroke="#B5FFFF">
              <path fill="none" d="M-3.6,0 L 3.6 0" class="primitive"/>
            </g>
            <g transform="translate(141.89,63.88)" id="img-7700c8bf-119" stroke="#B5FFFF">
              <path fill="none" d="M-3.6,0 L 3.6 0" class="primitive"/>
            </g>
            <g transform="translate(153.69,45.44)" id="img-7700c8bf-120" stroke="#B5FFFF">
              <path fill="none" d="M-3.6,0 L 3.6 0" class="primitive"/>
            </g>
            <g transform="translate(165.49,64.78)" id="img-7700c8bf-121" stroke="#B5FFFF">
              <path fill="none" d="M-3.6,0 L 3.6 0" class="primitive"/>
            </g>
            <g transform="translate(177.3,63.88)" id="img-7700c8bf-122" stroke="#B5FFFF">
              <path fill="none" d="M-3.6,0 L 3.6 0" class="primitive"/>
            </g>
            <g transform="translate(189.1,62.08)" id="img-7700c8bf-123" stroke="#B5FFFF">
              <path fill="none" d="M-3.6,0 L 3.6 0" class="primitive"/>
            </g>
          </g>
        </g>
      </g>
    </g>
  </g>
  <g class="guide ylabels" font-size="2.82" font-family="'PT Sans Caption','Helvetica Neue','Helvetica',sans-serif" fill="#6C606B" id="img-7700c8bf-124">
    <g transform="translate(16.96,66.58)" id="img-7700c8bf-125">
      <g class="primitive">
        <text text-anchor="end" dy="0.35em">0</text>
      </g>
    </g>
    <g transform="translate(16.96,57.59)" id="img-7700c8bf-126">
      <g class="primitive">
        <text text-anchor="end" dy="0.35em">10</text>
      </g>
    </g>
    <g transform="translate(16.96,48.59)" id="img-7700c8bf-127">
      <g class="primitive">
        <text text-anchor="end" dy="0.35em">20</text>
      </g>
    </g>
    <g transform="translate(16.96,39.6)" id="img-7700c8bf-128">
      <g class="primitive">
        <text text-anchor="end" dy="0.35em">30</text>
      </g>
    </g>
    <g transform="translate(16.96,30.6)" id="img-7700c8bf-129">
      <g class="primitive">
        <text text-anchor="end" dy="0.35em">40</text>
      </g>
    </g>
    <g transform="translate(16.96,21.61)" id="img-7700c8bf-130">
      <g class="primitive">
        <text text-anchor="end" dy="0.35em">50</text>
      </g>
    </g>
    <g transform="translate(16.96,12.61)" id="img-7700c8bf-131">
      <g class="primitive">
        <text text-anchor="end" dy="0.35em">60</text>
      </g>
    </g>
  </g>
  <g font-size="3.88" font-family="'PT Sans','Helvetica Neue','Helvetica',sans-serif" fill="#564A55" stroke="#000000" stroke-opacity="0.000" id="img-7700c8bf-132">
    <g transform="translate(8.81,37.6)" id="img-7700c8bf-133">
      <g class="primitive">
        <text text-anchor="middle" dy="0.35em" transform="rotate(-90,0, 2)">Número de Variedades</text>
      </g>
    </g>
  </g>
  <g font-size="3.88" font-family="'PT Sans','Helvetica Neue','Helvetica',sans-serif" fill="#564A55" stroke="#000000" stroke-opacity="0.000" id="img-7700c8bf-134">
    <g transform="translate(106.48,5)" id="img-7700c8bf-135">
      <g class="primitive">
        <text text-anchor="middle" dy="0.6em">Número de Variedades por UD: mandioca</text>
      </g>
    </g>
  </g>
</g>
<defs>
  <clipPath id="img-7700c8bf-4">
    <path d="M17.96,10.61 L 195 10.61 195 68.58 17.96 68.58" />
  </clipPath>
</defs>
</svg>
