<?xml version="1.0" encoding="UTF-8"?>
<svg xmlns="http://www.w3.org/2000/svg"
     xmlns:xlink="http://www.w3.org/1999/xlink"
     xmlns:gadfly="http://www.gadflyjl.org/ns"
     version="1.2"
     width="150mm" height="100mm" viewBox="0 0 150 100"
     stroke="none"
     fill="#000000"
     stroke-width="0.3"
     font-size="3.88"
>
<defs>
  <marker id="arrow" markerWidth="15" markerHeight="7" refX="5" refY="3.5" orient="auto" markerUnits="strokeWidth">
    <path d="M0,0 L15,3.5 L0,7 z" stroke="context-stroke" fill="context-stroke"/>
  </marker>
</defs>
<g class="plotroot xscalable yscalable" id="img-4d46b5ed-1">
  <g font-size="3.88" font-family="'PT Sans','Helvetica Neue','Helvetica',sans-serif" fill="#564A55" stroke="#000000" stroke-opacity="0.000" id="img-4d46b5ed-2">
    <g transform="translate(81.82,88.39)">
      <g class="primitive">
        <text text-anchor="middle" dy="0.6em">N Variedades Medio na UD</text>
      </g>
    </g>
  </g>
  <g class="guide xlabels" font-size="2.82" font-family="'PT Sans Caption','Helvetica Neue','Helvetica',sans-serif" fill="#6C606B" id="img-4d46b5ed-3">
    <g transform="translate(20.63,81.72)">
      <g class="primitive">
        <text text-anchor="middle" dy="0.6em">0</text>
      </g>
    </g>
    <g transform="translate(51.22,81.72)">
      <g class="primitive">
        <text text-anchor="middle" dy="0.6em">10</text>
      </g>
    </g>
    <g transform="translate(81.82,81.72)">
      <g class="primitive">
        <text text-anchor="middle" dy="0.6em">20</text>
      </g>
    </g>
    <g transform="translate(112.41,81.72)">
      <g class="primitive">
        <text text-anchor="middle" dy="0.6em">30</text>
      </g>
    </g>
    <g transform="translate(143,81.72)">
      <g class="primitive">
        <text text-anchor="middle" dy="0.6em">40</text>
      </g>
    </g>
  </g>
  <g clip-path="url(#img-4d46b5ed-4)">
    <g id="img-4d46b5ed-5">
      <g pointer-events="visible" fill="#000000" fill-opacity="0.000" stroke="#000000" stroke-opacity="0.000" class="guide background" id="img-4d46b5ed-6">
        <g transform="translate(81.82,45.66)" id="img-4d46b5ed-7">
          <path d="M-63.18,-35.05 L 63.18 -35.05 63.18 35.05 -63.18 35.05 z" class="primitive"/>
        </g>
      </g>
      <g class="guide ygridlines xfixed" stroke-dasharray="0.5,0.5" stroke-width="0.2" stroke="#D0D0E0" id="img-4d46b5ed-8">
        <g transform="translate(81.82,78.72)" id="img-4d46b5ed-9">
          <path fill="none" d="M-63.18,0 L 63.18 0" class="primitive"/>
        </g>
        <g transform="translate(81.82,56.68)" id="img-4d46b5ed-10">
          <path fill="none" d="M-63.18,0 L 63.18 0" class="primitive"/>
        </g>
        <g transform="translate(81.82,34.65)" id="img-4d46b5ed-11">
          <path fill="none" d="M-63.18,0 L 63.18 0" class="primitive"/>
        </g>
        <g transform="translate(81.82,12.61)" id="img-4d46b5ed-12">
          <path fill="none" d="M-63.18,0 L 63.18 0" class="primitive"/>
        </g>
      </g>
      <g class="guide xgridlines yfixed" stroke-dasharray="0.5,0.5" stroke-width="0.2" stroke="#D0D0E0" id="img-4d46b5ed-13">
        <g transform="translate(20.63,45.66)" id="img-4d46b5ed-14">
          <path fill="none" d="M0,-35.05 L 0 35.05" class="primitive"/>
        </g>
        <g transform="translate(51.22,45.66)" id="img-4d46b5ed-15">
          <path fill="none" d="M0,-35.05 L 0 35.05" class="primitive"/>
        </g>
        <g transform="translate(81.82,45.66)" id="img-4d46b5ed-16">
          <path fill="none" d="M0,-35.05 L 0 35.05" class="primitive"/>
        </g>
        <g transform="translate(112.41,45.66)" id="img-4d46b5ed-17">
          <path fill="none" d="M0,-35.05 L 0 35.05" class="primitive"/>
        </g>
        <g transform="translate(143,45.66)" id="img-4d46b5ed-18">
          <path fill="none" d="M0,-35.05 L 0 35.05" class="primitive"/>
        </g>
      </g>
      <g class="plotpanel" id="img-4d46b5ed-19">
        <metadata>
          <boundingbox value="18.63166666666669mm 10.611666666666665mm 126.36833333333334mm 70.10333333333334mm"/>
          <unitbox value="-0.6537639095081789 0.30907669809893606 41.30752781901636 -0.31815339619787203"/>
        </metadata>
        <g shape-rendering="crispEdges" stroke-width="0.3" id="img-4d46b5ed-20">
          <g stroke="#000000" stroke-opacity="0.000" class="geometry" fill="#00BFFF" id="img-4d46b5ed-21">
            <g transform="translate(26.29,56.89)" id="img-4d46b5ed-22">
              <path d="M-1.71,-21.83 L 1.71 -21.83 1.71 21.83 -1.71 21.83 z" class="primitive"/>
            </g>
            <g transform="translate(29.66,47.9)" id="img-4d46b5ed-23">
              <path d="M-1.71,-30.82 L 1.71 -30.82 1.71 30.82 -1.71 30.82 z" class="primitive"/>
            </g>
            <g transform="translate(33.02,65.87)" id="img-4d46b5ed-24">
              <path d="M-1.71,-12.84 L 1.71 -12.84 1.71 12.84 -1.71 12.84 z" class="primitive"/>
            </g>
            <g transform="translate(36.39,73.58)" id="img-4d46b5ed-25">
              <path d="M-1.71,-5.14 L 1.71 -5.14 1.71 5.14 -1.71 5.14 z" class="primitive"/>
            </g>
            <g transform="translate(39.75,73.58)" id="img-4d46b5ed-26">
              <path d="M-1.71,-5.14 L 1.71 -5.14 1.71 5.14 -1.71 5.14 z" class="primitive"/>
            </g>
            <g transform="translate(43.12,74.86)" id="img-4d46b5ed-27">
              <path d="M-1.71,-3.85 L 1.71 -3.85 1.71 3.85 -1.71 3.85 z" class="primitive"/>
            </g>
            <g transform="translate(46.48,78.72)" id="img-4d46b5ed-28">
              <path d="M-1.71,-0 L 1.71 -0 1.71 0 -1.71 0 z" class="primitive"/>
            </g>
            <g transform="translate(49.85,77.43)" id="img-4d46b5ed-29">
              <path d="M-1.71,-1.28 L 1.71 -1.28 1.71 1.28 -1.71 1.28 z" class="primitive"/>
            </g>
            <g transform="translate(53.21,78.72)" id="img-4d46b5ed-30">
              <path d="M-1.71,-0 L 1.71 -0 1.71 0 -1.71 0 z" class="primitive"/>
            </g>
            <g transform="translate(56.58,72.29)" id="img-4d46b5ed-31">
              <path d="M-1.71,-6.42 L 1.71 -6.42 1.71 6.42 -1.71 6.42 z" class="primitive"/>
            </g>
            <g transform="translate(59.94,77.43)" id="img-4d46b5ed-32">
              <path d="M-1.71,-1.28 L 1.71 -1.28 1.71 1.28 -1.71 1.28 z" class="primitive"/>
            </g>
            <g transform="translate(63.31,77.43)" id="img-4d46b5ed-33">
              <path d="M-1.71,-1.28 L 1.71 -1.28 1.71 1.28 -1.71 1.28 z" class="primitive"/>
            </g>
            <g transform="translate(66.67,77.43)" id="img-4d46b5ed-34">
              <path d="M-1.71,-1.28 L 1.71 -1.28 1.71 1.28 -1.71 1.28 z" class="primitive"/>
            </g>
            <g transform="translate(70.04,76.15)" id="img-4d46b5ed-35">
              <path d="M-1.71,-2.57 L 1.71 -2.57 1.71 2.57 -1.71 2.57 z" class="primitive"/>
            </g>
            <g transform="translate(73.4,78.72)" id="img-4d46b5ed-36">
              <path d="M-1.71,-0 L 1.71 -0 1.71 0 -1.71 0 z" class="primitive"/>
            </g>
            <g transform="translate(76.77,78.72)" id="img-4d46b5ed-37">
              <path d="M-1.71,-0 L 1.71 -0 1.71 0 -1.71 0 z" class="primitive"/>
            </g>
            <g transform="translate(80.13,77.43)" id="img-4d46b5ed-38">
              <path d="M-1.71,-1.28 L 1.71 -1.28 1.71 1.28 -1.71 1.28 z" class="primitive"/>
            </g>
            <g transform="translate(83.5,76.15)" id="img-4d46b5ed-39">
              <path d="M-1.71,-2.57 L 1.71 -2.57 1.71 2.57 -1.71 2.57 z" class="primitive"/>
            </g>
            <g transform="translate(86.86,78.72)" id="img-4d46b5ed-40">
              <path d="M-1.71,-0 L 1.71 -0 1.71 0 -1.71 0 z" class="primitive"/>
            </g>
            <g transform="translate(90.23,78.72)" id="img-4d46b5ed-41">
              <path d="M-1.71,-0 L 1.71 -0 1.71 0 -1.71 0 z" class="primitive"/>
            </g>
            <g transform="translate(93.59,78.72)" id="img-4d46b5ed-42">
              <path d="M-1.71,-0 L 1.71 -0 1.71 0 -1.71 0 z" class="primitive"/>
            </g>
            <g transform="translate(96.96,78.72)" id="img-4d46b5ed-43">
              <path d="M-1.71,-0 L 1.71 -0 1.71 0 -1.71 0 z" class="primitive"/>
            </g>
            <g transform="translate(100.32,77.43)" id="img-4d46b5ed-44">
              <path d="M-1.71,-1.28 L 1.71 -1.28 1.71 1.28 -1.71 1.28 z" class="primitive"/>
            </g>
            <g transform="translate(103.69,78.72)" id="img-4d46b5ed-45">
              <path d="M-1.71,-0 L 1.71 -0 1.71 0 -1.71 0 z" class="primitive"/>
            </g>
            <g transform="translate(107.05,78.72)" id="img-4d46b5ed-46">
              <path d="M-1.71,-0 L 1.71 -0 1.71 0 -1.71 0 z" class="primitive"/>
            </g>
            <g transform="translate(110.42,78.72)" id="img-4d46b5ed-47">
              <path d="M-1.71,-0 L 1.71 -0 1.71 0 -1.71 0 z" class="primitive"/>
            </g>
            <g transform="translate(113.78,78.72)" id="img-4d46b5ed-48">
              <path d="M-1.71,-0 L 1.71 -0 1.71 0 -1.71 0 z" class="primitive"/>
            </g>
            <g transform="translate(117.15,78.72)" id="img-4d46b5ed-49">
              <path d="M-1.71,-0 L 1.71 -0 1.71 0 -1.71 0 z" class="primitive"/>
            </g>
            <g transform="translate(120.51,77.43)" id="img-4d46b5ed-50">
              <path d="M-1.71,-1.28 L 1.71 -1.28 1.71 1.28 -1.71 1.28 z" class="primitive"/>
            </g>
            <g transform="translate(123.88,78.72)" id="img-4d46b5ed-51">
              <path d="M-1.71,-0 L 1.71 -0 1.71 0 -1.71 0 z" class="primitive"/>
            </g>
          </g>
        </g>
      </g>
    </g>
  </g>
  <g class="guide ylabels" font-size="2.82" font-family="'PT Sans Caption','Helvetica Neue','Helvetica',sans-serif" fill="#6C606B" id="img-4d46b5ed-52">
    <g transform="translate(17.63,78.72)" id="img-4d46b5ed-53">
      <g class="primitive">
        <text text-anchor="end" dy="0.35em">0.0</text>
      </g>
    </g>
    <g transform="translate(17.63,56.68)" id="img-4d46b5ed-54">
      <g class="primitive">
        <text text-anchor="end" dy="0.35em">0.1</text>
      </g>
    </g>
    <g transform="translate(17.63,34.65)" id="img-4d46b5ed-55">
      <g class="primitive">
        <text text-anchor="end" dy="0.35em">0.2</text>
      </g>
    </g>
    <g transform="translate(17.63,12.61)" id="img-4d46b5ed-56">
      <g class="primitive">
        <text text-anchor="end" dy="0.35em">0.3</text>
      </g>
    </g>
  </g>
  <g font-size="3.88" font-family="'PT Sans','Helvetica Neue','Helvetica',sans-serif" fill="#564A55" stroke="#000000" stroke-opacity="0.000" id="img-4d46b5ed-57">
    <g transform="translate(8.81,43.66)" id="img-4d46b5ed-58">
      <g class="primitive">
        <text text-anchor="middle" dy="0.35em" transform="rotate(-90,0, 2)">Frequencia</text>
      </g>
    </g>
  </g>
  <g font-size="3.88" font-family="'PT Sans','Helvetica Neue','Helvetica',sans-serif" fill="#564A55" stroke="#000000" stroke-opacity="0.000" id="img-4d46b5ed-59">
    <g transform="translate(81.82,5)" id="img-4d46b5ed-60">
      <g class="primitive">
        <text text-anchor="middle" dy="0.6em">Histograma Média Variedades por Unidade Domestica: mandioca. N = 78</text>
      </g>
    </g>
  </g>
</g>
<defs>
  <clipPath id="img-4d46b5ed-4">
    <path d="M18.63,10.61 L 145 10.61 145 80.72 18.63 80.72" />
  </clipPath>
</defs>
</svg>
