<?xml version="1.0" encoding="UTF-8"?>
<svg xmlns="http://www.w3.org/2000/svg"
     xmlns:xlink="http://www.w3.org/1999/xlink"
     xmlns:gadfly="http://www.gadflyjl.org/ns"
     version="1.2"
     width="200mm" height="140mm" viewBox="0 0 200 140"
     stroke="none"
     fill="#000000"
     stroke-width="0.3"
     font-size="3.88"
>
<defs>
  <marker id="arrow" markerWidth="15" markerHeight="7" refX="5" refY="3.5" orient="auto" markerUnits="strokeWidth">
    <path d="M0,0 L15,3.5 L0,7 z" stroke="context-stroke" fill="context-stroke"/>
  </marker>
</defs>
<g class="plotroot yscalable" id="img-6674324e-1">
  <g font-size="3.88" font-family="'PT Sans','Helvetica Neue','Helvetica',sans-serif" fill="#564A55" stroke="#000000" stroke-opacity="0.000" id="img-6674324e-2">
    <g transform="translate(106.82,128.39)">
      <g class="primitive">
        <text text-anchor="middle" dy="0.6em">Fonte</text>
      </g>
    </g>
  </g>
  <g class="guide xlabels" font-size="2.82" font-family="'PT Sans Caption','Helvetica Neue','Helvetica',sans-serif" fill="#6C606B" id="img-6674324e-3">
    <g transform="translate(21.9,68.44)">
      <g class="primitive">
        <text text-anchor="end" dy="0.35em" transform="rotate(-90,0, 0)">Boster (1984)</text>
      </g>
    </g>
    <g transform="translate(28.43,68.44)">
      <g class="primitive">
        <text text-anchor="end" dy="0.35em" transform="rotate(-90,0, 0)">Marchetti et al (2013). 1992</text>
      </g>
    </g>
    <g transform="translate(34.96,68.44)">
      <g class="primitive">
        <text text-anchor="end" dy="0.35em" transform="rotate(-90,0, 0)">Elias et al (2000)</text>
      </g>
    </g>
    <g transform="translate(41.49,68.44)">
      <g class="primitive">
        <text text-anchor="end" dy="0.35em" transform="rotate(-90,0, 0)">Pujol et al (2007). 1998</text>
      </g>
    </g>
    <g transform="translate(48.03,68.44)">
      <g class="primitive">
        <text text-anchor="end" dy="0.35em" transform="rotate(-90,0, 0)">Peroni (2004)</text>
      </g>
    </g>
    <g transform="translate(54.56,68.44)">
      <g class="primitive">
        <text text-anchor="end" dy="0.35em" transform="rotate(-90,0, 0)">Pujol et al (2007). 2002</text>
      </g>
    </g>
    <g transform="translate(61.09,68.44)">
      <g class="primitive">
        <text text-anchor="end" dy="0.35em" transform="rotate(-90,0, 0)">Pereira (2008). Aiucá</text>
      </g>
    </g>
    <g transform="translate(67.62,68.44)">
      <g class="primitive">
        <text text-anchor="end" dy="0.35em" transform="rotate(-90,0, 0)">Pereira (2008). Marirana</text>
      </g>
    </g>
    <g transform="translate(74.16,68.44)">
      <g class="primitive">
        <text text-anchor="end" dy="0.35em" transform="rotate(-90,0, 0)">Pereira (2008). Jarauá</text>
      </g>
    </g>
    <g transform="translate(80.69,68.44)">
      <g class="primitive">
        <text text-anchor="end" dy="0.35em" transform="rotate(-90,0, 0)">Pereira (2008). Nova Colômbia</text>
      </g>
    </g>
    <g transform="translate(87.22,68.44)">
      <g class="primitive">
        <text text-anchor="end" dy="0.35em" transform="rotate(-90,0, 0)">Pereira (2008). Boa Esperança</text>
      </g>
    </g>
    <g transform="translate(93.75,68.44)">
      <g class="primitive">
        <text text-anchor="end" dy="0.35em" transform="rotate(-90,0, 0)">Pereira (2008). Boa Vista do Calafate</text>
      </g>
    </g>
    <g transform="translate(100.28,68.44)">
      <g class="primitive">
        <text text-anchor="end" dy="0.35em" transform="rotate(-90,0, 0)">Pereira (2008). Monte Sinai</text>
      </g>
    </g>
    <g transform="translate(106.82,68.44)">
      <g class="primitive">
        <text text-anchor="end" dy="0.35em" transform="rotate(-90,0, 0)">Pereira (2008). Nova Samaria</text>
      </g>
    </g>
    <g transform="translate(113.35,68.44)">
      <g class="primitive">
        <text text-anchor="end" dy="0.35em" transform="rotate(-90,0, 0)">Pereira (2008). São Paulo do Coraci</text>
      </g>
    </g>
    <g transform="translate(119.88,68.44)">
      <g class="primitive">
        <text text-anchor="end" dy="0.35em" transform="rotate(-90,0, 0)">Pereira (2008). Nova Olinda</text>
      </g>
    </g>
    <g transform="translate(126.41,68.44)">
      <g class="primitive">
        <text text-anchor="end" dy="0.35em" transform="rotate(-90,0, 0)">Pereira (2008). São João do Ipecaçu</text>
      </g>
    </g>
    <g transform="translate(132.94,68.44)">
      <g class="primitive">
        <text text-anchor="end" dy="0.35em" transform="rotate(-90,0, 0)">Pereira (2008). Vila Alencar</text>
      </g>
    </g>
    <g transform="translate(139.48,68.44)">
      <g class="primitive">
        <text text-anchor="end" dy="0.35em" transform="rotate(-90,0, 0)">Fraser et al (2012). Água Azul</text>
      </g>
    </g>
    <g transform="translate(146.01,68.44)">
      <g class="primitive">
        <text text-anchor="end" dy="0.35em" transform="rotate(-90,0, 0)">Fraser et al (2012). Barro Alto</text>
      </g>
    </g>
    <g transform="translate(152.54,68.44)">
      <g class="primitive">
        <text text-anchor="end" dy="0.35em" transform="rotate(-90,0, 0)">Fraser et al (2012). Barreira do Capanã</text>
      </g>
    </g>
    <g transform="translate(159.07,68.44)">
      <g class="primitive">
        <text text-anchor="end" dy="0.35em" transform="rotate(-90,0, 0)">Fraser et al (2012). Vista Alegre</text>
      </g>
    </g>
    <g transform="translate(165.61,68.44)">
      <g class="primitive">
        <text text-anchor="end" dy="0.35em" transform="rotate(-90,0, 0)">Fraser et al (2012). Água Azul floodplain</text>
      </g>
    </g>
    <g transform="translate(172.14,68.44)">
      <g class="primitive">
        <text text-anchor="end" dy="0.35em" transform="rotate(-90,0, 0)">Fraser et al (2012). Genipapo floodplain</text>
      </g>
    </g>
    <g transform="translate(178.67,68.44)">
      <g class="primitive">
        <text text-anchor="end" dy="0.35em" transform="rotate(-90,0, 0)">Duputie et al (2009)</text>
      </g>
    </g>
    <g transform="translate(185.2,68.44)">
      <g class="primitive">
        <text text-anchor="end" dy="0.35em" transform="rotate(-90,0, 0)">Kawa et al (2013)</text>
      </g>
    </g>
    <g transform="translate(191.73,68.44)">
      <g class="primitive">
        <text text-anchor="end" dy="0.35em" transform="rotate(-90,0, 0)">Marchetti et al (2013). 2011</text>
      </g>
    </g>
  </g>
  <g clip-path="url(#img-6674324e-4)">
    <g id="img-6674324e-5">
      <g pointer-events="visible" fill="#000000" fill-opacity="0.000" stroke="#000000" stroke-opacity="0.000" class="guide background" id="img-6674324e-6">
        <g transform="translate(106.82,39.02)" id="img-6674324e-7">
          <path d="M-88.18,-28.41 L 88.18 -28.41 88.18 28.41 -88.18 28.41 z" class="primitive"/>
        </g>
      </g>
      <g class="guide ygridlines xfixed" stroke-dasharray="0.5,0.5" stroke-width="0.2" stroke="#D0D0E0" id="img-6674324e-8">
        <g transform="translate(106.82,65.44)" id="img-6674324e-9">
          <path fill="none" d="M-88.18,0 L 88.18 0" class="primitive"/>
        </g>
        <g transform="translate(106.82,39.02)" id="img-6674324e-10">
          <path fill="none" d="M-88.18,0 L 88.18 0" class="primitive"/>
        </g>
        <g transform="translate(106.82,12.61)" id="img-6674324e-11">
          <path fill="none" d="M-88.18,0 L 88.18 0" class="primitive"/>
        </g>
      </g>
      <g class="guide xgridlines yfixed" stroke-dasharray="0.5,0.5" stroke-width="0.2" stroke="#D0D0E0" id="img-6674324e-12">
        <g transform="translate(25.16,39.02)" id="img-6674324e-13">
          <path fill="none" d="M0,-28.41 L 0 28.41" class="primitive"/>
        </g>
        <g transform="translate(31.7,39.02)" id="img-6674324e-14">
          <path fill="none" d="M0,-28.41 L 0 28.41" class="primitive"/>
        </g>
        <g transform="translate(38.23,39.02)" id="img-6674324e-15">
          <path fill="none" d="M0,-28.41 L 0 28.41" class="primitive"/>
        </g>
        <g transform="translate(44.76,39.02)" id="img-6674324e-16">
          <path fill="none" d="M0,-28.41 L 0 28.41" class="primitive"/>
        </g>
        <g transform="translate(51.29,39.02)" id="img-6674324e-17">
          <path fill="none" d="M0,-28.41 L 0 28.41" class="primitive"/>
        </g>
        <g transform="translate(57.82,39.02)" id="img-6674324e-18">
          <path fill="none" d="M0,-28.41 L 0 28.41" class="primitive"/>
        </g>
        <g transform="translate(64.36,39.02)" id="img-6674324e-19">
          <path fill="none" d="M0,-28.41 L 0 28.41" class="primitive"/>
        </g>
        <g transform="translate(70.89,39.02)" id="img-6674324e-20">
          <path fill="none" d="M0,-28.41 L 0 28.41" class="primitive"/>
        </g>
        <g transform="translate(77.42,39.02)" id="img-6674324e-21">
          <path fill="none" d="M0,-28.41 L 0 28.41" class="primitive"/>
        </g>
        <g transform="translate(83.95,39.02)" id="img-6674324e-22">
          <path fill="none" d="M0,-28.41 L 0 28.41" class="primitive"/>
        </g>
        <g transform="translate(90.49,39.02)" id="img-6674324e-23">
          <path fill="none" d="M0,-28.41 L 0 28.41" class="primitive"/>
        </g>
        <g transform="translate(97.02,39.02)" id="img-6674324e-24">
          <path fill="none" d="M0,-28.41 L 0 28.41" class="primitive"/>
        </g>
        <g transform="translate(103.55,39.02)" id="img-6674324e-25">
          <path fill="none" d="M0,-28.41 L 0 28.41" class="primitive"/>
        </g>
        <g transform="translate(110.08,39.02)" id="img-6674324e-26">
          <path fill="none" d="M0,-28.41 L 0 28.41" class="primitive"/>
        </g>
        <g transform="translate(116.61,39.02)" id="img-6674324e-27">
          <path fill="none" d="M0,-28.41 L 0 28.41" class="primitive"/>
        </g>
        <g transform="translate(123.15,39.02)" id="img-6674324e-28">
          <path fill="none" d="M0,-28.41 L 0 28.41" class="primitive"/>
        </g>
        <g transform="translate(129.68,39.02)" id="img-6674324e-29">
          <path fill="none" d="M0,-28.41 L 0 28.41" class="primitive"/>
        </g>
        <g transform="translate(136.21,39.02)" id="img-6674324e-30">
          <path fill="none" d="M0,-28.41 L 0 28.41" class="primitive"/>
        </g>
        <g transform="translate(142.74,39.02)" id="img-6674324e-31">
          <path fill="none" d="M0,-28.41 L 0 28.41" class="primitive"/>
        </g>
        <g transform="translate(149.27,39.02)" id="img-6674324e-32">
          <path fill="none" d="M0,-28.41 L 0 28.41" class="primitive"/>
        </g>
        <g transform="translate(155.81,39.02)" id="img-6674324e-33">
          <path fill="none" d="M0,-28.41 L 0 28.41" class="primitive"/>
        </g>
        <g transform="translate(162.34,39.02)" id="img-6674324e-34">
          <path fill="none" d="M0,-28.41 L 0 28.41" class="primitive"/>
        </g>
        <g transform="translate(168.87,39.02)" id="img-6674324e-35">
          <path fill="none" d="M0,-28.41 L 0 28.41" class="primitive"/>
        </g>
        <g transform="translate(175.4,39.02)" id="img-6674324e-36">
          <path fill="none" d="M0,-28.41 L 0 28.41" class="primitive"/>
        </g>
        <g transform="translate(181.94,39.02)" id="img-6674324e-37">
          <path fill="none" d="M0,-28.41 L 0 28.41" class="primitive"/>
        </g>
        <g transform="translate(188.47,39.02)" id="img-6674324e-38">
          <path fill="none" d="M0,-28.41 L 0 28.41" class="primitive"/>
        </g>
      </g>
      <g class="plotpanel" id="img-6674324e-39">
        <metadata>
          <boundingbox value="18.63166666666669mm 10.611666666666665mm 176.36833333333334mm 56.82333333333334mm"/>
          <unitbox value="0.5 1.0378620559096359 27.0 -1.0757241118192717"/>
        </metadata>
        <g class="geometry" stroke-width="0.3" id="img-6674324e-40">
          <g transform="translate(21.9,56.78)" id="img-6674324e-41" stroke="#00BFFF" fill="#00BFFF">
            <path d="M-2.77,-4.38 L 2.77 -4.38 2.77 4.38 -2.77 4.38 z" class="primitive"/>
          </g>
          <g transform="translate(28.43,61.28)" id="img-6674324e-42" stroke="#00BFFF" fill="#00BFFF">
            <path d="M-2.77,-2.2 L 2.77 -2.2 2.77 2.2 -2.77 2.2 z" class="primitive"/>
          </g>
          <g transform="translate(34.96,55.53)" id="img-6674324e-43" stroke="#00BFFF" fill="#00BFFF">
            <path d="M-2.77,-7.69 L 2.77 -7.69 2.77 7.69 -2.77 7.69 z" class="primitive"/>
          </g>
          <g transform="translate(41.49,37.37)" id="img-6674324e-44" stroke="#00BFFF" fill="#00BFFF">
            <path d="M-2.77,-11.56 L 2.77 -11.56 2.77 11.56 -2.77 11.56 z" class="primitive"/>
          </g>
          <g transform="translate(48.03,62.34)" id="img-6674324e-45" stroke="#00BFFF" fill="#00BFFF">
            <path d="M-2.77,-1.56 L 2.77 -1.56 2.77 1.56 -2.77 1.56 z" class="primitive"/>
          </g>
          <g transform="translate(54.56,35.72)" id="img-6674324e-46" stroke="#00BFFF" fill="#00BFFF">
            <path d="M-2.77,-16.51 L 2.77 -16.51 2.77 16.51 -2.77 16.51 z" class="primitive"/>
          </g>
          <g transform="translate(61.09,56.19)" id="img-6674324e-47" stroke="#00BFFF" fill="#00BFFF">
            <path d="M-2.77,-3.96 L 2.77 -3.96 2.77 3.96 -2.77 3.96 z" class="primitive"/>
          </g>
          <g transform="translate(67.62,34.63)" id="img-6674324e-48" stroke="#00BFFF" fill="#00BFFF">
            <path d="M-2.77,-13.22 L 2.77 -13.22 2.77 13.22 -2.77 13.22 z" class="primitive"/>
          </g>
          <g transform="translate(74.16,59.86)" id="img-6674324e-49" stroke="#00BFFF" fill="#00BFFF">
            <path d="M-2.77,-2.77 L 2.77 -2.77 2.77 2.77 -2.77 2.77 z" class="primitive"/>
          </g>
          <g transform="translate(80.69,54.88)" id="img-6674324e-50" stroke="#00BFFF" fill="#00BFFF">
            <path d="M-2.77,-0 L 2.77 -0 2.77 0 -2.77 0 z" class="primitive"/>
          </g>
          <g transform="translate(87.22,61.31)" id="img-6674324e-51" stroke="#00BFFF" fill="#00BFFF">
            <path d="M-2.77,-2.48 L 2.77 -2.48 2.77 2.48 -2.77 2.48 z" class="primitive"/>
          </g>
          <g transform="translate(93.75,51.27)" id="img-6674324e-52" stroke="#00BFFF" fill="#00BFFF">
            <path d="M-2.77,-6.61 L 2.77 -6.61 2.77 6.61 -2.77 6.61 z" class="primitive"/>
          </g>
          <g transform="translate(100.28,28.46)" id="img-6674324e-53" stroke="#00BFFF" fill="#00BFFF">
            <path d="M-2.77,-5.28 L 2.77 -5.28 2.77 5.28 -2.77 5.28 z" class="primitive"/>
          </g>
          <g transform="translate(106.82,39.02)" id="img-6674324e-54" stroke="#00BFFF" fill="#00BFFF">
            <path d="M-2.77,-8.82 L 2.77 -8.82 2.77 8.82 -2.77 8.82 z" class="primitive"/>
          </g>
          <g transform="translate(113.35,56.19)" id="img-6674324e-55" stroke="#00BFFF" fill="#00BFFF">
            <path d="M-2.77,-3.96 L 2.77 -3.96 2.77 3.96 -2.77 3.96 z" class="primitive"/>
          </g>
          <g transform="translate(119.88,61.66)" id="img-6674324e-56" stroke="#00BFFF" fill="#00BFFF">
            <path d="M-2.77,-1.24 L 2.77 -1.24 2.77 1.24 -2.77 1.24 z" class="primitive"/>
          </g>
          <g transform="translate(126.41,58.84)" id="img-6674324e-57" stroke="#00BFFF" fill="#00BFFF">
            <path d="M-2.77,-0 L 2.77 -0 2.77 0 -2.77 0 z" class="primitive"/>
          </g>
          <g transform="translate(132.94,44.31)" id="img-6674324e-58" stroke="#00BFFF" fill="#00BFFF">
            <path d="M-2.77,-10.56 L 2.77 -10.56 2.77 10.56 -2.77 10.56 z" class="primitive"/>
          </g>
          <g transform="translate(139.48,48.93)" id="img-6674324e-59" stroke="#00BFFF" fill="#00BFFF">
            <path d="M-2.77,-7.69 L 2.77 -7.69 2.77 7.69 -2.77 7.69 z" class="primitive"/>
          </g>
          <g transform="translate(146.01,57.56)" id="img-6674324e-60" stroke="#00BFFF" fill="#00BFFF">
            <path d="M-2.77,-6.89 L 2.77 -6.89 2.77 6.89 -2.77 6.89 z" class="primitive"/>
          </g>
          <g transform="translate(152.54,54.87)" id="img-6674324e-61" stroke="#00BFFF" fill="#00BFFF">
            <path d="M-2.77,-8.58 L 2.77 -8.58 2.77 8.58 -2.77 8.58 z" class="primitive"/>
          </g>
          <g transform="translate(159.07,58.01)" id="img-6674324e-62" stroke="#00BFFF" fill="#00BFFF">
            <path d="M-2.77,-5.78 L 2.77 -5.78 2.77 5.78 -2.77 5.78 z" class="primitive"/>
          </g>
          <g transform="translate(165.61,54.42)" id="img-6674324e-63" stroke="#00BFFF" fill="#00BFFF">
            <path d="M-2.77,-8.8 L 2.77 -8.8 2.77 8.8 -2.77 8.8 z" class="primitive"/>
          </g>
          <g transform="translate(172.14,58.63)" id="img-6674324e-64" stroke="#00BFFF" fill="#00BFFF">
            <path d="M-2.77,-5.27 L 2.77 -5.27 2.77 5.27 -2.77 5.27 z" class="primitive"/>
          </g>
          <g transform="translate(178.67,48.93)" id="img-6674324e-65" stroke="#00BFFF" fill="#00BFFF">
            <path d="M-2.77,-9.9 L 2.77 -9.9 2.77 9.9 -2.77 9.9 z" class="primitive"/>
          </g>
          <g transform="translate(185.2,61.92)" id="img-6674324e-66" stroke="#00BFFF" fill="#00BFFF">
            <path d="M-2.77,-2.35 L 2.77 -2.35 2.77 2.35 -2.77 2.35 z" class="primitive"/>
          </g>
          <g transform="translate(191.73,62.14)" id="img-6674324e-67" stroke="#00BFFF" fill="#00BFFF">
            <path d="M-2.77,-1.55 L 2.77 -1.55 2.77 1.55 -2.77 1.55 z" class="primitive"/>
          </g>
          <g transform="translate(21.9,40.45)" id="img-6674324e-68" stroke="#00BFFF">
            <path fill="none" d="M-1.84,0 L 1.84 0" class="primitive"/>
          </g>
          <g transform="translate(28.43,53.71)" id="img-6674324e-69" stroke="#00BFFF">
            <path fill="none" d="M-1.84,0 L 1.84 0" class="primitive"/>
          </g>
          <g transform="translate(34.96,28.04)" id="img-6674324e-70" stroke="#00BFFF">
            <path fill="none" d="M-1.84,0 L 1.84 0" class="primitive"/>
          </g>
          <g transform="translate(41.49,12.61)" id="img-6674324e-71" stroke="#00BFFF">
            <path fill="none" d="M-1.84,0 L 1.84 0" class="primitive"/>
          </g>
          <g transform="translate(48.03,56.14)" id="img-6674324e-72" stroke="#00BFFF">
            <path fill="none" d="M-1.84,0 L 1.84 0" class="primitive"/>
          </g>
          <g transform="translate(54.56,12.61)" id="img-6674324e-73" stroke="#00BFFF">
            <path fill="none" d="M-1.84,0 L 1.84 0" class="primitive"/>
          </g>
          <g transform="translate(61.09,49.59)" id="img-6674324e-74" stroke="#00BFFF">
            <path fill="none" d="M-1.84,0 L 1.84 0" class="primitive"/>
          </g>
          <g transform="translate(67.62,12.61)" id="img-6674324e-75" stroke="#00BFFF">
            <path fill="none" d="M-1.84,0 L 1.84 0" class="primitive"/>
          </g>
          <g transform="translate(74.16,51.54)" id="img-6674324e-76" stroke="#00BFFF">
            <path fill="none" d="M-1.84,0 L 1.84 0" class="primitive"/>
          </g>
          <g transform="translate(80.69,54.87)" id="img-6674324e-77" stroke="#00BFFF">
            <path fill="none" d="M-1.84,0 L 1.84 0" class="primitive"/>
          </g>
          <g transform="translate(87.22,58.83)" id="img-6674324e-78" stroke="#00BFFF">
            <path fill="none" d="M-1.84,0 L 1.84 0" class="primitive"/>
          </g>
          <g transform="translate(93.75,35.27)" id="img-6674324e-79" stroke="#00BFFF">
            <path fill="none" d="M-1.84,0 L 1.84 0" class="primitive"/>
          </g>
          <g transform="translate(100.28,17.89)" id="img-6674324e-80" stroke="#00BFFF">
            <path fill="none" d="M-1.84,0 L 1.84 0" class="primitive"/>
          </g>
          <g transform="translate(106.82,30.2)" id="img-6674324e-81" stroke="#00BFFF">
            <path fill="none" d="M-1.84,0 L 1.84 0" class="primitive"/>
          </g>
          <g transform="translate(113.35,49.59)" id="img-6674324e-82" stroke="#00BFFF">
            <path fill="none" d="M-1.84,0 L 1.84 0" class="primitive"/>
          </g>
          <g transform="translate(119.88,57.88)" id="img-6674324e-83" stroke="#00BFFF">
            <path fill="none" d="M-1.84,0 L 1.84 0" class="primitive"/>
          </g>
          <g transform="translate(126.41,58.83)" id="img-6674324e-84" stroke="#00BFFF">
            <path fill="none" d="M-1.84,0 L 1.84 0" class="primitive"/>
          </g>
          <g transform="translate(132.94,33.74)" id="img-6674324e-85" stroke="#00BFFF">
            <path fill="none" d="M-1.84,0 L 1.84 0" class="primitive"/>
          </g>
          <g transform="translate(139.48,23.6)" id="img-6674324e-86" stroke="#00BFFF">
            <path fill="none" d="M-1.84,0 L 1.84 0" class="primitive"/>
          </g>
          <g transform="translate(146.01,45.2)" id="img-6674324e-87" stroke="#00BFFF">
            <path fill="none" d="M-1.84,0 L 1.84 0" class="primitive"/>
          </g>
          <g transform="translate(152.54,32.42)" id="img-6674324e-88" stroke="#00BFFF">
            <path fill="none" d="M-1.84,0 L 1.84 0" class="primitive"/>
          </g>
          <g transform="translate(159.07,39.02)" id="img-6674324e-89" stroke="#00BFFF">
            <path fill="none" d="M-1.84,0 L 1.84 0" class="primitive"/>
          </g>
          <g transform="translate(165.61,39.02)" id="img-6674324e-90" stroke="#00BFFF">
            <path fill="none" d="M-1.84,0 L 1.84 0" class="primitive"/>
          </g>
          <g transform="translate(172.14,51.86)" id="img-6674324e-91" stroke="#00BFFF">
            <path fill="none" d="M-1.84,0 L 1.84 0" class="primitive"/>
          </g>
          <g transform="translate(178.67,12.61)" id="img-6674324e-92" stroke="#00BFFF">
            <path fill="none" d="M-1.84,0 L 1.84 0" class="primitive"/>
          </g>
          <g transform="translate(185.2,56.03)" id="img-6674324e-93" stroke="#00BFFF">
            <path fill="none" d="M-1.84,0 L 1.84 0" class="primitive"/>
          </g>
          <g transform="translate(191.73,56.61)" id="img-6674324e-94" stroke="#00BFFF">
            <path fill="none" d="M-1.84,0 L 1.84 0" class="primitive"/>
          </g>
          <g transform="translate(21.9,64.01)" id="img-6674324e-95" stroke="#00BFFF">
            <path fill="none" d="M-1.84,0 L 1.84 0" class="primitive"/>
          </g>
          <g transform="translate(28.43,63.48)" id="img-6674324e-96" stroke="#00BFFF">
            <path fill="none" d="M-1.84,0 L 1.84 0" class="primitive"/>
          </g>
          <g transform="translate(34.96,63.22)" id="img-6674324e-97" stroke="#00BFFF">
            <path fill="none" d="M-1.84,0 L 1.84 0" class="primitive"/>
          </g>
          <g transform="translate(41.49,52.23)" id="img-6674324e-98" stroke="#00BFFF">
            <path fill="none" d="M-1.84,0 L 1.84 0" class="primitive"/>
          </g>
          <g transform="translate(48.03,63.9)" id="img-6674324e-99" stroke="#00BFFF">
            <path fill="none" d="M-1.84,0 L 1.84 0" class="primitive"/>
          </g>
          <g transform="translate(54.56,52.23)" id="img-6674324e-100" stroke="#00BFFF">
            <path fill="none" d="M-1.84,0 L 1.84 0" class="primitive"/>
          </g>
          <g transform="translate(61.09,62.79)" id="img-6674324e-101" stroke="#00BFFF">
            <path fill="none" d="M-1.84,0 L 1.84 0" class="primitive"/>
          </g>
          <g transform="translate(67.62,47.84)" id="img-6674324e-102" stroke="#00BFFF">
            <path fill="none" d="M-1.84,0 L 1.84 0" class="primitive"/>
          </g>
          <g transform="translate(74.16,62.64)" id="img-6674324e-103" stroke="#00BFFF">
            <path fill="none" d="M-1.84,0 L 1.84 0" class="primitive"/>
          </g>
          <g transform="translate(80.69,54.87)" id="img-6674324e-104" stroke="#00BFFF">
            <path fill="none" d="M-1.84,0 L 1.84 0" class="primitive"/>
          </g>
          <g transform="translate(87.22,63.8)" id="img-6674324e-105" stroke="#00BFFF">
            <path fill="none" d="M-1.84,0 L 1.84 0" class="primitive"/>
          </g>
          <g transform="translate(93.75,57.88)" id="img-6674324e-106" stroke="#00BFFF">
            <path fill="none" d="M-1.84,0 L 1.84 0" class="primitive"/>
          </g>
          <g transform="translate(100.28,39.02)" id="img-6674324e-107" stroke="#00BFFF">
            <path fill="none" d="M-1.84,0 L 1.84 0" class="primitive"/>
          </g>
          <g transform="translate(106.82,47.84)" id="img-6674324e-108" stroke="#00BFFF">
            <path fill="none" d="M-1.84,0 L 1.84 0" class="primitive"/>
          </g>
          <g transform="translate(113.35,60.15)" id="img-6674324e-109" stroke="#00BFFF">
            <path fill="none" d="M-1.84,0 L 1.84 0" class="primitive"/>
          </g>
          <g transform="translate(119.88,62.9)" id="img-6674324e-110" stroke="#00BFFF">
            <path fill="none" d="M-1.84,0 L 1.84 0" class="primitive"/>
          </g>
          <g transform="translate(126.41,58.83)" id="img-6674324e-111" stroke="#00BFFF">
            <path fill="none" d="M-1.84,0 L 1.84 0" class="primitive"/>
          </g>
          <g transform="translate(132.94,54.87)" id="img-6674324e-112" stroke="#00BFFF">
            <path fill="none" d="M-1.84,0 L 1.84 0" class="primitive"/>
          </g>
          <g transform="translate(139.48,63.22)" id="img-6674324e-113" stroke="#00BFFF">
            <path fill="none" d="M-1.84,0 L 1.84 0" class="primitive"/>
          </g>
          <g transform="translate(146.01,64.85)" id="img-6674324e-114" stroke="#00BFFF">
            <path fill="none" d="M-1.84,0 L 1.84 0" class="primitive"/>
          </g>
          <g transform="translate(152.54,64.11)" id="img-6674324e-115" stroke="#00BFFF">
            <path fill="none" d="M-1.84,0 L 1.84 0" class="primitive"/>
          </g>
          <g transform="translate(159.07,63.8)" id="img-6674324e-116" stroke="#00BFFF">
            <path fill="none" d="M-1.84,0 L 1.84 0" class="primitive"/>
          </g>
          <g transform="translate(165.61,63.22)" id="img-6674324e-117" stroke="#00BFFF">
            <path fill="none" d="M-1.84,0 L 1.84 0" class="primitive"/>
          </g>
          <g transform="translate(172.14,63.9)" id="img-6674324e-118" stroke="#00BFFF">
            <path fill="none" d="M-1.84,0 L 1.84 0" class="primitive"/>
          </g>
          <g transform="translate(178.67,60.15)" id="img-6674324e-119" stroke="#00BFFF">
            <path fill="none" d="M-1.84,0 L 1.84 0" class="primitive"/>
          </g>
          <g transform="translate(185.2,64.27)" id="img-6674324e-120" stroke="#00BFFF">
            <path fill="none" d="M-1.84,0 L 1.84 0" class="primitive"/>
          </g>
          <g transform="translate(191.73,63.69)" id="img-6674324e-121" stroke="#00BFFF">
            <path fill="none" d="M-1.84,0 L 1.84 0" class="primitive"/>
          </g>
          <g transform="translate(21.9,46.43)" id="img-6674324e-122" stroke="#00BFFF">
            <path fill="none" d="M0,5.98 L 0 -5.98" class="primitive"/>
          </g>
          <g transform="translate(28.43,56.4)" id="img-6674324e-123" stroke="#00BFFF">
            <path fill="none" d="M0,2.69 L 0 -2.69" class="primitive"/>
          </g>
          <g transform="translate(34.96,37.94)" id="img-6674324e-124" stroke="#00BFFF">
            <path fill="none" d="M0,9.9 L 0 -9.9" class="primitive"/>
          </g>
          <g transform="translate(41.49,19.21)" id="img-6674324e-125" stroke="#00BFFF">
            <path fill="none" d="M0,6.6 L 0 -6.6" class="primitive"/>
          </g>
          <g transform="translate(48.03,58.46)" id="img-6674324e-126" stroke="#00BFFF">
            <path fill="none" d="M0,2.32 L 0 -2.32" class="primitive"/>
          </g>
          <g transform="translate(54.56,15.91)" id="img-6674324e-127" stroke="#00BFFF">
            <path fill="none" d="M0,3.3 L 0 -3.3" class="primitive"/>
          </g>
          <g transform="translate(61.09,50.91)" id="img-6674324e-128" stroke="#00BFFF">
            <path fill="none" d="M0,1.32 L 0 -1.32" class="primitive"/>
          </g>
          <g transform="translate(67.62,17.01)" id="img-6674324e-129" stroke="#00BFFF">
            <path fill="none" d="M0,4.4 L 0 -4.4" class="primitive"/>
          </g>
          <g transform="translate(74.16,54.32)" id="img-6674324e-130" stroke="#00BFFF">
            <path fill="none" d="M0,2.77 L 0 -2.77" class="primitive"/>
          </g>
          <g transform="translate(80.69,54.87)" id="img-6674324e-131" stroke="#00BFFF">
            <path fill="none" d="M0,0 L 0 0" class="primitive"/>
          </g>
          <g transform="translate(87.22,58.83)" id="img-6674324e-132" stroke="#00BFFF">
            <path fill="none" d="M0,0 L 0 0" class="primitive"/>
          </g>
          <g transform="translate(93.75,39.97)" id="img-6674324e-133" stroke="#00BFFF">
            <path fill="none" d="M0,4.69 L 0 -4.69" class="primitive"/>
          </g>
          <g transform="translate(100.28,20.54)" id="img-6674324e-134" stroke="#00BFFF">
            <path fill="none" d="M0,2.64 L 0 -2.64" class="primitive"/>
          </g>
          <g transform="translate(106.82,30.2)" id="img-6674324e-135" stroke="#00BFFF">
            <path fill="none" d="M0,0 L 0 0" class="primitive"/>
          </g>
          <g transform="translate(113.35,50.91)" id="img-6674324e-136" stroke="#00BFFF">
            <path fill="none" d="M0,1.32 L 0 -1.32" class="primitive"/>
          </g>
          <g transform="translate(119.88,59.15)" id="img-6674324e-137" stroke="#00BFFF">
            <path fill="none" d="M0,1.27 L 0 -1.27" class="primitive"/>
          </g>
          <g transform="translate(126.41,58.83)" id="img-6674324e-138" stroke="#00BFFF">
            <path fill="none" d="M0,0 L 0 0" class="primitive"/>
          </g>
          <g transform="translate(132.94,33.74)" id="img-6674324e-139" stroke="#00BFFF">
            <path fill="none" d="M0,0 L 0 0" class="primitive"/>
          </g>
          <g transform="translate(139.48,32.42)" id="img-6674324e-140" stroke="#00BFFF">
            <path fill="none" d="M0,8.82 L 0 -8.82" class="primitive"/>
          </g>
          <g transform="translate(146.01,47.94)" id="img-6674324e-141" stroke="#00BFFF">
            <path fill="none" d="M0,2.73 L 0 -2.73" class="primitive"/>
          </g>
          <g transform="translate(152.54,39.35)" id="img-6674324e-142" stroke="#00BFFF">
            <path fill="none" d="M0,6.93 L 0 -6.93" class="primitive"/>
          </g>
          <g transform="translate(159.07,45.63)" id="img-6674324e-143" stroke="#00BFFF">
            <path fill="none" d="M0,6.6 L 0 -6.6" class="primitive"/>
          </g>
          <g transform="translate(165.61,42.32)" id="img-6674324e-144" stroke="#00BFFF">
            <path fill="none" d="M0,3.3 L 0 -3.3" class="primitive"/>
          </g>
          <g transform="translate(172.14,52.61)" id="img-6674324e-145" stroke="#00BFFF">
            <path fill="none" d="M0,0.75 L 0 -0.75" class="primitive"/>
          </g>
          <g transform="translate(178.67,25.82)" id="img-6674324e-146" stroke="#00BFFF">
            <path fill="none" d="M0,13.21 L 0 -13.21" class="primitive"/>
          </g>
          <g transform="translate(185.2,57.8)" id="img-6674324e-147" stroke="#00BFFF">
            <path fill="none" d="M0,1.77 L 0 -1.77" class="primitive"/>
          </g>
          <g transform="translate(191.73,58.6)" id="img-6674324e-148" stroke="#00BFFF">
            <path fill="none" d="M0,1.99 L 0 -1.99" class="primitive"/>
          </g>
          <g transform="translate(21.9,62.58)" id="img-6674324e-149" stroke="#00BFFF">
            <path fill="none" d="M0,-1.43 L 0 1.43" class="primitive"/>
          </g>
          <g transform="translate(28.43,63.48)" id="img-6674324e-150" stroke="#00BFFF">
            <path fill="none" d="M0,0 L 0 0" class="primitive"/>
          </g>
          <g transform="translate(34.96,63.22)" id="img-6674324e-151" stroke="#00BFFF">
            <path fill="none" d="M0,0 L 0 0" class="primitive"/>
          </g>
          <g transform="translate(41.49,50.58)" id="img-6674324e-152" stroke="#00BFFF">
            <path fill="none" d="M0,-1.65 L 0 1.65" class="primitive"/>
          </g>
          <g transform="translate(48.03,63.9)" id="img-6674324e-153" stroke="#00BFFF">
            <path fill="none" d="M0,0 L 0 0" class="primitive"/>
          </g>
          <g transform="translate(54.56,52.23)" id="img-6674324e-154" stroke="#00BFFF">
            <path fill="none" d="M0,0 L 0 0" class="primitive"/>
          </g>
          <g transform="translate(61.09,61.47)" id="img-6674324e-155" stroke="#00BFFF">
            <path fill="none" d="M0,-1.32 L 0 1.32" class="primitive"/>
          </g>
          <g transform="translate(67.62,47.84)" id="img-6674324e-156" stroke="#00BFFF">
            <path fill="none" d="M0,0 L 0 0" class="primitive"/>
          </g>
          <g transform="translate(74.16,62.64)" id="img-6674324e-157" stroke="#00BFFF">
            <path fill="none" d="M0,0 L 0 0" class="primitive"/>
          </g>
          <g transform="translate(80.69,54.87)" id="img-6674324e-158" stroke="#00BFFF">
            <path fill="none" d="M0,0 L 0 0" class="primitive"/>
          </g>
          <g transform="translate(87.22,63.8)" id="img-6674324e-159" stroke="#00BFFF">
            <path fill="none" d="M0,0 L 0 0" class="primitive"/>
          </g>
          <g transform="translate(93.75,57.88)" id="img-6674324e-160" stroke="#00BFFF">
            <path fill="none" d="M0,0 L 0 0" class="primitive"/>
          </g>
          <g transform="translate(100.28,36.38)" id="img-6674324e-161" stroke="#00BFFF">
            <path fill="none" d="M0,-2.64 L 0 2.64" class="primitive"/>
          </g>
          <g transform="translate(106.82,47.84)" id="img-6674324e-162" stroke="#00BFFF">
            <path fill="none" d="M0,0 L 0 0" class="primitive"/>
          </g>
          <g transform="translate(113.35,60.15)" id="img-6674324e-163" stroke="#00BFFF">
            <path fill="none" d="M0,0 L 0 0" class="primitive"/>
          </g>
          <g transform="translate(119.88,62.9)" id="img-6674324e-164" stroke="#00BFFF">
            <path fill="none" d="M0,0 L 0 0" class="primitive"/>
          </g>
          <g transform="translate(126.41,58.83)" id="img-6674324e-165" stroke="#00BFFF">
            <path fill="none" d="M0,0 L 0 0" class="primitive"/>
          </g>
          <g transform="translate(132.94,54.87)" id="img-6674324e-166" stroke="#00BFFF">
            <path fill="none" d="M0,0 L 0 0" class="primitive"/>
          </g>
          <g transform="translate(139.48,59.91)" id="img-6674324e-167" stroke="#00BFFF">
            <path fill="none" d="M0,-3.3 L 0 3.3" class="primitive"/>
          </g>
          <g transform="translate(146.01,64.66)" id="img-6674324e-168" stroke="#00BFFF">
            <path fill="none" d="M0,-0.2 L 0 0.2" class="primitive"/>
          </g>
          <g transform="translate(152.54,63.78)" id="img-6674324e-169" stroke="#00BFFF">
            <path fill="none" d="M0,-0.33 L 0 0.33" class="primitive"/>
          </g>
          <g transform="translate(159.07,63.8)" id="img-6674324e-170" stroke="#00BFFF">
            <path fill="none" d="M0,0 L 0 0" class="primitive"/>
          </g>
          <g transform="translate(165.61,63.22)" id="img-6674324e-171" stroke="#00BFFF">
            <path fill="none" d="M0,0 L 0 0" class="primitive"/>
          </g>
          <g transform="translate(172.14,63.9)" id="img-6674324e-172" stroke="#00BFFF">
            <path fill="none" d="M0,0 L 0 0" class="primitive"/>
          </g>
          <g transform="translate(178.67,59.49)" id="img-6674324e-173" stroke="#00BFFF">
            <path fill="none" d="M0,-0.66 L 0 0.66" class="primitive"/>
          </g>
          <g transform="translate(185.2,64.27)" id="img-6674324e-174" stroke="#00BFFF">
            <path fill="none" d="M0,0 L 0 0" class="primitive"/>
          </g>
          <g transform="translate(191.73,63.69)" id="img-6674324e-175" stroke="#00BFFF">
            <path fill="none" d="M0,0 L 0 0" class="primitive"/>
          </g>
          <g stroke-width="0.6" id="img-6674324e-176">
            <g transform="translate(21.9,58.65)" id="img-6674324e-177" stroke="#B5FFFF">
              <path fill="none" d="M-1.84,0 L 1.84 0" class="primitive"/>
            </g>
            <g transform="translate(28.43,61.53)" id="img-6674324e-178" stroke="#B5FFFF">
              <path fill="none" d="M-1.84,0 L 1.84 0" class="primitive"/>
            </g>
            <g transform="translate(34.96,58.83)" id="img-6674324e-179" stroke="#B5FFFF">
              <path fill="none" d="M-1.84,0 L 1.84 0" class="primitive"/>
            </g>
            <g transform="translate(41.49,32.42)" id="img-6674324e-180" stroke="#B5FFFF">
              <path fill="none" d="M-1.84,0 L 1.84 0" class="primitive"/>
            </g>
            <g transform="translate(48.03,62.32)" id="img-6674324e-181" stroke="#B5FFFF">
              <path fill="none" d="M-1.84,0 L 1.84 0" class="primitive"/>
            </g>
            <g transform="translate(54.56,52.23)" id="img-6674324e-182" stroke="#B5FFFF">
              <path fill="none" d="M-1.84,0 L 1.84 0" class="primitive"/>
            </g>
            <g transform="translate(61.09,60.15)" id="img-6674324e-183" stroke="#B5FFFF">
              <path fill="none" d="M-1.84,0 L 1.84 0" class="primitive"/>
            </g>
            <g transform="translate(67.62,47.84)" id="img-6674324e-184" stroke="#B5FFFF">
              <path fill="none" d="M-1.84,0 L 1.84 0" class="primitive"/>
            </g>
            <g transform="translate(74.16,59.89)" id="img-6674324e-185" stroke="#B5FFFF">
              <path fill="none" d="M-1.84,0 L 1.84 0" class="primitive"/>
            </g>
            <g transform="translate(80.69,54.87)" id="img-6674324e-186" stroke="#B5FFFF">
              <path fill="none" d="M-1.84,0 L 1.84 0" class="primitive"/>
            </g>
            <g transform="translate(87.22,63.8)" id="img-6674324e-187" stroke="#B5FFFF">
              <path fill="none" d="M-1.84,0 L 1.84 0" class="primitive"/>
            </g>
            <g transform="translate(93.75,57.88)" id="img-6674324e-188" stroke="#B5FFFF">
              <path fill="none" d="M-1.84,0 L 1.84 0" class="primitive"/>
            </g>
            <g transform="translate(100.28,28.46)" id="img-6674324e-189" stroke="#B5FFFF">
              <path fill="none" d="M-1.84,0 L 1.84 0" class="primitive"/>
            </g>
            <g transform="translate(106.82,47.84)" id="img-6674324e-190" stroke="#B5FFFF">
              <path fill="none" d="M-1.84,0 L 1.84 0" class="primitive"/>
            </g>
            <g transform="translate(113.35,60.15)" id="img-6674324e-191" stroke="#B5FFFF">
              <path fill="none" d="M-1.84,0 L 1.84 0" class="primitive"/>
            </g>
            <g transform="translate(119.88,62.9)" id="img-6674324e-192" stroke="#B5FFFF">
              <path fill="none" d="M-1.84,0 L 1.84 0" class="primitive"/>
            </g>
            <g transform="translate(126.41,58.83)" id="img-6674324e-193" stroke="#B5FFFF">
              <path fill="none" d="M-1.84,0 L 1.84 0" class="primitive"/>
            </g>
            <g transform="translate(132.94,44.31)" id="img-6674324e-194" stroke="#B5FFFF">
              <path fill="none" d="M-1.84,0 L 1.84 0" class="primitive"/>
            </g>
            <g transform="translate(139.48,47.84)" id="img-6674324e-195" stroke="#B5FFFF">
              <path fill="none" d="M-1.84,0 L 1.84 0" class="primitive"/>
            </g>
            <g transform="translate(146.01,61.79)" id="img-6674324e-196" stroke="#B5FFFF">
              <path fill="none" d="M-1.84,0 L 1.84 0" class="primitive"/>
            </g>
            <g transform="translate(152.54,60.15)" id="img-6674324e-197" stroke="#B5FFFF">
              <path fill="none" d="M-1.84,0 L 1.84 0" class="primitive"/>
            </g>
            <g transform="translate(159.07,57.19)" id="img-6674324e-198" stroke="#B5FFFF">
              <path fill="none" d="M-1.84,0 L 1.84 0" class="primitive"/>
            </g>
            <g transform="translate(165.61,58.83)" id="img-6674324e-199" stroke="#B5FFFF">
              <path fill="none" d="M-1.84,0 L 1.84 0" class="primitive"/>
            </g>
            <g transform="translate(172.14,63.16)" id="img-6674324e-200" stroke="#B5FFFF">
              <path fill="none" d="M-1.84,0 L 1.84 0" class="primitive"/>
            </g>
            <g transform="translate(178.67,49.59)" id="img-6674324e-201" stroke="#B5FFFF">
              <path fill="none" d="M-1.84,0 L 1.84 0" class="primitive"/>
            </g>
            <g transform="translate(185.2,63.11)" id="img-6674324e-202" stroke="#B5FFFF">
              <path fill="none" d="M-1.84,0 L 1.84 0" class="primitive"/>
            </g>
            <g transform="translate(191.73,63.69)" id="img-6674324e-203" stroke="#B5FFFF">
              <path fill="none" d="M-1.84,0 L 1.84 0" class="primitive"/>
            </g>
          </g>
        </g>
      </g>
    </g>
  </g>
  <g class="guide ylabels" font-size="2.82" font-family="'PT Sans Caption','Helvetica Neue','Helvetica',sans-serif" fill="#6C606B" id="img-6674324e-204">
    <g transform="translate(17.63,65.44)" id="img-6674324e-205">
      <g class="primitive">
        <text text-anchor="end" dy="0.35em">0.0</text>
      </g>
    </g>
    <g transform="translate(17.63,39.02)" id="img-6674324e-206">
      <g class="primitive">
        <text text-anchor="end" dy="0.35em">0.5</text>
      </g>
    </g>
    <g transform="translate(17.63,12.61)" id="img-6674324e-207">
      <g class="primitive">
        <text text-anchor="end" dy="0.35em">1.0</text>
      </g>
    </g>
  </g>
  <g font-size="3.88" font-family="'PT Sans','Helvetica Neue','Helvetica',sans-serif" fill="#564A55" stroke="#000000" stroke-opacity="0.000" id="img-6674324e-208">
    <g transform="translate(8.81,37.02)" id="img-6674324e-209">
      <g class="primitive">
        <text text-anchor="middle" dy="0.35em" transform="rotate(-90,0, 2)">Porcentagem UD</text>
      </g>
    </g>
  </g>
  <g font-size="3.88" font-family="'PT Sans','Helvetica Neue','Helvetica',sans-serif" fill="#564A55" stroke="#000000" stroke-opacity="0.000" id="img-6674324e-210">
    <g transform="translate(106.82,5)" id="img-6674324e-211">
      <g class="primitive">
        <text text-anchor="middle" dy="0.6em">Porcentagem de UDs cultivando cada variedade: mandioca</text>
      </g>
    </g>
  </g>
</g>
<defs>
  <clipPath id="img-6674324e-4">
    <path d="M18.63,10.61 L 195 10.61 195 67.44 18.63 67.44" />
  </clipPath>
</defs>
</svg>
