<?xml version="1.0" encoding="UTF-8"?>
<svg xmlns="http://www.w3.org/2000/svg"
     xmlns:xlink="http://www.w3.org/1999/xlink"
     xmlns:gadfly="http://www.gadflyjl.org/ns"
     version="1.2"
     width="150mm" height="100mm" viewBox="0 0 150 100"
     stroke="none"
     fill="#000000"
     stroke-width="0.3"
     font-size="3.88"
>
<defs>
  <marker id="arrow" markerWidth="15" markerHeight="7" refX="5" refY="3.5" orient="auto" markerUnits="strokeWidth">
    <path d="M0,0 L15,3.5 L0,7 z" stroke="context-stroke" fill="context-stroke"/>
  </marker>
</defs>
<g class="plotroot xscalable yscalable" id="img-d3d1c832-1">
  <g font-size="3.88" font-family="'PT Sans','Helvetica Neue','Helvetica',sans-serif" fill="#564A55" stroke="#000000" stroke-opacity="0.000" id="img-d3d1c832-2">
    <g transform="translate(82.65,88.39)">
      <g class="primitive">
        <text text-anchor="middle" dy="0.6em">N Variedades na Comunidade</text>
      </g>
    </g>
  </g>
  <g class="guide xlabels" font-size="2.82" font-family="'PT Sans Caption','Helvetica Neue','Helvetica',sans-serif" fill="#6C606B" id="img-d3d1c832-3">
    <g transform="translate(22.31,81.72)">
      <g class="primitive">
        <text text-anchor="middle" dy="0.6em">0</text>
      </g>
    </g>
    <g transform="translate(52.48,81.72)">
      <g class="primitive">
        <text text-anchor="middle" dy="0.6em">10</text>
      </g>
    </g>
    <g transform="translate(82.65,81.72)">
      <g class="primitive">
        <text text-anchor="middle" dy="0.6em">20</text>
      </g>
    </g>
    <g transform="translate(112.83,81.72)">
      <g class="primitive">
        <text text-anchor="middle" dy="0.6em">30</text>
      </g>
    </g>
    <g transform="translate(143,81.72)">
      <g class="primitive">
        <text text-anchor="middle" dy="0.6em">40</text>
      </g>
    </g>
  </g>
  <g clip-path="url(#img-d3d1c832-4)">
    <g id="img-d3d1c832-5">
      <g pointer-events="visible" fill="#000000" fill-opacity="0.000" stroke="#000000" stroke-opacity="0.000" class="guide background" id="img-d3d1c832-6">
        <g transform="translate(82.65,45.66)" id="img-d3d1c832-7">
          <path d="M-62.35,-35.05 L 62.35 -35.05 62.35 35.05 -62.35 35.05 z" class="primitive"/>
        </g>
      </g>
      <g class="guide ygridlines xfixed" stroke-dasharray="0.5,0.5" stroke-width="0.2" stroke="#D0D0E0" id="img-d3d1c832-8">
        <g transform="translate(82.65,78.72)" id="img-d3d1c832-9">
          <path fill="none" d="M-62.35,0 L 62.35 0" class="primitive"/>
        </g>
        <g transform="translate(82.65,45.66)" id="img-d3d1c832-10">
          <path fill="none" d="M-62.35,0 L 62.35 0" class="primitive"/>
        </g>
        <g transform="translate(82.65,12.61)" id="img-d3d1c832-11">
          <path fill="none" d="M-62.35,0 L 62.35 0" class="primitive"/>
        </g>
      </g>
      <g class="guide xgridlines yfixed" stroke-dasharray="0.5,0.5" stroke-width="0.2" stroke="#D0D0E0" id="img-d3d1c832-12">
        <g transform="translate(22.31,45.66)" id="img-d3d1c832-13">
          <path fill="none" d="M0,-35.05 L 0 35.05" class="primitive"/>
        </g>
        <g transform="translate(52.48,45.66)" id="img-d3d1c832-14">
          <path fill="none" d="M0,-35.05 L 0 35.05" class="primitive"/>
        </g>
        <g transform="translate(82.65,45.66)" id="img-d3d1c832-15">
          <path fill="none" d="M0,-35.05 L 0 35.05" class="primitive"/>
        </g>
        <g transform="translate(112.83,45.66)" id="img-d3d1c832-16">
          <path fill="none" d="M0,-35.05 L 0 35.05" class="primitive"/>
        </g>
        <g transform="translate(143,45.66)" id="img-d3d1c832-17">
          <path fill="none" d="M0,-35.05 L 0 35.05" class="primitive"/>
        </g>
      </g>
      <g class="plotpanel" id="img-d3d1c832-18">
        <metadata>
          <boundingbox value="20.30500000000002mm 10.611666666666665mm 124.69500000000001mm 70.10333333333334mm"/>
          <unitbox value="-0.6628277890550561 0.10302556603297867 41.325655578110116 -0.10605113206595734"/>
        </metadata>
        <g shape-rendering="crispEdges" stroke-width="0.3" id="img-d3d1c832-19">
          <g stroke="#000000" stroke-opacity="0.000" class="geometry" fill="#00BFFF" id="img-d3d1c832-20">
            <g transform="translate(37.39,51.17)" id="img-d3d1c832-21">
              <path d="M-3.04,-27.54 L 3.04 -27.54 3.04 27.54 -3.04 27.54 z" class="primitive"/>
            </g>
            <g transform="translate(43.43,55.76)" id="img-d3d1c832-22">
              <path d="M-3.04,-22.95 L 3.04 -22.95 3.04 22.95 -3.04 22.95 z" class="primitive"/>
            </g>
            <g transform="translate(49.46,46.58)" id="img-d3d1c832-23">
              <path d="M-3.04,-32.13 L 3.04 -32.13 3.04 32.13 -3.04 32.13 z" class="primitive"/>
            </g>
            <g transform="translate(55.5,74.12)" id="img-d3d1c832-24">
              <path d="M-3.04,-4.59 L 3.04 -4.59 3.04 4.59 -3.04 4.59 z" class="primitive"/>
            </g>
            <g transform="translate(61.53,60.35)" id="img-d3d1c832-25">
              <path d="M-3.04,-18.36 L 3.04 -18.36 3.04 18.36 -3.04 18.36 z" class="primitive"/>
            </g>
            <g transform="translate(67.57,60.35)" id="img-d3d1c832-26">
              <path d="M-3.04,-18.36 L 3.04 -18.36 3.04 18.36 -3.04 18.36 z" class="primitive"/>
            </g>
            <g transform="translate(73.6,69.53)" id="img-d3d1c832-27">
              <path d="M-3.04,-9.18 L 3.04 -9.18 3.04 9.18 -3.04 9.18 z" class="primitive"/>
            </g>
            <g transform="translate(79.64,78.72)" id="img-d3d1c832-28">
              <path d="M-3.04,-0 L 3.04 -0 3.04 0 -3.04 0 z" class="primitive"/>
            </g>
            <g transform="translate(85.67,64.94)" id="img-d3d1c832-29">
              <path d="M-3.04,-13.77 L 3.04 -13.77 3.04 13.77 -3.04 13.77 z" class="primitive"/>
            </g>
            <g transform="translate(91.7,74.12)" id="img-d3d1c832-30">
              <path d="M-3.04,-4.59 L 3.04 -4.59 3.04 4.59 -3.04 4.59 z" class="primitive"/>
            </g>
            <g transform="translate(97.74,69.53)" id="img-d3d1c832-31">
              <path d="M-3.04,-9.18 L 3.04 -9.18 3.04 9.18 -3.04 9.18 z" class="primitive"/>
            </g>
            <g transform="translate(103.77,74.12)" id="img-d3d1c832-32">
              <path d="M-3.04,-4.59 L 3.04 -4.59 3.04 4.59 -3.04 4.59 z" class="primitive"/>
            </g>
            <g transform="translate(109.81,78.72)" id="img-d3d1c832-33">
              <path d="M-3.04,-0 L 3.04 -0 3.04 0 -3.04 0 z" class="primitive"/>
            </g>
            <g transform="translate(115.84,78.72)" id="img-d3d1c832-34">
              <path d="M-3.04,-0 L 3.04 -0 3.04 0 -3.04 0 z" class="primitive"/>
            </g>
            <g transform="translate(121.88,78.72)" id="img-d3d1c832-35">
              <path d="M-3.04,-0 L 3.04 -0 3.04 0 -3.04 0 z" class="primitive"/>
            </g>
          </g>
        </g>
      </g>
    </g>
  </g>
  <g class="guide ylabels" font-size="2.82" font-family="'PT Sans Caption','Helvetica Neue','Helvetica',sans-serif" fill="#6C606B" id="img-d3d1c832-36">
    <g transform="translate(19.3,78.72)" id="img-d3d1c832-37">
      <g class="primitive">
        <text text-anchor="end" dy="0.35em">0.00</text>
      </g>
    </g>
    <g transform="translate(19.3,45.66)" id="img-d3d1c832-38">
      <g class="primitive">
        <text text-anchor="end" dy="0.35em">0.05</text>
      </g>
    </g>
    <g transform="translate(19.3,12.61)" id="img-d3d1c832-39">
      <g class="primitive">
        <text text-anchor="end" dy="0.35em">0.10</text>
      </g>
    </g>
  </g>
  <g font-size="3.88" font-family="'PT Sans','Helvetica Neue','Helvetica',sans-serif" fill="#564A55" stroke="#000000" stroke-opacity="0.000" id="img-d3d1c832-40">
    <g transform="translate(8.81,43.66)" id="img-d3d1c832-41">
      <g class="primitive">
        <text text-anchor="middle" dy="0.35em" transform="rotate(-90,0, 2)">Frequencia</text>
      </g>
    </g>
  </g>
  <g font-size="3.88" font-family="'PT Sans','Helvetica Neue','Helvetica',sans-serif" fill="#564A55" stroke="#000000" stroke-opacity="0.000" id="img-d3d1c832-42">
    <g transform="translate(82.65,5)" id="img-d3d1c832-43">
      <g class="primitive">
        <text text-anchor="middle" dy="0.6em">Histograma Variedades na Comunidade: milho. N = 36</text>
      </g>
    </g>
  </g>
</g>
<defs>
  <clipPath id="img-d3d1c832-4">
    <path d="M20.31,10.61 L 145 10.61 145 80.72 20.31 80.72" />
  </clipPath>
</defs>
</svg>
