<?xml version="1.0" encoding="UTF-8"?>
<svg xmlns="http://www.w3.org/2000/svg"
     xmlns:xlink="http://www.w3.org/1999/xlink"
     xmlns:gadfly="http://www.gadflyjl.org/ns"
     version="1.2"
     width="150mm" height="100mm" viewBox="0 0 150 100"
     stroke="none"
     fill="#000000"
     stroke-width="0.3"
     font-size="3.88"
>
<defs>
  <marker id="arrow" markerWidth="15" markerHeight="7" refX="5" refY="3.5" orient="auto" markerUnits="strokeWidth">
    <path d="M0,0 L15,3.5 L0,7 z" stroke="context-stroke" fill="context-stroke"/>
  </marker>
</defs>
<g class="plotroot xscalable yscalable" id="img-7b19a7d9-1">
  <g font-size="3.88" font-family="'PT Sans','Helvetica Neue','Helvetica',sans-serif" fill="#564A55" stroke="#000000" stroke-opacity="0.000" id="img-7b19a7d9-2">
    <g transform="translate(81.82,88.39)">
      <g class="primitive">
        <text text-anchor="middle" dy="0.6em">N Variedades Medio na UD</text>
      </g>
    </g>
  </g>
  <g class="guide xlabels" font-size="2.82" font-family="'PT Sans Caption','Helvetica Neue','Helvetica',sans-serif" fill="#6C606B" id="img-7b19a7d9-3">
    <g transform="translate(20.63,81.72)">
      <g class="primitive">
        <text text-anchor="middle" dy="0.6em">0</text>
      </g>
    </g>
    <g transform="translate(45.11,81.72)">
      <g class="primitive">
        <text text-anchor="middle" dy="0.6em">1</text>
      </g>
    </g>
    <g transform="translate(69.58,81.72)">
      <g class="primitive">
        <text text-anchor="middle" dy="0.6em">2</text>
      </g>
    </g>
    <g transform="translate(94.05,81.72)">
      <g class="primitive">
        <text text-anchor="middle" dy="0.6em">3</text>
      </g>
    </g>
    <g transform="translate(118.53,81.72)">
      <g class="primitive">
        <text text-anchor="middle" dy="0.6em">4</text>
      </g>
    </g>
    <g transform="translate(143,81.72)">
      <g class="primitive">
        <text text-anchor="middle" dy="0.6em">5</text>
      </g>
    </g>
  </g>
  <g clip-path="url(#img-7b19a7d9-4)">
    <g id="img-7b19a7d9-5">
      <g pointer-events="visible" fill="#000000" fill-opacity="0.000" stroke="#000000" stroke-opacity="0.000" class="guide background" id="img-7b19a7d9-6">
        <g transform="translate(81.82,45.66)" id="img-7b19a7d9-7">
          <path d="M-63.18,-35.05 L 63.18 -35.05 63.18 35.05 -63.18 35.05 z" class="primitive"/>
        </g>
      </g>
      <g class="guide ygridlines xfixed" stroke-dasharray="0.5,0.5" stroke-width="0.2" stroke="#D0D0E0" id="img-7b19a7d9-8">
        <g transform="translate(81.82,78.72)" id="img-7b19a7d9-9">
          <path fill="none" d="M-63.18,0 L 63.18 0" class="primitive"/>
        </g>
        <g transform="translate(81.82,56.68)" id="img-7b19a7d9-10">
          <path fill="none" d="M-63.18,0 L 63.18 0" class="primitive"/>
        </g>
        <g transform="translate(81.82,34.65)" id="img-7b19a7d9-11">
          <path fill="none" d="M-63.18,0 L 63.18 0" class="primitive"/>
        </g>
        <g transform="translate(81.82,12.61)" id="img-7b19a7d9-12">
          <path fill="none" d="M-63.18,0 L 63.18 0" class="primitive"/>
        </g>
      </g>
      <g class="guide xgridlines yfixed" stroke-dasharray="0.5,0.5" stroke-width="0.2" stroke="#D0D0E0" id="img-7b19a7d9-13">
        <g transform="translate(20.63,45.66)" id="img-7b19a7d9-14">
          <path fill="none" d="M0,-35.05 L 0 35.05" class="primitive"/>
        </g>
        <g transform="translate(45.11,45.66)" id="img-7b19a7d9-15">
          <path fill="none" d="M0,-35.05 L 0 35.05" class="primitive"/>
        </g>
        <g transform="translate(69.58,45.66)" id="img-7b19a7d9-16">
          <path fill="none" d="M0,-35.05 L 0 35.05" class="primitive"/>
        </g>
        <g transform="translate(94.05,45.66)" id="img-7b19a7d9-17">
          <path fill="none" d="M0,-35.05 L 0 35.05" class="primitive"/>
        </g>
        <g transform="translate(118.53,45.66)" id="img-7b19a7d9-18">
          <path fill="none" d="M0,-35.05 L 0 35.05" class="primitive"/>
        </g>
        <g transform="translate(143,45.66)" id="img-7b19a7d9-19">
          <path fill="none" d="M0,-35.05 L 0 35.05" class="primitive"/>
        </g>
      </g>
      <g class="plotpanel" id="img-7b19a7d9-20">
        <metadata>
          <boundingbox value="18.63166666666669mm 10.611666666666665mm 126.36833333333334mm 70.10333333333334mm"/>
          <unitbox value="-0.08172048868852236 1.54538349049468 5.163440977377045 -1.5907669809893599"/>
        </metadata>
        <g shape-rendering="crispEdges" stroke-width="0.3" id="img-7b19a7d9-21">
          <g stroke="#000000" stroke-opacity="0.000" class="geometry" fill="#00BFFF" id="img-7b19a7d9-22">
            <g transform="translate(49.14,60.46)" id="img-7b19a7d9-23">
              <path d="M-1.62,-18.25 L 1.62 -18.25 1.62 18.25 -1.62 18.25 z" class="primitive"/>
            </g>
            <g transform="translate(52.33,68.28)" id="img-7b19a7d9-24">
              <path d="M-1.62,-10.43 L 1.62 -10.43 1.62 10.43 -1.62 10.43 z" class="primitive"/>
            </g>
            <g transform="translate(55.51,70.89)" id="img-7b19a7d9-25">
              <path d="M-1.62,-7.82 L 1.62 -7.82 1.62 7.82 -1.62 7.82 z" class="primitive"/>
            </g>
            <g transform="translate(58.69,57.85)" id="img-7b19a7d9-26">
              <path d="M-1.62,-20.86 L 1.62 -20.86 1.62 20.86 -1.62 20.86 z" class="primitive"/>
            </g>
            <g transform="translate(61.87,76.11)" id="img-7b19a7d9-27">
              <path d="M-1.62,-2.61 L 1.62 -2.61 1.62 2.61 -1.62 2.61 z" class="primitive"/>
            </g>
            <g transform="translate(65.05,65.68)" id="img-7b19a7d9-28">
              <path d="M-1.62,-13.04 L 1.62 -13.04 1.62 13.04 -1.62 13.04 z" class="primitive"/>
            </g>
            <g transform="translate(68.23,55.25)" id="img-7b19a7d9-29">
              <path d="M-1.62,-23.47 L 1.62 -23.47 1.62 23.47 -1.62 23.47 z" class="primitive"/>
            </g>
            <g transform="translate(71.41,60.46)" id="img-7b19a7d9-30">
              <path d="M-1.62,-18.25 L 1.62 -18.25 1.62 18.25 -1.62 18.25 z" class="primitive"/>
            </g>
            <g transform="translate(74.6,70.89)" id="img-7b19a7d9-31">
              <path d="M-1.62,-7.82 L 1.62 -7.82 1.62 7.82 -1.62 7.82 z" class="primitive"/>
            </g>
            <g transform="translate(77.78,70.89)" id="img-7b19a7d9-32">
              <path d="M-1.62,-7.82 L 1.62 -7.82 1.62 7.82 -1.62 7.82 z" class="primitive"/>
            </g>
            <g transform="translate(80.96,68.28)" id="img-7b19a7d9-33">
              <path d="M-1.62,-10.43 L 1.62 -10.43 1.62 10.43 -1.62 10.43 z" class="primitive"/>
            </g>
            <g transform="translate(84.14,68.28)" id="img-7b19a7d9-34">
              <path d="M-1.62,-10.43 L 1.62 -10.43 1.62 10.43 -1.62 10.43 z" class="primitive"/>
            </g>
            <g transform="translate(87.32,76.11)" id="img-7b19a7d9-35">
              <path d="M-1.62,-2.61 L 1.62 -2.61 1.62 2.61 -1.62 2.61 z" class="primitive"/>
            </g>
            <g transform="translate(90.5,76.11)" id="img-7b19a7d9-36">
              <path d="M-1.62,-2.61 L 1.62 -2.61 1.62 2.61 -1.62 2.61 z" class="primitive"/>
            </g>
            <g transform="translate(93.69,78.72)" id="img-7b19a7d9-37">
              <path d="M-1.62,-0 L 1.62 -0 1.62 0 -1.62 0 z" class="primitive"/>
            </g>
            <g transform="translate(96.87,76.11)" id="img-7b19a7d9-38">
              <path d="M-1.62,-2.61 L 1.62 -2.61 1.62 2.61 -1.62 2.61 z" class="primitive"/>
            </g>
            <g transform="translate(100.05,78.72)" id="img-7b19a7d9-39">
              <path d="M-1.62,-0 L 1.62 -0 1.62 0 -1.62 0 z" class="primitive"/>
            </g>
            <g transform="translate(103.23,78.72)" id="img-7b19a7d9-40">
              <path d="M-1.62,-0 L 1.62 -0 1.62 0 -1.62 0 z" class="primitive"/>
            </g>
            <g transform="translate(106.41,78.72)" id="img-7b19a7d9-41">
              <path d="M-1.62,-0 L 1.62 -0 1.62 0 -1.62 0 z" class="primitive"/>
            </g>
            <g transform="translate(109.59,78.72)" id="img-7b19a7d9-42">
              <path d="M-1.62,-0 L 1.62 -0 1.62 0 -1.62 0 z" class="primitive"/>
            </g>
            <g transform="translate(112.78,78.72)" id="img-7b19a7d9-43">
              <path d="M-1.62,-0 L 1.62 -0 1.62 0 -1.62 0 z" class="primitive"/>
            </g>
            <g transform="translate(115.96,76.11)" id="img-7b19a7d9-44">
              <path d="M-1.62,-2.61 L 1.62 -2.61 1.62 2.61 -1.62 2.61 z" class="primitive"/>
            </g>
            <g transform="translate(119.14,78.72)" id="img-7b19a7d9-45">
              <path d="M-1.62,-0 L 1.62 -0 1.62 0 -1.62 0 z" class="primitive"/>
            </g>
            <g transform="translate(122.32,73.5)" id="img-7b19a7d9-46">
              <path d="M-1.62,-5.22 L 1.62 -5.22 1.62 5.22 -1.62 5.22 z" class="primitive"/>
            </g>
            <g transform="translate(125.5,78.72)" id="img-7b19a7d9-47">
              <path d="M-1.62,-0 L 1.62 -0 1.62 0 -1.62 0 z" class="primitive"/>
            </g>
            <g transform="translate(128.68,78.72)" id="img-7b19a7d9-48">
              <path d="M-1.62,-0 L 1.62 -0 1.62 0 -1.62 0 z" class="primitive"/>
            </g>
            <g transform="translate(131.86,78.72)" id="img-7b19a7d9-49">
              <path d="M-1.62,-0 L 1.62 -0 1.62 0 -1.62 0 z" class="primitive"/>
            </g>
            <g transform="translate(135.05,78.72)" id="img-7b19a7d9-50">
              <path d="M-1.62,-0 L 1.62 -0 1.62 0 -1.62 0 z" class="primitive"/>
            </g>
            <g transform="translate(138.23,76.11)" id="img-7b19a7d9-51">
              <path d="M-1.62,-2.61 L 1.62 -2.61 1.62 2.61 -1.62 2.61 z" class="primitive"/>
            </g>
            <g transform="translate(141.41,78.72)" id="img-7b19a7d9-52">
              <path d="M-1.62,-0 L 1.62 -0 1.62 0 -1.62 0 z" class="primitive"/>
            </g>
          </g>
        </g>
      </g>
    </g>
  </g>
  <g class="guide ylabels" font-size="2.82" font-family="'PT Sans Caption','Helvetica Neue','Helvetica',sans-serif" fill="#6C606B" id="img-7b19a7d9-53">
    <g transform="translate(17.63,78.72)" id="img-7b19a7d9-54">
      <g class="primitive">
        <text text-anchor="end" dy="0.35em">0.0</text>
      </g>
    </g>
    <g transform="translate(17.63,56.68)" id="img-7b19a7d9-55">
      <g class="primitive">
        <text text-anchor="end" dy="0.35em">0.5</text>
      </g>
    </g>
    <g transform="translate(17.63,34.65)" id="img-7b19a7d9-56">
      <g class="primitive">
        <text text-anchor="end" dy="0.35em">1.0</text>
      </g>
    </g>
    <g transform="translate(17.63,12.61)" id="img-7b19a7d9-57">
      <g class="primitive">
        <text text-anchor="end" dy="0.35em">1.5</text>
      </g>
    </g>
  </g>
  <g font-size="3.88" font-family="'PT Sans','Helvetica Neue','Helvetica',sans-serif" fill="#564A55" stroke="#000000" stroke-opacity="0.000" id="img-7b19a7d9-58">
    <g transform="translate(8.81,43.66)" id="img-7b19a7d9-59">
      <g class="primitive">
        <text text-anchor="middle" dy="0.35em" transform="rotate(-90,0, 2)">Frequencia</text>
      </g>
    </g>
  </g>
  <g font-size="3.88" font-family="'PT Sans','Helvetica Neue','Helvetica',sans-serif" fill="#564A55" stroke="#000000" stroke-opacity="0.000" id="img-7b19a7d9-60">
    <g transform="translate(81.82,5)" id="img-7b19a7d9-61">
      <g class="primitive">
        <text text-anchor="middle" dy="0.6em">Histograma Média Variedades por Unidade Domestica: milho. N = 65</text>
      </g>
    </g>
  </g>
</g>
<defs>
  <clipPath id="img-7b19a7d9-4">
    <path d="M18.63,10.61 L 145 10.61 145 80.72 18.63 80.72" />
  </clipPath>
</defs>
</svg>
