<?xml version="1.0" encoding="UTF-8"?>
<svg xmlns="http://www.w3.org/2000/svg"
     xmlns:xlink="http://www.w3.org/1999/xlink"
     xmlns:gadfly="http://www.gadflyjl.org/ns"
     version="1.2"
     width="200mm" height="140mm" viewBox="0 0 200 140"
     stroke="none"
     fill="#000000"
     stroke-width="0.3"
     font-size="3.88"
>
<defs>
  <marker id="arrow" markerWidth="15" markerHeight="7" refX="5" refY="3.5" orient="auto" markerUnits="strokeWidth">
    <path d="M0,0 L15,3.5 L0,7 z" stroke="context-stroke" fill="context-stroke"/>
  </marker>
</defs>
<g class="plotroot yscalable" id="img-67ef6de0-1">
  <g font-size="3.88" font-family="'PT Sans','Helvetica Neue','Helvetica',sans-serif" fill="#564A55" stroke="#000000" stroke-opacity="0.000" id="img-67ef6de0-2">
    <g transform="translate(106.82,128.39)">
      <g class="primitive">
        <text text-anchor="middle" dy="0.6em">Fonte</text>
      </g>
    </g>
  </g>
  <g class="guide xlabels" font-size="2.82" font-family="'PT Sans Caption','Helvetica Neue','Helvetica',sans-serif" fill="#6C606B" id="img-67ef6de0-3">
    <g transform="translate(29.65,72.8)">
      <g class="primitive">
        <text text-anchor="end" dy="0.35em" transform="rotate(-90,0, 0)">Bellon e Brush (1994)</text>
      </g>
    </g>
    <g transform="translate(51.7,72.8)">
      <g class="primitive">
        <text text-anchor="end" dy="0.35em" transform="rotate(-90,0, 0)">Louette (1997)</text>
      </g>
    </g>
    <g transform="translate(73.75,72.8)">
      <g class="primitive">
        <text text-anchor="end" dy="0.35em" transform="rotate(-90,0, 0)">Fenzi et al, (2017), 1999</text>
      </g>
    </g>
    <g transform="translate(95.79,72.8)">
      <g class="primitive">
        <text text-anchor="end" dy="0.35em" transform="rotate(-90,0, 0)">Chamber e Momsen (2007), Mountain</text>
      </g>
    </g>
    <g transform="translate(117.84,72.8)">
      <g class="primitive">
        <text text-anchor="end" dy="0.35em" transform="rotate(-90,0, 0)">Chamber e Momsen (2007), Valley</text>
      </g>
    </g>
    <g transform="translate(139.88,72.8)">
      <g class="primitive">
        <text text-anchor="end" dy="0.35em" transform="rotate(-90,0, 0)">Chamber e Momsen (2007), Mesa</text>
      </g>
    </g>
    <g transform="translate(161.93,72.8)">
      <g class="primitive">
        <text text-anchor="end" dy="0.35em" transform="rotate(-90,0, 0)">Chamber e Momsen (2007), Plains</text>
      </g>
    </g>
    <g transform="translate(183.98,72.8)">
      <g class="primitive">
        <text text-anchor="end" dy="0.35em" transform="rotate(-90,0, 0)">Fenzi et al, (2017), 2011</text>
      </g>
    </g>
  </g>
  <g clip-path="url(#img-67ef6de0-4)">
    <g id="img-67ef6de0-5">
      <g pointer-events="visible" fill="#000000" fill-opacity="0.000" stroke="#000000" stroke-opacity="0.000" class="guide background" id="img-67ef6de0-6">
        <g transform="translate(106.82,41.2)" id="img-67ef6de0-7">
          <path d="M-88.18,-30.59 L 88.18 -30.59 88.18 30.59 -88.18 30.59 z" class="primitive"/>
        </g>
      </g>
      <g class="guide ygridlines xfixed" stroke-dasharray="0.5,0.5" stroke-width="0.2" stroke="#D0D0E0" id="img-67ef6de0-8">
        <g transform="translate(106.82,69.8)" id="img-67ef6de0-9">
          <path fill="none" d="M-88.18,0 L 88.18 0" class="primitive"/>
        </g>
        <g transform="translate(106.82,41.2)" id="img-67ef6de0-10">
          <path fill="none" d="M-88.18,0 L 88.18 0" class="primitive"/>
        </g>
        <g transform="translate(106.82,12.61)" id="img-67ef6de0-11">
          <path fill="none" d="M-88.18,0 L 88.18 0" class="primitive"/>
        </g>
      </g>
      <g class="guide xgridlines yfixed" stroke-dasharray="0.5,0.5" stroke-width="0.2" stroke="#D0D0E0" id="img-67ef6de0-12">
        <g transform="translate(40.68,41.2)" id="img-67ef6de0-13">
          <path fill="none" d="M0,-30.59 L 0 30.59" class="primitive"/>
        </g>
        <g transform="translate(62.72,41.2)" id="img-67ef6de0-14">
          <path fill="none" d="M0,-30.59 L 0 30.59" class="primitive"/>
        </g>
        <g transform="translate(84.77,41.2)" id="img-67ef6de0-15">
          <path fill="none" d="M0,-30.59 L 0 30.59" class="primitive"/>
        </g>
        <g transform="translate(106.82,41.2)" id="img-67ef6de0-16">
          <path fill="none" d="M0,-30.59 L 0 30.59" class="primitive"/>
        </g>
        <g transform="translate(128.86,41.2)" id="img-67ef6de0-17">
          <path fill="none" d="M0,-30.59 L 0 30.59" class="primitive"/>
        </g>
        <g transform="translate(150.91,41.2)" id="img-67ef6de0-18">
          <path fill="none" d="M0,-30.59 L 0 30.59" class="primitive"/>
        </g>
        <g transform="translate(172.95,41.2)" id="img-67ef6de0-19">
          <path fill="none" d="M0,-30.59 L 0 30.59" class="primitive"/>
        </g>
      </g>
      <g class="plotpanel" id="img-67ef6de0-20">
        <metadata>
          <boundingbox value="18.63166666666669mm 10.611666666666665mm 176.36833333333334mm 61.18333333333335mm"/>
          <unitbox value="0.5 1.0349752258816671 8.0 -1.0699504517633343"/>
        </metadata>
        <g class="geometry" stroke-width="0.3" id="img-67ef6de0-21">
          <g transform="translate(29.65,46.74)" id="img-67ef6de0-22" stroke="#00BFFF" fill="#00BFFF">
            <path d="M-10.52,-19.37 L 10.52 -19.37 10.52 19.37 -10.52 19.37 z" class="primitive"/>
          </g>
          <g transform="translate(51.7,65.93)" id="img-67ef6de0-23" stroke="#00BFFF" fill="#00BFFF">
            <path d="M-10.52,-2.02 L 10.52 -2.02 10.52 2.02 -10.52 2.02 z" class="primitive"/>
          </g>
          <g transform="translate(73.75,63.68)" id="img-67ef6de0-24" stroke="#00BFFF" fill="#00BFFF">
            <path d="M-10.52,-2.34 L 10.52 -2.34 10.52 2.34 -10.52 2.34 z" class="primitive"/>
          </g>
          <g transform="translate(95.79,60.59)" id="img-67ef6de0-25" stroke="#00BFFF" fill="#00BFFF">
            <path d="M-10.52,-5.1 L 10.52 -5.1 10.52 5.1 -10.52 5.1 z" class="primitive"/>
          </g>
          <g transform="translate(117.84,63.45)" id="img-67ef6de0-26" stroke="#00BFFF" fill="#00BFFF">
            <path d="M-10.52,-1.42 L 10.52 -1.42 10.52 1.42 -10.52 1.42 z" class="primitive"/>
          </g>
          <g transform="translate(139.88,59.16)" id="img-67ef6de0-27" stroke="#00BFFF" fill="#00BFFF">
            <path d="M-10.52,-8.98 L 10.52 -8.98 10.52 8.98 -10.52 8.98 z" class="primitive"/>
          </g>
          <g transform="translate(161.93,62.65)" id="img-67ef6de0-28" stroke="#00BFFF" fill="#00BFFF">
            <path d="M-10.52,-3.88 L 10.52 -3.88 10.52 3.88 -10.52 3.88 z" class="primitive"/>
          </g>
          <g transform="translate(183.98,58.5)" id="img-67ef6de0-29" stroke="#00BFFF" fill="#00BFFF">
            <path d="M-10.52,-6.43 L 10.52 -6.43 10.52 6.43 -10.52 6.43 z" class="primitive"/>
          </g>
          <g transform="translate(29.65,27.36)" id="img-67ef6de0-30" stroke="#00BFFF">
            <path fill="none" d="M-7.02,0 L 7.02 0" class="primitive"/>
          </g>
          <g transform="translate(51.7,62.48)" id="img-67ef6de0-31" stroke="#00BFFF">
            <path fill="none" d="M-7.02,0 L 7.02 0" class="primitive"/>
          </g>
          <g transform="translate(73.75,61.33)" id="img-67ef6de0-32" stroke="#00BFFF">
            <path fill="none" d="M-7.02,0 L 7.02 0" class="primitive"/>
          </g>
          <g transform="translate(95.79,51.84)" id="img-67ef6de0-33" stroke="#00BFFF">
            <path fill="none" d="M-7.02,0 L 7.02 0" class="primitive"/>
          </g>
          <g transform="translate(117.84,61.62)" id="img-67ef6de0-34" stroke="#00BFFF">
            <path fill="none" d="M-7.02,0 L 7.02 0" class="primitive"/>
          </g>
          <g transform="translate(139.88,46.92)" id="img-67ef6de0-35" stroke="#00BFFF">
            <path fill="none" d="M-7.02,0 L 7.02 0" class="primitive"/>
          </g>
          <g transform="translate(161.93,48.58)" id="img-67ef6de0-36" stroke="#00BFFF">
            <path fill="none" d="M-7.02,0 L 7.02 0" class="primitive"/>
          </g>
          <g transform="translate(183.98,39.2)" id="img-67ef6de0-37" stroke="#00BFFF">
            <path fill="none" d="M-7.02,0 L 7.02 0" class="primitive"/>
          </g>
          <g transform="translate(29.65,67.97)" id="img-67ef6de0-38" stroke="#00BFFF">
            <path fill="none" d="M-7.02,0 L 7.02 0" class="primitive"/>
          </g>
          <g transform="translate(51.7,68.31)" id="img-67ef6de0-39" stroke="#00BFFF">
            <path fill="none" d="M-7.02,0 L 7.02 0" class="primitive"/>
          </g>
          <g transform="translate(73.75,68.88)" id="img-67ef6de0-40" stroke="#00BFFF">
            <path fill="none" d="M-7.02,0 L 7.02 0" class="primitive"/>
          </g>
          <g transform="translate(95.79,68.14)" id="img-67ef6de0-41" stroke="#00BFFF">
            <path fill="none" d="M-7.02,0 L 7.02 0" class="primitive"/>
          </g>
          <g transform="translate(117.84,68.14)" id="img-67ef6de0-42" stroke="#00BFFF">
            <path fill="none" d="M-7.02,0 L 7.02 0" class="primitive"/>
          </g>
          <g transform="translate(139.88,68.14)" id="img-67ef6de0-43" stroke="#00BFFF">
            <path fill="none" d="M-7.02,0 L 7.02 0" class="primitive"/>
          </g>
          <g transform="translate(161.93,68.14)" id="img-67ef6de0-44" stroke="#00BFFF">
            <path fill="none" d="M-7.02,0 L 7.02 0" class="primitive"/>
          </g>
          <g transform="translate(183.98,67.39)" id="img-67ef6de0-45" stroke="#00BFFF">
            <path fill="none" d="M-7.02,0 L 7.02 0" class="primitive"/>
          </g>
          <g transform="translate(29.65,27.36)" id="img-67ef6de0-46" stroke="#00BFFF">
            <path fill="none" d="M0,0 L 0 0" class="primitive"/>
          </g>
          <g transform="translate(51.7,63.19)" id="img-67ef6de0-47" stroke="#00BFFF">
            <path fill="none" d="M0,0.71 L 0 -0.71" class="primitive"/>
          </g>
          <g transform="translate(73.75,61.33)" id="img-67ef6de0-48" stroke="#00BFFF">
            <path fill="none" d="M0,0 L 0 0" class="primitive"/>
          </g>
          <g transform="translate(95.79,53.66)" id="img-67ef6de0-49" stroke="#00BFFF">
            <path fill="none" d="M0,1.82 L 0 -1.82" class="primitive"/>
          </g>
          <g transform="translate(117.84,61.83)" id="img-67ef6de0-50" stroke="#00BFFF">
            <path fill="none" d="M0,0.21 L 0 -0.21" class="primitive"/>
          </g>
          <g transform="translate(139.88,48.55)" id="img-67ef6de0-51" stroke="#00BFFF">
            <path fill="none" d="M0,1.63 L 0 -1.63" class="primitive"/>
          </g>
          <g transform="translate(161.93,53.68)" id="img-67ef6de0-52" stroke="#00BFFF">
            <path fill="none" d="M0,5.1 L 0 -5.1" class="primitive"/>
          </g>
          <g transform="translate(183.98,45.64)" id="img-67ef6de0-53" stroke="#00BFFF">
            <path fill="none" d="M0,6.43 L 0 -6.43" class="primitive"/>
          </g>
          <g transform="translate(29.65,67.04)" id="img-67ef6de0-54" stroke="#00BFFF">
            <path fill="none" d="M0,-0.93 L 0 0.93" class="primitive"/>
          </g>
          <g transform="translate(51.7,68.13)" id="img-67ef6de0-55" stroke="#00BFFF">
            <path fill="none" d="M0,-0.18 L 0 0.18" class="primitive"/>
          </g>
          <g transform="translate(73.75,67.45)" id="img-67ef6de0-56" stroke="#00BFFF">
            <path fill="none" d="M0,-1.43 L 0 1.43" class="primitive"/>
          </g>
          <g transform="translate(95.79,66.91)" id="img-67ef6de0-57" stroke="#00BFFF">
            <path fill="none" d="M0,-1.22 L 0 1.22" class="primitive"/>
          </g>
          <g transform="translate(117.84,66.51)" id="img-67ef6de0-58" stroke="#00BFFF">
            <path fill="none" d="M0,-1.63 L 0 1.63" class="primitive"/>
          </g>
          <g transform="translate(139.88,68.14)" id="img-67ef6de0-59" stroke="#00BFFF">
            <path fill="none" d="M0,0 L 0 0" class="primitive"/>
          </g>
          <g transform="translate(161.93,67.34)" id="img-67ef6de0-60" stroke="#00BFFF">
            <path fill="none" d="M0,-0.8 L 0 0.8" class="primitive"/>
          </g>
          <g transform="translate(183.98,66.16)" id="img-67ef6de0-61" stroke="#00BFFF">
            <path fill="none" d="M0,-1.23 L 0 1.23" class="primitive"/>
          </g>
          <g stroke-width="0.6" id="img-67ef6de0-62">
            <g transform="translate(29.65,62.42)" id="img-67ef6de0-63" stroke="#B5FFFF">
              <path fill="none" d="M-7.02,0 L 7.02 0" class="primitive"/>
            </g>
            <g transform="translate(51.7,65.39)" id="img-67ef6de0-64" stroke="#B5FFFF">
              <path fill="none" d="M-7.02,0 L 7.02 0" class="primitive"/>
            </g>
            <g transform="translate(73.75,64.19)" id="img-67ef6de0-65" stroke="#B5FFFF">
              <path fill="none" d="M-7.02,0 L 7.02 0" class="primitive"/>
            </g>
            <g transform="translate(95.79,61.62)" id="img-67ef6de0-66" stroke="#B5FFFF">
              <path fill="none" d="M-7.02,0 L 7.02 0" class="primitive"/>
            </g>
            <g transform="translate(117.84,64.08)" id="img-67ef6de0-67" stroke="#B5FFFF">
              <path fill="none" d="M-7.02,0 L 7.02 0" class="primitive"/>
            </g>
            <g transform="translate(139.88,55.1)" id="img-67ef6de0-68" stroke="#B5FFFF">
              <path fill="none" d="M-7.02,0 L 7.02 0" class="primitive"/>
            </g>
            <g transform="translate(161.93,64.88)" id="img-67ef6de0-69" stroke="#B5FFFF">
              <path fill="none" d="M-7.02,0 L 7.02 0" class="primitive"/>
            </g>
            <g transform="translate(183.98,62.53)" id="img-67ef6de0-70" stroke="#B5FFFF">
              <path fill="none" d="M-7.02,0 L 7.02 0" class="primitive"/>
            </g>
          </g>
        </g>
      </g>
    </g>
  </g>
  <g class="guide ylabels" font-size="2.82" font-family="'PT Sans Caption','Helvetica Neue','Helvetica',sans-serif" fill="#6C606B" id="img-67ef6de0-71">
    <g transform="translate(17.63,69.8)" id="img-67ef6de0-72">
      <g class="primitive">
        <text text-anchor="end" dy="0.35em">0.0</text>
      </g>
    </g>
    <g transform="translate(17.63,41.2)" id="img-67ef6de0-73">
      <g class="primitive">
        <text text-anchor="end" dy="0.35em">0.5</text>
      </g>
    </g>
    <g transform="translate(17.63,12.61)" id="img-67ef6de0-74">
      <g class="primitive">
        <text text-anchor="end" dy="0.35em">1.0</text>
      </g>
    </g>
  </g>
  <g font-size="3.88" font-family="'PT Sans','Helvetica Neue','Helvetica',sans-serif" fill="#564A55" stroke="#000000" stroke-opacity="0.000" id="img-67ef6de0-75">
    <g transform="translate(8.81,39.2)" id="img-67ef6de0-76">
      <g class="primitive">
        <text text-anchor="middle" dy="0.35em" transform="rotate(-90,0, 2)">Porcentagem UD</text>
      </g>
    </g>
  </g>
  <g font-size="3.88" font-family="'PT Sans','Helvetica Neue','Helvetica',sans-serif" fill="#564A55" stroke="#000000" stroke-opacity="0.000" id="img-67ef6de0-77">
    <g transform="translate(106.82,5)" id="img-67ef6de0-78">
      <g class="primitive">
        <text text-anchor="middle" dy="0.6em">Porcentagem de UDs cultivando cada variedade: milho</text>
      </g>
    </g>
  </g>
</g>
<defs>
  <clipPath id="img-67ef6de0-4">
    <path d="M18.63,10.61 L 195 10.61 195 71.8 18.63 71.8" />
  </clipPath>
</defs>
</svg>
