<?xml version="1.0" encoding="UTF-8"?>
<svg xmlns="http://www.w3.org/2000/svg"
     xmlns:xlink="http://www.w3.org/1999/xlink"
     xmlns:gadfly="http://www.gadflyjl.org/ns"
     version="1.2"
     width="150mm" height="90mm" viewBox="0 0 150 90"
     stroke="none"
     fill="#000000"
     stroke-width="0.3"
     font-size="3.88"
>
<g class="plotroot xscalable yscalable" id="img-77afed2c-1">
  <g font-size="3.88" font-family="'PT Sans','Helvetica Neue','Helvetica',sans-serif" fill="#564A55" stroke="#000000" stroke-opacity="0.000" id="img-77afed2c-2">
    <text x="82.41" y="79.18" text-anchor="middle" dy="0.6em">time</text>
  </g>
  <g class="guide xlabels" font-size="2.82" font-family="'PT Sans Caption','Helvetica Neue','Helvetica',sans-serif" fill="#6C606B" id="img-77afed2c-3">
    <text x="21.82" y="72.71" text-anchor="middle" dy="0.6em">0</text>
    <text x="82.41" y="72.71" text-anchor="middle" dy="0.6em">5.0×10⁴</text>
    <text x="143" y="72.71" text-anchor="middle" dy="0.6em">1.0×10⁵</text>
  </g>
<g clip-path="url(#img-77afed2c-4)">
  <g id="img-77afed2c-5">
    <g pointer-events="visible" opacity="1" fill="#000000" fill-opacity="0.000" stroke="#000000" stroke-opacity="0.000" class="guide background" id="img-77afed2c-6">
      <rect x="19.82" y="5" width="125.18" height="66.71"/>
    </g>
    <g class="guide ygridlines xfixed" stroke-dasharray="0.5,0.5" stroke-width="0.2" stroke="#D0D0E0" id="img-77afed2c-7">
      <path fill="none" d="M19.82,69.71 L 145 69.71"/>
      <path fill="none" d="M19.82,54.03 L 145 54.03"/>
      <path fill="none" d="M19.82,38.35 L 145 38.35"/>
      <path fill="none" d="M19.82,22.68 L 145 22.68"/>
      <path fill="none" d="M19.82,7 L 145 7"/>
    </g>
    <g class="guide xgridlines yfixed" stroke-dasharray="0.5,0.5" stroke-width="0.2" stroke="#D0D0E0" id="img-77afed2c-8">
      <path fill="none" d="M21.82,5 L 21.82 71.71"/>
      <path fill="none" d="M82.41,5 L 82.41 71.71"/>
      <path fill="none" d="M143,5 L 143 71.71"/>
    </g>
    <g class="plotpanel" id="img-77afed2c-9">
      <g stroke-width="0.3" fill="#000000" fill-opacity="0.000" class="geometry" stroke-dasharray="none" stroke="#00BFFF" id="img-77afed2c-10">
        <path fill="none" d="M21.82,7 L 21.94 35.22 22.06 39.61 22.18 42.12 22.3 43.37 22.43 44.63 22.55 45.25 22.67 45.88 22.79 45.88 22.91 46.51 23.03 47.13 23.15 47.13 23.27 47.76 23.39 47.76 23.52 47.76 23.64 48.39 23.76 48.39 23.88 48.39 24 49.01 24.12 49.01 24.24 49.01 24.36 49.01 24.49 49.01 24.61 49.01 24.73 49.01 24.85 49.01 24.97 49.01 25.09 49.64 25.21 49.64 25.33 49.64 25.45 49.64 25.58 49.64 25.7 49.64 25.82 49.64 25.94 49.64 26.06 49.64 26.18 49.64 26.3 50.27 26.42 50.27 26.55 50.27 26.67 50.27 26.79 50.27 26.91 50.27 27.03 50.27 27.15 50.27 27.27 50.27 27.39 50.27 27.51 50.27 27.64 50.27 27.76 50.27 27.88 50.27 28 50.27 28.12 50.27 28.24 50.27 28.36 50.27 28.48 50.27 28.61 50.9 28.73 50.9 28.85 50.9 28.97 50.9 29.09 50.9 29.21 50.9 29.33 50.9 29.45 50.9 29.57 50.9 29.7 50.9 29.82 50.9 29.94 50.9 30.06 50.9 30.18 50.9 30.3 50.9 30.42 50.9 30.54 50.9 30.67 50.9 30.79 50.9 30.91 50.9 31.03 50.9 31.15 50.9 31.27 50.9 31.39 50.9 31.51 50.9 31.64 50.9 31.76 50.9 31.88 51.52 32 51.52 32.12 51.52 32.24 51.52 32.36 51.52 32.48 51.52 32.6 51.52 32.73 51.52 32.85 51.52 32.97 51.52 33.09 51.52 33.21 51.52 33.33 51.52 33.45 51.52 33.57 51.52 33.7 51.52 33.82 51.52 33.94 51.52 34.06 51.52 34.18 51.52 34.3 51.52 34.42 51.52 34.54 51.52 34.66 51.52 34.79 51.52 34.91 52.15 35.03 52.15 35.15 52.15 35.27 52.15 35.39 52.15 35.51 52.15 35.63 52.15 35.76 52.15 35.88 52.15 36 52.15 36.12 52.15 36.24 52.15 36.36 52.15 36.48 52.15 36.6 52.15 36.72 52.15 36.85 52.15 36.97 52.15 37.09 52.15 37.21 52.15 37.33 52.15 37.45 52.15 37.57 52.15 37.69 52.15 37.82 52.15 37.94 52.15 38.06 52.15 38.18 52.15 38.3 52.15 38.42 52.15 38.54 52.15 38.66 52.15 38.78 52.15 38.91 52.15 39.03 52.78 39.15 52.78 39.27 52.78 39.39 52.78 39.51 52.78 39.63 52.78 39.75 52.78 39.88 52.78 40 52.78 40.12 52.78 40.24 52.78 40.36 52.78 40.48 52.78 40.6 52.78 40.72 52.78 40.84 52.78 40.97 52.78 41.09 52.78 41.21 52.78 41.33 52.78 41.45 52.78 41.57 52.78 41.69 52.78 41.81 52.78 41.94 52.78 42.06 52.78 42.18 52.78 42.3 52.78 42.42 52.78 42.54 52.78 42.66 52.78 42.78 52.78 42.9 52.78 43.03 52.78 43.15 52.78 43.27 52.78 43.39 52.78 43.51 52.78 43.63 52.78 43.75 52.78 43.87 52.78 44 52.78 44.12 52.78 44.24 52.78 44.36 52.78 44.48 52.78 44.6 52.78 44.72 52.78 44.84 52.78 44.96 52.78 45.09 52.78 45.21 52.78 45.33 52.78 45.45 52.78 45.57 52.78 45.69 52.78 45.81 52.78 45.93 52.78 46.06 52.78 46.18 52.78 46.3 52.78 46.42 52.78 46.54 52.78 46.66 52.78 46.78 52.78 46.9 52.78 47.02 52.78 47.15 52.78 47.27 52.78 47.39 52.78 47.51 52.78 47.63 52.78 47.75 52.78 47.87 52.78 47.99 52.78 48.12 52.78 48.24 52.78 48.36 52.78 48.48 52.78 48.6 52.78 48.72 52.78 48.84 52.78 48.96 52.78 49.09 52.78 49.21 52.78 49.33 52.78 49.45 52.78 49.57 52.78 49.69 52.78 49.81 52.78 49.93 52.78 50.05 52.78 50.18 52.78 50.3 52.78 50.42 52.78 50.54 52.78 50.66 52.78 50.78 52.78 50.9 52.78 51.02 52.78 51.15 52.78 51.27 53.4 51.39 53.4 51.51 53.4 51.63 53.4 51.75 53.4 51.87 53.4 51.99 53.4 52.11 53.4 52.24 53.4 52.36 53.4 52.48 53.4 52.6 53.4 52.72 53.4 52.84 53.4 52.96 53.4 53.08 53.4 53.21 53.4 53.33 53.4 53.45 53.4 53.57 53.4 53.69 53.4 53.81 53.4 53.93 53.4 54.05 53.4 54.17 53.4 54.3 53.4 54.42 53.4 54.54 53.4 54.66 53.4 54.78 53.4 54.9 53.4 55.02 53.4 55.14 53.4 55.27 53.4 55.39 53.4 55.51 53.4 55.63 53.4 55.75 53.4 55.87 53.4 55.99 53.4 56.11 53.4 56.23 53.4 56.36 53.4 56.48 53.4 56.6 53.4 56.72 53.4 56.84 53.4 56.96 53.4 57.08 53.4 57.2 53.4 57.33 53.4 57.45 53.4 57.57 53.4 57.69 53.4 57.81 53.4 57.93 53.4 58.05 53.4 58.17 53.4 58.29 53.4 58.42 53.4 58.54 53.4 58.66 53.4 58.78 53.4 58.9 53.4 59.02 53.4 59.14 53.4 59.26 53.4 59.39 53.4 59.51 53.4 59.63 53.4 59.75 53.4 59.87 53.4 59.99 53.4 60.11 53.4 60.23 53.4 60.35 53.4 60.48 53.4 60.6 53.4 60.72 53.4 60.84 53.4 60.96 53.4 61.08 53.4 61.2 53.4 61.32 53.4 61.45 53.4 61.57 53.4 61.69 54.03 61.81 54.03 61.93 54.03 62.05 54.03 62.17 54.03 62.29 54.03 62.41 54.03 62.54 54.03 62.66 54.03 62.78 54.03 62.9 54.03 63.02 54.03 63.14 54.03 63.26 54.03 63.38 54.03 63.51 54.03 63.63 54.03 63.75 54.03 63.87 54.03 63.99 54.03 64.11 54.03 64.23 54.03 64.35 54.03 64.47 54.03 64.6 54.03 64.72 54.03 64.84 54.03 64.96 54.03 65.08 54.03 65.2 54.03 65.32 54.03 65.44 54.03 65.57 54.03 65.69 54.03 65.81 54.03 65.93 54.03 66.05 54.03 66.17 54.03 66.29 54.03 66.41 54.03 66.54 54.03 66.66 54.03 66.78 54.03 66.9 54.03 67.02 54.03 67.14 54.03 67.26 54.03 67.38 54.03 67.5 54.03 67.63 54.03 67.75 54.03 67.87 54.03 67.99 54.03 68.11 54.03 68.23 54.03 68.35 54.03 68.47 54.03 68.6 54.03 68.72 54.03 68.84 54.03 68.96 54.03 69.08 54.03 69.2 54.03 69.32 54.03 69.44 54.03 69.56 54.03 69.69 54.03 69.81 54.03 69.93 54.03 70.05 54.03 70.17 54.03 70.29 54.03 70.41 54.03 70.53 54.03 70.66 54.03 70.78 54.03 70.9 54.03 71.02 54.03 71.14 54.03 71.26 54.03 71.38 54.03 71.5 54.03 71.62 54.03 71.75 54.03 71.87 54.03 71.99 54.03 72.11 54.03 72.23 54.03 72.35 54.03 72.47 54.03 72.59 54.03 72.72 54.03 72.84 54.03 72.96 54.03 73.08 54.03 73.2 54.03 73.32 54.03 73.44 54.03 73.56 54.03 73.68 54.03 73.81 54.03 73.93 54.03 74.05 54.03 74.17 54.03 74.29 54.03 74.41 54.03 74.53 54.03 74.65 54.03 74.78 54.03 74.9 54.03 75.02 54.03 75.14 54.03 75.26 54.03 75.38 54.03 75.5 54.03 75.62 54.03 75.74 54.03 75.87 54.03 75.99 54.03 76.11 54.03 76.23 54.03 76.35 54.03 76.47 54.03 76.59 54.03 76.71 54.03 76.84 54.03 76.96 54.03 77.08 54.03 77.2 54.03 77.32 54.03 77.44 54.03 77.56 54.03 77.68 54.03 77.8 54.03 77.93 54.03 78.05 54.03 78.17 54.03 78.29 54.03 78.41 54.03 78.53 54.03 78.65 54.03 78.77 54.03 78.9 54.03 79.02 54.03 79.14 54.03 79.26 54.03 79.38 54.03 79.5 54.03 79.62 54.03 79.74 54.03 79.86 54.03 79.99 54.03 80.11 54.03 80.23 54.03 80.35 54.03 80.47 54.03 80.59 54.03 80.71 54.03 80.83 54.03 80.96 54.03 81.08 54.03 81.2 54.03 81.32 54.03 81.44 54.03 81.56 54.03 81.68 54.03 81.8 54.03 81.93 54.03 82.05 54.03 82.17 54.03 82.29 54.03 82.41 54.03 82.53 54.03 82.65 54.03 82.77 54.03 82.89 54.03 83.02 54.03 83.14 54.03 83.26 54.03 83.38 54.03 83.5 54.03 83.62 54.03 83.74 54.03 83.86 54.03 83.99 54.03 84.11 54.03 84.23 54.03 84.35 54.03 84.47 54.03 84.59 54.03 84.71 54.03 84.83 54.03 84.95 54.03 85.08 54.03 85.2 54.03 85.32 54.03 85.44 54.03 85.56 54.03 85.68 54.03 85.8 54.03 85.92 54.03 86.05 54.03 86.17 54.03 86.29 54.03 86.41 54.03 86.53 54.03 86.65 54.03 86.77 54.03 86.89 54.03 87.01 54.03 87.14 54.03 87.26 54.03 87.38 54.03 87.5 54.03 87.62 54.03 87.74 54.03 87.86 54.03 87.98 54.03 88.11 54.03 88.23 54.03 88.35 54.03 88.47 54.03 88.59 54.03 88.71 54.03 88.83 54.03 88.95 54.03 89.07 54.03 89.2 54.03 89.32 54.03 89.44 54.03 89.56 54.03 89.68 54.03 89.8 54.03 89.92 54.03 90.04 54.03 90.17 54.03 90.29 54.03 90.41 54.03 90.53 54.03 90.65 54.03 90.77 54.03 90.89 54.03 91.01 54.03 91.13 54.03 91.26 54.03 91.38 54.03 91.5 54.03 91.62 54.03 91.74 54.03 91.86 54.03 91.98 54.03 92.1 54.03 92.23 54.03 92.35 54.03 92.47 54.03 92.59 54.03 92.71 54.03 92.83 54.03 92.95 54.03 93.07 54.03 93.19 54.03 93.32 54.03 93.44 54.03 93.56 54.03 93.68 54.03 93.8 54.03 93.92 54.03 94.04 54.03 94.16 54.03 94.29 54.03 94.41 54.03 94.53 54.03 94.65 54.03 94.77 54.03 94.89 54.03 95.01 54.03 95.13 54.03 95.25 54.03 95.38 54.03 95.5 54.03 95.62 54.03 95.74 54.03 95.86 54.03 95.98 54.03 96.1 54.03 96.22 54.03 96.35 54.03 96.47 54.03 96.59 54.03 96.71 54.03 96.83 54.03 96.95 54.03 97.07 54.66 97.19 54.66 97.31 54.66 97.44 54.66 97.56 54.66 97.68 54.66 97.8 54.66 97.92 54.66 98.04 54.66 98.16 54.66 98.28 54.66 98.41 54.66 98.53 54.66 98.65 54.66 98.77 54.66 98.89 54.66 99.01 54.66 99.13 54.66 99.25 54.66 99.38 54.66 99.5 54.66 99.62 54.66 99.74 54.66 99.86 54.66 99.98 54.66 100.1 54.66 100.22 54.66 100.34 54.66 100.47 54.66 100.59 54.66 100.71 54.66 100.83 54.66 100.95 54.66 101.07 54.66 101.19 54.66 101.31 54.66 101.44 54.66 101.56 54.66 101.68 54.66 101.8 54.66 101.92 54.66 102.04 54.66 102.16 54.66 102.28 54.66 102.4 54.66 102.53 54.66 102.65 54.66 102.77 54.66 102.89 54.66 103.01 54.66 103.13 54.66 103.25 54.66 103.37 54.66 103.5 54.66 103.62 54.66 103.74 54.66 103.86 54.66 103.98 54.66 104.1 54.66 104.22 54.66 104.34 54.66 104.46 54.66 104.59 54.66 104.71 54.66 104.83 54.66 104.95 54.66 105.07 54.66 105.19 54.66 105.31 54.66 105.43 54.66 105.56 54.66 105.68 54.66 105.8 54.66 105.92 54.66 106.04 54.66 106.16 54.66 106.28 54.66 106.4 54.66 106.52 54.66 106.65 54.66 106.77 54.66 106.89 54.66 107.01 54.66 107.13 54.66 107.25 54.66 107.37 54.66 107.49 54.66 107.62 54.66 107.74 54.66 107.86 54.66 107.98 54.66 108.1 54.66 108.22 54.66 108.34 54.66 108.46 54.66 108.58 54.66 108.71 54.66 108.83 54.66 108.95 54.66 109.07 54.66 109.19 54.66 109.31 54.66 109.43 54.66 109.55 54.66 109.68 54.66 109.8 54.66 109.92 54.66 110.04 54.66 110.16 54.66 110.28 54.66 110.4 54.66 110.52 54.66 110.64 54.66 110.77 54.66 110.89 54.66 111.01 54.66 111.13 54.66 111.25 54.66 111.37 54.66 111.49 54.66 111.61 54.66 111.74 54.66 111.86 54.66 111.98 54.66 112.1 54.66 112.22 54.66 112.34 54.66 112.46 54.66 112.58 54.66 112.7 54.66 112.83 54.66 112.95 54.66 113.07 54.66 113.19 54.66 113.31 54.66 113.43 54.66 113.55 54.66 113.67 54.66 113.8 54.66 113.92 54.66 114.04 54.66 114.16 54.66 114.28 54.66 114.4 54.66 114.52 54.66 114.64 54.66 114.76 54.66 114.89 54.66 115.01 54.66 115.13 54.66 115.25 54.66 115.37 54.66 115.49 54.66 115.61 54.66 115.73 54.66 115.86 54.66 115.98 54.66 116.1 54.66 116.22 54.66 116.34 54.66 116.46 54.66 116.58 54.66 116.7 54.66 116.82 54.66 116.95 54.66 117.07 54.66 117.19 54.66 117.31 54.66 117.43 54.66 117.55 54.66 117.67 54.66 117.79 54.66 117.92 54.66 118.04 54.66 118.16 54.66 118.28 54.66 118.4 54.66 118.52 54.66 118.64 54.66 118.76 54.66 118.89 54.66 119.01 54.66 119.13 54.66 119.25 54.66 119.37 54.66 119.49 54.66 119.61 54.66 119.73 54.66 119.85 54.66 119.98 54.66 120.1 54.66 120.22 54.66 120.34 54.66 120.46 54.66 120.58 54.66 120.7 54.66 120.82 54.66 120.95 54.66 121.07 54.66 121.19 54.66 121.31 54.66 121.43 54.66 121.55 54.66 121.67 54.66 121.79 54.66 121.91 54.66 122.04 54.66 122.16 54.66 122.28 54.66 122.4 54.66 122.52 54.66 122.64 54.66 122.76 54.66 122.88 54.66 123.01 54.66 123.13 54.66 123.25 54.66 123.37 54.66 123.49 54.66 123.61 54.66 123.73 54.66 123.85 54.66 123.97 54.66 124.1 54.66 124.22 54.66 124.34 54.66 124.46 54.66 124.58 54.66 124.7 54.66 124.82 54.66 124.94 54.66 125.07 54.66 125.19 54.66 125.31 54.66 125.43 54.66 125.55 54.66 125.67 54.66 125.79 54.66 125.91 54.66 126.03 54.66 126.16 54.66 126.28 54.66 126.4 54.66 126.52 54.66 126.64 54.66 126.76 54.66 126.88 54.66 127 54.66 127.13 54.66 127.25 54.66 127.37 54.66 127.49 54.66 127.61 54.66 127.73 54.66 127.85 54.66 127.97 54.66 128.09 54.66 128.22 54.66 128.34 54.66 128.46 54.66 128.58 54.66 128.7 54.66 128.82 54.66 128.94 54.66 129.06 54.66 129.19 54.66 129.31 54.66 129.43 54.66 129.55 54.66 129.67 54.66 129.79 54.66 129.91 54.66 130.03 54.66 130.15 54.66 130.28 54.66 130.4 54.66 130.52 54.66 130.64 54.66 130.76 54.66 130.88 54.66 131 54.66 131.12 54.66 131.25 54.66 131.37 54.66 131.49 54.66 131.61 54.66 131.73 54.66 131.85 54.66 131.97 54.66 132.09 54.66 132.21 54.66 132.34 54.66 132.46 54.66 132.58 54.66 132.7 54.66 132.82 54.66 132.94 54.66 133.06 54.66 133.18 54.66 133.31 54.66 133.43 54.66 133.55 54.66 133.67 54.66 133.79 54.66 133.91 54.66 134.03 54.66 134.15 54.66 134.27 54.66 134.4 54.66 134.52 54.66 134.64 54.66 134.76 54.66 134.88 54.66 135 54.66 135.12 54.66 135.24 54.66 135.37 54.66 135.49 54.66 135.61 54.66 135.73 54.66 135.85 54.66 135.97 54.66 136.09 54.66 136.21 54.66 136.34 54.66 136.46 54.66 136.58 54.66 136.7 54.66 136.82 54.66 136.94 54.66 137.06 54.66 137.18 54.66 137.3 54.66 137.43 54.66 137.55 54.66 137.67 54.66 137.79 54.66 137.91 54.66 138.03 54.66 138.15 54.66 138.27 54.66 138.4 54.66 138.52 54.66 138.64 54.66 138.76 54.66 138.88 54.66 139 54.66 139.12 54.66 139.24 54.66 139.36 54.66 139.49 54.66 139.61 54.66 139.73 54.66 139.85 54.66 139.97 54.66 140.09 54.66 140.21 54.66 140.33 54.66 140.46 54.66 140.58 54.66 140.7 54.66 140.82 54.66 140.94 54.66 141.06 54.66 141.18 54.66 141.3 54.66 141.42 54.66 141.55 54.66 141.67 54.66 141.79 54.66 141.91 54.66 142.03 54.66 142.15 54.66 142.27 54.66 142.39 54.66 142.52 54.66 142.64 54.66 142.76 54.66 142.88 54.66"/>
      </g>
    </g>
  </g>
</g>
  <g class="guide ylabels" font-size="2.82" font-family="'PT Sans Caption','Helvetica Neue','Helvetica',sans-serif" fill="#6C606B" id="img-77afed2c-11">
    <text x="18.82" y="69.71" text-anchor="end" dy="0.35em">0</text>
    <text x="18.82" y="54.03" text-anchor="end" dy="0.35em">25</text>
    <text x="18.82" y="38.35" text-anchor="end" dy="0.35em">50</text>
    <text x="18.82" y="22.68" text-anchor="end" dy="0.35em">75</text>
    <text x="18.82" y="7" text-anchor="end" dy="0.35em">100</text>
  </g>
  <g font-size="3.88" font-family="'PT Sans','Helvetica Neue','Helvetica',sans-serif" fill="#564A55" stroke="#000000" stroke-opacity="0.000" id="img-77afed2c-12">
    <text x="8.76" y="36.35" text-anchor="middle" dy="0.35em" transform="rotate(-90, 8.76, 38.35)">nSpecie</text>
  </g>
</g>
<defs>
  <clipPath id="img-77afed2c-4">
  <path d="M19.82,5 L 145 5 145 71.71 19.82 71.71" />
</clipPath>
</defs>
</svg>
