<?xml version="1.0" encoding="UTF-8"?>
<svg xmlns="http://www.w3.org/2000/svg"
     xmlns:xlink="http://www.w3.org/1999/xlink"
     xmlns:gadfly="http://www.gadflyjl.org/ns"
     version="1.2"
     width="150mm" height="90mm" viewBox="0 0 150 90"
     stroke="none"
     fill="#000000"
     stroke-width="0.3"
     font-size="3.88"
>
<g class="plotroot xscalable yscalable" id="img-83f6d32f-1">
  <g font-size="3.88" font-family="'PT Sans','Helvetica Neue','Helvetica',sans-serif" fill="#564A55" stroke="#000000" stroke-opacity="0.000" id="img-83f6d32f-2">
    <text x="82.41" y="79.18" text-anchor="middle" dy="0.6em">time</text>
  </g>
  <g class="guide xlabels" font-size="2.82" font-family="'PT Sans Caption','Helvetica Neue','Helvetica',sans-serif" fill="#6C606B" id="img-83f6d32f-3">
    <text x="21.82" y="72.71" text-anchor="middle" dy="0.6em">0</text>
    <text x="82.41" y="72.71" text-anchor="middle" dy="0.6em">5.0×10³</text>
    <text x="143" y="72.71" text-anchor="middle" dy="0.6em">1.0×10⁴</text>
  </g>
<g clip-path="url(#img-83f6d32f-4)">
  <g id="img-83f6d32f-5">
    <g pointer-events="visible" opacity="1" fill="#000000" fill-opacity="0.000" stroke="#000000" stroke-opacity="0.000" class="guide background" id="img-83f6d32f-6">
      <rect x="19.82" y="5" width="125.18" height="66.71"/>
    </g>
    <g class="guide ygridlines xfixed" stroke-dasharray="0.5,0.5" stroke-width="0.2" stroke="#D0D0E0" id="img-83f6d32f-7">
      <path fill="none" d="M19.82,69.71 L 145 69.71"/>
      <path fill="none" d="M19.82,57.17 L 145 57.17"/>
      <path fill="none" d="M19.82,44.63 L 145 44.63"/>
      <path fill="none" d="M19.82,32.08 L 145 32.08"/>
      <path fill="none" d="M19.82,19.54 L 145 19.54"/>
      <path fill="none" d="M19.82,7 L 145 7"/>
    </g>
    <g class="guide xgridlines yfixed" stroke-dasharray="0.5,0.5" stroke-width="0.2" stroke="#D0D0E0" id="img-83f6d32f-8">
      <path fill="none" d="M21.82,5 L 21.82 71.71"/>
      <path fill="none" d="M82.41,5 L 82.41 71.71"/>
      <path fill="none" d="M143,5 L 143 71.71"/>
    </g>
    <g class="plotpanel" id="img-83f6d32f-9">
      <g stroke-width="0.3" fill="#000000" fill-opacity="0.000" class="geometry" stroke-dasharray="none" stroke="#00BFFF" id="img-83f6d32f-10">
        <path fill="none" d="M21.82,7 L 21.94 12.02 22.06 19.54 22.18 24.56 22.3 24.56 22.43 29.58 22.55 29.58 22.67 28.32 22.79 30.83 22.91 30.83 23.03 29.58 23.15 30.83 23.27 32.08 23.39 32.08 23.52 33.34 23.64 33.34 23.76 32.08 23.88 30.83 24 33.34 24.12 33.34 24.24 32.08 24.36 32.08 24.49 30.83 24.61 30.83 24.73 30.83 24.85 30.83 24.97 32.08 25.09 33.34 25.21 34.59 25.33 33.34 25.45 33.34 25.58 34.59 25.7 33.34 25.82 34.59 25.94 33.34 26.06 33.34 26.18 34.59 26.3 34.59 26.42 38.35 26.55 35.85 26.67 35.85 26.79 35.85 26.91 35.85 27.03 35.85 27.15 35.85 27.27 33.34 27.39 35.85 27.51 35.85 27.64 35.85 27.76 35.85 27.88 35.85 28 35.85 28.12 35.85 28.24 35.85 28.36 37.1 28.48 37.1 28.61 38.35 28.73 37.1 28.85 34.59 28.97 34.59 29.09 37.1 29.21 38.35 29.33 38.35 29.45 38.35 29.58 38.35 29.7 37.1 29.82 37.1 29.94 37.1 30.06 35.85 30.18 35.85 30.3 38.35 30.42 37.1 30.54 35.85 30.67 38.35 30.79 35.85 30.91 37.1 31.03 38.35 31.15 39.61 31.27 39.61 31.39 40.86 31.51 39.61 31.64 39.61 31.76 42.12 31.88 39.61 32 39.61 32.12 39.61 32.24 39.61 32.36 42.12 32.48 42.12 32.6 40.86 32.73 39.61 32.85 38.35 32.97 39.61 33.09 40.86 33.21 39.61 33.33 39.61 33.45 40.86 33.57 43.37 33.7 43.37 33.82 44.63 33.94 42.12 34.06 42.12 34.18 43.37 34.3 45.88 34.42 45.88 34.54 45.88 34.66 45.88 34.79 44.63 34.91 44.63 35.03 45.88 35.15 45.88 35.27 43.37 35.39 43.37 35.51 45.88 35.63 47.13 35.76 45.88 35.88 45.88 36 45.88 36.12 45.88 36.24 44.63 36.36 45.88 36.48 43.37 36.6 44.63 36.72 44.63 36.85 44.63 36.97 47.13 37.09 45.88 37.21 45.88 37.33 44.63 37.45 47.13 37.57 47.13 37.69 45.88 37.82 48.39 37.94 48.39 38.06 45.88 38.18 47.13 38.3 45.88 38.42 47.13 38.54 48.39 38.66 47.13 38.78 45.88 38.91 44.63 39.03 45.88 39.15 45.88 39.27 44.63 39.39 44.63 39.51 43.37 39.63 43.37 39.75 43.37 39.88 44.63 40 45.88 40.12 45.88 40.24 47.13 40.36 45.88 40.48 44.63 40.6 45.88 40.72 45.88 40.84 45.88 40.97 45.88 41.09 43.37 41.21 44.63 41.33 44.63 41.45 44.63 41.57 43.37 41.69 44.63 41.81 44.63 41.94 45.88 42.06 45.88 42.18 45.88 42.3 47.13 42.42 45.88 42.54 47.13 42.66 47.13 42.78 47.13 42.9 45.88 43.03 45.88 43.15 47.13 43.27 48.39 43.39 49.64 43.51 49.64 43.63 48.39 43.75 48.39 43.87 48.39 44 47.13 44.12 45.88 44.24 47.13 44.36 47.13 44.48 47.13 44.6 47.13 44.72 47.13 44.84 48.39 44.96 49.64 45.09 48.39 45.21 49.64 45.33 50.9 45.45 50.9 45.57 50.9 45.69 49.64 45.81 52.15 45.93 50.9 46.06 52.15 46.18 50.9 46.3 50.9 46.42 50.9 46.54 52.15 46.66 50.9 46.78 49.64 46.9 49.64 47.03 48.39 47.15 50.9 47.27 49.64 47.39 49.64 47.51 49.64 47.63 50.9 47.75 52.15 47.87 52.15 47.99 52.15 48.12 53.4 48.24 53.4 48.36 53.4 48.48 53.4 48.6 52.15 48.72 53.4 48.84 50.9 48.96 52.15 49.09 52.15 49.21 53.4 49.33 50.9 49.45 49.64 49.57 49.64 49.69 50.9 49.81 50.9 49.93 52.15 50.05 53.4 50.18 53.4 50.3 53.4 50.42 52.15 50.54 50.9 50.66 50.9 50.78 50.9 50.9 50.9 51.02 52.15 51.15 52.15 51.27 52.15 51.39 50.9 51.51 50.9 51.63 50.9 51.75 54.66 51.87 54.66 51.99 54.66 52.11 52.15 52.24 53.4 52.36 52.15 52.48 50.9 52.6 52.15 52.72 50.9 52.84 50.9 52.96 50.9 53.08 50.9 53.21 50.9 53.33 49.64 53.45 48.39 53.57 49.64 53.69 52.15 53.81 52.15 53.93 53.4 54.05 50.9 54.17 49.64 54.3 50.9 54.42 50.9 54.54 52.15 54.66 53.4 54.78 50.9 54.9 52.15 55.02 50.9 55.14 52.15 55.27 53.4 55.39 54.66 55.51 53.4 55.63 53.4 55.75 50.9 55.87 52.15 55.99 50.9 56.11 53.4 56.23 52.15 56.36 52.15 56.48 52.15 56.6 52.15 56.72 49.64 56.84 48.39 56.96 49.64 57.08 50.9 57.2 50.9 57.33 50.9 57.45 52.15 57.57 53.4 57.69 53.4 57.81 53.4 57.93 52.15 58.05 53.4 58.17 53.4 58.29 53.4 58.42 52.15 58.54 52.15 58.66 52.15 58.78 53.4 58.9 52.15 59.02 52.15 59.14 53.4 59.26 53.4 59.39 53.4 59.51 53.4 59.63 54.66 59.75 53.4 59.87 54.66 59.99 54.66 60.11 54.66 60.23 55.91 60.35 55.91 60.48 55.91 60.6 57.17 60.72 55.91 60.84 57.17 60.96 54.66 61.08 54.66 61.2 53.4 61.32 54.66 61.45 54.66 61.57 54.66 61.69 54.66 61.81 54.66 61.93 55.91 62.05 54.66 62.17 54.66 62.29 55.91 62.41 55.91 62.54 54.66 62.66 54.66 62.78 54.66 62.9 55.91 63.02 55.91 63.14 54.66 63.26 54.66 63.38 54.66 63.51 55.91 63.63 55.91 63.75 57.17 63.87 57.17 63.99 57.17 64.11 57.17 64.23 57.17 64.35 57.17 64.47 55.91 64.6 57.17 64.72 55.91 64.84 57.17 64.96 58.42 65.08 58.42 65.2 55.91 65.32 53.4 65.44 54.66 65.57 55.91 65.69 54.66 65.81 55.91 65.93 57.17 66.05 57.17 66.17 58.42 66.29 58.42 66.41 57.17 66.54 57.17 66.66 57.17 66.78 57.17 66.9 55.91 67.02 57.17 67.14 57.17 67.26 57.17 67.38 57.17 67.5 58.42 67.63 58.42 67.75 57.17 67.87 55.91 67.99 55.91 68.11 55.91 68.23 57.17 68.35 57.17 68.47 57.17 68.6 57.17 68.72 58.42 68.84 58.42 68.96 58.42 69.08 55.91 69.2 57.17 69.32 57.17 69.44 57.17 69.56 57.17 69.69 55.91 69.81 57.17 69.93 57.17 70.05 57.17 70.17 57.17 70.29 55.91 70.41 57.17 70.53 58.42 70.66 57.17 70.78 57.17 70.9 55.91 71.02 57.17 71.14 57.17 71.26 57.17 71.38 57.17 71.5 58.42 71.62 57.17 71.75 58.42 71.87 58.42 71.99 57.17 72.11 59.68 72.23 58.42 72.35 57.17 72.47 57.17 72.59 58.42 72.72 57.17 72.84 58.42 72.96 59.68 73.08 59.68 73.2 59.68 73.32 58.42 73.44 57.17 73.56 57.17 73.68 55.91 73.81 57.17 73.93 55.91 74.05 57.17 74.17 55.91 74.29 57.17 74.41 54.66 74.53 58.42 74.65 58.42 74.78 58.42 74.9 58.42 75.02 57.17 75.14 58.42 75.26 57.17 75.38 58.42 75.5 57.17 75.62 57.17 75.74 57.17 75.87 58.42 75.99 55.91 76.11 57.17 76.23 55.91 76.35 54.66 76.47 53.4 76.59 54.66 76.71 53.4 76.84 53.4 76.96 53.4 77.08 53.4 77.2 54.66 77.32 55.91 77.44 55.91 77.56 55.91 77.68 53.4 77.8 53.4 77.93 54.66 78.05 55.91 78.17 55.91 78.29 55.91 78.41 54.66 78.53 54.66 78.65 54.66 78.77 55.91 78.9 55.91 79.02 54.66 79.14 55.91 79.26 55.91 79.38 54.66 79.5 55.91 79.62 55.91 79.74 55.91 79.86 57.17 79.99 55.91 80.11 55.91 80.23 55.91 80.35 55.91 80.47 57.17 80.59 55.91 80.71 58.42 80.83 57.17 80.96 55.91 81.08 53.4 81.2 53.4 81.32 53.4 81.44 55.91 81.56 55.91 81.68 54.66 81.8 54.66 81.93 55.91 82.05 57.17 82.17 55.91 82.29 55.91 82.41 54.66 82.53 55.91 82.65 57.17 82.77 55.91 82.89 54.66 83.02 54.66 83.14 53.4 83.26 55.91 83.38 55.91 83.5 54.66 83.62 55.91 83.74 55.91 83.86 55.91 83.99 54.66 84.11 55.91 84.23 54.66 84.35 54.66 84.47 54.66 84.59 55.91 84.71 54.66 84.83 55.91 84.95 54.66 85.08 54.66 85.2 54.66 85.32 54.66 85.44 55.91 85.56 57.17 85.68 55.91 85.8 57.17 85.92 57.17 86.05 58.42 86.17 58.42 86.29 58.42 86.41 59.68 86.53 58.42 86.65 57.17 86.77 59.68 86.89 60.93 87.01 60.93 87.14 60.93 87.26 58.42 87.38 58.42 87.5 58.42 87.62 58.42 87.74 58.42 87.86 59.68 87.98 59.68 88.11 58.42 88.23 57.17 88.35 57.17 88.47 57.17 88.59 58.42 88.71 57.17 88.83 58.42 88.95 55.91 89.07 55.91 89.2 55.91 89.32 57.17 89.44 58.42 89.56 57.17 89.68 58.42 89.8 58.42 89.92 59.68 90.04 57.17 90.17 58.42 90.29 57.17 90.41 57.17 90.53 57.17 90.65 55.91 90.77 55.91 90.89 55.91 91.01 55.91 91.13 57.17 91.26 58.42 91.38 58.42 91.5 58.42 91.62 58.42 91.74 58.42 91.86 59.68 91.98 59.68 92.1 60.93 92.23 60.93 92.35 59.68 92.47 57.17 92.59 57.17 92.71 59.68 92.83 59.68 92.95 58.42 93.07 60.93 93.19 59.68 93.32 60.93 93.44 62.18 93.56 62.18 93.68 62.18 93.8 62.18 93.92 63.44 94.04 63.44 94.16 62.18 94.29 62.18 94.41 62.18 94.53 59.68 94.65 62.18 94.77 60.93 94.89 62.18 95.01 60.93 95.13 59.68 95.25 62.18 95.38 62.18 95.5 60.93 95.62 59.68 95.74 60.93 95.86 59.68 95.98 59.68 96.1 59.68 96.22 60.93 96.35 60.93 96.47 59.68 96.59 58.42 96.71 59.68 96.83 60.93 96.95 59.68 97.07 62.18 97.19 60.93 97.31 60.93 97.44 60.93 97.56 60.93 97.68 60.93 97.8 59.68 97.92 60.93 98.04 60.93 98.16 60.93 98.28 60.93 98.41 59.68 98.53 60.93 98.65 60.93 98.77 59.68 98.89 58.42 99.01 59.68 99.13 57.17 99.25 57.17 99.38 55.91 99.5 55.91 99.62 55.91 99.74 57.17 99.86 57.17 99.98 58.42 100.1 58.42 100.22 55.91 100.34 57.17 100.47 57.17 100.59 55.91 100.71 57.17 100.83 58.42 100.95 58.42 101.07 57.17 101.19 55.91 101.31 55.91 101.44 55.91 101.56 55.91 101.68 55.91 101.8 57.17 101.92 57.17 102.04 55.91 102.16 55.91 102.28 58.42 102.4 58.42 102.53 58.42 102.65 58.42 102.77 58.42 102.89 57.17 103.01 58.42 103.13 55.91 103.25 59.68 103.37 55.91 103.5 57.17 103.62 58.42 103.74 58.42 103.86 59.68 103.98 59.68 104.1 59.68 104.22 60.93 104.34 57.17 104.46 57.17 104.59 59.68 104.71 60.93 104.83 58.42 104.95 59.68 105.07 58.42 105.19 58.42 105.31 58.42 105.43 59.68 105.56 59.68 105.68 59.68 105.8 59.68 105.92 62.18 106.04 58.42 106.16 58.42 106.28 58.42 106.4 59.68 106.52 59.68 106.65 60.93 106.77 59.68 106.89 59.68 107.01 59.68 107.13 59.68 107.25 59.68 107.37 59.68 107.49 58.42 107.62 59.68 107.74 58.42 107.86 59.68 107.98 59.68 108.1 58.42 108.22 59.68 108.34 60.93 108.46 59.68 108.58 62.18 108.71 60.93 108.83 59.68 108.95 60.93 109.07 59.68 109.19 59.68 109.31 59.68 109.43 58.42 109.55 59.68 109.68 59.68 109.8 59.68 109.92 59.68 110.04 62.18 110.16 62.18 110.28 60.93 110.4 59.68 110.52 59.68 110.64 60.93 110.77 59.68 110.89 60.93 111.01 60.93 111.13 60.93 111.25 60.93 111.37 62.18 111.49 62.18 111.61 62.18 111.74 62.18 111.86 60.93 111.98 59.68 112.1 59.68 112.22 60.93 112.34 59.68 112.46 60.93 112.58 60.93 112.7 59.68 112.83 60.93 112.95 59.68 113.07 60.93 113.19 59.68 113.31 62.18 113.43 60.93 113.55 60.93 113.67 62.18 113.8 59.68 113.92 59.68 114.04 59.68 114.16 62.18 114.28 60.93 114.4 63.44 114.52 63.44 114.64 62.18 114.76 60.93 114.89 62.18 115.01 60.93 115.13 60.93 115.25 59.68 115.37 59.68 115.49 59.68 115.61 59.68 115.73 60.93 115.86 60.93 115.98 62.18 116.1 62.18 116.22 63.44 116.34 62.18 116.46 62.18 116.58 62.18 116.7 62.18 116.83 62.18 116.95 62.18 117.07 62.18 117.19 63.44 117.31 62.18 117.43 62.18 117.55 60.93 117.67 63.44 117.79 63.44 117.92 62.18 118.04 59.68 118.16 60.93 118.28 62.18 118.4 59.68 118.52 62.18 118.64 62.18 118.76 62.18 118.89 60.93 119.01 59.68 119.13 60.93 119.25 60.93 119.37 63.44 119.49 63.44 119.61 63.44 119.73 64.69 119.85 63.44 119.98 62.18 120.1 63.44 120.22 63.44 120.34 63.44 120.46 63.44 120.58 62.18 120.7 63.44 120.82 62.18 120.95 60.93 121.07 62.18 121.19 60.93 121.31 63.44 121.43 60.93 121.55 63.44 121.67 62.18 121.79 63.44 121.91 60.93 122.04 62.18 122.16 60.93 122.28 63.44 122.4 63.44 122.52 63.44 122.64 63.44 122.76 62.18 122.88 62.18 123.01 60.93 123.13 62.18 123.25 60.93 123.37 60.93 123.49 62.18 123.61 62.18 123.73 62.18 123.85 63.44 123.97 63.44 124.1 62.18 124.22 63.44 124.34 63.44 124.46 63.44 124.58 63.44 124.7 63.44 124.82 63.44 124.94 62.18 125.07 63.44 125.19 64.69 125.31 64.69 125.43 63.44 125.55 62.18 125.67 62.18 125.79 62.18 125.91 62.18 126.03 63.44 126.16 62.18 126.28 62.18 126.4 62.18 126.52 62.18 126.64 62.18 126.76 63.44 126.88 62.18 127 63.44 127.13 62.18 127.25 60.93 127.37 63.44 127.49 59.68 127.61 59.68 127.73 59.68 127.85 60.93 127.97 60.93 128.09 60.93 128.22 59.68 128.34 60.93 128.46 62.18 128.58 60.93 128.7 62.18 128.82 64.69 128.94 63.44 129.06 60.93 129.19 63.44 129.31 64.69 129.43 63.44 129.55 63.44 129.67 63.44 129.79 64.69 129.91 64.69 130.03 62.18 130.15 62.18 130.28 62.18 130.4 62.18 130.52 63.44 130.64 64.69 130.76 63.44 130.88 63.44 131 63.44 131.12 62.18 131.25 63.44 131.37 62.18 131.49 62.18 131.61 63.44 131.73 62.18 131.85 60.93 131.97 60.93 132.09 62.18 132.21 60.93 132.34 62.18 132.46 63.44 132.58 62.18 132.7 60.93 132.82 62.18 132.94 60.93 133.06 60.93 133.18 62.18 133.31 62.18 133.43 63.44 133.55 63.44 133.67 63.44 133.79 63.44 133.91 60.93 134.03 60.93 134.15 60.93 134.28 63.44 134.4 63.44 134.52 63.44 134.64 60.93 134.76 62.18 134.88 62.18 135 63.44 135.12 62.18 135.24 62.18 135.37 63.44 135.49 63.44 135.61 62.18 135.73 62.18 135.85 62.18 135.97 63.44 136.09 63.44 136.21 62.18 136.34 62.18 136.46 60.93 136.58 62.18 136.7 63.44 136.82 64.69 136.94 63.44 137.06 62.18 137.18 63.44 137.3 62.18 137.43 63.44 137.55 62.18 137.67 62.18 137.79 63.44 137.91 63.44 138.03 62.18 138.15 62.18 138.27 65.95 138.4 64.69 138.52 63.44 138.64 63.44 138.76 63.44 138.88 63.44 139 63.44 139.12 63.44 139.24 63.44 139.36 63.44 139.49 63.44 139.61 63.44 139.73 62.18 139.85 62.18 139.97 60.93 140.09 60.93 140.21 59.68 140.33 60.93 140.46 60.93 140.58 62.18 140.7 62.18 140.82 62.18 140.94 62.18 141.06 60.93 141.18 60.93 141.3 59.68 141.42 60.93 141.55 59.68 141.67 59.68 141.79 58.42 141.91 57.17 142.03 54.66 142.15 57.17 142.27 58.42 142.39 58.42 142.52 58.42 142.64 59.68 142.76 59.68 142.88 62.18"/>
      </g>
    </g>
  </g>
</g>
  <g class="guide ylabels" font-size="2.82" font-family="'PT Sans Caption','Helvetica Neue','Helvetica',sans-serif" fill="#6C606B" id="img-83f6d32f-11">
    <text x="18.82" y="69.71" text-anchor="end" dy="0.35em">50</text>
    <text x="18.82" y="57.17" text-anchor="end" dy="0.35em">60</text>
    <text x="18.82" y="44.63" text-anchor="end" dy="0.35em">70</text>
    <text x="18.82" y="32.08" text-anchor="end" dy="0.35em">80</text>
    <text x="18.82" y="19.54" text-anchor="end" dy="0.35em">90</text>
    <text x="18.82" y="7" text-anchor="end" dy="0.35em">100</text>
  </g>
  <g font-size="3.88" font-family="'PT Sans','Helvetica Neue','Helvetica',sans-serif" fill="#564A55" stroke="#000000" stroke-opacity="0.000" id="img-83f6d32f-12">
    <text x="8.76" y="36.35" text-anchor="middle" dy="0.35em" transform="rotate(-90, 8.76, 38.35)">nSpecie</text>
  </g>
</g>
<defs>
  <clipPath id="img-83f6d32f-4">
  <path d="M19.82,5 L 145 5 145 71.71 19.82 71.71" />
</clipPath>
</defs>
</svg>
