<?xml version="1.0" encoding="UTF-8"?>
<svg xmlns="http://www.w3.org/2000/svg"
     xmlns:xlink="http://www.w3.org/1999/xlink"
     xmlns:gadfly="http://www.gadflyjl.org/ns"
     version="1.2"
     width="150mm" height="90mm" viewBox="0 0 150 90"
     stroke="none"
     fill="#000000"
     stroke-width="0.3"
     font-size="3.88"
>
<g class="plotroot xscalable yscalable" id="img-8c15d83e-1">
  <g font-size="3.88" font-family="'PT Sans','Helvetica Neue','Helvetica',sans-serif" fill="#564A55" stroke="#000000" stroke-opacity="0.000" id="img-8c15d83e-2">
    <text x="76.49" y="79.18" text-anchor="middle" dy="0.6em">time</text>
  </g>
  <g class="guide xlabels" font-size="2.82" font-family="'PT Sans Caption','Helvetica Neue','Helvetica',sans-serif" fill="#6C606B" id="img-8c15d83e-3">
    <text x="21.82" y="72.71" text-anchor="middle" dy="0.6em">0</text>
    <text x="76.49" y="72.71" text-anchor="middle" dy="0.6em">5.0×10³</text>
    <text x="131.15" y="72.71" text-anchor="middle" dy="0.6em">1.0×10⁴</text>
  </g>
  <g class="guide colorkey" id="img-8c15d83e-4">
    <g fill="#4C404B" font-size="2.82" font-family="'PT Sans','Helvetica Neue','Helvetica',sans-serif" id="img-8c15d83e-5">
      <text x="136.89" y="33.15" dy="0.35em" id="img-8c15d83e-6" class="color_0.025">0.025</text>
      <text x="136.89" y="36.62" dy="0.35em" id="img-8c15d83e-7" class="color_0.05">0.05</text>
      <text x="136.89" y="40.09" dy="0.35em" id="img-8c15d83e-8" class="color_0.075">0.075</text>
      <text x="136.89" y="43.56" dy="0.35em" id="img-8c15d83e-9" class="color_0.1">0.1</text>
      <text x="136.89" y="47.03" dy="0.35em" id="img-8c15d83e-10" class="color_0.25">0.25</text>
    </g>
    <g stroke="#000000" stroke-opacity="0.000" id="img-8c15d83e-11">
      <rect x="134.15" y="32.28" width="1.73" height="1.73" id="img-8c15d83e-12" class="color_0.025" fill="#00BFFF"/>
      <rect x="134.15" y="35.75" width="1.73" height="1.73" id="img-8c15d83e-13" class="color_0.05" fill="#D4CA3A"/>
      <rect x="134.15" y="39.22" width="1.73" height="1.73" id="img-8c15d83e-14" class="color_0.075" fill="#FF6DAE"/>
      <rect x="134.15" y="42.69" width="1.73" height="1.73" id="img-8c15d83e-15" class="color_0.1" fill="#00B78D"/>
      <rect x="134.15" y="46.16" width="1.73" height="1.73" id="img-8c15d83e-16" class="color_0.25" fill="#BEA9FF"/>
    </g>
    <g fill="#362A35" font-size="3.88" font-family="'PT Sans','Helvetica Neue','Helvetica',sans-serif" stroke="#000000" stroke-opacity="0.000" id="img-8c15d83e-17">
      <text x="134.15" y="28.74" id="img-8c15d83e-18">u</text>
    </g>
  </g>
<g clip-path="url(#img-8c15d83e-19)">
  <g id="img-8c15d83e-20">
    <g pointer-events="visible" opacity="1" fill="#000000" fill-opacity="0.000" stroke="#000000" stroke-opacity="0.000" class="guide background" id="img-8c15d83e-21">
      <rect x="19.82" y="5" width="113.33" height="66.71" id="img-8c15d83e-22"/>
    </g>
    <g class="guide ygridlines xfixed" stroke-dasharray="0.5,0.5" stroke-width="0.2" stroke="#D0D0E0" id="img-8c15d83e-23">
      <path fill="none" d="M19.82,69.71 L 133.15 69.71" id="img-8c15d83e-24"/>
      <path fill="none" d="M19.82,57.17 L 133.15 57.17" id="img-8c15d83e-25"/>
      <path fill="none" d="M19.82,44.62 L 133.15 44.62" id="img-8c15d83e-26"/>
      <path fill="none" d="M19.82,32.08 L 133.15 32.08" id="img-8c15d83e-27"/>
      <path fill="none" d="M19.82,19.54 L 133.15 19.54" id="img-8c15d83e-28"/>
      <path fill="none" d="M19.82,7 L 133.15 7" id="img-8c15d83e-29"/>
    </g>
    <g class="guide xgridlines yfixed" stroke-dasharray="0.5,0.5" stroke-width="0.2" stroke="#D0D0E0" id="img-8c15d83e-30">
      <path fill="none" d="M21.82,5 L 21.82 71.71" id="img-8c15d83e-31"/>
      <path fill="none" d="M76.49,5 L 76.49 71.71" id="img-8c15d83e-32"/>
      <path fill="none" d="M131.15,5 L 131.15 71.71" id="img-8c15d83e-33"/>
    </g>
    <g class="plotpanel" id="img-8c15d83e-34">
      <g stroke-width="0.3" fill="#000000" fill-opacity="0.000" stroke-dasharray="none" id="img-8c15d83e-35">
        <path fill="none" d="M21.82,7 L 21.93 14.53 22.04 20.8 22.15 25.81 22.26 27.07 22.37 28.32 22.48 28.32 22.58 29.58 22.69 29.58 22.8 30.83 22.91 29.58 23.02 29.58 23.13 29.58 23.24 29.58 23.35 29.58 23.46 29.58 23.57 29.58 23.68 32.08 23.79 30.83 23.9 29.58 24.01 29.58 24.12 29.58 24.22 29.58 24.33 30.83 24.44 28.32 24.55 28.32 24.66 29.58 24.77 28.32 24.88 25.81 24.99 27.07 25.1 27.07 25.21 28.32 25.32 27.07 25.43 28.32 25.54 29.58 25.65 28.32 25.76 28.32 25.86 29.58 25.97 29.58 26.08 30.83 26.19 29.58 26.3 30.83 26.41 30.83 26.52 30.83 26.63 30.83 26.74 30.83 26.85 29.58 26.96 29.58 27.07 29.58 27.18 30.83 27.29 29.58 27.4 29.58 27.5 30.83 27.61 29.58 27.72 29.58 27.83 29.58 27.94 30.83 28.05 29.58 28.16 30.83 28.27 29.58 28.38 29.58 28.49 29.58 28.6 29.58 28.71 30.83 28.82 30.83 28.93 30.83 29.04 30.83 29.14 32.08 29.25 32.08 29.36 33.34 29.47 32.08 29.58 30.83 29.69 29.58 29.8 33.34 29.91 34.59 30.02 33.34 30.13 34.59 30.24 33.34 30.35 33.34 30.46 34.59 30.57 33.34 30.68 33.34 30.78 33.34 30.89 33.34 31 33.34 31.11 33.34 31.22 35.85 31.33 35.85 31.44 34.59 31.55 35.85 31.66 37.1 31.77 37.1 31.88 35.85 31.99 35.85 32.1 34.59 32.21 32.08 32.32 33.34 32.42 35.85 32.53 35.85 32.64 35.85 32.75 33.34 32.86 34.59 32.97 37.1 33.08 34.59 33.19 34.59 33.3 35.85 33.41 35.85 33.52 33.34 33.63 33.34 33.74 33.34 33.85 32.08 33.96 32.08 34.06 32.08 34.17 34.59 34.28 33.34 34.39 32.08 34.5 34.59 34.61 34.59 34.72 35.85 34.83 34.59 34.94 35.85 35.05 35.85 35.16 33.34 35.27 33.34 35.38 33.34 35.49 33.34 35.6 35.85 35.7 35.85 35.81 34.59 35.92 35.85 36.03 37.1 36.14 35.85 36.25 35.85 36.36 35.85 36.47 35.85 36.58 35.85 36.69 37.1 36.8 37.1 36.91 34.59 37.02 34.59 37.13 37.1 37.24 35.85 37.34 35.85 37.45 37.1 37.56 37.1 37.67 35.85 37.78 37.1 37.89 37.1 38 38.35 38.11 39.61 38.22 38.35 38.33 38.35 38.44 38.35 38.55 39.61 38.66 39.61 38.77 38.35 38.88 39.61 38.98 39.61 39.09 40.86 39.2 40.86 39.31 40.86 39.42 39.61 39.53 40.86 39.64 40.86 39.75 38.35 39.86 40.86 39.97 39.61 40.08 40.86 40.19 39.61 40.3 39.61 40.41 39.61 40.52 39.61 40.62 40.86 40.73 40.86 40.84 42.12 40.95 42.12 41.06 42.12 41.17 42.12 41.28 40.86 41.39 39.61 41.5 39.61 41.61 40.86 41.72 39.61 41.83 40.86 41.94 42.12 42.05 42.12 42.16 40.86 42.26 43.37 42.37 44.62 42.48 44.62 42.59 44.62 42.7 43.37 42.81 43.37 42.92 45.88 43.03 43.37 43.14 43.37 43.25 43.37 43.36 42.12 43.47 40.86 43.58 40.86 43.69 40.86 43.8 40.86 43.9 40.86 44.01 39.61 44.12 40.86 44.23 40.86 44.34 39.61 44.45 40.86 44.56 42.12 44.67 42.12 44.78 43.37 44.89 42.12 45 43.37 45.11 42.12 45.22 42.12 45.33 40.86 45.44 40.86 45.54 40.86 45.65 42.12 45.76 42.12 45.87 42.12 45.98 40.86 46.09 40.86 46.2 42.12 46.31 42.12 46.42 42.12 46.53 40.86 46.64 40.86 46.75 40.86 46.86 42.12 46.97 42.12 47.08 40.86 47.18 42.12 47.29 42.12 47.4 42.12 47.51 43.37 47.62 45.88 47.73 45.88 47.84 44.62 47.95 43.37 48.06 44.62 48.17 44.62 48.28 44.62 48.39 45.88 48.5 45.88 48.61 44.62 48.72 45.88 48.82 44.62 48.93 44.62 49.04 44.62 49.15 44.62 49.26 44.62 49.37 43.37 49.48 43.37 49.59 43.37 49.7 45.88 49.81 44.62 49.92 45.88 50.03 47.13 50.14 47.13 50.25 47.13 50.36 45.88 50.46 44.62 50.57 44.62 50.68 44.62 50.79 44.62 50.9 44.62 51.01 44.62 51.12 43.37 51.23 44.62 51.34 44.62 51.45 43.37 51.56 43.37 51.67 44.62 51.78 43.37 51.89 43.37 52 43.37 52.1 44.62 52.21 43.37 52.32 43.37 52.43 43.37 52.54 43.37 52.65 43.37 52.76 43.37 52.87 43.37 52.98 44.62 53.09 43.37 53.2 43.37 53.31 44.62 53.42 43.37 53.53 44.62 53.64 44.62 53.74 44.62 53.85 43.37 53.96 43.37 54.07 45.88 54.18 43.37 54.29 45.88 54.4 44.62 54.51 44.62 54.62 44.62 54.73 44.62 54.84 43.37 54.95 44.62 55.06 45.88 55.17 45.88 55.28 44.62 55.38 44.62 55.49 45.88 55.6 47.13 55.71 47.13 55.82 45.88 55.93 44.62 56.04 43.37 56.15 44.62 56.26 45.88 56.37 45.88 56.48 47.13 56.59 45.88 56.7 47.13 56.81 48.39 56.91 48.39 57.02 48.39 57.13 48.39 57.24 48.39 57.35 45.88 57.46 48.39 57.57 47.13 57.68 44.62 57.79 45.88 57.9 47.13 58.01 45.88 58.12 45.88 58.23 45.88 58.34 45.88 58.45 48.39 58.55 49.64 58.66 48.39 58.77 47.13 58.88 47.13 58.99 45.88 59.1 47.13 59.21 47.13 59.32 45.88 59.43 45.88 59.54 45.88 59.65 45.88 59.76 47.13 59.87 47.13 59.98 47.13 60.09 47.13 60.19 47.13 60.3 48.39 60.41 48.39 60.52 49.64 60.63 48.39 60.74 45.88 60.85 45.88 60.96 45.88 61.07 47.13 61.18 43.37 61.29 44.62 61.4 45.88 61.51 44.62 61.62 44.62 61.73 47.13 61.83 45.88 61.94 45.88 62.05 45.88 62.16 47.13 62.27 47.13 62.38 45.88 62.49 47.13 62.6 45.88 62.71 45.88 62.82 45.88 62.93 45.88 63.04 47.13 63.15 45.88 63.26 45.88 63.37 45.88 63.47 44.62 63.58 44.62 63.69 43.37 63.8 42.12 63.91 42.12 64.02 43.37 64.13 43.37 64.24 43.37 64.35 42.12 64.46 43.37 64.57 42.12 64.68 42.12 64.79 44.62 64.9 45.88 65.01 47.13 65.11 47.13 65.22 45.88 65.33 45.88 65.44 48.39 65.55 48.39 65.66 48.39 65.77 47.13 65.88 47.13 65.99 47.13 66.1 48.39 66.21 48.39 66.32 48.39 66.43 47.13 66.54 47.13 66.65 48.39 66.75 47.13 66.86 48.39 66.97 47.13 67.08 47.13 67.19 45.88 67.3 45.88 67.41 48.39 67.52 47.13 67.63 45.88 67.74 47.13 67.85 47.13 67.96 45.88 68.07 47.13 68.18 49.64 68.29 48.39 68.39 47.13 68.5 44.62 68.61 47.13 68.72 48.39 68.83 49.64 68.94 50.9 69.05 49.64 69.16 49.64 69.27 48.39 69.38 49.64 69.49 49.64 69.6 48.39 69.71 49.64 69.82 49.64 69.93 48.39 70.03 48.39 70.14 49.64 70.25 49.64 70.36 48.39 70.47 49.64 70.58 50.9 70.69 47.13 70.8 47.13 70.91 48.39 71.02 48.39 71.13 47.13 71.24 47.13 71.35 47.13 71.46 48.39 71.57 47.13 71.67 48.39 71.78 47.13 71.89 47.13 72 47.13 72.11 48.39 72.22 48.39 72.33 47.13 72.44 48.39 72.55 48.39 72.66 48.39 72.77 47.13 72.88 45.88 72.99 44.62 73.1 45.88 73.21 45.88 73.31 44.62 73.42 45.88 73.53 44.62 73.64 45.88 73.75 45.88 73.86 45.88 73.97 47.13 74.08 47.13 74.19 47.13 74.3 50.9 74.41 49.64 74.52 48.39 74.63 48.39 74.74 48.39 74.85 47.13 74.95 45.88 75.06 45.88 75.17 47.13 75.28 45.88 75.39 47.13 75.5 45.88 75.61 45.88 75.72 47.13 75.83 45.88 75.94 45.88 76.05 45.88 76.16 47.13 76.27 48.39 76.38 48.39 76.49 48.39 76.59 45.88 76.7 47.13 76.81 47.13 76.92 45.88 77.03 47.13 77.14 47.13 77.25 47.13 77.36 48.39 77.47 49.64 77.58 47.13 77.69 47.13 77.8 45.88 77.91 47.13 78.02 49.64 78.13 48.39 78.23 49.64 78.34 48.39 78.45 48.39 78.56 49.64 78.67 49.64 78.78 49.64 78.89 48.39 79 47.13 79.11 45.88 79.22 47.13 79.33 47.13 79.44 44.62 79.55 45.88 79.66 45.88 79.77 48.39 79.87 48.39 79.98 47.13 80.09 47.13 80.2 48.39 80.31 47.13 80.42 47.13 80.53 48.39 80.64 49.64 80.75 49.64 80.86 48.39 80.97 49.64 81.08 48.39 81.19 49.64 81.3 48.39 81.41 49.64 81.51 48.39 81.62 49.64 81.73 49.64 81.84 49.64 81.95 48.39 82.06 49.64 82.17 49.64 82.28 50.9 82.39 50.9 82.5 49.64 82.61 48.39 82.72 48.39 82.83 49.64 82.94 48.39 83.05 48.39 83.15 48.39 83.26 48.39 83.37 47.13 83.48 47.13 83.59 48.39 83.7 48.39 83.81 48.39 83.92 47.13 84.03 48.39 84.14 49.64 84.25 49.64 84.36 48.39 84.47 48.39 84.58 49.64 84.69 48.39 84.79 48.39 84.9 47.13 85.01 47.13 85.12 48.39 85.23 47.13 85.34 47.13 85.45 45.88 85.56 47.13 85.67 47.13 85.78 49.64 85.89 48.39 86 48.39 86.11 49.64 86.22 48.39 86.33 48.39 86.43 49.64 86.54 48.39 86.65 48.39 86.76 47.13 86.87 47.13 86.98 48.39 87.09 48.39 87.2 48.39 87.31 48.39 87.42 47.13 87.53 48.39 87.64 47.13 87.75 48.39 87.86 47.13 87.97 49.64 88.07 47.13 88.18 47.13 88.29 49.64 88.4 49.64 88.51 49.64 88.62 48.39 88.73 47.13 88.84 48.39 88.95 48.39 89.06 49.64 89.17 47.13 89.28 48.39 89.39 48.39 89.5 49.64 89.61 49.64 89.71 49.64 89.82 49.64 89.93 49.64 90.04 48.39 90.15 48.39 90.26 48.39 90.37 48.39 90.48 48.39 90.59 48.39 90.7 47.13 90.81 47.13 90.92 45.88 91.03 45.88 91.14 45.88 91.25 45.88 91.35 47.13 91.46 48.39 91.57 48.39 91.68 48.39 91.79 49.64 91.9 50.9 92.01 49.64 92.12 48.39 92.23 48.39 92.34 48.39 92.45 49.64 92.56 49.64 92.67 48.39 92.78 48.39 92.89 48.39 92.99 48.39 93.1 48.39 93.21 47.13 93.32 48.39 93.43 47.13 93.54 48.39 93.65 48.39 93.76 48.39 93.87 47.13 93.98 47.13 94.09 47.13 94.2 49.64 94.31 49.64 94.42 48.39 94.53 48.39 94.63 47.13 94.74 49.64 94.85 49.64 94.96 48.39 95.07 49.64 95.18 49.64 95.29 49.64 95.4 48.39 95.51 48.39 95.62 48.39 95.73 48.39 95.84 47.13 95.95 49.64 96.06 49.64 96.17 49.64 96.27 48.39 96.38 49.64 96.49 49.64 96.6 52.15 96.71 50.9 96.82 49.64 96.93 49.64 97.04 48.39 97.15 48.39 97.26 48.39 97.37 50.9 97.48 48.39 97.59 49.64 97.7 48.39 97.81 48.39 97.91 48.39 98.02 48.39 98.13 49.64 98.24 48.39 98.35 48.39 98.46 49.64 98.57 50.9 98.68 48.39 98.79 47.13 98.9 49.64 99.01 50.9 99.12 49.64 99.23 52.15 99.34 52.15 99.45 53.4 99.55 52.15 99.66 50.9 99.77 50.9 99.88 50.9 99.99 48.39 100.1 50.9 100.21 52.15 100.32 52.15 100.43 52.15 100.54 49.64 100.65 48.39 100.76 52.15 100.87 50.9 100.98 52.15 101.09 50.9 101.19 52.15 101.3 53.4 101.41 53.4 101.52 52.15 101.63 52.15 101.74 50.9 101.85 50.9 101.96 49.64 102.07 52.15 102.18 52.15 102.29 52.15 102.4 50.9 102.51 50.9 102.62 53.4 102.73 53.4 102.83 53.4 102.94 53.4 103.05 52.15 103.16 52.15 103.27 50.9 103.38 53.4 103.49 52.15 103.6 50.9 103.71 50.9 103.82 50.9 103.93 52.15 104.04 49.64 104.15 49.64 104.26 49.64 104.37 49.64 104.47 48.39 104.58 49.64 104.69 50.9 104.8 50.9 104.91 48.39 105.02 50.9 105.13 52.15 105.24 48.39 105.35 48.39 105.46 49.64 105.57 48.39 105.68 49.64 105.79 48.39 105.9 48.39 106.01 47.13 106.11 48.39 106.22 49.64 106.33 52.15 106.44 50.9 106.55 49.64 106.66 49.64 106.77 49.64 106.88 48.39 106.99 48.39 107.1 49.64 107.21 49.64 107.32 49.64 107.43 49.64 107.54 49.64 107.65 49.64 107.75 50.9 107.86 48.39 107.97 48.39 108.08 49.64 108.19 49.64 108.3 49.64 108.41 48.39 108.52 48.39 108.63 48.39 108.74 47.13 108.85 48.39 108.96 49.64 109.07 49.64 109.18 50.9 109.28 50.9 109.39 50.9 109.5 52.15 109.61 52.15 109.72 53.4 109.83 52.15 109.94 52.15 110.05 52.15 110.16 52.15 110.27 49.64 110.38 50.9 110.49 50.9 110.6 52.15 110.71 50.9 110.82 50.9 110.92 52.15 111.03 53.4 111.14 52.15 111.25 52.15 111.36 52.15 111.47 50.9 111.58 52.15 111.69 50.9 111.8 52.15 111.91 53.4 112.02 50.9 112.13 52.15 112.24 49.64 112.35 49.64 112.46 52.15 112.56 53.4 112.67 52.15 112.78 50.9 112.89 49.64 113 48.39 113.11 47.13 113.22 48.39 113.33 47.13 113.44 49.64 113.55 49.64 113.66 49.64 113.77 48.39 113.88 49.64 113.99 50.9 114.1 49.64 114.2 48.39 114.31 48.39 114.42 48.39 114.53 49.64 114.64 50.9 114.75 49.64 114.86 50.9 114.97 49.64 115.08 50.9 115.19 50.9 115.3 50.9 115.41 50.9 115.52 50.9 115.63 50.9 115.74 50.9 115.84 50.9 115.95 50.9 116.06 52.15 116.17 50.9 116.28 50.9 116.39 50.9 116.5 50.9 116.61 50.9 116.72 52.15 116.83 53.4 116.94 52.15 117.05 52.15 117.16 52.15 117.27 50.9 117.38 53.4 117.48 52.15 117.59 52.15 117.7 50.9 117.81 52.15 117.92 50.9 118.03 50.9 118.14 53.4 118.25 53.4 118.36 52.15 118.47 52.15 118.58 49.64 118.69 50.9 118.8 50.9 118.91 50.9 119.02 50.9 119.12 49.64 119.23 53.4 119.34 50.9 119.45 49.64 119.56 49.64 119.67 49.64 119.78 50.9 119.89 50.9 120 52.15 120.11 52.15 120.22 53.4 120.33 52.15 120.44 52.15 120.55 52.15 120.66 52.15 120.76 52.15 120.87 53.4 120.98 53.4 121.09 52.15 121.2 53.4 121.31 54.66 121.42 54.66 121.53 55.91 121.64 54.66 121.75 53.4 121.86 54.66 121.97 54.66 122.08 53.4 122.19 53.4 122.3 54.66 122.4 53.4 122.51 53.4 122.62 53.4 122.73 50.9 122.84 53.4 122.95 52.15 123.06 52.15 123.17 49.64 123.28 50.9 123.39 53.4 123.5 53.4 123.61 50.9 123.72 50.9 123.83 52.15 123.94 52.15 124.04 52.15 124.15 52.15 124.26 52.15 124.37 53.4 124.48 52.15 124.59 52.15 124.7 53.4 124.81 50.9 124.92 53.4 125.03 53.4 125.14 53.4 125.25 52.15 125.36 53.4 125.47 52.15 125.58 53.4 125.68 52.15 125.79 50.9 125.9 50.9 126.01 50.9 126.12 50.9 126.23 50.9 126.34 49.64 126.45 50.9 126.56 52.15 126.67 52.15 126.78 52.15 126.89 53.4 127 53.4 127.11 53.4 127.22 53.4 127.32 53.4 127.43 53.4 127.54 53.4 127.65 53.4 127.76 53.4 127.87 55.91 127.98 54.66 128.09 55.91 128.2 55.91 128.31 55.91 128.42 54.66 128.53 55.91 128.64 57.17 128.75 57.17 128.86 53.4 128.96 53.4 129.07 55.91 129.18 55.91 129.29 55.91 129.4 54.66 129.51 54.66 129.62 55.91 129.73 55.91 129.84 55.91 129.95 54.66 130.06 53.4 130.17 54.66 130.28 54.66 130.39 54.66 130.5 54.66 130.6 55.91 130.71 53.4 130.82 53.4 130.93 52.15 131.04 52.15" id="img-8c15d83e-36" stroke="#00B78D" class="geometry color_0.1"/>
        <path fill="none" d="M21.82,7 L 21.93 13.27 22.04 18.29 22.15 23.3 22.26 25.81 22.37 24.56 22.48 25.81 22.58 24.56 22.69 25.81 22.8 27.07 22.91 27.07 23.02 28.32 23.13 27.07 23.24 28.32 23.35 27.07 23.46 25.81 23.57 27.07 23.68 27.07 23.79 27.07 23.9 27.07 24.01 25.81 24.12 24.56 24.22 25.81 24.33 25.81 24.44 23.3 24.55 24.56 24.66 23.3 24.77 24.56 24.88 24.56 24.99 25.81 25.1 24.56 25.21 24.56 25.32 25.81 25.43 23.3 25.54 24.56 25.65 24.56 25.76 23.3 25.86 22.05 25.97 24.56 26.08 25.81 26.19 25.81 26.3 25.81 26.41 25.81 26.52 25.81 26.63 27.07 26.74 27.07 26.85 27.07 26.96 28.32 27.07 29.58 27.18 28.32 27.29 28.32 27.4 28.32 27.5 30.83 27.61 29.58 27.72 29.58 27.83 28.32 27.94 29.58 28.05 29.58 28.16 29.58 28.27 28.32 28.38 28.32 28.49 27.07 28.6 28.32 28.71 29.58 28.82 28.32 28.93 29.58 29.04 28.32 29.14 28.32 29.25 29.58 29.36 29.58 29.47 28.32 29.58 30.83 29.69 29.58 29.8 30.83 29.91 29.58 30.02 28.32 30.13 29.58 30.24 28.32 30.35 29.58 30.46 29.58 30.57 30.83 30.68 30.83 30.78 30.83 30.89 32.08 31 32.08 31.11 30.83 31.22 33.34 31.33 32.08 31.44 32.08 31.55 32.08 31.66 32.08 31.77 30.83 31.88 32.08 31.99 32.08 32.1 32.08 32.21 33.34 32.32 33.34 32.42 33.34 32.53 35.85 32.64 33.34 32.75 34.59 32.86 34.59 32.97 34.59 33.08 33.34 33.19 32.08 33.3 32.08 33.41 30.83 33.52 32.08 33.63 33.34 33.74 34.59 33.85 34.59 33.96 34.59 34.06 35.85 34.17 35.85 34.28 34.59 34.39 33.34 34.5 34.59 34.61 33.34 34.72 33.34 34.83 35.85 34.94 35.85 35.05 34.59 35.16 34.59 35.27 35.85 35.38 35.85 35.49 37.1 35.6 38.35 35.7 38.35 35.81 37.1 35.92 38.35 36.03 38.35 36.14 35.85 36.25 37.1 36.36 37.1 36.47 34.59 36.58 34.59 36.69 34.59 36.8 34.59 36.91 33.34 37.02 33.34 37.13 33.34 37.24 34.59 37.34 34.59 37.45 34.59 37.56 34.59 37.67 34.59 37.78 35.85 37.89 35.85 38 34.59 38.11 34.59 38.22 37.1 38.33 37.1 38.44 35.85 38.55 37.1 38.66 35.85 38.77 33.34 38.88 34.59 38.98 33.34 39.09 33.34 39.2 33.34 39.31 33.34 39.42 34.59 39.53 35.85 39.64 38.35 39.75 38.35 39.86 38.35 39.97 38.35 40.08 38.35 40.19 37.1 40.3 37.1 40.41 37.1 40.52 37.1 40.62 38.35 40.73 39.61 40.84 38.35 40.95 37.1 41.06 38.35 41.17 40.86 41.28 39.61 41.39 38.35 41.5 38.35 41.61 38.35 41.72 38.35 41.83 38.35 41.94 39.61 42.05 39.61 42.16 39.61 42.26 39.61 42.37 39.61 42.48 38.35 42.59 37.1 42.7 37.1 42.81 39.61 42.92 39.61 43.03 40.86 43.14 40.86 43.25 40.86 43.36 42.12 43.47 42.12 43.58 40.86 43.69 40.86 43.8 39.61 43.9 39.61 44.01 39.61 44.12 40.86 44.23 42.12 44.34 42.12 44.45 40.86 44.56 39.61 44.67 40.86 44.78 39.61 44.89 39.61 45 39.61 45.11 39.61 45.22 35.85 45.33 38.35 45.44 38.35 45.54 37.1 45.65 38.35 45.76 39.61 45.87 37.1 45.98 37.1 46.09 39.61 46.2 38.35 46.31 37.1 46.42 37.1 46.53 39.61 46.64 38.35 46.75 37.1 46.86 38.35 46.97 37.1 47.08 38.35 47.18 38.35 47.29 39.61 47.4 38.35 47.51 38.35 47.62 39.61 47.73 39.61 47.84 39.61 47.95 39.61 48.06 42.12 48.17 40.86 48.28 40.86 48.39 40.86 48.5 39.61 48.61 39.61 48.72 39.61 48.82 39.61 48.93 39.61 49.04 40.86 49.15 40.86 49.26 40.86 49.37 40.86 49.48 43.37 49.59 42.12 49.7 42.12 49.81 40.86 49.92 42.12 50.03 43.37 50.14 42.12 50.25 42.12 50.36 42.12 50.46 40.86 50.57 42.12 50.68 43.37 50.79 43.37 50.9 43.37 51.01 43.37 51.12 44.62 51.23 44.62 51.34 43.37 51.45 43.37 51.56 43.37 51.67 43.37 51.78 42.12 51.89 42.12 52 42.12 52.1 42.12 52.21 42.12 52.32 42.12 52.43 42.12 52.54 40.86 52.65 40.86 52.76 40.86 52.87 43.37 52.98 42.12 53.09 42.12 53.2 43.37 53.31 42.12 53.42 43.37 53.53 43.37 53.64 42.12 53.74 43.37 53.85 42.12 53.96 42.12 54.07 42.12 54.18 40.86 54.29 42.12 54.4 43.37 54.51 44.62 54.62 43.37 54.73 43.37 54.84 42.12 54.95 42.12 55.06 40.86 55.17 39.61 55.28 39.61 55.38 40.86 55.49 42.12 55.6 42.12 55.71 42.12 55.82 42.12 55.93 40.86 56.04 40.86 56.15 42.12 56.26 42.12 56.37 40.86 56.48 42.12 56.59 42.12 56.7 42.12 56.81 43.37 56.91 43.37 57.02 43.37 57.13 42.12 57.24 43.37 57.35 42.12 57.46 42.12 57.57 43.37 57.68 44.62 57.79 43.37 57.9 44.62 58.01 44.62 58.12 43.37 58.23 44.62 58.34 42.12 58.45 42.12 58.55 43.37 58.66 43.37 58.77 43.37 58.88 44.62 58.99 43.37 59.1 43.37 59.21 42.12 59.32 43.37 59.43 45.88 59.54 43.37 59.65 42.12 59.76 43.37 59.87 44.62 59.98 45.88 60.09 45.88 60.19 44.62 60.3 44.62 60.41 45.88 60.52 44.62 60.63 43.37 60.74 44.62 60.85 43.37 60.96 44.62 61.07 44.62 61.18 45.88 61.29 44.62 61.4 44.62 61.51 44.62 61.62 45.88 61.73 43.37 61.83 44.62 61.94 44.62 62.05 44.62 62.16 45.88 62.27 44.62 62.38 45.88 62.49 45.88 62.6 45.88 62.71 45.88 62.82 44.62 62.93 43.37 63.04 44.62 63.15 45.88 63.26 44.62 63.37 44.62 63.47 44.62 63.58 44.62 63.69 44.62 63.8 42.12 63.91 42.12 64.02 43.37 64.13 43.37 64.24 44.62 64.35 42.12 64.46 43.37 64.57 43.37 64.68 42.12 64.79 39.61 64.9 38.35 65.01 40.86 65.11 38.35 65.22 39.61 65.33 39.61 65.44 39.61 65.55 40.86 65.66 40.86 65.77 40.86 65.88 42.12 65.99 42.12 66.1 40.86 66.21 42.12 66.32 42.12 66.43 42.12 66.54 42.12 66.65 40.86 66.75 40.86 66.86 42.12 66.97 42.12 67.08 40.86 67.19 43.37 67.3 40.86 67.41 43.37 67.52 42.12 67.63 40.86 67.74 40.86 67.85 40.86 67.96 39.61 68.07 39.61 68.18 39.61 68.29 42.12 68.39 40.86 68.5 42.12 68.61 44.62 68.72 43.37 68.83 43.37 68.94 43.37 69.05 42.12 69.16 43.37 69.27 43.37 69.38 42.12 69.49 44.62 69.6 45.88 69.71 45.88 69.82 45.88 69.93 44.62 70.03 42.12 70.14 43.37 70.25 44.62 70.36 42.12 70.47 43.37 70.58 43.37 70.69 43.37 70.8 40.86 70.91 43.37 71.02 43.37 71.13 43.37 71.24 44.62 71.35 45.88 71.46 44.62 71.57 44.62 71.67 44.62 71.78 44.62 71.89 45.88 72 45.88 72.11 43.37 72.22 43.37 72.33 43.37 72.44 44.62 72.55 45.88 72.66 44.62 72.77 47.13 72.88 45.88 72.99 48.39 73.1 47.13 73.21 47.13 73.31 45.88 73.42 45.88 73.53 44.62 73.64 44.62 73.75 45.88 73.86 45.88 73.97 47.13 74.08 47.13 74.19 47.13 74.3 47.13 74.41 47.13 74.52 48.39 74.63 45.88 74.74 44.62 74.85 45.88 74.95 44.62 75.06 45.88 75.17 44.62 75.28 44.62 75.39 45.88 75.5 47.13 75.61 45.88 75.72 45.88 75.83 44.62 75.94 44.62 76.05 44.62 76.16 43.37 76.27 45.88 76.38 47.13 76.49 45.88 76.59 47.13 76.7 47.13 76.81 44.62 76.92 44.62 77.03 43.37 77.14 43.37 77.25 42.12 77.36 45.88 77.47 44.62 77.58 45.88 77.69 47.13 77.8 45.88 77.91 45.88 78.02 44.62 78.13 45.88 78.23 44.62 78.34 45.88 78.45 47.13 78.56 45.88 78.67 45.88 78.78 47.13 78.89 47.13 79 45.88 79.11 47.13 79.22 45.88 79.33 47.13 79.44 47.13 79.55 45.88 79.66 47.13 79.77 47.13 79.87 44.62 79.98 43.37 80.09 44.62 80.2 45.88 80.31 45.88 80.42 45.88 80.53 45.88 80.64 44.62 80.75 43.37 80.86 44.62 80.97 45.88 81.08 45.88 81.19 45.88 81.3 45.88 81.41 44.62 81.51 45.88 81.62 47.13 81.73 45.88 81.84 45.88 81.95 43.37 82.06 44.62 82.17 47.13 82.28 47.13 82.39 44.62 82.5 45.88 82.61 47.13 82.72 47.13 82.83 45.88 82.94 47.13 83.05 48.39 83.15 47.13 83.26 47.13 83.37 44.62 83.48 44.62 83.59 44.62 83.7 44.62 83.81 45.88 83.92 44.62 84.03 43.37 84.14 43.37 84.25 47.13 84.36 45.88 84.47 45.88 84.58 47.13 84.69 47.13 84.79 47.13 84.9 47.13 85.01 47.13 85.12 43.37 85.23 43.37 85.34 43.37 85.45 44.62 85.56 44.62 85.67 44.62 85.78 44.62 85.89 45.88 86 47.13 86.11 47.13 86.22 44.62 86.33 45.88 86.43 47.13 86.54 48.39 86.65 47.13 86.76 47.13 86.87 45.88 86.98 45.88 87.09 47.13 87.2 45.88 87.31 45.88 87.42 45.88 87.53 45.88 87.64 44.62 87.75 43.37 87.86 42.12 87.97 43.37 88.07 44.62 88.18 44.62 88.29 44.62 88.4 43.37 88.51 44.62 88.62 43.37 88.73 42.12 88.84 43.37 88.95 45.88 89.06 45.88 89.17 44.62 89.28 45.88 89.39 45.88 89.5 45.88 89.61 47.13 89.71 47.13 89.82 47.13 89.93 44.62 90.04 47.13 90.15 47.13 90.26 45.88 90.37 45.88 90.48 47.13 90.59 48.39 90.7 47.13 90.81 47.13 90.92 45.88 91.03 45.88 91.14 48.39 91.25 48.39 91.35 49.64 91.46 47.13 91.57 47.13 91.68 45.88 91.79 45.88 91.9 47.13 92.01 44.62 92.12 45.88 92.23 45.88 92.34 45.88 92.45 47.13 92.56 49.64 92.67 49.64 92.78 49.64 92.89 49.64 92.99 48.39 93.1 48.39 93.21 48.39 93.32 47.13 93.43 45.88 93.54 47.13 93.65 45.88 93.76 45.88 93.87 47.13 93.98 47.13 94.09 47.13 94.2 47.13 94.31 47.13 94.42 45.88 94.53 45.88 94.63 47.13 94.74 48.39 94.85 47.13 94.96 47.13 95.07 45.88 95.18 45.88 95.29 47.13 95.4 47.13 95.51 47.13 95.62 45.88 95.73 45.88 95.84 47.13 95.95 47.13 96.06 45.88 96.17 45.88 96.27 45.88 96.38 45.88 96.49 45.88 96.6 47.13 96.71 45.88 96.82 45.88 96.93 45.88 97.04 47.13 97.15 45.88 97.26 45.88 97.37 45.88 97.48 44.62 97.59 45.88 97.7 45.88 97.81 45.88 97.91 47.13 98.02 45.88 98.13 44.62 98.24 44.62 98.35 45.88 98.46 45.88 98.57 45.88 98.68 47.13 98.79 47.13 98.9 45.88 99.01 45.88 99.12 44.62 99.23 45.88 99.34 45.88 99.45 47.13 99.55 47.13 99.66 45.88 99.77 45.88 99.88 44.62 99.99 45.88 100.1 47.13 100.21 44.62 100.32 45.88 100.43 45.88 100.54 47.13 100.65 47.13 100.76 45.88 100.87 47.13 100.98 47.13 101.09 45.88 101.19 45.88 101.3 47.13 101.41 45.88 101.52 45.88 101.63 45.88 101.74 44.62 101.85 45.88 101.96 45.88 102.07 43.37 102.18 45.88 102.29 48.39 102.4 47.13 102.51 49.64 102.62 49.64 102.73 48.39 102.83 48.39 102.94 48.39 103.05 48.39 103.16 47.13 103.27 47.13 103.38 47.13 103.49 45.88 103.6 47.13 103.71 49.64 103.82 48.39 103.93 45.88 104.04 47.13 104.15 48.39 104.26 45.88 104.37 44.62 104.47 47.13 104.58 45.88 104.69 44.62 104.8 45.88 104.91 45.88 105.02 47.13 105.13 47.13 105.24 47.13 105.35 47.13 105.46 48.39 105.57 48.39 105.68 49.64 105.79 50.9 105.9 45.88 106.01 45.88 106.11 43.37 106.22 44.62 106.33 44.62 106.44 45.88 106.55 45.88 106.66 45.88 106.77 47.13 106.88 45.88 106.99 45.88 107.1 47.13 107.21 45.88 107.32 47.13 107.43 47.13 107.54 45.88 107.65 47.13 107.75 48.39 107.86 47.13 107.97 48.39 108.08 47.13 108.19 47.13 108.3 48.39 108.41 48.39 108.52 47.13 108.63 47.13 108.74 45.88 108.85 44.62 108.96 44.62 109.07 45.88 109.18 47.13 109.28 47.13 109.39 48.39 109.5 49.64 109.61 48.39 109.72 49.64 109.83 48.39 109.94 48.39 110.05 47.13 110.16 47.13 110.27 47.13 110.38 48.39 110.49 45.88 110.6 47.13 110.71 48.39 110.82 47.13 110.92 47.13 111.03 45.88 111.14 45.88 111.25 48.39 111.36 49.64 111.47 47.13 111.58 48.39 111.69 49.64 111.8 50.9 111.91 50.9 112.02 49.64 112.13 49.64 112.24 48.39 112.35 49.64 112.46 49.64 112.56 50.9 112.67 50.9 112.78 48.39 112.89 47.13 113 48.39 113.11 47.13 113.22 47.13 113.33 47.13 113.44 45.88 113.55 47.13 113.66 47.13 113.77 49.64 113.88 49.64 113.99 48.39 114.1 49.64 114.2 49.64 114.31 48.39 114.42 48.39 114.53 48.39 114.64 48.39 114.75 48.39 114.86 48.39 114.97 49.64 115.08 49.64 115.19 48.39 115.3 49.64 115.41 48.39 115.52 48.39 115.63 47.13 115.74 47.13 115.84 47.13 115.95 47.13 116.06 48.39 116.17 48.39 116.28 49.64 116.39 49.64 116.5 49.64 116.61 49.64 116.72 50.9 116.83 49.64 116.94 49.64 117.05 49.64 117.16 49.64 117.27 49.64 117.38 48.39 117.48 49.64 117.59 49.64 117.7 49.64 117.81 49.64 117.92 49.64 118.03 49.64 118.14 48.39 118.25 48.39 118.36 47.13 118.47 48.39 118.58 47.13 118.69 48.39 118.8 47.13 118.91 48.39 119.02 49.64 119.12 48.39 119.23 50.9 119.34 49.64 119.45 49.64 119.56 49.64 119.67 49.64 119.78 49.64 119.89 49.64 120 49.64 120.11 49.64 120.22 52.15 120.33 50.9 120.44 49.64 120.55 49.64 120.66 48.39 120.76 48.39 120.87 48.39 120.98 49.64 121.09 49.64 121.2 50.9 121.31 49.64 121.42 49.64 121.53 50.9 121.64 49.64 121.75 49.64 121.86 48.39 121.97 48.39 122.08 50.9 122.19 52.15 122.3 50.9 122.4 49.64 122.51 49.64 122.62 49.64 122.73 49.64 122.84 49.64 122.95 49.64 123.06 48.39 123.17 47.13 123.28 48.39 123.39 48.39 123.5 48.39 123.61 50.9 123.72 48.39 123.83 48.39 123.94 48.39 124.04 48.39 124.15 49.64 124.26 47.13 124.37 48.39 124.48 47.13 124.59 47.13 124.7 48.39 124.81 48.39 124.92 47.13 125.03 48.39 125.14 47.13 125.25 47.13 125.36 48.39 125.47 48.39 125.58 47.13 125.68 47.13 125.79 48.39 125.9 47.13 126.01 48.39 126.12 49.64 126.23 47.13 126.34 48.39 126.45 48.39 126.56 48.39 126.67 47.13 126.78 48.39 126.89 48.39 127 48.39 127.11 48.39 127.22 48.39 127.32 48.39 127.43 45.88 127.54 45.88 127.65 49.64 127.76 48.39 127.87 47.13 127.98 47.13 128.09 45.88 128.2 48.39 128.31 45.88 128.42 49.64 128.53 48.39 128.64 49.64 128.75 49.64 128.86 49.64 128.96 50.9 129.07 50.9 129.18 50.9 129.29 49.64 129.4 50.9 129.51 48.39 129.62 48.39 129.73 48.39 129.84 47.13 129.95 48.39 130.06 49.64 130.17 48.39 130.28 47.13 130.39 48.39 130.5 49.64 130.6 48.39 130.71 48.39 130.82 48.39 130.93 49.64 131.04 48.39" id="img-8c15d83e-37" stroke="#00BFFF" class="geometry color_0.025"/>
        <path fill="none" d="M21.82,7 L 21.93 17.03 22.04 24.56 22.15 28.32 22.26 33.34 22.37 33.34 22.48 33.34 22.58 34.59 22.69 35.85 22.8 37.1 22.91 33.34 23.02 34.59 23.13 34.59 23.24 33.34 23.35 33.34 23.46 33.34 23.57 33.34 23.68 33.34 23.79 33.34 23.9 32.08 24.01 33.34 24.12 33.34 24.22 34.59 24.33 35.85 24.44 35.85 24.55 35.85 24.66 35.85 24.77 35.85 24.88 34.59 24.99 34.59 25.1 37.1 25.21 37.1 25.32 37.1 25.43 35.85 25.54 35.85 25.65 34.59 25.76 35.85 25.86 34.59 25.97 34.59 26.08 35.85 26.19 35.85 26.3 34.59 26.41 34.59 26.52 34.59 26.63 34.59 26.74 34.59 26.85 34.59 26.96 35.85 27.07 37.1 27.18 38.35 27.29 38.35 27.4 35.85 27.5 37.1 27.61 37.1 27.72 35.85 27.83 35.85 27.94 37.1 28.05 38.35 28.16 37.1 28.27 37.1 28.38 35.85 28.49 37.1 28.6 35.85 28.71 34.59 28.82 33.34 28.93 35.85 29.04 37.1 29.14 38.35 29.25 37.1 29.36 37.1 29.47 35.85 29.58 35.85 29.69 37.1 29.8 38.35 29.91 37.1 30.02 40.86 30.13 40.86 30.24 40.86 30.35 42.12 30.46 40.86 30.57 42.12 30.68 42.12 30.78 40.86 30.89 40.86 31 40.86 31.11 43.37 31.22 42.12 31.33 43.37 31.44 43.37 31.55 42.12 31.66 40.86 31.77 40.86 31.88 40.86 31.99 40.86 32.1 42.12 32.21 42.12 32.32 39.61 32.42 40.86 32.53 42.12 32.64 40.86 32.75 40.86 32.86 39.61 32.97 40.86 33.08 40.86 33.19 40.86 33.3 42.12 33.41 42.12 33.52 42.12 33.63 40.86 33.74 40.86 33.85 40.86 33.96 40.86 34.06 40.86 34.17 40.86 34.28 39.61 34.39 42.12 34.5 40.86 34.61 42.12 34.72 42.12 34.83 42.12 34.94 43.37 35.05 44.62 35.16 43.37 35.27 43.37 35.38 42.12 35.49 43.37 35.6 42.12 35.7 40.86 35.81 42.12 35.92 42.12 36.03 42.12 36.14 42.12 36.25 42.12 36.36 42.12 36.47 42.12 36.58 43.37 36.69 42.12 36.8 42.12 36.91 42.12 37.02 42.12 37.13 43.37 37.24 42.12 37.34 44.62 37.45 44.62 37.56 43.37 37.67 43.37 37.78 43.37 37.89 42.12 38 42.12 38.11 43.37 38.22 43.37 38.33 44.62 38.44 44.62 38.55 44.62 38.66 45.88 38.77 44.62 38.88 45.88 38.98 44.62 39.09 44.62 39.2 44.62 39.31 45.88 39.42 44.62 39.53 44.62 39.64 44.62 39.75 45.88 39.86 44.62 39.97 43.37 40.08 44.62 40.19 43.37 40.3 42.12 40.41 44.62 40.52 44.62 40.62 45.88 40.73 47.13 40.84 45.88 40.95 48.39 41.06 47.13 41.17 45.88 41.28 45.88 41.39 47.13 41.5 45.88 41.61 47.13 41.72 47.13 41.83 48.39 41.94 47.13 42.05 48.39 42.16 47.13 42.26 48.39 42.37 47.13 42.48 47.13 42.59 47.13 42.7 47.13 42.81 47.13 42.92 45.88 43.03 44.62 43.14 44.62 43.25 45.88 43.36 48.39 43.47 45.88 43.58 44.62 43.69 45.88 43.8 47.13 43.9 45.88 44.01 48.39 44.12 48.39 44.23 48.39 44.34 47.13 44.45 47.13 44.56 45.88 44.67 47.13 44.78 47.13 44.89 48.39 45 48.39 45.11 47.13 45.22 48.39 45.33 47.13 45.44 47.13 45.54 47.13 45.65 47.13 45.76 48.39 45.87 48.39 45.98 48.39 46.09 47.13 46.2 45.88 46.31 48.39 46.42 49.64 46.53 47.13 46.64 47.13 46.75 47.13 46.86 47.13 46.97 49.64 47.08 49.64 47.18 49.64 47.29 49.64 47.4 49.64 47.51 49.64 47.62 49.64 47.73 50.9 47.84 49.64 47.95 49.64 48.06 49.64 48.17 50.9 48.28 49.64 48.39 50.9 48.5 49.64 48.61 50.9 48.72 49.64 48.82 50.9 48.93 49.64 49.04 50.9 49.15 52.15 49.26 49.64 49.37 49.64 49.48 50.9 49.59 52.15 49.7 49.64 49.81 47.13 49.92 49.64 50.03 48.39 50.14 48.39 50.25 48.39 50.36 48.39 50.46 50.9 50.57 50.9 50.68 50.9 50.79 49.64 50.9 49.64 51.01 50.9 51.12 49.64 51.23 49.64 51.34 50.9 51.45 52.15 51.56 52.15 51.67 52.15 51.78 50.9 51.89 49.64 52 49.64 52.1 49.64 52.21 49.64 52.32 49.64 52.43 48.39 52.54 48.39 52.65 48.39 52.76 49.64 52.87 49.64 52.98 49.64 53.09 48.39 53.2 50.9 53.31 48.39 53.42 52.15 53.53 52.15 53.64 50.9 53.74 52.15 53.85 52.15 53.96 50.9 54.07 50.9 54.18 52.15 54.29 52.15 54.4 52.15 54.51 52.15 54.62 53.4 54.73 52.15 54.84 53.4 54.95 53.4 55.06 52.15 55.17 52.15 55.28 49.64 55.38 50.9 55.49 49.64 55.6 50.9 55.71 50.9 55.82 50.9 55.93 50.9 56.04 50.9 56.15 50.9 56.26 49.64 56.37 50.9 56.48 52.15 56.59 53.4 56.7 53.4 56.81 54.66 56.91 53.4 57.02 52.15 57.13 52.15 57.24 52.15 57.35 52.15 57.46 52.15 57.57 52.15 57.68 52.15 57.79 50.9 57.9 50.9 58.01 50.9 58.12 52.15 58.23 52.15 58.34 52.15 58.45 52.15 58.55 50.9 58.66 50.9 58.77 50.9 58.88 53.4 58.99 54.66 59.1 54.66 59.21 54.66 59.32 55.91 59.43 54.66 59.54 53.4 59.65 53.4 59.76 53.4 59.87 52.15 59.98 52.15 60.09 50.9 60.19 52.15 60.3 54.66 60.41 53.4 60.52 53.4 60.63 53.4 60.74 53.4 60.85 52.15 60.96 50.9 61.07 53.4 61.18 49.64 61.29 50.9 61.4 50.9 61.51 52.15 61.62 53.4 61.73 53.4 61.83 53.4 61.94 53.4 62.05 54.66 62.16 55.91 62.27 55.91 62.38 55.91 62.49 54.66 62.6 53.4 62.71 54.66 62.82 53.4 62.93 53.4 63.04 52.15 63.15 52.15 63.26 52.15 63.37 52.15 63.47 52.15 63.58 54.66 63.69 53.4 63.8 53.4 63.91 53.4 64.02 55.91 64.13 57.17 64.24 54.66 64.35 54.66 64.46 55.91 64.57 54.66 64.68 54.66 64.79 54.66 64.9 54.66 65.01 54.66 65.11 55.91 65.22 54.66 65.33 54.66 65.44 55.91 65.55 55.91 65.66 54.66 65.77 54.66 65.88 53.4 65.99 53.4 66.1 52.15 66.21 53.4 66.32 53.4 66.43 54.66 66.54 52.15 66.65 54.66 66.75 54.66 66.86 54.66 66.97 54.66 67.08 55.91 67.19 55.91 67.3 55.91 67.41 55.91 67.52 57.17 67.63 57.17 67.74 55.91 67.85 54.66 67.96 57.17 68.07 55.91 68.18 55.91 68.29 55.91 68.39 54.66 68.5 54.66 68.61 54.66 68.72 54.66 68.83 54.66 68.94 55.91 69.05 53.4 69.16 54.66 69.27 55.91 69.38 55.91 69.49 57.17 69.6 55.91 69.71 53.4 69.82 54.66 69.93 54.66 70.03 55.91 70.14 55.91 70.25 57.17 70.36 55.91 70.47 54.66 70.58 55.91 70.69 54.66 70.8 55.91 70.91 57.17 71.02 54.66 71.13 53.4 71.24 53.4 71.35 53.4 71.46 53.4 71.57 54.66 71.67 54.66 71.78 53.4 71.89 54.66 72 53.4 72.11 53.4 72.22 54.66 72.33 53.4 72.44 53.4 72.55 54.66 72.66 54.66 72.77 54.66 72.88 57.17 72.99 57.17 73.1 55.91 73.21 55.91 73.31 55.91 73.42 57.17 73.53 55.91 73.64 54.66 73.75 54.66 73.86 54.66 73.97 55.91 74.08 54.66 74.19 55.91 74.3 55.91 74.41 55.91 74.52 55.91 74.63 55.91 74.74 55.91 74.85 55.91 74.95 57.17 75.06 57.17 75.17 55.91 75.28 54.66 75.39 55.91 75.5 57.17 75.61 57.17 75.72 58.42 75.83 58.42 75.94 57.17 76.05 57.17 76.16 58.42 76.27 58.42 76.38 55.91 76.49 57.17 76.59 58.42 76.7 59.68 76.81 57.17 76.92 57.17 77.03 55.91 77.14 55.91 77.25 55.91 77.36 57.17 77.47 58.42 77.58 58.42 77.69 57.17 77.8 57.17 77.91 57.17 78.02 55.91 78.13 55.91 78.23 55.91 78.34 55.91 78.45 54.66 78.56 53.4 78.67 55.91 78.78 54.66 78.89 57.17 79 57.17 79.11 57.17 79.22 55.91 79.33 55.91 79.44 55.91 79.55 55.91 79.66 55.91 79.77 55.91 79.87 55.91 79.98 55.91 80.09 57.17 80.2 55.91 80.31 54.66 80.42 55.91 80.53 55.91 80.64 55.91 80.75 54.66 80.86 52.15 80.97 53.4 81.08 54.66 81.19 54.66 81.3 53.4 81.41 53.4 81.51 52.15 81.62 52.15 81.73 53.4 81.84 54.66 81.95 54.66 82.06 54.66 82.17 54.66 82.28 54.66 82.39 53.4 82.5 54.66 82.61 55.91 82.72 55.91 82.83 54.66 82.94 54.66 83.05 57.17 83.15 55.91 83.26 55.91 83.37 54.66 83.48 54.66 83.59 55.91 83.7 54.66 83.81 57.17 83.92 55.91 84.03 58.42 84.14 57.17 84.25 58.42 84.36 58.42 84.47 57.17 84.58 57.17 84.69 58.42 84.79 55.91 84.9 57.17 85.01 54.66 85.12 54.66 85.23 54.66 85.34 55.91 85.45 57.17 85.56 57.17 85.67 55.91 85.78 55.91 85.89 55.91 86 57.17 86.11 55.91 86.22 55.91 86.33 57.17 86.43 55.91 86.54 57.17 86.65 57.17 86.76 57.17 86.87 57.17 86.98 55.91 87.09 55.91 87.2 55.91 87.31 57.17 87.42 57.17 87.53 58.42 87.64 58.42 87.75 57.17 87.86 57.17 87.97 57.17 88.07 58.42 88.18 58.42 88.29 58.42 88.4 58.42 88.51 59.68 88.62 59.68 88.73 58.42 88.84 58.42 88.95 58.42 89.06 57.17 89.17 57.17 89.28 57.17 89.39 55.91 89.5 58.42 89.61 57.17 89.71 58.42 89.82 58.42 89.93 58.42 90.04 59.68 90.15 59.68 90.26 59.68 90.37 59.68 90.48 58.42 90.59 58.42 90.7 59.68 90.81 58.42 90.92 59.68 91.03 62.18 91.14 59.68 91.25 58.42 91.35 58.42 91.46 58.42 91.57 59.68 91.68 58.42 91.79 59.68 91.9 60.93 92.01 60.93 92.12 59.68 92.23 60.93 92.34 60.93 92.45 59.68 92.56 59.68 92.67 60.93 92.78 59.68 92.89 60.93 92.99 60.93 93.1 60.93 93.21 60.93 93.32 59.68 93.43 59.68 93.54 59.68 93.65 58.42 93.76 58.42 93.87 58.42 93.98 59.68 94.09 58.42 94.2 58.42 94.31 58.42 94.42 58.42 94.53 59.68 94.63 58.42 94.74 58.42 94.85 58.42 94.96 58.42 95.07 58.42 95.18 59.68 95.29 59.68 95.4 58.42 95.51 58.42 95.62 59.68 95.73 58.42 95.84 58.42 95.95 58.42 96.06 59.68 96.17 60.93 96.27 60.93 96.38 63.44 96.49 62.18 96.6 62.18 96.71 60.93 96.82 59.68 96.93 59.68 97.04 59.68 97.15 58.42 97.26 58.42 97.37 59.68 97.48 59.68 97.59 59.68 97.7 59.68 97.81 60.93 97.91 60.93 98.02 62.18 98.13 60.93 98.24 62.18 98.35 60.93 98.46 60.93 98.57 59.68 98.68 59.68 98.79 60.93 98.9 60.93 99.01 60.93 99.12 59.68 99.23 60.93 99.34 60.93 99.45 60.93 99.55 59.68 99.66 58.42 99.77 59.68 99.88 60.93 99.99 60.93 100.1 60.93 100.21 62.18 100.32 60.93 100.43 60.93 100.54 60.93 100.65 60.93 100.76 62.18 100.87 59.68 100.98 59.68 101.09 59.68 101.19 59.68 101.3 59.68 101.41 59.68 101.52 59.68 101.63 60.93 101.74 60.93 101.85 62.18 101.96 62.18 102.07 62.18 102.18 60.93 102.29 60.93 102.4 62.18 102.51 62.18 102.62 60.93 102.73 60.93 102.83 60.93 102.94 62.18 103.05 60.93 103.16 59.68 103.27 59.68 103.38 58.42 103.49 58.42 103.6 58.42 103.71 59.68 103.82 59.68 103.93 58.42 104.04 57.17 104.15 58.42 104.26 58.42 104.37 59.68 104.47 58.42 104.58 59.68 104.69 58.42 104.8 58.42 104.91 58.42 105.02 58.42 105.13 58.42 105.24 57.17 105.35 55.91 105.46 57.17 105.57 57.17 105.68 55.91 105.79 58.42 105.9 58.42 106.01 59.68 106.11 59.68 106.22 59.68 106.33 59.68 106.44 59.68 106.55 60.93 106.66 58.42 106.77 57.17 106.88 58.42 106.99 59.68 107.1 58.42 107.21 58.42 107.32 58.42 107.43 58.42 107.54 59.68 107.65 58.42 107.75 59.68 107.86 59.68 107.97 59.68 108.08 60.93 108.19 58.42 108.3 59.68 108.41 59.68 108.52 59.68 108.63 59.68 108.74 59.68 108.85 58.42 108.96 59.68 109.07 59.68 109.18 58.42 109.28 58.42 109.39 58.42 109.5 58.42 109.61 59.68 109.72 58.42 109.83 58.42 109.94 58.42 110.05 60.93 110.16 59.68 110.27 60.93 110.38 60.93 110.49 60.93 110.6 59.68 110.71 60.93 110.82 60.93 110.92 60.93 111.03 62.18 111.14 60.93 111.25 59.68 111.36 59.68 111.47 60.93 111.58 62.18 111.69 60.93 111.8 59.68 111.91 59.68 112.02 59.68 112.13 62.18 112.24 60.93 112.35 60.93 112.46 62.18 112.56 60.93 112.67 62.18 112.78 60.93 112.89 60.93 113 60.93 113.11 60.93 113.22 60.93 113.33 60.93 113.44 59.68 113.55 60.93 113.66 59.68 113.77 59.68 113.88 57.17 113.99 57.17 114.1 55.91 114.2 58.42 114.31 57.17 114.42 57.17 114.53 58.42 114.64 58.42 114.75 58.42 114.86 58.42 114.97 58.42 115.08 59.68 115.19 57.17 115.3 58.42 115.41 58.42 115.52 57.17 115.63 55.91 115.74 58.42 115.84 59.68 115.95 58.42 116.06 58.42 116.17 57.17 116.28 58.42 116.39 59.68 116.5 59.68 116.61 60.93 116.72 60.93 116.83 60.93 116.94 59.68 117.05 59.68 117.16 59.68 117.27 58.42 117.38 55.91 117.48 55.91 117.59 55.91 117.7 58.42 117.81 59.68 117.92 58.42 118.03 58.42 118.14 58.42 118.25 58.42 118.36 58.42 118.47 58.42 118.58 58.42 118.69 57.17 118.8 58.42 118.91 58.42 119.02 59.68 119.12 60.93 119.23 60.93 119.34 59.68 119.45 60.93 119.56 62.18 119.67 62.18 119.78 60.93 119.89 63.44 120 62.18 120.11 62.18 120.22 60.93 120.33 62.18 120.44 60.93 120.55 60.93 120.66 60.93 120.76 62.18 120.87 62.18 120.98 62.18 121.09 62.18 121.2 60.93 121.31 62.18 121.42 62.18 121.53 60.93 121.64 60.93 121.75 60.93 121.86 60.93 121.97 59.68 122.08 60.93 122.19 60.93 122.3 60.93 122.4 60.93 122.51 59.68 122.62 60.93 122.73 60.93 122.84 60.93 122.95 60.93 123.06 60.93 123.17 62.18 123.28 60.93 123.39 59.68 123.5 60.93 123.61 62.18 123.72 60.93 123.83 59.68 123.94 59.68 124.04 59.68 124.15 60.93 124.26 59.68 124.37 60.93 124.48 60.93 124.59 60.93 124.7 60.93 124.81 60.93 124.92 60.93 125.03 60.93 125.14 60.93 125.25 62.18 125.36 62.18 125.47 60.93 125.58 59.68 125.68 59.68 125.79 60.93 125.9 60.93 126.01 60.93 126.12 60.93 126.23 60.93 126.34 60.93 126.45 59.68 126.56 62.18 126.67 60.93 126.78 59.68 126.89 59.68 127 60.93 127.11 62.18 127.22 62.18 127.32 59.68 127.43 60.93 127.54 62.18 127.65 60.93 127.76 62.18 127.87 60.93 127.98 62.18 128.09 59.68 128.2 59.68 128.31 62.18 128.42 60.93 128.53 60.93 128.64 60.93 128.75 60.93 128.86 58.42 128.96 60.93 129.07 59.68 129.18 60.93 129.29 59.68 129.4 59.68 129.51 58.42 129.62 60.93 129.73 60.93 129.84 60.93 129.95 59.68 130.06 59.68 130.17 58.42 130.28 58.42 130.39 58.42 130.5 58.42 130.6 59.68 130.71 60.93 130.82 60.93 130.93 60.93 131.04 59.68" id="img-8c15d83e-38" stroke="#BEA9FF" class="geometry color_0.25"/>
        <path fill="none" d="M21.82,7 L 21.93 14.53 22.04 15.78 22.15 20.8 22.26 24.56 22.37 24.56 22.48 25.81 22.58 25.81 22.69 24.56 22.8 23.3 22.91 25.81 23.02 23.3 23.13 23.3 23.24 23.3 23.35 24.56 23.46 23.3 23.57 25.81 23.68 25.81 23.79 25.81 23.9 25.81 24.01 27.07 24.12 25.81 24.22 24.56 24.33 23.3 24.44 25.81 24.55 24.56 24.66 25.81 24.77 24.56 24.88 25.81 24.99 25.81 25.1 25.81 25.21 27.07 25.32 25.81 25.43 24.56 25.54 24.56 25.65 25.81 25.76 25.81 25.86 25.81 25.97 25.81 26.08 28.32 26.19 27.07 26.3 27.07 26.41 29.58 26.52 28.32 26.63 29.58 26.74 30.83 26.85 32.08 26.96 30.83 27.07 30.83 27.18 30.83 27.29 30.83 27.4 32.08 27.5 30.83 27.61 30.83 27.72 30.83 27.83 29.58 27.94 29.58 28.05 28.32 28.16 30.83 28.27 30.83 28.38 30.83 28.49 30.83 28.6 30.83 28.71 32.08 28.82 32.08 28.93 32.08 29.04 30.83 29.14 30.83 29.25 30.83 29.36 33.34 29.47 32.08 29.58 32.08 29.69 33.34 29.8 34.59 29.91 32.08 30.02 32.08 30.13 33.34 30.24 30.83 30.35 29.58 30.46 33.34 30.57 33.34 30.68 32.08 30.78 33.34 30.89 32.08 31 32.08 31.11 30.83 31.22 32.08 31.33 33.34 31.44 35.85 31.55 34.59 31.66 34.59 31.77 34.59 31.88 34.59 31.99 33.34 32.1 33.34 32.21 32.08 32.32 32.08 32.42 30.83 32.53 32.08 32.64 33.34 32.75 35.85 32.86 34.59 32.97 34.59 33.08 35.85 33.19 35.85 33.3 37.1 33.41 37.1 33.52 35.85 33.63 34.59 33.74 34.59 33.85 34.59 33.96 34.59 34.06 34.59 34.17 34.59 34.28 37.1 34.39 37.1 34.5 35.85 34.61 35.85 34.72 35.85 34.83 34.59 34.94 34.59 35.05 34.59 35.16 34.59 35.27 34.59 35.38 37.1 35.49 37.1 35.6 34.59 35.7 35.85 35.81 35.85 35.92 34.59 36.03 35.85 36.14 34.59 36.25 35.85 36.36 33.34 36.47 35.85 36.58 34.59 36.69 37.1 36.8 35.85 36.91 37.1 37.02 38.35 37.13 37.1 37.24 35.85 37.34 37.1 37.45 35.85 37.56 34.59 37.67 34.59 37.78 33.34 37.89 34.59 38 35.85 38.11 35.85 38.22 38.35 38.33 37.1 38.44 37.1 38.55 37.1 38.66 38.35 38.77 39.61 38.88 39.61 38.98 39.61 39.09 39.61 39.2 37.1 39.31 38.35 39.42 39.61 39.53 39.61 39.64 38.35 39.75 38.35 39.86 37.1 39.97 38.35 40.08 37.1 40.19 37.1 40.3 37.1 40.41 38.35 40.52 39.61 40.62 37.1 40.73 37.1 40.84 39.61 40.95 37.1 41.06 38.35 41.17 39.61 41.28 39.61 41.39 38.35 41.5 38.35 41.61 37.1 41.72 38.35 41.83 39.61 41.94 39.61 42.05 40.86 42.16 39.61 42.26 38.35 42.37 39.61 42.48 39.61 42.59 38.35 42.7 38.35 42.81 39.61 42.92 38.35 43.03 38.35 43.14 38.35 43.25 39.61 43.36 38.35 43.47 39.61 43.58 38.35 43.69 39.61 43.8 40.86 43.9 42.12 44.01 40.86 44.12 40.86 44.23 42.12 44.34 40.86 44.45 42.12 44.56 42.12 44.67 40.86 44.78 39.61 44.89 38.35 45 39.61 45.11 40.86 45.22 40.86 45.33 39.61 45.44 39.61 45.54 40.86 45.65 40.86 45.76 39.61 45.87 42.12 45.98 40.86 46.09 42.12 46.2 42.12 46.31 40.86 46.42 40.86 46.53 40.86 46.64 40.86 46.75 40.86 46.86 42.12 46.97 42.12 47.08 43.37 47.18 44.62 47.29 42.12 47.4 40.86 47.51 40.86 47.62 39.61 47.73 39.61 47.84 38.35 47.95 40.86 48.06 42.12 48.17 42.12 48.28 42.12 48.39 43.37 48.5 43.37 48.61 43.37 48.72 40.86 48.82 40.86 48.93 42.12 49.04 40.86 49.15 43.37 49.26 43.37 49.37 44.62 49.48 44.62 49.59 43.37 49.7 43.37 49.81 44.62 49.92 43.37 50.03 44.62 50.14 44.62 50.25 42.12 50.36 43.37 50.46 44.62 50.57 44.62 50.68 44.62 50.79 45.88 50.9 44.62 51.01 43.37 51.12 40.86 51.23 42.12 51.34 42.12 51.45 42.12 51.56 44.62 51.67 44.62 51.78 43.37 51.89 43.37 52 43.37 52.1 42.12 52.21 43.37 52.32 43.37 52.43 43.37 52.54 43.37 52.65 45.88 52.76 44.62 52.87 44.62 52.98 43.37 53.09 42.12 53.2 42.12 53.31 40.86 53.42 40.86 53.53 40.86 53.64 42.12 53.74 43.37 53.85 42.12 53.96 40.86 54.07 40.86 54.18 40.86 54.29 42.12 54.4 40.86 54.51 42.12 54.62 42.12 54.73 40.86 54.84 42.12 54.95 39.61 55.06 39.61 55.17 39.61 55.28 39.61 55.38 40.86 55.49 39.61 55.6 40.86 55.71 42.12 55.82 42.12 55.93 42.12 56.04 40.86 56.15 42.12 56.26 43.37 56.37 40.86 56.48 42.12 56.59 42.12 56.7 43.37 56.81 42.12 56.91 40.86 57.02 43.37 57.13 43.37 57.24 43.37 57.35 43.37 57.46 43.37 57.57 42.12 57.68 42.12 57.79 42.12 57.9 42.12 58.01 43.37 58.12 42.12 58.23 40.86 58.34 40.86 58.45 42.12 58.55 42.12 58.66 42.12 58.77 44.62 58.88 44.62 58.99 43.37 59.1 43.37 59.21 42.12 59.32 42.12 59.43 43.37 59.54 44.62 59.65 43.37 59.76 43.37 59.87 43.37 59.98 43.37 60.09 43.37 60.19 42.12 60.3 42.12 60.41 43.37 60.52 43.37 60.63 44.62 60.74 43.37 60.85 44.62 60.96 43.37 61.07 44.62 61.18 45.88 61.29 44.62 61.4 44.62 61.51 44.62 61.62 44.62 61.73 43.37 61.83 43.37 61.94 44.62 62.05 44.62 62.16 44.62 62.27 45.88 62.38 44.62 62.49 43.37 62.6 44.62 62.71 42.12 62.82 43.37 62.93 44.62 63.04 43.37 63.15 43.37 63.26 43.37 63.37 43.37 63.47 43.37 63.58 43.37 63.69 43.37 63.8 43.37 63.91 44.62 64.02 43.37 64.13 44.62 64.24 44.62 64.35 45.88 64.46 45.88 64.57 44.62 64.68 44.62 64.79 44.62 64.9 45.88 65.01 45.88 65.11 47.13 65.22 45.88 65.33 44.62 65.44 43.37 65.55 43.37 65.66 44.62 65.77 43.37 65.88 43.37 65.99 44.62 66.1 44.62 66.21 44.62 66.32 43.37 66.43 44.62 66.54 42.12 66.65 44.62 66.75 45.88 66.86 47.13 66.97 47.13 67.08 45.88 67.19 44.62 67.3 44.62 67.41 44.62 67.52 44.62 67.63 44.62 67.74 47.13 67.85 47.13 67.96 47.13 68.07 47.13 68.18 45.88 68.29 47.13 68.39 47.13 68.5 45.88 68.61 44.62 68.72 44.62 68.83 45.88 68.94 45.88 69.05 45.88 69.16 47.13 69.27 45.88 69.38 49.64 69.49 49.64 69.6 48.39 69.71 48.39 69.82 47.13 69.93 44.62 70.03 47.13 70.14 45.88 70.25 47.13 70.36 48.39 70.47 47.13 70.58 47.13 70.69 47.13 70.8 48.39 70.91 47.13 71.02 47.13 71.13 48.39 71.24 48.39 71.35 47.13 71.46 45.88 71.57 47.13 71.67 45.88 71.78 45.88 71.89 45.88 72 47.13 72.11 45.88 72.22 47.13 72.33 48.39 72.44 45.88 72.55 48.39 72.66 47.13 72.77 47.13 72.88 48.39 72.99 49.64 73.1 48.39 73.21 49.64 73.31 49.64 73.42 49.64 73.53 48.39 73.64 47.13 73.75 48.39 73.86 45.88 73.97 45.88 74.08 44.62 74.19 44.62 74.3 47.13 74.41 48.39 74.52 45.88 74.63 45.88 74.74 47.13 74.85 47.13 74.95 48.39 75.06 48.39 75.17 47.13 75.28 48.39 75.39 48.39 75.5 48.39 75.61 47.13 75.72 45.88 75.83 48.39 75.94 47.13 76.05 47.13 76.16 47.13 76.27 48.39 76.38 47.13 76.49 45.88 76.59 47.13 76.7 47.13 76.81 48.39 76.92 48.39 77.03 48.39 77.14 49.64 77.25 47.13 77.36 47.13 77.47 47.13 77.58 47.13 77.69 45.88 77.8 45.88 77.91 47.13 78.02 47.13 78.13 47.13 78.23 47.13 78.34 44.62 78.45 45.88 78.56 45.88 78.67 45.88 78.78 44.62 78.89 45.88 79 44.62 79.11 47.13 79.22 45.88 79.33 47.13 79.44 48.39 79.55 47.13 79.66 47.13 79.77 47.13 79.87 48.39 79.98 47.13 80.09 47.13 80.2 48.39 80.31 47.13 80.42 44.62 80.53 45.88 80.64 47.13 80.75 48.39 80.86 48.39 80.97 48.39 81.08 48.39 81.19 48.39 81.3 48.39 81.41 47.13 81.51 48.39 81.62 48.39 81.73 49.64 81.84 48.39 81.95 47.13 82.06 45.88 82.17 47.13 82.28 47.13 82.39 49.64 82.5 48.39 82.61 48.39 82.72 47.13 82.83 48.39 82.94 45.88 83.05 45.88 83.15 47.13 83.26 47.13 83.37 45.88 83.48 47.13 83.59 47.13 83.7 47.13 83.81 48.39 83.92 47.13 84.03 45.88 84.14 48.39 84.25 45.88 84.36 47.13 84.47 48.39 84.58 48.39 84.69 48.39 84.79 49.64 84.9 48.39 85.01 49.64 85.12 49.64 85.23 50.9 85.34 49.64 85.45 49.64 85.56 48.39 85.67 47.13 85.78 45.88 85.89 47.13 86 47.13 86.11 47.13 86.22 48.39 86.33 48.39 86.43 48.39 86.54 47.13 86.65 47.13 86.76 47.13 86.87 48.39 86.98 47.13 87.09 47.13 87.2 45.88 87.31 47.13 87.42 48.39 87.53 48.39 87.64 47.13 87.75 45.88 87.86 47.13 87.97 44.62 88.07 44.62 88.18 44.62 88.29 45.88 88.4 47.13 88.51 48.39 88.62 48.39 88.73 47.13 88.84 48.39 88.95 47.13 89.06 48.39 89.17 47.13 89.28 47.13 89.39 47.13 89.5 47.13 89.61 47.13 89.71 47.13 89.82 47.13 89.93 44.62 90.04 44.62 90.15 44.62 90.26 45.88 90.37 45.88 90.48 47.13 90.59 45.88 90.7 48.39 90.81 49.64 90.92 48.39 91.03 48.39 91.14 47.13 91.25 47.13 91.35 47.13 91.46 47.13 91.57 45.88 91.68 45.88 91.79 45.88 91.9 47.13 92.01 47.13 92.12 47.13 92.23 45.88 92.34 44.62 92.45 44.62 92.56 47.13 92.67 47.13 92.78 47.13 92.89 45.88 92.99 44.62 93.1 44.62 93.21 44.62 93.32 45.88 93.43 47.13 93.54 47.13 93.65 45.88 93.76 45.88 93.87 47.13 93.98 45.88 94.09 45.88 94.2 47.13 94.31 47.13 94.42 47.13 94.53 48.39 94.63 47.13 94.74 47.13 94.85 47.13 94.96 47.13 95.07 45.88 95.18 47.13 95.29 47.13 95.4 47.13 95.51 47.13 95.62 45.88 95.73 47.13 95.84 45.88 95.95 49.64 96.06 48.39 96.17 48.39 96.27 48.39 96.38 48.39 96.49 48.39 96.6 45.88 96.71 47.13 96.82 47.13 96.93 47.13 97.04 48.39 97.15 49.64 97.26 49.64 97.37 48.39 97.48 48.39 97.59 48.39 97.7 47.13 97.81 47.13 97.91 47.13 98.02 47.13 98.13 47.13 98.24 47.13 98.35 47.13 98.46 47.13 98.57 45.88 98.68 47.13 98.79 45.88 98.9 45.88 99.01 45.88 99.12 47.13 99.23 47.13 99.34 45.88 99.45 49.64 99.55 48.39 99.66 47.13 99.77 47.13 99.88 45.88 99.99 47.13 100.1 47.13 100.21 48.39 100.32 49.64 100.43 50.9 100.54 48.39 100.65 47.13 100.76 47.13 100.87 47.13 100.98 48.39 101.09 49.64 101.19 48.39 101.3 49.64 101.41 49.64 101.52 47.13 101.63 48.39 101.74 48.39 101.85 49.64 101.96 49.64 102.07 49.64 102.18 48.39 102.29 52.15 102.4 48.39 102.51 48.39 102.62 47.13 102.73 47.13 102.83 49.64 102.94 48.39 103.05 49.64 103.16 49.64 103.27 49.64 103.38 50.9 103.49 49.64 103.6 48.39 103.71 48.39 103.82 48.39 103.93 48.39 104.04 48.39 104.15 49.64 104.26 49.64 104.37 49.64 104.47 49.64 104.58 50.9 104.69 49.64 104.8 48.39 104.91 49.64 105.02 52.15 105.13 50.9 105.24 52.15 105.35 49.64 105.46 49.64 105.57 50.9 105.68 52.15 105.79 50.9 105.9 52.15 106.01 52.15 106.11 49.64 106.22 49.64 106.33 50.9 106.44 49.64 106.55 50.9 106.66 50.9 106.77 50.9 106.88 52.15 106.99 52.15 107.1 50.9 107.21 49.64 107.32 49.64 107.43 50.9 107.54 49.64 107.65 50.9 107.75 50.9 107.86 52.15 107.97 49.64 108.08 49.64 108.19 50.9 108.3 49.64 108.41 48.39 108.52 48.39 108.63 48.39 108.74 48.39 108.85 49.64 108.96 49.64 109.07 49.64 109.18 52.15 109.28 50.9 109.39 49.64 109.5 47.13 109.61 49.64 109.72 49.64 109.83 48.39 109.94 48.39 110.05 49.64 110.16 48.39 110.27 49.64 110.38 49.64 110.49 49.64 110.6 49.64 110.71 48.39 110.82 49.64 110.92 50.9 111.03 49.64 111.14 49.64 111.25 48.39 111.36 49.64 111.47 49.64 111.58 50.9 111.69 50.9 111.8 49.64 111.91 49.64 112.02 49.64 112.13 50.9 112.24 48.39 112.35 48.39 112.46 50.9 112.56 50.9 112.67 50.9 112.78 49.64 112.89 50.9 113 50.9 113.11 49.64 113.22 49.64 113.33 47.13 113.44 49.64 113.55 49.64 113.66 49.64 113.77 48.39 113.88 49.64 113.99 50.9 114.1 50.9 114.2 49.64 114.31 49.64 114.42 48.39 114.53 48.39 114.64 48.39 114.75 49.64 114.86 49.64 114.97 49.64 115.08 47.13 115.19 48.39 115.3 49.64 115.41 49.64 115.52 49.64 115.63 50.9 115.74 49.64 115.84 49.64 115.95 49.64 116.06 49.64 116.17 48.39 116.28 49.64 116.39 50.9 116.5 49.64 116.61 52.15 116.72 52.15 116.83 50.9 116.94 49.64 117.05 49.64 117.16 49.64 117.27 50.9 117.38 50.9 117.48 49.64 117.59 49.64 117.7 50.9 117.81 50.9 117.92 48.39 118.03 47.13 118.14 48.39 118.25 48.39 118.36 48.39 118.47 48.39 118.58 47.13 118.69 48.39 118.8 50.9 118.91 48.39 119.02 49.64 119.12 48.39 119.23 48.39 119.34 49.64 119.45 49.64 119.56 50.9 119.67 53.4 119.78 52.15 119.89 50.9 120 50.9 120.11 50.9 120.22 52.15 120.33 52.15 120.44 50.9 120.55 50.9 120.66 49.64 120.76 49.64 120.87 49.64 120.98 48.39 121.09 49.64 121.2 50.9 121.31 50.9 121.42 48.39 121.53 48.39 121.64 48.39 121.75 49.64 121.86 49.64 121.97 49.64 122.08 50.9 122.19 52.15 122.3 49.64 122.4 49.64 122.51 49.64 122.62 48.39 122.73 48.39 122.84 49.64 122.95 48.39 123.06 49.64 123.17 49.64 123.28 48.39 123.39 48.39 123.5 49.64 123.61 49.64 123.72 48.39 123.83 49.64 123.94 52.15 124.04 52.15 124.15 52.15 124.26 52.15 124.37 52.15 124.48 52.15 124.59 49.64 124.7 48.39 124.81 49.64 124.92 50.9 125.03 50.9 125.14 53.4 125.25 52.15 125.36 54.66 125.47 52.15 125.58 53.4 125.68 50.9 125.79 49.64 125.9 52.15 126.01 50.9 126.12 49.64 126.23 50.9 126.34 49.64 126.45 50.9 126.56 50.9 126.67 50.9 126.78 50.9 126.89 50.9 127 49.64 127.11 50.9 127.22 49.64 127.32 50.9 127.43 49.64 127.54 52.15 127.65 52.15 127.76 52.15 127.87 50.9 127.98 50.9 128.09 50.9 128.2 49.64 128.31 52.15 128.42 50.9 128.53 52.15 128.64 52.15 128.75 52.15 128.86 50.9 128.96 52.15 129.07 50.9 129.18 50.9 129.29 50.9 129.4 50.9 129.51 50.9 129.62 52.15 129.73 50.9 129.84 50.9 129.95 48.39 130.06 50.9 130.17 50.9 130.28 52.15 130.39 50.9 130.5 52.15 130.6 50.9 130.71 52.15 130.82 52.15 130.93 50.9 131.04 52.15" id="img-8c15d83e-39" stroke="#D4CA3A" class="geometry color_0.05"/>
        <path fill="none" d="M21.82,7 L 21.93 14.53 22.04 20.8 22.15 23.3 22.26 24.56 22.37 22.05 22.48 25.81 22.58 24.56 22.69 25.81 22.8 25.81 22.91 28.32 23.02 27.07 23.13 28.32 23.24 29.58 23.35 28.32 23.46 30.83 23.57 30.83 23.68 29.58 23.79 29.58 23.9 30.83 24.01 28.32 24.12 28.32 24.22 29.58 24.33 27.07 24.44 28.32 24.55 28.32 24.66 28.32 24.77 28.32 24.88 28.32 24.99 27.07 25.1 27.07 25.21 27.07 25.32 27.07 25.43 28.32 25.54 27.07 25.65 27.07 25.76 27.07 25.86 27.07 25.97 27.07 26.08 25.81 26.19 25.81 26.3 25.81 26.41 24.56 26.52 25.81 26.63 27.07 26.74 25.81 26.85 27.07 26.96 29.58 27.07 29.58 27.18 32.08 27.29 29.58 27.4 29.58 27.5 29.58 27.61 29.58 27.72 30.83 27.83 30.83 27.94 29.58 28.05 28.32 28.16 29.58 28.27 28.32 28.38 30.83 28.49 30.83 28.6 30.83 28.71 29.58 28.82 29.58 28.93 32.08 29.04 30.83 29.14 32.08 29.25 32.08 29.36 32.08 29.47 29.58 29.58 30.83 29.69 28.32 29.8 28.32 29.91 29.58 30.02 30.83 30.13 30.83 30.24 28.32 30.35 29.58 30.46 29.58 30.57 30.83 30.68 32.08 30.78 30.83 30.89 32.08 31 30.83 31.11 32.08 31.22 30.83 31.33 32.08 31.44 33.34 31.55 34.59 31.66 34.59 31.77 33.34 31.88 33.34 31.99 34.59 32.1 33.34 32.21 33.34 32.32 33.34 32.42 33.34 32.53 30.83 32.64 32.08 32.75 32.08 32.86 32.08 32.97 33.34 33.08 34.59 33.19 34.59 33.3 33.34 33.41 34.59 33.52 34.59 33.63 34.59 33.74 32.08 33.85 33.34 33.96 33.34 34.06 33.34 34.17 34.59 34.28 32.08 34.39 33.34 34.5 34.59 34.61 33.34 34.72 33.34 34.83 33.34 34.94 33.34 35.05 33.34 35.16 33.34 35.27 33.34 35.38 32.08 35.49 33.34 35.6 34.59 35.7 35.85 35.81 35.85 35.92 34.59 36.03 34.59 36.14 34.59 36.25 34.59 36.36 35.85 36.47 35.85 36.58 37.1 36.69 35.85 36.8 34.59 36.91 35.85 37.02 35.85 37.13 35.85 37.24 38.35 37.34 37.1 37.45 37.1 37.56 37.1 37.67 37.1 37.78 38.35 37.89 37.1 38 37.1 38.11 37.1 38.22 38.35 38.33 37.1 38.44 37.1 38.55 38.35 38.66 39.61 38.77 39.61 38.88 38.35 38.98 40.86 39.09 38.35 39.2 38.35 39.31 37.1 39.42 38.35 39.53 37.1 39.64 35.85 39.75 38.35 39.86 38.35 39.97 38.35 40.08 38.35 40.19 40.86 40.3 38.35 40.41 38.35 40.52 37.1 40.62 35.85 40.73 38.35 40.84 39.61 40.95 39.61 41.06 38.35 41.17 38.35 41.28 38.35 41.39 37.1 41.5 37.1 41.61 37.1 41.72 35.85 41.83 37.1 41.94 39.61 42.05 39.61 42.16 39.61 42.26 38.35 42.37 39.61 42.48 38.35 42.59 37.1 42.7 38.35 42.81 37.1 42.92 37.1 43.03 37.1 43.14 38.35 43.25 38.35 43.36 38.35 43.47 37.1 43.58 39.61 43.69 39.61 43.8 40.86 43.9 40.86 44.01 40.86 44.12 39.61 44.23 38.35 44.34 38.35 44.45 38.35 44.56 38.35 44.67 38.35 44.78 38.35 44.89 40.86 45 40.86 45.11 40.86 45.22 39.61 45.33 40.86 45.44 42.12 45.54 42.12 45.65 42.12 45.76 43.37 45.87 42.12 45.98 42.12 46.09 40.86 46.2 39.61 46.31 39.61 46.42 39.61 46.53 42.12 46.64 42.12 46.75 40.86 46.86 42.12 46.97 42.12 47.08 40.86 47.18 40.86 47.29 40.86 47.4 39.61 47.51 39.61 47.62 42.12 47.73 42.12 47.84 40.86 47.95 42.12 48.06 40.86 48.17 39.61 48.28 40.86 48.39 42.12 48.5 42.12 48.61 40.86 48.72 40.86 48.82 40.86 48.93 42.12 49.04 43.37 49.15 42.12 49.26 42.12 49.37 42.12 49.48 40.86 49.59 43.37 49.7 43.37 49.81 43.37 49.92 44.62 50.03 44.62 50.14 44.62 50.25 44.62 50.36 43.37 50.46 42.12 50.57 42.12 50.68 42.12 50.79 42.12 50.9 42.12 51.01 40.86 51.12 42.12 51.23 42.12 51.34 42.12 51.45 40.86 51.56 42.12 51.67 40.86 51.78 42.12 51.89 43.37 52 43.37 52.1 44.62 52.21 43.37 52.32 40.86 52.43 42.12 52.54 42.12 52.65 42.12 52.76 42.12 52.87 42.12 52.98 40.86 53.09 42.12 53.2 43.37 53.31 42.12 53.42 42.12 53.53 42.12 53.64 40.86 53.74 40.86 53.85 39.61 53.96 39.61 54.07 39.61 54.18 39.61 54.29 39.61 54.4 40.86 54.51 40.86 54.62 40.86 54.73 40.86 54.84 40.86 54.95 39.61 55.06 38.35 55.17 40.86 55.28 40.86 55.38 39.61 55.49 42.12 55.6 40.86 55.71 42.12 55.82 42.12 55.93 40.86 56.04 40.86 56.15 42.12 56.26 43.37 56.37 43.37 56.48 44.62 56.59 42.12 56.7 39.61 56.81 40.86 56.91 38.35 57.02 39.61 57.13 40.86 57.24 40.86 57.35 42.12 57.46 40.86 57.57 39.61 57.68 40.86 57.79 40.86 57.9 39.61 58.01 40.86 58.12 40.86 58.23 42.12 58.34 40.86 58.45 40.86 58.55 40.86 58.66 39.61 58.77 43.37 58.88 44.62 58.99 43.37 59.1 43.37 59.21 44.62 59.32 45.88 59.43 44.62 59.54 43.37 59.65 44.62 59.76 44.62 59.87 43.37 59.98 44.62 60.09 43.37 60.19 47.13 60.3 45.88 60.41 45.88 60.52 44.62 60.63 45.88 60.74 44.62 60.85 44.62 60.96 43.37 61.07 47.13 61.18 44.62 61.29 45.88 61.4 45.88 61.51 47.13 61.62 44.62 61.73 45.88 61.83 45.88 61.94 44.62 62.05 44.62 62.16 45.88 62.27 44.62 62.38 44.62 62.49 44.62 62.6 45.88 62.71 47.13 62.82 45.88 62.93 44.62 63.04 44.62 63.15 44.62 63.26 45.88 63.37 44.62 63.47 43.37 63.58 44.62 63.69 43.37 63.8 47.13 63.91 45.88 64.02 44.62 64.13 45.88 64.24 45.88 64.35 45.88 64.46 45.88 64.57 47.13 64.68 45.88 64.79 47.13 64.9 45.88 65.01 47.13 65.11 45.88 65.22 44.62 65.33 43.37 65.44 44.62 65.55 45.88 65.66 44.62 65.77 45.88 65.88 45.88 65.99 45.88 66.1 44.62 66.21 44.62 66.32 44.62 66.43 44.62 66.54 44.62 66.65 43.37 66.75 44.62 66.86 44.62 66.97 45.88 67.08 44.62 67.19 42.12 67.3 42.12 67.41 43.37 67.52 43.37 67.63 43.37 67.74 43.37 67.85 43.37 67.96 44.62 68.07 44.62 68.18 45.88 68.29 45.88 68.39 45.88 68.5 45.88 68.61 47.13 68.72 47.13 68.83 45.88 68.94 44.62 69.05 47.13 69.16 47.13 69.27 45.88 69.38 45.88 69.49 45.88 69.6 45.88 69.71 47.13 69.82 47.13 69.93 45.88 70.03 47.13 70.14 47.13 70.25 47.13 70.36 45.88 70.47 45.88 70.58 48.39 70.69 48.39 70.8 49.64 70.91 47.13 71.02 48.39 71.13 47.13 71.24 47.13 71.35 47.13 71.46 45.88 71.57 47.13 71.67 48.39 71.78 49.64 71.89 48.39 72 48.39 72.11 49.64 72.22 48.39 72.33 47.13 72.44 47.13 72.55 45.88 72.66 45.88 72.77 45.88 72.88 45.88 72.99 45.88 73.1 45.88 73.21 44.62 73.31 44.62 73.42 45.88 73.53 45.88 73.64 45.88 73.75 45.88 73.86 47.13 73.97 50.9 74.08 49.64 74.19 49.64 74.3 48.39 74.41 48.39 74.52 47.13 74.63 48.39 74.74 48.39 74.85 48.39 74.95 49.64 75.06 49.64 75.17 47.13 75.28 48.39 75.39 49.64 75.5 48.39 75.61 47.13 75.72 47.13 75.83 48.39 75.94 48.39 76.05 48.39 76.16 48.39 76.27 48.39 76.38 49.64 76.49 49.64 76.59 48.39 76.7 47.13 76.81 47.13 76.92 48.39 77.03 45.88 77.14 47.13 77.25 45.88 77.36 45.88 77.47 45.88 77.58 47.13 77.69 45.88 77.8 47.13 77.91 47.13 78.02 47.13 78.13 48.39 78.23 49.64 78.34 48.39 78.45 49.64 78.56 48.39 78.67 48.39 78.78 48.39 78.89 49.64 79 49.64 79.11 49.64 79.22 48.39 79.33 48.39 79.44 48.39 79.55 49.64 79.66 48.39 79.77 49.64 79.87 48.39 79.98 47.13 80.09 47.13 80.2 48.39 80.31 48.39 80.42 50.9 80.53 50.9 80.64 52.15 80.75 52.15 80.86 49.64 80.97 50.9 81.08 52.15 81.19 50.9 81.3 49.64 81.41 49.64 81.51 48.39 81.62 48.39 81.73 47.13 81.84 48.39 81.95 48.39 82.06 48.39 82.17 48.39 82.28 45.88 82.39 47.13 82.5 48.39 82.61 47.13 82.72 47.13 82.83 47.13 82.94 47.13 83.05 48.39 83.15 48.39 83.26 49.64 83.37 49.64 83.48 49.64 83.59 50.9 83.7 49.64 83.81 49.64 83.92 49.64 84.03 50.9 84.14 48.39 84.25 47.13 84.36 47.13 84.47 49.64 84.58 48.39 84.69 47.13 84.79 49.64 84.9 48.39 85.01 48.39 85.12 49.64 85.23 49.64 85.34 50.9 85.45 49.64 85.56 49.64 85.67 48.39 85.78 48.39 85.89 50.9 86 49.64 86.11 48.39 86.22 49.64 86.33 48.39 86.43 49.64 86.54 50.9 86.65 50.9 86.76 50.9 86.87 52.15 86.98 52.15 87.09 52.15 87.2 53.4 87.31 50.9 87.42 50.9 87.53 50.9 87.64 50.9 87.75 50.9 87.86 52.15 87.97 52.15 88.07 50.9 88.18 52.15 88.29 52.15 88.4 49.64 88.51 50.9 88.62 49.64 88.73 50.9 88.84 49.64 88.95 49.64 89.06 49.64 89.17 47.13 89.28 47.13 89.39 48.39 89.5 49.64 89.61 48.39 89.71 48.39 89.82 49.64 89.93 49.64 90.04 50.9 90.15 48.39 90.26 48.39 90.37 49.64 90.48 50.9 90.59 49.64 90.7 50.9 90.81 52.15 90.92 52.15 91.03 49.64 91.14 49.64 91.25 49.64 91.35 49.64 91.46 49.64 91.57 49.64 91.68 52.15 91.79 50.9 91.9 49.64 92.01 50.9 92.12 50.9 92.23 52.15 92.34 50.9 92.45 52.15 92.56 52.15 92.67 52.15 92.78 52.15 92.89 50.9 92.99 52.15 93.1 50.9 93.21 49.64 93.32 50.9 93.43 50.9 93.54 52.15 93.65 50.9 93.76 50.9 93.87 50.9 93.98 50.9 94.09 52.15 94.2 53.4 94.31 54.66 94.42 53.4 94.53 52.15 94.63 49.64 94.74 50.9 94.85 50.9 94.96 49.64 95.07 50.9 95.18 52.15 95.29 52.15 95.4 49.64 95.51 50.9 95.62 52.15 95.73 52.15 95.84 49.64 95.95 49.64 96.06 49.64 96.17 50.9 96.27 52.15 96.38 52.15 96.49 50.9 96.6 52.15 96.71 52.15 96.82 52.15 96.93 53.4 97.04 53.4 97.15 53.4 97.26 53.4 97.37 50.9 97.48 52.15 97.59 50.9 97.7 52.15 97.81 52.15 97.91 52.15 98.02 53.4 98.13 52.15 98.24 52.15 98.35 54.66 98.46 53.4 98.57 53.4 98.68 50.9 98.79 52.15 98.9 50.9 99.01 50.9 99.12 49.64 99.23 49.64 99.34 50.9 99.45 52.15 99.55 52.15 99.66 50.9 99.77 49.64 99.88 50.9 99.99 50.9 100.1 50.9 100.21 50.9 100.32 52.15 100.43 50.9 100.54 50.9 100.65 52.15 100.76 53.4 100.87 53.4 100.98 53.4 101.09 52.15 101.19 50.9 101.3 50.9 101.41 49.64 101.52 49.64 101.63 52.15 101.74 50.9 101.85 52.15 101.96 52.15 102.07 52.15 102.18 52.15 102.29 50.9 102.4 53.4 102.51 52.15 102.62 52.15 102.73 50.9 102.83 52.15 102.94 52.15 103.05 53.4 103.16 53.4 103.27 52.15 103.38 53.4 103.49 53.4 103.6 53.4 103.71 53.4 103.82 52.15 103.93 50.9 104.04 52.15 104.15 53.4 104.26 52.15 104.37 50.9 104.47 50.9 104.58 52.15 104.69 50.9 104.8 50.9 104.91 52.15 105.02 52.15 105.13 52.15 105.24 50.9 105.35 52.15 105.46 52.15 105.57 53.4 105.68 53.4 105.79 52.15 105.9 50.9 106.01 50.9 106.11 49.64 106.22 50.9 106.33 50.9 106.44 50.9 106.55 52.15 106.66 53.4 106.77 53.4 106.88 52.15 106.99 50.9 107.1 50.9 107.21 50.9 107.32 50.9 107.43 52.15 107.54 53.4 107.65 53.4 107.75 52.15 107.86 50.9 107.97 49.64 108.08 52.15 108.19 50.9 108.3 52.15 108.41 50.9 108.52 50.9 108.63 50.9 108.74 52.15 108.85 50.9 108.96 49.64 109.07 49.64 109.18 49.64 109.28 50.9 109.39 50.9 109.5 48.39 109.61 50.9 109.72 49.64 109.83 50.9 109.94 52.15 110.05 50.9 110.16 49.64 110.27 52.15 110.38 52.15 110.49 53.4 110.6 52.15 110.71 50.9 110.82 50.9 110.92 52.15 111.03 50.9 111.14 53.4 111.25 52.15 111.36 52.15 111.47 53.4 111.58 52.15 111.69 50.9 111.8 52.15 111.91 52.15 112.02 50.9 112.13 49.64 112.24 50.9 112.35 52.15 112.46 49.64 112.56 50.9 112.67 50.9 112.78 50.9 112.89 49.64 113 50.9 113.11 49.64 113.22 52.15 113.33 52.15 113.44 50.9 113.55 50.9 113.66 50.9 113.77 50.9 113.88 50.9 113.99 49.64 114.1 49.64 114.2 47.13 114.31 50.9 114.42 50.9 114.53 50.9 114.64 49.64 114.75 48.39 114.86 48.39 114.97 49.64 115.08 49.64 115.19 50.9 115.3 50.9 115.41 49.64 115.52 49.64 115.63 49.64 115.74 50.9 115.84 53.4 115.95 53.4 116.06 52.15 116.17 50.9 116.28 50.9 116.39 50.9 116.5 50.9 116.61 50.9 116.72 52.15 116.83 50.9 116.94 49.64 117.05 52.15 117.16 52.15 117.27 50.9 117.38 50.9 117.48 50.9 117.59 49.64 117.7 49.64 117.81 49.64 117.92 50.9 118.03 50.9 118.14 52.15 118.25 52.15 118.36 50.9 118.47 50.9 118.58 52.15 118.69 53.4 118.8 53.4 118.91 54.66 119.02 53.4 119.12 52.15 119.23 53.4 119.34 54.66 119.45 53.4 119.56 54.66 119.67 55.91 119.78 53.4 119.89 54.66 120 52.15 120.11 50.9 120.22 50.9 120.33 50.9 120.44 53.4 120.55 53.4 120.66 53.4 120.76 53.4 120.87 52.15 120.98 52.15 121.09 53.4 121.2 54.66 121.31 54.66 121.42 53.4 121.53 52.15 121.64 50.9 121.75 52.15 121.86 53.4 121.97 52.15 122.08 52.15 122.19 52.15 122.3 52.15 122.4 52.15 122.51 52.15 122.62 52.15 122.73 50.9 122.84 52.15 122.95 52.15 123.06 50.9 123.17 52.15 123.28 52.15 123.39 50.9 123.5 52.15 123.61 50.9 123.72 52.15 123.83 50.9 123.94 49.64 124.04 49.64 124.15 50.9 124.26 49.64 124.37 49.64 124.48 49.64 124.59 49.64 124.7 50.9 124.81 52.15 124.92 52.15 125.03 50.9 125.14 49.64 125.25 48.39 125.36 50.9 125.47 50.9 125.58 50.9 125.68 52.15 125.79 50.9 125.9 50.9 126.01 49.64 126.12 49.64 126.23 48.39 126.34 48.39 126.45 49.64 126.56 50.9 126.67 52.15 126.78 50.9 126.89 50.9 127 50.9 127.11 48.39 127.22 50.9 127.32 52.15 127.43 53.4 127.54 52.15 127.65 50.9 127.76 52.15 127.87 50.9 127.98 50.9 128.09 50.9 128.2 50.9 128.31 50.9 128.42 52.15 128.53 53.4 128.64 54.66 128.75 53.4 128.86 52.15 128.96 52.15 129.07 52.15 129.18 54.66 129.29 53.4 129.4 54.66 129.51 54.66 129.62 53.4 129.73 53.4 129.84 53.4 129.95 55.91 130.06 54.66 130.17 53.4 130.28 54.66 130.39 53.4 130.5 53.4 130.6 54.66 130.71 54.66 130.82 55.91 130.93 54.66 131.04 53.4" id="img-8c15d83e-40" stroke="#FF6DAE" class="geometry color_0.075"/>
      </g>
    </g>
  </g>
</g>
  <g class="guide ylabels" font-size="2.82" font-family="'PT Sans Caption','Helvetica Neue','Helvetica',sans-serif" fill="#6C606B" id="img-8c15d83e-41">
    <text x="18.82" y="69.71" text-anchor="end" dy="0.35em" id="img-8c15d83e-42">50</text>
    <text x="18.82" y="57.17" text-anchor="end" dy="0.35em" id="img-8c15d83e-43">60</text>
    <text x="18.82" y="44.62" text-anchor="end" dy="0.35em" id="img-8c15d83e-44">70</text>
    <text x="18.82" y="32.08" text-anchor="end" dy="0.35em" id="img-8c15d83e-45">80</text>
    <text x="18.82" y="19.54" text-anchor="end" dy="0.35em" id="img-8c15d83e-46">90</text>
    <text x="18.82" y="7" text-anchor="end" dy="0.35em" id="img-8c15d83e-47">100</text>
  </g>
  <g font-size="3.88" font-family="'PT Sans','Helvetica Neue','Helvetica',sans-serif" fill="#564A55" stroke="#000000" stroke-opacity="0.000" id="img-8c15d83e-48">
    <text x="8.76" y="36.35" text-anchor="middle" dy="0.35em" transform="rotate(-90, 8.76, 38.35)" id="img-8c15d83e-49">nSpecie</text>
  </g>
</g>
<defs>
  <clipPath id="img-8c15d83e-19">
  <path d="M19.82,5 L 133.15 5 133.15 71.71 19.82 71.71" />
</clipPath>
</defs>
</svg>
