<?xml version="1.0" encoding="UTF-8"?>
<svg xmlns="http://www.w3.org/2000/svg"
     xmlns:xlink="http://www.w3.org/1999/xlink"
     xmlns:gadfly="http://www.gadflyjl.org/ns"
     version="1.2"
     width="150mm" height="90mm" viewBox="0 0 150 90"
     stroke="none"
     fill="#000000"
     stroke-width="0.3"
     font-size="3.88"
>
<g class="plotroot xscalable yscalable" id="img-09a4fa96-1">
  <g font-size="3.88" font-family="'PT Sans','Helvetica Neue','Helvetica',sans-serif" fill="#564A55" stroke="#000000" stroke-opacity="0.000" id="img-09a4fa96-2">
    <text x="78.78" y="79.18" text-anchor="middle" dy="0.6em">time</text>
  </g>
  <g class="guide xlabels" font-size="2.82" font-family="'PT Sans Caption','Helvetica Neue','Helvetica',sans-serif" fill="#6C606B" id="img-09a4fa96-3">
    <text x="21.82" y="72.71" text-anchor="middle" dy="0.6em">0</text>
    <text x="78.78" y="72.71" text-anchor="middle" dy="0.6em">5.0×10³</text>
    <text x="135.74" y="72.71" text-anchor="middle" dy="0.6em">1.0×10⁴</text>
  </g>
  <g class="guide colorkey" id="img-09a4fa96-4">
    <g fill="#4C404B" font-size="2.82" font-family="'PT Sans','Helvetica Neue','Helvetica',sans-serif" id="img-09a4fa96-5">
      <text x="141.47" y="29.68" dy="0.35em" id="img-09a4fa96-6" class="color_9">9</text>
      <text x="141.47" y="33.15" dy="0.35em" id="img-09a4fa96-7" class="color_16">16</text>
      <text x="141.47" y="36.62" dy="0.35em" id="img-09a4fa96-8" class="color_25">25</text>
      <text x="141.47" y="40.09" dy="0.35em" id="img-09a4fa96-9" class="color_36">36</text>
      <text x="141.47" y="43.56" dy="0.35em" id="img-09a4fa96-10" class="color_49">49</text>
      <text x="141.47" y="47.03" dy="0.35em" id="img-09a4fa96-11" class="color_64">64</text>
      <text x="141.47" y="50.5" dy="0.35em" id="img-09a4fa96-12" class="color_81">81</text>
    </g>
    <g stroke="#000000" stroke-opacity="0.000" id="img-09a4fa96-13">
      <rect x="138.74" y="28.81" width="1.73" height="1.73" id="img-09a4fa96-14" class="color_9" fill="#00BFFF"/>
      <rect x="138.74" y="32.28" width="1.73" height="1.73" id="img-09a4fa96-15" class="color_16" fill="#D4CA3A"/>
      <rect x="138.74" y="35.75" width="1.73" height="1.73" id="img-09a4fa96-16" class="color_25" fill="#FF6DAE"/>
      <rect x="138.74" y="39.22" width="1.73" height="1.73" id="img-09a4fa96-17" class="color_36" fill="#00B78D"/>
      <rect x="138.74" y="42.69" width="1.73" height="1.73" id="img-09a4fa96-18" class="color_49" fill="#BEA9FF"/>
      <rect x="138.74" y="46.16" width="1.73" height="1.73" id="img-09a4fa96-19" class="color_64" fill="#FF6765"/>
      <rect x="138.74" y="49.63" width="1.73" height="1.73" id="img-09a4fa96-20" class="color_81" fill="#C6C6C6"/>
    </g>
    <g fill="#362A35" font-size="3.88" font-family="'PT Sans','Helvetica Neue','Helvetica',sans-serif" stroke="#000000" stroke-opacity="0.000" id="img-09a4fa96-21">
      <text x="138.74" y="25.62" id="img-09a4fa96-22">L</text>
    </g>
  </g>
<g clip-path="url(#img-09a4fa96-23)">
  <g id="img-09a4fa96-24">
    <g pointer-events="visible" opacity="1" fill="#000000" fill-opacity="0.000" stroke="#000000" stroke-opacity="0.000" class="guide background" id="img-09a4fa96-25">
      <rect x="19.82" y="5" width="117.92" height="66.71" id="img-09a4fa96-26"/>
    </g>
    <g class="guide ygridlines xfixed" stroke-dasharray="0.5,0.5" stroke-width="0.2" stroke="#D0D0E0" id="img-09a4fa96-27">
      <path fill="none" d="M19.82,69.71 L 137.74 69.71" id="img-09a4fa96-28"/>
      <path fill="none" d="M19.82,48.81 L 137.74 48.81" id="img-09a4fa96-29"/>
      <path fill="none" d="M19.82,27.9 L 137.74 27.9" id="img-09a4fa96-30"/>
      <path fill="none" d="M19.82,7 L 137.74 7" id="img-09a4fa96-31"/>
    </g>
    <g class="guide xgridlines yfixed" stroke-dasharray="0.5,0.5" stroke-width="0.2" stroke="#D0D0E0" id="img-09a4fa96-32">
      <path fill="none" d="M21.82,5 L 21.82 71.71" id="img-09a4fa96-33"/>
      <path fill="none" d="M78.78,5 L 78.78 71.71" id="img-09a4fa96-34"/>
      <path fill="none" d="M135.74,5 L 135.74 71.71" id="img-09a4fa96-35"/>
    </g>
    <g class="plotpanel" id="img-09a4fa96-36">
      <g stroke-width="0.3" fill="#000000" fill-opacity="0.000" stroke-dasharray="none" id="img-09a4fa96-37">
        <path fill="none" d="M21.82,27.9 L 21.93 33.34 22.05 37.52 22.16 39.19 22.28 40.03 22.39 40.86 22.5 40.86 22.62 41.28 22.73 41.28 22.84 41.7 22.96 42.12 23.07 41.28 23.19 42.12 23.3 42.12 23.41 42.12 23.53 42.95 23.64 42.95 23.76 42.95 23.87 42.53 23.98 42.95 24.1 42.95 24.21 42.95 24.33 43.37 24.44 43.79 24.55 44.21 24.67 44.21 24.78 44.21 24.9 44.62 25.01 44.62 25.12 45.04 25.24 45.04 25.35 44.62 25.46 44.62 25.58 44.62 25.69 45.46 25.81 45.46 25.92 45.46 26.03 45.04 26.15 45.46 26.26 45.46 26.38 45.88 26.49 45.88 26.6 46.3 26.72 45.88 26.83 45.88 26.95 45.04 27.06 45.04 27.17 45.04 27.29 45.46 27.4 45.88 27.52 45.88 27.63 46.3 27.74 46.3 27.86 45.88 27.97 45.88 28.08 46.3 28.2 46.3 28.31 45.88 28.43 46.72 28.54 46.72 28.65 47.13 28.77 47.13 28.88 47.55 29 46.72 29.11 46.3 29.22 45.88 29.34 45.88 29.45 46.72 29.57 46.72 29.68 46.72 29.79 47.13 29.91 47.55 30.02 47.13 30.14 47.55 30.25 47.55 30.36 47.13 30.48 47.13 30.59 46.72 30.71 47.55 30.82 47.13 30.93 47.13 31.05 47.13 31.16 47.97 31.27 47.55 31.39 47.55 31.5 47.97 31.62 47.55 31.73 47.13 31.84 47.97 31.96 47.97 32.07 47.97 32.19 47.97 32.3 48.39 32.41 48.39 32.53 47.97 32.64 47.97 32.76 48.81 32.87 48.39 32.98 48.81 33.1 48.81 33.21 48.39 33.33 47.97 33.44 48.39 33.55 48.39 33.67 47.97 33.78 47.97 33.89 48.81 34.01 49.22 34.12 48.81 34.24 48.39 34.35 48.39 34.46 48.81 34.58 48.39 34.69 48.81 34.81 48.81 34.92 49.22 35.03 48.81 35.15 48.81 35.26 47.97 35.38 48.39 35.49 48.39 35.6 48.81 35.72 48.81 35.83 48.81 35.95 49.22 36.06 48.81 36.17 48.81 36.29 49.22 36.4 49.22 36.51 48.81 36.63 49.22 36.74 48.81 36.86 49.22 36.97 49.22 37.08 48.81 37.2 48.81 37.31 49.22 37.43 49.22 37.54 49.64 37.65 49.64 37.77 50.06 37.88 50.06 38 50.06 38.11 50.06 38.22 49.64 38.34 49.64 38.45 49.22 38.57 49.64 38.68 49.22 38.79 48.81 38.91 48.81 39.02 49.22 39.13 50.06 39.25 50.06 39.36 49.64 39.48 49.64 39.59 49.64 39.7 50.06 39.82 49.64 39.93 50.06 40.05 50.06 40.16 50.06 40.27 50.06 40.39 49.64 40.5 50.06 40.62 49.64 40.73 50.06 40.84 50.06 40.96 50.48 41.07 50.06 41.19 50.06 41.3 50.06 41.41 50.06 41.53 49.64 41.64 49.64 41.76 50.48 41.87 50.06 41.98 50.48 42.1 50.9 42.21 50.48 42.32 50.9 42.44 51.31 42.55 50.48 42.67 50.9 42.78 50.9 42.89 50.9 43.01 51.31 43.12 50.48 43.24 50.9 43.35 50.9 43.46 50.48 43.58 50.48 43.69 50.48 43.81 50.06 43.92 50.48 44.03 50.06 44.15 50.9 44.26 50.9 44.38 50.9 44.49 51.31 44.6 50.9 44.72 51.31 44.83 51.31 44.94 50.9 45.06 51.31 45.17 51.31 45.29 50.9 45.4 50.9 45.51 50.9 45.63 50.9 45.74 50.9 45.86 51.31 45.97 50.9 46.08 50.9 46.2 51.31 46.31 51.73 46.43 51.73 46.54 51.31 46.65 51.31 46.77 51.31 46.88 51.31 47 51.73 47.11 51.73 47.22 51.73 47.34 52.15 47.45 52.15 47.56 52.15 47.68 51.73 47.79 51.31 47.91 51.73 48.02 52.15 48.13 51.73 48.25 51.73 48.36 51.73 48.48 52.57 48.59 52.15 48.7 52.57 48.82 52.57 48.93 52.15 49.05 52.15 49.16 51.31 49.27 51.73 49.39 52.15 49.5 51.73 49.62 51.31 49.73 51.73 49.84 52.15 49.96 51.73 50.07 51.73 50.19 51.73 50.3 51.73 50.41 52.15 50.53 51.73 50.64 52.15 50.75 52.15 50.87 52.15 50.98 52.15 51.1 51.73 51.21 52.15 51.32 51.73 51.44 51.73 51.55 52.57 51.67 52.15 51.78 52.15 51.89 51.73 52.01 52.15 52.12 51.73 52.24 51.31 52.35 51.73 52.46 52.15 52.58 52.15 52.69 52.57 52.81 52.57 52.92 52.15 53.03 52.15 53.15 52.15 53.26 52.57 53.37 52.15 53.49 52.57 53.6 52.15 53.72 52.15 53.83 52.15 53.94 52.15 54.06 52.15 54.17 52.15 54.29 52.99 54.4 52.99 54.51 52.99 54.63 52.15 54.74 52.57 54.86 52.99 54.97 52.99 55.08 53.4 55.2 52.99 55.31 52.99 55.43 52.15 55.54 52.57 55.65 52.99 55.77 52.57 55.88 52.57 55.99 52.57 56.11 52.57 56.22 52.57 56.34 52.99 56.45 52.99 56.56 53.4 56.68 52.99 56.79 52.57 56.91 52.57 57.02 52.57 57.13 52.57 57.25 52.15 57.36 52.57 57.48 52.99 57.59 52.99 57.7 52.57 57.82 52.99 57.93 53.4 58.05 52.99 58.16 52.99 58.27 52.99 58.39 52.57 58.5 52.99 58.61 52.99 58.73 52.99 58.84 52.57 58.96 52.57 59.07 52.99 59.18 52.57 59.3 52.57 59.41 52.15 59.53 52.99 59.64 52.57 59.75 52.99 59.87 52.99 59.98 52.99 60.1 52.99 60.21 53.4 60.32 52.99 60.44 52.57 60.55 52.99 60.67 52.99 60.78 52.57 60.89 52.57 61.01 52.99 61.12 52.99 61.24 52.99 61.35 52.99 61.46 53.4 61.58 53.4 61.69 52.57 61.8 52.57 61.92 52.99 62.03 53.4 62.15 53.4 62.26 53.4 62.37 53.4 62.49 53.4 62.6 53.4 62.72 53.82 62.83 54.24 62.94 53.82 63.06 53.4 63.17 52.99 63.29 52.99 63.4 52.99 63.51 52.15 63.63 52.15 63.74 52.99 63.86 52.57 63.97 52.99 64.08 53.4 64.2 52.99 64.31 52.99 64.42 52.99 64.54 52.57 64.65 53.4 64.77 53.4 64.88 53.82 64.99 53.82 65.11 53.4 65.22 53.4 65.34 53.4 65.45 52.57 65.56 52.57 65.68 53.4 65.79 53.4 65.91 53.82 66.02 54.24 66.13 53.82 66.25 53.4 66.36 53.82 66.48 53.4 66.59 52.99 66.7 53.4 66.82 53.82 66.93 53.82 67.04 53.82 67.16 53.4 67.27 53.82 67.39 53.82 67.5 53.4 67.61 53.4 67.73 53.82 67.84 53.82 67.96 53.82 68.07 54.24 68.18 54.66 68.3 54.24 68.41 53.82 68.53 54.24 68.64 53.82 68.75 54.24 68.87 53.82 68.98 53.4 69.1 53.82 69.21 53.4 69.32 53.82 69.44 53.82 69.55 54.24 69.67 53.82 69.78 54.24 69.89 53.82 70.01 54.24 70.12 54.24 70.23 53.82 70.35 53.82 70.46 54.24 70.58 54.24 70.69 53.82 70.8 53.82 70.92 53.82 71.03 54.24 71.15 53.82 71.26 53.82 71.37 54.24 71.49 54.24 71.6 54.24 71.72 54.24 71.83 54.24 71.94 54.24 72.06 54.66 72.17 54.24 72.29 53.4 72.4 53.82 72.51 53.82 72.63 53.82 72.74 53.4 72.85 54.24 72.97 54.24 73.08 54.24 73.2 54.24 73.31 54.66 73.42 54.24 73.54 54.66 73.65 54.24 73.77 54.24 73.88 54.24 73.99 54.66 74.11 54.66 74.22 54.66 74.34 54.66 74.45 54.66 74.56 54.66 74.68 54.66 74.79 54.24 74.91 54.24 75.02 54.66 75.13 54.66 75.25 54.66 75.36 54.66 75.47 54.66 75.59 54.66 75.7 54.66 75.82 55.08 75.93 55.08 76.04 55.08 76.16 54.66 76.27 55.08 76.39 54.66 76.5 55.08 76.61 54.66 76.73 54.66 76.84 55.08 76.96 55.08 77.07 54.66 77.18 54.24 77.3 54.24 77.41 54.66 77.53 54.66 77.64 54.66 77.75 55.08 77.87 55.08 77.98 54.66 78.09 54.66 78.21 54.24 78.32 54.24 78.44 54.24 78.55 54.66 78.66 54.24 78.78 54.66 78.89 54.66 79.01 54.66 79.12 54.66 79.23 55.49 79.35 55.08 79.46 55.08 79.58 55.49 79.69 55.49 79.8 55.49 79.92 55.49 80.03 55.91 80.15 55.49 80.26 55.49 80.37 55.91 80.49 55.91 80.6 55.91 80.72 55.49 80.83 55.49 80.94 55.49 81.06 55.49 81.17 55.91 81.28 55.91 81.4 55.49 81.51 55.49 81.63 55.49 81.74 55.49 81.85 55.49 81.97 55.91 82.08 55.08 82.2 55.08 82.31 54.66 82.42 54.66 82.54 55.08 82.65 54.66 82.77 54.66 82.88 54.66 82.99 54.66 83.11 55.08 83.22 55.08 83.34 55.49 83.45 55.08 83.56 55.08 83.68 55.08 83.79 55.08 83.9 55.91 84.02 55.08 84.13 54.66 84.25 54.66 84.36 54.66 84.47 54.24 84.59 55.08 84.7 55.08 84.82 54.66 84.93 55.08 85.04 55.49 85.16 55.08 85.27 54.66 85.39 54.66 85.5 54.66 85.61 55.08 85.73 54.66 85.84 55.08 85.96 54.66 86.07 55.08 86.18 55.08 86.3 55.49 86.41 55.49 86.52 55.49 86.64 55.08 86.75 55.08 86.87 55.49 86.98 55.08 87.09 55.49 87.21 55.49 87.32 55.49 87.44 55.91 87.55 55.49 87.66 55.49 87.78 55.49 87.89 55.91 88.01 55.49 88.12 55.49 88.23 55.49 88.35 55.49 88.46 55.08 88.58 55.91 88.69 55.08 88.8 55.49 88.92 55.49 89.03 55.91 89.15 55.49 89.26 55.49 89.37 55.91 89.49 56.33 89.6 56.33 89.71 55.91 89.83 55.49 89.94 55.49 90.06 55.49 90.17 55.91 90.28 55.49 90.4 55.91 90.51 55.91 90.63 56.33 90.74 55.91 90.85 55.49 90.97 55.49 91.08 55.49 91.2 55.49 91.31 55.91 91.42 55.49 91.54 55.49 91.65 55.91 91.77 55.91 91.88 55.49 91.99 55.49 92.11 55.49 92.22 55.49 92.33 55.49 92.45 55.49 92.56 55.08 92.68 55.08 92.79 55.08 92.9 55.91 93.02 55.91 93.13 55.49 93.25 55.49 93.36 55.08 93.47 55.49 93.59 55.08 93.7 55.08 93.82 55.49 93.93 55.08 94.04 54.66 94.16 54.66 94.27 54.24 94.39 54.66 94.5 54.66 94.61 55.08 94.73 55.49 94.84 55.08 94.95 55.08 95.07 54.66 95.18 54.66 95.3 54.66 95.41 54.66 95.52 54.66 95.64 54.24 95.75 54.24 95.87 54.66 95.98 54.24 96.09 54.66 96.21 55.08 96.32 55.08 96.44 54.66 96.55 55.08 96.66 55.08 96.78 55.08 96.89 55.49 97.01 55.08 97.12 55.49 97.23 54.66 97.35 54.66 97.46 55.08 97.57 55.08 97.69 55.49 97.8 55.08 97.92 55.08 98.03 55.91 98.14 55.49 98.26 55.49 98.37 55.08 98.49 55.08 98.6 54.66 98.71 55.08 98.83 55.49 98.94 55.08 99.06 55.49 99.17 55.49 99.28 55.08 99.4 55.49 99.51 55.49 99.63 55.08 99.74 55.08 99.85 55.08 99.97 55.08 100.08 55.49 100.2 55.49 100.31 55.49 100.42 55.49 100.54 55.49 100.65 55.49 100.76 55.49 100.88 55.49 100.99 55.08 101.11 55.08 101.22 55.49 101.33 55.49 101.45 55.49 101.56 55.49 101.68 55.91 101.79 55.49 101.9 55.49 102.02 55.49 102.13 55.49 102.25 55.49 102.36 55.91 102.47 55.49 102.59 55.08 102.7 54.66 102.82 55.08 102.93 54.66 103.04 54.66 103.16 54.66 103.27 55.08 103.38 55.49 103.5 55.91 103.61 55.91 103.73 55.49 103.84 55.91 103.95 55.91 104.07 55.91 104.18 55.91 104.3 55.91 104.41 55.91 104.52 55.91 104.64 55.91 104.75 55.91 104.87 56.33 104.98 55.91 105.09 56.33 105.21 55.49 105.32 55.91 105.44 55.91 105.55 55.91 105.66 55.91 105.78 56.33 105.89 56.75 106 56.33 106.12 56.33 106.23 56.33 106.35 56.33 106.46 56.33 106.57 56.33 106.69 55.91 106.8 56.33 106.92 56.33 107.03 56.33 107.14 55.91 107.26 55.49 107.37 55.91 107.49 55.91 107.6 56.33 107.71 55.49 107.83 55.08 107.94 55.91 108.06 55.91 108.17 55.91 108.28 55.49 108.4 55.49 108.51 56.33 108.63 55.49 108.74 55.91 108.85 56.33 108.97 55.91 109.08 55.91 109.19 55.49 109.31 55.49 109.42 55.49 109.54 55.91 109.65 55.91 109.76 55.49 109.88 55.91 109.99 55.91 110.11 55.91 110.22 56.33 110.33 56.75 110.45 56.33 110.56 56.33 110.68 55.91 110.79 56.33 110.9 56.33 111.02 55.91 111.13 55.49 111.25 55.91 111.36 55.91 111.47 55.91 111.59 55.91 111.7 55.91 111.81 55.91 111.93 55.91 112.04 55.49 112.16 55.49 112.27 55.49 112.38 55.08 112.5 55.08 112.61 55.91 112.73 55.91 112.84 55.08 112.95 55.08 113.07 55.08 113.18 55.49 113.3 55.49 113.41 55.49 113.52 55.49 113.64 55.49 113.75 55.08 113.87 55.08 113.98 55.08 114.09 55.08 114.21 55.49 114.32 55.49 114.43 55.49 114.55 55.49 114.66 55.49 114.78 55.49 114.89 55.49 115 55.49 115.12 55.08 115.23 55.49 115.35 55.49 115.46 55.49 115.57 55.91 115.69 55.91 115.8 55.91 115.92 55.49 116.03 55.08 116.14 54.66 116.26 55.08 116.37 55.08 116.49 54.66 116.6 55.49 116.71 55.49 116.83 55.49 116.94 55.49 117.05 55.49 117.17 55.91 117.28 55.49 117.4 55.91 117.51 55.91 117.62 55.91 117.74 56.33 117.85 55.91 117.97 56.33 118.08 55.91 118.19 55.91 118.31 55.49 118.42 55.49 118.54 55.49 118.65 55.91 118.76 55.91 118.88 55.91 118.99 55.49 119.11 55.91 119.22 55.91 119.33 55.91 119.45 55.49 119.56 55.49 119.68 55.91 119.79 55.49 119.9 55.49 120.02 55.91 120.13 55.91 120.24 55.91 120.36 55.91 120.47 56.33 120.59 56.33 120.7 56.33 120.81 56.33 120.93 56.75 121.04 56.75 121.16 56.75 121.27 56.33 121.38 56.33 121.5 56.33 121.61 56.75 121.73 56.75 121.84 56.33 121.95 55.91 122.07 56.33 122.18 56.75 122.3 56.75 122.41 55.91 122.52 55.91 122.64 55.91 122.75 56.33 122.86 55.49 122.98 55.49 123.09 55.08 123.21 55.49 123.32 55.49 123.43 55.49 123.55 55.49 123.66 55.49 123.78 55.91 123.89 55.49 124 55.49 124.12 55.49 124.23 55.49 124.35 55.49 124.46 55.49 124.57 55.91 124.69 55.49 124.8 55.49 124.92 55.49 125.03 55.91 125.14 55.49 125.26 55.49 125.37 55.91 125.48 55.91 125.6 55.91 125.71 55.91 125.83 55.08 125.94 55.08 126.05 55.08 126.17 55.49 126.28 55.49 126.4 55.49 126.51 55.49 126.62 55.91 126.74 55.91 126.85 55.91 126.97 55.91 127.08 56.33 127.19 56.33 127.31 55.91 127.42 55.91 127.54 55.49 127.65 56.33 127.76 56.75 127.88 56.33 127.99 56.33 128.1 55.08 128.22 55.91 128.33 56.33 128.45 55.91 128.56 56.75 128.67 56.33 128.79 56.33 128.9 56.33 129.02 56.75 129.13 56.75 129.24 56.33 129.36 56.75 129.47 56.33 129.59 56.75 129.7 56.33 129.81 55.91 129.93 56.33 130.04 56.33 130.16 55.91 130.27 55.91 130.38 55.91 130.5 55.91 130.61 55.91 130.73 55.91 130.84 55.91 130.95 55.91 131.07 55.49 131.18 55.91 131.29 55.49 131.41 55.49 131.52 55.91 131.64 55.49 131.75 56.33 131.86 56.33 131.98 55.91 132.09 55.91 132.21 55.49 132.32 55.91 132.43 55.08 132.55 55.49 132.66 55.91 132.78 55.91 132.89 55.91 133 55.49 133.12 55.49 133.23 55.49 133.35 55.91 133.46 56.33 133.57 56.33 133.69 56.75 133.8 56.33 133.91 56.75 134.03 56.33 134.14 55.91 134.26 55.91 134.37 55.91 134.48 55.91 134.6 55.91 134.71 55.91 134.83 55.91 134.94 55.91 135.05 55.91 135.17 56.33 135.28 56.75 135.4 56.33 135.51 56.33 135.62 55.49" id="img-09a4fa96-38" stroke="#00B78D" class="geometry color_36"/>
        <path fill="none" d="M21.82,47.13 L 21.93 63.02 22.05 63.44 22.16 63.86 22.28 64.27 22.39 64.69 22.5 64.69 22.62 65.11 22.73 65.11 22.84 65.53 22.96 65.53 23.07 65.53 23.19 65.53 23.3 65.53 23.41 65.53 23.53 65.53 23.64 65.53 23.76 65.53 23.87 65.53 23.98 65.53 24.1 65.53 24.21 65.53 24.33 65.53 24.44 65.53 24.55 65.53 24.67 65.53 24.78 65.11 24.9 65.53 25.01 65.53 25.12 65.53 25.24 65.53 25.35 65.53 25.46 65.53 25.58 65.53 25.69 65.53 25.81 65.95 25.92 65.53 26.03 65.95 26.15 65.95 26.26 65.53 26.38 65.53 26.49 65.53 26.6 65.53 26.72 65.53 26.83 65.53 26.95 65.95 27.06 65.95 27.17 65.53 27.29 65.53 27.4 65.53 27.52 65.53 27.63 65.53 27.74 65.53 27.86 65.11 27.97 65.11 28.08 65.53 28.2 65.53 28.31 65.53 28.43 65.53 28.54 65.53 28.65 65.53 28.77 65.53 28.88 65.53 29 65.53 29.11 65.53 29.22 65.53 29.34 65.53 29.45 65.95 29.57 65.53 29.68 65.53 29.79 65.53 29.91 65.11 30.02 65.11 30.14 65.11 30.25 65.11 30.36 65.11 30.48 65.53 30.59 65.11 30.71 65.53 30.82 65.53 30.93 65.53 31.05 65.53 31.16 65.53 31.27 65.53 31.39 65.53 31.5 65.53 31.62 65.53 31.73 65.53 31.84 65.53 31.96 65.53 32.07 65.53 32.19 65.95 32.3 65.95 32.41 65.53 32.53 65.95 32.64 65.95 32.76 65.95 32.87 65.95 32.98 65.53 33.1 65.53 33.21 65.53 33.33 65.53 33.44 65.53 33.55 65.53 33.67 65.53 33.78 65.53 33.89 65.53 34.01 65.53 34.12 65.53 34.24 65.95 34.35 65.95 34.46 65.95 34.58 65.95 34.69 65.95 34.81 65.95 34.92 65.95 35.03 65.95 35.15 65.53 35.26 65.95 35.38 65.95 35.49 65.95 35.6 65.53 35.72 65.53 35.83 65.95 35.95 65.95 36.06 65.95 36.17 65.95 36.29 65.95 36.4 65.95 36.51 65.95 36.63 65.95 36.74 65.95 36.86 65.95 36.97 65.95 37.08 65.95 37.2 65.53 37.31 65.53 37.43 65.53 37.54 65.95 37.65 65.53 37.77 65.95 37.88 65.95 38 65.53 38.11 65.53 38.22 65.95 38.34 65.95 38.45 65.95 38.57 65.53 38.68 65.53 38.79 65.53 38.91 65.53 39.02 65.53 39.13 65.11 39.25 65.53 39.36 65.11 39.48 65.53 39.59 65.53 39.7 65.53 39.82 65.95 39.93 65.95 40.05 65.95 40.16 65.95 40.27 65.95 40.39 65.95 40.5 65.95 40.62 65.95 40.73 65.95 40.84 65.95 40.96 65.95 41.07 65.95 41.19 65.95 41.3 65.95 41.41 65.95 41.53 65.95 41.64 65.53 41.76 65.95 41.87 65.95 41.98 65.53 42.1 65.95 42.21 65.95 42.32 65.95 42.44 65.95 42.55 65.53 42.67 65.53 42.78 65.53 42.89 65.95 43.01 65.95 43.12 65.95 43.24 65.95 43.35 65.95 43.46 65.95 43.58 65.95 43.69 65.95 43.81 65.95 43.92 65.95 44.03 65.95 44.15 65.95 44.26 65.95 44.38 65.95 44.49 65.95 44.6 65.95 44.72 65.53 44.83 65.53 44.94 65.53 45.06 65.95 45.17 65.95 45.29 65.53 45.4 65.53 45.51 65.95 45.63 65.53 45.74 65.53 45.86 65.95 45.97 65.95 46.08 65.53 46.2 65.95 46.31 65.95 46.43 65.53 46.54 65.95 46.65 65.53 46.77 65.95 46.88 65.95 47 65.95 47.11 65.95 47.22 65.95 47.34 65.95 47.45 65.95 47.56 65.95 47.68 65.95 47.79 65.95 47.91 65.53 48.02 65.53 48.13 65.53 48.25 65.53 48.36 65.95 48.48 65.95 48.59 65.53 48.7 65.95 48.82 65.95 48.93 65.95 49.05 65.95 49.16 65.95 49.27 65.95 49.39 65.95 49.5 66.36 49.62 65.95 49.73 65.95 49.84 65.95 49.96 65.95 50.07 65.53 50.19 65.53 50.3 65.95 50.41 65.53 50.53 65.53 50.64 65.53 50.75 65.53 50.87 65.95 50.98 65.95 51.1 65.53 51.21 65.95 51.32 65.95 51.44 65.53 51.55 65.53 51.67 65.53 51.78 65.53 51.89 65.95 52.01 65.53 52.12 65.95 52.24 65.53 52.35 65.53 52.46 65.53 52.58 65.95 52.69 65.95 52.81 65.95 52.92 65.95 53.03 65.95 53.15 65.95 53.26 65.53 53.37 65.53 53.49 65.53 53.6 65.53 53.72 65.53 53.83 65.95 53.94 65.95 54.06 65.53 54.17 65.53 54.29 65.53 54.4 65.53 54.51 65.53 54.63 65.95 54.74 65.53 54.86 65.53 54.97 65.95 55.08 66.36 55.2 65.95 55.31 66.36 55.43 66.36 55.54 66.36 55.65 66.36 55.77 66.36 55.88 65.95 55.99 65.95 56.11 65.95 56.22 65.95 56.34 65.95 56.45 65.95 56.56 65.95 56.68 65.95 56.79 65.95 56.91 65.95 57.02 66.36 57.13 66.36 57.25 66.36 57.36 66.36 57.48 66.36 57.59 66.36 57.7 65.95 57.82 66.36 57.93 65.95 58.05 65.95 58.16 65.95 58.27 65.95 58.39 65.95 58.5 65.95 58.61 65.95 58.73 65.95 58.84 65.95 58.96 65.95 59.07 65.95 59.18 66.36 59.3 66.36 59.41 66.36 59.53 65.95 59.64 66.36 59.75 66.36 59.87 66.36 59.98 66.36 60.1 65.95 60.21 65.95 60.32 65.95 60.44 66.36 60.55 66.36 60.67 65.95 60.78 66.36 60.89 65.95 61.01 65.95 61.12 65.95 61.24 65.95 61.35 65.95 61.46 65.95 61.58 65.95 61.69 65.95 61.8 65.95 61.92 66.36 62.03 65.95 62.15 65.95 62.26 65.95 62.37 65.95 62.49 65.95 62.6 65.95 62.72 65.95 62.83 65.95 62.94 65.95 63.06 65.95 63.17 65.95 63.29 65.95 63.4 65.95 63.51 66.36 63.63 65.95 63.74 65.95 63.86 66.36 63.97 66.36 64.08 65.95 64.2 65.95 64.31 65.95 64.42 66.36 64.54 66.36 64.65 65.95 64.77 66.36 64.88 66.36 64.99 65.95 65.11 66.36 65.22 66.36 65.34 66.36 65.45 66.36 65.56 65.95 65.68 66.36 65.79 66.36 65.91 66.36 66.02 66.36 66.13 66.36 66.25 66.36 66.36 66.36 66.48 66.36 66.59 66.36 66.7 66.36 66.82 66.36 66.93 65.95 67.04 66.36 67.16 66.36 67.27 66.36 67.39 66.36 67.5 65.95 67.61 66.36 67.73 66.36 67.84 66.36 67.96 65.95 68.07 66.36 68.18 65.95 68.3 65.95 68.41 66.36 68.53 66.36 68.64 66.36 68.75 66.36 68.87 66.36 68.98 66.36 69.1 66.36 69.21 65.95 69.32 66.36 69.44 66.36 69.55 66.36 69.67 65.95 69.78 65.95 69.89 65.95 70.01 66.36 70.12 65.95 70.23 65.95 70.35 65.95 70.46 65.95 70.58 66.36 70.69 65.95 70.8 66.36 70.92 66.36 71.03 66.36 71.15 66.36 71.26 66.36 71.37 66.36 71.49 66.36 71.6 66.36 71.72 65.95 71.83 65.95 71.94 66.36 72.06 66.36 72.17 65.95 72.29 65.95 72.4 65.95 72.51 65.95 72.63 65.95 72.74 65.95 72.85 65.95 72.97 65.53 73.08 65.95 73.2 65.53 73.31 65.95 73.42 65.95 73.54 65.95 73.65 65.95 73.77 65.95 73.88 65.95 73.99 65.95 74.11 65.95 74.22 65.95 74.34 65.95 74.45 66.36 74.56 65.95 74.68 66.36 74.79 66.36 74.91 66.36 75.02 66.36 75.13 66.36 75.25 65.95 75.36 66.36 75.47 65.95 75.59 65.95 75.7 65.95 75.82 65.95 75.93 65.95 76.04 65.95 76.16 65.95 76.27 66.36 76.39 66.36 76.5 66.36 76.61 65.95 76.73 66.36 76.84 66.36 76.96 66.36 77.07 66.36 77.18 66.36 77.3 66.36 77.41 65.95 77.53 66.36 77.64 65.95 77.75 65.95 77.87 66.36 77.98 66.36 78.09 65.95 78.21 65.95 78.32 65.95 78.44 66.36 78.55 65.95 78.66 66.36 78.78 66.36 78.89 66.36 79.01 66.36 79.12 65.95 79.23 66.36 79.35 66.36 79.46 66.36 79.58 66.36 79.69 65.95 79.8 65.95 79.92 65.95 80.03 65.95 80.15 66.36 80.26 66.36 80.37 65.95 80.49 65.95 80.6 65.95 80.72 65.95 80.83 66.36 80.94 65.95 81.06 65.95 81.17 65.95 81.28 65.95 81.4 65.95 81.51 65.95 81.63 65.95 81.74 65.95 81.85 65.53 81.97 65.95 82.08 66.36 82.2 65.95 82.31 65.95 82.42 66.36 82.54 65.95 82.65 65.95 82.77 65.95 82.88 65.95 82.99 65.95 83.11 65.95 83.22 65.95 83.34 65.95 83.45 65.95 83.56 65.95 83.68 65.95 83.79 65.95 83.9 65.95 84.02 65.95 84.13 65.95 84.25 65.95 84.36 65.95 84.47 65.95 84.59 65.95 84.7 65.95 84.82 65.95 84.93 65.95 85.04 65.95 85.16 66.36 85.27 65.95 85.39 65.95 85.5 65.95 85.61 65.95 85.73 65.95 85.84 65.95 85.96 66.36 86.07 66.36 86.18 65.95 86.3 65.95 86.41 65.95 86.52 65.95 86.64 65.95 86.75 66.36 86.87 66.36 86.98 66.36 87.09 66.36 87.21 66.36 87.32 66.36 87.44 66.36 87.55 66.36 87.66 66.36 87.78 66.36 87.89 66.36 88.01 66.36 88.12 66.36 88.23 65.95 88.35 66.36 88.46 66.36 88.58 66.36 88.69 66.36 88.8 66.36 88.92 65.95 89.03 66.36 89.15 65.95 89.26 65.95 89.37 66.36 89.49 65.95 89.6 65.95 89.71 66.36 89.83 65.95 89.94 65.95 90.06 65.95 90.17 66.36 90.28 66.36 90.4 66.36 90.51 66.36 90.63 66.36 90.74 65.95 90.85 66.36 90.97 66.36 91.08 66.78 91.2 66.36 91.31 66.78 91.42 66.36 91.54 66.36 91.65 66.36 91.77 65.95 91.88 66.36 91.99 65.95 92.11 66.36 92.22 65.95 92.33 66.36 92.45 66.36 92.56 66.36 92.68 66.36 92.79 66.36 92.9 65.95 93.02 65.95 93.13 66.36 93.25 66.36 93.36 65.95 93.47 66.36 93.59 66.36 93.7 66.36 93.82 66.36 93.93 65.95 94.04 65.95 94.16 65.95 94.27 66.36 94.39 66.36 94.5 66.36 94.61 66.78 94.73 66.36 94.84 66.36 94.95 66.36 95.07 66.36 95.18 66.36 95.3 66.36 95.41 66.36 95.52 66.36 95.64 66.36 95.75 66.36 95.87 66.78 95.98 66.36 96.09 66.36 96.21 66.36 96.32 66.36 96.44 66.36 96.55 66.78 96.66 66.36 96.78 66.36 96.89 66.36 97.01 66.36 97.12 66.36 97.23 66.36 97.35 66.36 97.46 66.36 97.57 66.36 97.69 66.36 97.8 66.36 97.92 66.36 98.03 66.36 98.14 66.36 98.26 66.36 98.37 66.78 98.49 66.78 98.6 66.36 98.71 66.36 98.83 66.36 98.94 66.78 99.06 66.78 99.17 66.78 99.28 66.78 99.4 66.78 99.51 66.78 99.63 66.78 99.74 66.36 99.85 66.36 99.97 66.36 100.08 66.36 100.2 66.36 100.31 66.36 100.42 66.36 100.54 65.95 100.65 66.36 100.76 66.36 100.88 66.36 100.99 66.36 101.11 65.95 101.22 66.36 101.33 66.36 101.45 66.36 101.56 66.36 101.68 66.36 101.79 66.36 101.9 66.36 102.02 66.36 102.13 66.36 102.25 66.36 102.36 66.36 102.47 66.36 102.59 66.36 102.7 65.95 102.82 66.36 102.93 66.36 103.04 66.36 103.16 66.36 103.27 66.36 103.38 66.36 103.5 66.36 103.61 66.36 103.73 66.36 103.84 66.36 103.95 66.36 104.07 65.95 104.18 65.95 104.3 66.36 104.41 66.36 104.52 66.36 104.64 66.78 104.75 66.78 104.87 66.78 104.98 66.78 105.09 66.36 105.21 66.36 105.32 66.78 105.44 66.36 105.55 66.36 105.66 66.78 105.78 66.78 105.89 66.36 106 66.36 106.12 65.95 106.23 66.36 106.35 66.36 106.46 66.36 106.57 66.36 106.69 66.36 106.8 65.95 106.92 66.36 107.03 66.36 107.14 66.36 107.26 66.36 107.37 66.36 107.49 66.36 107.6 66.36 107.71 66.36 107.83 66.36 107.94 66.36 108.06 66.36 108.17 66.36 108.28 66.36 108.4 66.36 108.51 66.36 108.63 66.36 108.74 66.36 108.85 66.36 108.97 66.36 109.08 66.36 109.19 66.36 109.31 66.36 109.42 66.36 109.54 66.36 109.65 66.36 109.76 66.36 109.88 66.36 109.99 66.36 110.11 66.36 110.22 66.78 110.33 66.78 110.45 66.36 110.56 66.36 110.68 66.36 110.79 66.36 110.9 66.36 111.02 66.36 111.13 66.36 111.25 66.36 111.36 66.36 111.47 66.78 111.59 66.78 111.7 66.78 111.81 66.78 111.93 66.36 112.04 66.36 112.16 66.36 112.27 66.36 112.38 66.36 112.5 66.36 112.61 66.36 112.73 66.36 112.84 66.36 112.95 65.95 113.07 65.95 113.18 65.95 113.3 65.95 113.41 65.95 113.52 66.36 113.64 66.36 113.75 66.36 113.87 66.36 113.98 66.36 114.09 66.36 114.21 66.36 114.32 66.36 114.43 66.36 114.55 66.36 114.66 66.36 114.78 66.36 114.89 66.78 115 66.36 115.12 66.78 115.23 66.36 115.35 66.36 115.46 66.36 115.57 66.36 115.69 66.36 115.8 66.36 115.92 66.36 116.03 66.36 116.14 66.36 116.26 66.36 116.37 66.36 116.49 66.36 116.6 66.36 116.71 66.36 116.83 66.36 116.94 66.36 117.05 66.36 117.17 66.36 117.28 66.36 117.4 66.36 117.51 66.36 117.62 66.36 117.74 66.36 117.85 65.95 117.97 66.36 118.08 66.36 118.19 65.95 118.31 65.95 118.42 66.36 118.54 66.36 118.65 66.36 118.76 66.36 118.88 66.36 118.99 66.36 119.11 65.95 119.22 66.36 119.33 66.36 119.45 65.95 119.56 66.36 119.68 66.36 119.79 66.36 119.9 66.36 120.02 66.36 120.13 66.36 120.24 66.36 120.36 66.36 120.47 66.36 120.59 66.36 120.7 66.36 120.81 66.36 120.93 66.36 121.04 66.78 121.16 66.78 121.27 66.78 121.38 66.36 121.5 66.36 121.61 66.36 121.73 66.78 121.84 66.36 121.95 66.36 122.07 66.36 122.18 66.36 122.3 66.36 122.41 66.78 122.52 66.36 122.64 66.36 122.75 66.36 122.86 66.36 122.98 66.36 123.09 66.36 123.21 66.36 123.32 66.78 123.43 66.78 123.55 66.36 123.66 66.36 123.78 66.78 123.89 66.78 124 66.36 124.12 66.36 124.23 66.36 124.35 66.78 124.46 66.78 124.57 66.36 124.69 66.78 124.8 66.78 124.92 66.36 125.03 66.78 125.14 66.36 125.26 66.78 125.37 66.36 125.48 66.36 125.6 66.78 125.71 66.36 125.83 66.36 125.94 66.36 126.05 66.36 126.17 66.36 126.28 66.36 126.4 66.36 126.51 66.36 126.62 66.36 126.74 66.36 126.85 66.36 126.97 66.36 127.08 66.36 127.19 66.36 127.31 66.36 127.42 66.36 127.54 66.78 127.65 66.78 127.76 66.78 127.88 66.78 127.99 66.78 128.1 66.78 128.22 66.36 128.33 66.36 128.45 66.36 128.56 66.78 128.67 66.78 128.79 66.78 128.9 66.78 129.02 66.36 129.13 66.36 129.24 66.78 129.36 66.78 129.47 66.36 129.59 66.36 129.7 66.36 129.81 66.36 129.93 66.36 130.04 66.36 130.16 66.78 130.27 66.36 130.38 66.36 130.5 66.36 130.61 66.36 130.73 66.36 130.84 66.36 130.95 66.36 131.07 66.36 131.18 66.78 131.29 66.78 131.41 66.78 131.52 66.78 131.64 66.78 131.75 66.78 131.86 66.78 131.98 66.78 132.09 66.36 132.21 66.36 132.32 66.36 132.43 66.36 132.55 66.36 132.66 66.36 132.78 66.36 132.89 66.36 133 66.36 133.12 66.78 133.23 66.78 133.35 66.78 133.46 66.36 133.57 66.36 133.69 66.36 133.8 66.36 133.91 66.36 134.03 66.78 134.14 66.78 134.26 66.78 134.37 66.36 134.48 66.78 134.6 66.78 134.71 66.78 134.83 66.36 134.94 66.78 135.05 66.78 135.17 66.78 135.28 66.78 135.4 66.78 135.51 66.78 135.62 66.78" id="img-09a4fa96-39" stroke="#00BFFF" class="geometry color_9"/>
        <path fill="none" d="M21.82,27.9 L 21.93 29.99 22.05 31.25 22.16 32.92 22.28 33.34 22.39 33.76 22.5 33.76 22.62 33.76 22.73 34.59 22.84 35.01 22.96 34.59 23.07 34.59 23.19 35.01 23.3 35.43 23.41 36.26 23.53 35.85 23.64 35.43 23.76 35.43 23.87 35.85 23.98 35.85 24.1 36.26 24.21 36.26 24.33 35.85 24.44 35.85 24.55 35.85 24.67 36.26 24.78 36.26 24.9 35.85 25.01 36.26 25.12 36.26 25.24 36.68 25.35 36.26 25.46 36.68 25.58 36.26 25.69 36.26 25.81 36.68 25.92 36.68 26.03 36.68 26.15 36.68 26.26 37.1 26.38 37.1 26.49 37.1 26.6 37.1 26.72 37.52 26.83 37.52 26.95 37.94 27.06 37.94 27.17 37.94 27.29 37.94 27.4 37.52 27.52 37.94 27.63 37.94 27.74 36.68 27.86 37.52 27.97 37.94 28.08 37.94 28.2 38.35 28.31 38.35 28.43 38.77 28.54 39.19 28.65 38.77 28.77 39.19 28.88 38.77 29 38.77 29.11 39.19 29.22 39.19 29.34 40.03 29.45 40.03 29.57 40.03 29.68 40.03 29.79 39.61 29.91 40.03 30.02 40.03 30.14 39.61 30.25 39.61 30.36 40.03 30.48 40.03 30.59 40.44 30.71 39.61 30.82 40.44 30.93 39.61 31.05 39.61 31.16 40.03 31.27 40.03 31.39 39.61 31.5 40.44 31.62 40.03 31.73 40.03 31.84 40.44 31.96 40.86 32.07 40.44 32.19 40.86 32.3 40.44 32.41 40.44 32.53 40.44 32.64 40.44 32.76 40.03 32.87 40.44 32.98 40.86 33.1 40.86 33.21 40.86 33.33 40.86 33.44 40.86 33.55 40.86 33.67 41.28 33.78 41.28 33.89 41.7 34.01 41.7 34.12 41.28 34.24 41.7 34.35 42.12 34.46 42.12 34.58 41.28 34.69 41.7 34.81 41.7 34.92 41.7 35.03 41.7 35.15 42.12 35.26 42.53 35.38 42.53 35.49 42.53 35.6 42.12 35.72 42.12 35.83 41.7 35.95 42.12 36.06 42.95 36.17 42.95 36.29 42.12 36.4 42.12 36.51 42.12 36.63 42.12 36.74 42.53 36.86 42.95 36.97 43.79 37.08 43.79 37.2 43.37 37.31 43.37 37.43 43.79 37.54 43.79 37.65 44.21 37.77 43.79 37.88 44.21 38 44.21 38.11 44.21 38.22 43.79 38.34 42.95 38.45 43.37 38.57 43.79 38.68 44.21 38.79 44.21 38.91 44.21 39.02 44.21 39.13 43.79 39.25 44.21 39.36 44.62 39.48 43.79 39.59 43.79 39.7 44.21 39.82 44.62 39.93 44.62 40.05 44.62 40.16 44.62 40.27 45.04 40.39 44.62 40.5 45.04 40.62 45.04 40.73 45.04 40.84 45.46 40.96 45.04 41.07 45.04 41.19 44.62 41.3 44.21 41.41 44.21 41.53 44.21 41.64 44.21 41.76 44.21 41.87 44.62 41.98 44.62 42.1 44.62 42.21 44.21 42.32 44.62 42.44 45.04 42.55 45.46 42.67 45.46 42.78 45.46 42.89 45.46 43.01 45.46 43.12 45.46 43.24 45.04 43.35 44.62 43.46 45.46 43.58 45.46 43.69 45.04 43.81 45.46 43.92 45.46 44.03 45.46 44.15 45.46 44.26 45.46 44.38 44.62 44.49 45.04 44.6 45.46 44.72 45.04 44.83 45.04 44.94 45.46 45.06 45.88 45.17 45.88 45.29 45.46 45.4 45.46 45.51 45.46 45.63 45.88 45.74 45.46 45.86 45.88 45.97 46.3 46.08 45.88 46.2 45.88 46.31 46.3 46.43 45.88 46.54 45.46 46.65 45.88 46.77 45.46 46.88 45.46 47 45.88 47.11 45.88 47.22 45.88 47.34 45.88 47.45 45.46 47.56 46.3 47.68 46.3 47.79 45.88 47.91 45.88 48.02 45.88 48.13 46.3 48.25 46.72 48.36 46.72 48.48 45.88 48.59 46.3 48.7 47.13 48.82 47.13 48.93 47.13 49.05 47.13 49.16 47.13 49.27 47.13 49.39 47.55 49.5 47.55 49.62 47.13 49.73 47.13 49.84 47.55 49.96 47.55 50.07 47.55 50.19 47.55 50.3 47.55 50.41 47.55 50.53 47.13 50.64 47.13 50.75 46.3 50.87 46.72 50.98 46.72 51.1 47.13 51.21 46.72 51.32 47.13 51.44 47.13 51.55 47.13 51.67 47.13 51.78 47.55 51.89 47.13 52.01 47.13 52.12 47.13 52.24 47.13 52.35 47.13 52.46 46.72 52.58 46.72 52.69 46.72 52.81 46.72 52.92 46.72 53.03 46.72 53.15 46.72 53.26 46.72 53.37 47.13 53.49 47.13 53.6 47.13 53.72 47.55 53.83 47.55 53.94 47.13 54.06 47.13 54.17 47.55 54.29 47.55 54.4 47.55 54.51 47.97 54.63 47.97 54.74 47.97 54.86 48.39 54.97 48.39 55.08 47.97 55.2 48.39 55.31 47.97 55.43 47.97 55.54 47.97 55.65 48.39 55.77 48.39 55.88 48.81 55.99 48.39 56.11 48.39 56.22 48.39 56.34 47.97 56.45 47.97 56.56 47.55 56.68 47.55 56.79 47.55 56.91 47.55 57.02 47.55 57.13 47.97 57.25 47.97 57.36 47.97 57.48 47.97 57.59 48.39 57.7 48.39 57.82 48.39 57.93 47.97 58.05 47.97 58.16 48.39 58.27 47.97 58.39 48.39 58.5 48.39 58.61 47.97 58.73 47.97 58.84 48.39 58.96 48.39 59.07 47.97 59.18 48.39 59.3 48.39 59.41 48.39 59.53 48.39 59.64 48.81 59.75 48.81 59.87 47.97 59.98 48.81 60.1 48.39 60.21 47.97 60.32 47.55 60.44 48.81 60.55 49.22 60.67 47.97 60.78 47.55 60.89 47.55 61.01 47.97 61.12 47.97 61.24 47.97 61.35 48.39 61.46 47.97 61.58 48.39 61.69 47.97 61.8 47.55 61.92 47.55 62.03 47.55 62.15 47.97 62.26 47.97 62.37 48.39 62.49 48.81 62.6 48.39 62.72 48.39 62.83 49.22 62.94 48.81 63.06 48.39 63.17 48.81 63.29 48.39 63.4 48.81 63.51 48.81 63.63 48.81 63.74 48.39 63.86 48.39 63.97 48.81 64.08 48.81 64.2 48.81 64.31 48.81 64.42 48.81 64.54 48.81 64.65 49.64 64.77 49.22 64.88 48.81 64.99 48.39 65.11 48.39 65.22 48.39 65.34 47.97 65.45 48.39 65.56 48.39 65.68 47.97 65.79 48.39 65.91 48.81 66.02 48.81 66.13 49.22 66.25 48.81 66.36 48.81 66.48 49.22 66.59 49.22 66.7 49.22 66.82 49.64 66.93 49.22 67.04 48.81 67.16 49.22 67.27 48.81 67.39 48.39 67.5 48.39 67.61 48.81 67.73 48.81 67.84 49.22 67.96 48.81 68.07 48.81 68.18 48.81 68.3 48.39 68.41 48.81 68.53 48.81 68.64 49.22 68.75 48.81 68.87 48.81 68.98 48.39 69.1 47.97 69.21 47.55 69.32 47.55 69.44 47.97 69.55 47.97 69.67 47.97 69.78 48.39 69.89 48.81 70.01 48.39 70.12 48.39 70.23 48.39 70.35 47.97 70.46 48.39 70.58 48.39 70.69 49.22 70.8 48.81 70.92 48.39 71.03 48.39 71.15 48.81 71.26 48.39 71.37 48.39 71.49 48.39 71.6 48.39 71.72 48.39 71.83 48.81 71.94 47.97 72.06 48.39 72.17 48.81 72.29 48.39 72.4 48.39 72.51 48.39 72.63 48.81 72.74 49.22 72.85 48.81 72.97 48.81 73.08 49.22 73.2 49.22 73.31 49.22 73.42 49.22 73.54 49.22 73.65 48.81 73.77 48.81 73.88 48.81 73.99 48.81 74.11 48.81 74.22 48.81 74.34 48.81 74.45 48.81 74.56 48.81 74.68 48.81 74.79 49.22 74.91 48.81 75.02 49.22 75.13 48.39 75.25 49.22 75.36 49.22 75.47 49.22 75.59 49.22 75.7 49.22 75.82 49.22 75.93 49.64 76.04 49.22 76.16 48.81 76.27 49.64 76.39 49.64 76.5 50.06 76.61 50.06 76.73 50.06 76.84 49.64 76.96 50.06 77.07 49.64 77.18 49.64 77.3 50.06 77.41 49.64 77.53 49.64 77.64 49.64 77.75 49.22 77.87 49.22 77.98 49.64 78.09 49.22 78.21 49.22 78.32 49.22 78.44 49.64 78.55 50.06 78.66 50.48 78.78 50.9 78.89 50.48 79.01 50.48 79.12 50.06 79.23 50.06 79.35 49.64 79.46 49.64 79.58 50.06 79.69 49.64 79.8 50.06 79.92 49.64 80.03 50.06 80.15 50.06 80.26 50.06 80.37 49.64 80.49 49.22 80.6 49.64 80.72 49.64 80.83 49.64 80.94 49.64 81.06 49.22 81.17 49.64 81.28 50.06 81.4 49.64 81.51 50.06 81.63 50.06 81.74 50.06 81.85 50.06 81.97 50.48 82.08 50.06 82.2 49.64 82.31 49.64 82.42 48.81 82.54 48.81 82.65 49.64 82.77 49.64 82.88 49.64 82.99 49.64 83.11 49.64 83.22 49.64 83.34 49.64 83.45 49.64 83.56 50.06 83.68 50.06 83.79 49.64 83.9 50.06 84.02 49.64 84.13 49.64 84.25 49.64 84.36 50.06 84.47 49.64 84.59 49.64 84.7 49.64 84.82 49.64 84.93 49.64 85.04 49.22 85.16 49.64 85.27 49.64 85.39 50.06 85.5 50.48 85.61 50.06 85.73 49.64 85.84 50.06 85.96 49.64 86.07 49.64 86.18 49.64 86.3 50.48 86.41 50.06 86.52 50.06 86.64 49.64 86.75 49.64 86.87 49.64 86.98 49.64 87.09 50.06 87.21 50.06 87.32 49.64 87.44 49.22 87.55 49.64 87.66 49.22 87.78 49.64 87.89 50.06 88.01 50.06 88.12 49.64 88.23 49.64 88.35 50.48 88.46 50.06 88.58 50.06 88.69 50.48 88.8 50.06 88.92 50.48 89.03 50.06 89.15 50.06 89.26 49.64 89.37 49.64 89.49 49.64 89.6 49.64 89.71 49.64 89.83 49.64 89.94 49.64 90.06 49.64 90.17 50.06 90.28 50.06 90.4 50.06 90.51 49.64 90.63 49.64 90.74 50.48 90.85 49.64 90.97 49.22 91.08 49.64 91.2 49.22 91.31 48.81 91.42 49.22 91.54 49.22 91.65 49.64 91.77 49.22 91.88 49.64 91.99 49.22 92.11 49.22 92.22 49.22 92.33 50.06 92.45 50.06 92.56 50.06 92.68 49.64 92.79 49.64 92.9 49.64 93.02 50.06 93.13 50.06 93.25 49.64 93.36 49.22 93.47 48.81 93.59 49.22 93.7 49.22 93.82 49.64 93.93 50.48 94.04 50.48 94.16 50.48 94.27 50.48 94.39 49.64 94.5 49.64 94.61 50.06 94.73 49.64 94.84 49.64 94.95 50.06 95.07 50.06 95.18 50.06 95.3 49.64 95.41 49.22 95.52 49.64 95.64 49.64 95.75 49.64 95.87 49.64 95.98 50.48 96.09 50.48 96.21 50.48 96.32 50.06 96.44 50.48 96.55 50.06 96.66 50.06 96.78 49.64 96.89 49.64 97.01 49.64 97.12 49.64 97.23 50.06 97.35 50.06 97.46 50.06 97.57 50.48 97.69 49.64 97.8 49.64 97.92 49.64 98.03 49.22 98.14 49.64 98.26 49.22 98.37 49.64 98.49 50.06 98.6 50.06 98.71 50.06 98.83 50.48 98.94 50.48 99.06 50.48 99.17 50.48 99.28 50.48 99.4 50.48 99.51 50.48 99.63 50.48 99.74 50.48 99.85 50.06 99.97 50.06 100.08 50.06 100.2 49.64 100.31 49.64 100.42 49.22 100.54 48.81 100.65 49.64 100.76 49.22 100.88 49.22 100.99 50.06 101.11 50.06 101.22 49.64 101.33 49.64 101.45 49.64 101.56 49.22 101.68 50.06 101.79 50.06 101.9 49.64 102.02 50.48 102.13 50.9 102.25 50.48 102.36 50.48 102.47 50.48 102.59 50.48 102.7 49.64 102.82 49.64 102.93 50.06 103.04 50.06 103.16 49.64 103.27 50.06 103.38 50.48 103.5 50.48 103.61 50.48 103.73 50.06 103.84 49.64 103.95 49.64 104.07 50.48 104.18 50.48 104.3 50.48 104.41 50.48 104.52 50.48 104.64 50.48 104.75 50.9 104.87 50.48 104.98 50.06 105.09 50.48 105.21 50.9 105.32 50.9 105.44 50.9 105.55 50.9 105.66 51.31 105.78 50.06 105.89 50.06 106 50.48 106.12 49.64 106.23 50.48 106.35 50.9 106.46 50.9 106.57 50.48 106.69 50.06 106.8 50.06 106.92 50.06 107.03 49.64 107.14 50.06 107.26 50.48 107.37 50.48 107.49 50.06 107.6 50.48 107.71 50.06 107.83 50.48 107.94 50.06 108.06 50.06 108.17 50.48 108.28 50.06 108.4 50.06 108.51 50.06 108.63 50.48 108.74 50.48 108.85 50.48 108.97 50.48 109.08 50.48 109.19 51.31 109.31 50.06 109.42 50.48 109.54 50.9 109.65 50.48 109.76 50.48 109.88 50.48 109.99 50.06 110.11 50.48 110.22 50.06 110.33 50.06 110.45 50.06 110.56 50.48 110.68 50.48 110.79 50.06 110.9 50.48 111.02 50.48 111.13 50.48 111.25 50.06 111.36 50.06 111.47 50.06 111.59 50.06 111.7 50.9 111.81 50.48 111.93 50.9 112.04 50.9 112.16 51.31 112.27 51.31 112.38 50.48 112.5 50.06 112.61 50.06 112.73 50.48 112.84 50.06 112.95 50.06 113.07 50.06 113.18 50.06 113.3 49.64 113.41 50.06 113.52 50.48 113.64 50.06 113.75 49.64 113.87 49.64 113.98 49.64 114.09 49.64 114.21 50.06 114.32 50.06 114.43 49.64 114.55 50.06 114.66 49.64 114.78 50.06 114.89 50.06 115 50.06 115.12 50.48 115.23 50.06 115.35 49.64 115.46 49.64 115.57 49.22 115.69 49.64 115.8 50.06 115.92 50.48 116.03 50.06 116.14 50.06 116.26 50.06 116.37 50.06 116.49 49.64 116.6 50.06 116.71 49.64 116.83 49.22 116.94 50.06 117.05 49.64 117.17 50.06 117.28 50.48 117.4 50.48 117.51 50.48 117.62 50.48 117.74 50.06 117.85 50.06 117.97 50.06 118.08 50.48 118.19 49.64 118.31 50.06 118.42 50.48 118.54 50.06 118.65 50.06 118.76 49.22 118.88 49.64 118.99 49.64 119.11 50.06 119.22 50.06 119.33 50.06 119.45 50.06 119.56 50.06 119.68 50.48 119.79 50.48 119.9 50.48 120.02 50.48 120.13 50.48 120.24 50.06 120.36 50.06 120.47 49.64 120.59 50.06 120.7 49.22 120.81 50.06 120.93 49.64 121.04 50.06 121.16 49.64 121.27 50.06 121.38 50.06 121.5 50.06 121.61 50.06 121.73 50.06 121.84 49.64 121.95 50.06 122.07 50.06 122.18 49.64 122.3 49.64 122.41 49.64 122.52 49.64 122.64 49.64 122.75 50.06 122.86 50.48 122.98 50.06 123.09 49.64 123.21 49.22 123.32 49.64 123.43 49.64 123.55 50.06 123.66 50.48 123.78 50.06 123.89 49.64 124 49.22 124.12 49.22 124.23 50.06 124.35 50.06 124.46 50.48 124.57 50.48 124.69 50.48 124.8 50.48 124.92 50.06 125.03 50.06 125.14 50.06 125.26 50.06 125.37 50.06 125.48 50.06 125.6 50.06 125.71 49.64 125.83 49.64 125.94 50.06 126.05 49.64 126.17 50.48 126.28 50.48 126.4 50.48 126.51 50.48 126.62 50.06 126.74 50.48 126.85 50.06 126.97 50.06 127.08 50.06 127.19 50.06 127.31 50.06 127.42 50.48 127.54 50.06 127.65 50.06 127.76 50.06 127.88 50.48 127.99 50.48 128.1 50.48 128.22 50.06 128.33 50.48 128.45 50.48 128.56 50.48 128.67 50.9 128.79 50.9 128.9 50.9 129.02 50.48 129.13 50.48 129.24 50.06 129.36 50.06 129.47 50.48 129.59 50.06 129.7 49.64 129.81 50.06 129.93 50.06 130.04 50.06 130.16 50.48 130.27 50.48 130.38 50.48 130.5 50.48 130.61 50.48 130.73 50.06 130.84 50.48 130.95 50.48 131.07 50.48 131.18 50.9 131.29 50.9 131.41 50.48 131.52 50.06 131.64 50.48 131.75 50.06 131.86 50.48 131.98 50.06 132.09 50.06 132.21 49.64 132.32 50.06 132.43 49.22 132.55 49.64 132.66 49.64 132.78 49.64 132.89 49.64 133 49.64 133.12 49.64 133.23 50.48 133.35 50.48 133.46 50.48 133.57 50.48 133.69 50.48 133.8 50.9 133.91 50.48 134.03 50.48 134.14 50.48 134.26 50.9 134.37 50.06 134.48 50.48 134.6 50.48 134.71 50.06 134.83 50.06 134.94 50.06 135.05 50.48 135.17 50.06 135.28 50.06 135.4 50.06 135.51 49.64 135.62 49.64" id="img-09a4fa96-40" stroke="#BEA9FF" class="geometry color_49"/>
        <path fill="none" d="M21.82,27.9 L 21.93 26.65 22.05 27.07 22.16 26.65 22.28 26.65 22.39 27.07 22.5 26.23 22.62 26.23 22.73 25.81 22.84 25.81 22.96 25.81 23.07 25.81 23.19 25.39 23.3 25.39 23.41 25.39 23.53 25.39 23.64 24.98 23.76 25.81 23.87 26.65 23.98 26.23 24.1 26.23 24.21 26.23 24.33 26.23 24.44 25.81 24.55 26.65 24.67 26.23 24.78 26.65 24.9 27.07 25.01 27.07 25.12 27.48 25.24 27.07 25.35 27.07 25.46 27.9 25.58 27.48 25.69 27.48 25.81 26.65 25.92 27.48 26.03 27.9 26.15 28.32 26.26 27.48 26.38 27.48 26.49 27.9 26.6 27.9 26.72 28.32 26.83 28.74 26.95 28.32 27.06 28.74 27.17 28.74 27.29 28.32 27.4 28.32 27.52 27.9 27.63 28.32 27.74 28.32 27.86 28.74 27.97 29.16 28.08 29.16 28.2 29.16 28.31 29.57 28.43 29.16 28.54 29.57 28.65 29.99 28.77 29.57 28.88 28.74 29 29.16 29.11 28.74 29.22 28.74 29.34 28.74 29.45 28.74 29.57 29.16 29.68 29.57 29.79 30.41 29.91 29.99 30.02 30.41 30.14 29.99 30.25 30.41 30.36 30.41 30.48 30.83 30.59 30.41 30.71 30.41 30.82 29.99 30.93 29.99 31.05 29.99 31.16 29.99 31.27 29.99 31.39 30.83 31.5 30.83 31.62 30.83 31.73 30.83 31.84 31.25 31.96 31.25 32.07 31.25 32.19 31.25 32.3 31.25 32.41 30.83 32.53 30.41 32.64 30.83 32.76 30.83 32.87 30.83 32.98 30.83 33.1 30.41 33.21 31.25 33.33 31.67 33.44 31.67 33.55 30.83 33.67 31.25 33.78 31.25 33.89 31.25 34.01 31.67 34.12 31.25 34.24 30.83 34.35 30.41 34.46 30.83 34.58 31.25 34.69 31.67 34.81 31.67 34.92 31.67 35.03 31.67 35.15 31.25 35.26 31.67 35.38 32.5 35.49 32.08 35.6 31.67 35.72 31.67 35.83 32.08 35.95 32.5 36.06 32.08 36.17 31.67 36.29 31.67 36.4 32.08 36.51 32.5 36.63 32.92 36.74 32.5 36.86 32.5 36.97 32.92 37.08 32.92 37.2 32.5 37.31 32.92 37.43 32.08 37.54 32.08 37.65 32.5 37.77 32.5 37.88 32.92 38 32.5 38.11 32.5 38.22 33.34 38.34 32.92 38.45 32.5 38.57 32.5 38.68 32.5 38.79 32.5 38.91 32.5 39.02 32.08 39.13 32.08 39.25 32.08 39.36 32.5 39.48 32.92 39.59 32.5 39.7 33.34 39.82 33.34 39.93 33.34 40.05 32.92 40.16 33.34 40.27 33.76 40.39 33.34 40.5 33.34 40.62 33.34 40.73 33.34 40.84 32.92 40.96 32.92 41.07 33.34 41.19 33.34 41.3 33.76 41.41 32.92 41.53 33.34 41.64 32.92 41.76 33.76 41.87 33.34 41.98 32.92 42.1 33.34 42.21 33.34 42.32 32.92 42.44 33.34 42.55 32.92 42.67 33.76 42.78 34.17 42.89 33.34 43.01 33.34 43.12 33.34 43.24 33.34 43.35 33.76 43.46 34.17 43.58 34.17 43.69 34.17 43.81 34.17 43.92 33.76 44.03 33.34 44.15 34.17 44.26 33.34 44.38 33.76 44.49 34.17 44.6 34.17 44.72 34.17 44.83 34.17 44.94 34.17 45.06 34.17 45.17 34.59 45.29 34.17 45.4 34.59 45.51 34.17 45.63 33.76 45.74 34.17 45.86 34.59 45.97 34.17 46.08 35.01 46.2 35.01 46.31 34.59 46.43 34.17 46.54 34.59 46.65 35.01 46.77 35.43 46.88 35.01 47 35.85 47.11 35.43 47.22 35.43 47.34 35.43 47.45 35.43 47.56 35.01 47.68 35.43 47.79 35.43 47.91 35.43 48.02 35.01 48.13 35.01 48.25 35.01 48.36 34.59 48.48 35.43 48.59 34.59 48.7 35.01 48.82 35.01 48.93 35.01 49.05 35.85 49.16 35.43 49.27 35.85 49.39 35.85 49.5 35.85 49.62 35.43 49.73 35.43 49.84 35.01 49.96 34.59 50.07 35.43 50.19 35.43 50.3 35.85 50.41 35.43 50.53 35.43 50.64 35.01 50.75 35.43 50.87 35.43 50.98 35.43 51.1 35.43 51.21 35.85 51.32 35.43 51.44 35.01 51.55 35.43 51.67 35.43 51.78 35.85 51.89 36.26 52.01 35.85 52.12 35.01 52.24 35.43 52.35 35.85 52.46 35.85 52.58 35.85 52.69 36.26 52.81 35.43 52.92 35.43 53.03 35.43 53.15 35.01 53.26 35.01 53.37 35.01 53.49 35.43 53.6 35.85 53.72 35.85 53.83 35.43 53.94 35.85 54.06 35.43 54.17 35.85 54.29 36.26 54.4 35.85 54.51 35.85 54.63 35.43 54.74 35.43 54.86 35.43 54.97 35.43 55.08 35.85 55.2 35.85 55.31 35.43 55.43 35.43 55.54 34.59 55.65 34.59 55.77 34.17 55.88 34.59 55.99 35.01 56.11 35.43 56.22 34.17 56.34 33.76 56.45 34.17 56.56 34.59 56.68 35.01 56.79 34.59 56.91 34.59 57.02 34.59 57.13 35.01 57.25 34.59 57.36 34.59 57.48 35.01 57.59 34.17 57.7 34.17 57.82 34.59 57.93 35.01 58.05 34.59 58.16 34.59 58.27 34.59 58.39 35.01 58.5 34.59 58.61 34.59 58.73 35.01 58.84 35.43 58.96 35.85 59.07 36.26 59.18 35.85 59.3 35.85 59.41 35.43 59.53 35.43 59.64 35.01 59.75 35.01 59.87 35.43 59.98 35.85 60.1 35.43 60.21 35.43 60.32 35.01 60.44 35.01 60.55 35.85 60.67 35.85 60.78 35.85 60.89 35.85 61.01 35.85 61.12 35.85 61.24 35.43 61.35 35.85 61.46 35.43 61.58 35.85 61.69 35.85 61.8 36.26 61.92 35.85 62.03 35.85 62.15 35.43 62.26 35.43 62.37 35.01 62.49 35.85 62.6 35.85 62.72 35.85 62.83 35.43 62.94 35.85 63.06 35.43 63.17 35.85 63.29 35.85 63.4 35.85 63.51 36.26 63.63 36.26 63.74 35.85 63.86 35.85 63.97 35.85 64.08 36.26 64.2 36.26 64.31 36.68 64.42 35.85 64.54 36.26 64.65 36.26 64.77 35.85 64.88 35.43 64.99 35.43 65.11 35.85 65.22 35.43 65.34 35.43 65.45 35.43 65.56 35.85 65.68 35.85 65.79 35.85 65.91 35.85 66.02 36.26 66.13 36.68 66.25 36.26 66.36 36.26 66.48 36.68 66.59 36.68 66.7 37.1 66.82 36.26 66.93 36.26 67.04 36.68 67.16 36.26 67.27 36.68 67.39 36.68 67.5 36.68 67.61 35.85 67.73 35.85 67.84 35.43 67.96 35.43 68.07 35.43 68.18 35.43 68.3 35.85 68.41 35.85 68.53 35.43 68.64 36.26 68.75 36.26 68.87 35.85 68.98 35.85 69.1 35.43 69.21 35.85 69.32 36.26 69.44 35.85 69.55 35.43 69.67 35.43 69.78 36.26 69.89 36.26 70.01 35.85 70.12 36.26 70.23 35.43 70.35 35.43 70.46 35.43 70.58 35.85 70.69 35.85 70.8 35.85 70.92 35.85 71.03 35.85 71.15 35.85 71.26 35.85 71.37 35.01 71.49 35.01 71.6 35.43 71.72 35.43 71.83 35.01 71.94 36.26 72.06 36.68 72.17 36.68 72.29 36.26 72.4 36.68 72.51 36.26 72.63 35.85 72.74 35.85 72.85 36.26 72.97 36.26 73.08 36.26 73.2 36.26 73.31 37.1 73.42 36.68 73.54 37.1 73.65 36.26 73.77 36.26 73.88 36.26 73.99 36.26 74.11 37.1 74.22 37.1 74.34 36.68 74.45 36.68 74.56 36.68 74.68 36.68 74.79 36.26 74.91 35.85 75.02 35.43 75.13 35.43 75.25 35.43 75.36 35.43 75.47 35.43 75.59 35.43 75.7 35.01 75.82 35.85 75.93 35.43 76.04 35.01 76.16 35.43 76.27 35.43 76.39 35.85 76.5 35.43 76.61 35.85 76.73 35.85 76.84 35.85 76.96 35.43 77.07 35.85 77.18 35.43 77.3 35.43 77.41 35.85 77.53 35.85 77.64 36.26 77.75 35.85 77.87 35.43 77.98 35.43 78.09 35.43 78.21 35.43 78.32 35.85 78.44 35.85 78.55 35.01 78.66 35.43 78.78 35.85 78.89 35.43 79.01 35.85 79.12 35.85 79.23 35.85 79.35 35.85 79.46 35.43 79.58 35.85 79.69 35.85 79.8 35.85 79.92 35.85 80.03 36.26 80.15 36.26 80.26 35.85 80.37 35.85 80.49 35.85 80.6 35.85 80.72 35.43 80.83 35.01 80.94 35.01 81.06 35.85 81.17 35.01 81.28 35.01 81.4 34.59 81.51 35.01 81.63 35.01 81.74 35.43 81.85 35.85 81.97 36.68 82.08 35.85 82.2 35.85 82.31 35.85 82.42 36.26 82.54 36.26 82.65 36.26 82.77 36.68 82.88 35.85 82.99 35.01 83.11 36.26 83.22 36.26 83.34 35.85 83.45 36.26 83.56 36.26 83.68 36.26 83.79 36.26 83.9 36.26 84.02 36.68 84.13 36.68 84.25 37.1 84.36 37.1 84.47 36.68 84.59 37.1 84.7 36.26 84.82 36.26 84.93 36.68 85.04 37.1 85.16 37.1 85.27 36.26 85.39 36.26 85.5 36.26 85.61 36.26 85.73 36.26 85.84 35.85 85.96 36.68 86.07 35.85 86.18 36.26 86.3 36.26 86.41 36.68 86.52 36.26 86.64 36.68 86.75 36.26 86.87 35.85 86.98 35.85 87.09 35.85 87.21 35.85 87.32 36.26 87.44 36.68 87.55 37.52 87.66 37.1 87.78 36.68 87.89 36.68 88.01 37.1 88.12 36.68 88.23 36.68 88.35 37.1 88.46 36.26 88.58 36.26 88.69 37.1 88.8 36.68 88.92 37.1 89.03 37.1 89.15 37.1 89.26 37.1 89.37 37.1 89.49 36.68 89.6 37.1 89.71 36.26 89.83 35.85 89.94 36.26 90.06 36.26 90.17 36.26 90.28 35.85 90.4 36.26 90.51 36.26 90.63 36.26 90.74 35.85 90.85 35.85 90.97 36.26 91.08 36.26 91.2 36.68 91.31 36.68 91.42 36.68 91.54 36.68 91.65 37.1 91.77 36.68 91.88 36.26 91.99 36.68 92.11 36.26 92.22 36.26 92.33 36.26 92.45 36.68 92.56 36.68 92.68 36.68 92.79 37.1 92.9 37.52 93.02 36.26 93.13 36.26 93.25 36.68 93.36 36.68 93.47 36.26 93.59 35.85 93.7 35.85 93.82 35.01 93.93 35.43 94.04 34.59 94.16 34.17 94.27 35.01 94.39 35.43 94.5 35.85 94.61 35.85 94.73 35.01 94.84 35.01 94.95 35.85 95.07 35.43 95.18 35.85 95.3 35.85 95.41 36.68 95.52 36.26 95.64 36.26 95.75 35.85 95.87 35.85 95.98 35.43 96.09 35.85 96.21 35.43 96.32 35.43 96.44 35.43 96.55 35.43 96.66 35.01 96.78 35.43 96.89 35.85 97.01 35.43 97.12 35.43 97.23 35.85 97.35 35.43 97.46 36.26 97.57 35.85 97.69 36.68 97.8 36.68 97.92 36.26 98.03 35.85 98.14 35.85 98.26 35.85 98.37 35.85 98.49 35.43 98.6 35.85 98.71 35.43 98.83 35.01 98.94 35.01 99.06 35.43 99.17 35.85 99.28 35.01 99.4 35.01 99.51 35.01 99.63 35.01 99.74 36.26 99.85 35.43 99.97 35.85 100.08 35.85 100.2 36.26 100.31 36.26 100.42 36.26 100.54 36.26 100.65 35.85 100.76 36.26 100.88 36.68 100.99 36.68 101.11 36.68 101.22 36.68 101.33 36.26 101.45 36.68 101.56 36.26 101.68 36.26 101.79 36.26 101.9 36.26 102.02 36.68 102.13 37.1 102.25 37.1 102.36 37.1 102.47 36.68 102.59 36.68 102.7 36.26 102.82 36.26 102.93 36.26 103.04 36.68 103.16 36.68 103.27 36.68 103.38 37.1 103.5 36.68 103.61 36.26 103.73 36.68 103.84 36.68 103.95 36.26 104.07 35.85 104.18 35.85 104.3 36.26 104.41 36.26 104.52 35.85 104.64 36.26 104.75 36.68 104.87 36.26 104.98 36.26 105.09 36.26 105.21 35.85 105.32 35.43 105.44 36.26 105.55 36.26 105.66 36.68 105.78 37.1 105.89 36.26 106 36.68 106.12 36.26 106.23 36.26 106.35 36.26 106.46 35.85 106.57 36.26 106.69 36.26 106.8 36.26 106.92 36.26 107.03 36.26 107.14 36.26 107.26 36.68 107.37 37.52 107.49 37.1 107.6 36.68 107.71 36.26 107.83 36.68 107.94 36.68 108.06 36.68 108.17 36.68 108.28 36.26 108.4 36.26 108.51 36.26 108.63 36.26 108.74 35.85 108.85 36.26 108.97 35.85 109.08 36.26 109.19 36.68 109.31 36.68 109.42 36.68 109.54 36.68 109.65 36.68 109.76 36.68 109.88 35.85 109.99 36.26 110.11 36.26 110.22 36.68 110.33 36.26 110.45 36.68 110.56 36.68 110.68 36.26 110.79 36.26 110.9 36.68 111.02 36.68 111.13 37.1 111.25 37.1 111.36 36.68 111.47 36.26 111.59 36.68 111.7 37.1 111.81 36.68 111.93 36.68 112.04 37.1 112.16 37.1 112.27 37.1 112.38 36.68 112.5 37.1 112.61 36.26 112.73 35.85 112.84 35.85 112.95 35.43 113.07 35.43 113.18 35.85 113.3 35.43 113.41 35.85 113.52 36.26 113.64 36.26 113.75 35.85 113.87 35.85 113.98 36.26 114.09 35.85 114.21 35.85 114.32 35.43 114.43 35.43 114.55 36.26 114.66 35.43 114.78 35.43 114.89 35.85 115 35.43 115.12 35.85 115.23 35.01 115.35 35.43 115.46 35.43 115.57 35.43 115.69 35.43 115.8 35.85 115.92 35.85 116.03 35.43 116.14 35.43 116.26 36.26 116.37 35.85 116.49 35.85 116.6 36.68 116.71 37.52 116.83 36.26 116.94 36.68 117.05 36.26 117.17 35.85 117.28 36.26 117.4 35.85 117.51 35.85 117.62 36.26 117.74 36.68 117.85 35.85 117.97 36.26 118.08 36.68 118.19 36.26 118.31 35.85 118.42 35.85 118.54 35.85 118.65 36.68 118.76 36.26 118.88 36.26 118.99 36.68 119.11 36.68 119.22 36.68 119.33 36.26 119.45 36.68 119.56 35.85 119.68 36.26 119.79 36.26 119.9 36.26 120.02 35.43 120.13 35.01 120.24 35.85 120.36 35.85 120.47 36.26 120.59 36.26 120.7 35.85 120.81 35.85 120.93 35.85 121.04 35.43 121.16 35.85 121.27 35.43 121.38 35.85 121.5 35.85 121.61 35.43 121.73 35.85 121.84 36.26 121.95 36.68 122.07 35.43 122.18 36.26 122.3 35.85 122.41 36.26 122.52 35.85 122.64 35.43 122.75 35.85 122.86 35.43 122.98 35.85 123.09 35.85 123.21 35.85 123.32 36.26 123.43 36.26 123.55 35.43 123.66 35.43 123.78 35.43 123.89 35.43 124 35.43 124.12 35.43 124.23 35.85 124.35 35.85 124.46 35.85 124.57 35.85 124.69 35.85 124.8 35.85 124.92 35.43 125.03 35.85 125.14 35.43 125.26 35.01 125.37 35.01 125.48 35.43 125.6 35.43 125.71 35.85 125.83 35.85 125.94 35.85 126.05 35.85 126.17 35.43 126.28 35.01 126.4 35.85 126.51 35.43 126.62 35.43 126.74 35.43 126.85 35.43 126.97 35.01 127.08 35.43 127.19 35.85 127.31 36.26 127.42 35.85 127.54 35.85 127.65 35.85 127.76 35.43 127.88 35.43 127.99 36.26 128.1 35.85 128.22 35.85 128.33 35.85 128.45 35.85 128.56 35.85 128.67 36.26 128.79 36.68 128.9 36.68 129.02 36.26 129.13 36.68 129.24 36.26 129.36 35.85 129.47 36.26 129.59 35.85 129.7 35.43 129.81 35.85 129.93 36.26 130.04 36.26 130.16 36.26 130.27 36.68 130.38 37.1 130.5 36.68 130.61 36.26 130.73 35.85 130.84 36.26 130.95 35.85 131.07 35.43 131.18 35.85 131.29 35.43 131.41 35.85 131.52 35.43 131.64 36.26 131.75 36.26 131.86 36.26 131.98 36.68 132.09 36.68 132.21 36.26 132.32 36.26 132.43 36.68 132.55 37.1 132.66 36.26 132.78 37.1 132.89 36.26 133 36.26 133.12 35.85 133.23 35.85 133.35 35.43 133.46 35.01 133.57 35.85 133.69 35.85 133.8 35.43 133.91 35.85 134.03 36.26 134.14 36.26 134.26 36.26 134.37 36.68 134.48 36.68 134.6 36.26 134.71 36.26 134.83 35.85 134.94 35.85 135.05 36.26 135.17 36.68 135.28 36.68 135.4 37.1 135.51 36.68 135.62 36.68" id="img-09a4fa96-41" stroke="#C6C6C6" class="geometry color_81"/>
        <path fill="none" d="M21.82,31.67 L 21.93 52.15 22.05 54.66 22.16 55.91 22.28 56.75 22.39 57.17 22.5 57.58 22.62 57.58 22.73 57.58 22.84 58 22.96 57.58 23.07 58 23.19 58 23.3 58.42 23.41 58.42 23.53 58.42 23.64 58.42 23.76 58 23.87 58.42 23.98 58 24.1 58 24.21 58.42 24.33 58.42 24.44 58.84 24.55 58.42 24.67 58.42 24.78 58.42 24.9 58.84 25.01 58.84 25.12 58.42 25.24 58.42 25.35 58.42 25.46 58.84 25.58 58.42 25.69 58.84 25.81 58.84 25.92 58.42 26.03 58.84 26.15 58.84 26.26 58.84 26.38 58.84 26.49 58.84 26.6 59.26 26.72 59.26 26.83 59.26 26.95 59.67 27.06 59.26 27.17 59.26 27.29 59.26 27.4 59.26 27.52 59.26 27.63 59.26 27.74 59.26 27.86 59.26 27.97 59.26 28.08 59.26 28.2 59.67 28.31 59.67 28.43 59.26 28.54 59.26 28.65 58.84 28.77 59.26 28.88 59.26 29 59.67 29.11 59.26 29.22 59.67 29.34 59.67 29.45 59.67 29.57 59.67 29.68 59.67 29.79 59.67 29.91 59.67 30.02 59.67 30.14 59.67 30.25 59.26 30.36 59.26 30.48 59.67 30.59 59.26 30.71 59.67 30.82 59.26 30.93 59.26 31.05 59.26 31.16 59.67 31.27 59.26 31.39 59.26 31.5 59.67 31.62 59.67 31.73 59.67 31.84 59.26 31.96 59.26 32.07 59.67 32.19 59.26 32.3 58.84 32.41 58.84 32.53 58.84 32.64 59.26 32.76 59.26 32.87 59.67 32.98 59.26 33.1 59.26 33.21 59.26 33.33 59.26 33.44 59.26 33.55 59.26 33.67 59.26 33.78 59.26 33.89 59.26 34.01 59.67 34.12 59.26 34.24 59.67 34.35 59.26 34.46 59.67 34.58 59.67 34.69 60.09 34.81 59.67 34.92 60.09 35.03 60.09 35.15 60.09 35.26 60.09 35.38 59.67 35.49 59.67 35.6 60.09 35.72 59.67 35.83 59.67 35.95 60.09 36.06 60.09 36.17 60.09 36.29 60.09 36.4 60.09 36.51 60.09 36.63 59.67 36.74 60.09 36.86 60.09 36.97 59.67 37.08 59.67 37.2 59.67 37.31 59.67 37.43 59.67 37.54 60.09 37.65 59.67 37.77 59.67 37.88 60.09 38 60.09 38.11 60.51 38.22 60.51 38.34 60.51 38.45 60.51 38.57 60.09 38.68 60.51 38.79 60.51 38.91 60.09 39.02 60.09 39.13 60.51 39.25 60.51 39.36 60.09 39.48 60.09 39.59 59.67 39.7 59.67 39.82 59.67 39.93 60.09 40.05 60.51 40.16 60.09 40.27 60.09 40.39 60.09 40.5 60.51 40.62 60.09 40.73 60.51 40.84 60.51 40.96 60.51 41.07 60.51 41.19 60.09 41.3 60.09 41.41 60.93 41.53 60.51 41.64 60.51 41.76 60.51 41.87 60.51 41.98 60.51 42.1 60.51 42.21 60.51 42.32 60.09 42.44 60.09 42.55 60.51 42.67 60.09 42.78 60.51 42.89 60.51 43.01 60.09 43.12 60.51 43.24 60.51 43.35 60.51 43.46 60.93 43.58 60.51 43.69 60.51 43.81 59.67 43.92 60.09 44.03 60.09 44.15 60.09 44.26 60.09 44.38 60.09 44.49 60.09 44.6 60.51 44.72 60.51 44.83 60.51 44.94 60.09 45.06 60.09 45.17 60.09 45.29 60.51 45.4 60.51 45.51 60.51 45.63 60.93 45.74 60.93 45.86 60.93 45.97 60.51 46.08 60.51 46.2 60.51 46.31 60.51 46.43 60.51 46.54 60.51 46.65 60.51 46.77 60.51 46.88 60.51 47 60.93 47.11 60.51 47.22 60.51 47.34 60.51 47.45 60.93 47.56 60.51 47.68 60.93 47.79 60.93 47.91 60.93 48.02 60.93 48.13 60.93 48.25 60.51 48.36 60.51 48.48 60.51 48.59 60.51 48.7 60.51 48.82 60.51 48.93 60.51 49.05 60.51 49.16 60.51 49.27 60.51 49.39 60.09 49.5 60.51 49.62 60.09 49.73 60.51 49.84 60.51 49.96 60.51 50.07 60.93 50.19 60.93 50.3 61.35 50.41 60.93 50.53 60.93 50.64 60.93 50.75 60.93 50.87 61.35 50.98 61.35 51.1 61.35 51.21 60.93 51.32 60.93 51.44 60.93 51.55 61.35 51.67 61.35 51.78 60.93 51.89 61.35 52.01 61.35 52.12 61.35 52.24 61.35 52.35 61.35 52.46 61.77 52.58 61.77 52.69 61.77 52.81 61.35 52.92 61.35 53.03 61.77 53.15 61.35 53.26 60.93 53.37 60.93 53.49 60.93 53.6 60.93 53.72 61.35 53.83 61.35 53.94 61.35 54.06 61.35 54.17 61.35 54.29 61.35 54.4 61.77 54.51 61.35 54.63 61.35 54.74 61.35 54.86 61.35 54.97 61.35 55.08 61.35 55.2 61.35 55.31 60.93 55.43 61.35 55.54 61.35 55.65 61.77 55.77 61.77 55.88 61.77 55.99 61.77 56.11 61.77 56.22 61.77 56.34 61.35 56.45 61.35 56.56 61.35 56.68 61.35 56.79 61.35 56.91 61.35 57.02 60.93 57.13 61.35 57.25 61.35 57.36 61.35 57.48 60.93 57.59 61.35 57.7 60.93 57.82 61.35 57.93 60.93 58.05 61.35 58.16 61.35 58.27 61.35 58.39 61.35 58.5 61.35 58.61 60.93 58.73 61.35 58.84 61.35 58.96 61.35 59.07 60.93 59.18 61.35 59.3 61.35 59.41 61.35 59.53 61.35 59.64 61.35 59.75 61.77 59.87 61.35 59.98 61.35 60.1 61.35 60.21 60.93 60.32 61.35 60.44 61.35 60.55 60.93 60.67 61.35 60.78 61.35 60.89 60.93 61.01 61.35 61.12 61.35 61.24 60.93 61.35 60.93 61.46 60.93 61.58 60.93 61.69 61.35 61.8 60.93 61.92 60.93 62.03 60.93 62.15 61.35 62.26 61.35 62.37 61.35 62.49 61.77 62.6 61.77 62.72 61.77 62.83 61.77 62.94 61.35 63.06 60.93 63.17 61.35 63.29 61.35 63.4 61.35 63.51 61.35 63.63 61.35 63.74 61.35 63.86 61.35 63.97 61.77 64.08 61.77 64.2 61.77 64.31 61.77 64.42 61.77 64.54 61.77 64.65 61.77 64.77 61.77 64.88 61.35 64.99 61.35 65.11 61.77 65.22 61.77 65.34 61.77 65.45 61.77 65.56 61.77 65.68 62.18 65.79 61.77 65.91 61.77 66.02 61.77 66.13 62.18 66.25 62.18 66.36 62.18 66.48 62.6 66.59 62.18 66.7 62.18 66.82 61.77 66.93 61.77 67.04 62.18 67.16 62.18 67.27 62.18 67.39 62.18 67.5 62.6 67.61 62.18 67.73 62.18 67.84 62.18 67.96 62.18 68.07 62.18 68.18 62.18 68.3 62.18 68.41 61.77 68.53 62.18 68.64 62.18 68.75 62.18 68.87 62.18 68.98 62.18 69.1 62.6 69.21 62.6 69.32 62.18 69.44 62.18 69.55 62.18 69.67 62.18 69.78 61.77 69.89 61.77 70.01 62.18 70.12 62.18 70.23 62.18 70.35 62.18 70.46 62.18 70.58 62.18 70.69 62.18 70.8 62.18 70.92 62.6 71.03 62.6 71.15 62.6 71.26 62.18 71.37 62.6 71.49 62.6 71.6 62.18 71.72 62.6 71.83 62.6 71.94 62.18 72.06 62.18 72.17 61.77 72.29 62.18 72.4 61.77 72.51 61.77 72.63 62.18 72.74 62.18 72.85 61.77 72.97 61.77 73.08 61.77 73.2 62.18 73.31 62.18 73.42 62.18 73.54 62.18 73.65 62.6 73.77 62.18 73.88 62.18 73.99 62.18 74.11 62.18 74.22 61.77 74.34 61.77 74.45 62.18 74.56 62.18 74.68 61.77 74.79 61.77 74.91 62.18 75.02 62.18 75.13 62.18 75.25 62.18 75.36 62.18 75.47 62.18 75.59 62.18 75.7 61.77 75.82 62.18 75.93 61.77 76.04 61.77 76.16 61.77 76.27 62.18 76.39 62.18 76.5 62.18 76.61 62.18 76.73 62.18 76.84 62.18 76.96 62.18 77.07 62.18 77.18 62.18 77.3 62.6 77.41 62.6 77.53 62.6 77.64 62.18 77.75 62.18 77.87 62.6 77.98 62.18 78.09 62.6 78.21 62.18 78.32 62.18 78.44 62.18 78.55 62.18 78.66 62.18 78.78 62.18 78.89 62.6 79.01 62.18 79.12 62.18 79.23 62.6 79.35 62.6 79.46 62.6 79.58 62.6 79.69 61.77 79.8 62.18 79.92 61.77 80.03 61.77 80.15 62.18 80.26 62.18 80.37 62.18 80.49 62.18 80.6 62.18 80.72 61.77 80.83 61.77 80.94 61.77 81.06 61.77 81.17 62.18 81.28 61.77 81.4 62.18 81.51 62.18 81.63 62.18 81.74 62.18 81.85 62.18 81.97 62.18 82.08 62.18 82.2 62.18 82.31 62.6 82.42 62.6 82.54 62.18 82.65 62.18 82.77 62.6 82.88 62.18 82.99 62.6 83.11 62.6 83.22 62.6 83.34 62.6 83.45 62.6 83.56 62.18 83.68 62.18 83.79 61.77 83.9 62.18 84.02 62.6 84.13 62.6 84.25 62.18 84.36 62.6 84.47 62.18 84.59 62.18 84.7 62.18 84.82 62.18 84.93 62.18 85.04 62.18 85.16 62.18 85.27 62.18 85.39 62.18 85.5 62.6 85.61 62.6 85.73 62.6 85.84 62.6 85.96 62.18 86.07 62.18 86.18 62.6 86.3 62.18 86.41 62.6 86.52 62.6 86.64 62.6 86.75 62.18 86.87 62.6 86.98 62.6 87.09 62.6 87.21 62.18 87.32 62.18 87.44 62.6 87.55 62.6 87.66 62.6 87.78 62.18 87.89 62.18 88.01 62.6 88.12 62.18 88.23 62.6 88.35 62.6 88.46 62.6 88.58 63.02 88.69 63.02 88.8 63.02 88.92 62.6 89.03 62.6 89.15 62.6 89.26 62.6 89.37 62.18 89.49 62.18 89.6 62.18 89.71 62.6 89.83 62.6 89.94 62.6 90.06 62.6 90.17 62.6 90.28 62.18 90.4 62.18 90.51 62.6 90.63 62.6 90.74 62.6 90.85 62.6 90.97 62.6 91.08 63.02 91.2 62.6 91.31 63.02 91.42 63.02 91.54 63.02 91.65 62.6 91.77 62.6 91.88 62.6 91.99 62.6 92.11 62.18 92.22 61.77 92.33 62.18 92.45 62.18 92.56 62.18 92.68 62.18 92.79 62.18 92.9 62.18 93.02 62.18 93.13 62.18 93.25 62.18 93.36 62.6 93.47 62.6 93.59 62.18 93.7 62.6 93.82 62.6 93.93 62.6 94.04 62.6 94.16 62.6 94.27 62.6 94.39 62.6 94.5 62.18 94.61 62.18 94.73 62.18 94.84 62.6 94.95 62.6 95.07 62.6 95.18 62.6 95.3 62.6 95.41 62.18 95.52 62.18 95.64 62.6 95.75 62.6 95.87 63.02 95.98 63.02 96.09 62.6 96.21 63.02 96.32 62.6 96.44 62.6 96.55 62.18 96.66 62.6 96.78 63.02 96.89 62.6 97.01 62.6 97.12 62.6 97.23 62.6 97.35 62.6 97.46 62.6 97.57 63.02 97.69 63.02 97.8 62.6 97.92 62.6 98.03 62.6 98.14 62.6 98.26 62.6 98.37 62.6 98.49 63.02 98.6 63.02 98.71 63.02 98.83 63.02 98.94 63.02 99.06 63.02 99.17 63.02 99.28 62.6 99.4 63.02 99.51 63.02 99.63 63.02 99.74 63.02 99.85 63.02 99.97 63.02 100.08 63.02 100.2 62.6 100.31 62.6 100.42 63.02 100.54 63.02 100.65 63.02 100.76 63.02 100.88 63.44 100.99 63.02 101.11 63.02 101.22 63.02 101.33 62.6 101.45 62.6 101.56 63.02 101.68 63.02 101.79 63.02 101.9 63.02 102.02 63.02 102.13 63.44 102.25 63.02 102.36 63.44 102.47 63.02 102.59 63.44 102.7 63.02 102.82 63.02 102.93 63.02 103.04 63.02 103.16 63.02 103.27 63.02 103.38 63.44 103.5 63.44 103.61 63.02 103.73 63.44 103.84 63.44 103.95 63.44 104.07 63.44 104.18 63.02 104.3 63.44 104.41 63.44 104.52 63.44 104.64 63.44 104.75 63.02 104.87 63.44 104.98 63.02 105.09 63.44 105.21 63.44 105.32 63.44 105.44 63.44 105.55 63.44 105.66 63.44 105.78 63.44 105.89 63.44 106 63.44 106.12 63.44 106.23 63.86 106.35 63.86 106.46 63.86 106.57 63.44 106.69 63.44 106.8 63.02 106.92 63.44 107.03 63.44 107.14 63.44 107.26 63.44 107.37 63.44 107.49 63.02 107.6 63.02 107.71 63.44 107.83 63.44 107.94 63.44 108.06 63.44 108.17 63.86 108.28 63.86 108.4 63.86 108.51 63.44 108.63 63.44 108.74 63.44 108.85 63.44 108.97 63.02 109.08 63.44 109.19 63.44 109.31 63.02 109.42 63.02 109.54 63.02 109.65 63.44 109.76 63.44 109.88 63.02 109.99 63.02 110.11 63.44 110.22 63.44 110.33 63.44 110.45 63.44 110.56 63.44 110.68 63.44 110.79 63.44 110.9 63.02 111.02 63.44 111.13 63.44 111.25 63.86 111.36 63.44 111.47 63.86 111.59 63.86 111.7 63.86 111.81 63.86 111.93 63.44 112.04 63.86 112.16 63.44 112.27 63.86 112.38 63.86 112.5 63.86 112.61 63.86 112.73 63.44 112.84 63.86 112.95 63.44 113.07 63.44 113.18 63.44 113.3 63.44 113.41 63.86 113.52 63.44 113.64 63.86 113.75 63.44 113.87 63.44 113.98 63.44 114.09 63.44 114.21 63.44 114.32 63.44 114.43 63.44 114.55 63.44 114.66 63.44 114.78 63.02 114.89 63.44 115 63.86 115.12 63.86 115.23 63.86 115.35 63.86 115.46 63.44 115.57 63.44 115.69 63.44 115.8 63.44 115.92 63.44 116.03 63.86 116.14 63.86 116.26 63.86 116.37 63.44 116.49 63.44 116.6 63.44 116.71 63.44 116.83 63.44 116.94 63.86 117.05 63.44 117.17 63.86 117.28 63.86 117.4 63.86 117.51 63.86 117.62 63.44 117.74 63.44 117.85 63.44 117.97 63.44 118.08 63.44 118.19 63.44 118.31 63.44 118.42 63.44 118.54 63.44 118.65 63.02 118.76 63.44 118.88 63.44 118.99 63.86 119.11 63.86 119.22 63.44 119.33 63.44 119.45 63.44 119.56 63.44 119.68 63.44 119.79 63.86 119.9 63.86 120.02 63.86 120.13 63.86 120.24 63.86 120.36 63.86 120.47 63.86 120.59 63.44 120.7 63.86 120.81 63.44 120.93 63.44 121.04 63.86 121.16 63.44 121.27 63.44 121.38 63.44 121.5 63.86 121.61 63.86 121.73 63.86 121.84 63.86 121.95 63.86 122.07 63.86 122.18 63.44 122.3 63.86 122.41 63.86 122.52 63.44 122.64 63.86 122.75 63.86 122.86 63.86 122.98 63.44 123.09 63.86 123.21 63.86 123.32 63.44 123.43 63.44 123.55 63.44 123.66 63.86 123.78 63.86 123.89 63.44 124 63.44 124.12 63.44 124.23 63.86 124.35 63.44 124.46 63.02 124.57 63.44 124.69 63.44 124.8 63.02 124.92 63.44 125.03 63.44 125.14 63.44 125.26 63.44 125.37 63.86 125.48 63.44 125.6 63.44 125.71 63.44 125.83 63.44 125.94 63.44 126.05 63.44 126.17 63.44 126.28 63.02 126.4 63.02 126.51 63.44 126.62 63.02 126.74 63.02 126.85 63.02 126.97 63.02 127.08 63.44 127.19 63.86 127.31 63.86 127.42 63.44 127.54 63.44 127.65 63.44 127.76 63.44 127.88 63.86 127.99 63.86 128.1 63.86 128.22 63.86 128.33 63.44 128.45 63.86 128.56 64.27 128.67 63.86 128.79 63.86 128.9 63.44 129.02 63.86 129.13 63.44 129.24 63.44 129.36 63.86 129.47 63.86 129.59 63.86 129.7 63.86 129.81 63.86 129.93 64.27 130.04 63.86 130.16 63.86 130.27 63.86 130.38 63.44 130.5 63.44 130.61 63.86 130.73 63.44 130.84 63.86 130.95 63.86 131.07 63.86 131.18 63.86 131.29 63.86 131.41 64.27 131.52 64.27 131.64 64.27 131.75 64.27 131.86 63.86 131.98 63.86 132.09 63.86 132.21 63.86 132.32 63.86 132.43 63.86 132.55 63.86 132.66 63.86 132.78 64.27 132.89 63.86 133 63.86 133.12 63.86 133.23 63.44 133.35 63.44 133.46 63.44 133.57 63.44 133.69 63.44 133.8 63.86 133.91 63.86 134.03 63.86 134.14 63.86 134.26 63.86 134.37 63.86 134.48 63.86 134.6 63.86 134.71 63.86 134.83 64.27 134.94 63.86 135.05 63.86 135.17 63.86 135.28 64.27 135.4 64.27 135.51 63.86 135.62 63.86" id="img-09a4fa96-42" stroke="#D4CA3A" class="geometry color_16"/>
        <path fill="none" d="M21.82,27.9 L 21.93 28.74 22.05 29.16 22.16 29.57 22.28 29.57 22.39 29.99 22.5 30.41 22.62 30.83 22.73 31.25 22.84 30.83 22.96 30.83 23.07 31.25 23.19 31.25 23.3 30.83 23.41 31.25 23.53 30.83 23.64 30.83 23.76 30.41 23.87 30.41 23.98 30.83 24.1 31.25 24.21 30.83 24.33 30.83 24.44 30.83 24.55 30.83 24.67 30.41 24.78 30.83 24.9 30.83 25.01 31.25 25.12 30.83 25.24 31.67 25.35 31.67 25.46 31.67 25.58 31.67 25.69 32.08 25.81 32.08 25.92 32.5 26.03 31.67 26.15 32.08 26.26 32.08 26.38 31.67 26.49 31.67 26.6 31.67 26.72 31.67 26.83 32.08 26.95 32.92 27.06 32.5 27.17 32.92 27.29 32.92 27.4 32.5 27.52 32.08 27.63 32.5 27.74 33.34 27.86 32.92 27.97 32.92 28.08 32.5 28.2 32.92 28.31 33.76 28.43 33.34 28.54 33.76 28.65 33.76 28.77 33.34 28.88 33.34 29 34.17 29.11 33.76 29.22 34.17 29.34 34.59 29.45 34.59 29.57 33.76 29.68 34.17 29.79 35.01 29.91 34.59 30.02 34.59 30.14 34.59 30.25 34.59 30.36 34.59 30.48 35.01 30.59 35.43 30.71 35.01 30.82 35.43 30.93 36.26 31.05 36.26 31.16 36.26 31.27 37.1 31.39 36.68 31.5 37.1 31.62 36.68 31.73 36.68 31.84 37.1 31.96 36.68 32.07 35.85 32.19 35.43 32.3 35.01 32.41 35.01 32.53 36.26 32.64 36.26 32.76 36.26 32.87 36.26 32.98 35.85 33.1 36.26 33.21 36.26 33.33 36.26 33.44 36.26 33.55 36.26 33.67 36.68 33.78 36.26 33.89 36.68 34.01 36.26 34.12 36.68 34.24 37.1 34.35 37.1 34.46 36.68 34.58 37.52 34.69 37.52 34.81 37.1 34.92 37.52 35.03 37.52 35.15 37.52 35.26 37.94 35.38 38.35 35.49 37.94 35.6 38.35 35.72 37.94 35.83 37.94 35.95 38.77 36.06 38.77 36.17 38.35 36.29 38.35 36.4 38.35 36.51 38.35 36.63 37.94 36.74 37.94 36.86 37.52 36.97 37.52 37.08 37.52 37.2 37.94 37.31 37.52 37.43 37.52 37.54 37.94 37.65 39.19 37.77 38.35 37.88 38.35 38 38.77 38.11 37.94 38.22 38.35 38.34 38.35 38.45 38.77 38.57 39.19 38.68 39.19 38.79 38.77 38.91 38.77 39.02 39.19 39.13 38.77 39.25 38.77 39.36 39.19 39.48 38.77 39.59 39.19 39.7 39.19 39.82 38.77 39.93 39.19 40.05 39.61 40.16 39.61 40.27 39.61 40.39 40.44 40.5 40.03 40.62 40.03 40.73 40.03 40.84 40.03 40.96 40.44 41.07 40.86 41.19 40.03 41.3 39.61 41.41 40.03 41.53 40.44 41.64 40.03 41.76 40.03 41.87 40.44 41.98 39.61 42.1 39.19 42.21 39.61 42.32 40.03 42.44 40.03 42.55 39.61 42.67 39.61 42.78 40.03 42.89 40.03 43.01 40.03 43.12 40.03 43.24 40.03 43.35 39.61 43.46 40.03 43.58 39.61 43.69 39.61 43.81 40.03 43.92 39.61 44.03 39.61 44.15 40.03 44.26 40.03 44.38 40.44 44.49 40.03 44.6 40.03 44.72 40.44 44.83 40.44 44.94 40.03 45.06 40.44 45.17 40.03 45.29 40.03 45.4 40.03 45.51 40.03 45.63 40.03 45.74 39.61 45.86 39.61 45.97 39.61 46.08 39.19 46.2 39.61 46.31 39.61 46.43 39.61 46.54 39.19 46.65 39.61 46.77 39.61 46.88 40.03 47 40.03 47.11 40.03 47.22 40.44 47.34 40.44 47.45 40.03 47.56 40.03 47.68 40.86 47.79 40.86 47.91 40.86 48.02 40.86 48.13 41.28 48.25 40.86 48.36 40.86 48.48 40.86 48.59 41.28 48.7 41.7 48.82 41.7 48.93 41.7 49.05 41.7 49.16 41.7 49.27 41.28 49.39 41.28 49.5 42.53 49.62 41.7 49.73 41.7 49.84 41.7 49.96 42.12 50.07 42.12 50.19 42.53 50.3 42.12 50.41 41.7 50.53 41.28 50.64 41.7 50.75 41.28 50.87 41.28 50.98 41.28 51.1 41.7 51.21 41.7 51.32 41.7 51.44 41.7 51.55 41.7 51.67 42.12 51.78 42.12 51.89 42.12 52.01 42.53 52.12 42.12 52.24 42.53 52.35 42.53 52.46 42.53 52.58 42.12 52.69 42.12 52.81 42.12 52.92 42.12 53.03 42.12 53.15 42.12 53.26 42.12 53.37 42.12 53.49 41.7 53.6 41.7 53.72 41.7 53.83 41.7 53.94 41.7 54.06 41.7 54.17 41.7 54.29 41.7 54.4 41.7 54.51 41.7 54.63 42.12 54.74 41.7 54.86 41.28 54.97 41.28 55.08 40.86 55.2 41.7 55.31 41.7 55.43 41.7 55.54 41.7 55.65 41.7 55.77 41.28 55.88 41.28 55.99 41.7 56.11 41.28 56.22 41.28 56.34 40.86 56.45 40.86 56.56 40.86 56.68 40.86 56.79 41.7 56.91 41.7 57.02 41.7 57.13 42.12 57.25 42.12 57.36 42.12 57.48 41.7 57.59 42.53 57.7 42.12 57.82 41.7 57.93 42.12 58.05 41.7 58.16 41.7 58.27 42.12 58.39 41.28 58.5 41.7 58.61 41.28 58.73 41.28 58.84 41.7 58.96 41.7 59.07 42.12 59.18 42.12 59.3 42.12 59.41 42.12 59.53 42.12 59.64 41.7 59.75 41.28 59.87 41.7 59.98 42.53 60.1 42.53 60.21 42.12 60.32 42.12 60.44 41.7 60.55 42.53 60.67 42.53 60.78 42.12 60.89 42.12 61.01 42.95 61.12 42.53 61.24 42.12 61.35 42.12 61.46 41.7 61.58 42.53 61.69 42.53 61.8 42.53 61.92 42.12 62.03 42.53 62.15 42.53 62.26 42.53 62.37 42.12 62.49 42.12 62.6 42.12 62.72 41.7 62.83 41.7 62.94 41.7 63.06 41.7 63.17 41.7 63.29 41.7 63.4 42.53 63.51 42.12 63.63 41.7 63.74 42.53 63.86 42.95 63.97 42.95 64.08 42.95 64.2 42.95 64.31 42.53 64.42 43.79 64.54 42.95 64.65 42.95 64.77 42.95 64.88 42.95 64.99 43.37 65.11 42.95 65.22 43.37 65.34 42.95 65.45 42.95 65.56 42.53 65.68 42.95 65.79 42.53 65.91 42.53 66.02 41.7 66.13 42.12 66.25 42.95 66.36 42.95 66.48 42.95 66.59 43.37 66.7 42.95 66.82 42.53 66.93 42.95 67.04 43.37 67.16 42.95 67.27 43.37 67.39 42.95 67.5 43.37 67.61 42.95 67.73 42.53 67.84 42.53 67.96 42.53 68.07 42.95 68.18 42.95 68.3 42.95 68.41 43.37 68.53 43.79 68.64 43.37 68.75 43.79 68.87 43.79 68.98 43.79 69.1 43.79 69.21 43.37 69.32 43.37 69.44 42.95 69.55 43.37 69.67 44.21 69.78 43.37 69.89 43.79 70.01 43.79 70.12 44.21 70.23 43.37 70.35 43.37 70.46 43.37 70.58 43.37 70.69 43.37 70.8 42.95 70.92 42.95 71.03 42.95 71.15 42.95 71.26 42.95 71.37 43.37 71.49 43.37 71.6 43.79 71.72 43.79 71.83 43.37 71.94 43.79 72.06 43.79 72.17 43.79 72.29 44.21 72.4 43.37 72.51 42.95 72.63 42.95 72.74 42.12 72.85 42.53 72.97 42.53 73.08 42.95 73.2 42.95 73.31 42.95 73.42 42.95 73.54 42.95 73.65 42.95 73.77 42.95 73.88 42.95 73.99 42.53 74.11 42.53 74.22 42.53 74.34 43.37 74.45 43.37 74.56 42.95 74.68 42.53 74.79 42.12 74.91 42.95 75.02 42.53 75.13 42.53 75.25 42.12 75.36 42.12 75.47 41.7 75.59 42.12 75.7 41.7 75.82 41.7 75.93 41.28 76.04 41.28 76.16 42.53 76.27 42.53 76.39 42.53 76.5 42.53 76.61 42.53 76.73 42.53 76.84 42.53 76.96 42.53 77.07 42.53 77.18 42.53 77.3 42.12 77.41 42.12 77.53 42.53 77.64 42.53 77.75 42.95 77.87 42.95 77.98 42.95 78.09 42.53 78.21 42.95 78.32 42.95 78.44 42.53 78.55 42.95 78.66 42.95 78.78 42.95 78.89 43.37 79.01 43.79 79.12 42.95 79.23 42.53 79.35 42.95 79.46 42.95 79.58 42.95 79.69 44.21 79.8 44.21 79.92 44.62 80.03 43.79 80.15 43.37 80.26 42.95 80.37 43.37 80.49 44.21 80.6 43.79 80.72 43.79 80.83 43.37 80.94 43.37 81.06 43.37 81.17 43.37 81.28 43.79 81.4 43.79 81.51 43.37 81.63 42.53 81.74 42.95 81.85 42.53 81.97 43.37 82.08 43.37 82.2 42.95 82.31 42.95 82.42 42.95 82.54 42.95 82.65 43.37 82.77 43.37 82.88 43.79 82.99 43.37 83.11 43.37 83.22 43.79 83.34 43.79 83.45 43.79 83.56 43.79 83.68 43.37 83.79 42.95 83.9 42.53 84.02 43.37 84.13 43.37 84.25 42.95 84.36 42.53 84.47 42.95 84.59 43.37 84.7 42.95 84.82 43.37 84.93 43.37 85.04 42.95 85.16 42.12 85.27 42.95 85.39 42.95 85.5 42.53 85.61 42.95 85.73 42.95 85.84 42.95 85.96 42.53 86.07 42.53 86.18 42.53 86.3 42.12 86.41 42.12 86.52 42.12 86.64 42.12 86.75 42.53 86.87 42.53 86.98 42.12 87.09 41.7 87.21 41.7 87.32 42.12 87.44 42.53 87.55 42.12 87.66 42.12 87.78 42.12 87.89 42.12 88.01 42.12 88.12 42.12 88.23 42.12 88.35 42.53 88.46 42.53 88.58 42.12 88.69 42.53 88.8 42.53 88.92 42.53 89.03 42.53 89.15 43.37 89.26 42.53 89.37 42.12 89.49 41.7 89.6 42.12 89.71 41.7 89.83 41.7 89.94 42.12 90.06 41.7 90.17 42.12 90.28 42.95 90.4 42.53 90.51 42.53 90.63 42.53 90.74 42.53 90.85 42.95 90.97 43.37 91.08 42.95 91.2 42.95 91.31 42.95 91.42 43.37 91.54 43.37 91.65 42.95 91.77 42.95 91.88 42.95 91.99 43.37 92.11 43.37 92.22 42.95 92.33 43.37 92.45 43.79 92.56 43.37 92.68 43.37 92.79 43.37 92.9 43.37 93.02 43.37 93.13 42.95 93.25 42.53 93.36 42.53 93.47 42.53 93.59 42.53 93.7 42.95 93.82 42.95 93.93 42.95 94.04 42.95 94.16 43.37 94.27 42.95 94.39 42.95 94.5 42.53 94.61 42.53 94.73 42.53 94.84 42.95 94.95 43.37 95.07 42.53 95.18 42.53 95.3 43.37 95.41 43.37 95.52 42.53 95.64 42.95 95.75 42.53 95.87 42.53 95.98 42.95 96.09 43.37 96.21 42.95 96.32 42.12 96.44 42.95 96.55 42.53 96.66 42.95 96.78 42.95 96.89 42.53 97.01 43.37 97.12 42.53 97.23 42.95 97.35 42.95 97.46 42.53 97.57 42.53 97.69 42.12 97.8 42.95 97.92 42.53 98.03 42.95 98.14 42.53 98.26 42.95 98.37 43.37 98.49 42.95 98.6 42.95 98.71 42.95 98.83 42.53 98.94 42.95 99.06 43.37 99.17 42.95 99.28 43.79 99.4 43.79 99.51 43.79 99.63 43.79 99.74 43.37 99.85 43.37 99.97 42.95 100.08 42.53 100.2 42.53 100.31 42.53 100.42 42.53 100.54 42.95 100.65 42.53 100.76 42.95 100.88 42.95 100.99 43.37 101.11 43.37 101.22 42.53 101.33 42.53 101.45 42.53 101.56 42.53 101.68 42.53 101.79 42.95 101.9 42.95 102.02 42.53 102.13 42.12 102.25 42.53 102.36 42.53 102.47 42.12 102.59 42.53 102.7 42.12 102.82 42.12 102.93 42.53 103.04 42.53 103.16 42.95 103.27 42.53 103.38 42.95 103.5 42.53 103.61 42.95 103.73 42.95 103.84 42.53 103.95 42.12 104.07 42.53 104.18 42.95 104.3 43.37 104.41 43.79 104.52 43.79 104.64 43.79 104.75 43.79 104.87 43.37 104.98 43.37 105.09 43.37 105.21 42.95 105.32 43.37 105.44 43.79 105.55 43.37 105.66 43.37 105.78 43.37 105.89 43.37 106 43.37 106.12 42.95 106.23 42.53 106.35 42.53 106.46 42.95 106.57 42.53 106.69 43.37 106.8 43.37 106.92 43.37 107.03 42.95 107.14 42.95 107.26 42.95 107.37 42.53 107.49 42.53 107.6 42.12 107.71 42.12 107.83 42.53 107.94 42.12 108.06 42.12 108.17 42.53 108.28 42.95 108.4 42.53 108.51 42.95 108.63 42.95 108.74 42.95 108.85 42.95 108.97 42.95 109.08 42.12 109.19 42.12 109.31 42.53 109.42 42.53 109.54 42.53 109.65 42.53 109.76 42.53 109.88 42.53 109.99 42.53 110.11 42.53 110.22 42.95 110.33 42.53 110.45 42.53 110.56 42.95 110.68 42.95 110.79 42.95 110.9 42.53 111.02 42.53 111.13 42.53 111.25 42.53 111.36 42.53 111.47 43.37 111.59 43.79 111.7 43.37 111.81 43.37 111.93 43.37 112.04 43.37 112.16 43.37 112.27 43.37 112.38 42.95 112.5 43.79 112.61 43.37 112.73 43.79 112.84 43.37 112.95 43.37 113.07 42.95 113.18 42.53 113.3 42.95 113.41 43.37 113.52 42.53 113.64 42.95 113.75 42.53 113.87 42.95 113.98 43.37 114.09 42.95 114.21 42.95 114.32 43.37 114.43 42.95 114.55 43.37 114.66 43.37 114.78 43.37 114.89 42.95 115 42.95 115.12 42.95 115.23 42.95 115.35 42.95 115.46 42.95 115.57 42.53 115.69 42.95 115.8 42.53 115.92 42.53 116.03 42.53 116.14 42.95 116.26 42.95 116.37 42.53 116.49 43.37 116.6 42.53 116.71 42.95 116.83 42.95 116.94 42.95 117.05 42.95 117.17 42.95 117.28 43.37 117.4 43.79 117.51 43.37 117.62 43.37 117.74 43.79 117.85 43.37 117.97 43.79 118.08 43.79 118.19 43.79 118.31 43.37 118.42 43.37 118.54 43.37 118.65 43.79 118.76 42.95 118.88 42.95 118.99 42.53 119.11 43.37 119.22 43.37 119.33 42.95 119.45 42.95 119.56 42.95 119.68 42.53 119.79 42.12 119.9 42.95 120.02 42.95 120.13 42.95 120.24 42.53 120.36 42.95 120.47 42.53 120.59 42.53 120.7 43.37 120.81 44.62 120.93 44.62 121.04 44.62 121.16 44.21 121.27 44.21 121.38 43.79 121.5 44.21 121.61 43.79 121.73 43.79 121.84 43.79 121.95 43.37 122.07 43.79 122.18 43.37 122.3 43.79 122.41 43.37 122.52 43.79 122.64 43.79 122.75 43.79 122.86 43.79 122.98 43.79 123.09 43.37 123.21 43.37 123.32 43.37 123.43 43.37 123.55 43.37 123.66 42.95 123.78 43.37 123.89 43.37 124 42.95 124.12 42.95 124.23 42.53 124.35 42.95 124.46 43.37 124.57 42.95 124.69 42.53 124.8 42.53 124.92 42.95 125.03 43.37 125.14 42.95 125.26 43.37 125.37 43.79 125.48 43.37 125.6 43.79 125.71 43.37 125.83 43.79 125.94 43.79 126.05 43.79 126.17 42.95 126.28 43.37 126.4 43.37 126.51 43.37 126.62 43.79 126.74 42.95 126.85 43.37 126.97 43.79 127.08 43.37 127.19 43.37 127.31 42.95 127.42 43.37 127.54 43.37 127.65 44.21 127.76 43.79 127.88 43.37 127.99 43.79 128.1 43.79 128.22 43.37 128.33 43.37 128.45 43.79 128.56 43.37 128.67 42.95 128.79 42.95 128.9 42.53 129.02 42.12 129.13 42.12 129.24 42.12 129.36 42.12 129.47 42.53 129.59 42.53 129.7 42.12 129.81 42.53 129.93 42.95 130.04 42.95 130.16 43.37 130.27 42.95 130.38 43.37 130.5 43.37 130.61 43.37 130.73 43.79 130.84 43.37 130.95 43.37 131.07 42.53 131.18 42.53 131.29 42.95 131.41 42.53 131.52 42.53 131.64 42.95 131.75 42.95 131.86 42.95 131.98 43.37 132.09 42.95 132.21 43.37 132.32 43.37 132.43 42.95 132.55 43.37 132.66 43.79 132.78 43.79 132.89 43.37 133 42.95 133.12 42.53 133.23 42.12 133.35 42.95 133.46 43.37 133.57 42.95 133.69 42.95 133.8 42.95 133.91 43.37 134.03 43.37 134.14 43.79 134.26 43.37 134.37 42.95 134.48 42.95 134.6 42.53 134.71 42.53 134.83 42.12 134.94 42.95 135.05 42.53 135.17 42.53 135.28 42.12 135.4 42.12 135.51 42.95 135.62 43.37" id="img-09a4fa96-43" stroke="#FF6765" class="geometry color_64"/>
        <path fill="none" d="M21.82,28.32 L 21.93 41.28 22.05 45.04 22.16 46.72 22.28 47.97 22.39 48.39 22.5 48.81 22.62 48.81 22.73 48.81 22.84 49.22 22.96 49.22 23.07 48.81 23.19 49.22 23.3 49.22 23.41 49.22 23.53 50.06 23.64 50.06 23.76 50.06 23.87 50.06 23.98 50.06 24.1 49.64 24.21 49.64 24.33 49.64 24.44 50.48 24.55 50.48 24.67 50.48 24.78 50.48 24.9 50.48 25.01 50.48 25.12 50.48 25.24 50.9 25.35 50.48 25.46 50.06 25.58 50.48 25.69 50.48 25.81 50.9 25.92 50.9 26.03 51.31 26.15 50.9 26.26 51.31 26.38 51.73 26.49 51.73 26.6 51.31 26.72 50.9 26.83 50.48 26.95 50.9 27.06 50.48 27.17 50.48 27.29 50.9 27.4 51.73 27.52 51.73 27.63 51.73 27.74 51.73 27.86 51.31 27.97 51.31 28.08 51.31 28.2 51.73 28.31 51.73 28.43 51.73 28.54 51.31 28.65 51.31 28.77 51.73 28.88 51.73 29 51.73 29.11 51.73 29.22 51.73 29.34 51.31 29.45 50.9 29.57 51.31 29.68 50.9 29.79 51.73 29.91 51.31 30.02 51.73 30.14 52.15 30.25 52.15 30.36 52.57 30.48 52.57 30.59 52.99 30.71 52.99 30.82 52.99 30.93 52.57 31.05 52.57 31.16 52.57 31.27 52.99 31.39 52.99 31.5 52.57 31.62 52.99 31.73 53.4 31.84 53.4 31.96 52.99 32.07 53.4 32.19 53.82 32.3 52.99 32.41 52.99 32.53 52.57 32.64 53.4 32.76 53.4 32.87 53.4 32.98 53.4 33.1 53.4 33.21 53.4 33.33 52.99 33.44 53.4 33.55 53.4 33.67 53.4 33.78 53.82 33.89 53.4 34.01 53.4 34.12 52.99 34.24 52.99 34.35 52.57 34.46 52.99 34.58 52.99 34.69 52.99 34.81 53.4 34.92 52.99 35.03 53.4 35.15 53.82 35.26 53.4 35.38 53.4 35.49 53.4 35.6 53.82 35.72 53.4 35.83 53.82 35.95 53.82 36.06 54.24 36.17 54.24 36.29 54.24 36.4 54.24 36.51 53.82 36.63 53.4 36.74 53.82 36.86 54.24 36.97 53.82 37.08 53.82 37.2 54.24 37.31 54.24 37.43 53.82 37.54 53.82 37.65 53.82 37.77 54.24 37.88 54.24 38 54.24 38.11 54.24 38.22 54.24 38.34 54.24 38.45 54.24 38.57 54.24 38.68 54.66 38.79 54.24 38.91 54.24 39.02 53.82 39.13 53.82 39.25 53.4 39.36 53.82 39.48 53.82 39.59 54.24 39.7 53.82 39.82 54.24 39.93 53.82 40.05 54.24 40.16 54.24 40.27 54.66 40.39 54.66 40.5 55.08 40.62 55.08 40.73 54.66 40.84 54.66 40.96 54.66 41.07 54.66 41.19 54.24 41.3 54.66 41.41 54.24 41.53 54.66 41.64 54.66 41.76 55.08 41.87 55.08 41.98 55.08 42.1 54.66 42.21 54.24 42.32 54.66 42.44 54.66 42.55 54.66 42.67 54.24 42.78 54.66 42.89 54.66 43.01 55.08 43.12 55.08 43.24 55.49 43.35 55.49 43.46 55.91 43.58 55.91 43.69 55.91 43.81 55.49 43.92 55.49 44.03 55.91 44.15 55.49 44.26 55.91 44.38 55.91 44.49 55.91 44.6 55.91 44.72 55.49 44.83 55.91 44.94 55.91 45.06 55.49 45.17 55.08 45.29 55.08 45.4 55.49 45.51 55.49 45.63 55.49 45.74 55.91 45.86 55.91 45.97 55.91 46.08 55.91 46.2 55.49 46.31 55.49 46.43 55.49 46.54 55.91 46.65 56.33 46.77 56.33 46.88 55.91 47 56.75 47.11 56.33 47.22 56.33 47.34 56.33 47.45 56.33 47.56 55.91 47.68 55.91 47.79 55.91 47.91 55.91 48.02 55.91 48.13 56.33 48.25 55.91 48.36 55.91 48.48 56.33 48.59 55.91 48.7 55.91 48.82 55.91 48.93 56.33 49.05 55.91 49.16 55.91 49.27 55.49 49.39 55.49 49.5 55.08 49.62 55.49 49.73 55.08 49.84 55.91 49.96 55.91 50.07 55.91 50.19 55.91 50.3 55.91 50.41 55.91 50.53 55.91 50.64 56.33 50.75 55.91 50.87 55.49 50.98 55.91 51.1 55.91 51.21 56.33 51.32 56.33 51.44 56.33 51.55 56.33 51.67 55.91 51.78 55.91 51.89 55.91 52.01 56.33 52.12 56.33 52.24 56.33 52.35 55.91 52.46 55.91 52.58 55.91 52.69 55.91 52.81 56.33 52.92 55.91 53.03 55.91 53.15 55.91 53.26 56.75 53.37 56.75 53.49 56.75 53.6 56.75 53.72 56.75 53.83 56.75 53.94 56.33 54.06 56.75 54.17 56.33 54.29 56.75 54.4 56.75 54.51 56.75 54.63 57.17 54.74 57.17 54.86 56.75 54.97 56.75 55.08 56.75 55.2 56.75 55.31 55.91 55.43 56.33 55.54 56.75 55.65 56.75 55.77 56.33 55.88 56.75 55.99 57.17 56.11 56.75 56.22 56.75 56.34 56.75 56.45 57.17 56.56 57.17 56.68 56.75 56.79 56.75 56.91 56.75 57.02 56.75 57.13 57.17 57.25 56.75 57.36 56.75 57.48 56.75 57.59 57.17 57.7 57.17 57.82 57.17 57.93 57.17 58.05 57.17 58.16 56.75 58.27 57.17 58.39 57.17 58.5 57.17 58.61 56.75 58.73 56.75 58.84 56.75 58.96 57.17 59.07 57.17 59.18 57.17 59.3 57.17 59.41 57.17 59.53 56.75 59.64 56.75 59.75 57.58 59.87 57.58 59.98 57.58 60.1 58 60.21 58 60.32 58 60.44 57.58 60.55 57.58 60.67 57.58 60.78 57.58 60.89 57.58 61.01 57.17 61.12 58 61.24 58 61.35 58 61.46 58 61.58 58.42 61.69 58 61.8 57.58 61.92 58 62.03 58 62.15 58 62.26 57.58 62.37 58 62.49 57.58 62.6 58 62.72 58 62.83 57.58 62.94 57.58 63.06 57.58 63.17 58 63.29 58 63.4 58 63.51 57.58 63.63 57.58 63.74 58 63.86 57.58 63.97 57.17 64.08 57.17 64.2 57.58 64.31 57.58 64.42 57.17 64.54 57.58 64.65 57.58 64.77 57.58 64.88 57.58 64.99 57.17 65.11 57.58 65.22 57.58 65.34 57.58 65.45 57.17 65.56 57.58 65.68 57.58 65.79 57.58 65.91 58 66.02 58 66.13 58 66.25 58 66.36 57.58 66.48 58 66.59 57.58 66.7 57.58 66.82 58 66.93 58 67.04 57.58 67.16 57.58 67.27 58 67.39 58 67.5 58 67.61 58.42 67.73 58.42 67.84 58 67.96 58.42 68.07 58 68.18 58 68.3 58 68.41 58 68.53 58 68.64 58 68.75 58 68.87 57.58 68.98 57.58 69.1 57.17 69.21 57.17 69.32 57.58 69.44 58 69.55 57.58 69.67 57.58 69.78 57.58 69.89 57.58 70.01 57.58 70.12 57.58 70.23 57.58 70.35 57.58 70.46 58 70.58 58.42 70.69 58 70.8 58 70.92 58 71.03 58.42 71.15 58 71.26 57.58 71.37 58 71.49 58 71.6 58 71.72 58.42 71.83 58.42 71.94 58 72.06 58 72.17 58 72.29 58 72.4 58 72.51 58 72.63 58 72.74 58.42 72.85 58 72.97 57.58 73.08 58 73.2 58 73.31 58 73.42 58 73.54 58 73.65 58 73.77 57.58 73.88 58 73.99 57.58 74.11 58 74.22 57.58 74.34 58 74.45 58 74.56 58 74.68 58.42 74.79 58 74.91 58 75.02 58 75.13 57.58 75.25 58.42 75.36 58.42 75.47 58.42 75.59 58.84 75.7 58.84 75.82 58.42 75.93 58.84 76.04 58.84 76.16 58.84 76.27 58.84 76.39 58.42 76.5 58.42 76.61 58.84 76.73 58.42 76.84 58.84 76.96 58.84 77.07 59.26 77.18 58.84 77.3 59.26 77.41 58.84 77.53 58.84 77.64 58.42 77.75 58.42 77.87 58.42 77.98 58.84 78.09 58.84 78.21 58.84 78.32 58.84 78.44 58.84 78.55 58.84 78.66 58.84 78.78 59.26 78.89 58.84 79.01 59.26 79.12 59.26 79.23 59.26 79.35 59.26 79.46 59.26 79.58 59.26 79.69 59.26 79.8 59.26 79.92 59.67 80.03 58.84 80.15 59.26 80.26 58.84 80.37 59.26 80.49 58.84 80.6 58.84 80.72 58.84 80.83 58.84 80.94 58.84 81.06 58.84 81.17 58.42 81.28 58.84 81.4 58.84 81.51 59.26 81.63 59.26 81.74 59.26 81.85 59.26 81.97 58.84 82.08 58.84 82.2 58.84 82.31 59.26 82.42 58.84 82.54 58.84 82.65 58.84 82.77 59.26 82.88 59.26 82.99 59.26 83.11 58.84 83.22 59.26 83.34 59.26 83.45 58.84 83.56 59.26 83.68 59.26 83.79 59.26 83.9 59.26 84.02 59.67 84.13 59.26 84.25 59.26 84.36 59.26 84.47 59.67 84.59 59.67 84.7 59.26 84.82 59.26 84.93 59.67 85.04 59.67 85.16 59.67 85.27 59.67 85.39 59.67 85.5 59.67 85.61 59.67 85.73 59.67 85.84 59.26 85.96 59.67 86.07 59.26 86.18 58.84 86.3 58.84 86.41 58.42 86.52 58.84 86.64 58.84 86.75 58.42 86.87 59.26 86.98 58.84 87.09 58.84 87.21 58.84 87.32 58.42 87.44 58.42 87.55 59.26 87.66 59.26 87.78 59.26 87.89 59.26 88.01 59.26 88.12 59.26 88.23 59.26 88.35 59.67 88.46 59.67 88.58 60.09 88.69 59.67 88.8 59.67 88.92 59.26 89.03 59.26 89.15 58.84 89.26 58.84 89.37 59.26 89.49 59.26 89.6 59.26 89.71 58.84 89.83 58.84 89.94 59.26 90.06 59.26 90.17 58.84 90.28 58.84 90.4 58.84 90.51 59.26 90.63 59.26 90.74 58.84 90.85 58.84 90.97 58.84 91.08 58.84 91.2 59.26 91.31 59.26 91.42 59.26 91.54 59.26 91.65 59.26 91.77 59.26 91.88 59.26 91.99 59.67 92.11 59.67 92.22 59.26 92.33 59.26 92.45 59.26 92.56 59.26 92.68 59.26 92.79 59.26 92.9 59.26 93.02 58.84 93.13 59.26 93.25 59.26 93.36 58.84 93.47 58.84 93.59 58.84 93.7 58.84 93.82 58.84 93.93 59.26 94.04 59.26 94.16 59.67 94.27 59.67 94.39 59.26 94.5 59.67 94.61 59.67 94.73 59.26 94.84 59.67 94.95 59.67 95.07 59.26 95.18 59.26 95.3 59.26 95.41 59.26 95.52 58.84 95.64 58.84 95.75 58.84 95.87 59.26 95.98 59.26 96.09 59.67 96.21 59.26 96.32 59.26 96.44 59.26 96.55 59.26 96.66 58.84 96.78 58.84 96.89 59.26 97.01 59.26 97.12 59.67 97.23 59.67 97.35 59.67 97.46 58.84 97.57 58.84 97.69 58.42 97.8 58.84 97.92 58.84 98.03 59.26 98.14 59.26 98.26 59.26 98.37 59.26 98.49 58.84 98.6 59.26 98.71 59.26 98.83 59.26 98.94 59.26 99.06 59.26 99.17 59.26 99.28 59.67 99.4 59.26 99.51 59.26 99.63 59.26 99.74 60.09 99.85 59.67 99.97 59.67 100.08 59.67 100.2 59.67 100.31 60.09 100.42 59.67 100.54 59.67 100.65 59.67 100.76 59.67 100.88 59.67 100.99 60.09 101.11 60.09 101.22 59.67 101.33 60.09 101.45 60.09 101.56 60.09 101.68 60.51 101.79 60.09 101.9 60.51 102.02 60.09 102.13 59.67 102.25 59.67 102.36 60.09 102.47 59.67 102.59 59.67 102.7 59.67 102.82 59.67 102.93 59.26 103.04 59.26 103.16 59.26 103.27 59.26 103.38 59.26 103.5 60.09 103.61 59.67 103.73 60.09 103.84 60.09 103.95 60.09 104.07 59.67 104.18 59.67 104.3 59.67 104.41 60.09 104.52 60.09 104.64 60.09 104.75 60.51 104.87 60.51 104.98 60.09 105.09 60.09 105.21 60.09 105.32 59.67 105.44 60.09 105.55 59.67 105.66 59.67 105.78 59.67 105.89 59.67 106 60.09 106.12 60.09 106.23 59.67 106.35 59.67 106.46 60.09 106.57 60.09 106.69 59.67 106.8 59.67 106.92 59.67 107.03 60.51 107.14 60.09 107.26 60.51 107.37 60.51 107.49 60.09 107.6 60.09 107.71 60.09 107.83 60.51 107.94 60.51 108.06 60.51 108.17 60.51 108.28 60.09 108.4 60.93 108.51 60.51 108.63 60.93 108.74 60.51 108.85 60.93 108.97 60.51 109.08 60.93 109.19 60.93 109.31 60.51 109.42 60.09 109.54 60.09 109.65 59.67 109.76 59.67 109.88 60.09 109.99 60.09 110.11 60.09 110.22 60.09 110.33 60.09 110.45 60.51 110.56 60.09 110.68 60.51 110.79 60.51 110.9 60.51 111.02 60.51 111.13 60.51 111.25 60.09 111.36 59.67 111.47 60.09 111.59 60.09 111.7 60.51 111.81 60.09 111.93 60.51 112.04 60.09 112.16 60.51 112.27 60.51 112.38 60.51 112.5 60.51 112.61 60.09 112.73 60.51 112.84 60.51 112.95 60.51 113.07 60.51 113.18 60.51 113.3 60.51 113.41 60.09 113.52 60.09 113.64 60.51 113.75 60.09 113.87 60.09 113.98 60.09 114.09 60.51 114.21 60.51 114.32 60.51 114.43 59.67 114.55 60.09 114.66 60.09 114.78 60.51 114.89 60.09 115 60.51 115.12 60.51 115.23 60.51 115.35 60.09 115.46 60.09 115.57 60.09 115.69 60.09 115.8 60.09 115.92 60.09 116.03 60.09 116.14 60.09 116.26 60.09 116.37 60.51 116.49 60.09 116.6 60.09 116.71 60.51 116.83 60.51 116.94 60.09 117.05 60.09 117.17 60.09 117.28 60.09 117.4 60.09 117.51 60.93 117.62 60.93 117.74 60.93 117.85 61.35 117.97 60.93 118.08 60.51 118.19 60.51 118.31 60.09 118.42 60.09 118.54 60.09 118.65 60.09 118.76 60.93 118.88 60.51 118.99 60.51 119.11 60.51 119.22 60.09 119.33 59.67 119.45 59.67 119.56 60.09 119.68 60.09 119.79 60.09 119.9 60.51 120.02 60.09 120.13 60.51 120.24 60.51 120.36 60.51 120.47 60.51 120.59 60.51 120.7 60.51 120.81 60.09 120.93 60.09 121.04 59.67 121.16 59.67 121.27 60.09 121.38 60.09 121.5 60.09 121.61 60.09 121.73 60.51 121.84 60.51 121.95 60.09 122.07 60.09 122.18 60.51 122.3 60.51 122.41 60.51 122.52 60.51 122.64 60.09 122.75 60.51 122.86 60.09 122.98 60.51 123.09 60.09 123.21 60.51 123.32 60.51 123.43 60.51 123.55 60.93 123.66 60.51 123.78 60.51 123.89 60.09 124 60.09 124.12 60.51 124.23 60.51 124.35 60.09 124.46 60.09 124.57 60.09 124.69 60.09 124.8 60.09 124.92 60.51 125.03 60.51 125.14 60.51 125.26 60.93 125.37 60.93 125.48 60.93 125.6 60.93 125.71 60.93 125.83 60.93 125.94 60.93 126.05 60.51 126.17 60.51 126.28 60.51 126.4 60.51 126.51 60.93 126.62 60.93 126.74 60.51 126.85 60.93 126.97 60.93 127.08 60.93 127.19 60.51 127.31 60.51 127.42 60.51 127.54 60.93 127.65 60.93 127.76 60.93 127.88 60.51 127.99 60.09 128.1 60.09 128.22 60.09 128.33 60.09 128.45 60.09 128.56 60.09 128.67 60.51 128.79 60.51 128.9 60.93 129.02 60.51 129.13 61.35 129.24 60.93 129.36 60.93 129.47 61.35 129.59 60.93 129.7 61.35 129.81 60.51 129.93 60.51 130.04 60.93 130.16 60.93 130.27 60.93 130.38 60.93 130.5 60.51 130.61 60.93 130.73 60.93 130.84 60.93 130.95 60.93 131.07 60.93 131.18 60.93 131.29 60.93 131.41 60.93 131.52 60.93 131.64 60.93 131.75 60.93 131.86 60.93 131.98 60.93 132.09 60.93 132.21 60.51 132.32 60.51 132.43 60.51 132.55 60.51 132.66 60.51 132.78 60.51 132.89 60.93 133 60.93 133.12 60.51 133.23 60.51 133.35 60.51 133.46 60.51 133.57 60.51 133.69 60.93 133.8 60.51 133.91 60.51 134.03 60.93 134.14 60.93 134.26 60.93 134.37 61.35 134.48 61.35 134.6 61.35 134.71 60.93 134.83 60.51 134.94 60.51 135.05 60.93 135.17 60.51 135.28 60.93 135.4 60.93 135.51 61.35 135.62 60.93" id="img-09a4fa96-44" stroke="#FF6DAE" class="geometry color_25"/>
      </g>
    </g>
  </g>
</g>
  <g class="guide ylabels" font-size="2.82" font-family="'PT Sans Caption','Helvetica Neue','Helvetica',sans-serif" fill="#6C606B" id="img-09a4fa96-45">
    <text x="18.82" y="69.71" text-anchor="end" dy="0.35em" id="img-09a4fa96-46">0</text>
    <text x="18.82" y="48.81" text-anchor="end" dy="0.35em" id="img-09a4fa96-47">50</text>
    <text x="18.82" y="27.9" text-anchor="end" dy="0.35em" id="img-09a4fa96-48">100</text>
    <text x="18.82" y="7" text-anchor="end" dy="0.35em" id="img-09a4fa96-49">150</text>
  </g>
  <g font-size="3.88" font-family="'PT Sans','Helvetica Neue','Helvetica',sans-serif" fill="#564A55" stroke="#000000" stroke-opacity="0.000" id="img-09a4fa96-50">
    <text x="8.76" y="36.35" text-anchor="middle" dy="0.35em" transform="rotate(-90, 8.76, 38.35)" id="img-09a4fa96-51">nSpecie</text>
  </g>
</g>
<defs>
  <clipPath id="img-09a4fa96-23">
  <path d="M19.82,5 L 137.74 5 137.74 71.71 19.82 71.71" />
</clipPath>
</defs>
</svg>
