<?xml version="1.0" encoding="UTF-8"?>
<svg xmlns="http://www.w3.org/2000/svg"
     xmlns:xlink="http://www.w3.org/1999/xlink"
     xmlns:gadfly="http://www.gadflyjl.org/ns"
     version="1.2"
     width="150mm" height="90mm" viewBox="0 0 150 90"
     stroke="none"
     fill="#000000"
     stroke-width="0.3"
     font-size="3.88"
>
<g class="plotroot xscalable yscalable" id="img-758d3a72-1">
  <g font-size="3.88" font-family="'PT Sans','Helvetica Neue','Helvetica',sans-serif" fill="#564A55" stroke="#000000" stroke-opacity="0.000" id="img-758d3a72-2">
    <text x="77.01" y="79.18" text-anchor="middle" dy="0.6em">time</text>
  </g>
  <g class="guide xlabels" font-size="2.82" font-family="'PT Sans Caption','Helvetica Neue','Helvetica',sans-serif" fill="#6C606B" id="img-758d3a72-3">
    <text x="21.82" y="72.71" text-anchor="middle" dy="0.6em">0</text>
    <text x="77.01" y="72.71" text-anchor="middle" dy="0.6em">5.0×10³</text>
    <text x="132.21" y="72.71" text-anchor="middle" dy="0.6em">1.0×10⁴</text>
  </g>
  <g class="guide colorkey" id="img-758d3a72-4">
    <g fill="#4C404B" font-size="2.82" font-family="'PT Sans','Helvetica Neue','Helvetica',sans-serif" id="img-758d3a72-5">
      <text x="137.94" y="34.88" dy="0.35em" id="img-758d3a72-6" class="color_1">1</text>
      <text x="137.94" y="38.35" dy="0.35em" id="img-758d3a72-7" class="color_7">7</text>
      <text x="137.94" y="41.82" dy="0.35em" id="img-758d3a72-8" class="color_49">49</text>
      <text x="137.94" y="45.29" dy="0.35em" id="img-758d3a72-9" class="color_2401">2401</text>
    </g>
    <g stroke="#000000" stroke-opacity="0.000" id="img-758d3a72-10">
      <rect x="135.21" y="34.02" width="1.73" height="1.73" id="img-758d3a72-11" class="color_1" fill="#00BFFF"/>
      <rect x="135.21" y="37.49" width="1.73" height="1.73" id="img-758d3a72-12" class="color_7" fill="#D4CA3A"/>
      <rect x="135.21" y="40.96" width="1.73" height="1.73" id="img-758d3a72-13" class="color_49" fill="#FF6DAE"/>
      <rect x="135.21" y="44.43" width="1.73" height="1.73" id="img-758d3a72-14" class="color_2401" fill="#00B78D"/>
    </g>
    <g fill="#362A35" font-size="3.88" font-family="'PT Sans','Helvetica Neue','Helvetica',sans-serif" stroke="#000000" stroke-opacity="0.000" id="img-758d3a72-15">
      <text x="135.21" y="30.65" id="img-758d3a72-16">r</text>
    </g>
  </g>
<g clip-path="url(#img-758d3a72-17)">
  <g id="img-758d3a72-18">
    <g pointer-events="visible" opacity="1" fill="#000000" fill-opacity="0.000" stroke="#000000" stroke-opacity="0.000" class="guide background" id="img-758d3a72-19">
      <rect x="19.82" y="5" width="114.39" height="66.71" id="img-758d3a72-20"/>
    </g>
    <g class="guide ygridlines xfixed" stroke-dasharray="0.5,0.5" stroke-width="0.2" stroke="#D0D0E0" id="img-758d3a72-21">
      <path fill="none" d="M19.82,69.71 L 134.21 69.71" id="img-758d3a72-22"/>
      <path fill="none" d="M19.82,54.03 L 134.21 54.03" id="img-758d3a72-23"/>
      <path fill="none" d="M19.82,38.35 L 134.21 38.35" id="img-758d3a72-24"/>
      <path fill="none" d="M19.82,22.68 L 134.21 22.68" id="img-758d3a72-25"/>
      <path fill="none" d="M19.82,7 L 134.21 7" id="img-758d3a72-26"/>
    </g>
    <g class="guide xgridlines yfixed" stroke-dasharray="0.5,0.5" stroke-width="0.2" stroke="#D0D0E0" id="img-758d3a72-27">
      <path fill="none" d="M21.82,5 L 21.82 71.71" id="img-758d3a72-28"/>
      <path fill="none" d="M77.01,5 L 77.01 71.71" id="img-758d3a72-29"/>
      <path fill="none" d="M132.21,5 L 132.21 71.71" id="img-758d3a72-30"/>
    </g>
    <g class="plotpanel" id="img-758d3a72-31">
      <g stroke-width="0.3" fill="#000000" fill-opacity="0.000" stroke-dasharray="none" id="img-758d3a72-32">
        <path fill="none" d="M21.82,7 L 21.93 14.84 22.04 24.24 22.15 28.95 22.26 30.52 22.37 32.08 22.48 33.65 22.59 33.65 22.7 33.65 22.81 30.52 22.92 33.65 23.03 32.08 23.14 30.52 23.25 32.08 23.36 33.65 23.48 33.65 23.59 32.08 23.7 33.65 23.81 30.52 23.92 30.52 24.03 30.52 24.14 32.08 24.25 30.52 24.36 28.95 24.47 27.38 24.58 32.08 24.69 33.65 24.8 35.22 24.91 33.65 25.02 35.22 25.13 33.65 25.24 33.65 25.35 33.65 25.46 33.65 25.57 33.65 25.68 32.08 25.79 32.08 25.9 33.65 26.01 30.52 26.12 32.08 26.24 33.65 26.35 33.65 26.46 33.65 26.57 33.65 26.68 33.65 26.79 35.22 26.9 36.79 27.01 35.22 27.12 35.22 27.23 35.22 27.34 33.65 27.45 32.08 27.56 30.52 27.67 30.52 27.78 30.52 27.89 30.52 28 32.08 28.11 35.22 28.22 33.65 28.33 33.65 28.44 35.22 28.55 36.79 28.66 38.35 28.77 38.35 28.88 38.35 28.99 36.79 29.11 38.35 29.22 36.79 29.33 36.79 29.44 38.35 29.55 39.92 29.66 39.92 29.77 39.92 29.88 38.35 29.99 39.92 30.1 39.92 30.21 38.35 30.32 38.35 30.43 36.79 30.54 38.35 30.65 36.79 30.76 38.35 30.87 36.79 30.98 35.22 31.09 35.22 31.2 35.22 31.31 36.79 31.42 36.79 31.53 35.22 31.64 33.65 31.75 33.65 31.86 33.65 31.98 35.22 32.09 35.22 32.2 38.35 32.31 36.79 32.42 36.79 32.53 38.35 32.64 38.35 32.75 35.22 32.86 35.22 32.97 38.35 33.08 38.35 33.19 38.35 33.3 38.35 33.41 38.35 33.52 35.22 33.63 35.22 33.74 35.22 33.85 38.35 33.96 35.22 34.07 35.22 34.18 33.65 34.29 33.65 34.4 33.65 34.51 35.22 34.62 35.22 34.74 36.79 34.85 38.35 34.96 38.35 35.07 39.92 35.18 39.92 35.29 38.35 35.4 36.79 35.51 38.35 35.62 38.35 35.73 38.35 35.84 38.35 35.95 36.79 36.06 38.35 36.17 39.92 36.28 39.92 36.39 39.92 36.5 38.35 36.61 39.92 36.72 41.49 36.83 41.49 36.94 43.06 37.05 43.06 37.16 41.49 37.27 41.49 37.38 43.06 37.49 41.49 37.61 39.92 37.72 39.92 37.83 38.35 37.94 39.92 38.05 41.49 38.16 39.92 38.27 43.06 38.38 41.49 38.49 43.06 38.6 41.49 38.71 43.06 38.82 41.49 38.93 39.92 39.04 44.62 39.15 41.49 39.26 43.06 39.37 43.06 39.48 41.49 39.59 39.92 39.7 39.92 39.81 39.92 39.92 41.49 40.03 39.92 40.14 38.35 40.25 39.92 40.37 39.92 40.48 39.92 40.59 41.49 40.7 38.35 40.81 39.92 40.92 39.92 41.03 39.92 41.14 39.92 41.25 41.49 41.36 41.49 41.47 41.49 41.58 41.49 41.69 39.92 41.8 41.49 41.91 44.62 42.02 44.62 42.13 43.06 42.24 43.06 42.35 41.49 42.46 43.06 42.57 43.06 42.68 41.49 42.79 41.49 42.9 41.49 43.01 43.06 43.12 43.06 43.24 44.62 43.35 44.62 43.46 43.06 43.57 41.49 43.68 43.06 43.79 39.92 43.9 41.49 44.01 41.49 44.12 41.49 44.23 39.92 44.34 41.49 44.45 43.06 44.56 43.06 44.67 43.06 44.78 43.06 44.89 44.62 45 44.62 45.11 43.06 45.22 43.06 45.33 41.49 45.44 43.06 45.55 43.06 45.66 43.06 45.77 41.49 45.88 41.49 45.99 43.06 46.11 44.62 46.22 43.06 46.33 43.06 46.44 43.06 46.55 41.49 46.66 39.92 46.77 41.49 46.88 44.62 46.99 44.62 47.1 41.49 47.21 41.49 47.32 39.92 47.43 41.49 47.54 43.06 47.65 43.06 47.76 41.49 47.87 44.62 47.98 43.06 48.09 44.62 48.2 43.06 48.31 43.06 48.42 43.06 48.53 41.49 48.64 41.49 48.75 43.06 48.87 41.49 48.98 41.49 49.09 41.49 49.2 43.06 49.31 43.06 49.42 44.62 49.53 43.06 49.64 43.06 49.75 43.06 49.86 43.06 49.97 43.06 50.08 43.06 50.19 43.06 50.3 44.62 50.41 44.62 50.52 44.62 50.63 44.62 50.74 43.06 50.85 43.06 50.96 44.62 51.07 46.19 51.18 44.62 51.29 43.06 51.4 43.06 51.51 43.06 51.62 43.06 51.74 43.06 51.85 39.92 51.96 41.49 52.07 43.06 52.18 46.19 52.29 46.19 52.4 43.06 52.51 46.19 52.62 44.62 52.73 44.62 52.84 44.62 52.95 44.62 53.06 46.19 53.17 41.49 53.28 43.06 53.39 44.62 53.5 46.19 53.61 44.62 53.72 43.06 53.83 43.06 53.94 41.49 54.05 41.49 54.16 44.62 54.27 46.19 54.38 46.19 54.49 47.76 54.61 47.76 54.72 47.76 54.83 46.19 54.94 44.62 55.05 46.19 55.16 46.19 55.27 47.76 55.38 46.19 55.49 47.76 55.6 44.62 55.71 44.62 55.82 43.06 55.93 49.33 56.04 47.76 56.15 47.76 56.26 47.76 56.37 46.19 56.48 44.62 56.59 43.06 56.7 43.06 56.81 46.19 56.92 44.62 57.03 46.19 57.14 47.76 57.25 46.19 57.37 46.19 57.48 44.62 57.59 44.62 57.7 44.62 57.81 46.19 57.92 46.19 58.03 44.62 58.14 44.62 58.25 46.19 58.36 46.19 58.47 47.76 58.58 49.33 58.69 50.9 58.8 49.33 58.91 47.76 59.02 47.76 59.13 46.19 59.24 46.19 59.35 46.19 59.46 47.76 59.57 47.76 59.68 43.06 59.79 44.62 59.9 47.76 60.01 46.19 60.12 47.76 60.24 47.76 60.35 47.76 60.46 47.76 60.57 49.33 60.68 46.19 60.79 47.76 60.9 46.19 61.01 47.76 61.12 46.19 61.23 46.19 61.34 47.76 61.45 49.33 61.56 50.9 61.67 50.9 61.78 50.9 61.89 47.76 62 49.33 62.11 46.19 62.22 44.62 62.33 47.76 62.44 49.33 62.55 49.33 62.66 49.33 62.77 49.33 62.88 47.76 63 46.19 63.11 47.76 63.22 47.76 63.33 49.33 63.44 47.76 63.55 47.76 63.66 49.33 63.77 49.33 63.88 49.33 63.99 50.9 64.1 49.33 64.21 47.76 64.32 46.19 64.43 47.76 64.54 49.33 64.65 50.9 64.76 50.9 64.87 50.9 64.98 50.9 65.09 50.9 65.2 52.46 65.31 50.9 65.42 50.9 65.53 49.33 65.64 50.9 65.75 50.9 65.87 50.9 65.98 52.46 66.09 52.46 66.2 50.9 66.31 49.33 66.42 46.19 66.53 46.19 66.64 49.33 66.75 47.76 66.86 47.76 66.97 46.19 67.08 46.19 67.19 46.19 67.3 46.19 67.41 46.19 67.52 47.76 67.63 46.19 67.74 47.76 67.85 47.76 67.96 46.19 68.07 46.19 68.18 44.62 68.29 44.62 68.4 43.06 68.51 46.19 68.62 44.62 68.74 44.62 68.85 44.62 68.96 43.06 69.07 44.62 69.18 47.76 69.29 47.76 69.4 47.76 69.51 49.33 69.62 52.46 69.73 49.33 69.84 47.76 69.95 46.19 70.06 47.76 70.17 46.19 70.28 46.19 70.39 47.76 70.5 46.19 70.61 47.76 70.72 47.76 70.83 47.76 70.94 49.33 71.05 47.76 71.16 46.19 71.27 49.33 71.38 50.9 71.5 49.33 71.61 49.33 71.72 47.76 71.83 49.33 71.94 47.76 72.05 47.76 72.16 47.76 72.27 47.76 72.38 49.33 72.49 49.33 72.6 49.33 72.71 49.33 72.82 47.76 72.93 47.76 73.04 47.76 73.15 47.76 73.26 47.76 73.37 47.76 73.48 46.19 73.59 49.33 73.7 49.33 73.81 49.33 73.92 49.33 74.03 49.33 74.14 47.76 74.25 49.33 74.37 50.9 74.48 49.33 74.59 49.33 74.7 46.19 74.81 47.76 74.92 46.19 75.03 47.76 75.14 44.62 75.25 46.19 75.36 47.76 75.47 47.76 75.58 49.33 75.69 50.9 75.8 52.46 75.91 52.46 76.02 54.03 76.13 54.03 76.24 52.46 76.35 52.46 76.46 50.9 76.57 49.33 76.68 49.33 76.79 50.9 76.9 47.76 77.01 46.19 77.12 46.19 77.24 47.76 77.35 47.76 77.46 47.76 77.57 47.76 77.68 49.33 77.79 47.76 77.9 47.76 78.01 47.76 78.12 49.33 78.23 50.9 78.34 50.9 78.45 50.9 78.56 50.9 78.67 52.46 78.78 49.33 78.89 47.76 79 47.76 79.11 47.76 79.22 47.76 79.33 47.76 79.44 46.19 79.55 47.76 79.66 49.33 79.77 49.33 79.88 49.33 80 46.19 80.11 46.19 80.22 46.19 80.33 49.33 80.44 50.9 80.55 49.33 80.66 49.33 80.77 49.33 80.88 47.76 80.99 47.76 81.1 47.76 81.21 47.76 81.32 47.76 81.43 47.76 81.54 49.33 81.65 47.76 81.76 49.33 81.87 47.76 81.98 47.76 82.09 47.76 82.2 49.33 82.31 49.33 82.42 49.33 82.53 49.33 82.64 50.9 82.75 50.9 82.87 52.46 82.98 50.9 83.09 50.9 83.2 52.46 83.31 50.9 83.42 50.9 83.53 52.46 83.64 52.46 83.75 52.46 83.86 50.9 83.97 50.9 84.08 50.9 84.19 50.9 84.3 50.9 84.41 54.03 84.52 54.03 84.63 54.03 84.74 52.46 84.85 54.03 84.96 52.46 85.07 52.46 85.18 54.03 85.29 52.46 85.4 50.9 85.51 52.46 85.63 54.03 85.74 52.46 85.85 50.9 85.96 52.46 86.07 54.03 86.18 50.9 86.29 50.9 86.4 50.9 86.51 49.33 86.62 50.9 86.73 50.9 86.84 50.9 86.95 50.9 87.06 49.33 87.17 50.9 87.28 52.46 87.39 54.03 87.5 54.03 87.61 52.46 87.72 50.9 87.83 50.9 87.94 52.46 88.05 52.46 88.16 52.46 88.27 52.46 88.38 49.33 88.5 50.9 88.61 50.9 88.72 52.46 88.83 54.03 88.94 52.46 89.05 50.9 89.16 52.46 89.27 50.9 89.38 52.46 89.49 52.46 89.6 50.9 89.71 52.46 89.82 52.46 89.93 52.46 90.04 52.46 90.15 52.46 90.26 52.46 90.37 52.46 90.48 52.46 90.59 52.46 90.7 54.03 90.81 57.17 90.92 54.03 91.03 54.03 91.14 52.46 91.25 54.03 91.37 54.03 91.48 50.9 91.59 50.9 91.7 54.03 91.81 50.9 91.92 52.46 92.03 55.6 92.14 57.17 92.25 57.17 92.36 55.6 92.47 54.03 92.58 58.73 92.69 57.17 92.8 54.03 92.91 52.46 93.02 55.6 93.13 52.46 93.24 52.46 93.35 54.03 93.46 54.03 93.57 52.46 93.68 54.03 93.79 52.46 93.9 54.03 94.01 54.03 94.13 50.9 94.24 52.46 94.35 54.03 94.46 54.03 94.57 55.6 94.68 55.6 94.79 52.46 94.9 50.9 95.01 52.46 95.12 55.6 95.23 54.03 95.34 54.03 95.45 54.03 95.56 55.6 95.67 57.17 95.78 57.17 95.89 55.6 96 54.03 96.11 54.03 96.22 52.46 96.33 54.03 96.44 55.6 96.55 52.46 96.66 54.03 96.77 55.6 96.88 55.6 97 55.6 97.11 54.03 97.22 55.6 97.33 55.6 97.44 54.03 97.55 54.03 97.66 54.03 97.77 54.03 97.88 54.03 97.99 54.03 98.1 54.03 98.21 54.03 98.32 54.03 98.43 55.6 98.54 57.17 98.65 57.17 98.76 57.17 98.87 55.6 98.98 58.73 99.09 57.17 99.2 55.6 99.31 55.6 99.42 55.6 99.53 55.6 99.64 54.03 99.75 52.46 99.87 52.46 99.98 50.9 100.09 52.46 100.2 50.9 100.31 50.9 100.42 50.9 100.53 49.33 100.64 52.46 100.75 54.03 100.86 54.03 100.97 50.9 101.08 52.46 101.19 52.46 101.3 54.03 101.41 52.46 101.52 50.9 101.63 52.46 101.74 50.9 101.85 50.9 101.96 50.9 102.07 50.9 102.18 49.33 102.29 50.9 102.4 50.9 102.51 50.9 102.63 50.9 102.74 50.9 102.85 52.46 102.96 54.03 103.07 52.46 103.18 50.9 103.29 52.46 103.4 52.46 103.51 52.46 103.62 52.46 103.73 54.03 103.84 54.03 103.95 50.9 104.06 52.46 104.17 50.9 104.28 52.46 104.39 54.03 104.5 54.03 104.61 55.6 104.72 54.03 104.83 54.03 104.94 54.03 105.05 52.46 105.16 52.46 105.27 49.33 105.38 49.33 105.5 49.33 105.61 50.9 105.72 50.9 105.83 50.9 105.94 49.33 106.05 50.9 106.16 50.9 106.27 50.9 106.38 49.33 106.49 47.76 106.6 49.33 106.71 49.33 106.82 50.9 106.93 52.46 107.04 52.46 107.15 54.03 107.26 54.03 107.37 52.46 107.48 52.46 107.59 50.9 107.7 50.9 107.81 50.9 107.92 50.9 108.03 49.33 108.14 50.9 108.26 50.9 108.37 50.9 108.48 49.33 108.59 50.9 108.7 50.9 108.81 49.33 108.92 49.33 109.03 49.33 109.14 50.9 109.25 50.9 109.36 50.9 109.47 50.9 109.58 54.03 109.69 52.46 109.8 54.03 109.91 50.9 110.02 50.9 110.13 54.03 110.24 52.46 110.35 50.9 110.46 49.33 110.57 50.9 110.68 50.9 110.79 49.33 110.9 50.9 111.01 50.9 111.13 52.46 111.24 50.9 111.35 50.9 111.46 50.9 111.57 50.9 111.68 49.33 111.79 49.33 111.9 49.33 112.01 49.33 112.12 50.9 112.23 49.33 112.34 47.76 112.45 49.33 112.56 52.46 112.67 52.46 112.78 54.03 112.89 52.46 113 50.9 113.11 52.46 113.22 50.9 113.33 50.9 113.44 52.46 113.55 50.9 113.66 54.03 113.77 52.46 113.88 52.46 114 52.46 114.11 52.46 114.22 52.46 114.33 50.9 114.44 49.33 114.55 49.33 114.66 54.03 114.77 52.46 114.88 52.46 114.99 54.03 115.1 55.6 115.21 52.46 115.32 54.03 115.43 54.03 115.54 52.46 115.65 52.46 115.76 52.46 115.87 54.03 115.98 52.46 116.09 54.03 116.2 54.03 116.31 52.46 116.42 52.46 116.53 54.03 116.64 54.03 116.76 55.6 116.87 57.17 116.98 55.6 117.09 50.9 117.2 50.9 117.31 52.46 117.42 54.03 117.53 54.03 117.64 52.46 117.75 54.03 117.86 52.46 117.97 50.9 118.08 52.46 118.19 52.46 118.3 55.6 118.41 55.6 118.52 57.17 118.63 54.03 118.74 54.03 118.85 55.6 118.96 55.6 119.07 54.03 119.18 54.03 119.29 52.46 119.4 54.03 119.51 52.46 119.63 52.46 119.74 50.9 119.85 52.46 119.96 52.46 120.07 54.03 120.18 54.03 120.29 54.03 120.4 52.46 120.51 54.03 120.62 54.03 120.73 54.03 120.84 52.46 120.95 54.03 121.06 52.46 121.17 52.46 121.28 52.46 121.39 50.9 121.5 52.46 121.61 55.6 121.72 54.03 121.83 54.03 121.94 54.03 122.05 55.6 122.16 54.03 122.27 54.03 122.38 54.03 122.5 55.6 122.61 57.17 122.72 55.6 122.83 55.6 122.94 54.03 123.05 54.03 123.16 57.17 123.27 57.17 123.38 55.6 123.49 57.17 123.6 57.17 123.71 57.17 123.82 55.6 123.93 55.6 124.04 57.17 124.15 54.03 124.26 54.03 124.37 54.03 124.48 55.6 124.59 55.6 124.7 55.6 124.81 57.17 124.92 55.6 125.03 54.03 125.14 55.6 125.26 57.17 125.37 55.6 125.48 54.03 125.59 55.6 125.7 57.17 125.81 55.6 125.92 57.17 126.03 55.6 126.14 54.03 126.25 54.03 126.36 54.03 126.47 54.03 126.58 54.03 126.69 52.46 126.8 55.6 126.91 55.6 127.02 55.6 127.13 54.03 127.24 54.03 127.35 55.6 127.46 55.6 127.57 55.6 127.68 57.17 127.79 55.6 127.9 55.6 128.01 54.03 128.13 55.6 128.24 57.17 128.35 57.17 128.46 55.6 128.57 55.6 128.68 54.03 128.79 52.46 128.9 54.03 129.01 50.9 129.12 50.9 129.23 50.9 129.34 52.46 129.45 50.9 129.56 54.03 129.67 55.6 129.78 54.03 129.89 55.6 130 55.6 130.11 55.6 130.22 54.03 130.33 54.03 130.44 54.03 130.55 55.6 130.66 54.03 130.77 55.6 130.89 55.6 131 54.03 131.11 55.6 131.22 55.6 131.33 54.03 131.44 55.6 131.55 55.6 131.66 54.03 131.77 54.03 131.88 55.6 131.99 57.17 132.1 57.17" id="img-758d3a72-33" stroke="#00B78D" class="geometry color_2401"/>
        <path fill="none" d="M21.82,7 L 21.93 16.41 22.04 25.81 22.15 28.95 22.26 32.08 22.37 33.65 22.48 32.08 22.59 32.08 22.7 30.52 22.81 32.08 22.92 32.08 23.03 35.22 23.14 33.65 23.25 33.65 23.36 28.95 23.48 30.52 23.59 32.08 23.7 30.52 23.81 30.52 23.92 32.08 24.03 30.52 24.14 28.95 24.25 28.95 24.36 30.52 24.47 33.65 24.58 32.08 24.69 32.08 24.8 32.08 24.91 30.52 25.02 30.52 25.13 32.08 25.24 30.52 25.35 30.52 25.46 30.52 25.57 33.65 25.68 33.65 25.79 33.65 25.9 33.65 26.01 32.08 26.12 33.65 26.24 33.65 26.35 33.65 26.46 33.65 26.57 32.08 26.68 32.08 26.79 33.65 26.9 33.65 27.01 30.52 27.12 32.08 27.23 33.65 27.34 32.08 27.45 35.22 27.56 35.22 27.67 33.65 27.78 35.22 27.89 33.65 28 35.22 28.11 33.65 28.22 32.08 28.33 35.22 28.44 33.65 28.55 32.08 28.66 32.08 28.77 32.08 28.88 32.08 28.99 32.08 29.11 35.22 29.22 33.65 29.33 33.65 29.44 32.08 29.55 33.65 29.66 33.65 29.77 33.65 29.88 32.08 29.99 32.08 30.1 33.65 30.21 35.22 30.32 33.65 30.43 33.65 30.54 30.52 30.65 32.08 30.76 32.08 30.87 32.08 30.98 33.65 31.09 32.08 31.2 35.22 31.31 35.22 31.42 35.22 31.53 33.65 31.64 36.79 31.75 35.22 31.86 38.35 31.98 36.79 32.09 36.79 32.2 35.22 32.31 38.35 32.42 38.35 32.53 36.79 32.64 36.79 32.75 38.35 32.86 36.79 32.97 38.35 33.08 38.35 33.19 38.35 33.3 38.35 33.41 38.35 33.52 38.35 33.63 39.92 33.74 39.92 33.85 36.79 33.96 38.35 34.07 38.35 34.18 38.35 34.29 38.35 34.4 36.79 34.51 38.35 34.62 38.35 34.74 36.79 34.85 38.35 34.96 36.79 35.07 36.79 35.18 38.35 35.29 38.35 35.4 38.35 35.51 39.92 35.62 38.35 35.73 39.92 35.84 39.92 35.95 41.49 36.06 43.06 36.17 43.06 36.28 41.49 36.39 39.92 36.5 41.49 36.61 39.92 36.72 41.49 36.83 39.92 36.94 38.35 37.05 36.79 37.16 38.35 37.27 38.35 37.38 36.79 37.49 38.35 37.61 38.35 37.72 39.92 37.83 39.92 37.94 41.49 38.05 39.92 38.16 39.92 38.27 39.92 38.38 41.49 38.49 39.92 38.6 39.92 38.71 41.49 38.82 39.92 38.93 38.35 39.04 41.49 39.15 41.49 39.26 41.49 39.37 39.92 39.48 39.92 39.59 41.49 39.7 39.92 39.81 39.92 39.92 41.49 40.03 41.49 40.14 43.06 40.25 43.06 40.37 43.06 40.48 44.62 40.59 43.06 40.7 44.62 40.81 43.06 40.92 41.49 41.03 41.49 41.14 43.06 41.25 43.06 41.36 44.62 41.47 43.06 41.58 41.49 41.69 41.49 41.8 41.49 41.91 43.06 42.02 39.92 42.13 38.35 42.24 39.92 42.35 39.92 42.46 41.49 42.57 39.92 42.68 43.06 42.79 41.49 42.9 41.49 43.01 43.06 43.12 43.06 43.24 43.06 43.35 41.49 43.46 43.06 43.57 41.49 43.68 43.06 43.79 41.49 43.9 41.49 44.01 41.49 44.12 41.49 44.23 43.06 44.34 41.49 44.45 43.06 44.56 43.06 44.67 41.49 44.78 41.49 44.89 41.49 45 41.49 45.11 41.49 45.22 39.92 45.33 43.06 45.44 39.92 45.55 39.92 45.66 41.49 45.77 44.62 45.88 44.62 45.99 43.06 46.11 43.06 46.22 43.06 46.33 41.49 46.44 44.62 46.55 41.49 46.66 44.62 46.77 46.19 46.88 46.19 46.99 44.62 47.1 46.19 47.21 46.19 47.32 47.76 47.43 46.19 47.54 46.19 47.65 44.62 47.76 43.06 47.87 43.06 47.98 41.49 48.09 43.06 48.2 43.06 48.31 44.62 48.42 44.62 48.53 44.62 48.64 44.62 48.75 46.19 48.87 46.19 48.98 44.62 49.09 44.62 49.2 44.62 49.31 46.19 49.42 46.19 49.53 47.76 49.64 46.19 49.75 47.76 49.86 47.76 49.97 46.19 50.08 46.19 50.19 44.62 50.3 46.19 50.41 47.76 50.52 46.19 50.63 44.62 50.74 44.62 50.85 47.76 50.96 46.19 51.07 46.19 51.18 46.19 51.29 47.76 51.4 46.19 51.51 43.06 51.62 44.62 51.74 44.62 51.85 44.62 51.96 44.62 52.07 44.62 52.18 44.62 52.29 46.19 52.4 44.62 52.51 44.62 52.62 43.06 52.73 46.19 52.84 41.49 52.95 43.06 53.06 44.62 53.17 44.62 53.28 44.62 53.39 49.33 53.5 47.76 53.61 46.19 53.72 47.76 53.83 49.33 53.94 46.19 54.05 44.62 54.16 43.06 54.27 41.49 54.38 44.62 54.49 44.62 54.61 44.62 54.72 43.06 54.83 43.06 54.94 43.06 55.05 44.62 55.16 46.19 55.27 46.19 55.38 44.62 55.49 46.19 55.6 47.76 55.71 46.19 55.82 47.76 55.93 49.33 56.04 47.76 56.15 49.33 56.26 47.76 56.37 49.33 56.48 47.76 56.59 47.76 56.7 47.76 56.81 46.19 56.92 46.19 57.03 44.62 57.14 44.62 57.25 46.19 57.37 44.62 57.48 44.62 57.59 44.62 57.7 47.76 57.81 46.19 57.92 44.62 58.03 44.62 58.14 44.62 58.25 46.19 58.36 46.19 58.47 46.19 58.58 46.19 58.69 47.76 58.8 47.76 58.91 49.33 59.02 47.76 59.13 46.19 59.24 47.76 59.35 46.19 59.46 46.19 59.57 46.19 59.68 44.62 59.79 46.19 59.9 44.62 60.01 46.19 60.12 46.19 60.24 47.76 60.35 47.76 60.46 47.76 60.57 49.33 60.68 47.76 60.79 50.9 60.9 49.33 61.01 49.33 61.12 47.76 61.23 47.76 61.34 47.76 61.45 47.76 61.56 46.19 61.67 46.19 61.78 47.76 61.89 49.33 62 50.9 62.11 50.9 62.22 49.33 62.33 49.33 62.44 47.76 62.55 46.19 62.66 46.19 62.77 46.19 62.88 46.19 63 47.76 63.11 50.9 63.22 49.33 63.33 47.76 63.44 47.76 63.55 49.33 63.66 49.33 63.77 50.9 63.88 49.33 63.99 49.33 64.1 49.33 64.21 49.33 64.32 46.19 64.43 47.76 64.54 46.19 64.65 46.19 64.76 46.19 64.87 47.76 64.98 49.33 65.09 50.9 65.2 50.9 65.31 50.9 65.42 52.46 65.53 49.33 65.64 49.33 65.75 47.76 65.87 47.76 65.98 47.76 66.09 47.76 66.2 47.76 66.31 47.76 66.42 49.33 66.53 49.33 66.64 47.76 66.75 46.19 66.86 47.76 66.97 46.19 67.08 43.06 67.19 46.19 67.3 50.9 67.41 50.9 67.52 50.9 67.63 50.9 67.74 50.9 67.85 52.46 67.96 50.9 68.07 54.03 68.18 50.9 68.29 49.33 68.4 49.33 68.51 49.33 68.62 49.33 68.74 47.76 68.85 49.33 68.96 47.76 69.07 47.76 69.18 47.76 69.29 47.76 69.4 46.19 69.51 47.76 69.62 49.33 69.73 47.76 69.84 50.9 69.95 50.9 70.06 50.9 70.17 50.9 70.28 50.9 70.39 49.33 70.5 49.33 70.61 47.76 70.72 49.33 70.83 47.76 70.94 46.19 71.05 46.19 71.16 46.19 71.27 46.19 71.38 46.19 71.5 44.62 71.61 46.19 71.72 47.76 71.83 47.76 71.94 47.76 72.05 49.33 72.16 47.76 72.27 46.19 72.38 46.19 72.49 44.62 72.6 44.62 72.71 44.62 72.82 44.62 72.93 44.62 73.04 47.76 73.15 46.19 73.26 46.19 73.37 47.76 73.48 46.19 73.59 47.76 73.7 46.19 73.81 46.19 73.92 47.76 74.03 46.19 74.14 44.62 74.25 47.76 74.37 46.19 74.48 47.76 74.59 49.33 74.7 47.76 74.81 47.76 74.92 49.33 75.03 49.33 75.14 49.33 75.25 47.76 75.36 47.76 75.47 47.76 75.58 47.76 75.69 49.33 75.8 49.33 75.91 49.33 76.02 46.19 76.13 47.76 76.24 46.19 76.35 47.76 76.46 50.9 76.57 47.76 76.68 47.76 76.79 44.62 76.9 44.62 77.01 46.19 77.12 46.19 77.24 46.19 77.35 49.33 77.46 46.19 77.57 47.76 77.68 46.19 77.79 47.76 77.9 49.33 78.01 47.76 78.12 50.9 78.23 50.9 78.34 49.33 78.45 47.76 78.56 47.76 78.67 49.33 78.78 49.33 78.89 49.33 79 46.19 79.11 46.19 79.22 47.76 79.33 47.76 79.44 47.76 79.55 47.76 79.66 47.76 79.77 46.19 79.88 46.19 80 44.62 80.11 46.19 80.22 44.62 80.33 46.19 80.44 47.76 80.55 49.33 80.66 49.33 80.77 49.33 80.88 49.33 80.99 49.33 81.1 49.33 81.21 47.76 81.32 47.76 81.43 49.33 81.54 49.33 81.65 47.76 81.76 49.33 81.87 49.33 81.98 47.76 82.09 49.33 82.2 47.76 82.31 47.76 82.42 47.76 82.53 49.33 82.64 52.46 82.75 52.46 82.87 52.46 82.98 52.46 83.09 50.9 83.2 50.9 83.31 50.9 83.42 50.9 83.53 47.76 83.64 47.76 83.75 47.76 83.86 50.9 83.97 52.46 84.08 50.9 84.19 47.76 84.3 49.33 84.41 47.76 84.52 47.76 84.63 47.76 84.74 46.19 84.85 46.19 84.96 46.19 85.07 46.19 85.18 46.19 85.29 46.19 85.4 46.19 85.51 47.76 85.63 47.76 85.74 49.33 85.85 47.76 85.96 47.76 86.07 47.76 86.18 47.76 86.29 46.19 86.4 44.62 86.51 49.33 86.62 47.76 86.73 46.19 86.84 46.19 86.95 46.19 87.06 47.76 87.17 49.33 87.28 50.9 87.39 49.33 87.5 50.9 87.61 50.9 87.72 47.76 87.83 47.76 87.94 49.33 88.05 47.76 88.16 49.33 88.27 47.76 88.38 49.33 88.5 47.76 88.61 44.62 88.72 47.76 88.83 49.33 88.94 47.76 89.05 44.62 89.16 46.19 89.27 46.19 89.38 46.19 89.49 46.19 89.6 49.33 89.71 47.76 89.82 47.76 89.93 49.33 90.04 52.46 90.15 50.9 90.26 50.9 90.37 50.9 90.48 49.33 90.59 52.46 90.7 50.9 90.81 49.33 90.92 49.33 91.03 47.76 91.14 47.76 91.25 47.76 91.37 47.76 91.48 47.76 91.59 46.19 91.7 44.62 91.81 46.19 91.92 44.62 92.03 47.76 92.14 47.76 92.25 49.33 92.36 49.33 92.47 47.76 92.58 46.19 92.69 47.76 92.8 47.76 92.91 49.33 93.02 46.19 93.13 49.33 93.24 46.19 93.35 46.19 93.46 47.76 93.57 47.76 93.68 49.33 93.79 47.76 93.9 46.19 94.01 47.76 94.13 46.19 94.24 46.19 94.35 49.33 94.46 50.9 94.57 49.33 94.68 47.76 94.79 47.76 94.9 47.76 95.01 46.19 95.12 47.76 95.23 47.76 95.34 50.9 95.45 47.76 95.56 46.19 95.67 46.19 95.78 46.19 95.89 46.19 96 50.9 96.11 50.9 96.22 49.33 96.33 50.9 96.44 50.9 96.55 52.46 96.66 50.9 96.77 50.9 96.88 50.9 97 50.9 97.11 49.33 97.22 47.76 97.33 47.76 97.44 47.76 97.55 47.76 97.66 47.76 97.77 47.76 97.88 46.19 97.99 46.19 98.1 46.19 98.21 47.76 98.32 47.76 98.43 46.19 98.54 46.19 98.65 47.76 98.76 49.33 98.87 49.33 98.98 50.9 99.09 49.33 99.2 47.76 99.31 50.9 99.42 50.9 99.53 50.9 99.64 49.33 99.75 49.33 99.87 49.33 99.98 49.33 100.09 47.76 100.2 49.33 100.31 52.46 100.42 50.9 100.53 50.9 100.64 49.33 100.75 50.9 100.86 52.46 100.97 52.46 101.08 50.9 101.19 50.9 101.3 52.46 101.41 52.46 101.52 49.33 101.63 49.33 101.74 47.76 101.85 49.33 101.96 50.9 102.07 50.9 102.18 50.9 102.29 50.9 102.4 49.33 102.51 50.9 102.63 52.46 102.74 52.46 102.85 50.9 102.96 50.9 103.07 50.9 103.18 52.46 103.29 50.9 103.4 50.9 103.51 52.46 103.62 52.46 103.73 52.46 103.84 49.33 103.95 47.76 104.06 52.46 104.17 52.46 104.28 50.9 104.39 47.76 104.5 47.76 104.61 47.76 104.72 49.33 104.83 50.9 104.94 46.19 105.05 47.76 105.16 46.19 105.27 49.33 105.38 50.9 105.5 50.9 105.61 50.9 105.72 52.46 105.83 52.46 105.94 50.9 106.05 49.33 106.16 49.33 106.27 47.76 106.38 49.33 106.49 49.33 106.6 50.9 106.71 50.9 106.82 50.9 106.93 50.9 107.04 50.9 107.15 50.9 107.26 50.9 107.37 52.46 107.48 54.03 107.59 54.03 107.7 52.46 107.81 52.46 107.92 50.9 108.03 50.9 108.14 54.03 108.26 52.46 108.37 52.46 108.48 52.46 108.59 52.46 108.7 52.46 108.81 54.03 108.92 52.46 109.03 50.9 109.14 52.46 109.25 52.46 109.36 50.9 109.47 52.46 109.58 50.9 109.69 50.9 109.8 50.9 109.91 50.9 110.02 50.9 110.13 50.9 110.24 49.33 110.35 50.9 110.46 50.9 110.57 52.46 110.68 52.46 110.79 50.9 110.9 54.03 111.01 54.03 111.13 54.03 111.24 55.6 111.35 54.03 111.46 54.03 111.57 54.03 111.68 52.46 111.79 52.46 111.9 50.9 112.01 54.03 112.12 50.9 112.23 52.46 112.34 52.46 112.45 50.9 112.56 50.9 112.67 49.33 112.78 50.9 112.89 52.46 113 52.46 113.11 52.46 113.22 52.46 113.33 55.6 113.44 54.03 113.55 52.46 113.66 52.46 113.77 52.46 113.88 50.9 114 54.03 114.11 54.03 114.22 55.6 114.33 54.03 114.44 52.46 114.55 54.03 114.66 54.03 114.77 54.03 114.88 57.17 114.99 55.6 115.1 55.6 115.21 54.03 115.32 55.6 115.43 54.03 115.54 50.9 115.65 50.9 115.76 52.46 115.87 54.03 115.98 57.17 116.09 55.6 116.2 54.03 116.31 54.03 116.42 55.6 116.53 57.17 116.64 58.73 116.76 58.73 116.87 58.73 116.98 60.3 117.09 60.3 117.2 58.73 117.31 57.17 117.42 57.17 117.53 55.6 117.64 55.6 117.75 55.6 117.86 57.17 117.97 55.6 118.08 55.6 118.19 54.03 118.3 54.03 118.41 55.6 118.52 55.6 118.63 55.6 118.74 57.17 118.85 55.6 118.96 55.6 119.07 54.03 119.18 52.46 119.29 52.46 119.4 54.03 119.51 55.6 119.63 55.6 119.74 55.6 119.85 54.03 119.96 55.6 120.07 52.46 120.18 52.46 120.29 54.03 120.4 55.6 120.51 55.6 120.62 55.6 120.73 54.03 120.84 52.46 120.95 54.03 121.06 50.9 121.17 52.46 121.28 54.03 121.39 50.9 121.5 50.9 121.61 52.46 121.72 54.03 121.83 54.03 121.94 54.03 122.05 52.46 122.16 52.46 122.27 54.03 122.38 52.46 122.5 55.6 122.61 55.6 122.72 57.17 122.83 54.03 122.94 52.46 123.05 52.46 123.16 52.46 123.27 54.03 123.38 54.03 123.49 54.03 123.6 54.03 123.71 52.46 123.82 54.03 123.93 52.46 124.04 54.03 124.15 54.03 124.26 54.03 124.37 52.46 124.48 50.9 124.59 52.46 124.7 49.33 124.81 52.46 124.92 50.9 125.03 50.9 125.14 50.9 125.26 50.9 125.37 50.9 125.48 50.9 125.59 52.46 125.7 52.46 125.81 54.03 125.92 52.46 126.03 52.46 126.14 55.6 126.25 54.03 126.36 52.46 126.47 55.6 126.58 54.03 126.69 55.6 126.8 54.03 126.91 54.03 127.02 54.03 127.13 54.03 127.24 52.46 127.35 49.33 127.46 49.33 127.57 50.9 127.68 52.46 127.79 52.46 127.9 50.9 128.01 52.46 128.13 54.03 128.24 50.9 128.35 50.9 128.46 52.46 128.57 52.46 128.68 50.9 128.79 52.46 128.9 50.9 129.01 50.9 129.12 49.33 129.23 49.33 129.34 49.33 129.45 50.9 129.56 49.33 129.67 49.33 129.78 49.33 129.89 52.46 130 50.9 130.11 50.9 130.22 52.46 130.33 52.46 130.44 52.46 130.55 52.46 130.66 49.33 130.77 50.9 130.89 49.33 131 49.33 131.11 49.33 131.22 47.76 131.33 49.33 131.44 50.9 131.55 50.9 131.66 50.9 131.77 50.9 131.88 52.46 131.99 54.03 132.1 54.03" id="img-758d3a72-34" stroke="#00BFFF" class="geometry color_1"/>
        <path fill="none" d="M21.82,7 L 21.93 11.7 22.04 17.97 22.15 21.11 22.26 24.24 22.37 25.81 22.48 25.81 22.59 27.38 22.7 27.38 22.81 27.38 22.92 28.95 23.03 27.38 23.14 27.38 23.25 27.38 23.36 25.81 23.48 27.38 23.59 27.38 23.7 28.95 23.81 27.38 23.92 28.95 24.03 27.38 24.14 28.95 24.25 28.95 24.36 27.38 24.47 27.38 24.58 27.38 24.69 27.38 24.8 25.81 24.91 25.81 25.02 25.81 25.13 27.38 25.24 25.81 25.35 25.81 25.46 25.81 25.57 27.38 25.68 28.95 25.79 25.81 25.9 28.95 26.01 28.95 26.12 28.95 26.24 30.52 26.35 28.95 26.46 32.08 26.57 35.22 26.68 33.65 26.79 33.65 26.9 32.08 27.01 33.65 27.12 32.08 27.23 30.52 27.34 30.52 27.45 28.95 27.56 28.95 27.67 30.52 27.78 30.52 27.89 32.08 28 28.95 28.11 28.95 28.22 30.52 28.33 30.52 28.44 30.52 28.55 30.52 28.66 30.52 28.77 30.52 28.88 32.08 28.99 33.65 29.11 35.22 29.22 35.22 29.33 33.65 29.44 33.65 29.55 32.08 29.66 33.65 29.77 32.08 29.88 32.08 29.99 32.08 30.1 32.08 30.21 35.22 30.32 33.65 30.43 36.79 30.54 36.79 30.65 38.35 30.76 35.22 30.87 35.22 30.98 33.65 31.09 35.22 31.2 36.79 31.31 36.79 31.42 36.79 31.53 38.35 31.64 36.79 31.75 33.65 31.86 33.65 31.98 35.22 32.09 35.22 32.2 36.79 32.31 33.65 32.42 33.65 32.53 33.65 32.64 35.22 32.75 35.22 32.86 35.22 32.97 35.22 33.08 35.22 33.19 33.65 33.3 35.22 33.41 35.22 33.52 36.79 33.63 36.79 33.74 36.79 33.85 38.35 33.96 39.92 34.07 39.92 34.18 39.92 34.29 38.35 34.4 36.79 34.51 38.35 34.62 38.35 34.74 43.06 34.85 38.35 34.96 36.79 35.07 36.79 35.18 35.22 35.29 35.22 35.4 38.35 35.51 36.79 35.62 38.35 35.73 36.79 35.84 38.35 35.95 35.22 36.06 35.22 36.17 36.79 36.28 38.35 36.39 36.79 36.5 38.35 36.61 36.79 36.72 38.35 36.83 38.35 36.94 38.35 37.05 38.35 37.16 36.79 37.27 38.35 37.38 39.92 37.49 43.06 37.61 41.49 37.72 41.49 37.83 41.49 37.94 39.92 38.05 39.92 38.16 39.92 38.27 36.79 38.38 36.79 38.49 36.79 38.6 38.35 38.71 39.92 38.82 41.49 38.93 41.49 39.04 43.06 39.15 41.49 39.26 41.49 39.37 38.35 39.48 38.35 39.59 39.92 39.7 41.49 39.81 43.06 39.92 41.49 40.03 41.49 40.14 41.49 40.25 41.49 40.37 41.49 40.48 41.49 40.59 43.06 40.7 41.49 40.81 39.92 40.92 41.49 41.03 39.92 41.14 39.92 41.25 39.92 41.36 41.49 41.47 41.49 41.58 43.06 41.69 43.06 41.8 43.06 41.91 41.49 42.02 41.49 42.13 43.06 42.24 43.06 42.35 43.06 42.46 43.06 42.57 41.49 42.68 43.06 42.79 43.06 42.9 46.19 43.01 41.49 43.12 41.49 43.24 44.62 43.35 44.62 43.46 41.49 43.57 44.62 43.68 44.62 43.79 44.62 43.9 43.06 44.01 39.92 44.12 41.49 44.23 43.06 44.34 41.49 44.45 41.49 44.56 39.92 44.67 38.35 44.78 38.35 44.89 41.49 45 39.92 45.11 39.92 45.22 43.06 45.33 44.62 45.44 41.49 45.55 43.06 45.66 43.06 45.77 43.06 45.88 43.06 45.99 41.49 46.11 43.06 46.22 41.49 46.33 44.62 46.44 44.62 46.55 44.62 46.66 43.06 46.77 43.06 46.88 44.62 46.99 44.62 47.1 43.06 47.21 43.06 47.32 39.92 47.43 39.92 47.54 41.49 47.65 39.92 47.76 38.35 47.87 39.92 47.98 38.35 48.09 38.35 48.2 39.92 48.31 39.92 48.42 39.92 48.53 39.92 48.64 43.06 48.75 44.62 48.87 43.06 48.98 41.49 49.09 44.62 49.2 41.49 49.31 43.06 49.42 43.06 49.53 41.49 49.64 41.49 49.75 43.06 49.86 43.06 49.97 39.92 50.08 41.49 50.19 41.49 50.3 43.06 50.41 44.62 50.52 44.62 50.63 43.06 50.74 44.62 50.85 44.62 50.96 44.62 51.07 43.06 51.18 46.19 51.29 46.19 51.4 46.19 51.51 44.62 51.62 44.62 51.74 43.06 51.85 41.49 51.96 41.49 52.07 43.06 52.18 43.06 52.29 44.62 52.4 43.06 52.51 43.06 52.62 41.49 52.73 41.49 52.84 41.49 52.95 41.49 53.06 43.06 53.17 43.06 53.28 43.06 53.39 41.49 53.5 43.06 53.61 43.06 53.72 44.62 53.83 41.49 53.94 39.92 54.05 39.92 54.16 41.49 54.27 41.49 54.38 41.49 54.49 41.49 54.61 43.06 54.72 44.62 54.83 44.62 54.94 44.62 55.05 43.06 55.16 44.62 55.27 44.62 55.38 46.19 55.49 44.62 55.6 44.62 55.71 41.49 55.82 41.49 55.93 41.49 56.04 39.92 56.15 41.49 56.26 43.06 56.37 44.62 56.48 43.06 56.59 43.06 56.7 44.62 56.81 43.06 56.92 46.19 57.03 44.62 57.14 44.62 57.25 46.19 57.37 44.62 57.48 44.62 57.59 44.62 57.7 43.06 57.81 41.49 57.92 41.49 58.03 43.06 58.14 41.49 58.25 43.06 58.36 41.49 58.47 43.06 58.58 41.49 58.69 44.62 58.8 46.19 58.91 44.62 59.02 44.62 59.13 44.62 59.24 43.06 59.35 44.62 59.46 46.19 59.57 46.19 59.68 46.19 59.79 44.62 59.9 44.62 60.01 44.62 60.12 46.19 60.24 44.62 60.35 44.62 60.46 43.06 60.57 44.62 60.68 44.62 60.79 44.62 60.9 43.06 61.01 44.62 61.12 47.76 61.23 46.19 61.34 47.76 61.45 47.76 61.56 47.76 61.67 47.76 61.78 47.76 61.89 47.76 62 47.76 62.11 46.19 62.22 46.19 62.33 44.62 62.44 44.62 62.55 46.19 62.66 46.19 62.77 46.19 62.88 44.62 63 43.06 63.11 44.62 63.22 44.62 63.33 46.19 63.44 46.19 63.55 46.19 63.66 46.19 63.77 46.19 63.88 46.19 63.99 44.62 64.1 46.19 64.21 46.19 64.32 47.76 64.43 47.76 64.54 46.19 64.65 46.19 64.76 46.19 64.87 46.19 64.98 44.62 65.09 46.19 65.2 46.19 65.31 44.62 65.42 44.62 65.53 44.62 65.64 46.19 65.75 46.19 65.87 44.62 65.98 46.19 66.09 46.19 66.2 47.76 66.31 47.76 66.42 46.19 66.53 46.19 66.64 47.76 66.75 47.76 66.86 46.19 66.97 43.06 67.08 44.62 67.19 44.62 67.3 46.19 67.41 46.19 67.52 46.19 67.63 47.76 67.74 47.76 67.85 47.76 67.96 47.76 68.07 47.76 68.18 44.62 68.29 46.19 68.4 49.33 68.51 49.33 68.62 46.19 68.74 46.19 68.85 44.62 68.96 43.06 69.07 44.62 69.18 46.19 69.29 44.62 69.4 46.19 69.51 49.33 69.62 47.76 69.73 47.76 69.84 46.19 69.95 46.19 70.06 46.19 70.17 46.19 70.28 46.19 70.39 46.19 70.5 47.76 70.61 46.19 70.72 47.76 70.83 47.76 70.94 46.19 71.05 49.33 71.16 47.76 71.27 49.33 71.38 46.19 71.5 44.62 71.61 44.62 71.72 46.19 71.83 46.19 71.94 44.62 72.05 44.62 72.16 43.06 72.27 43.06 72.38 46.19 72.49 44.62 72.6 43.06 72.71 44.62 72.82 44.62 72.93 46.19 73.04 47.76 73.15 49.33 73.26 49.33 73.37 47.76 73.48 49.33 73.59 47.76 73.7 49.33 73.81 47.76 73.92 46.19 74.03 46.19 74.14 46.19 74.25 44.62 74.37 44.62 74.48 43.06 74.59 46.19 74.7 46.19 74.81 47.76 74.92 47.76 75.03 47.76 75.14 49.33 75.25 49.33 75.36 47.76 75.47 46.19 75.58 47.76 75.69 47.76 75.8 46.19 75.91 46.19 76.02 47.76 76.13 46.19 76.24 46.19 76.35 47.76 76.46 47.76 76.57 49.33 76.68 49.33 76.79 46.19 76.9 46.19 77.01 46.19 77.12 46.19 77.24 46.19 77.35 46.19 77.46 43.06 77.57 43.06 77.68 41.49 77.79 46.19 77.9 46.19 78.01 44.62 78.12 46.19 78.23 44.62 78.34 44.62 78.45 44.62 78.56 47.76 78.67 46.19 78.78 44.62 78.89 46.19 79 46.19 79.11 49.33 79.22 47.76 79.33 50.9 79.44 49.33 79.55 50.9 79.66 50.9 79.77 49.33 79.88 49.33 80 47.76 80.11 50.9 80.22 50.9 80.33 50.9 80.44 49.33 80.55 50.9 80.66 50.9 80.77 49.33 80.88 50.9 80.99 49.33 81.1 49.33 81.21 49.33 81.32 49.33 81.43 49.33 81.54 49.33 81.65 50.9 81.76 49.33 81.87 49.33 81.98 50.9 82.09 47.76 82.2 50.9 82.31 49.33 82.42 49.33 82.53 49.33 82.64 49.33 82.75 47.76 82.87 47.76 82.98 49.33 83.09 47.76 83.2 47.76 83.31 47.76 83.42 49.33 83.53 49.33 83.64 47.76 83.75 47.76 83.86 47.76 83.97 49.33 84.08 50.9 84.19 49.33 84.3 50.9 84.41 49.33 84.52 47.76 84.63 47.76 84.74 47.76 84.85 47.76 84.96 49.33 85.07 49.33 85.18 49.33 85.29 49.33 85.4 49.33 85.51 50.9 85.63 49.33 85.74 49.33 85.85 49.33 85.96 49.33 86.07 47.76 86.18 50.9 86.29 49.33 86.4 46.19 86.51 47.76 86.62 47.76 86.73 47.76 86.84 46.19 86.95 44.62 87.06 47.76 87.17 47.76 87.28 49.33 87.39 49.33 87.5 49.33 87.61 49.33 87.72 49.33 87.83 49.33 87.94 49.33 88.05 49.33 88.16 49.33 88.27 49.33 88.38 47.76 88.5 47.76 88.61 46.19 88.72 47.76 88.83 46.19 88.94 47.76 89.05 47.76 89.16 47.76 89.27 47.76 89.38 47.76 89.49 50.9 89.6 49.33 89.71 49.33 89.82 46.19 89.93 47.76 90.04 47.76 90.15 46.19 90.26 47.76 90.37 46.19 90.48 46.19 90.59 46.19 90.7 46.19 90.81 47.76 90.92 47.76 91.03 47.76 91.14 47.76 91.25 47.76 91.37 49.33 91.48 47.76 91.59 49.33 91.7 49.33 91.81 47.76 91.92 47.76 92.03 44.62 92.14 46.19 92.25 47.76 92.36 49.33 92.47 49.33 92.58 50.9 92.69 52.46 92.8 50.9 92.91 50.9 93.02 52.46 93.13 50.9 93.24 50.9 93.35 52.46 93.46 50.9 93.57 50.9 93.68 49.33 93.79 49.33 93.9 50.9 94.01 50.9 94.13 50.9 94.24 50.9 94.35 50.9 94.46 54.03 94.57 52.46 94.68 55.6 94.79 55.6 94.9 54.03 95.01 52.46 95.12 52.46 95.23 50.9 95.34 50.9 95.45 50.9 95.56 50.9 95.67 50.9 95.78 47.76 95.89 47.76 96 49.33 96.11 49.33 96.22 49.33 96.33 49.33 96.44 49.33 96.55 50.9 96.66 50.9 96.77 50.9 96.88 49.33 97 47.76 97.11 46.19 97.22 47.76 97.33 47.76 97.44 49.33 97.55 47.76 97.66 47.76 97.77 44.62 97.88 44.62 97.99 46.19 98.1 46.19 98.21 49.33 98.32 46.19 98.43 47.76 98.54 47.76 98.65 47.76 98.76 47.76 98.87 49.33 98.98 47.76 99.09 49.33 99.2 50.9 99.31 47.76 99.42 47.76 99.53 47.76 99.64 49.33 99.75 47.76 99.87 47.76 99.98 46.19 100.09 46.19 100.2 47.76 100.31 49.33 100.42 49.33 100.53 47.76 100.64 49.33 100.75 49.33 100.86 49.33 100.97 52.46 101.08 52.46 101.19 49.33 101.3 50.9 101.41 50.9 101.52 54.03 101.63 52.46 101.74 54.03 101.85 50.9 101.96 52.46 102.07 52.46 102.18 52.46 102.29 52.46 102.4 50.9 102.51 50.9 102.63 50.9 102.74 52.46 102.85 50.9 102.96 49.33 103.07 49.33 103.18 49.33 103.29 50.9 103.4 50.9 103.51 47.76 103.62 49.33 103.73 47.76 103.84 47.76 103.95 47.76 104.06 50.9 104.17 52.46 104.28 52.46 104.39 50.9 104.5 50.9 104.61 50.9 104.72 50.9 104.83 50.9 104.94 49.33 105.05 52.46 105.16 50.9 105.27 52.46 105.38 49.33 105.5 49.33 105.61 46.19 105.72 47.76 105.83 47.76 105.94 47.76 106.05 47.76 106.16 49.33 106.27 47.76 106.38 47.76 106.49 47.76 106.6 50.9 106.71 50.9 106.82 50.9 106.93 50.9 107.04 52.46 107.15 54.03 107.26 50.9 107.37 50.9 107.48 50.9 107.59 47.76 107.7 49.33 107.81 47.76 107.92 50.9 108.03 52.46 108.14 50.9 108.26 50.9 108.37 52.46 108.48 50.9 108.59 52.46 108.7 50.9 108.81 52.46 108.92 54.03 109.03 54.03 109.14 54.03 109.25 52.46 109.36 52.46 109.47 50.9 109.58 54.03 109.69 52.46 109.8 50.9 109.91 52.46 110.02 52.46 110.13 52.46 110.24 54.03 110.35 52.46 110.46 52.46 110.57 52.46 110.68 52.46 110.79 54.03 110.9 52.46 111.01 54.03 111.13 54.03 111.24 52.46 111.35 54.03 111.46 52.46 111.57 52.46 111.68 50.9 111.79 50.9 111.9 52.46 112.01 52.46 112.12 52.46 112.23 52.46 112.34 50.9 112.45 50.9 112.56 49.33 112.67 50.9 112.78 52.46 112.89 50.9 113 50.9 113.11 52.46 113.22 54.03 113.33 54.03 113.44 52.46 113.55 52.46 113.66 52.46 113.77 52.46 113.88 52.46 114 50.9 114.11 50.9 114.22 50.9 114.33 49.33 114.44 50.9 114.55 50.9 114.66 49.33 114.77 49.33 114.88 50.9 114.99 52.46 115.1 49.33 115.21 50.9 115.32 50.9 115.43 47.76 115.54 49.33 115.65 49.33 115.76 50.9 115.87 49.33 115.98 50.9 116.09 52.46 116.2 54.03 116.31 54.03 116.42 55.6 116.53 52.46 116.64 52.46 116.76 52.46 116.87 54.03 116.98 52.46 117.09 52.46 117.2 49.33 117.31 50.9 117.42 49.33 117.53 49.33 117.64 50.9 117.75 47.76 117.86 50.9 117.97 52.46 118.08 54.03 118.19 55.6 118.3 54.03 118.41 52.46 118.52 50.9 118.63 50.9 118.74 50.9 118.85 52.46 118.96 52.46 119.07 52.46 119.18 52.46 119.29 52.46 119.4 54.03 119.51 55.6 119.63 55.6 119.74 54.03 119.85 54.03 119.96 52.46 120.07 50.9 120.18 49.33 120.29 50.9 120.4 50.9 120.51 50.9 120.62 49.33 120.73 50.9 120.84 54.03 120.95 54.03 121.06 54.03 121.17 54.03 121.28 55.6 121.39 54.03 121.5 54.03 121.61 55.6 121.72 55.6 121.83 55.6 121.94 52.46 122.05 52.46 122.16 50.9 122.27 52.46 122.38 52.46 122.5 54.03 122.61 52.46 122.72 50.9 122.83 49.33 122.94 50.9 123.05 50.9 123.16 49.33 123.27 49.33 123.38 50.9 123.49 49.33 123.6 49.33 123.71 47.76 123.82 47.76 123.93 47.76 124.04 49.33 124.15 47.76 124.26 47.76 124.37 49.33 124.48 50.9 124.59 49.33 124.7 49.33 124.81 49.33 124.92 50.9 125.03 49.33 125.14 49.33 125.26 49.33 125.37 49.33 125.48 50.9 125.59 52.46 125.7 50.9 125.81 50.9 125.92 50.9 126.03 50.9 126.14 50.9 126.25 49.33 126.36 50.9 126.47 49.33 126.58 50.9 126.69 54.03 126.8 54.03 126.91 50.9 127.02 50.9 127.13 49.33 127.24 50.9 127.35 52.46 127.46 52.46 127.57 49.33 127.68 50.9 127.79 49.33 127.9 47.76 128.01 50.9 128.13 50.9 128.24 52.46 128.35 52.46 128.46 50.9 128.57 50.9 128.68 52.46 128.79 50.9 128.9 50.9 129.01 52.46 129.12 52.46 129.23 50.9 129.34 50.9 129.45 50.9 129.56 52.46 129.67 52.46 129.78 55.6 129.89 54.03 130 55.6 130.11 57.17 130.22 57.17 130.33 52.46 130.44 50.9 130.55 50.9 130.66 50.9 130.77 52.46 130.89 50.9 131 50.9 131.11 52.46 131.22 50.9 131.33 50.9 131.44 52.46 131.55 52.46 131.66 52.46 131.77 54.03 131.88 52.46 131.99 54.03 132.1 54.03" id="img-758d3a72-35" stroke="#D4CA3A" class="geometry color_7"/>
        <path fill="none" d="M21.82,7 L 21.93 14.84 22.04 24.24 22.15 30.52 22.26 32.08 22.37 33.65 22.48 35.22 22.59 33.65 22.7 33.65 22.81 35.22 22.92 35.22 23.03 32.08 23.14 32.08 23.25 32.08 23.36 30.52 23.48 30.52 23.59 32.08 23.7 32.08 23.81 33.65 23.92 35.22 24.03 33.65 24.14 36.79 24.25 36.79 24.36 33.65 24.47 35.22 24.58 35.22 24.69 32.08 24.8 30.52 24.91 32.08 25.02 32.08 25.13 33.65 25.24 30.52 25.35 30.52 25.46 32.08 25.57 33.65 25.68 32.08 25.79 33.65 25.9 32.08 26.01 32.08 26.12 33.65 26.24 33.65 26.35 32.08 26.46 32.08 26.57 32.08 26.68 32.08 26.79 32.08 26.9 32.08 27.01 33.65 27.12 32.08 27.23 30.52 27.34 32.08 27.45 30.52 27.56 30.52 27.67 32.08 27.78 32.08 27.89 32.08 28 32.08 28.11 33.65 28.22 33.65 28.33 33.65 28.44 33.65 28.55 33.65 28.66 33.65 28.77 35.22 28.88 33.65 28.99 35.22 29.11 38.35 29.22 38.35 29.33 36.79 29.44 38.35 29.55 38.35 29.66 36.79 29.77 38.35 29.88 36.79 29.99 35.22 30.1 35.22 30.21 35.22 30.32 35.22 30.43 38.35 30.54 38.35 30.65 36.79 30.76 36.79 30.87 35.22 30.98 36.79 31.09 35.22 31.2 36.79 31.31 36.79 31.42 33.65 31.53 35.22 31.64 35.22 31.75 36.79 31.86 36.79 31.98 38.35 32.09 39.92 32.2 35.22 32.31 35.22 32.42 35.22 32.53 36.79 32.64 35.22 32.75 36.79 32.86 35.22 32.97 35.22 33.08 38.35 33.19 36.79 33.3 38.35 33.41 39.92 33.52 39.92 33.63 36.79 33.74 36.79 33.85 36.79 33.96 36.79 34.07 35.22 34.18 36.79 34.29 36.79 34.4 36.79 34.51 35.22 34.62 36.79 34.74 36.79 34.85 38.35 34.96 38.35 35.07 36.79 35.18 38.35 35.29 38.35 35.4 35.22 35.51 36.79 35.62 38.35 35.73 36.79 35.84 36.79 35.95 38.35 36.06 38.35 36.17 36.79 36.28 38.35 36.39 36.79 36.5 36.79 36.61 36.79 36.72 38.35 36.83 38.35 36.94 38.35 37.05 41.49 37.16 41.49 37.27 41.49 37.38 39.92 37.49 39.92 37.61 41.49 37.72 41.49 37.83 44.62 37.94 44.62 38.05 47.76 38.16 46.19 38.27 46.19 38.38 44.62 38.49 43.06 38.6 43.06 38.71 43.06 38.82 41.49 38.93 41.49 39.04 41.49 39.15 41.49 39.26 39.92 39.37 41.49 39.48 43.06 39.59 43.06 39.7 44.62 39.81 44.62 39.92 46.19 40.03 44.62 40.14 43.06 40.25 41.49 40.37 39.92 40.48 41.49 40.59 44.62 40.7 44.62 40.81 44.62 40.92 44.62 41.03 44.62 41.14 44.62 41.25 43.06 41.36 41.49 41.47 44.62 41.58 43.06 41.69 43.06 41.8 44.62 41.91 43.06 42.02 43.06 42.13 44.62 42.24 41.49 42.35 41.49 42.46 41.49 42.57 43.06 42.68 43.06 42.79 43.06 42.9 43.06 43.01 41.49 43.12 43.06 43.24 43.06 43.35 43.06 43.46 43.06 43.57 43.06 43.68 44.62 43.79 44.62 43.9 43.06 44.01 41.49 44.12 43.06 44.23 43.06 44.34 43.06 44.45 43.06 44.56 44.62 44.67 44.62 44.78 44.62 44.89 41.49 45 43.06 45.11 43.06 45.22 44.62 45.33 44.62 45.44 44.62 45.55 43.06 45.66 46.19 45.77 43.06 45.88 43.06 45.99 46.19 46.11 44.62 46.22 43.06 46.33 43.06 46.44 46.19 46.55 44.62 46.66 43.06 46.77 46.19 46.88 44.62 46.99 44.62 47.1 43.06 47.21 44.62 47.32 43.06 47.43 46.19 47.54 44.62 47.65 46.19 47.76 44.62 47.87 43.06 47.98 44.62 48.09 44.62 48.2 44.62 48.31 44.62 48.42 43.06 48.53 44.62 48.64 46.19 48.75 46.19 48.87 46.19 48.98 44.62 49.09 44.62 49.2 46.19 49.31 44.62 49.42 44.62 49.53 44.62 49.64 47.76 49.75 47.76 49.86 46.19 49.97 47.76 50.08 47.76 50.19 50.9 50.3 49.33 50.41 47.76 50.52 47.76 50.63 47.76 50.74 47.76 50.85 50.9 50.96 49.33 51.07 49.33 51.18 50.9 51.29 49.33 51.4 50.9 51.51 52.46 51.62 50.9 51.74 50.9 51.85 49.33 51.96 47.76 52.07 49.33 52.18 50.9 52.29 49.33 52.4 49.33 52.51 47.76 52.62 47.76 52.73 46.19 52.84 47.76 52.95 47.76 53.06 44.62 53.17 46.19 53.28 46.19 53.39 47.76 53.5 49.33 53.61 47.76 53.72 47.76 53.83 47.76 53.94 46.19 54.05 47.76 54.16 46.19 54.27 47.76 54.38 49.33 54.49 47.76 54.61 49.33 54.72 47.76 54.83 47.76 54.94 47.76 55.05 49.33 55.16 50.9 55.27 49.33 55.38 47.76 55.49 47.76 55.6 49.33 55.71 49.33 55.82 49.33 55.93 46.19 56.04 44.62 56.15 46.19 56.26 46.19 56.37 46.19 56.48 47.76 56.59 47.76 56.7 47.76 56.81 49.33 56.92 50.9 57.03 50.9 57.14 50.9 57.25 49.33 57.37 49.33 57.48 49.33 57.59 47.76 57.7 47.76 57.81 47.76 57.92 47.76 58.03 47.76 58.14 47.76 58.25 49.33 58.36 50.9 58.47 50.9 58.58 49.33 58.69 47.76 58.8 49.33 58.91 47.76 59.02 47.76 59.13 47.76 59.24 47.76 59.35 46.19 59.46 47.76 59.57 49.33 59.68 47.76 59.79 47.76 59.9 47.76 60.01 49.33 60.12 49.33 60.24 46.19 60.35 47.76 60.46 49.33 60.57 49.33 60.68 50.9 60.79 50.9 60.9 49.33 61.01 47.76 61.12 49.33 61.23 47.76 61.34 50.9 61.45 49.33 61.56 47.76 61.67 49.33 61.78 49.33 61.89 47.76 62 47.76 62.11 49.33 62.22 49.33 62.33 47.76 62.44 47.76 62.55 46.19 62.66 47.76 62.77 47.76 62.88 47.76 63 47.76 63.11 47.76 63.22 46.19 63.33 46.19 63.44 46.19 63.55 47.76 63.66 46.19 63.77 46.19 63.88 46.19 63.99 44.62 64.1 46.19 64.21 44.62 64.32 44.62 64.43 44.62 64.54 44.62 64.65 50.9 64.76 49.33 64.87 49.33 64.98 49.33 65.09 49.33 65.2 49.33 65.31 49.33 65.42 50.9 65.53 50.9 65.64 49.33 65.75 49.33 65.87 49.33 65.98 50.9 66.09 52.46 66.2 50.9 66.31 49.33 66.42 50.9 66.53 50.9 66.64 49.33 66.75 49.33 66.86 49.33 66.97 49.33 67.08 50.9 67.19 49.33 67.3 50.9 67.41 50.9 67.52 50.9 67.63 50.9 67.74 50.9 67.85 50.9 67.96 50.9 68.07 52.46 68.18 52.46 68.29 50.9 68.4 49.33 68.51 47.76 68.62 47.76 68.74 46.19 68.85 47.76 68.96 47.76 69.07 46.19 69.18 47.76 69.29 47.76 69.4 47.76 69.51 47.76 69.62 49.33 69.73 47.76 69.84 47.76 69.95 46.19 70.06 47.76 70.17 46.19 70.28 49.33 70.39 47.76 70.5 47.76 70.61 47.76 70.72 49.33 70.83 47.76 70.94 47.76 71.05 47.76 71.16 49.33 71.27 47.76 71.38 47.76 71.5 46.19 71.61 49.33 71.72 47.76 71.83 49.33 71.94 49.33 72.05 49.33 72.16 50.9 72.27 47.76 72.38 47.76 72.49 47.76 72.6 50.9 72.71 49.33 72.82 49.33 72.93 49.33 73.04 49.33 73.15 47.76 73.26 49.33 73.37 47.76 73.48 49.33 73.59 49.33 73.7 50.9 73.81 50.9 73.92 49.33 74.03 50.9 74.14 50.9 74.25 50.9 74.37 50.9 74.48 50.9 74.59 52.46 74.7 47.76 74.81 49.33 74.92 49.33 75.03 47.76 75.14 46.19 75.25 50.9 75.36 49.33 75.47 49.33 75.58 49.33 75.69 47.76 75.8 47.76 75.91 47.76 76.02 49.33 76.13 50.9 76.24 50.9 76.35 49.33 76.46 50.9 76.57 49.33 76.68 49.33 76.79 49.33 76.9 49.33 77.01 49.33 77.12 49.33 77.24 52.46 77.35 54.03 77.46 50.9 77.57 50.9 77.68 52.46 77.79 52.46 77.9 52.46 78.01 52.46 78.12 52.46 78.23 54.03 78.34 54.03 78.45 54.03 78.56 54.03 78.67 52.46 78.78 50.9 78.89 50.9 79 52.46 79.11 52.46 79.22 50.9 79.33 50.9 79.44 49.33 79.55 54.03 79.66 50.9 79.77 52.46 79.88 50.9 80 49.33 80.11 50.9 80.22 52.46 80.33 50.9 80.44 50.9 80.55 47.76 80.66 49.33 80.77 49.33 80.88 49.33 80.99 52.46 81.1 54.03 81.21 50.9 81.32 50.9 81.43 52.46 81.54 54.03 81.65 52.46 81.76 49.33 81.87 52.46 81.98 52.46 82.09 54.03 82.2 54.03 82.31 52.46 82.42 49.33 82.53 52.46 82.64 50.9 82.75 50.9 82.87 50.9 82.98 50.9 83.09 49.33 83.2 49.33 83.31 49.33 83.42 50.9 83.53 49.33 83.64 47.76 83.75 50.9 83.86 49.33 83.97 49.33 84.08 50.9 84.19 50.9 84.3 50.9 84.41 50.9 84.52 47.76 84.63 49.33 84.74 50.9 84.85 50.9 84.96 50.9 85.07 49.33 85.18 47.76 85.29 49.33 85.4 49.33 85.51 46.19 85.63 49.33 85.74 49.33 85.85 49.33 85.96 50.9 86.07 49.33 86.18 49.33 86.29 49.33 86.4 50.9 86.51 52.46 86.62 50.9 86.73 50.9 86.84 50.9 86.95 52.46 87.06 52.46 87.17 52.46 87.28 52.46 87.39 49.33 87.5 52.46 87.61 50.9 87.72 50.9 87.83 54.03 87.94 54.03 88.05 52.46 88.16 52.46 88.27 50.9 88.38 50.9 88.5 50.9 88.61 52.46 88.72 52.46 88.83 50.9 88.94 49.33 89.05 49.33 89.16 49.33 89.27 50.9 89.38 49.33 89.49 50.9 89.6 49.33 89.71 50.9 89.82 54.03 89.93 52.46 90.04 50.9 90.15 50.9 90.26 49.33 90.37 49.33 90.48 52.46 90.59 50.9 90.7 54.03 90.81 52.46 90.92 49.33 91.03 49.33 91.14 49.33 91.25 50.9 91.37 52.46 91.48 54.03 91.59 52.46 91.7 50.9 91.81 52.46 91.92 54.03 92.03 52.46 92.14 50.9 92.25 52.46 92.36 54.03 92.47 52.46 92.58 52.46 92.69 52.46 92.8 52.46 92.91 52.46 93.02 50.9 93.13 50.9 93.24 49.33 93.35 50.9 93.46 52.46 93.57 50.9 93.68 50.9 93.79 50.9 93.9 50.9 94.01 50.9 94.13 52.46 94.24 54.03 94.35 52.46 94.46 52.46 94.57 52.46 94.68 52.46 94.79 52.46 94.9 52.46 95.01 50.9 95.12 50.9 95.23 50.9 95.34 52.46 95.45 52.46 95.56 54.03 95.67 57.17 95.78 54.03 95.89 55.6 96 55.6 96.11 54.03 96.22 54.03 96.33 54.03 96.44 54.03 96.55 54.03 96.66 52.46 96.77 52.46 96.88 50.9 97 49.33 97.11 50.9 97.22 50.9 97.33 50.9 97.44 52.46 97.55 50.9 97.66 52.46 97.77 50.9 97.88 50.9 97.99 54.03 98.1 55.6 98.21 52.46 98.32 54.03 98.43 52.46 98.54 52.46 98.65 50.9 98.76 50.9 98.87 50.9 98.98 52.46 99.09 50.9 99.2 50.9 99.31 49.33 99.42 52.46 99.53 50.9 99.64 52.46 99.75 50.9 99.87 52.46 99.98 52.46 100.09 50.9 100.2 52.46 100.31 52.46 100.42 50.9 100.53 52.46 100.64 52.46 100.75 54.03 100.86 52.46 100.97 52.46 101.08 52.46 101.19 50.9 101.3 52.46 101.41 52.46 101.52 52.46 101.63 54.03 101.74 52.46 101.85 52.46 101.96 52.46 102.07 50.9 102.18 54.03 102.29 54.03 102.4 54.03 102.51 54.03 102.63 52.46 102.74 52.46 102.85 52.46 102.96 52.46 103.07 54.03 103.18 52.46 103.29 52.46 103.4 52.46 103.51 52.46 103.62 50.9 103.73 54.03 103.84 54.03 103.95 52.46 104.06 54.03 104.17 54.03 104.28 52.46 104.39 52.46 104.5 52.46 104.61 54.03 104.72 52.46 104.83 52.46 104.94 50.9 105.05 49.33 105.16 50.9 105.27 54.03 105.38 54.03 105.5 50.9 105.61 52.46 105.72 50.9 105.83 50.9 105.94 49.33 106.05 50.9 106.16 49.33 106.27 50.9 106.38 50.9 106.49 49.33 106.6 52.46 106.71 52.46 106.82 49.33 106.93 47.76 107.04 50.9 107.15 52.46 107.26 49.33 107.37 50.9 107.48 49.33 107.59 50.9 107.7 49.33 107.81 50.9 107.92 49.33 108.03 49.33 108.14 50.9 108.26 50.9 108.37 52.46 108.48 52.46 108.59 52.46 108.7 52.46 108.81 54.03 108.92 54.03 109.03 55.6 109.14 54.03 109.25 55.6 109.36 55.6 109.47 55.6 109.58 54.03 109.69 54.03 109.8 54.03 109.91 54.03 110.02 52.46 110.13 52.46 110.24 54.03 110.35 54.03 110.46 52.46 110.57 52.46 110.68 54.03 110.79 55.6 110.9 55.6 111.01 54.03 111.13 54.03 111.24 52.46 111.35 55.6 111.46 55.6 111.57 54.03 111.68 57.17 111.79 58.73 111.9 57.17 112.01 54.03 112.12 54.03 112.23 55.6 112.34 55.6 112.45 54.03 112.56 54.03 112.67 55.6 112.78 54.03 112.89 52.46 113 54.03 113.11 54.03 113.22 54.03 113.33 54.03 113.44 54.03 113.55 54.03 113.66 54.03 113.77 54.03 113.88 52.46 114 52.46 114.11 52.46 114.22 52.46 114.33 50.9 114.44 50.9 114.55 50.9 114.66 50.9 114.77 54.03 114.88 54.03 114.99 54.03 115.1 52.46 115.21 50.9 115.32 52.46 115.43 50.9 115.54 50.9 115.65 52.46 115.76 52.46 115.87 52.46 115.98 50.9 116.09 50.9 116.2 54.03 116.31 52.46 116.42 52.46 116.53 55.6 116.64 57.17 116.76 52.46 116.87 52.46 116.98 52.46 117.09 54.03 117.2 52.46 117.31 54.03 117.42 54.03 117.53 54.03 117.64 54.03 117.75 54.03 117.86 55.6 117.97 54.03 118.08 54.03 118.19 55.6 118.3 55.6 118.41 52.46 118.52 50.9 118.63 52.46 118.74 50.9 118.85 50.9 118.96 47.76 119.07 49.33 119.18 50.9 119.29 50.9 119.4 49.33 119.51 50.9 119.63 52.46 119.74 52.46 119.85 52.46 119.96 52.46 120.07 50.9 120.18 52.46 120.29 49.33 120.4 52.46 120.51 52.46 120.62 55.6 120.73 55.6 120.84 54.03 120.95 52.46 121.06 52.46 121.17 52.46 121.28 52.46 121.39 52.46 121.5 54.03 121.61 52.46 121.72 50.9 121.83 52.46 121.94 54.03 122.05 54.03 122.16 52.46 122.27 54.03 122.38 54.03 122.5 54.03 122.61 52.46 122.72 52.46 122.83 52.46 122.94 54.03 123.05 54.03 123.16 54.03 123.27 54.03 123.38 54.03 123.49 52.46 123.6 55.6 123.71 52.46 123.82 50.9 123.93 52.46 124.04 50.9 124.15 50.9 124.26 52.46 124.37 54.03 124.48 52.46 124.59 50.9 124.7 49.33 124.81 49.33 124.92 49.33 125.03 46.19 125.14 46.19 125.26 47.76 125.37 46.19 125.48 49.33 125.59 50.9 125.7 49.33 125.81 49.33 125.92 50.9 126.03 50.9 126.14 49.33 126.25 50.9 126.36 50.9 126.47 49.33 126.58 50.9 126.69 52.46 126.8 52.46 126.91 54.03 127.02 52.46 127.13 52.46 127.24 54.03 127.35 55.6 127.46 52.46 127.57 52.46 127.68 52.46 127.79 49.33 127.9 50.9 128.01 54.03 128.13 54.03 128.24 54.03 128.35 54.03 128.46 54.03 128.57 55.6 128.68 55.6 128.79 55.6 128.9 52.46 129.01 52.46 129.12 52.46 129.23 52.46 129.34 52.46 129.45 52.46 129.56 54.03 129.67 52.46 129.78 52.46 129.89 52.46 130 50.9 130.11 50.9 130.22 54.03 130.33 52.46 130.44 52.46 130.55 54.03 130.66 52.46 130.77 52.46 130.89 54.03 131 54.03 131.11 54.03 131.22 54.03 131.33 52.46 131.44 54.03 131.55 57.17 131.66 57.17 131.77 57.17 131.88 54.03 131.99 55.6 132.1 54.03" id="img-758d3a72-36" stroke="#FF6DAE" class="geometry color_49"/>
      </g>
    </g>
  </g>
</g>
  <g class="guide ylabels" font-size="2.82" font-family="'PT Sans Caption','Helvetica Neue','Helvetica',sans-serif" fill="#6C606B" id="img-758d3a72-37">
    <text x="18.82" y="69.71" text-anchor="end" dy="0.35em" id="img-758d3a72-38">60</text>
    <text x="18.82" y="54.03" text-anchor="end" dy="0.35em" id="img-758d3a72-39">70</text>
    <text x="18.82" y="38.35" text-anchor="end" dy="0.35em" id="img-758d3a72-40">80</text>
    <text x="18.82" y="22.68" text-anchor="end" dy="0.35em" id="img-758d3a72-41">90</text>
    <text x="18.82" y="7" text-anchor="end" dy="0.35em" id="img-758d3a72-42">100</text>
  </g>
  <g font-size="3.88" font-family="'PT Sans','Helvetica Neue','Helvetica',sans-serif" fill="#564A55" stroke="#000000" stroke-opacity="0.000" id="img-758d3a72-43">
    <text x="8.76" y="36.35" text-anchor="middle" dy="0.35em" transform="rotate(-90, 8.76, 38.35)" id="img-758d3a72-44">nSpecie</text>
  </g>
</g>
<defs>
  <clipPath id="img-758d3a72-17">
  <path d="M19.82,5 L 134.21 5 134.21 71.71 19.82 71.71" />
</clipPath>
</defs>
</svg>
