<?xml version="1.0" encoding="UTF-8"?>
<svg xmlns="http://www.w3.org/2000/svg"
     xmlns:xlink="http://www.w3.org/1999/xlink"
     xmlns:gadfly="http://www.gadflyjl.org/ns"
     version="1.2"
     width="150mm" height="90mm" viewBox="0 0 150 90"
     stroke="none"
     fill="#000000"
     stroke-width="0.3"
     font-size="3.88"
>
<g class="plotroot xscalable yscalable" id="img-693907c0-1">
  <g font-size="3.88" font-family="'PT Sans','Helvetica Neue','Helvetica',sans-serif" fill="#564A55" stroke="#000000" stroke-opacity="0.000" id="img-693907c0-2">
    <text x="75.6" y="79.18" text-anchor="middle" dy="0.6em">time</text>
  </g>
  <g class="guide xlabels" font-size="2.82" font-family="'PT Sans Caption','Helvetica Neue','Helvetica',sans-serif" fill="#6C606B" id="img-693907c0-3">
    <text x="21.82" y="72.71" text-anchor="middle" dy="0.6em">0</text>
    <text x="75.6" y="72.71" text-anchor="middle" dy="0.6em">5.0×10³</text>
    <text x="129.39" y="72.71" text-anchor="middle" dy="0.6em">1.0×10⁴</text>
  </g>
  <g class="guide colorkey" id="img-693907c0-4">
    <g fill="#4C404B" font-size="2.82" font-family="'PT Sans','Helvetica Neue','Helvetica',sans-serif" id="img-693907c0-5">
      <text x="135.12" y="33.15" dy="0.35em" id="img-693907c0-6" class="color_0.0">0.0</text>
      <text x="135.12" y="36.62" dy="0.35em" id="img-693907c0-7" class="color_0.0001">0.0001</text>
      <text x="135.12" y="40.09" dy="0.35em" id="img-693907c0-8" class="color_0.0005">0.0005</text>
      <text x="135.12" y="43.56" dy="0.35em" id="img-693907c0-9" class="color_0.001">0.001</text>
      <text x="135.12" y="47.03" dy="0.35em" id="img-693907c0-10" class="color_0.005">0.005</text>
    </g>
    <g stroke="#000000" stroke-opacity="0.000" id="img-693907c0-11">
      <rect x="132.39" y="32.28" width="1.73" height="1.73" id="img-693907c0-12" class="color_0.0" fill="#00BFFF"/>
      <rect x="132.39" y="35.75" width="1.73" height="1.73" id="img-693907c0-13" class="color_0.0001" fill="#D4CA3A"/>
      <rect x="132.39" y="39.22" width="1.73" height="1.73" id="img-693907c0-14" class="color_0.0005" fill="#FF6DAE"/>
      <rect x="132.39" y="42.69" width="1.73" height="1.73" id="img-693907c0-15" class="color_0.001" fill="#00B78D"/>
      <rect x="132.39" y="46.16" width="1.73" height="1.73" id="img-693907c0-16" class="color_0.005" fill="#BEA9FF"/>
    </g>
    <g fill="#362A35" font-size="3.88" font-family="'PT Sans','Helvetica Neue','Helvetica',sans-serif" stroke="#000000" stroke-opacity="0.000" id="img-693907c0-17">
      <text x="132.39" y="28.74" id="img-693907c0-18">m</text>
    </g>
  </g>
<g clip-path="url(#img-693907c0-19)">
  <g id="img-693907c0-20">
    <g pointer-events="visible" opacity="1" fill="#000000" fill-opacity="0.000" stroke="#000000" stroke-opacity="0.000" class="guide background" id="img-693907c0-21">
      <rect x="19.82" y="5" width="111.57" height="66.71" id="img-693907c0-22"/>
    </g>
    <g class="guide ygridlines xfixed" stroke-dasharray="0.5,0.5" stroke-width="0.2" stroke="#D0D0E0" id="img-693907c0-23">
      <path fill="none" d="M19.82,69.71 L 131.39 69.71" id="img-693907c0-24"/>
      <path fill="none" d="M19.82,54.03 L 131.39 54.03" id="img-693907c0-25"/>
      <path fill="none" d="M19.82,38.35 L 131.39 38.35" id="img-693907c0-26"/>
      <path fill="none" d="M19.82,22.68 L 131.39 22.68" id="img-693907c0-27"/>
      <path fill="none" d="M19.82,7 L 131.39 7" id="img-693907c0-28"/>
    </g>
    <g class="guide xgridlines yfixed" stroke-dasharray="0.5,0.5" stroke-width="0.2" stroke="#D0D0E0" id="img-693907c0-29">
      <path fill="none" d="M21.82,5 L 21.82 71.71" id="img-693907c0-30"/>
      <path fill="none" d="M75.6,5 L 75.6 71.71" id="img-693907c0-31"/>
      <path fill="none" d="M129.39,5 L 129.39 71.71" id="img-693907c0-32"/>
    </g>
    <g class="plotpanel" id="img-693907c0-33">
      <g stroke-width="0.3" fill="#000000" fill-opacity="0.000" stroke-dasharray="none" id="img-693907c0-34">
        <path fill="none" d="M21.82,22.68 L 21.93 27.38 22.03 32.08 22.14 35.22 22.25 35.22 22.36 36 22.46 36 22.57 36 22.68 37.57 22.79 36.79 22.9 38.35 23 36.79 23.11 37.57 23.22 36.79 23.33 36.79 23.43 36 23.54 35.22 23.65 34.43 23.76 35.22 23.86 34.43 23.97 34.43 24.08 34.43 24.19 34.43 24.29 35.22 24.4 35.22 24.51 35.22 24.62 35.22 24.72 34.43 24.83 33.65 24.94 35.22 25.05 33.65 25.15 32.87 25.26 32.87 25.37 32.08 25.48 31.3 25.58 32.87 25.69 33.65 25.8 32.87 25.91 32.87 26.01 32.08 26.12 34.43 26.23 32.87 26.34 32.87 26.44 34.43 26.55 32.08 26.66 32.87 26.77 32.87 26.88 34.43 26.98 34.43 27.09 33.65 27.2 32.87 27.31 33.65 27.41 33.65 27.52 33.65 27.63 33.65 27.74 32.87 27.84 32.87 27.95 32.08 28.06 32.08 28.17 33.65 28.27 33.65 28.38 33.65 28.49 32.08 28.6 32.08 28.7 32.08 28.81 32.87 28.92 32.87 29.03 32.87 29.13 32.87 29.24 32.87 29.35 33.65 29.46 32.87 29.56 32.87 29.67 33.65 29.78 32.87 29.89 32.08 29.99 32.08 30.1 33.65 30.21 32.87 30.32 32.87 30.42 32.08 30.53 32.87 30.64 33.65 30.75 33.65 30.86 34.43 30.96 32.08 31.07 32.87 31.18 33.65 31.29 33.65 31.39 35.22 31.5 34.43 31.61 34.43 31.72 35.22 31.82 34.43 31.93 34.43 32.04 34.43 32.15 35.22 32.25 33.65 32.36 32.87 32.47 34.43 32.58 35.22 32.68 34.43 32.79 33.65 32.9 33.65 33.01 34.43 33.11 32.87 33.22 32.87 33.33 33.65 33.44 33.65 33.54 33.65 33.65 33.65 33.76 34.43 33.87 35.22 33.97 35.22 34.08 36 34.19 35.22 34.3 35.22 34.4 35.22 34.51 35.22 34.62 34.43 34.73 36 34.84 35.22 34.94 36 35.05 36 35.16 36 35.27 35.22 35.37 35.22 35.48 35.22 35.59 34.43 35.7 36 35.8 36 35.91 36.79 36.02 36 36.13 36 36.23 35.22 36.34 36.79 36.45 36 36.56 36 36.66 36 36.77 36.79 36.88 36.79 36.99 36.79 37.09 36.79 37.2 36.79 37.31 37.57 37.42 36.79 37.52 36.79 37.63 36.79 37.74 37.57 37.85 37.57 37.95 37.57 38.06 36.79 38.17 36.79 38.28 36.79 38.38 35.22 38.49 35.22 38.6 36 38.71 36.79 38.82 37.57 38.92 36.79 39.03 36.79 39.14 36 39.25 36.79 39.35 36.79 39.46 37.57 39.57 36.79 39.68 37.57 39.78 36 39.89 36.79 40 37.57 40.11 38.35 40.21 36.79 40.32 36 40.43 36.79 40.54 36.79 40.64 36.79 40.75 36.79 40.86 36.79 40.97 36.79 41.07 37.57 41.18 37.57 41.29 37.57 41.4 36 41.5 36.79 41.61 37.57 41.72 38.35 41.83 37.57 41.93 38.35 42.04 38.35 42.15 39.14 42.26 38.35 42.36 37.57 42.47 37.57 42.58 38.35 42.69 36 42.8 36.79 42.9 36.79 43.01 36.79 43.12 37.57 43.23 37.57 43.33 36.79 43.44 36.79 43.55 36.79 43.66 37.57 43.76 37.57 43.87 37.57 43.98 37.57 44.09 37.57 44.19 38.35 44.3 38.35 44.41 38.35 44.52 38.35 44.62 39.14 44.73 39.14 44.84 39.14 44.95 38.35 45.05 38.35 45.16 37.57 45.27 36.79 45.38 35.22 45.48 36 45.59 36 45.7 38.35 45.81 38.35 45.91 39.14 46.02 38.35 46.13 38.35 46.24 39.14 46.34 39.14 46.45 38.35 46.56 38.35 46.67 38.35 46.78 38.35 46.88 39.14 46.99 39.14 47.1 39.14 47.21 39.14 47.31 39.14 47.42 38.35 47.53 37.57 47.64 37.57 47.74 38.35 47.85 39.92 47.96 39.14 48.07 39.14 48.17 39.14 48.28 39.14 48.39 39.92 48.5 40.71 48.6 39.92 48.71 39.14 48.82 39.92 48.93 40.71 49.03 39.14 49.14 39.92 49.25 39.92 49.36 40.71 49.46 40.71 49.57 40.71 49.68 40.71 49.79 39.92 49.89 39.92 50 39.14 50.11 39.14 50.22 39.14 50.32 39.14 50.43 39.14 50.54 39.14 50.65 38.35 50.76 38.35 50.86 39.14 50.97 39.92 51.08 39.14 51.19 39.14 51.29 39.14 51.4 39.14 51.51 39.92 51.62 39.14 51.72 39.14 51.83 40.71 51.94 40.71 52.05 39.92 52.15 39.92 52.26 41.49 52.37 41.49 52.48 41.49 52.58 40.71 52.69 40.71 52.8 40.71 52.91 41.49 53.01 41.49 53.12 41.49 53.23 41.49 53.34 40.71 53.44 39.14 53.55 39.14 53.66 38.35 53.77 38.35 53.87 38.35 53.98 39.92 54.09 39.92 54.2 40.71 54.3 41.49 54.41 40.71 54.52 39.92 54.63 40.71 54.74 41.49 54.84 40.71 54.95 39.92 55.06 39.14 55.17 39.92 55.27 41.49 55.38 40.71 55.49 39.92 55.6 39.92 55.7 40.71 55.81 40.71 55.92 39.14 56.03 38.35 56.13 39.14 56.24 39.14 56.35 38.35 56.46 37.57 56.56 39.14 56.67 39.92 56.78 40.71 56.89 39.92 56.99 39.92 57.1 40.71 57.21 39.14 57.32 39.92 57.42 39.14 57.53 39.14 57.64 38.35 57.75 38.35 57.85 38.35 57.96 39.14 58.07 39.92 58.18 40.71 58.29 41.49 58.39 40.71 58.5 40.71 58.61 39.92 58.72 40.71 58.82 39.92 58.93 40.71 59.04 39.92 59.15 40.71 59.25 41.49 59.36 39.92 59.47 39.92 59.58 40.71 59.68 39.92 59.79 41.49 59.9 40.71 60.01 41.49 60.11 40.71 60.22 40.71 60.33 41.49 60.44 42.27 60.54 41.49 60.65 41.49 60.76 42.27 60.87 43.84 60.97 43.06 61.08 43.06 61.19 41.49 61.3 41.49 61.4 39.92 61.51 40.71 61.62 42.27 61.73 42.27 61.83 42.27 61.94 42.27 62.05 42.27 62.16 42.27 62.27 40.71 62.37 41.49 62.48 40.71 62.59 40.71 62.7 39.92 62.8 40.71 62.91 40.71 63.02 40.71 63.13 40.71 63.23 41.49 63.34 40.71 63.45 40.71 63.56 41.49 63.66 41.49 63.77 41.49 63.88 41.49 63.99 42.27 64.09 43.06 64.2 43.06 64.31 43.84 64.42 42.27 64.52 41.49 64.63 41.49 64.74 41.49 64.85 40.71 64.95 42.27 65.06 42.27 65.17 41.49 65.28 42.27 65.38 43.06 65.49 41.49 65.6 40.71 65.71 41.49 65.81 41.49 65.92 42.27 66.03 43.06 66.14 42.27 66.25 42.27 66.35 40.71 66.46 41.49 66.57 41.49 66.68 41.49 66.78 40.71 66.89 40.71 67 40.71 67.11 39.14 67.21 39.14 67.32 40.71 67.43 41.49 67.54 41.49 67.64 42.27 67.75 41.49 67.86 41.49 67.97 40.71 68.07 41.49 68.18 42.27 68.29 42.27 68.4 42.27 68.5 42.27 68.61 43.06 68.72 43.84 68.83 43.06 68.93 42.27 69.04 42.27 69.15 42.27 69.26 41.49 69.36 43.06 69.47 43.06 69.58 41.49 69.69 40.71 69.79 40.71 69.9 41.49 70.01 41.49 70.12 42.27 70.23 42.27 70.33 41.49 70.44 42.27 70.55 43.06 70.66 43.06 70.76 43.06 70.87 44.62 70.98 44.62 71.09 44.62 71.19 45.41 71.3 44.62 71.41 45.41 71.52 43.84 71.62 43.84 71.73 45.41 71.84 43.84 71.95 43.84 72.05 44.62 72.16 43.84 72.27 44.62 72.38 44.62 72.48 44.62 72.59 44.62 72.7 44.62 72.81 43.84 72.91 43.84 73.02 42.27 73.13 43.84 73.24 43.84 73.34 43.84 73.45 44.62 73.56 43.06 73.67 43.06 73.77 43.06 73.88 43.06 73.99 43.06 74.1 43.84 74.21 44.62 74.31 43.84 74.42 43.06 74.53 43.84 74.64 43.84 74.74 43.06 74.85 42.27 74.96 43.84 75.07 44.62 75.17 44.62 75.28 43.84 75.39 44.62 75.5 45.41 75.6 45.41 75.71 45.41 75.82 45.41 75.93 46.19 76.03 45.41 76.14 44.62 76.25 45.41 76.36 46.19 76.46 44.62 76.57 44.62 76.68 46.19 76.79 45.41 76.89 44.62 77 45.41 77.11 45.41 77.22 44.62 77.32 45.41 77.43 45.41 77.54 44.62 77.65 43.84 77.75 44.62 77.86 43.84 77.97 43.84 78.08 43.84 78.19 43.84 78.29 43.06 78.4 42.27 78.51 43.84 78.62 43.84 78.72 43.84 78.83 43.84 78.94 44.62 79.05 43.06 79.15 43.84 79.26 44.62 79.37 43.84 79.48 43.06 79.58 44.62 79.69 43.06 79.8 43.06 79.91 43.06 80.01 43.06 80.12 44.62 80.23 43.84 80.34 43.06 80.44 44.62 80.55 43.84 80.66 45.41 80.77 45.41 80.87 44.62 80.98 44.62 81.09 43.84 81.2 43.84 81.3 44.62 81.41 44.62 81.52 44.62 81.63 44.62 81.73 43.06 81.84 43.84 81.95 42.27 82.06 43.84 82.17 44.62 82.27 43.84 82.38 44.62 82.49 45.41 82.6 44.62 82.7 44.62 82.81 43.84 82.92 44.62 83.03 45.41 83.13 45.41 83.24 43.84 83.35 43.84 83.46 43.06 83.56 43.06 83.67 43.06 83.78 43.06 83.89 44.62 83.99 43.84 84.1 43.84 84.21 44.62 84.32 44.62 84.42 44.62 84.53 44.62 84.64 45.41 84.75 45.41 84.85 44.62 84.96 44.62 85.07 43.06 85.18 42.27 85.28 43.06 85.39 43.84 85.5 44.62 85.61 44.62 85.71 44.62 85.82 45.41 85.93 45.41 86.04 44.62 86.15 43.84 86.25 44.62 86.36 43.84 86.47 43.84 86.58 45.41 86.68 46.19 86.79 46.98 86.9 47.76 87.01 46.98 87.11 46.19 87.22 46.19 87.33 45.41 87.44 46.19 87.54 45.41 87.65 46.19 87.76 46.19 87.87 45.41 87.97 44.62 88.08 44.62 88.19 43.84 88.3 44.62 88.4 43.84 88.51 43.84 88.62 43.84 88.73 45.41 88.83 45.41 88.94 45.41 89.05 46.98 89.16 46.19 89.26 45.41 89.37 45.41 89.48 47.76 89.59 46.19 89.69 45.41 89.8 45.41 89.91 44.62 90.02 44.62 90.13 45.41 90.23 46.19 90.34 46.19 90.45 45.41 90.56 46.19 90.66 44.62 90.77 44.62 90.88 43.84 90.99 44.62 91.09 43.84 91.2 43.84 91.31 44.62 91.42 44.62 91.52 45.41 91.63 45.41 91.74 45.41 91.85 46.19 91.95 46.19 92.06 45.41 92.17 45.41 92.28 45.41 92.38 45.41 92.49 46.19 92.6 45.41 92.71 46.98 92.81 46.98 92.92 46.19 93.03 46.19 93.14 46.19 93.24 46.19 93.35 46.19 93.46 46.98 93.57 47.76 93.67 46.98 93.78 46.19 93.89 46.19 94 46.98 94.11 46.19 94.21 46.19 94.32 45.41 94.43 46.19 94.54 45.41 94.64 45.41 94.75 46.98 94.86 47.76 94.97 46.19 95.07 46.98 95.18 46.98 95.29 46.98 95.4 45.41 95.5 46.19 95.61 46.98 95.72 46.19 95.83 46.98 95.93 46.98 96.04 46.98 96.15 46.19 96.26 46.98 96.36 47.76 96.47 47.76 96.58 46.19 96.69 46.19 96.79 44.62 96.9 45.41 97.01 45.41 97.12 46.19 97.22 45.41 97.33 44.62 97.44 43.84 97.55 45.41 97.65 46.19 97.76 46.19 97.87 46.19 97.98 46.19 98.09 44.62 98.19 44.62 98.3 43.84 98.41 43.84 98.52 43.84 98.62 45.41 98.73 43.84 98.84 44.62 98.95 44.62 99.05 44.62 99.16 44.62 99.27 44.62 99.38 45.41 99.48 45.41 99.59 45.41 99.7 44.62 99.81 44.62 99.91 43.84 100.02 44.62 100.13 44.62 100.24 44.62 100.34 45.41 100.45 45.41 100.56 44.62 100.67 45.41 100.77 45.41 100.88 45.41 100.99 45.41 101.1 44.62 101.2 46.19 101.31 46.98 101.42 45.41 101.53 45.41 101.63 45.41 101.74 45.41 101.85 47.76 101.96 46.98 102.07 46.19 102.17 46.19 102.28 46.98 102.39 46.98 102.5 46.98 102.6 46.98 102.71 46.19 102.82 46.19 102.93 46.98 103.03 45.41 103.14 46.19 103.25 46.19 103.36 46.19 103.46 47.76 103.57 46.98 103.68 46.98 103.79 47.76 103.89 46.98 104 47.76 104.11 47.76 104.22 46.98 104.32 47.76 104.43 47.76 104.54 46.98 104.65 46.19 104.75 46.19 104.86 46.98 104.97 47.76 105.08 47.76 105.18 47.76 105.29 46.98 105.4 46.98 105.51 45.41 105.61 46.98 105.72 46.98 105.83 46.98 105.94 46.98 106.05 46.19 106.15 47.76 106.26 46.98 106.37 47.76 106.48 46.98 106.58 46.19 106.69 46.98 106.8 46.98 106.91 46.98 107.01 46.98 107.12 46.19 107.23 46.19 107.34 46.19 107.44 46.19 107.55 46.19 107.66 46.98 107.77 47.76 107.87 46.19 107.98 46.98 108.09 46.98 108.2 47.76 108.3 46.19 108.41 46.98 108.52 46.19 108.63 46.19 108.73 46.19 108.84 46.19 108.95 46.19 109.06 46.19 109.16 45.41 109.27 46.19 109.38 45.41 109.49 45.41 109.59 44.62 109.7 45.41 109.81 45.41 109.92 46.98 110.03 45.41 110.13 44.62 110.24 44.62 110.35 44.62 110.46 43.84 110.56 43.84 110.67 43.84 110.78 44.62 110.89 44.62 110.99 44.62 111.1 43.84 111.21 46.19 111.32 45.41 111.42 45.41 111.53 46.98 111.64 45.41 111.75 46.98 111.85 46.98 111.96 47.76 112.07 46.98 112.18 46.19 112.28 45.41 112.39 46.98 112.5 46.19 112.61 45.41 112.71 44.62 112.82 45.41 112.93 45.41 113.04 45.41 113.14 46.19 113.25 46.98 113.36 48.54 113.47 48.54 113.57 49.33 113.68 49.33 113.79 48.54 113.9 46.98 114.01 48.54 114.11 48.54 114.22 48.54 114.33 48.54 114.44 48.54 114.54 47.76 114.65 48.54 114.76 47.76 114.87 47.76 114.97 47.76 115.08 48.54 115.19 49.33 115.3 49.33 115.4 49.33 115.51 49.33 115.62 49.33 115.73 48.54 115.83 48.54 115.94 48.54 116.05 48.54 116.16 48.54 116.26 49.33 116.37 48.54 116.48 48.54 116.59 47.76 116.69 46.19 116.8 46.98 116.91 47.76 117.02 47.76 117.12 47.76 117.23 46.98 117.34 46.98 117.45 46.98 117.56 46.98 117.66 47.76 117.77 46.98 117.88 46.98 117.99 46.98 118.09 48.54 118.2 47.76 118.31 48.54 118.42 48.54 118.52 48.54 118.63 49.33 118.74 48.54 118.85 50.11 118.95 49.33 119.06 50.11 119.17 49.33 119.28 48.54 119.38 50.11 119.49 47.76 119.6 48.54 119.71 46.98 119.81 46.98 119.92 46.98 120.03 47.76 120.14 47.76 120.24 47.76 120.35 46.98 120.46 46.98 120.57 47.76 120.67 48.54 120.78 47.76 120.89 47.76 121 48.54 121.1 46.98 121.21 47.76 121.32 46.98 121.43 47.76 121.54 46.19 121.64 46.98 121.75 45.41 121.86 46.19 121.97 47.76 122.07 47.76 122.18 47.76 122.29 49.33 122.4 50.9 122.5 49.33 122.61 50.9 122.72 50.9 122.83 49.33 122.93 50.11 123.04 50.9 123.15 50.11 123.26 50.11 123.36 49.33 123.47 49.33 123.58 49.33 123.69 50.9 123.79 50.9 123.9 50.9 124.01 49.33 124.12 49.33 124.22 50.11 124.33 50.9 124.44 50.9 124.55 50.11 124.65 49.33 124.76 49.33 124.87 50.11 124.98 50.11 125.08 49.33 125.19 48.54 125.3 48.54 125.41 49.33 125.52 48.54 125.62 48.54 125.73 49.33 125.84 48.54 125.95 49.33 126.05 49.33 126.16 49.33 126.27 50.11 126.38 50.11 126.48 48.54 126.59 47.76 126.7 49.33 126.81 49.33 126.91 48.54 127.02 50.11 127.13 50.11 127.24 50.11 127.34 50.9 127.45 51.68 127.56 50.9 127.67 50.11 127.77 50.11 127.88 50.11 127.99 49.33 128.1 50.11 128.2 48.54 128.31 48.54 128.42 48.54 128.53 49.33 128.63 49.33 128.74 50.11 128.85 50.11 128.96 50.11 129.06 50.11 129.17 50.9 129.28 50.11" id="img-693907c0-35" stroke="#00B78D" class="geometry color_0.001"/>
        <path fill="none" d="M21.82,22.68 L 21.93 28.16 22.03 36 22.14 39.92 22.25 42.27 22.36 44.62 22.46 46.19 22.57 46.98 22.68 47.76 22.79 48.54 22.9 49.33 23 50.11 23.11 50.11 23.22 50.9 23.33 50.9 23.43 51.68 23.54 52.46 23.65 52.46 23.76 53.25 23.86 53.25 23.97 54.03 24.08 54.03 24.19 54.03 24.29 54.82 24.4 54.82 24.51 54.82 24.62 54.82 24.72 55.6 24.83 55.6 24.94 55.6 25.05 55.6 25.15 55.6 25.26 55.6 25.37 55.6 25.48 56.38 25.58 56.38 25.69 56.38 25.8 56.38 25.91 56.38 26.01 57.17 26.12 57.17 26.23 57.17 26.34 57.17 26.44 57.17 26.55 57.17 26.66 57.17 26.77 57.17 26.88 57.95 26.98 57.95 27.09 57.95 27.2 57.95 27.31 57.95 27.41 57.95 27.52 57.95 27.63 57.95 27.74 57.95 27.84 57.95 27.95 58.73 28.06 58.73 28.17 58.73 28.27 59.52 28.38 59.52 28.49 59.52 28.6 59.52 28.7 59.52 28.81 59.52 28.92 59.52 29.03 59.52 29.13 59.52 29.24 59.52 29.35 60.3 29.46 60.3 29.56 60.3 29.67 60.3 29.78 60.3 29.89 60.3 29.99 60.3 30.1 60.3 30.21 60.3 30.32 60.3 30.42 61.09 30.53 61.09 30.64 61.09 30.75 61.09 30.86 61.09 30.96 61.09 31.07 61.09 31.18 61.09 31.29 61.09 31.39 61.09 31.5 61.09 31.61 61.09 31.72 61.09 31.82 61.09 31.93 61.09 32.04 61.09 32.15 61.09 32.25 61.09 32.36 61.09 32.47 61.09 32.58 61.09 32.68 61.09 32.79 61.87 32.9 61.87 33.01 61.87 33.11 61.87 33.22 61.87 33.33 61.87 33.44 61.87 33.54 61.87 33.65 61.87 33.76 61.87 33.87 61.87 33.97 61.87 34.08 61.87 34.19 61.87 34.3 61.87 34.4 61.87 34.51 61.87 34.62 61.87 34.73 61.87 34.84 61.87 34.94 61.87 35.05 61.87 35.16 61.87 35.27 61.87 35.37 61.87 35.48 62.65 35.59 62.65 35.7 62.65 35.8 62.65 35.91 62.65 36.02 62.65 36.13 62.65 36.23 62.65 36.34 62.65 36.45 62.65 36.56 62.65 36.66 62.65 36.77 62.65 36.88 62.65 36.99 62.65 37.09 62.65 37.2 62.65 37.31 62.65 37.42 62.65 37.52 62.65 37.63 62.65 37.74 62.65 37.85 62.65 37.95 62.65 38.06 62.65 38.17 63.44 38.28 63.44 38.38 63.44 38.49 63.44 38.6 63.44 38.71 63.44 38.82 63.44 38.92 63.44 39.03 63.44 39.14 63.44 39.25 63.44 39.35 63.44 39.46 63.44 39.57 63.44 39.68 63.44 39.78 63.44 39.89 63.44 40 63.44 40.11 63.44 40.21 63.44 40.32 63.44 40.43 63.44 40.54 63.44 40.64 63.44 40.75 63.44 40.86 63.44 40.97 63.44 41.07 63.44 41.18 63.44 41.29 63.44 41.4 63.44 41.5 64.22 41.61 64.22 41.72 64.22 41.83 64.22 41.93 64.22 42.04 64.22 42.15 64.22 42.26 64.22 42.36 64.22 42.47 64.22 42.58 64.22 42.69 64.22 42.8 64.22 42.9 64.22 43.01 64.22 43.12 64.22 43.23 64.22 43.33 64.22 43.44 64.22 43.55 64.22 43.66 64.22 43.76 64.22 43.87 64.22 43.98 64.22 44.09 64.22 44.19 64.22 44.3 64.22 44.41 64.22 44.52 64.22 44.62 65.01 44.73 65.01 44.84 65.01 44.95 65.01 45.05 65.01 45.16 65.01 45.27 65.01 45.38 65.01 45.48 65.01 45.59 65.01 45.7 65.01 45.81 65.01 45.91 65.01 46.02 65.01 46.13 65.01 46.24 65.01 46.34 65.01 46.45 65.01 46.56 65.01 46.67 65.01 46.78 65.01 46.88 65.01 46.99 65.01 47.1 65.01 47.21 65.01 47.31 65.01 47.42 65.01 47.53 65.01 47.64 65.01 47.74 65.01 47.85 65.01 47.96 65.01 48.07 65.01 48.17 65.01 48.28 65.01 48.39 65.01 48.5 65.01 48.6 65.01 48.71 65.01 48.82 65.01 48.93 65.01 49.03 65.01 49.14 65.01 49.25 65.01 49.36 65.01 49.46 65.01 49.57 65.01 49.68 65.01 49.79 65.01 49.89 65.01 50 65.01 50.11 65.01 50.22 65.01 50.32 65.01 50.43 65.01 50.54 65.01 50.65 65.01 50.76 65.01 50.86 65.01 50.97 65.01 51.08 65.01 51.19 65.01 51.29 65.01 51.4 65.01 51.51 65.01 51.62 65.79 51.72 65.79 51.83 65.79 51.94 65.79 52.05 65.79 52.15 65.79 52.26 65.79 52.37 65.79 52.48 65.79 52.58 65.79 52.69 65.79 52.8 65.79 52.91 65.79 53.01 65.79 53.12 65.79 53.23 65.79 53.34 65.79 53.44 65.79 53.55 65.79 53.66 65.79 53.77 65.79 53.87 65.79 53.98 65.79 54.09 65.79 54.2 65.79 54.3 65.79 54.41 65.79 54.52 65.79 54.63 65.79 54.74 65.79 54.84 65.79 54.95 65.79 55.06 65.79 55.17 65.79 55.27 65.79 55.38 65.79 55.49 65.79 55.6 65.79 55.7 65.79 55.81 65.79 55.92 65.79 56.03 65.79 56.13 65.79 56.24 65.79 56.35 65.79 56.46 65.79 56.56 65.79 56.67 65.79 56.78 65.79 56.89 65.79 56.99 65.79 57.1 65.79 57.21 65.79 57.32 65.79 57.42 65.79 57.53 65.79 57.64 65.79 57.75 65.79 57.85 65.79 57.96 65.79 58.07 65.79 58.18 65.79 58.29 65.79 58.39 65.79 58.5 65.79 58.61 65.79 58.72 65.79 58.82 65.79 58.93 65.79 59.04 65.79 59.15 65.79 59.25 65.79 59.36 65.79 59.47 65.79 59.58 65.79 59.68 65.79 59.79 65.79 59.9 65.79 60.01 65.79 60.11 65.79 60.22 65.79 60.33 65.79 60.44 65.79 60.54 65.79 60.65 65.79 60.76 65.79 60.87 65.79 60.97 65.79 61.08 65.79 61.19 65.79 61.3 65.79 61.4 65.79 61.51 65.79 61.62 65.79 61.73 65.79 61.83 65.79 61.94 65.79 62.05 65.79 62.16 65.79 62.27 65.79 62.37 65.79 62.48 65.79 62.59 65.79 62.7 65.79 62.8 65.79 62.91 65.79 63.02 65.79 63.13 65.79 63.23 65.79 63.34 65.79 63.45 65.79 63.56 65.79 63.66 65.79 63.77 65.79 63.88 65.79 63.99 65.79 64.09 65.79 64.2 65.79 64.31 65.79 64.42 65.79 64.52 65.79 64.63 65.79 64.74 65.79 64.85 65.79 64.95 65.79 65.06 65.79 65.17 65.79 65.28 65.79 65.38 65.79 65.49 65.79 65.6 65.79 65.71 65.79 65.81 65.79 65.92 65.79 66.03 65.79 66.14 65.79 66.25 66.57 66.35 66.57 66.46 66.57 66.57 66.57 66.68 66.57 66.78 66.57 66.89 66.57 67 66.57 67.11 66.57 67.21 66.57 67.32 66.57 67.43 66.57 67.54 66.57 67.64 66.57 67.75 66.57 67.86 66.57 67.97 66.57 68.07 66.57 68.18 66.57 68.29 66.57 68.4 66.57 68.5 66.57 68.61 66.57 68.72 66.57 68.83 66.57 68.93 66.57 69.04 66.57 69.15 66.57 69.26 66.57 69.36 66.57 69.47 66.57 69.58 66.57 69.69 66.57 69.79 66.57 69.9 66.57 70.01 66.57 70.12 66.57 70.23 66.57 70.33 66.57 70.44 66.57 70.55 66.57 70.66 66.57 70.76 66.57 70.87 66.57 70.98 66.57 71.09 66.57 71.19 66.57 71.3 66.57 71.41 66.57 71.52 66.57 71.62 66.57 71.73 66.57 71.84 66.57 71.95 66.57 72.05 66.57 72.16 66.57 72.27 66.57 72.38 66.57 72.48 66.57 72.59 66.57 72.7 66.57 72.81 66.57 72.91 66.57 73.02 66.57 73.13 66.57 73.24 66.57 73.34 66.57 73.45 66.57 73.56 66.57 73.67 66.57 73.77 66.57 73.88 66.57 73.99 66.57 74.1 66.57 74.21 66.57 74.31 66.57 74.42 66.57 74.53 66.57 74.64 66.57 74.74 66.57 74.85 66.57 74.96 66.57 75.07 66.57 75.17 66.57 75.28 66.57 75.39 66.57 75.5 66.57 75.6 66.57 75.71 66.57 75.82 66.57 75.93 66.57 76.03 66.57 76.14 66.57 76.25 66.57 76.36 66.57 76.46 66.57 76.57 66.57 76.68 66.57 76.79 66.57 76.89 66.57 77 66.57 77.11 66.57 77.22 66.57 77.32 66.57 77.43 66.57 77.54 66.57 77.65 66.57 77.75 66.57 77.86 66.57 77.97 66.57 78.08 66.57 78.19 66.57 78.29 66.57 78.4 66.57 78.51 66.57 78.62 66.57 78.72 66.57 78.83 66.57 78.94 66.57 79.05 66.57 79.15 66.57 79.26 66.57 79.37 66.57 79.48 66.57 79.58 66.57 79.69 66.57 79.8 66.57 79.91 66.57 80.01 66.57 80.12 66.57 80.23 66.57 80.34 66.57 80.44 66.57 80.55 66.57 80.66 66.57 80.77 66.57 80.87 66.57 80.98 66.57 81.09 66.57 81.2 66.57 81.3 66.57 81.41 66.57 81.52 66.57 81.63 66.57 81.73 66.57 81.84 66.57 81.95 66.57 82.06 66.57 82.17 66.57 82.27 66.57 82.38 66.57 82.49 66.57 82.6 66.57 82.7 66.57 82.81 67.36 82.92 67.36 83.03 67.36 83.13 67.36 83.24 67.36 83.35 67.36 83.46 67.36 83.56 67.36 83.67 67.36 83.78 67.36 83.89 67.36 83.99 67.36 84.1 67.36 84.21 67.36 84.32 67.36 84.42 67.36 84.53 67.36 84.64 67.36 84.75 67.36 84.85 67.36 84.96 67.36 85.07 67.36 85.18 67.36 85.28 67.36 85.39 67.36 85.5 67.36 85.61 67.36 85.71 67.36 85.82 67.36 85.93 67.36 86.04 67.36 86.15 67.36 86.25 67.36 86.36 67.36 86.47 67.36 86.58 67.36 86.68 67.36 86.79 67.36 86.9 67.36 87.01 67.36 87.11 67.36 87.22 67.36 87.33 67.36 87.44 67.36 87.54 67.36 87.65 67.36 87.76 67.36 87.87 67.36 87.97 67.36 88.08 67.36 88.19 67.36 88.3 67.36 88.4 67.36 88.51 67.36 88.62 67.36 88.73 67.36 88.83 67.36 88.94 67.36 89.05 67.36 89.16 67.36 89.26 67.36 89.37 67.36 89.48 67.36 89.59 67.36 89.69 67.36 89.8 67.36 89.91 67.36 90.02 67.36 90.13 67.36 90.23 67.36 90.34 67.36 90.45 67.36 90.56 67.36 90.66 67.36 90.77 67.36 90.88 67.36 90.99 67.36 91.09 67.36 91.2 67.36 91.31 67.36 91.42 67.36 91.52 67.36 91.63 67.36 91.74 67.36 91.85 67.36 91.95 67.36 92.06 67.36 92.17 67.36 92.28 67.36 92.38 67.36 92.49 67.36 92.6 67.36 92.71 67.36 92.81 67.36 92.92 67.36 93.03 67.36 93.14 67.36 93.24 67.36 93.35 67.36 93.46 67.36 93.57 67.36 93.67 67.36 93.78 67.36 93.89 67.36 94 67.36 94.11 67.36 94.21 67.36 94.32 67.36 94.43 67.36 94.54 67.36 94.64 67.36 94.75 67.36 94.86 67.36 94.97 67.36 95.07 67.36 95.18 67.36 95.29 67.36 95.4 67.36 95.5 67.36 95.61 67.36 95.72 67.36 95.83 67.36 95.93 67.36 96.04 67.36 96.15 67.36 96.26 67.36 96.36 67.36 96.47 67.36 96.58 67.36 96.69 67.36 96.79 67.36 96.9 67.36 97.01 67.36 97.12 67.36 97.22 67.36 97.33 67.36 97.44 67.36 97.55 67.36 97.65 67.36 97.76 67.36 97.87 67.36 97.98 67.36 98.09 67.36 98.19 67.36 98.3 67.36 98.41 67.36 98.52 67.36 98.62 67.36 98.73 67.36 98.84 67.36 98.95 67.36 99.05 67.36 99.16 67.36 99.27 67.36 99.38 67.36 99.48 67.36 99.59 67.36 99.7 67.36 99.81 67.36 99.91 67.36 100.02 68.14 100.13 68.14 100.24 68.14 100.34 68.14 100.45 68.14 100.56 68.14 100.67 68.14 100.77 68.14 100.88 68.14 100.99 68.14 101.1 68.14 101.2 68.14 101.31 68.14 101.42 68.14 101.53 68.14 101.63 68.14 101.74 68.14 101.85 68.14 101.96 68.14 102.07 68.14 102.17 68.14 102.28 68.14 102.39 68.14 102.5 68.14 102.6 68.14 102.71 68.14 102.82 68.14 102.93 68.14 103.03 68.14 103.14 68.14 103.25 68.14 103.36 68.14 103.46 68.14 103.57 68.14 103.68 68.14 103.79 68.14 103.89 68.14 104 68.14 104.11 68.14 104.22 68.14 104.32 68.14 104.43 68.14 104.54 68.14 104.65 68.14 104.75 68.14 104.86 68.14 104.97 68.14 105.08 68.14 105.18 68.14 105.29 68.14 105.4 68.14 105.51 68.14 105.61 68.14 105.72 68.14 105.83 68.14 105.94 68.14 106.05 68.14 106.15 68.14 106.26 68.14 106.37 68.14 106.48 68.14 106.58 68.14 106.69 68.14 106.8 68.14 106.91 68.14 107.01 68.14 107.12 68.14 107.23 68.14 107.34 68.14 107.44 68.14 107.55 68.14 107.66 68.14 107.77 68.14 107.87 68.14 107.98 68.14 108.09 68.14 108.2 68.14 108.3 68.14 108.41 68.14 108.52 68.14 108.63 68.14 108.73 68.14 108.84 68.14 108.95 68.14 109.06 68.14 109.16 68.14 109.27 68.14 109.38 68.14 109.49 68.14 109.59 68.14 109.7 68.14 109.81 68.14 109.92 68.14 110.03 68.14 110.13 68.14 110.24 68.14 110.35 68.14 110.46 68.14 110.56 68.14 110.67 68.14 110.78 68.14 110.89 68.14 110.99 68.14 111.1 68.14 111.21 68.14 111.32 68.14 111.42 68.14 111.53 68.14 111.64 68.14 111.75 68.14 111.85 68.14 111.96 68.14 112.07 68.14 112.18 68.14 112.28 68.14 112.39 68.14 112.5 68.14 112.61 68.14 112.71 68.14 112.82 68.14 112.93 68.14 113.04 68.14 113.14 68.14 113.25 68.14 113.36 68.14 113.47 68.14 113.57 68.14 113.68 68.14 113.79 68.14 113.9 68.14 114.01 68.14 114.11 68.14 114.22 68.14 114.33 68.14 114.44 68.14 114.54 68.14 114.65 68.14 114.76 68.14 114.87 68.14 114.97 68.14 115.08 68.14 115.19 68.14 115.3 68.14 115.4 68.14 115.51 68.14 115.62 68.14 115.73 68.14 115.83 68.14 115.94 68.14 116.05 68.14 116.16 68.14 116.26 68.14 116.37 68.14 116.48 68.14 116.59 68.14 116.69 68.14 116.8 68.14 116.91 68.14 117.02 68.14 117.12 68.14 117.23 68.14 117.34 68.14 117.45 68.14 117.56 68.14 117.66 68.14 117.77 68.14 117.88 68.14 117.99 68.14 118.09 68.14 118.2 68.14 118.31 68.14 118.42 68.14 118.52 68.14 118.63 68.14 118.74 68.14 118.85 68.14 118.95 68.14 119.06 68.92 119.17 68.92 119.28 68.92 119.38 68.92 119.49 68.92 119.6 68.92 119.71 68.92 119.81 68.92 119.92 68.92 120.03 68.92 120.14 68.92 120.24 68.92 120.35 68.92 120.46 68.92 120.57 68.92 120.67 68.92 120.78 68.92 120.89 68.92 121 68.92 121.1 68.92 121.21 68.92 121.32 68.92 121.43 68.92 121.54 68.92 121.64 68.92 121.75 68.92 121.86 68.92 121.97 68.92 122.07 68.92 122.18 68.92 122.29 68.92 122.4 68.92 122.5 68.92 122.61 68.92 122.72 68.92 122.83 68.92 122.93 68.92 123.04 68.92 123.15 68.92 123.26 68.92 123.36 68.92 123.47 68.92 123.58 68.92 123.69 68.92 123.79 68.92 123.9 68.92 124.01 68.92 124.12 68.92 124.22 68.92 124.33 68.92 124.44 68.92 124.55 68.92 124.65 68.92 124.76 68.92 124.87 68.92 124.98 68.92 125.08 68.92 125.19 68.92 125.3 68.92 125.41 68.92 125.52 68.92 125.62 68.92 125.73 68.92 125.84 68.92 125.95 68.92 126.05 68.92 126.16 68.92 126.27 68.92 126.38 68.92 126.48 68.92 126.59 68.92 126.7 68.92 126.81 68.92 126.91 68.92 127.02 68.92 127.13 68.92 127.24 68.92 127.34 68.92 127.45 68.92 127.56 68.92 127.67 68.92 127.77 68.92 127.88 68.92 127.99 68.92 128.1 68.92 128.2 68.92 128.31 68.92 128.42 68.92 128.53 68.92 128.63 68.92 128.74 68.92 128.85 68.92 128.96 68.92 129.06 68.92 129.17 68.92 129.28 68.92" id="img-693907c0-36" stroke="#00BFFF" class="geometry color_0.0"/>
        <path fill="none" d="M21.82,22.68 L 21.93 22.68 22.03 22.68 22.14 21.89 22.25 19.54 22.36 17.97 22.46 17.97 22.57 17.97 22.68 17.97 22.79 17.19 22.9 17.19 23 18.76 23.11 17.19 23.22 17.97 23.33 17.19 23.43 17.19 23.54 18.76 23.65 18.76 23.76 18.76 23.86 18.76 23.97 18.76 24.08 19.54 24.19 19.54 24.29 17.97 24.4 19.54 24.51 21.11 24.62 21.11 24.72 21.11 24.83 19.54 24.94 20.33 25.05 21.11 25.15 20.33 25.26 21.89 25.37 20.33 25.48 21.11 25.58 19.54 25.69 20.33 25.8 18.76 25.91 19.54 26.01 20.33 26.12 21.11 26.23 21.11 26.34 22.68 26.44 21.11 26.55 21.89 26.66 21.89 26.77 21.11 26.88 21.11 26.98 21.11 27.09 21.11 27.2 21.89 27.31 20.33 27.41 21.89 27.52 21.89 27.63 23.46 27.74 22.68 27.84 22.68 27.95 22.68 28.06 23.46 28.17 24.24 28.27 22.68 28.38 21.89 28.49 22.68 28.6 22.68 28.7 23.46 28.81 23.46 28.92 22.68 29.03 22.68 29.13 23.46 29.24 22.68 29.35 22.68 29.46 23.46 29.56 22.68 29.67 23.46 29.78 24.24 29.89 24.24 29.99 25.03 30.1 24.24 30.21 21.89 30.32 24.24 30.42 23.46 30.53 23.46 30.64 25.03 30.75 22.68 30.86 21.89 30.96 23.46 31.07 24.24 31.18 24.24 31.29 24.24 31.39 24.24 31.5 24.24 31.61 24.24 31.72 23.46 31.82 25.81 31.93 25.03 32.04 25.03 32.15 25.81 32.25 25.03 32.36 24.24 32.47 24.24 32.58 24.24 32.68 25.03 32.79 25.03 32.9 25.03 33.01 25.81 33.11 25.03 33.22 25.03 33.33 26.6 33.44 25.81 33.54 26.6 33.65 26.6 33.76 25.81 33.87 26.6 33.97 25.03 34.08 27.38 34.19 28.16 34.3 27.38 34.4 26.6 34.51 26.6 34.62 25.81 34.73 26.6 34.84 27.38 34.94 26.6 35.05 25.81 35.16 26.6 35.27 26.6 35.37 25.03 35.48 24.24 35.59 25.03 35.7 26.6 35.8 25.81 35.91 26.6 36.02 27.38 36.13 25.81 36.23 25.81 36.34 25.81 36.45 25.81 36.56 25.81 36.66 26.6 36.77 25.03 36.88 25.03 36.99 25.03 37.09 25.03 37.2 25.81 37.31 25.81 37.42 27.38 37.52 26.6 37.63 25.81 37.74 28.16 37.85 28.16 37.95 26.6 38.06 25.81 38.17 26.6 38.28 26.6 38.38 26.6 38.49 26.6 38.6 27.38 38.71 25.81 38.82 27.38 38.92 28.16 39.03 28.95 39.14 28.16 39.25 28.16 39.35 25.81 39.46 26.6 39.57 28.95 39.68 25.81 39.78 27.38 39.89 28.95 40 29.73 40.11 27.38 40.21 28.16 40.32 28.95 40.43 28.95 40.54 28.16 40.64 28.95 40.75 28.95 40.86 27.38 40.97 27.38 41.07 28.95 41.18 28.95 41.29 28.95 41.4 27.38 41.5 29.73 41.61 28.16 41.72 27.38 41.83 28.16 41.93 27.38 42.04 26.6 42.15 27.38 42.26 28.16 42.36 29.73 42.47 29.73 42.58 28.95 42.69 28.95 42.8 30.52 42.9 29.73 43.01 31.3 43.12 30.52 43.23 31.3 43.33 30.52 43.44 30.52 43.55 31.3 43.66 31.3 43.76 31.3 43.87 31.3 43.98 31.3 44.09 30.52 44.19 30.52 44.3 29.73 44.41 31.3 44.52 30.52 44.62 29.73 44.73 29.73 44.84 30.52 44.95 30.52 45.05 30.52 45.16 30.52 45.27 29.73 45.38 30.52 45.48 31.3 45.59 30.52 45.7 32.08 45.81 30.52 45.91 28.95 46.02 30.52 46.13 31.3 46.24 30.52 46.34 31.3 46.45 30.52 46.56 31.3 46.67 31.3 46.78 29.73 46.88 31.3 46.99 31.3 47.1 31.3 47.21 32.08 47.31 32.08 47.42 32.08 47.53 32.87 47.64 32.08 47.74 30.52 47.85 28.16 47.96 28.95 48.07 30.52 48.17 30.52 48.28 31.3 48.39 30.52 48.5 31.3 48.6 31.3 48.71 28.95 48.82 28.95 48.93 28.95 49.03 28.95 49.14 29.73 49.25 31.3 49.36 30.52 49.46 31.3 49.57 32.87 49.68 30.52 49.79 32.08 49.89 32.87 50 31.3 50.11 32.87 50.22 31.3 50.32 30.52 50.43 30.52 50.54 29.73 50.65 29.73 50.76 29.73 50.86 28.95 50.97 30.52 51.08 31.3 51.19 30.52 51.29 30.52 51.4 29.73 51.51 28.95 51.62 29.73 51.72 30.52 51.83 30.52 51.94 29.73 52.05 31.3 52.15 30.52 52.26 29.73 52.37 29.73 52.48 29.73 52.58 28.95 52.69 29.73 52.8 29.73 52.91 29.73 53.01 29.73 53.12 29.73 53.23 28.95 53.34 29.73 53.44 30.52 53.55 30.52 53.66 29.73 53.77 29.73 53.87 29.73 53.98 29.73 54.09 29.73 54.2 31.3 54.3 31.3 54.41 30.52 54.52 30.52 54.63 32.87 54.74 33.65 54.84 32.87 54.95 32.08 55.06 32.08 55.17 32.87 55.27 31.3 55.38 32.87 55.49 32.08 55.6 31.3 55.7 32.08 55.81 32.08 55.92 29.73 56.03 32.08 56.13 32.08 56.24 33.65 56.35 32.87 56.46 32.87 56.56 31.3 56.67 32.87 56.78 34.43 56.89 35.22 56.99 34.43 57.1 33.65 57.21 32.87 57.32 33.65 57.42 33.65 57.53 32.08 57.64 32.08 57.75 32.87 57.85 32.87 57.96 31.3 58.07 32.08 58.18 30.52 58.29 30.52 58.39 30.52 58.5 33.65 58.61 32.87 58.72 32.87 58.82 32.08 58.93 30.52 59.04 30.52 59.15 32.08 59.25 30.52 59.36 32.08 59.47 30.52 59.58 29.73 59.68 30.52 59.79 27.38 59.9 29.73 60.01 30.52 60.11 31.3 60.22 29.73 60.33 31.3 60.44 31.3 60.54 31.3 60.65 31.3 60.76 31.3 60.87 30.52 60.97 32.08 61.08 32.87 61.19 32.87 61.3 32.87 61.4 32.87 61.51 32.87 61.62 32.87 61.73 32.87 61.83 32.08 61.94 31.3 62.05 32.08 62.16 32.08 62.27 32.87 62.37 31.3 62.48 32.87 62.59 32.08 62.7 32.08 62.8 32.87 62.91 33.65 63.02 31.3 63.13 31.3 63.23 32.87 63.34 31.3 63.45 32.08 63.56 31.3 63.66 31.3 63.77 33.65 63.88 32.08 63.99 29.73 64.09 30.52 64.2 30.52 64.31 32.87 64.42 32.87 64.52 32.87 64.63 32.08 64.74 29.73 64.85 29.73 64.95 29.73 65.06 30.52 65.17 30.52 65.28 31.3 65.38 29.73 65.49 30.52 65.6 30.52 65.71 28.95 65.81 29.73 65.92 30.52 66.03 29.73 66.14 30.52 66.25 29.73 66.35 28.95 66.46 30.52 66.57 30.52 66.68 30.52 66.78 30.52 66.89 31.3 67 31.3 67.11 30.52 67.21 31.3 67.32 32.08 67.43 31.3 67.54 31.3 67.64 31.3 67.75 31.3 67.86 31.3 67.97 31.3 68.07 30.52 68.18 30.52 68.29 30.52 68.4 32.87 68.5 32.08 68.61 32.08 68.72 32.08 68.83 31.3 68.93 32.08 69.04 30.52 69.15 29.73 69.26 30.52 69.36 30.52 69.47 31.3 69.58 29.73 69.69 29.73 69.79 29.73 69.9 27.38 70.01 28.16 70.12 30.52 70.23 29.73 70.33 28.95 70.44 30.52 70.55 29.73 70.66 28.95 70.76 31.3 70.87 29.73 70.98 30.52 71.09 31.3 71.19 31.3 71.3 31.3 71.41 29.73 71.52 31.3 71.62 30.52 71.73 31.3 71.84 32.87 71.95 30.52 72.05 32.08 72.16 31.3 72.27 32.87 72.38 32.08 72.48 32.08 72.59 32.08 72.7 31.3 72.81 30.52 72.91 32.08 73.02 30.52 73.13 32.08 73.24 31.3 73.34 31.3 73.45 31.3 73.56 32.87 73.67 32.87 73.77 32.08 73.88 32.87 73.99 32.08 74.1 32.08 74.21 32.87 74.31 32.87 74.42 33.65 74.53 32.08 74.64 33.65 74.74 33.65 74.85 32.08 74.96 31.3 75.07 31.3 75.17 31.3 75.28 31.3 75.39 32.08 75.5 32.08 75.6 32.08 75.71 31.3 75.82 32.08 75.93 32.87 76.03 33.65 76.14 32.08 76.25 32.08 76.36 32.87 76.46 32.87 76.57 32.08 76.68 31.3 76.79 32.87 76.89 32.87 77 34.43 77.11 33.65 77.22 32.08 77.32 31.3 77.43 31.3 77.54 32.08 77.65 32.08 77.75 31.3 77.86 32.08 77.97 31.3 78.08 31.3 78.19 32.08 78.29 32.87 78.4 32.87 78.51 34.43 78.62 33.65 78.72 32.87 78.83 32.08 78.94 32.08 79.05 33.65 79.15 32.87 79.26 32.87 79.37 32.87 79.48 32.08 79.58 31.3 79.69 32.87 79.8 31.3 79.91 32.08 80.01 32.87 80.12 31.3 80.23 32.08 80.34 32.87 80.44 32.08 80.55 32.87 80.66 32.08 80.77 29.73 80.87 29.73 80.98 30.52 81.09 31.3 81.2 30.52 81.3 30.52 81.41 30.52 81.52 31.3 81.63 31.3 81.73 32.08 81.84 32.87 81.95 32.08 82.06 30.52 82.17 31.3 82.27 32.08 82.38 32.87 82.49 32.08 82.6 31.3 82.7 29.73 82.81 29.73 82.92 29.73 83.03 30.52 83.13 30.52 83.24 30.52 83.35 30.52 83.46 30.52 83.56 31.3 83.67 32.08 83.78 30.52 83.89 31.3 83.99 32.08 84.1 32.08 84.21 32.08 84.32 32.08 84.42 32.08 84.53 30.52 84.64 29.73 84.75 32.08 84.85 29.73 84.96 30.52 85.07 30.52 85.18 30.52 85.28 31.3 85.39 32.87 85.5 32.08 85.61 32.87 85.71 33.65 85.82 29.73 85.93 29.73 86.04 31.3 86.15 31.3 86.25 30.52 86.36 32.87 86.47 31.3 86.58 32.08 86.68 32.08 86.79 31.3 86.9 32.08 87.01 31.3 87.11 30.52 87.22 32.08 87.33 32.08 87.44 32.87 87.54 32.08 87.65 30.52 87.76 28.95 87.87 29.73 87.97 30.52 88.08 32.08 88.19 31.3 88.3 32.08 88.4 31.3 88.51 30.52 88.62 31.3 88.73 31.3 88.83 32.08 88.94 31.3 89.05 32.08 89.16 32.87 89.26 32.08 89.37 32.87 89.48 32.08 89.59 31.3 89.69 32.08 89.8 32.08 89.91 30.52 90.02 29.73 90.13 31.3 90.23 30.52 90.34 31.3 90.45 30.52 90.56 31.3 90.66 32.08 90.77 32.08 90.88 32.08 90.99 33.65 91.09 32.87 91.2 32.87 91.31 32.87 91.42 32.87 91.52 31.3 91.63 32.87 91.74 32.87 91.85 33.65 91.95 32.08 92.06 32.08 92.17 32.87 92.28 30.52 92.38 30.52 92.49 31.3 92.6 32.08 92.71 31.3 92.81 31.3 92.92 31.3 93.03 32.08 93.14 32.08 93.24 32.08 93.35 30.52 93.46 30.52 93.57 30.52 93.67 30.52 93.78 29.73 93.89 31.3 94 32.08 94.11 30.52 94.21 29.73 94.32 31.3 94.43 32.08 94.54 31.3 94.64 32.87 94.75 32.87 94.86 31.3 94.97 32.08 95.07 31.3 95.18 32.08 95.29 32.08 95.4 32.87 95.5 33.65 95.61 33.65 95.72 33.65 95.83 32.08 95.93 32.87 96.04 32.87 96.15 33.65 96.26 33.65 96.36 32.87 96.47 32.08 96.58 33.65 96.69 32.08 96.79 32.08 96.9 32.87 97.01 32.08 97.12 32.08 97.22 32.08 97.33 33.65 97.44 30.52 97.55 30.52 97.65 30.52 97.76 30.52 97.87 31.3 97.98 31.3 98.09 31.3 98.19 31.3 98.3 30.52 98.41 31.3 98.52 30.52 98.62 30.52 98.73 30.52 98.84 29.73 98.95 30.52 99.05 30.52 99.16 30.52 99.27 32.08 99.38 29.73 99.48 31.3 99.59 30.52 99.7 33.65 99.81 32.87 99.91 30.52 100.02 30.52 100.13 32.08 100.24 30.52 100.34 30.52 100.45 29.73 100.56 32.08 100.67 32.08 100.77 32.08 100.88 30.52 100.99 30.52 101.1 32.08 101.2 32.08 101.31 31.3 101.42 30.52 101.53 30.52 101.63 30.52 101.74 31.3 101.85 32.87 101.96 32.87 102.07 31.3 102.17 31.3 102.28 32.08 102.39 31.3 102.5 31.3 102.6 32.08 102.71 31.3 102.82 31.3 102.93 30.52 103.03 31.3 103.14 29.73 103.25 30.52 103.36 30.52 103.46 29.73 103.57 28.95 103.68 30.52 103.79 31.3 103.89 31.3 104 31.3 104.11 31.3 104.22 32.87 104.32 30.52 104.43 32.87 104.54 32.08 104.65 31.3 104.75 31.3 104.86 30.52 104.97 28.95 105.08 30.52 105.18 30.52 105.29 32.08 105.4 30.52 105.51 30.52 105.61 32.08 105.72 32.08 105.83 32.08 105.94 29.73 106.05 30.52 106.15 29.73 106.26 30.52 106.37 32.08 106.48 31.3 106.58 31.3 106.69 28.95 106.8 29.73 106.91 31.3 107.01 30.52 107.12 31.3 107.23 30.52 107.34 28.95 107.44 29.73 107.55 29.73 107.66 31.3 107.77 32.08 107.87 31.3 107.98 30.52 108.09 31.3 108.2 31.3 108.3 31.3 108.41 31.3 108.52 31.3 108.63 29.73 108.73 30.52 108.84 32.08 108.95 31.3 109.06 32.08 109.16 32.87 109.27 32.87 109.38 32.08 109.49 31.3 109.59 31.3 109.7 33.65 109.81 32.08 109.92 32.08 110.03 29.73 110.13 31.3 110.24 32.87 110.35 32.08 110.46 32.08 110.56 31.3 110.67 32.87 110.78 33.65 110.89 32.08 110.99 32.87 111.1 32.08 111.21 32.08 111.32 32.87 111.42 33.65 111.53 32.08 111.64 32.08 111.75 32.87 111.85 33.65 111.96 31.3 112.07 32.87 112.18 32.87 112.28 33.65 112.39 33.65 112.5 35.22 112.61 33.65 112.71 34.43 112.82 34.43 112.93 36 113.04 34.43 113.14 34.43 113.25 33.65 113.36 33.65 113.47 33.65 113.57 33.65 113.68 35.22 113.79 34.43 113.9 33.65 114.01 35.22 114.11 35.22 114.22 34.43 114.33 35.22 114.44 34.43 114.54 34.43 114.65 34.43 114.76 34.43 114.87 33.65 114.97 33.65 115.08 36 115.19 35.22 115.3 33.65 115.4 35.22 115.51 35.22 115.62 35.22 115.73 33.65 115.83 34.43 115.94 34.43 116.05 32.87 116.16 34.43 116.26 33.65 116.37 32.87 116.48 33.65 116.59 32.08 116.69 32.08 116.8 32.87 116.91 33.65 117.02 33.65 117.12 33.65 117.23 33.65 117.34 34.43 117.45 33.65 117.56 33.65 117.66 32.08 117.77 32.87 117.88 34.43 117.99 33.65 118.09 32.87 118.2 32.87 118.31 32.08 118.42 32.87 118.52 33.65 118.63 34.43 118.74 32.87 118.85 32.87 118.95 32.08 119.06 32.08 119.17 32.08 119.28 33.65 119.38 33.65 119.49 33.65 119.6 33.65 119.71 30.52 119.81 33.65 119.92 33.65 120.03 33.65 120.14 32.08 120.24 32.08 120.35 32.87 120.46 34.43 120.57 33.65 120.67 34.43 120.78 33.65 120.89 32.08 121 32.87 121.1 34.43 121.21 32.87 121.32 32.87 121.43 32.08 121.54 32.08 121.64 32.08 121.75 30.52 121.86 32.87 121.97 33.65 122.07 32.87 122.18 32.08 122.29 31.3 122.4 32.87 122.5 31.3 122.61 32.87 122.72 32.08 122.83 32.08 122.93 32.87 123.04 34.43 123.15 34.43 123.26 34.43 123.36 32.87 123.47 34.43 123.58 32.87 123.69 32.87 123.79 32.08 123.9 32.87 124.01 33.65 124.12 32.87 124.22 33.65 124.33 33.65 124.44 32.87 124.55 32.08 124.65 31.3 124.76 31.3 124.87 32.87 124.98 31.3 125.08 32.08 125.19 30.52 125.3 30.52 125.41 32.08 125.52 30.52 125.62 30.52 125.73 29.73 125.84 31.3 125.95 31.3 126.05 31.3 126.16 33.65 126.27 31.3 126.38 30.52 126.48 32.08 126.59 33.65 126.7 33.65 126.81 32.08 126.91 30.52 127.02 31.3 127.13 32.87 127.24 32.08 127.34 30.52 127.45 31.3 127.56 32.08 127.67 31.3 127.77 32.08 127.88 31.3 127.99 31.3 128.1 31.3 128.2 32.08 128.31 31.3 128.42 32.08 128.53 31.3 128.63 30.52 128.74 32.08 128.85 30.52 128.96 33.65 129.06 32.08 129.17 32.87 129.28 32.08" id="img-693907c0-37" stroke="#BEA9FF" class="geometry color_0.005"/>
        <path fill="none" d="M21.82,22.68 L 21.93 27.38 22.03 35.22 22.14 39.14 22.25 41.49 22.36 43.06 22.46 44.62 22.57 45.41 22.68 46.19 22.79 46.98 22.9 46.98 23 46.98 23.11 47.76 23.22 48.54 23.33 48.54 23.43 49.33 23.54 50.11 23.65 50.9 23.76 50.9 23.86 50.9 23.97 50.9 24.08 50.9 24.19 50.9 24.29 50.9 24.4 50.9 24.51 50.9 24.62 50.9 24.72 50.9 24.83 50.9 24.94 51.68 25.05 51.68 25.15 51.68 25.26 50.9 25.37 51.68 25.48 51.68 25.58 51.68 25.69 51.68 25.8 50.9 25.91 51.68 26.01 51.68 26.12 52.46 26.23 51.68 26.34 51.68 26.44 51.68 26.55 51.68 26.66 51.68 26.77 51.68 26.88 50.9 26.98 51.68 27.09 51.68 27.2 50.9 27.31 50.9 27.41 50.9 27.52 50.9 27.63 51.68 27.74 50.9 27.84 51.68 27.95 51.68 28.06 51.68 28.17 51.68 28.27 50.9 28.38 50.9 28.49 50.9 28.6 51.68 28.7 51.68 28.81 52.46 28.92 52.46 29.03 52.46 29.13 51.68 29.24 50.9 29.35 50.9 29.46 50.11 29.56 50.11 29.67 50.9 29.78 50.11 29.89 50.11 29.99 50.11 30.1 50.11 30.21 50.9 30.32 50.9 30.42 50.9 30.53 50.9 30.64 51.68 30.75 50.9 30.86 50.9 30.96 50.9 31.07 51.68 31.18 51.68 31.29 51.68 31.39 51.68 31.5 50.9 31.61 50.9 31.72 51.68 31.82 50.9 31.93 50.9 32.04 50.11 32.15 50.9 32.25 50.9 32.36 50.9 32.47 50.11 32.58 50.11 32.68 50.9 32.79 50.11 32.9 50.11 33.01 50.11 33.11 50.11 33.22 50.11 33.33 50.11 33.44 50.11 33.54 50.11 33.65 49.33 33.76 49.33 33.87 50.11 33.97 49.33 34.08 49.33 34.19 49.33 34.3 49.33 34.4 49.33 34.51 50.11 34.62 50.11 34.73 50.11 34.84 50.9 34.94 50.11 35.05 49.33 35.16 49.33 35.27 50.11 35.37 50.11 35.48 49.33 35.59 49.33 35.7 49.33 35.8 49.33 35.91 49.33 36.02 49.33 36.13 49.33 36.23 49.33 36.34 49.33 36.45 49.33 36.56 50.11 36.66 50.11 36.77 50.11 36.88 50.11 36.99 50.9 37.09 50.11 37.2 50.9 37.31 50.9 37.42 50.9 37.52 50.11 37.63 50.11 37.74 50.9 37.85 50.9 37.95 51.68 38.06 50.9 38.17 50.9 38.28 50.9 38.38 50.9 38.49 50.9 38.6 50.11 38.71 50.11 38.82 50.11 38.92 50.11 39.03 50.11 39.14 50.11 39.25 50.11 39.35 50.11 39.46 50.11 39.57 50.11 39.68 50.11 39.78 50.11 39.89 50.11 40 50.11 40.11 50.11 40.21 50.11 40.32 50.11 40.43 50.11 40.54 49.33 40.64 49.33 40.75 49.33 40.86 49.33 40.97 48.54 41.07 48.54 41.18 48.54 41.29 48.54 41.4 47.76 41.5 48.54 41.61 48.54 41.72 48.54 41.83 48.54 41.93 48.54 42.04 48.54 42.15 48.54 42.26 48.54 42.36 49.33 42.47 48.54 42.58 48.54 42.69 49.33 42.8 49.33 42.9 49.33 43.01 49.33 43.12 49.33 43.23 49.33 43.33 49.33 43.44 49.33 43.55 49.33 43.66 49.33 43.76 48.54 43.87 48.54 43.98 49.33 44.09 48.54 44.19 49.33 44.3 49.33 44.41 49.33 44.52 49.33 44.62 49.33 44.73 50.11 44.84 50.11 44.95 50.11 45.05 50.11 45.16 50.11 45.27 49.33 45.38 49.33 45.48 49.33 45.59 49.33 45.7 49.33 45.81 49.33 45.91 50.11 46.02 49.33 46.13 50.11 46.24 50.11 46.34 50.11 46.45 49.33 46.56 50.11 46.67 50.11 46.78 50.11 46.88 50.11 46.99 50.11 47.1 50.11 47.21 49.33 47.31 49.33 47.42 49.33 47.53 49.33 47.64 49.33 47.74 49.33 47.85 49.33 47.96 49.33 48.07 49.33 48.17 49.33 48.28 49.33 48.39 48.54 48.5 48.54 48.6 49.33 48.71 49.33 48.82 49.33 48.93 50.11 49.03 50.11 49.14 49.33 49.25 50.11 49.36 50.11 49.46 50.11 49.57 49.33 49.68 49.33 49.79 50.11 49.89 49.33 50 49.33 50.11 49.33 50.22 49.33 50.32 48.54 50.43 48.54 50.54 48.54 50.65 49.33 50.76 49.33 50.86 50.11 50.97 49.33 51.08 49.33 51.19 49.33 51.29 49.33 51.4 50.11 51.51 50.11 51.62 50.11 51.72 50.11 51.83 50.11 51.94 50.11 52.05 50.11 52.15 50.11 52.26 49.33 52.37 49.33 52.48 49.33 52.58 49.33 52.69 49.33 52.8 50.11 52.91 49.33 53.01 49.33 53.12 49.33 53.23 49.33 53.34 48.54 53.44 48.54 53.55 49.33 53.66 48.54 53.77 48.54 53.87 49.33 53.98 49.33 54.09 49.33 54.2 48.54 54.3 48.54 54.41 48.54 54.52 48.54 54.63 48.54 54.74 49.33 54.84 49.33 54.95 49.33 55.06 50.11 55.17 50.11 55.27 50.11 55.38 50.11 55.49 50.11 55.6 49.33 55.7 49.33 55.81 48.54 55.92 49.33 56.03 49.33 56.13 50.11 56.24 49.33 56.35 49.33 56.46 49.33 56.56 50.11 56.67 50.11 56.78 50.11 56.89 50.11 56.99 49.33 57.1 50.11 57.21 50.11 57.32 50.11 57.42 50.9 57.53 50.9 57.64 50.11 57.75 50.11 57.85 50.11 57.96 50.11 58.07 50.11 58.18 50.11 58.29 50.11 58.39 50.11 58.5 50.11 58.61 49.33 58.72 49.33 58.82 49.33 58.93 49.33 59.04 50.11 59.15 50.11 59.25 50.11 59.36 50.11 59.47 50.11 59.58 50.9 59.68 50.9 59.79 50.9 59.9 50.9 60.01 50.11 60.11 50.11 60.22 50.11 60.33 50.11 60.44 50.11 60.54 50.11 60.65 50.11 60.76 49.33 60.87 49.33 60.97 49.33 61.08 49.33 61.19 49.33 61.3 49.33 61.4 49.33 61.51 49.33 61.62 49.33 61.73 49.33 61.83 49.33 61.94 49.33 62.05 49.33 62.16 48.54 62.27 48.54 62.37 49.33 62.48 48.54 62.59 48.54 62.7 49.33 62.8 48.54 62.91 49.33 63.02 49.33 63.13 50.11 63.23 50.11 63.34 50.11 63.45 50.11 63.56 50.11 63.66 50.11 63.77 50.11 63.88 50.11 63.99 50.11 64.09 50.11 64.2 50.11 64.31 49.33 64.42 50.11 64.52 50.11 64.63 50.11 64.74 49.33 64.85 49.33 64.95 49.33 65.06 50.11 65.17 50.11 65.28 49.33 65.38 49.33 65.49 48.54 65.6 47.76 65.71 48.54 65.81 48.54 65.92 48.54 66.03 48.54 66.14 49.33 66.25 50.11 66.35 49.33 66.46 48.54 66.57 49.33 66.68 49.33 66.78 49.33 66.89 49.33 67 50.11 67.11 50.11 67.21 50.9 67.32 50.9 67.43 50.9 67.54 50.9 67.64 50.11 67.75 50.9 67.86 50.9 67.97 50.11 68.07 50.11 68.18 50.11 68.29 49.33 68.4 50.11 68.5 50.9 68.61 50.9 68.72 50.9 68.83 50.9 68.93 50.9 69.04 50.9 69.15 51.68 69.26 51.68 69.36 51.68 69.47 51.68 69.58 51.68 69.69 51.68 69.79 51.68 69.9 51.68 70.01 52.46 70.12 51.68 70.23 51.68 70.33 50.9 70.44 50.11 70.55 50.11 70.66 50.11 70.76 50.11 70.87 50.11 70.98 50.11 71.09 50.11 71.19 50.11 71.3 50.11 71.41 50.9 71.52 50.9 71.62 50.9 71.73 50.11 71.84 50.11 71.95 50.11 72.05 50.11 72.16 50.9 72.27 50.9 72.38 50.9 72.48 50.9 72.59 51.68 72.7 51.68 72.81 51.68 72.91 50.9 73.02 51.68 73.13 51.68 73.24 50.9 73.34 50.9 73.45 50.9 73.56 50.9 73.67 50.9 73.77 51.68 73.88 50.9 73.99 50.9 74.1 50.9 74.21 50.9 74.31 50.9 74.42 50.9 74.53 51.68 74.64 51.68 74.74 51.68 74.85 51.68 74.96 51.68 75.07 50.9 75.17 51.68 75.28 51.68 75.39 51.68 75.5 51.68 75.6 51.68 75.71 51.68 75.82 52.46 75.93 52.46 76.03 52.46 76.14 52.46 76.25 52.46 76.36 53.25 76.46 52.46 76.57 52.46 76.68 51.68 76.79 52.46 76.89 51.68 77 51.68 77.11 50.9 77.22 51.68 77.32 50.9 77.43 50.9 77.54 50.9 77.65 50.9 77.75 50.9 77.86 50.11 77.97 50.11 78.08 50.11 78.19 50.11 78.29 50.11 78.4 50.11 78.51 50.11 78.62 50.9 78.72 50.9 78.83 50.9 78.94 50.9 79.05 51.68 79.15 51.68 79.26 51.68 79.37 50.9 79.48 50.9 79.58 50.9 79.69 51.68 79.8 50.9 79.91 50.9 80.01 50.9 80.12 50.9 80.23 50.9 80.34 50.9 80.44 50.9 80.55 50.9 80.66 50.9 80.77 50.9 80.87 50.9 80.98 50.11 81.09 50.11 81.2 50.11 81.3 50.11 81.41 50.11 81.52 50.11 81.63 50.11 81.73 50.11 81.84 50.11 81.95 50.11 82.06 50.11 82.17 49.33 82.27 50.11 82.38 49.33 82.49 50.11 82.6 50.11 82.7 49.33 82.81 48.54 82.92 49.33 83.03 49.33 83.13 49.33 83.24 49.33 83.35 49.33 83.46 49.33 83.56 49.33 83.67 49.33 83.78 49.33 83.89 49.33 83.99 50.11 84.1 50.11 84.21 50.11 84.32 50.11 84.42 50.11 84.53 49.33 84.64 49.33 84.75 50.11 84.85 50.11 84.96 50.9 85.07 50.11 85.18 50.9 85.28 50.9 85.39 50.9 85.5 49.33 85.61 50.11 85.71 50.11 85.82 50.11 85.93 50.11 86.04 50.9 86.15 50.9 86.25 50.9 86.36 50.9 86.47 50.9 86.58 50.9 86.68 50.11 86.79 50.11 86.9 50.11 87.01 50.11 87.11 50.11 87.22 50.11 87.33 50.11 87.44 50.11 87.54 50.9 87.65 50.11 87.76 50.11 87.87 50.9 87.97 50.9 88.08 50.9 88.19 50.9 88.3 50.9 88.4 51.68 88.51 51.68 88.62 52.46 88.73 51.68 88.83 51.68 88.94 52.46 89.05 51.68 89.16 50.9 89.26 51.68 89.37 50.9 89.48 51.68 89.59 51.68 89.69 50.9 89.8 50.9 89.91 50.9 90.02 50.9 90.13 50.11 90.23 50.9 90.34 50.9 90.45 51.68 90.56 50.9 90.66 51.68 90.77 51.68 90.88 51.68 90.99 51.68 91.09 51.68 91.2 51.68 91.31 51.68 91.42 51.68 91.52 51.68 91.63 51.68 91.74 50.9 91.85 50.9 91.95 51.68 92.06 51.68 92.17 50.9 92.28 50.9 92.38 50.9 92.49 50.9 92.6 51.68 92.71 51.68 92.81 51.68 92.92 51.68 93.03 51.68 93.14 51.68 93.24 50.9 93.35 50.9 93.46 50.11 93.57 50.11 93.67 50.9 93.78 50.9 93.89 50.9 94 50.11 94.11 50.11 94.21 50.11 94.32 50.11 94.43 50.11 94.54 50.11 94.64 50.11 94.75 50.11 94.86 50.9 94.97 50.9 95.07 50.9 95.18 51.68 95.29 51.68 95.4 51.68 95.5 51.68 95.61 51.68 95.72 51.68 95.83 51.68 95.93 51.68 96.04 51.68 96.15 50.9 96.26 50.9 96.36 50.9 96.47 50.11 96.58 50.11 96.69 50.11 96.79 50.9 96.9 50.9 97.01 50.9 97.12 50.9 97.22 51.68 97.33 51.68 97.44 50.9 97.55 50.9 97.65 50.9 97.76 50.11 97.87 50.9 97.98 50.9 98.09 51.68 98.19 50.9 98.3 51.68 98.41 51.68 98.52 51.68 98.62 51.68 98.73 51.68 98.84 51.68 98.95 51.68 99.05 50.9 99.16 50.9 99.27 51.68 99.38 51.68 99.48 51.68 99.59 51.68 99.7 51.68 99.81 51.68 99.91 51.68 100.02 51.68 100.13 51.68 100.24 50.9 100.34 51.68 100.45 51.68 100.56 51.68 100.67 51.68 100.77 51.68 100.88 51.68 100.99 52.46 101.1 52.46 101.2 51.68 101.31 52.46 101.42 52.46 101.53 52.46 101.63 52.46 101.74 51.68 101.85 51.68 101.96 52.46 102.07 52.46 102.17 52.46 102.28 52.46 102.39 52.46 102.5 52.46 102.6 52.46 102.71 52.46 102.82 52.46 102.93 52.46 103.03 52.46 103.14 51.68 103.25 52.46 103.36 52.46 103.46 52.46 103.57 51.68 103.68 51.68 103.79 52.46 103.89 52.46 104 52.46 104.11 53.25 104.22 53.25 104.32 53.25 104.43 52.46 104.54 53.25 104.65 53.25 104.75 53.25 104.86 53.25 104.97 53.25 105.08 53.25 105.18 53.25 105.29 53.25 105.4 53.25 105.51 53.25 105.61 53.25 105.72 52.46 105.83 52.46 105.94 53.25 106.05 53.25 106.15 53.25 106.26 54.03 106.37 53.25 106.48 53.25 106.58 53.25 106.69 53.25 106.8 53.25 106.91 53.25 107.01 53.25 107.12 53.25 107.23 53.25 107.34 54.03 107.44 54.03 107.55 53.25 107.66 53.25 107.77 52.46 107.87 53.25 107.98 53.25 108.09 53.25 108.2 53.25 108.3 53.25 108.41 53.25 108.52 54.03 108.63 54.03 108.73 54.03 108.84 53.25 108.95 53.25 109.06 54.03 109.16 53.25 109.27 54.03 109.38 53.25 109.49 53.25 109.59 52.46 109.7 52.46 109.81 52.46 109.92 52.46 110.03 52.46 110.13 52.46 110.24 52.46 110.35 52.46 110.46 53.25 110.56 52.46 110.67 52.46 110.78 52.46 110.89 52.46 110.99 52.46 111.1 52.46 111.21 52.46 111.32 52.46 111.42 52.46 111.53 52.46 111.64 52.46 111.75 52.46 111.85 52.46 111.96 53.25 112.07 52.46 112.18 52.46 112.28 52.46 112.39 52.46 112.5 52.46 112.61 53.25 112.71 53.25 112.82 54.03 112.93 54.03 113.04 54.03 113.14 54.03 113.25 53.25 113.36 54.03 113.47 54.03 113.57 54.03 113.68 54.82 113.79 54.82 113.9 54.03 114.01 54.03 114.11 54.03 114.22 54.03 114.33 54.03 114.44 54.03 114.54 54.03 114.65 54.03 114.76 54.03 114.87 54.03 114.97 54.03 115.08 54.03 115.19 53.25 115.3 53.25 115.4 53.25 115.51 52.46 115.62 53.25 115.73 53.25 115.83 54.03 115.94 54.03 116.05 54.03 116.16 54.03 116.26 53.25 116.37 53.25 116.48 54.03 116.59 54.03 116.69 54.03 116.8 54.82 116.91 54.03 117.02 54.03 117.12 53.25 117.23 53.25 117.34 54.03 117.45 53.25 117.56 53.25 117.66 54.03 117.77 53.25 117.88 53.25 117.99 54.03 118.09 54.03 118.2 54.03 118.31 54.03 118.42 54.03 118.52 54.82 118.63 54.82 118.74 54.82 118.85 54.82 118.95 54.03 119.06 54.82 119.17 54.82 119.28 54.82 119.38 54.82 119.49 54.82 119.6 54.03 119.71 54.03 119.81 54.03 119.92 54.03 120.03 54.03 120.14 54.03 120.24 54.03 120.35 54.03 120.46 53.25 120.57 53.25 120.67 53.25 120.78 53.25 120.89 54.03 121 53.25 121.1 53.25 121.21 53.25 121.32 54.03 121.43 54.03 121.54 54.03 121.64 54.82 121.75 54.82 121.86 54.82 121.97 54.82 122.07 54.82 122.18 54.82 122.29 54.82 122.4 54.82 122.5 54.82 122.61 54.82 122.72 54.03 122.83 54.03 122.93 54.03 123.04 54.03 123.15 53.25 123.26 53.25 123.36 54.03 123.47 54.03 123.58 54.03 123.69 54.03 123.79 54.03 123.9 54.03 124.01 54.03 124.12 54.03 124.22 54.03 124.33 54.03 124.44 54.03 124.55 54.03 124.65 54.03 124.76 54.03 124.87 54.03 124.98 54.03 125.08 53.25 125.19 53.25 125.3 53.25 125.41 54.03 125.52 54.03 125.62 54.03 125.73 54.03 125.84 53.25 125.95 54.03 126.05 54.03 126.16 53.25 126.27 53.25 126.38 53.25 126.48 53.25 126.59 53.25 126.7 52.46 126.81 52.46 126.91 53.25 127.02 53.25 127.13 53.25 127.24 53.25 127.34 54.03 127.45 54.03 127.56 54.03 127.67 53.25 127.77 54.03 127.88 54.03 127.99 53.25 128.1 54.03 128.2 54.03 128.31 54.03 128.42 54.82 128.53 54.03 128.63 54.03 128.74 54.03 128.85 53.25 128.96 53.25 129.06 54.03 129.17 53.25 129.28 52.46" id="img-693907c0-38" stroke="#D4CA3A" class="geometry color_0.0001"/>
        <path fill="none" d="M21.82,22.68 L 21.93 28.16 22.03 32.87 22.14 36 22.25 37.57 22.36 39.14 22.46 39.14 22.57 40.71 22.68 39.14 22.79 39.14 22.9 39.14 23 39.92 23.11 39.92 23.22 39.92 23.33 39.14 23.43 39.92 23.54 39.92 23.65 39.92 23.76 39.92 23.86 39.92 23.97 39.14 24.08 39.92 24.19 39.14 24.29 39.14 24.4 39.14 24.51 39.14 24.62 39.14 24.72 39.14 24.83 39.14 24.94 39.92 25.05 39.92 25.15 39.14 25.26 39.14 25.37 39.14 25.48 39.14 25.58 39.92 25.69 40.71 25.8 40.71 25.91 40.71 26.01 40.71 26.12 40.71 26.23 40.71 26.34 40.71 26.44 39.92 26.55 40.71 26.66 39.92 26.77 39.92 26.88 39.92 26.98 39.92 27.09 39.92 27.2 39.14 27.31 38.35 27.41 38.35 27.52 39.14 27.63 38.35 27.74 39.14 27.84 39.14 27.95 39.92 28.06 39.14 28.17 38.35 28.27 39.14 28.38 38.35 28.49 39.14 28.6 38.35 28.7 38.35 28.81 39.14 28.92 39.14 29.03 39.14 29.13 38.35 29.24 38.35 29.35 38.35 29.46 38.35 29.56 38.35 29.67 38.35 29.78 39.92 29.89 39.14 29.99 39.14 30.1 39.14 30.21 38.35 30.32 38.35 30.42 38.35 30.53 39.14 30.64 39.14 30.75 39.92 30.86 39.14 30.96 39.92 31.07 39.92 31.18 39.14 31.29 39.14 31.39 39.92 31.5 39.14 31.61 39.92 31.72 40.71 31.82 39.14 31.93 39.14 32.04 39.92 32.15 39.14 32.25 38.35 32.36 39.92 32.47 39.92 32.58 39.92 32.68 39.14 32.79 39.14 32.9 39.14 33.01 39.14 33.11 39.14 33.22 38.35 33.33 39.14 33.44 39.92 33.54 39.92 33.65 39.14 33.76 38.35 33.87 39.92 33.97 39.92 34.08 39.92 34.19 39.92 34.3 39.92 34.4 39.92 34.51 39.92 34.62 39.92 34.73 39.92 34.84 39.92 34.94 40.71 35.05 40.71 35.16 41.49 35.27 40.71 35.37 39.92 35.48 39.92 35.59 39.14 35.7 38.35 35.8 39.14 35.91 39.92 36.02 39.14 36.13 39.92 36.23 39.92 36.34 39.14 36.45 39.14 36.56 39.14 36.66 39.14 36.77 39.92 36.88 39.14 36.99 39.14 37.09 39.92 37.2 39.14 37.31 39.92 37.42 39.92 37.52 39.92 37.63 39.14 37.74 39.92 37.85 39.92 37.95 39.92 38.06 41.49 38.17 40.71 38.28 40.71 38.38 40.71 38.49 40.71 38.6 40.71 38.71 39.14 38.82 39.14 38.92 39.14 39.03 39.92 39.14 40.71 39.25 40.71 39.35 39.92 39.46 40.71 39.57 40.71 39.68 40.71 39.78 39.92 39.89 39.92 40 39.92 40.11 39.92 40.21 39.92 40.32 39.92 40.43 40.71 40.54 40.71 40.64 40.71 40.75 41.49 40.86 40.71 40.97 39.92 41.07 39.92 41.18 39.92 41.29 40.71 41.4 40.71 41.5 39.92 41.61 39.92 41.72 39.92 41.83 40.71 41.93 39.92 42.04 40.71 42.15 40.71 42.26 39.92 42.36 41.49 42.47 41.49 42.58 42.27 42.69 41.49 42.8 40.71 42.9 41.49 43.01 40.71 43.12 39.92 43.23 39.14 43.33 39.14 43.44 39.92 43.55 39.92 43.66 39.92 43.76 39.92 43.87 40.71 43.98 40.71 44.09 39.92 44.19 39.92 44.3 40.71 44.41 40.71 44.52 40.71 44.62 40.71 44.73 39.92 44.84 39.92 44.95 40.71 45.05 39.92 45.16 40.71 45.27 39.14 45.38 39.14 45.48 39.14 45.59 39.14 45.7 39.92 45.81 39.14 45.91 39.14 46.02 39.92 46.13 40.71 46.24 39.14 46.34 39.92 46.45 39.92 46.56 39.92 46.67 39.92 46.78 40.71 46.88 39.92 46.99 39.92 47.1 41.49 47.21 40.71 47.31 41.49 47.42 40.71 47.53 41.49 47.64 41.49 47.74 41.49 47.85 42.27 47.96 42.27 48.07 42.27 48.17 42.27 48.28 42.27 48.39 42.27 48.5 41.49 48.6 42.27 48.71 42.27 48.82 41.49 48.93 42.27 49.03 42.27 49.14 43.06 49.25 43.06 49.36 42.27 49.46 43.06 49.57 42.27 49.68 42.27 49.79 43.06 49.89 42.27 50 42.27 50.11 41.49 50.22 42.27 50.32 43.06 50.43 44.62 50.54 44.62 50.65 44.62 50.76 45.41 50.86 45.41 50.97 44.62 51.08 44.62 51.19 43.84 51.29 43.84 51.4 44.62 51.51 44.62 51.62 44.62 51.72 43.84 51.83 43.06 51.94 43.84 52.05 44.62 52.15 44.62 52.26 44.62 52.37 43.84 52.48 44.62 52.58 43.06 52.69 43.84 52.8 43.06 52.91 43.84 53.01 43.84 53.12 44.62 53.23 44.62 53.34 45.41 53.44 44.62 53.55 44.62 53.66 43.84 53.77 43.84 53.87 43.84 53.98 43.06 54.09 42.27 54.2 43.06 54.3 43.06 54.41 43.06 54.52 43.84 54.63 42.27 54.74 43.06 54.84 43.06 54.95 43.06 55.06 43.06 55.17 43.06 55.27 43.84 55.38 43.84 55.49 43.06 55.6 43.06 55.7 42.27 55.81 43.06 55.92 43.06 56.03 42.27 56.13 42.27 56.24 42.27 56.35 42.27 56.46 42.27 56.56 43.06 56.67 42.27 56.78 42.27 56.89 42.27 56.99 43.06 57.1 43.06 57.21 43.06 57.32 43.84 57.42 43.06 57.53 43.84 57.64 44.62 57.75 44.62 57.85 44.62 57.96 43.84 58.07 45.41 58.18 44.62 58.29 45.41 58.39 46.19 58.5 46.19 58.61 44.62 58.72 43.84 58.82 43.84 58.93 43.84 59.04 44.62 59.15 43.84 59.25 43.84 59.36 43.84 59.47 44.62 59.58 44.62 59.68 44.62 59.79 43.84 59.9 43.06 60.01 43.84 60.11 43.84 60.22 43.84 60.33 43.06 60.44 43.06 60.54 43.06 60.65 43.84 60.76 43.84 60.87 43.84 60.97 43.84 61.08 43.06 61.19 43.84 61.3 43.84 61.4 43.06 61.51 42.27 61.62 43.06 61.73 43.84 61.83 43.84 61.94 43.06 62.05 43.84 62.16 43.84 62.27 44.62 62.37 44.62 62.48 45.41 62.59 46.19 62.7 45.41 62.8 44.62 62.91 44.62 63.02 44.62 63.13 45.41 63.23 45.41 63.34 45.41 63.45 44.62 63.56 44.62 63.66 43.84 63.77 43.84 63.88 43.84 63.99 45.41 64.09 46.19 64.2 45.41 64.31 46.19 64.42 45.41 64.52 45.41 64.63 44.62 64.74 43.84 64.85 42.27 64.95 43.06 65.06 43.84 65.17 43.84 65.28 43.06 65.38 43.06 65.49 42.27 65.6 43.06 65.71 43.06 65.81 44.62 65.92 43.84 66.03 43.84 66.14 43.06 66.25 43.06 66.35 43.06 66.46 43.84 66.57 43.84 66.68 43.84 66.78 43.84 66.89 43.06 67 43.06 67.11 43.84 67.21 43.84 67.32 43.84 67.43 43.06 67.54 43.06 67.64 43.06 67.75 43.06 67.86 43.06 67.97 43.06 68.07 43.06 68.18 43.06 68.29 43.06 68.4 43.06 68.5 41.49 68.61 42.27 68.72 43.06 68.83 43.84 68.93 42.27 69.04 43.06 69.15 43.84 69.26 44.62 69.36 46.19 69.47 45.41 69.58 43.84 69.69 44.62 69.79 43.84 69.9 43.84 70.01 44.62 70.12 43.84 70.23 43.84 70.33 43.84 70.44 43.84 70.55 43.84 70.66 43.84 70.76 44.62 70.87 45.41 70.98 43.84 71.09 43.84 71.19 43.84 71.3 44.62 71.41 44.62 71.52 43.84 71.62 43.84 71.73 43.84 71.84 43.84 71.95 43.84 72.05 43.06 72.16 43.84 72.27 43.06 72.38 43.84 72.48 43.06 72.59 43.06 72.7 43.06 72.81 43.84 72.91 43.06 73.02 43.84 73.13 43.84 73.24 44.62 73.34 44.62 73.45 45.41 73.56 45.41 73.67 45.41 73.77 46.19 73.88 44.62 73.99 44.62 74.1 45.41 74.21 45.41 74.31 45.41 74.42 45.41 74.53 43.84 74.64 43.84 74.74 44.62 74.85 43.84 74.96 43.84 75.07 44.62 75.17 45.41 75.28 45.41 75.39 45.41 75.5 46.19 75.6 45.41 75.71 45.41 75.82 45.41 75.93 45.41 76.03 45.41 76.14 44.62 76.25 43.06 76.36 43.84 76.46 44.62 76.57 45.41 76.68 45.41 76.79 46.19 76.89 45.41 77 45.41 77.11 44.62 77.22 45.41 77.32 45.41 77.43 45.41 77.54 45.41 77.65 44.62 77.75 46.19 77.86 46.19 77.97 46.98 78.08 46.19 78.19 46.19 78.29 45.41 78.4 45.41 78.51 46.19 78.62 45.41 78.72 46.19 78.83 46.19 78.94 45.41 79.05 45.41 79.15 44.62 79.26 45.41 79.37 45.41 79.48 44.62 79.58 46.19 79.69 44.62 79.8 43.84 79.91 44.62 80.01 44.62 80.12 43.84 80.23 44.62 80.34 44.62 80.44 45.41 80.55 44.62 80.66 46.19 80.77 45.41 80.87 45.41 80.98 44.62 81.09 45.41 81.2 45.41 81.3 45.41 81.41 45.41 81.52 46.19 81.63 46.19 81.73 46.19 81.84 45.41 81.95 46.19 82.06 46.19 82.17 46.98 82.27 45.41 82.38 46.19 82.49 45.41 82.6 45.41 82.7 44.62 82.81 45.41 82.92 44.62 83.03 45.41 83.13 44.62 83.24 45.41 83.35 44.62 83.46 45.41 83.56 45.41 83.67 45.41 83.78 44.62 83.89 45.41 83.99 45.41 84.1 46.19 84.21 45.41 84.32 44.62 84.42 44.62 84.53 44.62 84.64 44.62 84.75 45.41 84.85 44.62 84.96 45.41 85.07 44.62 85.18 45.41 85.28 45.41 85.39 45.41 85.5 45.41 85.61 44.62 85.71 44.62 85.82 43.84 85.93 44.62 86.04 43.84 86.15 43.84 86.25 44.62 86.36 44.62 86.47 45.41 86.58 44.62 86.68 44.62 86.79 43.84 86.9 43.06 87.01 43.84 87.11 43.84 87.22 43.84 87.33 43.84 87.44 44.62 87.54 44.62 87.65 44.62 87.76 43.84 87.87 43.06 87.97 43.84 88.08 44.62 88.19 44.62 88.3 44.62 88.4 43.84 88.51 44.62 88.62 44.62 88.73 44.62 88.83 44.62 88.94 45.41 89.05 44.62 89.16 45.41 89.26 45.41 89.37 44.62 89.48 43.84 89.59 43.84 89.69 44.62 89.8 45.41 89.91 44.62 90.02 45.41 90.13 44.62 90.23 44.62 90.34 44.62 90.45 43.84 90.56 44.62 90.66 44.62 90.77 45.41 90.88 45.41 90.99 44.62 91.09 44.62 91.2 44.62 91.31 43.84 91.42 43.84 91.52 43.84 91.63 42.27 91.74 43.06 91.85 42.27 91.95 41.49 92.06 42.27 92.17 42.27 92.28 42.27 92.38 43.06 92.49 43.84 92.6 43.06 92.71 43.84 92.81 43.06 92.92 43.84 93.03 44.62 93.14 44.62 93.24 44.62 93.35 43.84 93.46 44.62 93.57 43.84 93.67 44.62 93.78 45.41 93.89 45.41 94 45.41 94.11 43.84 94.21 45.41 94.32 45.41 94.43 44.62 94.54 45.41 94.64 45.41 94.75 45.41 94.86 44.62 94.97 44.62 95.07 46.19 95.18 46.19 95.29 46.19 95.4 45.41 95.5 45.41 95.61 44.62 95.72 44.62 95.83 46.19 95.93 45.41 96.04 46.19 96.15 46.19 96.26 45.41 96.36 44.62 96.47 44.62 96.58 44.62 96.69 44.62 96.79 44.62 96.9 44.62 97.01 44.62 97.12 46.19 97.22 44.62 97.33 45.41 97.44 45.41 97.55 45.41 97.65 46.98 97.76 46.19 97.87 45.41 97.98 44.62 98.09 44.62 98.19 44.62 98.3 44.62 98.41 45.41 98.52 45.41 98.62 45.41 98.73 45.41 98.84 46.19 98.95 46.19 99.05 46.19 99.16 46.19 99.27 46.19 99.38 45.41 99.48 45.41 99.59 44.62 99.7 45.41 99.81 45.41 99.91 45.41 100.02 46.19 100.13 46.98 100.24 46.19 100.34 45.41 100.45 45.41 100.56 45.41 100.67 45.41 100.77 45.41 100.88 44.62 100.99 44.62 101.1 44.62 101.2 43.84 101.31 43.84 101.42 43.84 101.53 43.84 101.63 43.06 101.74 42.27 101.85 42.27 101.96 42.27 102.07 41.49 102.17 42.27 102.28 43.84 102.39 43.84 102.5 43.84 102.6 45.41 102.71 45.41 102.82 44.62 102.93 44.62 103.03 44.62 103.14 44.62 103.25 44.62 103.36 44.62 103.46 43.84 103.57 43.06 103.68 43.06 103.79 43.84 103.89 43.84 104 43.84 104.11 43.84 104.22 43.84 104.32 45.41 104.43 44.62 104.54 44.62 104.65 45.41 104.75 46.19 104.86 45.41 104.97 44.62 105.08 43.84 105.18 43.06 105.29 43.84 105.4 44.62 105.51 43.84 105.61 43.06 105.72 43.84 105.83 44.62 105.94 45.41 106.05 45.41 106.15 45.41 106.26 45.41 106.37 44.62 106.48 44.62 106.58 44.62 106.69 43.84 106.8 43.06 106.91 43.06 107.01 44.62 107.12 43.84 107.23 44.62 107.34 44.62 107.44 45.41 107.55 46.19 107.66 46.19 107.77 46.19 107.87 46.19 107.98 46.19 108.09 46.19 108.2 46.19 108.3 45.41 108.41 46.19 108.52 45.41 108.63 45.41 108.73 46.19 108.84 46.19 108.95 45.41 109.06 46.19 109.16 46.98 109.27 47.76 109.38 46.19 109.49 46.98 109.59 46.19 109.7 46.19 109.81 45.41 109.92 45.41 110.03 46.19 110.13 46.19 110.24 45.41 110.35 43.84 110.46 44.62 110.56 46.19 110.67 46.19 110.78 46.19 110.89 46.98 110.99 46.98 111.1 46.98 111.21 46.98 111.32 47.76 111.42 46.98 111.53 46.98 111.64 46.98 111.75 47.76 111.85 47.76 111.96 46.98 112.07 46.98 112.18 46.98 112.28 46.98 112.39 46.19 112.5 46.19 112.61 46.19 112.71 46.19 112.82 46.98 112.93 47.76 113.04 46.98 113.14 46.19 113.25 46.98 113.36 46.98 113.47 46.98 113.57 47.76 113.68 45.41 113.79 45.41 113.9 45.41 114.01 45.41 114.11 46.19 114.22 45.41 114.33 46.19 114.44 46.19 114.54 46.19 114.65 46.19 114.76 46.98 114.87 46.19 114.97 46.19 115.08 46.19 115.19 46.19 115.3 46.19 115.4 45.41 115.51 46.19 115.62 46.19 115.73 46.19 115.83 46.19 115.94 46.19 116.05 46.19 116.16 47.76 116.26 46.98 116.37 46.98 116.48 46.98 116.59 46.19 116.69 46.19 116.8 46.98 116.91 46.19 117.02 46.98 117.12 46.98 117.23 46.19 117.34 46.19 117.45 46.98 117.56 46.19 117.66 45.41 117.77 47.76 117.88 48.54 117.99 46.98 118.09 46.98 118.2 46.98 118.31 46.98 118.42 46.98 118.52 47.76 118.63 46.98 118.74 46.19 118.85 46.98 118.95 46.19 119.06 46.19 119.17 46.19 119.28 45.41 119.38 45.41 119.49 44.62 119.6 44.62 119.71 44.62 119.81 45.41 119.92 45.41 120.03 43.84 120.14 44.62 120.24 44.62 120.35 45.41 120.46 45.41 120.57 44.62 120.67 43.84 120.78 44.62 120.89 45.41 121 44.62 121.1 45.41 121.21 45.41 121.32 45.41 121.43 46.19 121.54 46.19 121.64 46.19 121.75 46.19 121.86 45.41 121.97 46.98 122.07 46.98 122.18 46.98 122.29 46.98 122.4 46.19 122.5 46.19 122.61 45.41 122.72 45.41 122.83 45.41 122.93 45.41 123.04 45.41 123.15 44.62 123.26 45.41 123.36 46.19 123.47 46.98 123.58 46.19 123.69 46.19 123.79 46.19 123.9 46.19 124.01 45.41 124.12 46.19 124.22 45.41 124.33 45.41 124.44 46.19 124.55 46.19 124.65 45.41 124.76 45.41 124.87 46.19 124.98 45.41 125.08 46.19 125.19 46.98 125.3 46.19 125.41 46.98 125.52 46.98 125.62 46.98 125.73 47.76 125.84 46.98 125.95 46.98 126.05 46.19 126.16 46.19 126.27 46.19 126.38 46.19 126.48 45.41 126.59 45.41 126.7 44.62 126.81 45.41 126.91 45.41 127.02 44.62 127.13 45.41 127.24 45.41 127.34 46.19 127.45 46.98 127.56 46.19 127.67 46.19 127.77 46.19 127.88 46.19 127.99 47.76 128.1 46.98 128.2 46.98 128.31 46.98 128.42 46.98 128.53 45.41 128.63 46.19 128.74 46.98 128.85 47.76 128.96 46.98 129.06 46.98 129.17 46.19 129.28 45.41" id="img-693907c0-39" stroke="#FF6DAE" class="geometry color_0.0005"/>
      </g>
    </g>
  </g>
</g>
  <g class="guide ylabels" font-size="2.82" font-family="'PT Sans Caption','Helvetica Neue','Helvetica',sans-serif" fill="#6C606B" id="img-693907c0-40">
    <text x="18.82" y="69.71" text-anchor="end" dy="0.35em" id="img-693907c0-41">40</text>
    <text x="18.82" y="54.03" text-anchor="end" dy="0.35em" id="img-693907c0-42">60</text>
    <text x="18.82" y="38.35" text-anchor="end" dy="0.35em" id="img-693907c0-43">80</text>
    <text x="18.82" y="22.68" text-anchor="end" dy="0.35em" id="img-693907c0-44">100</text>
    <text x="18.82" y="7" text-anchor="end" dy="0.35em" id="img-693907c0-45">120</text>
  </g>
  <g font-size="3.88" font-family="'PT Sans','Helvetica Neue','Helvetica',sans-serif" fill="#564A55" stroke="#000000" stroke-opacity="0.000" id="img-693907c0-46">
    <text x="8.76" y="36.35" text-anchor="middle" dy="0.35em" transform="rotate(-90, 8.76, 38.35)" id="img-693907c0-47">nSpecie</text>
  </g>
</g>
<defs>
  <clipPath id="img-693907c0-19">
  <path d="M19.82,5 L 131.39 5 131.39 71.71 19.82 71.71" />
</clipPath>
</defs>
</svg>
