<?xml version="1.0" encoding="UTF-8"?>
<svg xmlns="http://www.w3.org/2000/svg"
     xmlns:xlink="http://www.w3.org/1999/xlink"
     xmlns:gadfly="http://www.gadflyjl.org/ns"
     version="1.2"
     width="150mm" height="90mm" viewBox="0 0 150 90"
     stroke="none"
     fill="#000000"
     stroke-width="0.3"
     font-size="3.88"
>
<g class="plotroot xscalable yscalable" id="img-c2bbfb99-1">
  <g font-size="3.88" font-family="'PT Sans','Helvetica Neue','Helvetica',sans-serif" fill="#564A55" stroke="#000000" stroke-opacity="0.000" id="img-c2bbfb99-2">
    <text x="77.9" y="79.18" text-anchor="middle" dy="0.6em">time</text>
  </g>
  <g class="guide xlabels" font-size="2.82" font-family="'PT Sans Caption','Helvetica Neue','Helvetica',sans-serif" fill="#6C606B" id="img-c2bbfb99-3">
    <text x="21.82" y="72.71" text-anchor="middle" dy="0.6em">0</text>
    <text x="77.9" y="72.71" text-anchor="middle" dy="0.6em">5.0×10³</text>
    <text x="133.97" y="72.71" text-anchor="middle" dy="0.6em">1.0×10⁴</text>
  </g>
  <g class="guide colorkey" id="img-c2bbfb99-4">
    <g fill="#4C404B" font-size="2.82" font-family="'PT Sans','Helvetica Neue','Helvetica',sans-serif" id="img-c2bbfb99-5">
      <text x="139.71" y="34.88" dy="0.35em" id="img-c2bbfb99-6" class="color_50">50</text>
      <text x="139.71" y="38.35" dy="0.35em" id="img-c2bbfb99-7" class="color_75">75</text>
      <text x="139.71" y="41.82" dy="0.35em" id="img-c2bbfb99-8" class="color_100">100</text>
      <text x="139.71" y="45.29" dy="0.35em" id="img-c2bbfb99-9" class="color_125">125</text>
    </g>
    <g stroke="#000000" stroke-opacity="0.000" id="img-c2bbfb99-10">
      <rect x="136.97" y="34.02" width="1.73" height="1.73" id="img-c2bbfb99-11" class="color_50" fill="#00BFFF"/>
      <rect x="136.97" y="37.49" width="1.73" height="1.73" id="img-c2bbfb99-12" class="color_75" fill="#D4CA3A"/>
      <rect x="136.97" y="40.96" width="1.73" height="1.73" id="img-c2bbfb99-13" class="color_100" fill="#FF6DAE"/>
      <rect x="136.97" y="44.43" width="1.73" height="1.73" id="img-c2bbfb99-14" class="color_125" fill="#00B78D"/>
    </g>
    <g fill="#362A35" font-size="3.88" font-family="'PT Sans','Helvetica Neue','Helvetica',sans-serif" stroke="#000000" stroke-opacity="0.000" id="img-c2bbfb99-15">
      <text x="136.97" y="30.47" id="img-c2bbfb99-16">n</text>
    </g>
  </g>
<g clip-path="url(#img-c2bbfb99-17)">
  <g id="img-c2bbfb99-18">
    <g pointer-events="visible" opacity="1" fill="#000000" fill-opacity="0.000" stroke="#000000" stroke-opacity="0.000" class="guide background" id="img-c2bbfb99-19">
      <rect x="19.82" y="5" width="116.15" height="66.71" id="img-c2bbfb99-20"/>
    </g>
    <g class="guide ygridlines xfixed" stroke-dasharray="0.5,0.5" stroke-width="0.2" stroke="#D0D0E0" id="img-c2bbfb99-21">
      <path fill="none" d="M19.82,69.71 L 135.97 69.71" id="img-c2bbfb99-22"/>
      <path fill="none" d="M19.82,54.03 L 135.97 54.03" id="img-c2bbfb99-23"/>
      <path fill="none" d="M19.82,38.35 L 135.97 38.35" id="img-c2bbfb99-24"/>
      <path fill="none" d="M19.82,22.68 L 135.97 22.68" id="img-c2bbfb99-25"/>
      <path fill="none" d="M19.82,7 L 135.97 7" id="img-c2bbfb99-26"/>
    </g>
    <g class="guide xgridlines yfixed" stroke-dasharray="0.5,0.5" stroke-width="0.2" stroke="#D0D0E0" id="img-c2bbfb99-27">
      <path fill="none" d="M21.82,5 L 21.82 71.71" id="img-c2bbfb99-28"/>
      <path fill="none" d="M77.9,5 L 77.9 71.71" id="img-c2bbfb99-29"/>
      <path fill="none" d="M133.97,5 L 133.97 71.71" id="img-c2bbfb99-30"/>
    </g>
    <g class="plotpanel" id="img-c2bbfb99-31">
      <g stroke-width="0.3" fill="#000000" fill-opacity="0.000" stroke-dasharray="none" id="img-c2bbfb99-32">
        <path fill="none" d="M21.82,7 L 21.93 11.7 22.04 19.54 22.16 24.24 22.27 25.81 22.38 28.95 22.49 27.38 22.6 30.52 22.72 28.95 22.83 28.95 22.94 28.95 23.05 28.95 23.17 28.95 23.28 28.95 23.39 28.95 23.5 28.95 23.61 28.95 23.73 27.38 23.84 27.38 23.95 27.38 24.06 25.81 24.17 25.81 24.29 28.95 24.4 27.38 24.51 27.38 24.62 27.38 24.74 24.24 24.85 25.81 24.96 25.81 25.07 27.38 25.18 27.38 25.3 28.95 25.41 25.81 25.52 25.81 25.63 25.81 25.74 27.38 25.86 27.38 25.97 28.95 26.08 28.95 26.19 30.52 26.31 28.95 26.42 28.95 26.53 28.95 26.64 30.52 26.75 30.52 26.87 32.08 26.98 33.65 27.09 30.52 27.2 32.08 27.31 32.08 27.43 28.95 27.54 28.95 27.65 30.52 27.76 32.08 27.88 30.52 27.99 33.65 28.1 33.65 28.21 35.22 28.32 33.65 28.44 33.65 28.55 33.65 28.66 33.65 28.77 33.65 28.89 33.65 29 33.65 29.11 32.08 29.22 30.52 29.33 33.65 29.45 32.08 29.56 30.52 29.67 32.08 29.78 30.52 29.89 32.08 30.01 28.95 30.12 30.52 30.23 30.52 30.34 30.52 30.46 32.08 30.57 33.65 30.68 35.22 30.79 33.65 30.9 32.08 31.02 32.08 31.13 32.08 31.24 32.08 31.35 33.65 31.46 30.52 31.58 32.08 31.69 32.08 31.8 33.65 31.91 33.65 32.03 32.08 32.14 32.08 32.25 33.65 32.36 32.08 32.47 30.52 32.59 32.08 32.7 32.08 32.81 30.52 32.92 33.65 33.03 35.22 33.15 33.65 33.26 33.65 33.37 33.65 33.48 33.65 33.6 30.52 33.71 33.65 33.82 33.65 33.93 32.08 34.04 32.08 34.16 33.65 34.27 32.08 34.38 32.08 34.49 33.65 34.61 30.52 34.72 32.08 34.83 32.08 34.94 33.65 35.05 32.08 35.17 32.08 35.28 36.79 35.39 36.79 35.5 35.22 35.61 35.22 35.73 36.79 35.84 35.22 35.95 35.22 36.06 35.22 36.18 35.22 36.29 35.22 36.4 33.65 36.51 33.65 36.62 33.65 36.74 36.79 36.85 35.22 36.96 32.08 37.07 32.08 37.18 35.22 37.3 35.22 37.41 36.79 37.52 35.22 37.63 33.65 37.75 32.08 37.86 35.22 37.97 35.22 38.08 35.22 38.19 35.22 38.31 33.65 38.42 35.22 38.53 35.22 38.64 35.22 38.75 35.22 38.87 35.22 38.98 38.35 39.09 36.79 39.2 36.79 39.32 36.79 39.43 38.35 39.54 36.79 39.65 33.65 39.76 35.22 39.88 36.79 39.99 38.35 40.1 39.92 40.21 39.92 40.32 41.49 40.44 39.92 40.55 38.35 40.66 38.35 40.77 39.92 40.89 39.92 41 38.35 41.11 36.79 41.22 38.35 41.33 36.79 41.45 38.35 41.56 39.92 41.67 39.92 41.78 39.92 41.9 41.49 42.01 41.49 42.12 43.06 42.23 39.92 42.34 39.92 42.46 39.92 42.57 36.79 42.68 39.92 42.79 39.92 42.9 43.06 43.02 41.49 43.13 44.62 43.24 41.49 43.35 39.92 43.47 39.92 43.58 39.92 43.69 39.92 43.8 38.35 43.91 39.92 44.03 39.92 44.14 43.06 44.25 41.49 44.36 41.49 44.47 39.92 44.59 41.49 44.7 39.92 44.81 39.92 44.92 38.35 45.04 38.35 45.15 38.35 45.26 38.35 45.37 38.35 45.48 41.49 45.6 41.49 45.71 39.92 45.82 41.49 45.93 43.06 46.04 43.06 46.16 43.06 46.27 43.06 46.38 43.06 46.49 44.62 46.61 44.62 46.72 43.06 46.83 43.06 46.94 43.06 47.05 43.06 47.17 43.06 47.28 44.62 47.39 44.62 47.5 44.62 47.61 44.62 47.73 44.62 47.84 43.06 47.95 44.62 48.06 46.19 48.18 44.62 48.29 44.62 48.4 44.62 48.51 44.62 48.62 43.06 48.74 43.06 48.85 43.06 48.96 43.06 49.07 41.49 49.19 39.92 49.3 39.92 49.41 43.06 49.52 41.49 49.63 41.49 49.75 39.92 49.86 41.49 49.97 43.06 50.08 41.49 50.19 41.49 50.31 39.92 50.42 41.49 50.53 43.06 50.64 43.06 50.76 39.92 50.87 41.49 50.98 39.92 51.09 41.49 51.2 41.49 51.32 41.49 51.43 41.49 51.54 41.49 51.65 44.62 51.76 44.62 51.88 41.49 51.99 41.49 52.1 43.06 52.21 41.49 52.33 43.06 52.44 44.62 52.55 43.06 52.66 41.49 52.77 41.49 52.89 39.92 53 38.35 53.11 38.35 53.22 38.35 53.33 36.79 53.45 39.92 53.56 39.92 53.67 43.06 53.78 44.62 53.9 46.19 54.01 44.62 54.12 43.06 54.23 43.06 54.34 44.62 54.46 43.06 54.57 44.62 54.68 44.62 54.79 44.62 54.9 44.62 55.02 43.06 55.13 43.06 55.24 43.06 55.35 43.06 55.47 44.62 55.58 44.62 55.69 44.62 55.8 46.19 55.91 46.19 56.03 44.62 56.14 44.62 56.25 43.06 56.36 43.06 56.48 43.06 56.59 43.06 56.7 44.62 56.81 44.62 56.92 46.19 57.04 46.19 57.15 46.19 57.26 47.76 57.37 46.19 57.48 44.62 57.6 44.62 57.71 44.62 57.82 46.19 57.93 44.62 58.05 44.62 58.16 44.62 58.27 43.06 58.38 44.62 58.49 43.06 58.61 41.49 58.72 43.06 58.83 43.06 58.94 44.62 59.05 46.19 59.17 46.19 59.28 46.19 59.39 43.06 59.5 44.62 59.62 44.62 59.73 44.62 59.84 44.62 59.95 44.62 60.06 43.06 60.18 43.06 60.29 44.62 60.4 44.62 60.51 44.62 60.62 44.62 60.74 44.62 60.85 41.49 60.96 43.06 61.07 43.06 61.19 43.06 61.3 44.62 61.41 41.49 61.52 43.06 61.63 44.62 61.75 44.62 61.86 43.06 61.97 44.62 62.08 43.06 62.19 44.62 62.31 46.19 62.42 46.19 62.53 46.19 62.64 46.19 62.76 46.19 62.87 41.49 62.98 44.62 63.09 44.62 63.2 44.62 63.32 46.19 63.43 44.62 63.54 46.19 63.65 44.62 63.77 46.19 63.88 46.19 63.99 44.62 64.1 43.06 64.21 41.49 64.33 41.49 64.44 41.49 64.55 44.62 64.66 46.19 64.77 44.62 64.89 44.62 65 43.06 65.11 43.06 65.22 44.62 65.34 44.62 65.45 43.06 65.56 44.62 65.67 44.62 65.78 43.06 65.9 43.06 66.01 44.62 66.12 44.62 66.23 46.19 66.34 46.19 66.46 47.76 66.57 47.76 66.68 49.33 66.79 47.76 66.91 49.33 67.02 47.76 67.13 49.33 67.24 46.19 67.35 46.19 67.47 46.19 67.58 46.19 67.69 46.19 67.8 46.19 67.91 46.19 68.03 47.76 68.14 49.33 68.25 47.76 68.36 49.33 68.48 49.33 68.59 47.76 68.7 46.19 68.81 47.76 68.92 46.19 69.04 47.76 69.15 49.33 69.26 49.33 69.37 46.19 69.48 44.62 69.6 46.19 69.71 46.19 69.82 44.62 69.93 44.62 70.05 44.62 70.16 46.19 70.27 47.76 70.38 47.76 70.49 47.76 70.61 47.76 70.72 47.76 70.83 47.76 70.94 47.76 71.06 49.33 71.17 49.33 71.28 47.76 71.39 47.76 71.5 46.19 71.62 47.76 71.73 47.76 71.84 47.76 71.95 47.76 72.06 47.76 72.18 49.33 72.29 47.76 72.4 46.19 72.51 47.76 72.63 47.76 72.74 49.33 72.85 49.33 72.96 49.33 73.07 49.33 73.19 49.33 73.3 50.9 73.41 50.9 73.52 50.9 73.63 50.9 73.75 52.46 73.86 50.9 73.97 49.33 74.08 47.76 74.2 47.76 74.31 47.76 74.42 46.19 74.53 44.62 74.64 47.76 74.76 46.19 74.87 47.76 74.98 47.76 75.09 46.19 75.2 46.19 75.32 46.19 75.43 49.33 75.54 49.33 75.65 49.33 75.77 47.76 75.88 47.76 75.99 47.76 76.1 49.33 76.21 52.46 76.33 52.46 76.44 52.46 76.55 50.9 76.66 49.33 76.77 50.9 76.89 49.33 77 50.9 77.11 49.33 77.22 49.33 77.34 50.9 77.45 49.33 77.56 47.76 77.67 44.62 77.78 44.62 77.9 46.19 78.01 44.62 78.12 44.62 78.23 43.06 78.35 44.62 78.46 46.19 78.57 46.19 78.68 47.76 78.79 47.76 78.91 44.62 79.02 47.76 79.13 44.62 79.24 44.62 79.35 43.06 79.47 46.19 79.58 44.62 79.69 43.06 79.8 46.19 79.92 44.62 80.03 46.19 80.14 47.76 80.25 46.19 80.36 46.19 80.48 46.19 80.59 46.19 80.7 47.76 80.81 47.76 80.92 47.76 81.04 46.19 81.15 44.62 81.26 46.19 81.37 46.19 81.49 46.19 81.6 47.76 81.71 47.76 81.82 46.19 81.93 46.19 82.05 46.19 82.16 43.06 82.27 44.62 82.38 44.62 82.49 44.62 82.61 44.62 82.72 47.76 82.83 47.76 82.94 47.76 83.06 47.76 83.17 49.33 83.28 50.9 83.39 47.76 83.5 47.76 83.62 46.19 83.73 47.76 83.84 47.76 83.95 46.19 84.07 46.19 84.18 47.76 84.29 47.76 84.4 49.33 84.51 47.76 84.63 47.76 84.74 47.76 84.85 47.76 84.96 44.62 85.07 44.62 85.19 46.19 85.3 47.76 85.41 44.62 85.52 44.62 85.64 44.62 85.75 47.76 85.86 49.33 85.97 47.76 86.08 47.76 86.2 46.19 86.31 46.19 86.42 46.19 86.53 46.19 86.64 47.76 86.76 47.76 86.87 49.33 86.98 47.76 87.09 49.33 87.21 47.76 87.32 47.76 87.43 50.9 87.54 50.9 87.65 49.33 87.77 49.33 87.88 49.33 87.99 47.76 88.1 50.9 88.21 49.33 88.33 49.33 88.44 47.76 88.55 49.33 88.66 47.76 88.78 49.33 88.89 49.33 89 47.76 89.11 47.76 89.22 50.9 89.34 52.46 89.45 50.9 89.56 52.46 89.67 54.03 89.78 52.46 89.9 50.9 90.01 50.9 90.12 52.46 90.23 50.9 90.35 50.9 90.46 47.76 90.57 47.76 90.68 47.76 90.79 46.19 90.91 47.76 91.02 49.33 91.13 49.33 91.24 50.9 91.36 50.9 91.47 50.9 91.58 49.33 91.69 47.76 91.8 47.76 91.92 47.76 92.03 46.19 92.14 47.76 92.25 49.33 92.36 49.33 92.48 47.76 92.59 46.19 92.7 46.19 92.81 44.62 92.93 47.76 93.04 47.76 93.15 49.33 93.26 47.76 93.37 49.33 93.49 49.33 93.6 49.33 93.71 47.76 93.82 49.33 93.93 49.33 94.05 47.76 94.16 47.76 94.27 47.76 94.38 47.76 94.5 46.19 94.61 46.19 94.72 46.19 94.83 46.19 94.94 46.19 95.06 46.19 95.17 46.19 95.28 47.76 95.39 49.33 95.5 47.76 95.62 49.33 95.73 49.33 95.84 49.33 95.95 49.33 96.07 50.9 96.18 47.76 96.29 46.19 96.4 46.19 96.51 47.76 96.63 49.33 96.74 47.76 96.85 47.76 96.96 49.33 97.07 49.33 97.19 47.76 97.3 44.62 97.41 46.19 97.52 46.19 97.64 44.62 97.75 46.19 97.86 46.19 97.97 47.76 98.08 47.76 98.2 47.76 98.31 47.76 98.42 49.33 98.53 49.33 98.65 47.76 98.76 47.76 98.87 47.76 98.98 47.76 99.09 47.76 99.21 47.76 99.32 47.76 99.43 47.76 99.54 49.33 99.65 50.9 99.77 47.76 99.88 46.19 99.99 47.76 100.1 47.76 100.22 49.33 100.33 46.19 100.44 49.33 100.55 50.9 100.66 52.46 100.78 50.9 100.89 52.46 101 52.46 101.11 52.46 101.22 52.46 101.34 52.46 101.45 52.46 101.56 54.03 101.67 50.9 101.79 47.76 101.9 49.33 102.01 49.33 102.12 49.33 102.23 50.9 102.35 50.9 102.46 50.9 102.57 50.9 102.68 49.33 102.79 49.33 102.91 50.9 103.02 49.33 103.13 50.9 103.24 49.33 103.36 49.33 103.47 49.33 103.58 47.76 103.69 47.76 103.8 49.33 103.92 47.76 104.03 47.76 104.14 47.76 104.25 49.33 104.36 47.76 104.48 49.33 104.59 47.76 104.7 49.33 104.81 47.76 104.93 47.76 105.04 47.76 105.15 50.9 105.26 50.9 105.37 49.33 105.49 49.33 105.6 49.33 105.71 49.33 105.82 44.62 105.94 44.62 106.05 44.62 106.16 46.19 106.27 44.62 106.38 44.62 106.5 46.19 106.61 47.76 106.72 49.33 106.83 50.9 106.94 50.9 107.06 49.33 107.17 47.76 107.28 49.33 107.39 47.76 107.51 47.76 107.62 46.19 107.73 46.19 107.84 47.76 107.95 47.76 108.07 46.19 108.18 46.19 108.29 46.19 108.4 47.76 108.51 46.19 108.63 46.19 108.74 46.19 108.85 46.19 108.96 46.19 109.08 44.62 109.19 44.62 109.3 44.62 109.41 44.62 109.52 43.06 109.64 43.06 109.75 46.19 109.86 47.76 109.97 44.62 110.08 44.62 110.2 46.19 110.31 49.33 110.42 46.19 110.53 47.76 110.65 46.19 110.76 44.62 110.87 47.76 110.98 46.19 111.09 46.19 111.21 46.19 111.32 46.19 111.43 47.76 111.54 47.76 111.65 46.19 111.77 49.33 111.88 47.76 111.99 47.76 112.1 47.76 112.22 46.19 112.33 44.62 112.44 49.33 112.55 47.76 112.66 49.33 112.78 46.19 112.89 46.19 113 47.76 113.11 47.76 113.23 47.76 113.34 47.76 113.45 46.19 113.56 46.19 113.67 47.76 113.79 47.76 113.9 49.33 114.01 49.33 114.12 49.33 114.23 50.9 114.35 50.9 114.46 49.33 114.57 49.33 114.68 46.19 114.8 46.19 114.91 49.33 115.02 49.33 115.13 47.76 115.24 49.33 115.36 49.33 115.47 49.33 115.58 50.9 115.69 49.33 115.8 49.33 115.92 47.76 116.03 47.76 116.14 46.19 116.25 47.76 116.37 47.76 116.48 50.9 116.59 49.33 116.7 50.9 116.81 50.9 116.93 49.33 117.04 50.9 117.15 50.9 117.26 50.9 117.37 52.46 117.49 50.9 117.6 49.33 117.71 49.33 117.82 47.76 117.94 47.76 118.05 47.76 118.16 46.19 118.27 47.76 118.38 47.76 118.5 49.33 118.61 46.19 118.72 47.76 118.83 47.76 118.94 49.33 119.06 49.33 119.17 50.9 119.28 50.9 119.39 50.9 119.51 52.46 119.62 54.03 119.73 50.9 119.84 52.46 119.95 54.03 120.07 54.03 120.18 50.9 120.29 49.33 120.4 50.9 120.52 49.33 120.63 49.33 120.74 50.9 120.85 52.46 120.96 50.9 121.08 49.33 121.19 49.33 121.3 47.76 121.41 49.33 121.52 49.33 121.64 50.9 121.75 49.33 121.86 49.33 121.97 47.76 122.09 47.76 122.2 49.33 122.31 49.33 122.42 49.33 122.53 49.33 122.65 49.33 122.76 47.76 122.87 46.19 122.98 49.33 123.09 49.33 123.21 47.76 123.32 47.76 123.43 50.9 123.54 49.33 123.66 46.19 123.77 47.76 123.88 47.76 123.99 46.19 124.1 49.33 124.22 47.76 124.33 49.33 124.44 49.33 124.55 50.9 124.66 49.33 124.78 50.9 124.89 49.33 125 47.76 125.11 47.76 125.23 49.33 125.34 50.9 125.45 50.9 125.56 52.46 125.67 50.9 125.79 50.9 125.9 49.33 126.01 50.9 126.12 50.9 126.23 50.9 126.35 49.33 126.46 49.33 126.57 52.46 126.68 52.46 126.8 52.46 126.91 50.9 127.02 50.9 127.13 49.33 127.24 52.46 127.36 50.9 127.47 47.76 127.58 47.76 127.69 49.33 127.81 49.33 127.92 47.76 128.03 47.76 128.14 49.33 128.25 49.33 128.37 47.76 128.48 46.19 128.59 46.19 128.7 47.76 128.81 47.76 128.93 46.19 129.04 43.06 129.15 44.62 129.26 44.62 129.38 43.06 129.49 44.62 129.6 46.19 129.71 47.76 129.82 46.19 129.94 44.62 130.05 46.19 130.16 43.06 130.27 44.62 130.38 43.06 130.5 44.62 130.61 47.76 130.72 44.62 130.83 44.62 130.95 44.62 131.06 44.62 131.17 46.19 131.28 46.19 131.39 44.62 131.51 43.06 131.62 44.62 131.73 44.62 131.84 44.62 131.95 43.06 132.07 43.06 132.18 46.19 132.29 43.06 132.4 44.62 132.52 46.19 132.63 44.62 132.74 44.62 132.85 44.62 132.96 43.06 133.08 46.19 133.19 44.62 133.3 43.06 133.41 41.49 133.52 44.62 133.64 44.62 133.75 44.62 133.86 43.06" id="img-c2bbfb99-33" stroke="#00B78D" class="geometry color_125"/>
        <path fill="none" d="M21.82,7 L 21.93 11.7 22.04 21.11 22.16 27.38 22.27 28.95 22.38 30.52 22.49 32.08 22.6 30.52 22.72 30.52 22.83 28.95 22.94 30.52 23.05 28.95 23.17 27.38 23.28 27.38 23.39 27.38 23.5 25.81 23.61 27.38 23.73 28.95 23.84 28.95 23.95 27.38 24.06 27.38 24.17 27.38 24.29 24.24 24.4 27.38 24.51 25.81 24.62 27.38 24.74 25.81 24.85 25.81 24.96 25.81 25.07 25.81 25.18 22.68 25.3 22.68 25.41 25.81 25.52 25.81 25.63 27.38 25.74 27.38 25.86 28.95 25.97 28.95 26.08 30.52 26.19 28.95 26.31 28.95 26.42 28.95 26.53 28.95 26.64 28.95 26.75 28.95 26.87 30.52 26.98 30.52 27.09 30.52 27.2 28.95 27.31 28.95 27.43 30.52 27.54 30.52 27.65 28.95 27.76 32.08 27.88 32.08 27.99 32.08 28.1 30.52 28.21 28.95 28.32 28.95 28.44 30.52 28.55 32.08 28.66 30.52 28.77 28.95 28.89 28.95 29 30.52 29.11 30.52 29.22 32.08 29.33 32.08 29.45 32.08 29.56 30.52 29.67 30.52 29.78 30.52 29.89 30.52 30.01 30.52 30.12 28.95 30.23 30.52 30.34 32.08 30.46 30.52 30.57 30.52 30.68 32.08 30.79 33.65 30.9 32.08 31.02 33.65 31.13 33.65 31.24 33.65 31.35 33.65 31.46 33.65 31.58 32.08 31.69 32.08 31.8 33.65 31.91 33.65 32.03 35.22 32.14 35.22 32.25 35.22 32.36 35.22 32.47 35.22 32.59 35.22 32.7 35.22 32.81 35.22 32.92 35.22 33.03 35.22 33.15 33.65 33.26 33.65 33.37 35.22 33.48 35.22 33.6 36.79 33.71 36.79 33.82 36.79 33.93 35.22 34.04 35.22 34.16 35.22 34.27 36.79 34.38 36.79 34.49 36.79 34.61 36.79 34.72 35.22 34.83 36.79 34.94 38.35 35.05 35.22 35.17 35.22 35.28 36.79 35.39 36.79 35.5 36.79 35.61 36.79 35.73 36.79 35.84 38.35 35.95 38.35 36.06 38.35 36.18 38.35 36.29 35.22 36.4 36.79 36.51 36.79 36.62 38.35 36.74 36.79 36.85 33.65 36.96 36.79 37.07 39.92 37.18 39.92 37.3 36.79 37.41 38.35 37.52 38.35 37.63 41.49 37.75 38.35 37.86 38.35 37.97 36.79 38.08 36.79 38.19 36.79 38.31 35.22 38.42 36.79 38.53 38.35 38.64 38.35 38.75 38.35 38.87 41.49 38.98 39.92 39.09 39.92 39.2 38.35 39.32 39.92 39.43 38.35 39.54 38.35 39.65 41.49 39.76 41.49 39.88 39.92 39.99 39.92 40.1 39.92 40.21 38.35 40.32 38.35 40.44 38.35 40.55 39.92 40.66 38.35 40.77 38.35 40.89 39.92 41 41.49 41.11 41.49 41.22 39.92 41.33 38.35 41.45 36.79 41.56 36.79 41.67 41.49 41.78 41.49 41.9 44.62 42.01 39.92 42.12 41.49 42.23 39.92 42.34 39.92 42.46 39.92 42.57 39.92 42.68 39.92 42.79 39.92 42.9 38.35 43.02 39.92 43.13 39.92 43.24 38.35 43.35 36.79 43.47 36.79 43.58 36.79 43.69 35.22 43.8 36.79 43.91 36.79 44.03 38.35 44.14 38.35 44.25 38.35 44.36 38.35 44.47 41.49 44.59 39.92 44.7 39.92 44.81 39.92 44.92 39.92 45.04 38.35 45.15 38.35 45.26 39.92 45.37 38.35 45.48 39.92 45.6 39.92 45.71 39.92 45.82 41.49 45.93 41.49 46.04 38.35 46.16 39.92 46.27 39.92 46.38 41.49 46.49 41.49 46.61 41.49 46.72 41.49 46.83 41.49 46.94 41.49 47.05 41.49 47.17 39.92 47.28 39.92 47.39 41.49 47.5 41.49 47.61 41.49 47.73 39.92 47.84 41.49 47.95 41.49 48.06 43.06 48.18 43.06 48.29 43.06 48.4 44.62 48.51 44.62 48.62 43.06 48.74 44.62 48.85 44.62 48.96 44.62 49.07 44.62 49.19 46.19 49.3 46.19 49.41 43.06 49.52 43.06 49.63 44.62 49.75 43.06 49.86 41.49 49.97 41.49 50.08 41.49 50.19 43.06 50.31 41.49 50.42 41.49 50.53 41.49 50.64 41.49 50.76 43.06 50.87 44.62 50.98 46.19 51.09 44.62 51.2 43.06 51.32 43.06 51.43 44.62 51.54 43.06 51.65 41.49 51.76 41.49 51.88 43.06 51.99 41.49 52.1 44.62 52.21 44.62 52.33 44.62 52.44 43.06 52.55 44.62 52.66 44.62 52.77 46.19 52.89 46.19 53 44.62 53.11 41.49 53.22 41.49 53.33 41.49 53.45 41.49 53.56 39.92 53.67 38.35 53.78 38.35 53.9 39.92 54.01 39.92 54.12 41.49 54.23 39.92 54.34 43.06 54.46 41.49 54.57 41.49 54.68 41.49 54.79 41.49 54.9 41.49 55.02 41.49 55.13 39.92 55.24 38.35 55.35 43.06 55.47 44.62 55.58 44.62 55.69 43.06 55.8 43.06 55.91 44.62 56.03 44.62 56.14 46.19 56.25 46.19 56.36 47.76 56.48 44.62 56.59 44.62 56.7 46.19 56.81 44.62 56.92 46.19 57.04 46.19 57.15 47.76 57.26 44.62 57.37 44.62 57.48 43.06 57.6 43.06 57.71 43.06 57.82 43.06 57.93 44.62 58.05 44.62 58.16 46.19 58.27 44.62 58.38 43.06 58.49 43.06 58.61 44.62 58.72 46.19 58.83 44.62 58.94 46.19 59.05 44.62 59.17 43.06 59.28 41.49 59.39 41.49 59.5 43.06 59.62 41.49 59.73 44.62 59.84 46.19 59.95 46.19 60.06 44.62 60.18 44.62 60.29 44.62 60.4 44.62 60.51 43.06 60.62 44.62 60.74 44.62 60.85 44.62 60.96 44.62 61.07 46.19 61.19 44.62 61.3 44.62 61.41 44.62 61.52 46.19 61.63 44.62 61.75 44.62 61.86 43.06 61.97 43.06 62.08 46.19 62.19 44.62 62.31 46.19 62.42 46.19 62.53 44.62 62.64 43.06 62.76 46.19 62.87 43.06 62.98 46.19 63.09 47.76 63.2 46.19 63.32 46.19 63.43 44.62 63.54 46.19 63.65 47.76 63.77 49.33 63.88 49.33 63.99 49.33 64.1 47.76 64.21 49.33 64.33 47.76 64.44 49.33 64.55 47.76 64.66 47.76 64.77 46.19 64.89 44.62 65 43.06 65.11 44.62 65.22 46.19 65.34 49.33 65.45 47.76 65.56 47.76 65.67 47.76 65.78 46.19 65.9 47.76 66.01 49.33 66.12 47.76 66.23 46.19 66.34 46.19 66.46 47.76 66.57 47.76 66.68 47.76 66.79 47.76 66.91 47.76 67.02 47.76 67.13 46.19 67.24 46.19 67.35 46.19 67.47 47.76 67.58 47.76 67.69 46.19 67.8 47.76 67.91 47.76 68.03 47.76 68.14 49.33 68.25 49.33 68.36 49.33 68.48 50.9 68.59 49.33 68.7 47.76 68.81 46.19 68.92 46.19 69.04 46.19 69.15 46.19 69.26 46.19 69.37 44.62 69.48 44.62 69.6 46.19 69.71 44.62 69.82 46.19 69.93 47.76 70.05 46.19 70.16 46.19 70.27 47.76 70.38 47.76 70.49 47.76 70.61 44.62 70.72 44.62 70.83 43.06 70.94 44.62 71.06 44.62 71.17 46.19 71.28 46.19 71.39 44.62 71.5 44.62 71.62 46.19 71.73 44.62 71.84 44.62 71.95 43.06 72.06 43.06 72.18 44.62 72.29 46.19 72.4 46.19 72.51 46.19 72.63 44.62 72.74 46.19 72.85 46.19 72.96 47.76 73.07 47.76 73.19 46.19 73.3 44.62 73.41 44.62 73.52 46.19 73.63 46.19 73.75 46.19 73.86 46.19 73.97 46.19 74.08 47.76 74.2 47.76 74.31 49.33 74.42 47.76 74.53 47.76 74.64 47.76 74.76 46.19 74.87 46.19 74.98 44.62 75.09 46.19 75.2 49.33 75.32 49.33 75.43 49.33 75.54 47.76 75.65 46.19 75.77 46.19 75.88 46.19 75.99 44.62 76.1 47.76 76.21 47.76 76.33 46.19 76.44 46.19 76.55 47.76 76.66 47.76 76.77 49.33 76.89 47.76 77 49.33 77.11 47.76 77.22 46.19 77.34 46.19 77.45 47.76 77.56 46.19 77.67 47.76 77.78 46.19 77.9 46.19 78.01 47.76 78.12 46.19 78.23 46.19 78.35 46.19 78.46 49.33 78.57 47.76 78.68 47.76 78.79 47.76 78.91 47.76 79.02 46.19 79.13 46.19 79.24 49.33 79.35 47.76 79.47 47.76 79.58 49.33 79.69 47.76 79.8 47.76 79.92 46.19 80.03 49.33 80.14 46.19 80.25 44.62 80.36 46.19 80.48 46.19 80.59 46.19 80.7 44.62 80.81 46.19 80.92 46.19 81.04 46.19 81.15 44.62 81.26 46.19 81.37 47.76 81.49 47.76 81.6 49.33 81.71 49.33 81.82 44.62 81.93 44.62 82.05 46.19 82.16 43.06 82.27 44.62 82.38 44.62 82.49 46.19 82.61 44.62 82.72 46.19 82.83 43.06 82.94 44.62 83.06 44.62 83.17 41.49 83.28 43.06 83.39 44.62 83.5 47.76 83.62 47.76 83.73 46.19 83.84 46.19 83.95 47.76 84.07 47.76 84.18 46.19 84.29 47.76 84.4 47.76 84.51 46.19 84.63 47.76 84.74 46.19 84.85 46.19 84.96 46.19 85.07 44.62 85.19 46.19 85.3 47.76 85.41 46.19 85.52 46.19 85.64 44.62 85.75 46.19 85.86 47.76 85.97 46.19 86.08 47.76 86.2 46.19 86.31 46.19 86.42 44.62 86.53 43.06 86.64 44.62 86.76 43.06 86.87 43.06 86.98 41.49 87.09 41.49 87.21 43.06 87.32 44.62 87.43 46.19 87.54 47.76 87.65 46.19 87.77 46.19 87.88 47.76 87.99 47.76 88.1 47.76 88.21 47.76 88.33 49.33 88.44 47.76 88.55 47.76 88.66 50.9 88.78 47.76 88.89 49.33 89 49.33 89.11 50.9 89.22 49.33 89.34 49.33 89.45 49.33 89.56 50.9 89.67 49.33 89.78 47.76 89.9 49.33 90.01 49.33 90.12 50.9 90.23 49.33 90.35 47.76 90.46 49.33 90.57 47.76 90.68 47.76 90.79 46.19 90.91 47.76 91.02 47.76 91.13 47.76 91.24 49.33 91.36 47.76 91.47 49.33 91.58 47.76 91.69 47.76 91.8 49.33 91.92 50.9 92.03 49.33 92.14 49.33 92.25 49.33 92.36 50.9 92.48 47.76 92.59 47.76 92.7 47.76 92.81 49.33 92.93 47.76 93.04 46.19 93.15 46.19 93.26 47.76 93.37 47.76 93.49 49.33 93.6 49.33 93.71 49.33 93.82 46.19 93.93 46.19 94.05 46.19 94.16 46.19 94.27 47.76 94.38 47.76 94.5 47.76 94.61 47.76 94.72 49.33 94.83 49.33 94.94 49.33 95.06 49.33 95.17 49.33 95.28 49.33 95.39 50.9 95.5 49.33 95.62 49.33 95.73 49.33 95.84 49.33 95.95 49.33 96.07 49.33 96.18 49.33 96.29 49.33 96.4 49.33 96.51 50.9 96.63 47.76 96.74 49.33 96.85 50.9 96.96 49.33 97.07 49.33 97.19 47.76 97.3 47.76 97.41 49.33 97.52 47.76 97.64 47.76 97.75 49.33 97.86 49.33 97.97 47.76 98.08 46.19 98.2 46.19 98.31 44.62 98.42 46.19 98.53 46.19 98.65 46.19 98.76 47.76 98.87 46.19 98.98 47.76 99.09 46.19 99.21 46.19 99.32 46.19 99.43 49.33 99.54 49.33 99.65 50.9 99.77 52.46 99.88 50.9 99.99 50.9 100.1 52.46 100.22 52.46 100.33 50.9 100.44 47.76 100.55 47.76 100.66 49.33 100.78 49.33 100.89 47.76 101 49.33 101.11 47.76 101.22 47.76 101.34 50.9 101.45 50.9 101.56 52.46 101.67 50.9 101.79 49.33 101.9 49.33 102.01 50.9 102.12 50.9 102.23 50.9 102.35 52.46 102.46 52.46 102.57 54.03 102.68 50.9 102.79 50.9 102.91 52.46 103.02 50.9 103.13 49.33 103.24 49.33 103.36 47.76 103.47 49.33 103.58 49.33 103.69 49.33 103.8 49.33 103.92 47.76 104.03 47.76 104.14 47.76 104.25 47.76 104.36 47.76 104.48 47.76 104.59 49.33 104.7 49.33 104.81 46.19 104.93 47.76 105.04 49.33 105.15 49.33 105.26 47.76 105.37 46.19 105.49 47.76 105.6 47.76 105.71 47.76 105.82 47.76 105.94 49.33 106.05 49.33 106.16 47.76 106.27 49.33 106.38 50.9 106.5 50.9 106.61 49.33 106.72 49.33 106.83 49.33 106.94 49.33 107.06 49.33 107.17 49.33 107.28 49.33 107.39 47.76 107.51 49.33 107.62 47.76 107.73 46.19 107.84 49.33 107.95 49.33 108.07 49.33 108.18 47.76 108.29 46.19 108.4 44.62 108.51 44.62 108.63 47.76 108.74 47.76 108.85 47.76 108.96 44.62 109.08 46.19 109.19 47.76 109.3 47.76 109.41 47.76 109.52 46.19 109.64 44.62 109.75 46.19 109.86 46.19 109.97 46.19 110.08 47.76 110.2 47.76 110.31 46.19 110.42 49.33 110.53 49.33 110.65 47.76 110.76 46.19 110.87 47.76 110.98 47.76 111.09 47.76 111.21 46.19 111.32 46.19 111.43 44.62 111.54 46.19 111.65 46.19 111.77 47.76 111.88 46.19 111.99 47.76 112.1 47.76 112.22 46.19 112.33 47.76 112.44 47.76 112.55 47.76 112.66 49.33 112.78 47.76 112.89 49.33 113 49.33 113.11 47.76 113.23 49.33 113.34 49.33 113.45 49.33 113.56 47.76 113.67 50.9 113.79 50.9 113.9 47.76 114.01 49.33 114.12 49.33 114.23 49.33 114.35 50.9 114.46 50.9 114.57 52.46 114.68 52.46 114.8 50.9 114.91 50.9 115.02 49.33 115.13 50.9 115.24 50.9 115.36 50.9 115.47 50.9 115.58 47.76 115.69 47.76 115.8 49.33 115.92 47.76 116.03 46.19 116.14 47.76 116.25 47.76 116.37 47.76 116.48 49.33 116.59 49.33 116.7 46.19 116.81 46.19 116.93 47.76 117.04 46.19 117.15 44.62 117.26 46.19 117.37 46.19 117.49 46.19 117.6 47.76 117.71 47.76 117.82 49.33 117.94 49.33 118.05 47.76 118.16 50.9 118.27 50.9 118.38 49.33 118.5 47.76 118.61 49.33 118.72 47.76 118.83 47.76 118.94 47.76 119.06 49.33 119.17 49.33 119.28 47.76 119.39 47.76 119.51 46.19 119.62 47.76 119.73 49.33 119.84 49.33 119.95 49.33 120.07 50.9 120.18 50.9 120.29 50.9 120.4 50.9 120.52 52.46 120.63 52.46 120.74 52.46 120.85 52.46 120.96 52.46 121.08 52.46 121.19 47.76 121.3 50.9 121.41 49.33 121.52 50.9 121.64 50.9 121.75 50.9 121.86 50.9 121.97 52.46 122.09 55.6 122.2 54.03 122.31 54.03 122.42 52.46 122.53 54.03 122.65 52.46 122.76 54.03 122.87 54.03 122.98 50.9 123.09 52.46 123.21 49.33 123.32 52.46 123.43 50.9 123.54 49.33 123.66 49.33 123.77 50.9 123.88 49.33 123.99 50.9 124.1 52.46 124.22 54.03 124.33 50.9 124.44 52.46 124.55 50.9 124.66 50.9 124.78 50.9 124.89 50.9 125 49.33 125.11 49.33 125.23 46.19 125.34 49.33 125.45 49.33 125.56 49.33 125.67 47.76 125.79 46.19 125.9 49.33 126.01 46.19 126.12 46.19 126.23 46.19 126.35 46.19 126.46 46.19 126.57 46.19 126.68 47.76 126.8 49.33 126.91 49.33 127.02 49.33 127.13 49.33 127.24 46.19 127.36 44.62 127.47 47.76 127.58 49.33 127.69 47.76 127.81 47.76 127.92 46.19 128.03 47.76 128.14 49.33 128.25 50.9 128.37 49.33 128.48 50.9 128.59 49.33 128.7 49.33 128.81 49.33 128.93 52.46 129.04 54.03 129.15 54.03 129.26 52.46 129.38 52.46 129.49 49.33 129.6 49.33 129.71 47.76 129.82 47.76 129.94 49.33 130.05 52.46 130.16 49.33 130.27 52.46 130.38 52.46 130.5 54.03 130.61 52.46 130.72 52.46 130.83 50.9 130.95 54.03 131.06 54.03 131.17 52.46 131.28 52.46 131.39 54.03 131.51 50.9 131.62 50.9 131.73 50.9 131.84 50.9 131.95 52.46 132.07 50.9 132.18 49.33 132.29 50.9 132.4 52.46 132.52 50.9 132.63 54.03 132.74 50.9 132.85 49.33 132.96 52.46 133.08 52.46 133.19 52.46 133.3 52.46 133.41 52.46 133.52 50.9 133.64 49.33 133.75 49.33 133.86 49.33" id="img-c2bbfb99-34" stroke="#00BFFF" class="geometry color_50"/>
        <path fill="none" d="M21.82,7 L 21.93 11.7 22.04 19.54 22.16 24.24 22.27 24.24 22.38 27.38 22.49 27.38 22.6 30.52 22.72 28.95 22.83 28.95 22.94 27.38 23.05 27.38 23.17 28.95 23.28 30.52 23.39 30.52 23.5 28.95 23.61 28.95 23.73 28.95 23.84 25.81 23.95 28.95 24.06 28.95 24.17 27.38 24.29 27.38 24.4 28.95 24.51 27.38 24.62 27.38 24.74 30.52 24.85 27.38 24.96 27.38 25.07 25.81 25.18 27.38 25.3 27.38 25.41 27.38 25.52 28.95 25.63 27.38 25.74 25.81 25.86 28.95 25.97 27.38 26.08 27.38 26.19 25.81 26.31 28.95 26.42 27.38 26.53 27.38 26.64 28.95 26.75 30.52 26.87 30.52 26.98 28.95 27.09 28.95 27.2 28.95 27.31 27.38 27.43 27.38 27.54 30.52 27.65 32.08 27.76 28.95 27.88 28.95 27.99 27.38 28.1 28.95 28.21 30.52 28.32 27.38 28.44 27.38 28.55 28.95 28.66 28.95 28.77 28.95 28.89 30.52 29 30.52 29.11 30.52 29.22 30.52 29.33 30.52 29.45 30.52 29.56 30.52 29.67 33.65 29.78 30.52 29.89 32.08 30.01 33.65 30.12 32.08 30.23 32.08 30.34 32.08 30.46 30.52 30.57 32.08 30.68 28.95 30.79 28.95 30.9 28.95 31.02 28.95 31.13 28.95 31.24 30.52 31.35 30.52 31.46 32.08 31.58 33.65 31.69 30.52 31.8 28.95 31.91 28.95 32.03 30.52 32.14 30.52 32.25 32.08 32.36 33.65 32.47 32.08 32.59 33.65 32.7 30.52 32.81 32.08 32.92 33.65 33.03 35.22 33.15 33.65 33.26 35.22 33.37 35.22 33.48 33.65 33.6 33.65 33.71 33.65 33.82 33.65 33.93 32.08 34.04 32.08 34.16 32.08 34.27 32.08 34.38 30.52 34.49 32.08 34.61 32.08 34.72 30.52 34.83 30.52 34.94 30.52 35.05 32.08 35.17 33.65 35.28 32.08 35.39 32.08 35.5 32.08 35.61 33.65 35.73 36.79 35.84 33.65 35.95 33.65 36.06 35.22 36.18 30.52 36.29 35.22 36.4 32.08 36.51 32.08 36.62 33.65 36.74 33.65 36.85 36.79 36.96 35.22 37.07 33.65 37.18 32.08 37.3 32.08 37.41 33.65 37.52 33.65 37.63 35.22 37.75 33.65 37.86 35.22 37.97 35.22 38.08 35.22 38.19 33.65 38.31 33.65 38.42 36.79 38.53 33.65 38.64 32.08 38.75 33.65 38.87 35.22 38.98 35.22 39.09 36.79 39.2 33.65 39.32 33.65 39.43 32.08 39.54 33.65 39.65 33.65 39.76 33.65 39.88 35.22 39.99 35.22 40.1 35.22 40.21 36.79 40.32 35.22 40.44 35.22 40.55 36.79 40.66 36.79 40.77 36.79 40.89 38.35 41 36.79 41.11 36.79 41.22 36.79 41.33 36.79 41.45 39.92 41.56 39.92 41.67 38.35 41.78 38.35 41.9 38.35 42.01 38.35 42.12 39.92 42.23 39.92 42.34 39.92 42.46 38.35 42.57 36.79 42.68 38.35 42.79 38.35 42.9 38.35 43.02 39.92 43.13 38.35 43.24 38.35 43.35 38.35 43.47 38.35 43.58 36.79 43.69 33.65 43.8 36.79 43.91 39.92 44.03 38.35 44.14 39.92 44.25 39.92 44.36 39.92 44.47 41.49 44.59 38.35 44.7 38.35 44.81 38.35 44.92 39.92 45.04 39.92 45.15 39.92 45.26 41.49 45.37 41.49 45.48 43.06 45.6 41.49 45.71 38.35 45.82 38.35 45.93 39.92 46.04 39.92 46.16 39.92 46.27 39.92 46.38 41.49 46.49 41.49 46.61 41.49 46.72 41.49 46.83 39.92 46.94 39.92 47.05 39.92 47.17 41.49 47.28 43.06 47.39 44.62 47.5 44.62 47.61 43.06 47.73 41.49 47.84 43.06 47.95 43.06 48.06 41.49 48.18 41.49 48.29 41.49 48.4 38.35 48.51 39.92 48.62 41.49 48.74 41.49 48.85 41.49 48.96 39.92 49.07 39.92 49.19 43.06 49.3 44.62 49.41 43.06 49.52 43.06 49.63 43.06 49.75 43.06 49.86 44.62 49.97 43.06 50.08 44.62 50.19 41.49 50.31 41.49 50.42 39.92 50.53 38.35 50.64 39.92 50.76 38.35 50.87 41.49 50.98 39.92 51.09 38.35 51.2 38.35 51.32 41.49 51.43 41.49 51.54 41.49 51.65 39.92 51.76 41.49 51.88 39.92 51.99 43.06 52.1 43.06 52.21 43.06 52.33 43.06 52.44 43.06 52.55 44.62 52.66 44.62 52.77 44.62 52.89 44.62 53 44.62 53.11 43.06 53.22 41.49 53.33 43.06 53.45 39.92 53.56 39.92 53.67 41.49 53.78 43.06 53.9 41.49 54.01 41.49 54.12 41.49 54.23 43.06 54.34 43.06 54.46 44.62 54.57 44.62 54.68 44.62 54.79 44.62 54.9 44.62 55.02 43.06 55.13 41.49 55.24 43.06 55.35 41.49 55.47 44.62 55.58 43.06 55.69 44.62 55.8 44.62 55.91 47.76 56.03 44.62 56.14 43.06 56.25 41.49 56.36 41.49 56.48 44.62 56.59 44.62 56.7 44.62 56.81 44.62 56.92 43.06 57.04 44.62 57.15 46.19 57.26 44.62 57.37 44.62 57.48 46.19 57.6 44.62 57.71 44.62 57.82 44.62 57.93 44.62 58.05 43.06 58.16 43.06 58.27 44.62 58.38 43.06 58.49 41.49 58.61 41.49 58.72 44.62 58.83 46.19 58.94 44.62 59.05 44.62 59.17 44.62 59.28 46.19 59.39 44.62 59.5 44.62 59.62 43.06 59.73 43.06 59.84 44.62 59.95 44.62 60.06 44.62 60.18 43.06 60.29 43.06 60.4 43.06 60.51 43.06 60.62 43.06 60.74 41.49 60.85 43.06 60.96 43.06 61.07 41.49 61.19 43.06 61.3 43.06 61.41 46.19 61.52 44.62 61.63 41.49 61.75 44.62 61.86 44.62 61.97 43.06 62.08 44.62 62.19 46.19 62.31 46.19 62.42 44.62 62.53 41.49 62.64 41.49 62.76 44.62 62.87 44.62 62.98 44.62 63.09 43.06 63.2 46.19 63.32 44.62 63.43 44.62 63.54 44.62 63.65 43.06 63.77 44.62 63.88 44.62 63.99 43.06 64.1 43.06 64.21 43.06 64.33 44.62 64.44 44.62 64.55 44.62 64.66 46.19 64.77 44.62 64.89 44.62 65 41.49 65.11 41.49 65.22 43.06 65.34 41.49 65.45 43.06 65.56 44.62 65.67 44.62 65.78 44.62 65.9 43.06 66.01 44.62 66.12 43.06 66.23 44.62 66.34 47.76 66.46 44.62 66.57 44.62 66.68 43.06 66.79 44.62 66.91 46.19 67.02 44.62 67.13 43.06 67.24 43.06 67.35 44.62 67.47 46.19 67.58 44.62 67.69 44.62 67.8 43.06 67.91 43.06 68.03 43.06 68.14 43.06 68.25 43.06 68.36 44.62 68.48 43.06 68.59 44.62 68.7 44.62 68.81 46.19 68.92 44.62 69.04 43.06 69.15 46.19 69.26 46.19 69.37 46.19 69.48 44.62 69.6 46.19 69.71 47.76 69.82 47.76 69.93 46.19 70.05 49.33 70.16 46.19 70.27 47.76 70.38 47.76 70.49 46.19 70.61 46.19 70.72 46.19 70.83 47.76 70.94 46.19 71.06 46.19 71.17 49.33 71.28 46.19 71.39 44.62 71.5 44.62 71.62 46.19 71.73 46.19 71.84 44.62 71.95 46.19 72.06 44.62 72.18 44.62 72.29 44.62 72.4 43.06 72.51 44.62 72.63 46.19 72.74 44.62 72.85 46.19 72.96 44.62 73.07 43.06 73.19 41.49 73.3 43.06 73.41 46.19 73.52 44.62 73.63 44.62 73.75 46.19 73.86 44.62 73.97 46.19 74.08 46.19 74.2 47.76 74.31 46.19 74.42 47.76 74.53 47.76 74.64 46.19 74.76 44.62 74.87 44.62 74.98 46.19 75.09 46.19 75.2 46.19 75.32 46.19 75.43 44.62 75.54 44.62 75.65 46.19 75.77 43.06 75.88 44.62 75.99 43.06 76.1 43.06 76.21 44.62 76.33 44.62 76.44 43.06 76.55 44.62 76.66 46.19 76.77 44.62 76.89 46.19 77 46.19 77.11 46.19 77.22 44.62 77.34 43.06 77.45 44.62 77.56 44.62 77.67 44.62 77.78 44.62 77.9 46.19 78.01 46.19 78.12 44.62 78.23 47.76 78.35 44.62 78.46 44.62 78.57 46.19 78.68 44.62 78.79 46.19 78.91 43.06 79.02 44.62 79.13 41.49 79.24 39.92 79.35 43.06 79.47 43.06 79.58 43.06 79.69 43.06 79.8 46.19 79.92 46.19 80.03 46.19 80.14 44.62 80.25 44.62 80.36 46.19 80.48 46.19 80.59 44.62 80.7 44.62 80.81 46.19 80.92 46.19 81.04 46.19 81.15 47.76 81.26 47.76 81.37 49.33 81.49 49.33 81.6 49.33 81.71 47.76 81.82 46.19 81.93 47.76 82.05 46.19 82.16 47.76 82.27 47.76 82.38 49.33 82.49 50.9 82.61 47.76 82.72 47.76 82.83 47.76 82.94 47.76 83.06 49.33 83.17 47.76 83.28 49.33 83.39 49.33 83.5 47.76 83.62 47.76 83.73 47.76 83.84 47.76 83.95 49.33 84.07 50.9 84.18 52.46 84.29 52.46 84.4 49.33 84.51 50.9 84.63 49.33 84.74 47.76 84.85 47.76 84.96 46.19 85.07 47.76 85.19 46.19 85.3 49.33 85.41 49.33 85.52 50.9 85.64 47.76 85.75 49.33 85.86 49.33 85.97 49.33 86.08 49.33 86.2 50.9 86.31 49.33 86.42 49.33 86.53 49.33 86.64 49.33 86.76 47.76 86.87 47.76 86.98 47.76 87.09 49.33 87.21 49.33 87.32 49.33 87.43 50.9 87.54 52.46 87.65 52.46 87.77 52.46 87.88 47.76 87.99 49.33 88.1 52.46 88.21 49.33 88.33 47.76 88.44 49.33 88.55 50.9 88.66 49.33 88.78 49.33 88.89 49.33 89 50.9 89.11 49.33 89.22 47.76 89.34 46.19 89.45 46.19 89.56 47.76 89.67 47.76 89.78 47.76 89.9 47.76 90.01 47.76 90.12 47.76 90.23 47.76 90.35 47.76 90.46 47.76 90.57 49.33 90.68 49.33 90.79 47.76 90.91 47.76 91.02 47.76 91.13 47.76 91.24 49.33 91.36 47.76 91.47 46.19 91.58 47.76 91.69 49.33 91.8 47.76 91.92 47.76 92.03 46.19 92.14 46.19 92.25 46.19 92.36 44.62 92.48 46.19 92.59 49.33 92.7 49.33 92.81 50.9 92.93 50.9 93.04 49.33 93.15 47.76 93.26 47.76 93.37 49.33 93.49 47.76 93.6 47.76 93.71 46.19 93.82 46.19 93.93 46.19 94.05 47.76 94.16 47.76 94.27 46.19 94.38 46.19 94.5 46.19 94.61 46.19 94.72 44.62 94.83 44.62 94.94 44.62 95.06 44.62 95.17 43.06 95.28 44.62 95.39 44.62 95.5 44.62 95.62 47.76 95.73 46.19 95.84 47.76 95.95 46.19 96.07 46.19 96.18 46.19 96.29 44.62 96.4 46.19 96.51 47.76 96.63 46.19 96.74 44.62 96.85 46.19 96.96 46.19 97.07 46.19 97.19 46.19 97.3 47.76 97.41 47.76 97.52 47.76 97.64 46.19 97.75 46.19 97.86 44.62 97.97 44.62 98.08 46.19 98.2 49.33 98.31 49.33 98.42 47.76 98.53 46.19 98.65 47.76 98.76 47.76 98.87 49.33 98.98 49.33 99.09 49.33 99.21 47.76 99.32 47.76 99.43 49.33 99.54 50.9 99.65 52.46 99.77 50.9 99.88 47.76 99.99 46.19 100.1 47.76 100.22 46.19 100.33 46.19 100.44 47.76 100.55 47.76 100.66 46.19 100.78 47.76 100.89 46.19 101 47.76 101.11 46.19 101.22 46.19 101.34 46.19 101.45 47.76 101.56 47.76 101.67 47.76 101.79 47.76 101.9 46.19 102.01 47.76 102.12 46.19 102.23 47.76 102.35 47.76 102.46 46.19 102.57 47.76 102.68 46.19 102.79 47.76 102.91 47.76 103.02 46.19 103.13 46.19 103.24 47.76 103.36 47.76 103.47 47.76 103.58 49.33 103.69 47.76 103.8 50.9 103.92 50.9 104.03 47.76 104.14 46.19 104.25 47.76 104.36 49.33 104.48 49.33 104.59 50.9 104.7 50.9 104.81 49.33 104.93 49.33 105.04 47.76 105.15 49.33 105.26 49.33 105.37 49.33 105.49 52.46 105.6 49.33 105.71 47.76 105.82 49.33 105.94 47.76 106.05 46.19 106.16 44.62 106.27 46.19 106.38 46.19 106.5 47.76 106.61 49.33 106.72 49.33 106.83 49.33 106.94 49.33 107.06 47.76 107.17 49.33 107.28 47.76 107.39 47.76 107.51 49.33 107.62 50.9 107.73 49.33 107.84 47.76 107.95 50.9 108.07 49.33 108.18 47.76 108.29 47.76 108.4 47.76 108.51 49.33 108.63 50.9 108.74 52.46 108.85 52.46 108.96 49.33 109.08 50.9 109.19 50.9 109.3 50.9 109.41 50.9 109.52 50.9 109.64 50.9 109.75 50.9 109.86 49.33 109.97 50.9 110.08 50.9 110.2 50.9 110.31 49.33 110.42 50.9 110.53 49.33 110.65 49.33 110.76 47.76 110.87 49.33 110.98 52.46 111.09 50.9 111.21 52.46 111.32 50.9 111.43 52.46 111.54 50.9 111.65 49.33 111.77 49.33 111.88 49.33 111.99 47.76 112.1 49.33 112.22 49.33 112.33 49.33 112.44 47.76 112.55 49.33 112.66 50.9 112.78 49.33 112.89 47.76 113 49.33 113.11 49.33 113.23 47.76 113.34 50.9 113.45 50.9 113.56 49.33 113.67 50.9 113.79 50.9 113.9 49.33 114.01 52.46 114.12 52.46 114.23 52.46 114.35 52.46 114.46 50.9 114.57 49.33 114.68 50.9 114.8 50.9 114.91 52.46 115.02 52.46 115.13 50.9 115.24 50.9 115.36 50.9 115.47 49.33 115.58 50.9 115.69 50.9 115.8 50.9 115.92 49.33 116.03 50.9 116.14 50.9 116.25 49.33 116.37 50.9 116.48 52.46 116.59 49.33 116.7 50.9 116.81 49.33 116.93 49.33 117.04 47.76 117.15 49.33 117.26 49.33 117.37 49.33 117.49 50.9 117.6 49.33 117.71 50.9 117.82 49.33 117.94 52.46 118.05 50.9 118.16 50.9 118.27 49.33 118.38 52.46 118.5 50.9 118.61 50.9 118.72 50.9 118.83 52.46 118.94 55.6 119.06 55.6 119.17 54.03 119.28 54.03 119.39 52.46 119.51 50.9 119.62 52.46 119.73 50.9 119.84 52.46 119.95 52.46 120.07 50.9 120.18 52.46 120.29 52.46 120.4 54.03 120.52 54.03 120.63 49.33 120.74 50.9 120.85 49.33 120.96 49.33 121.08 47.76 121.19 47.76 121.3 47.76 121.41 49.33 121.52 47.76 121.64 47.76 121.75 49.33 121.86 47.76 121.97 47.76 122.09 49.33 122.2 50.9 122.31 49.33 122.42 47.76 122.53 47.76 122.65 47.76 122.76 46.19 122.87 47.76 122.98 46.19 123.09 49.33 123.21 49.33 123.32 49.33 123.43 49.33 123.54 49.33 123.66 49.33 123.77 47.76 123.88 49.33 123.99 49.33 124.1 49.33 124.22 47.76 124.33 47.76 124.44 47.76 124.55 49.33 124.66 50.9 124.78 49.33 124.89 49.33 125 50.9 125.11 50.9 125.23 50.9 125.34 50.9 125.45 52.46 125.56 54.03 125.67 52.46 125.79 52.46 125.9 52.46 126.01 52.46 126.12 52.46 126.23 52.46 126.35 50.9 126.46 49.33 126.57 49.33 126.68 49.33 126.8 47.76 126.91 46.19 127.02 49.33 127.13 49.33 127.24 49.33 127.36 47.76 127.47 49.33 127.58 49.33 127.69 49.33 127.81 50.9 127.92 49.33 128.03 49.33 128.14 49.33 128.25 47.76 128.37 49.33 128.48 47.76 128.59 47.76 128.7 50.9 128.81 49.33 128.93 50.9 129.04 49.33 129.15 47.76 129.26 49.33 129.38 47.76 129.49 49.33 129.6 49.33 129.71 47.76 129.82 49.33 129.94 47.76 130.05 49.33 130.16 47.76 130.27 46.19 130.38 49.33 130.5 49.33 130.61 47.76 130.72 46.19 130.83 49.33 130.95 49.33 131.06 49.33 131.17 49.33 131.28 49.33 131.39 49.33 131.51 49.33 131.62 49.33 131.73 52.46 131.84 50.9 131.95 52.46 132.07 52.46 132.18 50.9 132.29 52.46 132.4 52.46 132.52 54.03 132.63 52.46 132.74 52.46 132.85 52.46 132.96 50.9 133.08 49.33 133.19 49.33 133.3 50.9 133.41 50.9 133.52 52.46 133.64 49.33 133.75 52.46 133.86 49.33" id="img-c2bbfb99-35" stroke="#D4CA3A" class="geometry color_75"/>
        <path fill="none" d="M21.82,7 L 21.93 11.7 22.04 22.68 22.16 25.81 22.27 27.38 22.38 28.95 22.49 25.81 22.6 27.38 22.72 27.38 22.83 28.95 22.94 27.38 23.05 28.95 23.17 27.38 23.28 27.38 23.39 28.95 23.5 28.95 23.61 27.38 23.73 24.24 23.84 24.24 23.95 24.24 24.06 27.38 24.17 28.95 24.29 25.81 24.4 27.38 24.51 27.38 24.62 25.81 24.74 27.38 24.85 25.81 24.96 24.24 25.07 24.24 25.18 24.24 25.3 22.68 25.41 22.68 25.52 24.24 25.63 24.24 25.74 25.81 25.86 25.81 25.97 27.38 26.08 24.24 26.19 24.24 26.31 24.24 26.42 24.24 26.53 24.24 26.64 25.81 26.75 25.81 26.87 25.81 26.98 27.38 27.09 25.81 27.2 28.95 27.31 25.81 27.43 27.38 27.54 27.38 27.65 30.52 27.76 30.52 27.88 28.95 27.99 28.95 28.1 27.38 28.21 28.95 28.32 27.38 28.44 30.52 28.55 30.52 28.66 30.52 28.77 30.52 28.89 33.65 29 30.52 29.11 30.52 29.22 32.08 29.33 32.08 29.45 33.65 29.56 33.65 29.67 33.65 29.78 33.65 29.89 33.65 30.01 32.08 30.12 33.65 30.23 32.08 30.34 32.08 30.46 33.65 30.57 30.52 30.68 33.65 30.79 33.65 30.9 33.65 31.02 35.22 31.13 38.35 31.24 36.79 31.35 33.65 31.46 35.22 31.58 33.65 31.69 33.65 31.8 33.65 31.91 30.52 32.03 32.08 32.14 33.65 32.25 32.08 32.36 33.65 32.47 32.08 32.59 32.08 32.7 33.65 32.81 33.65 32.92 35.22 33.03 33.65 33.15 33.65 33.26 33.65 33.37 32.08 33.48 30.52 33.6 30.52 33.71 32.08 33.82 33.65 33.93 32.08 34.04 33.65 34.16 33.65 34.27 33.65 34.38 33.65 34.49 33.65 34.61 33.65 34.72 33.65 34.83 35.22 34.94 33.65 35.05 35.22 35.17 33.65 35.28 33.65 35.39 33.65 35.5 35.22 35.61 33.65 35.73 32.08 35.84 33.65 35.95 33.65 36.06 35.22 36.18 36.79 36.29 36.79 36.4 36.79 36.51 35.22 36.62 35.22 36.74 35.22 36.85 35.22 36.96 35.22 37.07 33.65 37.18 35.22 37.3 35.22 37.41 36.79 37.52 33.65 37.63 36.79 37.75 35.22 37.86 36.79 37.97 38.35 38.08 36.79 38.19 36.79 38.31 36.79 38.42 36.79 38.53 35.22 38.64 38.35 38.75 39.92 38.87 38.35 38.98 38.35 39.09 39.92 39.2 39.92 39.32 38.35 39.43 36.79 39.54 39.92 39.65 39.92 39.76 38.35 39.88 38.35 39.99 36.79 40.1 39.92 40.21 39.92 40.32 41.49 40.44 39.92 40.55 41.49 40.66 39.92 40.77 41.49 40.89 39.92 41 41.49 41.11 41.49 41.22 41.49 41.33 41.49 41.45 41.49 41.56 39.92 41.67 41.49 41.78 41.49 41.9 39.92 42.01 39.92 42.12 41.49 42.23 43.06 42.34 43.06 42.46 43.06 42.57 39.92 42.68 41.49 42.79 39.92 42.9 38.35 43.02 39.92 43.13 38.35 43.24 39.92 43.35 39.92 43.47 38.35 43.58 38.35 43.69 38.35 43.8 39.92 43.91 39.92 44.03 39.92 44.14 38.35 44.25 41.49 44.36 39.92 44.47 38.35 44.59 39.92 44.7 39.92 44.81 38.35 44.92 39.92 45.04 41.49 45.15 41.49 45.26 39.92 45.37 41.49 45.48 43.06 45.6 41.49 45.71 41.49 45.82 41.49 45.93 39.92 46.04 41.49 46.16 43.06 46.27 44.62 46.38 43.06 46.49 43.06 46.61 41.49 46.72 41.49 46.83 41.49 46.94 41.49 47.05 41.49 47.17 43.06 47.28 41.49 47.39 41.49 47.5 41.49 47.61 41.49 47.73 39.92 47.84 39.92 47.95 41.49 48.06 38.35 48.18 38.35 48.29 38.35 48.4 38.35 48.51 39.92 48.62 39.92 48.74 41.49 48.85 41.49 48.96 39.92 49.07 41.49 49.19 41.49 49.3 39.92 49.41 41.49 49.52 39.92 49.63 39.92 49.75 38.35 49.86 39.92 49.97 39.92 50.08 38.35 50.19 38.35 50.31 38.35 50.42 41.49 50.53 41.49 50.64 41.49 50.76 43.06 50.87 43.06 50.98 41.49 51.09 41.49 51.2 41.49 51.32 41.49 51.43 44.62 51.54 44.62 51.65 43.06 51.76 41.49 51.88 43.06 51.99 44.62 52.1 44.62 52.21 44.62 52.33 43.06 52.44 44.62 52.55 46.19 52.66 44.62 52.77 44.62 52.89 46.19 53 46.19 53.11 46.19 53.22 44.62 53.33 44.62 53.45 43.06 53.56 41.49 53.67 44.62 53.78 44.62 53.9 43.06 54.01 39.92 54.12 43.06 54.23 41.49 54.34 41.49 54.46 43.06 54.57 44.62 54.68 44.62 54.79 44.62 54.9 44.62 55.02 44.62 55.13 43.06 55.24 43.06 55.35 43.06 55.47 43.06 55.58 44.62 55.69 47.76 55.8 46.19 55.91 46.19 56.03 46.19 56.14 43.06 56.25 44.62 56.36 43.06 56.48 44.62 56.59 43.06 56.7 43.06 56.81 44.62 56.92 43.06 57.04 39.92 57.15 41.49 57.26 43.06 57.37 41.49 57.48 43.06 57.6 41.49 57.71 39.92 57.82 41.49 57.93 41.49 58.05 41.49 58.16 43.06 58.27 41.49 58.38 41.49 58.49 43.06 58.61 43.06 58.72 41.49 58.83 41.49 58.94 41.49 59.05 43.06 59.17 41.49 59.28 39.92 59.39 41.49 59.5 43.06 59.62 41.49 59.73 44.62 59.84 43.06 59.95 43.06 60.06 43.06 60.18 44.62 60.29 43.06 60.4 43.06 60.51 43.06 60.62 43.06 60.74 41.49 60.85 43.06 60.96 43.06 61.07 44.62 61.19 44.62 61.3 44.62 61.41 43.06 61.52 46.19 61.63 44.62 61.75 46.19 61.86 46.19 61.97 47.76 62.08 44.62 62.19 43.06 62.31 41.49 62.42 44.62 62.53 43.06 62.64 44.62 62.76 43.06 62.87 44.62 62.98 46.19 63.09 44.62 63.2 44.62 63.32 46.19 63.43 44.62 63.54 44.62 63.65 43.06 63.77 43.06 63.88 43.06 63.99 44.62 64.1 46.19 64.21 44.62 64.33 46.19 64.44 43.06 64.55 44.62 64.66 43.06 64.77 43.06 64.89 43.06 65 43.06 65.11 41.49 65.22 43.06 65.34 43.06 65.45 41.49 65.56 41.49 65.67 41.49 65.78 43.06 65.9 44.62 66.01 44.62 66.12 44.62 66.23 46.19 66.34 47.76 66.46 47.76 66.57 46.19 66.68 46.19 66.79 46.19 66.91 47.76 67.02 43.06 67.13 44.62 67.24 46.19 67.35 47.76 67.47 47.76 67.58 47.76 67.69 47.76 67.8 47.76 67.91 44.62 68.03 44.62 68.14 44.62 68.25 46.19 68.36 46.19 68.48 46.19 68.59 43.06 68.7 46.19 68.81 46.19 68.92 46.19 69.04 47.76 69.15 47.76 69.26 46.19 69.37 46.19 69.48 47.76 69.6 47.76 69.71 49.33 69.82 49.33 69.93 49.33 70.05 46.19 70.16 46.19 70.27 47.76 70.38 46.19 70.49 46.19 70.61 44.62 70.72 43.06 70.83 44.62 70.94 44.62 71.06 46.19 71.17 47.76 71.28 46.19 71.39 46.19 71.5 44.62 71.62 46.19 71.73 49.33 71.84 46.19 71.95 44.62 72.06 44.62 72.18 44.62 72.29 44.62 72.4 46.19 72.51 46.19 72.63 44.62 72.74 46.19 72.85 44.62 72.96 46.19 73.07 47.76 73.19 47.76 73.3 46.19 73.41 47.76 73.52 47.76 73.63 47.76 73.75 47.76 73.86 50.9 73.97 49.33 74.08 49.33 74.2 47.76 74.31 47.76 74.42 46.19 74.53 46.19 74.64 49.33 74.76 49.33 74.87 49.33 74.98 50.9 75.09 49.33 75.2 49.33 75.32 49.33 75.43 49.33 75.54 47.76 75.65 46.19 75.77 47.76 75.88 44.62 75.99 46.19 76.1 49.33 76.21 49.33 76.33 46.19 76.44 46.19 76.55 47.76 76.66 47.76 76.77 46.19 76.89 46.19 77 46.19 77.11 44.62 77.22 43.06 77.34 44.62 77.45 44.62 77.56 46.19 77.67 43.06 77.78 44.62 77.9 44.62 78.01 43.06 78.12 44.62 78.23 46.19 78.35 44.62 78.46 46.19 78.57 46.19 78.68 44.62 78.79 44.62 78.91 44.62 79.02 43.06 79.13 43.06 79.24 43.06 79.35 44.62 79.47 44.62 79.58 44.62 79.69 46.19 79.8 46.19 79.92 43.06 80.03 43.06 80.14 43.06 80.25 43.06 80.36 43.06 80.48 44.62 80.59 44.62 80.7 46.19 80.81 44.62 80.92 44.62 81.04 43.06 81.15 44.62 81.26 44.62 81.37 46.19 81.49 44.62 81.6 47.76 81.71 46.19 81.82 47.76 81.93 44.62 82.05 44.62 82.16 49.33 82.27 49.33 82.38 49.33 82.49 49.33 82.61 46.19 82.72 46.19 82.83 46.19 82.94 47.76 83.06 46.19 83.17 46.19 83.28 46.19 83.39 46.19 83.5 44.62 83.62 46.19 83.73 46.19 83.84 47.76 83.95 49.33 84.07 47.76 84.18 47.76 84.29 49.33 84.4 49.33 84.51 47.76 84.63 49.33 84.74 50.9 84.85 52.46 84.96 52.46 85.07 50.9 85.19 50.9 85.3 50.9 85.41 52.46 85.52 52.46 85.64 50.9 85.75 50.9 85.86 47.76 85.97 49.33 86.08 52.46 86.2 49.33 86.31 50.9 86.42 49.33 86.53 47.76 86.64 47.76 86.76 49.33 86.87 49.33 86.98 50.9 87.09 50.9 87.21 50.9 87.32 50.9 87.43 50.9 87.54 52.46 87.65 52.46 87.77 49.33 87.88 50.9 87.99 52.46 88.1 50.9 88.21 50.9 88.33 49.33 88.44 52.46 88.55 54.03 88.66 54.03 88.78 54.03 88.89 52.46 89 50.9 89.11 50.9 89.22 52.46 89.34 50.9 89.45 50.9 89.56 50.9 89.67 50.9 89.78 50.9 89.9 52.46 90.01 52.46 90.12 49.33 90.23 49.33 90.35 47.76 90.46 49.33 90.57 49.33 90.68 49.33 90.79 50.9 90.91 49.33 91.02 47.76 91.13 46.19 91.24 46.19 91.36 49.33 91.47 49.33 91.58 49.33 91.69 47.76 91.8 47.76 91.92 47.76 92.03 47.76 92.14 47.76 92.25 47.76 92.36 49.33 92.48 47.76 92.59 49.33 92.7 49.33 92.81 50.9 92.93 50.9 93.04 50.9 93.15 50.9 93.26 49.33 93.37 50.9 93.49 49.33 93.6 49.33 93.71 49.33 93.82 49.33 93.93 49.33 94.05 49.33 94.16 49.33 94.27 46.19 94.38 47.76 94.5 46.19 94.61 47.76 94.72 49.33 94.83 49.33 94.94 47.76 95.06 47.76 95.17 47.76 95.28 49.33 95.39 50.9 95.5 49.33 95.62 49.33 95.73 50.9 95.84 47.76 95.95 49.33 96.07 50.9 96.18 52.46 96.29 50.9 96.4 52.46 96.51 49.33 96.63 49.33 96.74 46.19 96.85 47.76 96.96 47.76 97.07 47.76 97.19 47.76 97.3 47.76 97.41 46.19 97.52 46.19 97.64 47.76 97.75 46.19 97.86 47.76 97.97 46.19 98.08 47.76 98.2 47.76 98.31 49.33 98.42 46.19 98.53 47.76 98.65 49.33 98.76 47.76 98.87 50.9 98.98 50.9 99.09 52.46 99.21 52.46 99.32 50.9 99.43 49.33 99.54 49.33 99.65 49.33 99.77 47.76 99.88 49.33 99.99 49.33 100.1 49.33 100.22 49.33 100.33 47.76 100.44 47.76 100.55 49.33 100.66 50.9 100.78 49.33 100.89 52.46 101 52.46 101.11 52.46 101.22 50.9 101.34 50.9 101.45 49.33 101.56 50.9 101.67 52.46 101.79 49.33 101.9 49.33 102.01 49.33 102.12 52.46 102.23 52.46 102.35 52.46 102.46 52.46 102.57 52.46 102.68 50.9 102.79 49.33 102.91 49.33 103.02 47.76 103.13 47.76 103.24 46.19 103.36 47.76 103.47 46.19 103.58 46.19 103.69 46.19 103.8 46.19 103.92 46.19 104.03 46.19 104.14 46.19 104.25 46.19 104.36 46.19 104.48 46.19 104.59 46.19 104.7 46.19 104.81 49.33 104.93 50.9 105.04 49.33 105.15 50.9 105.26 50.9 105.37 49.33 105.49 50.9 105.6 52.46 105.71 52.46 105.82 49.33 105.94 49.33 106.05 49.33 106.16 47.76 106.27 47.76 106.38 49.33 106.5 50.9 106.61 50.9 106.72 50.9 106.83 50.9 106.94 50.9 107.06 49.33 107.17 49.33 107.28 47.76 107.39 47.76 107.51 47.76 107.62 47.76 107.73 46.19 107.84 46.19 107.95 46.19 108.07 47.76 108.18 47.76 108.29 46.19 108.4 47.76 108.51 47.76 108.63 47.76 108.74 47.76 108.85 46.19 108.96 47.76 109.08 47.76 109.19 49.33 109.3 47.76 109.41 47.76 109.52 50.9 109.64 50.9 109.75 49.33 109.86 50.9 109.97 47.76 110.08 46.19 110.2 49.33 110.31 47.76 110.42 49.33 110.53 46.19 110.65 46.19 110.76 47.76 110.87 46.19 110.98 46.19 111.09 46.19 111.21 47.76 111.32 47.76 111.43 49.33 111.54 46.19 111.65 46.19 111.77 47.76 111.88 47.76 111.99 47.76 112.1 49.33 112.22 47.76 112.33 49.33 112.44 47.76 112.55 47.76 112.66 47.76 112.78 47.76 112.89 46.19 113 44.62 113.11 44.62 113.23 44.62 113.34 47.76 113.45 47.76 113.56 49.33 113.67 47.76 113.79 49.33 113.9 47.76 114.01 46.19 114.12 46.19 114.23 46.19 114.35 46.19 114.46 47.76 114.57 49.33 114.68 49.33 114.8 49.33 114.91 50.9 115.02 50.9 115.13 49.33 115.24 47.76 115.36 50.9 115.47 49.33 115.58 49.33 115.69 50.9 115.8 49.33 115.92 50.9 116.03 49.33 116.14 50.9 116.25 50.9 116.37 49.33 116.48 47.76 116.59 47.76 116.7 46.19 116.81 43.06 116.93 46.19 117.04 46.19 117.15 44.62 117.26 46.19 117.37 46.19 117.49 44.62 117.6 43.06 117.71 43.06 117.82 44.62 117.94 44.62 118.05 44.62 118.16 49.33 118.27 49.33 118.38 47.76 118.5 47.76 118.61 47.76 118.72 46.19 118.83 46.19 118.94 44.62 119.06 44.62 119.17 47.76 119.28 47.76 119.39 46.19 119.51 46.19 119.62 46.19 119.73 44.62 119.84 43.06 119.95 46.19 120.07 47.76 120.18 47.76 120.29 47.76 120.4 46.19 120.52 46.19 120.63 47.76 120.74 47.76 120.85 49.33 120.96 47.76 121.08 46.19 121.19 46.19 121.3 46.19 121.41 47.76 121.52 47.76 121.64 49.33 121.75 50.9 121.86 47.76 121.97 49.33 122.09 49.33 122.2 49.33 122.31 49.33 122.42 50.9 122.53 49.33 122.65 49.33 122.76 49.33 122.87 47.76 122.98 47.76 123.09 46.19 123.21 47.76 123.32 46.19 123.43 46.19 123.54 49.33 123.66 44.62 123.77 46.19 123.88 44.62 123.99 46.19 124.1 44.62 124.22 44.62 124.33 46.19 124.44 46.19 124.55 46.19 124.66 47.76 124.78 47.76 124.89 49.33 125 47.76 125.11 47.76 125.23 49.33 125.34 46.19 125.45 49.33 125.56 47.76 125.67 47.76 125.79 46.19 125.9 47.76 126.01 47.76 126.12 46.19 126.23 46.19 126.35 49.33 126.46 47.76 126.57 49.33 126.68 47.76 126.8 47.76 126.91 50.9 127.02 47.76 127.13 47.76 127.24 47.76 127.36 47.76 127.47 49.33 127.58 47.76 127.69 49.33 127.81 47.76 127.92 47.76 128.03 47.76 128.14 47.76 128.25 49.33 128.37 49.33 128.48 50.9 128.59 52.46 128.7 50.9 128.81 52.46 128.93 52.46 129.04 49.33 129.15 49.33 129.26 52.46 129.38 50.9 129.49 49.33 129.6 50.9 129.71 49.33 129.82 49.33 129.94 49.33 130.05 50.9 130.16 50.9 130.27 50.9 130.38 50.9 130.5 49.33 130.61 49.33 130.72 49.33 130.83 49.33 130.95 49.33 131.06 50.9 131.17 50.9 131.28 49.33 131.39 49.33 131.51 50.9 131.62 49.33 131.73 50.9 131.84 47.76 131.95 49.33 132.07 50.9 132.18 50.9 132.29 47.76 132.4 49.33 132.52 47.76 132.63 46.19 132.74 47.76 132.85 47.76 132.96 46.19 133.08 49.33 133.19 49.33 133.3 49.33 133.41 47.76 133.52 47.76 133.64 46.19 133.75 46.19 133.86 46.19" id="img-c2bbfb99-36" stroke="#FF6DAE" class="geometry color_100"/>
      </g>
    </g>
  </g>
</g>
  <g class="guide ylabels" font-size="2.82" font-family="'PT Sans Caption','Helvetica Neue','Helvetica',sans-serif" fill="#6C606B" id="img-c2bbfb99-37">
    <text x="18.82" y="69.71" text-anchor="end" dy="0.35em" id="img-c2bbfb99-38">60</text>
    <text x="18.82" y="54.03" text-anchor="end" dy="0.35em" id="img-c2bbfb99-39">70</text>
    <text x="18.82" y="38.35" text-anchor="end" dy="0.35em" id="img-c2bbfb99-40">80</text>
    <text x="18.82" y="22.68" text-anchor="end" dy="0.35em" id="img-c2bbfb99-41">90</text>
    <text x="18.82" y="7" text-anchor="end" dy="0.35em" id="img-c2bbfb99-42">100</text>
  </g>
  <g font-size="3.88" font-family="'PT Sans','Helvetica Neue','Helvetica',sans-serif" fill="#564A55" stroke="#000000" stroke-opacity="0.000" id="img-c2bbfb99-43">
    <text x="8.76" y="36.35" text-anchor="middle" dy="0.35em" transform="rotate(-90, 8.76, 38.35)" id="img-c2bbfb99-44">nSpecie</text>
  </g>
</g>
<defs>
  <clipPath id="img-c2bbfb99-17">
  <path d="M19.82,5 L 135.97 5 135.97 71.71 19.82 71.71" />
</clipPath>
</defs>
</svg>
