<?xml version="1.0" encoding="UTF-8"?>
<svg xmlns="http://www.w3.org/2000/svg"
     xmlns:xlink="http://www.w3.org/1999/xlink"
     xmlns:gadfly="http://www.gadflyjl.org/ns"
     version="1.2"
     width="150mm" height="100mm" viewBox="0 0 150 100"
     stroke="none"
     fill="#000000"
     stroke-width="0.3"
     font-size="3.88"
>
<g class="plotroot xscalable yscalable" id="img-feabb15e-1">
  <g font-size="3.88" font-family="'PT Sans','Helvetica Neue','Helvetica',sans-serif" fill="#564A55" stroke="#000000" stroke-opacity="0.000" id="img-feabb15e-2">
    <text x="76.13" y="88.47" text-anchor="middle" dy="0.6em">Appearence</text>
  </g>
  <g class="guide xlabels" font-size="2.82" font-family="'PT Sans Caption','Helvetica Neue','Helvetica',sans-serif" fill="#6C606B" id="img-feabb15e-3">
    <text x="22.88" y="82" text-anchor="middle" dy="0.6em">0.0</text>
    <text x="76.13" y="82" text-anchor="middle" dy="0.6em">0.5</text>
    <text x="129.39" y="82" text-anchor="middle" dy="0.6em">1.0</text>
  </g>
  <g class="guide colorkey" id="img-feabb15e-4">
    <g fill="#4C404B" font-size="2.82" font-family="'PT Sans','Helvetica Neue','Helvetica',sans-serif" id="img-feabb15e-5">
      <text x="135.12" y="36.06" dy="0.35em" id="img-feabb15e-6" class="color_2.5e-5">2.5e-5</text>
      <text x="135.12" y="39.53" dy="0.35em" id="img-feabb15e-7" class="color_5.0e-5">5.0e-5</text>
      <text x="135.12" y="43" dy="0.35em" id="img-feabb15e-8" class="color_0.0001">0.0001</text>
      <text x="135.12" y="46.47" dy="0.35em" id="img-feabb15e-9" class="color_0.0002">0.0002</text>
      <text x="135.12" y="49.94" dy="0.35em" id="img-feabb15e-10" class="color_0.0005">0.0005</text>
      <text x="135.12" y="53.41" dy="0.35em" id="img-feabb15e-11" class="color_0.001">0.001</text>
    </g>
    <g stroke="#000000" stroke-opacity="0.000" id="img-feabb15e-12">
      <rect x="132.39" y="35.2" width="1.73" height="1.73" id="img-feabb15e-13" class="color_2.5e-5" fill="#00BFFF"/>
      <rect x="132.39" y="38.66" width="1.73" height="1.73" id="img-feabb15e-14" class="color_5.0e-5" fill="#D4CA3A"/>
      <rect x="132.39" y="42.13" width="1.73" height="1.73" id="img-feabb15e-15" class="color_0.0001" fill="#FF6DAE"/>
      <rect x="132.39" y="45.6" width="1.73" height="1.73" id="img-feabb15e-16" class="color_0.0002" fill="#00B78D"/>
      <rect x="132.39" y="49.07" width="1.73" height="1.73" id="img-feabb15e-17" class="color_0.0005" fill="#BEA9FF"/>
      <rect x="132.39" y="52.54" width="1.73" height="1.73" id="img-feabb15e-18" class="color_0.001" fill="#FF6765"/>
    </g>
    <g fill="#362A35" font-size="3.88" font-family="'PT Sans','Helvetica Neue','Helvetica',sans-serif" stroke="#000000" stroke-opacity="0.000" id="img-feabb15e-19">
      <text x="132.39" y="32" id="img-feabb15e-20">p</text>
    </g>
  </g>
<g clip-path="url(#img-feabb15e-21)">
  <g id="img-feabb15e-22">
    <g pointer-events="visible" opacity="1" fill="#000000" fill-opacity="0.000" stroke="#000000" stroke-opacity="0.000" class="guide background" id="img-feabb15e-23">
      <rect x="20.88" y="5" width="110.51" height="76" id="img-feabb15e-24"/>
    </g>
    <g class="guide ygridlines xfixed" stroke-dasharray="0.5,0.5" stroke-width="0.2" stroke="#D0D0E0" id="img-feabb15e-25">
      <path fill="none" d="M20.88,79 L 131.39 79" id="img-feabb15e-26"/>
      <path fill="none" d="M20.88,43 L 131.39 43" id="img-feabb15e-27"/>
      <path fill="none" d="M20.88,7 L 131.39 7" id="img-feabb15e-28"/>
    </g>
    <g class="guide xgridlines yfixed" stroke-dasharray="0.5,0.5" stroke-width="0.2" stroke="#D0D0E0" id="img-feabb15e-29">
      <path fill="none" d="M22.88,5 L 22.88 81" id="img-feabb15e-30"/>
      <path fill="none" d="M76.13,5 L 76.13 81" id="img-feabb15e-31"/>
      <path fill="none" d="M129.39,5 L 129.39 81" id="img-feabb15e-32"/>
    </g>
    <g class="plotpanel" id="img-feabb15e-33">
      <g stroke-width="0.3" fill="#000000" fill-opacity="0.000" stroke-dasharray="none" id="img-feabb15e-34">
        <path fill="none" d="M25.54,43.66 L 30.87 46.08 36.19 43.45 41.52 45.8 46.84 39.89 52.17 44.51 57.49 41.16 62.82 41.64 68.14 39.45 73.47 39.24 78.8 48.07 84.12 42 89.45 39.95 94.77 45.07 100.1 50.11 105.42 41.23 110.75 42.62 116.07 39.56 121.4 49.83 126.72 36.73" id="img-feabb15e-35" stroke="#00B78D" class="geometry color_0.0002"/>
        <path fill="none" d="M25.54,43.59 L 30.87 43.03 36.19 40.12 41.52 42.33 46.84 39.81 52.17 41.9 57.49 45.68 62.82 47.15 68.14 41.85 73.47 44.53 78.8 39.6 84.12 42.13 89.45 45.36 94.77 43.09 100.1 34.84 105.42 42.46 110.75 45.94 116.07 41.77 121.4 44.95 126.72 49.9" id="img-feabb15e-36" stroke="#00BFFF" class="geometry color_2.5e-5"/>
        <path fill="none" d="M25.54,42.59 L 30.87 39.1 36.19 45.54 41.52 41.53 46.84 36.54 52.17 43.59 57.49 46.8 62.82 46.05 68.14 42.9 73.47 44.83 78.8 43.95 84.12 39.36 89.45 43.83 94.77 42.55 100.1 44.28 105.42 43.26 110.75 45.3 116.07 41.55 121.4 40.78 126.72 45.66" id="img-feabb15e-37" stroke="#BEA9FF" class="geometry color_0.0005"/>
        <path fill="none" d="M25.54,39.25 L 30.87 41.46 36.19 43.49 41.52 43.27 46.84 38.1 52.17 45.45 57.49 43.2 62.82 40.82 68.14 45.03 73.47 39.72 78.8 44.4 84.12 43.59 89.45 43.15 94.77 49.48 100.1 37.88 105.42 42.07 110.75 47.72 116.07 43.67 121.4 44.03 126.72 44.25" id="img-feabb15e-38" stroke="#D4CA3A" class="geometry color_5.0e-5"/>
        <path fill="none" d="M25.54,47.55 L 30.87 42.42 36.19 46.08 41.52 48.39 46.84 38.59 52.17 46.65 57.49 39.33 62.82 46.94 68.14 44.65 73.47 35.8 78.8 47.76 84.12 38.73 89.45 44.67 94.77 44.09 100.1 37.97 105.42 46.31 110.75 40.03 116.07 45.77 121.4 42.71 126.72 35.6" id="img-feabb15e-39" stroke="#FF6765" class="geometry color_0.001"/>
        <path fill="none" d="M25.54,50.02 L 30.87 48.83 36.19 44.64 41.52 38.6 46.84 40.06 52.17 43.45 57.49 44.32 62.82 42.65 68.14 44.76 73.47 44.17 78.8 39.41 84.12 45.31 89.45 47.07 94.77 42.32 100.1 38.42 105.42 41.81 110.75 41.79 116.07 39.42 121.4 42.41 126.72 40.57" id="img-feabb15e-40" stroke="#FF6DAE" class="geometry color_0.0001"/>
      </g>
    </g>
  </g>
</g>
  <g class="guide ylabels" font-size="2.82" font-family="'PT Sans Caption','Helvetica Neue','Helvetica',sans-serif" fill="#6C606B" id="img-feabb15e-41">
    <text x="19.88" y="79" text-anchor="end" dy="0.35em" id="img-feabb15e-42">0.00</text>
    <text x="19.88" y="43" text-anchor="end" dy="0.35em" id="img-feabb15e-43">0.05</text>
    <text x="19.88" y="7" text-anchor="end" dy="0.35em" id="img-feabb15e-44">0.10</text>
  </g>
  <g font-size="3.88" font-family="'PT Sans','Helvetica Neue','Helvetica',sans-serif" fill="#564A55" stroke="#000000" stroke-opacity="0.000" id="img-feabb15e-45">
    <text x="8.76" y="41" text-anchor="middle" dy="0.35em" transform="rotate(-90, 8.76, 43)" id="img-feabb15e-46">Frequencia</text>
  </g>
</g>
<defs>
  <clipPath id="img-feabb15e-21">
  <path d="M20.88,5 L 131.39 5 131.39 81 20.88 81" />
</clipPath>
</defs>
</svg>
