<?xml version="1.0" encoding="UTF-8"?>
<svg xmlns="http://www.w3.org/2000/svg"
     xmlns:xlink="http://www.w3.org/1999/xlink"
     xmlns:gadfly="http://www.gadflyjl.org/ns"
     version="1.2"
     width="150mm" height="100mm" viewBox="0 0 150 100"
     stroke="none"
     fill="#000000"
     stroke-width="0.3"
     font-size="3.88"
>
<g class="plotroot xscalable yscalable" id="img-a5ee5bee-1">
  <g font-size="3.88" font-family="'PT Sans','Helvetica Neue','Helvetica',sans-serif" fill="#564A55" stroke="#000000" stroke-opacity="0.000" id="img-a5ee5bee-2">
    <text x="77.9" y="89.18" text-anchor="middle" dy="0.6em">Fitness</text>
  </g>
  <g class="guide xlabels" font-size="2.82" font-family="'PT Sans Caption','Helvetica Neue','Helvetica',sans-serif" fill="#6C606B" id="img-a5ee5bee-3">
    <text x="22.88" y="82.71" text-anchor="middle" dy="0.6em">0.0</text>
    <text x="77.9" y="82.71" text-anchor="middle" dy="0.6em">0.5</text>
    <text x="132.92" y="82.71" text-anchor="middle" dy="0.6em">1.0</text>
  </g>
  <g class="guide colorkey" id="img-a5ee5bee-4">
    <g fill="#4C404B" font-size="2.82" font-family="'PT Sans','Helvetica Neue','Helvetica',sans-serif" id="img-a5ee5bee-5">
      <text x="138.65" y="38.15" dy="0.35em" id="img-a5ee5bee-6" class="color_0.0">0.0</text>
      <text x="138.65" y="41.62" dy="0.35em" id="img-a5ee5bee-7" class="color_0.25">0.25</text>
      <text x="138.65" y="45.09" dy="0.35em" id="img-a5ee5bee-8" class="color_0.5">0.5</text>
      <text x="138.65" y="48.56" dy="0.35em" id="img-a5ee5bee-9" class="color_0.75">0.75</text>
      <text x="138.65" y="52.03" dy="0.35em" id="img-a5ee5bee-10" class="color_1.0">1.0</text>
    </g>
    <g stroke="#000000" stroke-opacity="0.000" id="img-a5ee5bee-11">
      <rect x="135.92" y="37.28" width="1.73" height="1.73" id="img-a5ee5bee-12" class="color_0.0" fill="#00BFFF"/>
      <rect x="135.92" y="40.75" width="1.73" height="1.73" id="img-a5ee5bee-13" class="color_0.25" fill="#D4CA3A"/>
      <rect x="135.92" y="44.22" width="1.73" height="1.73" id="img-a5ee5bee-14" class="color_0.5" fill="#FF6DAE"/>
      <rect x="135.92" y="47.69" width="1.73" height="1.73" id="img-a5ee5bee-15" class="color_0.75" fill="#00B78D"/>
      <rect x="135.92" y="51.16" width="1.73" height="1.73" id="img-a5ee5bee-16" class="color_1.0" fill="#BEA9FF"/>
    </g>
    <g fill="#362A35" font-size="3.88" font-family="'PT Sans','Helvetica Neue','Helvetica',sans-serif" stroke="#000000" stroke-opacity="0.000" id="img-a5ee5bee-17">
      <text x="135.92" y="33.74" id="img-a5ee5bee-18">a</text>
    </g>
  </g>
<g clip-path="url(#img-a5ee5bee-19)">
  <g id="img-a5ee5bee-20">
    <g pointer-events="visible" opacity="1" fill="#000000" fill-opacity="0.000" stroke="#000000" stroke-opacity="0.000" class="guide background" id="img-a5ee5bee-21">
      <rect x="20.88" y="5" width="114.04" height="76.71" id="img-a5ee5bee-22"/>
    </g>
    <g class="guide ygridlines xfixed" stroke-dasharray="0.5,0.5" stroke-width="0.2" stroke="#D0D0E0" id="img-a5ee5bee-23">
      <path fill="none" d="M20.88,79.71 L 134.92 79.71" id="img-a5ee5bee-24"/>
      <path fill="none" d="M20.88,61.53 L 134.92 61.53" id="img-a5ee5bee-25"/>
      <path fill="none" d="M20.88,43.35 L 134.92 43.35" id="img-a5ee5bee-26"/>
      <path fill="none" d="M20.88,25.18 L 134.92 25.18" id="img-a5ee5bee-27"/>
      <path fill="none" d="M20.88,7 L 134.92 7" id="img-a5ee5bee-28"/>
    </g>
    <g class="guide xgridlines yfixed" stroke-dasharray="0.5,0.5" stroke-width="0.2" stroke="#D0D0E0" id="img-a5ee5bee-29">
      <path fill="none" d="M22.88,5 L 22.88 81.71" id="img-a5ee5bee-30"/>
      <path fill="none" d="M77.9,5 L 77.9 81.71" id="img-a5ee5bee-31"/>
      <path fill="none" d="M132.92,5 L 132.92 81.71" id="img-a5ee5bee-32"/>
    </g>
    <g class="plotpanel" id="img-a5ee5bee-33">
      <g stroke-width="0.3" fill="#000000" fill-opacity="0.000" stroke-dasharray="none" id="img-a5ee5bee-34">
        <path fill="none" d="M25.63,73.19 L 31.13 76.16 36.63 73.68 42.13 74.27 47.64 71.99 53.14 70.19 58.64 71.19 64.14 65.07 69.64 59.81 75.15 51.65 80.65 43.29 86.15 29.93 91.65 22.84 97.15 32.45 102.65 41.45 108.16 62.4 113.66 76.58 119.16 75.76 124.66 79.71 130.16 78.98" id="img-a5ee5bee-35" stroke="#00B78D" class="geometry color_0.75"/>
        <path fill="none" d="M25.63,52.9 L 31.13 51.27 36.63 50.34 42.13 51.04 47.64 49.07 53.14 48.66 58.64 47.42 64.14 49.98 69.64 50.88 75.15 49.51 80.65 53.23 86.15 59.29 91.65 67.55 97.15 74.1 102.65 77.21 108.16 79.44 113.66 79.66 119.16 79.65 124.66 79.71 130.16 79.71" id="img-a5ee5bee-36" stroke="#00BFFF" class="geometry color_0.0"/>
        <path fill="none" d="M25.63,68.75 L 31.13 75.57 36.63 78.39 42.13 78.23 47.64 75.93 53.14 72.29 58.64 73.72 64.14 66.14 69.64 59.29 75.15 57.85 80.65 52.31 86.15 35.89 91.65 20.05 97.15 16.55 102.65 29.33 108.16 60.24 113.66 73.16 119.16 77.53 124.66 79.71 130.16 79.71" id="img-a5ee5bee-37" stroke="#BEA9FF" class="geometry color_1.0"/>
        <path fill="none" d="M25.63,70.86 L 31.13 66.97 36.63 68.12 42.13 65.67 47.64 63.07 53.14 61.14 58.64 58.32 64.14 51.64 69.64 47.28 75.15 38.9 80.65 33.63 86.15 35.36 91.65 45.7 97.15 60.35 102.65 70.23 108.16 75.01 113.66 79.52 119.16 79.43 124.66 79.71 130.16 79.71" id="img-a5ee5bee-38" stroke="#D4CA3A" class="geometry color_0.25"/>
        <path fill="none" d="M25.63,70.59 L 31.13 73.58 36.63 74.76 42.13 75.01 47.64 71.98 53.14 70.79 58.64 65.08 64.14 62.68 69.64 55.56 75.15 46.35 80.65 37.25 86.15 28.52 91.65 25.58 97.15 32.17 102.65 56.55 108.16 69.65 113.66 76.8 119.16 79.02 124.66 78.98 130.16 79.71" id="img-a5ee5bee-39" stroke="#FF6DAE" class="geometry color_0.5"/>
      </g>
    </g>
  </g>
</g>
  <g class="guide ylabels" font-size="2.82" font-family="'PT Sans Caption','Helvetica Neue','Helvetica',sans-serif" fill="#6C606B" id="img-a5ee5bee-40">
    <text x="19.88" y="79.71" text-anchor="end" dy="0.35em" id="img-a5ee5bee-41">0.00</text>
    <text x="19.88" y="61.53" text-anchor="end" dy="0.35em" id="img-a5ee5bee-42">0.05</text>
    <text x="19.88" y="43.35" text-anchor="end" dy="0.35em" id="img-a5ee5bee-43">0.10</text>
    <text x="19.88" y="25.18" text-anchor="end" dy="0.35em" id="img-a5ee5bee-44">0.15</text>
    <text x="19.88" y="7" text-anchor="end" dy="0.35em" id="img-a5ee5bee-45">0.20</text>
  </g>
  <g font-size="3.88" font-family="'PT Sans','Helvetica Neue','Helvetica',sans-serif" fill="#564A55" stroke="#000000" stroke-opacity="0.000" id="img-a5ee5bee-46">
    <text x="8.76" y="41.35" text-anchor="middle" dy="0.35em" transform="rotate(-90, 8.76, 43.35)" id="img-a5ee5bee-47">Frequencia</text>
  </g>
</g>
<defs>
  <clipPath id="img-a5ee5bee-19">
  <path d="M20.88,5 L 134.92 5 134.92 81.71 20.88 81.71" />
</clipPath>
</defs>
</svg>
