<?xml version="1.0" encoding="UTF-8"?>
<svg xmlns="http://www.w3.org/2000/svg"
     xmlns:xlink="http://www.w3.org/1999/xlink"
     xmlns:gadfly="http://www.gadflyjl.org/ns"
     version="1.2"
     width="150mm" height="100mm" viewBox="0 0 150 100"
     stroke="none"
     fill="#000000"
     stroke-width="0.3"
     font-size="3.88"
>
<g class="plotroot xscalable yscalable" id="img-93f028fa-1">
  <g font-size="3.88" font-family="'PT Sans','Helvetica Neue','Helvetica',sans-serif" fill="#564A55" stroke="#000000" stroke-opacity="0.000" id="img-93f028fa-2">
    <text x="74.37" y="88.47" text-anchor="middle" dy="0.6em">Tempo</text>
  </g>
  <g class="guide xlabels" font-size="2.82" font-family="'PT Sans Caption','Helvetica Neue','Helvetica',sans-serif" fill="#6C606B" id="img-93f028fa-3">
    <text x="19.35" y="82" text-anchor="middle" dy="0.6em">0</text>
    <text x="46.86" y="82" text-anchor="middle" dy="0.6em">50</text>
    <text x="74.37" y="82" text-anchor="middle" dy="0.6em">100</text>
    <text x="101.88" y="82" text-anchor="middle" dy="0.6em">150</text>
    <text x="129.39" y="82" text-anchor="middle" dy="0.6em">200</text>
  </g>
  <g class="guide colorkey" id="img-93f028fa-4">
    <g fill="#4C404B" font-size="2.82" font-family="'PT Sans','Helvetica Neue','Helvetica',sans-serif" id="img-93f028fa-5">
      <text x="135.12" y="36.06" dy="0.35em" id="img-93f028fa-6" class="color_2.5e-5">2.5e-5</text>
      <text x="135.12" y="39.53" dy="0.35em" id="img-93f028fa-7" class="color_5.0e-5">5.0e-5</text>
      <text x="135.12" y="43" dy="0.35em" id="img-93f028fa-8" class="color_0.0001">0.0001</text>
      <text x="135.12" y="46.47" dy="0.35em" id="img-93f028fa-9" class="color_0.0002">0.0002</text>
      <text x="135.12" y="49.94" dy="0.35em" id="img-93f028fa-10" class="color_0.0005">0.0005</text>
      <text x="135.12" y="53.41" dy="0.35em" id="img-93f028fa-11" class="color_0.001">0.001</text>
    </g>
    <g stroke="#000000" stroke-opacity="0.000" id="img-93f028fa-12">
      <rect x="132.39" y="35.2" width="1.73" height="1.73" id="img-93f028fa-13" class="color_2.5e-5" fill="#00BFFF"/>
      <rect x="132.39" y="38.66" width="1.73" height="1.73" id="img-93f028fa-14" class="color_5.0e-5" fill="#D4CA3A"/>
      <rect x="132.39" y="42.13" width="1.73" height="1.73" id="img-93f028fa-15" class="color_0.0001" fill="#FF6DAE"/>
      <rect x="132.39" y="45.6" width="1.73" height="1.73" id="img-93f028fa-16" class="color_0.0002" fill="#00B78D"/>
      <rect x="132.39" y="49.07" width="1.73" height="1.73" id="img-93f028fa-17" class="color_0.0005" fill="#BEA9FF"/>
      <rect x="132.39" y="52.54" width="1.73" height="1.73" id="img-93f028fa-18" class="color_0.001" fill="#FF6765"/>
    </g>
    <g fill="#362A35" font-size="3.88" font-family="'PT Sans','Helvetica Neue','Helvetica',sans-serif" stroke="#000000" stroke-opacity="0.000" id="img-93f028fa-19">
      <text x="132.39" y="32" id="img-93f028fa-20">p</text>
    </g>
  </g>
<g clip-path="url(#img-93f028fa-21)">
  <g id="img-93f028fa-22">
    <g pointer-events="visible" opacity="1" fill="#000000" fill-opacity="0.000" stroke="#000000" stroke-opacity="0.000" class="guide background" id="img-93f028fa-23">
      <rect x="17.35" y="5" width="114.04" height="76" id="img-93f028fa-24"/>
    </g>
    <g class="guide ygridlines xfixed" stroke-dasharray="0.5,0.5" stroke-width="0.2" stroke="#D0D0E0" id="img-93f028fa-25">
      <path fill="none" d="M17.35,79 L 131.39 79" id="img-93f028fa-26"/>
      <path fill="none" d="M17.35,67 L 131.39 67" id="img-93f028fa-27"/>
      <path fill="none" d="M17.35,55 L 131.39 55" id="img-93f028fa-28"/>
      <path fill="none" d="M17.35,43 L 131.39 43" id="img-93f028fa-29"/>
      <path fill="none" d="M17.35,31 L 131.39 31" id="img-93f028fa-30"/>
      <path fill="none" d="M17.35,19 L 131.39 19" id="img-93f028fa-31"/>
      <path fill="none" d="M17.35,7 L 131.39 7" id="img-93f028fa-32"/>
    </g>
    <g class="guide xgridlines yfixed" stroke-dasharray="0.5,0.5" stroke-width="0.2" stroke="#D0D0E0" id="img-93f028fa-33">
      <path fill="none" d="M19.35,5 L 19.35 81" id="img-93f028fa-34"/>
      <path fill="none" d="M46.86,5 L 46.86 81" id="img-93f028fa-35"/>
      <path fill="none" d="M74.37,5 L 74.37 81" id="img-93f028fa-36"/>
      <path fill="none" d="M101.88,5 L 101.88 81" id="img-93f028fa-37"/>
      <path fill="none" d="M129.39,5 L 129.39 81" id="img-93f028fa-38"/>
    </g>
    <g class="plotpanel" id="img-93f028fa-39">
      <g stroke-width="0.3" fill="#000000" fill-opacity="0.000" stroke-dasharray="none" id="img-93f028fa-40">
        <path fill="none" d="M19.35,19 L 22.1 18.99 24.85 18.95 27.6 18.92 30.35 18.89 33.1 18.87 35.86 18.84 38.61 18.84 41.36 18.84 44.11 19.01 46.86 19.67 49.61 21.55 52.36 25.95 55.11 32.75 57.86 40.76 60.61 47.65 63.36 51.99 66.12 54.64 68.87 56.22 71.62 57.28 74.37 58.18 77.12 58.84 79.87 59.51 82.62 60.13 85.37 60.75 88.12 61.27 90.87 61.58 93.63 61.72 96.38 61.86 99.13 61.95 101.88 62.09 104.63 62.17 107.38 62.27 110.13 62.36 112.88 62.43 115.63 62.49 118.38 62.52 121.13 62.53 123.89 62.54 126.64 62.54" id="img-93f028fa-41" stroke="#00B78D" class="geometry color_0.0002"/>
        <path fill="none" d="M19.35,19 L 22.1 19 24.85 18.99 27.6 18.97 30.35 18.97 33.1 18.96 35.86 18.96 38.61 18.97 41.36 18.99 44.11 19.18 46.86 19.78 49.61 21.71 52.36 26.28 55.11 33.67 57.86 41.78 60.61 48.61 63.36 52.68 66.12 55.33 68.87 56.93 71.62 57.91 74.37 58.61 77.12 59.24 79.87 59.78 82.62 60.37 85.37 61.04 88.12 61.5 90.87 61.75 93.63 61.91 96.38 62 99.13 62.1 101.88 62.19 104.63 62.28 107.38 62.38 110.13 62.45 112.88 62.53 115.63 62.56 118.38 62.56 121.13 62.58 123.89 62.59 126.64 62.59" id="img-93f028fa-42" stroke="#00BFFF" class="geometry color_2.5e-5"/>
        <path fill="none" d="M19.35,19 L 22.1 18.98 24.85 18.87 27.6 18.76 30.35 18.66 33.1 18.57 35.86 18.56 38.61 18.52 41.36 18.57 44.11 18.76 46.86 19.47 49.61 21.65 52.36 26.41 55.11 33.9 57.86 42.62 60.61 49.37 63.36 53.62 66.12 55.98 68.87 57.3 71.62 58.19 74.37 58.8 77.12 59.38 79.87 59.9 82.62 60.54 85.37 61.13 88.12 61.53 90.87 61.74 93.63 61.87 96.38 61.98 99.13 62.09 101.88 62.17 104.63 62.28 107.38 62.35 110.13 62.45 112.88 62.51 115.63 62.52 118.38 62.53 121.13 62.54 123.89 62.51 126.64 62.52" id="img-93f028fa-43" stroke="#BEA9FF" class="geometry color_0.0005"/>
        <path fill="none" d="M19.35,19 L 22.1 19 24.85 18.99 27.6 18.97 30.35 18.97 33.1 18.97 35.86 18.96 38.61 18.96 41.36 18.98 44.11 19.16 46.86 19.9 49.61 21.97 52.36 26.48 55.11 33.66 57.86 42.07 60.61 48.8 63.36 53.13 66.12 55.71 68.87 57.22 71.62 58.19 74.37 58.89 77.12 59.42 79.87 59.91 82.62 60.48 85.37 61.02 88.12 61.41 90.87 61.65 93.63 61.82 96.38 61.89 99.13 61.98 101.88 62.07 104.63 62.15 107.38 62.23 110.13 62.33 112.88 62.41 115.63 62.43 118.38 62.45 121.13 62.46 123.89 62.47 126.64 62.46" id="img-93f028fa-44" stroke="#D4CA3A" class="geometry color_5.0e-5"/>
        <path fill="none" d="M19.35,19 L 22.1 18.93 24.85 18.72 27.6 18.48 30.35 18.28 33.1 18.17 35.86 18.08 38.61 17.97 41.36 18.01 44.11 18.24 46.86 19.1 49.61 21.46 52.36 26.29 55.11 33.75 57.86 42.25 60.61 49.08 63.36 53.42 66.12 55.89 68.87 57.34 71.62 58.3 74.37 58.99 77.12 59.58 79.87 60.02 82.62 60.56 85.37 61.11 88.12 61.44 90.87 61.71 93.63 61.88 96.38 61.98 99.13 62.06 101.88 62.15 104.63 62.25 107.38 62.31 110.13 62.37 112.88 62.43 115.63 62.46 118.38 62.48 121.13 62.49 123.89 62.52 126.64 62.51" id="img-93f028fa-45" stroke="#FF6765" class="geometry color_0.001"/>
        <path fill="none" d="M19.35,19 L 22.1 19 24.85 18.98 27.6 18.95 30.35 18.93 33.1 18.94 35.86 18.92 38.61 18.92 41.36 18.94 44.11 19.13 46.86 19.88 49.61 22.04 52.36 26.68 55.11 34.34 57.86 43 60.61 49.61 63.36 53.67 66.12 56.05 68.87 57.51 71.62 58.48 74.37 59.13 77.12 59.68 79.87 60.27 82.62 60.89 85.37 61.45 88.12 61.84 90.87 62.15 93.63 62.33 96.38 62.48 99.13 62.58 101.88 62.7 104.63 62.8 107.38 62.91 110.13 62.99 112.88 63.05 115.63 63.09 118.38 63.11 121.13 63.12 123.89 63.13 126.64 63.13" id="img-93f028fa-46" stroke="#FF6DAE" class="geometry color_0.0001"/>
      </g>
    </g>
  </g>
</g>
  <g class="guide ylabels" font-size="2.82" font-family="'PT Sans Caption','Helvetica Neue','Helvetica',sans-serif" fill="#6C606B" id="img-93f028fa-47">
    <text x="16.35" y="79" text-anchor="end" dy="0.35em" id="img-93f028fa-48">0</text>
    <text x="16.35" y="67" text-anchor="end" dy="0.35em" id="img-93f028fa-49">10</text>
    <text x="16.35" y="55" text-anchor="end" dy="0.35em" id="img-93f028fa-50">20</text>
    <text x="16.35" y="43" text-anchor="end" dy="0.35em" id="img-93f028fa-51">30</text>
    <text x="16.35" y="31" text-anchor="end" dy="0.35em" id="img-93f028fa-52">40</text>
    <text x="16.35" y="19" text-anchor="end" dy="0.35em" id="img-93f028fa-53">50</text>
    <text x="16.35" y="7" text-anchor="end" dy="0.35em" id="img-93f028fa-54">60</text>
  </g>
  <g font-size="3.88" font-family="'PT Sans','Helvetica Neue','Helvetica',sans-serif" fill="#564A55" stroke="#000000" stroke-opacity="0.000" id="img-93f028fa-55">
    <text x="8.41" y="41" text-anchor="middle" dy="0.35em" transform="rotate(-90, 8.41, 43)" id="img-93f028fa-56">Numero de Variedades</text>
  </g>
</g>
<defs>
  <clipPath id="img-93f028fa-21">
  <path d="M17.35,5 L 131.39 5 131.39 81 17.35 81" />
</clipPath>
</defs>
</svg>
