<?xml version="1.0" encoding="UTF-8"?>
<svg xmlns="http://www.w3.org/2000/svg"
     xmlns:xlink="http://www.w3.org/1999/xlink"
     xmlns:gadfly="http://www.gadflyjl.org/ns"
     version="1.2"
     width="150mm" height="100mm" viewBox="0 0 150 100"
     stroke="none"
     fill="#000000"
     stroke-width="0.3"
     font-size="3.88"
>
<g class="plotroot xscalable yscalable" id="img-ab0ed2ff-1">
  <g font-size="3.88" font-family="'PT Sans','Helvetica Neue','Helvetica',sans-serif" fill="#564A55" stroke="#000000" stroke-opacity="0.000" id="img-ab0ed2ff-2">
    <text x="73.49" y="88.47" text-anchor="middle" dy="0.6em">Tempo</text>
  </g>
  <g class="guide xlabels" font-size="2.82" font-family="'PT Sans Caption','Helvetica Neue','Helvetica',sans-serif" fill="#6C606B" id="img-ab0ed2ff-3">
    <text x="19.35" y="82" text-anchor="middle" dy="0.6em">0</text>
    <text x="46.42" y="82" text-anchor="middle" dy="0.6em">50</text>
    <text x="73.49" y="82" text-anchor="middle" dy="0.6em">100</text>
    <text x="100.56" y="82" text-anchor="middle" dy="0.6em">150</text>
    <text x="127.62" y="82" text-anchor="middle" dy="0.6em">200</text>
  </g>
  <g class="guide colorkey" id="img-ab0ed2ff-4">
    <g fill="#4C404B" font-size="2.82" font-family="'PT Sans','Helvetica Neue','Helvetica',sans-serif" id="img-ab0ed2ff-5">
      <text x="133.36" y="37.8" dy="0.35em" id="img-ab0ed2ff-6" class="color_0.00025">0.00025</text>
      <text x="133.36" y="41.27" dy="0.35em" id="img-ab0ed2ff-7" class="color_0.0005">0.0005</text>
      <text x="133.36" y="44.74" dy="0.35em" id="img-ab0ed2ff-8" class="color_0.001">0.001</text>
      <text x="133.36" y="48.21" dy="0.35em" id="img-ab0ed2ff-9" class="color_0.002">0.002</text>
      <text x="133.36" y="51.68" dy="0.35em" id="img-ab0ed2ff-10" class="color_0.004">0.004</text>
    </g>
    <g stroke="#000000" stroke-opacity="0.000" id="img-ab0ed2ff-11">
      <rect x="130.62" y="36.93" width="1.73" height="1.73" id="img-ab0ed2ff-12" class="color_0.00025" fill="#00BFFF"/>
      <rect x="130.62" y="40.4" width="1.73" height="1.73" id="img-ab0ed2ff-13" class="color_0.0005" fill="#D4CA3A"/>
      <rect x="130.62" y="43.87" width="1.73" height="1.73" id="img-ab0ed2ff-14" class="color_0.001" fill="#FF6DAE"/>
      <rect x="130.62" y="47.34" width="1.73" height="1.73" id="img-ab0ed2ff-15" class="color_0.002" fill="#00B78D"/>
      <rect x="130.62" y="50.81" width="1.73" height="1.73" id="img-ab0ed2ff-16" class="color_0.004" fill="#BEA9FF"/>
    </g>
    <g fill="#362A35" font-size="3.88" font-family="'PT Sans','Helvetica Neue','Helvetica',sans-serif" stroke="#000000" stroke-opacity="0.000" id="img-ab0ed2ff-17">
      <text x="130.62" y="33.74" id="img-ab0ed2ff-18">i</text>
    </g>
  </g>
<g clip-path="url(#img-ab0ed2ff-19)">
  <g id="img-ab0ed2ff-20">
    <g pointer-events="visible" opacity="1" fill="#000000" fill-opacity="0.000" stroke="#000000" stroke-opacity="0.000" class="guide background" id="img-ab0ed2ff-21">
      <rect x="17.35" y="5" width="112.27" height="76" id="img-ab0ed2ff-22"/>
    </g>
    <g class="guide ygridlines xfixed" stroke-dasharray="0.5,0.5" stroke-width="0.2" stroke="#D0D0E0" id="img-ab0ed2ff-23">
      <path fill="none" d="M17.35,79 L 129.62 79" id="img-ab0ed2ff-24"/>
      <path fill="none" d="M17.35,67 L 129.62 67" id="img-ab0ed2ff-25"/>
      <path fill="none" d="M17.35,55 L 129.62 55" id="img-ab0ed2ff-26"/>
      <path fill="none" d="M17.35,43 L 129.62 43" id="img-ab0ed2ff-27"/>
      <path fill="none" d="M17.35,31 L 129.62 31" id="img-ab0ed2ff-28"/>
      <path fill="none" d="M17.35,19 L 129.62 19" id="img-ab0ed2ff-29"/>
      <path fill="none" d="M17.35,7 L 129.62 7" id="img-ab0ed2ff-30"/>
    </g>
    <g class="guide xgridlines yfixed" stroke-dasharray="0.5,0.5" stroke-width="0.2" stroke="#D0D0E0" id="img-ab0ed2ff-31">
      <path fill="none" d="M19.35,5 L 19.35 81" id="img-ab0ed2ff-32"/>
      <path fill="none" d="M46.42,5 L 46.42 81" id="img-ab0ed2ff-33"/>
      <path fill="none" d="M73.49,5 L 73.49 81" id="img-ab0ed2ff-34"/>
      <path fill="none" d="M100.56,5 L 100.56 81" id="img-ab0ed2ff-35"/>
      <path fill="none" d="M127.62,5 L 127.62 81" id="img-ab0ed2ff-36"/>
    </g>
    <g class="plotpanel" id="img-ab0ed2ff-37">
      <g stroke-width="0.3" fill="#000000" fill-opacity="0.000" stroke-dasharray="none" id="img-ab0ed2ff-38">
        <path fill="none" d="M19.35,19 L 22.06 19 24.76 18.97 27.47 18.94 30.18 18.92 32.88 18.91 35.59 18.89 38.3 18.89 41 18.89 43.71 18.9 46.42 18.96 49.13 19.15 51.83 19.72 54.54 21.08 57.25 23.74 59.95 28.31 62.66 34.65 65.37 41.61 68.07 47.91 70.78 52.75 73.49 55.92 76.19 57.84 78.9 58.82 81.61 59.36 84.31 59.73 87.02 59.98 89.73 60.28 92.43 60.6 95.14 60.9 97.85 61.09 100.56 61.22 103.26 61.3 105.97 61.39 108.68 61.47 111.38 61.58 114.09 61.67 116.8 61.74 119.5 61.8 122.21 61.85 124.92 61.87" id="img-ab0ed2ff-39" stroke="#00B78D" class="geometry color_0.002"/>
        <path fill="none" d="M19.35,19 L 22.06 19 24.76 18.97 27.47 18.96 30.18 18.94 32.88 18.92 35.59 18.91 38.3 18.93 41 19.01 43.71 19.55 46.42 21.24 49.13 25.1 51.83 31.99 54.54 39.87 57.25 46.47 59.95 50.62 62.66 53.04 65.37 54.74 68.07 56.05 70.78 57.11 73.49 58.04 76.19 58.83 78.9 59.59 81.61 60.43 84.31 61.07 87.02 61.48 89.73 61.76 92.43 61.91 95.14 62.09 97.85 62.19 100.56 62.3 103.26 62.41 105.97 62.51 108.68 62.57 111.38 62.61 114.09 62.63 116.8 62.63 119.5 62.63 122.21 62.63 124.92 62.63" id="img-ab0ed2ff-40" stroke="#00BFFF" class="geometry color_0.00025"/>
        <path fill="none" d="M19.35,19 L 22.06 18.99 24.76 18.96 27.47 18.94 30.18 18.91 32.88 18.88 35.59 18.85 38.3 18.84 41 18.82 43.71 18.78 46.42 18.74 49.13 18.73 51.83 18.71 54.54 18.69 57.25 18.66 59.95 18.64 62.66 18.61 65.37 18.59 68.07 18.57 70.78 18.54 73.49 18.52 76.19 18.51 78.9 18.48 81.61 18.45 84.31 18.41 87.02 18.4 89.73 18.36 92.43 18.35 95.14 18.32 97.85 18.28 100.56 18.26 103.26 18.23 105.97 18.2 108.68 18.17 111.38 18.15 114.09 18.12 116.8 18.09 119.5 18.07 122.21 18.05 124.92 18.02" id="img-ab0ed2ff-41" stroke="#BEA9FF" class="geometry color_0.004"/>
        <path fill="none" d="M19.35,19 L 22.06 18.99 24.76 18.98 27.47 18.97 30.18 18.95 32.88 18.94 35.59 18.94 38.3 18.95 41 18.99 43.71 19.32 46.42 20.71 49.13 24.35 51.83 30.92 54.54 39.41 57.25 46.74 59.95 51.53 62.66 54.34 65.37 56.19 68.07 57.41 70.78 58.38 73.49 59.12 76.19 59.75 78.9 60.41 81.61 61.2 84.31 61.78 87.02 62.14 89.73 62.37 92.43 62.53 95.14 62.61 97.85 62.73 100.56 62.82 103.26 62.94 105.97 63.04 108.68 63.11 111.38 63.17 114.09 63.2 116.8 63.21 119.5 63.22 122.21 63.22 124.92 63.23" id="img-ab0ed2ff-42" stroke="#D4CA3A" class="geometry color_0.0005"/>
        <path fill="none" d="M19.35,19 L 22.06 19 24.76 18.97 27.47 18.95 30.18 18.94 32.88 18.93 35.59 18.92 38.3 18.92 41 18.94 43.71 19.1 46.42 19.83 49.13 22.07 51.83 26.79 54.54 34.34 57.25 42.39 59.95 48.86 62.66 53.1 65.37 55.74 68.07 57.33 70.78 58.41 73.49 59.13 76.19 59.69 78.9 60.27 81.61 60.82 84.31 61.4 87.02 61.85 89.73 62.06 92.43 62.25 95.14 62.35 97.85 62.47 100.56 62.54 103.26 62.64 105.97 62.74 108.68 62.84 111.38 62.91 114.09 62.94 116.8 62.96 119.5 62.98 122.21 62.97 124.92 62.98" id="img-ab0ed2ff-43" stroke="#FF6DAE" class="geometry color_0.001"/>
      </g>
    </g>
  </g>
</g>
  <g class="guide ylabels" font-size="2.82" font-family="'PT Sans Caption','Helvetica Neue','Helvetica',sans-serif" fill="#6C606B" id="img-ab0ed2ff-44">
    <text x="16.35" y="79" text-anchor="end" dy="0.35em" id="img-ab0ed2ff-45">0</text>
    <text x="16.35" y="67" text-anchor="end" dy="0.35em" id="img-ab0ed2ff-46">10</text>
    <text x="16.35" y="55" text-anchor="end" dy="0.35em" id="img-ab0ed2ff-47">20</text>
    <text x="16.35" y="43" text-anchor="end" dy="0.35em" id="img-ab0ed2ff-48">30</text>
    <text x="16.35" y="31" text-anchor="end" dy="0.35em" id="img-ab0ed2ff-49">40</text>
    <text x="16.35" y="19" text-anchor="end" dy="0.35em" id="img-ab0ed2ff-50">50</text>
    <text x="16.35" y="7" text-anchor="end" dy="0.35em" id="img-ab0ed2ff-51">60</text>
  </g>
  <g font-size="3.88" font-family="'PT Sans','Helvetica Neue','Helvetica',sans-serif" fill="#564A55" stroke="#000000" stroke-opacity="0.000" id="img-ab0ed2ff-52">
    <text x="8.41" y="41" text-anchor="middle" dy="0.35em" transform="rotate(-90, 8.41, 43)" id="img-ab0ed2ff-53">Numero de Variedades</text>
  </g>
</g>
<defs>
  <clipPath id="img-ab0ed2ff-19">
  <path d="M17.35,5 L 129.62 5 129.62 81 17.35 81" />
</clipPath>
</defs>
</svg>
