<?xml version="1.0" encoding="UTF-8"?>
<svg xmlns="http://www.w3.org/2000/svg"
     xmlns:xlink="http://www.w3.org/1999/xlink"
     xmlns:gadfly="http://www.gadflyjl.org/ns"
     version="1.2"
     width="200mm" height="100mm" viewBox="0 0 200 100"
     stroke="none"
     fill="#000000"
     stroke-width="0.3"
     font-size="3.88"
>
<g class="plotroot xscalable yscalable" id="img-edc3765a-1">
  <g font-size="3.88" font-family="'PT Sans','Helvetica Neue','Helvetica',sans-serif" fill="#564A55" stroke="#000000" stroke-opacity="0.000" id="img-edc3765a-2">
    <text x="74.35" y="88.82" text-anchor="middle" dy="0.6em">Parâmetro</text>
  </g>
  <g class="guide xlabels" font-size="2.82" font-family="'PT Sans Caption','Helvetica Neue','Helvetica',sans-serif" fill="#6C606B" id="img-edc3765a-3">
    <text x="12.53" y="82.36" text-anchor="middle" dy="0.6em">0.0</text>
    <text x="74.35" y="82.36" text-anchor="middle" dy="0.6em">0.5</text>
    <text x="136.17" y="82.36" text-anchor="middle" dy="0.6em">1.0</text>
  </g>
  <g class="guide colorkey" id="img-edc3765a-4">
    <g fill="#4C404B" font-size="2.82" font-family="'PT Sans','Helvetica Neue','Helvetica',sans-serif" id="img-edc3765a-5">
      <text x="142.44" y="43.18" dy="0.35em">Número de Variedades</text>
      <text x="142.44" y="47.71" dy="0.35em">Número Médio de Variedades por UD</text>
    </g>
    <g stroke="#000000" stroke-opacity="0.000" id="img-edc3765a-6">
      <rect x="139.17" y="42.05" width="2.26" height="2.26" fill="#008000"/>
      <rect x="139.17" y="46.57" width="2.26" height="2.26" fill="#FF0000"/>
    </g>
    <g fill="#362A35" font-size="3.88" font-family="'PT Sans','Helvetica Neue','Helvetica',sans-serif" stroke="#000000" stroke-opacity="0.000" id="img-edc3765a-7">
      <text x="139.17" y="36.65"></text>
    </g>
  </g>
<g clip-path="url(#img-edc3765a-8)">
  <g id="img-edc3765a-9">
    <g pointer-events="visible" opacity="1" fill="#000000" fill-opacity="0.000" stroke="#000000" stroke-opacity="0.000" class="guide background" id="img-edc3765a-10">
      <rect x="10.53" y="5" width="127.64" height="76.36"/>
    </g>
    <g class="guide ygridlines xfixed" stroke-dasharray="0.5,0.5" stroke-width="0.2" stroke="#D0D0E0" id="img-edc3765a-11">
      <path fill="none" d="M10.53,79.36 L 138.17 79.36"/>
      <path fill="none" d="M10.53,61.27 L 138.17 61.27"/>
      <path fill="none" d="M10.53,43.18 L 138.17 43.18"/>
      <path fill="none" d="M10.53,25.09 L 138.17 25.09"/>
      <path fill="none" d="M10.53,7 L 138.17 7"/>
    </g>
    <g class="guide xgridlines yfixed" stroke-dasharray="0.5,0.5" stroke-width="0.2" stroke="#D0D0E0" id="img-edc3765a-12">
      <path fill="none" d="M12.53,5 L 12.53 81.36"/>
      <path fill="none" d="M74.35,5 L 74.35 81.36"/>
      <path fill="none" d="M136.17,5 L 136.17 81.36"/>
    </g>
    <g class="plotpanel" id="img-edc3765a-13">
      <g stroke-width="0.3" fill="#000000" fill-opacity="0.000" class="geometry" stroke-dasharray="none" stroke="#FF0000" id="img-edc3765a-14">
        <path fill="none" d="M18.71,77.03 L 24.89 76.96 31.07 76.91 37.26 76.84 43.44 76.79 49.62 76.77 55.8 76.78 61.99 76.84 68.17 76.84 74.35 76.92 80.53 76.96 86.71 76.98 92.9 77.09 99.08 77.14 105.26 77.19 111.44 77.09 117.63 75.84 123.81 75.32 129.99 74.84 136.17 74.93"/>
      </g>
      <g stroke-width="0.3" fill="#000000" fill-opacity="0.000" class="geometry" stroke-dasharray="none" stroke="#008000" id="img-edc3765a-15">
        <path fill="none" d="M18.71,20.07 L 24.89 22.91 31.07 25.8 37.26 29.79 43.44 33.49 49.62 37.77 55.8 42.19 61.99 46.9 68.17 49.96 74.35 54.09 80.53 58.75 86.71 60.66 92.9 64.87 99.08 66.67 105.26 68.61 111.44 70.71 117.63 71.07 123.81 71.38 129.99 71.2 136.17 71.88"/>
      </g>
    </g>
  </g>
</g>
  <g class="guide ylabels" font-size="2.82" font-family="'PT Sans Caption','Helvetica Neue','Helvetica',sans-serif" fill="#6C606B" id="img-edc3765a-16">
    <text x="9.53" y="79.36" text-anchor="end" dy="0.35em">0</text>
    <text x="9.53" y="61.27" text-anchor="end" dy="0.35em">10</text>
    <text x="9.53" y="43.18" text-anchor="end" dy="0.35em">20</text>
    <text x="9.53" y="25.09" text-anchor="end" dy="0.35em">30</text>
    <text x="9.53" y="7" text-anchor="end" dy="0.35em">40</text>
  </g>
</g>
<defs>
  <clipPath id="img-edc3765a-8">
  <path d="M10.53,5 L 138.17 5 138.17 81.36 10.53 81.36" />
</clipPath>
</defs>
</svg>
