<?xml version="1.0" encoding="UTF-8"?>
<svg xmlns="http://www.w3.org/2000/svg"
     xmlns:xlink="http://www.w3.org/1999/xlink"
     xmlns:gadfly="http://www.gadflyjl.org/ns"
     version="1.2"
     width="150mm" height="100mm" viewBox="0 0 150 100"
     stroke="none"
     fill="#000000"
     stroke-width="0.3"
     font-size="3.88"
>
<g class="plotroot xscalable yscalable" id="img-54a9cccd-1">
  <g font-size="3.88" font-family="'PT Sans','Helvetica Neue','Helvetica',sans-serif" fill="#564A55" stroke="#000000" stroke-opacity="0.000" id="img-54a9cccd-2">
    <text x="78.43" y="88.47" text-anchor="middle" dy="0.6em">Appearence</text>
  </g>
  <g class="guide xlabels" font-size="2.82" font-family="'PT Sans Caption','Helvetica Neue','Helvetica',sans-serif" fill="#6C606B" id="img-54a9cccd-3">
    <text x="22.88" y="82" text-anchor="middle" dy="0.6em">0.0</text>
    <text x="78.43" y="82" text-anchor="middle" dy="0.6em">0.5</text>
    <text x="133.97" y="82" text-anchor="middle" dy="0.6em">1.0</text>
  </g>
  <g class="guide colorkey" id="img-54a9cccd-4">
    <g fill="#4C404B" font-size="2.82" font-family="'PT Sans','Helvetica Neue','Helvetica',sans-serif" id="img-54a9cccd-5">
      <text x="139.71" y="37.8" dy="0.35em" id="img-54a9cccd-6" class="color_10">10</text>
      <text x="139.71" y="41.27" dy="0.35em" id="img-54a9cccd-7" class="color_25">25</text>
      <text x="139.71" y="44.74" dy="0.35em" id="img-54a9cccd-8" class="color_50">50</text>
      <text x="139.71" y="48.21" dy="0.35em" id="img-54a9cccd-9" class="color_75">75</text>
      <text x="139.71" y="51.68" dy="0.35em" id="img-54a9cccd-10" class="color_100">100</text>
    </g>
    <g stroke="#000000" stroke-opacity="0.000" id="img-54a9cccd-11">
      <rect x="136.97" y="36.93" width="1.73" height="1.73" id="img-54a9cccd-12" class="color_10" fill="#00BFFF"/>
      <rect x="136.97" y="40.4" width="1.73" height="1.73" id="img-54a9cccd-13" class="color_25" fill="#D4CA3A"/>
      <rect x="136.97" y="43.87" width="1.73" height="1.73" id="img-54a9cccd-14" class="color_50" fill="#FF6DAE"/>
      <rect x="136.97" y="47.34" width="1.73" height="1.73" id="img-54a9cccd-15" class="color_75" fill="#00B78D"/>
      <rect x="136.97" y="50.81" width="1.73" height="1.73" id="img-54a9cccd-16" class="color_100" fill="#BEA9FF"/>
    </g>
    <g fill="#362A35" font-size="3.88" font-family="'PT Sans','Helvetica Neue','Helvetica',sans-serif" stroke="#000000" stroke-opacity="0.000" id="img-54a9cccd-17">
      <text x="136.97" y="33.39" id="img-54a9cccd-18">v</text>
    </g>
  </g>
<g clip-path="url(#img-54a9cccd-19)">
  <g id="img-54a9cccd-20">
    <g pointer-events="visible" opacity="1" fill="#000000" fill-opacity="0.000" stroke="#000000" stroke-opacity="0.000" class="guide background" id="img-54a9cccd-21">
      <rect x="20.88" y="5" width="115.1" height="76" id="img-54a9cccd-22"/>
    </g>
    <g class="guide ygridlines xfixed" stroke-dasharray="0.5,0.5" stroke-width="0.2" stroke="#D0D0E0" id="img-54a9cccd-23">
      <path fill="none" d="M20.88,79 L 135.97 79" id="img-54a9cccd-24"/>
      <path fill="none" d="M20.88,43 L 135.97 43" id="img-54a9cccd-25"/>
      <path fill="none" d="M20.88,7 L 135.97 7" id="img-54a9cccd-26"/>
    </g>
    <g class="guide xgridlines yfixed" stroke-dasharray="0.5,0.5" stroke-width="0.2" stroke="#D0D0E0" id="img-54a9cccd-27">
      <path fill="none" d="M22.88,5 L 22.88 81" id="img-54a9cccd-28"/>
      <path fill="none" d="M78.43,5 L 78.43 81" id="img-54a9cccd-29"/>
      <path fill="none" d="M133.97,5 L 133.97 81" id="img-54a9cccd-30"/>
    </g>
    <g class="plotpanel" id="img-54a9cccd-31">
      <g stroke-width="0.3" fill="#000000" fill-opacity="0.000" stroke-dasharray="none" id="img-54a9cccd-32">
        <path fill="none" d="M25.66,40.8 L 31.21 44.79 36.76 36.83 42.32 46.9 47.87 44.91 53.43 42.68 58.98 39.02 64.54 44.16 70.09 47.99 75.65 41.1 81.2 38.5 86.76 44.21 92.31 44.94 97.87 42.16 103.42 44.21 108.98 48.5 114.53 38.72 120.09 47.93 125.64 39.4 131.2 42.27" id="img-54a9cccd-33" stroke="#00B78D" class="geometry color_75"/>
        <path fill="none" d="M25.66,45.25 L 31.21 39.26 36.76 43.41 42.32 49.5 47.87 43.18 53.43 36.15 58.98 42.44 64.54 39.85 70.09 45.87 75.65 44.74 81.2 45.13 86.76 42.63 92.31 43.14 97.87 49.37 103.42 41.28 108.98 40.66 114.53 45.1 120.09 38.99 125.64 38.9 131.2 45.19" id="img-54a9cccd-34" stroke="#00BFFF" class="geometry color_10"/>
        <path fill="none" d="M25.66,43.64 L 31.21 40.22 36.76 48.15 42.32 35.5 47.87 44.62 53.43 40.59 58.98 46.44 64.54 37.57 70.09 42.58 75.65 44.1 81.2 42.86 86.76 43.68 92.31 44.04 97.87 46.68 103.42 42.33 108.98 43.13 114.53 39.83 120.09 41.54 125.64 44.36 131.2 48.18" id="img-54a9cccd-35" stroke="#BEA9FF" class="geometry color_100"/>
        <path fill="none" d="M25.66,47.12 L 31.21 46.79 36.76 42.99 42.32 38.12 47.87 49.3 53.43 38.81 58.98 32.28 64.54 49.05 70.09 39.92 75.65 46.83 81.2 42.38 86.76 40.54 92.31 45.22 97.87 47.42 103.42 42.56 108.98 42.34 114.53 41.37 120.09 35.12 125.64 45.47 131.2 46.4" id="img-54a9cccd-36" stroke="#D4CA3A" class="geometry color_25"/>
        <path fill="none" d="M25.66,42.93 L 31.21 38.3 36.76 47.49 42.32 38.98 47.87 44.06 53.43 43.9 58.98 38.47 64.54 46.1 70.09 40.74 75.65 39.14 81.2 43.49 86.76 43.34 92.31 41.03 97.87 45.13 103.42 46.21 108.98 43.46 114.53 45.9 120.09 39.74 125.64 44.17 131.2 47.43" id="img-54a9cccd-37" stroke="#FF6DAE" class="geometry color_50"/>
      </g>
    </g>
  </g>
</g>
  <g class="guide ylabels" font-size="2.82" font-family="'PT Sans Caption','Helvetica Neue','Helvetica',sans-serif" fill="#6C606B" id="img-54a9cccd-38">
    <text x="19.88" y="79" text-anchor="end" dy="0.35em" id="img-54a9cccd-39">0.00</text>
    <text x="19.88" y="43" text-anchor="end" dy="0.35em" id="img-54a9cccd-40">0.05</text>
    <text x="19.88" y="7" text-anchor="end" dy="0.35em" id="img-54a9cccd-41">0.10</text>
  </g>
  <g font-size="3.88" font-family="'PT Sans','Helvetica Neue','Helvetica',sans-serif" fill="#564A55" stroke="#000000" stroke-opacity="0.000" id="img-54a9cccd-42">
    <text x="8.76" y="41" text-anchor="middle" dy="0.35em" transform="rotate(-90, 8.76, 43)" id="img-54a9cccd-43">Frequencia</text>
  </g>
</g>
<defs>
  <clipPath id="img-54a9cccd-19">
  <path d="M20.88,5 L 135.97 5 135.97 81 20.88 81" />
</clipPath>
</defs>
</svg>
