<?xml version="1.0" encoding="UTF-8"?>
<svg xmlns="http://www.w3.org/2000/svg"
     xmlns:xlink="http://www.w3.org/1999/xlink"
     xmlns:gadfly="http://www.gadflyjl.org/ns"
     version="1.2"
     width="150mm" height="100mm" viewBox="0 0 150 100"
     stroke="none"
     fill="#000000"
     stroke-width="0.3"
     font-size="3.88"
>
<g class="plotroot xscalable yscalable" id="img-a2a74460-1">
  <g font-size="3.88" font-family="'PT Sans','Helvetica Neue','Helvetica',sans-serif" fill="#564A55" stroke="#000000" stroke-opacity="0.000" id="img-a2a74460-2">
    <text x="82.06" y="88.47" text-anchor="middle" dy="0.6em">Numero Medio de Variedades por UD</text>
  </g>
  <g class="guide xlabels" font-size="2.82" font-family="'PT Sans Caption','Helvetica Neue','Helvetica',sans-serif" fill="#6C606B" id="img-a2a74460-3">
    <text x="21.11" y="82" text-anchor="middle" dy="0.6em">0</text>
    <text x="51.59" y="82" text-anchor="middle" dy="0.6em">5</text>
    <text x="82.06" y="82" text-anchor="middle" dy="0.6em">10</text>
    <text x="112.53" y="82" text-anchor="middle" dy="0.6em">15</text>
    <text x="143" y="82" text-anchor="middle" dy="0.6em">20</text>
  </g>
<g clip-path="url(#img-a2a74460-4)">
  <g id="img-a2a74460-5">
    <g pointer-events="visible" opacity="1" fill="#000000" fill-opacity="0.000" stroke="#000000" stroke-opacity="0.000" class="guide background" id="img-a2a74460-6">
      <rect x="19.11" y="5" width="125.89" height="76"/>
    </g>
    <g class="guide ygridlines xfixed" stroke-dasharray="0.5,0.5" stroke-width="0.2" stroke="#D0D0E0" id="img-a2a74460-7">
      <path fill="none" d="M19.11,79 L 145 79"/>
      <path fill="none" d="M19.11,43 L 145 43"/>
      <path fill="none" d="M19.11,7 L 145 7"/>
    </g>
    <g class="guide xgridlines yfixed" stroke-dasharray="0.5,0.5" stroke-width="0.2" stroke="#D0D0E0" id="img-a2a74460-8">
      <path fill="none" d="M21.11,5 L 21.11 81"/>
      <path fill="none" d="M51.59,5 L 51.59 81"/>
      <path fill="none" d="M82.06,5 L 82.06 81"/>
      <path fill="none" d="M112.53,5 L 112.53 81"/>
      <path fill="none" d="M143,5 L 143 81"/>
    </g>
    <g class="plotpanel" id="img-a2a74460-9">
      <g shape-rendering="crispEdges" stroke-width="0.3" id="img-a2a74460-10">
        <g stroke="#000000" stroke-opacity="0.000" class="geometry" fill="#00BFFF" id="img-a2a74460-11">
          <rect x="24.14" y="28.08" width="6.14" height="50.92"/>
          <rect x="30.23" y="59.22" width="6.14" height="19.78"/>
          <rect x="36.32" y="78.33" width="6.14" height="0.67"/>
          <rect x="42.42" y="78.75" width="6.14" height="0.25"/>
          <rect x="48.51" y="78.89" width="6.14" height="0.12"/>
          <rect x="54.61" y="78.95" width="6.14" height="0.06"/>
          <rect x="60.7" y="78.94" width="6.14" height="0.06"/>
          <rect x="66.8" y="78.97" width="6.14" height="0.03"/>
          <rect x="72.89" y="78.99" width="6.14" height="0.02"/>
          <rect x="78.98" y="78.98" width="6.14" height="0.03"/>
          <rect x="85.08" y="78.99" width="6.14" height="0.01"/>
          <rect x="91.17" y="78.98" width="6.14" height="0.02"/>
          <rect x="97.27" y="79" width="6.14" height="0.01"/>
          <rect x="103.36" y="79" width="6.14" height="0.01"/>
          <rect x="109.46" y="79" width="6.14" height="0.01"/>
          <rect x="115.55" y="79" width="6.14" height="0.01"/>
          <rect x="121.64" y="79" width="6.14" height="0.01"/>
          <rect x="127.74" y="79" width="6.14" height="0.01"/>
          <rect x="133.83" y="79" width="6.14" height="0.01"/>
          <rect x="139.93" y="79" width="6.14" height="0.01"/>
          <rect x="146.02" y="79" width="6.14" height="0.01"/>
          <rect x="152.12" y="79" width="6.14" height="0.01"/>
          <rect x="158.21" y="79" width="6.14" height="0.01"/>
          <rect x="164.31" y="79" width="6.14" height="0.01"/>
          <rect x="170.4" y="79" width="6.14" height="0.01"/>
          <rect x="176.49" y="79" width="6.14" height="0.01"/>
          <rect x="182.59" y="79" width="6.14" height="0.01"/>
          <rect x="188.68" y="79" width="6.14" height="0.01"/>
          <rect x="194.78" y="79" width="6.14" height="0.01"/>
          <rect x="200.87" y="79" width="6.14" height="0.01"/>
          <rect x="206.97" y="78.99" width="6.14" height="0.01"/>
          <rect x="213.06" y="79" width="6.14" height="0.01"/>
          <rect x="219.15" y="79" width="6.14" height="0.01"/>
          <rect x="225.25" y="79" width="6.14" height="0.01"/>
          <rect x="231.34" y="79" width="6.14" height="0.01"/>
          <rect x="237.44" y="79" width="6.14" height="0.01"/>
          <rect x="243.53" y="79" width="6.14" height="0.01"/>
          <rect x="249.63" y="79" width="6.14" height="0.01"/>
          <rect x="255.72" y="79" width="6.14" height="0.01"/>
          <rect x="261.81" y="79" width="6.14" height="0.01"/>
          <rect x="267.91" y="79" width="6.14" height="0.01"/>
          <rect x="274" y="79" width="6.14" height="0.01"/>
          <rect x="280.1" y="79" width="6.14" height="0.01"/>
          <rect x="286.19" y="79" width="6.14" height="0.01"/>
          <rect x="292.29" y="79" width="6.14" height="0.01"/>
          <rect x="298.38" y="79" width="6.14" height="0.01"/>
          <rect x="304.47" y="79" width="6.14" height="0.01"/>
          <rect x="310.57" y="79" width="6.14" height="0.01"/>
          <rect x="316.66" y="79" width="6.14" height="0.01"/>
        </g>
      </g>
    </g>
  </g>
</g>
  <g class="guide ylabels" font-size="2.82" font-family="'PT Sans Caption','Helvetica Neue','Helvetica',sans-serif" fill="#6C606B" id="img-a2a74460-12">
    <text x="18.11" y="79" text-anchor="end" dy="0.35em">0.0</text>
    <text x="18.11" y="43" text-anchor="end" dy="0.35em">0.5</text>
    <text x="18.11" y="7" text-anchor="end" dy="0.35em">1.0</text>
  </g>
  <g font-size="3.88" font-family="'PT Sans','Helvetica Neue','Helvetica',sans-serif" fill="#564A55" stroke="#000000" stroke-opacity="0.000" id="img-a2a74460-13">
    <text x="8.76" y="41" text-anchor="middle" dy="0.35em" transform="rotate(-90, 8.76, 43)">Frequencia</text>
  </g>
</g>
<defs>
  <clipPath id="img-a2a74460-4">
  <path d="M19.11,5 L 145 5 145 81 19.11 81" />
</clipPath>
</defs>
</svg>
