<?xml version="1.0" encoding="UTF-8"?>
<svg xmlns="http://www.w3.org/2000/svg"
     xmlns:xlink="http://www.w3.org/1999/xlink"
     xmlns:gadfly="http://www.gadflyjl.org/ns"
     version="1.2"
     width="150mm" height="100mm" viewBox="0 0 150 100"
     stroke="none"
     fill="#000000"
     stroke-width="0.3"
     font-size="3.88"
>
<g class="plotroot xscalable yscalable" id="img-c420b175-1">
  <g font-size="3.88" font-family="'PT Sans','Helvetica Neue','Helvetica',sans-serif" fill="#564A55" stroke="#000000" stroke-opacity="0.000" id="img-c420b175-2">
    <text x="72.25" y="89.18" text-anchor="middle" dy="0.6em">value</text>
  </g>
  <g class="guide xlabels" font-size="2.82" font-family="'PT Sans Caption','Helvetica Neue','Helvetica',sans-serif" fill="#6C606B" id="img-c420b175-3">
    <text x="22.17" y="82.71" text-anchor="middle" dy="0.6em">0.0</text>
    <text x="72.25" y="82.71" text-anchor="middle" dy="0.6em">0.5</text>
    <text x="122.33" y="82.71" text-anchor="middle" dy="0.6em">1.0</text>
  </g>
  <g class="guide colorkey" id="img-c420b175-4">
    <g fill="#4C404B" font-size="2.82" font-family="'PT Sans','Helvetica Neue','Helvetica',sans-serif" id="img-c420b175-5">
      <text x="128.42" y="43.35" dy="0.35em">Fitness</text>
      <text x="128.42" y="47.53" dy="0.35em">Appearence</text>
    </g>
    <g stroke="#000000" stroke-opacity="0.000" id="img-c420b175-6">
      <rect x="125.33" y="42.31" width="2.09" height="2.09" fill="#008000"/>
      <rect x="125.33" y="46.49" width="2.09" height="2.09" fill="#FF0000"/>
    </g>
    <g fill="#362A35" font-size="3.88" font-family="'PT Sans','Helvetica Neue','Helvetica',sans-serif" stroke="#000000" stroke-opacity="0.000" id="img-c420b175-7">
      <text x="125.33" y="37.18"></text>
    </g>
  </g>
<g clip-path="url(#img-c420b175-8)">
  <g id="img-c420b175-9">
    <g pointer-events="visible" opacity="1" fill="#000000" fill-opacity="0.000" stroke="#000000" stroke-opacity="0.000" class="guide background" id="img-c420b175-10">
      <rect x="20.17" y="5" width="104.16" height="76.71"/>
    </g>
    <g class="guide ygridlines xfixed" stroke-dasharray="0.5,0.5" stroke-width="0.2" stroke="#D0D0E0" id="img-c420b175-11">
      <path fill="none" d="M20.17,79.71 L 124.33 79.71"/>
      <path fill="none" d="M20.17,61.53 L 124.33 61.53"/>
      <path fill="none" d="M20.17,43.35 L 124.33 43.35"/>
      <path fill="none" d="M20.17,25.18 L 124.33 25.18"/>
      <path fill="none" d="M20.17,7 L 124.33 7"/>
    </g>
    <g class="guide xgridlines yfixed" stroke-dasharray="0.5,0.5" stroke-width="0.2" stroke="#D0D0E0" id="img-c420b175-12">
      <path fill="none" d="M22.17,5 L 22.17 81.71"/>
      <path fill="none" d="M72.25,5 L 72.25 81.71"/>
      <path fill="none" d="M122.33,5 L 122.33 81.71"/>
    </g>
    <g class="plotpanel" id="img-c420b175-13">
      <g shape-rendering="crispEdges" stroke-width="0.3" id="img-c420b175-14">
        <g stroke="#000000" stroke-opacity="0.000" class="geometry" fill="#FF0000" fill-opacity="0.400" id="img-c420b175-15">
          <rect x="22.15" y="60.39" width="5.06" height="19.32"/>
          <rect x="27.16" y="61.6" width="5.06" height="18.11"/>
          <rect x="32.16" y="64.07" width="5.06" height="15.64"/>
          <rect x="37.17" y="60.88" width="5.06" height="18.83"/>
          <rect x="42.18" y="57.46" width="5.06" height="22.24"/>
          <rect x="47.19" y="60.04" width="5.06" height="19.66"/>
          <rect x="52.2" y="63.35" width="5.06" height="16.36"/>
          <rect x="57.2" y="63.6" width="5.06" height="16.11"/>
          <rect x="62.21" y="63.41" width="5.06" height="16.3"/>
          <rect x="67.22" y="58.52" width="5.06" height="21.19"/>
          <rect x="72.23" y="63.47" width="5.06" height="16.24"/>
          <rect x="77.24" y="61.47" width="5.06" height="18.24"/>
          <rect x="82.24" y="59.49" width="5.06" height="20.22"/>
          <rect x="87.25" y="59.82" width="5.06" height="19.89"/>
          <rect x="92.26" y="62.46" width="5.06" height="17.25"/>
          <rect x="97.27" y="61.01" width="5.06" height="18.69"/>
          <rect x="102.28" y="62.79" width="5.06" height="16.92"/>
          <rect x="107.28" y="61.02" width="5.06" height="18.69"/>
          <rect x="112.29" y="63.07" width="5.06" height="16.63"/>
          <rect x="117.3" y="62.71" width="5.06" height="17"/>
        </g>
      </g>
      <g shape-rendering="crispEdges" stroke-width="0.3" id="img-c420b175-16">
        <g stroke="#000000" stroke-opacity="0.000" class="geometry" fill="#00FF00" fill-opacity="0.400" id="img-c420b175-17">
          <rect x="22.15" y="73.31" width="5.06" height="6.4"/>
          <rect x="27.16" y="74.49" width="5.06" height="5.22"/>
          <rect x="32.16" y="74.63" width="5.06" height="5.07"/>
          <rect x="37.17" y="72.15" width="5.06" height="7.56"/>
          <rect x="42.18" y="69.89" width="5.06" height="9.82"/>
          <rect x="47.19" y="68.51" width="5.06" height="11.2"/>
          <rect x="52.2" y="65.19" width="5.06" height="14.52"/>
          <rect x="57.2" y="60.24" width="5.06" height="19.46"/>
          <rect x="62.21" y="51.79" width="5.06" height="27.92"/>
          <rect x="67.22" y="46.1" width="5.06" height="33.61"/>
          <rect x="72.23" y="35.95" width="5.06" height="43.76"/>
          <rect x="77.24" y="30.28" width="5.06" height="49.43"/>
          <rect x="82.24" y="23.06" width="5.06" height="56.65"/>
          <rect x="87.25" y="41.88" width="5.06" height="37.82"/>
          <rect x="92.26" y="57.42" width="5.06" height="22.29"/>
          <rect x="97.27" y="70.9" width="5.06" height="8.81"/>
          <rect x="102.28" y="75.7" width="5.06" height="4"/>
          <rect x="107.28" y="79.71" width="5.06" height="0.01"/>
          <rect x="112.29" y="79.71" width="5.06" height="0.01"/>
          <rect x="117.3" y="79.71" width="5.06" height="0.01"/>
        </g>
      </g>
    </g>
  </g>
</g>
  <g class="guide ylabels" font-size="2.82" font-family="'PT Sans Caption','Helvetica Neue','Helvetica',sans-serif" fill="#6C606B" id="img-c420b175-18">
    <text x="19.17" y="79.71" text-anchor="end" dy="0.35em">0.00</text>
    <text x="19.17" y="61.53" text-anchor="end" dy="0.35em">0.05</text>
    <text x="19.17" y="43.35" text-anchor="end" dy="0.35em">0.10</text>
    <text x="19.17" y="25.18" text-anchor="end" dy="0.35em">0.15</text>
    <text x="19.17" y="7" text-anchor="end" dy="0.35em">0.20</text>
  </g>
  <g font-size="3.88" font-family="'PT Sans','Helvetica Neue','Helvetica',sans-serif" fill="#564A55" stroke="#000000" stroke-opacity="0.000" id="img-c420b175-19">
    <text x="8.41" y="41.35" text-anchor="middle" dy="0.35em" transform="rotate(-90, 8.41, 43.35)">fitness</text>
  </g>
</g>
<defs>
  <clipPath id="img-c420b175-8">
  <path d="M20.17,5 L 124.33 5 124.33 81.71 20.17 81.71" />
</clipPath>
</defs>
</svg>
