<?xml version="1.0" encoding="UTF-8"?>
<svg xmlns="http://www.w3.org/2000/svg"
     xmlns:xlink="http://www.w3.org/1999/xlink"
     xmlns:gadfly="http://www.gadflyjl.org/ns"
     version="1.2"
     width="150mm" height="100mm" viewBox="0 0 150 100"
     stroke="none"
     fill="#000000"
     stroke-width="0.3"
     font-size="3.88"
>
<g class="plotroot xscalable yscalable" id="img-40f232ec-1">
  <g font-size="3.88" font-family="'PT Sans','Helvetica Neue','Helvetica',sans-serif" fill="#564A55" stroke="#000000" stroke-opacity="0.000" id="img-40f232ec-2">
    <text x="74.37" y="88.47" text-anchor="middle" dy="0.6em">Numero Medio de Variedades por UD</text>
  </g>
  <g class="guide xlabels" font-size="2.82" font-family="'PT Sans Caption','Helvetica Neue','Helvetica',sans-serif" fill="#6C606B" id="img-40f232ec-3">
    <text x="21.11" y="82" text-anchor="middle" dy="0.6em">0</text>
    <text x="47.74" y="82" text-anchor="middle" dy="0.6em">5</text>
    <text x="74.37" y="82" text-anchor="middle" dy="0.6em">10</text>
    <text x="101" y="82" text-anchor="middle" dy="0.6em">15</text>
    <text x="127.62" y="82" text-anchor="middle" dy="0.6em">20</text>
  </g>
  <g class="guide colorkey" id="img-40f232ec-4">
    <g fill="#4C404B" font-size="2.82" font-family="'PT Sans','Helvetica Neue','Helvetica',sans-serif" id="img-40f232ec-5">
      <text x="133.36" y="37.8" dy="0.35em" id="img-40f232ec-6" class="color_0.00025">0.00025</text>
      <text x="133.36" y="41.27" dy="0.35em" id="img-40f232ec-7" class="color_0.0005">0.0005</text>
      <text x="133.36" y="44.74" dy="0.35em" id="img-40f232ec-8" class="color_0.001">0.001</text>
      <text x="133.36" y="48.21" dy="0.35em" id="img-40f232ec-9" class="color_0.002">0.002</text>
      <text x="133.36" y="51.68" dy="0.35em" id="img-40f232ec-10" class="color_0.004">0.004</text>
    </g>
    <g stroke="#000000" stroke-opacity="0.000" id="img-40f232ec-11">
      <rect x="130.62" y="36.93" width="1.73" height="1.73" id="img-40f232ec-12" class="color_0.00025" fill="#00BFFF"/>
      <rect x="130.62" y="40.4" width="1.73" height="1.73" id="img-40f232ec-13" class="color_0.0005" fill="#D4CA3A"/>
      <rect x="130.62" y="43.87" width="1.73" height="1.73" id="img-40f232ec-14" class="color_0.001" fill="#FF6DAE"/>
      <rect x="130.62" y="47.34" width="1.73" height="1.73" id="img-40f232ec-15" class="color_0.002" fill="#00B78D"/>
      <rect x="130.62" y="50.81" width="1.73" height="1.73" id="img-40f232ec-16" class="color_0.004" fill="#BEA9FF"/>
    </g>
    <g fill="#362A35" font-size="3.88" font-family="'PT Sans','Helvetica Neue','Helvetica',sans-serif" stroke="#000000" stroke-opacity="0.000" id="img-40f232ec-17">
      <text x="130.62" y="33.74" id="img-40f232ec-18">i</text>
    </g>
  </g>
<g clip-path="url(#img-40f232ec-19)">
  <g id="img-40f232ec-20">
    <g pointer-events="visible" opacity="1" fill="#000000" fill-opacity="0.000" stroke="#000000" stroke-opacity="0.000" class="guide background" id="img-40f232ec-21">
      <rect x="19.11" y="5" width="110.51" height="76" id="img-40f232ec-22"/>
    </g>
    <g class="guide ygridlines xfixed" stroke-dasharray="0.5,0.5" stroke-width="0.2" stroke="#D0D0E0" id="img-40f232ec-23">
      <path fill="none" d="M19.11,79 L 129.62 79" id="img-40f232ec-24"/>
      <path fill="none" d="M19.11,43 L 129.62 43" id="img-40f232ec-25"/>
      <path fill="none" d="M19.11,7 L 129.62 7" id="img-40f232ec-26"/>
    </g>
    <g class="guide xgridlines yfixed" stroke-dasharray="0.5,0.5" stroke-width="0.2" stroke="#D0D0E0" id="img-40f232ec-27">
      <path fill="none" d="M21.11,5 L 21.11 81" id="img-40f232ec-28"/>
      <path fill="none" d="M47.74,5 L 47.74 81" id="img-40f232ec-29"/>
      <path fill="none" d="M74.37,5 L 74.37 81" id="img-40f232ec-30"/>
      <path fill="none" d="M101,5 L 101 81" id="img-40f232ec-31"/>
      <path fill="none" d="M127.62,5 L 127.62 81" id="img-40f232ec-32"/>
    </g>
    <g class="plotpanel" id="img-40f232ec-33">
      <g stroke-width="0.3" fill="#000000" fill-opacity="0.000" stroke-dasharray="none" id="img-40f232ec-34">
        <path fill="none" d="M26.44,28.72 L 31.76 60.89 37.09 77.2 42.42 78.07 47.74 78.55 53.07 78.76 58.39 78.89 63.72 78.97 69.04 78.99 74.37 78.99 79.69 79 85.02 79 90.35 79 95.67 79 101 79 106.32 79 111.65 79 116.97 79 122.3 79 127.62 79 132.95 79 138.27 79 143.6 79 148.93 79 154.25 79 159.58 79 164.9 79 170.23 79 175.55 79 180.88 79 186.2 79 191.53 79 196.85 79 202.18 79 207.51 79 212.83 79 218.16 79 223.48 79 228.81 79 234.13 79 239.46 79 244.78 79 250.11 79 255.44 79 260.76 79 266.09 79 271.41 79 276.74 79 282.06 79" id="img-40f232ec-35" stroke="#00B78D" class="geometry color_0.002"/>
        <path fill="none" d="M26.44,26.46 L 31.76 61.73 37.09 77.8 42.42 78.46 47.74 78.8 53.07 78.89 58.39 78.95 63.72 78.99 69.04 78.99 74.37 78.98 79.69 79 85.02 78.99 90.35 78.99 95.67 78.99 101 79 106.32 79 111.65 79 116.97 79 122.3 79 127.62 79 132.95 79 138.27 79 143.6 79 148.93 79 154.25 79 159.58 79 164.9 79 170.23 79 175.55 79 180.88 79 186.2 79 191.53 79 196.85 79 202.18 79 207.51 79 212.83 79 218.16 79 223.48 79 228.81 79 234.13 79 239.46 79 244.78 79 250.11 79 255.44 79 260.76 79 266.09 79 271.41 79 276.74 79 282.06 79" id="img-40f232ec-36" stroke="#00BFFF" class="geometry color_0.00025"/>
        <path fill="none" d="M26.44,79 L 31.76 79 37.09 79 42.42 79 47.74 79 53.07 79 58.39 78.99 63.72 78.99 69.04 78.99 74.37 78.99 79.69 78.96 85.02 78.95 90.35 78.93 95.67 78.84 101 78.79 106.32 78.58 111.65 78.4 116.97 78.12 122.3 77.85 127.62 77.23 132.95 76.83 138.27 75.98 143.6 74.89 148.93 74.12 154.25 73.23 159.58 72.08 164.9 71.42 170.23 71.48 175.55 71.76 180.88 73.18 186.2 74.41 191.53 75.71 196.85 77.12 202.18 77.94 207.51 78.55 212.83 78.87 218.16 78.94 223.48 78.99 228.81 79 234.13 79 239.46 79 244.78 79 250.11 79 255.44 79 260.76 79 266.09 79 271.41 79 276.74 79 282.06 79" id="img-40f232ec-37" stroke="#BEA9FF" class="geometry color_0.004"/>
        <path fill="none" d="M26.44,27.02 L 31.76 61.19 37.09 77.78 42.42 78.46 47.74 78.79 53.07 78.89 58.39 78.95 63.72 78.98 69.04 78.99 74.37 78.99 79.69 79 85.02 79 90.35 78.99 95.67 79 101 79 106.32 79 111.65 79 116.97 79 122.3 79 127.62 79 132.95 79 138.27 79 143.6 79 148.93 79 154.25 79 159.58 79 164.9 79 170.23 79 175.55 79 180.88 79 186.2 79 191.53 79 196.85 79 202.18 79 207.51 79 212.83 79 218.16 79 223.48 79 228.81 79 234.13 79 239.46 79 244.78 79 250.11 79 255.44 79 260.76 79 266.09 79 271.41 79 276.74 79 282.06 79" id="img-40f232ec-38" stroke="#D4CA3A" class="geometry color_0.0005"/>
        <path fill="none" d="M26.44,27.21 L 31.76 61.21 37.09 77.65 42.42 78.48 47.74 78.74 53.07 78.87 58.39 78.94 63.72 78.97 69.04 78.98 74.37 78.99 79.69 78.99 85.02 79 90.35 79 95.67 79 101 79 106.32 79 111.65 79 116.97 79 122.3 79 127.62 79 132.95 79 138.27 79 143.6 79 148.93 79 154.25 79 159.58 79 164.9 79 170.23 79 175.55 79 180.88 79 186.2 79 191.53 79 196.85 79 202.18 79 207.51 79 212.83 79 218.16 79 223.48 79 228.81 79 234.13 79 239.46 79 244.78 79 250.11 79 255.44 79 260.76 79 266.09 79 271.41 79 276.74 79 282.06 79" id="img-40f232ec-39" stroke="#FF6DAE" class="geometry color_0.001"/>
      </g>
    </g>
  </g>
</g>
  <g class="guide ylabels" font-size="2.82" font-family="'PT Sans Caption','Helvetica Neue','Helvetica',sans-serif" fill="#6C606B" id="img-40f232ec-40">
    <text x="18.11" y="79" text-anchor="end" dy="0.35em" id="img-40f232ec-41">0.0</text>
    <text x="18.11" y="43" text-anchor="end" dy="0.35em" id="img-40f232ec-42">0.5</text>
    <text x="18.11" y="7" text-anchor="end" dy="0.35em" id="img-40f232ec-43">1.0</text>
  </g>
  <g font-size="3.88" font-family="'PT Sans','Helvetica Neue','Helvetica',sans-serif" fill="#564A55" stroke="#000000" stroke-opacity="0.000" id="img-40f232ec-44">
    <text x="8.76" y="41" text-anchor="middle" dy="0.35em" transform="rotate(-90, 8.76, 43)" id="img-40f232ec-45">Frequencia</text>
  </g>
</g>
<defs>
  <clipPath id="img-40f232ec-19">
  <path d="M19.11,5 L 129.62 5 129.62 81 19.11 81" />
</clipPath>
</defs>
</svg>
