<?xml version="1.0" encoding="UTF-8"?>
<svg xmlns="http://www.w3.org/2000/svg"
     xmlns:xlink="http://www.w3.org/1999/xlink"
     xmlns:gadfly="http://www.gadflyjl.org/ns"
     version="1.2"
     width="150mm" height="100mm" viewBox="0 0 150 100"
     stroke="none"
     fill="#000000"
     stroke-width="0.3"
     font-size="3.88"
>
<g class="plotroot xscalable yscalable" id="img-966639a5-1">
  <g font-size="3.88" font-family="'PT Sans','Helvetica Neue','Helvetica',sans-serif" fill="#564A55" stroke="#000000" stroke-opacity="0.000" id="img-966639a5-2">
    <text x="77.01" y="88.47" text-anchor="middle" dy="0.6em">Numero Medio de Variedades por UD</text>
  </g>
  <g class="guide xlabels" font-size="2.82" font-family="'PT Sans Caption','Helvetica Neue','Helvetica',sans-serif" fill="#6C606B" id="img-966639a5-3">
    <text x="21.11" y="82" text-anchor="middle" dy="0.6em">0</text>
    <text x="49.06" y="82" text-anchor="middle" dy="0.6em">5</text>
    <text x="77.01" y="82" text-anchor="middle" dy="0.6em">10</text>
    <text x="104.96" y="82" text-anchor="middle" dy="0.6em">15</text>
    <text x="132.92" y="82" text-anchor="middle" dy="0.6em">20</text>
  </g>
  <g class="guide colorkey" id="img-966639a5-4">
    <g fill="#4C404B" font-size="2.82" font-family="'PT Sans','Helvetica Neue','Helvetica',sans-serif" id="img-966639a5-5">
      <text x="138.65" y="37.8" dy="0.35em" id="img-966639a5-6" class="color_0.0">0.0</text>
      <text x="138.65" y="41.27" dy="0.35em" id="img-966639a5-7" class="color_0.25">0.25</text>
      <text x="138.65" y="44.74" dy="0.35em" id="img-966639a5-8" class="color_0.5">0.5</text>
      <text x="138.65" y="48.21" dy="0.35em" id="img-966639a5-9" class="color_0.75">0.75</text>
      <text x="138.65" y="51.68" dy="0.35em" id="img-966639a5-10" class="color_1.0">1.0</text>
    </g>
    <g stroke="#000000" stroke-opacity="0.000" id="img-966639a5-11">
      <rect x="135.92" y="36.93" width="1.73" height="1.73" id="img-966639a5-12" class="color_0.0" fill="#00BFFF"/>
      <rect x="135.92" y="40.4" width="1.73" height="1.73" id="img-966639a5-13" class="color_0.25" fill="#D4CA3A"/>
      <rect x="135.92" y="43.87" width="1.73" height="1.73" id="img-966639a5-14" class="color_0.5" fill="#FF6DAE"/>
      <rect x="135.92" y="47.34" width="1.73" height="1.73" id="img-966639a5-15" class="color_0.75" fill="#00B78D"/>
      <rect x="135.92" y="50.81" width="1.73" height="1.73" id="img-966639a5-16" class="color_1.0" fill="#BEA9FF"/>
    </g>
    <g fill="#362A35" font-size="3.88" font-family="'PT Sans','Helvetica Neue','Helvetica',sans-serif" stroke="#000000" stroke-opacity="0.000" id="img-966639a5-17">
      <text x="135.92" y="33.39" id="img-966639a5-18">a</text>
    </g>
  </g>
<g clip-path="url(#img-966639a5-19)">
  <g id="img-966639a5-20">
    <g pointer-events="visible" opacity="1" fill="#000000" fill-opacity="0.000" stroke="#000000" stroke-opacity="0.000" class="guide background" id="img-966639a5-21">
      <rect x="19.11" y="5" width="115.8" height="76" id="img-966639a5-22"/>
    </g>
    <g class="guide ygridlines xfixed" stroke-dasharray="0.5,0.5" stroke-width="0.2" stroke="#D0D0E0" id="img-966639a5-23">
      <path fill="none" d="M19.11,79 L 134.92 79" id="img-966639a5-24"/>
      <path fill="none" d="M19.11,43 L 134.92 43" id="img-966639a5-25"/>
      <path fill="none" d="M19.11,7 L 134.92 7" id="img-966639a5-26"/>
    </g>
    <g class="guide xgridlines yfixed" stroke-dasharray="0.5,0.5" stroke-width="0.2" stroke="#D0D0E0" id="img-966639a5-27">
      <path fill="none" d="M21.11,5 L 21.11 81" id="img-966639a5-28"/>
      <path fill="none" d="M49.06,5 L 49.06 81" id="img-966639a5-29"/>
      <path fill="none" d="M77.01,5 L 77.01 81" id="img-966639a5-30"/>
      <path fill="none" d="M104.96,5 L 104.96 81" id="img-966639a5-31"/>
      <path fill="none" d="M132.92,5 L 132.92 81" id="img-966639a5-32"/>
    </g>
    <g class="plotpanel" id="img-966639a5-33">
      <g stroke-width="0.3" fill="#000000" fill-opacity="0.000" stroke-dasharray="none" id="img-966639a5-34">
        <path fill="none" d="M26.7,19.09 L 32.29 68.01 37.88 78.31 43.47 78.76 49.06 78.9 54.65 78.98 60.24 78.98 65.83 79 71.42 79 77.01 79 82.6 79 88.19 79 93.78 79 99.37 79 104.96 79 110.56 79 116.15 79 121.74 79 127.33 79 132.92 79 138.51 79 144.1 79 149.69 79 155.28 79 160.87 79 166.46 79 172.05 79 177.64 79 183.23 79 188.82 79 194.41 79 200 79 205.59 79 211.18 79 216.77 79 222.36 79 227.95 79 233.54 79 239.13 79 244.72 79 250.31 79 255.9 79 261.49 79 267.08 79 272.67 79 278.26 79 283.85 79 289.44 79 295.03 79" id="img-966639a5-35" stroke="#00B78D" class="geometry color_0.75"/>
        <path fill="none" d="M26.7,21.45 L 32.29 67.61 37.88 77.13 43.47 78.26 49.06 78.71 54.65 78.9 60.24 78.98 65.83 78.99 71.42 79 77.01 79 82.6 79 88.19 79 93.78 79 99.37 79 104.96 79 110.56 79 116.15 79 121.74 79 127.33 79 132.92 79 138.51 79 144.1 79 149.69 79 155.28 79 160.87 79 166.46 79 172.05 79 177.64 79 183.23 79 188.82 79 194.41 79 200 79 205.59 79 211.18 79 216.77 79 222.36 79 227.95 79 233.54 79 239.13 79 244.72 79 250.31 79 255.9 79 261.49 79 267.08 79 272.67 79 278.26 79 283.85 79 289.44 79 295.03 79" id="img-966639a5-36" stroke="#00BFFF" class="geometry color_0.0"/>
        <path fill="none" d="M26.7,11.86 L 32.29 77.7 37.88 78.89 43.47 78.99 49.06 79 54.65 79 60.24 78.99 65.83 78.98 71.42 78.99 77.01 78.98 82.6 78.98 88.19 78.98 93.78 78.98 99.37 78.98 104.96 78.98 110.56 78.97 116.15 78.94 121.74 78.94 127.33 78.95 132.92 78.93 138.51 78.89 144.1 78.87 149.69 78.86 155.28 78.81 160.87 78.78 166.46 78.79 172.05 78.8 177.64 78.74 183.23 78.69 188.82 78.72 194.41 78.72 200 78.79 205.59 78.8 211.18 78.91 216.77 78.96 222.36 78.99 227.95 78.99 233.54 79 239.13 79 244.72 79 250.31 79 255.9 79 261.49 79 267.08 79 272.67 79 278.26 79 283.85 79 289.44 79 295.03 79" id="img-966639a5-37" stroke="#BEA9FF" class="geometry color_1.0"/>
        <path fill="none" d="M26.7,28.77 L 32.29 61.26 37.88 76.92 43.47 78.07 49.06 78.56 54.65 78.75 60.24 78.9 65.83 78.94 71.42 78.96 77.01 78.97 82.6 78.99 88.19 78.98 93.78 78.99 99.37 78.98 104.96 79 110.56 79 116.15 79 121.74 79 127.33 79 132.92 79 138.51 79 144.1 79 149.69 79 155.28 79 160.87 79 166.46 79 172.05 79 177.64 79 183.23 79 188.82 79 194.41 79 200 79 205.59 79 211.18 79 216.77 79 222.36 79 227.95 79 233.54 79 239.13 79 244.72 79 250.31 79 255.9 79 261.49 79 267.08 79 272.67 79 278.26 79 283.85 79 289.44 79 295.03 79" id="img-966639a5-38" stroke="#D4CA3A" class="geometry color_0.25"/>
        <path fill="none" d="M26.7,27.71 L 32.29 60.83 37.88 77.59 43.47 78.41 49.06 78.72 54.65 78.86 60.24 78.94 65.83 78.98 71.42 79 77.01 79 82.6 79 88.19 78.99 93.78 79 99.37 79 104.96 79 110.56 79 116.15 79 121.74 79 127.33 79 132.92 79 138.51 79 144.1 79 149.69 79 155.28 79 160.87 79 166.46 79 172.05 79 177.64 79 183.23 79 188.82 79 194.41 79 200 79 205.59 79 211.18 79 216.77 79 222.36 79 227.95 79 233.54 79 239.13 79 244.72 79 250.31 79 255.9 79 261.49 79 267.08 79 272.67 79 278.26 79 283.85 79 289.44 79 295.03 79" id="img-966639a5-39" stroke="#FF6DAE" class="geometry color_0.5"/>
      </g>
    </g>
  </g>
</g>
  <g class="guide ylabels" font-size="2.82" font-family="'PT Sans Caption','Helvetica Neue','Helvetica',sans-serif" fill="#6C606B" id="img-966639a5-40">
    <text x="18.11" y="79" text-anchor="end" dy="0.35em" id="img-966639a5-41">0.0</text>
    <text x="18.11" y="43" text-anchor="end" dy="0.35em" id="img-966639a5-42">0.5</text>
    <text x="18.11" y="7" text-anchor="end" dy="0.35em" id="img-966639a5-43">1.0</text>
  </g>
  <g font-size="3.88" font-family="'PT Sans','Helvetica Neue','Helvetica',sans-serif" fill="#564A55" stroke="#000000" stroke-opacity="0.000" id="img-966639a5-44">
    <text x="8.76" y="41" text-anchor="middle" dy="0.35em" transform="rotate(-90, 8.76, 43)" id="img-966639a5-45">Frequencia</text>
  </g>
</g>
<defs>
  <clipPath id="img-966639a5-19">
  <path d="M19.11,5 L 134.92 5 134.92 81 19.11 81" />
</clipPath>
</defs>
</svg>
