<?xml version="1.0" encoding="UTF-8"?>
<svg xmlns="http://www.w3.org/2000/svg"
     xmlns:xlink="http://www.w3.org/1999/xlink"
     xmlns:gadfly="http://www.gadflyjl.org/ns"
     version="1.2"
     width="150mm" height="100mm" viewBox="0 0 150 100"
     stroke="none"
     fill="#000000"
     stroke-width="0.3"
     font-size="3.88"
>
<g class="plotroot xscalable yscalable" id="img-ac71c619-1">
  <g font-size="3.88" font-family="'PT Sans','Helvetica Neue','Helvetica',sans-serif" fill="#564A55" stroke="#000000" stroke-opacity="0.000" id="img-ac71c619-2">
    <text x="77.54" y="89.18" text-anchor="middle" dy="0.6em">Fitness</text>
  </g>
  <g class="guide xlabels" font-size="2.82" font-family="'PT Sans Caption','Helvetica Neue','Helvetica',sans-serif" fill="#6C606B" id="img-ac71c619-3">
    <text x="22.88" y="82.71" text-anchor="middle" dy="0.6em">0.0</text>
    <text x="77.54" y="82.71" text-anchor="middle" dy="0.6em">0.5</text>
    <text x="132.21" y="82.71" text-anchor="middle" dy="0.6em">1.0</text>
  </g>
  <g class="guide colorkey" id="img-ac71c619-4">
    <g fill="#4C404B" font-size="2.82" font-family="'PT Sans','Helvetica Neue','Helvetica',sans-serif" id="img-ac71c619-5">
      <text x="137.94" y="39.88" dy="0.35em" id="img-ac71c619-6" class="color_1">1</text>
      <text x="137.94" y="43.35" dy="0.35em" id="img-ac71c619-7" class="color_7">7</text>
      <text x="137.94" y="46.82" dy="0.35em" id="img-ac71c619-8" class="color_49">49</text>
      <text x="137.94" y="50.29" dy="0.35em" id="img-ac71c619-9" class="color_2401">2401</text>
    </g>
    <g stroke="#000000" stroke-opacity="0.000" id="img-ac71c619-10">
      <rect x="135.21" y="39.02" width="1.73" height="1.73" id="img-ac71c619-11" class="color_1" fill="#00BFFF"/>
      <rect x="135.21" y="42.49" width="1.73" height="1.73" id="img-ac71c619-12" class="color_7" fill="#D4CA3A"/>
      <rect x="135.21" y="45.96" width="1.73" height="1.73" id="img-ac71c619-13" class="color_49" fill="#FF6DAE"/>
      <rect x="135.21" y="49.43" width="1.73" height="1.73" id="img-ac71c619-14" class="color_2401" fill="#00B78D"/>
    </g>
    <g fill="#362A35" font-size="3.88" font-family="'PT Sans','Helvetica Neue','Helvetica',sans-serif" stroke="#000000" stroke-opacity="0.000" id="img-ac71c619-15">
      <text x="135.21" y="35.65" id="img-ac71c619-16">r</text>
    </g>
  </g>
<g clip-path="url(#img-ac71c619-17)">
  <g id="img-ac71c619-18">
    <g pointer-events="visible" opacity="1" fill="#000000" fill-opacity="0.000" stroke="#000000" stroke-opacity="0.000" class="guide background" id="img-ac71c619-19">
      <rect x="20.88" y="5" width="113.33" height="76.71" id="img-ac71c619-20"/>
    </g>
    <g class="guide ygridlines xfixed" stroke-dasharray="0.5,0.5" stroke-width="0.2" stroke="#D0D0E0" id="img-ac71c619-21">
      <path fill="none" d="M20.88,79.71 L 134.21 79.71" id="img-ac71c619-22"/>
      <path fill="none" d="M20.88,61.53 L 134.21 61.53" id="img-ac71c619-23"/>
      <path fill="none" d="M20.88,43.35 L 134.21 43.35" id="img-ac71c619-24"/>
      <path fill="none" d="M20.88,25.18 L 134.21 25.18" id="img-ac71c619-25"/>
      <path fill="none" d="M20.88,7 L 134.21 7" id="img-ac71c619-26"/>
    </g>
    <g class="guide xgridlines yfixed" stroke-dasharray="0.5,0.5" stroke-width="0.2" stroke="#D0D0E0" id="img-ac71c619-27">
      <path fill="none" d="M22.88,5 L 22.88 81.71" id="img-ac71c619-28"/>
      <path fill="none" d="M77.54,5 L 77.54 81.71" id="img-ac71c619-29"/>
      <path fill="none" d="M132.21,5 L 132.21 81.71" id="img-ac71c619-30"/>
    </g>
    <g class="plotpanel" id="img-ac71c619-31">
      <g stroke-width="0.3" fill="#000000" fill-opacity="0.000" stroke-dasharray="none" id="img-ac71c619-32">
        <path fill="none" d="M25.61,63.19 L 31.08 62.09 36.54 60.91 42.01 59.37 47.48 57.75 52.94 55.65 58.41 53.25 63.88 50.59 69.34 48.31 74.81 46.51 80.28 46.2 85.74 48.51 91.21 54.78 96.68 62.73 102.14 70.23 107.61 74.96 113.08 77.4 118.54 78.85 124.01 79.63 129.48 79.71" id="img-ac71c619-33" stroke="#00B78D" class="geometry color_2401"/>
        <path fill="none" d="M25.61,68.45 L 31.08 74.98 36.54 73.7 42.01 70.02 47.48 68.29 52.94 65.86 58.41 65.19 63.88 55.78 69.34 53.05 74.81 46.13 80.28 37.24 85.74 32.67 91.21 31.31 96.68 40.47 102.14 58.24 107.61 72.18 113.08 78.44 118.54 79.22 124.01 79.71 129.48 79.71" id="img-ac71c619-34" stroke="#00BFFF" class="geometry color_1"/>
        <path fill="none" d="M25.61,68.96 L 31.08 72.41 36.54 73.15 42.01 71.46 47.48 69.64 52.94 67.51 58.41 64.36 63.88 58.49 69.34 53.04 74.81 47.55 80.28 35.23 85.74 29.13 91.21 31.44 96.68 43.25 102.14 59.52 107.61 70.14 113.08 76.94 118.54 78.98 124.01 79.71 129.48 79.71" id="img-ac71c619-35" stroke="#D4CA3A" class="geometry color_7"/>
        <path fill="none" d="M25.61,62.62 L 31.08 64.01 36.54 63.64 42.01 61.92 47.48 60.78 52.94 57.78 58.41 54.87 63.88 50.93 69.34 47.18 74.81 44.89 80.28 42.9 85.74 45.46 91.21 51.65 96.68 61.18 102.14 68.99 107.61 74.82 113.08 78.21 118.54 79.41 124.01 79.71 129.48 79.71" id="img-ac71c619-36" stroke="#FF6DAE" class="geometry color_49"/>
      </g>
    </g>
  </g>
</g>
  <g class="guide ylabels" font-size="2.82" font-family="'PT Sans Caption','Helvetica Neue','Helvetica',sans-serif" fill="#6C606B" id="img-ac71c619-37">
    <text x="19.88" y="79.71" text-anchor="end" dy="0.35em" id="img-ac71c619-38">0.00</text>
    <text x="19.88" y="61.53" text-anchor="end" dy="0.35em" id="img-ac71c619-39">0.05</text>
    <text x="19.88" y="43.35" text-anchor="end" dy="0.35em" id="img-ac71c619-40">0.10</text>
    <text x="19.88" y="25.18" text-anchor="end" dy="0.35em" id="img-ac71c619-41">0.15</text>
    <text x="19.88" y="7" text-anchor="end" dy="0.35em" id="img-ac71c619-42">0.20</text>
  </g>
  <g font-size="3.88" font-family="'PT Sans','Helvetica Neue','Helvetica',sans-serif" fill="#564A55" stroke="#000000" stroke-opacity="0.000" id="img-ac71c619-43">
    <text x="8.76" y="41.35" text-anchor="middle" dy="0.35em" transform="rotate(-90, 8.76, 43.35)" id="img-ac71c619-44">Frequencia</text>
  </g>
</g>
<defs>
  <clipPath id="img-ac71c619-17">
  <path d="M20.88,5 L 134.21 5 134.21 81.71 20.88 81.71" />
</clipPath>
</defs>
</svg>
