<?xml version="1.0" encoding="UTF-8"?>
<svg xmlns="http://www.w3.org/2000/svg"
     xmlns:xlink="http://www.w3.org/1999/xlink"
     xmlns:gadfly="http://www.gadflyjl.org/ns"
     version="1.2"
     width="150mm" height="100mm" viewBox="0 0 150 100"
     stroke="none"
     fill="#000000"
     stroke-width="0.3"
     font-size="3.88"
>
<g class="plotroot xscalable yscalable" id="img-c9b6e430-1">
  <g font-size="3.88" font-family="'PT Sans','Helvetica Neue','Helvetica',sans-serif" fill="#564A55" stroke="#000000" stroke-opacity="0.000" id="img-c9b6e430-2">
    <text x="75.25" y="88.47" text-anchor="middle" dy="0.6em">Tempo</text>
  </g>
  <g class="guide xlabels" font-size="2.82" font-family="'PT Sans Caption','Helvetica Neue','Helvetica',sans-serif" fill="#6C606B" id="img-c9b6e430-3">
    <text x="19.35" y="82" text-anchor="middle" dy="0.6em">0</text>
    <text x="47.3" y="82" text-anchor="middle" dy="0.6em">50</text>
    <text x="75.25" y="82" text-anchor="middle" dy="0.6em">100</text>
    <text x="103.2" y="82" text-anchor="middle" dy="0.6em">150</text>
    <text x="131.15" y="82" text-anchor="middle" dy="0.6em">200</text>
  </g>
  <g class="guide colorkey" id="img-c9b6e430-4">
    <g fill="#4C404B" font-size="2.82" font-family="'PT Sans','Helvetica Neue','Helvetica',sans-serif" id="img-c9b6e430-5">
      <text x="136.89" y="37.8" dy="0.35em" id="img-c9b6e430-6" class="color_0.005">0.005</text>
      <text x="136.89" y="41.27" dy="0.35em" id="img-c9b6e430-7" class="color_0.01">0.01</text>
      <text x="136.89" y="44.74" dy="0.35em" id="img-c9b6e430-8" class="color_0.02">0.02</text>
      <text x="136.89" y="48.21" dy="0.35em" id="img-c9b6e430-9" class="color_0.04">0.04</text>
      <text x="136.89" y="51.68" dy="0.35em" id="img-c9b6e430-10" class="color_0.08">0.08</text>
    </g>
    <g stroke="#000000" stroke-opacity="0.000" id="img-c9b6e430-11">
      <rect x="134.15" y="36.93" width="1.73" height="1.73" id="img-c9b6e430-12" class="color_0.005" fill="#00BFFF"/>
      <rect x="134.15" y="40.4" width="1.73" height="1.73" id="img-c9b6e430-13" class="color_0.01" fill="#D4CA3A"/>
      <rect x="134.15" y="43.87" width="1.73" height="1.73" id="img-c9b6e430-14" class="color_0.02" fill="#FF6DAE"/>
      <rect x="134.15" y="47.34" width="1.73" height="1.73" id="img-c9b6e430-15" class="color_0.04" fill="#00B78D"/>
      <rect x="134.15" y="50.81" width="1.73" height="1.73" id="img-c9b6e430-16" class="color_0.08" fill="#BEA9FF"/>
    </g>
    <g fill="#362A35" font-size="3.88" font-family="'PT Sans','Helvetica Neue','Helvetica',sans-serif" stroke="#000000" stroke-opacity="0.000" id="img-c9b6e430-17">
      <text x="134.15" y="33.39" id="img-c9b6e430-18">o</text>
    </g>
  </g>
<g clip-path="url(#img-c9b6e430-19)">
  <g id="img-c9b6e430-20">
    <g pointer-events="visible" opacity="1" fill="#000000" fill-opacity="0.000" stroke="#000000" stroke-opacity="0.000" class="guide background" id="img-c9b6e430-21">
      <rect x="17.35" y="5" width="115.8" height="76" id="img-c9b6e430-22"/>
    </g>
    <g class="guide ygridlines xfixed" stroke-dasharray="0.5,0.5" stroke-width="0.2" stroke="#D0D0E0" id="img-c9b6e430-23">
      <path fill="none" d="M17.35,79 L 133.15 79" id="img-c9b6e430-24"/>
      <path fill="none" d="M17.35,67 L 133.15 67" id="img-c9b6e430-25"/>
      <path fill="none" d="M17.35,55 L 133.15 55" id="img-c9b6e430-26"/>
      <path fill="none" d="M17.35,43 L 133.15 43" id="img-c9b6e430-27"/>
      <path fill="none" d="M17.35,31 L 133.15 31" id="img-c9b6e430-28"/>
      <path fill="none" d="M17.35,19 L 133.15 19" id="img-c9b6e430-29"/>
      <path fill="none" d="M17.35,7 L 133.15 7" id="img-c9b6e430-30"/>
    </g>
    <g class="guide xgridlines yfixed" stroke-dasharray="0.5,0.5" stroke-width="0.2" stroke="#D0D0E0" id="img-c9b6e430-31">
      <path fill="none" d="M19.35,5 L 19.35 81" id="img-c9b6e430-32"/>
      <path fill="none" d="M47.3,5 L 47.3 81" id="img-c9b6e430-33"/>
      <path fill="none" d="M75.25,5 L 75.25 81" id="img-c9b6e430-34"/>
      <path fill="none" d="M103.2,5 L 103.2 81" id="img-c9b6e430-35"/>
      <path fill="none" d="M131.15,5 L 131.15 81" id="img-c9b6e430-36"/>
    </g>
    <g class="plotpanel" id="img-c9b6e430-37">
      <g stroke-width="0.3" fill="#000000" fill-opacity="0.000" stroke-dasharray="none" id="img-c9b6e430-38">
        <path fill="none" d="M19.35,19 L 22.15 18.99 24.94 18.97 27.74 18.95 30.53 18.94 33.33 18.94 36.12 18.94 38.92 18.94 41.71 18.98 44.51 19.24 47.3 20.31 50.1 23.23 52.89 29.88 55.69 40.22 58.48 50.64 61.28 56.44 64.07 58.36 66.87 58.96 69.66 59.19 72.46 59.31 75.25 59.37 78.05 59.44 80.84 59.59 83.64 60.01 86.43 60.55 89.23 60.8 92.02 60.9 94.82 60.95 97.61 60.98 100.41 61 103.2 61.04 106 61.1 108.79 61.17 111.59 61.25 114.38 61.29 117.18 61.31 119.97 61.31 122.77 61.32 125.56 61.32 128.36 61.33" id="img-c9b6e430-39" stroke="#00B78D" class="geometry color_0.04"/>
        <path fill="none" d="M19.35,19 L 22.15 18.99 24.94 18.98 27.74 18.96 30.53 18.93 33.33 18.93 36.12 18.91 38.92 18.91 41.71 18.92 44.51 18.99 47.3 19.24 50.1 19.94 52.89 21.35 55.69 23.38 58.48 26.3 61.28 29.51 64.07 33 66.87 36.77 69.66 40.48 72.46 44.37 75.25 48 78.05 51.17 80.84 53.93 83.64 56.22 86.43 57.94 89.23 59.32 92.02 60.33 94.82 61.02 97.61 61.46 100.41 61.78 103.2 61.99 106 62.17 108.79 62.31 111.59 62.38 114.38 62.46 117.18 62.51 119.97 62.54 122.77 62.56 125.56 62.59 128.36 62.62" id="img-c9b6e430-40" stroke="#00BFFF" class="geometry color_0.005"/>
        <path fill="none" d="M19.35,19 L 22.15 19 24.94 18.95 27.74 18.94 30.53 18.92 33.33 18.91 36.12 18.89 38.92 18.89 41.71 18.92 44.51 19.24 47.3 20.48 50.1 23.96 52.89 31.54 55.69 42.86 58.48 53.65 61.28 58.53 64.07 59.67 66.87 59.82 69.66 59.85 72.46 59.85 75.25 59.85 78.05 59.85 80.84 59.9 83.64 60.07 86.43 60.39 89.23 60.56 92.02 60.64 94.82 60.65 97.61 60.65 100.41 60.66 103.2 60.66 106 60.67 108.79 60.69 111.59 60.73 114.38 60.76 117.18 60.77 119.97 60.78 122.77 60.78 125.56 60.78 128.36 60.79" id="img-c9b6e430-41" stroke="#BEA9FF" class="geometry color_0.08"/>
        <path fill="none" d="M19.35,19 L 22.15 19 24.94 18.98 27.74 18.94 30.53 18.93 33.33 18.91 36.12 18.91 38.92 18.89 41.71 18.92 44.51 19 47.3 19.35 50.1 20.5 52.89 22.9 55.69 26.76 58.48 31.46 61.28 36.69 64.07 41.6 66.87 46.09 69.66 49.67 72.46 52.68 75.25 54.87 78.05 56.74 80.84 58.11 83.64 59.2 86.43 60.06 89.23 60.72 92.02 61.19 94.82 61.61 97.61 61.92 100.41 62.14 103.2 62.26 106 62.35 108.79 62.43 111.59 62.48 114.38 62.53 117.18 62.57 119.97 62.61 122.77 62.62 125.56 62.64 128.36 62.66" id="img-c9b6e430-42" stroke="#D4CA3A" class="geometry color_0.01"/>
        <path fill="none" d="M19.35,19 L 22.15 18.99 24.94 18.98 27.74 18.95 30.53 18.92 33.33 18.9 36.12 18.9 38.92 18.91 41.71 18.92 44.51 19.07 47.3 19.78 50.1 21.7 52.89 26.27 55.69 33.53 58.48 41.91 61.28 48.71 64.07 52.76 66.87 55.21 69.66 56.61 72.46 57.61 75.25 58.4 78.05 59.05 80.84 59.67 83.64 60.26 86.43 60.82 89.23 61.31 92.02 61.6 94.82 61.76 97.61 61.89 100.41 61.98 103.2 62.12 106 62.2 108.79 62.28 111.59 62.36 114.38 62.43 117.18 62.47 119.97 62.48 122.77 62.49 125.56 62.49 128.36 62.5" id="img-c9b6e430-43" stroke="#FF6DAE" class="geometry color_0.02"/>
      </g>
    </g>
  </g>
</g>
  <g class="guide ylabels" font-size="2.82" font-family="'PT Sans Caption','Helvetica Neue','Helvetica',sans-serif" fill="#6C606B" id="img-c9b6e430-44">
    <text x="16.35" y="79" text-anchor="end" dy="0.35em" id="img-c9b6e430-45">0</text>
    <text x="16.35" y="67" text-anchor="end" dy="0.35em" id="img-c9b6e430-46">10</text>
    <text x="16.35" y="55" text-anchor="end" dy="0.35em" id="img-c9b6e430-47">20</text>
    <text x="16.35" y="43" text-anchor="end" dy="0.35em" id="img-c9b6e430-48">30</text>
    <text x="16.35" y="31" text-anchor="end" dy="0.35em" id="img-c9b6e430-49">40</text>
    <text x="16.35" y="19" text-anchor="end" dy="0.35em" id="img-c9b6e430-50">50</text>
    <text x="16.35" y="7" text-anchor="end" dy="0.35em" id="img-c9b6e430-51">60</text>
  </g>
  <g font-size="3.88" font-family="'PT Sans','Helvetica Neue','Helvetica',sans-serif" fill="#564A55" stroke="#000000" stroke-opacity="0.000" id="img-c9b6e430-52">
    <text x="8.41" y="41" text-anchor="middle" dy="0.35em" transform="rotate(-90, 8.41, 43)" id="img-c9b6e430-53">Numero de Variedades</text>
  </g>
</g>
<defs>
  <clipPath id="img-c9b6e430-19">
  <path d="M17.35,5 L 133.15 5 133.15 81 17.35 81" />
</clipPath>
</defs>
</svg>
