<?xml version="1.0" encoding="UTF-8"?>
<svg xmlns="http://www.w3.org/2000/svg"
     xmlns:xlink="http://www.w3.org/1999/xlink"
     xmlns:gadfly="http://www.gadflyjl.org/ns"
     version="1.2"
     width="150mm" height="100mm" viewBox="0 0 150 100"
     stroke="none"
     fill="#000000"
     stroke-width="0.3"
     font-size="3.88"
>
<g class="plotroot xscalable yscalable" id="img-ea435651-1">
  <g font-size="3.88" font-family="'PT Sans','Helvetica Neue','Helvetica',sans-serif" fill="#564A55" stroke="#000000" stroke-opacity="0.000" id="img-ea435651-2">
    <text x="77.54" y="88.47" text-anchor="middle" dy="0.6em">Tempo</text>
  </g>
  <g class="guide xlabels" font-size="2.82" font-family="'PT Sans Caption','Helvetica Neue','Helvetica',sans-serif" fill="#6C606B" id="img-ea435651-3">
    <text x="21.11" y="82" text-anchor="middle" dy="0.6em">0</text>
    <text x="49.33" y="82" text-anchor="middle" dy="0.6em">50</text>
    <text x="77.54" y="82" text-anchor="middle" dy="0.6em">100</text>
    <text x="105.76" y="82" text-anchor="middle" dy="0.6em">150</text>
    <text x="133.97" y="82" text-anchor="middle" dy="0.6em">200</text>
  </g>
  <g class="guide colorkey" id="img-ea435651-4">
    <g fill="#4C404B" font-size="2.82" font-family="'PT Sans','Helvetica Neue','Helvetica',sans-serif" id="img-ea435651-5">
      <text x="139.71" y="37.8" dy="0.35em" id="img-ea435651-6" class="color_10">10</text>
      <text x="139.71" y="41.27" dy="0.35em" id="img-ea435651-7" class="color_25">25</text>
      <text x="139.71" y="44.74" dy="0.35em" id="img-ea435651-8" class="color_50">50</text>
      <text x="139.71" y="48.21" dy="0.35em" id="img-ea435651-9" class="color_75">75</text>
      <text x="139.71" y="51.68" dy="0.35em" id="img-ea435651-10" class="color_100">100</text>
    </g>
    <g stroke="#000000" stroke-opacity="0.000" id="img-ea435651-11">
      <rect x="136.97" y="36.93" width="1.73" height="1.73" id="img-ea435651-12" class="color_10" fill="#00BFFF"/>
      <rect x="136.97" y="40.4" width="1.73" height="1.73" id="img-ea435651-13" class="color_25" fill="#D4CA3A"/>
      <rect x="136.97" y="43.87" width="1.73" height="1.73" id="img-ea435651-14" class="color_50" fill="#FF6DAE"/>
      <rect x="136.97" y="47.34" width="1.73" height="1.73" id="img-ea435651-15" class="color_75" fill="#00B78D"/>
      <rect x="136.97" y="50.81" width="1.73" height="1.73" id="img-ea435651-16" class="color_100" fill="#BEA9FF"/>
    </g>
    <g fill="#362A35" font-size="3.88" font-family="'PT Sans','Helvetica Neue','Helvetica',sans-serif" stroke="#000000" stroke-opacity="0.000" id="img-ea435651-17">
      <text x="136.97" y="33.39" id="img-ea435651-18">v</text>
    </g>
  </g>
<g clip-path="url(#img-ea435651-19)">
  <g id="img-ea435651-20">
    <g pointer-events="visible" opacity="1" fill="#000000" fill-opacity="0.000" stroke="#000000" stroke-opacity="0.000" class="guide background" id="img-ea435651-21">
      <rect x="19.11" y="5" width="116.86" height="76" id="img-ea435651-22"/>
    </g>
    <g class="guide ygridlines xfixed" stroke-dasharray="0.5,0.5" stroke-width="0.2" stroke="#D0D0E0" id="img-ea435651-23">
      <path fill="none" d="M19.11,79 L 135.97 79" id="img-ea435651-24"/>
      <path fill="none" d="M19.11,55 L 135.97 55" id="img-ea435651-25"/>
      <path fill="none" d="M19.11,31 L 135.97 31" id="img-ea435651-26"/>
      <path fill="none" d="M19.11,7 L 135.97 7" id="img-ea435651-27"/>
    </g>
    <g class="guide xgridlines yfixed" stroke-dasharray="0.5,0.5" stroke-width="0.2" stroke="#D0D0E0" id="img-ea435651-28">
      <path fill="none" d="M21.11,5 L 21.11 81" id="img-ea435651-29"/>
      <path fill="none" d="M49.33,5 L 49.33 81" id="img-ea435651-30"/>
      <path fill="none" d="M77.54,5 L 77.54 81" id="img-ea435651-31"/>
      <path fill="none" d="M105.76,5 L 105.76 81" id="img-ea435651-32"/>
      <path fill="none" d="M133.97,5 L 133.97 81" id="img-ea435651-33"/>
    </g>
    <g class="plotpanel" id="img-ea435651-34">
      <g stroke-width="0.3" fill="#000000" fill-opacity="0.000" stroke-dasharray="none" id="img-ea435651-35">
        <path fill="none" d="M21.11,43 L 23.94 43 26.76 42.99 29.58 42.98 32.4 42.97 35.22 42.97 38.04 42.96 40.86 42.97 43.69 43 46.51 43.15 49.33 43.68 52.15 45.2 54.97 48.52 57.79 53.81 60.61 59.64 63.44 64.13 66.26 66.69 69.08 68.01 71.9 68.65 74.72 69.07 77.54 69.37 80.37 69.62 83.19 69.85 86.01 70.14 88.83 70.48 91.65 70.72 94.47 70.87 97.29 70.97 100.12 71.04 102.94 71.1 105.76 71.14 108.58 71.19 111.4 71.25 114.22 71.32 117.04 71.38 119.87 71.41 122.69 71.43 125.51 71.43 128.33 71.44 131.15 71.44" id="img-ea435651-36" stroke="#00B78D" class="geometry color_75"/>
        <path fill="none" d="M21.11,74.2 L 23.94 74.2 26.76 74.2 29.58 74.19 32.4 74.18 35.22 74.17 38.04 74.17 40.86 74.17 43.69 74.17 46.51 74.17 49.33 74.19 52.15 74.23 54.97 74.29 57.79 74.4 60.61 74.55 63.44 74.71 66.26 74.89 69.08 75.05 71.9 75.19 74.72 75.31 77.54 75.4 80.37 75.48 83.19 75.52 86.01 75.56 88.83 75.58 91.65 75.59 94.47 75.6 97.29 75.6 100.12 75.6 102.94 75.6 105.76 75.61 108.58 75.6 111.4 75.61 114.22 75.61 117.04 75.61 119.87 75.61 122.69 75.61 125.51 75.61 128.33 75.61 131.15 75.6" id="img-ea435651-37" stroke="#00BFFF" class="geometry color_10"/>
        <path fill="none" d="M21.11,31 L 23.94 31 26.76 30.98 29.58 30.98 32.4 30.97 35.22 30.97 38.04 30.96 40.86 30.98 43.69 31.06 46.51 31.33 49.33 32.2 52.15 34.3 54.97 39 57.79 46.66 60.61 55.52 63.44 62.19 66.26 65.64 69.08 67.15 71.9 67.87 74.72 68.28 77.54 68.52 80.37 68.72 83.19 68.93 86.01 69.26 88.83 69.7 91.65 70.03 94.47 70.26 97.29 70.38 100.12 70.43 102.94 70.48 105.76 70.53 108.58 70.6 111.4 70.68 114.22 70.81 117.04 70.9 119.87 70.94 122.69 70.97 125.51 70.97 128.33 70.97 131.15 70.98" id="img-ea435651-38" stroke="#BEA9FF" class="geometry color_100"/>
        <path fill="none" d="M21.11,67 L 23.94 67 26.76 66.99 29.58 66.98 32.4 66.97 35.22 66.97 38.04 66.96 40.86 66.96 43.69 66.96 46.51 66.99 49.33 67.08 52.15 67.33 54.97 67.93 57.79 68.82 60.61 69.84 63.44 70.76 66.26 71.51 69.08 72.06 71.9 72.46 74.72 72.77 77.54 72.98 80.37 73.19 83.19 73.35 86.01 73.48 88.83 73.58 91.65 73.64 94.47 73.69 97.29 73.72 100.12 73.74 102.94 73.76 105.76 73.78 108.58 73.79 111.4 73.8 114.22 73.8 117.04 73.81 119.87 73.81 122.69 73.81 125.51 73.81 128.33 73.81 131.15 73.81" id="img-ea435651-39" stroke="#D4CA3A" class="geometry color_25"/>
        <path fill="none" d="M21.11,55 L 23.94 55 26.76 54.98 29.58 54.97 32.4 54.96 35.22 54.96 38.04 54.96 40.86 54.96 43.69 54.97 46.51 55.02 49.33 55.28 52.15 56.06 54.97 57.83 57.79 60.78 60.61 64.02 63.44 66.67 66.26 68.26 69.08 69.25 71.9 69.86 74.72 70.28 77.54 70.65 80.37 70.94 83.19 71.23 86.01 71.5 88.83 71.74 91.65 71.9 94.47 72.02 97.29 72.08 100.12 72.12 102.94 72.17 105.76 72.22 108.58 72.27 111.4 72.3 114.22 72.34 117.04 72.37 119.87 72.38 122.69 72.39 125.51 72.4 128.33 72.4 131.15 72.41" id="img-ea435651-40" stroke="#FF6DAE" class="geometry color_50"/>
      </g>
    </g>
  </g>
</g>
  <g class="guide ylabels" font-size="2.82" font-family="'PT Sans Caption','Helvetica Neue','Helvetica',sans-serif" fill="#6C606B" id="img-ea435651-41">
    <text x="18.11" y="79" text-anchor="end" dy="0.35em" id="img-ea435651-42">0</text>
    <text x="18.11" y="55" text-anchor="end" dy="0.35em" id="img-ea435651-43">50</text>
    <text x="18.11" y="31" text-anchor="end" dy="0.35em" id="img-ea435651-44">100</text>
    <text x="18.11" y="7" text-anchor="end" dy="0.35em" id="img-ea435651-45">150</text>
  </g>
  <g font-size="3.88" font-family="'PT Sans','Helvetica Neue','Helvetica',sans-serif" fill="#564A55" stroke="#000000" stroke-opacity="0.000" id="img-ea435651-46">
    <text x="8.41" y="41" text-anchor="middle" dy="0.35em" transform="rotate(-90, 8.41, 43)" id="img-ea435651-47">Numero de Variedades</text>
  </g>
</g>
<defs>
  <clipPath id="img-ea435651-19">
  <path d="M19.11,5 L 135.97 5 135.97 81 19.11 81" />
</clipPath>
</defs>
</svg>
