<?xml version="1.0" encoding="UTF-8"?>
<svg xmlns="http://www.w3.org/2000/svg"
     xmlns:xlink="http://www.w3.org/1999/xlink"
     xmlns:gadfly="http://www.gadflyjl.org/ns"
     version="1.2"
     width="150mm" height="100mm" viewBox="0 0 150 100"
     stroke="none"
     fill="#000000"
     stroke-width="0.3"
     font-size="3.88"
>
<g class="plotroot xscalable yscalable" id="img-ad09b687-1">
  <g font-size="3.88" font-family="'PT Sans','Helvetica Neue','Helvetica',sans-serif" fill="#564A55" stroke="#000000" stroke-opacity="0.000" id="img-ad09b687-2">
    <text x="78.43" y="88.47" text-anchor="middle" dy="0.6em">Numero Medio de Variedades por UD</text>
  </g>
  <g class="guide xlabels" font-size="2.82" font-family="'PT Sans Caption','Helvetica Neue','Helvetica',sans-serif" fill="#6C606B" id="img-ad09b687-3">
    <text x="19.35" y="82" text-anchor="middle" dy="0.6em">0</text>
    <text x="48.89" y="82" text-anchor="middle" dy="0.6em">10</text>
    <text x="78.43" y="82" text-anchor="middle" dy="0.6em">20</text>
    <text x="107.96" y="82" text-anchor="middle" dy="0.6em">30</text>
    <text x="137.5" y="82" text-anchor="middle" dy="0.6em">40</text>
  </g>
  <g class="guide colorkey" id="img-ad09b687-4">
    <g fill="#4C404B" font-size="2.82" font-family="'PT Sans','Helvetica Neue','Helvetica',sans-serif" id="img-ad09b687-5">
      <text x="143.24" y="41.27" dy="0.35em" id="img-ad09b687-6" class="color_0">0</text>
      <text x="143.24" y="44.74" dy="0.35em" id="img-ad09b687-7" class="color_1">1</text>
      <text x="143.24" y="48.21" dy="0.35em" id="img-ad09b687-8" class="color_2">2</text>
    </g>
    <g stroke="#000000" stroke-opacity="0.000" id="img-ad09b687-9">
      <rect x="140.5" y="40.4" width="1.73" height="1.73" id="img-ad09b687-10" class="color_0" fill="#00BFFF"/>
      <rect x="140.5" y="43.87" width="1.73" height="1.73" id="img-ad09b687-11" class="color_1" fill="#D4CA3A"/>
      <rect x="140.5" y="47.34" width="1.73" height="1.73" id="img-ad09b687-12" class="color_2" fill="#FF6DAE"/>
    </g>
    <g fill="#362A35" font-size="3.88" font-family="'PT Sans','Helvetica Neue','Helvetica',sans-serif" stroke="#000000" stroke-opacity="0.000" id="img-ad09b687-13">
      <text x="140.5" y="36.86" id="img-ad09b687-14">n</text>
    </g>
  </g>
<g clip-path="url(#img-ad09b687-15)">
  <g id="img-ad09b687-16">
    <g pointer-events="visible" opacity="1" fill="#000000" fill-opacity="0.000" stroke="#000000" stroke-opacity="0.000" class="guide background" id="img-ad09b687-17">
      <rect x="17.35" y="5" width="122.15" height="76" id="img-ad09b687-18"/>
    </g>
    <g class="guide ygridlines xfixed" stroke-dasharray="0.5,0.5" stroke-width="0.2" stroke="#D0D0E0" id="img-ad09b687-19">
      <path fill="none" d="M17.35,79 L 139.5 79" id="img-ad09b687-20"/>
      <path fill="none" d="M17.35,67 L 139.5 67" id="img-ad09b687-21"/>
      <path fill="none" d="M17.35,55 L 139.5 55" id="img-ad09b687-22"/>
      <path fill="none" d="M17.35,43 L 139.5 43" id="img-ad09b687-23"/>
      <path fill="none" d="M17.35,31 L 139.5 31" id="img-ad09b687-24"/>
      <path fill="none" d="M17.35,19 L 139.5 19" id="img-ad09b687-25"/>
      <path fill="none" d="M17.35,7 L 139.5 7" id="img-ad09b687-26"/>
    </g>
    <g class="guide xgridlines yfixed" stroke-dasharray="0.5,0.5" stroke-width="0.2" stroke="#D0D0E0" id="img-ad09b687-27">
      <path fill="none" d="M19.35,5 L 19.35 81" id="img-ad09b687-28"/>
      <path fill="none" d="M48.89,5 L 48.89 81" id="img-ad09b687-29"/>
      <path fill="none" d="M78.43,5 L 78.43 81" id="img-ad09b687-30"/>
      <path fill="none" d="M107.96,5 L 107.96 81" id="img-ad09b687-31"/>
      <path fill="none" d="M137.5,5 L 137.5 81" id="img-ad09b687-32"/>
    </g>
    <g class="plotpanel" id="img-ad09b687-33">
      <g stroke-width="0.3" fill="#000000" fill-opacity="0.000" stroke-dasharray="none" id="img-ad09b687-34">
        <path fill="none" d="M23.34,63.59 L 23.35 63.57 23.35 63.58 23.35 63.54 23.36 63.55 23.36 63.48 23.36 63.51 23.37 63.45 23.38 63.35 23.4 63.2 23.42 62.95 23.46 62.76 23.49 62.45 23.55 62.07 23.62 61.59 23.7 60.99 23.82 60.37 23.97 59.52 24.16 58.43 24.42 57.26 24.67 56.13 24.97 54.91 25.31 53.45 25.75 51.62 26.29 49.1 27.07 45.76 28.26 40.63 30.43 33.96 34.15 27.11 39.57 22.23 45.98 19.86 52.66 19.12 59.49 18.96 66.53 18.92 73.75 18.94 81.21 18.94 88.91 18.95 96.8 18.97 104.83 18.99 112.13 19" id="img-ad09b687-35" stroke="#00BFFF" class="geometry color_0"/>
        <path fill="none" d="M23.34,62.41 L 23.34 62.42 23.34 62.34 23.35 62.42 23.36 62.42 23.36 62.39 23.36 62.2 23.37 62.28 23.39 62.06 23.4 61.94 23.43 61.86 23.43 61.77 23.46 61.64 23.46 61.47 23.5 61.21 23.54 60.78 23.63 60.23 23.72 59.67 23.82 59.13 23.91 58.57 24.01 57.87 24.15 56.88 24.36 55.32 24.72 52.93 25.39 48.74 26.73 42.25 29.38 34.14 33.78 26.74 39.54 22.02 45.86 19.86 52.29 19.13 58.71 18.95 65.16 18.92 71.65 18.93 78.19 18.94 84.87 18.94 91.63 18.95 98.53 18.96 105.5 18.99 112.11 19" id="img-ad09b687-36" stroke="#D4CA3A" class="geometry color_1"/>
        <path fill="none" d="M23.69,60.14 L 23.7 60.12 23.7 60.15 23.7 60.13 23.7 60.07 23.71 60.09 23.71 60.02 23.72 59.95 23.74 59.85 23.74 59.74 23.77 59.63 23.78 59.49 23.81 59.32 23.84 59.11 23.88 58.91 23.92 58.57 23.99 58.07 24.09 57.41 24.21 56.68 24.37 55.81 24.53 54.77 24.76 53.48 25.08 51.82 25.51 49.64 26.13 46.51 27.11 42.22 28.83 36.25 31.87 29.51 36.65 23.88 42.65 20.76 49.09 19.4 55.68 18.97 62.35 18.91 69.2 18.89 76.24 18.9 83.47 18.93 90.87 18.95 98.38 18.97 105.75 19 112.19 19" id="img-ad09b687-37" stroke="#FF6DAE" class="geometry color_2"/>
      </g>
    </g>
  </g>
</g>
  <g class="guide ylabels" font-size="2.82" font-family="'PT Sans Caption','Helvetica Neue','Helvetica',sans-serif" fill="#6C606B" id="img-ad09b687-38">
    <text x="16.35" y="79" text-anchor="end" dy="0.35em" id="img-ad09b687-39">0</text>
    <text x="16.35" y="67" text-anchor="end" dy="0.35em" id="img-ad09b687-40">10</text>
    <text x="16.35" y="55" text-anchor="end" dy="0.35em" id="img-ad09b687-41">20</text>
    <text x="16.35" y="43" text-anchor="end" dy="0.35em" id="img-ad09b687-42">30</text>
    <text x="16.35" y="31" text-anchor="end" dy="0.35em" id="img-ad09b687-43">40</text>
    <text x="16.35" y="19" text-anchor="end" dy="0.35em" id="img-ad09b687-44">50</text>
    <text x="16.35" y="7" text-anchor="end" dy="0.35em" id="img-ad09b687-45">60</text>
  </g>
  <g font-size="3.88" font-family="'PT Sans','Helvetica Neue','Helvetica',sans-serif" fill="#564A55" stroke="#000000" stroke-opacity="0.000" id="img-ad09b687-46">
    <text x="8.41" y="41" text-anchor="middle" dy="0.35em" transform="rotate(-90, 8.41, 43)" id="img-ad09b687-47">Numero de Variedades</text>
  </g>
</g>
<defs>
  <clipPath id="img-ad09b687-15">
  <path d="M17.35,5 L 139.5 5 139.5 81 17.35 81" />
</clipPath>
</defs>
</svg>
