<?xml version="1.0" encoding="UTF-8"?>
<svg xmlns="http://www.w3.org/2000/svg"
     xmlns:xlink="http://www.w3.org/1999/xlink"
     xmlns:gadfly="http://www.gadflyjl.org/ns"
     version="1.2"
     width="150mm" height="100mm" viewBox="0 0 150 100"
     stroke="none"
     fill="#000000"
     stroke-width="0.3"
     font-size="3.88"
>
<g class="plotroot xscalable yscalable" id="img-86585686-1">
  <g font-size="3.88" font-family="'PT Sans','Helvetica Neue','Helvetica',sans-serif" fill="#564A55" stroke="#000000" stroke-opacity="0.000" id="img-86585686-2">
    <text x="73.49" y="88.47" text-anchor="middle" dy="0.6em">Numero Medio de Variedades por UD</text>
  </g>
  <g class="guide xlabels" font-size="2.82" font-family="'PT Sans Caption','Helvetica Neue','Helvetica',sans-serif" fill="#6C606B" id="img-86585686-3">
    <text x="19.35" y="82" text-anchor="middle" dy="0.6em">0</text>
    <text x="46.42" y="82" text-anchor="middle" dy="0.6em">10</text>
    <text x="73.49" y="82" text-anchor="middle" dy="0.6em">20</text>
    <text x="100.56" y="82" text-anchor="middle" dy="0.6em">30</text>
    <text x="127.62" y="82" text-anchor="middle" dy="0.6em">40</text>
  </g>
  <g class="guide colorkey" id="img-86585686-4">
    <g fill="#4C404B" font-size="2.82" font-family="'PT Sans','Helvetica Neue','Helvetica',sans-serif" id="img-86585686-5">
      <text x="133.36" y="37.8" dy="0.35em" id="img-86585686-6" class="color_0.00025">0.00025</text>
      <text x="133.36" y="41.27" dy="0.35em" id="img-86585686-7" class="color_0.0005">0.0005</text>
      <text x="133.36" y="44.74" dy="0.35em" id="img-86585686-8" class="color_0.001">0.001</text>
      <text x="133.36" y="48.21" dy="0.35em" id="img-86585686-9" class="color_0.002">0.002</text>
      <text x="133.36" y="51.68" dy="0.35em" id="img-86585686-10" class="color_0.004">0.004</text>
    </g>
    <g stroke="#000000" stroke-opacity="0.000" id="img-86585686-11">
      <rect x="130.62" y="36.93" width="1.73" height="1.73" id="img-86585686-12" class="color_0.00025" fill="#00BFFF"/>
      <rect x="130.62" y="40.4" width="1.73" height="1.73" id="img-86585686-13" class="color_0.0005" fill="#D4CA3A"/>
      <rect x="130.62" y="43.87" width="1.73" height="1.73" id="img-86585686-14" class="color_0.001" fill="#FF6DAE"/>
      <rect x="130.62" y="47.34" width="1.73" height="1.73" id="img-86585686-15" class="color_0.002" fill="#00B78D"/>
      <rect x="130.62" y="50.81" width="1.73" height="1.73" id="img-86585686-16" class="color_0.004" fill="#BEA9FF"/>
    </g>
    <g fill="#362A35" font-size="3.88" font-family="'PT Sans','Helvetica Neue','Helvetica',sans-serif" stroke="#000000" stroke-opacity="0.000" id="img-86585686-17">
      <text x="130.62" y="33.74" id="img-86585686-18">i</text>
    </g>
  </g>
<g clip-path="url(#img-86585686-19)">
  <g id="img-86585686-20">
    <g pointer-events="visible" opacity="1" fill="#000000" fill-opacity="0.000" stroke="#000000" stroke-opacity="0.000" class="guide background" id="img-86585686-21">
      <rect x="17.35" y="5" width="112.27" height="76" id="img-86585686-22"/>
    </g>
    <g class="guide ygridlines xfixed" stroke-dasharray="0.5,0.5" stroke-width="0.2" stroke="#D0D0E0" id="img-86585686-23">
      <path fill="none" d="M17.35,79 L 129.62 79" id="img-86585686-24"/>
      <path fill="none" d="M17.35,67 L 129.62 67" id="img-86585686-25"/>
      <path fill="none" d="M17.35,55 L 129.62 55" id="img-86585686-26"/>
      <path fill="none" d="M17.35,43 L 129.62 43" id="img-86585686-27"/>
      <path fill="none" d="M17.35,31 L 129.62 31" id="img-86585686-28"/>
      <path fill="none" d="M17.35,19 L 129.62 19" id="img-86585686-29"/>
      <path fill="none" d="M17.35,7 L 129.62 7" id="img-86585686-30"/>
    </g>
    <g class="guide xgridlines yfixed" stroke-dasharray="0.5,0.5" stroke-width="0.2" stroke="#D0D0E0" id="img-86585686-31">
      <path fill="none" d="M19.35,5 L 19.35 81" id="img-86585686-32"/>
      <path fill="none" d="M46.42,5 L 46.42 81" id="img-86585686-33"/>
      <path fill="none" d="M73.49,5 L 73.49 81" id="img-86585686-34"/>
      <path fill="none" d="M100.56,5 L 100.56 81" id="img-86585686-35"/>
      <path fill="none" d="M127.62,5 L 127.62 81" id="img-86585686-36"/>
    </g>
    <g class="plotpanel" id="img-86585686-37">
      <g stroke-width="0.3" fill="#000000" fill-opacity="0.000" stroke-dasharray="none" id="img-86585686-38">
        <path fill="none" d="M23.13,61.85 L 23.14 61.87 23.14 61.8 23.15 61.74 23.16 61.67 23.17 61.58 23.19 61.47 23.2 61.39 23.22 61.3 23.23 61.22 23.25 61.09 23.27 60.9 23.3 60.6 23.35 60.28 23.4 59.98 23.45 59.73 23.49 59.36 23.56 58.82 23.67 57.84 23.89 55.92 24.35 52.75 25.24 47.91 26.86 41.61 29.49 34.65 33.22 28.31 37.82 23.74 42.82 21.08 47.87 19.72 52.77 19.15 57.49 18.96 62.07 18.9 66.56 18.89 70.99 18.89 75.36 18.89 79.74 18.91 84.14 18.92 88.69 18.94 93.51 18.97 98.78 19 104.43 19" id="img-86585686-39" stroke="#00B78D" class="geometry color_0.002"/>
        <path fill="none" d="M22.95,62.63 L 22.96 62.63 22.96 62.63 22.96 62.57 22.97 62.63 22.97 62.63 22.97 62.61 22.97 62.41 22.98 62.51 23 62.3 23.01 62.19 23.04 62.09 23.04 61.91 23.08 61.76 23.09 61.48 23.15 61.07 23.2 60.43 23.32 59.59 23.44 58.83 23.58 58.04 23.72 57.11 23.91 56.05 24.12 54.74 24.41 53.04 24.81 50.62 25.49 46.47 26.77 39.87 29.32 31.99 33.59 25.1 39.11 21.24 45.16 19.55 51.37 19.01 57.68 18.93 64.11 18.91 70.66 18.92 77.35 18.94 84.21 18.96 91.1 18.97 98.03 19 104.35 19" id="img-86585686-40" stroke="#00BFFF" class="geometry color_0.00025"/>
        <path fill="none" d="M91.4,18.02 L 91.4 18.05 91.4 18.07 91.4 18.09 91.41 18.12 91.41 18.15 91.41 18.17 91.42 18.2 91.42 18.23 91.42 18.26 91.42 18.28 91.42 18.32 91.43 18.35 91.43 18.36 91.43 18.4 91.44 18.41 91.44 18.45 91.45 18.48 91.45 18.51 91.46 18.52 91.46 18.54 91.47 18.57 91.47 18.59 91.48 18.61 91.49 18.64 91.5 18.66 91.51 18.69 91.51 18.71 91.52 18.73 91.53 18.74 91.55 18.78 91.6 18.82 91.67 18.84 91.81 18.85 92.08 18.88 92.62 18.91 93.72 18.94 95.82 18.96 99.42 18.99 104.34 19" id="img-86585686-41" stroke="#BEA9FF" class="geometry color_0.004"/>
        <path fill="none" d="M22.96,63.22 L 22.96 63.21 22.96 63.17 22.97 63.23 22.97 63.22 22.97 63.2 22.97 63.04 22.98 63.11 22.99 62.94 23 62.82 23.02 62.73 23.03 62.61 23.05 62.53 23.06 62.37 23.09 62.14 23.12 61.78 23.19 61.2 23.27 60.41 23.39 59.75 23.49 59.12 23.62 58.38 23.74 57.41 23.93 56.19 24.17 54.34 24.57 51.53 25.27 46.74 26.72 39.41 29.67 30.92 34.31 24.35 40.04 20.71 46.14 19.32 52.35 18.99 58.6 18.95 64.94 18.94 71.43 18.94 77.99 18.95 84.67 18.97 91.39 18.98 98.15 18.99 104.41 19" id="img-86585686-42" stroke="#D4CA3A" class="geometry color_0.0005"/>
        <path fill="none" d="M22.98,62.97 L 22.98 62.96 22.99 62.91 22.99 62.98 22.99 62.98 23 62.94 23.01 62.84 23.01 62.74 23.03 62.64 23.04 62.54 23.06 62.47 23.06 62.35 23.09 62.25 23.09 62.06 23.14 61.85 23.17 61.4 23.25 60.82 23.33 60.27 23.43 59.69 23.5 59.13 23.62 58.41 23.73 57.33 23.96 55.74 24.28 53.1 24.94 48.86 26.2 42.39 28.62 34.34 32.61 26.79 37.81 22.07 43.61 19.83 49.51 19.1 55.4 18.94 61.28 18.92 67.25 18.92 73.27 18.93 79.41 18.94 85.65 18.95 91.96 18.97 98.35 19 104.44 19" id="img-86585686-43" stroke="#FF6DAE" class="geometry color_0.001"/>
      </g>
    </g>
  </g>
</g>
  <g class="guide ylabels" font-size="2.82" font-family="'PT Sans Caption','Helvetica Neue','Helvetica',sans-serif" fill="#6C606B" id="img-86585686-44">
    <text x="16.35" y="79" text-anchor="end" dy="0.35em" id="img-86585686-45">0</text>
    <text x="16.35" y="67" text-anchor="end" dy="0.35em" id="img-86585686-46">10</text>
    <text x="16.35" y="55" text-anchor="end" dy="0.35em" id="img-86585686-47">20</text>
    <text x="16.35" y="43" text-anchor="end" dy="0.35em" id="img-86585686-48">30</text>
    <text x="16.35" y="31" text-anchor="end" dy="0.35em" id="img-86585686-49">40</text>
    <text x="16.35" y="19" text-anchor="end" dy="0.35em" id="img-86585686-50">50</text>
    <text x="16.35" y="7" text-anchor="end" dy="0.35em" id="img-86585686-51">60</text>
  </g>
  <g font-size="3.88" font-family="'PT Sans','Helvetica Neue','Helvetica',sans-serif" fill="#564A55" stroke="#000000" stroke-opacity="0.000" id="img-86585686-52">
    <text x="8.41" y="41" text-anchor="middle" dy="0.35em" transform="rotate(-90, 8.41, 43)" id="img-86585686-53">Numero de Variedades</text>
  </g>
</g>
<defs>
  <clipPath id="img-86585686-19">
  <path d="M17.35,5 L 129.62 5 129.62 81 17.35 81" />
</clipPath>
</defs>
</svg>
