<?xml version="1.0" encoding="UTF-8"?>
<svg xmlns="http://www.w3.org/2000/svg"
     xmlns:xlink="http://www.w3.org/1999/xlink"
     xmlns:gadfly="http://www.gadflyjl.org/ns"
     version="1.2"
     width="150mm" height="100mm" viewBox="0 0 150 100"
     stroke="none"
     fill="#000000"
     stroke-width="0.3"
     font-size="3.88"
>
<g class="plotroot xscalable yscalable" id="img-87c973a7-1">
  <g font-size="3.88" font-family="'PT Sans','Helvetica Neue','Helvetica',sans-serif" fill="#564A55" stroke="#000000" stroke-opacity="0.000" id="img-87c973a7-2">
    <text x="76.66" y="88.47" text-anchor="middle" dy="0.6em">Numero Medio de Variedades por UD</text>
  </g>
  <g class="guide xlabels" font-size="2.82" font-family="'PT Sans Caption','Helvetica Neue','Helvetica',sans-serif" fill="#6C606B" id="img-87c973a7-3">
    <text x="21.11" y="82" text-anchor="middle" dy="0.6em">0</text>
    <text x="48.89" y="82" text-anchor="middle" dy="0.6em">5</text>
    <text x="76.66" y="82" text-anchor="middle" dy="0.6em">10</text>
    <text x="104.44" y="82" text-anchor="middle" dy="0.6em">15</text>
    <text x="132.21" y="82" text-anchor="middle" dy="0.6em">20</text>
  </g>
  <g class="guide colorkey" id="img-87c973a7-4">
    <g fill="#4C404B" font-size="2.82" font-family="'PT Sans','Helvetica Neue','Helvetica',sans-serif" id="img-87c973a7-5">
      <text x="137.94" y="39.53" dy="0.35em" id="img-87c973a7-6" class="color_1">1</text>
      <text x="137.94" y="43" dy="0.35em" id="img-87c973a7-7" class="color_7">7</text>
      <text x="137.94" y="46.47" dy="0.35em" id="img-87c973a7-8" class="color_49">49</text>
      <text x="137.94" y="49.94" dy="0.35em" id="img-87c973a7-9" class="color_2401">2401</text>
    </g>
    <g stroke="#000000" stroke-opacity="0.000" id="img-87c973a7-10">
      <rect x="135.21" y="38.66" width="1.73" height="1.73" id="img-87c973a7-11" class="color_1" fill="#00BFFF"/>
      <rect x="135.21" y="42.13" width="1.73" height="1.73" id="img-87c973a7-12" class="color_7" fill="#D4CA3A"/>
      <rect x="135.21" y="45.6" width="1.73" height="1.73" id="img-87c973a7-13" class="color_49" fill="#FF6DAE"/>
      <rect x="135.21" y="49.07" width="1.73" height="1.73" id="img-87c973a7-14" class="color_2401" fill="#00B78D"/>
    </g>
    <g fill="#362A35" font-size="3.88" font-family="'PT Sans','Helvetica Neue','Helvetica',sans-serif" stroke="#000000" stroke-opacity="0.000" id="img-87c973a7-15">
      <text x="135.21" y="35.3" id="img-87c973a7-16">r</text>
    </g>
  </g>
<g clip-path="url(#img-87c973a7-17)">
  <g id="img-87c973a7-18">
    <g pointer-events="visible" opacity="1" fill="#000000" fill-opacity="0.000" stroke="#000000" stroke-opacity="0.000" class="guide background" id="img-87c973a7-19">
      <rect x="19.11" y="5" width="115.1" height="76" id="img-87c973a7-20"/>
    </g>
    <g class="guide ygridlines xfixed" stroke-dasharray="0.5,0.5" stroke-width="0.2" stroke="#D0D0E0" id="img-87c973a7-21">
      <path fill="none" d="M19.11,79 L 134.21 79" id="img-87c973a7-22"/>
      <path fill="none" d="M19.11,43 L 134.21 43" id="img-87c973a7-23"/>
      <path fill="none" d="M19.11,7 L 134.21 7" id="img-87c973a7-24"/>
    </g>
    <g class="guide xgridlines yfixed" stroke-dasharray="0.5,0.5" stroke-width="0.2" stroke="#D0D0E0" id="img-87c973a7-25">
      <path fill="none" d="M21.11,5 L 21.11 81" id="img-87c973a7-26"/>
      <path fill="none" d="M48.89,5 L 48.89 81" id="img-87c973a7-27"/>
      <path fill="none" d="M76.66,5 L 76.66 81" id="img-87c973a7-28"/>
      <path fill="none" d="M104.44,5 L 104.44 81" id="img-87c973a7-29"/>
      <path fill="none" d="M132.21,5 L 132.21 81" id="img-87c973a7-30"/>
    </g>
    <g class="plotpanel" id="img-87c973a7-31">
      <g stroke-width="0.3" fill="#000000" fill-opacity="0.000" stroke-dasharray="none" id="img-87c973a7-32">
        <path fill="none" d="M26.67,74.45 L 32.22 73.15 37.78 71.45 43.33 71.12 48.89 71.51 54.44 72.12 60 72.83 65.55 73.6 71.11 74.45 76.66 75.41 82.22 76 87.77 76.65 93.33 77.13 98.88 77.59 104.44 77.9 109.99 78.17 115.55 78.49 121.1 78.65 126.65 78.74 132.21 78.84 137.76 78.89 143.32 78.96 148.87 78.97 154.43 79 159.98 79 165.54 78.99 171.09 79 176.65 79 182.2 79 187.76 79 193.31 79 198.87 79 204.42 79 209.98 79 215.53 79 221.09 79 226.64 79 232.2 79 237.75 79 243.31 79 248.86 79 254.42 79 259.97 79 265.52 79 271.08 79 276.63 79 282.19 79 287.74 79 293.3 79" id="img-87c973a7-33" stroke="#00B78D" class="geometry color_2401"/>
        <path fill="none" d="M26.67,26.77 L 32.22 61.82 37.78 77.56 43.33 78.36 48.89 78.74 54.44 78.89 60 78.96 65.55 78.96 71.11 78.99 76.66 79 82.22 79 87.77 79 93.33 79 98.88 79 104.44 79 109.99 79 115.55 79 121.1 79 126.65 79 132.21 79 137.76 79 143.32 79 148.87 79 154.43 79 159.98 79 165.54 79 171.09 79 176.65 79 182.2 79 187.76 79 193.31 79 198.87 79 204.42 79 209.98 79 215.53 79 221.09 79 226.64 79 232.2 79 237.75 79 243.31 79 248.86 79 254.42 79 259.97 79 265.52 79 271.08 79 276.63 79 282.19 79 287.74 79 293.3 79" id="img-87c973a7-34" stroke="#00BFFF" class="geometry color_1"/>
        <path fill="none" d="M26.67,31.77 L 32.22 58.24 37.78 77.28 43.33 78.2 48.89 78.5 54.44 78.71 60 78.84 65.55 78.91 71.11 78.89 76.66 78.96 82.22 78.96 87.77 78.96 93.33 78.96 98.88 78.98 104.44 78.98 109.99 78.99 115.55 78.97 121.1 78.99 126.65 78.99 132.21 78.98 137.76 79 143.32 78.99 148.87 79 154.43 79 159.98 79 165.54 79 171.09 79 176.65 79 182.2 79 187.76 79 193.31 79 198.87 79 204.42 79 209.98 79 215.53 79 221.09 79 226.64 79 232.2 79 237.75 79 243.31 79 248.86 79 254.42 79 259.97 79 265.52 79 271.08 79 276.63 79 282.19 79 287.74 79 293.3 79" id="img-87c973a7-35" stroke="#D4CA3A" class="geometry color_7"/>
        <path fill="none" d="M26.67,69.22 L 32.22 69.73 37.78 71.76 43.33 72.83 48.89 73.63 54.44 74.03 60 74.5 65.55 74.97 71.11 75.51 76.66 76.21 82.22 76.37 87.77 76.69 93.33 76.96 98.88 77.4 104.44 77.66 109.99 77.94 115.55 78 121.1 78.25 126.65 78.54 132.21 78.62 137.76 78.73 143.32 78.78 148.87 78.88 154.43 78.94 159.98 78.97 165.54 78.97 171.09 78.99 176.65 79 182.2 79 187.76 79 193.31 79 198.87 79 204.42 79 209.98 79 215.53 79 221.09 79 226.64 79 232.2 79 237.75 79 243.31 79 248.86 79 254.42 79 259.97 79 265.52 79 271.08 79 276.63 79 282.19 79 287.74 79 293.3 79" id="img-87c973a7-36" stroke="#FF6DAE" class="geometry color_49"/>
      </g>
    </g>
  </g>
</g>
  <g class="guide ylabels" font-size="2.82" font-family="'PT Sans Caption','Helvetica Neue','Helvetica',sans-serif" fill="#6C606B" id="img-87c973a7-37">
    <text x="18.11" y="79" text-anchor="end" dy="0.35em" id="img-87c973a7-38">0.0</text>
    <text x="18.11" y="43" text-anchor="end" dy="0.35em" id="img-87c973a7-39">0.5</text>
    <text x="18.11" y="7" text-anchor="end" dy="0.35em" id="img-87c973a7-40">1.0</text>
  </g>
  <g font-size="3.88" font-family="'PT Sans','Helvetica Neue','Helvetica',sans-serif" fill="#564A55" stroke="#000000" stroke-opacity="0.000" id="img-87c973a7-41">
    <text x="8.76" y="41" text-anchor="middle" dy="0.35em" transform="rotate(-90, 8.76, 43)" id="img-87c973a7-42">Frequencia</text>
  </g>
</g>
<defs>
  <clipPath id="img-87c973a7-17">
  <path d="M19.11,5 L 134.21 5 134.21 81 19.11 81" />
</clipPath>
</defs>
</svg>
