<?xml version="1.0" encoding="UTF-8"?>
<svg xmlns="http://www.w3.org/2000/svg"
     xmlns:xlink="http://www.w3.org/1999/xlink"
     xmlns:gadfly="http://www.gadflyjl.org/ns"
     version="1.2"
     width="150mm" height="100mm" viewBox="0 0 150 100"
     stroke="none"
     fill="#000000"
     stroke-width="0.3"
     font-size="3.88"
>
<g class="plotroot xscalable yscalable" id="img-5b2a9762-1">
  <g font-size="3.88" font-family="'PT Sans','Helvetica Neue','Helvetica',sans-serif" fill="#564A55" stroke="#000000" stroke-opacity="0.000" id="img-5b2a9762-2">
    <text x="77.54" y="88.47" text-anchor="middle" dy="0.6em">Numero Medio de Variedades por UD</text>
  </g>
  <g class="guide xlabels" font-size="2.82" font-family="'PT Sans Caption','Helvetica Neue','Helvetica',sans-serif" fill="#6C606B" id="img-5b2a9762-3">
    <text x="21.11" y="82" text-anchor="middle" dy="0.6em">0</text>
    <text x="49.33" y="82" text-anchor="middle" dy="0.6em">5</text>
    <text x="77.54" y="82" text-anchor="middle" dy="0.6em">10</text>
    <text x="105.76" y="82" text-anchor="middle" dy="0.6em">15</text>
    <text x="133.97" y="82" text-anchor="middle" dy="0.6em">20</text>
  </g>
  <g class="guide colorkey" id="img-5b2a9762-4">
    <g fill="#4C404B" font-size="2.82" font-family="'PT Sans','Helvetica Neue','Helvetica',sans-serif" id="img-5b2a9762-5">
      <text x="139.71" y="37.8" dy="0.35em" id="img-5b2a9762-6" class="color_10">10</text>
      <text x="139.71" y="41.27" dy="0.35em" id="img-5b2a9762-7" class="color_25">25</text>
      <text x="139.71" y="44.74" dy="0.35em" id="img-5b2a9762-8" class="color_50">50</text>
      <text x="139.71" y="48.21" dy="0.35em" id="img-5b2a9762-9" class="color_75">75</text>
      <text x="139.71" y="51.68" dy="0.35em" id="img-5b2a9762-10" class="color_100">100</text>
    </g>
    <g stroke="#000000" stroke-opacity="0.000" id="img-5b2a9762-11">
      <rect x="136.97" y="36.93" width="1.73" height="1.73" id="img-5b2a9762-12" class="color_10" fill="#00BFFF"/>
      <rect x="136.97" y="40.4" width="1.73" height="1.73" id="img-5b2a9762-13" class="color_25" fill="#D4CA3A"/>
      <rect x="136.97" y="43.87" width="1.73" height="1.73" id="img-5b2a9762-14" class="color_50" fill="#FF6DAE"/>
      <rect x="136.97" y="47.34" width="1.73" height="1.73" id="img-5b2a9762-15" class="color_75" fill="#00B78D"/>
      <rect x="136.97" y="50.81" width="1.73" height="1.73" id="img-5b2a9762-16" class="color_100" fill="#BEA9FF"/>
    </g>
    <g fill="#362A35" font-size="3.88" font-family="'PT Sans','Helvetica Neue','Helvetica',sans-serif" stroke="#000000" stroke-opacity="0.000" id="img-5b2a9762-17">
      <text x="136.97" y="33.39" id="img-5b2a9762-18">v</text>
    </g>
  </g>
<g clip-path="url(#img-5b2a9762-19)">
  <g id="img-5b2a9762-20">
    <g pointer-events="visible" opacity="1" fill="#000000" fill-opacity="0.000" stroke="#000000" stroke-opacity="0.000" class="guide background" id="img-5b2a9762-21">
      <rect x="19.11" y="5" width="116.86" height="76" id="img-5b2a9762-22"/>
    </g>
    <g class="guide ygridlines xfixed" stroke-dasharray="0.5,0.5" stroke-width="0.2" stroke="#D0D0E0" id="img-5b2a9762-23">
      <path fill="none" d="M19.11,79 L 135.97 79" id="img-5b2a9762-24"/>
      <path fill="none" d="M19.11,43 L 135.97 43" id="img-5b2a9762-25"/>
      <path fill="none" d="M19.11,7 L 135.97 7" id="img-5b2a9762-26"/>
    </g>
    <g class="guide xgridlines yfixed" stroke-dasharray="0.5,0.5" stroke-width="0.2" stroke="#D0D0E0" id="img-5b2a9762-27">
      <path fill="none" d="M21.11,5 L 21.11 81" id="img-5b2a9762-28"/>
      <path fill="none" d="M49.33,5 L 49.33 81" id="img-5b2a9762-29"/>
      <path fill="none" d="M77.54,5 L 77.54 81" id="img-5b2a9762-30"/>
      <path fill="none" d="M105.76,5 L 105.76 81" id="img-5b2a9762-31"/>
      <path fill="none" d="M133.97,5 L 133.97 81" id="img-5b2a9762-32"/>
    </g>
    <g class="plotpanel" id="img-5b2a9762-33">
      <g stroke-width="0.3" fill="#000000" fill-opacity="0.000" stroke-dasharray="none" id="img-5b2a9762-34">
        <path fill="none" d="M26.76,27.14 L 32.4 61.44 38.04 77.61 43.69 78.39 49.33 78.72 54.97 78.85 60.61 78.95 66.26 78.97 71.9 78.99 77.54 78.99 83.19 79 88.83 79 94.47 79 100.12 79 105.76 79 111.4 79 117.04 79 122.69 79 128.33 79 133.97 79 139.62 79 145.26 79 150.9 79 156.55 79 162.19 79 167.83 79 173.47 79 179.12 79 184.76 79 190.4 79 196.05 79 201.69 79 207.33 79 212.98 79 218.62 79 224.26 79 229.9 79 235.55 79 241.19 79 246.83 79 252.48 79 258.12 79 263.76 79 269.41 79 275.05 79 280.69 79 286.33 79 291.98 79 297.62 79" id="img-5b2a9762-35" stroke="#00B78D" class="geometry color_75"/>
        <path fill="none" d="M26.76,27.88 L 32.4 60.82 38.04 77.42 43.69 78.41 49.33 78.71 54.97 78.88 60.61 78.94 66.26 78.99 71.9 79 77.54 78.99 83.19 79 88.83 79 94.47 79 100.12 79 105.76 79 111.4 79 117.04 79 122.69 79 128.33 79 133.97 79 139.62 79 145.26 79 150.9 79 156.55 79 162.19 79 167.83 79 173.47 79 179.12 79 184.76 79 190.4 79 196.05 79 201.69 79 207.33 79 212.98 79 218.62 79 224.26 79 229.9 79 235.55 79 241.19 79 246.83 79 252.48 79 258.12 79 263.76 79 269.41 79 275.05 79 280.69 79 286.33 79 291.98 79 297.62 79" id="img-5b2a9762-36" stroke="#00BFFF" class="geometry color_10"/>
        <path fill="none" d="M26.76,26.43 L 32.4 61.68 38.04 77.8 43.69 78.51 49.33 78.78 54.97 78.91 60.61 78.96 66.26 78.97 71.9 79 77.54 79 83.19 79 88.83 79 94.47 79 100.12 79 105.76 79 111.4 79 117.04 79 122.69 79 128.33 79 133.97 79 139.62 79 145.26 79 150.9 79 156.55 79 162.19 79 167.83 79 173.47 79 179.12 79 184.76 79 190.4 79 196.05 79 201.69 79 207.33 79 212.98 79 218.62 79 224.26 79 229.9 79 235.55 79 241.19 79 246.83 79 252.48 79 258.12 79 263.76 79 269.41 79 275.05 79 280.69 79 286.33 79 291.98 79 297.62 79" id="img-5b2a9762-37" stroke="#BEA9FF" class="geometry color_100"/>
        <path fill="none" d="M26.76,27.74 L 32.4 61.26 38.04 77.48 43.69 78.3 49.33 78.6 54.97 78.81 60.61 78.89 66.26 78.97 71.9 78.99 77.54 79 83.19 79 88.83 79 94.47 79 100.12 79 105.76 79 111.4 79 117.04 79 122.69 79 128.33 79 133.97 79 139.62 79 145.26 79 150.9 79 156.55 79 162.19 79 167.83 79 173.47 79 179.12 79 184.76 79 190.4 79 196.05 79 201.69 79 207.33 79 212.98 79 218.62 79 224.26 79 229.9 79 235.55 79 241.19 79 246.83 79 252.48 79 258.12 79 263.76 79 269.41 79 275.05 79 280.69 79 286.33 79 291.98 79 297.62 79" id="img-5b2a9762-38" stroke="#D4CA3A" class="geometry color_25"/>
        <path fill="none" d="M26.76,27.29 L 32.4 61.4 38.04 77.5 43.69 78.36 49.33 78.76 54.97 78.89 60.61 78.92 66.26 78.95 71.9 78.98 77.54 78.99 83.19 79 88.83 79 94.47 79 100.12 79 105.76 79 111.4 79 117.04 79 122.69 79 128.33 79 133.97 79 139.62 79 145.26 79 150.9 79 156.55 79 162.19 79 167.83 79 173.47 79 179.12 79 184.76 79 190.4 79 196.05 79 201.69 79 207.33 79 212.98 79 218.62 79 224.26 79 229.9 79 235.55 79 241.19 79 246.83 79 252.48 79 258.12 79 263.76 79 269.41 79 275.05 79 280.69 79 286.33 79 291.98 79 297.62 79" id="img-5b2a9762-39" stroke="#FF6DAE" class="geometry color_50"/>
      </g>
    </g>
  </g>
</g>
  <g class="guide ylabels" font-size="2.82" font-family="'PT Sans Caption','Helvetica Neue','Helvetica',sans-serif" fill="#6C606B" id="img-5b2a9762-40">
    <text x="18.11" y="79" text-anchor="end" dy="0.35em" id="img-5b2a9762-41">0.0</text>
    <text x="18.11" y="43" text-anchor="end" dy="0.35em" id="img-5b2a9762-42">0.5</text>
    <text x="18.11" y="7" text-anchor="end" dy="0.35em" id="img-5b2a9762-43">1.0</text>
  </g>
  <g font-size="3.88" font-family="'PT Sans','Helvetica Neue','Helvetica',sans-serif" fill="#564A55" stroke="#000000" stroke-opacity="0.000" id="img-5b2a9762-44">
    <text x="8.76" y="41" text-anchor="middle" dy="0.35em" transform="rotate(-90, 8.76, 43)" id="img-5b2a9762-45">Frequencia</text>
  </g>
</g>
<defs>
  <clipPath id="img-5b2a9762-19">
  <path d="M19.11,5 L 135.97 5 135.97 81 19.11 81" />
</clipPath>
</defs>
</svg>
