<?xml version="1.0" encoding="UTF-8"?>
<svg xmlns="http://www.w3.org/2000/svg"
     xmlns:xlink="http://www.w3.org/1999/xlink"
     xmlns:gadfly="http://www.gadflyjl.org/ns"
     version="1.2"
     width="200mm" height="100mm" viewBox="0 0 200 100"
     stroke="none"
     fill="#000000"
     stroke-width="0.3"
     font-size="3.88"
>
<g class="plotroot xscalable yscalable" id="img-2a943774-1">
  <g font-size="3.88" font-family="'PT Sans','Helvetica Neue','Helvetica',sans-serif" fill="#564A55" stroke="#000000" stroke-opacity="0.000" id="img-2a943774-2">
    <text x="74.35" y="88.82" text-anchor="middle" dy="0.6em">Parâmetro</text>
  </g>
  <g class="guide xlabels" font-size="2.82" font-family="'PT Sans Caption','Helvetica Neue','Helvetica',sans-serif" fill="#6C606B" id="img-2a943774-3">
    <text x="12.53" y="82.36" text-anchor="middle" dy="0.6em">0.000</text>
    <text x="74.35" y="82.36" text-anchor="middle" dy="0.6em">0.005</text>
    <text x="136.17" y="82.36" text-anchor="middle" dy="0.6em">0.010</text>
  </g>
  <g class="guide colorkey" id="img-2a943774-4">
    <g fill="#4C404B" font-size="2.82" font-family="'PT Sans','Helvetica Neue','Helvetica',sans-serif" id="img-2a943774-5">
      <text x="142.44" y="43.18" dy="0.35em">Número de Variedades</text>
      <text x="142.44" y="47.71" dy="0.35em">Número Médio de Variedades por UD</text>
    </g>
    <g stroke="#000000" stroke-opacity="0.000" id="img-2a943774-6">
      <rect x="139.17" y="42.05" width="2.26" height="2.26" fill="#008000"/>
      <rect x="139.17" y="46.57" width="2.26" height="2.26" fill="#FF0000"/>
    </g>
    <g fill="#362A35" font-size="3.88" font-family="'PT Sans','Helvetica Neue','Helvetica',sans-serif" stroke="#000000" stroke-opacity="0.000" id="img-2a943774-7">
      <text x="139.17" y="36.65"></text>
    </g>
  </g>
<g clip-path="url(#img-2a943774-8)">
  <g id="img-2a943774-9">
    <g pointer-events="visible" opacity="1" fill="#000000" fill-opacity="0.000" stroke="#000000" stroke-opacity="0.000" class="guide background" id="img-2a943774-10">
      <rect x="10.53" y="5" width="127.64" height="76.36"/>
    </g>
    <g class="guide ygridlines xfixed" stroke-dasharray="0.5,0.5" stroke-width="0.2" stroke="#D0D0E0" id="img-2a943774-11">
      <path fill="none" d="M10.53,79.36 L 138.17 79.36"/>
      <path fill="none" d="M10.53,67.3 L 138.17 67.3"/>
      <path fill="none" d="M10.53,55.24 L 138.17 55.24"/>
      <path fill="none" d="M10.53,43.18 L 138.17 43.18"/>
      <path fill="none" d="M10.53,31.12 L 138.17 31.12"/>
      <path fill="none" d="M10.53,19.06 L 138.17 19.06"/>
      <path fill="none" d="M10.53,7 L 138.17 7"/>
    </g>
    <g class="guide xgridlines yfixed" stroke-dasharray="0.5,0.5" stroke-width="0.2" stroke="#D0D0E0" id="img-2a943774-12">
      <path fill="none" d="M12.53,5 L 12.53 81.36"/>
      <path fill="none" d="M74.35,5 L 74.35 81.36"/>
      <path fill="none" d="M136.17,5 L 136.17 81.36"/>
    </g>
    <g class="plotpanel" id="img-2a943774-13">
      <g stroke-width="0.3" fill="#000000" fill-opacity="0.000" class="geometry" stroke-dasharray="none" stroke="#FF0000" id="img-2a943774-14">
        <path fill="none" d="M13.76,77.77 L 18.71 77.75 24.89 77.71 31.07 77.71 37.26 77.65 43.44 76.83 49.62 56.64 55.8 48.31 61.99 47.28 68.17 46.87 74.35 46.44 105.26 45.05 136.17 44.32"/>
      </g>
      <g stroke-width="0.3" fill="#000000" fill-opacity="0.000" class="geometry" stroke-dasharray="none" stroke="#008000" id="img-2a943774-15">
        <path fill="none" d="M13.76,63.51 L 18.71 63.59 24.89 62.38 31.07 63.09 37.26 61.92 43.44 59.91 49.62 28.37 55.8 18.23 61.99 18.06 68.17 18.18 74.35 18.11 105.26 18.02 136.17 18.01"/>
      </g>
    </g>
  </g>
</g>
  <g class="guide ylabels" font-size="2.82" font-family="'PT Sans Caption','Helvetica Neue','Helvetica',sans-serif" fill="#6C606B" id="img-2a943774-16">
    <text x="9.53" y="79.36" text-anchor="end" dy="0.35em">0</text>
    <text x="9.53" y="67.3" text-anchor="end" dy="0.35em">10</text>
    <text x="9.53" y="55.24" text-anchor="end" dy="0.35em">20</text>
    <text x="9.53" y="43.18" text-anchor="end" dy="0.35em">30</text>
    <text x="9.53" y="31.12" text-anchor="end" dy="0.35em">40</text>
    <text x="9.53" y="19.06" text-anchor="end" dy="0.35em">50</text>
    <text x="9.53" y="7" text-anchor="end" dy="0.35em">60</text>
  </g>
</g>
<defs>
  <clipPath id="img-2a943774-8">
  <path d="M10.53,5 L 138.17 5 138.17 81.36 10.53 81.36" />
</clipPath>
</defs>
</svg>
