<?xml version="1.0" encoding="UTF-8"?>
<svg xmlns="http://www.w3.org/2000/svg"
     xmlns:xlink="http://www.w3.org/1999/xlink"
     xmlns:gadfly="http://www.gadflyjl.org/ns"
     version="1.2"
     width="150mm" height="100mm" viewBox="0 0 150 100"
     stroke="none"
     fill="#000000"
     stroke-width="0.3"
     font-size="3.88"
>
<g class="plotroot xscalable yscalable" id="img-e78eb42b-1">
  <g font-size="3.88" font-family="'PT Sans','Helvetica Neue','Helvetica',sans-serif" fill="#564A55" stroke="#000000" stroke-opacity="0.000" id="img-e78eb42b-2">
    <text x="78.43" y="88.47" text-anchor="middle" dy="0.6em">Tempo</text>
  </g>
  <g class="guide xlabels" font-size="2.82" font-family="'PT Sans Caption','Helvetica Neue','Helvetica',sans-serif" fill="#6C606B" id="img-e78eb42b-3">
    <text x="19.35" y="82" text-anchor="middle" dy="0.6em">0</text>
    <text x="48.89" y="82" text-anchor="middle" dy="0.6em">50</text>
    <text x="78.43" y="82" text-anchor="middle" dy="0.6em">100</text>
    <text x="107.96" y="82" text-anchor="middle" dy="0.6em">150</text>
    <text x="137.5" y="82" text-anchor="middle" dy="0.6em">200</text>
  </g>
  <g class="guide colorkey" id="img-e78eb42b-4">
    <g fill="#4C404B" font-size="2.82" font-family="'PT Sans','Helvetica Neue','Helvetica',sans-serif" id="img-e78eb42b-5">
      <text x="143.24" y="41.27" dy="0.35em" id="img-e78eb42b-6" class="color_0">0</text>
      <text x="143.24" y="44.74" dy="0.35em" id="img-e78eb42b-7" class="color_1">1</text>
      <text x="143.24" y="48.21" dy="0.35em" id="img-e78eb42b-8" class="color_2">2</text>
    </g>
    <g stroke="#000000" stroke-opacity="0.000" id="img-e78eb42b-9">
      <rect x="140.5" y="40.4" width="1.73" height="1.73" id="img-e78eb42b-10" class="color_0" fill="#00BFFF"/>
      <rect x="140.5" y="43.87" width="1.73" height="1.73" id="img-e78eb42b-11" class="color_1" fill="#D4CA3A"/>
      <rect x="140.5" y="47.34" width="1.73" height="1.73" id="img-e78eb42b-12" class="color_2" fill="#FF6DAE"/>
    </g>
    <g fill="#362A35" font-size="3.88" font-family="'PT Sans','Helvetica Neue','Helvetica',sans-serif" stroke="#000000" stroke-opacity="0.000" id="img-e78eb42b-13">
      <text x="140.5" y="36.86" id="img-e78eb42b-14">n</text>
    </g>
  </g>
<g clip-path="url(#img-e78eb42b-15)">
  <g id="img-e78eb42b-16">
    <g pointer-events="visible" opacity="1" fill="#000000" fill-opacity="0.000" stroke="#000000" stroke-opacity="0.000" class="guide background" id="img-e78eb42b-17">
      <rect x="17.35" y="5" width="122.15" height="76" id="img-e78eb42b-18"/>
    </g>
    <g class="guide ygridlines xfixed" stroke-dasharray="0.5,0.5" stroke-width="0.2" stroke="#D0D0E0" id="img-e78eb42b-19">
      <path fill="none" d="M17.35,79 L 139.5 79" id="img-e78eb42b-20"/>
      <path fill="none" d="M17.35,67 L 139.5 67" id="img-e78eb42b-21"/>
      <path fill="none" d="M17.35,55 L 139.5 55" id="img-e78eb42b-22"/>
      <path fill="none" d="M17.35,43 L 139.5 43" id="img-e78eb42b-23"/>
      <path fill="none" d="M17.35,31 L 139.5 31" id="img-e78eb42b-24"/>
      <path fill="none" d="M17.35,19 L 139.5 19" id="img-e78eb42b-25"/>
      <path fill="none" d="M17.35,7 L 139.5 7" id="img-e78eb42b-26"/>
    </g>
    <g class="guide xgridlines yfixed" stroke-dasharray="0.5,0.5" stroke-width="0.2" stroke="#D0D0E0" id="img-e78eb42b-27">
      <path fill="none" d="M19.35,5 L 19.35 81" id="img-e78eb42b-28"/>
      <path fill="none" d="M48.89,5 L 48.89 81" id="img-e78eb42b-29"/>
      <path fill="none" d="M78.43,5 L 78.43 81" id="img-e78eb42b-30"/>
      <path fill="none" d="M107.96,5 L 107.96 81" id="img-e78eb42b-31"/>
      <path fill="none" d="M137.5,5 L 137.5 81" id="img-e78eb42b-32"/>
    </g>
    <g class="plotpanel" id="img-e78eb42b-33">
      <g stroke-width="0.3" fill="#000000" fill-opacity="0.000" stroke-dasharray="none" id="img-e78eb42b-34">
        <path fill="none" d="M19.35,19 L 22.3 18.99 25.26 18.97 28.21 18.95 31.17 18.94 34.12 18.94 37.07 18.92 40.03 18.96 42.98 19.12 45.93 19.86 48.89 22.23 51.84 27.11 54.8 33.96 57.75 40.63 60.7 45.76 63.66 49.1 66.61 51.62 69.56 53.45 72.52 54.91 75.47 56.13 78.43 57.26 81.38 58.43 84.33 59.52 87.29 60.37 90.24 60.99 93.19 61.59 96.15 62.07 99.1 62.45 102.06 62.76 105.01 62.95 107.96 63.2 110.92 63.35 113.87 63.45 116.82 63.48 119.78 63.51 122.73 63.54 125.69 63.55 128.64 63.57 131.59 63.58 134.55 63.59" id="img-e78eb42b-35" stroke="#00BFFF" class="geometry color_0"/>
        <path fill="none" d="M19.35,19 L 22.3 18.99 25.26 18.96 28.21 18.95 31.17 18.94 34.12 18.94 37.07 18.93 40.03 18.92 42.98 18.95 45.93 19.13 48.89 19.86 51.84 22.02 54.8 26.74 57.75 34.14 60.7 42.25 63.66 48.74 66.61 52.93 69.56 55.32 72.52 56.88 75.47 57.87 78.43 58.57 81.38 59.13 84.33 59.67 87.29 60.23 90.24 60.78 93.19 61.21 96.15 61.47 99.1 61.64 102.06 61.77 105.01 61.86 107.96 61.94 110.92 62.06 113.87 62.2 116.82 62.28 119.78 62.34 122.73 62.39 125.69 62.42 128.64 62.42 131.59 62.41 134.55 62.42" id="img-e78eb42b-36" stroke="#D4CA3A" class="geometry color_1"/>
        <path fill="none" d="M19.35,19 L 22.3 19 25.26 18.97 28.21 18.95 31.17 18.93 34.12 18.9 37.07 18.89 40.03 18.91 42.98 18.97 45.93 19.4 48.89 20.76 51.84 23.88 54.8 29.51 57.75 36.25 60.7 42.22 63.66 46.51 66.61 49.64 69.56 51.82 72.52 53.48 75.47 54.77 78.43 55.81 81.38 56.68 84.33 57.41 87.29 58.07 90.24 58.57 93.19 58.91 96.15 59.11 99.1 59.32 102.06 59.49 105.01 59.63 107.96 59.74 110.92 59.85 113.87 59.95 116.82 60.02 119.78 60.07 122.73 60.09 125.69 60.12 128.64 60.13 131.59 60.14 134.55 60.15" id="img-e78eb42b-37" stroke="#FF6DAE" class="geometry color_2"/>
      </g>
    </g>
  </g>
</g>
  <g class="guide ylabels" font-size="2.82" font-family="'PT Sans Caption','Helvetica Neue','Helvetica',sans-serif" fill="#6C606B" id="img-e78eb42b-38">
    <text x="16.35" y="79" text-anchor="end" dy="0.35em" id="img-e78eb42b-39">0</text>
    <text x="16.35" y="67" text-anchor="end" dy="0.35em" id="img-e78eb42b-40">10</text>
    <text x="16.35" y="55" text-anchor="end" dy="0.35em" id="img-e78eb42b-41">20</text>
    <text x="16.35" y="43" text-anchor="end" dy="0.35em" id="img-e78eb42b-42">30</text>
    <text x="16.35" y="31" text-anchor="end" dy="0.35em" id="img-e78eb42b-43">40</text>
    <text x="16.35" y="19" text-anchor="end" dy="0.35em" id="img-e78eb42b-44">50</text>
    <text x="16.35" y="7" text-anchor="end" dy="0.35em" id="img-e78eb42b-45">60</text>
  </g>
  <g font-size="3.88" font-family="'PT Sans','Helvetica Neue','Helvetica',sans-serif" fill="#564A55" stroke="#000000" stroke-opacity="0.000" id="img-e78eb42b-46">
    <text x="8.41" y="41" text-anchor="middle" dy="0.35em" transform="rotate(-90, 8.41, 43)" id="img-e78eb42b-47">Numero de Variedades</text>
  </g>
</g>
<defs>
  <clipPath id="img-e78eb42b-15">
  <path d="M17.35,5 L 139.5 5 139.5 81 17.35 81" />
</clipPath>
</defs>
</svg>
