<?xml version="1.0" encoding="UTF-8"?>
<svg xmlns="http://www.w3.org/2000/svg"
     xmlns:xlink="http://www.w3.org/1999/xlink"
     xmlns:gadfly="http://www.gadflyjl.org/ns"
     version="1.2"
     width="150mm" height="100mm" viewBox="0 0 150 100"
     stroke="none"
     fill="#000000"
     stroke-width="0.3"
     font-size="3.88"
>
<g class="plotroot xscalable yscalable" id="img-343639c7-1">
  <g font-size="3.88" font-family="'PT Sans','Helvetica Neue','Helvetica',sans-serif" fill="#564A55" stroke="#000000" stroke-opacity="0.000" id="img-343639c7-2">
    <text x="75.25" y="88.47" text-anchor="middle" dy="0.6em">Numero Medio de Variedades por UD</text>
  </g>
  <g class="guide xlabels" font-size="2.82" font-family="'PT Sans Caption','Helvetica Neue','Helvetica',sans-serif" fill="#6C606B" id="img-343639c7-3">
    <text x="21.11" y="82" text-anchor="middle" dy="0.6em">0</text>
    <text x="48.18" y="82" text-anchor="middle" dy="0.6em">5</text>
    <text x="75.25" y="82" text-anchor="middle" dy="0.6em">10</text>
    <text x="102.32" y="82" text-anchor="middle" dy="0.6em">15</text>
    <text x="129.39" y="82" text-anchor="middle" dy="0.6em">20</text>
  </g>
  <g class="guide colorkey" id="img-343639c7-4">
    <g fill="#4C404B" font-size="2.82" font-family="'PT Sans','Helvetica Neue','Helvetica',sans-serif" id="img-343639c7-5">
      <text x="135.12" y="36.06" dy="0.35em" id="img-343639c7-6" class="color_2.5e-5">2.5e-5</text>
      <text x="135.12" y="39.53" dy="0.35em" id="img-343639c7-7" class="color_5.0e-5">5.0e-5</text>
      <text x="135.12" y="43" dy="0.35em" id="img-343639c7-8" class="color_0.0001">0.0001</text>
      <text x="135.12" y="46.47" dy="0.35em" id="img-343639c7-9" class="color_0.0002">0.0002</text>
      <text x="135.12" y="49.94" dy="0.35em" id="img-343639c7-10" class="color_0.0005">0.0005</text>
      <text x="135.12" y="53.41" dy="0.35em" id="img-343639c7-11" class="color_0.001">0.001</text>
    </g>
    <g stroke="#000000" stroke-opacity="0.000" id="img-343639c7-12">
      <rect x="132.39" y="35.2" width="1.73" height="1.73" id="img-343639c7-13" class="color_2.5e-5" fill="#00BFFF"/>
      <rect x="132.39" y="38.66" width="1.73" height="1.73" id="img-343639c7-14" class="color_5.0e-5" fill="#D4CA3A"/>
      <rect x="132.39" y="42.13" width="1.73" height="1.73" id="img-343639c7-15" class="color_0.0001" fill="#FF6DAE"/>
      <rect x="132.39" y="45.6" width="1.73" height="1.73" id="img-343639c7-16" class="color_0.0002" fill="#00B78D"/>
      <rect x="132.39" y="49.07" width="1.73" height="1.73" id="img-343639c7-17" class="color_0.0005" fill="#BEA9FF"/>
      <rect x="132.39" y="52.54" width="1.73" height="1.73" id="img-343639c7-18" class="color_0.001" fill="#FF6765"/>
    </g>
    <g fill="#362A35" font-size="3.88" font-family="'PT Sans','Helvetica Neue','Helvetica',sans-serif" stroke="#000000" stroke-opacity="0.000" id="img-343639c7-19">
      <text x="132.39" y="32" id="img-343639c7-20">p</text>
    </g>
  </g>
<g clip-path="url(#img-343639c7-21)">
  <g id="img-343639c7-22">
    <g pointer-events="visible" opacity="1" fill="#000000" fill-opacity="0.000" stroke="#000000" stroke-opacity="0.000" class="guide background" id="img-343639c7-23">
      <rect x="19.11" y="5" width="112.27" height="76" id="img-343639c7-24"/>
    </g>
    <g class="guide ygridlines xfixed" stroke-dasharray="0.5,0.5" stroke-width="0.2" stroke="#D0D0E0" id="img-343639c7-25">
      <path fill="none" d="M19.11,79 L 131.39 79" id="img-343639c7-26"/>
      <path fill="none" d="M19.11,43 L 131.39 43" id="img-343639c7-27"/>
      <path fill="none" d="M19.11,7 L 131.39 7" id="img-343639c7-28"/>
    </g>
    <g class="guide xgridlines yfixed" stroke-dasharray="0.5,0.5" stroke-width="0.2" stroke="#D0D0E0" id="img-343639c7-29">
      <path fill="none" d="M21.11,5 L 21.11 81" id="img-343639c7-30"/>
      <path fill="none" d="M48.18,5 L 48.18 81" id="img-343639c7-31"/>
      <path fill="none" d="M75.25,5 L 75.25 81" id="img-343639c7-32"/>
      <path fill="none" d="M102.32,5 L 102.32 81" id="img-343639c7-33"/>
      <path fill="none" d="M129.39,5 L 129.39 81" id="img-343639c7-34"/>
    </g>
    <g class="plotpanel" id="img-343639c7-35">
      <g stroke-width="0.3" fill="#000000" fill-opacity="0.000" stroke-dasharray="none" id="img-343639c7-36">
        <path fill="none" d="M26.53,27.5 L 31.94 61.35 37.35 77.38 42.77 78.33 48.18 78.72 53.6 78.88 59.01 78.94 64.42 78.96 69.84 78.99 75.25 78.98 80.66 79 86.08 79 91.49 79 96.91 79 102.32 79 107.73 79 113.15 79 118.56 79 123.97 79 129.39 79 134.8 79 140.21 79 145.63 79 151.04 79 156.46 79 161.87 79 167.28 79 172.7 79 178.11 79 183.52 79 188.94 79 194.35 79 199.77 79 205.18 79 210.59 79 216.01 79 221.42 79 226.83 79 232.25 79 237.66 79 243.07 79 248.49 79 253.9 79 259.32 79 264.73 79 270.14 79 275.56 79 280.97 79 286.38 79" id="img-343639c7-37" stroke="#00B78D" class="geometry color_0.0002"/>
        <path fill="none" d="M26.53,27.21 L 31.94 61.42 37.35 77.59 42.77 78.4 48.18 78.71 53.6 78.86 59.01 78.9 64.42 78.97 69.84 78.99 75.25 78.99 80.66 78.99 86.08 78.99 91.49 79 96.91 79 102.32 79 107.73 79 113.15 79 118.56 79 123.97 79 129.39 79 134.8 79 140.21 79 145.63 79 151.04 79 156.46 79 161.87 79 167.28 79 172.7 79 178.11 79 183.52 79 188.94 79 194.35 79 199.77 79 205.18 79 210.59 79 216.01 79 221.42 79 226.83 79 232.25 79 237.66 79 243.07 79 248.49 79 253.9 79 259.32 79 264.73 79 270.14 79 275.56 79 280.97 79 286.38 79" id="img-343639c7-38" stroke="#00BFFF" class="geometry color_2.5e-5"/>
        <path fill="none" d="M26.53,27.42 L 31.94 61.21 37.35 77.5 42.77 78.36 48.18 78.7 53.6 78.92 59.01 78.96 64.42 78.98 69.84 78.99 75.25 79 80.66 79 86.08 79 91.49 79 96.91 79 102.32 79 107.73 79 113.15 79 118.56 79 123.97 79 129.39 79 134.8 79 140.21 79 145.63 79 151.04 79 156.46 79 161.87 79 167.28 79 172.7 79 178.11 79 183.52 79 188.94 79 194.35 79 199.77 79 205.18 79 210.59 79 216.01 79 221.42 79 226.83 79 232.25 79 237.66 79 243.07 79 248.49 79 253.9 79 259.32 79 264.73 79 270.14 79 275.56 79 280.97 79 286.38 79" id="img-343639c7-39" stroke="#BEA9FF" class="geometry color_0.0005"/>
        <path fill="none" d="M26.53,27.24 L 31.94 61.32 37.35 77.58 42.77 78.43 48.18 78.73 53.6 78.85 59.01 78.96 64.42 78.97 69.84 78.99 75.25 78.99 80.66 78.99 86.08 79 91.49 79 96.91 79 102.32 79 107.73 79 113.15 79 118.56 79 123.97 79 129.39 79 134.8 79 140.21 79 145.63 79 151.04 79 156.46 79 161.87 79 167.28 79 172.7 79 178.11 79 183.52 79 188.94 79 194.35 79 199.77 79 205.18 79 210.59 79 216.01 79 221.42 79 226.83 79 232.25 79 237.66 79 243.07 79 248.49 79 253.9 79 259.32 79 264.73 79 270.14 79 275.56 79 280.97 79 286.38 79" id="img-343639c7-40" stroke="#D4CA3A" class="geometry color_5.0e-5"/>
        <path fill="none" d="M26.53,28.03 L 31.94 60.55 37.35 77.57 42.77 78.4 48.18 78.74 53.6 78.85 59.01 78.93 64.42 78.98 69.84 78.99 75.25 79 80.66 79 86.08 79 91.49 79 96.91 79 102.32 79 107.73 79 113.15 79 118.56 79 123.97 79 129.39 79 134.8 79 140.21 79 145.63 79 151.04 79 156.46 79 161.87 79 167.28 79 172.7 79 178.11 79 183.52 79 188.94 79 194.35 79 199.77 79 205.18 79 210.59 79 216.01 79 221.42 79 226.83 79 232.25 79 237.66 79 243.07 79 248.49 79 253.9 79 259.32 79 264.73 79 270.14 79 275.56 79 280.97 79 286.38 79" id="img-343639c7-41" stroke="#FF6765" class="geometry color_0.001"/>
        <path fill="none" d="M26.53,26.98 L 31.94 61.55 37.35 77.54 42.77 78.47 48.18 78.72 53.6 78.87 59.01 78.93 64.42 78.99 69.84 79 75.25 79 80.66 79 86.08 79 91.49 79 96.91 79 102.32 79 107.73 79 113.15 79 118.56 79 123.97 79 129.39 79 134.8 79 140.21 79 145.63 79 151.04 79 156.46 79 161.87 79 167.28 79 172.7 79 178.11 79 183.52 79 188.94 79 194.35 79 199.77 79 205.18 79 210.59 79 216.01 79 221.42 79 226.83 79 232.25 79 237.66 79 243.07 79 248.49 79 253.9 79 259.32 79 264.73 79 270.14 79 275.56 79 280.97 79 286.38 79" id="img-343639c7-42" stroke="#FF6DAE" class="geometry color_0.0001"/>
      </g>
    </g>
  </g>
</g>
  <g class="guide ylabels" font-size="2.82" font-family="'PT Sans Caption','Helvetica Neue','Helvetica',sans-serif" fill="#6C606B" id="img-343639c7-43">
    <text x="18.11" y="79" text-anchor="end" dy="0.35em" id="img-343639c7-44">0.0</text>
    <text x="18.11" y="43" text-anchor="end" dy="0.35em" id="img-343639c7-45">0.5</text>
    <text x="18.11" y="7" text-anchor="end" dy="0.35em" id="img-343639c7-46">1.0</text>
  </g>
  <g font-size="3.88" font-family="'PT Sans','Helvetica Neue','Helvetica',sans-serif" fill="#564A55" stroke="#000000" stroke-opacity="0.000" id="img-343639c7-47">
    <text x="8.76" y="41" text-anchor="middle" dy="0.35em" transform="rotate(-90, 8.76, 43)" id="img-343639c7-48">Frequencia</text>
  </g>
</g>
<defs>
  <clipPath id="img-343639c7-21">
  <path d="M19.11,5 L 131.39 5 131.39 81 19.11 81" />
</clipPath>
</defs>
</svg>
