<?xml version="1.0" encoding="UTF-8"?>
<svg xmlns="http://www.w3.org/2000/svg"
     xmlns:xlink="http://www.w3.org/1999/xlink"
     xmlns:gadfly="http://www.gadflyjl.org/ns"
     version="1.2"
     width="150mm" height="100mm" viewBox="0 0 150 100"
     stroke="none"
     fill="#000000"
     stroke-width="0.3"
     font-size="3.88"
>
<g class="plotroot xscalable yscalable" id="img-6862e446-1">
  <g font-size="3.88" font-family="'PT Sans','Helvetica Neue','Helvetica',sans-serif" fill="#564A55" stroke="#000000" stroke-opacity="0.000" id="img-6862e446-2">
    <text x="75.78" y="88.47" text-anchor="middle" dy="0.6em">Tempo</text>
  </g>
  <g class="guide xlabels" font-size="2.82" font-family="'PT Sans Caption','Helvetica Neue','Helvetica',sans-serif" fill="#6C606B" id="img-6862e446-3">
    <text x="19.35" y="82" text-anchor="middle" dy="0.6em">0</text>
    <text x="47.56" y="82" text-anchor="middle" dy="0.6em">50</text>
    <text x="75.78" y="82" text-anchor="middle" dy="0.6em">100</text>
    <text x="103.99" y="82" text-anchor="middle" dy="0.6em">150</text>
    <text x="132.21" y="82" text-anchor="middle" dy="0.6em">200</text>
  </g>
  <g class="guide colorkey" id="img-6862e446-4">
    <g fill="#4C404B" font-size="2.82" font-family="'PT Sans','Helvetica Neue','Helvetica',sans-serif" id="img-6862e446-5">
      <text x="137.94" y="39.53" dy="0.35em" id="img-6862e446-6" class="color_1">1</text>
      <text x="137.94" y="43" dy="0.35em" id="img-6862e446-7" class="color_7">7</text>
      <text x="137.94" y="46.47" dy="0.35em" id="img-6862e446-8" class="color_49">49</text>
      <text x="137.94" y="49.94" dy="0.35em" id="img-6862e446-9" class="color_2401">2401</text>
    </g>
    <g stroke="#000000" stroke-opacity="0.000" id="img-6862e446-10">
      <rect x="135.21" y="38.66" width="1.73" height="1.73" id="img-6862e446-11" class="color_1" fill="#00BFFF"/>
      <rect x="135.21" y="42.13" width="1.73" height="1.73" id="img-6862e446-12" class="color_7" fill="#D4CA3A"/>
      <rect x="135.21" y="45.6" width="1.73" height="1.73" id="img-6862e446-13" class="color_49" fill="#FF6DAE"/>
      <rect x="135.21" y="49.07" width="1.73" height="1.73" id="img-6862e446-14" class="color_2401" fill="#00B78D"/>
    </g>
    <g fill="#362A35" font-size="3.88" font-family="'PT Sans','Helvetica Neue','Helvetica',sans-serif" stroke="#000000" stroke-opacity="0.000" id="img-6862e446-15">
      <text x="135.21" y="35.3" id="img-6862e446-16">r</text>
    </g>
  </g>
<g clip-path="url(#img-6862e446-17)">
  <g id="img-6862e446-18">
    <g pointer-events="visible" opacity="1" fill="#000000" fill-opacity="0.000" stroke="#000000" stroke-opacity="0.000" class="guide background" id="img-6862e446-19">
      <rect x="17.35" y="5" width="116.86" height="76" id="img-6862e446-20"/>
    </g>
    <g class="guide ygridlines xfixed" stroke-dasharray="0.5,0.5" stroke-width="0.2" stroke="#D0D0E0" id="img-6862e446-21">
      <path fill="none" d="M17.35,79 L 134.21 79" id="img-6862e446-22"/>
      <path fill="none" d="M17.35,67 L 134.21 67" id="img-6862e446-23"/>
      <path fill="none" d="M17.35,55 L 134.21 55" id="img-6862e446-24"/>
      <path fill="none" d="M17.35,43 L 134.21 43" id="img-6862e446-25"/>
      <path fill="none" d="M17.35,31 L 134.21 31" id="img-6862e446-26"/>
      <path fill="none" d="M17.35,19 L 134.21 19" id="img-6862e446-27"/>
      <path fill="none" d="M17.35,7 L 134.21 7" id="img-6862e446-28"/>
    </g>
    <g class="guide xgridlines yfixed" stroke-dasharray="0.5,0.5" stroke-width="0.2" stroke="#D0D0E0" id="img-6862e446-29">
      <path fill="none" d="M19.35,5 L 19.35 81" id="img-6862e446-30"/>
      <path fill="none" d="M47.56,5 L 47.56 81" id="img-6862e446-31"/>
      <path fill="none" d="M75.78,5 L 75.78 81" id="img-6862e446-32"/>
      <path fill="none" d="M103.99,5 L 103.99 81" id="img-6862e446-33"/>
      <path fill="none" d="M132.21,5 L 132.21 81" id="img-6862e446-34"/>
    </g>
    <g class="plotpanel" id="img-6862e446-35">
      <g stroke-width="0.3" fill="#000000" fill-opacity="0.000" stroke-dasharray="none" id="img-6862e446-36">
        <path fill="none" d="M19.35,19 L 22.17 19 24.99 18.98 27.81 18.96 30.64 18.94 33.46 18.92 36.28 18.9 39.1 18.89 41.92 18.89 44.74 18.88 47.56 18.88 50.39 18.89 53.21 18.88 56.03 18.89 58.85 18.89 61.67 18.92 64.49 18.96 67.32 19.01 70.14 19.07 72.96 19.14 75.78 19.22 78.6 19.26 81.42 19.33 84.24 19.37 87.07 19.43 89.89 19.49 92.71 19.51 95.53 19.56 98.35 19.59 101.17 19.62 103.99 19.63 106.82 19.64 109.64 19.63 112.46 19.63 115.28 19.63 118.1 19.64 120.92 19.64 123.75 19.63 126.57 19.64 129.39 19.64" id="img-6862e446-37" stroke="#00B78D" class="geometry color_2401"/>
        <path fill="none" d="M19.35,19 L 22.17 19 24.99 18.97 27.81 18.96 30.64 18.94 33.46 18.92 36.28 18.9 39.1 18.88 41.92 18.9 44.74 19.07 47.56 19.75 50.39 21.84 53.21 26.51 56.03 33.97 58.85 42.38 61.67 49.11 64.49 53.38 67.32 55.83 70.14 57.34 72.96 58.44 75.78 59.18 78.6 59.75 81.42 60.26 84.24 60.82 87.07 61.35 89.89 61.79 92.71 62.03 95.53 62.19 98.35 62.29 101.17 62.41 103.99 62.5 106.82 62.57 109.64 62.66 112.46 62.74 115.28 62.81 118.1 62.84 120.92 62.85 123.75 62.85 126.57 62.85 129.39 62.86" id="img-6862e446-38" stroke="#00BFFF" class="geometry color_1"/>
        <path fill="none" d="M19.35,19 L 22.17 18.99 24.99 18.97 27.81 18.96 30.64 18.94 33.46 18.93 36.28 18.92 39.1 18.91 41.92 18.89 44.74 18.91 47.56 18.95 50.39 19.07 53.21 19.49 56.03 20.49 58.85 22.09 61.67 24.6 64.49 27.72 67.32 31.13 70.14 34.99 72.96 38.97 75.78 42.26 78.6 44.55 81.42 46.34 84.24 47.77 87.07 48.79 89.89 49.69 92.71 50.29 95.53 50.76 98.35 51.06 101.17 51.26 103.99 51.37 106.82 51.5 109.64 51.57 112.46 51.62 115.28 51.68 118.1 51.72 120.92 51.74 123.75 51.79 126.57 51.83 129.39 51.86" id="img-6862e446-39" stroke="#D4CA3A" class="geometry color_7"/>
        <path fill="none" d="M19.35,19 L 22.17 18.99 24.99 18.98 27.81 18.95 30.64 18.94 33.46 18.91 36.28 18.91 39.1 18.91 41.92 18.9 44.74 18.89 47.56 18.9 50.39 18.89 53.21 18.89 56.03 18.89 58.85 18.95 61.67 18.98 64.49 19.07 67.32 19.13 70.14 19.21 72.96 19.31 75.78 19.41 78.6 19.48 81.42 19.55 84.24 19.62 87.07 19.7 89.89 19.76 92.71 19.83 95.53 19.91 98.35 19.94 101.17 19.96 103.99 20 106.82 20.03 109.64 20.05 112.46 20.08 115.28 20.1 118.1 20.09 120.92 20.09 123.75 20.09 126.57 20.09 129.39 20.09" id="img-6862e446-40" stroke="#FF6DAE" class="geometry color_49"/>
      </g>
    </g>
  </g>
</g>
  <g class="guide ylabels" font-size="2.82" font-family="'PT Sans Caption','Helvetica Neue','Helvetica',sans-serif" fill="#6C606B" id="img-6862e446-41">
    <text x="16.35" y="79" text-anchor="end" dy="0.35em" id="img-6862e446-42">0</text>
    <text x="16.35" y="67" text-anchor="end" dy="0.35em" id="img-6862e446-43">10</text>
    <text x="16.35" y="55" text-anchor="end" dy="0.35em" id="img-6862e446-44">20</text>
    <text x="16.35" y="43" text-anchor="end" dy="0.35em" id="img-6862e446-45">30</text>
    <text x="16.35" y="31" text-anchor="end" dy="0.35em" id="img-6862e446-46">40</text>
    <text x="16.35" y="19" text-anchor="end" dy="0.35em" id="img-6862e446-47">50</text>
    <text x="16.35" y="7" text-anchor="end" dy="0.35em" id="img-6862e446-48">60</text>
  </g>
  <g font-size="3.88" font-family="'PT Sans','Helvetica Neue','Helvetica',sans-serif" fill="#564A55" stroke="#000000" stroke-opacity="0.000" id="img-6862e446-49">
    <text x="8.41" y="41" text-anchor="middle" dy="0.35em" transform="rotate(-90, 8.41, 43)" id="img-6862e446-50">Numero de Variedades</text>
  </g>
</g>
<defs>
  <clipPath id="img-6862e446-17">
  <path d="M17.35,5 L 134.21 5 134.21 81 17.35 81" />
</clipPath>
</defs>
</svg>
