<?xml version="1.0" encoding="UTF-8"?>
<svg xmlns="http://www.w3.org/2000/svg"
     xmlns:xlink="http://www.w3.org/1999/xlink"
     xmlns:gadfly="http://www.gadflyjl.org/ns"
     version="1.2"
     width="150mm" height="100mm" viewBox="0 0 150 100"
     stroke="none"
     fill="#000000"
     stroke-width="0.3"
     font-size="3.88"
>
<g class="plotroot xscalable yscalable" id="img-bce24aed-1">
  <g font-size="3.88" font-family="'PT Sans','Helvetica Neue','Helvetica',sans-serif" fill="#564A55" stroke="#000000" stroke-opacity="0.000" id="img-bce24aed-2">
    <text x="77.9" y="88.47" text-anchor="middle" dy="0.6em">Appearence</text>
  </g>
  <g class="guide xlabels" font-size="2.82" font-family="'PT Sans Caption','Helvetica Neue','Helvetica',sans-serif" fill="#6C606B" id="img-bce24aed-3">
    <text x="22.88" y="82" text-anchor="middle" dy="0.6em">0.0</text>
    <text x="77.9" y="82" text-anchor="middle" dy="0.6em">0.5</text>
    <text x="132.92" y="82" text-anchor="middle" dy="0.6em">1.0</text>
  </g>
  <g class="guide colorkey" id="img-bce24aed-4">
    <g fill="#4C404B" font-size="2.82" font-family="'PT Sans','Helvetica Neue','Helvetica',sans-serif" id="img-bce24aed-5">
      <text x="138.65" y="37.8" dy="0.35em" id="img-bce24aed-6" class="color_0.0">0.0</text>
      <text x="138.65" y="41.27" dy="0.35em" id="img-bce24aed-7" class="color_0.25">0.25</text>
      <text x="138.65" y="44.74" dy="0.35em" id="img-bce24aed-8" class="color_0.5">0.5</text>
      <text x="138.65" y="48.21" dy="0.35em" id="img-bce24aed-9" class="color_0.75">0.75</text>
      <text x="138.65" y="51.68" dy="0.35em" id="img-bce24aed-10" class="color_1.0">1.0</text>
    </g>
    <g stroke="#000000" stroke-opacity="0.000" id="img-bce24aed-11">
      <rect x="135.92" y="36.93" width="1.73" height="1.73" id="img-bce24aed-12" class="color_0.0" fill="#00BFFF"/>
      <rect x="135.92" y="40.4" width="1.73" height="1.73" id="img-bce24aed-13" class="color_0.25" fill="#D4CA3A"/>
      <rect x="135.92" y="43.87" width="1.73" height="1.73" id="img-bce24aed-14" class="color_0.5" fill="#FF6DAE"/>
      <rect x="135.92" y="47.34" width="1.73" height="1.73" id="img-bce24aed-15" class="color_0.75" fill="#00B78D"/>
      <rect x="135.92" y="50.81" width="1.73" height="1.73" id="img-bce24aed-16" class="color_1.0" fill="#BEA9FF"/>
    </g>
    <g fill="#362A35" font-size="3.88" font-family="'PT Sans','Helvetica Neue','Helvetica',sans-serif" stroke="#000000" stroke-opacity="0.000" id="img-bce24aed-17">
      <text x="135.92" y="33.39" id="img-bce24aed-18">a</text>
    </g>
  </g>
<g clip-path="url(#img-bce24aed-19)">
  <g id="img-bce24aed-20">
    <g pointer-events="visible" opacity="1" fill="#000000" fill-opacity="0.000" stroke="#000000" stroke-opacity="0.000" class="guide background" id="img-bce24aed-21">
      <rect x="20.88" y="5" width="114.04" height="76" id="img-bce24aed-22"/>
    </g>
    <g class="guide ygridlines xfixed" stroke-dasharray="0.5,0.5" stroke-width="0.2" stroke="#D0D0E0" id="img-bce24aed-23">
      <path fill="none" d="M20.88,79 L 134.92 79" id="img-bce24aed-24"/>
      <path fill="none" d="M20.88,43 L 134.92 43" id="img-bce24aed-25"/>
      <path fill="none" d="M20.88,7 L 134.92 7" id="img-bce24aed-26"/>
    </g>
    <g class="guide xgridlines yfixed" stroke-dasharray="0.5,0.5" stroke-width="0.2" stroke="#D0D0E0" id="img-bce24aed-27">
      <path fill="none" d="M22.88,5 L 22.88 81" id="img-bce24aed-28"/>
      <path fill="none" d="M77.9,5 L 77.9 81" id="img-bce24aed-29"/>
      <path fill="none" d="M132.92,5 L 132.92 81" id="img-bce24aed-30"/>
    </g>
    <g class="plotpanel" id="img-bce24aed-31">
      <g stroke-width="0.3" fill="#000000" fill-opacity="0.000" stroke-dasharray="none" id="img-bce24aed-32">
        <path fill="none" d="M25.63,33.58 L 31.13 45.23 36.63 42.42 42.13 50.26 47.64 51.73 53.14 43.8 58.64 48.53 64.14 46.05 69.64 44.84 75.15 36.88 80.65 33.83 86.15 40.85 91.65 43.4 97.15 39.27 102.65 46.22 108.16 41.01 113.66 33.84 119.16 55.88 124.66 40.28 130.16 42.13" id="img-bce24aed-33" stroke="#00B78D" class="geometry color_0.75"/>
        <path fill="none" d="M25.63,42.75 L 31.13 41.99 36.63 41.18 42.13 40.7 47.64 43.76 53.14 44.02 58.64 43.75 64.14 44.43 69.64 42.62 75.15 44.4 80.65 41.72 86.15 44.93 91.65 40.58 97.15 45.17 102.65 41.66 108.16 44.71 113.66 42.86 119.16 42.51 124.66 42.86 130.16 43.42" id="img-bce24aed-34" stroke="#00BFFF" class="geometry color_0.0"/>
        <path fill="none" d="M25.63,38.26 L 31.13 44.8 36.63 48.05 42.13 44.22 47.64 49.54 53.14 38.24 58.64 52.33 64.14 45.44 69.64 47.23 75.15 40.06 80.65 32.32 86.15 46.89 91.65 31.86 97.15 48.14 102.65 45.21 108.16 38.55 113.66 39.88 119.16 37.09 124.66 39.78 130.16 52.13" id="img-bce24aed-35" stroke="#BEA9FF" class="geometry color_1.0"/>
        <path fill="none" d="M25.63,40.69 L 31.13 43.95 36.63 41.93 42.13 43.96 47.64 42.31 53.14 42.23 58.64 44.54 64.14 41.47 69.64 44.81 75.15 42 80.65 42.98 86.15 45.33 91.65 39.86 97.15 46.52 102.65 43.33 108.16 41.23 113.66 43.62 119.16 40.72 124.66 43.77 130.16 44.77" id="img-bce24aed-36" stroke="#D4CA3A" class="geometry color_0.25"/>
        <path fill="none" d="M25.63,39.75 L 31.13 43.01 36.63 43.31 42.13 46.18 47.64 38.18 53.14 48.52 58.64 38.2 64.14 46.71 69.64 41.05 75.15 42.85 80.65 40.49 86.15 42.65 91.65 46.96 97.15 43.61 102.65 39.38 108.16 44.26 113.66 41.99 119.16 44.95 124.66 44.89 130.16 43.07" id="img-bce24aed-37" stroke="#FF6DAE" class="geometry color_0.5"/>
      </g>
    </g>
  </g>
</g>
  <g class="guide ylabels" font-size="2.82" font-family="'PT Sans Caption','Helvetica Neue','Helvetica',sans-serif" fill="#6C606B" id="img-bce24aed-38">
    <text x="19.88" y="79" text-anchor="end" dy="0.35em" id="img-bce24aed-39">0.00</text>
    <text x="19.88" y="43" text-anchor="end" dy="0.35em" id="img-bce24aed-40">0.05</text>
    <text x="19.88" y="7" text-anchor="end" dy="0.35em" id="img-bce24aed-41">0.10</text>
  </g>
  <g font-size="3.88" font-family="'PT Sans','Helvetica Neue','Helvetica',sans-serif" fill="#564A55" stroke="#000000" stroke-opacity="0.000" id="img-bce24aed-42">
    <text x="8.76" y="41" text-anchor="middle" dy="0.35em" transform="rotate(-90, 8.76, 43)" id="img-bce24aed-43">Frequencia</text>
  </g>
</g>
<defs>
  <clipPath id="img-bce24aed-19">
  <path d="M20.88,5 L 134.92 5 134.92 81 20.88 81" />
</clipPath>
</defs>
</svg>
