<?xml version="1.0" encoding="UTF-8"?>
<svg xmlns="http://www.w3.org/2000/svg"
     xmlns:xlink="http://www.w3.org/1999/xlink"
     xmlns:gadfly="http://www.gadflyjl.org/ns"
     version="1.2"
     width="150mm" height="100mm" viewBox="0 0 150 100"
     stroke="none"
     fill="#000000"
     stroke-width="0.3"
     font-size="3.88"
>
<defs>
  <marker id="arrow" markerWidth="15" markerHeight="7" refX="5" refY="3.5" orient="auto" markerUnits="strokeWidth">
    <path d="M0,0 L15,3.5 L0,7 z" stroke="context-stroke" fill="context-stroke"/>
  </marker>
</defs>
<g class="plotroot xscalable yscalable" id="img-85d16c56-1">
  <g font-size="3.88" font-family="'PT Sans','Helvetica Neue','Helvetica',sans-serif" fill="#564A55" stroke="#000000" stroke-opacity="0.000" id="img-85d16c56-2">
    <g transform="translate(74.99,88.39)">
      <g class="primitive">
        <text text-anchor="middle" dy="0.6em">Numero Medio de Variedades por UD</text>
      </g>
    </g>
  </g>
  <g class="guide xlabels" font-size="2.82" font-family="'PT Sans Caption','Helvetica Neue','Helvetica',sans-serif" fill="#6C606B" id="img-85d16c56-3">
    <g transform="translate(20.63,81.72)">
      <g class="primitive">
        <text text-anchor="middle" dy="0.6em">0</text>
      </g>
    </g>
    <g transform="translate(47.81,81.72)">
      <g class="primitive">
        <text text-anchor="middle" dy="0.6em">5</text>
      </g>
    </g>
    <g transform="translate(74.99,81.72)">
      <g class="primitive">
        <text text-anchor="middle" dy="0.6em">10</text>
      </g>
    </g>
    <g transform="translate(102.16,81.72)">
      <g class="primitive">
        <text text-anchor="middle" dy="0.6em">15</text>
      </g>
    </g>
    <g transform="translate(129.34,81.72)">
      <g class="primitive">
        <text text-anchor="middle" dy="0.6em">20</text>
      </g>
    </g>
  </g>
  <g class="guide colorkey" id="img-85d16c56-4">
    <g fill="#4C404B" font-size="2.82" font-family="'PT Sans','Helvetica Neue','Helvetica',sans-serif" id="img-85d16c56-5">
      <g transform="translate(135.15,33.79)" id="img-85d16c56-6" class="color_2.5e-5">
        <g class="primitive">
          <text dy="0.35em">2.5e-5</text>
        </g>
      </g>
      <g transform="translate(135.15,37.42)" id="img-85d16c56-7" class="color_5.0e-5">
        <g class="primitive">
          <text dy="0.35em">5.0e-5</text>
        </g>
      </g>
      <g transform="translate(135.15,41.04)" id="img-85d16c56-8" class="color_0.0001">
        <g class="primitive">
          <text dy="0.35em">0.0001</text>
        </g>
      </g>
      <g transform="translate(135.15,44.67)" id="img-85d16c56-9" class="color_0.00025">
        <g class="primitive">
          <text dy="0.35em">0.00025</text>
        </g>
      </g>
      <g transform="translate(135.15,48.3)" id="img-85d16c56-10" class="color_0.0005">
        <g class="primitive">
          <text dy="0.35em">0.0005</text>
        </g>
      </g>
      <g transform="translate(135.15,51.92)" id="img-85d16c56-11" class="color_0.001">
        <g class="primitive">
          <text dy="0.35em">0.001</text>
        </g>
      </g>
      <g transform="translate(135.15,55.55)" id="img-85d16c56-12" class="color_0.005">
        <g class="primitive">
          <text dy="0.35em">0.005</text>
        </g>
      </g>
    </g>
    <g stroke="#000000" stroke-opacity="0.000" id="img-85d16c56-13">
      <g transform="translate(133.25,33.79)" id="img-85d16c56-14" fill="#00BFFF" class="color_2.5e-5">
        <path d="M-0.91,-0.91 L 0.91 -0.91 0.91 0.91 -0.91 0.91 z" class="primitive"/>
      </g>
      <g transform="translate(133.25,37.42)" id="img-85d16c56-15" fill="#D4CA3A" class="color_5.0e-5">
        <path d="M-0.91,-0.91 L 0.91 -0.91 0.91 0.91 -0.91 0.91 z" class="primitive"/>
      </g>
      <g transform="translate(133.25,41.04)" id="img-85d16c56-16" fill="#FF6DAE" class="color_0.0001">
        <path d="M-0.91,-0.91 L 0.91 -0.91 0.91 0.91 -0.91 0.91 z" class="primitive"/>
      </g>
      <g transform="translate(133.25,44.67)" id="img-85d16c56-17" fill="#00B78D" class="color_0.00025">
        <path d="M-0.91,-0.91 L 0.91 -0.91 0.91 0.91 -0.91 0.91 z" class="primitive"/>
      </g>
      <g transform="translate(133.25,48.3)" id="img-85d16c56-18" fill="#BEA9FF" class="color_0.0005">
        <path d="M-0.91,-0.91 L 0.91 -0.91 0.91 0.91 -0.91 0.91 z" class="primitive"/>
      </g>
      <g transform="translate(133.25,51.92)" id="img-85d16c56-19" fill="#FF6765" class="color_0.001">
        <path d="M-0.91,-0.91 L 0.91 -0.91 0.91 0.91 -0.91 0.91 z" class="primitive"/>
      </g>
      <g transform="translate(133.25,55.55)" id="img-85d16c56-20" fill="#C6C6C6" class="color_0.005">
        <path d="M-0.91,-0.91 L 0.91 -0.91 0.91 0.91 -0.91 0.91 z" class="primitive"/>
      </g>
    </g>
    <g fill="#362A35" font-size="3.88" font-family="'PT Sans','Helvetica Neue','Helvetica',sans-serif" stroke="#000000" stroke-opacity="0.000" id="img-85d16c56-21">
      <g transform="translate(132.34,29.97)" id="img-85d16c56-22">
        <g class="primitive">
          <text>p</text>
        </g>
      </g>
    </g>
  </g>
  <g clip-path="url(#img-85d16c56-23)">
    <g id="img-85d16c56-24">
      <g pointer-events="visible" fill="#000000" fill-opacity="0.000" stroke="#000000" stroke-opacity="0.000" class="guide background" id="img-85d16c56-25">
        <g transform="translate(74.99,42.86)" id="img-85d16c56-26">
          <path d="M-56.35,-37.86 L 56.35 -37.86 56.35 37.86 -56.35 37.86 z" class="primitive"/>
        </g>
      </g>
      <g class="guide ygridlines xfixed" stroke-dasharray="0.5,0.5" stroke-width="0.2" stroke="#D0D0E0" id="img-85d16c56-27">
        <g transform="translate(74.99,78.71)" id="img-85d16c56-28">
          <path fill="none" d="M-56.35,0 L 56.35 0" class="primitive"/>
        </g>
        <g transform="translate(74.99,42.86)" id="img-85d16c56-29">
          <path fill="none" d="M-56.35,0 L 56.35 0" class="primitive"/>
        </g>
        <g transform="translate(74.99,7)" id="img-85d16c56-30">
          <path fill="none" d="M-56.35,0 L 56.35 0" class="primitive"/>
        </g>
      </g>
      <g class="guide xgridlines yfixed" stroke-dasharray="0.5,0.5" stroke-width="0.2" stroke="#D0D0E0" id="img-85d16c56-31">
        <g transform="translate(20.63,42.86)" id="img-85d16c56-32">
          <path fill="none" d="M0,-37.86 L 0 37.86" class="primitive"/>
        </g>
        <g transform="translate(47.81,42.86)" id="img-85d16c56-33">
          <path fill="none" d="M0,-37.86 L 0 37.86" class="primitive"/>
        </g>
        <g transform="translate(74.99,42.86)" id="img-85d16c56-34">
          <path fill="none" d="M0,-37.86 L 0 37.86" class="primitive"/>
        </g>
        <g transform="translate(102.16,42.86)" id="img-85d16c56-35">
          <path fill="none" d="M0,-37.86 L 0 37.86" class="primitive"/>
        </g>
        <g transform="translate(129.34,42.86)" id="img-85d16c56-36">
          <path fill="none" d="M0,-37.86 L 0 37.86" class="primitive"/>
        </g>
      </g>
      <g class="plotpanel" id="img-85d16c56-37">
        <metadata>
          <boundingbox value="18.63166666666666mm 5.0mm 112.70833333333333mm 75.715mm"/>
          <unitbox value="-0.3679570716749713 1.0278881684445373 20.735914143349945 -1.055776336889075"/>
        </metadata>
        <g stroke-width="0.3" fill="#000000" fill-opacity="0.000" class="geometry" id="img-85d16c56-38">
          <g transform="translate(156.52,77.25)" id="img-85d16c56-39" stroke="#00BFFF" stroke-dasharray="none" class="color_2.5e-5">
            <path fill="none" d="M-130.45,-14.45 L -125.01 -11.76 -119.58 -8.67 -114.14 -7.67 -108.71 -6.05 -103.27 -4.36 -97.84 -2.71 -92.4 -1.3 -86.97 -0.16 -81.53 0.67 -76.1 1.05 -70.66 1.3 -65.23 1.42 -59.79 1.46 -54.35 1.46 -48.92 1.46 -43.48 1.46 -38.05 1.46 -32.61 1.46 -27.18 1.46 -21.74 1.46 -16.31 1.46 -10.87 1.46 -5.44 1.46 0 1.46 5.44 1.46 10.87 1.46 16.31 1.46 21.74 1.46 27.18 1.46 32.61 1.46 38.05 1.46 43.48 1.46 48.92 1.46 54.35 1.46 59.79 1.46 65.22 1.46 70.66 1.46 76.1 1.46 81.53 1.46 86.97 1.46 92.4 1.46 97.84 1.46 103.27 1.46 108.71 1.46 114.14 1.46 119.58 1.46 125.01 1.46 130.45 1.46" class="primitive"/>
          </g>
          <g transform="translate(156.52,77.25)" id="img-85d16c56-40" stroke="#D4CA3A" stroke-dasharray="none" class="color_5.0e-5">
            <path fill="none" d="M-130.45,-12.99 L -125.01 -10.94 -119.58 -8.73 -114.14 -7.87 -108.71 -6.52 -103.27 -4.94 -97.84 -3.19 -92.4 -1.47 -86.97 -0.32 -81.53 0.62 -76.1 1.04 -70.66 1.27 -65.23 1.38 -59.79 1.44 -54.35 1.46 -48.92 1.46 -43.48 1.46 -38.05 1.46 -32.61 1.46 -27.18 1.46 -21.74 1.46 -16.31 1.46 -10.87 1.46 -5.44 1.46 0 1.46 5.44 1.46 10.87 1.46 16.31 1.46 21.74 1.46 27.18 1.46 32.61 1.46 38.05 1.46 43.48 1.46 48.92 1.46 54.35 1.46 59.79 1.46 65.22 1.46 70.66 1.46 76.1 1.46 81.53 1.46 86.97 1.46 92.4 1.46 97.84 1.46 103.27 1.46 108.71 1.46 114.14 1.46 119.58 1.46 125.01 1.46 130.45 1.46" class="primitive"/>
          </g>
          <g transform="translate(156.52,77.25)" id="img-85d16c56-41" stroke="#FF6DAE" stroke-dasharray="none" class="color_0.0001">
            <path fill="none" d="M-130.45,-13.86 L -125.01 -11.11 -119.58 -8.42 -114.14 -7.82 -108.71 -6.26 -103.27 -4.9 -97.84 -2.98 -92.4 -1.5 -86.97 -0.18 -81.53 0.5 -76.1 1.11 -70.66 1.33 -65.23 1.41 -59.79 1.45 -54.35 1.46 -48.92 1.46 -43.48 1.46 -38.05 1.46 -32.61 1.46 -27.18 1.46 -21.74 1.46 -16.31 1.46 -10.87 1.46 -5.44 1.46 0 1.46 5.44 1.46 10.87 1.46 16.31 1.46 21.74 1.46 27.18 1.46 32.61 1.46 38.05 1.46 43.48 1.46 48.92 1.46 54.35 1.46 59.79 1.46 65.22 1.46 70.66 1.46 76.1 1.46 81.53 1.46 86.97 1.46 92.4 1.46 97.84 1.46 103.27 1.46 108.71 1.46 114.14 1.46 119.58 1.46 125.01 1.46 130.45 1.46" class="primitive"/>
          </g>
          <g transform="translate(156.52,77.25)" id="img-85d16c56-42" stroke="#00B78D" stroke-dasharray="none" class="color_0.00025">
            <path fill="none" d="M-130.45,-15.36 L -125.01 -12.23 -119.58 -8.5 -114.14 -7.67 -108.71 -5.86 -103.27 -4.19 -97.84 -2.34 -92.4 -1.11 -86.97 0.04 -81.53 0.66 -76.1 1.11 -70.66 1.35 -65.23 1.43 -59.79 1.45 -54.35 1.46 -48.92 1.46 -43.48 1.46 -38.05 1.46 -32.61 1.46 -27.18 1.46 -21.74 1.46 -16.31 1.46 -10.87 1.46 -5.44 1.46 0 1.46 5.44 1.46 10.87 1.46 16.31 1.46 21.74 1.46 27.18 1.46 32.61 1.46 38.05 1.46 43.48 1.46 48.92 1.46 54.35 1.46 59.79 1.46 65.22 1.46 70.66 1.46 76.1 1.46 81.53 1.46 86.97 1.46 92.4 1.46 97.84 1.46 103.27 1.46 108.71 1.46 114.14 1.46 119.58 1.46 125.01 1.46 130.45 1.46" class="primitive"/>
          </g>
          <g transform="translate(156.52,77.25)" id="img-85d16c56-43" stroke="#BEA9FF" stroke-dasharray="none" class="color_0.0005">
            <path fill="none" d="M-130.45,-15.26 L -125.01 -12.24 -119.58 -8.47 -114.14 -7.81 -108.71 -5.87 -103.27 -4.23 -97.84 -2.28 -92.4 -1.06 -86.97 0 -81.53 0.73 -76.1 1.13 -70.66 1.29 -65.23 1.41 -59.79 1.45 -54.35 1.46 -48.92 1.46 -43.48 1.46 -38.05 1.46 -32.61 1.46 -27.18 1.46 -21.74 1.46 -16.31 1.46 -10.87 1.46 -5.44 1.46 0 1.46 5.44 1.46 10.87 1.46 16.31 1.46 21.74 1.46 27.18 1.46 32.61 1.46 38.05 1.46 43.48 1.46 48.92 1.46 54.35 1.46 59.79 1.46 65.22 1.46 70.66 1.46 76.1 1.46 81.53 1.46 86.97 1.46 92.4 1.46 97.84 1.46 103.27 1.46 108.71 1.46 114.14 1.46 119.58 1.46 125.01 1.46 130.45 1.46" class="primitive"/>
          </g>
          <g transform="translate(156.52,77.25)" id="img-85d16c56-44" stroke="#FF6765" stroke-dasharray="none" class="color_0.001">
            <path fill="none" d="M-130.45,-17.49 L -125.01 -13.11 -119.58 -8.29 -114.14 -6.55 -108.71 -5.1 -103.27 -3.69 -97.84 -2.2 -92.4 -0.99 -86.97 0.09 -81.53 0.8 -76.1 1.1 -70.66 1.33 -65.23 1.43 -59.79 1.44 -54.35 1.46 -48.92 1.46 -43.48 1.46 -38.05 1.46 -32.61 1.46 -27.18 1.46 -21.74 1.46 -16.31 1.46 -10.87 1.46 -5.44 1.46 0 1.46 5.44 1.46 10.87 1.46 16.31 1.46 21.74 1.46 27.18 1.46 32.61 1.46 38.05 1.46 43.48 1.46 48.92 1.46 54.35 1.46 59.79 1.46 65.22 1.46 70.66 1.46 76.1 1.46 81.53 1.46 86.97 1.46 92.4 1.46 97.84 1.46 103.27 1.46 108.71 1.46 114.14 1.46 119.58 1.46 125.01 1.46 130.45 1.46" class="primitive"/>
          </g>
          <g transform="translate(156.52,77.25)" id="img-85d16c56-45" stroke="#C6C6C6" stroke-dasharray="none" class="color_0.005">
            <path fill="none" d="M-130.45,-27.4 L -125.01 -17.23 -119.58 -6.84 -114.14 -4.2 -108.71 -2.22 -103.27 -1.28 -97.84 -0.22 -92.4 0.55 -86.97 0.89 -81.53 1.14 -76.1 1.3 -70.66 1.41 -65.23 1.43 -59.79 1.45 -54.35 1.46 -48.92 1.46 -43.48 1.46 -38.05 1.46 -32.61 1.46 -27.18 1.46 -21.74 1.46 -16.31 1.46 -10.87 1.46 -5.44 1.46 0 1.46 5.44 1.46 10.87 1.46 16.31 1.46 21.74 1.46 27.18 1.46 32.61 1.46 38.05 1.46 43.48 1.46 48.92 1.46 54.35 1.46 59.79 1.46 65.22 1.46 70.66 1.46 76.1 1.46 81.53 1.46 86.97 1.46 92.4 1.46 97.84 1.46 103.27 1.46 108.71 1.46 114.14 1.46 119.58 1.46 125.01 1.46 130.45 1.46" class="primitive"/>
          </g>
        </g>
      </g>
    </g>
  </g>
  <g class="guide ylabels" font-size="2.82" font-family="'PT Sans Caption','Helvetica Neue','Helvetica',sans-serif" fill="#6C606B" id="img-85d16c56-46">
    <g transform="translate(17.63,78.71)" id="img-85d16c56-47">
      <g class="primitive">
        <text text-anchor="end" dy="0.35em">0.0</text>
      </g>
    </g>
    <g transform="translate(17.63,42.86)" id="img-85d16c56-48">
      <g class="primitive">
        <text text-anchor="end" dy="0.35em">0.5</text>
      </g>
    </g>
    <g transform="translate(17.63,7)" id="img-85d16c56-49">
      <g class="primitive">
        <text text-anchor="end" dy="0.35em">1.0</text>
      </g>
    </g>
  </g>
  <g font-size="3.88" font-family="'PT Sans','Helvetica Neue','Helvetica',sans-serif" fill="#564A55" stroke="#000000" stroke-opacity="0.000" id="img-85d16c56-50">
    <g transform="translate(8.81,40.86)" id="img-85d16c56-51">
      <g class="primitive">
        <text text-anchor="middle" dy="0.35em" transform="rotate(-90,0, 2)">Frequencia</text>
      </g>
    </g>
  </g>
</g>
<defs>
  <clipPath id="img-85d16c56-23">
    <path d="M18.63,5 L 131.34 5 131.34 80.72 18.63 80.72" />
  </clipPath>
</defs>
</svg>
