<?xml version="1.0" encoding="UTF-8"?>
<svg xmlns="http://www.w3.org/2000/svg"
     xmlns:xlink="http://www.w3.org/1999/xlink"
     xmlns:gadfly="http://www.gadflyjl.org/ns"
     version="1.2"
     width="150mm" height="100mm" viewBox="0 0 150 100"
     stroke="none"
     fill="#000000"
     stroke-width="0.3"
     font-size="3.88"
>
<defs>
  <marker id="arrow" markerWidth="15" markerHeight="7" refX="5" refY="3.5" orient="auto" markerUnits="strokeWidth">
    <path d="M0,0 L15,3.5 L0,7 z" stroke="context-stroke" fill="context-stroke"/>
  </marker>
</defs>
<g class="plotroot xscalable yscalable" id="img-4ffe956b-1">
  <g font-size="3.88" font-family="'PT Sans','Helvetica Neue','Helvetica',sans-serif" fill="#564A55" stroke="#000000" stroke-opacity="0.000" id="img-4ffe956b-2">
    <g transform="translate(74.65,88.39)">
      <g class="primitive">
        <text text-anchor="middle" dy="0.6em">Time</text>
      </g>
    </g>
  </g>
  <g class="guide xlabels" font-size="2.82" font-family="'PT Sans Caption','Helvetica Neue','Helvetica',sans-serif" fill="#6C606B" id="img-4ffe956b-3">
    <g transform="translate(19.96,81.72)">
      <g class="primitive">
        <text text-anchor="middle" dy="0.6em">0</text>
      </g>
    </g>
    <g transform="translate(74.65,81.72)">
      <g class="primitive">
        <text text-anchor="middle" dy="0.6em">500</text>
      </g>
    </g>
    <g transform="translate(129.34,81.72)">
      <g class="primitive">
        <text text-anchor="middle" dy="0.6em">1000</text>
      </g>
    </g>
  </g>
  <g class="guide colorkey" id="img-4ffe956b-4">
    <g fill="#4C404B" font-size="2.82" font-family="'PT Sans','Helvetica Neue','Helvetica',sans-serif" id="img-4ffe956b-5">
      <g transform="translate(135.15,33.79)" id="img-4ffe956b-6" class="color_2.5e-5">
        <g class="primitive">
          <text dy="0.35em">2.5e-5</text>
        </g>
      </g>
      <g transform="translate(135.15,37.42)" id="img-4ffe956b-7" class="color_5.0e-5">
        <g class="primitive">
          <text dy="0.35em">5.0e-5</text>
        </g>
      </g>
      <g transform="translate(135.15,41.04)" id="img-4ffe956b-8" class="color_0.0001">
        <g class="primitive">
          <text dy="0.35em">0.0001</text>
        </g>
      </g>
      <g transform="translate(135.15,44.67)" id="img-4ffe956b-9" class="color_0.00025">
        <g class="primitive">
          <text dy="0.35em">0.00025</text>
        </g>
      </g>
      <g transform="translate(135.15,48.3)" id="img-4ffe956b-10" class="color_0.0005">
        <g class="primitive">
          <text dy="0.35em">0.0005</text>
        </g>
      </g>
      <g transform="translate(135.15,51.92)" id="img-4ffe956b-11" class="color_0.001">
        <g class="primitive">
          <text dy="0.35em">0.001</text>
        </g>
      </g>
      <g transform="translate(135.15,55.55)" id="img-4ffe956b-12" class="color_0.005">
        <g class="primitive">
          <text dy="0.35em">0.005</text>
        </g>
      </g>
    </g>
    <g stroke="#000000" stroke-opacity="0.000" id="img-4ffe956b-13">
      <g transform="translate(133.25,33.79)" id="img-4ffe956b-14" fill="#00BFFF" class="color_2.5e-5">
        <path d="M-0.91,-0.91 L 0.91 -0.91 0.91 0.91 -0.91 0.91 z" class="primitive"/>
      </g>
      <g transform="translate(133.25,37.42)" id="img-4ffe956b-15" fill="#D4CA3A" class="color_5.0e-5">
        <path d="M-0.91,-0.91 L 0.91 -0.91 0.91 0.91 -0.91 0.91 z" class="primitive"/>
      </g>
      <g transform="translate(133.25,41.04)" id="img-4ffe956b-16" fill="#FF6DAE" class="color_0.0001">
        <path d="M-0.91,-0.91 L 0.91 -0.91 0.91 0.91 -0.91 0.91 z" class="primitive"/>
      </g>
      <g transform="translate(133.25,44.67)" id="img-4ffe956b-17" fill="#00B78D" class="color_0.00025">
        <path d="M-0.91,-0.91 L 0.91 -0.91 0.91 0.91 -0.91 0.91 z" class="primitive"/>
      </g>
      <g transform="translate(133.25,48.3)" id="img-4ffe956b-18" fill="#BEA9FF" class="color_0.0005">
        <path d="M-0.91,-0.91 L 0.91 -0.91 0.91 0.91 -0.91 0.91 z" class="primitive"/>
      </g>
      <g transform="translate(133.25,51.92)" id="img-4ffe956b-19" fill="#FF6765" class="color_0.001">
        <path d="M-0.91,-0.91 L 0.91 -0.91 0.91 0.91 -0.91 0.91 z" class="primitive"/>
      </g>
      <g transform="translate(133.25,55.55)" id="img-4ffe956b-20" fill="#C6C6C6" class="color_0.005">
        <path d="M-0.91,-0.91 L 0.91 -0.91 0.91 0.91 -0.91 0.91 z" class="primitive"/>
      </g>
    </g>
    <g fill="#362A35" font-size="3.88" font-family="'PT Sans','Helvetica Neue','Helvetica',sans-serif" stroke="#000000" stroke-opacity="0.000" id="img-4ffe956b-21">
      <g transform="translate(132.34,29.97)" id="img-4ffe956b-22">
        <g class="primitive">
          <text>p</text>
        </g>
      </g>
    </g>
  </g>
  <g clip-path="url(#img-4ffe956b-23)">
    <g id="img-4ffe956b-24">
      <g pointer-events="visible" fill="#000000" fill-opacity="0.000" stroke="#000000" stroke-opacity="0.000" class="guide background" id="img-4ffe956b-25">
        <g transform="translate(74.65,42.86)" id="img-4ffe956b-26">
          <path d="M-56.69,-37.86 L 56.69 -37.86 56.69 37.86 -56.69 37.86 z" class="primitive"/>
        </g>
      </g>
      <g class="guide ygridlines xfixed" stroke-dasharray="0.5,0.5" stroke-width="0.2" stroke="#D0D0E0" id="img-4ffe956b-27">
        <g transform="translate(74.65,78.72)" id="img-4ffe956b-28">
          <path fill="none" d="M-56.69,0 L 56.69 0" class="primitive"/>
        </g>
        <g transform="translate(74.65,60.79)" id="img-4ffe956b-29">
          <path fill="none" d="M-56.69,0 L 56.69 0" class="primitive"/>
        </g>
        <g transform="translate(74.65,42.86)" id="img-4ffe956b-30">
          <path fill="none" d="M-56.69,0 L 56.69 0" class="primitive"/>
        </g>
        <g transform="translate(74.65,24.93)" id="img-4ffe956b-31">
          <path fill="none" d="M-56.69,0 L 56.69 0" class="primitive"/>
        </g>
        <g transform="translate(74.65,7)" id="img-4ffe956b-32">
          <path fill="none" d="M-56.69,0 L 56.69 0" class="primitive"/>
        </g>
      </g>
      <g class="guide xgridlines yfixed" stroke-dasharray="0.5,0.5" stroke-width="0.2" stroke="#D0D0E0" id="img-4ffe956b-33">
        <g transform="translate(19.96,42.86)" id="img-4ffe956b-34">
          <path fill="none" d="M0,-37.86 L 0 37.86" class="primitive"/>
        </g>
        <g transform="translate(74.65,42.86)" id="img-4ffe956b-35">
          <path fill="none" d="M0,-37.86 L 0 37.86" class="primitive"/>
        </g>
        <g transform="translate(129.34,42.86)" id="img-4ffe956b-36">
          <path fill="none" d="M0,-37.86 L 0 37.86" class="primitive"/>
        </g>
      </g>
      <g class="plotpanel" id="img-4ffe956b-37">
        <metadata>
          <boundingbox value="17.95833333333333mm 5.0mm 113.38166666666666mm 75.715mm"/>
          <unitbox value="-18.284599795821972 41.115526737781494 1036.569199591644 -42.231053475562994"/>
        </metadata>
        <g stroke-width="0.3" fill="#000000" fill-opacity="0.000" class="geometry" id="img-4ffe956b-38">
          <g transform="translate(74.1,70.92)" id="img-4ffe956b-39" stroke="#00BFFF" stroke-dasharray="none" class="color_2.5e-5">
            <path fill="none" d="M-54.14,-48.35 L -53.05 -33.82 -51.96 -20.65 -50.86 -8.85 -49.77 -1.8 -48.67 0.3 -47.58 0.85 -46.49 1.04 -45.39 1.12 -44.3 1.15 -43.21 1.17 -42.11 1.18 -41.02 1.19 -39.92 1.19 -38.83 1.2 -37.74 1.2 -36.64 1.2 -35.55 1.2 -34.46 1.2 -33.36 1.2 -32.27 1.2 -31.17 1.2 -30.08 1.2 -28.99 1.2 -27.89 1.2 -26.8 1.21 -25.7 1.21 -24.61 1.21 -23.52 1.21 -22.42 1.21 -21.33 1.21 -20.24 1.21 -19.14 1.21 -18.05 1.21 -16.95 1.21 -15.86 1.21 -14.77 1.21 -13.67 1.21 -12.58 1.21 -11.49 1.21 -10.39 1.21 -9.3 1.21 -8.2 1.21 -7.11 1.21 -6.02 1.21 -4.92 1.21 -3.83 1.21 -2.73 1.21 -1.64 1.21 -0.55 1.21 0.55 1.21 1.64 1.21 2.73 1.21 3.83 1.21 4.92 1.21 6.02 1.21 7.11 1.21 8.2 1.21 9.3 1.21 10.39 1.21 11.49 1.21 12.58 1.21 13.67 1.21 14.77 1.21 15.86 1.22 16.95 1.21 18.05 1.22 19.14 1.22 20.24 1.22 21.33 1.22 22.42 1.22 23.52 1.22 24.61 1.22 25.7 1.22 26.8 1.22 27.89 1.22 28.99 1.22 30.08 1.22 31.17 1.22 32.27 1.22 33.36 1.22 34.46 1.22 35.55 1.22 36.64 1.22 37.74 1.22 38.83 1.22 39.92 1.22 41.02 1.22 42.11 1.22 43.21 1.22 44.3 1.22 45.39 1.22 46.49 1.22 47.58 1.22 48.67 1.22 49.77 1.22 50.86 1.22 51.96 1.22 53.05 1.22 54.14 1.22" class="primitive"/>
          </g>
          <g transform="translate(74.1,70.63)" id="img-4ffe956b-40" stroke="#D4CA3A" stroke-dasharray="none" class="color_5.0e-5">
            <path fill="none" d="M-54.14,-48.13 L -53.05 -33.67 -51.96 -20.48 -50.86 -8.67 -49.77 -1.72 -48.67 0.32 -47.58 0.85 -46.49 1.03 -45.39 1.11 -44.3 1.14 -43.21 1.16 -42.11 1.17 -41.02 1.17 -39.92 1.18 -38.83 1.18 -37.74 1.18 -36.64 1.18 -35.55 1.19 -34.46 1.19 -33.36 1.19 -32.27 1.19 -31.17 1.19 -30.08 1.19 -28.99 1.19 -27.89 1.19 -26.8 1.19 -25.7 1.19 -24.61 1.19 -23.52 1.19 -22.42 1.19 -21.33 1.19 -20.24 1.19 -19.14 1.19 -18.05 1.19 -16.95 1.19 -15.86 1.19 -14.77 1.2 -13.67 1.2 -12.58 1.2 -11.49 1.2 -10.39 1.2 -9.3 1.2 -8.2 1.2 -7.11 1.2 -6.02 1.2 -4.92 1.2 -3.83 1.2 -2.73 1.2 -1.64 1.2 -0.55 1.2 0.55 1.2 1.64 1.2 2.73 1.2 3.83 1.2 4.92 1.2 6.02 1.2 7.11 1.2 8.2 1.2 9.3 1.21 10.39 1.21 11.49 1.21 12.58 1.21 13.67 1.21 14.77 1.21 15.86 1.21 16.95 1.21 18.05 1.21 19.14 1.21 20.24 1.21 21.33 1.21 22.42 1.21 23.52 1.21 24.61 1.21 25.7 1.21 26.8 1.21 27.89 1.21 28.99 1.21 30.08 1.21 31.17 1.22 32.27 1.22 33.36 1.22 34.46 1.22 35.55 1.22 36.64 1.22 37.74 1.22 38.83 1.22 39.92 1.22 41.02 1.22 42.11 1.22 43.21 1.22 44.3 1.22 45.39 1.22 46.49 1.22 47.58 1.22 48.67 1.22 49.77 1.22 50.86 1.22 51.96 1.22 53.05 1.22 54.14 1.22" class="primitive"/>
          </g>
          <g transform="translate(74.1,70.71)" id="img-4ffe956b-41" stroke="#FF6DAE" stroke-dasharray="none" class="color_0.0001">
            <path fill="none" d="M-54.14,-48.26 L -53.05 -33.74 -51.96 -20.54 -50.86 -8.78 -49.77 -1.78 -48.67 0.32 -47.58 0.84 -46.49 1.01 -45.39 1.08 -44.3 1.11 -43.21 1.13 -42.11 1.14 -41.02 1.15 -39.92 1.15 -38.83 1.16 -37.74 1.16 -36.64 1.16 -35.55 1.16 -34.46 1.17 -33.36 1.17 -32.27 1.17 -31.17 1.17 -30.08 1.17 -28.99 1.17 -27.89 1.17 -26.8 1.17 -25.7 1.17 -24.61 1.17 -23.52 1.18 -22.42 1.18 -21.33 1.18 -20.24 1.18 -19.14 1.18 -18.05 1.18 -16.95 1.18 -15.86 1.18 -14.77 1.18 -13.67 1.19 -12.58 1.19 -11.49 1.19 -10.39 1.19 -9.3 1.19 -8.2 1.19 -7.11 1.19 -6.02 1.19 -4.92 1.19 -3.83 1.19 -2.73 1.19 -1.64 1.2 -0.55 1.2 0.55 1.2 1.64 1.2 2.73 1.21 3.83 1.21 4.92 1.21 6.02 1.21 7.11 1.21 8.2 1.21 9.3 1.21 10.39 1.21 11.49 1.21 12.58 1.22 13.67 1.22 14.77 1.22 15.86 1.22 16.95 1.22 18.05 1.22 19.14 1.22 20.24 1.22 21.33 1.22 22.42 1.23 23.52 1.23 24.61 1.23 25.7 1.24 26.8 1.24 27.89 1.24 28.99 1.24 30.08 1.24 31.17 1.24 32.27 1.24 33.36 1.24 34.46 1.25 35.55 1.25 36.64 1.25 37.74 1.25 38.83 1.25 39.92 1.25 41.02 1.25 42.11 1.25 43.21 1.25 44.3 1.25 45.39 1.26 46.49 1.26 47.58 1.26 48.67 1.26 49.77 1.26 50.86 1.26 51.96 1.26 53.05 1.26 54.14 1.26" class="primitive"/>
          </g>
          <g transform="translate(74.1,71.02)" id="img-4ffe956b-42" stroke="#00B78D" stroke-dasharray="none" class="color_0.00025">
            <path fill="none" d="M-54.14,-48.51 L -53.05 -34.01 -51.96 -20.76 -50.86 -8.84 -49.77 -1.79 -48.67 0.3 -47.58 0.8 -46.49 0.96 -45.39 1.04 -44.3 1.07 -43.21 1.09 -42.11 1.11 -41.02 1.12 -39.92 1.12 -38.83 1.13 -37.74 1.13 -36.64 1.13 -35.55 1.13 -34.46 1.14 -33.36 1.14 -32.27 1.14 -31.17 1.14 -30.08 1.15 -28.99 1.15 -27.89 1.15 -26.8 1.15 -25.7 1.15 -24.61 1.16 -23.52 1.16 -22.42 1.16 -21.33 1.16 -20.24 1.17 -19.14 1.17 -18.05 1.17 -16.95 1.17 -15.86 1.18 -14.77 1.18 -13.67 1.18 -12.58 1.18 -11.49 1.19 -10.39 1.19 -9.3 1.19 -8.2 1.19 -7.11 1.2 -6.02 1.2 -4.92 1.2 -3.83 1.2 -2.73 1.2 -1.64 1.21 -0.55 1.21 0.55 1.21 1.64 1.21 2.73 1.22 3.83 1.22 4.92 1.22 6.02 1.22 7.11 1.23 8.2 1.23 9.3 1.23 10.39 1.23 11.49 1.24 12.58 1.24 13.67 1.24 14.77 1.24 15.86 1.24 16.95 1.24 18.05 1.24 19.14 1.25 20.24 1.25 21.33 1.25 22.42 1.25 23.52 1.26 24.61 1.26 25.7 1.26 26.8 1.26 27.89 1.26 28.99 1.27 30.08 1.27 31.17 1.27 32.27 1.27 33.36 1.28 34.46 1.28 35.55 1.28 36.64 1.28 37.74 1.29 38.83 1.29 39.92 1.29 41.02 1.29 42.11 1.3 43.21 1.3 44.3 1.3 45.39 1.3 46.49 1.3 47.58 1.31 48.67 1.31 49.77 1.31 50.86 1.31 51.96 1.32 53.05 1.32 54.14 1.32" class="primitive"/>
          </g>
          <g transform="translate(74.1,70.9)" id="img-4ffe956b-43" stroke="#BEA9FF" stroke-dasharray="none" class="color_0.0005">
            <path fill="none" d="M-54.14,-48.35 L -53.05 -33.9 -51.96 -20.64 -50.86 -8.79 -49.77 -1.88 -48.67 0.14 -47.58 0.66 -46.49 0.85 -45.39 0.93 -44.3 0.97 -43.21 0.98 -42.11 1 -41.02 1 -39.92 1.01 -38.83 1.02 -37.74 1.03 -36.64 1.03 -35.55 1.04 -34.46 1.04 -33.36 1.05 -32.27 1.05 -31.17 1.06 -30.08 1.06 -28.99 1.07 -27.89 1.07 -26.8 1.07 -25.7 1.08 -24.61 1.08 -23.52 1.09 -22.42 1.09 -21.33 1.1 -20.24 1.1 -19.14 1.11 -18.05 1.12 -16.95 1.12 -15.86 1.13 -14.77 1.13 -13.67 1.14 -12.58 1.14 -11.49 1.15 -10.39 1.15 -9.3 1.16 -8.2 1.16 -7.11 1.17 -6.02 1.17 -4.92 1.18 -3.83 1.18 -2.73 1.19 -1.64 1.19 -0.55 1.2 0.55 1.2 1.64 1.2 2.73 1.21 3.83 1.21 4.92 1.22 6.02 1.22 7.11 1.22 8.2 1.23 9.3 1.23 10.39 1.24 11.49 1.24 12.58 1.25 13.67 1.26 14.77 1.27 15.86 1.28 16.95 1.28 18.05 1.29 19.14 1.29 20.24 1.3 21.33 1.31 22.42 1.31 23.52 1.32 24.61 1.32 25.7 1.33 26.8 1.33 27.89 1.34 28.99 1.34 30.08 1.34 31.17 1.35 32.27 1.35 33.36 1.36 34.46 1.36 35.55 1.36 36.64 1.37 37.74 1.37 38.83 1.37 39.92 1.38 41.02 1.38 42.11 1.38 43.21 1.39 44.3 1.39 45.39 1.4 46.49 1.4 47.58 1.41 48.67 1.41 49.77 1.41 50.86 1.42 51.96 1.42 53.05 1.43 54.14 1.43" class="primitive"/>
          </g>
          <g transform="translate(74.1,71.04)" id="img-4ffe956b-44" stroke="#FF6765" stroke-dasharray="none" class="color_0.001">
            <path fill="none" d="M-54.14,-48.49 L -53.05 -33.95 -51.96 -20.83 -50.86 -9.11 -49.77 -2.06 -48.67 0.01 -47.58 0.53 -46.49 0.7 -45.39 0.77 -44.3 0.81 -43.21 0.84 -42.11 0.85 -41.02 0.87 -39.92 0.88 -38.83 0.89 -37.74 0.9 -36.64 0.91 -35.55 0.92 -34.46 0.93 -33.36 0.94 -32.27 0.95 -31.17 0.96 -30.08 0.97 -28.99 0.98 -27.89 0.99 -26.8 1 -25.7 1.01 -24.61 1.02 -23.52 1.03 -22.42 1.04 -21.33 1.05 -20.24 1.05 -19.14 1.06 -18.05 1.08 -16.95 1.09 -15.86 1.1 -14.77 1.1 -13.67 1.11 -12.58 1.12 -11.49 1.13 -10.39 1.13 -9.3 1.14 -8.2 1.15 -7.11 1.16 -6.02 1.17 -4.92 1.18 -3.83 1.19 -2.73 1.19 -1.64 1.2 -0.55 1.21 0.55 1.22 1.64 1.23 2.73 1.24 3.83 1.24 4.92 1.25 6.02 1.26 7.11 1.27 8.2 1.27 9.3 1.28 10.39 1.28 11.49 1.29 12.58 1.3 13.67 1.3 14.77 1.31 15.86 1.32 16.95 1.33 18.05 1.33 19.14 1.34 20.24 1.35 21.33 1.36 22.42 1.36 23.52 1.37 24.61 1.38 25.7 1.39 26.8 1.4 27.89 1.4 28.99 1.41 30.08 1.42 31.17 1.43 32.27 1.44 33.36 1.45 34.46 1.45 35.55 1.46 36.64 1.47 37.74 1.48 38.83 1.49 39.92 1.5 41.02 1.5 42.11 1.51 43.21 1.52 44.3 1.52 45.39 1.53 46.49 1.54 47.58 1.54 48.67 1.55 49.77 1.56 50.86 1.56 51.96 1.57 53.05 1.57 54.14 1.58" class="primitive"/>
          </g>
          <g transform="translate(74.1,72.16)" id="img-4ffe956b-45" stroke="#C6C6C6" stroke-dasharray="none" class="color_0.005">
            <path fill="none" d="M-54.14,-49.65 L -53.05 -35.18 -51.96 -22.01 -50.86 -10.17 -49.77 -3.03 -48.67 -0.91 -47.58 -0.35 -46.49 -0.14 -45.39 -0.03 -44.3 0.05 -43.21 0.1 -42.11 0.15 -41.02 0.19 -39.92 0.25 -38.83 0.31 -37.74 0.35 -36.64 0.39 -35.55 0.43 -34.46 0.47 -33.36 0.51 -32.27 0.54 -31.17 0.58 -30.08 0.62 -28.99 0.66 -27.89 0.69 -26.8 0.72 -25.7 0.76 -24.61 0.79 -23.52 0.83 -22.42 0.86 -21.33 0.89 -20.24 0.93 -19.14 0.96 -18.05 0.98 -16.95 1.01 -15.86 1.04 -14.77 1.07 -13.67 1.09 -12.58 1.12 -11.49 1.14 -10.39 1.17 -9.3 1.2 -8.2 1.22 -7.11 1.23 -6.02 1.26 -4.92 1.28 -3.83 1.31 -2.73 1.32 -1.64 1.35 -0.55 1.36 0.55 1.38 1.64 1.4 2.73 1.42 3.83 1.43 4.92 1.45 6.02 1.47 7.11 1.49 8.2 1.51 9.3 1.53 10.39 1.55 11.49 1.57 12.58 1.59 13.67 1.6 14.77 1.62 15.86 1.64 16.95 1.65 18.05 1.66 19.14 1.68 20.24 1.7 21.33 1.72 22.42 1.73 23.52 1.74 24.61 1.76 25.7 1.77 26.8 1.79 27.89 1.8 28.99 1.82 30.08 1.83 31.17 1.84 32.27 1.86 33.36 1.87 34.46 1.88 35.55 1.89 36.64 1.9 37.74 1.91 38.83 1.92 39.92 1.93 41.02 1.94 42.11 1.95 43.21 1.96 44.3 1.97 45.39 1.98 46.49 1.99 47.58 2 48.67 2.01 49.77 2.02 50.86 2.03 51.96 2.03 53.05 2.05 54.14 2.06" class="primitive"/>
          </g>
        </g>
      </g>
    </g>
  </g>
  <g class="guide ylabels" font-size="2.82" font-family="'PT Sans Caption','Helvetica Neue','Helvetica',sans-serif" fill="#6C606B" id="img-4ffe956b-46">
    <g transform="translate(16.96,78.72)" id="img-4ffe956b-47">
      <g class="primitive">
        <text text-anchor="end" dy="0.35em">0</text>
      </g>
    </g>
    <g transform="translate(16.96,60.79)" id="img-4ffe956b-48">
      <g class="primitive">
        <text text-anchor="end" dy="0.35em">10</text>
      </g>
    </g>
    <g transform="translate(16.96,42.86)" id="img-4ffe956b-49">
      <g class="primitive">
        <text text-anchor="end" dy="0.35em">20</text>
      </g>
    </g>
    <g transform="translate(16.96,24.93)" id="img-4ffe956b-50">
      <g class="primitive">
        <text text-anchor="end" dy="0.35em">30</text>
      </g>
    </g>
    <g transform="translate(16.96,7)" id="img-4ffe956b-51">
      <g class="primitive">
        <text text-anchor="end" dy="0.35em">40</text>
      </g>
    </g>
  </g>
  <g font-size="3.88" font-family="'PT Sans','Helvetica Neue','Helvetica',sans-serif" fill="#564A55" stroke="#000000" stroke-opacity="0.000" id="img-4ffe956b-52">
    <g transform="translate(8.81,40.86)" id="img-4ffe956b-53">
      <g class="primitive">
        <text text-anchor="middle" dy="0.35em" transform="rotate(-90,0, 2)">Numero Medio de Variedades por UD</text>
      </g>
    </g>
  </g>
</g>
<defs>
  <clipPath id="img-4ffe956b-23">
    <path d="M17.96,5 L 131.34 5 131.34 80.72 17.96 80.72" />
  </clipPath>
</defs>
</svg>
