<?xml version="1.0" encoding="UTF-8"?>
<svg xmlns="http://www.w3.org/2000/svg"
     xmlns:xlink="http://www.w3.org/1999/xlink"
     xmlns:gadfly="http://www.gadflyjl.org/ns"
     version="1.2"
     width="150mm" height="100mm" viewBox="0 0 150 100"
     stroke="none"
     fill="#000000"
     stroke-width="0.3"
     font-size="3.88"
>
<defs>
  <marker id="arrow" markerWidth="15" markerHeight="7" refX="5" refY="3.5" orient="auto" markerUnits="strokeWidth">
    <path d="M0,0 L15,3.5 L0,7 z" stroke="context-stroke" fill="context-stroke"/>
  </marker>
</defs>
<g class="plotroot xscalable yscalable" id="img-479839d5-1">
  <g font-size="3.88" font-family="'PT Sans','Helvetica Neue','Helvetica',sans-serif" fill="#564A55" stroke="#000000" stroke-opacity="0.000" id="img-479839d5-2">
    <g transform="translate(74.65,88.39)">
      <g class="primitive">
        <text text-anchor="middle" dy="0.6em">Tempo</text>
      </g>
    </g>
  </g>
  <g class="guide xlabels" font-size="2.82" font-family="'PT Sans Caption','Helvetica Neue','Helvetica',sans-serif" fill="#6C606B" id="img-479839d5-3">
    <g transform="translate(19.96,81.72)">
      <g class="primitive">
        <text text-anchor="middle" dy="0.6em">0</text>
      </g>
    </g>
    <g transform="translate(74.65,81.72)">
      <g class="primitive">
        <text text-anchor="middle" dy="0.6em">500</text>
      </g>
    </g>
    <g transform="translate(129.34,81.72)">
      <g class="primitive">
        <text text-anchor="middle" dy="0.6em">1000</text>
      </g>
    </g>
  </g>
  <g class="guide colorkey" id="img-479839d5-4">
    <g fill="#4C404B" font-size="2.82" font-family="'PT Sans','Helvetica Neue','Helvetica',sans-serif" id="img-479839d5-5">
      <g transform="translate(135.15,33.79)" id="img-479839d5-6" class="color_2.5e-5">
        <g class="primitive">
          <text dy="0.35em">2.5e-5</text>
        </g>
      </g>
      <g transform="translate(135.15,37.42)" id="img-479839d5-7" class="color_5.0e-5">
        <g class="primitive">
          <text dy="0.35em">5.0e-5</text>
        </g>
      </g>
      <g transform="translate(135.15,41.04)" id="img-479839d5-8" class="color_0.0001">
        <g class="primitive">
          <text dy="0.35em">0.0001</text>
        </g>
      </g>
      <g transform="translate(135.15,44.67)" id="img-479839d5-9" class="color_0.00025">
        <g class="primitive">
          <text dy="0.35em">0.00025</text>
        </g>
      </g>
      <g transform="translate(135.15,48.3)" id="img-479839d5-10" class="color_0.0005">
        <g class="primitive">
          <text dy="0.35em">0.0005</text>
        </g>
      </g>
      <g transform="translate(135.15,51.92)" id="img-479839d5-11" class="color_0.001">
        <g class="primitive">
          <text dy="0.35em">0.001</text>
        </g>
      </g>
      <g transform="translate(135.15,55.55)" id="img-479839d5-12" class="color_0.005">
        <g class="primitive">
          <text dy="0.35em">0.005</text>
        </g>
      </g>
    </g>
    <g stroke="#000000" stroke-opacity="0.000" id="img-479839d5-13">
      <g transform="translate(133.25,33.79)" id="img-479839d5-14" fill="#00BFFF" class="color_2.5e-5">
        <path d="M-0.91,-0.91 L 0.91 -0.91 0.91 0.91 -0.91 0.91 z" class="primitive"/>
      </g>
      <g transform="translate(133.25,37.42)" id="img-479839d5-15" fill="#D4CA3A" class="color_5.0e-5">
        <path d="M-0.91,-0.91 L 0.91 -0.91 0.91 0.91 -0.91 0.91 z" class="primitive"/>
      </g>
      <g transform="translate(133.25,41.04)" id="img-479839d5-16" fill="#FF6DAE" class="color_0.0001">
        <path d="M-0.91,-0.91 L 0.91 -0.91 0.91 0.91 -0.91 0.91 z" class="primitive"/>
      </g>
      <g transform="translate(133.25,44.67)" id="img-479839d5-17" fill="#00B78D" class="color_0.00025">
        <path d="M-0.91,-0.91 L 0.91 -0.91 0.91 0.91 -0.91 0.91 z" class="primitive"/>
      </g>
      <g transform="translate(133.25,48.3)" id="img-479839d5-18" fill="#BEA9FF" class="color_0.0005">
        <path d="M-0.91,-0.91 L 0.91 -0.91 0.91 0.91 -0.91 0.91 z" class="primitive"/>
      </g>
      <g transform="translate(133.25,51.92)" id="img-479839d5-19" fill="#FF6765" class="color_0.001">
        <path d="M-0.91,-0.91 L 0.91 -0.91 0.91 0.91 -0.91 0.91 z" class="primitive"/>
      </g>
      <g transform="translate(133.25,55.55)" id="img-479839d5-20" fill="#C6C6C6" class="color_0.005">
        <path d="M-0.91,-0.91 L 0.91 -0.91 0.91 0.91 -0.91 0.91 z" class="primitive"/>
      </g>
    </g>
    <g fill="#362A35" font-size="3.88" font-family="'PT Sans','Helvetica Neue','Helvetica',sans-serif" stroke="#000000" stroke-opacity="0.000" id="img-479839d5-21">
      <g transform="translate(132.34,29.97)" id="img-479839d5-22">
        <g class="primitive">
          <text>p</text>
        </g>
      </g>
    </g>
  </g>
  <g clip-path="url(#img-479839d5-23)">
    <g id="img-479839d5-24">
      <g pointer-events="visible" fill="#000000" fill-opacity="0.000" stroke="#000000" stroke-opacity="0.000" class="guide background" id="img-479839d5-25">
        <g transform="translate(74.65,42.86)" id="img-479839d5-26">
          <path d="M-56.69,-37.86 L 56.69 -37.86 56.69 37.86 -56.69 37.86 z" class="primitive"/>
        </g>
      </g>
      <g class="guide ygridlines xfixed" stroke-dasharray="0.5,0.5" stroke-width="0.2" stroke="#D0D0E0" id="img-479839d5-27">
        <g transform="translate(74.65,78.72)" id="img-479839d5-28">
          <path fill="none" d="M-56.69,0 L 56.69 0" class="primitive"/>
        </g>
        <g transform="translate(74.65,60.79)" id="img-479839d5-29">
          <path fill="none" d="M-56.69,0 L 56.69 0" class="primitive"/>
        </g>
        <g transform="translate(74.65,42.86)" id="img-479839d5-30">
          <path fill="none" d="M-56.69,0 L 56.69 0" class="primitive"/>
        </g>
        <g transform="translate(74.65,24.93)" id="img-479839d5-31">
          <path fill="none" d="M-56.69,0 L 56.69 0" class="primitive"/>
        </g>
        <g transform="translate(74.65,7)" id="img-479839d5-32">
          <path fill="none" d="M-56.69,0 L 56.69 0" class="primitive"/>
        </g>
      </g>
      <g class="guide xgridlines yfixed" stroke-dasharray="0.5,0.5" stroke-width="0.2" stroke="#D0D0E0" id="img-479839d5-33">
        <g transform="translate(19.96,42.86)" id="img-479839d5-34">
          <path fill="none" d="M0,-37.86 L 0 37.86" class="primitive"/>
        </g>
        <g transform="translate(74.65,42.86)" id="img-479839d5-35">
          <path fill="none" d="M0,-37.86 L 0 37.86" class="primitive"/>
        </g>
        <g transform="translate(129.34,42.86)" id="img-479839d5-36">
          <path fill="none" d="M0,-37.86 L 0 37.86" class="primitive"/>
        </g>
      </g>
      <g class="plotpanel" id="img-479839d5-37">
        <metadata>
          <boundingbox value="17.95833333333333mm 5.0mm 113.38166666666666mm 75.715mm"/>
          <unitbox value="-18.284599795821972 61.115526737781494 1036.569199591644 -42.231053475562994"/>
        </metadata>
        <g stroke-width="0.3" fill="#000000" fill-opacity="0.000" class="geometry" id="img-479839d5-38">
          <g transform="translate(74.1,72.62)" id="img-479839d5-39" stroke="#00BFFF" stroke-dasharray="none" class="color_2.5e-5">
            <path fill="none" d="M-54.14,-47.33 L -53.05 -47.33 -51.96 -46.84 -50.86 -38.24 -49.77 -22.98 -48.67 -8.5 -47.58 -0.89 -46.49 1.22 -45.39 1.81 -44.3 2.06 -43.21 2.16 -42.11 2.23 -41.02 2.27 -39.92 2.31 -38.83 2.32 -37.74 2.33 -36.64 2.34 -35.55 2.35 -34.46 2.35 -33.36 2.35 -32.27 2.35 -31.17 2.35 -30.08 2.35 -28.99 2.36 -27.89 2.35 -26.8 2.35 -25.7 2.35 -24.61 2.34 -23.52 2.34 -22.42 2.34 -21.33 2.34 -20.24 2.34 -19.14 2.34 -18.05 2.34 -16.95 2.34 -15.86 2.34 -14.77 2.34 -13.67 2.34 -12.58 2.34 -11.49 2.33 -10.39 2.33 -9.3 2.33 -8.2 2.33 -7.11 2.32 -6.02 2.33 -4.92 2.33 -3.83 2.32 -2.73 2.32 -1.64 2.32 -0.55 2.32 0.55 2.32 1.64 2.31 2.73 2.32 3.83 2.31 4.92 2.31 6.02 2.31 7.11 2.32 8.2 2.32 9.3 2.32 10.39 2.3 11.49 2.3 12.58 2.3 13.67 2.29 14.77 2.29 15.86 2.31 16.95 2.3 18.05 2.28 19.14 2.29 20.24 2.28 21.33 2.28 22.42 2.28 23.52 2.28 24.61 2.28 25.7 2.27 26.8 2.28 27.89 2.28 28.99 2.28 30.08 2.28 31.17 2.28 32.27 2.28 33.36 2.27 34.46 2.26 35.55 2.25 36.64 2.25 37.74 2.25 38.83 2.25 39.92 2.25 41.02 2.25 42.11 2.25 43.21 2.25 44.3 2.25 45.39 2.25 46.49 2.26 47.58 2.26 48.67 2.25 49.77 2.26 50.86 2.26 51.96 2.25 53.05 2.24 54.14 2.25" class="primitive"/>
          </g>
          <g transform="translate(74.1,71.37)" id="img-479839d5-40" stroke="#D4CA3A" stroke-dasharray="none" class="color_5.0e-5">
            <path fill="none" d="M-54.14,-46.2 L -53.05 -46.2 -51.96 -45.72 -50.86 -37.05 -49.77 -21.52 -48.67 -7.59 -47.58 -0.49 -46.49 1.34 -45.39 1.89 -44.3 2.14 -43.21 2.26 -42.11 2.31 -41.02 2.31 -39.92 2.32 -38.83 2.33 -37.74 2.33 -36.64 2.34 -35.55 2.34 -34.46 2.33 -33.36 2.34 -32.27 2.33 -31.17 2.33 -30.08 2.33 -28.99 2.33 -27.89 2.33 -26.8 2.31 -25.7 2.31 -24.61 2.3 -23.52 2.3 -22.42 2.3 -21.33 2.3 -20.24 2.29 -19.14 2.29 -18.05 2.28 -16.95 2.28 -15.86 2.27 -14.77 2.27 -13.67 2.26 -12.58 2.27 -11.49 2.27 -10.39 2.26 -9.3 2.25 -8.2 2.25 -7.11 2.25 -6.02 2.25 -4.92 2.24 -3.83 2.23 -2.73 2.24 -1.64 2.23 -0.55 2.23 0.55 2.23 1.64 2.23 2.73 2.23 3.83 2.21 4.92 2.23 6.02 2.21 7.11 2.22 8.2 2.21 9.3 2.2 10.39 2.21 11.49 2.21 12.58 2.2 13.67 2.2 14.77 2.2 15.86 2.19 16.95 2.19 18.05 2.19 19.14 2.19 20.24 2.18 21.33 2.18 22.42 2.18 23.52 2.18 24.61 2.16 25.7 2.15 26.8 2.15 27.89 2.14 28.99 2.14 30.08 2.14 31.17 2.13 32.27 2.12 33.36 2.12 34.46 2.12 35.55 2.11 36.64 2.12 37.74 2.11 38.83 2.12 39.92 2.12 41.02 2.11 42.11 2.12 43.21 2.12 44.3 2.11 45.39 2.12 46.49 2.11 47.58 2.1 48.67 2.11 49.77 2.1 50.86 2.11 51.96 2.11 53.05 2.1 54.14 2.09" class="primitive"/>
          </g>
          <g transform="translate(74.1,71.93)" id="img-479839d5-41" stroke="#FF6DAE" stroke-dasharray="none" class="color_0.0001">
            <path fill="none" d="M-54.14,-46.71 L -53.05 -46.72 -51.96 -46.14 -50.86 -37.25 -49.77 -21.81 -48.67 -8.04 -47.58 -0.8 -46.49 1.26 -45.39 1.86 -44.3 2.1 -43.21 2.24 -42.11 2.34 -41.02 2.37 -39.92 2.38 -38.83 2.39 -37.74 2.39 -36.64 2.4 -35.55 2.4 -34.46 2.4 -33.36 2.38 -32.27 2.38 -31.17 2.36 -30.08 2.36 -28.99 2.35 -27.89 2.35 -26.8 2.33 -25.7 2.34 -24.61 2.34 -23.52 2.34 -22.42 2.34 -21.33 2.34 -20.24 2.32 -19.14 2.33 -18.05 2.33 -16.95 2.31 -15.86 2.31 -14.77 2.3 -13.67 2.31 -12.58 2.32 -11.49 2.32 -10.39 2.33 -9.3 2.33 -8.2 2.32 -7.11 2.3 -6.02 2.3 -4.92 2.3 -3.83 2.29 -2.73 2.27 -1.64 2.25 -0.55 2.26 0.55 2.25 1.64 2.26 2.73 2.26 3.83 2.25 4.92 2.24 6.02 2.25 7.11 2.24 8.2 2.22 9.3 2.21 10.39 2.22 11.49 2.2 12.58 2.2 13.67 2.2 14.77 2.18 15.86 2.18 16.95 2.2 18.05 2.19 19.14 2.17 20.24 2.17 21.33 2.15 22.42 2.15 23.52 2.14 24.61 2.15 25.7 2.16 26.8 2.16 27.89 2.15 28.99 2.17 30.08 2.17 31.17 2.16 32.27 2.17 33.36 2.16 34.46 2.16 35.55 2.16 36.64 2.17 37.74 2.19 38.83 2.19 39.92 2.17 41.02 2.19 42.11 2.17 43.21 2.17 44.3 2.16 45.39 2.17 46.49 2.15 47.58 2.15 48.67 2.13 49.77 2.13 50.86 2.13 51.96 2.12 53.05 2.12 54.14 2.11" class="primitive"/>
          </g>
          <g transform="translate(74.1,72.34)" id="img-479839d5-42" stroke="#00B78D" stroke-dasharray="none" class="color_0.00025">
            <path fill="none" d="M-54.14,-47.06 L -53.05 -47.08 -51.96 -46.77 -50.86 -37.95 -49.77 -21.89 -48.67 -7.73 -47.58 -0.13 -46.49 1.67 -45.39 2.24 -44.3 2.5 -43.21 2.62 -42.11 2.7 -41.02 2.74 -39.92 2.72 -38.83 2.73 -37.74 2.72 -36.64 2.7 -35.55 2.72 -34.46 2.69 -33.36 2.69 -32.27 2.68 -31.17 2.68 -30.08 2.67 -28.99 2.66 -27.89 2.65 -26.8 2.63 -25.7 2.61 -24.61 2.6 -23.52 2.59 -22.42 2.59 -21.33 2.55 -20.24 2.54 -19.14 2.5 -18.05 2.5 -16.95 2.49 -15.86 2.46 -14.77 2.47 -13.67 2.43 -12.58 2.44 -11.49 2.44 -10.39 2.44 -9.3 2.45 -8.2 2.42 -7.11 2.42 -6.02 2.4 -4.92 2.39 -3.83 2.38 -2.73 2.36 -1.64 2.35 -0.55 2.32 0.55 2.31 1.64 2.3 2.73 2.28 3.83 2.28 4.92 2.26 6.02 2.24 7.11 2.22 8.2 2.21 9.3 2.21 10.39 2.15 11.49 2.19 12.58 2.17 13.67 2.16 14.77 2.12 15.86 2.12 16.95 2.07 18.05 2.05 19.14 2.06 20.24 2.06 21.33 2.07 22.42 2.05 23.52 2.01 24.61 2.01 25.7 1.98 26.8 1.98 27.89 1.98 28.99 1.97 30.08 1.95 31.17 1.97 32.27 1.96 33.36 1.95 34.46 1.95 35.55 1.95 36.64 1.92 37.74 1.91 38.83 1.92 39.92 1.9 41.02 1.87 42.11 1.86 43.21 1.84 44.3 1.81 45.39 1.81 46.49 1.8 47.58 1.79 48.67 1.76 49.77 1.73 50.86 1.74 51.96 1.74 53.05 1.73 54.14 1.72" class="primitive"/>
          </g>
          <g transform="translate(74.1,71.15)" id="img-479839d5-43" stroke="#BEA9FF" stroke-dasharray="none" class="color_0.0005">
            <path fill="none" d="M-54.14,-45.91 L -53.05 -45.94 -51.96 -45.72 -50.86 -36.88 -49.77 -21.16 -48.67 -6.94 -47.58 0.13 -46.49 2.04 -45.39 2.78 -44.3 3.06 -43.21 3.21 -42.11 3.22 -41.02 3.19 -39.92 3.1 -38.83 3.14 -37.74 3.1 -36.64 3.09 -35.55 3.08 -34.46 3.08 -33.36 3.03 -32.27 3.05 -31.17 3.01 -30.08 3 -28.99 2.98 -27.89 2.98 -26.8 2.97 -25.7 2.91 -24.61 2.91 -23.52 2.87 -22.42 2.84 -21.33 2.82 -20.24 2.76 -19.14 2.76 -18.05 2.74 -16.95 2.73 -15.86 2.74 -14.77 2.71 -13.67 2.69 -12.58 2.63 -11.49 2.6 -10.39 2.52 -9.3 2.5 -8.2 2.52 -7.11 2.46 -6.02 2.42 -4.92 2.4 -3.83 2.35 -2.73 2.36 -1.64 2.37 -0.55 2.35 0.55 2.34 1.64 2.32 2.73 2.28 3.83 2.25 4.92 2.23 6.02 2.16 7.11 2.14 8.2 2.14 9.3 2.11 10.39 2.07 11.49 2.03 12.58 2 13.67 1.99 14.77 1.94 15.86 1.92 16.95 1.89 18.05 1.89 19.14 1.86 20.24 1.82 21.33 1.83 22.42 1.78 23.52 1.75 24.61 1.71 25.7 1.64 26.8 1.67 27.89 1.62 28.99 1.57 30.08 1.53 31.17 1.5 32.27 1.48 33.36 1.44 34.46 1.42 35.55 1.36 36.64 1.35 37.74 1.35 38.83 1.33 39.92 1.27 41.02 1.29 42.11 1.27 43.21 1.25 44.3 1.25 45.39 1.21 46.49 1.18 47.58 1.17 48.67 1.16 49.77 1.15 50.86 1.13 51.96 1.14 53.05 1.11 54.14 1.08" class="primitive"/>
          </g>
          <g transform="translate(74.1,69.02)" id="img-479839d5-44" stroke="#FF6765" stroke-dasharray="none" class="color_0.001">
            <path fill="none" d="M-54.14,-43.81 L -53.05 -43.87 -51.96 -44.07 -50.86 -35.98 -49.77 -20.37 -48.67 -5.86 -47.58 1.15 -46.49 3.12 -45.39 3.71 -44.3 3.88 -43.21 3.96 -42.11 4.02 -41.02 3.96 -39.92 3.89 -38.83 3.85 -37.74 3.84 -36.64 3.75 -35.55 3.68 -34.46 3.55 -33.36 3.48 -32.27 3.42 -31.17 3.36 -30.08 3.31 -28.99 3.3 -27.89 3.27 -26.8 3.24 -25.7 3.23 -24.61 3.19 -23.52 3.12 -22.42 3.05 -21.33 3.02 -20.24 2.93 -19.14 2.88 -18.05 2.85 -16.95 2.83 -15.86 2.79 -14.77 2.76 -13.67 2.71 -12.58 2.64 -11.49 2.59 -10.39 2.56 -9.3 2.52 -8.2 2.52 -7.11 2.48 -6.02 2.48 -4.92 2.4 -3.83 2.37 -2.73 2.27 -1.64 2.28 -0.55 2.27 0.55 2.21 1.64 2.2 2.73 2.13 3.83 2.07 4.92 2 6.02 1.95 7.11 1.92 8.2 1.87 9.3 1.84 10.39 1.84 11.49 1.77 12.58 1.75 13.67 1.71 14.77 1.62 15.86 1.59 16.95 1.58 18.05 1.55 19.14 1.52 20.24 1.47 21.33 1.38 22.42 1.37 23.52 1.29 24.61 1.24 25.7 1.24 26.8 1.22 27.89 1.16 28.99 1.13 30.08 1.09 31.17 1.09 32.27 1.02 33.36 0.95 34.46 0.92 35.55 0.95 36.64 0.86 37.74 0.81 38.83 0.77 39.92 0.73 41.02 0.72 42.11 0.68 43.21 0.62 44.3 0.55 45.39 0.43 46.49 0.41 47.58 0.37 48.67 0.42 49.77 0.37 50.86 0.32 51.96 0.3 53.05 0.28 54.14 0.22" class="primitive"/>
          </g>
          <g transform="translate(74.1,65.28)" id="img-479839d5-45" stroke="#C6C6C6" stroke-dasharray="none" class="color_0.005">
            <path fill="none" d="M-54.14,-40.08 L -53.05 -40.48 -51.96 -42.89 -50.86 -35.29 -49.77 -19.15 -48.67 -3.72 -47.58 4.05 -46.49 5.91 -45.39 6.43 -44.3 6.34 -43.21 6.4 -42.11 6.17 -41.02 6 -39.92 5.85 -38.83 5.77 -37.74 5.61 -36.64 5.45 -35.55 5.18 -34.46 5.08 -33.36 4.88 -32.27 4.74 -31.17 4.66 -30.08 4.43 -28.99 4.31 -27.89 4.25 -26.8 4.24 -25.7 3.99 -24.61 4.01 -23.52 3.82 -22.42 3.81 -21.33 3.71 -20.24 3.57 -19.14 3.47 -18.05 3.36 -16.95 3.21 -15.86 3.14 -14.77 3.08 -13.67 3.06 -12.58 2.89 -11.49 2.88 -10.39 2.72 -9.3 2.71 -8.2 2.46 -7.11 2.44 -6.02 2.28 -4.92 2.18 -3.83 2.08 -2.73 1.96 -1.64 1.91 -0.55 1.81 0.55 1.63 1.64 1.5 2.73 1.56 3.83 1.55 4.92 1.41 6.02 1.37 7.11 1.3 8.2 1.29 9.3 1.25 10.39 1.09 11.49 1.01 12.58 0.98 13.67 0.94 14.77 0.94 15.86 0.93 16.95 0.87 18.05 0.71 19.14 0.6 20.24 0.51 21.33 0.49 22.42 0.41 23.52 0.33 24.61 0.23 25.7 0.19 26.8 0.12 27.89 -0.05 28.99 -0.16 30.08 -0.22 31.17 -0.32 32.27 -0.31 33.36 -0.46 34.46 -0.48 35.55 -0.52 36.64 -0.6 37.74 -0.59 38.83 -0.64 39.92 -0.78 41.02 -0.63 42.11 -0.74 43.21 -0.92 44.3 -0.74 45.39 -0.89 46.49 -0.9 47.58 -0.97 48.67 -1.14 49.77 -1.1 50.86 -1.17 51.96 -1.16 53.05 -1.2 54.14 -1.25" class="primitive"/>
          </g>
        </g>
      </g>
    </g>
  </g>
  <g class="guide ylabels" font-size="2.82" font-family="'PT Sans Caption','Helvetica Neue','Helvetica',sans-serif" fill="#6C606B" id="img-479839d5-46">
    <g transform="translate(16.96,78.72)" id="img-479839d5-47">
      <g class="primitive">
        <text text-anchor="end" dy="0.35em">20</text>
      </g>
    </g>
    <g transform="translate(16.96,60.79)" id="img-479839d5-48">
      <g class="primitive">
        <text text-anchor="end" dy="0.35em">30</text>
      </g>
    </g>
    <g transform="translate(16.96,42.86)" id="img-479839d5-49">
      <g class="primitive">
        <text text-anchor="end" dy="0.35em">40</text>
      </g>
    </g>
    <g transform="translate(16.96,24.93)" id="img-479839d5-50">
      <g class="primitive">
        <text text-anchor="end" dy="0.35em">50</text>
      </g>
    </g>
    <g transform="translate(16.96,7)" id="img-479839d5-51">
      <g class="primitive">
        <text text-anchor="end" dy="0.35em">60</text>
      </g>
    </g>
  </g>
  <g font-size="3.88" font-family="'PT Sans','Helvetica Neue','Helvetica',sans-serif" fill="#564A55" stroke="#000000" stroke-opacity="0.000" id="img-479839d5-52">
    <g transform="translate(8.81,40.86)" id="img-479839d5-53">
      <g class="primitive">
        <text text-anchor="middle" dy="0.35em" transform="rotate(-90,0, 2)">Numero de Variedades</text>
      </g>
    </g>
  </g>
</g>
<defs>
  <clipPath id="img-479839d5-23">
    <path d="M17.96,5 L 131.34 5 131.34 80.72 17.96 80.72" />
  </clipPath>
</defs>
</svg>
