<?xml version="1.0" encoding="UTF-8"?>
<svg xmlns="http://www.w3.org/2000/svg"
     xmlns:xlink="http://www.w3.org/1999/xlink"
     xmlns:gadfly="http://www.gadflyjl.org/ns"
     version="1.2"
     width="150mm" height="100mm" viewBox="0 0 150 100"
     stroke="none"
     fill="#000000"
     stroke-width="0.3"
     font-size="3.88"
>
<defs>
  <marker id="arrow" markerWidth="15" markerHeight="7" refX="5" refY="3.5" orient="auto" markerUnits="strokeWidth">
    <path d="M0,0 L15,3.5 L0,7 z" stroke="context-stroke" fill="context-stroke"/>
  </marker>
</defs>
<g class="plotroot xscalable yscalable" id="img-291302fb-1">
  <g font-size="3.88" font-family="'PT Sans','Helvetica Neue','Helvetica',sans-serif" fill="#564A55" stroke="#000000" stroke-opacity="0.000" id="img-291302fb-2">
    <g transform="translate(78.1,88.39)">
      <g class="primitive">
        <text text-anchor="middle" dy="0.6em">Tempo</text>
      </g>
    </g>
  </g>
  <g class="guide xlabels" font-size="2.82" font-family="'PT Sans Caption','Helvetica Neue','Helvetica',sans-serif" fill="#6C606B" id="img-291302fb-3">
    <g transform="translate(21.63,81.72)">
      <g class="primitive">
        <text text-anchor="middle" dy="0.6em">0</text>
      </g>
    </g>
    <g transform="translate(78.1,81.72)">
      <g class="primitive">
        <text text-anchor="middle" dy="0.6em">500</text>
      </g>
    </g>
    <g transform="translate(134.57,81.72)">
      <g class="primitive">
        <text text-anchor="middle" dy="0.6em">1000</text>
      </g>
    </g>
  </g>
  <g class="guide colorkey" id="img-291302fb-4">
    <g fill="#4C404B" font-size="2.82" font-family="'PT Sans','Helvetica Neue','Helvetica',sans-serif" id="img-291302fb-5">
      <g transform="translate(140.38,37.42)" id="img-291302fb-6" class="color_10">
        <g class="primitive">
          <text dy="0.35em">10</text>
        </g>
      </g>
      <g transform="translate(140.38,41.04)" id="img-291302fb-7" class="color_25">
        <g class="primitive">
          <text dy="0.35em">25</text>
        </g>
      </g>
      <g transform="translate(140.38,44.67)" id="img-291302fb-8" class="color_50">
        <g class="primitive">
          <text dy="0.35em">50</text>
        </g>
      </g>
      <g transform="translate(140.38,48.3)" id="img-291302fb-9" class="color_75">
        <g class="primitive">
          <text dy="0.35em">75</text>
        </g>
      </g>
      <g transform="translate(140.38,51.92)" id="img-291302fb-10" class="color_100">
        <g class="primitive">
          <text dy="0.35em">100</text>
        </g>
      </g>
    </g>
    <g stroke="#000000" stroke-opacity="0.000" id="img-291302fb-11">
      <g transform="translate(138.47,37.42)" id="img-291302fb-12" fill="#00BFFF" class="color_10">
        <path d="M-0.91,-0.91 L 0.91 -0.91 0.91 0.91 -0.91 0.91 z" class="primitive"/>
      </g>
      <g transform="translate(138.47,41.04)" id="img-291302fb-13" fill="#D4CA3A" class="color_25">
        <path d="M-0.91,-0.91 L 0.91 -0.91 0.91 0.91 -0.91 0.91 z" class="primitive"/>
      </g>
      <g transform="translate(138.47,44.67)" id="img-291302fb-14" fill="#FF6DAE" class="color_50">
        <path d="M-0.91,-0.91 L 0.91 -0.91 0.91 0.91 -0.91 0.91 z" class="primitive"/>
      </g>
      <g transform="translate(138.47,48.3)" id="img-291302fb-15" fill="#00B78D" class="color_75">
        <path d="M-0.91,-0.91 L 0.91 -0.91 0.91 0.91 -0.91 0.91 z" class="primitive"/>
      </g>
      <g transform="translate(138.47,51.92)" id="img-291302fb-16" fill="#BEA9FF" class="color_100">
        <path d="M-0.91,-0.91 L 0.91 -0.91 0.91 0.91 -0.91 0.91 z" class="primitive"/>
      </g>
    </g>
    <g fill="#362A35" font-size="3.88" font-family="'PT Sans','Helvetica Neue','Helvetica',sans-serif" stroke="#000000" stroke-opacity="0.000" id="img-291302fb-17">
      <g transform="translate(137.57,33.6)" id="img-291302fb-18">
        <g class="primitive">
          <text>v</text>
        </g>
      </g>
    </g>
  </g>
  <g clip-path="url(#img-291302fb-19)">
    <g id="img-291302fb-20">
      <g pointer-events="visible" fill="#000000" fill-opacity="0.000" stroke="#000000" stroke-opacity="0.000" class="guide background" id="img-291302fb-21">
        <g transform="translate(78.1,42.86)" id="img-291302fb-22">
          <path d="M-58.47,-37.86 L 58.47 -37.86 58.47 37.86 -58.47 37.86 z" class="primitive"/>
        </g>
      </g>
      <g class="guide ygridlines xfixed" stroke-dasharray="0.5,0.5" stroke-width="0.2" stroke="#D0D0E0" id="img-291302fb-23">
        <g transform="translate(78.1,78.71)" id="img-291302fb-24">
          <path fill="none" d="M-58.47,0 L 58.47 0" class="primitive"/>
        </g>
        <g transform="translate(78.1,42.86)" id="img-291302fb-25">
          <path fill="none" d="M-58.47,0 L 58.47 0" class="primitive"/>
        </g>
        <g transform="translate(78.1,7)" id="img-291302fb-26">
          <path fill="none" d="M-58.47,0 L 58.47 0" class="primitive"/>
        </g>
      </g>
      <g class="guide xgridlines yfixed" stroke-dasharray="0.5,0.5" stroke-width="0.2" stroke="#D0D0E0" id="img-291302fb-27">
        <g transform="translate(21.63,42.86)" id="img-291302fb-28">
          <path fill="none" d="M0,-37.86 L 0 37.86" class="primitive"/>
        </g>
        <g transform="translate(78.1,42.86)" id="img-291302fb-29">
          <path fill="none" d="M0,-37.86 L 0 37.86" class="primitive"/>
        </g>
        <g transform="translate(134.57,42.86)" id="img-291302fb-30">
          <path fill="none" d="M0,-37.86 L 0 37.86" class="primitive"/>
        </g>
      </g>
      <g class="plotpanel" id="img-291302fb-31">
        <metadata>
          <boundingbox value="19.63166666666666mm 5.0mm 116.935mm 75.715mm"/>
          <unitbox value="-17.709301810776108 102.78881684445373 1035.4186036215522 -105.5776336889075"/>
        </metadata>
        <g stroke-width="0.3" fill="#000000" fill-opacity="0.000" class="geometry" id="img-291302fb-32">
          <g transform="translate(77.53,73.89)" id="img-291302fb-33" stroke="#00BFFF" stroke-dasharray="none" class="color_10">
            <path fill="none" d="M-55.9,-2.34 L -54.77 -2.35 -53.64 -2.35 -52.51 -1.87 -51.39 -1 -50.26 -0.23 -49.13 0.16 -48 0.29 -46.87 0.33 -45.74 0.34 -44.61 0.34 -43.48 0.33 -42.35 0.33 -41.22 0.32 -40.09 0.32 -38.96 0.32 -37.83 0.31 -36.7 0.3 -35.57 0.3 -34.45 0.29 -33.32 0.29 -32.19 0.29 -31.06 0.28 -29.93 0.28 -28.8 0.27 -27.67 0.27 -26.54 0.26 -25.41 0.25 -24.28 0.24 -23.15 0.23 -22.02 0.23 -20.89 0.22 -19.76 0.22 -18.63 0.21 -17.5 0.21 -16.38 0.19 -15.25 0.19 -14.12 0.18 -12.99 0.18 -11.86 0.17 -10.73 0.16 -9.6 0.15 -8.47 0.14 -7.34 0.14 -6.21 0.13 -5.08 0.13 -3.95 0.12 -2.82 0.12 -1.69 0.12 -0.56 0.12 0.56 0.11 1.69 0.11 2.82 0.1 3.95 0.09 5.08 0.09 6.21 0.08 7.34 0.08 8.47 0.07 9.6 0.07 10.73 0.07 11.86 0.07 12.99 0.07 14.12 0.07 15.25 0.06 16.38 0.06 17.5 0.06 18.63 0.05 19.76 0.05 20.89 0.05 22.02 0.04 23.15 0.04 24.28 0.03 25.41 0.02 26.54 0.01 27.67 0.01 28.8 0 29.93 -0.01 31.06 -0.01 32.19 -0.02 33.32 -0.02 34.45 -0.02 35.57 -0.03 36.7 -0.04 37.83 -0.04 38.96 -0.05 40.09 -0.06 41.22 -0.06 42.35 -0.07 43.48 -0.08 44.61 -0.08 45.74 -0.09 46.87 -0.09 48 -0.1 49.13 -0.1 50.26 -0.11 51.39 -0.12 52.51 -0.12 53.64 -0.12 54.77 -0.13 55.9 -0.14" class="primitive"/>
          </g>
          <g transform="translate(77.53,68.79)" id="img-291302fb-34" stroke="#D4CA3A" stroke-dasharray="none" class="color_25">
            <path fill="none" d="M-55.9,-7.97 L -54.77 -7.98 -53.64 -7.92 -52.51 -6.56 -51.39 -3.68 -50.26 -1.28 -49.13 0.02 -48 0.35 -46.87 0.47 -45.74 0.52 -44.61 0.53 -43.48 0.53 -42.35 0.53 -41.22 0.53 -40.09 0.52 -38.96 0.52 -37.83 0.52 -36.7 0.52 -35.57 0.52 -34.45 0.51 -33.32 0.51 -32.19 0.51 -31.06 0.51 -29.93 0.5 -28.8 0.49 -27.67 0.49 -26.54 0.48 -25.41 0.47 -24.28 0.48 -23.15 0.48 -22.02 0.47 -20.89 0.47 -19.76 0.47 -18.63 0.46 -17.5 0.46 -16.38 0.45 -15.25 0.45 -14.12 0.44 -12.99 0.43 -11.86 0.44 -10.73 0.43 -9.6 0.42 -8.47 0.42 -7.34 0.42 -6.21 0.41 -5.08 0.41 -3.95 0.4 -2.82 0.39 -1.69 0.39 -0.56 0.39 0.56 0.39 1.69 0.38 2.82 0.37 3.95 0.37 5.08 0.37 6.21 0.37 7.34 0.36 8.47 0.36 9.6 0.36 10.73 0.35 11.86 0.35 12.99 0.35 14.12 0.35 15.25 0.35 16.38 0.33 17.5 0.34 18.63 0.33 19.76 0.33 20.89 0.33 22.02 0.32 23.15 0.32 24.28 0.32 25.41 0.32 26.54 0.31 27.67 0.31 28.8 0.31 29.93 0.3 31.06 0.3 32.19 0.3 33.32 0.29 34.45 0.29 35.57 0.29 36.7 0.28 37.83 0.27 38.96 0.27 40.09 0.27 41.22 0.26 42.35 0.26 43.48 0.26 44.61 0.26 45.74 0.25 46.87 0.25 48 0.25 49.13 0.25 50.26 0.25 51.39 0.24 52.51 0.24 53.64 0.23 54.77 0.23 55.9 0.23" class="primitive"/>
          </g>
          <g transform="translate(77.53,61.73)" id="img-291302fb-35" stroke="#FF6DAE" stroke-dasharray="none" class="color_50">
            <path fill="none" d="M-55.9,-18.77 L -54.77 -18.77 -53.64 -18.61 -52.51 -15.13 -51.39 -8.93 -50.26 -3.18 -49.13 -0.22 -48 0.57 -46.87 0.8 -45.74 0.91 -44.61 0.95 -43.48 0.97 -42.35 0.98 -41.22 0.99 -40.09 0.98 -38.96 0.99 -37.83 0.99 -36.7 0.99 -35.57 0.99 -34.45 0.98 -33.32 0.99 -32.19 0.98 -31.06 0.98 -29.93 0.98 -28.8 0.98 -27.67 0.98 -26.54 0.97 -25.41 0.96 -24.28 0.96 -23.15 0.96 -22.02 0.96 -20.89 0.95 -19.76 0.95 -18.63 0.95 -17.5 0.95 -16.38 0.95 -15.25 0.95 -14.12 0.94 -12.99 0.94 -11.86 0.94 -10.73 0.94 -9.6 0.95 -8.47 0.95 -7.34 0.94 -6.21 0.95 -5.08 0.94 -3.95 0.94 -2.82 0.94 -1.69 0.93 -0.56 0.92 0.56 0.92 1.69 0.91 2.82 0.91 3.95 0.9 5.08 0.9 6.21 0.9 7.34 0.9 8.47 0.9 9.6 0.89 10.73 0.89 11.86 0.89 12.99 0.88 14.12 0.88 15.25 0.87 16.38 0.87 17.5 0.87 18.63 0.86 19.76 0.86 20.89 0.86 22.02 0.86 23.15 0.86 24.28 0.86 25.41 0.86 26.54 0.85 27.67 0.85 28.8 0.85 29.93 0.85 31.06 0.85 32.19 0.85 33.32 0.84 34.45 0.84 35.57 0.83 36.7 0.84 37.83 0.83 38.96 0.84 40.09 0.83 41.22 0.83 42.35 0.83 43.48 0.83 44.61 0.83 45.74 0.84 46.87 0.84 48 0.84 49.13 0.84 50.26 0.84 51.39 0.84 52.51 0.84 53.64 0.83 54.77 0.83 55.9 0.82" class="primitive"/>
          </g>
          <g transform="translate(77.53,55.33)" id="img-291302fb-36" stroke="#00B78D" stroke-dasharray="none" class="color_75">
            <path fill="none" d="M-55.9,-30.13 L -54.77 -30.13 -53.64 -29.7 -52.51 -23.69 -51.39 -13.77 -50.26 -4.77 -49.13 -0.43 -48 0.72 -46.87 1.09 -45.74 1.27 -44.61 1.35 -43.48 1.39 -42.35 1.41 -41.22 1.42 -40.09 1.44 -38.96 1.44 -37.83 1.44 -36.7 1.44 -35.57 1.43 -34.45 1.44 -33.32 1.44 -32.19 1.44 -31.06 1.43 -29.93 1.44 -28.8 1.44 -27.67 1.43 -26.54 1.43 -25.41 1.43 -24.28 1.43 -23.15 1.44 -22.02 1.44 -20.89 1.44 -19.76 1.44 -18.63 1.44 -17.5 1.44 -16.38 1.44 -15.25 1.44 -14.12 1.44 -12.99 1.44 -11.86 1.44 -10.73 1.44 -9.6 1.45 -8.47 1.44 -7.34 1.44 -6.21 1.45 -5.08 1.44 -3.95 1.44 -2.82 1.43 -1.69 1.43 -0.56 1.42 0.56 1.43 1.69 1.44 2.82 1.44 3.95 1.44 5.08 1.44 6.21 1.44 7.34 1.45 8.47 1.45 9.6 1.45 10.73 1.45 11.86 1.45 12.99 1.44 14.12 1.44 15.25 1.44 16.38 1.44 17.5 1.45 18.63 1.45 19.76 1.45 20.89 1.45 22.02 1.45 23.15 1.45 24.28 1.45 25.41 1.45 26.54 1.45 27.67 1.45 28.8 1.45 29.93 1.45 31.06 1.44 32.19 1.44 33.32 1.44 34.45 1.44 35.57 1.45 36.7 1.44 37.83 1.44 38.96 1.44 40.09 1.44 41.22 1.44 42.35 1.44 43.48 1.44 44.61 1.44 45.74 1.44 46.87 1.44 48 1.44 49.13 1.45 50.26 1.45 51.39 1.45 52.51 1.44 53.64 1.45 54.77 1.45 55.9 1.44" class="primitive"/>
          </g>
          <g transform="translate(77.53,49.96)" id="img-291302fb-37" stroke="#BEA9FF" stroke-dasharray="none" class="color_100">
            <path fill="none" d="M-55.9,-42.45 L -54.77 -42.45 -53.64 -41.66 -52.51 -32.69 -51.39 -19.15 -50.26 -6.61 -49.13 -0.44 -48 0.98 -46.87 1.44 -45.74 1.65 -44.61 1.81 -43.48 1.88 -42.35 1.93 -41.22 1.96 -40.09 1.98 -38.96 1.98 -37.83 1.98 -36.7 1.98 -35.57 1.98 -34.45 1.98 -33.32 1.97 -32.19 1.98 -31.06 1.97 -29.93 1.98 -28.8 1.98 -27.67 1.98 -26.54 1.99 -25.41 1.99 -24.28 1.99 -23.15 2 -22.02 2 -20.89 2 -19.76 2.01 -18.63 2.01 -17.5 2.01 -16.38 2 -15.25 2.01 -14.12 2.01 -12.99 2.01 -11.86 2.01 -10.73 2.01 -9.6 2.01 -8.47 2 -7.34 2 -6.21 2 -5.08 2 -3.95 2.01 -2.82 2.01 -1.69 2.02 -0.56 2.02 0.56 2.01 1.69 2.01 2.82 2.02 3.95 2.01 5.08 2.02 6.21 2.02 7.34 2.01 8.47 2.01 9.6 2.02 10.73 2.01 11.86 2 12.99 2 14.12 2 15.25 2.01 16.38 2.01 17.5 2.02 18.63 2.03 19.76 2.03 20.89 2.04 22.02 2.04 23.15 2.04 24.28 2.05 25.41 2.05 26.54 2.05 27.67 2.05 28.8 2.05 29.93 2.05 31.06 2.07 32.19 2.07 33.32 2.07 34.45 2.06 35.57 2.06 36.7 2.06 37.83 2.07 38.96 2.06 40.09 2.06 41.22 2.06 42.35 2.06 43.48 2.06 44.61 2.05 45.74 2.06 46.87 2.06 48 2.06 49.13 2.06 50.26 2.05 51.39 2.05 52.51 2.05 53.64 2.04 54.77 2.04 55.9 2.05" class="primitive"/>
          </g>
        </g>
      </g>
    </g>
  </g>
  <g class="guide ylabels" font-size="2.82" font-family="'PT Sans Caption','Helvetica Neue','Helvetica',sans-serif" fill="#6C606B" id="img-291302fb-38">
    <g transform="translate(18.63,78.71)" id="img-291302fb-39">
      <g class="primitive">
        <text text-anchor="end" dy="0.35em">0</text>
      </g>
    </g>
    <g transform="translate(18.63,42.86)" id="img-291302fb-40">
      <g class="primitive">
        <text text-anchor="end" dy="0.35em">50</text>
      </g>
    </g>
    <g transform="translate(18.63,7)" id="img-291302fb-41">
      <g class="primitive">
        <text text-anchor="end" dy="0.35em">100</text>
      </g>
    </g>
  </g>
  <g font-size="3.88" font-family="'PT Sans','Helvetica Neue','Helvetica',sans-serif" fill="#564A55" stroke="#000000" stroke-opacity="0.000" id="img-291302fb-42">
    <g transform="translate(8.81,40.86)" id="img-291302fb-43">
      <g class="primitive">
        <text text-anchor="middle" dy="0.35em" transform="rotate(-90,0, 2)">Numero de Variedades</text>
      </g>
    </g>
  </g>
</g>
<defs>
  <clipPath id="img-291302fb-19">
    <path d="M19.63,5 L 136.57 5 136.57 80.72 19.63 80.72" />
  </clipPath>
</defs>
</svg>
