<?xml version="1.0" encoding="UTF-8"?>
<svg xmlns="http://www.w3.org/2000/svg"
     xmlns:xlink="http://www.w3.org/1999/xlink"
     xmlns:gadfly="http://www.gadflyjl.org/ns"
     version="1.2"
     width="150mm" height="100mm" viewBox="0 0 150 100"
     stroke="none"
     fill="#000000"
     stroke-width="0.3"
     font-size="3.88"
>
<defs>
  <marker id="arrow" markerWidth="15" markerHeight="7" refX="5" refY="3.5" orient="auto" markerUnits="strokeWidth">
    <path d="M0,0 L15,3.5 L0,7 z" stroke="context-stroke" fill="context-stroke"/>
  </marker>
</defs>
<g class="plotroot xscalable yscalable" id="img-d60b9158-1">
  <g font-size="3.88" font-family="'PT Sans','Helvetica Neue','Helvetica',sans-serif" fill="#564A55" stroke="#000000" stroke-opacity="0.000" id="img-d60b9158-2">
    <g transform="translate(78.13,88.39)">
      <g class="primitive">
        <text text-anchor="middle" dy="0.6em">Appearence</text>
      </g>
    </g>
  </g>
  <g class="guide xlabels" font-size="2.82" font-family="'PT Sans Caption','Helvetica Neue','Helvetica',sans-serif" fill="#6C606B" id="img-d60b9158-3">
    <g transform="translate(22.31,81.72)">
      <g class="primitive">
        <text text-anchor="middle" dy="0.6em">0.0</text>
      </g>
    </g>
    <g transform="translate(78.13,81.72)">
      <g class="primitive">
        <text text-anchor="middle" dy="0.6em">0.5</text>
      </g>
    </g>
    <g transform="translate(133.96,81.72)">
      <g class="primitive">
        <text text-anchor="middle" dy="0.6em">1.0</text>
      </g>
    </g>
  </g>
  <g class="guide colorkey" id="img-d60b9158-4">
    <g fill="#4C404B" font-size="2.82" font-family="'PT Sans','Helvetica Neue','Helvetica',sans-serif" id="img-d60b9158-5">
      <g transform="translate(139.77,37.42)" id="img-d60b9158-6" class="color_0.0">
        <g class="primitive">
          <text dy="0.35em">0.0</text>
        </g>
      </g>
      <g transform="translate(139.77,41.04)" id="img-d60b9158-7" class="color_0.25">
        <g class="primitive">
          <text dy="0.35em">0.25</text>
        </g>
      </g>
      <g transform="translate(139.77,44.67)" id="img-d60b9158-8" class="color_0.5">
        <g class="primitive">
          <text dy="0.35em">0.5</text>
        </g>
      </g>
      <g transform="translate(139.77,48.3)" id="img-d60b9158-9" class="color_0.75">
        <g class="primitive">
          <text dy="0.35em">0.75</text>
        </g>
      </g>
      <g transform="translate(139.77,51.92)" id="img-d60b9158-10" class="color_1.0">
        <g class="primitive">
          <text dy="0.35em">1.0</text>
        </g>
      </g>
    </g>
    <g stroke="#000000" stroke-opacity="0.000" id="img-d60b9158-11">
      <g transform="translate(137.87,37.42)" id="img-d60b9158-12" fill="#00BFFF" class="color_0.0">
        <path d="M-0.91,-0.91 L 0.91 -0.91 0.91 0.91 -0.91 0.91 z" class="primitive"/>
      </g>
      <g transform="translate(137.87,41.04)" id="img-d60b9158-13" fill="#D4CA3A" class="color_0.25">
        <path d="M-0.91,-0.91 L 0.91 -0.91 0.91 0.91 -0.91 0.91 z" class="primitive"/>
      </g>
      <g transform="translate(137.87,44.67)" id="img-d60b9158-14" fill="#FF6DAE" class="color_0.5">
        <path d="M-0.91,-0.91 L 0.91 -0.91 0.91 0.91 -0.91 0.91 z" class="primitive"/>
      </g>
      <g transform="translate(137.87,48.3)" id="img-d60b9158-15" fill="#00B78D" class="color_0.75">
        <path d="M-0.91,-0.91 L 0.91 -0.91 0.91 0.91 -0.91 0.91 z" class="primitive"/>
      </g>
      <g transform="translate(137.87,51.92)" id="img-d60b9158-16" fill="#BEA9FF" class="color_1.0">
        <path d="M-0.91,-0.91 L 0.91 -0.91 0.91 0.91 -0.91 0.91 z" class="primitive"/>
      </g>
    </g>
    <g fill="#362A35" font-size="3.88" font-family="'PT Sans','Helvetica Neue','Helvetica',sans-serif" stroke="#000000" stroke-opacity="0.000" id="img-d60b9158-17">
      <g transform="translate(136.96,33.6)" id="img-d60b9158-18">
        <g class="primitive">
          <text>b</text>
        </g>
      </g>
    </g>
  </g>
  <g clip-path="url(#img-d60b9158-19)">
    <g id="img-d60b9158-20">
      <g pointer-events="visible" fill="#000000" fill-opacity="0.000" stroke="#000000" stroke-opacity="0.000" class="guide background" id="img-d60b9158-21">
        <g transform="translate(78.13,42.86)" id="img-d60b9158-22">
          <path d="M-57.83,-37.86 L 57.83 -37.86 57.83 37.86 -57.83 37.86 z" class="primitive"/>
        </g>
      </g>
      <g class="guide ygridlines xfixed" stroke-dasharray="0.5,0.5" stroke-width="0.2" stroke="#D0D0E0" id="img-d60b9158-23">
        <g transform="translate(78.13,78.72)" id="img-d60b9158-24">
          <path fill="none" d="M-57.83,0 L 57.83 0" class="primitive"/>
        </g>
        <g transform="translate(78.13,60.79)" id="img-d60b9158-25">
          <path fill="none" d="M-57.83,0 L 57.83 0" class="primitive"/>
        </g>
        <g transform="translate(78.13,42.86)" id="img-d60b9158-26">
          <path fill="none" d="M-57.83,0 L 57.83 0" class="primitive"/>
        </g>
        <g transform="translate(78.13,24.93)" id="img-d60b9158-27">
          <path fill="none" d="M-57.83,0 L 57.83 0" class="primitive"/>
        </g>
        <g transform="translate(78.13,7)" id="img-d60b9158-28">
          <path fill="none" d="M-57.83,0 L 57.83 0" class="primitive"/>
        </g>
      </g>
      <g class="guide xgridlines yfixed" stroke-dasharray="0.5,0.5" stroke-width="0.2" stroke="#D0D0E0" id="img-d60b9158-29">
        <g transform="translate(22.31,42.86)" id="img-d60b9158-30">
          <path fill="none" d="M0,-37.86 L 0 37.86" class="primitive"/>
        </g>
        <g transform="translate(78.13,42.86)" id="img-d60b9158-31">
          <path fill="none" d="M0,-37.86 L 0 37.86" class="primitive"/>
        </g>
        <g transform="translate(133.96,42.86)" id="img-d60b9158-32">
          <path fill="none" d="M0,-37.86 L 0 37.86" class="primitive"/>
        </g>
      </g>
      <g class="plotpanel" id="img-d60b9158-33">
        <metadata>
          <boundingbox value="20.305000000000007mm 5.0mm 115.655mm 75.715mm"/>
          <unitbox value="-0.0179123191975281 0.2055776336889075 1.0358246383950562 -0.21115526737781498"/>
        </metadata>
        <g stroke-width="0.3" fill="#000000" fill-opacity="0.000" class="geometry" id="img-d60b9158-34">
          <g transform="translate(78.13,60.79)" id="img-d60b9158-35" stroke-dasharray="none" stroke="#00BFFF" class="color_0.0">
            <path fill="none" d="M-53.04,17.91 L -47.45 17.9 -41.87 17.76 -36.29 17.21 -30.71 15.02 -25.12 10.05 -19.54 0.4 -13.96 -15.3 -8.37 -36.8 -2.79 -45.11 2.79 -45.64 8.37 -35.1 13.96 -12.74 19.54 -1.18 25.12 10.08 30.71 14.89 36.29 17.14 41.87 17.73 47.45 17.86 53.04 17.93" class="primitive"/>
          </g>
          <g transform="translate(78.13,60.79)" id="img-d60b9158-36" stroke-dasharray="none" stroke="#D4CA3A" class="color_0.25">
            <path fill="none" d="M-53.04,17.93 L -47.45 17.85 -41.87 17.76 -36.29 17.08 -30.71 15.5 -25.12 11.05 -19.54 0.14 -13.96 -15.81 -8.37 -31.81 -2.79 -49.32 2.79 -49.07 8.37 -33.14 13.96 -15.72 19.54 1.11 25.12 10.71 30.71 15.03 36.29 17.08 41.87 17.8 47.45 17.92 53.04 17.93" class="primitive"/>
          </g>
          <g transform="translate(78.13,60.79)" id="img-d60b9158-37" stroke-dasharray="none" stroke="#FF6DAE" class="color_0.5">
            <path fill="none" d="M-53.04,17.93 L -47.45 17.89 -41.87 17.75 -36.29 16.81 -30.71 15.09 -25.12 10.51 -19.54 1.47 -13.96 -14.56 -8.37 -35.63 -2.79 -43.96 2.79 -50.1 8.37 -32.59 13.96 -18.07 19.54 0.63 25.12 11.24 30.71 14.83 36.29 17.14 41.87 17.81 47.45 17.9 53.04 17.91" class="primitive"/>
          </g>
          <g transform="translate(78.13,60.79)" id="img-d60b9158-38" stroke-dasharray="none" stroke="#00B78D" class="color_0.75">
            <path fill="none" d="M-53.04,17.91 L -47.45 17.87 -41.87 17.6 -36.29 16.97 -30.71 15.45 -25.12 10.02 -19.54 -0.12 -13.96 -14.2 -8.37 -33.85 -2.79 -45.3 2.79 -46.39 8.37 -36.73 13.96 -13.93 19.54 -0.91 25.12 9.98 30.71 14.94 36.29 17.25 41.87 17.62 47.45 17.91 53.04 17.91" class="primitive"/>
          </g>
          <g transform="translate(78.13,60.79)" id="img-d60b9158-39" stroke-dasharray="none" stroke="#BEA9FF" class="color_1.0">
            <path fill="none" d="M-53.04,17.91 L -47.45 17.91 -41.87 17.78 -36.29 17.08 -30.71 15.45 -25.12 10.27 -19.54 1.66 -13.96 -16.73 -8.37 -33.96 -2.79 -45.27 2.79 -48.53 8.37 -32.38 13.96 -16.29 19.54 -1.02 25.12 10.56 30.71 14.96 36.29 17.01 41.87 17.78 47.45 17.9 53.04 17.93" class="primitive"/>
          </g>
        </g>
      </g>
    </g>
  </g>
  <g class="guide ylabels" font-size="2.82" font-family="'PT Sans Caption','Helvetica Neue','Helvetica',sans-serif" fill="#6C606B" id="img-d60b9158-40">
    <g transform="translate(19.3,78.72)" id="img-d60b9158-41">
      <g class="primitive">
        <text text-anchor="end" dy="0.35em">0.00</text>
      </g>
    </g>
    <g transform="translate(19.3,60.79)" id="img-d60b9158-42">
      <g class="primitive">
        <text text-anchor="end" dy="0.35em">0.05</text>
      </g>
    </g>
    <g transform="translate(19.3,42.86)" id="img-d60b9158-43">
      <g class="primitive">
        <text text-anchor="end" dy="0.35em">0.10</text>
      </g>
    </g>
    <g transform="translate(19.3,24.93)" id="img-d60b9158-44">
      <g class="primitive">
        <text text-anchor="end" dy="0.35em">0.15</text>
      </g>
    </g>
    <g transform="translate(19.3,7)" id="img-d60b9158-45">
      <g class="primitive">
        <text text-anchor="end" dy="0.35em">0.20</text>
      </g>
    </g>
  </g>
  <g font-size="3.88" font-family="'PT Sans','Helvetica Neue','Helvetica',sans-serif" fill="#564A55" stroke="#000000" stroke-opacity="0.000" id="img-d60b9158-46">
    <g transform="translate(8.81,40.86)" id="img-d60b9158-47">
      <g class="primitive">
        <text text-anchor="middle" dy="0.35em" transform="rotate(-90,0, 2)">Frequencia</text>
      </g>
    </g>
  </g>
</g>
<defs>
  <clipPath id="img-d60b9158-19">
    <path d="M20.31,5 L 135.96 5 135.96 80.72 20.31 80.72" />
  </clipPath>
</defs>
</svg>
