<?xml version="1.0" encoding="UTF-8"?>
<svg xmlns="http://www.w3.org/2000/svg"
     xmlns:xlink="http://www.w3.org/1999/xlink"
     xmlns:gadfly="http://www.gadflyjl.org/ns"
     version="1.2"
     width="150mm" height="100mm" viewBox="0 0 150 100"
     stroke="none"
     fill="#000000"
     stroke-width="0.3"
     font-size="3.88"
>
<defs>
  <marker id="arrow" markerWidth="15" markerHeight="7" refX="5" refY="3.5" orient="auto" markerUnits="strokeWidth">
    <path d="M0,0 L15,3.5 L0,7 z" stroke="context-stroke" fill="context-stroke"/>
  </marker>
</defs>
<g class="plotroot xscalable yscalable" id="img-b49d684e-1">
  <g font-size="3.88" font-family="'PT Sans','Helvetica Neue','Helvetica',sans-serif" fill="#564A55" stroke="#000000" stroke-opacity="0.000" id="img-b49d684e-2">
    <g transform="translate(77.26,88.39)">
      <g class="primitive">
        <text text-anchor="middle" dy="0.6em">Time</text>
      </g>
    </g>
  </g>
  <g class="guide xlabels" font-size="2.82" font-family="'PT Sans Caption','Helvetica Neue','Helvetica',sans-serif" fill="#6C606B" id="img-b49d684e-3">
    <g transform="translate(19.96,81.72)">
      <g class="primitive">
        <text text-anchor="middle" dy="0.6em">0</text>
      </g>
    </g>
    <g transform="translate(77.26,81.72)">
      <g class="primitive">
        <text text-anchor="middle" dy="0.6em">500</text>
      </g>
    </g>
    <g transform="translate(134.57,81.72)">
      <g class="primitive">
        <text text-anchor="middle" dy="0.6em">1000</text>
      </g>
    </g>
  </g>
  <g class="guide colorkey" id="img-b49d684e-4">
    <g fill="#4C404B" font-size="2.82" font-family="'PT Sans','Helvetica Neue','Helvetica',sans-serif" id="img-b49d684e-5">
      <g transform="translate(140.38,37.42)" id="img-b49d684e-6" class="color_10">
        <g class="primitive">
          <text dy="0.35em">10</text>
        </g>
      </g>
      <g transform="translate(140.38,41.04)" id="img-b49d684e-7" class="color_25">
        <g class="primitive">
          <text dy="0.35em">25</text>
        </g>
      </g>
      <g transform="translate(140.38,44.67)" id="img-b49d684e-8" class="color_50">
        <g class="primitive">
          <text dy="0.35em">50</text>
        </g>
      </g>
      <g transform="translate(140.38,48.3)" id="img-b49d684e-9" class="color_75">
        <g class="primitive">
          <text dy="0.35em">75</text>
        </g>
      </g>
      <g transform="translate(140.38,51.92)" id="img-b49d684e-10" class="color_100">
        <g class="primitive">
          <text dy="0.35em">100</text>
        </g>
      </g>
    </g>
    <g stroke="#000000" stroke-opacity="0.000" id="img-b49d684e-11">
      <g transform="translate(138.47,37.42)" id="img-b49d684e-12" fill="#00BFFF" class="color_10">
        <path d="M-0.91,-0.91 L 0.91 -0.91 0.91 0.91 -0.91 0.91 z" class="primitive"/>
      </g>
      <g transform="translate(138.47,41.04)" id="img-b49d684e-13" fill="#D4CA3A" class="color_25">
        <path d="M-0.91,-0.91 L 0.91 -0.91 0.91 0.91 -0.91 0.91 z" class="primitive"/>
      </g>
      <g transform="translate(138.47,44.67)" id="img-b49d684e-14" fill="#FF6DAE" class="color_50">
        <path d="M-0.91,-0.91 L 0.91 -0.91 0.91 0.91 -0.91 0.91 z" class="primitive"/>
      </g>
      <g transform="translate(138.47,48.3)" id="img-b49d684e-15" fill="#00B78D" class="color_75">
        <path d="M-0.91,-0.91 L 0.91 -0.91 0.91 0.91 -0.91 0.91 z" class="primitive"/>
      </g>
      <g transform="translate(138.47,51.92)" id="img-b49d684e-16" fill="#BEA9FF" class="color_100">
        <path d="M-0.91,-0.91 L 0.91 -0.91 0.91 0.91 -0.91 0.91 z" class="primitive"/>
      </g>
    </g>
    <g fill="#362A35" font-size="3.88" font-family="'PT Sans','Helvetica Neue','Helvetica',sans-serif" stroke="#000000" stroke-opacity="0.000" id="img-b49d684e-17">
      <g transform="translate(137.57,33.6)" id="img-b49d684e-18">
        <g class="primitive">
          <text>v</text>
        </g>
      </g>
    </g>
  </g>
  <g clip-path="url(#img-b49d684e-19)">
    <g id="img-b49d684e-20">
      <g pointer-events="visible" fill="#000000" fill-opacity="0.000" stroke="#000000" stroke-opacity="0.000" class="guide background" id="img-b49d684e-21">
        <g transform="translate(77.26,42.86)" id="img-b49d684e-22">
          <path d="M-59.3,-37.86 L 59.3 -37.86 59.3 37.86 -59.3 37.86 z" class="primitive"/>
        </g>
      </g>
      <g class="guide ygridlines xfixed" stroke-dasharray="0.5,0.5" stroke-width="0.2" stroke="#D0D0E0" id="img-b49d684e-23">
        <g transform="translate(77.26,78.72)" id="img-b49d684e-24">
          <path fill="none" d="M-59.3,0 L 59.3 0" class="primitive"/>
        </g>
        <g transform="translate(77.26,60.79)" id="img-b49d684e-25">
          <path fill="none" d="M-59.3,0 L 59.3 0" class="primitive"/>
        </g>
        <g transform="translate(77.26,42.86)" id="img-b49d684e-26">
          <path fill="none" d="M-59.3,0 L 59.3 0" class="primitive"/>
        </g>
        <g transform="translate(77.26,24.93)" id="img-b49d684e-27">
          <path fill="none" d="M-59.3,0 L 59.3 0" class="primitive"/>
        </g>
        <g transform="translate(77.26,7)" id="img-b49d684e-28">
          <path fill="none" d="M-59.3,0 L 59.3 0" class="primitive"/>
        </g>
      </g>
      <g class="guide xgridlines yfixed" stroke-dasharray="0.5,0.5" stroke-width="0.2" stroke="#D0D0E0" id="img-b49d684e-29">
        <g transform="translate(19.96,42.86)" id="img-b49d684e-30">
          <path fill="none" d="M0,-37.86 L 0 37.86" class="primitive"/>
        </g>
        <g transform="translate(77.26,42.86)" id="img-b49d684e-31">
          <path fill="none" d="M0,-37.86 L 0 37.86" class="primitive"/>
        </g>
        <g transform="translate(134.57,42.86)" id="img-b49d684e-32">
          <path fill="none" d="M0,-37.86 L 0 37.86" class="primitive"/>
        </g>
      </g>
      <g class="plotpanel" id="img-b49d684e-33">
        <metadata>
          <boundingbox value="17.95833333333333mm 5.0mm 118.60833333333333mm 75.715mm"/>
          <unitbox value="-17.450738020795466 41.115526737781494 1034.901476041591 -42.231053475562994"/>
        </metadata>
        <g stroke-width="0.3" fill="#000000" fill-opacity="0.000" class="geometry" id="img-b49d684e-34">
          <g transform="translate(76.69,74.92)" id="img-b49d684e-35" stroke="#00BFFF" stroke-dasharray="none" class="color_10">
            <path fill="none" d="M-56.73,-14.02 L -55.59 -9.37 -54.44 -4.71 -53.29 -1.84 -52.15 -0.54 -51 -0.05 -49.85 0.15 -48.71 0.24 -47.56 0.29 -46.42 0.31 -45.27 0.32 -44.12 0.32 -42.98 0.33 -41.83 0.33 -40.69 0.33 -39.54 0.33 -38.39 0.33 -37.25 0.33 -36.1 0.33 -34.96 0.33 -33.81 0.33 -32.66 0.33 -31.52 0.33 -30.37 0.33 -29.23 0.33 -28.08 0.33 -26.93 0.33 -25.79 0.33 -24.64 0.33 -23.49 0.33 -22.35 0.33 -21.2 0.33 -20.06 0.33 -18.91 0.33 -17.76 0.33 -16.62 0.33 -15.47 0.33 -14.33 0.33 -13.18 0.33 -12.03 0.33 -10.89 0.33 -9.74 0.33 -8.6 0.33 -7.45 0.33 -6.3 0.33 -5.16 0.33 -4.01 0.33 -2.87 0.33 -1.72 0.33 -0.57 0.33 0.57 0.33 1.72 0.33 2.87 0.33 4.01 0.33 5.16 0.33 6.3 0.33 7.45 0.33 8.6 0.33 9.74 0.33 10.89 0.33 12.03 0.33 13.18 0.33 14.33 0.33 15.47 0.33 16.62 0.33 17.76 0.33 18.91 0.33 20.06 0.33 21.2 0.33 22.35 0.33 23.49 0.33 24.64 0.33 25.79 0.33 26.93 0.33 28.08 0.33 29.23 0.33 30.37 0.33 31.52 0.33 32.66 0.33 33.81 0.33 34.96 0.33 36.1 0.33 37.25 0.33 38.39 0.33 39.54 0.33 40.69 0.33 41.83 0.33 42.98 0.33 44.12 0.33 45.27 0.33 46.42 0.33 47.56 0.33 48.71 0.33 49.85 0.33 51 0.33 52.15 0.33 53.29 0.33 54.44 0.33 55.59 0.33 56.73 0.33" class="primitive"/>
          </g>
          <g transform="translate(76.69,72.64)" id="img-b49d684e-36" stroke="#D4CA3A" stroke-dasharray="none" class="color_25">
            <path fill="none" d="M-56.73,-32.58 L -55.59 -22.34 -54.44 -12.73 -53.29 -5.01 -52.15 -1.19 -51 0.07 -49.85 0.47 -48.71 0.64 -47.56 0.72 -46.42 0.75 -45.27 0.76 -44.12 0.76 -42.98 0.77 -41.83 0.77 -40.69 0.77 -39.54 0.77 -38.39 0.77 -37.25 0.77 -36.1 0.77 -34.96 0.77 -33.81 0.77 -32.66 0.77 -31.52 0.77 -30.37 0.78 -29.23 0.78 -28.08 0.78 -26.93 0.78 -25.79 0.78 -24.64 0.78 -23.49 0.78 -22.35 0.78 -21.2 0.78 -20.06 0.78 -18.91 0.78 -17.76 0.78 -16.62 0.78 -15.47 0.78 -14.33 0.78 -13.18 0.78 -12.03 0.78 -10.89 0.78 -9.74 0.78 -8.6 0.79 -7.45 0.79 -6.3 0.79 -5.16 0.79 -4.01 0.79 -2.87 0.79 -1.72 0.79 -0.57 0.79 0.57 0.79 1.72 0.79 2.87 0.79 4.01 0.79 5.16 0.79 6.3 0.79 7.45 0.79 8.6 0.79 9.74 0.79 10.89 0.79 12.03 0.79 13.18 0.79 14.33 0.79 15.47 0.79 16.62 0.79 17.76 0.79 18.91 0.8 20.06 0.8 21.2 0.8 22.35 0.8 23.49 0.8 24.64 0.8 25.79 0.8 26.93 0.8 28.08 0.8 29.23 0.8 30.37 0.8 31.52 0.8 32.66 0.8 33.81 0.8 34.96 0.8 36.1 0.8 37.25 0.8 38.39 0.81 39.54 0.81 40.69 0.81 41.83 0.81 42.98 0.81 44.12 0.81 45.27 0.81 46.42 0.81 47.56 0.81 48.71 0.81 49.85 0.81 51 0.82 52.15 0.82 53.29 0.82 54.44 0.82 55.59 0.82 56.73 0.82" class="primitive"/>
          </g>
          <g transform="translate(76.69,70.83)" id="img-b49d684e-37" stroke="#FF6DAE" stroke-dasharray="none" class="color_50">
            <path fill="none" d="M-56.73,-48.31 L -55.59 -33.8 -54.44 -20.59 -53.29 -8.76 -52.15 -1.72 -51 0.32 -49.85 0.83 -48.71 1.01 -47.56 1.09 -46.42 1.12 -45.27 1.14 -44.12 1.16 -42.98 1.16 -41.83 1.17 -40.69 1.17 -39.54 1.17 -38.39 1.17 -37.25 1.18 -36.1 1.18 -34.96 1.18 -33.81 1.18 -32.66 1.18 -31.52 1.18 -30.37 1.18 -29.23 1.18 -28.08 1.18 -26.93 1.18 -25.79 1.18 -24.64 1.18 -23.49 1.19 -22.35 1.19 -21.2 1.19 -20.06 1.19 -18.91 1.19 -17.76 1.19 -16.62 1.19 -15.47 1.19 -14.33 1.19 -13.18 1.19 -12.03 1.2 -10.89 1.2 -9.74 1.2 -8.6 1.2 -7.45 1.2 -6.3 1.2 -5.16 1.2 -4.01 1.2 -2.87 1.2 -1.72 1.2 -0.57 1.2 0.57 1.2 1.72 1.2 2.87 1.2 4.01 1.21 5.16 1.21 6.3 1.21 7.45 1.21 8.6 1.21 9.74 1.21 10.89 1.21 12.03 1.21 13.18 1.21 14.33 1.21 15.47 1.21 16.62 1.21 17.76 1.21 18.91 1.21 20.06 1.22 21.2 1.22 22.35 1.22 23.49 1.22 24.64 1.22 25.79 1.22 26.93 1.22 28.08 1.23 29.23 1.23 30.37 1.23 31.52 1.23 32.66 1.23 33.81 1.23 34.96 1.23 36.1 1.23 37.25 1.24 38.39 1.24 39.54 1.24 40.69 1.24 41.83 1.24 42.98 1.24 44.12 1.24 45.27 1.25 46.42 1.25 47.56 1.25 48.71 1.25 49.85 1.25 51 1.25 52.15 1.25 53.29 1.25 54.44 1.25 55.59 1.25 56.73 1.26" class="primitive"/>
          </g>
          <g transform="translate(76.69,70.05)" id="img-b49d684e-38" stroke="#00B78D" stroke-dasharray="none" class="color_75">
            <path fill="none" d="M-56.73,-55.97 L -55.59 -39.55 -54.44 -24.75 -53.29 -11.1 -52.15 -2.24 -51 0.4 -49.85 0.99 -48.71 1.17 -47.56 1.26 -46.42 1.31 -45.27 1.33 -44.12 1.34 -42.98 1.35 -41.83 1.36 -40.69 1.37 -39.54 1.37 -38.39 1.37 -37.25 1.37 -36.1 1.37 -34.96 1.38 -33.81 1.38 -32.66 1.38 -31.52 1.38 -30.37 1.38 -29.23 1.38 -28.08 1.38 -26.93 1.38 -25.79 1.38 -24.64 1.38 -23.49 1.39 -22.35 1.39 -21.2 1.39 -20.06 1.39 -18.91 1.39 -17.76 1.4 -16.62 1.4 -15.47 1.4 -14.33 1.4 -13.18 1.4 -12.03 1.4 -10.89 1.4 -9.74 1.4 -8.6 1.41 -7.45 1.41 -6.3 1.41 -5.16 1.41 -4.01 1.41 -2.87 1.41 -1.72 1.41 -0.57 1.41 0.57 1.42 1.72 1.42 2.87 1.42 4.01 1.42 5.16 1.43 6.3 1.43 7.45 1.44 8.6 1.44 9.74 1.44 10.89 1.44 12.03 1.44 13.18 1.44 14.33 1.44 15.47 1.44 16.62 1.44 17.76 1.45 18.91 1.45 20.06 1.45 21.2 1.45 22.35 1.45 23.49 1.45 24.64 1.46 25.79 1.46 26.93 1.46 28.08 1.46 29.23 1.46 30.37 1.46 31.52 1.46 32.66 1.47 33.81 1.47 34.96 1.47 36.1 1.47 37.25 1.47 38.39 1.48 39.54 1.48 40.69 1.48 41.83 1.48 42.98 1.48 44.12 1.48 45.27 1.48 46.42 1.49 47.56 1.49 48.71 1.49 49.85 1.49 51 1.49 52.15 1.49 53.29 1.49 54.44 1.5 55.59 1.5 56.73 1.5" class="primitive"/>
          </g>
          <g transform="translate(76.69,69.63)" id="img-b49d684e-39" stroke="#BEA9FF" stroke-dasharray="none" class="color_100">
            <path fill="none" d="M-56.73,-60.45 L -55.59 -42.87 -54.44 -27.17 -53.29 -12.52 -52.15 -2.48 -51 0.47 -49.85 1.09 -48.71 1.28 -47.56 1.36 -46.42 1.42 -45.27 1.45 -44.12 1.46 -42.98 1.47 -41.83 1.48 -40.69 1.49 -39.54 1.49 -38.39 1.5 -37.25 1.5 -36.1 1.5 -34.96 1.5 -33.81 1.5 -32.66 1.5 -31.52 1.51 -30.37 1.51 -29.23 1.51 -28.08 1.51 -26.93 1.51 -25.79 1.51 -24.64 1.52 -23.49 1.52 -22.35 1.52 -21.2 1.52 -20.06 1.52 -18.91 1.52 -17.76 1.53 -16.62 1.53 -15.47 1.53 -14.33 1.53 -13.18 1.53 -12.03 1.53 -10.89 1.53 -9.74 1.53 -8.6 1.53 -7.45 1.53 -6.3 1.54 -5.16 1.54 -4.01 1.54 -2.87 1.54 -1.72 1.54 -0.57 1.54 0.57 1.55 1.72 1.55 2.87 1.55 4.01 1.55 5.16 1.55 6.3 1.56 7.45 1.56 8.6 1.56 9.74 1.56 10.89 1.56 12.03 1.56 13.18 1.56 14.33 1.57 15.47 1.57 16.62 1.57 17.76 1.57 18.91 1.57 20.06 1.57 21.2 1.58 22.35 1.58 23.49 1.58 24.64 1.58 25.79 1.58 26.93 1.59 28.08 1.59 29.23 1.59 30.37 1.59 31.52 1.6 32.66 1.6 33.81 1.6 34.96 1.6 36.1 1.6 37.25 1.6 38.39 1.6 39.54 1.6 40.69 1.6 41.83 1.61 42.98 1.61 44.12 1.61 45.27 1.61 46.42 1.61 47.56 1.61 48.71 1.61 49.85 1.61 51 1.61 52.15 1.61 53.29 1.61 54.44 1.61 55.59 1.62 56.73 1.62" class="primitive"/>
          </g>
        </g>
      </g>
    </g>
  </g>
  <g class="guide ylabels" font-size="2.82" font-family="'PT Sans Caption','Helvetica Neue','Helvetica',sans-serif" fill="#6C606B" id="img-b49d684e-40">
    <g transform="translate(16.96,78.72)" id="img-b49d684e-41">
      <g class="primitive">
        <text text-anchor="end" dy="0.35em">0</text>
      </g>
    </g>
    <g transform="translate(16.96,60.79)" id="img-b49d684e-42">
      <g class="primitive">
        <text text-anchor="end" dy="0.35em">10</text>
      </g>
    </g>
    <g transform="translate(16.96,42.86)" id="img-b49d684e-43">
      <g class="primitive">
        <text text-anchor="end" dy="0.35em">20</text>
      </g>
    </g>
    <g transform="translate(16.96,24.93)" id="img-b49d684e-44">
      <g class="primitive">
        <text text-anchor="end" dy="0.35em">30</text>
      </g>
    </g>
    <g transform="translate(16.96,7)" id="img-b49d684e-45">
      <g class="primitive">
        <text text-anchor="end" dy="0.35em">40</text>
      </g>
    </g>
  </g>
  <g font-size="3.88" font-family="'PT Sans','Helvetica Neue','Helvetica',sans-serif" fill="#564A55" stroke="#000000" stroke-opacity="0.000" id="img-b49d684e-46">
    <g transform="translate(8.81,40.86)" id="img-b49d684e-47">
      <g class="primitive">
        <text text-anchor="middle" dy="0.35em" transform="rotate(-90,0, 2)">Numero Medio de Variedades por UD</text>
      </g>
    </g>
  </g>
</g>
<defs>
  <clipPath id="img-b49d684e-19">
    <path d="M17.96,5 L 136.57 5 136.57 80.72 17.96 80.72" />
  </clipPath>
</defs>
</svg>
