<?xml version="1.0" encoding="UTF-8"?>
<svg xmlns="http://www.w3.org/2000/svg"
     xmlns:xlink="http://www.w3.org/1999/xlink"
     xmlns:gadfly="http://www.gadflyjl.org/ns"
     version="1.2"
     width="150mm" height="100mm" viewBox="0 0 150 100"
     stroke="none"
     fill="#000000"
     stroke-width="0.3"
     font-size="3.88"
>
<defs>
  <marker id="arrow" markerWidth="15" markerHeight="7" refX="5" refY="3.5" orient="auto" markerUnits="strokeWidth">
    <path d="M0,0 L15,3.5 L0,7 z" stroke="context-stroke" fill="context-stroke"/>
  </marker>
</defs>
<g class="plotroot xscalable yscalable" id="img-eb96da73-1">
  <g font-size="3.88" font-family="'PT Sans','Helvetica Neue','Helvetica',sans-serif" fill="#564A55" stroke="#000000" stroke-opacity="0.000" id="img-eb96da73-2">
    <g transform="translate(76.49,88.39)">
      <g class="primitive">
        <text text-anchor="middle" dy="0.6em">Time</text>
      </g>
    </g>
  </g>
  <g class="guide xlabels" font-size="2.82" font-family="'PT Sans Caption','Helvetica Neue','Helvetica',sans-serif" fill="#6C606B" id="img-eb96da73-3">
    <g transform="translate(19.96,81.72)">
      <g class="primitive">
        <text text-anchor="middle" dy="0.6em">0</text>
      </g>
    </g>
    <g transform="translate(76.49,81.72)">
      <g class="primitive">
        <text text-anchor="middle" dy="0.6em">500</text>
      </g>
    </g>
    <g transform="translate(133.03,81.72)">
      <g class="primitive">
        <text text-anchor="middle" dy="0.6em">1000</text>
      </g>
    </g>
  </g>
  <g class="guide colorkey" id="img-eb96da73-4">
    <g fill="#4C404B" font-size="2.82" font-family="'PT Sans','Helvetica Neue','Helvetica',sans-serif" id="img-eb96da73-5">
      <g transform="translate(138.84,39.23)" id="img-eb96da73-6" class="color_1">
        <g class="primitive">
          <text dy="0.35em">1</text>
        </g>
      </g>
      <g transform="translate(138.84,42.86)" id="img-eb96da73-7" class="color_7">
        <g class="primitive">
          <text dy="0.35em">7</text>
        </g>
      </g>
      <g transform="translate(138.84,46.48)" id="img-eb96da73-8" class="color_49">
        <g class="primitive">
          <text dy="0.35em">49</text>
        </g>
      </g>
      <g transform="translate(138.84,50.11)" id="img-eb96da73-9" class="color_2401">
        <g class="primitive">
          <text dy="0.35em">2401</text>
        </g>
      </g>
    </g>
    <g stroke="#000000" stroke-opacity="0.000" id="img-eb96da73-10">
      <g transform="translate(136.93,39.23)" id="img-eb96da73-11" fill="#00BFFF" class="color_1">
        <path d="M-0.91,-0.91 L 0.91 -0.91 0.91 0.91 -0.91 0.91 z" class="primitive"/>
      </g>
      <g transform="translate(136.93,42.86)" id="img-eb96da73-12" fill="#D4CA3A" class="color_7">
        <path d="M-0.91,-0.91 L 0.91 -0.91 0.91 0.91 -0.91 0.91 z" class="primitive"/>
      </g>
      <g transform="translate(136.93,46.48)" id="img-eb96da73-13" fill="#FF6DAE" class="color_49">
        <path d="M-0.91,-0.91 L 0.91 -0.91 0.91 0.91 -0.91 0.91 z" class="primitive"/>
      </g>
      <g transform="translate(136.93,50.11)" id="img-eb96da73-14" fill="#00B78D" class="color_2401">
        <path d="M-0.91,-0.91 L 0.91 -0.91 0.91 0.91 -0.91 0.91 z" class="primitive"/>
      </g>
    </g>
    <g fill="#362A35" font-size="3.88" font-family="'PT Sans','Helvetica Neue','Helvetica',sans-serif" stroke="#000000" stroke-opacity="0.000" id="img-eb96da73-15">
      <g transform="translate(136.03,35.41)" id="img-eb96da73-16">
        <g class="primitive">
          <text>r</text>
        </g>
      </g>
    </g>
  </g>
  <g clip-path="url(#img-eb96da73-17)">
    <g id="img-eb96da73-18">
      <g pointer-events="visible" fill="#000000" fill-opacity="0.000" stroke="#000000" stroke-opacity="0.000" class="guide background" id="img-eb96da73-19">
        <g transform="translate(76.49,42.86)" id="img-eb96da73-20">
          <path d="M-58.53,-37.86 L 58.53 -37.86 58.53 37.86 -58.53 37.86 z" class="primitive"/>
        </g>
      </g>
      <g class="guide ygridlines xfixed" stroke-dasharray="0.5,0.5" stroke-width="0.2" stroke="#D0D0E0" id="img-eb96da73-21">
        <g transform="translate(76.49,78.72)" id="img-eb96da73-22">
          <path fill="none" d="M-58.53,0 L 58.53 0" class="primitive"/>
        </g>
        <g transform="translate(76.49,60.79)" id="img-eb96da73-23">
          <path fill="none" d="M-58.53,0 L 58.53 0" class="primitive"/>
        </g>
        <g transform="translate(76.49,42.86)" id="img-eb96da73-24">
          <path fill="none" d="M-58.53,0 L 58.53 0" class="primitive"/>
        </g>
        <g transform="translate(76.49,24.93)" id="img-eb96da73-25">
          <path fill="none" d="M-58.53,0 L 58.53 0" class="primitive"/>
        </g>
        <g transform="translate(76.49,7)" id="img-eb96da73-26">
          <path fill="none" d="M-58.53,0 L 58.53 0" class="primitive"/>
        </g>
      </g>
      <g class="guide xgridlines yfixed" stroke-dasharray="0.5,0.5" stroke-width="0.2" stroke="#D0D0E0" id="img-eb96da73-27">
        <g transform="translate(19.96,42.86)" id="img-eb96da73-28">
          <path fill="none" d="M0,-37.86 L 0 37.86" class="primitive"/>
        </g>
        <g transform="translate(76.49,42.86)" id="img-eb96da73-29">
          <path fill="none" d="M0,-37.86 L 0 37.86" class="primitive"/>
        </g>
        <g transform="translate(133.03,42.86)" id="img-eb96da73-30">
          <path fill="none" d="M0,-37.86 L 0 37.86" class="primitive"/>
        </g>
      </g>
      <g class="plotpanel" id="img-eb96da73-31">
        <metadata>
          <boundingbox value="17.958333333333343mm 5.0mm 117.06833333333333mm 75.715mm"/>
          <unitbox value="-17.688418507981897 41.115526737781494 1035.3768370159637 -42.231053475562994"/>
        </metadata>
        <g stroke-width="0.3" fill="#000000" fill-opacity="0.000" class="geometry" id="img-eb96da73-32">
          <g transform="translate(75.93,70.6)" id="img-eb96da73-33" stroke="#00BFFF" stroke-dasharray="none" class="color_1">
            <path fill="none" d="M-55.97,-48.12 L -54.84 -33.51 -53.71 -20.28 -52.58 -8.58 -51.45 -1.73 -50.32 0.31 -49.18 0.81 -48.05 0.99 -46.92 1.07 -45.79 1.1 -44.66 1.12 -43.53 1.13 -42.4 1.14 -41.27 1.14 -40.14 1.15 -39.01 1.15 -37.88 1.15 -36.75 1.15 -35.62 1.15 -34.49 1.16 -33.36 1.16 -32.22 1.16 -31.09 1.16 -29.96 1.16 -28.83 1.16 -27.7 1.16 -26.57 1.17 -25.44 1.17 -24.31 1.17 -23.18 1.17 -22.05 1.17 -20.92 1.17 -19.79 1.17 -18.66 1.17 -17.53 1.17 -16.39 1.18 -15.26 1.18 -14.13 1.18 -13 1.18 -11.87 1.18 -10.74 1.18 -9.61 1.18 -8.48 1.18 -7.35 1.18 -6.22 1.18 -5.09 1.19 -3.96 1.19 -2.83 1.19 -1.7 1.19 -0.57 1.19 0.57 1.19 1.7 1.19 2.83 1.19 3.96 1.2 5.09 1.2 6.22 1.2 7.35 1.2 8.48 1.2 9.61 1.2 10.74 1.21 11.87 1.21 13 1.22 14.13 1.22 15.26 1.22 16.39 1.22 17.53 1.22 18.66 1.22 19.79 1.22 20.92 1.22 22.05 1.22 23.18 1.22 24.31 1.22 25.44 1.22 26.57 1.23 27.7 1.23 28.83 1.23 29.96 1.23 31.09 1.23 32.22 1.23 33.36 1.23 34.49 1.23 35.62 1.23 36.75 1.23 37.88 1.24 39.01 1.24 40.14 1.24 41.27 1.24 42.4 1.24 43.53 1.24 44.66 1.24 45.79 1.24 46.92 1.24 48.05 1.24 49.18 1.24 50.32 1.24 51.45 1.25 52.58 1.25 53.71 1.25 54.84 1.25 55.97 1.25" class="primitive"/>
          </g>
          <g transform="translate(75.93,71.81)" id="img-eb96da73-34" stroke="#D4CA3A" stroke-dasharray="none" class="color_7">
            <path fill="none" d="M-55.97,-49.33 L -54.84 -32.71 -53.71 -17.25 -52.58 -7.44 -51.45 -2.2 -50.32 -0.09 -49.18 0.65 -48.05 0.89 -46.92 1.01 -45.79 1.08 -44.66 1.12 -43.53 1.13 -42.4 1.14 -41.27 1.14 -40.14 1.15 -39.01 1.15 -37.88 1.15 -36.75 1.15 -35.62 1.15 -34.49 1.15 -33.36 1.15 -32.22 1.15 -31.09 1.15 -29.96 1.15 -28.83 1.15 -27.7 1.15 -26.57 1.15 -25.44 1.15 -24.31 1.15 -23.18 1.16 -22.05 1.16 -20.92 1.16 -19.79 1.16 -18.66 1.16 -17.53 1.16 -16.39 1.16 -15.26 1.16 -14.13 1.16 -13 1.16 -11.87 1.16 -10.74 1.16 -9.61 1.16 -8.48 1.16 -7.35 1.16 -6.22 1.16 -5.09 1.16 -3.96 1.17 -2.83 1.17 -1.7 1.17 -0.57 1.17 0.57 1.17 1.7 1.17 2.83 1.17 3.96 1.17 5.09 1.17 6.22 1.17 7.35 1.17 8.48 1.17 9.61 1.17 10.74 1.17 11.87 1.17 13 1.17 14.13 1.17 15.26 1.18 16.39 1.18 17.53 1.18 18.66 1.18 19.79 1.18 20.92 1.18 22.05 1.18 23.18 1.18 24.31 1.18 25.44 1.18 26.57 1.18 27.7 1.19 28.83 1.19 29.96 1.19 31.09 1.19 32.22 1.19 33.36 1.19 34.49 1.19 35.62 1.19 36.75 1.19 37.88 1.19 39.01 1.19 40.14 1.19 41.27 1.19 42.4 1.19 43.53 1.19 44.66 1.19 45.79 1.19 46.92 1.19 48.05 1.19 49.18 1.19 50.32 1.2 51.45 1.2 52.58 1.2 53.71 1.2 54.84 1.2 55.97 1.2" class="primitive"/>
          </g>
          <g transform="translate(75.93,65.26)" id="img-eb96da73-35" stroke="#FF6DAE" stroke-dasharray="none" class="color_49">
            <path fill="none" d="M-55.97,-42.76 L -54.84 -28.25 -53.71 -15.57 -52.58 -6.6 -51.45 -2.12 -50.32 -0.38 -49.18 0.3 -48.05 0.6 -46.92 0.74 -45.79 0.82 -44.66 0.87 -43.53 0.9 -42.4 0.91 -41.27 0.92 -40.14 0.93 -39.01 0.93 -37.88 0.94 -36.75 0.95 -35.62 0.95 -34.49 0.95 -33.36 0.95 -32.22 0.96 -31.09 0.96 -29.96 0.96 -28.83 0.97 -27.7 0.97 -26.57 0.97 -25.44 0.97 -24.31 0.97 -23.18 0.98 -22.05 0.98 -20.92 0.98 -19.79 0.98 -18.66 0.98 -17.53 0.99 -16.39 0.99 -15.26 0.99 -14.13 0.99 -13 0.99 -11.87 1 -10.74 1 -9.61 1 -8.48 1.01 -7.35 1.01 -6.22 1.01 -5.09 1.01 -3.96 1.02 -2.83 1.02 -1.7 1.02 -0.57 1.02 0.57 1.03 1.7 1.03 2.83 1.03 3.96 1.03 5.09 1.03 6.22 1.04 7.35 1.04 8.48 1.04 9.61 1.05 10.74 1.05 11.87 1.05 13 1.06 14.13 1.06 15.26 1.06 16.39 1.06 17.53 1.07 18.66 1.07 19.79 1.07 20.92 1.07 22.05 1.08 23.18 1.08 24.31 1.08 25.44 1.08 26.57 1.09 27.7 1.09 28.83 1.09 29.96 1.09 31.09 1.1 32.22 1.1 33.36 1.1 34.49 1.1 35.62 1.1 36.75 1.1 37.88 1.11 39.01 1.11 40.14 1.11 41.27 1.11 42.4 1.11 43.53 1.12 44.66 1.12 45.79 1.12 46.92 1.12 48.05 1.12 49.18 1.12 50.32 1.13 51.45 1.13 52.58 1.13 53.71 1.14 54.84 1.14 55.97 1.14" class="primitive"/>
          </g>
          <g transform="translate(75.93,64.53)" id="img-eb96da73-36" stroke="#00B78D" stroke-dasharray="none" class="color_2401">
            <path fill="none" d="M-55.97,-42.06 L -54.84 -27.58 -53.71 -15.54 -52.58 -6.7 -51.45 -2.08 -50.32 -0.26 -49.18 0.42 -48.05 0.69 -46.92 0.81 -45.79 0.86 -44.66 0.89 -43.53 0.9 -42.4 0.91 -41.27 0.92 -40.14 0.92 -39.01 0.93 -37.88 0.93 -36.75 0.93 -35.62 0.94 -34.49 0.94 -33.36 0.94 -32.22 0.94 -31.09 0.94 -29.96 0.95 -28.83 0.95 -27.7 0.95 -26.57 0.95 -25.44 0.95 -24.31 0.96 -23.18 0.96 -22.05 0.96 -20.92 0.96 -19.79 0.97 -18.66 0.97 -17.53 0.97 -16.39 0.97 -15.26 0.97 -14.13 0.97 -13 0.98 -11.87 0.98 -10.74 0.99 -9.61 0.99 -8.48 0.99 -7.35 0.99 -6.22 1 -5.09 1 -3.96 1 -2.83 1 -1.7 1.01 -0.57 1.01 0.57 1.01 1.7 1.01 2.83 1.01 3.96 1.02 5.09 1.02 6.22 1.02 7.35 1.02 8.48 1.03 9.61 1.03 10.74 1.03 11.87 1.03 13 1.03 14.13 1.04 15.26 1.04 16.39 1.04 17.53 1.04 18.66 1.04 19.79 1.05 20.92 1.05 22.05 1.05 23.18 1.05 24.31 1.05 25.44 1.06 26.57 1.06 27.7 1.06 28.83 1.06 29.96 1.07 31.09 1.07 32.22 1.07 33.36 1.07 34.49 1.07 35.62 1.07 36.75 1.08 37.88 1.08 39.01 1.08 40.14 1.08 41.27 1.08 42.4 1.09 43.53 1.09 44.66 1.09 45.79 1.09 46.92 1.09 48.05 1.1 49.18 1.1 50.32 1.1 51.45 1.1 52.58 1.1 53.71 1.11 54.84 1.11 55.97 1.11" class="primitive"/>
          </g>
        </g>
      </g>
    </g>
  </g>
  <g class="guide ylabels" font-size="2.82" font-family="'PT Sans Caption','Helvetica Neue','Helvetica',sans-serif" fill="#6C606B" id="img-eb96da73-37">
    <g transform="translate(16.96,78.72)" id="img-eb96da73-38">
      <g class="primitive">
        <text text-anchor="end" dy="0.35em">0</text>
      </g>
    </g>
    <g transform="translate(16.96,60.79)" id="img-eb96da73-39">
      <g class="primitive">
        <text text-anchor="end" dy="0.35em">10</text>
      </g>
    </g>
    <g transform="translate(16.96,42.86)" id="img-eb96da73-40">
      <g class="primitive">
        <text text-anchor="end" dy="0.35em">20</text>
      </g>
    </g>
    <g transform="translate(16.96,24.93)" id="img-eb96da73-41">
      <g class="primitive">
        <text text-anchor="end" dy="0.35em">30</text>
      </g>
    </g>
    <g transform="translate(16.96,7)" id="img-eb96da73-42">
      <g class="primitive">
        <text text-anchor="end" dy="0.35em">40</text>
      </g>
    </g>
  </g>
  <g font-size="3.88" font-family="'PT Sans','Helvetica Neue','Helvetica',sans-serif" fill="#564A55" stroke="#000000" stroke-opacity="0.000" id="img-eb96da73-43">
    <g transform="translate(8.81,40.86)" id="img-eb96da73-44">
      <g class="primitive">
        <text text-anchor="middle" dy="0.35em" transform="rotate(-90,0, 2)">Numero Medio de Variedades por UD</text>
      </g>
    </g>
  </g>
</g>
<defs>
  <clipPath id="img-eb96da73-17">
    <path d="M17.96,5 L 135.03 5 135.03 80.72 17.96 80.72" />
  </clipPath>
</defs>
</svg>
