<?xml version="1.0" encoding="UTF-8"?>
<svg xmlns="http://www.w3.org/2000/svg"
     xmlns:xlink="http://www.w3.org/1999/xlink"
     xmlns:gadfly="http://www.gadflyjl.org/ns"
     version="1.2"
     width="200mm" height="100mm" viewBox="0 0 200 100"
     stroke="none"
     fill="#000000"
     stroke-width="0.3"
     font-size="3.88"
>
<defs>
  <marker id="arrow" markerWidth="15" markerHeight="7" refX="5" refY="3.5" orient="auto" markerUnits="strokeWidth">
    <path d="M0,0 L15,3.5 L0,7 z" stroke="context-stroke" fill="context-stroke"/>
  </marker>
</defs>
<g class="plotroot xscalable yscalable" id="img-7d29dcbc-1">
  <g font-size="3.88" font-family="'PT Sans','Helvetica Neue','Helvetica',sans-serif" fill="#564A55" stroke="#000000" stroke-opacity="0.000" id="img-7d29dcbc-2">
    <g transform="translate(77.83,88.39)">
      <g class="primitive">
        <text text-anchor="middle" dy="0.6em">Tempo</text>
      </g>
    </g>
  </g>
  <g class="guide xlabels" font-size="2.82" font-family="'PT Sans Caption','Helvetica Neue','Helvetica',sans-serif" fill="#6C606B" id="img-7d29dcbc-3">
    <g transform="translate(12.35,81.72)">
      <g class="primitive">
        <text text-anchor="middle" dy="0.6em">0</text>
      </g>
    </g>
    <g transform="translate(38.54,81.72)">
      <g class="primitive">
        <text text-anchor="middle" dy="0.6em">100</text>
      </g>
    </g>
    <g transform="translate(64.73,81.72)">
      <g class="primitive">
        <text text-anchor="middle" dy="0.6em">200</text>
      </g>
    </g>
    <g transform="translate(90.92,81.72)">
      <g class="primitive">
        <text text-anchor="middle" dy="0.6em">300</text>
      </g>
    </g>
    <g transform="translate(117.11,81.72)">
      <g class="primitive">
        <text text-anchor="middle" dy="0.6em">400</text>
      </g>
    </g>
    <g transform="translate(143.31,81.72)">
      <g class="primitive">
        <text text-anchor="middle" dy="0.6em">500</text>
      </g>
    </g>
  </g>
  <g class="guide colorkey" id="img-7d29dcbc-4">
    <g fill="#4C404B" font-size="2.82" font-family="'PT Sans','Helvetica Neue','Helvetica',sans-serif" id="img-7d29dcbc-5">
      <g transform="translate(149.12,42.86)" id="img-7d29dcbc-6">
        <g class="primitive">
          <text dy="0.35em">Número de Variedades</text>
        </g>
      </g>
      <g transform="translate(149.12,46.48)" id="img-7d29dcbc-7">
        <g class="primitive">
          <text dy="0.35em">Número Médio de Variedades por UD</text>
        </g>
      </g>
    </g>
    <g stroke="#000000" stroke-opacity="0.000" id="img-7d29dcbc-8">
      <g transform="translate(147.21,42.86)" id="img-7d29dcbc-9" fill="#008000">
        <path d="M-0.91,-0.91 L 0.91 -0.91 0.91 0.91 -0.91 0.91 z" class="primitive"/>
      </g>
      <g transform="translate(147.21,46.48)" id="img-7d29dcbc-10" fill="#FF0000">
        <path d="M-0.91,-0.91 L 0.91 -0.91 0.91 0.91 -0.91 0.91 z" class="primitive"/>
      </g>
    </g>
    <g fill="#362A35" font-size="3.88" font-family="'PT Sans','Helvetica Neue','Helvetica',sans-serif" stroke="#000000" stroke-opacity="0.000" id="img-7d29dcbc-11">
      <g transform="translate(146.31,39.04)" id="img-7d29dcbc-12">
        <g class="primitive">
          <text></text>
        </g>
      </g>
    </g>
  </g>
  <g clip-path="url(#img-7d29dcbc-13)">
    <g id="img-7d29dcbc-14">
      <g pointer-events="visible" fill="#000000" fill-opacity="0.000" stroke="#000000" stroke-opacity="0.000" class="guide background" id="img-7d29dcbc-15">
        <g transform="translate(77.83,42.86)" id="img-7d29dcbc-16">
          <path d="M-67.48,-37.86 L 67.48 -37.86 67.48 37.86 -67.48 37.86 z" class="primitive"/>
        </g>
      </g>
      <g class="guide ygridlines xfixed" stroke-dasharray="0.5,0.5" stroke-width="0.2" stroke="#D0D0E0" id="img-7d29dcbc-17">
        <g transform="translate(77.83,78.71)" id="img-7d29dcbc-18">
          <path fill="none" d="M-67.48,0 L 67.48 0" class="primitive"/>
        </g>
        <g transform="translate(77.83,64.37)" id="img-7d29dcbc-19">
          <path fill="none" d="M-67.48,0 L 67.48 0" class="primitive"/>
        </g>
        <g transform="translate(77.83,50.03)" id="img-7d29dcbc-20">
          <path fill="none" d="M-67.48,0 L 67.48 0" class="primitive"/>
        </g>
        <g transform="translate(77.83,35.69)" id="img-7d29dcbc-21">
          <path fill="none" d="M-67.48,0 L 67.48 0" class="primitive"/>
        </g>
        <g transform="translate(77.83,21.34)" id="img-7d29dcbc-22">
          <path fill="none" d="M-67.48,0 L 67.48 0" class="primitive"/>
        </g>
        <g transform="translate(77.83,7)" id="img-7d29dcbc-23">
          <path fill="none" d="M-67.48,0 L 67.48 0" class="primitive"/>
        </g>
      </g>
      <g class="guide xgridlines yfixed" stroke-dasharray="0.5,0.5" stroke-width="0.2" stroke="#D0D0E0" id="img-7d29dcbc-24">
        <g transform="translate(12.35,42.86)" id="img-7d29dcbc-25">
          <path fill="none" d="M0,-37.86 L 0 37.86" class="primitive"/>
        </g>
        <g transform="translate(38.54,42.86)" id="img-7d29dcbc-26">
          <path fill="none" d="M0,-37.86 L 0 37.86" class="primitive"/>
        </g>
        <g transform="translate(64.73,42.86)" id="img-7d29dcbc-27">
          <path fill="none" d="M0,-37.86 L 0 37.86" class="primitive"/>
        </g>
        <g transform="translate(90.92,42.86)" id="img-7d29dcbc-28">
          <path fill="none" d="M0,-37.86 L 0 37.86" class="primitive"/>
        </g>
        <g transform="translate(117.11,42.86)" id="img-7d29dcbc-29">
          <path fill="none" d="M0,-37.86 L 0 37.86" class="primitive"/>
        </g>
        <g transform="translate(143.31,42.86)" id="img-7d29dcbc-30">
          <path fill="none" d="M0,-37.86 L 0 37.86" class="primitive"/>
        </g>
      </g>
      <g class="plotpanel" id="img-7d29dcbc-31">
        <metadata>
          <boundingbox value="10.346666666666664mm 5.0mm 134.96mm 75.715mm"/>
          <unitbox value="-7.6359193646915084 51.39440842222687 515.271838729383 -52.78881684445375"/>
        </metadata>
        <g stroke-width="0.3" fill="#000000" fill-opacity="0.000" class="geometry" id="img-7d29dcbc-32">
          <g class="color_RGB{N0f8}(1.0,0.0,0.0)" stroke-dasharray="none" stroke="#FF0000" id="img-7d29dcbc-33">
            <g transform="translate(77.17,71.6)" id="img-7d29dcbc-34">
              <path fill="none" d="M-64.83,-38.11 L -63.52 -33.89 -62.21 -29.56 -60.9 -25.05 -59.59 -20.34 -58.28 -15.72 -56.97 -11.74 -55.66 -7.78 -54.35 -4.65 -53.04 -2.75 -51.73 -1.61 -50.42 -0.88 -49.11 -0.35 -47.8 0.06 -46.49 0.44 -45.18 1.03 -43.87 1.41 -42.56 1.96 -41.25 2.05 -39.94 2.17 -38.63 2.17 -37.32 2.23 -36.01 2.2 -34.7 2.23 -33.39 2.2 -32.09 2.23 -30.78 2.2 -29.47 2.26 -28.16 2.26 -26.85 2.32 -25.54 2.29 -24.23 2.32 -22.92 2.29 -21.61 2.32 -20.3 2.29 -18.99 2.32 -17.68 2.29 -16.37 2.32 -15.06 2.29 -13.75 2.32 -12.44 2.29 -11.13 2.32 -9.82 2.29 -8.51 2.32 -7.2 2.29 -5.89 2.32 -4.58 2.29 -3.27 2.32 -1.96 2.29 -0.65 2.32 0.65 2.29 1.96 2.32 3.27 2.29 4.58 2.32 5.89 2.29 7.2 2.32 8.51 2.29 9.82 2.32 11.13 2.29 12.44 2.32 13.75 2.29 15.06 2.32 16.37 2.29 17.68 2.32 18.99 2.29 20.3 2.32 21.61 2.29 22.92 2.32 24.23 2.29 25.54 2.32 26.85 2.29 28.16 2.32 29.47 2.29 30.78 2.32 32.09 2.29 33.39 2.32 34.7 2.29 36.01 2.32 37.32 2.29 38.63 2.32 39.94 2.29 41.25 2.32 42.56 2.29 43.87 2.32 45.18 2.29 46.49 2.32 47.8 2.29 49.11 2.32 50.42 2.29 51.73 2.32 53.04 2.29 54.35 2.32 55.66 2.29 56.97 2.32 58.28 2.29 59.59 2.32 60.9 2.29 62.21 2.32 63.52 2.29 64.83 2.32" class="primitive"/>
            </g>
          </g>
        </g>
        <g stroke-width="0.3" fill="#000000" fill-opacity="0.000" class="geometry" id="img-7d29dcbc-35">
          <g class="color_RGB{N0f8}(0.0,0.502,0.0)" stroke-dasharray="none" stroke="#008000" id="img-7d29dcbc-36">
            <g transform="translate(77.17,36.3)" id="img-7d29dcbc-37">
              <path fill="none" d="M-64.83,-29.3 L -63.52 -29.3 -62.21 -29.3 -60.9 -29.3 -59.59 -29.3 -58.28 -25 -56.97 -19.26 -55.66 -17.83 -54.35 -17.83 -53.04 -16.39 -51.73 -13.53 -50.42 -9.22 -49.11 -6.35 -47.8 -3.49 -46.49 -3.49 -45.18 -2.05 -43.87 -2.05 -42.56 -0.62 -41.25 0.82 -39.94 0.82 -38.63 2.25 -37.32 2.25 -36.01 2.25 -34.7 2.25 -33.39 2.25 -32.09 2.25 -30.78 2.25 -29.47 2.25 -28.16 2.25 -26.85 3.69 -25.54 3.69 -24.23 3.69 -22.92 3.69 -21.61 3.69 -20.3 3.69 -18.99 3.69 -17.68 3.69 -16.37 3.69 -15.06 3.69 -13.75 3.69 -12.44 3.69 -11.13 3.69 -9.82 3.69 -8.51 3.69 -7.2 3.69 -5.89 3.69 -4.58 3.69 -3.27 3.69 -1.96 3.69 -0.65 3.69 0.65 3.69 1.96 3.69 3.27 3.69 4.58 3.69 5.89 3.69 7.2 3.69 8.51 3.69 9.82 3.69 11.13 3.69 12.44 3.69 13.75 3.69 15.06 3.69 16.37 3.69 17.68 3.69 18.99 3.69 20.3 3.69 21.61 3.69 22.92 3.69 24.23 3.69 25.54 3.69 26.85 3.69 28.16 3.69 29.47 3.69 30.78 3.69 32.09 3.69 33.39 3.69 34.7 3.69 36.01 3.69 37.32 3.69 38.63 3.69 39.94 3.69 41.25 3.69 42.56 3.69 43.87 3.69 45.18 3.69 46.49 3.69 47.8 3.69 49.11 3.69 50.42 3.69 51.73 3.69 53.04 3.69 54.35 3.69 55.66 3.69 56.97 3.69 58.28 3.69 59.59 3.69 60.9 3.69 62.21 3.69 63.52 3.69 64.83 3.69" class="primitive"/>
            </g>
          </g>
        </g>
      </g>
    </g>
  </g>
  <g class="guide ylabels" font-size="2.82" font-family="'PT Sans Caption','Helvetica Neue','Helvetica',sans-serif" fill="#6C606B" id="img-7d29dcbc-38">
    <g transform="translate(9.35,78.71)" id="img-7d29dcbc-39">
      <g class="primitive">
        <text text-anchor="end" dy="0.35em">0</text>
      </g>
    </g>
    <g transform="translate(9.35,64.37)" id="img-7d29dcbc-40">
      <g class="primitive">
        <text text-anchor="end" dy="0.35em">10</text>
      </g>
    </g>
    <g transform="translate(9.35,50.03)" id="img-7d29dcbc-41">
      <g class="primitive">
        <text text-anchor="end" dy="0.35em">20</text>
      </g>
    </g>
    <g transform="translate(9.35,35.69)" id="img-7d29dcbc-42">
      <g class="primitive">
        <text text-anchor="end" dy="0.35em">30</text>
      </g>
    </g>
    <g transform="translate(9.35,21.34)" id="img-7d29dcbc-43">
      <g class="primitive">
        <text text-anchor="end" dy="0.35em">40</text>
      </g>
    </g>
    <g transform="translate(9.35,7)" id="img-7d29dcbc-44">
      <g class="primitive">
        <text text-anchor="end" dy="0.35em">50</text>
      </g>
    </g>
  </g>
</g>
<defs>
  <clipPath id="img-7d29dcbc-13">
    <path d="M10.35,5 L 145.31 5 145.31 80.72 10.35 80.72" />
  </clipPath>
</defs>
</svg>
