<?xml version="1.0" encoding="UTF-8"?>
<svg xmlns="http://www.w3.org/2000/svg"
     xmlns:xlink="http://www.w3.org/1999/xlink"
     xmlns:gadfly="http://www.gadflyjl.org/ns"
     version="1.2"
     width="150mm" height="100mm" viewBox="0 0 150 100"
     stroke="none"
     fill="#000000"
     stroke-width="0.3"
     font-size="3.88"
>
<defs>
  <marker id="arrow" markerWidth="15" markerHeight="7" refX="5" refY="3.5" orient="auto" markerUnits="strokeWidth">
    <path d="M0,0 L15,3.5 L0,7 z" stroke="context-stroke" fill="context-stroke"/>
  </marker>
</defs>
<g class="plotroot xscalable yscalable" id="img-fba876aa-1">
  <g font-size="3.88" font-family="'PT Sans','Helvetica Neue','Helvetica',sans-serif" fill="#564A55" stroke="#000000" stroke-opacity="0.000" id="img-fba876aa-2">
    <g transform="translate(76.83,88.39)">
      <g class="primitive">
        <text text-anchor="middle" dy="0.6em">Numero Medio de Variedades por UD</text>
      </g>
    </g>
  </g>
  <g class="guide xlabels" font-size="2.82" font-family="'PT Sans Caption','Helvetica Neue','Helvetica',sans-serif" fill="#6C606B" id="img-fba876aa-3">
    <g transform="translate(20.63,81.72)">
      <g class="primitive">
        <text text-anchor="middle" dy="0.6em">0</text>
      </g>
    </g>
    <g transform="translate(48.73,81.72)">
      <g class="primitive">
        <text text-anchor="middle" dy="0.6em">5</text>
      </g>
    </g>
    <g transform="translate(76.83,81.72)">
      <g class="primitive">
        <text text-anchor="middle" dy="0.6em">10</text>
      </g>
    </g>
    <g transform="translate(104.93,81.72)">
      <g class="primitive">
        <text text-anchor="middle" dy="0.6em">15</text>
      </g>
    </g>
    <g transform="translate(133.03,81.72)">
      <g class="primitive">
        <text text-anchor="middle" dy="0.6em">20</text>
      </g>
    </g>
  </g>
  <g class="guide colorkey" id="img-fba876aa-4">
    <g fill="#4C404B" font-size="2.82" font-family="'PT Sans','Helvetica Neue','Helvetica',sans-serif" id="img-fba876aa-5">
      <g transform="translate(138.84,39.23)" id="img-fba876aa-6" class="color_1">
        <g class="primitive">
          <text dy="0.35em">1</text>
        </g>
      </g>
      <g transform="translate(138.84,42.86)" id="img-fba876aa-7" class="color_7">
        <g class="primitive">
          <text dy="0.35em">7</text>
        </g>
      </g>
      <g transform="translate(138.84,46.48)" id="img-fba876aa-8" class="color_49">
        <g class="primitive">
          <text dy="0.35em">49</text>
        </g>
      </g>
      <g transform="translate(138.84,50.11)" id="img-fba876aa-9" class="color_2401">
        <g class="primitive">
          <text dy="0.35em">2401</text>
        </g>
      </g>
    </g>
    <g stroke="#000000" stroke-opacity="0.000" id="img-fba876aa-10">
      <g transform="translate(136.93,39.23)" id="img-fba876aa-11" fill="#00BFFF" class="color_1">
        <path d="M-0.91,-0.91 L 0.91 -0.91 0.91 0.91 -0.91 0.91 z" class="primitive"/>
      </g>
      <g transform="translate(136.93,42.86)" id="img-fba876aa-12" fill="#D4CA3A" class="color_7">
        <path d="M-0.91,-0.91 L 0.91 -0.91 0.91 0.91 -0.91 0.91 z" class="primitive"/>
      </g>
      <g transform="translate(136.93,46.48)" id="img-fba876aa-13" fill="#FF6DAE" class="color_49">
        <path d="M-0.91,-0.91 L 0.91 -0.91 0.91 0.91 -0.91 0.91 z" class="primitive"/>
      </g>
      <g transform="translate(136.93,50.11)" id="img-fba876aa-14" fill="#00B78D" class="color_2401">
        <path d="M-0.91,-0.91 L 0.91 -0.91 0.91 0.91 -0.91 0.91 z" class="primitive"/>
      </g>
    </g>
    <g fill="#362A35" font-size="3.88" font-family="'PT Sans','Helvetica Neue','Helvetica',sans-serif" stroke="#000000" stroke-opacity="0.000" id="img-fba876aa-15">
      <g transform="translate(136.03,35.41)" id="img-fba876aa-16">
        <g class="primitive">
          <text>r</text>
        </g>
      </g>
    </g>
  </g>
  <g clip-path="url(#img-fba876aa-17)">
    <g id="img-fba876aa-18">
      <g pointer-events="visible" fill="#000000" fill-opacity="0.000" stroke="#000000" stroke-opacity="0.000" class="guide background" id="img-fba876aa-19">
        <g transform="translate(76.83,42.86)" id="img-fba876aa-20">
          <path d="M-58.2,-37.86 L 58.2 -37.86 58.2 37.86 -58.2 37.86 z" class="primitive"/>
        </g>
      </g>
      <g class="guide ygridlines xfixed" stroke-dasharray="0.5,0.5" stroke-width="0.2" stroke="#D0D0E0" id="img-fba876aa-21">
        <g transform="translate(76.83,78.71)" id="img-fba876aa-22">
          <path fill="none" d="M-58.2,0 L 58.2 0" class="primitive"/>
        </g>
        <g transform="translate(76.83,42.86)" id="img-fba876aa-23">
          <path fill="none" d="M-58.2,0 L 58.2 0" class="primitive"/>
        </g>
        <g transform="translate(76.83,7)" id="img-fba876aa-24">
          <path fill="none" d="M-58.2,0 L 58.2 0" class="primitive"/>
        </g>
      </g>
      <g class="guide xgridlines yfixed" stroke-dasharray="0.5,0.5" stroke-width="0.2" stroke="#D0D0E0" id="img-fba876aa-25">
        <g transform="translate(20.63,42.86)" id="img-fba876aa-26">
          <path fill="none" d="M0,-37.86 L 0 37.86" class="primitive"/>
        </g>
        <g transform="translate(48.73,42.86)" id="img-fba876aa-27">
          <path fill="none" d="M0,-37.86 L 0 37.86" class="primitive"/>
        </g>
        <g transform="translate(76.83,42.86)" id="img-fba876aa-28">
          <path fill="none" d="M0,-37.86 L 0 37.86" class="primitive"/>
        </g>
        <g transform="translate(104.93,42.86)" id="img-fba876aa-29">
          <path fill="none" d="M0,-37.86 L 0 37.86" class="primitive"/>
        </g>
        <g transform="translate(133.03,42.86)" id="img-fba876aa-30">
          <path fill="none" d="M0,-37.86 L 0 37.86" class="primitive"/>
        </g>
      </g>
      <g class="plotpanel" id="img-fba876aa-31">
        <metadata>
          <boundingbox value="18.631666666666675mm 5.0mm 116.395mm 75.715mm"/>
          <unitbox value="-0.35588771742515235 1.0278881684445373 20.711775434850303 -1.055776336889075"/>
        </metadata>
        <g stroke-width="0.3" fill="#000000" fill-opacity="0.000" class="geometry" id="img-fba876aa-32">
          <g transform="translate(161.13,77.25)" id="img-fba876aa-33" stroke="#00BFFF" stroke-dasharray="none" class="color_1">
            <path fill="none" d="M-134.87,-13.5 L -129.25 -11.1 -123.63 -8.15 -118.01 -7.55 -112.4 -6.38 -106.78 -4.96 -101.16 -3.42 -95.54 -1.46 -89.92 -0.34 -84.3 0.53 -78.68 0.97 -73.06 1.31 -67.44 1.4 -61.82 1.43 -56.2 1.46 -50.58 1.46 -44.96 1.46 -39.34 1.46 -33.72 1.46 -28.1 1.46 -22.48 1.46 -16.86 1.46 -11.24 1.46 -5.62 1.46 0 1.46 5.62 1.46 11.24 1.46 16.86 1.46 22.48 1.46 28.1 1.46 33.72 1.46 39.34 1.46 44.96 1.46 50.58 1.46 56.2 1.46 61.82 1.46 67.44 1.46 73.06 1.46 78.68 1.46 84.3 1.46 89.92 1.46 95.54 1.46 101.16 1.46 106.78 1.46 112.4 1.46 118.01 1.46 123.63 1.46 129.25 1.46 134.87 1.46" class="primitive"/>
          </g>
          <g transform="translate(161.13,77.25)" id="img-fba876aa-34" stroke="#D4CA3A" stroke-dasharray="none" class="color_7">
            <path fill="none" d="M-134.87,-16.85 L -129.25 -16.15 -123.63 -8.4 -118.01 -7.02 -112.4 -4.93 -106.78 -3.05 -101.16 -1.55 -95.54 -0.38 -89.92 0.47 -84.3 1.09 -78.68 1.26 -73.06 1.38 -67.44 1.44 -61.82 1.46 -56.2 1.46 -50.58 1.46 -44.96 1.46 -39.34 1.46 -33.72 1.46 -28.1 1.46 -22.48 1.46 -16.86 1.46 -11.24 1.46 -5.62 1.46 0 1.46 5.62 1.46 11.24 1.46 16.86 1.46 22.48 1.46 28.1 1.46 33.72 1.46 39.34 1.46 44.96 1.46 50.58 1.46 56.2 1.46 61.82 1.46 67.44 1.46 73.06 1.46 78.68 1.46 84.3 1.46 89.92 1.46 95.54 1.46 101.16 1.46 106.78 1.46 112.4 1.46 118.01 1.46 123.63 1.46 129.25 1.46 134.87 1.46" class="primitive"/>
          </g>
          <g transform="translate(161.13,77.25)" id="img-fba876aa-35" stroke="#FF6DAE" stroke-dasharray="none" class="color_49">
            <path fill="none" d="M-134.87,-1 L -129.25 -2.75 -123.63 -3.8 -118.01 -5.11 -112.4 -6 -106.78 -6.9 -101.16 -6.71 -95.54 -6.03 -89.92 -4.96 -84.3 -3.7 -78.68 -2.25 -73.06 -1.3 -67.44 -0.24 -61.82 0.5 -56.2 0.95 -50.58 1.2 -44.96 1.35 -39.34 1.4 -33.72 1.45 -28.1 1.45 -22.48 1.46 -16.86 1.46 -11.24 1.46 -5.62 1.46 0 1.46 5.62 1.46 11.24 1.46 16.86 1.46 22.48 1.46 28.1 1.46 33.72 1.46 39.34 1.46 44.96 1.46 50.58 1.46 56.2 1.46 61.82 1.46 67.44 1.46 73.06 1.46 78.68 1.46 84.3 1.46 89.92 1.46 95.54 1.46 101.16 1.46 106.78 1.46 112.4 1.46 118.01 1.46 123.63 1.46 129.25 1.46 134.87 1.46" class="primitive"/>
          </g>
          <g transform="translate(161.13,77.25)" id="img-fba876aa-36" stroke="#00B78D" stroke-dasharray="none" class="color_2401">
            <path fill="none" d="M-134.87,0.95 L -129.25 -0.43 -123.63 -2.53 -118.01 -4.94 -112.4 -6.9 -106.78 -7.89 -101.16 -7.78 -95.54 -7.09 -89.92 -5.8 -84.3 -4.32 -78.68 -2.67 -73.06 -1.29 -67.44 -0.24 -61.82 0.54 -56.2 0.97 -50.58 1.27 -44.96 1.36 -39.34 1.43 -33.72 1.45 -28.1 1.46 -22.48 1.46 -16.86 1.46 -11.24 1.46 -5.62 1.46 0 1.46 5.62 1.46 11.24 1.46 16.86 1.46 22.48 1.46 28.1 1.46 33.72 1.46 39.34 1.46 44.96 1.46 50.58 1.46 56.2 1.46 61.82 1.46 67.44 1.46 73.06 1.46 78.68 1.46 84.3 1.46 89.92 1.46 95.54 1.46 101.16 1.46 106.78 1.46 112.4 1.46 118.01 1.46 123.63 1.46 129.25 1.46 134.87 1.46" class="primitive"/>
          </g>
        </g>
      </g>
    </g>
  </g>
  <g class="guide ylabels" font-size="2.82" font-family="'PT Sans Caption','Helvetica Neue','Helvetica',sans-serif" fill="#6C606B" id="img-fba876aa-37">
    <g transform="translate(17.63,78.71)" id="img-fba876aa-38">
      <g class="primitive">
        <text text-anchor="end" dy="0.35em">0.0</text>
      </g>
    </g>
    <g transform="translate(17.63,42.86)" id="img-fba876aa-39">
      <g class="primitive">
        <text text-anchor="end" dy="0.35em">0.5</text>
      </g>
    </g>
    <g transform="translate(17.63,7)" id="img-fba876aa-40">
      <g class="primitive">
        <text text-anchor="end" dy="0.35em">1.0</text>
      </g>
    </g>
  </g>
  <g font-size="3.88" font-family="'PT Sans','Helvetica Neue','Helvetica',sans-serif" fill="#564A55" stroke="#000000" stroke-opacity="0.000" id="img-fba876aa-41">
    <g transform="translate(8.81,40.86)" id="img-fba876aa-42">
      <g class="primitive">
        <text text-anchor="middle" dy="0.35em" transform="rotate(-90,0, 2)">Frequencia</text>
      </g>
    </g>
  </g>
</g>
<defs>
  <clipPath id="img-fba876aa-17">
    <path d="M18.63,5 L 135.03 5 135.03 80.72 18.63 80.72" />
  </clipPath>
</defs>
</svg>
