<?xml version="1.0" encoding="UTF-8"?>
<svg xmlns="http://www.w3.org/2000/svg"
     xmlns:xlink="http://www.w3.org/1999/xlink"
     xmlns:gadfly="http://www.gadflyjl.org/ns"
     version="1.2"
     width="150mm" height="100mm" viewBox="0 0 150 100"
     stroke="none"
     fill="#000000"
     stroke-width="0.3"
     font-size="3.88"
>
<defs>
  <marker id="arrow" markerWidth="15" markerHeight="7" refX="5" refY="3.5" orient="auto" markerUnits="strokeWidth">
    <path d="M0,0 L15,3.5 L0,7 z" stroke="context-stroke" fill="context-stroke"/>
  </marker>
</defs>
<g class="plotroot xscalable yscalable" id="img-5249658c-1">
  <g font-size="3.88" font-family="'PT Sans','Helvetica Neue','Helvetica',sans-serif" fill="#564A55" stroke="#000000" stroke-opacity="0.000" id="img-5249658c-2">
    <g transform="translate(76.96,88.39)">
      <g class="primitive">
        <text text-anchor="middle" dy="0.6em">Time</text>
      </g>
    </g>
  </g>
  <g class="guide xlabels" font-size="2.82" font-family="'PT Sans Caption','Helvetica Neue','Helvetica',sans-serif" fill="#6C606B" id="img-5249658c-3">
    <g transform="translate(19.96,81.72)">
      <g class="primitive">
        <text text-anchor="middle" dy="0.6em">0</text>
      </g>
    </g>
    <g transform="translate(76.96,81.72)">
      <g class="primitive">
        <text text-anchor="middle" dy="0.6em">500</text>
      </g>
    </g>
    <g transform="translate(133.96,81.72)">
      <g class="primitive">
        <text text-anchor="middle" dy="0.6em">1000</text>
      </g>
    </g>
  </g>
  <g class="guide colorkey" id="img-5249658c-4">
    <g fill="#4C404B" font-size="2.82" font-family="'PT Sans','Helvetica Neue','Helvetica',sans-serif" id="img-5249658c-5">
      <g transform="translate(139.77,37.42)" id="img-5249658c-6" class="color_0.0">
        <g class="primitive">
          <text dy="0.35em">0.0</text>
        </g>
      </g>
      <g transform="translate(139.77,41.04)" id="img-5249658c-7" class="color_0.25">
        <g class="primitive">
          <text dy="0.35em">0.25</text>
        </g>
      </g>
      <g transform="translate(139.77,44.67)" id="img-5249658c-8" class="color_0.5">
        <g class="primitive">
          <text dy="0.35em">0.5</text>
        </g>
      </g>
      <g transform="translate(139.77,48.3)" id="img-5249658c-9" class="color_0.75">
        <g class="primitive">
          <text dy="0.35em">0.75</text>
        </g>
      </g>
      <g transform="translate(139.77,51.92)" id="img-5249658c-10" class="color_1.0">
        <g class="primitive">
          <text dy="0.35em">1.0</text>
        </g>
      </g>
    </g>
    <g stroke="#000000" stroke-opacity="0.000" id="img-5249658c-11">
      <g transform="translate(137.87,37.42)" id="img-5249658c-12" fill="#00BFFF" class="color_0.0">
        <path d="M-0.91,-0.91 L 0.91 -0.91 0.91 0.91 -0.91 0.91 z" class="primitive"/>
      </g>
      <g transform="translate(137.87,41.04)" id="img-5249658c-13" fill="#D4CA3A" class="color_0.25">
        <path d="M-0.91,-0.91 L 0.91 -0.91 0.91 0.91 -0.91 0.91 z" class="primitive"/>
      </g>
      <g transform="translate(137.87,44.67)" id="img-5249658c-14" fill="#FF6DAE" class="color_0.5">
        <path d="M-0.91,-0.91 L 0.91 -0.91 0.91 0.91 -0.91 0.91 z" class="primitive"/>
      </g>
      <g transform="translate(137.87,48.3)" id="img-5249658c-15" fill="#00B78D" class="color_0.75">
        <path d="M-0.91,-0.91 L 0.91 -0.91 0.91 0.91 -0.91 0.91 z" class="primitive"/>
      </g>
      <g transform="translate(137.87,51.92)" id="img-5249658c-16" fill="#BEA9FF" class="color_1.0">
        <path d="M-0.91,-0.91 L 0.91 -0.91 0.91 0.91 -0.91 0.91 z" class="primitive"/>
      </g>
    </g>
    <g fill="#362A35" font-size="3.88" font-family="'PT Sans','Helvetica Neue','Helvetica',sans-serif" stroke="#000000" stroke-opacity="0.000" id="img-5249658c-17">
      <g transform="translate(136.96,33.6)" id="img-5249658c-18">
        <g class="primitive">
          <text>a</text>
        </g>
      </g>
    </g>
  </g>
  <g clip-path="url(#img-5249658c-19)">
    <g id="img-5249658c-20">
      <g pointer-events="visible" fill="#000000" fill-opacity="0.000" stroke="#000000" stroke-opacity="0.000" class="guide background" id="img-5249658c-21">
        <g transform="translate(76.96,42.86)" id="img-5249658c-22">
          <path d="M-59,-37.86 L 59 -37.86 59 37.86 -59 37.86 z" class="primitive"/>
        </g>
      </g>
      <g class="guide ygridlines xfixed" stroke-dasharray="0.5,0.5" stroke-width="0.2" stroke="#D0D0E0" id="img-5249658c-23">
        <g transform="translate(76.96,78.72)" id="img-5249658c-24">
          <path fill="none" d="M-59,0 L 59 0" class="primitive"/>
        </g>
        <g transform="translate(76.96,60.79)" id="img-5249658c-25">
          <path fill="none" d="M-59,0 L 59 0" class="primitive"/>
        </g>
        <g transform="translate(76.96,42.86)" id="img-5249658c-26">
          <path fill="none" d="M-59,0 L 59 0" class="primitive"/>
        </g>
        <g transform="translate(76.96,24.93)" id="img-5249658c-27">
          <path fill="none" d="M-59,0 L 59 0" class="primitive"/>
        </g>
        <g transform="translate(76.96,7)" id="img-5249658c-28">
          <path fill="none" d="M-59,0 L 59 0" class="primitive"/>
        </g>
      </g>
      <g class="guide xgridlines yfixed" stroke-dasharray="0.5,0.5" stroke-width="0.2" stroke="#D0D0E0" id="img-5249658c-29">
        <g transform="translate(19.96,42.86)" id="img-5249658c-30">
          <path fill="none" d="M0,-37.86 L 0 37.86" class="primitive"/>
        </g>
        <g transform="translate(76.96,42.86)" id="img-5249658c-31">
          <path fill="none" d="M0,-37.86 L 0 37.86" class="primitive"/>
        </g>
        <g transform="translate(133.96,42.86)" id="img-5249658c-32">
          <path fill="none" d="M0,-37.86 L 0 37.86" class="primitive"/>
        </g>
      </g>
      <g class="plotpanel" id="img-5249658c-33">
        <metadata>
          <boundingbox value="17.958333333333343mm 5.0mm 118.00166666666667mm 75.715mm"/>
          <unitbox value="-17.54360316369644 41.115526737781494 1035.0872063273928 -42.231053475562994"/>
        </metadata>
        <g stroke-width="0.3" fill="#000000" fill-opacity="0.000" class="geometry" id="img-5249658c-34">
          <g transform="translate(76.39,72.11)" id="img-5249658c-35" stroke="#00BFFF" stroke-dasharray="none" class="color_0.0">
            <path fill="none" d="M-56.43,-49.63 L -55.29 -33.39 -54.15 -18.88 -53.01 -7.92 -51.87 -2.12 -50.73 0.21 -49.59 0.76 -48.45 0.98 -47.31 1.08 -46.17 1.12 -45.03 1.13 -43.89 1.14 -42.75 1.15 -41.61 1.15 -40.47 1.15 -39.33 1.15 -38.19 1.15 -37.05 1.16 -35.91 1.16 -34.77 1.16 -33.63 1.16 -32.49 1.16 -31.35 1.16 -30.21 1.16 -29.07 1.16 -27.93 1.16 -26.79 1.16 -25.65 1.17 -24.51 1.17 -23.37 1.17 -22.23 1.17 -21.09 1.17 -19.95 1.17 -18.81 1.17 -17.67 1.18 -16.53 1.18 -15.39 1.18 -14.25 1.18 -13.11 1.18 -11.97 1.18 -10.83 1.18 -9.69 1.18 -8.55 1.18 -7.41 1.19 -6.27 1.19 -5.13 1.19 -3.99 1.19 -2.85 1.19 -1.71 1.19 -0.57 1.19 0.57 1.19 1.71 1.19 2.85 1.19 3.99 1.2 5.13 1.2 6.27 1.2 7.41 1.2 8.55 1.2 9.69 1.2 10.83 1.2 11.97 1.2 13.11 1.2 14.25 1.21 15.39 1.21 16.53 1.21 17.67 1.21 18.81 1.21 19.95 1.21 21.09 1.21 22.23 1.21 23.37 1.21 24.51 1.21 25.65 1.22 26.79 1.22 27.93 1.22 29.07 1.22 30.21 1.22 31.35 1.22 32.49 1.23 33.63 1.23 34.77 1.23 35.91 1.23 37.05 1.23 38.19 1.23 39.33 1.23 40.47 1.23 41.61 1.24 42.75 1.24 43.89 1.24 45.03 1.24 46.17 1.24 47.31 1.24 48.45 1.24 49.59 1.24 50.73 1.25 51.87 1.25 53.01 1.25 54.15 1.25 55.29 1.25 56.43 1.25" class="primitive"/>
          </g>
          <g transform="translate(76.39,71.12)" id="img-5249658c-36" stroke="#D4CA3A" stroke-dasharray="none" class="color_0.25">
            <path fill="none" d="M-56.43,-48.66 L -55.29 -33.06 -54.15 -19.14 -53.01 -7.81 -51.87 -1.83 -50.73 0.2 -49.59 0.76 -48.45 0.97 -47.31 1.06 -46.17 1.09 -45.03 1.11 -43.89 1.12 -42.75 1.12 -41.61 1.13 -40.47 1.13 -39.33 1.13 -38.19 1.13 -37.05 1.13 -35.91 1.13 -34.77 1.14 -33.63 1.14 -32.49 1.14 -31.35 1.14 -30.21 1.14 -29.07 1.14 -27.93 1.14 -26.79 1.15 -25.65 1.15 -24.51 1.15 -23.37 1.15 -22.23 1.15 -21.09 1.15 -19.95 1.16 -18.81 1.16 -17.67 1.16 -16.53 1.16 -15.39 1.16 -14.25 1.16 -13.11 1.16 -11.97 1.16 -10.83 1.16 -9.69 1.17 -8.55 1.17 -7.41 1.17 -6.27 1.17 -5.13 1.17 -3.99 1.17 -2.85 1.17 -1.71 1.17 -0.57 1.17 0.57 1.18 1.71 1.18 2.85 1.18 3.99 1.18 5.13 1.18 6.27 1.18 7.41 1.18 8.55 1.19 9.69 1.19 10.83 1.19 11.97 1.19 13.11 1.19 14.25 1.19 15.39 1.19 16.53 1.19 17.67 1.2 18.81 1.2 19.95 1.2 21.09 1.2 22.23 1.2 23.37 1.2 24.51 1.21 25.65 1.21 26.79 1.21 27.93 1.21 29.07 1.21 30.21 1.21 31.35 1.21 32.49 1.21 33.63 1.21 34.77 1.22 35.91 1.22 37.05 1.22 38.19 1.22 39.33 1.22 40.47 1.22 41.61 1.22 42.75 1.23 43.89 1.23 45.03 1.23 46.17 1.23 47.31 1.23 48.45 1.23 49.59 1.24 50.73 1.24 51.87 1.24 53.01 1.24 54.15 1.24 55.29 1.24 56.43 1.24" class="primitive"/>
          </g>
          <g transform="translate(76.39,70.82)" id="img-5249658c-37" stroke="#FF6DAE" stroke-dasharray="none" class="color_0.5">
            <path fill="none" d="M-56.43,-48.37 L -55.29 -33.87 -54.15 -20.65 -53.01 -8.78 -51.87 -1.71 -50.73 0.33 -49.59 0.83 -48.45 1.01 -47.31 1.08 -46.17 1.12 -45.03 1.13 -43.89 1.15 -42.75 1.16 -41.61 1.16 -40.47 1.17 -39.33 1.17 -38.19 1.17 -37.05 1.17 -35.91 1.17 -34.77 1.17 -33.63 1.17 -32.49 1.18 -31.35 1.18 -30.21 1.18 -29.07 1.18 -27.93 1.18 -26.79 1.18 -25.65 1.18 -24.51 1.19 -23.37 1.19 -22.23 1.19 -21.09 1.19 -19.95 1.19 -18.81 1.19 -17.67 1.19 -16.53 1.19 -15.39 1.2 -14.25 1.2 -13.11 1.2 -11.97 1.2 -10.83 1.2 -9.69 1.2 -8.55 1.2 -7.41 1.2 -6.27 1.21 -5.13 1.21 -3.99 1.21 -2.85 1.21 -1.71 1.21 -0.57 1.21 0.57 1.21 1.71 1.21 2.85 1.21 3.99 1.21 5.13 1.22 6.27 1.22 7.41 1.22 8.55 1.22 9.69 1.22 10.83 1.22 11.97 1.22 13.11 1.22 14.25 1.22 15.39 1.22 16.53 1.22 17.67 1.22 18.81 1.23 19.95 1.23 21.09 1.23 22.23 1.23 23.37 1.23 24.51 1.23 25.65 1.23 26.79 1.23 27.93 1.23 29.07 1.23 30.21 1.23 31.35 1.23 32.49 1.23 33.63 1.24 34.77 1.24 35.91 1.24 37.05 1.24 38.19 1.24 39.33 1.24 40.47 1.24 41.61 1.24 42.75 1.24 43.89 1.24 45.03 1.24 46.17 1.24 47.31 1.24 48.45 1.25 49.59 1.25 50.73 1.25 51.87 1.25 53.01 1.25 54.15 1.25 55.29 1.25 56.43 1.25" class="primitive"/>
          </g>
          <g transform="translate(76.39,69.82)" id="img-5249658c-38" stroke="#00B78D" stroke-dasharray="none" class="color_0.75">
            <path fill="none" d="M-56.43,-47.33 L -55.29 -34.53 -54.15 -22.25 -53.01 -10.7 -51.87 -2.08 -50.73 0.6 -49.59 0.97 -48.45 1.05 -47.31 1.1 -46.17 1.14 -45.03 1.16 -43.89 1.16 -42.75 1.17 -41.61 1.17 -40.47 1.18 -39.33 1.18 -38.19 1.18 -37.05 1.18 -35.91 1.18 -34.77 1.19 -33.63 1.2 -32.49 1.2 -31.35 1.21 -30.21 1.21 -29.07 1.21 -27.93 1.21 -26.79 1.21 -25.65 1.21 -24.51 1.22 -23.37 1.22 -22.23 1.22 -21.09 1.22 -19.95 1.22 -18.81 1.22 -17.67 1.22 -16.53 1.22 -15.39 1.22 -14.25 1.22 -13.11 1.22 -11.97 1.22 -10.83 1.23 -9.69 1.23 -8.55 1.23 -7.41 1.23 -6.27 1.23 -5.13 1.23 -3.99 1.23 -2.85 1.23 -1.71 1.23 -0.57 1.23 0.57 1.24 1.71 1.24 2.85 1.24 3.99 1.24 5.13 1.25 6.27 1.25 7.41 1.25 8.55 1.25 9.69 1.25 10.83 1.25 11.97 1.25 13.11 1.26 14.25 1.26 15.39 1.26 16.53 1.26 17.67 1.26 18.81 1.26 19.95 1.26 21.09 1.26 22.23 1.26 23.37 1.26 24.51 1.27 25.65 1.27 26.79 1.27 27.93 1.27 29.07 1.27 30.21 1.27 31.35 1.27 32.49 1.28 33.63 1.28 34.77 1.29 35.91 1.29 37.05 1.29 38.19 1.29 39.33 1.29 40.47 1.29 41.61 1.29 42.75 1.29 43.89 1.29 45.03 1.29 46.17 1.3 47.31 1.3 48.45 1.3 49.59 1.3 50.73 1.3 51.87 1.3 53.01 1.3 54.15 1.3 55.29 1.3 56.43 1.3" class="primitive"/>
          </g>
          <g transform="translate(76.39,64.99)" id="img-5249658c-39" stroke="#BEA9FF" stroke-dasharray="none" class="color_1.0">
            <path fill="none" d="M-56.43,-42.48 L -55.29 -31.69 -54.15 -21.15 -53.01 -10.79 -51.87 -1.42 -50.73 0.52 -49.59 0.65 -48.45 0.71 -47.31 0.77 -46.17 0.81 -45.03 0.83 -43.89 0.84 -42.75 0.85 -41.61 0.86 -40.47 0.86 -39.33 0.87 -38.19 0.87 -37.05 0.88 -35.91 0.88 -34.77 0.89 -33.63 0.9 -32.49 0.91 -31.35 0.91 -30.21 0.91 -29.07 0.91 -27.93 0.91 -26.79 0.92 -25.65 0.92 -24.51 0.92 -23.37 0.93 -22.23 0.93 -21.09 0.93 -19.95 0.94 -18.81 0.95 -17.67 0.96 -16.53 0.97 -15.39 0.98 -14.25 0.99 -13.11 1 -11.97 1.01 -10.83 1.02 -9.69 1.04 -8.55 1.05 -7.41 1.06 -6.27 1.06 -5.13 1.07 -3.99 1.07 -2.85 1.09 -1.71 1.1 -0.57 1.11 0.57 1.11 1.71 1.12 2.85 1.12 3.99 1.12 5.13 1.12 6.27 1.13 7.41 1.14 8.55 1.15 9.69 1.16 10.83 1.17 11.97 1.17 13.11 1.18 14.25 1.18 15.39 1.19 16.53 1.2 17.67 1.21 18.81 1.23 19.95 1.26 21.09 1.28 22.23 1.29 23.37 1.3 24.51 1.31 25.65 1.32 26.79 1.33 27.93 1.33 29.07 1.33 30.21 1.34 31.35 1.34 32.49 1.35 33.63 1.36 34.77 1.36 35.91 1.37 37.05 1.38 38.19 1.39 39.33 1.4 40.47 1.41 41.61 1.42 42.75 1.44 43.89 1.46 45.03 1.48 46.17 1.48 47.31 1.49 48.45 1.49 49.59 1.49 50.73 1.49 51.87 1.5 53.01 1.5 54.15 1.51 55.29 1.51 56.43 1.51" class="primitive"/>
          </g>
        </g>
      </g>
    </g>
  </g>
  <g class="guide ylabels" font-size="2.82" font-family="'PT Sans Caption','Helvetica Neue','Helvetica',sans-serif" fill="#6C606B" id="img-5249658c-40">
    <g transform="translate(16.96,78.72)" id="img-5249658c-41">
      <g class="primitive">
        <text text-anchor="end" dy="0.35em">0</text>
      </g>
    </g>
    <g transform="translate(16.96,60.79)" id="img-5249658c-42">
      <g class="primitive">
        <text text-anchor="end" dy="0.35em">10</text>
      </g>
    </g>
    <g transform="translate(16.96,42.86)" id="img-5249658c-43">
      <g class="primitive">
        <text text-anchor="end" dy="0.35em">20</text>
      </g>
    </g>
    <g transform="translate(16.96,24.93)" id="img-5249658c-44">
      <g class="primitive">
        <text text-anchor="end" dy="0.35em">30</text>
      </g>
    </g>
    <g transform="translate(16.96,7)" id="img-5249658c-45">
      <g class="primitive">
        <text text-anchor="end" dy="0.35em">40</text>
      </g>
    </g>
  </g>
  <g font-size="3.88" font-family="'PT Sans','Helvetica Neue','Helvetica',sans-serif" fill="#564A55" stroke="#000000" stroke-opacity="0.000" id="img-5249658c-46">
    <g transform="translate(8.81,40.86)" id="img-5249658c-47">
      <g class="primitive">
        <text text-anchor="middle" dy="0.35em" transform="rotate(-90,0, 2)">Numero Medio de Variedades por UD</text>
      </g>
    </g>
  </g>
</g>
<defs>
  <clipPath id="img-5249658c-19">
    <path d="M17.96,5 L 135.96 5 135.96 80.72 17.96 80.72" />
  </clipPath>
</defs>
</svg>
