<?xml version="1.0" encoding="UTF-8"?>
<svg xmlns="http://www.w3.org/2000/svg"
     xmlns:xlink="http://www.w3.org/1999/xlink"
     xmlns:gadfly="http://www.gadflyjl.org/ns"
     version="1.2"
     width="150mm" height="100mm" viewBox="0 0 150 100"
     stroke="none"
     fill="#000000"
     stroke-width="0.3"
     font-size="3.88"
>
<defs>
  <marker id="arrow" markerWidth="15" markerHeight="7" refX="5" refY="3.5" orient="auto" markerUnits="strokeWidth">
    <path d="M0,0 L15,3.5 L0,7 z" stroke="context-stroke" fill="context-stroke"/>
  </marker>
</defs>
<g class="plotroot xscalable yscalable" id="img-ae3cd77a-1">
  <g font-size="3.88" font-family="'PT Sans','Helvetica Neue','Helvetica',sans-serif" fill="#564A55" stroke="#000000" stroke-opacity="0.000" id="img-ae3cd77a-2">
    <g transform="translate(76.96,88.39)">
      <g class="primitive">
        <text text-anchor="middle" dy="0.6em">Time</text>
      </g>
    </g>
  </g>
  <g class="guide xlabels" font-size="2.82" font-family="'PT Sans Caption','Helvetica Neue','Helvetica',sans-serif" fill="#6C606B" id="img-ae3cd77a-3">
    <g transform="translate(19.96,81.72)">
      <g class="primitive">
        <text text-anchor="middle" dy="0.6em">0</text>
      </g>
    </g>
    <g transform="translate(76.96,81.72)">
      <g class="primitive">
        <text text-anchor="middle" dy="0.6em">500</text>
      </g>
    </g>
    <g transform="translate(133.96,81.72)">
      <g class="primitive">
        <text text-anchor="middle" dy="0.6em">1000</text>
      </g>
    </g>
  </g>
  <g class="guide colorkey" id="img-ae3cd77a-4">
    <g fill="#4C404B" font-size="2.82" font-family="'PT Sans','Helvetica Neue','Helvetica',sans-serif" id="img-ae3cd77a-5">
      <g transform="translate(139.77,37.42)" id="img-ae3cd77a-6" class="color_0.0">
        <g class="primitive">
          <text dy="0.35em">0.0</text>
        </g>
      </g>
      <g transform="translate(139.77,41.04)" id="img-ae3cd77a-7" class="color_0.25">
        <g class="primitive">
          <text dy="0.35em">0.25</text>
        </g>
      </g>
      <g transform="translate(139.77,44.67)" id="img-ae3cd77a-8" class="color_0.5">
        <g class="primitive">
          <text dy="0.35em">0.5</text>
        </g>
      </g>
      <g transform="translate(139.77,48.3)" id="img-ae3cd77a-9" class="color_0.75">
        <g class="primitive">
          <text dy="0.35em">0.75</text>
        </g>
      </g>
      <g transform="translate(139.77,51.92)" id="img-ae3cd77a-10" class="color_1.0">
        <g class="primitive">
          <text dy="0.35em">1.0</text>
        </g>
      </g>
    </g>
    <g stroke="#000000" stroke-opacity="0.000" id="img-ae3cd77a-11">
      <g transform="translate(137.87,37.42)" id="img-ae3cd77a-12" fill="#00BFFF" class="color_0.0">
        <path d="M-0.91,-0.91 L 0.91 -0.91 0.91 0.91 -0.91 0.91 z" class="primitive"/>
      </g>
      <g transform="translate(137.87,41.04)" id="img-ae3cd77a-13" fill="#D4CA3A" class="color_0.25">
        <path d="M-0.91,-0.91 L 0.91 -0.91 0.91 0.91 -0.91 0.91 z" class="primitive"/>
      </g>
      <g transform="translate(137.87,44.67)" id="img-ae3cd77a-14" fill="#FF6DAE" class="color_0.5">
        <path d="M-0.91,-0.91 L 0.91 -0.91 0.91 0.91 -0.91 0.91 z" class="primitive"/>
      </g>
      <g transform="translate(137.87,48.3)" id="img-ae3cd77a-15" fill="#00B78D" class="color_0.75">
        <path d="M-0.91,-0.91 L 0.91 -0.91 0.91 0.91 -0.91 0.91 z" class="primitive"/>
      </g>
      <g transform="translate(137.87,51.92)" id="img-ae3cd77a-16" fill="#BEA9FF" class="color_1.0">
        <path d="M-0.91,-0.91 L 0.91 -0.91 0.91 0.91 -0.91 0.91 z" class="primitive"/>
      </g>
    </g>
    <g fill="#362A35" font-size="3.88" font-family="'PT Sans','Helvetica Neue','Helvetica',sans-serif" stroke="#000000" stroke-opacity="0.000" id="img-ae3cd77a-17">
      <g transform="translate(136.96,33.6)" id="img-ae3cd77a-18">
        <g class="primitive">
          <text>b</text>
        </g>
      </g>
    </g>
  </g>
  <g clip-path="url(#img-ae3cd77a-19)">
    <g id="img-ae3cd77a-20">
      <g pointer-events="visible" fill="#000000" fill-opacity="0.000" stroke="#000000" stroke-opacity="0.000" class="guide background" id="img-ae3cd77a-21">
        <g transform="translate(76.96,42.86)" id="img-ae3cd77a-22">
          <path d="M-59,-37.86 L 59 -37.86 59 37.86 -59 37.86 z" class="primitive"/>
        </g>
      </g>
      <g class="guide ygridlines xfixed" stroke-dasharray="0.5,0.5" stroke-width="0.2" stroke="#D0D0E0" id="img-ae3cd77a-23">
        <g transform="translate(76.96,78.72)" id="img-ae3cd77a-24">
          <path fill="none" d="M-59,0 L 59 0" class="primitive"/>
        </g>
        <g transform="translate(76.96,60.79)" id="img-ae3cd77a-25">
          <path fill="none" d="M-59,0 L 59 0" class="primitive"/>
        </g>
        <g transform="translate(76.96,42.86)" id="img-ae3cd77a-26">
          <path fill="none" d="M-59,0 L 59 0" class="primitive"/>
        </g>
        <g transform="translate(76.96,24.93)" id="img-ae3cd77a-27">
          <path fill="none" d="M-59,0 L 59 0" class="primitive"/>
        </g>
        <g transform="translate(76.96,7)" id="img-ae3cd77a-28">
          <path fill="none" d="M-59,0 L 59 0" class="primitive"/>
        </g>
      </g>
      <g class="guide xgridlines yfixed" stroke-dasharray="0.5,0.5" stroke-width="0.2" stroke="#D0D0E0" id="img-ae3cd77a-29">
        <g transform="translate(19.96,42.86)" id="img-ae3cd77a-30">
          <path fill="none" d="M0,-37.86 L 0 37.86" class="primitive"/>
        </g>
        <g transform="translate(76.96,42.86)" id="img-ae3cd77a-31">
          <path fill="none" d="M0,-37.86 L 0 37.86" class="primitive"/>
        </g>
        <g transform="translate(133.96,42.86)" id="img-ae3cd77a-32">
          <path fill="none" d="M0,-37.86 L 0 37.86" class="primitive"/>
        </g>
      </g>
      <g class="plotpanel" id="img-ae3cd77a-33">
        <metadata>
          <boundingbox value="17.958333333333343mm 5.0mm 118.00166666666667mm 75.715mm"/>
          <unitbox value="-17.54360316369644 41.115526737781494 1035.0872063273928 -42.231053475562994"/>
        </metadata>
        <g stroke-width="0.3" fill="#000000" fill-opacity="0.000" class="geometry" id="img-ae3cd77a-34">
          <g transform="translate(76.39,70.75)" id="img-ae3cd77a-35" stroke-dasharray="none" stroke="#00BFFF" class="color_0.0">
            <path fill="none" d="M-56.43,-48.24 L -55.29 -33.76 -54.15 -20.6 -53.01 -8.84 -51.87 -1.77 -50.73 0.33 -49.59 0.84 -48.45 1.01 -47.31 1.09 -46.17 1.12 -45.03 1.14 -43.89 1.14 -42.75 1.15 -41.61 1.16 -40.47 1.16 -39.33 1.16 -38.19 1.17 -37.05 1.17 -35.91 1.17 -34.77 1.17 -33.63 1.17 -32.49 1.17 -31.35 1.17 -30.21 1.18 -29.07 1.18 -27.93 1.18 -26.79 1.18 -25.65 1.18 -24.51 1.18 -23.37 1.18 -22.23 1.18 -21.09 1.18 -19.95 1.18 -18.81 1.19 -17.67 1.19 -16.53 1.19 -15.39 1.19 -14.25 1.19 -13.11 1.19 -11.97 1.19 -10.83 1.19 -9.69 1.19 -8.55 1.19 -7.41 1.19 -6.27 1.19 -5.13 1.19 -3.99 1.19 -2.85 1.2 -1.71 1.2 -0.57 1.2 0.57 1.2 1.71 1.2 2.85 1.2 3.99 1.2 5.13 1.21 6.27 1.21 7.41 1.21 8.55 1.21 9.69 1.21 10.83 1.21 11.97 1.21 13.11 1.21 14.25 1.21 15.39 1.21 16.53 1.22 17.67 1.22 18.81 1.22 19.95 1.22 21.09 1.22 22.23 1.22 23.37 1.22 24.51 1.22 25.65 1.22 26.79 1.23 27.93 1.23 29.07 1.23 30.21 1.24 31.35 1.24 32.49 1.24 33.63 1.24 34.77 1.25 35.91 1.25 37.05 1.25 38.19 1.25 39.33 1.25 40.47 1.25 41.61 1.25 42.75 1.25 43.89 1.26 45.03 1.26 46.17 1.26 47.31 1.26 48.45 1.26 49.59 1.26 50.73 1.26 51.87 1.26 53.01 1.26 54.15 1.26 55.29 1.26 56.43 1.27" class="primitive"/>
          </g>
          <g transform="translate(76.39,70.75)" id="img-ae3cd77a-36" stroke-dasharray="none" stroke="#D4CA3A" class="color_0.25">
            <path fill="none" d="M-56.43,-48.27 L -55.29 -33.78 -54.15 -20.57 -53.01 -8.75 -51.87 -1.68 -50.73 0.37 -49.59 0.86 -48.45 1.02 -47.31 1.09 -46.17 1.12 -45.03 1.14 -43.89 1.15 -42.75 1.16 -41.61 1.16 -40.47 1.16 -39.33 1.17 -38.19 1.17 -37.05 1.17 -35.91 1.17 -34.77 1.18 -33.63 1.18 -32.49 1.18 -31.35 1.18 -30.21 1.18 -29.07 1.18 -27.93 1.18 -26.79 1.18 -25.65 1.18 -24.51 1.18 -23.37 1.19 -22.23 1.19 -21.09 1.19 -19.95 1.19 -18.81 1.19 -17.67 1.19 -16.53 1.19 -15.39 1.19 -14.25 1.19 -13.11 1.19 -11.97 1.19 -10.83 1.19 -9.69 1.2 -8.55 1.2 -7.41 1.2 -6.27 1.2 -5.13 1.2 -3.99 1.2 -2.85 1.2 -1.71 1.2 -0.57 1.2 0.57 1.2 1.71 1.21 2.85 1.21 3.99 1.21 5.13 1.21 6.27 1.21 7.41 1.21 8.55 1.21 9.69 1.21 10.83 1.22 11.97 1.22 13.11 1.22 14.25 1.22 15.39 1.22 16.53 1.22 17.67 1.22 18.81 1.22 19.95 1.22 21.09 1.22 22.23 1.22 23.37 1.22 24.51 1.22 25.65 1.22 26.79 1.22 27.93 1.23 29.07 1.23 30.21 1.23 31.35 1.23 32.49 1.23 33.63 1.23 34.77 1.23 35.91 1.23 37.05 1.23 38.19 1.23 39.33 1.23 40.47 1.23 41.61 1.23 42.75 1.24 43.89 1.24 45.03 1.24 46.17 1.24 47.31 1.24 48.45 1.24 49.59 1.24 50.73 1.24 51.87 1.24 53.01 1.24 54.15 1.24 55.29 1.24 56.43 1.24" class="primitive"/>
          </g>
          <g transform="translate(76.39,70.66)" id="img-ae3cd77a-37" stroke-dasharray="none" stroke="#FF6DAE" class="color_0.5">
            <path fill="none" d="M-56.43,-48.12 L -55.29 -33.56 -54.15 -20.42 -53.01 -8.62 -51.87 -1.72 -50.73 0.31 -49.59 0.83 -48.45 1 -47.31 1.08 -46.17 1.11 -45.03 1.13 -43.89 1.14 -42.75 1.15 -41.61 1.15 -40.47 1.16 -39.33 1.16 -38.19 1.16 -37.05 1.16 -35.91 1.16 -34.77 1.17 -33.63 1.17 -32.49 1.17 -31.35 1.17 -30.21 1.17 -29.07 1.17 -27.93 1.18 -26.79 1.18 -25.65 1.18 -24.51 1.18 -23.37 1.18 -22.23 1.18 -21.09 1.18 -19.95 1.18 -18.81 1.18 -17.67 1.18 -16.53 1.18 -15.39 1.18 -14.25 1.19 -13.11 1.19 -11.97 1.19 -10.83 1.19 -9.69 1.19 -8.55 1.19 -7.41 1.19 -6.27 1.19 -5.13 1.19 -3.99 1.19 -2.85 1.2 -1.71 1.2 -0.57 1.2 0.57 1.2 1.71 1.2 2.85 1.2 3.99 1.2 5.13 1.2 6.27 1.2 7.41 1.2 8.55 1.2 9.69 1.2 10.83 1.21 11.97 1.21 13.11 1.21 14.25 1.21 15.39 1.21 16.53 1.21 17.67 1.21 18.81 1.21 19.95 1.21 21.09 1.21 22.23 1.21 23.37 1.21 24.51 1.22 25.65 1.22 26.79 1.22 27.93 1.22 29.07 1.22 30.21 1.23 31.35 1.23 32.49 1.23 33.63 1.23 34.77 1.23 35.91 1.23 37.05 1.23 38.19 1.23 39.33 1.23 40.47 1.23 41.61 1.23 42.75 1.23 43.89 1.24 45.03 1.24 46.17 1.24 47.31 1.24 48.45 1.24 49.59 1.24 50.73 1.24 51.87 1.24 53.01 1.24 54.15 1.24 55.29 1.24 56.43 1.24" class="primitive"/>
          </g>
          <g transform="translate(76.39,70.75)" id="img-ae3cd77a-38" stroke-dasharray="none" stroke="#00B78D" class="color_0.75">
            <path fill="none" d="M-56.43,-48.23 L -55.29 -33.74 -54.15 -20.51 -53.01 -8.67 -51.87 -1.65 -50.73 0.36 -49.59 0.85 -48.45 1.02 -47.31 1.09 -46.17 1.12 -45.03 1.14 -43.89 1.14 -42.75 1.15 -41.61 1.15 -40.47 1.16 -39.33 1.16 -38.19 1.16 -37.05 1.16 -35.91 1.16 -34.77 1.16 -33.63 1.16 -32.49 1.16 -31.35 1.16 -30.21 1.16 -29.07 1.16 -27.93 1.17 -26.79 1.17 -25.65 1.17 -24.51 1.17 -23.37 1.17 -22.23 1.17 -21.09 1.17 -19.95 1.18 -18.81 1.18 -17.67 1.18 -16.53 1.18 -15.39 1.18 -14.25 1.18 -13.11 1.19 -11.97 1.19 -10.83 1.19 -9.69 1.19 -8.55 1.19 -7.41 1.19 -6.27 1.19 -5.13 1.2 -3.99 1.2 -2.85 1.2 -1.71 1.2 -0.57 1.2 0.57 1.2 1.71 1.2 2.85 1.2 3.99 1.2 5.13 1.2 6.27 1.2 7.41 1.21 8.55 1.21 9.69 1.21 10.83 1.21 11.97 1.21 13.11 1.21 14.25 1.21 15.39 1.21 16.53 1.21 17.67 1.21 18.81 1.21 19.95 1.21 21.09 1.22 22.23 1.22 23.37 1.22 24.51 1.22 25.65 1.22 26.79 1.23 27.93 1.23 29.07 1.23 30.21 1.23 31.35 1.23 32.49 1.23 33.63 1.24 34.77 1.24 35.91 1.24 37.05 1.24 38.19 1.24 39.33 1.24 40.47 1.24 41.61 1.24 42.75 1.25 43.89 1.25 45.03 1.25 46.17 1.25 47.31 1.25 48.45 1.25 49.59 1.25 50.73 1.25 51.87 1.25 53.01 1.25 54.15 1.26 55.29 1.26 56.43 1.26" class="primitive"/>
          </g>
          <g transform="translate(76.39,70.88)" id="img-ae3cd77a-39" stroke-dasharray="none" stroke="#BEA9FF" class="color_1.0">
            <path fill="none" d="M-56.43,-48.44 L -55.29 -33.72 -54.15 -20.05 -53.01 -8.2 -51.87 -1.8 -50.73 0.09 -49.59 0.68 -48.45 0.92 -47.31 1.04 -46.17 1.08 -45.03 1.11 -43.89 1.12 -42.75 1.13 -41.61 1.14 -40.47 1.15 -39.33 1.15 -38.19 1.15 -37.05 1.15 -35.91 1.16 -34.77 1.16 -33.63 1.16 -32.49 1.16 -31.35 1.16 -30.21 1.17 -29.07 1.17 -27.93 1.17 -26.79 1.17 -25.65 1.17 -24.51 1.17 -23.37 1.17 -22.23 1.17 -21.09 1.17 -19.95 1.17 -18.81 1.18 -17.67 1.18 -16.53 1.18 -15.39 1.18 -14.25 1.18 -13.11 1.18 -11.97 1.18 -10.83 1.18 -9.69 1.18 -8.55 1.18 -7.41 1.18 -6.27 1.19 -5.13 1.19 -3.99 1.19 -2.85 1.19 -1.71 1.19 -0.57 1.2 0.57 1.2 1.71 1.2 2.85 1.2 3.99 1.2 5.13 1.2 6.27 1.21 7.41 1.21 8.55 1.21 9.69 1.21 10.83 1.21 11.97 1.21 13.11 1.21 14.25 1.21 15.39 1.21 16.53 1.22 17.67 1.22 18.81 1.22 19.95 1.22 21.09 1.22 22.23 1.23 23.37 1.23 24.51 1.23 25.65 1.23 26.79 1.23 27.93 1.23 29.07 1.24 30.21 1.24 31.35 1.24 32.49 1.25 33.63 1.25 34.77 1.25 35.91 1.25 37.05 1.25 38.19 1.25 39.33 1.25 40.47 1.25 41.61 1.25 42.75 1.25 43.89 1.25 45.03 1.25 46.17 1.25 47.31 1.26 48.45 1.26 49.59 1.26 50.73 1.26 51.87 1.26 53.01 1.26 54.15 1.26 55.29 1.26 56.43 1.27" class="primitive"/>
          </g>
        </g>
      </g>
    </g>
  </g>
  <g class="guide ylabels" font-size="2.82" font-family="'PT Sans Caption','Helvetica Neue','Helvetica',sans-serif" fill="#6C606B" id="img-ae3cd77a-40">
    <g transform="translate(16.96,78.72)" id="img-ae3cd77a-41">
      <g class="primitive">
        <text text-anchor="end" dy="0.35em">0</text>
      </g>
    </g>
    <g transform="translate(16.96,60.79)" id="img-ae3cd77a-42">
      <g class="primitive">
        <text text-anchor="end" dy="0.35em">10</text>
      </g>
    </g>
    <g transform="translate(16.96,42.86)" id="img-ae3cd77a-43">
      <g class="primitive">
        <text text-anchor="end" dy="0.35em">20</text>
      </g>
    </g>
    <g transform="translate(16.96,24.93)" id="img-ae3cd77a-44">
      <g class="primitive">
        <text text-anchor="end" dy="0.35em">30</text>
      </g>
    </g>
    <g transform="translate(16.96,7)" id="img-ae3cd77a-45">
      <g class="primitive">
        <text text-anchor="end" dy="0.35em">40</text>
      </g>
    </g>
  </g>
  <g font-size="3.88" font-family="'PT Sans','Helvetica Neue','Helvetica',sans-serif" fill="#564A55" stroke="#000000" stroke-opacity="0.000" id="img-ae3cd77a-46">
    <g transform="translate(8.81,40.86)" id="img-ae3cd77a-47">
      <g class="primitive">
        <text text-anchor="middle" dy="0.35em" transform="rotate(-90,0, 2)">Numero Medio de Variedades por UD</text>
      </g>
    </g>
  </g>
</g>
<defs>
  <clipPath id="img-ae3cd77a-19">
    <path d="M17.96,5 L 135.96 5 135.96 80.72 17.96 80.72" />
  </clipPath>
</defs>
</svg>
