<?xml version="1.0" encoding="UTF-8"?>
<svg xmlns="http://www.w3.org/2000/svg"
     xmlns:xlink="http://www.w3.org/1999/xlink"
     xmlns:gadfly="http://www.gadflyjl.org/ns"
     version="1.2"
     width="150mm" height="100mm" viewBox="0 0 150 100"
     stroke="none"
     fill="#000000"
     stroke-width="0.3"
     font-size="3.88"
>
<defs>
  <marker id="arrow" markerWidth="15" markerHeight="7" refX="5" refY="3.5" orient="auto" markerUnits="strokeWidth">
    <path d="M0,0 L15,3.5 L0,7 z" stroke="context-stroke" fill="context-stroke"/>
  </marker>
</defs>
<g class="plotroot xscalable yscalable" id="img-460027ea-1">
  <g font-size="3.88" font-family="'PT Sans','Helvetica Neue','Helvetica',sans-serif" fill="#564A55" stroke="#000000" stroke-opacity="0.000" id="img-460027ea-2">
    <g transform="translate(79.14,88.39)">
      <g class="primitive">
        <text text-anchor="middle" dy="0.6em">Numero Medio de Variedades por UD</text>
      </g>
    </g>
  </g>
  <g class="guide xlabels" font-size="2.82" font-family="'PT Sans Caption','Helvetica Neue','Helvetica',sans-serif" fill="#6C606B" id="img-460027ea-3">
    <g transform="translate(20.63,81.72)">
      <g class="primitive">
        <text text-anchor="middle" dy="0.6em">0</text>
      </g>
    </g>
    <g transform="translate(49.89,81.72)">
      <g class="primitive">
        <text text-anchor="middle" dy="0.6em">5</text>
      </g>
    </g>
    <g transform="translate(79.14,81.72)">
      <g class="primitive">
        <text text-anchor="middle" dy="0.6em">10</text>
      </g>
    </g>
    <g transform="translate(108.39,81.72)">
      <g class="primitive">
        <text text-anchor="middle" dy="0.6em">15</text>
      </g>
    </g>
    <g transform="translate(137.65,81.72)">
      <g class="primitive">
        <text text-anchor="middle" dy="0.6em">20</text>
      </g>
    </g>
  </g>
  <g class="guide colorkey" id="img-460027ea-4">
    <g fill="#4C404B" font-size="2.82" font-family="'PT Sans','Helvetica Neue','Helvetica',sans-serif" id="img-460027ea-5">
      <g transform="translate(143.46,41.04)" id="img-460027ea-6" class="color_0">
        <g class="primitive">
          <text dy="0.35em">0</text>
        </g>
      </g>
      <g transform="translate(143.46,44.67)" id="img-460027ea-7" class="color_1">
        <g class="primitive">
          <text dy="0.35em">1</text>
        </g>
      </g>
      <g transform="translate(143.46,48.3)" id="img-460027ea-8" class="color_2">
        <g class="primitive">
          <text dy="0.35em">2</text>
        </g>
      </g>
    </g>
    <g stroke="#000000" stroke-opacity="0.000" id="img-460027ea-9">
      <g transform="translate(141.55,41.04)" id="img-460027ea-10" fill="#00BFFF" class="color_0">
        <path d="M-0.91,-0.91 L 0.91 -0.91 0.91 0.91 -0.91 0.91 z" class="primitive"/>
      </g>
      <g transform="translate(141.55,44.67)" id="img-460027ea-11" fill="#D4CA3A" class="color_1">
        <path d="M-0.91,-0.91 L 0.91 -0.91 0.91 0.91 -0.91 0.91 z" class="primitive"/>
      </g>
      <g transform="translate(141.55,48.3)" id="img-460027ea-12" fill="#FF6DAE" class="color_2">
        <path d="M-0.91,-0.91 L 0.91 -0.91 0.91 0.91 -0.91 0.91 z" class="primitive"/>
      </g>
    </g>
    <g fill="#362A35" font-size="3.88" font-family="'PT Sans','Helvetica Neue','Helvetica',sans-serif" stroke="#000000" stroke-opacity="0.000" id="img-460027ea-13">
      <g transform="translate(140.65,37.22)" id="img-460027ea-14">
        <g class="primitive">
          <text>n</text>
        </g>
      </g>
    </g>
  </g>
  <g clip-path="url(#img-460027ea-15)">
    <g id="img-460027ea-16">
      <g pointer-events="visible" fill="#000000" fill-opacity="0.000" stroke="#000000" stroke-opacity="0.000" class="guide background" id="img-460027ea-17">
        <g transform="translate(79.14,42.86)" id="img-460027ea-18">
          <path d="M-60.51,-37.86 L 60.51 -37.86 60.51 37.86 -60.51 37.86 z" class="primitive"/>
        </g>
      </g>
      <g class="guide ygridlines xfixed" stroke-dasharray="0.5,0.5" stroke-width="0.2" stroke="#D0D0E0" id="img-460027ea-19">
        <g transform="translate(79.14,78.71)" id="img-460027ea-20">
          <path fill="none" d="M-60.51,0 L 60.51 0" class="primitive"/>
        </g>
        <g transform="translate(79.14,42.86)" id="img-460027ea-21">
          <path fill="none" d="M-60.51,0 L 60.51 0" class="primitive"/>
        </g>
        <g transform="translate(79.14,7)" id="img-460027ea-22">
          <path fill="none" d="M-60.51,0 L 60.51 0" class="primitive"/>
        </g>
      </g>
      <g class="guide xgridlines yfixed" stroke-dasharray="0.5,0.5" stroke-width="0.2" stroke="#D0D0E0" id="img-460027ea-23">
        <g transform="translate(20.63,42.86)" id="img-460027ea-24">
          <path fill="none" d="M0,-37.86 L 0 37.86" class="primitive"/>
        </g>
        <g transform="translate(49.89,42.86)" id="img-460027ea-25">
          <path fill="none" d="M0,-37.86 L 0 37.86" class="primitive"/>
        </g>
        <g transform="translate(79.14,42.86)" id="img-460027ea-26">
          <path fill="none" d="M0,-37.86 L 0 37.86" class="primitive"/>
        </g>
        <g transform="translate(108.39,42.86)" id="img-460027ea-27">
          <path fill="none" d="M0,-37.86 L 0 37.86" class="primitive"/>
        </g>
        <g transform="translate(137.65,42.86)" id="img-460027ea-28">
          <path fill="none" d="M0,-37.86 L 0 37.86" class="primitive"/>
        </g>
      </g>
      <g class="plotpanel" id="img-460027ea-29">
        <metadata>
          <boundingbox value="18.63166666666666mm 5.0mm 121.01499999999999mm 75.715mm"/>
          <unitbox value="-0.3418365166858951 1.0278881684445373 20.683673033371793 -1.055776336889075"/>
        </metadata>
        <g stroke-width="0.3" fill="#000000" fill-opacity="0.000" class="geometry" id="img-460027ea-30">
          <g transform="translate(166.9,77.25)" id="img-460027ea-31" stroke="#00BFFF" stroke-dasharray="none" class="color_0">
            <path fill="none" d="M-140.42,-18.06 L -134.57 -13.79 -128.72 -7.75 -122.87 -6.3 -117.01 -4.75 -111.16 -3.56 -105.31 -2 -99.46 -0.9 -93.61 0.03 -87.76 0.63 -81.91 1.05 -76.06 1.33 -70.21 1.41 -64.36 1.45 -58.51 1.46 -52.66 1.46 -46.81 1.46 -40.96 1.46 -35.1 1.46 -29.25 1.46 -23.4 1.46 -17.55 1.46 -11.7 1.46 -5.85 1.46 -0 1.46 5.85 1.46 11.7 1.46 17.55 1.46 23.4 1.46 29.25 1.46 35.1 1.46 40.96 1.46 46.81 1.46 52.66 1.46 58.51 1.46 64.36 1.46 70.21 1.46 76.06 1.46 81.91 1.46 87.76 1.46 93.61 1.46 99.46 1.46 105.31 1.46 111.16 1.46 117.01 1.46 122.87 1.46 128.72 1.46 134.57 1.46 140.42 1.46" class="primitive"/>
          </g>
          <g transform="translate(166.9,77.25)" id="img-460027ea-32" stroke="#D4CA3A" stroke-dasharray="none" class="color_1">
            <path fill="none" d="M-140.42,-13.67 L -134.57 -11.69 -128.72 -8.51 -122.87 -8.03 -117.01 -6.32 -111.16 -4.57 -105.31 -2.82 -99.46 -1.4 -93.61 -0.13 -87.76 0.61 -81.91 1.1 -76.06 1.33 -70.21 1.43 -64.36 1.45 -58.51 1.46 -52.66 1.46 -46.81 1.46 -40.96 1.46 -35.1 1.46 -29.25 1.46 -23.4 1.46 -17.55 1.46 -11.7 1.46 -5.85 1.46 -0 1.46 5.85 1.46 11.7 1.46 17.55 1.46 23.4 1.46 29.25 1.46 35.1 1.46 40.96 1.46 46.81 1.46 52.66 1.46 58.51 1.46 64.36 1.46 70.21 1.46 76.06 1.46 81.91 1.46 87.76 1.46 93.61 1.46 99.46 1.46 105.31 1.46 111.16 1.46 117.01 1.46 122.87 1.46 128.72 1.46 134.57 1.46 140.42 1.46" class="primitive"/>
          </g>
          <g transform="translate(166.9,77.25)" id="img-460027ea-33" stroke="#FF6DAE" stroke-dasharray="none" class="color_2">
            <path fill="none" d="M-140.42,-15.48 L -134.57 -13.39 -128.72 -8.78 -122.87 -7.07 -117.01 -5.3 -111.16 -3.82 -105.31 -2.37 -99.46 -0.94 -93.61 0.09 -87.76 0.6 -81.91 1.13 -76.06 1.28 -70.21 1.38 -64.36 1.45 -58.51 1.45 -52.66 1.46 -46.81 1.46 -40.96 1.46 -35.1 1.46 -29.25 1.46 -23.4 1.46 -17.55 1.46 -11.7 1.46 -5.85 1.46 -0 1.46 5.85 1.46 11.7 1.46 17.55 1.46 23.4 1.46 29.25 1.46 35.1 1.46 40.96 1.46 46.81 1.46 52.66 1.46 58.51 1.46 64.36 1.46 70.21 1.46 76.06 1.46 81.91 1.46 87.76 1.46 93.61 1.46 99.46 1.46 105.31 1.46 111.16 1.46 117.01 1.46 122.87 1.46 128.72 1.46 134.57 1.46 140.42 1.46" class="primitive"/>
          </g>
        </g>
      </g>
    </g>
  </g>
  <g class="guide ylabels" font-size="2.82" font-family="'PT Sans Caption','Helvetica Neue','Helvetica',sans-serif" fill="#6C606B" id="img-460027ea-34">
    <g transform="translate(17.63,78.71)" id="img-460027ea-35">
      <g class="primitive">
        <text text-anchor="end" dy="0.35em">0.0</text>
      </g>
    </g>
    <g transform="translate(17.63,42.86)" id="img-460027ea-36">
      <g class="primitive">
        <text text-anchor="end" dy="0.35em">0.5</text>
      </g>
    </g>
    <g transform="translate(17.63,7)" id="img-460027ea-37">
      <g class="primitive">
        <text text-anchor="end" dy="0.35em">1.0</text>
      </g>
    </g>
  </g>
  <g font-size="3.88" font-family="'PT Sans','Helvetica Neue','Helvetica',sans-serif" fill="#564A55" stroke="#000000" stroke-opacity="0.000" id="img-460027ea-38">
    <g transform="translate(8.81,40.86)" id="img-460027ea-39">
      <g class="primitive">
        <text text-anchor="middle" dy="0.35em" transform="rotate(-90,0, 2)">Frequencia</text>
      </g>
    </g>
  </g>
</g>
<defs>
  <clipPath id="img-460027ea-15">
    <path d="M18.63,5 L 139.65 5 139.65 80.72 18.63 80.72" />
  </clipPath>
</defs>
</svg>
