<?xml version="1.0" encoding="UTF-8"?>
<svg xmlns="http://www.w3.org/2000/svg"
     xmlns:xlink="http://www.w3.org/1999/xlink"
     xmlns:gadfly="http://www.gadflyjl.org/ns"
     version="1.2"
     width="150mm" height="100mm" viewBox="0 0 150 100"
     stroke="none"
     fill="#000000"
     stroke-width="0.3"
     font-size="3.88"
>
<defs>
  <marker id="arrow" markerWidth="15" markerHeight="7" refX="5" refY="3.5" orient="auto" markerUnits="strokeWidth">
    <path d="M0,0 L15,3.5 L0,7 z" stroke="context-stroke" fill="context-stroke"/>
  </marker>
</defs>
<g class="plotroot xscalable yscalable" id="img-732c07a2-1">
  <g font-size="3.88" font-family="'PT Sans','Helvetica Neue','Helvetica',sans-serif" fill="#564A55" stroke="#000000" stroke-opacity="0.000" id="img-732c07a2-2">
    <g transform="translate(80.53,88.39)">
      <g class="primitive">
        <text text-anchor="middle" dy="0.6em">Tempo</text>
      </g>
    </g>
  </g>
  <g class="guide xlabels" font-size="2.82" font-family="'PT Sans Caption','Helvetica Neue','Helvetica',sans-serif" fill="#6C606B" id="img-732c07a2-3">
    <g transform="translate(23.42,81.72)">
      <g class="primitive">
        <text text-anchor="middle" dy="0.6em">0</text>
      </g>
    </g>
    <g transform="translate(46.26,81.72)">
      <g class="primitive">
        <text text-anchor="middle" dy="0.6em">100</text>
      </g>
    </g>
    <g transform="translate(69.11,81.72)">
      <g class="primitive">
        <text text-anchor="middle" dy="0.6em">200</text>
      </g>
    </g>
    <g transform="translate(91.96,81.72)">
      <g class="primitive">
        <text text-anchor="middle" dy="0.6em">300</text>
      </g>
    </g>
    <g transform="translate(114.8,81.72)">
      <g class="primitive">
        <text text-anchor="middle" dy="0.6em">400</text>
      </g>
    </g>
    <g transform="translate(137.65,81.72)">
      <g class="primitive">
        <text text-anchor="middle" dy="0.6em">500</text>
      </g>
    </g>
  </g>
  <g class="guide colorkey" id="img-732c07a2-4">
    <g fill="#4C404B" font-size="2.82" font-family="'PT Sans','Helvetica Neue','Helvetica',sans-serif" id="img-732c07a2-5">
      <g transform="translate(143.46,37.42)" id="img-732c07a2-6" class="color_4">
        <g class="primitive">
          <text dy="0.35em">4</text>
        </g>
      </g>
      <g transform="translate(143.46,41.04)" id="img-732c07a2-7" class="color_2">
        <g class="primitive">
          <text dy="0.35em">2</text>
        </g>
      </g>
      <g transform="translate(143.46,44.67)" id="img-732c07a2-8" class="color_3">
        <g class="primitive">
          <text dy="0.35em">3</text>
        </g>
      </g>
      <g transform="translate(143.46,48.3)" id="img-732c07a2-9" class="color_1">
        <g class="primitive">
          <text dy="0.35em">1</text>
        </g>
      </g>
      <g transform="translate(143.46,51.92)" id="img-732c07a2-10" class="color_0">
        <g class="primitive">
          <text dy="0.35em">0</text>
        </g>
      </g>
    </g>
    <g stroke="#000000" stroke-opacity="0.000" id="img-732c07a2-11">
      <g transform="translate(141.55,37.42)" id="img-732c07a2-12" fill="#00BFFF" class="color_4">
        <path d="M-0.91,-0.91 L 0.91 -0.91 0.91 0.91 -0.91 0.91 z" class="primitive"/>
      </g>
      <g transform="translate(141.55,41.04)" id="img-732c07a2-13" fill="#D4CA3A" class="color_2">
        <path d="M-0.91,-0.91 L 0.91 -0.91 0.91 0.91 -0.91 0.91 z" class="primitive"/>
      </g>
      <g transform="translate(141.55,44.67)" id="img-732c07a2-14" fill="#FF6DAE" class="color_3">
        <path d="M-0.91,-0.91 L 0.91 -0.91 0.91 0.91 -0.91 0.91 z" class="primitive"/>
      </g>
      <g transform="translate(141.55,48.3)" id="img-732c07a2-15" fill="#00B78D" class="color_1">
        <path d="M-0.91,-0.91 L 0.91 -0.91 0.91 0.91 -0.91 0.91 z" class="primitive"/>
      </g>
      <g transform="translate(141.55,51.92)" id="img-732c07a2-16" fill="#BEA9FF" class="color_0">
        <path d="M-0.91,-0.91 L 0.91 -0.91 0.91 0.91 -0.91 0.91 z" class="primitive"/>
      </g>
    </g>
    <g fill="#362A35" font-size="3.88" font-family="'PT Sans','Helvetica Neue','Helvetica',sans-serif" stroke="#000000" stroke-opacity="0.000" id="img-732c07a2-17">
      <g transform="translate(140.65,33.6)" id="img-732c07a2-18">
        <g class="primitive">
          <text>DU</text>
        </g>
      </g>
    </g>
  </g>
  <g clip-path="url(#img-732c07a2-19)">
    <g id="img-732c07a2-20">
      <g pointer-events="visible" fill="#000000" fill-opacity="0.000" stroke="#000000" stroke-opacity="0.000" class="guide background" id="img-732c07a2-21">
        <g transform="translate(80.53,42.86)" id="img-732c07a2-22">
          <path d="M-59.11,-37.86 L 59.11 -37.86 59.11 37.86 -59.11 37.86 z" class="primitive"/>
        </g>
      </g>
      <g class="guide ygridlines xfixed" stroke-dasharray="0.5,0.5" stroke-width="0.2" stroke="#D0D0E0" id="img-732c07a2-23">
        <g transform="translate(80.53,78.72)" id="img-732c07a2-24">
          <path fill="none" d="M-59.11,0 L 59.11 0" class="primitive"/>
        </g>
        <g transform="translate(80.53,60.79)" id="img-732c07a2-25">
          <path fill="none" d="M-59.11,0 L 59.11 0" class="primitive"/>
        </g>
        <g transform="translate(80.53,42.86)" id="img-732c07a2-26">
          <path fill="none" d="M-59.11,0 L 59.11 0" class="primitive"/>
        </g>
        <g transform="translate(80.53,24.93)" id="img-732c07a2-27">
          <path fill="none" d="M-59.11,0 L 59.11 0" class="primitive"/>
        </g>
        <g transform="translate(80.53,7)" id="img-732c07a2-28">
          <path fill="none" d="M-59.11,0 L 59.11 0" class="primitive"/>
        </g>
      </g>
      <g class="guide xgridlines yfixed" stroke-dasharray="0.5,0.5" stroke-width="0.2" stroke="#D0D0E0" id="img-732c07a2-29">
        <g transform="translate(23.42,42.86)" id="img-732c07a2-30">
          <path fill="none" d="M0,-37.86 L 0 37.86" class="primitive"/>
        </g>
        <g transform="translate(46.26,42.86)" id="img-732c07a2-31">
          <path fill="none" d="M0,-37.86 L 0 37.86" class="primitive"/>
        </g>
        <g transform="translate(69.11,42.86)" id="img-732c07a2-32">
          <path fill="none" d="M0,-37.86 L 0 37.86" class="primitive"/>
        </g>
        <g transform="translate(91.96,42.86)" id="img-732c07a2-33">
          <path fill="none" d="M0,-37.86 L 0 37.86" class="primitive"/>
        </g>
        <g transform="translate(114.8,42.86)" id="img-732c07a2-34">
          <path fill="none" d="M0,-37.86 L 0 37.86" class="primitive"/>
        </g>
        <g transform="translate(137.65,42.86)" id="img-732c07a2-35">
          <path fill="none" d="M0,-37.86 L 0 37.86" class="primitive"/>
        </g>
      </g>
      <g class="plotpanel" id="img-732c07a2-36">
        <metadata>
          <boundingbox value="21.41833333333335mm 5.0mm 118.22833333333335mm 75.715mm"/>
          <unitbox value="-8.754395436041843 0.06223105347556299 517.5087908720836 -0.08446210695112599"/>
        </metadata>
        <g stroke-width="0.3" fill="#000000" fill-opacity="0.000" class="geometry" id="img-732c07a2-37">
          <g transform="translate(80.42,57.83)" id="img-732c07a2-38" stroke-dasharray="none" stroke="#00BFFF" class="color_4">
            <path fill="none" d="M-57,-7.12 L -56.77 -6.53 -56.54 -5.48 -56.31 -8.41 -56.09 -11.54 -55.86 -10.41 -55.63 -13.7 -55.4 -12.9 -55.17 -12.9 -54.94 -12.18 -54.72 -11.53 -54.49 -10.96 -54.26 -10.23 -54.03 -13.87 -53.8 -9.65 -53.57 -13.53 -53.34 -13.53 -53.12 -12.55 -52.89 -11.32 -52.66 -14.59 -52.43 -14.06 -52.2 -14.06 -51.97 -11.44 -51.75 -14.74 -51.52 -12.07 -51.29 -15.79 -51.06 -15.91 -50.83 -13.22 -50.6 -13.07 -50.37 -9.64 -50.15 -6.2 -49.92 -9.73 -49.69 -5.5 -49.46 -5.5 -49.23 -9.29 -49 -5.2 -48.78 -5.2 -48.55 -5.2 -48.32 -5.2 -48.09 -5.2 -47.86 -5.2 -47.63 -5.2 -47.4 -5.2 -47.18 -5.2 -46.95 -5.2 -46.72 -5.2 -46.49 -5.2 -46.26 -5.2 -46.03 -5.2 -45.81 -5.2 -45.58 -5.2 -45.35 -5.2 -45.12 -5.2 -44.89 -5.2 -44.66 -5.2 -44.43 -5.2 -44.21 -5.2 -43.98 -5.2 -43.75 -5.2 -43.52 -5.2 -43.29 -5.2 -43.06 -5.2 -42.84 -5.2 -42.61 -5.2 -42.38 -5.2 -42.15 -5.2 -41.92 -5.2 -41.69 -0.55 -41.46 -0.55 -41.24 4.65 -41.01 8.86 -40.78 8.86 -40.55 8.86 -40.32 8.86 -40.09 8.86 -39.87 8.86 -39.64 8.86 -39.41 8.86 -39.18 8.86 -38.95 8.86 -38.72 8.86 -38.49 8.86 -38.27 8.86 -38.04 8.54 -37.81 1.04 -37.58 1.04 -37.35 1.04 -37.12 1.04 -36.9 1.04 -36.67 1.04 -36.44 1.04 -36.21 1.04 -35.98 1.04 -35.75 1.04 -35.53 1.04 -35.3 1.04 -35.07 1.04 -34.84 1.04 -34.61 1.04 -34.38 1.04 -34.15 1.04 -33.93 1.04 -33.7 1.04 -33.47 1.04 -33.24 1.04 -33.01 1.04 -32.78 1.04 -32.56 1.04 -32.33 1.04 -32.1 1.04 -31.87 1.04 -31.64 1.04 -31.41 1.04 -31.18 1.04 -30.96 1.04 -30.73 1.04 -30.5 1.04 -30.27 1.04 -30.04 1.04 -29.81 1.04 -29.59 1.04 -29.36 1.04 -29.13 1.04 -28.9 1.04 -28.67 1.04 -28.44 1.04 -28.21 1.04 -27.99 1.04 -27.76 1.04 -27.53 1.04 -27.3 1.04 -27.07 1.04 -26.84 1.04 -26.62 1.04 -26.39 1.04 -26.16 1.04 -25.93 1.04 -25.7 1.04 -25.47 1.04 -25.24 1.04 -25.02 1.04 -24.79 1.04 -24.56 1.04 -24.33 1.04 -24.1 1.04 -23.87 1.04 -23.65 1.04 -23.42 1.04 -23.19 1.04 -22.96 1.04 -22.73 1.04 -22.5 1.04 -22.27 1.04 -22.05 1.04 -21.82 1.04 -21.59 1.04 -21.36 1.04 -21.13 1.04 -20.9 1.04 -20.68 1.04 -20.45 1.04 -20.22 1.04 -19.99 1.04 -19.76 1.04 -19.53 1.04 -19.3 1.04 -19.08 1.04 -18.85 1.04 -18.62 1.04 -18.39 1.04 -18.16 1.04 -17.93 1.04 -17.71 1.04 -17.48 1.04 -17.25 1.04 -17.02 1.04 -16.79 1.04 -16.56 1.04 -16.33 1.04 -16.11 1.04 -15.88 1.04 -15.65 1.04 -15.42 1.04 -15.19 1.04 -14.96 1.04 -14.74 1.04 -14.51 1.04 -14.28 1.04 -14.05 1.04 -13.82 1.04 -13.59 1.04 -13.36 1.04 -13.14 1.04 -12.91 1.04 -12.68 1.04 -12.45 1.04 -12.22 1.04 -11.99 1.04 -11.77 1.04 -11.54 1.04 -11.31 1.04 -11.08 1.04 -10.85 1.04 -10.62 1.04 -10.39 1.04 -10.17 1.04 -9.94 1.04 -9.71 1.04 -9.48 1.04 -9.25 1.04 -9.02 1.04 -8.8 1.04 -8.57 1.04 -8.34 1.04 -8.11 1.04 -7.88 1.04 -7.65 1.04 -7.42 1.04 -7.2 1.04 -6.97 1.04 -6.74 1.04 -6.51 1.04 -6.28 1.04 -6.05 1.04 -5.83 1.04 -5.6 1.04 -5.37 1.04 -5.14 1.04 -4.91 1.04 -4.68 1.04 -4.45 1.04 -4.23 1.04 -4 1.04 -3.77 1.04 -3.54 1.04 -3.31 1.04 -3.08 1.04 -2.86 1.04 -2.63 1.04 -2.4 1.04 -2.17 1.04 -1.94 1.04 -1.71 1.04 -1.48 1.04 -1.26 1.04 -1.03 1.04 -0.8 1.04 -0.57 1.04 -0.34 1.04 -0.11 1.04 0.11 1.04 0.34 1.04 0.57 1.04 0.8 1.04 1.03 1.04 1.26 1.04 1.48 1.04 1.71 1.04 1.94 1.04 2.17 1.04 2.4 1.04 2.63 1.04 2.86 1.04 3.08 1.04 3.31 1.04 3.54 1.04 3.77 1.04 4 1.04 4.23 1.04 4.45 1.04 4.68 1.04 4.91 1.04 5.14 1.04 5.37 1.04 5.6 1.04 5.83 1.04 6.05 1.04 6.28 1.04 6.51 1.04 6.74 1.04 6.97 1.04 7.2 1.04 7.42 1.04 7.65 1.04 7.88 1.04 8.11 1.04 8.34 1.04 8.57 1.04 8.8 1.04 9.02 1.04 9.25 1.04 9.48 1.04 9.71 1.04 9.94 1.04 10.17 1.04 10.39 1.04 10.62 1.04 10.85 1.04 11.08 1.04 11.31 1.04 11.54 1.04 11.77 1.04 11.99 1.04 12.22 1.04 12.45 1.04 12.68 1.04 12.91 1.04 13.14 1.04 13.36 1.04 13.59 1.04 13.82 1.04 14.05 1.04 14.28 1.04 14.51 1.04 14.74 1.04 14.96 1.04 15.19 1.04 15.42 1.04 15.65 1.04 15.88 1.04 16.11 1.04 16.33 1.04 16.56 1.04 16.79 1.04 17.02 1.04 17.25 1.04 17.48 1.04 17.71 1.04 17.93 1.04 18.16 1.04 18.39 1.04 18.62 1.04 18.85 1.04 19.08 1.04 19.3 1.04 19.53 1.04 19.76 1.04 19.99 1.04 20.22 1.04 20.45 1.04 20.68 1.04 20.9 1.04 21.13 1.04 21.36 1.04 21.59 1.04 21.82 1.04 22.05 1.04 22.27 1.04 22.5 1.04 22.73 1.04 22.96 1.04 23.19 1.04 23.42 1.04 23.65 1.04 23.87 1.04 24.1 1.04 24.33 1.04 24.56 1.04 24.79 1.04 25.02 1.04 25.24 1.04 25.47 1.04 25.7 1.04 25.93 1.04 26.16 1.04 26.39 1.04 26.62 1.04 26.84 1.04 27.07 1.04 27.3 1.04 27.53 1.04 27.76 1.04 27.99 1.04 28.21 1.04 28.44 1.04 28.67 1.04 28.9 1.04 29.13 1.04 29.36 1.04 29.59 1.04 29.81 1.04 30.04 1.04 30.27 1.04 30.5 1.04 30.73 1.04 30.96 1.04 31.18 1.04 31.41 1.04 31.64 1.04 31.87 1.04 32.1 1.04 32.33 1.04 32.56 1.04 32.78 1.04 33.01 1.04 33.24 1.04 33.47 1.04 33.7 1.04 33.93 1.04 34.15 1.04 34.38 1.04 34.61 1.04 34.84 1.04 35.07 1.04 35.3 1.04 35.53 1.04 35.75 1.04 35.98 1.04 36.21 1.04 36.44 1.04 36.67 1.04 36.9 1.04 37.12 1.04 37.35 1.04 37.58 1.04 37.81 1.04 38.04 1.04 38.27 1.04 38.49 1.04 38.72 1.04 38.95 1.04 39.18 1.04 39.41 1.04 39.64 1.04 39.87 1.04 40.09 1.04 40.32 1.04 40.55 1.04 40.78 1.04 41.01 1.04 41.24 1.04 41.46 1.04 41.69 1.04 41.92 1.04 42.15 1.04 42.38 1.04 42.61 1.04 42.84 1.04 43.06 1.04 43.29 1.04 43.52 1.04 43.75 1.04 43.98 1.04 44.21 1.04 44.43 1.04 44.66 1.04 44.89 1.04 45.12 1.04 45.35 1.04 45.58 1.04 45.81 1.04 46.03 1.04 46.26 1.04 46.49 1.04 46.72 1.04 46.95 1.04 47.18 1.04 47.4 1.04 47.63 1.04 47.86 1.04 48.09 1.04 48.32 1.04 48.55 1.04 48.78 1.04 49 1.04 49.23 1.04 49.46 1.04 49.69 1.04 49.92 1.04 50.15 1.04 50.37 1.04 50.6 1.04 50.83 1.04 51.06 1.04 51.29 1.04 51.52 1.04 51.75 1.04 51.97 1.04 52.2 1.04 52.43 1.04 52.66 1.04 52.89 1.04 53.12 1.04 53.34 1.04 53.57 1.04 53.8 1.04 54.03 1.04 54.26 1.04 54.49 1.04 54.72 1.04 54.94 1.04 55.17 1.04 55.4 1.04 55.63 1.04 55.86 1.04 56.09 1.04 56.31 1.04 56.54 1.04 56.77 1.04 57 1.04" class="primitive"/>
          </g>
          <g transform="translate(80.42,55)" id="img-732c07a2-39" stroke-dasharray="none" stroke="#D4CA3A" class="color_2">
            <path fill="none" d="M-57,1.5 L -56.77 1.78 -56.54 2 -56.31 -2.07 -56.09 1.79 -55.86 -2.31 -55.63 -2.7 -55.4 -3.26 -55.17 -3.46 -54.94 0.81 -54.72 1.01 -54.49 0.54 -54.26 -4.26 -54.03 -4.26 -53.8 -3.76 -53.57 -7.66 -53.34 -6.86 -53.12 -5.76 -52.89 -5.76 -52.66 -9.44 -52.43 -9.44 -52.2 -7.78 -51.97 -6.93 -51.75 -10.59 -51.52 -9.96 -51.29 -6.28 -51.06 -6.12 -50.83 -9.56 -50.6 -5.55 -50.37 -8.01 -50.15 -3.51 -49.92 1.34 -49.69 1.34 -49.46 1.34 -49.23 5.13 -49 5.13 -48.78 5.13 -48.55 5.13 -48.32 5.13 -48.09 5.13 -47.86 5.13 -47.63 5.13 -47.4 5.13 -47.18 5.13 -46.95 5.13 -46.72 5.13 -46.49 5.13 -46.26 5.13 -46.03 5.13 -45.81 5.13 -45.58 5.13 -45.35 5.13 -45.12 5.13 -44.89 5.13 -44.66 5.13 -44.43 5.13 -44.21 5.13 -43.98 5.13 -43.75 5.13 -43.52 5.13 -43.29 5.13 -43.06 5.13 -42.84 5.13 -42.61 5.13 -42.38 5.13 -42.15 5.13 -41.92 5.13 -41.69 5.13 -41.46 5.13 -41.24 4.09 -41.01 -0.12 -40.78 -0.12 -40.55 -0.12 -40.32 -0.12 -40.09 -0.12 -39.87 -0.12 -39.64 -0.12 -39.41 -0.12 -39.18 -0.12 -38.95 -0.12 -38.72 -0.12 -38.49 -0.12 -38.27 -0.12 -38.04 -0.12 -37.81 -0.12 -37.58 -0.12 -37.35 -0.12 -37.12 -0.12 -36.9 -0.12 -36.67 -0.12 -36.44 -0.12 -36.21 -0.12 -35.98 -0.12 -35.75 -0.12 -35.53 -0.12 -35.3 -0.12 -35.07 -0.12 -34.84 -0.12 -34.61 -0.12 -34.38 -0.12 -34.15 -0.12 -33.93 -0.12 -33.7 -0.12 -33.47 -0.12 -33.24 -0.12 -33.01 -0.12 -32.78 -0.12 -32.56 -0.12 -32.33 -0.12 -32.1 -0.12 -31.87 -0.12 -31.64 -0.12 -31.41 -0.12 -31.18 -0.12 -30.96 -0.12 -30.73 -0.12 -30.5 -0.12 -30.27 -0.12 -30.04 -0.12 -29.81 -0.12 -29.59 -0.12 -29.36 -0.12 -29.13 -0.12 -28.9 -0.12 -28.67 -0.12 -28.44 -0.12 -28.21 -0.12 -27.99 -0.12 -27.76 -0.12 -27.53 -0.12 -27.3 -0.12 -27.07 -0.12 -26.84 -0.12 -26.62 -0.12 -26.39 -0.12 -26.16 -0.12 -25.93 -0.12 -25.7 -0.12 -25.47 -0.12 -25.24 -0.12 -25.02 -0.12 -24.79 -0.12 -24.56 -0.12 -24.33 -0.12 -24.1 -0.12 -23.87 -0.12 -23.65 -0.12 -23.42 -0.12 -23.19 -0.12 -22.96 -0.12 -22.73 -0.12 -22.5 -0.12 -22.27 -0.12 -22.05 -0.12 -21.82 -0.12 -21.59 -0.12 -21.36 -0.12 -21.13 -0.12 -20.9 -0.12 -20.68 -0.12 -20.45 -0.12 -20.22 -0.12 -19.99 -0.12 -19.76 -0.12 -19.53 -0.12 -19.3 -0.12 -19.08 -0.12 -18.85 -0.12 -18.62 -0.12 -18.39 -0.12 -18.16 -0.12 -17.93 -0.12 -17.71 -0.12 -17.48 -0.12 -17.25 -0.12 -17.02 -0.12 -16.79 -0.12 -16.56 -0.12 -16.33 -0.12 -16.11 -0.12 -15.88 -0.12 -15.65 -0.12 -15.42 -0.12 -15.19 -0.12 -14.96 -0.12 -14.74 -0.12 -14.51 -0.12 -14.28 -0.12 -14.05 -0.12 -13.82 -0.12 -13.59 -0.12 -13.36 -0.12 -13.14 -0.12 -12.91 -0.12 -12.68 -0.12 -12.45 -0.12 -12.22 -0.12 -11.99 -0.12 -11.77 -0.12 -11.54 -0.12 -11.31 -0.12 -11.08 -0.12 -10.85 -0.12 -10.62 -0.12 -10.39 -0.12 -10.17 -0.12 -9.94 -0.12 -9.71 -0.12 -9.48 -0.12 -9.25 -0.12 -9.02 -0.12 -8.8 -0.12 -8.57 -0.12 -8.34 -0.12 -8.11 -0.12 -7.88 -0.12 -7.65 -0.12 -7.42 -0.12 -7.2 -0.12 -6.97 -0.12 -6.74 -0.12 -6.51 -0.12 -6.28 -0.12 -6.05 -0.12 -5.83 -0.12 -5.6 -0.12 -5.37 -0.12 -5.14 -0.12 -4.91 -0.12 -4.68 -0.12 -4.45 -0.12 -4.23 -0.12 -4 -0.12 -3.77 -0.12 -3.54 -0.12 -3.31 -0.12 -3.08 -0.12 -2.86 -0.12 -2.63 -0.12 -2.4 -0.12 -2.17 -0.12 -1.94 -0.12 -1.71 -0.12 -1.48 -0.12 -1.26 -0.12 -1.03 -0.12 -0.8 -0.12 -0.57 -0.12 -0.34 -0.12 -0.11 -0.12 0.11 -0.12 0.34 -0.12 0.57 -0.12 0.8 -0.12 1.03 -0.12 1.26 -0.12 1.48 -0.12 1.71 -0.12 1.94 -0.12 2.17 -0.12 2.4 -0.12 2.63 -0.12 2.86 -0.12 3.08 -0.12 3.31 -0.12 3.54 -0.12 3.77 -0.12 4 -0.12 4.23 -0.12 4.45 -0.12 4.68 -0.12 4.91 -0.12 5.14 -0.12 5.37 -0.12 5.6 -0.12 5.83 -0.12 6.05 -0.12 6.28 -0.12 6.51 -0.12 6.74 -0.12 6.97 -0.12 7.2 -0.12 7.42 -0.12 7.65 -0.12 7.88 -0.12 8.11 -0.12 8.34 -0.12 8.57 -0.12 8.8 -0.12 9.02 -0.12 9.25 -0.12 9.48 -0.12 9.71 -0.12 9.94 -0.12 10.17 -0.12 10.39 -0.12 10.62 -0.12 10.85 -0.12 11.08 -0.12 11.31 -0.12 11.54 -0.12 11.77 -0.12 11.99 -0.12 12.22 -0.12 12.45 -0.12 12.68 -0.12 12.91 -0.12 13.14 -0.12 13.36 -0.12 13.59 -0.12 13.82 -0.12 14.05 -0.12 14.28 -0.12 14.51 -0.12 14.74 -0.12 14.96 -0.12 15.19 -0.12 15.42 -0.12 15.65 -0.12 15.88 -0.12 16.11 -0.12 16.33 -0.12 16.56 -0.12 16.79 -0.12 17.02 -0.12 17.25 -0.12 17.48 -0.12 17.71 -0.12 17.93 -0.12 18.16 -0.12 18.39 -0.12 18.62 -0.12 18.85 -0.12 19.08 -0.12 19.3 -0.12 19.53 -0.12 19.76 -0.12 19.99 -0.12 20.22 -0.12 20.45 -0.12 20.68 -0.12 20.9 -0.12 21.13 -0.12 21.36 -0.12 21.59 -0.12 21.82 -0.12 22.05 -0.12 22.27 -0.12 22.5 -0.12 22.73 -0.12 22.96 -0.12 23.19 -0.12 23.42 -0.12 23.65 -0.12 23.87 -0.12 24.1 -0.12 24.33 -0.12 24.56 -0.12 24.79 -0.12 25.02 -0.12 25.24 -0.12 25.47 -0.12 25.7 -0.12 25.93 -0.12 26.16 -0.12 26.39 -0.12 26.62 -0.12 26.84 -0.12 27.07 -0.12 27.3 -0.12 27.53 -0.12 27.76 -0.12 27.99 -0.12 28.21 -0.12 28.44 -0.12 28.67 -0.12 28.9 -0.12 29.13 -0.12 29.36 -0.12 29.59 -0.12 29.81 -0.12 30.04 -0.12 30.27 -0.12 30.5 -0.12 30.73 -0.12 30.96 -0.12 31.18 -0.12 31.41 -0.12 31.64 -0.12 31.87 -0.12 32.1 -0.12 32.33 -0.12 32.56 -0.12 32.78 -0.12 33.01 -0.12 33.24 -0.12 33.47 -0.12 33.7 -0.12 33.93 -0.12 34.15 -0.12 34.38 -0.12 34.61 -0.12 34.84 -0.12 35.07 -0.12 35.3 -0.12 35.53 -0.12 35.75 -0.12 35.98 -0.12 36.21 -0.12 36.44 -0.12 36.67 -0.12 36.9 -0.12 37.12 -0.12 37.35 -0.12 37.58 -0.12 37.81 -0.12 38.04 -0.12 38.27 -0.12 38.49 -0.12 38.72 -0.12 38.95 -0.12 39.18 -0.12 39.41 -0.12 39.64 -0.12 39.87 -0.12 40.09 -0.12 40.32 -0.12 40.55 -0.12 40.78 -0.12 41.01 -0.12 41.24 -0.12 41.46 -0.12 41.69 -0.12 41.92 -0.12 42.15 -0.12 42.38 -0.12 42.61 -0.12 42.84 -0.12 43.06 -0.12 43.29 -0.12 43.52 -0.12 43.75 -0.12 43.98 -0.12 44.21 -0.12 44.43 -0.12 44.66 -0.12 44.89 -0.12 45.12 -0.12 45.35 -0.12 45.58 -0.12 45.81 -0.12 46.03 -0.12 46.26 -0.12 46.49 -0.12 46.72 -0.12 46.95 -0.12 47.18 -0.12 47.4 -0.12 47.63 -0.12 47.86 -0.12 48.09 -0.12 48.32 -0.12 48.55 -0.12 48.78 -0.12 49 -0.12 49.23 -0.12 49.46 -0.12 49.69 -0.12 49.92 -0.12 50.15 -0.12 50.37 -0.12 50.6 -0.12 50.83 -0.12 51.06 -0.12 51.29 -0.12 51.52 -0.12 51.75 -0.12 51.97 -0.12 52.2 -0.12 52.43 -0.12 52.66 -0.12 52.89 -0.12 53.12 -0.12 53.34 -0.12 53.57 -0.12 53.8 -0.12 54.03 -0.12 54.26 -0.12 54.49 -0.12 54.72 -0.12 54.94 -0.12 55.17 -0.12 55.4 -0.12 55.63 -0.12 55.86 -0.12 56.09 -0.12 56.31 -0.12 56.54 -0.12 56.77 -0.12 57 -0.12" class="primitive"/>
          </g>
          <g transform="translate(80.42,51.31)" id="img-732c07a2-40" stroke-dasharray="none" stroke="#FF6DAE" class="color_3">
            <path fill="none" d="M-57,-9.07 L -56.77 -12.84 -56.54 -15.95 -56.31 -18.88 -56.09 -22.02 -55.86 -21.49 -55.63 -20.97 -55.4 -20.24 -55.17 -20.24 -54.94 -19.54 -54.72 -22.54 -54.49 -25.77 -54.26 -25.57 -54.03 -24.66 -53.8 -21.19 -53.57 -21.36 -53.34 -25.11 -53.12 -24.77 -52.89 -24.77 -52.66 -28.44 -52.43 -26.48 -52.2 -27.76 -51.97 -26.82 -51.75 -27.46 -51.52 -27.86 -51.29 -24.33 -51.06 -23.78 -50.83 -23.58 -50.6 -23.58 -50.37 -26.04 -50.15 -26.04 -49.92 -26.04 -49.69 -26.04 -49.46 -26.04 -49.23 -26.04 -49 -26.04 -48.78 -26.04 -48.55 -26.04 -48.32 -26.04 -48.09 -26.04 -47.86 -26.04 -47.63 -22.92 -47.4 -22.92 -47.18 -19.59 -46.95 -16.04 -46.72 -13.21 -46.49 -13.21 -46.26 -10.76 -46.03 -10.76 -45.81 -8.4 -45.58 -5.43 -45.35 -1.86 -45.12 -1.86 -44.89 2.88 -44.66 2.88 -44.43 2.88 -44.21 2.88 -43.98 2.88 -43.75 2.88 -43.52 2.88 -43.29 2.88 -43.06 2.88 -42.84 2.88 -42.61 2.88 -42.38 2.88 -42.15 2.88 -41.92 2.88 -41.69 2.88 -41.46 2.88 -41.24 1.84 -41.01 -2.38 -40.78 -0.6 -40.55 -0.6 -40.32 2.51 -40.09 2.51 -39.87 2.51 -39.64 2.51 -39.41 2.51 -39.18 2.51 -38.95 2.51 -38.72 2.51 -38.49 2.51 -38.27 2.51 -38.04 2.51 -37.81 2.51 -37.58 2.51 -37.35 2.51 -37.12 2.51 -36.9 2.51 -36.67 2.51 -36.44 2.51 -36.21 2.51 -35.98 2.51 -35.75 2.51 -35.53 2.51 -35.3 2.51 -35.07 2.51 -34.84 2.51 -34.61 2.51 -34.38 2.51 -34.15 2.51 -33.93 2.51 -33.7 2.51 -33.47 2.51 -33.24 2.51 -33.01 2.51 -32.78 2.51 -32.56 2.51 -32.33 2.51 -32.1 2.51 -31.87 2.51 -31.64 2.51 -31.41 2.51 -31.18 2.51 -30.96 2.51 -30.73 2.51 -30.5 2.51 -30.27 2.51 -30.04 2.51 -29.81 2.51 -29.59 2.51 -29.36 2.51 -29.13 2.51 -28.9 2.51 -28.67 2.51 -28.44 2.51 -28.21 2.51 -27.99 2.51 -27.76 2.51 -27.53 2.51 -27.3 2.51 -27.07 2.51 -26.84 2.51 -26.62 2.51 -26.39 2.51 -26.16 2.51 -25.93 2.51 -25.7 2.51 -25.47 2.51 -25.24 2.51 -25.02 2.51 -24.79 2.51 -24.56 2.51 -24.33 2.51 -24.1 2.51 -23.87 2.51 -23.65 2.51 -23.42 2.51 -23.19 2.51 -22.96 2.51 -22.73 2.51 -22.5 2.51 -22.27 2.51 -22.05 2.51 -21.82 2.51 -21.59 2.51 -21.36 2.51 -21.13 2.51 -20.9 2.51 -20.68 2.51 -20.45 2.51 -20.22 2.51 -19.99 2.51 -19.76 2.51 -19.53 2.51 -19.3 2.51 -19.08 2.51 -18.85 2.51 -18.62 2.51 -18.39 2.51 -18.16 2.51 -17.93 2.51 -17.71 2.51 -17.48 2.51 -17.25 2.51 -17.02 2.51 -16.79 2.51 -16.56 2.51 -16.33 2.51 -16.11 2.51 -15.88 2.51 -15.65 2.51 -15.42 2.51 -15.19 2.51 -14.96 2.51 -14.74 2.51 -14.51 2.51 -14.28 2.51 -14.05 2.51 -13.82 2.51 -13.59 2.51 -13.36 2.51 -13.14 2.51 -12.91 2.51 -12.68 2.51 -12.45 2.51 -12.22 2.51 -11.99 2.51 -11.77 2.51 -11.54 2.51 -11.31 2.51 -11.08 2.51 -10.85 2.51 -10.62 2.51 -10.39 2.51 -10.17 2.51 -9.94 2.51 -9.71 2.51 -9.48 2.51 -9.25 2.51 -9.02 2.51 -8.8 2.51 -8.57 2.51 -8.34 2.51 -8.11 2.51 -7.88 2.51 -7.65 2.51 -7.42 2.51 -7.2 2.51 -6.97 2.51 -6.74 2.51 -6.51 2.51 -6.28 2.51 -6.05 2.51 -5.83 2.51 -5.6 2.51 -5.37 2.51 -5.14 2.51 -4.91 2.51 -4.68 2.51 -4.45 2.51 -4.23 2.51 -4 2.51 -3.77 2.51 -3.54 2.51 -3.31 2.51 -3.08 2.51 -2.86 2.51 -2.63 2.51 -2.4 2.51 -2.17 2.51 -1.94 2.51 -1.71 2.51 -1.48 2.51 -1.26 2.51 -1.03 2.51 -0.8 2.51 -0.57 2.51 -0.34 2.51 -0.11 2.51 0.11 2.51 0.34 2.51 0.57 2.51 0.8 2.51 1.03 2.51 1.26 2.51 1.48 2.51 1.71 2.51 1.94 2.51 2.17 2.51 2.4 2.51 2.63 2.51 2.86 2.51 3.08 2.51 3.31 2.51 3.54 2.51 3.77 2.51 4 2.51 4.23 2.51 4.45 2.51 4.68 2.51 4.91 2.51 5.14 2.51 5.37 2.51 5.6 2.51 5.83 2.51 6.05 2.51 6.28 2.51 6.51 2.51 6.74 2.51 6.97 2.51 7.2 2.51 7.42 2.51 7.65 2.51 7.88 2.51 8.11 2.51 8.34 2.51 8.57 2.51 8.8 2.51 9.02 2.51 9.25 2.51 9.48 2.51 9.71 2.51 9.94 2.51 10.17 2.51 10.39 2.51 10.62 2.51 10.85 2.51 11.08 2.51 11.31 2.51 11.54 2.51 11.77 2.51 11.99 2.51 12.22 2.51 12.45 2.51 12.68 2.51 12.91 2.51 13.14 2.51 13.36 2.51 13.59 2.51 13.82 2.51 14.05 2.51 14.28 2.51 14.51 2.51 14.74 2.51 14.96 2.51 15.19 2.51 15.42 2.51 15.65 2.51 15.88 2.51 16.11 2.51 16.33 2.51 16.56 2.51 16.79 2.51 17.02 2.51 17.25 2.51 17.48 2.51 17.71 2.51 17.93 2.51 18.16 2.51 18.39 2.51 18.62 2.51 18.85 2.51 19.08 2.51 19.3 2.51 19.53 2.51 19.76 2.51 19.99 2.51 20.22 2.51 20.45 2.51 20.68 2.51 20.9 2.51 21.13 2.51 21.36 2.51 21.59 2.51 21.82 2.51 22.05 2.51 22.27 2.51 22.5 2.51 22.73 2.51 22.96 2.51 23.19 2.51 23.42 2.51 23.65 2.51 23.87 2.51 24.1 2.51 24.33 2.51 24.56 2.51 24.79 2.51 25.02 2.51 25.24 2.51 25.47 2.51 25.7 2.51 25.93 2.51 26.16 2.51 26.39 2.51 26.62 2.51 26.84 2.51 27.07 2.51 27.3 2.51 27.53 2.51 27.76 2.51 27.99 2.51 28.21 2.51 28.44 2.51 28.67 2.51 28.9 2.51 29.13 2.51 29.36 2.51 29.59 2.51 29.81 2.51 30.04 2.51 30.27 2.51 30.5 2.51 30.73 2.51 30.96 2.51 31.18 2.51 31.41 2.51 31.64 2.51 31.87 2.51 32.1 2.51 32.33 2.51 32.56 2.51 32.78 2.51 33.01 2.51 33.24 2.51 33.47 2.51 33.7 2.51 33.93 2.51 34.15 2.51 34.38 2.51 34.61 2.51 34.84 2.51 35.07 2.51 35.3 2.51 35.53 2.51 35.75 2.51 35.98 2.51 36.21 2.51 36.44 2.51 36.67 2.51 36.9 2.51 37.12 2.51 37.35 2.51 37.58 2.51 37.81 2.51 38.04 2.51 38.27 2.51 38.49 2.51 38.72 2.51 38.95 2.51 39.18 2.51 39.41 2.51 39.64 2.51 39.87 2.51 40.09 2.51 40.32 2.51 40.55 2.51 40.78 2.51 41.01 2.51 41.24 2.51 41.46 2.51 41.69 2.51 41.92 2.51 42.15 2.51 42.38 2.51 42.61 2.51 42.84 2.51 43.06 2.51 43.29 2.51 43.52 2.51 43.75 2.51 43.98 2.51 44.21 2.51 44.43 2.51 44.66 2.51 44.89 2.51 45.12 2.51 45.35 2.51 45.58 2.51 45.81 2.51 46.03 2.51 46.26 2.51 46.49 2.51 46.72 2.51 46.95 2.51 47.18 2.51 47.4 2.51 47.63 2.51 47.86 2.51 48.09 2.51 48.32 2.51 48.55 2.51 48.78 2.51 49 2.51 49.23 2.51 49.46 2.51 49.69 2.51 49.92 2.51 50.15 2.51 50.37 2.51 50.6 2.51 50.83 2.51 51.06 2.51 51.29 2.51 51.52 2.51 51.75 2.51 51.97 2.51 52.2 2.51 52.43 2.51 52.66 2.51 52.89 2.51 53.12 2.51 53.34 2.51 53.57 2.51 53.8 2.51 54.03 2.51 54.26 2.51 54.49 2.51 54.72 2.51 54.94 2.51 55.17 2.51 55.4 2.51 55.63 2.51 55.86 2.51 56.09 2.51 56.31 2.51 56.54 2.51 56.77 2.51 57 2.51" class="primitive"/>
          </g>
          <g transform="translate(80.42,62.05)" id="img-732c07a2-41" stroke-dasharray="none" stroke="#00B78D" class="color_1">
            <path fill="none" d="M-57,3.02 L -56.77 2.74 -56.54 2.52 -56.31 6.59 -56.09 2.73 -55.86 6.83 -55.63 7.22 -55.4 7.78 -55.17 7.98 -54.94 3.71 -54.72 3.51 -54.49 3.98 -54.26 8.78 -54.03 8.78 -53.8 8.28 -53.57 12.18 -53.34 11.39 -53.12 10.29 -52.89 10.29 -52.66 13.96 -52.43 13.96 -52.2 12.3 -51.97 11.45 -51.75 15.11 -51.52 14.49 -51.29 10.8 -51.06 10.64 -50.83 14.08 -50.6 10.07 -50.37 12.53 -50.15 8.03 -49.92 3.18 -49.69 3.18 -49.46 3.18 -49.23 -0.61 -49 -0.61 -48.78 -0.61 -48.55 -0.61 -48.32 -0.61 -48.09 -0.61 -47.86 -0.61 -47.63 -0.61 -47.4 -0.61 -47.18 -0.61 -46.95 -0.61 -46.72 -0.61 -46.49 -0.61 -46.26 -0.61 -46.03 -0.61 -45.81 -0.61 -45.58 -0.61 -45.35 -0.61 -45.12 -0.61 -44.89 -0.61 -44.66 -0.61 -44.43 -0.61 -44.21 -0.61 -43.98 -0.61 -43.75 -0.61 -43.52 -0.61 -43.29 -0.61 -43.06 -0.61 -42.84 -0.61 -42.61 -0.61 -42.38 -0.61 -42.15 -0.61 -41.92 -0.61 -41.69 -0.61 -41.46 -0.61 -41.24 -0.61 -41.01 -0.61 -40.78 -0.61 -40.55 -0.61 -40.32 -0.61 -40.09 -0.61 -39.87 -0.61 -39.64 -0.61 -39.41 -0.61 -39.18 -0.61 -38.95 -0.61 -38.72 -0.61 -38.49 -0.61 -38.27 -0.61 -38.04 -0.61 -37.81 -0.61 -37.58 -0.61 -37.35 -0.61 -37.12 -0.61 -36.9 -0.61 -36.67 -0.61 -36.44 -0.61 -36.21 -0.61 -35.98 -0.61 -35.75 -0.61 -35.53 -0.61 -35.3 -0.61 -35.07 -0.61 -34.84 -0.61 -34.61 -0.61 -34.38 -0.61 -34.15 -0.61 -33.93 -0.61 -33.7 -0.61 -33.47 -0.61 -33.24 -0.61 -33.01 -0.61 -32.78 -0.61 -32.56 -0.61 -32.33 -0.61 -32.1 -0.61 -31.87 -0.61 -31.64 -0.61 -31.41 -0.61 -31.18 -0.61 -30.96 -0.61 -30.73 -0.61 -30.5 -0.61 -30.27 -0.61 -30.04 -0.61 -29.81 -0.61 -29.59 -0.61 -29.36 -0.61 -29.13 -0.61 -28.9 -0.61 -28.67 -0.61 -28.44 -0.61 -28.21 -0.61 -27.99 -0.61 -27.76 -0.61 -27.53 -0.61 -27.3 -0.61 -27.07 -0.61 -26.84 -0.61 -26.62 -0.61 -26.39 -0.61 -26.16 -0.61 -25.93 -0.61 -25.7 -0.61 -25.47 -0.61 -25.24 -0.61 -25.02 -0.61 -24.79 -0.61 -24.56 -0.61 -24.33 -0.61 -24.1 -0.61 -23.87 -0.61 -23.65 -0.61 -23.42 -0.61 -23.19 -0.61 -22.96 -0.61 -22.73 -0.61 -22.5 -0.61 -22.27 -0.61 -22.05 -0.61 -21.82 -0.61 -21.59 -0.61 -21.36 -0.61 -21.13 -0.61 -20.9 -0.61 -20.68 -0.61 -20.45 -0.61 -20.22 -0.61 -19.99 -0.61 -19.76 -0.61 -19.53 -0.61 -19.3 -0.61 -19.08 -0.61 -18.85 -0.61 -18.62 -0.61 -18.39 -0.61 -18.16 -0.61 -17.93 -0.61 -17.71 -0.61 -17.48 -0.61 -17.25 -0.61 -17.02 -0.61 -16.79 -0.61 -16.56 -0.61 -16.33 -0.61 -16.11 -0.61 -15.88 -0.61 -15.65 -0.61 -15.42 -0.61 -15.19 -0.61 -14.96 -0.61 -14.74 -0.61 -14.51 -0.61 -14.28 -0.61 -14.05 -0.61 -13.82 -0.61 -13.59 -0.61 -13.36 -0.61 -13.14 -0.61 -12.91 -0.61 -12.68 -0.61 -12.45 -0.61 -12.22 -0.61 -11.99 -0.61 -11.77 -0.61 -11.54 -0.61 -11.31 -0.61 -11.08 -0.61 -10.85 -0.61 -10.62 -0.61 -10.39 -0.61 -10.17 -0.61 -9.94 -0.61 -9.71 -0.61 -9.48 -0.61 -9.25 -0.61 -9.02 -0.61 -8.8 -0.61 -8.57 -0.61 -8.34 -0.61 -8.11 -0.61 -7.88 -0.61 -7.65 -0.61 -7.42 -0.61 -7.2 -0.61 -6.97 -0.61 -6.74 -0.61 -6.51 -0.61 -6.28 -0.61 -6.05 -0.61 -5.83 -0.61 -5.6 -0.61 -5.37 -0.61 -5.14 -0.61 -4.91 -0.61 -4.68 -0.61 -4.45 -0.61 -4.23 -0.61 -4 -0.61 -3.77 -0.61 -3.54 -0.61 -3.31 -0.61 -3.08 -0.61 -2.86 -0.61 -2.63 -0.61 -2.4 -0.61 -2.17 -0.61 -1.94 -0.61 -1.71 -0.61 -1.48 -0.61 -1.26 -0.61 -1.03 -0.61 -0.8 -0.61 -0.57 -0.61 -0.34 -0.61 -0.11 -0.61 0.11 -0.61 0.34 -0.61 0.57 -0.61 0.8 -0.61 1.03 -0.61 1.26 -0.61 1.48 -0.61 1.71 -0.61 1.94 -0.61 2.17 -0.61 2.4 -0.61 2.63 -0.61 2.86 -0.61 3.08 -0.61 3.31 -0.61 3.54 -0.61 3.77 -0.61 4 -0.61 4.23 -0.61 4.45 -0.61 4.68 -0.61 4.91 -0.61 5.14 -0.61 5.37 -0.61 5.6 -0.61 5.83 -0.61 6.05 -0.61 6.28 -0.61 6.51 -0.61 6.74 -0.61 6.97 -0.61 7.2 -0.61 7.42 -0.61 7.65 -0.61 7.88 -0.61 8.11 -0.61 8.34 -0.61 8.57 -0.61 8.8 -0.61 9.02 -0.61 9.25 -0.61 9.48 -0.61 9.71 -0.61 9.94 -0.61 10.17 -0.61 10.39 -0.61 10.62 -0.61 10.85 -0.61 11.08 -0.61 11.31 -0.61 11.54 -0.61 11.77 -0.61 11.99 -0.61 12.22 -0.61 12.45 -0.61 12.68 -0.61 12.91 -0.61 13.14 -0.61 13.36 -0.61 13.59 -0.61 13.82 -0.61 14.05 -0.61 14.28 -0.61 14.51 -0.61 14.74 -0.61 14.96 -0.61 15.19 -0.61 15.42 -0.61 15.65 -0.61 15.88 -0.61 16.11 -0.61 16.33 -0.61 16.56 -0.61 16.79 -0.61 17.02 -0.61 17.25 -0.61 17.48 -0.61 17.71 -0.61 17.93 -0.61 18.16 -0.61 18.39 -0.61 18.62 -0.61 18.85 -0.61 19.08 -0.61 19.3 -0.61 19.53 -0.61 19.76 -0.61 19.99 -0.61 20.22 -0.61 20.45 -0.61 20.68 -0.61 20.9 -0.61 21.13 -0.61 21.36 -0.61 21.59 -0.61 21.82 -0.61 22.05 -0.61 22.27 -0.61 22.5 -0.61 22.73 -0.61 22.96 -0.61 23.19 -0.61 23.42 -0.61 23.65 -0.61 23.87 -0.61 24.1 -0.61 24.33 -0.61 24.56 -0.61 24.79 -0.61 25.02 -0.61 25.24 -0.61 25.47 -0.61 25.7 -0.61 25.93 -0.61 26.16 -0.61 26.39 -0.61 26.62 -0.61 26.84 -0.61 27.07 -0.61 27.3 -0.61 27.53 -0.61 27.76 -0.61 27.99 -0.61 28.21 -0.61 28.44 -0.61 28.67 -0.61 28.9 -0.61 29.13 -0.61 29.36 -0.61 29.59 -0.61 29.81 -0.61 30.04 -0.61 30.27 -0.61 30.5 -0.61 30.73 -0.61 30.96 -0.61 31.18 -0.61 31.41 -0.61 31.64 -0.61 31.87 -0.61 32.1 -0.61 32.33 -0.61 32.56 -0.61 32.78 -0.61 33.01 -0.61 33.24 -0.61 33.47 -0.61 33.7 -0.61 33.93 -0.61 34.15 -0.61 34.38 -0.61 34.61 -0.61 34.84 -0.61 35.07 -0.61 35.3 -0.61 35.53 -0.61 35.75 -0.61 35.98 -0.61 36.21 -0.61 36.44 -0.61 36.67 -0.61 36.9 -0.61 37.12 -0.61 37.35 -0.61 37.58 -0.61 37.81 -0.61 38.04 -0.61 38.27 -0.61 38.49 -0.61 38.72 -0.61 38.95 -0.61 39.18 -0.61 39.41 -0.61 39.64 -0.61 39.87 -0.61 40.09 -0.61 40.32 -0.61 40.55 -0.61 40.78 -0.61 41.01 -0.61 41.24 -0.61 41.46 -0.61 41.69 -0.61 41.92 -0.61 42.15 -0.61 42.38 -0.61 42.61 -0.61 42.84 -0.61 43.06 -0.61 43.29 -0.61 43.52 -0.61 43.75 -0.61 43.98 -0.61 44.21 -0.61 44.43 -0.61 44.66 -0.61 44.89 -0.61 45.12 -0.61 45.35 -0.61 45.58 -0.61 45.81 -0.61 46.03 -0.61 46.26 -0.61 46.49 -0.61 46.72 -0.61 46.95 -0.61 47.18 -0.61 47.4 -0.61 47.63 -0.61 47.86 -0.61 48.09 -0.61 48.32 -0.61 48.55 -0.61 48.78 -0.61 49 -0.61 49.23 -0.61 49.46 -0.61 49.69 -0.61 49.92 -0.61 50.15 -0.61 50.37 -0.61 50.6 -0.61 50.83 -0.61 51.06 -0.61 51.29 -0.61 51.52 -0.61 51.75 -0.61 51.97 -0.61 52.2 -0.61 52.43 -0.61 52.66 -0.61 52.89 -0.61 53.12 -0.61 53.34 -0.61 53.57 -0.61 53.8 -0.61 54.03 -0.61 54.26 -0.61 54.49 -0.61 54.72 -0.61 54.94 -0.61 55.17 -0.61 55.4 -0.61 55.63 -0.61 55.86 -0.61 56.09 -0.61 56.31 -0.61 56.54 -0.61 56.77 -0.61 57 -0.61" class="primitive"/>
          </g>
          <g transform="translate(80.42,54.91)" id="img-732c07a2-42" stroke-dasharray="none" stroke="#BEA9FF" class="color_0">
            <path fill="none" d="M-57,-5.81 L -56.77 -7.87 -56.54 -8.2 -56.31 -8.71 -56.09 -5.22 -55.86 -9.32 -55.63 -9.76 -55.4 -10.24 -55.17 -10.87 -54.94 -7.28 -54.72 -8.11 -54.49 -8.95 -54.26 -13.75 -54.03 -13.75 -53.8 -17.41 -53.57 -17.49 -53.34 -21.25 -53.12 -21.14 -52.89 -21.14 -52.66 -20.82 -52.43 -20.82 -52.2 -20.24 -51.97 -19.43 -51.75 -19.39 -51.52 -23.06 -51.29 -19.83 -51.06 -19.63 -50.83 -23.06 -50.6 -19.3 -50.37 -21.76 -50.15 -19.14 -49.92 -19.14 -49.69 -19.14 -49.46 -19.14 -49.23 -16.26 -49 -16.26 -48.78 -16.26 -48.55 -13.09 -48.32 -9.74 -48.09 -7.32 -47.86 -6.16 -47.63 -6.16 -47.4 -3.74 -47.18 -1.46 -46.95 1.37 -46.72 1.37 -46.49 1.37 -46.26 1.37 -46.03 1.37 -45.81 1.37 -45.58 1.37 -45.35 1.37 -45.12 1.37 -44.89 1.37 -44.66 1.37 -44.43 1.37 -44.21 1.37 -43.98 1.37 -43.75 1.37 -43.52 1.37 -43.29 1.37 -43.06 1.37 -42.84 1.37 -42.61 1.37 -42.38 1.37 -42.15 1.37 -41.92 1.37 -41.69 1.37 -41.46 1.37 -41.24 1.37 -41.01 1.37 -40.78 1.37 -40.55 1.37 -40.32 1.37 -40.09 1.37 -39.87 1.37 -39.64 1.37 -39.41 1.37 -39.18 1.37 -38.95 1.37 -38.72 1.37 -38.49 1.37 -38.27 1.37 -38.04 1.37 -37.81 1.37 -37.58 1.37 -37.35 1.37 -37.12 1.37 -36.9 1.37 -36.67 1.37 -36.44 1.37 -36.21 1.37 -35.98 1.37 -35.75 1.37 -35.53 1.37 -35.3 1.37 -35.07 1.37 -34.84 1.37 -34.61 1.37 -34.38 1.37 -34.15 1.37 -33.93 1.37 -33.7 1.37 -33.47 1.37 -33.24 1.37 -33.01 1.37 -32.78 1.37 -32.56 1.37 -32.33 1.37 -32.1 1.37 -31.87 1.37 -31.64 1.37 -31.41 1.37 -31.18 1.37 -30.96 1.37 -30.73 1.37 -30.5 1.37 -30.27 1.37 -30.04 1.37 -29.81 1.37 -29.59 1.37 -29.36 1.37 -29.13 1.37 -28.9 1.37 -28.67 1.37 -28.44 1.37 -28.21 1.37 -27.99 1.37 -27.76 1.37 -27.53 1.37 -27.3 1.37 -27.07 1.37 -26.84 1.37 -26.62 1.37 -26.39 1.37 -26.16 1.37 -25.93 1.37 -25.7 1.37 -25.47 1.37 -25.24 1.37 -25.02 1.37 -24.79 1.37 -24.56 1.37 -24.33 1.37 -24.1 1.37 -23.87 1.37 -23.65 1.37 -23.42 1.37 -23.19 1.37 -22.96 1.37 -22.73 1.37 -22.5 1.37 -22.27 1.37 -22.05 1.37 -21.82 1.37 -21.59 1.37 -21.36 1.37 -21.13 1.37 -20.9 1.37 -20.68 1.37 -20.45 1.37 -20.22 1.37 -19.99 1.37 -19.76 1.37 -19.53 1.37 -19.3 1.37 -19.08 1.37 -18.85 1.37 -18.62 1.37 -18.39 1.37 -18.16 1.37 -17.93 1.37 -17.71 1.37 -17.48 1.37 -17.25 1.37 -17.02 1.37 -16.79 1.37 -16.56 1.37 -16.33 1.37 -16.11 1.37 -15.88 1.37 -15.65 1.37 -15.42 1.37 -15.19 1.37 -14.96 1.37 -14.74 1.37 -14.51 1.37 -14.28 1.37 -14.05 1.37 -13.82 1.37 -13.59 1.37 -13.36 1.37 -13.14 1.37 -12.91 1.37 -12.68 1.37 -12.45 1.37 -12.22 1.37 -11.99 1.37 -11.77 1.37 -11.54 1.37 -11.31 1.37 -11.08 1.37 -10.85 1.37 -10.62 1.37 -10.39 1.37 -10.17 1.37 -9.94 1.37 -9.71 1.37 -9.48 1.37 -9.25 1.37 -9.02 1.37 -8.8 1.37 -8.57 1.37 -8.34 1.37 -8.11 1.37 -7.88 1.37 -7.65 1.37 -7.42 1.37 -7.2 1.37 -6.97 1.37 -6.74 1.37 -6.51 1.37 -6.28 1.37 -6.05 1.37 -5.83 1.37 -5.6 1.37 -5.37 1.37 -5.14 1.37 -4.91 1.37 -4.68 1.37 -4.45 1.37 -4.23 1.37 -4 1.37 -3.77 1.37 -3.54 1.37 -3.31 1.37 -3.08 1.37 -2.86 1.37 -2.63 1.37 -2.4 1.37 -2.17 1.37 -1.94 1.37 -1.71 1.37 -1.48 1.37 -1.26 1.37 -1.03 1.37 -0.8 1.37 -0.57 1.37 -0.34 1.37 -0.11 1.37 0.11 1.37 0.34 1.37 0.57 1.37 0.8 1.37 1.03 1.37 1.26 1.37 1.48 1.37 1.71 1.37 1.94 1.37 2.17 1.37 2.4 1.37 2.63 1.37 2.86 1.37 3.08 1.37 3.31 1.37 3.54 1.37 3.77 1.37 4 1.37 4.23 1.37 4.45 1.37 4.68 1.37 4.91 1.37 5.14 1.37 5.37 1.37 5.6 1.37 5.83 1.37 6.05 1.37 6.28 1.37 6.51 1.37 6.74 1.37 6.97 1.37 7.2 1.37 7.42 1.37 7.65 1.37 7.88 1.37 8.11 1.37 8.34 1.37 8.57 1.37 8.8 1.37 9.02 1.37 9.25 1.37 9.48 1.37 9.71 1.37 9.94 1.37 10.17 1.37 10.39 1.37 10.62 1.37 10.85 1.37 11.08 1.37 11.31 1.37 11.54 1.37 11.77 1.37 11.99 1.37 12.22 1.37 12.45 1.37 12.68 1.37 12.91 1.37 13.14 1.37 13.36 1.37 13.59 1.37 13.82 1.37 14.05 1.37 14.28 1.37 14.51 1.37 14.74 1.37 14.96 1.37 15.19 1.37 15.42 1.37 15.65 1.37 15.88 1.37 16.11 1.37 16.33 1.37 16.56 1.37 16.79 1.37 17.02 1.37 17.25 1.37 17.48 1.37 17.71 1.37 17.93 1.37 18.16 1.37 18.39 1.37 18.62 1.37 18.85 1.37 19.08 1.37 19.3 1.37 19.53 1.37 19.76 1.37 19.99 1.37 20.22 1.37 20.45 1.37 20.68 1.37 20.9 1.37 21.13 1.37 21.36 1.37 21.59 1.37 21.82 1.37 22.05 1.37 22.27 1.37 22.5 1.37 22.73 1.37 22.96 1.37 23.19 1.37 23.42 1.37 23.65 1.37 23.87 1.37 24.1 1.37 24.33 1.37 24.56 1.37 24.79 1.37 25.02 1.37 25.24 1.37 25.47 1.37 25.7 1.37 25.93 1.37 26.16 1.37 26.39 1.37 26.62 1.37 26.84 1.37 27.07 1.37 27.3 1.37 27.53 1.37 27.76 1.37 27.99 1.37 28.21 1.37 28.44 1.37 28.67 1.37 28.9 1.37 29.13 1.37 29.36 1.37 29.59 1.37 29.81 1.37 30.04 1.37 30.27 1.37 30.5 1.37 30.73 1.37 30.96 1.37 31.18 1.37 31.41 1.37 31.64 1.37 31.87 1.37 32.1 1.37 32.33 1.37 32.56 1.37 32.78 1.37 33.01 1.37 33.24 1.37 33.47 1.37 33.7 1.37 33.93 1.37 34.15 1.37 34.38 1.37 34.61 1.37 34.84 1.37 35.07 1.37 35.3 1.37 35.53 1.37 35.75 1.37 35.98 1.37 36.21 1.37 36.44 1.37 36.67 1.37 36.9 1.37 37.12 1.37 37.35 1.37 37.58 1.37 37.81 1.37 38.04 1.37 38.27 1.37 38.49 1.37 38.72 1.37 38.95 1.37 39.18 1.37 39.41 1.37 39.64 1.37 39.87 1.37 40.09 1.37 40.32 1.37 40.55 1.37 40.78 1.37 41.01 1.37 41.24 1.37 41.46 1.37 41.69 1.37 41.92 1.37 42.15 1.37 42.38 1.37 42.61 1.37 42.84 1.37 43.06 1.37 43.29 1.37 43.52 1.37 43.75 1.37 43.98 1.37 44.21 1.37 44.43 1.37 44.66 1.37 44.89 1.37 45.12 1.37 45.35 1.37 45.58 1.37 45.81 1.37 46.03 1.37 46.26 1.37 46.49 1.37 46.72 1.37 46.95 1.37 47.18 1.37 47.4 1.37 47.63 1.37 47.86 1.37 48.09 1.37 48.32 1.37 48.55 1.37 48.78 1.37 49 1.37 49.23 1.37 49.46 1.37 49.69 1.37 49.92 1.37 50.15 1.37 50.37 1.37 50.6 1.37 50.83 1.37 51.06 1.37 51.29 1.37 51.52 1.37 51.75 1.37 51.97 1.37 52.2 1.37 52.43 1.37 52.66 1.37 52.89 1.37 53.12 1.37 53.34 1.37 53.57 1.37 53.8 1.37 54.03 1.37 54.26 1.37 54.49 1.37 54.72 1.37 54.94 1.37 55.17 1.37 55.4 1.37 55.63 1.37 55.86 1.37 56.09 1.37 56.31 1.37 56.54 1.37 56.77 1.37 57 1.37" class="primitive"/>
          </g>
        </g>
      </g>
    </g>
  </g>
  <g class="guide ylabels" font-size="2.82" font-family="'PT Sans Caption','Helvetica Neue','Helvetica',sans-serif" fill="#6C606B" id="img-732c07a2-43">
    <g transform="translate(20.42,78.72)" id="img-732c07a2-44">
      <g class="primitive">
        <text text-anchor="end" dy="0.35em">-0.02</text>
      </g>
    </g>
    <g transform="translate(20.42,60.79)" id="img-732c07a2-45">
      <g class="primitive">
        <text text-anchor="end" dy="0.35em">0.00</text>
      </g>
    </g>
    <g transform="translate(20.42,42.86)" id="img-732c07a2-46">
      <g class="primitive">
        <text text-anchor="end" dy="0.35em">0.02</text>
      </g>
    </g>
    <g transform="translate(20.42,24.93)" id="img-732c07a2-47">
      <g class="primitive">
        <text text-anchor="end" dy="0.35em">0.04</text>
      </g>
    </g>
    <g transform="translate(20.42,7)" id="img-732c07a2-48">
      <g class="primitive">
        <text text-anchor="end" dy="0.35em">0.06</text>
      </g>
    </g>
  </g>
  <g font-size="3.88" font-family="'PT Sans','Helvetica Neue','Helvetica',sans-serif" fill="#564A55" stroke="#000000" stroke-opacity="0.000" id="img-732c07a2-49">
    <g transform="translate(8.81,40.86)" id="img-732c07a2-50">
      <g class="primitive">
        <text text-anchor="middle" dy="0.35em" transform="rotate(-90,0, 2)">Diferença de pontuação externa</text>
      </g>
    </g>
  </g>
</g>
<defs>
  <clipPath id="img-732c07a2-19">
    <path d="M21.42,5 L 139.65 5 139.65 80.72 21.42 80.72" />
  </clipPath>
</defs>
</svg>
