<?xml version="1.0" encoding="UTF-8"?>
<svg xmlns="http://www.w3.org/2000/svg"
     xmlns:xlink="http://www.w3.org/1999/xlink"
     xmlns:gadfly="http://www.gadflyjl.org/ns"
     version="1.2"
     width="150mm" height="100mm" viewBox="0 0 150 100"
     stroke="none"
     fill="#000000"
     stroke-width="0.3"
     font-size="3.88"
>
<defs>
  <marker id="arrow" markerWidth="15" markerHeight="7" refX="5" refY="3.5" orient="auto" markerUnits="strokeWidth">
    <path d="M0,0 L15,3.5 L0,7 z" stroke="context-stroke" fill="context-stroke"/>
  </marker>
</defs>
<g class="plotroot xscalable yscalable" id="img-e3def875-1">
  <g font-size="3.88" font-family="'PT Sans','Helvetica Neue','Helvetica',sans-serif" fill="#564A55" stroke="#000000" stroke-opacity="0.000" id="img-e3def875-2">
    <g transform="translate(76.96,88.39)">
      <g class="primitive">
        <text text-anchor="middle" dy="0.6em">Tempo</text>
      </g>
    </g>
  </g>
  <g class="guide xlabels" font-size="2.82" font-family="'PT Sans Caption','Helvetica Neue','Helvetica',sans-serif" fill="#6C606B" id="img-e3def875-3">
    <g transform="translate(19.96,81.72)">
      <g class="primitive">
        <text text-anchor="middle" dy="0.6em">0</text>
      </g>
    </g>
    <g transform="translate(76.96,81.72)">
      <g class="primitive">
        <text text-anchor="middle" dy="0.6em">500</text>
      </g>
    </g>
    <g transform="translate(133.96,81.72)">
      <g class="primitive">
        <text text-anchor="middle" dy="0.6em">1000</text>
      </g>
    </g>
  </g>
  <g class="guide colorkey" id="img-e3def875-4">
    <g fill="#4C404B" font-size="2.82" font-family="'PT Sans','Helvetica Neue','Helvetica',sans-serif" id="img-e3def875-5">
      <g transform="translate(139.77,37.42)" id="img-e3def875-6" class="color_0.0">
        <g class="primitive">
          <text dy="0.35em">0.0</text>
        </g>
      </g>
      <g transform="translate(139.77,41.04)" id="img-e3def875-7" class="color_0.25">
        <g class="primitive">
          <text dy="0.35em">0.25</text>
        </g>
      </g>
      <g transform="translate(139.77,44.67)" id="img-e3def875-8" class="color_0.5">
        <g class="primitive">
          <text dy="0.35em">0.5</text>
        </g>
      </g>
      <g transform="translate(139.77,48.3)" id="img-e3def875-9" class="color_0.75">
        <g class="primitive">
          <text dy="0.35em">0.75</text>
        </g>
      </g>
      <g transform="translate(139.77,51.92)" id="img-e3def875-10" class="color_1.0">
        <g class="primitive">
          <text dy="0.35em">1.0</text>
        </g>
      </g>
    </g>
    <g stroke="#000000" stroke-opacity="0.000" id="img-e3def875-11">
      <g transform="translate(137.87,37.42)" id="img-e3def875-12" fill="#00BFFF" class="color_0.0">
        <path d="M-0.91,-0.91 L 0.91 -0.91 0.91 0.91 -0.91 0.91 z" class="primitive"/>
      </g>
      <g transform="translate(137.87,41.04)" id="img-e3def875-13" fill="#D4CA3A" class="color_0.25">
        <path d="M-0.91,-0.91 L 0.91 -0.91 0.91 0.91 -0.91 0.91 z" class="primitive"/>
      </g>
      <g transform="translate(137.87,44.67)" id="img-e3def875-14" fill="#FF6DAE" class="color_0.5">
        <path d="M-0.91,-0.91 L 0.91 -0.91 0.91 0.91 -0.91 0.91 z" class="primitive"/>
      </g>
      <g transform="translate(137.87,48.3)" id="img-e3def875-15" fill="#00B78D" class="color_0.75">
        <path d="M-0.91,-0.91 L 0.91 -0.91 0.91 0.91 -0.91 0.91 z" class="primitive"/>
      </g>
      <g transform="translate(137.87,51.92)" id="img-e3def875-16" fill="#BEA9FF" class="color_1.0">
        <path d="M-0.91,-0.91 L 0.91 -0.91 0.91 0.91 -0.91 0.91 z" class="primitive"/>
      </g>
    </g>
    <g fill="#362A35" font-size="3.88" font-family="'PT Sans','Helvetica Neue','Helvetica',sans-serif" stroke="#000000" stroke-opacity="0.000" id="img-e3def875-17">
      <g transform="translate(136.96,33.6)" id="img-e3def875-18">
        <g class="primitive">
          <text>b</text>
        </g>
      </g>
    </g>
  </g>
  <g clip-path="url(#img-e3def875-19)">
    <g id="img-e3def875-20">
      <g pointer-events="visible" fill="#000000" fill-opacity="0.000" stroke="#000000" stroke-opacity="0.000" class="guide background" id="img-e3def875-21">
        <g transform="translate(76.96,42.86)" id="img-e3def875-22">
          <path d="M-59,-37.86 L 59 -37.86 59 37.86 -59 37.86 z" class="primitive"/>
        </g>
      </g>
      <g class="guide ygridlines xfixed" stroke-dasharray="0.5,0.5" stroke-width="0.2" stroke="#D0D0E0" id="img-e3def875-23">
        <g transform="translate(76.96,78.71)" id="img-e3def875-24">
          <path fill="none" d="M-59,0 L 59 0" class="primitive"/>
        </g>
        <g transform="translate(76.96,54.81)" id="img-e3def875-25">
          <path fill="none" d="M-59,0 L 59 0" class="primitive"/>
        </g>
        <g transform="translate(76.96,30.9)" id="img-e3def875-26">
          <path fill="none" d="M-59,0 L 59 0" class="primitive"/>
        </g>
        <g transform="translate(76.96,7)" id="img-e3def875-27">
          <path fill="none" d="M-59,0 L 59 0" class="primitive"/>
        </g>
      </g>
      <g class="guide xgridlines yfixed" stroke-dasharray="0.5,0.5" stroke-width="0.2" stroke="#D0D0E0" id="img-e3def875-28">
        <g transform="translate(19.96,42.86)" id="img-e3def875-29">
          <path fill="none" d="M0,-37.86 L 0 37.86" class="primitive"/>
        </g>
        <g transform="translate(76.96,42.86)" id="img-e3def875-30">
          <path fill="none" d="M0,-37.86 L 0 37.86" class="primitive"/>
        </g>
        <g transform="translate(133.96,42.86)" id="img-e3def875-31">
          <path fill="none" d="M0,-37.86 L 0 37.86" class="primitive"/>
        </g>
      </g>
      <g class="plotpanel" id="img-e3def875-32">
        <metadata>
          <boundingbox value="17.958333333333343mm 5.0mm 118.00166666666667mm 75.715mm"/>
          <unitbox value="-17.54360316369644 50.83664505333612 1035.0872063273928 -31.673290106672248"/>
        </metadata>
        <g stroke-width="0.3" fill="#000000" fill-opacity="0.000" class="geometry" id="img-e3def875-33">
          <g transform="translate(76.39,68.84)" id="img-e3def875-34" stroke-dasharray="none" stroke="#00BFFF" class="color_0.0">
            <path fill="none" d="M-56.43,-61.48 L -55.29 -61.49 -54.15 -61.04 -53.01 -50.11 -51.87 -29.43 -50.73 -10.63 -49.59 -0.96 -48.45 1.74 -47.31 2.56 -46.17 2.91 -45.03 3.11 -43.89 3.19 -42.75 3.21 -41.61 3.24 -40.47 3.22 -39.33 3.2 -38.19 3.21 -37.05 3.21 -35.91 3.18 -34.77 3.18 -33.63 3.21 -32.49 3.21 -31.35 3.19 -30.21 3.14 -29.07 3.15 -27.93 3.14 -26.79 3.14 -25.65 3.12 -24.51 3.1 -23.37 3.1 -22.23 3.08 -21.09 3.08 -19.95 3.07 -18.81 3.05 -17.67 3.03 -16.53 3.04 -15.39 3.04 -14.25 3.03 -13.11 3.02 -11.97 3.01 -10.83 3.02 -9.69 3 -8.55 2.98 -7.41 3 -6.27 2.97 -5.13 2.95 -3.99 2.97 -2.85 2.96 -1.71 2.94 -0.57 2.94 0.57 2.94 1.71 2.92 2.85 2.94 3.99 2.93 5.13 2.92 6.27 2.93 7.41 2.92 8.55 2.91 9.69 2.91 10.83 2.91 11.97 2.9 13.11 2.9 14.25 2.88 15.39 2.89 16.53 2.88 17.67 2.85 18.81 2.86 19.95 2.87 21.09 2.85 22.23 2.83 23.37 2.83 24.51 2.85 25.65 2.83 26.79 2.84 27.93 2.84 29.07 2.88 30.21 2.89 31.35 2.89 32.49 2.91 33.63 2.9 34.77 2.93 35.91 2.93 37.05 2.91 38.19 2.91 39.33 2.9 40.47 2.92 41.61 2.9 42.75 2.91 43.89 2.9 45.03 2.91 46.17 2.9 47.31 2.9 48.45 2.88 49.59 2.85 50.73 2.88 51.87 2.85 53.01 2.84 54.15 2.82 55.29 2.83 56.43 2.82" class="primitive"/>
          </g>
          <g transform="translate(76.39,69.69)" id="img-e3def875-35" stroke-dasharray="none" stroke="#D4CA3A" class="color_0.25">
            <path fill="none" d="M-56.43,-62.33 L -55.29 -62.35 -54.15 -61.74 -53.01 -50.13 -51.87 -28.68 -50.73 -10.16 -49.59 -0.42 -48.45 1.85 -47.31 2.62 -46.17 2.95 -45.03 3.12 -43.89 3.18 -42.75 3.21 -41.61 3.24 -40.47 3.26 -39.33 3.27 -38.19 3.26 -37.05 3.26 -35.91 3.25 -34.77 3.23 -33.63 3.22 -32.49 3.22 -31.35 3.2 -30.21 3.19 -29.07 3.21 -27.93 3.2 -26.79 3.17 -25.65 3.15 -24.51 3.15 -23.37 3.16 -22.23 3.16 -21.09 3.14 -19.95 3.14 -18.81 3.12 -17.67 3.11 -16.53 3.1 -15.39 3.1 -14.25 3.08 -13.11 3.1 -11.97 3.06 -10.83 3.06 -9.69 3.05 -8.55 3.05 -7.41 3.04 -6.27 3.05 -5.13 3.03 -3.99 3.04 -2.85 3.03 -1.71 3.02 -0.57 3.01 0.57 3.01 1.71 3.01 2.85 3.02 3.99 3.01 5.13 3.01 6.27 3.01 7.41 3.02 8.55 3 9.69 2.99 10.83 3 11.97 2.98 13.11 2.95 14.25 2.96 15.39 2.96 16.53 2.94 17.67 2.95 18.81 2.93 19.95 2.92 21.09 2.91 22.23 2.9 23.37 2.89 24.51 2.88 25.65 2.87 26.79 2.88 27.93 2.86 29.07 2.84 30.21 2.81 31.35 2.8 32.49 2.81 33.63 2.8 34.77 2.81 35.91 2.79 37.05 2.8 38.19 2.79 39.33 2.78 40.47 2.77 41.61 2.75 42.75 2.74 43.89 2.76 45.03 2.75 46.17 2.72 47.31 2.73 48.45 2.73 49.59 2.74 50.73 2.73 51.87 2.71 53.01 2.69 54.15 2.71 55.29 2.71 56.43 2.66" class="primitive"/>
          </g>
          <g transform="translate(76.39,69.13)" id="img-e3def875-36" stroke-dasharray="none" stroke="#FF6DAE" class="color_0.5">
            <path fill="none" d="M-56.43,-61.71 L -55.29 -61.71 -54.15 -61.15 -53.01 -49.3 -51.87 -28.08 -50.73 -9.73 -49.59 -0.51 -48.45 1.95 -47.31 2.62 -46.17 2.83 -45.03 3.01 -43.89 3.11 -42.75 3.16 -41.61 3.18 -40.47 3.18 -39.33 3.18 -38.19 3.18 -37.05 3.17 -35.91 3.14 -34.77 3.17 -33.63 3.17 -32.49 3.16 -31.35 3.16 -30.21 3.18 -29.07 3.18 -27.93 3.16 -26.79 3.16 -25.65 3.15 -24.51 3.13 -23.37 3.14 -22.23 3.12 -21.09 3.14 -19.95 3.12 -18.81 3.1 -17.67 3.07 -16.53 3.07 -15.39 3.07 -14.25 3.06 -13.11 3.05 -11.97 3.06 -10.83 3.03 -9.69 3.03 -8.55 3.03 -7.41 3.02 -6.27 3.03 -5.13 3.02 -3.99 3.01 -2.85 3 -1.71 2.98 -0.57 2.97 0.57 2.99 1.71 2.95 2.85 2.93 3.99 2.94 5.13 2.93 6.27 2.94 7.41 2.93 8.55 2.93 9.69 2.9 10.83 2.9 11.97 2.89 13.11 2.88 14.25 2.91 15.39 2.89 16.53 2.89 17.67 2.89 18.81 2.89 19.95 2.88 21.09 2.85 22.23 2.85 23.37 2.84 24.51 2.82 25.65 2.82 26.79 2.83 27.93 2.82 29.07 2.82 30.21 2.81 31.35 2.82 32.49 2.8 33.63 2.78 34.77 2.78 35.91 2.77 37.05 2.76 38.19 2.76 39.33 2.76 40.47 2.75 41.61 2.73 42.75 2.72 43.89 2.72 45.03 2.74 46.17 2.7 47.31 2.71 48.45 2.71 49.59 2.71 50.73 2.67 51.87 2.67 53.01 2.68 54.15 2.67 55.29 2.67 56.43 2.65" class="primitive"/>
          </g>
          <g transform="translate(76.39,69.14)" id="img-e3def875-37" stroke-dasharray="none" stroke="#00B78D" class="color_0.75">
            <path fill="none" d="M-56.43,-61.77 L -55.29 -61.78 -54.15 -61.32 -53.01 -50.19 -51.87 -29.06 -50.73 -10.12 -49.59 -0.72 -48.45 2.04 -47.31 2.76 -46.17 3.04 -45.03 3.16 -43.89 3.18 -42.75 3.23 -41.61 3.24 -40.47 3.26 -39.33 3.27 -38.19 3.26 -37.05 3.24 -35.91 3.23 -34.77 3.21 -33.63 3.22 -32.49 3.21 -31.35 3.19 -30.21 3.16 -29.07 3.15 -27.93 3.13 -26.79 3.1 -25.65 3.09 -24.51 3.1 -23.37 3.08 -22.23 3.08 -21.09 3.08 -19.95 3.1 -18.81 3.08 -17.67 3.07 -16.53 3.09 -15.39 3.08 -14.25 3.09 -13.11 3.08 -11.97 3.07 -10.83 3.06 -9.69 3.04 -8.55 3.05 -7.41 3.06 -6.27 3.06 -5.13 3.06 -3.99 3.04 -2.85 3.02 -1.71 3.03 -0.57 3.01 0.57 3.02 1.71 3.01 2.85 3.01 3.99 2.99 5.13 2.98 6.27 2.97 7.41 2.95 8.55 2.94 9.69 2.94 10.83 2.94 11.97 2.93 13.11 2.95 14.25 2.93 15.39 2.93 16.53 2.93 17.67 2.92 18.81 2.89 19.95 2.88 21.09 2.89 22.23 2.87 23.37 2.87 24.51 2.88 25.65 2.88 26.79 2.87 27.93 2.84 29.07 2.84 30.21 2.82 31.35 2.82 32.49 2.81 33.63 2.81 34.77 2.82 35.91 2.81 37.05 2.8 38.19 2.81 39.33 2.79 40.47 2.78 41.61 2.77 42.75 2.75 43.89 2.74 45.03 2.73 46.17 2.75 47.31 2.75 48.45 2.74 49.59 2.71 50.73 2.71 51.87 2.7 53.01 2.7 54.15 2.67 55.29 2.64 56.43 2.67" class="primitive"/>
          </g>
          <g transform="translate(76.39,69.81)" id="img-e3def875-38" stroke-dasharray="none" stroke="#BEA9FF" class="color_1.0">
            <path fill="none" d="M-56.43,-62.45 L -55.29 -62.46 -54.15 -61.67 -53.01 -48.85 -51.87 -27.9 -50.73 -10.03 -49.59 -1.34 -48.45 1.43 -47.31 2.34 -46.17 2.78 -45.03 3.04 -43.89 3.11 -42.75 3.11 -41.61 3.15 -40.47 3.19 -39.33 3.16 -38.19 3.19 -37.05 3.19 -35.91 3.17 -34.77 3.18 -33.63 3.16 -32.49 3.16 -31.35 3.16 -30.21 3.13 -29.07 3.12 -27.93 3.14 -26.79 3.13 -25.65 3.11 -24.51 3.09 -23.37 3.09 -22.23 3.08 -21.09 3.1 -19.95 3.1 -18.81 3.1 -17.67 3.09 -16.53 3.08 -15.39 3.08 -14.25 3.08 -13.11 3.06 -11.97 3.06 -10.83 3.06 -9.69 3.06 -8.55 3.04 -7.41 3.04 -6.27 3.06 -5.13 3.04 -3.99 3.04 -2.85 3.01 -1.71 3 -0.57 3 0.57 2.98 1.71 2.99 2.85 2.98 3.99 2.96 5.13 2.96 6.27 2.97 7.41 2.96 8.55 2.95 9.69 2.93 10.83 2.92 11.97 2.92 13.11 2.91 14.25 2.9 15.39 2.86 16.53 2.9 17.67 2.89 18.81 2.88 19.95 2.86 21.09 2.86 22.23 2.88 23.37 2.86 24.51 2.88 25.65 2.87 26.79 2.88 27.93 2.88 29.07 2.88 30.21 2.87 31.35 2.91 32.49 2.91 33.63 2.88 34.77 2.91 35.91 2.93 37.05 2.89 38.19 2.9 39.33 2.9 40.47 2.89 41.61 2.89 42.75 2.88 43.89 2.85 45.03 2.85 46.17 2.83 47.31 2.82 48.45 2.82 49.59 2.83 50.73 2.82 51.87 2.81 53.01 2.8 54.15 2.78 55.29 2.76 56.43 2.77" class="primitive"/>
          </g>
        </g>
      </g>
    </g>
  </g>
  <g class="guide ylabels" font-size="2.82" font-family="'PT Sans Caption','Helvetica Neue','Helvetica',sans-serif" fill="#6C606B" id="img-e3def875-39">
    <g transform="translate(16.96,78.71)" id="img-e3def875-40">
      <g class="primitive">
        <text text-anchor="end" dy="0.35em">20</text>
      </g>
    </g>
    <g transform="translate(16.96,54.81)" id="img-e3def875-41">
      <g class="primitive">
        <text text-anchor="end" dy="0.35em">30</text>
      </g>
    </g>
    <g transform="translate(16.96,30.9)" id="img-e3def875-42">
      <g class="primitive">
        <text text-anchor="end" dy="0.35em">40</text>
      </g>
    </g>
    <g transform="translate(16.96,7)" id="img-e3def875-43">
      <g class="primitive">
        <text text-anchor="end" dy="0.35em">50</text>
      </g>
    </g>
  </g>
  <g font-size="3.88" font-family="'PT Sans','Helvetica Neue','Helvetica',sans-serif" fill="#564A55" stroke="#000000" stroke-opacity="0.000" id="img-e3def875-44">
    <g transform="translate(8.81,40.86)" id="img-e3def875-45">
      <g class="primitive">
        <text text-anchor="middle" dy="0.35em" transform="rotate(-90,0, 2)">Numero de Variedades</text>
      </g>
    </g>
  </g>
</g>
<defs>
  <clipPath id="img-e3def875-19">
    <path d="M17.96,5 L 135.96 5 135.96 80.72 17.96 80.72" />
  </clipPath>
</defs>
</svg>
