<?xml version="1.0" encoding="UTF-8"?>
<svg xmlns="http://www.w3.org/2000/svg"
     xmlns:xlink="http://www.w3.org/1999/xlink"
     xmlns:gadfly="http://www.gadflyjl.org/ns"
     version="1.2"
     width="150mm" height="100mm" viewBox="0 0 150 100"
     stroke="none"
     fill="#000000"
     stroke-width="0.3"
     font-size="3.88"
>
<defs>
  <marker id="arrow" markerWidth="15" markerHeight="7" refX="5" refY="3.5" orient="auto" markerUnits="strokeWidth">
    <path d="M0,0 L15,3.5 L0,7 z" stroke="context-stroke" fill="context-stroke"/>
  </marker>
</defs>
<g class="plotroot xscalable yscalable" id="img-c7d12623-1">
  <g font-size="3.88" font-family="'PT Sans','Helvetica Neue','Helvetica',sans-serif" fill="#564A55" stroke="#000000" stroke-opacity="0.000" id="img-c7d12623-2">
    <g transform="translate(76.53,88.39)">
      <g class="primitive">
        <text text-anchor="middle" dy="0.6em">Numero Medio de Variedades por UD</text>
      </g>
    </g>
  </g>
  <g class="guide xlabels" font-size="2.82" font-family="'PT Sans Caption','Helvetica Neue','Helvetica',sans-serif" fill="#6C606B" id="img-c7d12623-3">
    <g transform="translate(20.63,81.72)">
      <g class="primitive">
        <text text-anchor="middle" dy="0.6em">0</text>
      </g>
    </g>
    <g transform="translate(48.58,81.72)">
      <g class="primitive">
        <text text-anchor="middle" dy="0.6em">5</text>
      </g>
    </g>
    <g transform="translate(76.53,81.72)">
      <g class="primitive">
        <text text-anchor="middle" dy="0.6em">10</text>
      </g>
    </g>
    <g transform="translate(104.47,81.72)">
      <g class="primitive">
        <text text-anchor="middle" dy="0.6em">15</text>
      </g>
    </g>
    <g transform="translate(132.42,81.72)">
      <g class="primitive">
        <text text-anchor="middle" dy="0.6em">20</text>
      </g>
    </g>
  </g>
  <g class="guide colorkey" id="img-c7d12623-4">
    <g fill="#4C404B" font-size="2.82" font-family="'PT Sans','Helvetica Neue','Helvetica',sans-serif" id="img-c7d12623-5">
      <g transform="translate(138.23,37.42)" id="img-c7d12623-6" class="color_0.01">
        <g class="primitive">
          <text dy="0.35em">0.01</text>
        </g>
      </g>
      <g transform="translate(138.23,41.04)" id="img-c7d12623-7" class="color_0.025">
        <g class="primitive">
          <text dy="0.35em">0.025</text>
        </g>
      </g>
      <g transform="translate(138.23,44.67)" id="img-c7d12623-8" class="color_0.05">
        <g class="primitive">
          <text dy="0.35em">0.05</text>
        </g>
      </g>
      <g transform="translate(138.23,48.3)" id="img-c7d12623-9" class="color_0.075">
        <g class="primitive">
          <text dy="0.35em">0.075</text>
        </g>
      </g>
      <g transform="translate(138.23,51.92)" id="img-c7d12623-10" class="color_0.1">
        <g class="primitive">
          <text dy="0.35em">0.1</text>
        </g>
      </g>
    </g>
    <g stroke="#000000" stroke-opacity="0.000" id="img-c7d12623-11">
      <g transform="translate(136.33,37.42)" id="img-c7d12623-12" fill="#00BFFF" class="color_0.01">
        <path d="M-0.91,-0.91 L 0.91 -0.91 0.91 0.91 -0.91 0.91 z" class="primitive"/>
      </g>
      <g transform="translate(136.33,41.04)" id="img-c7d12623-13" fill="#D4CA3A" class="color_0.025">
        <path d="M-0.91,-0.91 L 0.91 -0.91 0.91 0.91 -0.91 0.91 z" class="primitive"/>
      </g>
      <g transform="translate(136.33,44.67)" id="img-c7d12623-14" fill="#FF6DAE" class="color_0.05">
        <path d="M-0.91,-0.91 L 0.91 -0.91 0.91 0.91 -0.91 0.91 z" class="primitive"/>
      </g>
      <g transform="translate(136.33,48.3)" id="img-c7d12623-15" fill="#00B78D" class="color_0.075">
        <path d="M-0.91,-0.91 L 0.91 -0.91 0.91 0.91 -0.91 0.91 z" class="primitive"/>
      </g>
      <g transform="translate(136.33,51.92)" id="img-c7d12623-16" fill="#BEA9FF" class="color_0.1">
        <path d="M-0.91,-0.91 L 0.91 -0.91 0.91 0.91 -0.91 0.91 z" class="primitive"/>
      </g>
    </g>
    <g fill="#362A35" font-size="3.88" font-family="'PT Sans','Helvetica Neue','Helvetica',sans-serif" stroke="#000000" stroke-opacity="0.000" id="img-c7d12623-17">
      <g transform="translate(135.42,33.6)" id="img-c7d12623-18">
        <g class="primitive">
          <text>i</text>
        </g>
      </g>
    </g>
  </g>
  <g clip-path="url(#img-c7d12623-19)">
    <g id="img-c7d12623-20">
      <g pointer-events="visible" fill="#000000" fill-opacity="0.000" stroke="#000000" stroke-opacity="0.000" class="guide background" id="img-c7d12623-21">
        <g transform="translate(76.53,42.86)" id="img-c7d12623-22">
          <path d="M-57.89,-37.86 L 57.89 -37.86 57.89 37.86 -57.89 37.86 z" class="primitive"/>
        </g>
      </g>
      <g class="guide ygridlines xfixed" stroke-dasharray="0.5,0.5" stroke-width="0.2" stroke="#D0D0E0" id="img-c7d12623-23">
        <g transform="translate(76.53,78.71)" id="img-c7d12623-24">
          <path fill="none" d="M-57.89,0 L 57.89 0" class="primitive"/>
        </g>
        <g transform="translate(76.53,42.86)" id="img-c7d12623-25">
          <path fill="none" d="M-57.89,0 L 57.89 0" class="primitive"/>
        </g>
        <g transform="translate(76.53,7)" id="img-c7d12623-26">
          <path fill="none" d="M-57.89,0 L 57.89 0" class="primitive"/>
        </g>
      </g>
      <g class="guide xgridlines yfixed" stroke-dasharray="0.5,0.5" stroke-width="0.2" stroke="#D0D0E0" id="img-c7d12623-27">
        <g transform="translate(20.63,42.86)" id="img-c7d12623-28">
          <path fill="none" d="M0,-37.86 L 0 37.86" class="primitive"/>
        </g>
        <g transform="translate(48.58,42.86)" id="img-c7d12623-29">
          <path fill="none" d="M0,-37.86 L 0 37.86" class="primitive"/>
        </g>
        <g transform="translate(76.53,42.86)" id="img-c7d12623-30">
          <path fill="none" d="M0,-37.86 L 0 37.86" class="primitive"/>
        </g>
        <g transform="translate(104.47,42.86)" id="img-c7d12623-31">
          <path fill="none" d="M0,-37.86 L 0 37.86" class="primitive"/>
        </g>
        <g transform="translate(132.42,42.86)" id="img-c7d12623-32">
          <path fill="none" d="M0,-37.86 L 0 37.86" class="primitive"/>
        </g>
      </g>
      <g class="plotpanel" id="img-c7d12623-33">
        <metadata>
          <boundingbox value="18.63166666666666mm 5.0mm 115.78833333333333mm 75.715mm"/>
          <unitbox value="-0.3578190926304176 1.0278881684445373 20.715638185260836 -1.055776336889075"/>
        </metadata>
        <g stroke-width="0.3" fill="#000000" fill-opacity="0.000" class="geometry" id="img-c7d12623-34">
          <g transform="translate(160.37,77.25)" id="img-c7d12623-35" stroke="#00BFFF" stroke-dasharray="none" class="color_0.01">
            <path fill="none" d="M-134.15,-44.42 L -128.56 -20.81 -122.97 -1.22 -117.38 0.76 -111.79 1.32 -106.2 1.44 -100.61 1.46 -95.02 1.46 -89.43 1.46 -83.84 1.46 -78.25 1.46 -72.66 1.46 -67.07 1.46 -61.48 1.46 -55.89 1.46 -50.3 1.46 -44.72 1.46 -39.13 1.46 -33.54 1.46 -27.95 1.46 -22.36 1.46 -16.77 1.46 -11.18 1.46 -5.59 1.46 0 1.46 5.59 1.46 11.18 1.46 16.77 1.46 22.36 1.46 27.95 1.46 33.54 1.46 39.13 1.46 44.72 1.46 50.3 1.46 55.89 1.46 61.48 1.46 67.07 1.46 72.66 1.46 78.25 1.46 83.84 1.46 89.43 1.46 95.02 1.46 100.61 1.46 106.2 1.46 111.79 1.46 117.38 1.46 122.97 1.46 128.56 1.46 134.15 1.46" class="primitive"/>
          </g>
          <g transform="translate(160.37,77.25)" id="img-c7d12623-36" stroke="#D4CA3A" stroke-dasharray="none" class="color_0.025">
            <path fill="none" d="M-134.15,-31.83 L -128.56 -20.39 -122.97 -6.75 -117.38 -3.01 -111.79 -0.77 -106.2 0.43 -100.61 1.03 -95.02 1.31 -89.43 1.44 -83.84 1.46 -78.25 1.46 -72.66 1.46 -67.07 1.46 -61.48 1.46 -55.89 1.46 -50.3 1.46 -44.72 1.46 -39.13 1.46 -33.54 1.46 -27.95 1.46 -22.36 1.46 -16.77 1.46 -11.18 1.46 -5.59 1.46 0 1.46 5.59 1.46 11.18 1.46 16.77 1.46 22.36 1.46 27.95 1.46 33.54 1.46 39.13 1.46 44.72 1.46 50.3 1.46 55.89 1.46 61.48 1.46 67.07 1.46 72.66 1.46 78.25 1.46 83.84 1.46 89.43 1.46 95.02 1.46 100.61 1.46 106.2 1.46 111.79 1.46 117.38 1.46 122.97 1.46 128.56 1.46 134.15 1.46" class="primitive"/>
          </g>
          <g transform="translate(160.37,77.25)" id="img-c7d12623-37" stroke="#FF6DAE" stroke-dasharray="none" class="color_0.05">
            <path fill="none" d="M-134.15,-13.68 L -128.56 -11.9 -122.97 -8.78 -117.38 -7.6 -111.79 -6.25 -106.2 -4.43 -100.61 -2.82 -95.02 -1.41 -89.43 -0.15 -83.84 0.57 -78.25 1.09 -72.66 1.3 -67.07 1.39 -61.48 1.45 -55.89 1.46 -50.3 1.46 -44.72 1.46 -39.13 1.46 -33.54 1.46 -27.95 1.46 -22.36 1.46 -16.77 1.46 -11.18 1.46 -5.59 1.46 0 1.46 5.59 1.46 11.18 1.46 16.77 1.46 22.36 1.46 27.95 1.46 33.54 1.46 39.13 1.46 44.72 1.46 50.3 1.46 55.89 1.46 61.48 1.46 67.07 1.46 72.66 1.46 78.25 1.46 83.84 1.46 89.43 1.46 95.02 1.46 100.61 1.46 106.2 1.46 111.79 1.46 117.38 1.46 122.97 1.46 128.56 1.46 134.15 1.46" class="primitive"/>
          </g>
          <g transform="translate(160.37,77.25)" id="img-c7d12623-38" stroke="#00B78D" stroke-dasharray="none" class="color_0.075">
            <path fill="none" d="M-134.15,-3.04 L -128.56 -3.01 -122.97 -3.83 -117.38 -4.7 -111.79 -5.84 -106.2 -6.54 -100.61 -6.9 -95.02 -6.12 -89.43 -5.06 -83.84 -3.63 -78.25 -1.96 -72.66 -0.86 -67.07 0.16 -61.48 0.75 -55.89 1.09 -50.3 1.29 -44.72 1.39 -39.13 1.45 -33.54 1.46 -27.95 1.46 -22.36 1.46 -16.77 1.46 -11.18 1.46 -5.59 1.46 0 1.46 5.59 1.46 11.18 1.46 16.77 1.46 22.36 1.46 27.95 1.46 33.54 1.46 39.13 1.46 44.72 1.46 50.3 1.46 55.89 1.46 61.48 1.46 67.07 1.46 72.66 1.46 78.25 1.46 83.84 1.46 89.43 1.46 95.02 1.46 100.61 1.46 106.2 1.46 111.79 1.46 117.38 1.46 122.97 1.46 128.56 1.46 134.15 1.46" class="primitive"/>
          </g>
          <g transform="translate(160.37,77.25)" id="img-c7d12623-39" stroke="#BEA9FF" stroke-dasharray="none" class="color_0.1">
            <path fill="none" d="M-134.15,0.37 L -128.56 0.22 -122.97 -0.19 -117.38 -1.03 -111.79 -2.13 -106.2 -3.37 -100.61 -4.46 -95.02 -5.49 -89.43 -5.97 -83.84 -6.49 -78.25 -5.58 -72.66 -4.71 -67.07 -3.78 -61.48 -2.41 -55.89 -1.29 -50.3 -0.13 -44.72 0.58 -39.13 0.91 -33.54 1.23 -27.95 1.36 -22.36 1.43 -16.77 1.44 -11.18 1.46 -5.59 1.46 0 1.46 5.59 1.46 11.18 1.46 16.77 1.46 22.36 1.46 27.95 1.46 33.54 1.46 39.13 1.46 44.72 1.46 50.3 1.46 55.89 1.46 61.48 1.46 67.07 1.46 72.66 1.46 78.25 1.46 83.84 1.46 89.43 1.46 95.02 1.46 100.61 1.46 106.2 1.46 111.79 1.46 117.38 1.46 122.97 1.46 128.56 1.46 134.15 1.46" class="primitive"/>
          </g>
        </g>
      </g>
    </g>
  </g>
  <g class="guide ylabels" font-size="2.82" font-family="'PT Sans Caption','Helvetica Neue','Helvetica',sans-serif" fill="#6C606B" id="img-c7d12623-40">
    <g transform="translate(17.63,78.71)" id="img-c7d12623-41">
      <g class="primitive">
        <text text-anchor="end" dy="0.35em">0.0</text>
      </g>
    </g>
    <g transform="translate(17.63,42.86)" id="img-c7d12623-42">
      <g class="primitive">
        <text text-anchor="end" dy="0.35em">0.5</text>
      </g>
    </g>
    <g transform="translate(17.63,7)" id="img-c7d12623-43">
      <g class="primitive">
        <text text-anchor="end" dy="0.35em">1.0</text>
      </g>
    </g>
  </g>
  <g font-size="3.88" font-family="'PT Sans','Helvetica Neue','Helvetica',sans-serif" fill="#564A55" stroke="#000000" stroke-opacity="0.000" id="img-c7d12623-44">
    <g transform="translate(8.81,40.86)" id="img-c7d12623-45">
      <g class="primitive">
        <text text-anchor="middle" dy="0.35em" transform="rotate(-90,0, 2)">Frequencia</text>
      </g>
    </g>
  </g>
</g>
<defs>
  <clipPath id="img-c7d12623-19">
    <path d="M18.63,5 L 134.42 5 134.42 80.72 18.63 80.72" />
  </clipPath>
</defs>
</svg>
