<?xml version="1.0" encoding="UTF-8"?>
<svg xmlns="http://www.w3.org/2000/svg"
     xmlns:xlink="http://www.w3.org/1999/xlink"
     xmlns:gadfly="http://www.gadflyjl.org/ns"
     version="1.2"
     width="150mm" height="100mm" viewBox="0 0 150 100"
     stroke="none"
     fill="#000000"
     stroke-width="0.3"
     font-size="3.88"
>
<defs>
  <marker id="arrow" markerWidth="15" markerHeight="7" refX="5" refY="3.5" orient="auto" markerUnits="strokeWidth">
    <path d="M0,0 L15,3.5 L0,7 z" stroke="context-stroke" fill="context-stroke"/>
  </marker>
</defs>
<g class="plotroot xscalable yscalable" id="img-d0045484-1">
  <g font-size="3.88" font-family="'PT Sans','Helvetica Neue','Helvetica',sans-serif" fill="#564A55" stroke="#000000" stroke-opacity="0.000" id="img-d0045484-2">
    <g transform="translate(79.76,88.39)">
      <g class="primitive">
        <text text-anchor="middle" dy="0.6em">Tempo</text>
      </g>
    </g>
  </g>
  <g class="guide xlabels" font-size="2.82" font-family="'PT Sans Caption','Helvetica Neue','Helvetica',sans-serif" fill="#6C606B" id="img-d0045484-3">
    <g transform="translate(23.42,81.72)">
      <g class="primitive">
        <text text-anchor="middle" dy="0.6em">0</text>
      </g>
    </g>
    <g transform="translate(45.96,81.72)">
      <g class="primitive">
        <text text-anchor="middle" dy="0.6em">100</text>
      </g>
    </g>
    <g transform="translate(68.49,81.72)">
      <g class="primitive">
        <text text-anchor="middle" dy="0.6em">200</text>
      </g>
    </g>
    <g transform="translate(91.03,81.72)">
      <g class="primitive">
        <text text-anchor="middle" dy="0.6em">300</text>
      </g>
    </g>
    <g transform="translate(113.57,81.72)">
      <g class="primitive">
        <text text-anchor="middle" dy="0.6em">400</text>
      </g>
    </g>
    <g transform="translate(136.11,81.72)">
      <g class="primitive">
        <text text-anchor="middle" dy="0.6em">500</text>
      </g>
    </g>
  </g>
  <g class="guide colorkey" id="img-d0045484-4">
    <g fill="#4C404B" font-size="2.82" font-family="'PT Sans','Helvetica Neue','Helvetica',sans-serif" id="img-d0045484-5">
      <g transform="translate(141.92,37.42)" id="img-d0045484-6" class="color_48">
        <g class="primitive">
          <text dy="0.35em">48</text>
        </g>
      </g>
      <g transform="translate(141.92,41.04)" id="img-d0045484-7" class="color_47">
        <g class="primitive">
          <text dy="0.35em">47</text>
        </g>
      </g>
      <g transform="translate(141.92,44.67)" id="img-d0045484-8" class="color_45">
        <g class="primitive">
          <text dy="0.35em">45</text>
        </g>
      </g>
      <g transform="translate(141.92,48.3)" id="img-d0045484-9" class="color_44">
        <g class="primitive">
          <text dy="0.35em">44</text>
        </g>
      </g>
      <g transform="translate(141.92,51.92)" id="img-d0045484-10" class="color_46">
        <g class="primitive">
          <text dy="0.35em">46</text>
        </g>
      </g>
    </g>
    <g stroke="#000000" stroke-opacity="0.000" id="img-d0045484-11">
      <g transform="translate(140.01,37.42)" id="img-d0045484-12" fill="#00BFFF" class="color_48">
        <path d="M-0.91,-0.91 L 0.91 -0.91 0.91 0.91 -0.91 0.91 z" class="primitive"/>
      </g>
      <g transform="translate(140.01,41.04)" id="img-d0045484-13" fill="#D4CA3A" class="color_47">
        <path d="M-0.91,-0.91 L 0.91 -0.91 0.91 0.91 -0.91 0.91 z" class="primitive"/>
      </g>
      <g transform="translate(140.01,44.67)" id="img-d0045484-14" fill="#FF6DAE" class="color_45">
        <path d="M-0.91,-0.91 L 0.91 -0.91 0.91 0.91 -0.91 0.91 z" class="primitive"/>
      </g>
      <g transform="translate(140.01,48.3)" id="img-d0045484-15" fill="#00B78D" class="color_44">
        <path d="M-0.91,-0.91 L 0.91 -0.91 0.91 0.91 -0.91 0.91 z" class="primitive"/>
      </g>
      <g transform="translate(140.01,51.92)" id="img-d0045484-16" fill="#BEA9FF" class="color_46">
        <path d="M-0.91,-0.91 L 0.91 -0.91 0.91 0.91 -0.91 0.91 z" class="primitive"/>
      </g>
    </g>
    <g fill="#362A35" font-size="3.88" font-family="'PT Sans','Helvetica Neue','Helvetica',sans-serif" stroke="#000000" stroke-opacity="0.000" id="img-d0045484-17">
      <g transform="translate(139.11,33.6)" id="img-d0045484-18">
        <g class="primitive">
          <text>DU</text>
        </g>
      </g>
    </g>
  </g>
  <g clip-path="url(#img-d0045484-19)">
    <g id="img-d0045484-20">
      <g pointer-events="visible" fill="#000000" fill-opacity="0.000" stroke="#000000" stroke-opacity="0.000" class="guide background" id="img-d0045484-21">
        <g transform="translate(79.76,42.86)" id="img-d0045484-22">
          <path d="M-58.34,-37.86 L 58.34 -37.86 58.34 37.86 -58.34 37.86 z" class="primitive"/>
        </g>
      </g>
      <g class="guide ygridlines xfixed" stroke-dasharray="0.5,0.5" stroke-width="0.2" stroke="#D0D0E0" id="img-d0045484-23">
        <g transform="translate(79.76,78.72)" id="img-d0045484-24">
          <path fill="none" d="M-58.34,0 L 58.34 0" class="primitive"/>
        </g>
        <g transform="translate(79.76,60.79)" id="img-d0045484-25">
          <path fill="none" d="M-58.34,0 L 58.34 0" class="primitive"/>
        </g>
        <g transform="translate(79.76,42.86)" id="img-d0045484-26">
          <path fill="none" d="M-58.34,0 L 58.34 0" class="primitive"/>
        </g>
        <g transform="translate(79.76,24.93)" id="img-d0045484-27">
          <path fill="none" d="M-58.34,0 L 58.34 0" class="primitive"/>
        </g>
        <g transform="translate(79.76,7)" id="img-d0045484-28">
          <path fill="none" d="M-58.34,0 L 58.34 0" class="primitive"/>
        </g>
      </g>
      <g class="guide xgridlines yfixed" stroke-dasharray="0.5,0.5" stroke-width="0.2" stroke="#D0D0E0" id="img-d0045484-29">
        <g transform="translate(23.42,42.86)" id="img-d0045484-30">
          <path fill="none" d="M0,-37.86 L 0 37.86" class="primitive"/>
        </g>
        <g transform="translate(45.96,42.86)" id="img-d0045484-31">
          <path fill="none" d="M0,-37.86 L 0 37.86" class="primitive"/>
        </g>
        <g transform="translate(68.49,42.86)" id="img-d0045484-32">
          <path fill="none" d="M0,-37.86 L 0 37.86" class="primitive"/>
        </g>
        <g transform="translate(91.03,42.86)" id="img-d0045484-33">
          <path fill="none" d="M0,-37.86 L 0 37.86" class="primitive"/>
        </g>
        <g transform="translate(113.57,42.86)" id="img-d0045484-34">
          <path fill="none" d="M0,-37.86 L 0 37.86" class="primitive"/>
        </g>
        <g transform="translate(136.11,42.86)" id="img-d0045484-35">
          <path fill="none" d="M0,-37.86 L 0 37.86" class="primitive"/>
        </g>
      </g>
      <g class="plotpanel" id="img-d0045484-36">
        <metadata>
          <boundingbox value="21.41833333333335mm 5.0mm 116.68833333333333mm 75.715mm"/>
          <unitbox value="-8.874033100143462 0.1555776336889075 517.7480662002869 -0.21115526737781498"/>
        </metadata>
        <g stroke-width="0.3" fill="#000000" fill-opacity="0.000" class="geometry" id="img-d0045484-37">
          <g transform="translate(79.65,49.86)" id="img-d0045484-38" stroke-dasharray="none" stroke="#00BFFF" class="color_48">
            <path fill="none" d="M-56.23,10.14 L -56.01 10.09 -55.78 9.89 -55.56 9.87 -55.33 10.05 -55.1 10.05 -54.88 8.09 -54.65 9.55 -54.43 9.55 -54.2 7.2 -53.98 7.1 -53.75 5.55 -53.53 4.04 -53.3 4.04 -53.08 4.04 -52.85 3.91 -52.63 5.62 -52.4 5.79 -52.17 7.38 -51.95 9 -51.72 7.47 -51.5 5.89 -51.27 7.58 -51.05 8.86 -50.82 8.62 -50.6 9.95 -50.37 8.26 -50.15 9.66 -49.92 11.22 -49.7 9.49 -49.47 9.49 -49.24 9.17 -49.02 11.02 -48.79 10.73 -48.57 12.02 -48.34 10.01 -48.12 11.46 -47.89 9.87 -47.67 9.87 -47.44 11.25 -47.22 9.38 -46.99 9.38 -46.77 10.66 -46.54 8.96 -46.31 6.85 -46.09 5.45 -45.86 3.1 -45.64 3.1 -45.41 1.29 -45.19 1.29 -44.96 1.29 -44.74 1.29 -44.51 1.29 -44.29 1.29 -44.06 1.29 -43.84 1.29 -43.61 1.29 -43.39 1.29 -43.16 -0.93 -42.93 -0.93 -42.71 -0.93 -42.48 -0.93 -42.26 -0.93 -42.03 -0.93 -41.81 -0.93 -41.58 -0.93 -41.36 -0.93 -41.13 -0.93 -40.91 -0.93 -40.68 -0.93 -40.46 -0.93 -40.23 -0.93 -40 -0.93 -39.78 -0.93 -39.55 -0.93 -39.33 -0.93 -39.1 -0.93 -38.88 -0.93 -38.65 -0.93 -38.43 -0.93 -38.2 -0.93 -37.98 -0.93 -37.75 -0.93 -37.53 -0.93 -37.3 -0.93 -37.07 -0.93 -36.85 -0.93 -36.62 -0.93 -36.4 -0.93 -36.17 -0.93 -35.95 -0.93 -35.72 -0.93 -35.5 -0.93 -35.27 -0.93 -35.05 -0.93 -34.82 -0.93 -34.6 -0.93 -34.37 -0.93 -34.14 -0.93 -33.92 -0.93 -33.69 -0.93 -33.47 -0.93 -33.24 -0.93 -33.02 -0.93 -32.79 -0.93 -32.57 -0.93 -32.34 -0.93 -32.12 -0.93 -31.89 -0.93 -31.67 -0.93 -31.44 -0.93 -31.21 -0.93 -30.99 -0.93 -30.76 -0.93 -30.54 -0.93 -30.31 -0.93 -30.09 -0.93 -29.86 -0.93 -29.64 -0.93 -29.41 -0.93 -29.19 -0.93 -28.96 -0.93 -28.74 -0.93 -28.51 -0.93 -28.28 -0.93 -28.06 -0.93 -27.83 -0.93 -27.61 -0.93 -27.38 -0.93 -27.16 -0.93 -26.93 -0.93 -26.71 -0.93 -26.48 -0.93 -26.26 -0.93 -26.03 -0.93 -25.81 -0.93 -25.58 -0.93 -25.35 -0.93 -25.13 -0.93 -24.9 -0.93 -24.68 -0.93 -24.45 -0.93 -24.23 -0.93 -24 -0.93 -23.78 -0.93 -23.55 -0.93 -23.33 -0.93 -23.1 -0.93 -22.88 -0.93 -22.65 -0.93 -22.42 -0.93 -22.2 -0.93 -21.97 -0.93 -21.75 -0.93 -21.52 -0.93 -21.3 -0.93 -21.07 -0.93 -20.85 -0.93 -20.62 -0.93 -20.4 -0.93 -20.17 -0.93 -19.95 -0.93 -19.72 -0.93 -19.5 -0.93 -19.27 -0.93 -19.04 -0.93 -18.82 -0.93 -18.59 -0.93 -18.37 -0.93 -18.14 -0.93 -17.92 -0.93 -17.69 -0.93 -17.47 -0.93 -17.24 -0.93 -17.02 -0.93 -16.79 -0.93 -16.57 -0.93 -16.34 -0.93 -16.11 -0.93 -15.89 -0.93 -15.66 -0.93 -15.44 -0.93 -15.21 -0.93 -14.99 -0.93 -14.76 -0.93 -14.54 -0.93 -14.31 -0.93 -14.09 -0.93 -13.86 -0.93 -13.64 -0.93 -13.41 -0.93 -13.18 -0.93 -12.96 -0.93 -12.73 -0.93 -12.51 -0.93 -12.28 -0.93 -12.06 -0.93 -11.83 -0.93 -11.61 -0.93 -11.38 -0.93 -11.16 -0.93 -10.93 -0.93 -10.71 -0.93 -10.48 -0.93 -10.25 -0.93 -10.03 -0.93 -9.8 -0.93 -9.58 -0.93 -9.35 -0.93 -9.13 -0.93 -8.9 -0.93 -8.68 -0.93 -8.45 -0.93 -8.23 -0.93 -8 -0.93 -7.78 -0.93 -7.55 -0.93 -7.32 -0.93 -7.1 -0.93 -6.87 -0.93 -6.65 -0.93 -6.42 -0.93 -6.2 -0.93 -5.97 -0.93 -5.75 -0.93 -5.52 -0.93 -5.3 -0.93 -5.07 -0.93 -4.85 -0.93 -4.62 -0.93 -4.39 -0.93 -4.17 -0.93 -3.94 -0.93 -3.72 -0.93 -3.49 -0.93 -3.27 -0.93 -3.04 -0.93 -2.82 -0.93 -2.59 -0.93 -2.37 -0.93 -2.14 -0.93 -1.92 -0.93 -1.69 -0.93 -1.46 -0.93 -1.24 -0.93 -1.01 -0.93 -0.79 -0.93 -0.56 -0.93 -0.34 -0.93 -0.11 -0.93 0.11 -0.93 0.34 -0.93 0.56 -0.93 0.79 -0.93 1.01 -0.93 1.24 -0.93 1.46 -0.93 1.69 -0.93 1.92 -0.93 2.14 -0.93 2.37 -0.93 2.59 -0.93 2.82 -0.93 3.04 -0.93 3.27 -0.93 3.49 -0.93 3.72 -0.93 3.94 -0.93 4.17 -0.93 4.39 -0.93 4.62 -0.93 4.85 -0.93 5.07 -0.93 5.3 -0.93 5.52 -0.93 5.75 -0.93 5.97 -0.93 6.2 -0.93 6.42 -0.93 6.65 -0.93 6.87 -0.93 7.1 -0.93 7.32 -0.93 7.55 -0.93 7.78 -0.93 8 -0.93 8.23 -0.93 8.45 -0.93 8.68 -0.93 8.9 -0.93 9.13 -0.93 9.35 -0.93 9.58 -0.93 9.8 -0.93 10.03 -0.93 10.25 -0.93 10.48 -0.93 10.71 -0.93 10.93 -0.93 11.16 -0.93 11.38 -0.93 11.61 -0.93 11.83 -0.93 12.06 -0.93 12.28 -0.93 12.51 -0.93 12.73 -0.93 12.96 -0.93 13.18 -0.93 13.41 -0.93 13.64 -0.93 13.86 -0.93 14.09 -0.93 14.31 -0.93 14.54 -0.93 14.76 -0.93 14.99 -0.93 15.21 -0.93 15.44 -0.93 15.66 -0.93 15.89 -0.93 16.11 -0.93 16.34 -0.93 16.57 -0.93 16.79 -0.93 17.02 -0.93 17.24 -0.93 17.47 -0.93 17.69 -0.93 17.92 -0.93 18.14 -0.93 18.37 -0.93 18.59 -0.93 18.82 -0.93 19.04 -0.93 19.27 -0.93 19.5 -0.93 19.72 -0.93 19.95 -0.93 20.17 -0.93 20.4 -0.93 20.62 -0.93 20.85 -0.93 21.07 -0.93 21.3 -0.93 21.52 -0.93 21.75 -0.93 21.97 -0.93 22.2 -0.93 22.42 -0.93 22.65 -0.93 22.88 -0.93 23.1 -0.93 23.33 -0.93 23.55 -0.93 23.78 -0.93 24 -0.93 24.23 -0.93 24.45 -0.93 24.68 -0.93 24.9 -0.93 25.13 -0.93 25.35 -0.93 25.58 -0.93 25.81 -0.93 26.03 -0.93 26.26 -0.93 26.48 -0.93 26.71 -0.93 26.93 -0.93 27.16 -0.93 27.38 -0.93 27.61 -0.93 27.83 -0.93 28.06 -0.93 28.28 -0.93 28.51 -0.93 28.74 -0.93 28.96 -0.93 29.19 -0.93 29.41 -0.93 29.64 -0.93 29.86 -0.93 30.09 -0.93 30.31 -0.93 30.54 -0.93 30.76 -0.93 30.99 -0.93 31.21 -0.93 31.44 -0.93 31.67 -0.93 31.89 -0.93 32.12 -0.93 32.34 -0.93 32.57 -0.93 32.79 -0.93 33.02 -0.93 33.24 -0.93 33.47 -0.93 33.69 -0.93 33.92 -0.93 34.14 -0.93 34.37 -0.93 34.6 -0.93 34.82 -0.93 35.05 -0.93 35.27 -0.93 35.5 -0.93 35.72 -0.93 35.95 -0.93 36.17 -0.93 36.4 -0.93 36.62 -0.93 36.85 -0.93 37.07 -0.93 37.3 -0.93 37.53 -0.93 37.75 -0.93 37.98 -0.93 38.2 -0.93 38.43 -0.93 38.65 -0.93 38.88 -0.93 39.1 -0.93 39.33 -0.93 39.55 -0.93 39.78 -0.93 40 -0.93 40.23 -0.93 40.46 -0.93 40.68 -0.93 40.91 -0.93 41.13 -0.93 41.36 -0.93 41.58 -0.93 41.81 -0.93 42.03 -0.93 42.26 -0.93 42.48 -0.93 42.71 -0.93 42.93 -0.93 43.16 -0.93 43.39 -0.93 43.61 -0.93 43.84 -0.93 44.06 -0.93 44.29 -0.93 44.51 -0.93 44.74 -0.93 44.96 -0.93 45.19 -0.93 45.41 -0.93 45.64 -0.93 45.86 -0.93 46.09 -0.93 46.31 -0.93 46.54 -0.93 46.77 -0.93 46.99 -0.93 47.22 -0.93 47.44 -0.93 47.67 -0.93 47.89 -0.93 48.12 -0.93 48.34 -0.93 48.57 -0.93 48.79 -0.93 49.02 -0.93 49.24 -0.93 49.47 -0.93 49.7 -0.93 49.92 -0.93 50.15 -0.93 50.37 -0.93 50.6 -0.93 50.82 -0.93 51.05 -0.93 51.27 -0.93 51.5 -0.93 51.72 -0.93 51.95 -0.93 52.17 -0.93 52.4 -0.93 52.63 -0.93 52.85 -0.93 53.08 -0.93 53.3 -0.93 53.53 -0.93 53.75 -0.93 53.98 -0.93 54.2 -0.93 54.43 -0.93 54.65 -0.93 54.88 -0.93 55.1 -0.93 55.33 -0.93 55.56 -0.93 55.78 -0.93 56.01 -0.93 56.23 -0.93" class="primitive"/>
          </g>
          <g transform="translate(79.65,59.11)" id="img-d0045484-39" stroke-dasharray="none" stroke="#D4CA3A" class="color_47">
            <path fill="none" d="M-56.23,-3.25 L -56.01 -3.57 -55.78 -1.72 -55.56 -1.01 -55.33 -1.01 -55.1 -0.3 -54.88 0.46 -54.65 -0.92 -54.43 -2.37 -54.2 -1.36 -53.98 -1.18 -53.75 -1.11 -53.53 -0.91 -53.3 -0.67 -53.08 -2.15 -52.85 -0.36 -52.63 -1.45 -52.4 -0.06 -52.17 -1.19 -51.95 -1.19 -51.72 -0.83 -51.5 -0.48 -51.27 -0.48 -51.05 -1.76 -50.82 -0.17 -50.6 -1.22 -50.37 -0.59 -50.15 -0.59 -49.92 -0.59 -49.7 0.23 -49.47 -0.47 -49.24 1.5 -49.02 0.73 -48.79 1.88 -48.57 0.59 -48.34 2.6 -48.12 1.15 -47.89 2.74 -47.67 2.74 -47.44 1.37 -47.22 3.23 -46.99 3.23 -46.77 1.42 -46.54 0.26 -46.31 0.21 -46.09 0.21 -45.86 0.02 -45.64 0.02 -45.41 0.02 -45.19 0.02 -44.96 0.02 -44.74 0.02 -44.51 0.02 -44.29 0.02 -44.06 0.02 -43.84 0.02 -43.61 0.02 -43.39 0.02 -43.16 0.02 -42.93 0.02 -42.71 0.02 -42.48 0.02 -42.26 0.02 -42.03 0.02 -41.81 0.02 -41.58 0.02 -41.36 0.02 -41.13 0.02 -40.91 0.02 -40.68 0.02 -40.46 0.02 -40.23 0.02 -40 0.02 -39.78 0.02 -39.55 0.02 -39.33 0.02 -39.1 0.02 -38.88 0.02 -38.65 0.02 -38.43 0.02 -38.2 0.02 -37.98 0.02 -37.75 0.02 -37.53 0.02 -37.3 0.02 -37.07 0.02 -36.85 0.02 -36.62 0.02 -36.4 0.02 -36.17 0.02 -35.95 0.02 -35.72 0.02 -35.5 0.02 -35.27 0.02 -35.05 0.02 -34.82 0.02 -34.6 0.02 -34.37 0.02 -34.14 0.02 -33.92 0.02 -33.69 0.02 -33.47 0.02 -33.24 0.02 -33.02 0.02 -32.79 0.02 -32.57 0.02 -32.34 0.02 -32.12 0.02 -31.89 0.02 -31.67 0.02 -31.44 0.02 -31.21 0.02 -30.99 0.02 -30.76 0.02 -30.54 0.02 -30.31 0.02 -30.09 0.02 -29.86 0.02 -29.64 0.02 -29.41 0.02 -29.19 0.02 -28.96 0.02 -28.74 0.02 -28.51 0.02 -28.28 0.02 -28.06 0.02 -27.83 0.02 -27.61 0.02 -27.38 0.02 -27.16 0.02 -26.93 0.02 -26.71 0.02 -26.48 0.02 -26.26 0.02 -26.03 0.02 -25.81 0.02 -25.58 0.02 -25.35 0.02 -25.13 0.02 -24.9 0.02 -24.68 0.02 -24.45 0.02 -24.23 0.02 -24 0.02 -23.78 0.02 -23.55 0.02 -23.33 0.02 -23.1 0.02 -22.88 0.02 -22.65 0.02 -22.42 0.02 -22.2 0.02 -21.97 0.02 -21.75 0.02 -21.52 0.02 -21.3 0.02 -21.07 0.02 -20.85 0.02 -20.62 0.02 -20.4 0.02 -20.17 0.02 -19.95 0.02 -19.72 0.02 -19.5 0.02 -19.27 0.02 -19.04 0.02 -18.82 0.02 -18.59 0.02 -18.37 0.02 -18.14 0.02 -17.92 0.02 -17.69 0.02 -17.47 0.02 -17.24 0.02 -17.02 0.02 -16.79 0.02 -16.57 0.02 -16.34 0.02 -16.11 0.02 -15.89 0.02 -15.66 0.02 -15.44 0.02 -15.21 0.02 -14.99 0.02 -14.76 0.02 -14.54 0.02 -14.31 0.02 -14.09 0.02 -13.86 0.02 -13.64 0.02 -13.41 0.02 -13.18 0.02 -12.96 0.02 -12.73 0.02 -12.51 0.02 -12.28 0.02 -12.06 0.02 -11.83 0.02 -11.61 0.02 -11.38 0.02 -11.16 0.02 -10.93 0.02 -10.71 0.02 -10.48 0.02 -10.25 0.02 -10.03 0.02 -9.8 0.02 -9.58 0.02 -9.35 0.02 -9.13 0.02 -8.9 0.02 -8.68 0.02 -8.45 0.02 -8.23 0.02 -8 0.02 -7.78 0.02 -7.55 0.02 -7.32 0.02 -7.1 0.02 -6.87 0.02 -6.65 0.02 -6.42 0.02 -6.2 0.02 -5.97 0.02 -5.75 0.02 -5.52 0.02 -5.3 0.02 -5.07 0.02 -4.85 0.02 -4.62 0.02 -4.39 0.02 -4.17 0.02 -3.94 0.02 -3.72 0.02 -3.49 0.02 -3.27 0.02 -3.04 0.02 -2.82 0.02 -2.59 0.02 -2.37 0.02 -2.14 0.02 -1.92 0.02 -1.69 0.02 -1.46 0.02 -1.24 0.02 -1.01 0.02 -0.79 0.02 -0.56 0.02 -0.34 0.02 -0.11 0.02 0.11 0.02 0.34 0.02 0.56 0.02 0.79 0.02 1.01 0.02 1.24 0.02 1.46 0.02 1.69 0.02 1.92 0.02 2.14 0.02 2.37 0.02 2.59 0.02 2.82 0.02 3.04 0.02 3.27 0.02 3.49 0.02 3.72 0.02 3.94 0.02 4.17 0.02 4.39 0.02 4.62 0.02 4.85 0.02 5.07 0.02 5.3 0.02 5.52 0.02 5.75 0.02 5.97 0.02 6.2 0.02 6.42 0.02 6.65 0.02 6.87 0.02 7.1 0.02 7.32 0.02 7.55 0.02 7.78 0.02 8 0.02 8.23 0.02 8.45 0.02 8.68 0.02 8.9 0.02 9.13 0.02 9.35 0.02 9.58 0.02 9.8 0.02 10.03 0.02 10.25 0.02 10.48 0.02 10.71 0.02 10.93 0.02 11.16 0.02 11.38 0.02 11.61 0.02 11.83 0.02 12.06 0.02 12.28 0.02 12.51 0.02 12.73 0.02 12.96 0.02 13.18 0.02 13.41 0.02 13.64 0.02 13.86 0.02 14.09 0.02 14.31 0.02 14.54 0.02 14.76 0.02 14.99 0.02 15.21 0.02 15.44 0.02 15.66 0.02 15.89 0.02 16.11 0.02 16.34 0.02 16.57 0.02 16.79 0.02 17.02 0.02 17.24 0.02 17.47 0.02 17.69 0.02 17.92 0.02 18.14 0.02 18.37 0.02 18.59 0.02 18.82 0.02 19.04 0.02 19.27 0.02 19.5 0.02 19.72 0.02 19.95 0.02 20.17 0.02 20.4 0.02 20.62 0.02 20.85 0.02 21.07 0.02 21.3 0.02 21.52 0.02 21.75 0.02 21.97 0.02 22.2 0.02 22.42 0.02 22.65 0.02 22.88 0.02 23.1 0.02 23.33 0.02 23.55 0.02 23.78 0.02 24 0.02 24.23 0.02 24.45 0.02 24.68 0.02 24.9 0.02 25.13 0.02 25.35 0.02 25.58 0.02 25.81 0.02 26.03 0.02 26.26 0.02 26.48 0.02 26.71 0.02 26.93 0.02 27.16 0.02 27.38 0.02 27.61 0.02 27.83 0.02 28.06 0.02 28.28 0.02 28.51 0.02 28.74 0.02 28.96 0.02 29.19 0.02 29.41 0.02 29.64 0.02 29.86 0.02 30.09 0.02 30.31 0.02 30.54 0.02 30.76 0.02 30.99 0.02 31.21 0.02 31.44 0.02 31.67 0.02 31.89 0.02 32.12 0.02 32.34 0.02 32.57 0.02 32.79 0.02 33.02 0.02 33.24 0.02 33.47 0.02 33.69 0.02 33.92 0.02 34.14 0.02 34.37 0.02 34.6 0.02 34.82 0.02 35.05 0.02 35.27 0.02 35.5 0.02 35.72 0.02 35.95 0.02 36.17 0.02 36.4 0.02 36.62 0.02 36.85 0.02 37.07 0.02 37.3 0.02 37.53 0.02 37.75 0.02 37.98 0.02 38.2 0.02 38.43 0.02 38.65 0.02 38.88 0.02 39.1 0.02 39.33 0.02 39.55 0.02 39.78 0.02 40 0.02 40.23 0.02 40.46 0.02 40.68 0.02 40.91 0.02 41.13 0.02 41.36 0.02 41.58 0.02 41.81 0.02 42.03 0.02 42.26 0.02 42.48 0.02 42.71 0.02 42.93 0.02 43.16 0.02 43.39 0.02 43.61 0.02 43.84 0.02 44.06 0.02 44.29 0.02 44.51 0.02 44.74 0.02 44.96 0.02 45.19 0.02 45.41 0.02 45.64 0.02 45.86 0.02 46.09 0.02 46.31 0.02 46.54 0.02 46.77 0.02 46.99 0.02 47.22 0.02 47.44 0.02 47.67 0.02 47.89 0.02 48.12 0.02 48.34 0.02 48.57 0.02 48.79 0.02 49.02 0.02 49.24 0.02 49.47 0.02 49.7 0.02 49.92 0.02 50.15 0.02 50.37 0.02 50.6 0.02 50.82 0.02 51.05 0.02 51.27 0.02 51.5 0.02 51.72 0.02 51.95 0.02 52.17 0.02 52.4 0.02 52.63 0.02 52.85 0.02 53.08 0.02 53.3 0.02 53.53 0.02 53.75 0.02 53.98 0.02 54.2 0.02 54.43 0.02 54.65 0.02 54.88 0.02 55.1 0.02 55.33 0.02 55.56 0.02 55.78 0.02 56.01 0.02 56.23 0.02" class="primitive"/>
          </g>
          <g transform="translate(79.65,58.46)" id="img-d0045484-40" stroke-dasharray="none" stroke="#FF6DAE" class="color_45">
            <path fill="none" d="M-56.23,3.4 L -56.01 3.15 -55.78 3.15 -55.56 3.97 -55.33 2.75 -55.1 2.79 -54.88 2.86 -54.65 3.03 -54.43 3.22 -54.2 4.57 -53.98 4.67 -53.75 4.78 -53.53 4.91 -53.3 4.68 -53.08 6.08 -52.85 4.37 -52.63 4.62 -52.4 3.47 -52.17 4.6 -51.95 4.6 -51.72 4.59 -51.5 4.49 -51.27 4.49 -51.05 4.63 -50.82 3.16 -50.6 2.78 -50.37 3.85 -50.15 2.35 -49.92 0.91 -49.7 0.44 -49.47 -0.37 -49.24 -0.37 -49.02 -1.33 -48.79 -2.22 -48.57 -1.39 -48.34 -1.39 -48.12 -2.11 -47.89 -2.11 -47.67 -1.17 -47.44 -2.99 -47.22 -4.37 -46.99 -3.29 -46.77 -3.29 -46.54 -2.41 -46.31 -2.41 -46.09 -1.29 -45.86 -0.17 -45.64 -0.17 -45.41 -0.17 -45.19 -0.17 -44.96 -0.17 -44.74 -0.17 -44.51 -0.17 -44.29 -0.17 -44.06 -0.17 -43.84 -0.17 -43.61 -0.17 -43.39 -0.17 -43.16 -0.17 -42.93 -0.17 -42.71 -0.17 -42.48 -0.17 -42.26 -0.17 -42.03 -0.17 -41.81 -0.17 -41.58 -0.17 -41.36 -0.17 -41.13 -0.17 -40.91 -0.17 -40.68 -0.17 -40.46 -0.17 -40.23 -0.17 -40 -0.17 -39.78 -0.17 -39.55 -0.17 -39.33 -0.17 -39.1 -0.17 -38.88 -0.17 -38.65 -0.17 -38.43 -0.17 -38.2 -0.17 -37.98 -0.17 -37.75 -0.17 -37.53 -0.17 -37.3 -0.17 -37.07 -0.17 -36.85 -0.17 -36.62 -0.17 -36.4 -0.17 -36.17 -0.17 -35.95 -0.17 -35.72 -0.17 -35.5 -0.17 -35.27 -0.17 -35.05 -0.17 -34.82 -0.17 -34.6 -0.17 -34.37 -0.17 -34.14 -0.17 -33.92 -0.17 -33.69 -0.17 -33.47 -0.17 -33.24 -0.17 -33.02 -0.17 -32.79 -0.17 -32.57 -0.17 -32.34 -0.17 -32.12 -0.17 -31.89 -0.17 -31.67 -0.17 -31.44 -0.17 -31.21 -0.17 -30.99 -0.17 -30.76 -0.17 -30.54 -0.17 -30.31 -0.17 -30.09 -0.17 -29.86 -0.17 -29.64 -0.17 -29.41 -0.17 -29.19 -0.17 -28.96 -0.17 -28.74 -0.17 -28.51 -0.17 -28.28 -0.17 -28.06 -0.17 -27.83 -0.17 -27.61 -0.17 -27.38 -0.17 -27.16 -0.17 -26.93 -0.17 -26.71 -0.17 -26.48 -0.17 -26.26 -0.17 -26.03 -0.17 -25.81 -0.17 -25.58 -0.17 -25.35 -0.17 -25.13 -0.17 -24.9 -0.17 -24.68 -0.17 -24.45 -0.17 -24.23 -0.17 -24 -0.17 -23.78 -0.17 -23.55 -0.17 -23.33 -0.17 -23.1 -0.17 -22.88 -0.17 -22.65 -0.17 -22.42 -0.17 -22.2 -0.17 -21.97 -0.17 -21.75 -0.17 -21.52 -0.17 -21.3 -0.17 -21.07 -0.17 -20.85 -0.17 -20.62 -0.17 -20.4 -0.17 -20.17 -0.17 -19.95 -0.17 -19.72 -0.17 -19.5 -0.17 -19.27 -0.17 -19.04 -0.17 -18.82 -0.17 -18.59 -0.17 -18.37 -0.17 -18.14 -0.17 -17.92 -0.17 -17.69 -0.17 -17.47 -0.17 -17.24 -0.17 -17.02 -0.17 -16.79 -0.17 -16.57 -0.17 -16.34 -0.17 -16.11 -0.17 -15.89 -0.17 -15.66 -0.17 -15.44 -0.17 -15.21 -0.17 -14.99 -0.17 -14.76 -0.17 -14.54 -0.17 -14.31 -0.17 -14.09 -0.17 -13.86 -0.17 -13.64 -0.17 -13.41 -0.17 -13.18 -0.17 -12.96 -0.17 -12.73 -0.17 -12.51 -0.17 -12.28 -0.17 -12.06 -0.17 -11.83 -0.17 -11.61 -0.17 -11.38 -0.17 -11.16 -0.17 -10.93 -0.17 -10.71 -0.17 -10.48 -0.17 -10.25 -0.17 -10.03 -0.17 -9.8 -0.17 -9.58 -0.17 -9.35 -0.17 -9.13 -0.17 -8.9 -0.17 -8.68 -0.17 -8.45 -0.17 -8.23 -0.17 -8 -0.17 -7.78 -0.17 -7.55 -0.17 -7.32 -0.17 -7.1 -0.17 -6.87 -0.17 -6.65 -0.17 -6.42 -0.17 -6.2 -0.17 -5.97 -0.17 -5.75 -0.17 -5.52 -0.17 -5.3 -0.17 -5.07 -0.17 -4.85 -0.17 -4.62 -0.17 -4.39 -0.17 -4.17 -0.17 -3.94 -0.17 -3.72 -0.17 -3.49 -0.17 -3.27 -0.17 -3.04 -0.17 -2.82 -0.17 -2.59 -0.17 -2.37 -0.17 -2.14 -0.17 -1.92 -0.17 -1.69 -0.17 -1.46 -0.17 -1.24 -0.17 -1.01 -0.17 -0.79 -0.17 -0.56 -0.17 -0.34 -0.17 -0.11 -0.17 0.11 -0.17 0.34 -0.17 0.56 -0.17 0.79 -0.17 1.01 -0.17 1.24 -0.17 1.46 -0.17 1.69 -0.17 1.92 -0.17 2.14 -0.17 2.37 -0.17 2.59 -0.17 2.82 -0.17 3.04 -0.17 3.27 -0.17 3.49 -0.17 3.72 -0.17 3.94 -0.17 4.17 -0.17 4.39 -0.17 4.62 -0.17 4.85 -0.17 5.07 -0.17 5.3 -0.17 5.52 -0.17 5.75 -0.17 5.97 -0.17 6.2 -0.17 6.42 -0.17 6.65 -0.17 6.87 -0.17 7.1 -0.17 7.32 -0.17 7.55 -0.17 7.78 -0.17 8 -0.17 8.23 -0.17 8.45 -0.17 8.68 -0.17 8.9 -0.17 9.13 -0.17 9.35 -0.17 9.58 -0.17 9.8 -0.17 10.03 -0.17 10.25 -0.17 10.48 -0.17 10.71 -0.17 10.93 -0.17 11.16 -0.17 11.38 -0.17 11.61 -0.17 11.83 -0.17 12.06 -0.17 12.28 -0.17 12.51 -0.17 12.73 -0.17 12.96 -0.17 13.18 -0.17 13.41 -0.17 13.64 -0.17 13.86 -0.17 14.09 -0.17 14.31 -0.17 14.54 -0.17 14.76 -0.17 14.99 -0.17 15.21 -0.17 15.44 -0.17 15.66 -0.17 15.89 -0.17 16.11 -0.17 16.34 -0.17 16.57 -0.17 16.79 -0.17 17.02 -0.17 17.24 -0.17 17.47 -0.17 17.69 -0.17 17.92 -0.17 18.14 -0.17 18.37 -0.17 18.59 -0.17 18.82 -0.17 19.04 -0.17 19.27 -0.17 19.5 -0.17 19.72 -0.17 19.95 -0.17 20.17 -0.17 20.4 -0.17 20.62 -0.17 20.85 -0.17 21.07 -0.17 21.3 -0.17 21.52 -0.17 21.75 -0.17 21.97 -0.17 22.2 -0.17 22.42 -0.17 22.65 -0.17 22.88 -0.17 23.1 -0.17 23.33 -0.17 23.55 -0.17 23.78 -0.17 24 -0.17 24.23 -0.17 24.45 -0.17 24.68 -0.17 24.9 -0.17 25.13 -0.17 25.35 -0.17 25.58 -0.17 25.81 -0.17 26.03 -0.17 26.26 -0.17 26.48 -0.17 26.71 -0.17 26.93 -0.17 27.16 -0.17 27.38 -0.17 27.61 -0.17 27.83 -0.17 28.06 -0.17 28.28 -0.17 28.51 -0.17 28.74 -0.17 28.96 -0.17 29.19 -0.17 29.41 -0.17 29.64 -0.17 29.86 -0.17 30.09 -0.17 30.31 -0.17 30.54 -0.17 30.76 -0.17 30.99 -0.17 31.21 -0.17 31.44 -0.17 31.67 -0.17 31.89 -0.17 32.12 -0.17 32.34 -0.17 32.57 -0.17 32.79 -0.17 33.02 -0.17 33.24 -0.17 33.47 -0.17 33.69 -0.17 33.92 -0.17 34.14 -0.17 34.37 -0.17 34.6 -0.17 34.82 -0.17 35.05 -0.17 35.27 -0.17 35.5 -0.17 35.72 -0.17 35.95 -0.17 36.17 -0.17 36.4 -0.17 36.62 -0.17 36.85 -0.17 37.07 -0.17 37.3 -0.17 37.53 -0.17 37.75 -0.17 37.98 -0.17 38.2 -0.17 38.43 -0.17 38.65 -0.17 38.88 -0.17 39.1 -0.17 39.33 -0.17 39.55 -0.17 39.78 -0.17 40 -0.17 40.23 -0.17 40.46 -0.17 40.68 -0.17 40.91 -0.17 41.13 -0.17 41.36 -0.17 41.58 -0.17 41.81 -0.17 42.03 -0.17 42.26 -0.17 42.48 -0.17 42.71 -0.17 42.93 -0.17 43.16 -0.17 43.39 -0.17 43.61 -0.17 43.84 -0.17 44.06 -0.17 44.29 -0.17 44.51 -0.17 44.74 -0.17 44.96 -0.17 45.19 -0.17 45.41 -0.17 45.64 -0.17 45.86 -0.17 46.09 -0.17 46.31 -0.17 46.54 -0.17 46.77 -0.17 46.99 -0.17 47.22 -0.17 47.44 -0.17 47.67 -0.17 47.89 -0.17 48.12 -0.17 48.34 -0.17 48.57 -0.17 48.79 -0.17 49.02 -0.17 49.24 -0.17 49.47 -0.17 49.7 -0.17 49.92 -0.17 50.15 -0.17 50.37 -0.17 50.6 -0.17 50.82 -0.17 51.05 -0.17 51.27 -0.17 51.5 -0.17 51.72 -0.17 51.95 -0.17 52.17 -0.17 52.4 -0.17 52.63 -0.17 52.85 -0.17 53.08 -0.17 53.3 -0.17 53.53 -0.17 53.75 -0.17 53.98 -0.17 54.2 -0.17 54.43 -0.17 54.65 -0.17 54.88 -0.17 55.1 -0.17 55.33 -0.17 55.56 -0.17 55.78 -0.17 56.01 -0.17 56.23 -0.17" class="primitive"/>
          </g>
          <g transform="translate(79.65,52.43)" id="img-d0045484-41" stroke-dasharray="none" stroke="#00B78D" class="color_44">
            <path fill="none" d="M-56.23,7.29 L -56.01 7.53 -55.78 7.53 -55.56 6.26 -55.33 7.71 -55.1 7.89 -54.88 7.82 -54.65 7.65 -54.43 7.46 -54.2 6.11 -53.98 6.01 -53.75 5.9 -53.53 4.59 -53.3 4.65 -53.08 4.61 -52.85 6.1 -52.63 6.07 -52.4 7.21 -52.17 6.08 -51.95 6.08 -51.72 6.09 -51.5 6.1 -51.27 6.1 -51.05 5.67 -50.82 6.53 -50.6 6.27 -50.37 5.99 -50.15 6.88 -49.92 5.47 -49.7 4.08 -49.47 3.58 -49.24 3.58 -49.02 2.65 -48.79 0.66 -48.57 1.51 -48.34 2.51 -48.12 1.49 -47.89 1.99 -47.67 0.13 -47.44 -0.27 -47.22 -0.58 -46.99 -1.6 -46.77 -2.68 -46.54 -2.12 -46.31 -1.64 -46.09 -1.15 -45.86 -1.15 -45.64 -1.15 -45.41 -1.15 -45.19 -1.15 -44.96 -0.51 -44.74 -0.35 -44.51 -0.35 -44.29 -0.35 -44.06 -0.35 -43.84 -0.35 -43.61 -0.35 -43.39 -0.35 -43.16 -0.35 -42.93 -0.35 -42.71 -0.35 -42.48 -0.35 -42.26 -0.35 -42.03 -0.35 -41.81 -0.35 -41.58 -0.35 -41.36 -0.35 -41.13 -0.35 -40.91 -0.35 -40.68 -0.35 -40.46 -0.35 -40.23 -0.35 -40 -0.35 -39.78 -0.35 -39.55 -0.35 -39.33 -0.35 -39.1 -0.35 -38.88 -0.35 -38.65 -0.35 -38.43 -0.35 -38.2 -0.35 -37.98 -0.35 -37.75 -0.35 -37.53 -0.35 -37.3 -0.35 -37.07 -0.35 -36.85 -0.35 -36.62 -0.35 -36.4 -0.35 -36.17 -0.35 -35.95 -0.35 -35.72 -0.35 -35.5 -0.35 -35.27 -0.35 -35.05 -0.35 -34.82 -0.35 -34.6 -0.35 -34.37 -0.35 -34.14 -0.35 -33.92 -0.35 -33.69 -0.35 -33.47 -0.35 -33.24 -0.35 -33.02 -0.35 -32.79 -0.35 -32.57 -0.35 -32.34 -0.35 -32.12 -0.35 -31.89 -0.35 -31.67 -0.35 -31.44 -0.35 -31.21 -0.35 -30.99 -0.35 -30.76 -0.35 -30.54 -0.35 -30.31 -0.35 -30.09 -0.35 -29.86 -0.35 -29.64 -0.35 -29.41 -0.35 -29.19 -0.35 -28.96 -0.35 -28.74 -0.35 -28.51 -0.35 -28.28 -0.35 -28.06 -0.35 -27.83 -0.35 -27.61 -0.35 -27.38 -0.35 -27.16 -0.35 -26.93 -0.35 -26.71 -0.35 -26.48 -0.35 -26.26 -0.35 -26.03 -0.35 -25.81 -0.35 -25.58 -0.35 -25.35 -0.35 -25.13 -0.35 -24.9 -0.35 -24.68 -0.35 -24.45 -0.35 -24.23 -0.35 -24 -0.35 -23.78 -0.35 -23.55 -0.35 -23.33 -0.35 -23.1 -0.35 -22.88 -0.35 -22.65 -0.35 -22.42 -0.35 -22.2 -0.35 -21.97 -0.35 -21.75 -0.35 -21.52 -0.35 -21.3 -0.35 -21.07 -0.35 -20.85 -0.35 -20.62 -0.35 -20.4 -0.35 -20.17 -0.35 -19.95 -0.35 -19.72 -0.35 -19.5 -0.35 -19.27 -0.35 -19.04 -0.35 -18.82 -0.35 -18.59 -0.35 -18.37 -0.35 -18.14 -0.35 -17.92 -0.35 -17.69 -0.35 -17.47 -0.35 -17.24 -0.35 -17.02 -0.35 -16.79 -0.35 -16.57 -0.35 -16.34 -0.35 -16.11 -0.35 -15.89 -0.35 -15.66 -0.35 -15.44 -0.35 -15.21 -0.35 -14.99 -0.35 -14.76 -0.35 -14.54 -0.35 -14.31 -0.35 -14.09 -0.35 -13.86 -0.35 -13.64 -0.35 -13.41 -0.35 -13.18 -0.35 -12.96 -0.35 -12.73 -0.35 -12.51 -0.35 -12.28 -0.35 -12.06 -0.35 -11.83 -0.35 -11.61 -0.35 -11.38 -0.35 -11.16 -0.35 -10.93 -0.35 -10.71 -0.35 -10.48 -0.35 -10.25 -0.35 -10.03 -0.35 -9.8 -0.35 -9.58 -0.35 -9.35 -0.35 -9.13 -0.35 -8.9 -0.35 -8.68 -0.35 -8.45 -0.35 -8.23 -0.35 -8 -0.35 -7.78 -0.35 -7.55 -0.35 -7.32 -0.35 -7.1 -0.35 -6.87 -0.35 -6.65 -0.35 -6.42 -0.35 -6.2 -0.35 -5.97 -0.35 -5.75 -0.35 -5.52 -0.35 -5.3 -0.35 -5.07 -0.35 -4.85 -0.35 -4.62 -0.35 -4.39 -0.35 -4.17 -0.35 -3.94 -0.35 -3.72 -0.35 -3.49 -0.35 -3.27 -0.35 -3.04 -0.35 -2.82 -0.35 -2.59 -0.35 -2.37 -0.35 -2.14 -0.35 -1.92 -0.35 -1.69 -0.35 -1.46 -0.35 -1.24 -0.35 -1.01 -0.35 -0.79 -0.35 -0.56 -0.35 -0.34 -0.35 -0.11 -0.35 0.11 -0.35 0.34 -0.35 0.56 -0.35 0.79 -0.35 1.01 -0.35 1.24 -0.35 1.46 -0.35 1.69 -0.35 1.92 -0.35 2.14 -0.35 2.37 -0.35 2.59 -0.35 2.82 -0.35 3.04 -0.35 3.27 -0.35 3.49 -0.35 3.72 -0.35 3.94 -0.35 4.17 -0.35 4.39 -0.35 4.62 -0.35 4.85 -0.35 5.07 -0.35 5.3 -0.35 5.52 -0.35 5.75 -0.35 5.97 -0.35 6.2 -0.35 6.42 -0.35 6.65 -0.35 6.87 -0.35 7.1 -0.35 7.32 -0.35 7.55 -0.35 7.78 -0.35 8 -0.35 8.23 -0.35 8.45 -0.35 8.68 -0.35 8.9 -0.35 9.13 -0.35 9.35 -0.35 9.58 -0.35 9.8 -0.35 10.03 -0.35 10.25 -0.35 10.48 -0.35 10.71 -0.35 10.93 -0.35 11.16 -0.35 11.38 -0.35 11.61 -0.35 11.83 -0.35 12.06 -0.35 12.28 -0.35 12.51 -0.35 12.73 -0.35 12.96 -0.35 13.18 -0.35 13.41 -0.35 13.64 -0.35 13.86 -0.35 14.09 -0.35 14.31 -0.35 14.54 -0.35 14.76 -0.35 14.99 -0.35 15.21 -33.96 15.44 -0.35 15.66 -0.35 15.89 -0.35 16.11 -0.35 16.34 -0.35 16.57 -0.35 16.79 -0.35 17.02 -0.35 17.24 -0.35 17.47 -0.35 17.69 -0.35 17.92 -0.35 18.14 -0.35 18.37 -0.35 18.59 -0.35 18.82 -0.35 19.04 -0.35 19.27 -0.35 19.5 -0.35 19.72 -0.35 19.95 -0.35 20.17 -0.35 20.4 -0.35 20.62 -0.35 20.85 -0.35 21.07 -0.35 21.3 -0.35 21.52 -0.35 21.75 -0.35 21.97 -0.35 22.2 -0.35 22.42 -0.35 22.65 -0.35 22.88 -0.35 23.1 -0.35 23.33 -0.35 23.55 -0.35 23.78 -0.35 24 -0.35 24.23 -0.35 24.45 -0.35 24.68 -0.35 24.9 -0.35 25.13 -0.35 25.35 -0.35 25.58 -0.35 25.81 -0.35 26.03 -0.35 26.26 -0.35 26.48 -0.35 26.71 -0.35 26.93 -0.35 27.16 -0.35 27.38 -0.35 27.61 -0.35 27.83 -0.35 28.06 -0.35 28.28 -0.35 28.51 -0.35 28.74 -0.35 28.96 -0.35 29.19 -0.35 29.41 -0.35 29.64 -0.35 29.86 -0.35 30.09 -0.35 30.31 -0.35 30.54 -0.35 30.76 -0.35 30.99 -0.35 31.21 -0.35 31.44 -0.35 31.67 -0.35 31.89 -0.35 32.12 -0.35 32.34 -0.35 32.57 -0.35 32.79 -0.35 33.02 -0.35 33.24 -0.35 33.47 -0.35 33.69 -0.35 33.92 -0.35 34.14 -0.35 34.37 -0.35 34.6 -0.35 34.82 -0.35 35.05 -0.35 35.27 -0.35 35.5 -0.35 35.72 -0.35 35.95 -0.35 36.17 -0.35 36.4 -0.35 36.62 -0.35 36.85 -0.35 37.07 -0.35 37.3 -0.35 37.53 -0.35 37.75 -0.35 37.98 -0.35 38.2 -0.35 38.43 -0.35 38.65 -0.35 38.88 -0.35 39.1 -0.35 39.33 -0.35 39.55 -0.35 39.78 -0.35 40 -0.35 40.23 -0.35 40.46 -0.35 40.68 -0.35 40.91 -0.35 41.13 -0.35 41.36 -0.35 41.58 -0.35 41.81 -0.35 42.03 -0.35 42.26 -0.35 42.48 -0.35 42.71 -0.35 42.93 -0.35 43.16 -0.35 43.39 -0.35 43.61 -0.35 43.84 -0.35 44.06 -0.35 44.29 -0.35 44.51 -0.35 44.74 -0.35 44.96 -0.35 45.19 -0.35 45.41 -0.35 45.64 -0.35 45.86 -0.35 46.09 -0.35 46.31 -0.35 46.54 -0.35 46.77 -0.35 46.99 -0.35 47.22 -0.35 47.44 -0.35 47.67 -0.35 47.89 -0.35 48.12 -0.35 48.34 -0.35 48.57 -0.35 48.79 -0.35 49.02 -0.35 49.24 -0.35 49.47 -0.35 49.7 -0.35 49.92 -0.35 50.15 -0.35 50.37 -0.35 50.6 -0.35 50.82 -0.35 51.05 -0.35 51.27 -0.35 51.5 -0.35 51.72 -0.35 51.95 -0.35 52.17 -0.35 52.4 -0.35 52.63 -0.35 52.85 -0.35 53.08 -0.35 53.3 -0.35 53.53 -0.35 53.75 -0.35 53.98 -0.35 54.2 -0.35 54.43 -0.35 54.65 -0.35 54.88 -0.35 55.1 -0.35 55.33 -0.35 55.56 -0.35 55.78 -0.35 56.01 -0.35 56.23 -0.35" class="primitive"/>
          </g>
          <g transform="translate(79.65,55.57)" id="img-d0045484-42" stroke-dasharray="none" stroke="#BEA9FF" class="color_46">
            <path fill="none" d="M-56.23,2 L -56.01 2.04 -55.78 3.49 -55.56 3.57 -55.33 4.8 -55.1 3.45 -54.88 3.24 -54.65 1.86 -54.43 0.41 -54.2 0.31 -53.98 0.19 -53.75 -1.29 -53.53 -1.2 -53.3 -2.58 -53.08 -2.58 -52.85 -0.99 -52.63 -2.08 -52.4 -0.48 -52.17 -0.15 -51.95 -0.15 -51.72 -0.08 -51.5 0.01 -51.27 1.45 -51.05 0.17 -50.82 0.17 -50.6 0.58 -50.37 0.74 -50.15 0.74 -49.92 0.74 -49.7 0.9 -49.47 0.21 -49.24 1.1 -49.02 1.35 -48.79 0.8 -48.57 0.32 -48.34 -0.6 -48.12 -0.32 -47.89 -0.43 -47.67 -0.43 -47.44 0.23 -47.22 -0.25 -46.99 0.71 -46.77 0.45 -46.54 1.39 -46.31 0.44 -46.09 0.96 -45.86 -1.12 -45.64 -1.12 -45.41 -1.12 -45.19 -1.12 -44.96 -1.12 -44.74 -1.12 -44.51 -1.12 -44.29 -1.12 -44.06 -1.12 -43.84 -1.12 -43.61 -1.12 -43.39 -1.12 -43.16 -1.12 -42.93 -1.12 -42.71 -1.12 -42.48 -1.12 -42.26 -1.12 -42.03 -1.12 -41.81 -1.12 -41.58 -1.12 -41.36 -1.12 -41.13 -1.12 -40.91 -1.12 -40.68 -1.12 -40.46 -1.12 -40.23 -1.12 -40 -0.43 -39.78 0.01 -39.55 0.01 -39.33 0.01 -39.1 0.01 -38.88 0.01 -38.65 0.01 -38.43 0.01 -38.2 0.01 -37.98 0.01 -37.75 0.01 -37.53 0.01 -37.3 0.01 -37.07 0.01 -36.85 0.01 -36.62 0.01 -36.4 0.01 -36.17 0.01 -35.95 0.01 -35.72 0.01 -35.5 0.01 -35.27 0.01 -35.05 0.01 -34.82 0.01 -34.6 0.01 -34.37 0.01 -34.14 0.01 -33.92 0.01 -33.69 0.01 -33.47 0.01 -33.24 0.01 -33.02 0.01 -32.79 0.01 -32.57 0.01 -32.34 0.01 -32.12 0.01 -31.89 0.01 -31.67 0.01 -31.44 0.01 -31.21 0.01 -30.99 0.01 -30.76 0.01 -30.54 0.01 -30.31 0.01 -30.09 0.01 -29.86 0.01 -29.64 0.01 -29.41 0.01 -29.19 0.01 -28.96 0.01 -28.74 0.01 -28.51 0.01 -28.28 0.01 -28.06 0.01 -27.83 0.01 -27.61 0.01 -27.38 0.01 -27.16 0.01 -26.93 0.01 -26.71 0.01 -26.48 0.01 -26.26 0.01 -26.03 0.01 -25.81 0.01 -25.58 0.01 -25.35 0.01 -25.13 0.01 -24.9 0.01 -24.68 0.01 -24.45 0.01 -24.23 0.01 -24 0.01 -23.78 0.01 -23.55 0.01 -23.33 0.01 -23.1 0.01 -22.88 0.01 -22.65 0.01 -22.42 0.01 -22.2 0.01 -21.97 0.01 -21.75 0.01 -21.52 0.01 -21.3 0.01 -21.07 0.01 -20.85 0.01 -20.62 0.01 -20.4 0.01 -20.17 0.01 -19.95 0.01 -19.72 0.01 -19.5 0.01 -19.27 0.01 -19.04 0.01 -18.82 0.01 -18.59 0.01 -18.37 0.01 -18.14 0.01 -17.92 0.01 -17.69 0.01 -17.47 0.01 -17.24 0.01 -17.02 0.01 -16.79 0.01 -16.57 0.01 -16.34 0.01 -16.11 0.01 -15.89 0.01 -15.66 0.01 -15.44 0.01 -15.21 0.01 -14.99 0.01 -14.76 0.01 -14.54 0.01 -14.31 0.01 -14.09 0.01 -13.86 0.01 -13.64 0.01 -13.41 0.01 -13.18 0.01 -12.96 0.01 -12.73 0.01 -12.51 0.01 -12.28 0.01 -12.06 0.01 -11.83 0.01 -11.61 0.01 -11.38 0.01 -11.16 0.01 -10.93 0.01 -10.71 0.01 -10.48 0.01 -10.25 0.01 -10.03 0.01 -9.8 0.01 -9.58 0.01 -9.35 0.01 -9.13 0.01 -8.9 0.01 -8.68 0.01 -8.45 0.01 -8.23 0.01 -8 0.01 -7.78 0.01 -7.55 0.01 -7.32 0.01 -7.1 0.01 -6.87 0.01 -6.65 0.01 -6.42 0.01 -6.2 0.01 -5.97 0.01 -5.75 0.01 -5.52 0.01 -5.3 0.01 -5.07 0.01 -4.85 0.01 -4.62 0.01 -4.39 0.01 -4.17 0.01 -3.94 0.01 -3.72 0.01 -3.49 0.01 -3.27 0.01 -3.04 0.01 -2.82 0.01 -2.59 0.01 -2.37 0.01 -2.14 0.01 -1.92 0.01 -1.69 0.01 -1.46 0.01 -1.24 0.01 -1.01 0.01 -0.79 0.01 -0.56 0.01 -0.34 0.01 -0.11 0.01 0.11 0.01 0.34 0.01 0.56 0.01 0.79 0.01 1.01 0.01 1.24 0.01 1.46 0.01 1.69 0.01 1.92 0.01 2.14 0.01 2.37 0.01 2.59 0.01 2.82 0.01 3.04 0.01 3.27 0.01 3.49 0.01 3.72 0.01 3.94 0.01 4.17 0.01 4.39 0.01 4.62 0.01 4.85 0.01 5.07 0.01 5.3 0.01 5.52 0.01 5.75 0.01 5.97 0.01 6.2 0.01 6.42 0.01 6.65 0.01 6.87 0.01 7.1 0.01 7.32 0.01 7.55 0.01 7.78 0.01 8 0.01 8.23 0.01 8.45 0.01 8.68 0.01 8.9 0.01 9.13 0.01 9.35 0.01 9.58 0.01 9.8 0.01 10.03 0.01 10.25 0.01 10.48 0.01 10.71 0.01 10.93 0.01 11.16 0.01 11.38 0.01 11.61 0.01 11.83 0.01 12.06 0.01 12.28 0.01 12.51 0.01 12.73 0.01 12.96 0.01 13.18 0.01 13.41 0.01 13.64 0.01 13.86 0.01 14.09 0.01 14.31 0.01 14.54 0.01 14.76 0.01 14.99 0.01 15.21 0.01 15.44 0.01 15.66 0.01 15.89 0.01 16.11 0.01 16.34 0.01 16.57 0.01 16.79 0.01 17.02 0.01 17.24 0.01 17.47 0.01 17.69 0.01 17.92 0.01 18.14 0.01 18.37 0.01 18.59 0.01 18.82 0.01 19.04 0.01 19.27 0.01 19.5 0.01 19.72 0.01 19.95 0.01 20.17 0.01 20.4 0.01 20.62 0.01 20.85 0.01 21.07 0.01 21.3 0.01 21.52 0.01 21.75 0.01 21.97 0.01 22.2 0.01 22.42 0.01 22.65 0.01 22.88 0.01 23.1 0.01 23.33 0.01 23.55 0.01 23.78 0.01 24 0.01 24.23 0.01 24.45 0.01 24.68 0.01 24.9 0.01 25.13 0.01 25.35 0.01 25.58 0.01 25.81 0.01 26.03 0.01 26.26 0.01 26.48 0.01 26.71 0.01 26.93 0.01 27.16 0.01 27.38 0.01 27.61 0.01 27.83 0.01 28.06 0.01 28.28 0.01 28.51 0.01 28.74 0.01 28.96 0.01 29.19 0.01 29.41 0.01 29.64 0.01 29.86 0.01 30.09 0.01 30.31 0.01 30.54 0.01 30.76 0.01 30.99 0.01 31.21 0.01 31.44 0.01 31.67 0.01 31.89 0.01 32.12 0.01 32.34 0.01 32.57 0.01 32.79 0.01 33.02 0.01 33.24 0.01 33.47 0.01 33.69 0.01 33.92 0.01 34.14 0.01 34.37 0.01 34.6 0.01 34.82 0.01 35.05 0.01 35.27 0.01 35.5 0.01 35.72 0.01 35.95 0.01 36.17 0.01 36.4 0.01 36.62 0.01 36.85 0.01 37.07 0.01 37.3 0.01 37.53 0.01 37.75 0.01 37.98 0.01 38.2 0.01 38.43 0.01 38.65 0.01 38.88 0.01 39.1 0.01 39.33 0.01 39.55 0.01 39.78 0.01 40 0.01 40.23 0.01 40.46 0.01 40.68 0.01 40.91 0.01 41.13 0.01 41.36 0.01 41.58 0.01 41.81 0.01 42.03 0.01 42.26 0.01 42.48 0.01 42.71 0.01 42.93 0.01 43.16 0.01 43.39 0.01 43.61 0.01 43.84 0.01 44.06 0.01 44.29 0.01 44.51 0.01 44.74 0.01 44.96 0.01 45.19 0.01 45.41 0.01 45.64 0.01 45.86 0.01 46.09 0.01 46.31 0.01 46.54 0.01 46.77 0.01 46.99 0.01 47.22 0.01 47.44 0.01 47.67 0.01 47.89 0.01 48.12 0.01 48.34 0.01 48.57 0.01 48.79 0.01 49.02 0.01 49.24 0.01 49.47 0.01 49.7 0.01 49.92 0.01 50.15 0.01 50.37 0.01 50.6 0.01 50.82 0.01 51.05 0.01 51.27 0.01 51.5 0.01 51.72 0.01 51.95 0.01 52.17 0.01 52.4 0.01 52.63 0.01 52.85 0.01 53.08 0.01 53.3 0.01 53.53 0.01 53.75 0.01 53.98 0.01 54.2 0.01 54.43 0.01 54.65 0.01 54.88 0.01 55.1 0.01 55.33 0.01 55.56 0.01 55.78 0.01 56.01 0.01 56.23 0.01" class="primitive"/>
          </g>
        </g>
      </g>
    </g>
  </g>
  <g class="guide ylabels" font-size="2.82" font-family="'PT Sans Caption','Helvetica Neue','Helvetica',sans-serif" fill="#6C606B" id="img-d0045484-43">
    <g transform="translate(20.42,78.72)" id="img-d0045484-44">
      <g class="primitive">
        <text text-anchor="end" dy="0.35em">-0.05</text>
      </g>
    </g>
    <g transform="translate(20.42,60.79)" id="img-d0045484-45">
      <g class="primitive">
        <text text-anchor="end" dy="0.35em">0.00</text>
      </g>
    </g>
    <g transform="translate(20.42,42.86)" id="img-d0045484-46">
      <g class="primitive">
        <text text-anchor="end" dy="0.35em">0.05</text>
      </g>
    </g>
    <g transform="translate(20.42,24.93)" id="img-d0045484-47">
      <g class="primitive">
        <text text-anchor="end" dy="0.35em">0.10</text>
      </g>
    </g>
    <g transform="translate(20.42,7)" id="img-d0045484-48">
      <g class="primitive">
        <text text-anchor="end" dy="0.35em">0.15</text>
      </g>
    </g>
  </g>
  <g font-size="3.88" font-family="'PT Sans','Helvetica Neue','Helvetica',sans-serif" fill="#564A55" stroke="#000000" stroke-opacity="0.000" id="img-d0045484-49">
    <g transform="translate(8.81,40.86)" id="img-d0045484-50">
      <g class="primitive">
        <text text-anchor="middle" dy="0.35em" transform="rotate(-90,0, 2)">Diferença de pontuação externa</text>
      </g>
    </g>
  </g>
</g>
<defs>
  <clipPath id="img-d0045484-19">
    <path d="M21.42,5 L 138.11 5 138.11 80.72 21.42 80.72" />
  </clipPath>
</defs>
</svg>
