<?xml version="1.0" encoding="UTF-8"?>
<svg xmlns="http://www.w3.org/2000/svg"
     xmlns:xlink="http://www.w3.org/1999/xlink"
     xmlns:gadfly="http://www.gadflyjl.org/ns"
     version="1.2"
     width="150mm" height="100mm" viewBox="0 0 150 100"
     stroke="none"
     fill="#000000"
     stroke-width="0.3"
     font-size="3.88"
>
<defs>
  <marker id="arrow" markerWidth="15" markerHeight="7" refX="5" refY="3.5" orient="auto" markerUnits="strokeWidth">
    <path d="M0,0 L15,3.5 L0,7 z" stroke="context-stroke" fill="context-stroke"/>
  </marker>
</defs>
<g class="plotroot xscalable yscalable" id="img-93c54d4b-1">
  <g font-size="3.88" font-family="'PT Sans','Helvetica Neue','Helvetica',sans-serif" fill="#564A55" stroke="#000000" stroke-opacity="0.000" id="img-93c54d4b-2">
    <g transform="translate(78.13,88.39)">
      <g class="primitive">
        <text text-anchor="middle" dy="0.6em">Fitness</text>
      </g>
    </g>
  </g>
  <g class="guide xlabels" font-size="2.82" font-family="'PT Sans Caption','Helvetica Neue','Helvetica',sans-serif" fill="#6C606B" id="img-93c54d4b-3">
    <g transform="translate(22.31,81.72)">
      <g class="primitive">
        <text text-anchor="middle" dy="0.6em">0.0</text>
      </g>
    </g>
    <g transform="translate(78.13,81.72)">
      <g class="primitive">
        <text text-anchor="middle" dy="0.6em">0.5</text>
      </g>
    </g>
    <g transform="translate(133.96,81.72)">
      <g class="primitive">
        <text text-anchor="middle" dy="0.6em">1.0</text>
      </g>
    </g>
  </g>
  <g class="guide colorkey" id="img-93c54d4b-4">
    <g fill="#4C404B" font-size="2.82" font-family="'PT Sans','Helvetica Neue','Helvetica',sans-serif" id="img-93c54d4b-5">
      <g transform="translate(139.77,37.42)" id="img-93c54d4b-6" class="color_0.0">
        <g class="primitive">
          <text dy="0.35em">0.0</text>
        </g>
      </g>
      <g transform="translate(139.77,41.04)" id="img-93c54d4b-7" class="color_0.25">
        <g class="primitive">
          <text dy="0.35em">0.25</text>
        </g>
      </g>
      <g transform="translate(139.77,44.67)" id="img-93c54d4b-8" class="color_0.5">
        <g class="primitive">
          <text dy="0.35em">0.5</text>
        </g>
      </g>
      <g transform="translate(139.77,48.3)" id="img-93c54d4b-9" class="color_0.75">
        <g class="primitive">
          <text dy="0.35em">0.75</text>
        </g>
      </g>
      <g transform="translate(139.77,51.92)" id="img-93c54d4b-10" class="color_1.0">
        <g class="primitive">
          <text dy="0.35em">1.0</text>
        </g>
      </g>
    </g>
    <g stroke="#000000" stroke-opacity="0.000" id="img-93c54d4b-11">
      <g transform="translate(137.87,37.42)" id="img-93c54d4b-12" fill="#00BFFF" class="color_0.0">
        <path d="M-0.91,-0.91 L 0.91 -0.91 0.91 0.91 -0.91 0.91 z" class="primitive"/>
      </g>
      <g transform="translate(137.87,41.04)" id="img-93c54d4b-13" fill="#D4CA3A" class="color_0.25">
        <path d="M-0.91,-0.91 L 0.91 -0.91 0.91 0.91 -0.91 0.91 z" class="primitive"/>
      </g>
      <g transform="translate(137.87,44.67)" id="img-93c54d4b-14" fill="#FF6DAE" class="color_0.5">
        <path d="M-0.91,-0.91 L 0.91 -0.91 0.91 0.91 -0.91 0.91 z" class="primitive"/>
      </g>
      <g transform="translate(137.87,48.3)" id="img-93c54d4b-15" fill="#00B78D" class="color_0.75">
        <path d="M-0.91,-0.91 L 0.91 -0.91 0.91 0.91 -0.91 0.91 z" class="primitive"/>
      </g>
      <g transform="translate(137.87,51.92)" id="img-93c54d4b-16" fill="#BEA9FF" class="color_1.0">
        <path d="M-0.91,-0.91 L 0.91 -0.91 0.91 0.91 -0.91 0.91 z" class="primitive"/>
      </g>
    </g>
    <g fill="#362A35" font-size="3.88" font-family="'PT Sans','Helvetica Neue','Helvetica',sans-serif" stroke="#000000" stroke-opacity="0.000" id="img-93c54d4b-17">
      <g transform="translate(136.96,33.6)" id="img-93c54d4b-18">
        <g class="primitive">
          <text>b</text>
        </g>
      </g>
    </g>
  </g>
  <g clip-path="url(#img-93c54d4b-19)">
    <g id="img-93c54d4b-20">
      <g pointer-events="visible" fill="#000000" fill-opacity="0.000" stroke="#000000" stroke-opacity="0.000" class="guide background" id="img-93c54d4b-21">
        <g transform="translate(78.13,42.86)" id="img-93c54d4b-22">
          <path d="M-57.83,-37.86 L 57.83 -37.86 57.83 37.86 -57.83 37.86 z" class="primitive"/>
        </g>
      </g>
      <g class="guide ygridlines xfixed" stroke-dasharray="0.5,0.5" stroke-width="0.2" stroke="#D0D0E0" id="img-93c54d4b-23">
        <g transform="translate(78.13,78.72)" id="img-93c54d4b-24">
          <path fill="none" d="M-57.83,0 L 57.83 0" class="primitive"/>
        </g>
        <g transform="translate(78.13,60.79)" id="img-93c54d4b-25">
          <path fill="none" d="M-57.83,0 L 57.83 0" class="primitive"/>
        </g>
        <g transform="translate(78.13,42.86)" id="img-93c54d4b-26">
          <path fill="none" d="M-57.83,0 L 57.83 0" class="primitive"/>
        </g>
        <g transform="translate(78.13,24.93)" id="img-93c54d4b-27">
          <path fill="none" d="M-57.83,0 L 57.83 0" class="primitive"/>
        </g>
        <g transform="translate(78.13,7)" id="img-93c54d4b-28">
          <path fill="none" d="M-57.83,0 L 57.83 0" class="primitive"/>
        </g>
      </g>
      <g class="guide xgridlines yfixed" stroke-dasharray="0.5,0.5" stroke-width="0.2" stroke="#D0D0E0" id="img-93c54d4b-29">
        <g transform="translate(22.31,42.86)" id="img-93c54d4b-30">
          <path fill="none" d="M0,-37.86 L 0 37.86" class="primitive"/>
        </g>
        <g transform="translate(78.13,42.86)" id="img-93c54d4b-31">
          <path fill="none" d="M0,-37.86 L 0 37.86" class="primitive"/>
        </g>
        <g transform="translate(133.96,42.86)" id="img-93c54d4b-32">
          <path fill="none" d="M0,-37.86 L 0 37.86" class="primitive"/>
        </g>
      </g>
      <g class="plotpanel" id="img-93c54d4b-33">
        <metadata>
          <boundingbox value="20.305000000000007mm 5.0mm 115.655mm 75.715mm"/>
          <unitbox value="-0.0179123191975281 0.2055776336889075 1.0358246383950562 -0.21115526737781498"/>
        </metadata>
        <g stroke-width="0.3" fill="#000000" fill-opacity="0.000" class="geometry" id="img-93c54d4b-34">
          <g transform="translate(78.13,60.79)" id="img-93c54d4b-35" stroke-dasharray="none" stroke="#00BFFF" class="color_0.0">
            <path fill="none" d="M-53.04,-0.39 L -47.45 -7.35 -41.87 -3.47 -36.29 -9.47 -30.71 -5.75 -25.12 -11.61 -19.54 -12.16 -13.96 -14.64 -8.37 -13.83 -2.79 -14.47 2.79 -18.75 8.37 -14.48 13.96 3.2 19.54 15.62 25.12 17.9 30.71 17.93 36.29 17.93 41.87 17.93 47.45 17.93 53.04 17.93" class="primitive"/>
          </g>
          <g transform="translate(78.13,60.79)" id="img-93c54d4b-36" stroke-dasharray="none" stroke="#D4CA3A" class="color_0.25">
            <path fill="none" d="M-53.04,-10.25 L -47.45 -5.13 -41.87 -2.5 -36.29 -3.21 -30.71 -6.58 -25.12 -6.42 -19.54 -12.87 -13.96 -18.12 -8.37 -15.57 -2.79 -14.17 2.79 -16.71 8.37 -13.25 13.96 1.41 19.54 15.78 25.12 17.93 30.71 17.93 36.29 17.93 41.87 17.93 47.45 17.93 53.04 17.93" class="primitive"/>
          </g>
          <g transform="translate(78.13,60.79)" id="img-93c54d4b-37" stroke-dasharray="none" stroke="#FF6DAE" class="color_0.5">
            <path fill="none" d="M-53.04,-6.29 L -47.45 -3.17 -41.87 -6.56 -36.29 -6.34 -30.71 -3.82 -25.12 -4.49 -19.54 -12.26 -13.96 -16.66 -8.37 -14.29 -2.79 -21.58 2.79 -13.41 8.37 -8.87 13.96 -2.87 19.54 13.42 25.12 17.55 30.71 17.93 36.29 17.93 41.87 17.93 47.45 17.93 53.04 17.93" class="primitive"/>
          </g>
          <g transform="translate(78.13,60.79)" id="img-93c54d4b-38" stroke-dasharray="none" stroke="#00B78D" class="color_0.75">
            <path fill="none" d="M-53.04,-10.92 L -47.45 -3.24 -41.87 -6.35 -36.29 -6.92 -30.71 -5.89 -25.12 -3.38 -19.54 -7.28 -13.96 -10.34 -8.37 -17.16 -2.79 -22.45 2.79 -14.15 8.37 -13.86 13.96 2.31 19.54 12.25 25.12 17.74 30.71 17.93 36.29 17.93 41.87 17.93 47.45 17.93 53.04 17.93" class="primitive"/>
          </g>
          <g transform="translate(78.13,60.79)" id="img-93c54d4b-39" stroke-dasharray="none" stroke="#BEA9FF" class="color_1.0">
            <path fill="none" d="M-53.04,-6.29 L -47.45 -4.61 -41.87 -6.1 -36.29 -7.17 -30.71 -8.26 -25.12 -4.48 -19.54 -13.92 -13.96 -10.61 -8.37 -13.1 -2.79 -16.01 2.79 -21.03 8.37 -14.71 13.96 2.65 19.54 16.06 25.12 17.93 30.71 17.93 36.29 17.93 41.87 17.93 47.45 17.93 53.04 17.93" class="primitive"/>
          </g>
        </g>
      </g>
    </g>
  </g>
  <g class="guide ylabels" font-size="2.82" font-family="'PT Sans Caption','Helvetica Neue','Helvetica',sans-serif" fill="#6C606B" id="img-93c54d4b-40">
    <g transform="translate(19.3,78.72)" id="img-93c54d4b-41">
      <g class="primitive">
        <text text-anchor="end" dy="0.35em">0.00</text>
      </g>
    </g>
    <g transform="translate(19.3,60.79)" id="img-93c54d4b-42">
      <g class="primitive">
        <text text-anchor="end" dy="0.35em">0.05</text>
      </g>
    </g>
    <g transform="translate(19.3,42.86)" id="img-93c54d4b-43">
      <g class="primitive">
        <text text-anchor="end" dy="0.35em">0.10</text>
      </g>
    </g>
    <g transform="translate(19.3,24.93)" id="img-93c54d4b-44">
      <g class="primitive">
        <text text-anchor="end" dy="0.35em">0.15</text>
      </g>
    </g>
    <g transform="translate(19.3,7)" id="img-93c54d4b-45">
      <g class="primitive">
        <text text-anchor="end" dy="0.35em">0.20</text>
      </g>
    </g>
  </g>
  <g font-size="3.88" font-family="'PT Sans','Helvetica Neue','Helvetica',sans-serif" fill="#564A55" stroke="#000000" stroke-opacity="0.000" id="img-93c54d4b-46">
    <g transform="translate(8.81,40.86)" id="img-93c54d4b-47">
      <g class="primitive">
        <text text-anchor="middle" dy="0.35em" transform="rotate(-90,0, 2)">Frequencia</text>
      </g>
    </g>
  </g>
</g>
<defs>
  <clipPath id="img-93c54d4b-19">
    <path d="M20.31,5 L 135.96 5 135.96 80.72 20.31 80.72" />
  </clipPath>
</defs>
</svg>
