<?xml version="1.0" encoding="UTF-8"?>
<svg xmlns="http://www.w3.org/2000/svg"
     xmlns:xlink="http://www.w3.org/1999/xlink"
     xmlns:gadfly="http://www.gadflyjl.org/ns"
     version="1.2"
     width="150mm" height="100mm" viewBox="0 0 150 100"
     stroke="none"
     fill="#000000"
     stroke-width="0.3"
     font-size="3.88"
>
<defs>
  <marker id="arrow" markerWidth="15" markerHeight="7" refX="5" refY="3.5" orient="auto" markerUnits="strokeWidth">
    <path d="M0,0 L15,3.5 L0,7 z" stroke="context-stroke" fill="context-stroke"/>
  </marker>
</defs>
<g class="plotroot xscalable yscalable" id="img-49b5ca0a-1">
  <g font-size="3.88" font-family="'PT Sans','Helvetica Neue','Helvetica',sans-serif" fill="#564A55" stroke="#000000" stroke-opacity="0.000" id="img-49b5ca0a-2">
    <g transform="translate(76.96,88.39)">
      <g class="primitive">
        <text text-anchor="middle" dy="0.6em">Tempo</text>
      </g>
    </g>
  </g>
  <g class="guide xlabels" font-size="2.82" font-family="'PT Sans Caption','Helvetica Neue','Helvetica',sans-serif" fill="#6C606B" id="img-49b5ca0a-3">
    <g transform="translate(19.96,81.72)">
      <g class="primitive">
        <text text-anchor="middle" dy="0.6em">0</text>
      </g>
    </g>
    <g transform="translate(76.96,81.72)">
      <g class="primitive">
        <text text-anchor="middle" dy="0.6em">500</text>
      </g>
    </g>
    <g transform="translate(133.96,81.72)">
      <g class="primitive">
        <text text-anchor="middle" dy="0.6em">1000</text>
      </g>
    </g>
  </g>
  <g class="guide colorkey" id="img-49b5ca0a-4">
    <g fill="#4C404B" font-size="2.82" font-family="'PT Sans','Helvetica Neue','Helvetica',sans-serif" id="img-49b5ca0a-5">
      <g transform="translate(139.77,37.42)" id="img-49b5ca0a-6" class="color_0.0">
        <g class="primitive">
          <text dy="0.35em">0.0</text>
        </g>
      </g>
      <g transform="translate(139.77,41.04)" id="img-49b5ca0a-7" class="color_0.25">
        <g class="primitive">
          <text dy="0.35em">0.25</text>
        </g>
      </g>
      <g transform="translate(139.77,44.67)" id="img-49b5ca0a-8" class="color_0.5">
        <g class="primitive">
          <text dy="0.35em">0.5</text>
        </g>
      </g>
      <g transform="translate(139.77,48.3)" id="img-49b5ca0a-9" class="color_0.75">
        <g class="primitive">
          <text dy="0.35em">0.75</text>
        </g>
      </g>
      <g transform="translate(139.77,51.92)" id="img-49b5ca0a-10" class="color_1.0">
        <g class="primitive">
          <text dy="0.35em">1.0</text>
        </g>
      </g>
    </g>
    <g stroke="#000000" stroke-opacity="0.000" id="img-49b5ca0a-11">
      <g transform="translate(137.87,37.42)" id="img-49b5ca0a-12" fill="#00BFFF" class="color_0.0">
        <path d="M-0.91,-0.91 L 0.91 -0.91 0.91 0.91 -0.91 0.91 z" class="primitive"/>
      </g>
      <g transform="translate(137.87,41.04)" id="img-49b5ca0a-13" fill="#D4CA3A" class="color_0.25">
        <path d="M-0.91,-0.91 L 0.91 -0.91 0.91 0.91 -0.91 0.91 z" class="primitive"/>
      </g>
      <g transform="translate(137.87,44.67)" id="img-49b5ca0a-14" fill="#FF6DAE" class="color_0.5">
        <path d="M-0.91,-0.91 L 0.91 -0.91 0.91 0.91 -0.91 0.91 z" class="primitive"/>
      </g>
      <g transform="translate(137.87,48.3)" id="img-49b5ca0a-15" fill="#00B78D" class="color_0.75">
        <path d="M-0.91,-0.91 L 0.91 -0.91 0.91 0.91 -0.91 0.91 z" class="primitive"/>
      </g>
      <g transform="translate(137.87,51.92)" id="img-49b5ca0a-16" fill="#BEA9FF" class="color_1.0">
        <path d="M-0.91,-0.91 L 0.91 -0.91 0.91 0.91 -0.91 0.91 z" class="primitive"/>
      </g>
    </g>
    <g fill="#362A35" font-size="3.88" font-family="'PT Sans','Helvetica Neue','Helvetica',sans-serif" stroke="#000000" stroke-opacity="0.000" id="img-49b5ca0a-17">
      <g transform="translate(136.96,33.6)" id="img-49b5ca0a-18">
        <g class="primitive">
          <text>a</text>
        </g>
      </g>
    </g>
  </g>
  <g clip-path="url(#img-49b5ca0a-19)">
    <g id="img-49b5ca0a-20">
      <g pointer-events="visible" fill="#000000" fill-opacity="0.000" stroke="#000000" stroke-opacity="0.000" class="guide background" id="img-49b5ca0a-21">
        <g transform="translate(76.96,42.86)" id="img-49b5ca0a-22">
          <path d="M-59,-37.86 L 59 -37.86 59 37.86 -59 37.86 z" class="primitive"/>
        </g>
      </g>
      <g class="guide ygridlines xfixed" stroke-dasharray="0.5,0.5" stroke-width="0.2" stroke="#D0D0E0" id="img-49b5ca0a-23">
        <g transform="translate(76.96,78.71)" id="img-49b5ca0a-24">
          <path fill="none" d="M-59,0 L 59 0" class="primitive"/>
        </g>
        <g transform="translate(76.96,64.37)" id="img-49b5ca0a-25">
          <path fill="none" d="M-59,0 L 59 0" class="primitive"/>
        </g>
        <g transform="translate(76.96,50.03)" id="img-49b5ca0a-26">
          <path fill="none" d="M-59,0 L 59 0" class="primitive"/>
        </g>
        <g transform="translate(76.96,35.69)" id="img-49b5ca0a-27">
          <path fill="none" d="M-59,0 L 59 0" class="primitive"/>
        </g>
        <g transform="translate(76.96,21.34)" id="img-49b5ca0a-28">
          <path fill="none" d="M-59,0 L 59 0" class="primitive"/>
        </g>
        <g transform="translate(76.96,7)" id="img-49b5ca0a-29">
          <path fill="none" d="M-59,0 L 59 0" class="primitive"/>
        </g>
      </g>
      <g class="guide xgridlines yfixed" stroke-dasharray="0.5,0.5" stroke-width="0.2" stroke="#D0D0E0" id="img-49b5ca0a-30">
        <g transform="translate(19.96,42.86)" id="img-49b5ca0a-31">
          <path fill="none" d="M0,-37.86 L 0 37.86" class="primitive"/>
        </g>
        <g transform="translate(76.96,42.86)" id="img-49b5ca0a-32">
          <path fill="none" d="M0,-37.86 L 0 37.86" class="primitive"/>
        </g>
        <g transform="translate(133.96,42.86)" id="img-49b5ca0a-33">
          <path fill="none" d="M0,-37.86 L 0 37.86" class="primitive"/>
        </g>
      </g>
      <g class="plotpanel" id="img-49b5ca0a-34">
        <metadata>
          <boundingbox value="17.958333333333343mm 5.0mm 118.00166666666667mm 75.715mm"/>
          <unitbox value="-17.54360316369644 51.39440842222687 1035.0872063273928 -52.78881684445375"/>
        </metadata>
        <g stroke-width="0.3" fill="#000000" fill-opacity="0.000" class="geometry" id="img-49b5ca0a-35">
          <g transform="translate(76.39,42.38)" id="img-49b5ca0a-36" stroke="#00BFFF" stroke-dasharray="none" class="color_0.0">
            <path fill="none" d="M-56.43,-35.12 L -55.29 -35.13 -54.15 -34.83 -53.01 -26.24 -51.87 -15.19 -50.73 -5 -49.59 0.5 -48.45 1.43 -47.31 1.61 -46.17 1.72 -45.03 1.74 -43.89 1.74 -42.75 1.75 -41.61 1.75 -40.47 1.74 -39.33 1.73 -38.19 1.74 -37.05 1.73 -35.91 1.76 -34.77 1.74 -33.63 1.74 -32.49 1.72 -31.35 1.74 -30.21 1.73 -29.07 1.72 -27.93 1.71 -26.79 1.71 -25.65 1.7 -24.51 1.71 -23.37 1.71 -22.23 1.71 -21.09 1.7 -19.95 1.69 -18.81 1.68 -17.67 1.7 -16.53 1.69 -15.39 1.68 -14.25 1.68 -13.11 1.68 -11.97 1.67 -10.83 1.66 -9.69 1.66 -8.55 1.66 -7.41 1.66 -6.27 1.67 -5.13 1.66 -3.99 1.66 -2.85 1.65 -1.71 1.66 -0.57 1.66 0.57 1.65 1.71 1.65 2.85 1.65 3.99 1.64 5.13 1.63 6.27 1.65 7.41 1.63 8.55 1.63 9.69 1.63 10.83 1.62 11.97 1.63 13.11 1.62 14.25 1.61 15.39 1.6 16.53 1.6 17.67 1.59 18.81 1.58 19.95 1.58 21.09 1.58 22.23 1.59 23.37 1.58 24.51 1.57 25.65 1.57 26.79 1.57 27.93 1.56 29.07 1.56 30.21 1.55 31.35 1.56 32.49 1.55 33.63 1.55 34.77 1.54 35.91 1.55 37.05 1.55 38.19 1.53 39.33 1.53 40.47 1.53 41.61 1.53 42.75 1.51 43.89 1.49 45.03 1.5 46.17 1.5 47.31 1.5 48.45 1.5 49.59 1.5 50.73 1.51 51.87 1.5 53.01 1.48 54.15 1.5 55.29 1.49 56.43 1.49" class="primitive"/>
          </g>
          <g transform="translate(76.39,41.4)" id="img-49b5ca0a-37" stroke="#D4CA3A" stroke-dasharray="none" class="color_0.25">
            <path fill="none" d="M-56.43,-34.19 L -55.29 -34.2 -54.15 -33.93 -53.01 -26.19 -51.87 -14.52 -50.73 -4.44 -49.59 0.34 -48.45 1.37 -47.31 1.63 -46.17 1.72 -45.03 1.76 -43.89 1.78 -42.75 1.79 -41.61 1.78 -40.47 1.78 -39.33 1.78 -38.19 1.76 -37.05 1.76 -35.91 1.75 -34.77 1.74 -33.63 1.75 -32.49 1.74 -31.35 1.74 -30.21 1.73 -29.07 1.72 -27.93 1.72 -26.79 1.73 -25.65 1.74 -24.51 1.71 -23.37 1.71 -22.23 1.71 -21.09 1.7 -19.95 1.69 -18.81 1.68 -17.67 1.67 -16.53 1.67 -15.39 1.67 -14.25 1.66 -13.11 1.65 -11.97 1.64 -10.83 1.64 -9.69 1.64 -8.55 1.63 -7.41 1.63 -6.27 1.63 -5.13 1.63 -3.99 1.63 -2.85 1.61 -1.71 1.6 -0.57 1.61 0.57 1.59 1.71 1.59 2.85 1.59 3.99 1.6 5.13 1.59 6.27 1.58 7.41 1.58 8.55 1.56 9.69 1.55 10.83 1.54 11.97 1.54 13.11 1.54 14.25 1.52 15.39 1.52 16.53 1.52 17.67 1.52 18.81 1.5 19.95 1.51 21.09 1.5 22.23 1.5 23.37 1.5 24.51 1.49 25.65 1.49 26.79 1.49 27.93 1.49 29.07 1.48 30.21 1.47 31.35 1.48 32.49 1.46 33.63 1.46 34.77 1.45 35.91 1.45 37.05 1.45 38.19 1.45 39.33 1.44 40.47 1.44 41.61 1.43 42.75 1.44 43.89 1.45 45.03 1.44 46.17 1.43 47.31 1.44 48.45 1.44 49.59 1.44 50.73 1.43 51.87 1.43 53.01 1.44 54.15 1.43 55.29 1.41 56.43 1.4" class="primitive"/>
          </g>
          <g transform="translate(76.39,44.61)" id="img-49b5ca0a-38" stroke="#FF6DAE" stroke-dasharray="none" class="color_0.5">
            <path fill="none" d="M-56.43,-37.42 L -55.29 -37.42 -54.15 -37.08 -53.01 -29.86 -51.87 -17.5 -50.73 -6.22 -49.59 -0.5 -48.45 1.03 -47.31 1.47 -46.17 1.7 -45.03 1.79 -43.89 1.86 -42.75 1.88 -41.61 1.91 -40.47 1.92 -39.33 1.91 -38.19 1.93 -37.05 1.92 -35.91 1.92 -34.77 1.91 -33.63 1.92 -32.49 1.92 -31.35 1.9 -30.21 1.9 -29.07 1.9 -27.93 1.9 -26.79 1.9 -25.65 1.9 -24.51 1.88 -23.37 1.88 -22.23 1.88 -21.09 1.87 -19.95 1.86 -18.81 1.86 -17.67 1.86 -16.53 1.86 -15.39 1.84 -14.25 1.86 -13.11 1.84 -11.97 1.86 -10.83 1.86 -9.69 1.86 -8.55 1.85 -7.41 1.84 -6.27 1.85 -5.13 1.85 -3.99 1.85 -2.85 1.84 -1.71 1.84 -0.57 1.84 0.57 1.83 1.71 1.82 2.85 1.8 3.99 1.81 5.13 1.8 6.27 1.8 7.41 1.8 8.55 1.8 9.69 1.78 10.83 1.79 11.97 1.78 13.11 1.79 14.25 1.78 15.39 1.79 16.53 1.78 17.67 1.78 18.81 1.78 19.95 1.78 21.09 1.77 22.23 1.77 23.37 1.77 24.51 1.76 25.65 1.77 26.79 1.76 27.93 1.75 29.07 1.76 30.21 1.74 31.35 1.73 32.49 1.73 33.63 1.73 34.77 1.72 35.91 1.71 37.05 1.71 38.19 1.7 39.33 1.7 40.47 1.7 41.61 1.68 42.75 1.69 43.89 1.67 45.03 1.67 46.17 1.67 47.31 1.67 48.45 1.67 49.59 1.66 50.73 1.66 51.87 1.64 53.01 1.64 54.15 1.64 55.29 1.62 56.43 1.62" class="primitive"/>
          </g>
          <g transform="translate(76.39,50.73)" id="img-49b5ca0a-39" stroke="#00B78D" stroke-dasharray="none" class="color_0.75">
            <path fill="none" d="M-56.43,-43.47 L -55.29 -43.48 -54.15 -42.06 -53.01 -35.22 -51.87 -22.17 -50.73 -6.42 -49.59 0.44 -48.45 1.44 -47.31 1.73 -46.17 1.93 -45.03 2.05 -43.89 2.1 -42.75 2.13 -41.61 2.12 -40.47 2.13 -39.33 2.14 -38.19 2.13 -37.05 2.13 -35.91 2.11 -34.77 2.11 -33.63 2.09 -32.49 2.13 -31.35 2.14 -30.21 2.14 -29.07 2.14 -27.93 2.15 -26.79 2.15 -25.65 2.17 -24.51 2.17 -23.37 2.17 -22.23 2.16 -21.09 2.16 -19.95 2.16 -18.81 2.16 -17.67 2.14 -16.53 2.14 -15.39 2.15 -14.25 2.14 -13.11 2.14 -11.97 2.13 -10.83 2.13 -9.69 2.14 -8.55 2.14 -7.41 2.13 -6.27 2.12 -5.13 2.12 -3.99 2.12 -2.85 2.12 -1.71 2.11 -0.57 2.14 0.57 2.12 1.71 2.12 2.85 2.11 3.99 2.12 5.13 2.12 6.27 2.12 7.41 2.11 8.55 2.11 9.69 2.1 10.83 2.1 11.97 2.1 13.11 2.08 14.25 2.08 15.39 2.07 16.53 2.06 17.67 2.06 18.81 2.06 19.95 2.06 21.09 2.05 22.23 2.04 23.37 2.04 24.51 2.03 25.65 2.03 26.79 2.03 27.93 2.03 29.07 2.03 30.21 2.01 31.35 2.01 32.49 1.99 33.63 1.99 34.77 1.99 35.91 2.02 37.05 2.03 38.19 2.04 39.33 2.04 40.47 2.03 41.61 2.03 42.75 2.02 43.89 2.02 45.03 2 46.17 1.99 47.31 1.99 48.45 1.97 49.59 1.97 50.73 1.98 51.87 1.97 53.01 1.96 54.15 1.96 55.29 1.95 56.43 1.94" class="primitive"/>
          </g>
          <g transform="translate(76.39,59.05)" id="img-49b5ca0a-40" stroke="#BEA9FF" stroke-dasharray="none" class="color_1.0">
            <path fill="none" d="M-56.43,-51.86 L -55.29 -51.86 -54.15 -43.74 -53.01 -31.8 -51.87 -18.06 -50.73 -3.21 -49.59 1.17 -48.45 1.71 -47.31 1.86 -46.17 1.99 -45.03 2.15 -43.89 2.22 -42.75 2.27 -41.61 2.28 -40.47 2.3 -39.33 2.32 -38.19 2.34 -37.05 2.33 -35.91 2.31 -34.77 2.29 -33.63 2.29 -32.49 2.26 -31.35 2.28 -30.21 2.28 -29.07 2.28 -27.93 2.25 -26.79 2.24 -25.65 2.22 -24.51 2.21 -23.37 2.21 -22.23 2.19 -21.09 2.18 -19.95 2.15 -18.81 2.14 -17.67 2.14 -16.53 2.14 -15.39 2.15 -14.25 2.13 -13.11 2.13 -11.97 2.11 -10.83 2.09 -9.69 2.09 -8.55 2.06 -7.41 2.09 -6.27 2.09 -5.13 2.12 -3.99 2.16 -2.85 2.15 -1.71 2.15 -0.57 2.14 0.57 2.17 1.71 2.16 2.85 2.15 3.99 2.14 5.13 2.13 6.27 2.12 7.41 2.1 8.55 2.09 9.69 2.08 10.83 2.09 11.97 2.09 13.11 2.09 14.25 2.07 15.39 2.06 16.53 2.05 17.67 2.04 18.81 2.04 19.95 2.02 21.09 2.04 22.23 2.09 23.37 2.11 24.51 2.11 25.65 2.1 26.79 2.13 27.93 2.19 29.07 2.19 30.21 2.17 31.35 2.16 32.49 2.16 33.63 2.16 34.77 2.15 35.91 2.13 37.05 2.11 38.19 2.11 39.33 2.08 40.47 2.06 41.61 2.06 42.75 2.07 43.89 2.1 45.03 2.13 46.17 2.13 47.31 2.14 48.45 2.17 49.59 2.18 50.73 2.17 51.87 2.15 53.01 2.15 54.15 2.14 55.29 2.15 56.43 2.15" class="primitive"/>
          </g>
        </g>
      </g>
    </g>
  </g>
  <g class="guide ylabels" font-size="2.82" font-family="'PT Sans Caption','Helvetica Neue','Helvetica',sans-serif" fill="#6C606B" id="img-49b5ca0a-41">
    <g transform="translate(16.96,78.71)" id="img-49b5ca0a-42">
      <g class="primitive">
        <text text-anchor="end" dy="0.35em">0</text>
      </g>
    </g>
    <g transform="translate(16.96,64.37)" id="img-49b5ca0a-43">
      <g class="primitive">
        <text text-anchor="end" dy="0.35em">10</text>
      </g>
    </g>
    <g transform="translate(16.96,50.03)" id="img-49b5ca0a-44">
      <g class="primitive">
        <text text-anchor="end" dy="0.35em">20</text>
      </g>
    </g>
    <g transform="translate(16.96,35.69)" id="img-49b5ca0a-45">
      <g class="primitive">
        <text text-anchor="end" dy="0.35em">30</text>
      </g>
    </g>
    <g transform="translate(16.96,21.34)" id="img-49b5ca0a-46">
      <g class="primitive">
        <text text-anchor="end" dy="0.35em">40</text>
      </g>
    </g>
    <g transform="translate(16.96,7)" id="img-49b5ca0a-47">
      <g class="primitive">
        <text text-anchor="end" dy="0.35em">50</text>
      </g>
    </g>
  </g>
  <g font-size="3.88" font-family="'PT Sans','Helvetica Neue','Helvetica',sans-serif" fill="#564A55" stroke="#000000" stroke-opacity="0.000" id="img-49b5ca0a-48">
    <g transform="translate(8.81,40.86)" id="img-49b5ca0a-49">
      <g class="primitive">
        <text text-anchor="middle" dy="0.35em" transform="rotate(-90,0, 2)">Numero de Variedades</text>
      </g>
    </g>
  </g>
</g>
<defs>
  <clipPath id="img-49b5ca0a-19">
    <path d="M17.96,5 L 135.96 5 135.96 80.72 17.96 80.72" />
  </clipPath>
</defs>
</svg>
