<?xml version="1.0" encoding="UTF-8"?>
<svg xmlns="http://www.w3.org/2000/svg"
     xmlns:xlink="http://www.w3.org/1999/xlink"
     xmlns:gadfly="http://www.gadflyjl.org/ns"
     version="1.2"
     width="150mm" height="100mm" viewBox="0 0 150 100"
     stroke="none"
     fill="#000000"
     stroke-width="0.3"
     font-size="3.88"
>
<defs>
  <marker id="arrow" markerWidth="15" markerHeight="7" refX="5" refY="3.5" orient="auto" markerUnits="strokeWidth">
    <path d="M0,0 L15,3.5 L0,7 z" stroke="context-stroke" fill="context-stroke"/>
  </marker>
</defs>
<g class="plotroot xscalable yscalable" id="img-f5ed843c-1">
  <g font-size="3.88" font-family="'PT Sans','Helvetica Neue','Helvetica',sans-serif" fill="#564A55" stroke="#000000" stroke-opacity="0.000" id="img-f5ed843c-2">
    <g transform="translate(77.36,88.39)">
      <g class="primitive">
        <text text-anchor="middle" dy="0.6em">Fitness</text>
      </g>
    </g>
  </g>
  <g class="guide xlabels" font-size="2.82" font-family="'PT Sans Caption','Helvetica Neue','Helvetica',sans-serif" fill="#6C606B" id="img-f5ed843c-3">
    <g transform="translate(22.31,81.72)">
      <g class="primitive">
        <text text-anchor="middle" dy="0.6em">0.0</text>
      </g>
    </g>
    <g transform="translate(77.36,81.72)">
      <g class="primitive">
        <text text-anchor="middle" dy="0.6em">0.5</text>
      </g>
    </g>
    <g transform="translate(132.42,81.72)">
      <g class="primitive">
        <text text-anchor="middle" dy="0.6em">1.0</text>
      </g>
    </g>
  </g>
  <g class="guide colorkey" id="img-f5ed843c-4">
    <g fill="#4C404B" font-size="2.82" font-family="'PT Sans','Helvetica Neue','Helvetica',sans-serif" id="img-f5ed843c-5">
      <g transform="translate(138.23,37.42)" id="img-f5ed843c-6" class="color_0.01">
        <g class="primitive">
          <text dy="0.35em">0.01</text>
        </g>
      </g>
      <g transform="translate(138.23,41.04)" id="img-f5ed843c-7" class="color_0.025">
        <g class="primitive">
          <text dy="0.35em">0.025</text>
        </g>
      </g>
      <g transform="translate(138.23,44.67)" id="img-f5ed843c-8" class="color_0.05">
        <g class="primitive">
          <text dy="0.35em">0.05</text>
        </g>
      </g>
      <g transform="translate(138.23,48.3)" id="img-f5ed843c-9" class="color_0.075">
        <g class="primitive">
          <text dy="0.35em">0.075</text>
        </g>
      </g>
      <g transform="translate(138.23,51.92)" id="img-f5ed843c-10" class="color_0.1">
        <g class="primitive">
          <text dy="0.35em">0.1</text>
        </g>
      </g>
    </g>
    <g stroke="#000000" stroke-opacity="0.000" id="img-f5ed843c-11">
      <g transform="translate(136.33,37.42)" id="img-f5ed843c-12" fill="#00BFFF" class="color_0.01">
        <path d="M-0.91,-0.91 L 0.91 -0.91 0.91 0.91 -0.91 0.91 z" class="primitive"/>
      </g>
      <g transform="translate(136.33,41.04)" id="img-f5ed843c-13" fill="#D4CA3A" class="color_0.025">
        <path d="M-0.91,-0.91 L 0.91 -0.91 0.91 0.91 -0.91 0.91 z" class="primitive"/>
      </g>
      <g transform="translate(136.33,44.67)" id="img-f5ed843c-14" fill="#FF6DAE" class="color_0.05">
        <path d="M-0.91,-0.91 L 0.91 -0.91 0.91 0.91 -0.91 0.91 z" class="primitive"/>
      </g>
      <g transform="translate(136.33,48.3)" id="img-f5ed843c-15" fill="#00B78D" class="color_0.075">
        <path d="M-0.91,-0.91 L 0.91 -0.91 0.91 0.91 -0.91 0.91 z" class="primitive"/>
      </g>
      <g transform="translate(136.33,51.92)" id="img-f5ed843c-16" fill="#BEA9FF" class="color_0.1">
        <path d="M-0.91,-0.91 L 0.91 -0.91 0.91 0.91 -0.91 0.91 z" class="primitive"/>
      </g>
    </g>
    <g fill="#362A35" font-size="3.88" font-family="'PT Sans','Helvetica Neue','Helvetica',sans-serif" stroke="#000000" stroke-opacity="0.000" id="img-f5ed843c-17">
      <g transform="translate(135.42,33.6)" id="img-f5ed843c-18">
        <g class="primitive">
          <text>i</text>
        </g>
      </g>
    </g>
  </g>
  <g clip-path="url(#img-f5ed843c-19)">
    <g id="img-f5ed843c-20">
      <g pointer-events="visible" fill="#000000" fill-opacity="0.000" stroke="#000000" stroke-opacity="0.000" class="guide background" id="img-f5ed843c-21">
        <g transform="translate(77.36,42.86)" id="img-f5ed843c-22">
          <path d="M-57.06,-37.86 L 57.06 -37.86 57.06 37.86 -57.06 37.86 z" class="primitive"/>
        </g>
      </g>
      <g class="guide ygridlines xfixed" stroke-dasharray="0.5,0.5" stroke-width="0.2" stroke="#D0D0E0" id="img-f5ed843c-23">
        <g transform="translate(77.36,78.72)" id="img-f5ed843c-24">
          <path fill="none" d="M-57.06,0 L 57.06 0" class="primitive"/>
        </g>
        <g transform="translate(77.36,60.79)" id="img-f5ed843c-25">
          <path fill="none" d="M-57.06,0 L 57.06 0" class="primitive"/>
        </g>
        <g transform="translate(77.36,42.86)" id="img-f5ed843c-26">
          <path fill="none" d="M-57.06,0 L 57.06 0" class="primitive"/>
        </g>
        <g transform="translate(77.36,24.93)" id="img-f5ed843c-27">
          <path fill="none" d="M-57.06,0 L 57.06 0" class="primitive"/>
        </g>
        <g transform="translate(77.36,7)" id="img-f5ed843c-28">
          <path fill="none" d="M-57.06,0 L 57.06 0" class="primitive"/>
        </g>
      </g>
      <g class="guide xgridlines yfixed" stroke-dasharray="0.5,0.5" stroke-width="0.2" stroke="#D0D0E0" id="img-f5ed843c-29">
        <g transform="translate(22.31,42.86)" id="img-f5ed843c-30">
          <path fill="none" d="M0,-37.86 L 0 37.86" class="primitive"/>
        </g>
        <g transform="translate(77.36,42.86)" id="img-f5ed843c-31">
          <path fill="none" d="M0,-37.86 L 0 37.86" class="primitive"/>
        </g>
        <g transform="translate(132.42,42.86)" id="img-f5ed843c-32">
          <path fill="none" d="M0,-37.86 L 0 37.86" class="primitive"/>
        </g>
      </g>
      <g class="plotpanel" id="img-f5ed843c-33">
        <metadata>
          <boundingbox value="20.305000000000007mm 5.0mm 114.11500000000001mm 75.715mm"/>
          <unitbox value="-0.018162829768877987 0.2055776336889075 1.036325659537756 -0.21115526737781498"/>
        </metadata>
        <g stroke-width="0.3" fill="#000000" fill-opacity="0.000" class="geometry" id="img-f5ed843c-34">
          <g transform="translate(77.36,60.79)" id="img-f5ed843c-35" stroke="#00BFFF" stroke-dasharray="none" class="color_0.01">
            <path fill="none" d="M-52.3,-1.86 L -46.8 -7.62 -41.29 -5.29 -35.79 -5.63 -30.28 -15.39 -24.78 -9.56 -19.27 -10.32 -13.76 -20.93 -8.26 -17.98 -2.75 -14.22 2.75 -6.68 8.26 -6.65 13.76 2.45 19.27 12.62 24.78 17.41 30.28 17.93 35.79 17.93 41.29 17.93 46.8 17.93 52.3 17.93" class="primitive"/>
          </g>
          <g transform="translate(77.36,60.79)" id="img-f5ed843c-36" stroke="#D4CA3A" stroke-dasharray="none" class="color_0.025">
            <path fill="none" d="M-52.3,-4.97 L -46.8 -9.37 -41.29 1.64 -35.79 0.33 -30.28 -5.11 -24.78 -15.78 -19.27 -12.77 -13.76 -14.01 -8.26 -21.45 -2.75 -21.37 2.75 -11.81 8.26 -10.51 13.76 3.64 19.27 13.98 24.78 17.93 30.28 17.93 35.79 17.93 41.29 17.93 46.8 17.93 52.3 17.93" class="primitive"/>
          </g>
          <g transform="translate(77.36,60.79)" id="img-f5ed843c-37" stroke="#FF6DAE" stroke-dasharray="none" class="color_0.05">
            <path fill="none" d="M-52.3,-10.34 L -46.8 -4.61 -41.29 1.62 -35.79 -2.34 -30.28 -4.58 -24.78 -11.4 -19.27 -10.82 -13.76 -13.31 -8.26 -19.39 -2.75 -18.57 2.75 -22.23 8.26 -6.95 13.76 1.99 19.27 13.41 24.78 17.87 30.28 17.93 35.79 17.93 41.29 17.93 46.8 17.93 52.3 17.93" class="primitive"/>
          </g>
          <g transform="translate(77.36,60.79)" id="img-f5ed843c-38" stroke="#00B78D" stroke-dasharray="none" class="color_0.075">
            <path fill="none" d="M-52.3,-5.23 L -46.8 -10.54 -41.29 -4.5 -35.79 -8.6 -30.28 -10.21 -24.78 -7.66 -19.27 -12.31 -13.76 -12.84 -8.26 -12.16 -2.75 -19.23 2.75 -13.28 8.26 -9.23 13.76 3.73 19.27 14.49 24.78 17.93 30.28 17.93 35.79 17.93 41.29 17.93 46.8 17.93 52.3 17.93" class="primitive"/>
          </g>
          <g transform="translate(77.36,60.79)" id="img-f5ed843c-39" stroke="#BEA9FF" stroke-dasharray="none" class="color_0.1">
            <path fill="none" d="M-52.3,-9.47 L -46.8 -8.08 -41.29 -13.85 -35.79 -12.51 -30.28 -14.4 -24.78 -10.68 -19.27 -8.58 -13.76 -12.08 -8.26 -9.89 -2.75 -11.78 2.75 -14.68 8.26 -1.96 13.76 6.16 19.27 14.25 24.78 17.93 30.28 17.93 35.79 17.93 41.29 17.93 46.8 17.93 52.3 17.93" class="primitive"/>
          </g>
        </g>
      </g>
    </g>
  </g>
  <g class="guide ylabels" font-size="2.82" font-family="'PT Sans Caption','Helvetica Neue','Helvetica',sans-serif" fill="#6C606B" id="img-f5ed843c-40">
    <g transform="translate(19.3,78.72)" id="img-f5ed843c-41">
      <g class="primitive">
        <text text-anchor="end" dy="0.35em">0.00</text>
      </g>
    </g>
    <g transform="translate(19.3,60.79)" id="img-f5ed843c-42">
      <g class="primitive">
        <text text-anchor="end" dy="0.35em">0.05</text>
      </g>
    </g>
    <g transform="translate(19.3,42.86)" id="img-f5ed843c-43">
      <g class="primitive">
        <text text-anchor="end" dy="0.35em">0.10</text>
      </g>
    </g>
    <g transform="translate(19.3,24.93)" id="img-f5ed843c-44">
      <g class="primitive">
        <text text-anchor="end" dy="0.35em">0.15</text>
      </g>
    </g>
    <g transform="translate(19.3,7)" id="img-f5ed843c-45">
      <g class="primitive">
        <text text-anchor="end" dy="0.35em">0.20</text>
      </g>
    </g>
  </g>
  <g font-size="3.88" font-family="'PT Sans','Helvetica Neue','Helvetica',sans-serif" fill="#564A55" stroke="#000000" stroke-opacity="0.000" id="img-f5ed843c-46">
    <g transform="translate(8.81,40.86)" id="img-f5ed843c-47">
      <g class="primitive">
        <text text-anchor="middle" dy="0.35em" transform="rotate(-90,0, 2)">Frequencia</text>
      </g>
    </g>
  </g>
</g>
<defs>
  <clipPath id="img-f5ed843c-19">
    <path d="M20.31,5 L 134.42 5 134.42 80.72 20.31 80.72" />
  </clipPath>
</defs>
</svg>
