<?xml version="1.0" encoding="UTF-8"?>
<svg xmlns="http://www.w3.org/2000/svg"
     xmlns:xlink="http://www.w3.org/1999/xlink"
     xmlns:gadfly="http://www.gadflyjl.org/ns"
     version="1.2"
     width="150mm" height="100mm" viewBox="0 0 150 100"
     stroke="none"
     fill="#000000"
     stroke-width="0.3"
     font-size="3.88"
>
<defs>
  <marker id="arrow" markerWidth="15" markerHeight="7" refX="5" refY="3.5" orient="auto" markerUnits="strokeWidth">
    <path d="M0,0 L15,3.5 L0,7 z" stroke="context-stroke" fill="context-stroke"/>
  </marker>
</defs>
<g class="plotroot xscalable yscalable" id="img-63044d01-1">
  <g font-size="3.88" font-family="'PT Sans','Helvetica Neue','Helvetica',sans-serif" fill="#564A55" stroke="#000000" stroke-opacity="0.000" id="img-63044d01-2">
    <g transform="translate(77.3,88.39)">
      <g class="primitive">
        <text text-anchor="middle" dy="0.6em">Numero Medio de Variedades por UD</text>
      </g>
    </g>
  </g>
  <g class="guide xlabels" font-size="2.82" font-family="'PT Sans Caption','Helvetica Neue','Helvetica',sans-serif" fill="#6C606B" id="img-63044d01-3">
    <g transform="translate(20.63,81.72)">
      <g class="primitive">
        <text text-anchor="middle" dy="0.6em">0</text>
      </g>
    </g>
    <g transform="translate(48.96,81.72)">
      <g class="primitive">
        <text text-anchor="middle" dy="0.6em">5</text>
      </g>
    </g>
    <g transform="translate(77.3,81.72)">
      <g class="primitive">
        <text text-anchor="middle" dy="0.6em">10</text>
      </g>
    </g>
    <g transform="translate(105.63,81.72)">
      <g class="primitive">
        <text text-anchor="middle" dy="0.6em">15</text>
      </g>
    </g>
    <g transform="translate(133.96,81.72)">
      <g class="primitive">
        <text text-anchor="middle" dy="0.6em">20</text>
      </g>
    </g>
  </g>
  <g class="guide colorkey" id="img-63044d01-4">
    <g fill="#4C404B" font-size="2.82" font-family="'PT Sans','Helvetica Neue','Helvetica',sans-serif" id="img-63044d01-5">
      <g transform="translate(139.77,37.42)" id="img-63044d01-6" class="color_0.0">
        <g class="primitive">
          <text dy="0.35em">0.0</text>
        </g>
      </g>
      <g transform="translate(139.77,41.04)" id="img-63044d01-7" class="color_0.25">
        <g class="primitive">
          <text dy="0.35em">0.25</text>
        </g>
      </g>
      <g transform="translate(139.77,44.67)" id="img-63044d01-8" class="color_0.5">
        <g class="primitive">
          <text dy="0.35em">0.5</text>
        </g>
      </g>
      <g transform="translate(139.77,48.3)" id="img-63044d01-9" class="color_0.75">
        <g class="primitive">
          <text dy="0.35em">0.75</text>
        </g>
      </g>
      <g transform="translate(139.77,51.92)" id="img-63044d01-10" class="color_1.0">
        <g class="primitive">
          <text dy="0.35em">1.0</text>
        </g>
      </g>
    </g>
    <g stroke="#000000" stroke-opacity="0.000" id="img-63044d01-11">
      <g transform="translate(137.87,37.42)" id="img-63044d01-12" fill="#00BFFF" class="color_0.0">
        <path d="M-0.91,-0.91 L 0.91 -0.91 0.91 0.91 -0.91 0.91 z" class="primitive"/>
      </g>
      <g transform="translate(137.87,41.04)" id="img-63044d01-13" fill="#D4CA3A" class="color_0.25">
        <path d="M-0.91,-0.91 L 0.91 -0.91 0.91 0.91 -0.91 0.91 z" class="primitive"/>
      </g>
      <g transform="translate(137.87,44.67)" id="img-63044d01-14" fill="#FF6DAE" class="color_0.5">
        <path d="M-0.91,-0.91 L 0.91 -0.91 0.91 0.91 -0.91 0.91 z" class="primitive"/>
      </g>
      <g transform="translate(137.87,48.3)" id="img-63044d01-15" fill="#00B78D" class="color_0.75">
        <path d="M-0.91,-0.91 L 0.91 -0.91 0.91 0.91 -0.91 0.91 z" class="primitive"/>
      </g>
      <g transform="translate(137.87,51.92)" id="img-63044d01-16" fill="#BEA9FF" class="color_1.0">
        <path d="M-0.91,-0.91 L 0.91 -0.91 0.91 0.91 -0.91 0.91 z" class="primitive"/>
      </g>
    </g>
    <g fill="#362A35" font-size="3.88" font-family="'PT Sans','Helvetica Neue','Helvetica',sans-serif" stroke="#000000" stroke-opacity="0.000" id="img-63044d01-17">
      <g transform="translate(136.96,33.6)" id="img-63044d01-18">
        <g class="primitive">
          <text>a</text>
        </g>
      </g>
    </g>
  </g>
  <g clip-path="url(#img-63044d01-19)">
    <g id="img-63044d01-20">
      <g pointer-events="visible" fill="#000000" fill-opacity="0.000" stroke="#000000" stroke-opacity="0.000" class="guide background" id="img-63044d01-21">
        <g transform="translate(77.3,42.86)" id="img-63044d01-22">
          <path d="M-58.66,-37.86 L 58.66 -37.86 58.66 37.86 -58.66 37.86 z" class="primitive"/>
        </g>
      </g>
      <g class="guide ygridlines xfixed" stroke-dasharray="0.5,0.5" stroke-width="0.2" stroke="#D0D0E0" id="img-63044d01-23">
        <g transform="translate(77.3,78.71)" id="img-63044d01-24">
          <path fill="none" d="M-58.66,0 L 58.66 0" class="primitive"/>
        </g>
        <g transform="translate(77.3,42.86)" id="img-63044d01-25">
          <path fill="none" d="M-58.66,0 L 58.66 0" class="primitive"/>
        </g>
        <g transform="translate(77.3,7)" id="img-63044d01-26">
          <path fill="none" d="M-58.66,0 L 58.66 0" class="primitive"/>
        </g>
      </g>
      <g class="guide xgridlines yfixed" stroke-dasharray="0.5,0.5" stroke-width="0.2" stroke="#D0D0E0" id="img-63044d01-27">
        <g transform="translate(20.63,42.86)" id="img-63044d01-28">
          <path fill="none" d="M0,-37.86 L 0 37.86" class="primitive"/>
        </g>
        <g transform="translate(48.96,42.86)" id="img-63044d01-29">
          <path fill="none" d="M0,-37.86 L 0 37.86" class="primitive"/>
        </g>
        <g transform="translate(77.3,42.86)" id="img-63044d01-30">
          <path fill="none" d="M0,-37.86 L 0 37.86" class="primitive"/>
        </g>
        <g transform="translate(105.63,42.86)" id="img-63044d01-31">
          <path fill="none" d="M0,-37.86 L 0 37.86" class="primitive"/>
        </g>
        <g transform="translate(133.96,42.86)" id="img-63044d01-32">
          <path fill="none" d="M0,-37.86 L 0 37.86" class="primitive"/>
        </g>
      </g>
      <g class="plotpanel" id="img-63044d01-33">
        <metadata>
          <boundingbox value="18.63166666666666mm 5.0mm 117.32833333333332mm 75.715mm"/>
          <unitbox value="-0.35295674809182764 1.0278881684445373 20.705913496183655 -1.055776336889075"/>
        </metadata>
        <g stroke-width="0.3" fill="#000000" fill-opacity="0.000" class="geometry" id="img-63044d01-34">
          <g transform="translate(162.29,77.25)" id="img-63044d01-35" stroke="#00BFFF" stroke-dasharray="none" class="color_0.0">
            <path fill="none" d="M-135.99,-14.13 L -130.33 -16.6 -124.66 -12.06 -118.99 -9.58 -113.33 -5.57 -107.66 -2.39 -102 -0.3 -96.33 0.89 -90.66 1.25 -85 1.43 -79.33 1.45 -73.66 1.46 -68 1.46 -62.33 1.46 -56.66 1.46 -51 1.46 -45.33 1.46 -39.66 1.46 -34 1.46 -28.33 1.46 -22.67 1.46 -17 1.46 -11.33 1.46 -5.67 1.46 -0 1.46 5.67 1.46 11.33 1.46 17 1.46 22.67 1.46 28.33 1.46 34 1.46 39.66 1.46 45.33 1.46 51 1.46 56.66 1.46 62.33 1.46 68 1.46 73.66 1.46 79.33 1.46 85 1.46 90.66 1.46 96.33 1.46 102 1.46 107.66 1.46 113.33 1.46 118.99 1.46 124.66 1.46 130.33 1.46 135.99 1.46" class="primitive"/>
          </g>
          <g transform="translate(162.29,77.25)" id="img-63044d01-36" stroke="#D4CA3A" stroke-dasharray="none" class="color_0.25">
            <path fill="none" d="M-135.99,-9.84 L -130.33 -13.25 -124.66 -11.26 -118.99 -10.46 -113.33 -7.53 -107.66 -4.5 -102 -1.96 -96.33 -0.11 -90.66 0.74 -85 1.21 -79.33 1.37 -73.66 1.43 -68 1.46 -62.33 1.46 -56.66 1.46 -51 1.46 -45.33 1.46 -39.66 1.46 -34 1.46 -28.33 1.46 -22.67 1.46 -17 1.46 -11.33 1.46 -5.67 1.46 -0 1.46 5.67 1.46 11.33 1.46 17 1.46 22.67 1.46 28.33 1.46 34 1.46 39.66 1.46 45.33 1.46 51 1.46 56.66 1.46 62.33 1.46 68 1.46 73.66 1.46 79.33 1.46 85 1.46 90.66 1.46 96.33 1.46 102 1.46 107.66 1.46 113.33 1.46 118.99 1.46 124.66 1.46 130.33 1.46 135.99 1.46" class="primitive"/>
          </g>
          <g transform="translate(162.29,77.25)" id="img-63044d01-37" stroke="#FF6DAE" stroke-dasharray="none" class="color_0.5">
            <path fill="none" d="M-135.99,-13.76 L -130.33 -11.68 -124.66 -8.92 -118.99 -7.73 -113.33 -6.27 -107.66 -4.46 -102 -2.85 -96.33 -1.24 -90.66 -0.12 -85 0.57 -79.33 1.07 -73.66 1.32 -68 1.41 -62.33 1.45 -56.66 1.45 -51 1.46 -45.33 1.46 -39.66 1.46 -34 1.46 -28.33 1.46 -22.67 1.46 -17 1.46 -11.33 1.46 -5.67 1.46 -0 1.46 5.67 1.46 11.33 1.46 17 1.46 22.67 1.46 28.33 1.46 34 1.46 39.66 1.46 45.33 1.46 51 1.46 56.66 1.46 62.33 1.46 68 1.46 73.66 1.46 79.33 1.46 85 1.46 90.66 1.46 96.33 1.46 102 1.46 107.66 1.46 113.33 1.46 118.99 1.46 124.66 1.46 130.33 1.46 135.99 1.46" class="primitive"/>
          </g>
          <g transform="translate(162.29,77.25)" id="img-63044d01-38" stroke="#00B78D" stroke-dasharray="none" class="color_0.75">
            <path fill="none" d="M-135.99,-19.9 L -130.33 -9.22 -124.66 -6.04 -118.99 -4.72 -113.33 -3.81 -107.66 -3.05 -102 -1.97 -96.33 -1.23 -90.66 -0.97 -85 -0.58 -79.33 -0.12 -73.66 0.17 -68 0.52 -62.33 0.79 -56.66 0.97 -51 1.17 -45.33 1.3 -39.66 1.41 -34 1.41 -28.33 1.44 -22.67 1.45 -17 1.46 -11.33 1.46 -5.67 1.46 -0 1.46 5.67 1.46 11.33 1.46 17 1.46 22.67 1.46 28.33 1.46 34 1.46 39.66 1.46 45.33 1.46 51 1.46 56.66 1.46 62.33 1.46 68 1.46 73.66 1.46 79.33 1.46 85 1.46 90.66 1.46 96.33 1.46 102 1.46 107.66 1.46 113.33 1.46 118.99 1.46 124.66 1.46 130.33 1.46 135.99 1.46" class="primitive"/>
          </g>
          <g transform="translate(162.29,77.25)" id="img-63044d01-39" stroke="#BEA9FF" stroke-dasharray="none" class="color_1.0">
            <path fill="none" d="M-135.99,-22.67 L -130.33 -6.67 -124.66 -2.86 -118.99 -2.61 -113.33 -2.6 -107.66 -2.35 -102 -1.91 -96.33 -1.44 -90.66 -0.71 -85 -0.19 -79.33 0.15 -73.66 0.38 -68 0.54 -62.33 0.71 -56.66 0.97 -51 1.03 -45.33 1.11 -39.66 1.19 -34 1.15 -28.33 1.26 -22.67 1.31 -17 1.29 -11.33 1.3 -5.67 1.32 -0 1.32 5.67 1.26 11.33 1.12 17 1 22.67 0.8 28.33 0.48 34 0.44 39.66 0.59 45.33 0.71 51 1.02 56.66 1.24 62.33 1.33 68 1.43 73.66 1.46 79.33 1.46 85 1.46 90.66 1.46 96.33 1.46 102 1.46 107.66 1.46 113.33 1.46 118.99 1.46 124.66 1.46 130.33 1.46 135.99 1.46" class="primitive"/>
          </g>
        </g>
      </g>
    </g>
  </g>
  <g class="guide ylabels" font-size="2.82" font-family="'PT Sans Caption','Helvetica Neue','Helvetica',sans-serif" fill="#6C606B" id="img-63044d01-40">
    <g transform="translate(17.63,78.71)" id="img-63044d01-41">
      <g class="primitive">
        <text text-anchor="end" dy="0.35em">0.0</text>
      </g>
    </g>
    <g transform="translate(17.63,42.86)" id="img-63044d01-42">
      <g class="primitive">
        <text text-anchor="end" dy="0.35em">0.5</text>
      </g>
    </g>
    <g transform="translate(17.63,7)" id="img-63044d01-43">
      <g class="primitive">
        <text text-anchor="end" dy="0.35em">1.0</text>
      </g>
    </g>
  </g>
  <g font-size="3.88" font-family="'PT Sans','Helvetica Neue','Helvetica',sans-serif" fill="#564A55" stroke="#000000" stroke-opacity="0.000" id="img-63044d01-44">
    <g transform="translate(8.81,40.86)" id="img-63044d01-45">
      <g class="primitive">
        <text text-anchor="middle" dy="0.35em" transform="rotate(-90,0, 2)">Frequencia</text>
      </g>
    </g>
  </g>
</g>
<defs>
  <clipPath id="img-63044d01-19">
    <path d="M18.63,5 L 135.96 5 135.96 80.72 18.63 80.72" />
  </clipPath>
</defs>
</svg>
