<?xml version="1.0" encoding="UTF-8"?>
<svg xmlns="http://www.w3.org/2000/svg"
     xmlns:xlink="http://www.w3.org/1999/xlink"
     xmlns:gadfly="http://www.gadflyjl.org/ns"
     version="1.2"
     width="150mm" height="100mm" viewBox="0 0 150 100"
     stroke="none"
     fill="#000000"
     stroke-width="0.3"
     font-size="3.88"
>
<defs>
  <marker id="arrow" markerWidth="15" markerHeight="7" refX="5" refY="3.5" orient="auto" markerUnits="strokeWidth">
    <path d="M0,0 L15,3.5 L0,7 z" stroke="context-stroke" fill="context-stroke"/>
  </marker>
</defs>
<g class="plotroot xscalable yscalable" id="img-04f2b9fd-1">
  <g font-size="3.88" font-family="'PT Sans','Helvetica Neue','Helvetica',sans-serif" fill="#564A55" stroke="#000000" stroke-opacity="0.000" id="img-04f2b9fd-2">
    <g transform="translate(76.19,88.39)">
      <g class="primitive">
        <text text-anchor="middle" dy="0.6em">Time</text>
      </g>
    </g>
  </g>
  <g class="guide xlabels" font-size="2.82" font-family="'PT Sans Caption','Helvetica Neue','Helvetica',sans-serif" fill="#6C606B" id="img-04f2b9fd-3">
    <g transform="translate(19.96,81.72)">
      <g class="primitive">
        <text text-anchor="middle" dy="0.6em">0</text>
      </g>
    </g>
    <g transform="translate(76.19,81.72)">
      <g class="primitive">
        <text text-anchor="middle" dy="0.6em">500</text>
      </g>
    </g>
    <g transform="translate(132.42,81.72)">
      <g class="primitive">
        <text text-anchor="middle" dy="0.6em">1000</text>
      </g>
    </g>
  </g>
  <g class="guide colorkey" id="img-04f2b9fd-4">
    <g fill="#4C404B" font-size="2.82" font-family="'PT Sans','Helvetica Neue','Helvetica',sans-serif" id="img-04f2b9fd-5">
      <g transform="translate(138.23,37.42)" id="img-04f2b9fd-6" class="color_0.01">
        <g class="primitive">
          <text dy="0.35em">0.01</text>
        </g>
      </g>
      <g transform="translate(138.23,41.04)" id="img-04f2b9fd-7" class="color_0.025">
        <g class="primitive">
          <text dy="0.35em">0.025</text>
        </g>
      </g>
      <g transform="translate(138.23,44.67)" id="img-04f2b9fd-8" class="color_0.05">
        <g class="primitive">
          <text dy="0.35em">0.05</text>
        </g>
      </g>
      <g transform="translate(138.23,48.3)" id="img-04f2b9fd-9" class="color_0.075">
        <g class="primitive">
          <text dy="0.35em">0.075</text>
        </g>
      </g>
      <g transform="translate(138.23,51.92)" id="img-04f2b9fd-10" class="color_0.1">
        <g class="primitive">
          <text dy="0.35em">0.1</text>
        </g>
      </g>
    </g>
    <g stroke="#000000" stroke-opacity="0.000" id="img-04f2b9fd-11">
      <g transform="translate(136.33,37.42)" id="img-04f2b9fd-12" fill="#00BFFF" class="color_0.01">
        <path d="M-0.91,-0.91 L 0.91 -0.91 0.91 0.91 -0.91 0.91 z" class="primitive"/>
      </g>
      <g transform="translate(136.33,41.04)" id="img-04f2b9fd-13" fill="#D4CA3A" class="color_0.025">
        <path d="M-0.91,-0.91 L 0.91 -0.91 0.91 0.91 -0.91 0.91 z" class="primitive"/>
      </g>
      <g transform="translate(136.33,44.67)" id="img-04f2b9fd-14" fill="#FF6DAE" class="color_0.05">
        <path d="M-0.91,-0.91 L 0.91 -0.91 0.91 0.91 -0.91 0.91 z" class="primitive"/>
      </g>
      <g transform="translate(136.33,48.3)" id="img-04f2b9fd-15" fill="#00B78D" class="color_0.075">
        <path d="M-0.91,-0.91 L 0.91 -0.91 0.91 0.91 -0.91 0.91 z" class="primitive"/>
      </g>
      <g transform="translate(136.33,51.92)" id="img-04f2b9fd-16" fill="#BEA9FF" class="color_0.1">
        <path d="M-0.91,-0.91 L 0.91 -0.91 0.91 0.91 -0.91 0.91 z" class="primitive"/>
      </g>
    </g>
    <g fill="#362A35" font-size="3.88" font-family="'PT Sans','Helvetica Neue','Helvetica',sans-serif" stroke="#000000" stroke-opacity="0.000" id="img-04f2b9fd-17">
      <g transform="translate(135.42,33.6)" id="img-04f2b9fd-18">
        <g class="primitive">
          <text>i</text>
        </g>
      </g>
    </g>
  </g>
  <g clip-path="url(#img-04f2b9fd-19)">
    <g id="img-04f2b9fd-20">
      <g pointer-events="visible" fill="#000000" fill-opacity="0.000" stroke="#000000" stroke-opacity="0.000" class="guide background" id="img-04f2b9fd-21">
        <g transform="translate(76.19,42.86)" id="img-04f2b9fd-22">
          <path d="M-58.23,-37.86 L 58.23 -37.86 58.23 37.86 -58.23 37.86 z" class="primitive"/>
        </g>
      </g>
      <g class="guide ygridlines xfixed" stroke-dasharray="0.5,0.5" stroke-width="0.2" stroke="#D0D0E0" id="img-04f2b9fd-23">
        <g transform="translate(76.19,78.72)" id="img-04f2b9fd-24">
          <path fill="none" d="M-58.23,0 L 58.23 0" class="primitive"/>
        </g>
        <g transform="translate(76.19,60.79)" id="img-04f2b9fd-25">
          <path fill="none" d="M-58.23,0 L 58.23 0" class="primitive"/>
        </g>
        <g transform="translate(76.19,42.86)" id="img-04f2b9fd-26">
          <path fill="none" d="M-58.23,0 L 58.23 0" class="primitive"/>
        </g>
        <g transform="translate(76.19,24.93)" id="img-04f2b9fd-27">
          <path fill="none" d="M-58.23,0 L 58.23 0" class="primitive"/>
        </g>
        <g transform="translate(76.19,7)" id="img-04f2b9fd-28">
          <path fill="none" d="M-58.23,0 L 58.23 0" class="primitive"/>
        </g>
      </g>
      <g class="guide xgridlines yfixed" stroke-dasharray="0.5,0.5" stroke-width="0.2" stroke="#D0D0E0" id="img-04f2b9fd-29">
        <g transform="translate(19.96,42.86)" id="img-04f2b9fd-30">
          <path fill="none" d="M0,-37.86 L 0 37.86" class="primitive"/>
        </g>
        <g transform="translate(76.19,42.86)" id="img-04f2b9fd-31">
          <path fill="none" d="M0,-37.86 L 0 37.86" class="primitive"/>
        </g>
        <g transform="translate(132.42,42.86)" id="img-04f2b9fd-32">
          <path fill="none" d="M0,-37.86 L 0 37.86" class="primitive"/>
        </g>
      </g>
      <g class="plotpanel" id="img-04f2b9fd-33">
        <metadata>
          <boundingbox value="17.95833333333333mm 5.0mm 116.46166666666666mm 75.715mm"/>
          <unitbox value="-17.78383745572566 41.115526737781494 1035.5676749114514 -42.231053475562994"/>
        </metadata>
        <g stroke-width="0.3" fill="#000000" fill-opacity="0.000" class="geometry" id="img-04f2b9fd-34">
          <g transform="translate(75.63,74.81)" id="img-04f2b9fd-35" stroke="#00BFFF" stroke-dasharray="none" class="color_0.01">
            <path fill="none" d="M-55.67,-52.34 L -54.54 -37.87 -53.42 -24.62 -52.29 -12.43 -51.17 -2.93 -50.05 1.06 -48.92 1.24 -47.8 1.29 -46.67 1.33 -45.55 1.35 -44.42 1.36 -43.3 1.37 -42.17 1.37 -41.05 1.37 -39.92 1.37 -38.8 1.37 -37.67 1.37 -36.55 1.37 -35.43 1.37 -34.3 1.37 -33.18 1.37 -32.05 1.37 -30.93 1.37 -29.8 1.37 -28.68 1.37 -27.55 1.37 -26.43 1.37 -25.3 1.37 -24.18 1.37 -23.05 1.37 -21.93 1.37 -20.81 1.37 -19.68 1.37 -18.56 1.37 -17.43 1.38 -16.31 1.38 -15.18 1.38 -14.06 1.38 -12.93 1.38 -11.81 1.38 -10.68 1.38 -9.56 1.38 -8.43 1.38 -7.31 1.38 -6.19 1.38 -5.06 1.38 -3.94 1.38 -2.81 1.38 -1.69 1.38 -0.56 1.38 0.56 1.38 1.69 1.38 2.81 1.38 3.94 1.38 5.06 1.38 6.19 1.38 7.31 1.38 8.43 1.38 9.56 1.38 10.68 1.38 11.81 1.38 12.93 1.38 14.06 1.38 15.18 1.38 16.31 1.38 17.43 1.38 18.56 1.38 19.68 1.38 20.81 1.38 21.93 1.38 23.05 1.38 24.18 1.38 25.3 1.38 26.43 1.38 27.55 1.38 28.68 1.38 29.8 1.38 30.93 1.38 32.05 1.38 33.18 1.38 34.3 1.38 35.43 1.38 36.55 1.38 37.67 1.38 38.8 1.38 39.92 1.38 41.05 1.38 42.17 1.38 43.3 1.38 44.42 1.38 45.55 1.38 46.67 1.38 47.8 1.38 48.92 1.38 50.05 1.38 51.17 1.38 52.29 1.38 53.42 1.38 54.54 1.38 55.67 1.38" class="primitive"/>
          </g>
          <g transform="translate(75.63,73.84)" id="img-04f2b9fd-36" stroke="#D4CA3A" stroke-dasharray="none" class="color_0.025">
            <path fill="none" d="M-55.67,-51.33 L -54.54 -36.84 -53.42 -23.63 -52.29 -11.58 -51.17 -2.56 -50.05 0.71 -48.92 1.11 -47.8 1.21 -46.67 1.25 -45.55 1.28 -44.42 1.3 -43.3 1.31 -42.17 1.32 -41.05 1.32 -39.92 1.32 -38.8 1.33 -37.67 1.33 -36.55 1.33 -35.43 1.33 -34.3 1.33 -33.18 1.33 -32.05 1.33 -30.93 1.33 -29.8 1.33 -28.68 1.33 -27.55 1.33 -26.43 1.33 -25.3 1.33 -24.18 1.33 -23.05 1.33 -21.93 1.33 -20.81 1.33 -19.68 1.33 -18.56 1.33 -17.43 1.33 -16.31 1.33 -15.18 1.33 -14.06 1.33 -12.93 1.33 -11.81 1.33 -10.68 1.33 -9.56 1.33 -8.43 1.33 -7.31 1.33 -6.19 1.34 -5.06 1.34 -3.94 1.34 -2.81 1.34 -1.69 1.34 -0.56 1.34 0.56 1.34 1.69 1.34 2.81 1.34 3.94 1.34 5.06 1.34 6.19 1.34 7.31 1.34 8.43 1.34 9.56 1.34 10.68 1.34 11.81 1.34 12.93 1.34 14.06 1.34 15.18 1.34 16.31 1.34 17.43 1.34 18.56 1.34 19.68 1.34 20.81 1.34 21.93 1.34 23.05 1.34 24.18 1.34 25.3 1.34 26.43 1.34 27.55 1.34 28.68 1.34 29.8 1.35 30.93 1.35 32.05 1.35 33.18 1.35 34.3 1.35 35.43 1.35 36.55 1.35 37.67 1.35 38.8 1.35 39.92 1.35 41.05 1.35 42.17 1.35 43.3 1.35 44.42 1.35 45.55 1.35 46.67 1.35 47.8 1.35 48.92 1.35 50.05 1.35 51.17 1.35 52.29 1.35 53.42 1.35 54.54 1.35 55.67 1.35" class="primitive"/>
          </g>
          <g transform="translate(75.63,70.8)" id="img-04f2b9fd-37" stroke="#FF6DAE" stroke-dasharray="none" class="color_0.05">
            <path fill="none" d="M-55.67,-48.28 L -54.54 -33.8 -53.42 -20.61 -52.29 -8.82 -51.17 -1.74 -50.05 0.31 -48.92 0.82 -47.8 1 -46.67 1.08 -45.55 1.12 -44.42 1.13 -43.3 1.15 -42.17 1.16 -41.05 1.16 -39.92 1.17 -38.8 1.17 -37.67 1.17 -36.55 1.17 -35.43 1.18 -34.3 1.18 -33.18 1.18 -32.05 1.18 -30.93 1.18 -29.8 1.18 -28.68 1.18 -27.55 1.18 -26.43 1.18 -25.3 1.18 -24.18 1.18 -23.05 1.19 -21.93 1.19 -20.81 1.19 -19.68 1.19 -18.56 1.19 -17.43 1.19 -16.31 1.19 -15.18 1.19 -14.06 1.19 -12.93 1.2 -11.81 1.2 -10.68 1.2 -9.56 1.2 -8.43 1.2 -7.31 1.2 -6.19 1.2 -5.06 1.2 -3.94 1.2 -2.81 1.21 -1.69 1.21 -0.56 1.21 0.56 1.21 1.69 1.21 2.81 1.21 3.94 1.21 5.06 1.21 6.19 1.21 7.31 1.21 8.43 1.21 9.56 1.21 10.68 1.21 11.81 1.21 12.93 1.22 14.06 1.22 15.18 1.22 16.31 1.22 17.43 1.22 18.56 1.22 19.68 1.22 20.81 1.22 21.93 1.22 23.05 1.22 24.18 1.22 25.3 1.23 26.43 1.23 27.55 1.23 28.68 1.23 29.8 1.23 30.93 1.23 32.05 1.23 33.18 1.23 34.3 1.23 35.43 1.23 36.55 1.24 37.67 1.24 38.8 1.24 39.92 1.24 41.05 1.24 42.17 1.24 43.3 1.24 44.42 1.25 45.55 1.25 46.67 1.25 47.8 1.25 48.92 1.25 50.05 1.25 51.17 1.25 52.29 1.25 53.42 1.25 54.54 1.26 55.67 1.26" class="primitive"/>
          </g>
          <g transform="translate(75.63,65.91)" id="img-04f2b9fd-38" stroke="#00B78D" stroke-dasharray="none" class="color_0.075">
            <path fill="none" d="M-55.67,-43.41 L -54.54 -28.82 -53.42 -15.65 -52.29 -5.18 -51.17 -0.79 -50.05 0.37 -48.92 0.69 -47.8 0.83 -46.67 0.89 -45.55 0.92 -44.42 0.93 -43.3 0.94 -42.17 0.95 -41.05 0.95 -39.92 0.95 -38.8 0.95 -37.67 0.96 -36.55 0.96 -35.43 0.96 -34.3 0.96 -33.18 0.96 -32.05 0.96 -30.93 0.96 -29.8 0.96 -28.68 0.97 -27.55 0.97 -26.43 0.97 -25.3 0.97 -24.18 0.97 -23.05 0.97 -21.93 0.97 -20.81 0.97 -19.68 0.97 -18.56 0.97 -17.43 0.98 -16.31 0.98 -15.18 0.98 -14.06 0.98 -12.93 0.98 -11.81 0.99 -10.68 0.99 -9.56 0.99 -8.43 0.99 -7.31 0.99 -6.19 0.99 -5.06 0.99 -3.94 1 -2.81 1 -1.69 1 -0.56 1 0.56 1 1.69 1 2.81 1 3.94 1 5.06 1 6.19 1 7.31 1 8.43 1.01 9.56 1.01 10.68 1.01 11.81 1.01 12.93 1.01 14.06 1.01 15.18 1.01 16.31 1.01 17.43 1.01 18.56 1.02 19.68 1.02 20.81 1.02 21.93 1.02 23.05 1.02 24.18 1.02 25.3 1.02 26.43 1.02 27.55 1.02 28.68 1.02 29.8 1.03 30.93 1.03 32.05 1.03 33.18 1.03 34.3 1.03 35.43 1.03 36.55 1.03 37.67 1.03 38.8 1.03 39.92 1.03 41.05 1.04 42.17 1.04 43.3 1.04 44.42 1.04 45.55 1.05 46.67 1.05 47.8 1.05 48.92 1.05 50.05 1.05 51.17 1.05 52.29 1.05 53.42 1.05 54.54 1.06 55.67 1.06" class="primitive"/>
          </g>
          <g transform="translate(75.63,60.75)" id="img-04f2b9fd-39" stroke="#BEA9FF" stroke-dasharray="none" class="color_0.1">
            <path fill="none" d="M-55.67,-38.22 L -54.54 -23.66 -53.42 -10.74 -52.29 -2.71 -51.17 -0.16 -50.05 0.47 -48.92 0.63 -47.8 0.68 -46.67 0.71 -45.55 0.72 -44.42 0.72 -43.3 0.73 -42.17 0.73 -41.05 0.73 -39.92 0.74 -38.8 0.74 -37.67 0.74 -36.55 0.74 -35.43 0.74 -34.3 0.74 -33.18 0.74 -32.05 0.74 -30.93 0.74 -29.8 0.74 -28.68 0.75 -27.55 0.75 -26.43 0.75 -25.3 0.75 -24.18 0.75 -23.05 0.75 -21.93 0.76 -20.81 0.76 -19.68 0.77 -18.56 0.77 -17.43 0.77 -16.31 0.77 -15.18 0.78 -14.06 0.78 -12.93 0.78 -11.81 0.79 -10.68 0.79 -9.56 0.79 -8.43 0.79 -7.31 0.79 -6.19 0.79 -5.06 0.8 -3.94 0.8 -2.81 0.8 -1.69 0.8 -0.56 0.8 0.56 0.8 1.69 0.8 2.81 0.8 3.94 0.8 5.06 0.8 6.19 0.81 7.31 0.81 8.43 0.81 9.56 0.81 10.68 0.81 11.81 0.81 12.93 0.81 14.06 0.81 15.18 0.81 16.31 0.81 17.43 0.81 18.56 0.82 19.68 0.82 20.81 0.82 21.93 0.82 23.05 0.82 24.18 0.82 25.3 0.82 26.43 0.82 27.55 0.82 28.68 0.82 29.8 0.83 30.93 0.83 32.05 0.83 33.18 0.83 34.3 0.83 35.43 0.83 36.55 0.84 37.67 0.84 38.8 0.85 39.92 0.86 41.05 0.87 42.17 0.87 43.3 0.87 44.42 0.87 45.55 0.88 46.67 0.88 47.8 0.88 48.92 0.88 50.05 0.88 51.17 0.89 52.29 0.89 53.42 0.89 54.54 0.89 55.67 0.89" class="primitive"/>
          </g>
        </g>
      </g>
    </g>
  </g>
  <g class="guide ylabels" font-size="2.82" font-family="'PT Sans Caption','Helvetica Neue','Helvetica',sans-serif" fill="#6C606B" id="img-04f2b9fd-40">
    <g transform="translate(16.96,78.72)" id="img-04f2b9fd-41">
      <g class="primitive">
        <text text-anchor="end" dy="0.35em">0</text>
      </g>
    </g>
    <g transform="translate(16.96,60.79)" id="img-04f2b9fd-42">
      <g class="primitive">
        <text text-anchor="end" dy="0.35em">10</text>
      </g>
    </g>
    <g transform="translate(16.96,42.86)" id="img-04f2b9fd-43">
      <g class="primitive">
        <text text-anchor="end" dy="0.35em">20</text>
      </g>
    </g>
    <g transform="translate(16.96,24.93)" id="img-04f2b9fd-44">
      <g class="primitive">
        <text text-anchor="end" dy="0.35em">30</text>
      </g>
    </g>
    <g transform="translate(16.96,7)" id="img-04f2b9fd-45">
      <g class="primitive">
        <text text-anchor="end" dy="0.35em">40</text>
      </g>
    </g>
  </g>
  <g font-size="3.88" font-family="'PT Sans','Helvetica Neue','Helvetica',sans-serif" fill="#564A55" stroke="#000000" stroke-opacity="0.000" id="img-04f2b9fd-46">
    <g transform="translate(8.81,40.86)" id="img-04f2b9fd-47">
      <g class="primitive">
        <text text-anchor="middle" dy="0.35em" transform="rotate(-90,0, 2)">Numero Medio de Variedades por UD</text>
      </g>
    </g>
  </g>
</g>
<defs>
  <clipPath id="img-04f2b9fd-19">
    <path d="M17.96,5 L 134.42 5 134.42 80.72 17.96 80.72" />
  </clipPath>
</defs>
</svg>
