<?xml version="1.0" encoding="UTF-8"?>
<svg xmlns="http://www.w3.org/2000/svg"
     xmlns:xlink="http://www.w3.org/1999/xlink"
     xmlns:gadfly="http://www.gadflyjl.org/ns"
     version="1.2"
     width="150mm" height="100mm" viewBox="0 0 150 100"
     stroke="none"
     fill="#000000"
     stroke-width="0.3"
     font-size="3.88"
>
<defs>
  <marker id="arrow" markerWidth="15" markerHeight="7" refX="5" refY="3.5" orient="auto" markerUnits="strokeWidth">
    <path d="M0,0 L15,3.5 L0,7 z" stroke="context-stroke" fill="context-stroke"/>
  </marker>
</defs>
<g class="plotroot xscalable yscalable" id="img-85a9f32a-1">
  <g font-size="3.88" font-family="'PT Sans','Helvetica Neue','Helvetica',sans-serif" fill="#564A55" stroke="#000000" stroke-opacity="0.000" id="img-85a9f32a-2">
    <g transform="translate(77.6,88.39)">
      <g class="primitive">
        <text text-anchor="middle" dy="0.6em">Numero Medio de Variedades por UD</text>
      </g>
    </g>
  </g>
  <g class="guide xlabels" font-size="2.82" font-family="'PT Sans Caption','Helvetica Neue','Helvetica',sans-serif" fill="#6C606B" id="img-85a9f32a-3">
    <g transform="translate(20.63,81.72)">
      <g class="primitive">
        <text text-anchor="middle" dy="0.6em">0</text>
      </g>
    </g>
    <g transform="translate(49.12,81.72)">
      <g class="primitive">
        <text text-anchor="middle" dy="0.6em">5</text>
      </g>
    </g>
    <g transform="translate(77.6,81.72)">
      <g class="primitive">
        <text text-anchor="middle" dy="0.6em">10</text>
      </g>
    </g>
    <g transform="translate(106.08,81.72)">
      <g class="primitive">
        <text text-anchor="middle" dy="0.6em">15</text>
      </g>
    </g>
    <g transform="translate(134.57,81.72)">
      <g class="primitive">
        <text text-anchor="middle" dy="0.6em">20</text>
      </g>
    </g>
  </g>
  <g class="guide colorkey" id="img-85a9f32a-4">
    <g fill="#4C404B" font-size="2.82" font-family="'PT Sans','Helvetica Neue','Helvetica',sans-serif" id="img-85a9f32a-5">
      <g transform="translate(140.38,35.6)" id="img-85a9f32a-6" class="color_25">
        <g class="primitive">
          <text dy="0.35em">25</text>
        </g>
      </g>
      <g transform="translate(140.38,39.23)" id="img-85a9f32a-7" class="color_36">
        <g class="primitive">
          <text dy="0.35em">36</text>
        </g>
      </g>
      <g transform="translate(140.38,42.86)" id="img-85a9f32a-8" class="color_49">
        <g class="primitive">
          <text dy="0.35em">49</text>
        </g>
      </g>
      <g transform="translate(140.38,46.48)" id="img-85a9f32a-9" class="color_64">
        <g class="primitive">
          <text dy="0.35em">64</text>
        </g>
      </g>
      <g transform="translate(140.38,50.11)" id="img-85a9f32a-10" class="color_81">
        <g class="primitive">
          <text dy="0.35em">81</text>
        </g>
      </g>
      <g transform="translate(140.38,53.74)" id="img-85a9f32a-11" class="color_100">
        <g class="primitive">
          <text dy="0.35em">100</text>
        </g>
      </g>
    </g>
    <g stroke="#000000" stroke-opacity="0.000" id="img-85a9f32a-12">
      <g transform="translate(138.47,35.6)" id="img-85a9f32a-13" fill="#00BFFF" class="color_25">
        <path d="M-0.91,-0.91 L 0.91 -0.91 0.91 0.91 -0.91 0.91 z" class="primitive"/>
      </g>
      <g transform="translate(138.47,39.23)" id="img-85a9f32a-14" fill="#D4CA3A" class="color_36">
        <path d="M-0.91,-0.91 L 0.91 -0.91 0.91 0.91 -0.91 0.91 z" class="primitive"/>
      </g>
      <g transform="translate(138.47,42.86)" id="img-85a9f32a-15" fill="#FF6DAE" class="color_49">
        <path d="M-0.91,-0.91 L 0.91 -0.91 0.91 0.91 -0.91 0.91 z" class="primitive"/>
      </g>
      <g transform="translate(138.47,46.48)" id="img-85a9f32a-16" fill="#00B78D" class="color_64">
        <path d="M-0.91,-0.91 L 0.91 -0.91 0.91 0.91 -0.91 0.91 z" class="primitive"/>
      </g>
      <g transform="translate(138.47,50.11)" id="img-85a9f32a-17" fill="#BEA9FF" class="color_81">
        <path d="M-0.91,-0.91 L 0.91 -0.91 0.91 0.91 -0.91 0.91 z" class="primitive"/>
      </g>
      <g transform="translate(138.47,53.74)" id="img-85a9f32a-18" fill="#FF6765" class="color_100">
        <path d="M-0.91,-0.91 L 0.91 -0.91 0.91 0.91 -0.91 0.91 z" class="primitive"/>
      </g>
    </g>
    <g fill="#362A35" font-size="3.88" font-family="'PT Sans','Helvetica Neue','Helvetica',sans-serif" stroke="#000000" stroke-opacity="0.000" id="img-85a9f32a-19">
      <g transform="translate(137.57,31.78)" id="img-85a9f32a-20">
        <g class="primitive">
          <text>L</text>
        </g>
      </g>
    </g>
  </g>
  <g clip-path="url(#img-85a9f32a-21)">
    <g id="img-85a9f32a-22">
      <g pointer-events="visible" fill="#000000" fill-opacity="0.000" stroke="#000000" stroke-opacity="0.000" class="guide background" id="img-85a9f32a-23">
        <g transform="translate(77.6,42.86)" id="img-85a9f32a-24">
          <path d="M-58.97,-37.86 L 58.97 -37.86 58.97 37.86 -58.97 37.86 z" class="primitive"/>
        </g>
      </g>
      <g class="guide ygridlines xfixed" stroke-dasharray="0.5,0.5" stroke-width="0.2" stroke="#D0D0E0" id="img-85a9f32a-25">
        <g transform="translate(77.6,78.71)" id="img-85a9f32a-26">
          <path fill="none" d="M-58.97,0 L 58.97 0" class="primitive"/>
        </g>
        <g transform="translate(77.6,42.86)" id="img-85a9f32a-27">
          <path fill="none" d="M-58.97,0 L 58.97 0" class="primitive"/>
        </g>
        <g transform="translate(77.6,7)" id="img-85a9f32a-28">
          <path fill="none" d="M-58.97,0 L 58.97 0" class="primitive"/>
        </g>
      </g>
      <g class="guide xgridlines yfixed" stroke-dasharray="0.5,0.5" stroke-width="0.2" stroke="#D0D0E0" id="img-85a9f32a-29">
        <g transform="translate(20.63,42.86)" id="img-85a9f32a-30">
          <path fill="none" d="M0,-37.86 L 0 37.86" class="primitive"/>
        </g>
        <g transform="translate(49.12,42.86)" id="img-85a9f32a-31">
          <path fill="none" d="M0,-37.86 L 0 37.86" class="primitive"/>
        </g>
        <g transform="translate(77.6,42.86)" id="img-85a9f32a-32">
          <path fill="none" d="M0,-37.86 L 0 37.86" class="primitive"/>
        </g>
        <g transform="translate(106.08,42.86)" id="img-85a9f32a-33">
          <path fill="none" d="M0,-37.86 L 0 37.86" class="primitive"/>
        </g>
        <g transform="translate(134.57,42.86)" id="img-85a9f32a-34">
          <path fill="none" d="M0,-37.86 L 0 37.86" class="primitive"/>
        </g>
      </g>
      <g class="plotpanel" id="img-85a9f32a-35">
        <metadata>
          <boundingbox value="18.631666666666675mm 5.0mm 117.93499999999999mm 75.715mm"/>
          <unitbox value="-0.35107736867512174 1.0278881684445373 20.70215473735024 -1.055776336889075"/>
        </metadata>
        <g stroke-width="0.3" fill="#000000" fill-opacity="0.000" class="geometry" id="img-85a9f32a-36">
          <g transform="translate(163.05,82.13)" id="img-85a9f32a-37" stroke="#00BFFF" stroke-dasharray="none" class="color_25">
            <path fill="none" d="M-136.72,-24.44 L -131.03 -21.09 -125.33 -15.42 -119.63 -12.73 -113.93 -9.76 -108.24 -6.55 -102.54 -4.84 -96.84 -3.98 -91.15 -3.62 -85.45 -3.43 -79.75 -3.43 -74.06 -3.42 -68.36 -3.42 -62.66 -3.42 -56.97 -3.42 -51.27 -3.42 -45.57 -3.42 -39.88 -3.42 -34.18 -3.42 -28.48 -3.42 -22.79 -3.42 -17.09 -3.42 -11.39 -3.42 -5.7 -3.42 0 -3.42 5.7 -3.42 11.39 -3.42 17.09 -3.42 22.79 235.73 28.48 -3.42 34.18 -3.42 39.88 -3.42 45.57 -3.42 51.27 -3.42 56.97 -3.42 62.66 -3.42 68.36 -3.43 74.06 -3.42 79.75 -3.46 85.45 -3.42 91.15 -3.42 96.84 -3.42 102.54 -3.42 108.24 -3.42 113.94 -3.42 119.63 -3.42 125.33 -3.42 131.03 -3.42 136.72 -3.42" class="primitive"/>
          </g>
          <g transform="translate(163.05,77.25)" id="img-85a9f32a-38" stroke="#D4CA3A" stroke-dasharray="none" class="color_36">
            <path fill="none" d="M-136.72,-17.54 L -131.03 -13.37 -125.33 -9.75 -119.63 -7.75 -113.93 -5.55 -108.24 -3.32 -102.54 -1.32 -96.84 -0.04 -91.15 0.68 -85.45 1.14 -79.75 1.28 -74.06 1.41 -68.36 1.45 -62.66 1.45 -56.97 1.46 -51.27 1.46 -45.57 1.46 -39.88 1.46 -34.18 1.46 -28.48 1.46 -22.79 1.46 -17.09 1.46 -11.39 1.46 -5.7 1.46 0 1.46 5.7 1.46 11.39 1.46 17.09 1.46 22.79 1.46 28.48 1.46 34.18 1.46 39.88 1.46 45.57 1.46 51.27 1.46 56.97 1.46 62.66 1.46 68.36 1.46 74.06 1.46 79.75 1.46 85.45 1.46 91.15 1.46 96.84 1.46 102.54 1.46 108.24 1.46 113.94 1.46 119.63 1.46 125.33 1.46 131.03 1.46 136.72 1.46" class="primitive"/>
          </g>
          <g transform="translate(163.05,77.25)" id="img-85a9f32a-39" stroke="#FF6DAE" stroke-dasharray="none" class="color_49">
            <path fill="none" d="M-136.72,-14.98 L -131.03 -11.78 -125.33 -8.52 -119.63 -7.53 -113.93 -6.19 -108.24 -4.13 -102.54 -2.55 -96.84 -1.08 -91.15 -0.19 -85.45 0.65 -79.75 0.99 -74.06 1.29 -68.36 1.38 -62.66 1.44 -56.97 1.44 -51.27 1.46 -45.57 1.46 -39.88 1.46 -34.18 1.46 -28.48 1.46 -22.79 1.46 -17.09 1.46 -11.39 1.46 -5.7 1.46 0 1.46 5.7 1.46 11.39 1.46 17.09 1.46 22.79 1.46 28.48 1.46 34.18 1.46 39.88 1.46 45.57 1.46 51.27 1.46 56.97 1.46 62.66 1.46 68.36 1.46 74.06 1.46 79.75 1.46 85.45 1.46 91.15 1.46 96.84 1.46 102.54 1.46 108.24 1.46 113.94 1.46 119.63 1.46 125.33 1.46 131.03 1.46 136.72 1.46" class="primitive"/>
          </g>
          <g transform="translate(163.05,77.25)" id="img-85a9f32a-40" stroke="#00B78D" stroke-dasharray="none" class="color_64">
            <path fill="none" d="M-136.72,-12.19 L -131.03 -9.9 -125.33 -7.54 -119.63 -7 -113.93 -5.76 -108.24 -5.18 -102.54 -3.86 -96.84 -2.31 -91.15 -1.26 -85.45 -0.04 -79.75 0.44 -74.06 0.88 -68.36 1.19 -62.66 1.36 -56.97 1.43 -51.27 1.44 -45.57 1.46 -39.88 1.46 -34.18 1.46 -28.48 1.46 -22.79 1.46 -17.09 1.46 -11.39 1.46 -5.7 1.46 0 1.46 5.7 1.46 11.39 1.46 17.09 1.46 22.79 1.46 28.48 1.46 34.18 1.46 39.88 1.46 45.57 1.46 51.27 1.46 56.97 1.46 62.66 1.46 68.36 1.46 74.06 1.46 79.75 1.46 85.45 1.46 91.15 1.46 96.84 1.46 102.54 1.46 108.24 1.46 113.94 1.46 119.63 1.46 125.33 1.46 131.03 1.46 136.72 1.46" class="primitive"/>
          </g>
          <g transform="translate(163.05,77.25)" id="img-85a9f32a-41" stroke="#BEA9FF" stroke-dasharray="none" class="color_81">
            <path fill="none" d="M-136.72,-10.5 L -131.03 -9.16 -125.33 -7.18 -119.63 -6.75 -113.93 -6.53 -108.24 -5.47 -102.54 -4.24 -96.84 -2.8 -91.15 -1.57 -85.45 -0.43 -79.75 0.28 -74.06 0.85 -68.36 1.09 -62.66 1.32 -56.97 1.4 -51.27 1.44 -45.57 1.45 -39.88 1.46 -34.18 1.46 -28.48 1.46 -22.79 1.46 -17.09 1.46 -11.39 1.46 -5.7 1.46 0 1.46 5.7 1.46 11.39 1.46 17.09 1.46 22.79 1.46 28.48 1.46 34.18 1.46 39.88 1.46 45.57 1.46 51.27 1.46 56.97 1.46 62.66 1.46 68.36 1.46 74.06 1.46 79.75 1.46 85.45 1.46 91.15 1.46 96.84 1.46 102.54 1.46 108.24 1.46 113.94 1.46 119.63 1.46 125.33 1.46 131.03 1.46 136.72 1.46" class="primitive"/>
          </g>
          <g transform="translate(163.05,77.25)" id="img-85a9f32a-42" stroke="#FF6765" stroke-dasharray="none" class="color_100">
            <path fill="none" d="M-136.72,-9.08 L -131.03 -7.48 -125.33 -6.29 -119.63 -6.46 -113.93 -6.15 -108.24 -5.36 -102.54 -4.59 -96.84 -3.52 -91.15 -2.58 -85.45 -1.27 -79.75 -0.37 -74.06 0.26 -68.36 0.8 -62.66 1.09 -56.97 1.31 -51.27 1.4 -45.57 1.44 -39.88 1.46 -34.18 1.46 -28.48 1.46 -22.79 1.46 -17.09 1.46 -11.39 1.46 -5.7 1.46 0 1.46 5.7 1.46 11.39 1.46 17.09 1.46 22.79 1.46 28.48 1.46 34.18 1.46 39.88 1.46 45.57 1.46 51.27 1.46 56.97 1.46 62.66 1.46 68.36 1.46 74.06 1.46 79.75 1.46 85.45 1.46 91.15 1.46 96.84 1.46 102.54 1.46 108.24 1.46 113.94 1.46 119.63 1.46 125.33 1.46 131.03 1.46 136.72 1.46" class="primitive"/>
          </g>
        </g>
      </g>
    </g>
  </g>
  <g class="guide ylabels" font-size="2.82" font-family="'PT Sans Caption','Helvetica Neue','Helvetica',sans-serif" fill="#6C606B" id="img-85a9f32a-43">
    <g transform="translate(17.63,78.71)" id="img-85a9f32a-44">
      <g class="primitive">
        <text text-anchor="end" dy="0.35em">0.0</text>
      </g>
    </g>
    <g transform="translate(17.63,42.86)" id="img-85a9f32a-45">
      <g class="primitive">
        <text text-anchor="end" dy="0.35em">0.5</text>
      </g>
    </g>
    <g transform="translate(17.63,7)" id="img-85a9f32a-46">
      <g class="primitive">
        <text text-anchor="end" dy="0.35em">1.0</text>
      </g>
    </g>
  </g>
  <g font-size="3.88" font-family="'PT Sans','Helvetica Neue','Helvetica',sans-serif" fill="#564A55" stroke="#000000" stroke-opacity="0.000" id="img-85a9f32a-47">
    <g transform="translate(8.81,40.86)" id="img-85a9f32a-48">
      <g class="primitive">
        <text text-anchor="middle" dy="0.35em" transform="rotate(-90,0, 2)">Frequencia</text>
      </g>
    </g>
  </g>
</g>
<defs>
  <clipPath id="img-85a9f32a-21">
    <path d="M18.63,5 L 136.57 5 136.57 80.72 18.63 80.72" />
  </clipPath>
</defs>
</svg>
