<?xml version="1.0" encoding="UTF-8"?>
<svg xmlns="http://www.w3.org/2000/svg"
     xmlns:xlink="http://www.w3.org/1999/xlink"
     xmlns:gadfly="http://www.gadflyjl.org/ns"
     version="1.2"
     width="150mm" height="100mm" viewBox="0 0 150 100"
     stroke="none"
     fill="#000000"
     stroke-width="0.3"
     font-size="3.88"
>
<defs>
  <marker id="arrow" markerWidth="15" markerHeight="7" refX="5" refY="3.5" orient="auto" markerUnits="strokeWidth">
    <path d="M0,0 L15,3.5 L0,7 z" stroke="context-stroke" fill="context-stroke"/>
  </marker>
</defs>
<g class="plotroot xscalable yscalable" id="img-04f71ab6-1">
  <g font-size="3.88" font-family="'PT Sans','Helvetica Neue','Helvetica',sans-serif" fill="#564A55" stroke="#000000" stroke-opacity="0.000" id="img-04f71ab6-2">
    <g transform="translate(74.92,88.39)">
      <g class="primitive">
        <text text-anchor="middle" dy="0.6em">Numero Medio de Variedades por UD</text>
      </g>
    </g>
  </g>
  <g class="guide xlabels" font-size="2.82" font-family="'PT Sans Caption','Helvetica Neue','Helvetica',sans-serif" fill="#6C606B" id="img-04f71ab6-3">
    <g transform="translate(20.63,81.72)">
      <g class="primitive">
        <text text-anchor="middle" dy="0.6em">0</text>
      </g>
    </g>
    <g transform="translate(47.78,81.72)">
      <g class="primitive">
        <text text-anchor="middle" dy="0.6em">5</text>
      </g>
    </g>
    <g transform="translate(74.92,81.72)">
      <g class="primitive">
        <text text-anchor="middle" dy="0.6em">10</text>
      </g>
    </g>
    <g transform="translate(102.07,81.72)">
      <g class="primitive">
        <text text-anchor="middle" dy="0.6em">15</text>
      </g>
    </g>
    <g transform="translate(129.21,81.72)">
      <g class="primitive">
        <text text-anchor="middle" dy="0.6em">20</text>
      </g>
    </g>
  </g>
  <g class="guide colorkey" id="img-04f71ab6-4">
    <g fill="#4C404B" font-size="2.82" font-family="'PT Sans','Helvetica Neue','Helvetica',sans-serif" id="img-04f71ab6-5">
      <g transform="translate(141.92,19.28)" id="img-04f71ab6-6" class="color_15">
        <g class="primitive">
          <text dy="0.35em">15</text>
        </g>
      </g>
      <g transform="translate(141.92,22.91)" id="img-04f71ab6-7" class="color_16">
        <g class="primitive">
          <text dy="0.35em">16</text>
        </g>
      </g>
      <g transform="translate(141.92,26.54)" id="img-04f71ab6-8" class="color_17">
        <g class="primitive">
          <text dy="0.35em">17</text>
        </g>
      </g>
      <g transform="translate(141.92,30.16)" id="img-04f71ab6-9" class="color_18">
        <g class="primitive">
          <text dy="0.35em">18</text>
        </g>
      </g>
      <g transform="translate(141.92,33.79)" id="img-04f71ab6-10" class="color_19">
        <g class="primitive">
          <text dy="0.35em">19</text>
        </g>
      </g>
      <g transform="translate(141.92,37.42)" id="img-04f71ab6-11" class="color_20">
        <g class="primitive">
          <text dy="0.35em">20</text>
        </g>
      </g>
      <g transform="translate(141.92,41.04)" id="img-04f71ab6-12" class="color_21">
        <g class="primitive">
          <text dy="0.35em">21</text>
        </g>
      </g>
      <g transform="translate(141.92,44.67)" id="img-04f71ab6-13" class="color_22">
        <g class="primitive">
          <text dy="0.35em">22</text>
        </g>
      </g>
      <g transform="translate(141.92,48.3)" id="img-04f71ab6-14" class="color_23">
        <g class="primitive">
          <text dy="0.35em">23</text>
        </g>
      </g>
      <g transform="translate(141.92,51.92)" id="img-04f71ab6-15" class="color_24">
        <g class="primitive">
          <text dy="0.35em">24</text>
        </g>
      </g>
      <g transform="translate(141.92,55.55)" id="img-04f71ab6-16" class="color_25">
        <g class="primitive">
          <text dy="0.35em">25</text>
        </g>
      </g>
      <g transform="translate(141.92,59.18)" id="img-04f71ab6-17" class="color_26">
        <g class="primitive">
          <text dy="0.35em">26</text>
        </g>
      </g>
      <g transform="translate(141.92,62.8)" id="img-04f71ab6-18" class="color_27">
        <g class="primitive">
          <text dy="0.35em">27</text>
        </g>
      </g>
      <g transform="translate(141.92,66.43)" id="img-04f71ab6-19" class="color_28">
        <g class="primitive">
          <text dy="0.35em">28</text>
        </g>
      </g>
      <g transform="translate(141.92,70.06)" id="img-04f71ab6-20" class="color_29">
        <g class="primitive">
          <text dy="0.35em">29</text>
        </g>
      </g>
    </g>
    <g stroke="#000000" stroke-opacity="0.000" id="img-04f71ab6-21">
      <g transform="translate(140.01,19.28)" id="img-04f71ab6-22" fill="#C39800" class="color_15">
        <path d="M-0.91,-0.91 L 0.91 -0.91 0.91 0.91 -0.91 0.91 z" class="primitive"/>
      </g>
      <g transform="translate(140.01,22.91)" id="img-04f71ab6-23" fill="#FF93A4" class="color_16">
        <path d="M-0.91,-0.91 L 0.91 -0.91 0.91 0.91 -0.91 0.91 z" class="primitive"/>
      </g>
      <g transform="translate(140.01,26.54)" id="img-04f71ab6-24" fill="#32B44E" class="color_17">
        <path d="M-0.91,-0.91 L 0.91 -0.91 0.91 0.91 -0.91 0.91 z" class="primitive"/>
      </g>
      <g transform="translate(140.01,30.16)" id="img-04f71ab6-25" fill="#9E9E9E" class="color_18">
        <path d="M-0.91,-0.91 L 0.91 -0.91 0.91 0.91 -0.91 0.91 z" class="primitive"/>
      </g>
      <g transform="translate(140.01,33.79)" id="img-04f71ab6-26" fill="#00E5B2" class="color_19">
        <path d="M-0.91,-0.91 L 0.91 -0.91 0.91 0.91 -0.91 0.91 z" class="primitive"/>
      </g>
      <g transform="translate(140.01,37.42)" id="img-04f71ab6-27" fill="#FFA9F6" class="color_20">
        <path d="M-0.91,-0.91 L 0.91 -0.91 0.91 0.91 -0.91 0.91 z" class="primitive"/>
      </g>
      <g transform="translate(140.01,41.04)" id="img-04f71ab6-28" fill="#FFAA89" class="color_21">
        <path d="M-0.91,-0.91 L 0.91 -0.91 0.91 0.91 -0.91 0.91 z" class="primitive"/>
      </g>
      <g transform="translate(140.01,44.67)" id="img-04f71ab6-29" fill="#82CAFF" class="color_22">
        <path d="M-0.91,-0.91 L 0.91 -0.91 0.91 0.91 -0.91 0.91 z" class="primitive"/>
      </g>
      <g transform="translate(140.01,48.3)" id="img-04f71ab6-30" fill="#00BBAA" class="color_23">
        <path d="M-0.91,-0.91 L 0.91 -0.91 0.91 0.91 -0.91 0.91 z" class="primitive"/>
      </g>
      <g transform="translate(140.01,51.92)" id="img-04f71ab6-31" fill="#A08CFF" class="color_24">
        <path d="M-0.91,-0.91 L 0.91 -0.91 0.91 0.91 -0.91 0.91 z" class="primitive"/>
      </g>
      <g transform="translate(140.01,55.55)" id="img-04f71ab6-32" fill="#00D485" class="color_25">
        <path d="M-0.91,-0.91 L 0.91 -0.91 0.91 0.91 -0.91 0.91 z" class="primitive"/>
      </g>
      <g transform="translate(140.01,59.18)" id="img-04f71ab6-33" fill="#BCCF6F" class="color_26">
        <path d="M-0.91,-0.91 L 0.91 -0.91 0.91 0.91 -0.91 0.91 z" class="primitive"/>
      </g>
      <g transform="translate(140.01,62.8)" id="img-04f71ab6-34" fill="#FFA0C8" class="color_27">
        <path d="M-0.91,-0.91 L 0.91 -0.91 0.91 0.91 -0.91 0.91 z" class="primitive"/>
      </g>
      <g transform="translate(140.01,66.43)" id="img-04f71ab6-35" fill="#FF5F82" class="color_28">
        <path d="M-0.91,-0.91 L 0.91 -0.91 0.91 0.91 -0.91 0.91 z" class="primitive"/>
      </g>
      <g transform="translate(140.01,70.06)" id="img-04f71ab6-36" fill="#C483E9" class="color_29">
        <path d="M-0.91,-0.91 L 0.91 -0.91 0.91 0.91 -0.91 0.91 z" class="primitive"/>
      </g>
    </g>
    <g fill="#4C404B" font-size="2.82" font-family="'PT Sans','Helvetica Neue','Helvetica',sans-serif" id="img-04f71ab6-37">
      <g transform="translate(135.03,19.28)" id="img-04f71ab6-38" class="color_0">
        <g class="primitive">
          <text dy="0.35em">0</text>
        </g>
      </g>
      <g transform="translate(135.03,22.91)" id="img-04f71ab6-39" class="color_1">
        <g class="primitive">
          <text dy="0.35em">1</text>
        </g>
      </g>
      <g transform="translate(135.03,26.54)" id="img-04f71ab6-40" class="color_2">
        <g class="primitive">
          <text dy="0.35em">2</text>
        </g>
      </g>
      <g transform="translate(135.03,30.16)" id="img-04f71ab6-41" class="color_3">
        <g class="primitive">
          <text dy="0.35em">3</text>
        </g>
      </g>
      <g transform="translate(135.03,33.79)" id="img-04f71ab6-42" class="color_4">
        <g class="primitive">
          <text dy="0.35em">4</text>
        </g>
      </g>
      <g transform="translate(135.03,37.42)" id="img-04f71ab6-43" class="color_5">
        <g class="primitive">
          <text dy="0.35em">5</text>
        </g>
      </g>
      <g transform="translate(135.03,41.04)" id="img-04f71ab6-44" class="color_6">
        <g class="primitive">
          <text dy="0.35em">6</text>
        </g>
      </g>
      <g transform="translate(135.03,44.67)" id="img-04f71ab6-45" class="color_7">
        <g class="primitive">
          <text dy="0.35em">7</text>
        </g>
      </g>
      <g transform="translate(135.03,48.3)" id="img-04f71ab6-46" class="color_8">
        <g class="primitive">
          <text dy="0.35em">8</text>
        </g>
      </g>
      <g transform="translate(135.03,51.92)" id="img-04f71ab6-47" class="color_9">
        <g class="primitive">
          <text dy="0.35em">9</text>
        </g>
      </g>
      <g transform="translate(135.03,55.55)" id="img-04f71ab6-48" class="color_10">
        <g class="primitive">
          <text dy="0.35em">10</text>
        </g>
      </g>
      <g transform="translate(135.03,59.18)" id="img-04f71ab6-49" class="color_11">
        <g class="primitive">
          <text dy="0.35em">11</text>
        </g>
      </g>
      <g transform="translate(135.03,62.8)" id="img-04f71ab6-50" class="color_12">
        <g class="primitive">
          <text dy="0.35em">12</text>
        </g>
      </g>
      <g transform="translate(135.03,66.43)" id="img-04f71ab6-51" class="color_13">
        <g class="primitive">
          <text dy="0.35em">13</text>
        </g>
      </g>
      <g transform="translate(135.03,70.06)" id="img-04f71ab6-52" class="color_14">
        <g class="primitive">
          <text dy="0.35em">14</text>
        </g>
      </g>
    </g>
    <g stroke="#000000" stroke-opacity="0.000" id="img-04f71ab6-53">
      <g transform="translate(133.12,19.28)" id="img-04f71ab6-54" fill="#00BFFF" class="color_0">
        <path d="M-0.91,-0.91 L 0.91 -0.91 0.91 0.91 -0.91 0.91 z" class="primitive"/>
      </g>
      <g transform="translate(133.12,22.91)" id="img-04f71ab6-55" fill="#D4CA3A" class="color_1">
        <path d="M-0.91,-0.91 L 0.91 -0.91 0.91 0.91 -0.91 0.91 z" class="primitive"/>
      </g>
      <g transform="translate(133.12,26.54)" id="img-04f71ab6-56" fill="#FF6DAE" class="color_2">
        <path d="M-0.91,-0.91 L 0.91 -0.91 0.91 0.91 -0.91 0.91 z" class="primitive"/>
      </g>
      <g transform="translate(133.12,30.16)" id="img-04f71ab6-57" fill="#00B78D" class="color_3">
        <path d="M-0.91,-0.91 L 0.91 -0.91 0.91 0.91 -0.91 0.91 z" class="primitive"/>
      </g>
      <g transform="translate(133.12,33.79)" id="img-04f71ab6-58" fill="#BEA9FF" class="color_4">
        <path d="M-0.91,-0.91 L 0.91 -0.91 0.91 0.91 -0.91 0.91 z" class="primitive"/>
      </g>
      <g transform="translate(133.12,37.42)" id="img-04f71ab6-59" fill="#FF6765" class="color_5">
        <path d="M-0.91,-0.91 L 0.91 -0.91 0.91 0.91 -0.91 0.91 z" class="primitive"/>
      </g>
      <g transform="translate(133.12,41.04)" id="img-04f71ab6-60" fill="#C6C6C6" class="color_6">
        <path d="M-0.91,-0.91 L 0.91 -0.91 0.91 0.91 -0.91 0.91 z" class="primitive"/>
      </g>
      <g transform="translate(133.12,44.67)" id="img-04f71ab6-61" fill="#63DF75" class="color_7">
        <path d="M-0.91,-0.91 L 0.91 -0.91 0.91 0.91 -0.91 0.91 z" class="primitive"/>
      </g>
      <g transform="translate(133.12,48.3)" id="img-04f71ab6-62" fill="#00E6D3" class="color_8">
        <path d="M-0.91,-0.91 L 0.91 -0.91 0.91 0.91 -0.91 0.91 z" class="primitive"/>
      </g>
      <g transform="translate(133.12,51.92)" id="img-04f71ab6-63" fill="#E870DD" class="color_9">
        <path d="M-0.91,-0.91 L 0.91 -0.91 0.91 0.91 -0.91 0.91 z" class="primitive"/>
      </g>
      <g transform="translate(133.12,55.55)" id="img-04f71ab6-64" fill="#93A649" class="color_10">
        <path d="M-0.91,-0.91 L 0.91 -0.91 0.91 0.91 -0.91 0.91 z" class="primitive"/>
      </g>
      <g transform="translate(133.12,59.18)" id="img-04f71ab6-65" fill="#FF9A4B" class="color_11">
        <path d="M-0.91,-0.91 L 0.91 -0.91 0.91 0.91 -0.91 0.91 z" class="primitive"/>
      </g>
      <g transform="translate(133.12,62.8)" id="img-04f71ab6-66" fill="#00B4BC" class="color_12">
        <path d="M-0.91,-0.91 L 0.91 -0.91 0.91 0.91 -0.91 0.91 z" class="primitive"/>
      </g>
      <g transform="translate(133.12,66.43)" id="img-04f71ab6-67" fill="#6299FF" class="color_13">
        <path d="M-0.91,-0.91 L 0.91 -0.91 0.91 0.91 -0.91 0.91 z" class="primitive"/>
      </g>
      <g transform="translate(133.12,70.06)" id="img-04f71ab6-68" fill="#00E4FF" class="color_14">
        <path d="M-0.91,-0.91 L 0.91 -0.91 0.91 0.91 -0.91 0.91 z" class="primitive"/>
      </g>
    </g>
    <g fill="#362A35" font-size="3.88" font-family="'PT Sans','Helvetica Neue','Helvetica',sans-serif" stroke="#000000" stroke-opacity="0.000" id="img-04f71ab6-69">
      <g transform="translate(132.21,15.46)" id="img-04f71ab6-70">
        <g class="primitive">
          <text>m</text>
        </g>
      </g>
    </g>
  </g>
  <g clip-path="url(#img-04f71ab6-71)">
    <g id="img-04f71ab6-72">
      <g pointer-events="visible" fill="#000000" fill-opacity="0.000" stroke="#000000" stroke-opacity="0.000" class="guide background" id="img-04f71ab6-73">
        <g transform="translate(74.92,42.86)" id="img-04f71ab6-74">
          <path d="M-56.29,-37.86 L 56.29 -37.86 56.29 37.86 -56.29 37.86 z" class="primitive"/>
        </g>
      </g>
      <g class="guide ygridlines xfixed" stroke-dasharray="0.5,0.5" stroke-width="0.2" stroke="#D0D0E0" id="img-04f71ab6-75">
        <g transform="translate(74.92,78.71)" id="img-04f71ab6-76">
          <path fill="none" d="M-56.29,0 L 56.29 0" class="primitive"/>
        </g>
        <g transform="translate(74.92,42.86)" id="img-04f71ab6-77">
          <path fill="none" d="M-56.29,0 L 56.29 0" class="primitive"/>
        </g>
        <g transform="translate(74.92,7)" id="img-04f71ab6-78">
          <path fill="none" d="M-56.29,0 L 56.29 0" class="primitive"/>
        </g>
      </g>
      <g class="guide xgridlines yfixed" stroke-dasharray="0.5,0.5" stroke-width="0.2" stroke="#D0D0E0" id="img-04f71ab6-79">
        <g transform="translate(20.63,42.86)" id="img-04f71ab6-80">
          <path fill="none" d="M0,-37.86 L 0 37.86" class="primitive"/>
        </g>
        <g transform="translate(47.78,42.86)" id="img-04f71ab6-81">
          <path fill="none" d="M0,-37.86 L 0 37.86" class="primitive"/>
        </g>
        <g transform="translate(74.92,42.86)" id="img-04f71ab6-82">
          <path fill="none" d="M0,-37.86 L 0 37.86" class="primitive"/>
        </g>
        <g transform="translate(102.07,42.86)" id="img-04f71ab6-83">
          <path fill="none" d="M0,-37.86 L 0 37.86" class="primitive"/>
        </g>
        <g transform="translate(129.21,42.86)" id="img-04f71ab6-84">
          <path fill="none" d="M0,-37.86 L 0 37.86" class="primitive"/>
        </g>
      </g>
      <g class="plotpanel" id="img-04f71ab6-85">
        <metadata>
          <boundingbox value="18.63166666666666mm 5.0mm 112.58166666666666mm 75.715mm"/>
          <unitbox value="-0.36838631444841824 1.0278881684445373 20.736772628896837 -1.055776336889075"/>
        </metadata>
        <g stroke-width="0.3" fill="#000000" fill-opacity="0.000" class="geometry" id="img-04f71ab6-86">
          <g transform="translate(156.36,77.25)" id="img-04f71ab6-87" stroke="#00BFFF" stroke-dasharray="none" class="color_0">
            <path fill="none" d="M-130.3,-14.64 L -124.87 -11.71 -119.44 -13.17 -114.01 -4.39 -108.58 -2.93 -103.15 -8.78 -97.72 -0 -92.29 -0 -86.87 -0 -81.44 -1.46 -76.01 1.46 -70.58 1.46 -65.15 1.46 -59.72 1.46 -54.29 1.46 -48.86 1.46 -43.43 1.46 -38 1.46 -32.57 1.46 -27.15 1.46 -21.72 1.46 -16.29 1.46 -10.86 1.46 -5.43 1.46 0 1.46 5.43 1.46 10.86 1.46 16.29 1.46 21.72 1.46 27.15 1.46 32.57 1.46 38 1.46 43.43 1.46 48.86 1.46 54.29 1.46 59.72 1.46 65.15 1.46 70.58 1.46 76.01 1.46 81.44 1.46 86.87 1.46 92.29 1.46 97.72 1.46 103.15 1.46 108.58 1.46 114.01 1.46 119.44 1.46 124.87 1.46 130.3 1.46" class="primitive"/>
          </g>
          <g transform="translate(156.36,77.25)" id="img-04f71ab6-88" stroke="#D4CA3A" stroke-dasharray="none" class="color_1">
            <path fill="none" d="M-130.3,-32.2 L -124.87 -30.74 -119.44 -4.39 -114.01 1.46 -108.58 1.46 -103.15 1.46 -97.72 1.46 -92.29 1.46 -86.87 1.46 -81.44 1.46 -76.01 1.46 -70.58 1.46 -65.15 1.46 -59.72 1.46 -54.29 1.46 -48.86 1.46 -43.43 1.46 -38 1.46 -32.57 1.46 -27.15 1.46 -21.72 1.46 -16.29 1.46 -10.86 1.46 -5.43 1.46 0 1.46 5.43 1.46 10.86 1.46 16.29 1.46 21.72 1.46 27.15 1.46 32.57 1.46 38 1.46 43.43 1.46 48.86 1.46 54.29 1.46 59.72 1.46 65.15 1.46 70.58 1.46 76.01 1.46 81.44 1.46 86.87 1.46 92.29 1.46 97.72 1.46 103.15 1.46 108.58 1.46 114.01 1.46 119.44 1.46 124.87 1.46 130.3 1.46" class="primitive"/>
          </g>
          <g transform="translate(156.36,77.25)" id="img-04f71ab6-89" stroke="#FF6DAE" stroke-dasharray="none" class="color_2">
            <path fill="none" d="M-130.3,-8.78 L -124.87 -4.39 -119.44 -5.85 -114.01 -1.46 -108.58 -5.85 -103.15 -4.39 -97.72 -7.32 -92.29 -13.17 -86.87 -5.85 -81.44 1.46 -76.01 1.46 -70.58 1.46 -65.15 -0 -59.72 1.46 -54.29 1.46 -48.86 1.46 -43.43 1.46 -38 1.46 -32.57 1.46 -27.15 1.46 -21.72 1.46 -16.29 1.46 -10.86 1.46 -5.43 1.46 0 1.46 5.43 1.46 10.86 1.46 16.29 1.46 21.72 1.46 27.15 1.46 32.57 1.46 38 1.46 43.43 1.46 48.86 1.46 54.29 1.46 59.72 1.46 65.15 1.46 70.58 1.46 76.01 1.46 81.44 1.46 86.87 1.46 92.29 1.46 97.72 1.46 103.15 1.46 108.58 1.46 114.01 1.46 119.44 1.46 124.87 1.46 130.3 1.46" class="primitive"/>
          </g>
          <g transform="translate(156.36,77.25)" id="img-04f71ab6-90" stroke="#00B78D" stroke-dasharray="none" class="color_3">
            <path fill="none" d="M-130.3,-1.46 L -124.87 -5.85 -119.44 -5.85 -114.01 -7.32 -108.58 -10.24 -103.15 -7.32 -97.72 -8.78 -92.29 -11.71 -86.87 -0 -81.44 1.46 -76.01 1.46 -70.58 1.46 -65.15 1.46 -59.72 1.46 -54.29 1.46 -48.86 1.46 -43.43 1.46 -38 1.46 -32.57 1.46 -27.15 1.46 -21.72 1.46 -16.29 1.46 -10.86 1.46 -5.43 1.46 0 1.46 5.43 1.46 10.86 1.46 16.29 1.46 21.72 1.46 27.15 1.46 32.57 1.46 38 1.46 43.43 1.46 48.86 1.46 54.29 1.46 59.72 1.46 65.15 1.46 70.58 1.46 76.01 1.46 81.44 1.46 86.87 1.46 92.29 1.46 97.72 1.46 103.15 1.46 108.58 1.46 114.01 1.46 119.44 1.46 124.87 1.46 130.3 1.46" class="primitive"/>
          </g>
          <g transform="translate(156.36,77.25)" id="img-04f71ab6-91" stroke="#BEA9FF" stroke-dasharray="none" class="color_4">
            <path fill="none" d="M-130.3,-23.42 L -124.87 -27.81 -119.44 -4.39 -114.01 -7.32 -108.58 -0 -103.15 -0 -97.72 1.46 -92.29 1.46 -86.87 1.46 -81.44 1.46 -76.01 1.46 -70.58 1.46 -65.15 1.46 -59.72 1.46 -54.29 1.46 -48.86 1.46 -43.43 1.46 -38 1.46 -32.57 1.46 -27.15 1.46 -21.72 1.46 -16.29 1.46 -10.86 1.46 -5.43 1.46 0 1.46 5.43 1.46 10.86 1.46 16.29 1.46 21.72 1.46 27.15 1.46 32.57 1.46 38 1.46 43.43 1.46 48.86 1.46 54.29 1.46 59.72 1.46 65.15 1.46 70.58 1.46 76.01 1.46 81.44 1.46 86.87 1.46 92.29 1.46 97.72 1.46 103.15 1.46 108.58 1.46 114.01 1.46 119.44 1.46 124.87 1.46 130.3 1.46" class="primitive"/>
          </g>
          <g transform="translate(156.36,77.25)" id="img-04f71ab6-92" stroke="#FF6765" stroke-dasharray="none" class="color_5">
            <path fill="none" d="M-130.3,-0 L -124.87 -2.93 -119.44 -1.46 -114.01 -10.24 -108.58 -20.49 -103.15 -7.32 -97.72 -16.1 -92.29 -0 -86.87 -0 -81.44 1.46 -76.01 1.46 -70.58 1.46 -65.15 1.46 -59.72 1.46 -54.29 1.46 -48.86 1.46 -43.43 1.46 -38 1.46 -32.57 1.46 -27.15 1.46 -21.72 1.46 -16.29 1.46 -10.86 1.46 -5.43 1.46 0 1.46 5.43 1.46 10.86 1.46 16.29 1.46 21.72 1.46 27.15 1.46 32.57 1.46 38 1.46 43.43 1.46 48.86 1.46 54.29 1.46 59.72 1.46 65.15 1.46 70.58 1.46 76.01 1.46 81.44 1.46 86.87 1.46 92.29 1.46 97.72 1.46 103.15 1.46 108.58 1.46 114.01 1.46 119.44 1.46 124.87 1.46 130.3 1.46" class="primitive"/>
          </g>
          <g transform="translate(156.36,77.25)" id="img-04f71ab6-93" stroke="#C6C6C6" stroke-dasharray="none" class="color_6">
            <path fill="none" d="M-130.3,-0 L -124.87 -0 -119.44 -4.39 -114.01 -2.93 -108.58 -4.39 -103.15 -8.78 -97.72 -4.39 -92.29 -4.39 -86.87 -8.78 -81.44 -5.85 -76.01 -2.93 -70.58 -2.93 -65.15 -1.46 -59.72 -0 -54.29 1.46 -48.86 1.46 -43.43 1.46 -38 1.46 -32.57 1.46 -27.15 1.46 -21.72 1.46 -16.29 1.46 -10.86 1.46 -5.43 1.46 0 1.46 5.43 1.46 10.86 1.46 16.29 1.46 21.72 1.46 27.15 1.46 32.57 1.46 38 1.46 43.43 1.46 48.86 1.46 54.29 1.46 59.72 1.46 65.15 1.46 70.58 1.46 76.01 1.46 81.44 1.46 86.87 1.46 92.29 1.46 97.72 1.46 103.15 1.46 108.58 1.46 114.01 1.46 119.44 1.46 124.87 1.46 130.3 1.46" class="primitive"/>
          </g>
          <g transform="translate(156.36,77.25)" id="img-04f71ab6-94" stroke="#63DF75" stroke-dasharray="none" class="color_7">
            <path fill="none" d="M-130.3,-13.17 L -124.87 -14.64 -119.44 -11.71 -114.01 -14.64 -108.58 -4.39 -103.15 -2.93 -97.72 -0 -92.29 1.46 -86.87 1.46 -81.44 1.46 -76.01 1.46 -70.58 1.46 -65.15 1.46 -59.72 1.46 -54.29 1.46 -48.86 1.46 -43.43 1.46 -38 1.46 -32.57 1.46 -27.15 1.46 -21.72 1.46 -16.29 1.46 -10.86 1.46 -5.43 1.46 0 1.46 5.43 1.46 10.86 1.46 16.29 1.46 21.72 1.46 27.15 1.46 32.57 1.46 38 1.46 43.43 1.46 48.86 1.46 54.29 1.46 59.72 1.46 65.15 1.46 70.58 1.46 76.01 1.46 81.44 1.46 86.87 1.46 92.29 1.46 97.72 1.46 103.15 1.46 108.58 1.46 114.01 1.46 119.44 1.46 124.87 1.46 130.3 1.46" class="primitive"/>
          </g>
          <g transform="translate(156.36,77.25)" id="img-04f71ab6-95" stroke="#00E6D3" stroke-dasharray="none" class="color_8">
            <path fill="none" d="M-130.3,1.46 L -124.87 -0 -119.44 -0 -114.01 -5.85 -108.58 -5.85 -103.15 -7.32 -97.72 -19.03 -92.29 -11.71 -86.87 -5.85 -81.44 -1.46 -76.01 -0 -70.58 1.46 -65.15 1.46 -59.72 1.46 -54.29 1.46 -48.86 1.46 -43.43 1.46 -38 1.46 -32.57 1.46 -27.15 1.46 -21.72 1.46 -16.29 1.46 -10.86 1.46 -5.43 1.46 0 1.46 5.43 1.46 10.86 1.46 16.29 1.46 21.72 1.46 27.15 1.46 32.57 1.46 38 1.46 43.43 1.46 48.86 1.46 54.29 1.46 59.72 1.46 65.15 1.46 70.58 1.46 76.01 1.46 81.44 1.46 86.87 1.46 92.29 1.46 97.72 1.46 103.15 1.46 108.58 1.46 114.01 1.46 119.44 1.46 124.87 1.46 130.3 1.46" class="primitive"/>
          </g>
          <g transform="translate(156.36,77.25)" id="img-04f71ab6-96" stroke="#E870DD" stroke-dasharray="none" class="color_9">
            <path fill="none" d="M-130.3,-2.93 L -124.87 -23.42 -119.44 -16.1 -114.01 -5.85 -108.58 -8.78 -103.15 -4.39 -97.72 -0 -92.29 1.46 -86.87 1.46 -81.44 1.46 -76.01 1.46 -70.58 1.46 -65.15 1.46 -59.72 1.46 -54.29 1.46 -48.86 1.46 -43.43 1.46 -38 1.46 -32.57 1.46 -27.15 1.46 -21.72 1.46 -16.29 1.46 -10.86 1.46 -5.43 1.46 0 1.46 5.43 1.46 10.86 1.46 16.29 1.46 21.72 1.46 27.15 1.46 32.57 1.46 38 1.46 43.43 1.46 48.86 1.46 54.29 1.46 59.72 1.46 65.15 1.46 70.58 1.46 76.01 1.46 81.44 1.46 86.87 1.46 92.29 1.46 97.72 1.46 103.15 1.46 108.58 1.46 114.01 1.46 119.44 1.46 124.87 1.46 130.3 1.46" class="primitive"/>
          </g>
          <g transform="translate(156.36,77.25)" id="img-04f71ab6-97" stroke="#93A649" stroke-dasharray="none" class="color_10">
            <path fill="none" d="M-130.3,-27.81 L -124.87 -8.78 -119.44 -10.24 -114.01 -5.85 -108.58 -0 -103.15 -0 -97.72 1.46 -92.29 -4.39 -86.87 -0 -81.44 -0 -76.01 -0 -70.58 1.46 -65.15 1.46 -59.72 1.46 -54.29 1.46 -48.86 1.46 -43.43 1.46 -38 1.46 -32.57 1.46 -27.15 1.46 -21.72 1.46 -16.29 1.46 -10.86 1.46 -5.43 1.46 0 1.46 5.43 1.46 10.86 1.46 16.29 1.46 21.72 1.46 27.15 1.46 32.57 1.46 38 1.46 43.43 1.46 48.86 1.46 54.29 1.46 59.72 1.46 65.15 1.46 70.58 1.46 76.01 1.46 81.44 1.46 86.87 1.46 92.29 1.46 97.72 1.46 103.15 1.46 108.58 1.46 114.01 1.46 119.44 1.46 124.87 1.46 130.3 1.46" class="primitive"/>
          </g>
          <g transform="translate(156.36,77.25)" id="img-04f71ab6-98" stroke="#FF9A4B" stroke-dasharray="none" class="color_11">
            <path fill="none" d="M-130.3,-2.93 L -124.87 -4.39 -119.44 -5.85 -114.01 -19.03 -108.58 -10.24 -103.15 -10.24 -97.72 -4.39 -92.29 -0 -86.87 1.46 -81.44 -1.46 -76.01 1.46 -70.58 1.46 -65.15 1.46 -59.72 1.46 -54.29 1.46 -48.86 1.46 -43.43 1.46 -38 1.46 -32.57 1.46 -27.15 1.46 -21.72 1.46 -16.29 1.46 -10.86 1.46 -5.43 1.46 0 1.46 5.43 1.46 10.86 1.46 16.29 1.46 21.72 1.46 27.15 1.46 32.57 1.46 38 1.46 43.43 1.46 48.86 1.46 54.29 1.46 59.72 1.46 65.15 1.46 70.58 1.46 76.01 1.46 81.44 1.46 86.87 1.46 92.29 1.46 97.72 1.46 103.15 1.46 108.58 1.46 114.01 1.46 119.44 1.46 124.87 1.46 130.3 1.46" class="primitive"/>
          </g>
          <g transform="translate(156.36,77.25)" id="img-04f71ab6-99" stroke="#00B4BC" stroke-dasharray="none" class="color_12">
            <path fill="none" d="M-130.3,-4.39 L -124.87 -16.1 -119.44 -13.17 -114.01 -13.17 -108.58 -4.39 -103.15 -2.93 -97.72 -2.93 -92.29 -0 -86.87 -0 -81.44 -0 -76.01 1.46 -70.58 1.46 -65.15 1.46 -59.72 1.46 -54.29 1.46 -48.86 1.46 -43.43 1.46 -38 1.46 -32.57 1.46 -27.15 1.46 -21.72 1.46 -16.29 1.46 -10.86 1.46 -5.43 1.46 0 1.46 5.43 1.46 10.86 1.46 16.29 1.46 21.72 1.46 27.15 1.46 32.57 1.46 38 1.46 43.43 1.46 48.86 1.46 54.29 1.46 59.72 1.46 65.15 1.46 70.58 1.46 76.01 1.46 81.44 1.46 86.87 1.46 92.29 1.46 97.72 1.46 103.15 1.46 108.58 1.46 114.01 1.46 119.44 1.46 124.87 1.46 130.3 1.46" class="primitive"/>
          </g>
          <g transform="translate(156.36,77.25)" id="img-04f71ab6-100" stroke="#6299FF" stroke-dasharray="none" class="color_13">
            <path fill="none" d="M-130.3,-0 L -124.87 1.46 -119.44 -5.85 -114.01 -7.32 -108.58 -10.24 -103.15 -13.17 -97.72 -14.64 -92.29 -7.32 -86.87 -1.46 -81.44 1.46 -76.01 1.46 -70.58 1.46 -65.15 1.46 -59.72 1.46 -54.29 1.46 -48.86 1.46 -43.43 1.46 -38 1.46 -32.57 1.46 -27.15 1.46 -21.72 1.46 -16.29 1.46 -10.86 1.46 -5.43 1.46 0 1.46 5.43 1.46 10.86 1.46 16.29 1.46 21.72 1.46 27.15 1.46 32.57 1.46 38 1.46 43.43 1.46 48.86 1.46 54.29 1.46 59.72 1.46 65.15 1.46 70.58 1.46 76.01 1.46 81.44 1.46 86.87 1.46 92.29 1.46 97.72 1.46 103.15 1.46 108.58 1.46 114.01 1.46 119.44 1.46 124.87 1.46 130.3 1.46" class="primitive"/>
          </g>
          <g transform="translate(156.36,77.25)" id="img-04f71ab6-101" stroke="#00E4FF" stroke-dasharray="none" class="color_14">
            <path fill="none" d="M-130.3,-4.39 L -124.87 -10.24 -119.44 -7.32 -114.01 -11.71 -108.58 -10.24 -103.15 -7.32 -97.72 -1.46 -92.29 -2.93 -86.87 -1.46 -81.44 1.46 -76.01 -0 -70.58 1.46 -65.15 1.46 -59.72 1.46 -54.29 1.46 -48.86 1.46 -43.43 1.46 -38 1.46 -32.57 1.46 -27.15 1.46 -21.72 1.46 -16.29 1.46 -10.86 1.46 -5.43 1.46 0 1.46 5.43 1.46 10.86 1.46 16.29 1.46 21.72 1.46 27.15 1.46 32.57 1.46 38 1.46 43.43 1.46 48.86 1.46 54.29 1.46 59.72 1.46 65.15 1.46 70.58 1.46 76.01 1.46 81.44 1.46 86.87 1.46 92.29 1.46 97.72 1.46 103.15 1.46 108.58 1.46 114.01 1.46 119.44 1.46 124.87 1.46 130.3 1.46" class="primitive"/>
          </g>
          <g transform="translate(156.36,77.25)" id="img-04f71ab6-102" stroke="#C39800" stroke-dasharray="none" class="color_15">
            <path fill="none" d="M-130.3,-1.46 L -124.87 -2.93 -119.44 -1.46 -114.01 -14.64 -108.58 -5.85 -103.15 -7.32 -97.72 -8.78 -92.29 -7.32 -86.87 -1.46 -81.44 -1.46 -76.01 -1.46 -70.58 -0 -65.15 1.46 -59.72 1.46 -54.29 1.46 -48.86 1.46 -43.43 1.46 -38 1.46 -32.57 1.46 -27.15 1.46 -21.72 1.46 -16.29 1.46 -10.86 1.46 -5.43 1.46 0 1.46 5.43 1.46 10.86 1.46 16.29 1.46 21.72 1.46 27.15 1.46 32.57 1.46 38 1.46 43.43 1.46 48.86 1.46 54.29 1.46 59.72 1.46 65.15 1.46 70.58 1.46 76.01 1.46 81.44 1.46 86.87 1.46 92.29 1.46 97.72 1.46 103.15 1.46 108.58 1.46 114.01 1.46 119.44 1.46 124.87 1.46 130.3 1.46" class="primitive"/>
          </g>
          <g transform="translate(156.36,77.25)" id="img-04f71ab6-103" stroke="#FF93A4" stroke-dasharray="none" class="color_16">
            <path fill="none" d="M-130.3,-0 L -124.87 -0 -119.44 -4.39 -114.01 -5.85 -108.58 -2.93 -103.15 -10.24 -97.72 -11.71 -92.29 -14.64 -86.87 -5.85 -81.44 -0 -76.01 -0 -70.58 1.46 -65.15 1.46 -59.72 1.46 -54.29 1.46 -48.86 1.46 -43.43 1.46 -38 1.46 -32.57 1.46 -27.15 1.46 -21.72 1.46 -16.29 1.46 -10.86 1.46 -5.43 1.46 0 1.46 5.43 1.46 10.86 1.46 16.29 1.46 21.72 1.46 27.15 1.46 32.57 1.46 38 1.46 43.43 1.46 48.86 1.46 54.29 1.46 59.72 1.46 65.15 1.46 70.58 1.46 76.01 1.46 81.44 1.46 86.87 1.46 92.29 1.46 97.72 1.46 103.15 1.46 108.58 1.46 114.01 1.46 119.44 1.46 124.87 1.46 130.3 1.46" class="primitive"/>
          </g>
          <g transform="translate(156.36,77.25)" id="img-04f71ab6-104" stroke="#32B44E" stroke-dasharray="none" class="color_17">
            <path fill="none" d="M-130.3,1.46 L -124.87 -0 -119.44 -11.71 -114.01 -8.78 -108.58 -10.24 -103.15 -11.71 -97.72 -10.24 -92.29 -5.85 -86.87 1.46 -81.44 -1.46 -76.01 1.46 -70.58 1.46 -65.15 1.46 -59.72 1.46 -54.29 1.46 -48.86 1.46 -43.43 1.46 -38 1.46 -32.57 1.46 -27.15 1.46 -21.72 1.46 -16.29 1.46 -10.86 1.46 -5.43 1.46 0 1.46 5.43 1.46 10.86 1.46 16.29 1.46 21.72 1.46 27.15 1.46 32.57 1.46 38 1.46 43.43 1.46 48.86 1.46 54.29 1.46 59.72 1.46 65.15 1.46 70.58 1.46 76.01 1.46 81.44 1.46 86.87 1.46 92.29 1.46 97.72 1.46 103.15 1.46 108.58 1.46 114.01 1.46 119.44 1.46 124.87 1.46 130.3 1.46" class="primitive"/>
          </g>
          <g transform="translate(156.36,77.25)" id="img-04f71ab6-105" stroke="#9E9E9E" stroke-dasharray="none" class="color_18">
            <path fill="none" d="M-130.3,-58.54 L -124.87 -7.32 -119.44 -1.46 -114.01 1.46 -108.58 1.46 -103.15 1.46 -97.72 1.46 -92.29 1.46 -86.87 1.46 -81.44 1.46 -76.01 1.46 -70.58 1.46 -65.15 1.46 -59.72 1.46 -54.29 1.46 -48.86 1.46 -43.43 1.46 -38 1.46 -32.57 1.46 -27.15 1.46 -21.72 1.46 -16.29 1.46 -10.86 1.46 -5.43 1.46 0 1.46 5.43 1.46 10.86 1.46 16.29 1.46 21.72 1.46 27.15 1.46 32.57 1.46 38 1.46 43.43 1.46 48.86 1.46 54.29 1.46 59.72 1.46 65.15 1.46 70.58 1.46 76.01 1.46 81.44 1.46 86.87 1.46 92.29 1.46 97.72 1.46 103.15 1.46 108.58 1.46 114.01 1.46 119.44 1.46 124.87 1.46 130.3 1.46" class="primitive"/>
          </g>
          <g transform="translate(156.36,77.25)" id="img-04f71ab6-106" stroke="#00E5B2" stroke-dasharray="none" class="color_19">
            <path fill="none" d="M-130.3,-16.1 L -124.87 -20.49 -119.44 -11.71 -114.01 -4.39 -108.58 -5.85 -103.15 -0 -97.72 -0 -92.29 -1.46 -86.87 1.46 -81.44 1.46 -76.01 1.46 -70.58 1.46 -65.15 1.46 -59.72 1.46 -54.29 1.46 -48.86 1.46 -43.43 1.46 -38 1.46 -32.57 1.46 -27.15 1.46 -21.72 1.46 -16.29 1.46 -10.86 1.46 -5.43 1.46 0 1.46 5.43 1.46 10.86 1.46 16.29 1.46 21.72 1.46 27.15 1.46 32.57 1.46 38 1.46 43.43 1.46 48.86 1.46 54.29 1.46 59.72 1.46 65.15 1.46 70.58 1.46 76.01 1.46 81.44 1.46 86.87 1.46 92.29 1.46 97.72 1.46 103.15 1.46 108.58 1.46 114.01 1.46 119.44 1.46 124.87 1.46 130.3 1.46" class="primitive"/>
          </g>
          <g transform="translate(156.36,77.25)" id="img-04f71ab6-107" stroke="#FFA9F6" stroke-dasharray="none" class="color_20">
            <path fill="none" d="M-130.3,-1.46 L -124.87 -13.17 -119.44 -4.39 -114.01 -7.32 -108.58 -16.1 -103.15 -8.78 -97.72 -7.32 -92.29 -0 -86.87 -0 -81.44 1.46 -76.01 1.46 -70.58 1.46 -65.15 1.46 -59.72 1.46 -54.29 1.46 -48.86 1.46 -43.43 1.46 -38 1.46 -32.57 1.46 -27.15 1.46 -21.72 1.46 -16.29 1.46 -10.86 1.46 -5.43 1.46 0 1.46 5.43 1.46 10.86 1.46 16.29 1.46 21.72 1.46 27.15 1.46 32.57 1.46 38 1.46 43.43 1.46 48.86 1.46 54.29 1.46 59.72 1.46 65.15 1.46 70.58 1.46 76.01 1.46 81.44 1.46 86.87 1.46 92.29 1.46 97.72 1.46 103.15 1.46 108.58 1.46 114.01 1.46 119.44 1.46 124.87 1.46 130.3 1.46" class="primitive"/>
          </g>
          <g transform="translate(156.36,77.25)" id="img-04f71ab6-108" stroke="#FFAA89" stroke-dasharray="none" class="color_21">
            <path fill="none" d="M-130.3,-23.42 L -124.87 -8.78 -119.44 -14.64 -114.01 -8.78 -108.58 -2.93 -103.15 -2.93 -97.72 -0 -92.29 1.46 -86.87 1.46 -81.44 1.46 -76.01 1.46 -70.58 1.46 -65.15 1.46 -59.72 1.46 -54.29 1.46 -48.86 1.46 -43.43 1.46 -38 1.46 -32.57 1.46 -27.15 1.46 -21.72 1.46 -16.29 1.46 -10.86 1.46 -5.43 1.46 0 1.46 5.43 1.46 10.86 1.46 16.29 1.46 21.72 1.46 27.15 1.46 32.57 1.46 38 1.46 43.43 1.46 48.86 1.46 54.29 1.46 59.72 1.46 65.15 1.46 70.58 1.46 76.01 1.46 81.44 1.46 86.87 1.46 92.29 1.46 97.72 1.46 103.15 1.46 108.58 1.46 114.01 1.46 119.44 1.46 124.87 1.46 130.3 1.46" class="primitive"/>
          </g>
          <g transform="translate(156.36,77.25)" id="img-04f71ab6-109" stroke="#82CAFF" stroke-dasharray="none" class="color_22">
            <path fill="none" d="M-130.3,-29.27 L -124.87 -23.42 -119.44 -8.78 -114.01 -1.46 -108.58 1.46 -103.15 -0 -97.72 1.46 -92.29 -0 -86.87 1.46 -81.44 1.46 -76.01 1.46 -70.58 1.46 -65.15 1.46 -59.72 1.46 -54.29 1.46 -48.86 1.46 -43.43 1.46 -38 1.46 -32.57 1.46 -27.15 1.46 -21.72 1.46 -16.29 1.46 -10.86 1.46 -5.43 1.46 0 1.46 5.43 1.46 10.86 1.46 16.29 1.46 21.72 1.46 27.15 1.46 32.57 1.46 38 1.46 43.43 1.46 48.86 1.46 54.29 1.46 59.72 1.46 65.15 1.46 70.58 1.46 76.01 1.46 81.44 1.46 86.87 1.46 92.29 1.46 97.72 1.46 103.15 1.46 108.58 1.46 114.01 1.46 119.44 1.46 124.87 1.46 130.3 1.46" class="primitive"/>
          </g>
          <g transform="translate(156.36,77.25)" id="img-04f71ab6-110" stroke="#00BBAA" stroke-dasharray="none" class="color_23">
            <path fill="none" d="M-130.3,-24.88 L -124.87 -10.24 -119.44 -13.17 -114.01 -4.39 -108.58 -1.46 -103.15 -1.46 -97.72 -0 -92.29 -2.93 -86.87 -0 -81.44 1.46 -76.01 1.46 -70.58 1.46 -65.15 1.46 -59.72 1.46 -54.29 1.46 -48.86 1.46 -43.43 1.46 -38 1.46 -32.57 1.46 -27.15 1.46 -21.72 1.46 -16.29 1.46 -10.86 1.46 -5.43 1.46 0 1.46 5.43 1.46 10.86 1.46 16.29 1.46 21.72 1.46 27.15 1.46 32.57 1.46 38 1.46 43.43 1.46 48.86 1.46 54.29 1.46 59.72 1.46 65.15 1.46 70.58 1.46 76.01 1.46 81.44 1.46 86.87 1.46 92.29 1.46 97.72 1.46 103.15 1.46 108.58 1.46 114.01 1.46 119.44 1.46 124.87 1.46 130.3 1.46" class="primitive"/>
          </g>
          <g transform="translate(156.36,77.25)" id="img-04f71ab6-111" stroke="#A08CFF" stroke-dasharray="none" class="color_24">
            <path fill="none" d="M-130.3,-10.24 L -124.87 -16.1 -119.44 -23.42 -114.01 -5.85 -108.58 -5.85 -103.15 -0 -97.72 -0 -92.29 1.46 -86.87 1.46 -81.44 1.46 -76.01 1.46 -70.58 1.46 -65.15 1.46 -59.72 1.46 -54.29 1.46 -48.86 1.46 -43.43 1.46 -38 1.46 -32.57 1.46 -27.15 1.46 -21.72 1.46 -16.29 1.46 -10.86 1.46 -5.43 1.46 0 1.46 5.43 1.46 10.86 1.46 16.29 1.46 21.72 1.46 27.15 1.46 32.57 1.46 38 1.46 43.43 1.46 48.86 1.46 54.29 1.46 59.72 1.46 65.15 1.46 70.58 1.46 76.01 1.46 81.44 1.46 86.87 1.46 92.29 1.46 97.72 1.46 103.15 1.46 108.58 1.46 114.01 1.46 119.44 1.46 124.87 1.46 130.3 1.46" class="primitive"/>
          </g>
          <g transform="translate(156.36,77.25)" id="img-04f71ab6-112" stroke="#00D485" stroke-dasharray="none" class="color_25">
            <path fill="none" d="M-130.3,-10.24 L -124.87 -14.64 -119.44 -7.32 -114.01 -7.32 -108.58 -7.32 -103.15 -11.71 -97.72 -0 -92.29 -0 -86.87 -0 -81.44 1.46 -76.01 1.46 -70.58 1.46 -65.15 1.46 -59.72 1.46 -54.29 1.46 -48.86 1.46 -43.43 1.46 -38 1.46 -32.57 1.46 -27.15 1.46 -21.72 1.46 -16.29 1.46 -10.86 1.46 -5.43 1.46 0 1.46 5.43 1.46 10.86 1.46 16.29 1.46 21.72 1.46 27.15 1.46 32.57 1.46 38 1.46 43.43 1.46 48.86 1.46 54.29 1.46 59.72 1.46 65.15 1.46 70.58 1.46 76.01 1.46 81.44 1.46 86.87 1.46 92.29 1.46 97.72 1.46 103.15 1.46 108.58 1.46 114.01 1.46 119.44 1.46 124.87 1.46 130.3 1.46" class="primitive"/>
          </g>
          <g transform="translate(156.36,77.25)" id="img-04f71ab6-113" stroke="#BCCF6F" stroke-dasharray="none" class="color_26">
            <path fill="none" d="M-130.3,-19.03 L -124.87 -19.03 -119.44 -8.78 -114.01 -8.78 -108.58 -7.32 -103.15 -0 -97.72 1.46 -92.29 1.46 -86.87 1.46 -81.44 1.46 -76.01 1.46 -70.58 1.46 -65.15 1.46 -59.72 1.46 -54.29 1.46 -48.86 1.46 -43.43 1.46 -38 1.46 -32.57 1.46 -27.15 1.46 -21.72 1.46 -16.29 1.46 -10.86 1.46 -5.43 1.46 0 1.46 5.43 1.46 10.86 1.46 16.29 1.46 21.72 1.46 27.15 1.46 32.57 1.46 38 1.46 43.43 1.46 48.86 1.46 54.29 1.46 59.72 1.46 65.15 1.46 70.58 1.46 76.01 1.46 81.44 1.46 86.87 1.46 92.29 1.46 97.72 1.46 103.15 1.46 108.58 1.46 114.01 1.46 119.44 1.46 124.87 1.46 130.3 1.46" class="primitive"/>
          </g>
          <g transform="translate(156.36,77.25)" id="img-04f71ab6-114" stroke="#FFA0C8" stroke-dasharray="none" class="color_27">
            <path fill="none" d="M-130.3,-19.03 L -124.87 -17.56 -119.44 -17.56 -114.01 -5.85 -108.58 -1.46 -103.15 -0 -97.72 -0 -92.29 1.46 -86.87 1.46 -81.44 1.46 -76.01 1.46 -70.58 1.46 -65.15 1.46 -59.72 1.46 -54.29 1.46 -48.86 1.46 -43.43 1.46 -38 1.46 -32.57 1.46 -27.15 1.46 -21.72 1.46 -16.29 1.46 -10.86 1.46 -5.43 1.46 0 1.46 5.43 1.46 10.86 1.46 16.29 1.46 21.72 1.46 27.15 1.46 32.57 1.46 38 1.46 43.43 1.46 48.86 1.46 54.29 1.46 59.72 1.46 65.15 1.46 70.58 1.46 76.01 1.46 81.44 1.46 86.87 1.46 92.29 1.46 97.72 1.46 103.15 1.46 108.58 1.46 114.01 1.46 119.44 1.46 124.87 1.46 130.3 1.46" class="primitive"/>
          </g>
          <g transform="translate(156.36,77.25)" id="img-04f71ab6-115" stroke="#FF5F82" stroke-dasharray="none" class="color_28">
            <path fill="none" d="M-130.3,-7.32 L -124.87 -10.24 -119.44 -8.78 -114.01 -7.32 -108.58 -11.71 -103.15 -8.78 -97.72 -1.46 -92.29 -1.46 -86.87 -0 -81.44 -0 -76.01 1.46 -70.58 1.46 -65.15 1.46 -59.72 1.46 -54.29 1.46 -48.86 1.46 -43.43 1.46 -38 1.46 -32.57 1.46 -27.15 1.46 -21.72 1.46 -16.29 1.46 -10.86 1.46 -5.43 1.46 0 1.46 5.43 1.46 10.86 1.46 16.29 1.46 21.72 1.46 27.15 1.46 32.57 1.46 38 1.46 43.43 1.46 48.86 1.46 54.29 1.46 59.72 1.46 65.15 1.46 70.58 1.46 76.01 1.46 81.44 1.46 86.87 1.46 92.29 1.46 97.72 1.46 103.15 1.46 108.58 1.46 114.01 1.46 119.44 1.46 124.87 1.46 130.3 1.46" class="primitive"/>
          </g>
          <g transform="translate(156.36,77.25)" id="img-04f71ab6-116" stroke="#C483E9" stroke-dasharray="none" class="color_29">
            <path fill="none" d="M-130.3,1.46 L -124.87 1.46 -119.44 -0 -114.01 -10.24 -108.58 -5.85 -103.15 -10.24 -97.72 -14.64 -92.29 -11.71 -86.87 -4.39 -81.44 -2.93 -76.01 1.46 -70.58 1.46 -65.15 1.46 -59.72 1.46 -54.29 1.46 -48.86 1.46 -43.43 1.46 -38 1.46 -32.57 1.46 -27.15 1.46 -21.72 1.46 -16.29 1.46 -10.86 1.46 -5.43 1.46 0 1.46 5.43 1.46 10.86 1.46 16.29 1.46 21.72 1.46 27.15 1.46 32.57 1.46 38 1.46 43.43 1.46 48.86 1.46 54.29 1.46 59.72 1.46 65.15 1.46 70.58 1.46 76.01 1.46 81.44 1.46 86.87 1.46 92.29 1.46 97.72 1.46 103.15 1.46 108.58 1.46 114.01 1.46 119.44 1.46 124.87 1.46 130.3 1.46" class="primitive"/>
          </g>
        </g>
      </g>
    </g>
  </g>
  <g class="guide ylabels" font-size="2.82" font-family="'PT Sans Caption','Helvetica Neue','Helvetica',sans-serif" fill="#6C606B" id="img-04f71ab6-117">
    <g transform="translate(17.63,78.71)" id="img-04f71ab6-118">
      <g class="primitive">
        <text text-anchor="end" dy="0.35em">0.0</text>
      </g>
    </g>
    <g transform="translate(17.63,42.86)" id="img-04f71ab6-119">
      <g class="primitive">
        <text text-anchor="end" dy="0.35em">0.5</text>
      </g>
    </g>
    <g transform="translate(17.63,7)" id="img-04f71ab6-120">
      <g class="primitive">
        <text text-anchor="end" dy="0.35em">1.0</text>
      </g>
    </g>
  </g>
  <g font-size="3.88" font-family="'PT Sans','Helvetica Neue','Helvetica',sans-serif" fill="#564A55" stroke="#000000" stroke-opacity="0.000" id="img-04f71ab6-121">
    <g transform="translate(8.81,40.86)" id="img-04f71ab6-122">
      <g class="primitive">
        <text text-anchor="middle" dy="0.35em" transform="rotate(-90,0, 2)">Frequencia</text>
      </g>
    </g>
  </g>
</g>
<defs>
  <clipPath id="img-04f71ab6-71">
    <path d="M18.63,5 L 131.21 5 131.21 80.72 18.63 80.72" />
  </clipPath>
</defs>
</svg>
