<?xml version="1.0" encoding="UTF-8"?>
<svg xmlns="http://www.w3.org/2000/svg"
     xmlns:xlink="http://www.w3.org/1999/xlink"
     xmlns:gadfly="http://www.gadflyjl.org/ns"
     version="1.2"
     width="150mm" height="100mm" viewBox="0 0 150 100"
     stroke="none"
     fill="#000000"
     stroke-width="0.3"
     font-size="3.88"
>
<defs>
  <marker id="arrow" markerWidth="15" markerHeight="7" refX="5" refY="3.5" orient="auto" markerUnits="strokeWidth">
    <path d="M0,0 L15,3.5 L0,7 z" stroke="context-stroke" fill="context-stroke"/>
  </marker>
</defs>
<g class="plotroot xscalable yscalable" id="img-553874b3-1">
  <g font-size="3.88" font-family="'PT Sans','Helvetica Neue','Helvetica',sans-serif" fill="#564A55" stroke="#000000" stroke-opacity="0.000" id="img-553874b3-2">
    <g transform="translate(76.59,88.39)">
      <g class="primitive">
        <text text-anchor="middle" dy="0.6em">Appearence</text>
      </g>
    </g>
  </g>
  <g class="guide xlabels" font-size="2.82" font-family="'PT Sans Caption','Helvetica Neue','Helvetica',sans-serif" fill="#6C606B" id="img-553874b3-3">
    <g transform="translate(22.3,81.72)">
      <g class="primitive">
        <text text-anchor="middle" dy="0.6em">0.0</text>
      </g>
    </g>
    <g transform="translate(76.59,81.72)">
      <g class="primitive">
        <text text-anchor="middle" dy="0.6em">0.5</text>
      </g>
    </g>
    <g transform="translate(130.88,81.72)">
      <g class="primitive">
        <text text-anchor="middle" dy="0.6em">1.0</text>
      </g>
    </g>
  </g>
  <g class="guide colorkey" id="img-553874b3-4">
    <g fill="#4C404B" font-size="2.82" font-family="'PT Sans','Helvetica Neue','Helvetica',sans-serif" id="img-553874b3-5">
      <g transform="translate(136.69,37.42)" id="img-553874b3-6" class="color_0.005">
        <g class="primitive">
          <text dy="0.35em">0.005</text>
        </g>
      </g>
      <g transform="translate(136.69,41.04)" id="img-553874b3-7" class="color_0.0075">
        <g class="primitive">
          <text dy="0.35em">0.0075</text>
        </g>
      </g>
      <g transform="translate(136.69,44.67)" id="img-553874b3-8" class="color_0.01">
        <g class="primitive">
          <text dy="0.35em">0.01</text>
        </g>
      </g>
      <g transform="translate(136.69,48.3)" id="img-553874b3-9" class="color_0.025">
        <g class="primitive">
          <text dy="0.35em">0.025</text>
        </g>
      </g>
      <g transform="translate(136.69,51.92)" id="img-553874b3-10" class="color_0.05">
        <g class="primitive">
          <text dy="0.35em">0.05</text>
        </g>
      </g>
    </g>
    <g stroke="#000000" stroke-opacity="0.000" id="img-553874b3-11">
      <g transform="translate(134.79,37.42)" id="img-553874b3-12" fill="#00BFFF" class="color_0.005">
        <path d="M-0.91,-0.91 L 0.91 -0.91 0.91 0.91 -0.91 0.91 z" class="primitive"/>
      </g>
      <g transform="translate(134.79,41.04)" id="img-553874b3-13" fill="#D4CA3A" class="color_0.0075">
        <path d="M-0.91,-0.91 L 0.91 -0.91 0.91 0.91 -0.91 0.91 z" class="primitive"/>
      </g>
      <g transform="translate(134.79,44.67)" id="img-553874b3-14" fill="#FF6DAE" class="color_0.01">
        <path d="M-0.91,-0.91 L 0.91 -0.91 0.91 0.91 -0.91 0.91 z" class="primitive"/>
      </g>
      <g transform="translate(134.79,48.3)" id="img-553874b3-15" fill="#00B78D" class="color_0.025">
        <path d="M-0.91,-0.91 L 0.91 -0.91 0.91 0.91 -0.91 0.91 z" class="primitive"/>
      </g>
      <g transform="translate(134.79,51.92)" id="img-553874b3-16" fill="#BEA9FF" class="color_0.05">
        <path d="M-0.91,-0.91 L 0.91 -0.91 0.91 0.91 -0.91 0.91 z" class="primitive"/>
      </g>
    </g>
    <g fill="#362A35" font-size="3.88" font-family="'PT Sans','Helvetica Neue','Helvetica',sans-serif" stroke="#000000" stroke-opacity="0.000" id="img-553874b3-17">
      <g transform="translate(133.88,33.6)" id="img-553874b3-18">
        <g class="primitive">
          <text>o</text>
        </g>
      </g>
    </g>
  </g>
  <g clip-path="url(#img-553874b3-19)">
    <g id="img-553874b3-20">
      <g pointer-events="visible" fill="#000000" fill-opacity="0.000" stroke="#000000" stroke-opacity="0.000" class="guide background" id="img-553874b3-21">
        <g transform="translate(76.59,42.86)" id="img-553874b3-22">
          <path d="M-56.29,-37.86 L 56.29 -37.86 56.29 37.86 -56.29 37.86 z" class="primitive"/>
        </g>
      </g>
      <g class="guide ygridlines xfixed" stroke-dasharray="0.5,0.5" stroke-width="0.2" stroke="#D0D0E0" id="img-553874b3-23">
        <g transform="translate(76.59,78.72)" id="img-553874b3-24">
          <path fill="none" d="M-56.29,0 L 56.29 0" class="primitive"/>
        </g>
        <g transform="translate(76.59,60.79)" id="img-553874b3-25">
          <path fill="none" d="M-56.29,0 L 56.29 0" class="primitive"/>
        </g>
        <g transform="translate(76.59,42.86)" id="img-553874b3-26">
          <path fill="none" d="M-56.29,0 L 56.29 0" class="primitive"/>
        </g>
        <g transform="translate(76.59,24.93)" id="img-553874b3-27">
          <path fill="none" d="M-56.29,0 L 56.29 0" class="primitive"/>
        </g>
        <g transform="translate(76.59,7)" id="img-553874b3-28">
          <path fill="none" d="M-56.29,0 L 56.29 0" class="primitive"/>
        </g>
      </g>
      <g class="guide xgridlines yfixed" stroke-dasharray="0.5,0.5" stroke-width="0.2" stroke="#D0D0E0" id="img-553874b3-29">
        <g transform="translate(22.3,42.86)" id="img-553874b3-30">
          <path fill="none" d="M0,-37.86 L 0 37.86" class="primitive"/>
        </g>
        <g transform="translate(76.59,42.86)" id="img-553874b3-31">
          <path fill="none" d="M0,-37.86 L 0 37.86" class="primitive"/>
        </g>
        <g transform="translate(130.88,42.86)" id="img-553874b3-32">
          <path fill="none" d="M0,-37.86 L 0 37.86" class="primitive"/>
        </g>
      </g>
      <g class="plotpanel" id="img-553874b3-33">
        <metadata>
          <boundingbox value="20.304999999999993mm 5.0mm 112.575mm 75.715mm"/>
          <unitbox value="-0.018420446695832378 0.2055776336889075 1.0368408933916649 -0.21115526737781498"/>
        </metadata>
        <g stroke-width="0.3" fill="#000000" fill-opacity="0.000" class="geometry" id="img-553874b3-34">
          <g transform="translate(76.59,60.79)" id="img-553874b3-35" stroke="#00BFFF" stroke-dasharray="none" class="color_0.005">
            <path fill="none" d="M-51.57,17.93 L -46.14 17.83 -40.72 17.78 -35.29 17.05 -29.86 15.24 -24.43 11.07 -19 -0.06 -13.57 -15.25 -8.14 -40.45 -2.71 -46.33 2.71 -44.7 8.14 -29.8 13.57 -15.32 19 -1.93 24.43 10.75 29.86 15.73 35.29 16.94 40.72 17.7 46.14 17.9 51.57 17.91" class="primitive"/>
          </g>
          <g transform="translate(76.59,60.79)" id="img-553874b3-36" stroke="#D4CA3A" stroke-dasharray="none" class="color_0.0075">
            <path fill="none" d="M-51.57,17.93 L -46.14 17.91 -40.72 17.73 -35.29 17.26 -29.86 15.32 -24.43 9.27 -19 0.61 -13.57 -15.4 -8.14 -37.57 -2.71 -40.8 2.71 -48.93 8.14 -35.77 13.57 -16.9 19 1.79 24.43 11.55 29.86 15.53 35.29 17.01 40.72 17.67 46.14 17.88 51.57 17.93" class="primitive"/>
          </g>
          <g transform="translate(76.59,60.79)" id="img-553874b3-37" stroke="#FF6DAE" stroke-dasharray="none" class="color_0.01">
            <path fill="none" d="M-51.57,17.93 L -46.14 17.9 -40.72 17.67 -35.29 17.14 -29.86 15.27 -24.43 11.07 -19 -0.46 -13.57 -16.64 -8.14 -35.67 -2.71 -50.43 2.71 -42.17 8.14 -34.34 13.57 -13.04 19 -0.26 24.43 10.01 29.86 15.46 35.29 16.98 40.72 17.75 46.14 17.89 51.57 17.93" class="primitive"/>
          </g>
          <g transform="translate(76.59,60.79)" id="img-553874b3-38" stroke="#00B78D" stroke-dasharray="none" class="color_0.025">
            <path fill="none" d="M-51.57,17.93 L -46.14 17.89 -40.72 17.73 -35.29 17.19 -29.86 14.9 -24.43 9.33 -19 2.05 -13.57 -14.64 -8.14 -36.33 -2.71 -47.03 2.71 -46.53 8.14 -31.54 13.57 -16.47 19 0.65 24.43 9.67 29.86 14.7 35.29 16.89 40.72 17.78 46.14 17.91 51.57 17.93" class="primitive"/>
          </g>
          <g transform="translate(76.59,60.79)" id="img-553874b3-39" stroke="#BEA9FF" stroke-dasharray="none" class="color_0.05">
            <path fill="none" d="M-51.57,17.88 L -46.14 17.85 -40.72 17.71 -35.29 16.87 -29.86 14.8 -24.43 9.46 -19 -0.92 -13.57 -14.71 -8.14 -31.21 -2.71 -46.24 2.71 -49.91 8.14 -28.75 13.57 -17.13 19 -0.86 24.43 9.39 29.86 15.29 35.29 16.98 40.72 17.71 46.14 17.86 51.57 17.91" class="primitive"/>
          </g>
        </g>
      </g>
    </g>
  </g>
  <g class="guide ylabels" font-size="2.82" font-family="'PT Sans Caption','Helvetica Neue','Helvetica',sans-serif" fill="#6C606B" id="img-553874b3-40">
    <g transform="translate(19.3,78.72)" id="img-553874b3-41">
      <g class="primitive">
        <text text-anchor="end" dy="0.35em">0.00</text>
      </g>
    </g>
    <g transform="translate(19.3,60.79)" id="img-553874b3-42">
      <g class="primitive">
        <text text-anchor="end" dy="0.35em">0.05</text>
      </g>
    </g>
    <g transform="translate(19.3,42.86)" id="img-553874b3-43">
      <g class="primitive">
        <text text-anchor="end" dy="0.35em">0.10</text>
      </g>
    </g>
    <g transform="translate(19.3,24.93)" id="img-553874b3-44">
      <g class="primitive">
        <text text-anchor="end" dy="0.35em">0.15</text>
      </g>
    </g>
    <g transform="translate(19.3,7)" id="img-553874b3-45">
      <g class="primitive">
        <text text-anchor="end" dy="0.35em">0.20</text>
      </g>
    </g>
  </g>
  <g font-size="3.88" font-family="'PT Sans','Helvetica Neue','Helvetica',sans-serif" fill="#564A55" stroke="#000000" stroke-opacity="0.000" id="img-553874b3-46">
    <g transform="translate(8.81,40.86)" id="img-553874b3-47">
      <g class="primitive">
        <text text-anchor="middle" dy="0.35em" transform="rotate(-90,0, 2)">Frequencia</text>
      </g>
    </g>
  </g>
</g>
<defs>
  <clipPath id="img-553874b3-19">
    <path d="M20.3,5 L 132.88 5 132.88 80.72 20.3 80.72" />
  </clipPath>
</defs>
</svg>
