<?xml version="1.0" encoding="UTF-8"?>
<svg xmlns="http://www.w3.org/2000/svg"
     xmlns:xlink="http://www.w3.org/1999/xlink"
     xmlns:gadfly="http://www.gadflyjl.org/ns"
     version="1.2"
     width="150mm" height="100mm" viewBox="0 0 150 100"
     stroke="none"
     fill="#000000"
     stroke-width="0.3"
     font-size="3.88"
>
<defs>
  <marker id="arrow" markerWidth="15" markerHeight="7" refX="5" refY="3.5" orient="auto" markerUnits="strokeWidth">
    <path d="M0,0 L15,3.5 L0,7 z" stroke="context-stroke" fill="context-stroke"/>
  </marker>
</defs>
<g class="plotroot xscalable yscalable" id="img-a871c117-1">
  <g font-size="3.88" font-family="'PT Sans','Helvetica Neue','Helvetica',sans-serif" fill="#564A55" stroke="#000000" stroke-opacity="0.000" id="img-a871c117-2">
    <g transform="translate(78.44,88.39)">
      <g class="primitive">
        <text text-anchor="middle" dy="0.6em">Fitness</text>
      </g>
    </g>
  </g>
  <g class="guide xlabels" font-size="2.82" font-family="'PT Sans Caption','Helvetica Neue','Helvetica',sans-serif" fill="#6C606B" id="img-a871c117-3">
    <g transform="translate(22.3,81.72)">
      <g class="primitive">
        <text text-anchor="middle" dy="0.6em">0.0</text>
      </g>
    </g>
    <g transform="translate(78.44,81.72)">
      <g class="primitive">
        <text text-anchor="middle" dy="0.6em">0.5</text>
      </g>
    </g>
    <g transform="translate(134.57,81.72)">
      <g class="primitive">
        <text text-anchor="middle" dy="0.6em">1.0</text>
      </g>
    </g>
  </g>
  <g class="guide colorkey" id="img-a871c117-4">
    <g fill="#4C404B" font-size="2.82" font-family="'PT Sans','Helvetica Neue','Helvetica',sans-serif" id="img-a871c117-5">
      <g transform="translate(140.38,37.42)" id="img-a871c117-6" class="color_10">
        <g class="primitive">
          <text dy="0.35em">10</text>
        </g>
      </g>
      <g transform="translate(140.38,41.04)" id="img-a871c117-7" class="color_25">
        <g class="primitive">
          <text dy="0.35em">25</text>
        </g>
      </g>
      <g transform="translate(140.38,44.67)" id="img-a871c117-8" class="color_50">
        <g class="primitive">
          <text dy="0.35em">50</text>
        </g>
      </g>
      <g transform="translate(140.38,48.3)" id="img-a871c117-9" class="color_75">
        <g class="primitive">
          <text dy="0.35em">75</text>
        </g>
      </g>
      <g transform="translate(140.38,51.92)" id="img-a871c117-10" class="color_100">
        <g class="primitive">
          <text dy="0.35em">100</text>
        </g>
      </g>
    </g>
    <g stroke="#000000" stroke-opacity="0.000" id="img-a871c117-11">
      <g transform="translate(138.47,37.42)" id="img-a871c117-12" fill="#00BFFF" class="color_10">
        <path d="M-0.91,-0.91 L 0.91 -0.91 0.91 0.91 -0.91 0.91 z" class="primitive"/>
      </g>
      <g transform="translate(138.47,41.04)" id="img-a871c117-13" fill="#D4CA3A" class="color_25">
        <path d="M-0.91,-0.91 L 0.91 -0.91 0.91 0.91 -0.91 0.91 z" class="primitive"/>
      </g>
      <g transform="translate(138.47,44.67)" id="img-a871c117-14" fill="#FF6DAE" class="color_50">
        <path d="M-0.91,-0.91 L 0.91 -0.91 0.91 0.91 -0.91 0.91 z" class="primitive"/>
      </g>
      <g transform="translate(138.47,48.3)" id="img-a871c117-15" fill="#00B78D" class="color_75">
        <path d="M-0.91,-0.91 L 0.91 -0.91 0.91 0.91 -0.91 0.91 z" class="primitive"/>
      </g>
      <g transform="translate(138.47,51.92)" id="img-a871c117-16" fill="#BEA9FF" class="color_100">
        <path d="M-0.91,-0.91 L 0.91 -0.91 0.91 0.91 -0.91 0.91 z" class="primitive"/>
      </g>
    </g>
    <g fill="#362A35" font-size="3.88" font-family="'PT Sans','Helvetica Neue','Helvetica',sans-serif" stroke="#000000" stroke-opacity="0.000" id="img-a871c117-17">
      <g transform="translate(137.57,33.6)" id="img-a871c117-18">
        <g class="primitive">
          <text>v</text>
        </g>
      </g>
    </g>
  </g>
  <g clip-path="url(#img-a871c117-19)">
    <g id="img-a871c117-20">
      <g pointer-events="visible" fill="#000000" fill-opacity="0.000" stroke="#000000" stroke-opacity="0.000" class="guide background" id="img-a871c117-21">
        <g transform="translate(78.44,42.86)" id="img-a871c117-22">
          <path d="M-58.13,-37.86 L 58.13 -37.86 58.13 37.86 -58.13 37.86 z" class="primitive"/>
        </g>
      </g>
      <g class="guide ygridlines xfixed" stroke-dasharray="0.5,0.5" stroke-width="0.2" stroke="#D0D0E0" id="img-a871c117-23">
        <g transform="translate(78.44,78.72)" id="img-a871c117-24">
          <path fill="none" d="M-58.13,0 L 58.13 0" class="primitive"/>
        </g>
        <g transform="translate(78.44,60.79)" id="img-a871c117-25">
          <path fill="none" d="M-58.13,0 L 58.13 0" class="primitive"/>
        </g>
        <g transform="translate(78.44,42.86)" id="img-a871c117-26">
          <path fill="none" d="M-58.13,0 L 58.13 0" class="primitive"/>
        </g>
        <g transform="translate(78.44,24.93)" id="img-a871c117-27">
          <path fill="none" d="M-58.13,0 L 58.13 0" class="primitive"/>
        </g>
        <g transform="translate(78.44,7)" id="img-a871c117-28">
          <path fill="none" d="M-58.13,0 L 58.13 0" class="primitive"/>
        </g>
      </g>
      <g class="guide xgridlines yfixed" stroke-dasharray="0.5,0.5" stroke-width="0.2" stroke="#D0D0E0" id="img-a871c117-29">
        <g transform="translate(22.3,42.86)" id="img-a871c117-30">
          <path fill="none" d="M0,-37.86 L 0 37.86" class="primitive"/>
        </g>
        <g transform="translate(78.44,42.86)" id="img-a871c117-31">
          <path fill="none" d="M0,-37.86 L 0 37.86" class="primitive"/>
        </g>
        <g transform="translate(134.57,42.86)" id="img-a871c117-32">
          <path fill="none" d="M0,-37.86 L 0 37.86" class="primitive"/>
        </g>
      </g>
      <g class="plotpanel" id="img-a871c117-33">
        <metadata>
          <boundingbox value="20.304999999999993mm 5.0mm 116.26166666666667mm 75.715mm"/>
          <unitbox value="-0.017815520287423725 0.2055776336889075 1.0356310405748475 -0.21115526737781498"/>
        </metadata>
        <g stroke-width="0.3" fill="#000000" fill-opacity="0.000" class="geometry" id="img-a871c117-34">
          <g transform="translate(78.44,60.79)" id="img-a871c117-35" stroke="#00BFFF" stroke-dasharray="none" class="color_10">
            <path fill="none" d="M-53.32,-4.54 L -47.71 -11.86 -42.1 -11.56 -36.49 -5.37 -30.87 0.21 -25.26 -12.87 -19.65 -15.74 -14.03 -12.2 -8.42 -16.09 -2.81 -19.12 2.81 -13.35 8.42 -7.25 14.03 5.95 19.65 16.21 25.26 17.93 30.87 17.93 36.49 17.93 42.1 17.93 47.71 17.93 53.32 17.93" class="primitive"/>
          </g>
          <g transform="translate(78.44,60.79)" id="img-a871c117-36" stroke="#D4CA3A" stroke-dasharray="none" class="color_25">
            <path fill="none" d="M-53.32,-0.5 L -47.71 -10.61 -42.1 -10.47 -36.49 -6.72 -30.87 -13.97 -25.26 -5.42 -19.65 -12.87 -14.03 -13.94 -8.42 -19.05 -2.81 -14.67 2.81 -11.74 8.42 -7.13 14.03 4.52 19.65 14.99 25.26 17.93 30.87 17.93 36.49 17.93 42.1 17.93 47.71 17.93 53.32 17.93" class="primitive"/>
          </g>
          <g transform="translate(78.44,60.79)" id="img-a871c117-37" stroke="#FF6DAE" stroke-dasharray="none" class="color_50">
            <path fill="none" d="M-53.32,-3.93 L -47.71 -10.48 -42.1 -2.72 -36.49 -0.82 -30.87 -1.39 -25.26 -4.11 -19.65 -10.87 -14.03 -14.52 -8.42 -19.5 -2.81 -18.22 2.81 -23.32 8.42 -15.54 14.03 2.65 19.65 15.19 25.26 17.93 30.87 17.93 36.49 17.93 42.1 17.93 47.71 17.93 53.32 17.93" class="primitive"/>
          </g>
          <g transform="translate(78.44,60.79)" id="img-a871c117-38" stroke="#00B78D" stroke-dasharray="none" class="color_75">
            <path fill="none" d="M-53.32,-6.53 L -47.71 -2.1 -42.1 0.05 -36.49 -2.84 -30.87 -7.46 -25.26 -10.6 -19.65 -10.07 -14.03 -12.87 -8.42 -19.45 -2.81 -20.43 2.81 -15.77 8.42 -11.19 14.03 -1.05 19.65 12.73 25.26 17.93 30.87 17.93 36.49 17.93 42.1 17.93 47.71 17.93 53.32 17.93" class="primitive"/>
          </g>
          <g transform="translate(78.44,60.79)" id="img-a871c117-39" stroke="#BEA9FF" stroke-dasharray="none" class="color_100">
            <path fill="none" d="M-53.32,-7.99 L -47.71 -1.01 -42.1 -1.28 -36.49 -2.4 -30.87 -8.96 -25.26 -9.26 -19.65 -14.36 -14.03 -14.63 -8.42 -18.75 -2.81 -22.38 2.81 -16.53 8.42 -8.07 14.03 3.01 19.65 15.36 25.26 17.62 30.87 17.93 36.49 17.93 42.1 17.93 47.71 17.93 53.32 17.93" class="primitive"/>
          </g>
        </g>
      </g>
    </g>
  </g>
  <g class="guide ylabels" font-size="2.82" font-family="'PT Sans Caption','Helvetica Neue','Helvetica',sans-serif" fill="#6C606B" id="img-a871c117-40">
    <g transform="translate(19.3,78.72)" id="img-a871c117-41">
      <g class="primitive">
        <text text-anchor="end" dy="0.35em">0.00</text>
      </g>
    </g>
    <g transform="translate(19.3,60.79)" id="img-a871c117-42">
      <g class="primitive">
        <text text-anchor="end" dy="0.35em">0.05</text>
      </g>
    </g>
    <g transform="translate(19.3,42.86)" id="img-a871c117-43">
      <g class="primitive">
        <text text-anchor="end" dy="0.35em">0.10</text>
      </g>
    </g>
    <g transform="translate(19.3,24.93)" id="img-a871c117-44">
      <g class="primitive">
        <text text-anchor="end" dy="0.35em">0.15</text>
      </g>
    </g>
    <g transform="translate(19.3,7)" id="img-a871c117-45">
      <g class="primitive">
        <text text-anchor="end" dy="0.35em">0.20</text>
      </g>
    </g>
  </g>
  <g font-size="3.88" font-family="'PT Sans','Helvetica Neue','Helvetica',sans-serif" fill="#564A55" stroke="#000000" stroke-opacity="0.000" id="img-a871c117-46">
    <g transform="translate(8.81,40.86)" id="img-a871c117-47">
      <g class="primitive">
        <text text-anchor="middle" dy="0.35em" transform="rotate(-90,0, 2)">Frequencia</text>
      </g>
    </g>
  </g>
</g>
<defs>
  <clipPath id="img-a871c117-19">
    <path d="M20.3,5 L 136.57 5 136.57 80.72 20.3 80.72" />
  </clipPath>
</defs>
</svg>
