<?xml version="1.0" encoding="UTF-8"?>
<svg xmlns="http://www.w3.org/2000/svg"
     xmlns:xlink="http://www.w3.org/1999/xlink"
     xmlns:gadfly="http://www.gadflyjl.org/ns"
     version="1.2"
     width="150mm" height="100mm" viewBox="0 0 150 100"
     stroke="none"
     fill="#000000"
     stroke-width="0.3"
     font-size="3.88"
>
<defs>
  <marker id="arrow" markerWidth="15" markerHeight="7" refX="5" refY="3.5" orient="auto" markerUnits="strokeWidth">
    <path d="M0,0 L15,3.5 L0,7 z" stroke="context-stroke" fill="context-stroke"/>
  </marker>
</defs>
<g class="plotroot xscalable yscalable" id="img-a5273dc0-1">
  <g font-size="3.88" font-family="'PT Sans','Helvetica Neue','Helvetica',sans-serif" fill="#564A55" stroke="#000000" stroke-opacity="0.000" id="img-a5273dc0-2">
    <g transform="translate(78.44,88.39)">
      <g class="primitive">
        <text text-anchor="middle" dy="0.6em">Fitness</text>
      </g>
    </g>
  </g>
  <g class="guide xlabels" font-size="2.82" font-family="'PT Sans Caption','Helvetica Neue','Helvetica',sans-serif" fill="#6C606B" id="img-a5273dc0-3">
    <g transform="translate(22.3,81.72)">
      <g class="primitive">
        <text text-anchor="middle" dy="0.6em">0.0</text>
      </g>
    </g>
    <g transform="translate(78.44,81.72)">
      <g class="primitive">
        <text text-anchor="middle" dy="0.6em">0.5</text>
      </g>
    </g>
    <g transform="translate(134.57,81.72)">
      <g class="primitive">
        <text text-anchor="middle" dy="0.6em">1.0</text>
      </g>
    </g>
  </g>
  <g class="guide colorkey" id="img-a5273dc0-4">
    <g fill="#4C404B" font-size="2.82" font-family="'PT Sans','Helvetica Neue','Helvetica',sans-serif" id="img-a5273dc0-5">
      <g transform="translate(140.38,35.6)" id="img-a5273dc0-6" class="color_25">
        <g class="primitive">
          <text dy="0.35em">25</text>
        </g>
      </g>
      <g transform="translate(140.38,39.23)" id="img-a5273dc0-7" class="color_36">
        <g class="primitive">
          <text dy="0.35em">36</text>
        </g>
      </g>
      <g transform="translate(140.38,42.86)" id="img-a5273dc0-8" class="color_49">
        <g class="primitive">
          <text dy="0.35em">49</text>
        </g>
      </g>
      <g transform="translate(140.38,46.48)" id="img-a5273dc0-9" class="color_64">
        <g class="primitive">
          <text dy="0.35em">64</text>
        </g>
      </g>
      <g transform="translate(140.38,50.11)" id="img-a5273dc0-10" class="color_81">
        <g class="primitive">
          <text dy="0.35em">81</text>
        </g>
      </g>
      <g transform="translate(140.38,53.74)" id="img-a5273dc0-11" class="color_100">
        <g class="primitive">
          <text dy="0.35em">100</text>
        </g>
      </g>
    </g>
    <g stroke="#000000" stroke-opacity="0.000" id="img-a5273dc0-12">
      <g transform="translate(138.47,35.6)" id="img-a5273dc0-13" fill="#00BFFF" class="color_25">
        <path d="M-0.91,-0.91 L 0.91 -0.91 0.91 0.91 -0.91 0.91 z" class="primitive"/>
      </g>
      <g transform="translate(138.47,39.23)" id="img-a5273dc0-14" fill="#D4CA3A" class="color_36">
        <path d="M-0.91,-0.91 L 0.91 -0.91 0.91 0.91 -0.91 0.91 z" class="primitive"/>
      </g>
      <g transform="translate(138.47,42.86)" id="img-a5273dc0-15" fill="#FF6DAE" class="color_49">
        <path d="M-0.91,-0.91 L 0.91 -0.91 0.91 0.91 -0.91 0.91 z" class="primitive"/>
      </g>
      <g transform="translate(138.47,46.48)" id="img-a5273dc0-16" fill="#00B78D" class="color_64">
        <path d="M-0.91,-0.91 L 0.91 -0.91 0.91 0.91 -0.91 0.91 z" class="primitive"/>
      </g>
      <g transform="translate(138.47,50.11)" id="img-a5273dc0-17" fill="#BEA9FF" class="color_81">
        <path d="M-0.91,-0.91 L 0.91 -0.91 0.91 0.91 -0.91 0.91 z" class="primitive"/>
      </g>
      <g transform="translate(138.47,53.74)" id="img-a5273dc0-18" fill="#FF6765" class="color_100">
        <path d="M-0.91,-0.91 L 0.91 -0.91 0.91 0.91 -0.91 0.91 z" class="primitive"/>
      </g>
    </g>
    <g fill="#362A35" font-size="3.88" font-family="'PT Sans','Helvetica Neue','Helvetica',sans-serif" stroke="#000000" stroke-opacity="0.000" id="img-a5273dc0-19">
      <g transform="translate(137.57,31.78)" id="img-a5273dc0-20">
        <g class="primitive">
          <text>L</text>
        </g>
      </g>
    </g>
  </g>
  <g clip-path="url(#img-a5273dc0-21)">
    <g id="img-a5273dc0-22">
      <g pointer-events="visible" fill="#000000" fill-opacity="0.000" stroke="#000000" stroke-opacity="0.000" class="guide background" id="img-a5273dc0-23">
        <g transform="translate(78.44,42.86)" id="img-a5273dc0-24">
          <path d="M-58.13,-37.86 L 58.13 -37.86 58.13 37.86 -58.13 37.86 z" class="primitive"/>
        </g>
      </g>
      <g class="guide ygridlines xfixed" stroke-dasharray="0.5,0.5" stroke-width="0.2" stroke="#D0D0E0" id="img-a5273dc0-25">
        <g transform="translate(78.44,78.72)" id="img-a5273dc0-26">
          <path fill="none" d="M-58.13,0 L 58.13 0" class="primitive"/>
        </g>
        <g transform="translate(78.44,60.79)" id="img-a5273dc0-27">
          <path fill="none" d="M-58.13,0 L 58.13 0" class="primitive"/>
        </g>
        <g transform="translate(78.44,42.86)" id="img-a5273dc0-28">
          <path fill="none" d="M-58.13,0 L 58.13 0" class="primitive"/>
        </g>
        <g transform="translate(78.44,24.93)" id="img-a5273dc0-29">
          <path fill="none" d="M-58.13,0 L 58.13 0" class="primitive"/>
        </g>
        <g transform="translate(78.44,7)" id="img-a5273dc0-30">
          <path fill="none" d="M-58.13,0 L 58.13 0" class="primitive"/>
        </g>
      </g>
      <g class="guide xgridlines yfixed" stroke-dasharray="0.5,0.5" stroke-width="0.2" stroke="#D0D0E0" id="img-a5273dc0-31">
        <g transform="translate(22.3,42.86)" id="img-a5273dc0-32">
          <path fill="none" d="M0,-37.86 L 0 37.86" class="primitive"/>
        </g>
        <g transform="translate(78.44,42.86)" id="img-a5273dc0-33">
          <path fill="none" d="M0,-37.86 L 0 37.86" class="primitive"/>
        </g>
        <g transform="translate(134.57,42.86)" id="img-a5273dc0-34">
          <path fill="none" d="M0,-37.86 L 0 37.86" class="primitive"/>
        </g>
      </g>
      <g class="plotpanel" id="img-a5273dc0-35">
        <metadata>
          <boundingbox value="20.304999999999993mm 5.0mm 116.26166666666667mm 75.715mm"/>
          <unitbox value="-0.017815520287423725 0.2055776336889075 1.0356310405748475 -0.21115526737781498"/>
        </metadata>
        <g stroke-width="0.3" fill="#000000" fill-opacity="0.000" class="geometry" id="img-a5273dc0-36">
          <g transform="translate(78.44,60.79)" id="img-a5273dc0-37" stroke="#00BFFF" stroke-dasharray="none" class="color_25">
            <path fill="none" d="M-53.32,-8.46 L -47.71 1.52 -42.1 -3.35 -36.49 -10.25 -30.87 -11.97 -25.26 -11 -19.65 -20.26 -14.03 -14.45 -8.42 -12.64 -2.81 -14.14 2.81 -14.34 8.42 -9.02 14.03 4.15 19.65 16.66 25.26 17.93 30.87 17.93 36.49 17.93 42.1 17.93 47.71 17.93 53.32 17.93" class="primitive"/>
          </g>
          <g transform="translate(78.44,60.79)" id="img-a5273dc0-38" stroke="#D4CA3A" stroke-dasharray="none" class="color_36">
            <path fill="none" d="M-53.32,-9.47 L -47.71 -2.65 -42.1 -0.85 -36.49 -6.32 -30.87 -8.46 -25.26 -7.94 -19.65 -7.27 -14.03 -15.33 -8.42 -18.99 -2.81 -20.88 2.81 -16.93 8.42 -9.28 14.03 0.77 19.65 16.05 25.26 17.93 30.87 17.93 36.49 17.93 42.1 17.93 47.71 17.93 53.32 17.93" class="primitive"/>
          </g>
          <g transform="translate(78.44,60.79)" id="img-a5273dc0-39" stroke="#FF6DAE" stroke-dasharray="none" class="color_49">
            <path fill="none" d="M-53.32,-2.76 L -47.71 -1.8 -42.1 -2.47 -36.49 -4.22 -30.87 -9.93 -25.26 -9.19 -19.65 -6.14 -14.03 -14.65 -8.42 -18.09 -2.81 -22.04 2.81 -20.4 8.42 -11.56 14.03 0.59 19.65 15.09 25.26 17.93 30.87 17.93 36.49 17.93 42.1 17.93 47.71 17.93 53.32 17.93" class="primitive"/>
          </g>
          <g transform="translate(78.44,60.79)" id="img-a5273dc0-40" stroke="#00B78D" stroke-dasharray="none" class="color_64">
            <path fill="none" d="M-53.32,-6.43 L -47.71 -10.65 -42.1 -4.7 -36.49 -4.6 -30.87 -8.55 -25.26 -11.6 -19.65 -6.44 -14.03 -11.73 -8.42 -9.51 -2.81 -18.23 2.81 -16.64 8.42 -13.47 14.03 1.42 19.65 14.22 25.26 17.29 30.87 17.93 36.49 17.93 42.1 17.93 47.71 17.93 53.32 17.93" class="primitive"/>
          </g>
          <g transform="translate(78.44,60.79)" id="img-a5273dc0-41" stroke="#BEA9FF" stroke-dasharray="none" class="color_81">
            <path fill="none" d="M-53.32,2.84 L -47.71 -5.88 -42.1 -6 -36.49 -6.72 -30.87 -7.13 -25.26 -9.87 -19.65 -11.09 -14.03 -13.83 -8.42 -15.83 -2.81 -15.73 2.81 -17.86 8.42 -12.62 14.03 -3.48 19.65 15.63 25.26 17.92 30.87 17.93 36.49 17.93 42.1 17.93 47.71 17.93 53.32 17.93" class="primitive"/>
          </g>
          <g transform="translate(78.44,60.79)" id="img-a5273dc0-42" stroke="#FF6765" stroke-dasharray="none" class="color_100">
            <path fill="none" d="M-53.32,-7.19 L -47.71 -6.86 -42.1 -5.19 -36.49 -1.75 -30.87 -5.16 -25.26 -9.81 -19.65 -11.3 -14.03 -14.67 -8.42 -16.98 -2.81 -17.45 2.81 -19.59 8.42 -8.86 14.03 2.3 19.65 14.94 25.26 17.93 30.87 17.93 36.49 17.93 42.1 17.93 47.71 17.93 53.32 17.93" class="primitive"/>
          </g>
        </g>
      </g>
    </g>
  </g>
  <g class="guide ylabels" font-size="2.82" font-family="'PT Sans Caption','Helvetica Neue','Helvetica',sans-serif" fill="#6C606B" id="img-a5273dc0-43">
    <g transform="translate(19.3,78.72)" id="img-a5273dc0-44">
      <g class="primitive">
        <text text-anchor="end" dy="0.35em">0.00</text>
      </g>
    </g>
    <g transform="translate(19.3,60.79)" id="img-a5273dc0-45">
      <g class="primitive">
        <text text-anchor="end" dy="0.35em">0.05</text>
      </g>
    </g>
    <g transform="translate(19.3,42.86)" id="img-a5273dc0-46">
      <g class="primitive">
        <text text-anchor="end" dy="0.35em">0.10</text>
      </g>
    </g>
    <g transform="translate(19.3,24.93)" id="img-a5273dc0-47">
      <g class="primitive">
        <text text-anchor="end" dy="0.35em">0.15</text>
      </g>
    </g>
    <g transform="translate(19.3,7)" id="img-a5273dc0-48">
      <g class="primitive">
        <text text-anchor="end" dy="0.35em">0.20</text>
      </g>
    </g>
  </g>
  <g font-size="3.88" font-family="'PT Sans','Helvetica Neue','Helvetica',sans-serif" fill="#564A55" stroke="#000000" stroke-opacity="0.000" id="img-a5273dc0-49">
    <g transform="translate(8.81,40.86)" id="img-a5273dc0-50">
      <g class="primitive">
        <text text-anchor="middle" dy="0.35em" transform="rotate(-90,0, 2)">Frequencia</text>
      </g>
    </g>
  </g>
</g>
<defs>
  <clipPath id="img-a5273dc0-21">
    <path d="M20.3,5 L 136.57 5 136.57 80.72 20.3 80.72" />
  </clipPath>
</defs>
</svg>
