<?xml version="1.0" encoding="UTF-8"?>
<svg xmlns="http://www.w3.org/2000/svg"
     xmlns:xlink="http://www.w3.org/1999/xlink"
     xmlns:gadfly="http://www.gadflyjl.org/ns"
     version="1.2"
     width="150mm" height="100mm" viewBox="0 0 150 100"
     stroke="none"
     fill="#000000"
     stroke-width="0.3"
     font-size="3.88"
>
<defs>
  <marker id="arrow" markerWidth="15" markerHeight="7" refX="5" refY="3.5" orient="auto" markerUnits="strokeWidth">
    <path d="M0,0 L15,3.5 L0,7 z" stroke="context-stroke" fill="context-stroke"/>
  </marker>
</defs>
<g class="plotroot xscalable yscalable" id="img-d048e6ba-1">
  <g font-size="3.88" font-family="'PT Sans','Helvetica Neue','Helvetica',sans-serif" fill="#564A55" stroke="#000000" stroke-opacity="0.000" id="img-d048e6ba-2">
    <g transform="translate(75.82,88.39)">
      <g class="primitive">
        <text text-anchor="middle" dy="0.6em">Fitness</text>
      </g>
    </g>
  </g>
  <g class="guide xlabels" font-size="2.82" font-family="'PT Sans Caption','Helvetica Neue','Helvetica',sans-serif" fill="#6C606B" id="img-d048e6ba-3">
    <g transform="translate(22.3,81.72)">
      <g class="primitive">
        <text text-anchor="middle" dy="0.6em">0.0</text>
      </g>
    </g>
    <g transform="translate(75.82,81.72)">
      <g class="primitive">
        <text text-anchor="middle" dy="0.6em">0.5</text>
      </g>
    </g>
    <g transform="translate(129.34,81.72)">
      <g class="primitive">
        <text text-anchor="middle" dy="0.6em">1.0</text>
      </g>
    </g>
  </g>
  <g class="guide colorkey" id="img-d048e6ba-4">
    <g fill="#4C404B" font-size="2.82" font-family="'PT Sans','Helvetica Neue','Helvetica',sans-serif" id="img-d048e6ba-5">
      <g transform="translate(135.15,33.79)" id="img-d048e6ba-6" class="color_2.5e-5">
        <g class="primitive">
          <text dy="0.35em">2.5e-5</text>
        </g>
      </g>
      <g transform="translate(135.15,37.42)" id="img-d048e6ba-7" class="color_5.0e-5">
        <g class="primitive">
          <text dy="0.35em">5.0e-5</text>
        </g>
      </g>
      <g transform="translate(135.15,41.04)" id="img-d048e6ba-8" class="color_0.0001">
        <g class="primitive">
          <text dy="0.35em">0.0001</text>
        </g>
      </g>
      <g transform="translate(135.15,44.67)" id="img-d048e6ba-9" class="color_0.00025">
        <g class="primitive">
          <text dy="0.35em">0.00025</text>
        </g>
      </g>
      <g transform="translate(135.15,48.3)" id="img-d048e6ba-10" class="color_0.0005">
        <g class="primitive">
          <text dy="0.35em">0.0005</text>
        </g>
      </g>
      <g transform="translate(135.15,51.92)" id="img-d048e6ba-11" class="color_0.001">
        <g class="primitive">
          <text dy="0.35em">0.001</text>
        </g>
      </g>
      <g transform="translate(135.15,55.55)" id="img-d048e6ba-12" class="color_0.005">
        <g class="primitive">
          <text dy="0.35em">0.005</text>
        </g>
      </g>
    </g>
    <g stroke="#000000" stroke-opacity="0.000" id="img-d048e6ba-13">
      <g transform="translate(133.25,33.79)" id="img-d048e6ba-14" fill="#00BFFF" class="color_2.5e-5">
        <path d="M-0.91,-0.91 L 0.91 -0.91 0.91 0.91 -0.91 0.91 z" class="primitive"/>
      </g>
      <g transform="translate(133.25,37.42)" id="img-d048e6ba-15" fill="#D4CA3A" class="color_5.0e-5">
        <path d="M-0.91,-0.91 L 0.91 -0.91 0.91 0.91 -0.91 0.91 z" class="primitive"/>
      </g>
      <g transform="translate(133.25,41.04)" id="img-d048e6ba-16" fill="#FF6DAE" class="color_0.0001">
        <path d="M-0.91,-0.91 L 0.91 -0.91 0.91 0.91 -0.91 0.91 z" class="primitive"/>
      </g>
      <g transform="translate(133.25,44.67)" id="img-d048e6ba-17" fill="#00B78D" class="color_0.00025">
        <path d="M-0.91,-0.91 L 0.91 -0.91 0.91 0.91 -0.91 0.91 z" class="primitive"/>
      </g>
      <g transform="translate(133.25,48.3)" id="img-d048e6ba-18" fill="#BEA9FF" class="color_0.0005">
        <path d="M-0.91,-0.91 L 0.91 -0.91 0.91 0.91 -0.91 0.91 z" class="primitive"/>
      </g>
      <g transform="translate(133.25,51.92)" id="img-d048e6ba-19" fill="#FF6765" class="color_0.001">
        <path d="M-0.91,-0.91 L 0.91 -0.91 0.91 0.91 -0.91 0.91 z" class="primitive"/>
      </g>
      <g transform="translate(133.25,55.55)" id="img-d048e6ba-20" fill="#C6C6C6" class="color_0.005">
        <path d="M-0.91,-0.91 L 0.91 -0.91 0.91 0.91 -0.91 0.91 z" class="primitive"/>
      </g>
    </g>
    <g fill="#362A35" font-size="3.88" font-family="'PT Sans','Helvetica Neue','Helvetica',sans-serif" stroke="#000000" stroke-opacity="0.000" id="img-d048e6ba-21">
      <g transform="translate(132.34,29.97)" id="img-d048e6ba-22">
        <g class="primitive">
          <text>p</text>
        </g>
      </g>
    </g>
  </g>
  <g clip-path="url(#img-d048e6ba-23)">
    <g id="img-d048e6ba-24">
      <g pointer-events="visible" fill="#000000" fill-opacity="0.000" stroke="#000000" stroke-opacity="0.000" class="guide background" id="img-d048e6ba-25">
        <g transform="translate(75.82,42.86)" id="img-d048e6ba-26">
          <path d="M-55.52,-37.86 L 55.52 -37.86 55.52 37.86 -55.52 37.86 z" class="primitive"/>
        </g>
      </g>
      <g class="guide ygridlines xfixed" stroke-dasharray="0.5,0.5" stroke-width="0.2" stroke="#D0D0E0" id="img-d048e6ba-27">
        <g transform="translate(75.82,78.72)" id="img-d048e6ba-28">
          <path fill="none" d="M-55.52,0 L 55.52 0" class="primitive"/>
        </g>
        <g transform="translate(75.82,60.79)" id="img-d048e6ba-29">
          <path fill="none" d="M-55.52,0 L 55.52 0" class="primitive"/>
        </g>
        <g transform="translate(75.82,42.86)" id="img-d048e6ba-30">
          <path fill="none" d="M-55.52,0 L 55.52 0" class="primitive"/>
        </g>
        <g transform="translate(75.82,24.93)" id="img-d048e6ba-31">
          <path fill="none" d="M-55.52,0 L 55.52 0" class="primitive"/>
        </g>
        <g transform="translate(75.82,7)" id="img-d048e6ba-32">
          <path fill="none" d="M-55.52,0 L 55.52 0" class="primitive"/>
        </g>
      </g>
      <g class="guide xgridlines yfixed" stroke-dasharray="0.5,0.5" stroke-width="0.2" stroke="#D0D0E0" id="img-d048e6ba-33">
        <g transform="translate(22.3,42.86)" id="img-d048e6ba-34">
          <path fill="none" d="M0,-37.86 L 0 37.86" class="primitive"/>
        </g>
        <g transform="translate(75.82,42.86)" id="img-d048e6ba-35">
          <path fill="none" d="M0,-37.86 L 0 37.86" class="primitive"/>
        </g>
        <g transform="translate(129.34,42.86)" id="img-d048e6ba-36">
          <path fill="none" d="M0,-37.86 L 0 37.86" class="primitive"/>
        </g>
      </g>
      <g class="plotpanel" id="img-d048e6ba-37">
        <metadata>
          <boundingbox value="20.304999999999993mm 5.0mm 111.035mm 75.715mm"/>
          <unitbox value="-0.018685476713224645 0.2055776336889075 1.0373709534264492 -0.21115526737781498"/>
        </metadata>
        <g stroke-width="0.3" fill="#000000" fill-opacity="0.000" class="geometry" id="img-d048e6ba-38">
          <g transform="translate(75.82,60.79)" id="img-d048e6ba-39" stroke="#00BFFF" stroke-dasharray="none" class="color_2.5e-5">
            <path fill="none" d="M-50.84,1.86 L -45.49 -0.67 -40.14 -3.03 -34.79 -9.17 -29.43 -9.84 -24.08 -10.25 -18.73 -12.54 -13.38 -15.61 -8.03 -20.07 -2.68 -18.67 2.68 -14.72 8.03 -10.58 13.38 1.41 18.73 14.31 24.08 17.93 29.43 17.93 34.79 17.93 40.14 17.93 45.49 17.93 50.84 17.93" class="primitive"/>
          </g>
          <g transform="translate(75.82,60.79)" id="img-d048e6ba-40" stroke="#D4CA3A" stroke-dasharray="none" class="color_5.0e-5">
            <path fill="none" d="M-50.84,-4.17 L -45.49 -5.78 -40.14 -4.97 -34.79 -6.18 -29.43 -10.73 -24.08 -10.66 -18.73 -13.95 -13.38 -12.21 -8.03 -19.07 -2.68 -16.73 2.68 -16.96 8.03 -7.73 13.38 6.78 18.73 14.78 24.08 17.93 29.43 17.93 34.79 17.93 40.14 17.93 45.49 17.93 50.84 17.93" class="primitive"/>
          </g>
          <g transform="translate(75.82,60.79)" id="img-d048e6ba-41" stroke="#FF6DAE" stroke-dasharray="none" class="color_0.0001">
            <path fill="none" d="M-50.84,-4.76 L -45.49 -2.77 -40.14 -5.31 -34.79 -8.5 -29.43 -11.89 -24.08 -11.84 -18.73 -9.99 -13.38 -11.12 -8.03 -15.36 -2.68 -13.6 2.68 -11.83 8.03 -10.43 13.38 -5.53 18.73 15.37 24.08 17.93 29.43 17.93 34.79 17.93 40.14 17.93 45.49 17.93 50.84 17.93" class="primitive"/>
          </g>
          <g transform="translate(75.82,60.79)" id="img-d048e6ba-42" stroke="#00B78D" stroke-dasharray="none" class="color_0.00025">
            <path fill="none" d="M-50.84,-4.6 L -45.49 1.89 -40.14 -2.34 -34.79 -7.95 -29.43 -9.12 -24.08 -8.29 -18.73 -9.06 -13.38 -11.91 -8.03 -14.92 -2.68 -21.07 2.68 -18.93 8.03 -15.2 13.38 -0.88 18.73 14.8 24.08 17.93 29.43 17.93 34.79 17.93 40.14 17.93 45.49 17.93 50.84 17.93" class="primitive"/>
          </g>
          <g transform="translate(75.82,60.79)" id="img-d048e6ba-43" stroke="#BEA9FF" stroke-dasharray="none" class="color_0.0005">
            <path fill="none" d="M-50.84,-4.15 L -45.49 -6.03 -40.14 -0.15 -34.79 -1.98 -29.43 -8.27 -24.08 -9.73 -18.73 -15.1 -13.38 -16.14 -8.03 -16.08 -2.68 -11.7 2.68 -14.5 8.03 -17.07 13.38 -0.09 18.73 13.68 24.08 17.68 29.43 17.93 34.79 17.93 40.14 17.93 45.49 17.93 50.84 17.93" class="primitive"/>
          </g>
          <g transform="translate(75.82,60.79)" id="img-d048e6ba-44" stroke="#FF6765" stroke-dasharray="none" class="color_0.001">
            <path fill="none" d="M-50.84,-8.9 L -45.49 0.21 -40.14 -4.18 -34.79 -4.78 -29.43 -4.12 -24.08 -11.89 -18.73 -10.04 -13.38 -11.69 -8.03 -16.68 -2.68 -14.8 2.68 -21.38 8.03 -14.61 13.38 -0.46 18.73 16.04 24.08 17.63 29.43 17.93 34.79 17.93 40.14 17.93 45.49 17.93 50.84 17.93" class="primitive"/>
          </g>
          <g transform="translate(75.82,60.79)" id="img-d048e6ba-45" stroke="#C6C6C6" stroke-dasharray="none" class="color_0.005">
            <path fill="none" d="M-50.84,-3.95 L -45.49 2.59 -40.14 -2.53 -34.79 -4.67 -29.43 -5.74 -24.08 -9.56 -18.73 -15.39 -13.38 -16.1 -8.03 -18.67 -2.68 -19.19 2.68 -16.53 8.03 -15.74 13.38 2.88 18.73 15.04 24.08 17.93 29.43 17.93 34.79 17.93 40.14 17.93 45.49 17.93 50.84 17.93" class="primitive"/>
          </g>
        </g>
      </g>
    </g>
  </g>
  <g class="guide ylabels" font-size="2.82" font-family="'PT Sans Caption','Helvetica Neue','Helvetica',sans-serif" fill="#6C606B" id="img-d048e6ba-46">
    <g transform="translate(19.3,78.72)" id="img-d048e6ba-47">
      <g class="primitive">
        <text text-anchor="end" dy="0.35em">0.00</text>
      </g>
    </g>
    <g transform="translate(19.3,60.79)" id="img-d048e6ba-48">
      <g class="primitive">
        <text text-anchor="end" dy="0.35em">0.05</text>
      </g>
    </g>
    <g transform="translate(19.3,42.86)" id="img-d048e6ba-49">
      <g class="primitive">
        <text text-anchor="end" dy="0.35em">0.10</text>
      </g>
    </g>
    <g transform="translate(19.3,24.93)" id="img-d048e6ba-50">
      <g class="primitive">
        <text text-anchor="end" dy="0.35em">0.15</text>
      </g>
    </g>
    <g transform="translate(19.3,7)" id="img-d048e6ba-51">
      <g class="primitive">
        <text text-anchor="end" dy="0.35em">0.20</text>
      </g>
    </g>
  </g>
  <g font-size="3.88" font-family="'PT Sans','Helvetica Neue','Helvetica',sans-serif" fill="#564A55" stroke="#000000" stroke-opacity="0.000" id="img-d048e6ba-52">
    <g transform="translate(8.81,40.86)" id="img-d048e6ba-53">
      <g class="primitive">
        <text text-anchor="middle" dy="0.35em" transform="rotate(-90,0, 2)">Frequencia</text>
      </g>
    </g>
  </g>
</g>
<defs>
  <clipPath id="img-d048e6ba-23">
    <path d="M20.3,5 L 131.34 5 131.34 80.72 20.3 80.72" />
  </clipPath>
</defs>
</svg>
