<?xml version="1.0" encoding="UTF-8"?>
<svg xmlns="http://www.w3.org/2000/svg"
     xmlns:xlink="http://www.w3.org/1999/xlink"
     xmlns:gadfly="http://www.gadflyjl.org/ns"
     version="1.2"
     width="150mm" height="100mm" viewBox="0 0 150 100"
     stroke="none"
     fill="#000000"
     stroke-width="0.3"
     font-size="3.88"
>
<defs>
  <marker id="arrow" markerWidth="15" markerHeight="7" refX="5" refY="3.5" orient="auto" markerUnits="strokeWidth">
    <path d="M0,0 L15,3.5 L0,7 z" stroke="context-stroke" fill="context-stroke"/>
  </marker>
</defs>
<g class="plotroot xscalable yscalable" id="img-5a7c5f9b-1">
  <g font-size="3.88" font-family="'PT Sans','Helvetica Neue','Helvetica',sans-serif" fill="#564A55" stroke="#000000" stroke-opacity="0.000" id="img-5a7c5f9b-2">
    <g transform="translate(74.59,88.39)">
      <g class="primitive">
        <text text-anchor="middle" dy="0.6em">Time</text>
      </g>
    </g>
  </g>
  <g class="guide xlabels" font-size="2.82" font-family="'PT Sans Caption','Helvetica Neue','Helvetica',sans-serif" fill="#6C606B" id="img-5a7c5f9b-3">
    <g transform="translate(19.96,81.72)">
      <g class="primitive">
        <text text-anchor="middle" dy="0.6em">0</text>
      </g>
    </g>
    <g transform="translate(74.59,81.72)">
      <g class="primitive">
        <text text-anchor="middle" dy="0.6em">500</text>
      </g>
    </g>
    <g transform="translate(129.21,81.72)">
      <g class="primitive">
        <text text-anchor="middle" dy="0.6em">1000</text>
      </g>
    </g>
  </g>
  <g class="guide colorkey" id="img-5a7c5f9b-4">
    <g fill="#4C404B" font-size="2.82" font-family="'PT Sans','Helvetica Neue','Helvetica',sans-serif" id="img-5a7c5f9b-5">
      <g transform="translate(141.92,19.28)" id="img-5a7c5f9b-6" class="color_15">
        <g class="primitive">
          <text dy="0.35em">15</text>
        </g>
      </g>
      <g transform="translate(141.92,22.91)" id="img-5a7c5f9b-7" class="color_16">
        <g class="primitive">
          <text dy="0.35em">16</text>
        </g>
      </g>
      <g transform="translate(141.92,26.54)" id="img-5a7c5f9b-8" class="color_17">
        <g class="primitive">
          <text dy="0.35em">17</text>
        </g>
      </g>
      <g transform="translate(141.92,30.16)" id="img-5a7c5f9b-9" class="color_18">
        <g class="primitive">
          <text dy="0.35em">18</text>
        </g>
      </g>
      <g transform="translate(141.92,33.79)" id="img-5a7c5f9b-10" class="color_19">
        <g class="primitive">
          <text dy="0.35em">19</text>
        </g>
      </g>
      <g transform="translate(141.92,37.42)" id="img-5a7c5f9b-11" class="color_20">
        <g class="primitive">
          <text dy="0.35em">20</text>
        </g>
      </g>
      <g transform="translate(141.92,41.04)" id="img-5a7c5f9b-12" class="color_21">
        <g class="primitive">
          <text dy="0.35em">21</text>
        </g>
      </g>
      <g transform="translate(141.92,44.67)" id="img-5a7c5f9b-13" class="color_22">
        <g class="primitive">
          <text dy="0.35em">22</text>
        </g>
      </g>
      <g transform="translate(141.92,48.3)" id="img-5a7c5f9b-14" class="color_23">
        <g class="primitive">
          <text dy="0.35em">23</text>
        </g>
      </g>
      <g transform="translate(141.92,51.92)" id="img-5a7c5f9b-15" class="color_24">
        <g class="primitive">
          <text dy="0.35em">24</text>
        </g>
      </g>
      <g transform="translate(141.92,55.55)" id="img-5a7c5f9b-16" class="color_25">
        <g class="primitive">
          <text dy="0.35em">25</text>
        </g>
      </g>
      <g transform="translate(141.92,59.18)" id="img-5a7c5f9b-17" class="color_26">
        <g class="primitive">
          <text dy="0.35em">26</text>
        </g>
      </g>
      <g transform="translate(141.92,62.8)" id="img-5a7c5f9b-18" class="color_27">
        <g class="primitive">
          <text dy="0.35em">27</text>
        </g>
      </g>
      <g transform="translate(141.92,66.43)" id="img-5a7c5f9b-19" class="color_28">
        <g class="primitive">
          <text dy="0.35em">28</text>
        </g>
      </g>
      <g transform="translate(141.92,70.06)" id="img-5a7c5f9b-20" class="color_29">
        <g class="primitive">
          <text dy="0.35em">29</text>
        </g>
      </g>
    </g>
    <g stroke="#000000" stroke-opacity="0.000" id="img-5a7c5f9b-21">
      <g transform="translate(140.01,19.28)" id="img-5a7c5f9b-22" fill="#C39800" class="color_15">
        <path d="M-0.91,-0.91 L 0.91 -0.91 0.91 0.91 -0.91 0.91 z" class="primitive"/>
      </g>
      <g transform="translate(140.01,22.91)" id="img-5a7c5f9b-23" fill="#FF93A4" class="color_16">
        <path d="M-0.91,-0.91 L 0.91 -0.91 0.91 0.91 -0.91 0.91 z" class="primitive"/>
      </g>
      <g transform="translate(140.01,26.54)" id="img-5a7c5f9b-24" fill="#32B44E" class="color_17">
        <path d="M-0.91,-0.91 L 0.91 -0.91 0.91 0.91 -0.91 0.91 z" class="primitive"/>
      </g>
      <g transform="translate(140.01,30.16)" id="img-5a7c5f9b-25" fill="#9E9E9E" class="color_18">
        <path d="M-0.91,-0.91 L 0.91 -0.91 0.91 0.91 -0.91 0.91 z" class="primitive"/>
      </g>
      <g transform="translate(140.01,33.79)" id="img-5a7c5f9b-26" fill="#00E5B2" class="color_19">
        <path d="M-0.91,-0.91 L 0.91 -0.91 0.91 0.91 -0.91 0.91 z" class="primitive"/>
      </g>
      <g transform="translate(140.01,37.42)" id="img-5a7c5f9b-27" fill="#FFA9F6" class="color_20">
        <path d="M-0.91,-0.91 L 0.91 -0.91 0.91 0.91 -0.91 0.91 z" class="primitive"/>
      </g>
      <g transform="translate(140.01,41.04)" id="img-5a7c5f9b-28" fill="#FFAA89" class="color_21">
        <path d="M-0.91,-0.91 L 0.91 -0.91 0.91 0.91 -0.91 0.91 z" class="primitive"/>
      </g>
      <g transform="translate(140.01,44.67)" id="img-5a7c5f9b-29" fill="#82CAFF" class="color_22">
        <path d="M-0.91,-0.91 L 0.91 -0.91 0.91 0.91 -0.91 0.91 z" class="primitive"/>
      </g>
      <g transform="translate(140.01,48.3)" id="img-5a7c5f9b-30" fill="#00BBAA" class="color_23">
        <path d="M-0.91,-0.91 L 0.91 -0.91 0.91 0.91 -0.91 0.91 z" class="primitive"/>
      </g>
      <g transform="translate(140.01,51.92)" id="img-5a7c5f9b-31" fill="#A08CFF" class="color_24">
        <path d="M-0.91,-0.91 L 0.91 -0.91 0.91 0.91 -0.91 0.91 z" class="primitive"/>
      </g>
      <g transform="translate(140.01,55.55)" id="img-5a7c5f9b-32" fill="#00D485" class="color_25">
        <path d="M-0.91,-0.91 L 0.91 -0.91 0.91 0.91 -0.91 0.91 z" class="primitive"/>
      </g>
      <g transform="translate(140.01,59.18)" id="img-5a7c5f9b-33" fill="#BCCF6F" class="color_26">
        <path d="M-0.91,-0.91 L 0.91 -0.91 0.91 0.91 -0.91 0.91 z" class="primitive"/>
      </g>
      <g transform="translate(140.01,62.8)" id="img-5a7c5f9b-34" fill="#FFA0C8" class="color_27">
        <path d="M-0.91,-0.91 L 0.91 -0.91 0.91 0.91 -0.91 0.91 z" class="primitive"/>
      </g>
      <g transform="translate(140.01,66.43)" id="img-5a7c5f9b-35" fill="#FF5F82" class="color_28">
        <path d="M-0.91,-0.91 L 0.91 -0.91 0.91 0.91 -0.91 0.91 z" class="primitive"/>
      </g>
      <g transform="translate(140.01,70.06)" id="img-5a7c5f9b-36" fill="#C483E9" class="color_29">
        <path d="M-0.91,-0.91 L 0.91 -0.91 0.91 0.91 -0.91 0.91 z" class="primitive"/>
      </g>
    </g>
    <g fill="#4C404B" font-size="2.82" font-family="'PT Sans','Helvetica Neue','Helvetica',sans-serif" id="img-5a7c5f9b-37">
      <g transform="translate(135.03,19.28)" id="img-5a7c5f9b-38" class="color_0">
        <g class="primitive">
          <text dy="0.35em">0</text>
        </g>
      </g>
      <g transform="translate(135.03,22.91)" id="img-5a7c5f9b-39" class="color_1">
        <g class="primitive">
          <text dy="0.35em">1</text>
        </g>
      </g>
      <g transform="translate(135.03,26.54)" id="img-5a7c5f9b-40" class="color_2">
        <g class="primitive">
          <text dy="0.35em">2</text>
        </g>
      </g>
      <g transform="translate(135.03,30.16)" id="img-5a7c5f9b-41" class="color_3">
        <g class="primitive">
          <text dy="0.35em">3</text>
        </g>
      </g>
      <g transform="translate(135.03,33.79)" id="img-5a7c5f9b-42" class="color_4">
        <g class="primitive">
          <text dy="0.35em">4</text>
        </g>
      </g>
      <g transform="translate(135.03,37.42)" id="img-5a7c5f9b-43" class="color_5">
        <g class="primitive">
          <text dy="0.35em">5</text>
        </g>
      </g>
      <g transform="translate(135.03,41.04)" id="img-5a7c5f9b-44" class="color_6">
        <g class="primitive">
          <text dy="0.35em">6</text>
        </g>
      </g>
      <g transform="translate(135.03,44.67)" id="img-5a7c5f9b-45" class="color_7">
        <g class="primitive">
          <text dy="0.35em">7</text>
        </g>
      </g>
      <g transform="translate(135.03,48.3)" id="img-5a7c5f9b-46" class="color_8">
        <g class="primitive">
          <text dy="0.35em">8</text>
        </g>
      </g>
      <g transform="translate(135.03,51.92)" id="img-5a7c5f9b-47" class="color_9">
        <g class="primitive">
          <text dy="0.35em">9</text>
        </g>
      </g>
      <g transform="translate(135.03,55.55)" id="img-5a7c5f9b-48" class="color_10">
        <g class="primitive">
          <text dy="0.35em">10</text>
        </g>
      </g>
      <g transform="translate(135.03,59.18)" id="img-5a7c5f9b-49" class="color_11">
        <g class="primitive">
          <text dy="0.35em">11</text>
        </g>
      </g>
      <g transform="translate(135.03,62.8)" id="img-5a7c5f9b-50" class="color_12">
        <g class="primitive">
          <text dy="0.35em">12</text>
        </g>
      </g>
      <g transform="translate(135.03,66.43)" id="img-5a7c5f9b-51" class="color_13">
        <g class="primitive">
          <text dy="0.35em">13</text>
        </g>
      </g>
      <g transform="translate(135.03,70.06)" id="img-5a7c5f9b-52" class="color_14">
        <g class="primitive">
          <text dy="0.35em">14</text>
        </g>
      </g>
    </g>
    <g stroke="#000000" stroke-opacity="0.000" id="img-5a7c5f9b-53">
      <g transform="translate(133.12,19.28)" id="img-5a7c5f9b-54" fill="#00BFFF" class="color_0">
        <path d="M-0.91,-0.91 L 0.91 -0.91 0.91 0.91 -0.91 0.91 z" class="primitive"/>
      </g>
      <g transform="translate(133.12,22.91)" id="img-5a7c5f9b-55" fill="#D4CA3A" class="color_1">
        <path d="M-0.91,-0.91 L 0.91 -0.91 0.91 0.91 -0.91 0.91 z" class="primitive"/>
      </g>
      <g transform="translate(133.12,26.54)" id="img-5a7c5f9b-56" fill="#FF6DAE" class="color_2">
        <path d="M-0.91,-0.91 L 0.91 -0.91 0.91 0.91 -0.91 0.91 z" class="primitive"/>
      </g>
      <g transform="translate(133.12,30.16)" id="img-5a7c5f9b-57" fill="#00B78D" class="color_3">
        <path d="M-0.91,-0.91 L 0.91 -0.91 0.91 0.91 -0.91 0.91 z" class="primitive"/>
      </g>
      <g transform="translate(133.12,33.79)" id="img-5a7c5f9b-58" fill="#BEA9FF" class="color_4">
        <path d="M-0.91,-0.91 L 0.91 -0.91 0.91 0.91 -0.91 0.91 z" class="primitive"/>
      </g>
      <g transform="translate(133.12,37.42)" id="img-5a7c5f9b-59" fill="#FF6765" class="color_5">
        <path d="M-0.91,-0.91 L 0.91 -0.91 0.91 0.91 -0.91 0.91 z" class="primitive"/>
      </g>
      <g transform="translate(133.12,41.04)" id="img-5a7c5f9b-60" fill="#C6C6C6" class="color_6">
        <path d="M-0.91,-0.91 L 0.91 -0.91 0.91 0.91 -0.91 0.91 z" class="primitive"/>
      </g>
      <g transform="translate(133.12,44.67)" id="img-5a7c5f9b-61" fill="#63DF75" class="color_7">
        <path d="M-0.91,-0.91 L 0.91 -0.91 0.91 0.91 -0.91 0.91 z" class="primitive"/>
      </g>
      <g transform="translate(133.12,48.3)" id="img-5a7c5f9b-62" fill="#00E6D3" class="color_8">
        <path d="M-0.91,-0.91 L 0.91 -0.91 0.91 0.91 -0.91 0.91 z" class="primitive"/>
      </g>
      <g transform="translate(133.12,51.92)" id="img-5a7c5f9b-63" fill="#E870DD" class="color_9">
        <path d="M-0.91,-0.91 L 0.91 -0.91 0.91 0.91 -0.91 0.91 z" class="primitive"/>
      </g>
      <g transform="translate(133.12,55.55)" id="img-5a7c5f9b-64" fill="#93A649" class="color_10">
        <path d="M-0.91,-0.91 L 0.91 -0.91 0.91 0.91 -0.91 0.91 z" class="primitive"/>
      </g>
      <g transform="translate(133.12,59.18)" id="img-5a7c5f9b-65" fill="#FF9A4B" class="color_11">
        <path d="M-0.91,-0.91 L 0.91 -0.91 0.91 0.91 -0.91 0.91 z" class="primitive"/>
      </g>
      <g transform="translate(133.12,62.8)" id="img-5a7c5f9b-66" fill="#00B4BC" class="color_12">
        <path d="M-0.91,-0.91 L 0.91 -0.91 0.91 0.91 -0.91 0.91 z" class="primitive"/>
      </g>
      <g transform="translate(133.12,66.43)" id="img-5a7c5f9b-67" fill="#6299FF" class="color_13">
        <path d="M-0.91,-0.91 L 0.91 -0.91 0.91 0.91 -0.91 0.91 z" class="primitive"/>
      </g>
      <g transform="translate(133.12,70.06)" id="img-5a7c5f9b-68" fill="#00E4FF" class="color_14">
        <path d="M-0.91,-0.91 L 0.91 -0.91 0.91 0.91 -0.91 0.91 z" class="primitive"/>
      </g>
    </g>
    <g fill="#362A35" font-size="3.88" font-family="'PT Sans','Helvetica Neue','Helvetica',sans-serif" stroke="#000000" stroke-opacity="0.000" id="img-5a7c5f9b-69">
      <g transform="translate(132.21,15.46)" id="img-5a7c5f9b-70">
        <g class="primitive">
          <text>m</text>
        </g>
      </g>
    </g>
  </g>
  <g clip-path="url(#img-5a7c5f9b-71)">
    <g id="img-5a7c5f9b-72">
      <g pointer-events="visible" fill="#000000" fill-opacity="0.000" stroke="#000000" stroke-opacity="0.000" class="guide background" id="img-5a7c5f9b-73">
        <g transform="translate(74.59,42.86)" id="img-5a7c5f9b-74">
          <path d="M-56.63,-37.86 L 56.63 -37.86 56.63 37.86 -56.63 37.86 z" class="primitive"/>
        </g>
      </g>
      <g class="guide ygridlines xfixed" stroke-dasharray="0.5,0.5" stroke-width="0.2" stroke="#D0D0E0" id="img-5a7c5f9b-75">
        <g transform="translate(74.59,78.72)" id="img-5a7c5f9b-76">
          <path fill="none" d="M-56.63,0 L 56.63 0" class="primitive"/>
        </g>
        <g transform="translate(74.59,60.79)" id="img-5a7c5f9b-77">
          <path fill="none" d="M-56.63,0 L 56.63 0" class="primitive"/>
        </g>
        <g transform="translate(74.59,42.86)" id="img-5a7c5f9b-78">
          <path fill="none" d="M-56.63,0 L 56.63 0" class="primitive"/>
        </g>
        <g transform="translate(74.59,24.93)" id="img-5a7c5f9b-79">
          <path fill="none" d="M-56.63,0 L 56.63 0" class="primitive"/>
        </g>
        <g transform="translate(74.59,7)" id="img-5a7c5f9b-80">
          <path fill="none" d="M-56.63,0 L 56.63 0" class="primitive"/>
        </g>
      </g>
      <g class="guide xgridlines yfixed" stroke-dasharray="0.5,0.5" stroke-width="0.2" stroke="#D0D0E0" id="img-5a7c5f9b-81">
        <g transform="translate(19.96,42.86)" id="img-5a7c5f9b-82">
          <path fill="none" d="M0,-37.86 L 0 37.86" class="primitive"/>
        </g>
        <g transform="translate(74.59,42.86)" id="img-5a7c5f9b-83">
          <path fill="none" d="M0,-37.86 L 0 37.86" class="primitive"/>
        </g>
        <g transform="translate(129.21,42.86)" id="img-5a7c5f9b-84">
          <path fill="none" d="M0,-37.86 L 0 37.86" class="primitive"/>
        </g>
      </g>
      <g class="plotpanel" id="img-5a7c5f9b-85">
        <metadata>
          <boundingbox value="17.95833333333333mm 5.0mm 113.255mm 75.715mm"/>
          <unitbox value="-18.305798361631048 41.115526737781494 1036.611596723262 -42.231053475562994"/>
        </metadata>
        <g stroke-width="0.3" fill="#000000" fill-opacity="0.000" class="geometry" id="img-5a7c5f9b-86">
          <g transform="translate(74.04,70.85)" id="img-5a7c5f9b-87" stroke="#00BFFF" stroke-dasharray="none" class="color_0">
            <path fill="none" d="M-54.08,-48.81 L -52.99 -33.81 -51.9 -19.87 -50.8 -8.05 -49.71 -2.35 -48.62 0.22 -47.53 0.95 -46.43 1.09 -45.34 1.13 -44.25 1.17 -43.16 1.17 -42.06 1.17 -40.97 1.17 -39.88 1.17 -38.79 1.17 -37.69 1.17 -36.6 1.17 -35.51 1.17 -34.42 1.17 -33.32 1.17 -32.23 1.17 -31.14 1.17 -30.05 1.17 -28.95 1.17 -27.86 1.17 -26.77 1.17 -25.67 1.17 -24.58 1.17 -23.49 1.17 -22.4 1.17 -21.3 1.17 -20.21 1.17 -19.12 1.17 -18.03 1.17 -16.93 1.17 -15.84 1.17 -14.75 1.17 -13.66 1.17 -12.56 1.17 -11.47 1.17 -10.38 1.17 -9.29 1.17 -8.19 1.17 -7.1 1.17 -6.01 1.17 -4.92 1.17 -3.82 1.17 -2.73 1.17 -1.64 1.17 -0.55 1.2 0.55 1.2 1.64 1.2 2.73 1.2 3.82 1.2 4.92 1.2 6.01 1.2 7.1 1.2 8.19 1.2 9.29 1.2 10.38 1.2 11.47 1.2 12.56 1.2 13.66 1.2 14.75 1.2 15.84 1.2 16.93 1.2 18.03 1.2 19.12 1.2 20.21 1.2 21.3 1.2 22.4 1.2 23.49 1.2 24.58 1.2 25.67 1.2 26.77 1.2 27.86 1.2 28.95 1.2 30.05 1.2 31.14 1.2 32.23 1.2 33.32 1.2 34.42 1.2 35.51 1.2 36.6 1.2 37.69 1.2 38.79 1.2 39.88 1.28 40.97 1.28 42.06 1.28 43.16 1.28 44.25 1.28 45.34 1.28 46.43 1.28 47.53 1.28 48.62 1.28 49.71 1.28 50.8 1.28 51.9 1.31 52.99 1.46 54.08 1.46" class="primitive"/>
          </g>
          <g transform="translate(74.04,74.49)" id="img-5a7c5f9b-88" stroke="#D4CA3A" stroke-dasharray="none" class="color_1">
            <path fill="none" d="M-54.08,-51.61 L -52.99 -37.86 -51.9 -24.65 -50.8 -11.73 -49.71 -1.16 -48.62 0.97 -47.53 1.15 -46.43 1.22 -45.34 1.22 -44.25 1.29 -43.16 1.29 -42.06 1.29 -40.97 1.29 -39.88 1.29 -38.79 1.29 -37.69 1.29 -36.6 1.29 -35.51 1.29 -34.42 1.29 -33.32 1.29 -32.23 1.29 -31.14 1.29 -30.05 1.29 -28.95 1.29 -27.86 1.29 -26.77 1.29 -25.67 1.29 -24.58 1.29 -23.49 1.29 -22.4 1.29 -21.3 1.29 -20.21 1.29 -19.12 1.29 -18.03 1.29 -16.93 1.29 -15.84 1.29 -14.75 1.29 -13.66 1.29 -12.56 1.29 -11.47 1.29 -10.38 1.29 -9.29 1.29 -8.19 1.29 -7.1 1.29 -6.01 1.29 -4.92 1.29 -3.82 1.29 -2.73 1.29 -1.64 1.29 -0.55 1.29 0.55 1.29 1.64 1.29 2.73 1.29 3.82 1.29 4.92 1.29 6.01 1.29 7.1 1.29 8.19 1.29 9.29 1.4 10.38 1.4 11.47 1.4 12.56 1.4 13.66 1.4 14.75 1.4 15.84 1.4 16.93 1.4 18.03 1.4 19.12 1.4 20.21 1.4 21.3 1.4 22.4 1.4 23.49 1.4 24.58 1.4 25.67 1.4 26.77 1.4 27.86 1.4 28.95 1.4 30.05 1.4 31.14 1.4 32.23 1.4 33.32 1.4 34.42 1.4 35.51 1.4 36.6 1.4 37.69 1.4 38.79 1.4 39.88 1.4 40.97 1.4 42.06 1.4 43.16 1.4 44.25 1.4 45.34 1.4 46.43 1.4 47.53 1.4 48.62 1.4 49.71 1.4 50.8 1.4 51.9 1.4 52.99 1.4 54.08 1.4" class="primitive"/>
          </g>
          <g transform="translate(74.04,67.89)" id="img-5a7c5f9b-89" stroke="#FF6DAE" stroke-dasharray="none" class="color_2">
            <path fill="none" d="M-54.08,-44.57 L -52.99 -30.78 -51.9 -17.38 -50.8 -5.9 -49.71 -0.74 -48.62 0.47 -47.53 0.8 -46.43 0.95 -45.34 1.02 -44.25 1.06 -43.16 1.06 -42.06 1.06 -40.97 1.06 -39.88 1.06 -38.79 1.06 -37.69 1.06 -36.6 1.06 -35.51 1.06 -34.42 1.06 -33.32 1.06 -32.23 1.06 -31.14 1.06 -30.05 1.06 -28.95 1.06 -27.86 1.06 -26.77 1.06 -25.67 1.06 -24.58 1.06 -23.49 1.06 -22.4 1.06 -21.3 1.06 -20.21 1.06 -19.12 1.06 -18.03 1.06 -16.93 1.06 -15.84 1.06 -14.75 1.06 -13.66 1.06 -12.56 1.06 -11.47 1.06 -10.38 1.06 -9.29 1.06 -8.19 1.06 -7.1 1.06 -6.01 1.06 -4.92 1.06 -3.82 1.06 -2.73 1.06 -1.64 1.06 -0.55 1.06 0.55 1.06 1.64 1.06 2.73 1.06 3.82 1.06 4.92 1.06 6.01 1.06 7.1 1.06 8.19 1.06 9.29 1.06 10.38 1.06 11.47 1.06 12.56 1.06 13.66 1.06 14.75 1.06 15.84 1.06 16.93 1.06 18.03 1.06 19.12 1.06 20.21 1.06 21.3 1.06 22.4 1.06 23.49 1.06 24.58 1.06 25.67 1.06 26.77 1.06 27.86 1.06 28.95 1.06 30.05 1.06 31.14 1.06 32.23 1.06 33.32 1.06 34.42 1.06 35.51 1.06 36.6 1.06 37.69 1.06 38.79 1.06 39.88 1.06 40.97 1.06 42.06 1.06 43.16 1.06 44.25 1.06 45.34 1.06 46.43 1.06 47.53 1.06 48.62 1.06 49.71 1.06 50.8 1.06 51.9 1.06 52.99 1.06 54.08 1.06" class="primitive"/>
          </g>
          <g transform="translate(74.04,68.21)" id="img-5a7c5f9b-90" stroke="#00B78D" stroke-dasharray="none" class="color_3">
            <path fill="none" d="M-54.08,-45.77 L -52.99 -31.17 -51.9 -17.42 -50.8 -5.64 -49.71 -0.99 -48.62 0.15 -47.53 0.62 -46.43 0.84 -45.34 0.84 -44.25 0.99 -43.16 0.99 -42.06 0.99 -40.97 1.06 -39.88 1.06 -38.79 1.06 -37.69 1.06 -36.6 1.06 -35.51 1.06 -34.42 1.06 -33.32 1.06 -32.23 1.06 -31.14 1.06 -30.05 1.06 -28.95 1.06 -27.86 1.06 -26.77 1.06 -25.67 1.06 -24.58 1.06 -23.49 1.06 -22.4 1.06 -21.3 1.06 -20.21 1.06 -19.12 1.06 -18.03 1.06 -16.93 1.06 -15.84 1.06 -14.75 1.06 -13.66 1.06 -12.56 1.1 -11.47 1.1 -10.38 1.1 -9.29 1.1 -8.19 1.1 -7.1 1.1 -6.01 1.1 -4.92 1.1 -3.82 1.1 -2.73 1.1 -1.64 1.1 -0.55 1.1 0.55 1.1 1.64 1.1 2.73 1.1 3.82 1.1 4.92 1.1 6.01 1.1 7.1 1.1 8.19 1.1 9.29 1.1 10.38 1.1 11.47 1.1 12.56 1.1 13.66 1.1 14.75 1.1 15.84 1.1 16.93 1.1 18.03 1.1 19.12 1.1 20.21 1.1 21.3 1.1 22.4 1.1 23.49 1.1 24.58 1.1 25.67 1.1 26.77 1.1 27.86 1.1 28.95 1.1 30.05 1.1 31.14 1.1 32.23 1.1 33.32 1.1 34.42 1.1 35.51 1.1 36.6 1.1 37.69 1.1 38.79 1.1 39.88 1.1 40.97 1.1 42.06 1.1 43.16 1.1 44.25 1.1 45.34 1.1 46.43 1.1 47.53 1.1 48.62 1.1 49.71 1.1 50.8 1.1 51.9 1.1 52.99 1.1 54.08 1.1" class="primitive"/>
          </g>
          <g transform="translate(74.04,73.64)" id="img-5a7c5f9b-91" stroke="#BEA9FF" stroke-dasharray="none" class="color_4">
            <path fill="none" d="M-54.08,-51.35 L -52.99 -36.86 -51.9 -23.76 -50.8 -11.13 -49.71 -3.41 -48.62 -0.16 -47.53 0.87 -46.43 1.12 -45.34 1.23 -44.25 1.31 -43.16 1.31 -42.06 1.31 -40.97 1.34 -39.88 1.34 -38.79 1.34 -37.69 1.34 -36.6 1.34 -35.51 1.34 -34.42 1.34 -33.32 1.34 -32.23 1.34 -31.14 1.34 -30.05 1.34 -28.95 1.34 -27.86 1.34 -26.77 1.34 -25.67 1.34 -24.58 1.34 -23.49 1.34 -22.4 1.34 -21.3 1.34 -20.21 1.34 -19.12 1.34 -18.03 1.34 -16.93 1.34 -15.84 1.34 -14.75 1.34 -13.66 1.34 -12.56 1.34 -11.47 1.34 -10.38 1.34 -9.29 1.34 -8.19 1.34 -7.1 1.34 -6.01 1.34 -4.92 1.34 -3.82 1.34 -2.73 1.34 -1.64 1.34 -0.55 1.34 0.55 1.34 1.64 1.34 2.73 1.34 3.82 1.34 4.92 1.34 6.01 1.34 7.1 1.34 8.19 1.34 9.29 1.34 10.38 1.34 11.47 1.34 12.56 1.34 13.66 1.34 14.75 1.34 15.84 1.34 16.93 1.34 18.03 1.34 19.12 1.34 20.21 1.34 21.3 1.34 22.4 1.34 23.49 1.34 24.58 1.34 25.67 1.34 26.77 1.34 27.86 1.34 28.95 1.34 30.05 1.34 31.14 1.34 32.23 1.38 33.32 1.38 34.42 1.38 35.51 1.38 36.6 1.38 37.69 1.38 38.79 1.38 39.88 1.38 40.97 1.38 42.06 1.38 43.16 1.38 44.25 1.34 45.34 1.45 46.43 1.45 47.53 1.45 48.62 1.45 49.71 1.45 50.8 1.45 51.9 1.45 52.99 1.42 54.08 1.42" class="primitive"/>
          </g>
          <g transform="translate(74.04,68.18)" id="img-5a7c5f9b-92" stroke="#FF6765" stroke-dasharray="none" class="color_5">
            <path fill="none" d="M-54.08,-45.52 L -52.99 -30.55 -51.9 -17.96 -50.8 -6.51 -49.71 -0.8 -48.62 0.44 -47.53 0.92 -46.43 0.95 -45.34 0.99 -44.25 1.06 -43.16 1.06 -42.06 1.06 -40.97 1.06 -39.88 1.06 -38.79 1.06 -37.69 1.06 -36.6 1.06 -35.51 1.06 -34.42 1.06 -33.32 1.06 -32.23 1.06 -31.14 1.06 -30.05 1.06 -28.95 1.06 -27.86 1.06 -26.77 1.06 -25.67 1.06 -24.58 1.06 -23.49 1.06 -22.4 1.06 -21.3 1.06 -20.21 1.06 -19.12 1.06 -18.03 1.06 -16.93 1.06 -15.84 1.06 -14.75 1.06 -13.66 1.06 -12.56 1.06 -11.47 1.06 -10.38 1.06 -9.29 1.06 -8.19 1.06 -7.1 1.06 -6.01 1.06 -4.92 1.06 -3.82 1.06 -2.73 1.06 -1.64 1.06 -0.55 1.06 0.55 1.06 1.64 1.06 2.73 1.06 3.82 1.06 4.92 1.06 6.01 1.06 7.1 1.06 8.19 1.06 9.29 1.06 10.38 1.06 11.47 1.06 12.56 1.06 13.66 1.06 14.75 1.1 15.84 1.1 16.93 1.1 18.03 1.1 19.12 1.1 20.21 1.1 21.3 1.1 22.4 1.1 23.49 1.1 24.58 1.1 25.67 1.1 26.77 1.1 27.86 1.1 28.95 1.1 30.05 1.1 31.14 1.1 32.23 1.1 33.32 1.1 34.42 1.1 35.51 1.1 36.6 1.1 37.69 1.1 38.79 1.1 39.88 1.1 40.97 1.1 42.06 1.1 43.16 1.1 44.25 1.1 45.34 1.1 46.43 1.1 47.53 1.1 48.62 1.1 49.71 1.1 50.8 1.1 51.9 1.1 52.99 1.1 54.08 1.1" class="primitive"/>
          </g>
          <g transform="translate(74.04,64.21)" id="img-5a7c5f9b-93" stroke="#C6C6C6" stroke-dasharray="none" class="color_6">
            <path fill="none" d="M-54.08,-42.03 L -52.99 -27.03 -51.9 -14.04 -50.8 -4.05 -49.71 -1.34 -48.62 -0.1 -47.53 0.41 -46.43 0.63 -45.34 0.82 -44.25 0.85 -43.16 0.85 -42.06 0.85 -40.97 0.85 -39.88 0.85 -38.79 0.85 -37.69 0.85 -36.6 0.89 -35.51 0.93 -34.42 0.96 -33.32 0.96 -32.23 0.96 -31.14 0.96 -30.05 0.96 -28.95 0.96 -27.86 0.96 -26.77 0.96 -25.67 0.96 -24.58 0.96 -23.49 0.96 -22.4 0.96 -21.3 0.96 -20.21 0.96 -19.12 0.96 -18.03 0.96 -16.93 0.96 -15.84 0.96 -14.75 0.96 -13.66 0.96 -12.56 0.96 -11.47 0.96 -10.38 0.96 -9.29 0.96 -8.19 0.96 -7.1 0.93 -6.01 0.96 -4.92 0.96 -3.82 0.96 -2.73 0.96 -1.64 0.96 -0.55 0.96 0.55 0.96 1.64 0.96 2.73 0.96 3.82 0.96 4.92 0.96 6.01 0.96 7.1 0.96 8.19 0.96 9.29 0.96 10.38 0.96 11.47 0.96 12.56 0.96 13.66 0.96 14.75 0.96 15.84 0.96 16.93 0.96 18.03 0.96 19.12 0.96 20.21 0.96 21.3 0.96 22.4 0.96 23.49 0.96 24.58 0.96 25.67 0.96 26.77 0.96 27.86 0.96 28.95 0.96 30.05 0.96 31.14 0.96 32.23 0.96 33.32 0.96 34.42 0.96 35.51 0.96 36.6 0.96 37.69 0.96 38.79 0.96 39.88 0.96 40.97 0.96 42.06 0.96 43.16 0.96 44.25 0.96 45.34 0.96 46.43 0.96 47.53 0.96 48.62 0.96 49.71 0.96 50.8 0.96 51.9 0.96 52.99 0.96 54.08 0.96" class="primitive"/>
          </g>
          <g transform="translate(74.04,71.8)" id="img-5a7c5f9b-94" stroke="#63DF75" stroke-dasharray="none" class="color_7">
            <path fill="none" d="M-54.08,-49.76 L -52.99 -34.94 -51.9 -21.88 -50.8 -8.6 -49.71 -0.95 -48.62 0.44 -47.53 0.92 -46.43 1.06 -45.34 1.06 -44.25 1.06 -43.16 1.06 -42.06 1.06 -40.97 1.06 -39.88 1.06 -38.79 1.06 -37.69 1.06 -36.6 1.06 -35.51 1.06 -34.42 1.06 -33.32 1.06 -32.23 1.06 -31.14 1.06 -30.05 1.06 -28.95 1.06 -27.86 1.06 -26.77 1.06 -25.67 1.06 -24.58 1.06 -23.49 1.06 -22.4 1.06 -21.3 1.06 -20.21 1.06 -19.12 1.06 -18.03 1.06 -16.93 1.06 -15.84 1.06 -14.75 1.06 -13.66 1.06 -12.56 1.06 -11.47 1.06 -10.38 1.06 -9.29 1.06 -8.19 1.06 -7.1 1.06 -6.01 1.06 -4.92 1.06 -3.82 1.06 -2.73 1.06 -1.64 1.06 -0.55 1.06 0.55 1.06 1.64 1.25 2.73 1.39 3.82 1.39 4.92 1.39 6.01 1.39 7.1 1.39 8.19 1.39 9.29 1.39 10.38 1.39 11.47 1.39 12.56 1.39 13.66 1.39 14.75 1.39 15.84 1.39 16.93 1.39 18.03 1.39 19.12 1.39 20.21 1.36 21.3 1.39 22.4 1.39 23.49 1.39 24.58 1.39 25.67 1.39 26.77 1.39 27.86 1.39 28.95 1.39 30.05 1.39 31.14 1.39 32.23 1.39 33.32 1.39 34.42 1.39 35.51 1.39 36.6 1.39 37.69 1.39 38.79 1.39 39.88 1.39 40.97 1.39 42.06 1.39 43.16 1.39 44.25 1.39 45.34 1.39 46.43 1.39 47.53 1.39 48.62 1.39 49.71 1.39 50.8 1.39 51.9 1.39 52.99 1.39 54.08 1.39" class="primitive"/>
          </g>
          <g transform="translate(74.04,65.51)" id="img-5a7c5f9b-95" stroke="#00E6D3" stroke-dasharray="none" class="color_8">
            <path fill="none" d="M-54.08,-42.05 L -52.99 -28.44 -51.9 -16.07 -50.8 -6.05 -49.71 0.17 -48.62 0.91 -47.53 0.91 -46.43 0.94 -45.34 0.94 -44.25 0.94 -43.16 0.94 -42.06 0.94 -40.97 0.94 -39.88 0.94 -38.79 0.94 -37.69 0.94 -36.6 0.94 -35.51 0.94 -34.42 0.94 -33.32 0.94 -32.23 0.94 -31.14 0.94 -30.05 0.94 -28.95 0.94 -27.86 0.94 -26.77 0.94 -25.67 0.94 -24.58 0.94 -23.49 0.94 -22.4 0.94 -21.3 0.94 -20.21 0.94 -19.12 0.94 -18.03 0.94 -16.93 0.94 -15.84 0.94 -14.75 0.94 -13.66 0.98 -12.56 0.98 -11.47 0.98 -10.38 0.98 -9.29 0.98 -8.19 0.98 -7.1 0.98 -6.01 0.98 -4.92 0.98 -3.82 0.98 -2.73 0.98 -1.64 0.98 -0.55 0.98 0.55 0.98 1.64 0.98 2.73 0.98 3.82 0.98 4.92 0.98 6.01 0.98 7.1 0.98 8.19 0.98 9.29 0.98 10.38 0.98 11.47 0.98 12.56 0.98 13.66 0.98 14.75 0.98 15.84 0.98 16.93 0.98 18.03 0.98 19.12 0.98 20.21 0.98 21.3 0.98 22.4 0.98 23.49 0.98 24.58 0.98 25.67 0.98 26.77 0.98 27.86 0.98 28.95 0.98 30.05 0.98 31.14 0.98 32.23 0.98 33.32 0.98 34.42 0.98 35.51 0.98 36.6 0.98 37.69 0.98 38.79 0.98 39.88 0.98 40.97 0.98 42.06 0.98 43.16 0.98 44.25 0.98 45.34 0.98 46.43 1.05 47.53 1.05 48.62 1.05 49.71 1.05 50.8 1.05 51.9 1.05 52.99 1.05 54.08 1.05" class="primitive"/>
          </g>
          <g transform="translate(74.04,71.6)" id="img-5a7c5f9b-96" stroke="#E870DD" stroke-dasharray="none" class="color_9">
            <path fill="none" d="M-54.08,-49.05 L -52.99 -35.07 -51.9 -21.72 -50.8 -8.66 -49.71 -1.19 -48.62 0.64 -47.53 0.97 -46.43 1 -45.34 1.15 -44.25 1.22 -43.16 1.22 -42.06 1.22 -40.97 1.22 -39.88 1.22 -38.79 1.22 -37.69 1.22 -36.6 1.22 -35.51 1.22 -34.42 1.22 -33.32 1.22 -32.23 1.22 -31.14 1.22 -30.05 1.22 -28.95 1.22 -27.86 1.22 -26.77 1.22 -25.67 1.22 -24.58 1.22 -23.49 1.22 -22.4 1.22 -21.3 1.22 -20.21 1.22 -19.12 1.22 -18.03 1.19 -16.93 1.19 -15.84 1.19 -14.75 1.19 -13.66 1.19 -12.56 1.19 -11.47 1.19 -10.38 1.19 -9.29 1.19 -8.19 1.19 -7.1 1.19 -6.01 1.19 -4.92 1.19 -3.82 1.19 -2.73 1.19 -1.64 1.19 -0.55 1.15 0.55 1.19 1.64 1.19 2.73 1.19 3.82 1.19 4.92 1.19 6.01 1.22 7.1 1.26 8.19 1.26 9.29 1.26 10.38 1.26 11.47 1.26 12.56 1.26 13.66 1.26 14.75 1.26 15.84 1.26 16.93 1.26 18.03 1.26 19.12 1.26 20.21 1.26 21.3 1.26 22.4 1.26 23.49 1.26 24.58 1.26 25.67 1.26 26.77 1.26 27.86 1.26 28.95 1.26 30.05 1.26 31.14 1.26 32.23 1.26 33.32 1.26 34.42 1.26 35.51 1.26 36.6 1.26 37.69 1.26 38.79 1.26 39.88 1.26 40.97 1.26 42.06 1.26 43.16 1.26 44.25 1.26 45.34 1.26 46.43 1.26 47.53 1.26 48.62 1.26 49.71 1.26 50.8 1.26 51.9 1.26 52.99 1.26 54.08 1.26" class="primitive"/>
          </g>
          <g transform="translate(74.04,71.93)" id="img-5a7c5f9b-97" stroke="#93A649" stroke-dasharray="none" class="color_10">
            <path fill="none" d="M-54.08,-49.71 L -52.99 -36.64 -51.9 -22.78 -50.8 -11.43 -49.71 -3.42 -48.62 -0.35 -47.53 0.49 -46.43 1.15 -45.34 1.26 -44.25 1.33 -43.16 1.33 -42.06 1.33 -40.97 1.33 -39.88 1.33 -38.79 1.33 -37.69 1.33 -36.6 1.33 -35.51 1.33 -34.42 1.33 -33.32 1.33 -32.23 1.33 -31.14 1.33 -30.05 1.33 -28.95 1.33 -27.86 1.33 -26.77 1.33 -25.67 1.33 -24.58 1.33 -23.49 1.33 -22.4 1.33 -21.3 1.33 -20.21 1.33 -19.12 1.33 -18.03 1.33 -16.93 1.33 -15.84 1.33 -14.75 1.33 -13.66 1.33 -12.56 1.33 -11.47 1.33 -10.38 1.33 -9.29 1.33 -8.19 1.33 -7.1 1.33 -6.01 1.33 -4.92 1.33 -3.82 1.33 -2.73 1.33 -1.64 1.33 -0.55 1.33 0.55 1.33 1.64 1.33 2.73 1.33 3.82 1.33 4.92 1.33 6.01 1.33 7.1 1.33 8.19 1.33 9.29 1.33 10.38 1.33 11.47 1.33 12.56 1.33 13.66 1.33 14.75 1.33 15.84 1.33 16.93 1.33 18.03 1.33 19.12 1.33 20.21 1.33 21.3 1.33 22.4 1.33 23.49 1.33 24.58 1.33 25.67 1.33 26.77 1.33 27.86 1.33 28.95 1.33 30.05 1.33 31.14 1.33 32.23 1.33 33.32 1.3 34.42 1.33 35.51 1.33 36.6 1.33 37.69 1.33 38.79 1.33 39.88 1.33 40.97 1.33 42.06 1.33 43.16 1.33 44.25 1.33 45.34 1.33 46.43 1.33 47.53 1.33 48.62 1.33 49.71 1.33 50.8 1.33 51.9 1.33 52.99 1.33 54.08 1.33" class="primitive"/>
          </g>
          <g transform="translate(74.04,69.18)" id="img-5a7c5f9b-98" stroke="#FF9A4B" stroke-dasharray="none" class="color_11">
            <path fill="none" d="M-54.08,-47.04 L -52.99 -33.79 -51.9 -20.8 -50.8 -8.98 -49.71 -1.12 -48.62 0.75 -47.53 1.11 -46.43 1.11 -45.34 1.15 -44.25 1.15 -43.16 1.15 -42.06 1.15 -40.97 1.15 -39.88 1.15 -38.79 1.15 -37.69 1.15 -36.6 1.15 -35.51 1.15 -34.42 1.15 -33.32 1.15 -32.23 1.15 -31.14 1.15 -30.05 1.15 -28.95 1.15 -27.86 1.15 -26.77 1.15 -25.67 1.15 -24.58 1.15 -23.49 1.15 -22.4 1.15 -21.3 1.15 -20.21 1.15 -19.12 1.15 -18.03 1.15 -16.93 1.15 -15.84 1.15 -14.75 1.15 -13.66 1.15 -12.56 1.15 -11.47 1.15 -10.38 1.15 -9.29 1.15 -8.19 1.15 -7.1 1.15 -6.01 1.15 -4.92 1.15 -3.82 1.15 -2.73 1.15 -1.64 1.11 -0.55 1.15 0.55 1.15 1.64 1.15 2.73 1.15 3.82 1.15 4.92 1.15 6.01 1.19 7.1 1.19 8.19 1.19 9.29 1.19 10.38 1.19 11.47 1.19 12.56 1.19 13.66 1.19 14.75 1.19 15.84 1.19 16.93 1.19 18.03 1.19 19.12 1.19 20.21 1.19 21.3 1.19 22.4 1.19 23.49 1.19 24.58 1.19 25.67 1.19 26.77 1.19 27.86 1.19 28.95 1.19 30.05 1.19 31.14 1.19 32.23 1.19 33.32 1.19 34.42 1.19 35.51 1.19 36.6 1.19 37.69 1.19 38.79 1.19 39.88 1.19 40.97 1.19 42.06 1.22 43.16 1.3 44.25 1.3 45.34 1.3 46.43 1.3 47.53 1.3 48.62 1.3 49.71 1.3 50.8 1.3 51.9 1.3 52.99 1.3 54.08 1.3" class="primitive"/>
          </g>
          <g transform="translate(74.04,70.99)" id="img-5a7c5f9b-99" stroke="#00B4BC" stroke-dasharray="none" class="color_12">
            <path fill="none" d="M-54.08,-48.59 L -52.99 -32.45 -51.9 -19.5 -50.8 -9.15 -49.71 -2.38 -48.62 -0.55 -47.53 0.48 -46.43 0.95 -45.34 1.17 -44.25 1.17 -43.16 1.21 -42.06 1.21 -40.97 1.21 -39.88 1.21 -38.79 1.21 -37.69 1.21 -36.6 1.21 -35.51 1.21 -34.42 1.21 -33.32 1.21 -32.23 1.21 -31.14 1.21 -30.05 1.21 -28.95 1.21 -27.86 1.21 -26.77 1.21 -25.67 1.21 -24.58 1.21 -23.49 1.21 -22.4 1.21 -21.3 1.21 -20.21 1.21 -19.12 1.21 -18.03 1.21 -16.93 1.21 -15.84 1.21 -14.75 1.21 -13.66 1.21 -12.56 1.21 -11.47 1.21 -10.38 1.21 -9.29 1.21 -8.19 1.21 -7.1 1.17 -6.01 1.17 -4.92 1.17 -3.82 1.17 -2.73 1.17 -1.64 1.17 -0.55 1.17 0.55 1.17 1.64 1.17 2.73 1.17 3.82 1.17 4.92 1.17 6.01 1.21 7.1 1.21 8.19 1.21 9.29 1.21 10.38 1.21 11.47 1.21 12.56 1.21 13.66 1.21 14.75 1.21 15.84 1.21 16.93 1.21 18.03 1.21 19.12 1.21 20.21 1.21 21.3 1.21 22.4 1.21 23.49 1.21 24.58 1.21 25.67 1.21 26.77 1.21 27.86 1.21 28.95 1.21 30.05 1.21 31.14 1.21 32.23 1.21 33.32 1.21 34.42 1.21 35.51 1.25 36.6 1.25 37.69 1.25 38.79 1.25 39.88 1.25 40.97 1.25 42.06 1.25 43.16 1.25 44.25 1.25 45.34 1.25 46.43 1.25 47.53 1.25 48.62 1.25 49.71 1.25 50.8 1.25 51.9 1.25 52.99 1.17 54.08 1.17" class="primitive"/>
          </g>
          <g transform="translate(74.04,67.21)" id="img-5a7c5f9b-100" stroke="#6299FF" stroke-dasharray="none" class="color_13">
            <path fill="none" d="M-54.08,-45.61 L -52.99 -30.9 -51.9 -18.28 -50.8 -7.41 -49.71 -0.75 -48.62 0.45 -47.53 0.75 -46.43 0.97 -45.34 1 -44.25 1 -43.16 1 -42.06 1 -40.97 1 -39.88 1 -38.79 1 -37.69 1 -36.6 1 -35.51 1 -34.42 1 -33.32 1 -32.23 1 -31.14 1 -30.05 1 -28.95 1 -27.86 1 -26.77 1 -25.67 1 -24.58 1 -23.49 1 -22.4 1 -21.3 1 -20.21 1 -19.12 1.04 -18.03 1.15 -16.93 1.15 -15.84 1.15 -14.75 1.15 -13.66 1.15 -12.56 1.15 -11.47 1.15 -10.38 1.15 -9.29 1.15 -8.19 1.15 -7.1 1.15 -6.01 1.15 -4.92 1.15 -3.82 1.15 -2.73 1.15 -1.64 1.15 -0.55 1.15 0.55 1.15 1.64 1.15 2.73 1.15 3.82 1.15 4.92 1.15 6.01 1.15 7.1 1.15 8.19 1.15 9.29 1.15 10.38 1.15 11.47 1.15 12.56 1.15 13.66 1.11 14.75 1.11 15.84 1.11 16.93 1.11 18.03 1.11 19.12 1.11 20.21 1.11 21.3 1.11 22.4 1.11 23.49 1.11 24.58 1.11 25.67 1.11 26.77 1.11 27.86 1.11 28.95 1.11 30.05 1.11 31.14 1.11 32.23 1.11 33.32 1.11 34.42 1.11 35.51 1.11 36.6 1.11 37.69 1.11 38.79 1.11 39.88 1.11 40.97 1.11 42.06 1.11 43.16 1.11 44.25 1.11 45.34 1.11 46.43 1.11 47.53 1.11 48.62 1.11 49.71 1.11 50.8 1.11 51.9 1.15 52.99 1.15 54.08 1.15" class="primitive"/>
          </g>
          <g transform="translate(74.04,69.39)" id="img-5a7c5f9b-101" stroke="#00E4FF" stroke-dasharray="none" class="color_14">
            <path fill="none" d="M-54.08,-47.24 L -52.99 -33.05 -51.9 -20.39 -50.8 -8.75 -49.71 -1.62 -48.62 0.54 -47.53 0.87 -46.43 0.91 -45.34 0.91 -44.25 0.91 -43.16 0.91 -42.06 0.91 -40.97 0.91 -39.88 0.91 -38.79 0.91 -37.69 0.91 -36.6 0.91 -35.51 0.91 -34.42 0.91 -33.32 0.91 -32.23 0.91 -31.14 0.91 -30.05 0.91 -28.95 0.91 -27.86 0.91 -26.77 0.91 -25.67 0.91 -24.58 0.91 -23.49 0.91 -22.4 0.91 -21.3 0.91 -20.21 0.91 -19.12 0.91 -18.03 0.91 -16.93 0.91 -15.84 0.91 -14.75 0.91 -13.66 1.09 -12.56 1.24 -11.47 1.31 -10.38 1.31 -9.29 1.31 -8.19 1.31 -7.1 1.31 -6.01 1.31 -4.92 1.31 -3.82 1.31 -2.73 1.31 -1.64 1.31 -0.55 1.31 0.55 1.31 1.64 1.31 2.73 1.31 3.82 1.31 4.92 1.31 6.01 1.31 7.1 1.31 8.19 1.31 9.29 1.31 10.38 1.31 11.47 1.31 12.56 1.31 13.66 1.31 14.75 1.31 15.84 1.31 16.93 1.31 18.03 1.31 19.12 1.31 20.21 1.31 21.3 1.31 22.4 1.31 23.49 1.31 24.58 1.31 25.67 1.31 26.77 1.31 27.86 1.31 28.95 1.31 30.05 1.31 31.14 1.31 32.23 1.31 33.32 1.31 34.42 1.31 35.51 1.31 36.6 1.31 37.69 1.31 38.79 1.31 39.88 1.31 40.97 1.31 42.06 1.31 43.16 1.31 44.25 1.31 45.34 1.31 46.43 1.31 47.53 1.31 48.62 1.31 49.71 1.31 50.8 1.31 51.9 1.31 52.99 1.31 54.08 1.31" class="primitive"/>
          </g>
          <g transform="translate(74.04,67.06)" id="img-5a7c5f9b-102" stroke="#C39800" stroke-dasharray="none" class="color_15">
            <path fill="none" d="M-54.08,-44.77 L -52.99 -30.86 -51.9 -18.13 -50.8 -5.91 -49.71 -0.42 -48.62 0.68 -47.53 0.97 -46.43 1.04 -45.34 1.04 -44.25 1.04 -43.16 1.04 -42.06 1.04 -40.97 1.04 -39.88 1.04 -38.79 1.04 -37.69 1.04 -36.6 1.04 -35.51 1.04 -34.42 1.04 -33.32 1.04 -32.23 1.04 -31.14 1.04 -30.05 1.04 -28.95 1.04 -27.86 1.04 -26.77 1.04 -25.67 1.04 -24.58 1.04 -23.49 1.04 -22.4 1.04 -21.3 1.04 -20.21 1.04 -19.12 1.04 -18.03 1.04 -16.93 1.04 -15.84 1.04 -14.75 1.04 -13.66 1.04 -12.56 1.04 -11.47 1.04 -10.38 1.04 -9.29 1.04 -8.19 1.04 -7.1 1.04 -6.01 1.04 -4.92 1.04 -3.82 1.04 -2.73 1.04 -1.64 1.04 -0.55 1.04 0.55 1.04 1.64 1.04 2.73 1.04 3.82 1.04 4.92 1.04 6.01 1.04 7.1 1.04 8.19 1.04 9.29 1.04 10.38 1.08 11.47 1.08 12.56 1.08 13.66 1.08 14.75 1.08 15.84 1.08 16.93 1.08 18.03 1.08 19.12 1.08 20.21 1.08 21.3 1.08 22.4 1.08 23.49 1.08 24.58 1.08 25.67 1.08 26.77 1.08 27.86 1.08 28.95 1.08 30.05 1.08 31.14 1.08 32.23 1.08 33.32 1.08 34.42 1.08 35.51 1.08 36.6 1.08 37.69 1.08 38.79 1.08 39.88 1.08 40.97 1.08 42.06 1.08 43.16 1.08 44.25 1.08 45.34 1.08 46.43 1.08 47.53 1.08 48.62 1.08 49.71 1.08 50.8 1.08 51.9 1.08 52.99 1.08 54.08 1.08" class="primitive"/>
          </g>
          <g transform="translate(74.04,66.21)" id="img-5a7c5f9b-103" stroke="#FF93A4" stroke-dasharray="none" class="color_16">
            <path fill="none" d="M-54.08,-43.76 L -52.99 -29.17 -51.9 -16.1 -50.8 -4.39 -49.71 0.33 -48.62 0.8 -47.53 0.87 -46.43 0.91 -45.34 0.98 -44.25 0.98 -43.16 0.98 -42.06 0.98 -40.97 0.98 -39.88 0.98 -38.79 0.98 -37.69 0.98 -36.6 0.98 -35.51 0.98 -34.42 0.98 -33.32 0.98 -32.23 0.98 -31.14 0.98 -30.05 0.98 -28.95 0.98 -27.86 0.98 -26.77 0.98 -25.67 0.98 -24.58 0.98 -23.49 0.98 -22.4 0.98 -21.3 0.98 -20.21 0.98 -19.12 0.98 -18.03 0.98 -16.93 0.98 -15.84 0.98 -14.75 0.98 -13.66 0.98 -12.56 0.98 -11.47 0.98 -10.38 0.98 -9.29 0.98 -8.19 0.98 -7.1 0.98 -6.01 0.98 -4.92 0.98 -3.82 0.98 -2.73 0.98 -1.64 0.98 -0.55 0.98 0.55 0.95 1.64 0.98 2.73 0.98 3.82 0.98 4.92 0.98 6.01 0.98 7.1 0.98 8.19 0.98 9.29 0.98 10.38 0.98 11.47 0.98 12.56 0.98 13.66 0.98 14.75 0.98 15.84 0.98 16.93 0.98 18.03 0.98 19.12 0.98 20.21 0.98 21.3 0.98 22.4 0.98 23.49 0.98 24.58 0.98 25.67 0.98 26.77 0.98 27.86 0.98 28.95 0.98 30.05 0.98 31.14 0.98 32.23 0.98 33.32 0.98 34.42 0.98 35.51 0.98 36.6 0.98 37.69 0.98 38.79 0.98 39.88 0.98 40.97 0.98 42.06 0.98 43.16 0.98 44.25 0.98 45.34 0.98 46.43 0.98 47.53 0.98 48.62 0.98 49.71 0.98 50.8 0.98 51.9 0.98 52.99 0.98 54.08 0.98" class="primitive"/>
          </g>
          <g transform="translate(74.04,67.95)" id="img-5a7c5f9b-104" stroke="#32B44E" stroke-dasharray="none" class="color_17">
            <path fill="none" d="M-54.08,-43.79 L -52.99 -29.33 -51.9 -17.22 -50.8 -5.92 -49.71 -0.61 -48.62 0.34 -47.53 0.52 -46.43 0.74 -45.34 0.96 -44.25 1.04 -43.16 1.04 -42.06 1.04 -40.97 1.04 -39.88 1.04 -38.79 1.04 -37.69 1.04 -36.6 1.04 -35.51 1.04 -34.42 1.04 -33.32 1.04 -32.23 1.04 -31.14 1.04 -30.05 1.04 -28.95 1.04 -27.86 1.04 -26.77 1.04 -25.67 1.04 -24.58 1.04 -23.49 1.04 -22.4 1.04 -21.3 1.04 -20.21 1.04 -19.12 1.04 -18.03 1.04 -16.93 1.04 -15.84 1.04 -14.75 1.04 -13.66 1.04 -12.56 1.04 -11.47 1.04 -10.38 1.04 -9.29 1.04 -8.19 1.04 -7.1 1.04 -6.01 1.04 -4.92 1.04 -3.82 1.04 -2.73 1.04 -1.64 1.04 -0.55 1.04 0.55 1.04 1.64 1.04 2.73 1.04 3.82 1.04 4.92 1.04 6.01 1.04 7.1 1.04 8.19 1.04 9.29 1.04 10.38 1.04 11.47 1.04 12.56 1.04 13.66 1.04 14.75 1.04 15.84 1.04 16.93 1.04 18.03 1.04 19.12 1.04 20.21 1.04 21.3 1.04 22.4 1.04 23.49 1.04 24.58 1.04 25.67 1.04 26.77 1.04 27.86 1.04 28.95 1.04 30.05 1.04 31.14 1.04 32.23 1.04 33.32 1.04 34.42 1.04 35.51 1.04 36.6 1.04 37.69 1.04 38.79 1.04 39.88 1.04 40.97 1.04 42.06 1.04 43.16 1.04 44.25 1.04 45.34 1.04 46.43 1.04 47.53 1.04 48.62 1.04 49.71 1.04 50.8 1.04 51.9 1.04 52.99 1.04 54.08 1.04" class="primitive"/>
          </g>
          <g transform="translate(74.04,75.21)" id="img-5a7c5f9b-105" stroke="#9E9E9E" stroke-dasharray="none" class="color_18">
            <path fill="none" d="M-54.08,-52.62 L -52.99 -40 -51.9 -26.13 -50.8 -12.7 -49.71 0.18 -48.62 1.27 -47.53 1.35 -46.43 1.38 -45.34 1.38 -44.25 1.38 -43.16 1.38 -42.06 1.38 -40.97 1.38 -39.88 1.38 -38.79 1.38 -37.69 1.38 -36.6 1.38 -35.51 1.38 -34.42 1.38 -33.32 1.38 -32.23 1.38 -31.14 1.38 -30.05 1.38 -28.95 1.38 -27.86 1.38 -26.77 1.38 -25.67 1.38 -24.58 1.38 -23.49 1.38 -22.4 1.38 -21.3 1.38 -20.21 1.38 -19.12 1.38 -18.03 1.38 -16.93 1.38 -15.84 1.38 -14.75 1.38 -13.66 1.38 -12.56 1.38 -11.47 1.38 -10.38 1.38 -9.29 1.35 -8.19 1.38 -7.1 1.38 -6.01 1.38 -4.92 1.38 -3.82 1.38 -2.73 1.38 -1.64 1.38 -0.55 1.38 0.55 1.38 1.64 1.38 2.73 1.38 3.82 1.38 4.92 1.38 6.01 1.38 7.1 1.38 8.19 1.38 9.29 1.38 10.38 1.38 11.47 1.38 12.56 1.38 13.66 1.38 14.75 1.38 15.84 1.38 16.93 1.38 18.03 1.38 19.12 1.38 20.21 1.38 21.3 1.38 22.4 1.35 23.49 1.38 24.58 1.38 25.67 1.38 26.77 1.38 27.86 1.38 28.95 1.38 30.05 1.38 31.14 1.38 32.23 1.38 33.32 1.38 34.42 1.38 35.51 1.38 36.6 1.38 37.69 1.38 38.79 1.38 39.88 1.38 40.97 1.38 42.06 1.38 43.16 1.38 44.25 1.38 45.34 1.38 46.43 1.38 47.53 1.38 48.62 1.38 49.71 1.38 50.8 1.38 51.9 1.38 52.99 1.38 54.08 1.38" class="primitive"/>
          </g>
          <g transform="translate(74.04,72.4)" id="img-5a7c5f9b-106" stroke="#00E5B2" stroke-dasharray="none" class="color_19">
            <path fill="none" d="M-54.08,-49.52 L -52.99 -34.3 -51.9 -20.47 -50.8 -9.97 -49.71 -3.45 -48.62 -0.23 -47.53 0.75 -46.43 1.08 -45.34 1.12 -44.25 1.16 -43.16 1.23 -42.06 1.27 -40.97 1.27 -39.88 1.27 -38.79 1.27 -37.69 1.27 -36.6 1.27 -35.51 1.27 -34.42 1.27 -33.32 1.27 -32.23 1.27 -31.14 1.27 -30.05 1.27 -28.95 1.27 -27.86 1.27 -26.77 1.27 -25.67 1.27 -24.58 1.27 -23.49 1.27 -22.4 1.27 -21.3 1.27 -20.21 1.27 -19.12 1.27 -18.03 1.27 -16.93 1.27 -15.84 1.27 -14.75 1.27 -13.66 1.27 -12.56 1.27 -11.47 1.27 -10.38 1.27 -9.29 1.27 -8.19 1.27 -7.1 1.27 -6.01 1.27 -4.92 1.27 -3.82 1.27 -2.73 1.27 -1.64 1.27 -0.55 1.27 0.55 1.27 1.64 1.27 2.73 1.27 3.82 1.27 4.92 1.27 6.01 1.27 7.1 1.27 8.19 1.27 9.29 1.27 10.38 1.27 11.47 1.27 12.56 1.27 13.66 1.27 14.75 1.27 15.84 1.27 16.93 1.27 18.03 1.27 19.12 1.27 20.21 1.27 21.3 1.27 22.4 1.27 23.49 1.27 24.58 1.27 25.67 1.27 26.77 1.27 27.86 1.27 28.95 1.27 30.05 1.27 31.14 1.27 32.23 1.27 33.32 1.27 34.42 1.27 35.51 1.27 36.6 1.27 37.69 1.27 38.79 1.27 39.88 1.27 40.97 1.27 42.06 1.27 43.16 1.27 44.25 1.27 45.34 1.27 46.43 1.27 47.53 1.27 48.62 1.27 49.71 1.27 50.8 1.27 51.9 1.27 52.99 1.27 54.08 1.27" class="primitive"/>
          </g>
          <g transform="translate(74.04,69.56)" id="img-5a7c5f9b-107" stroke="#FFA9F6" stroke-dasharray="none" class="color_20">
            <path fill="none" d="M-54.08,-47.08 L -52.99 -32.85 -51.9 -19.56 -50.8 -7.82 -49.71 -1.12 -48.62 -0.13 -47.53 0.52 -46.43 1.11 -45.34 1.11 -44.25 1.15 -43.16 1.15 -42.06 1.15 -40.97 1.15 -39.88 1.15 -38.79 1.15 -37.69 1.15 -36.6 1.15 -35.51 1.15 -34.42 1.15 -33.32 1.18 -32.23 1.18 -31.14 1.18 -30.05 1.18 -28.95 1.18 -27.86 1.18 -26.77 1.18 -25.67 1.18 -24.58 1.18 -23.49 1.18 -22.4 1.18 -21.3 1.18 -20.21 1.18 -19.12 1.18 -18.03 1.18 -16.93 1.18 -15.84 1.18 -14.75 1.18 -13.66 1.18 -12.56 1.18 -11.47 1.18 -10.38 1.18 -9.29 1.18 -8.19 1.18 -7.1 1.18 -6.01 1.18 -4.92 1.18 -3.82 1.18 -2.73 1.18 -1.64 1.18 -0.55 1.18 0.55 1.18 1.64 1.18 2.73 1.18 3.82 1.18 4.92 1.18 6.01 1.18 7.1 1.18 8.19 1.18 9.29 1.18 10.38 1.18 11.47 1.18 12.56 1.15 13.66 1.15 14.75 1.15 15.84 1.15 16.93 1.15 18.03 1.15 19.12 1.15 20.21 1.15 21.3 1.15 22.4 1.15 23.49 1.15 24.58 1.15 25.67 1.15 26.77 1.15 27.86 1.15 28.95 1.15 30.05 1.15 31.14 1.15 32.23 1.15 33.32 1.15 34.42 1.15 35.51 1.15 36.6 1.15 37.69 1.15 38.79 1.15 39.88 1.15 40.97 1.15 42.06 1.15 43.16 1.15 44.25 1.15 45.34 1.15 46.43 1.15 47.53 1.15 48.62 1.15 49.71 1.15 50.8 1.15 51.9 1.15 52.99 1.15 54.08 1.15" class="primitive"/>
          </g>
          <g transform="translate(74.04,72.32)" id="img-5a7c5f9b-108" stroke="#FFAA89" stroke-dasharray="none" class="color_21">
            <path fill="none" d="M-54.08,-49.44 L -52.99 -36.27 -51.9 -23.83 -50.8 -10.84 -49.71 -3.19 -48.62 -0.63 -47.53 0.21 -46.43 0.69 -45.34 0.87 -44.25 0.87 -43.16 0.94 -42.06 0.94 -40.97 0.94 -39.88 0.94 -38.79 0.94 -37.69 0.94 -36.6 0.94 -35.51 1.27 -34.42 1.31 -33.32 1.38 -32.23 1.38 -31.14 1.38 -30.05 1.38 -28.95 1.38 -27.86 1.38 -26.77 1.38 -25.67 1.38 -24.58 1.38 -23.49 1.38 -22.4 1.38 -21.3 1.38 -20.21 1.38 -19.12 1.38 -18.03 1.38 -16.93 1.38 -15.84 1.38 -14.75 1.38 -13.66 1.38 -12.56 1.38 -11.47 1.38 -10.38 1.38 -9.29 1.38 -8.19 1.38 -7.1 1.38 -6.01 1.38 -4.92 1.38 -3.82 1.38 -2.73 1.38 -1.64 1.38 -0.55 1.38 0.55 1.38 1.64 1.38 2.73 1.38 3.82 1.38 4.92 1.38 6.01 1.38 7.1 1.38 8.19 1.38 9.29 1.38 10.38 1.38 11.47 1.38 12.56 1.38 13.66 1.38 14.75 1.38 15.84 1.38 16.93 1.38 18.03 1.38 19.12 1.38 20.21 1.38 21.3 1.38 22.4 1.38 23.49 1.38 24.58 1.38 25.67 1.38 26.77 1.38 27.86 1.38 28.95 1.38 30.05 1.38 31.14 1.35 32.23 1.35 33.32 1.35 34.42 1.35 35.51 1.35 36.6 1.35 37.69 1.35 38.79 1.46 39.88 1.42 40.97 1.42 42.06 1.42 43.16 1.42 44.25 1.42 45.34 1.42 46.43 1.42 47.53 1.42 48.62 1.42 49.71 1.42 50.8 1.42 51.9 1.42 52.99 1.42 54.08 1.42" class="primitive"/>
          </g>
          <g transform="translate(74.04,73.86)" id="img-5a7c5f9b-109" stroke="#82CAFF" stroke-dasharray="none" class="color_22">
            <path fill="none" d="M-54.08,-51.56 L -52.99 -35.43 -51.9 -22.07 -50.8 -9.78 -49.71 -3.01 -48.62 -0.08 -47.53 0.61 -46.43 1.01 -45.34 1.31 -44.25 1.31 -43.16 1.31 -42.06 1.31 -40.97 1.31 -39.88 1.31 -38.79 1.31 -37.69 1.31 -36.6 1.31 -35.51 1.31 -34.42 1.31 -33.32 1.31 -32.23 1.31 -31.14 1.31 -30.05 1.31 -28.95 1.31 -27.86 1.31 -26.77 1.31 -25.67 1.31 -24.58 1.31 -23.49 1.31 -22.4 1.31 -21.3 1.31 -20.21 1.31 -19.12 1.31 -18.03 1.31 -16.93 1.31 -15.84 1.31 -14.75 1.31 -13.66 1.31 -12.56 1.31 -11.47 1.31 -10.38 1.31 -9.29 1.31 -8.19 1.31 -7.1 1.31 -6.01 1.31 -4.92 1.31 -3.82 1.31 -2.73 1.31 -1.64 1.31 -0.55 1.31 0.55 1.31 1.64 1.31 2.73 1.31 3.82 1.31 4.92 1.31 6.01 1.31 7.1 1.31 8.19 1.31 9.29 1.31 10.38 1.31 11.47 1.31 12.56 1.31 13.66 1.31 14.75 1.31 15.84 1.31 16.93 1.31 18.03 1.31 19.12 1.31 20.21 1.31 21.3 1.31 22.4 1.31 23.49 1.31 24.58 1.31 25.67 1.31 26.77 1.31 27.86 1.31 28.95 1.31 30.05 1.31 31.14 1.31 32.23 1.31 33.32 1.31 34.42 1.31 35.51 1.31 36.6 1.31 37.69 1.31 38.79 1.31 39.88 1.31 40.97 1.31 42.06 1.31 43.16 1.31 44.25 1.31 45.34 1.31 46.43 1.31 47.53 1.31 48.62 1.31 49.71 1.31 50.8 1.31 51.9 1.31 52.99 1.31 54.08 1.31" class="primitive"/>
          </g>
          <g transform="translate(74.04,72.17)" id="img-5a7c5f9b-110" stroke="#00BBAA" stroke-dasharray="none" class="color_23">
            <path fill="none" d="M-54.08,-48.26 L -52.99 -33.81 -51.9 -21.33 -50.8 -10.5 -49.71 -4.25 -48.62 -0.48 -47.53 0.44 -46.43 0.84 -45.34 1.09 -44.25 1.28 -43.16 1.28 -42.06 1.28 -40.97 1.28 -39.88 1.28 -38.79 1.28 -37.69 1.28 -36.6 1.28 -35.51 1.28 -34.42 1.28 -33.32 1.28 -32.23 1.28 -31.14 1.28 -30.05 1.28 -28.95 1.28 -27.86 1.28 -26.77 1.28 -25.67 1.28 -24.58 1.28 -23.49 1.28 -22.4 1.28 -21.3 1.28 -20.21 1.28 -19.12 1.28 -18.03 1.28 -16.93 1.28 -15.84 1.28 -14.75 1.28 -13.66 1.28 -12.56 1.28 -11.47 1.28 -10.38 1.28 -9.29 1.28 -8.19 1.28 -7.1 1.28 -6.01 1.28 -4.92 1.28 -3.82 1.28 -2.73 1.28 -1.64 1.28 -0.55 1.28 0.55 1.28 1.64 1.28 2.73 1.28 3.82 1.28 4.92 1.28 6.01 1.28 7.1 1.28 8.19 1.28 9.29 1.28 10.38 1.28 11.47 1.28 12.56 1.28 13.66 1.28 14.75 1.28 15.84 1.28 16.93 1.28 18.03 1.28 19.12 1.28 20.21 1.28 21.3 1.28 22.4 1.28 23.49 1.28 24.58 1.28 25.67 1.28 26.77 1.28 27.86 1.28 28.95 1.28 30.05 1.28 31.14 1.28 32.23 1.28 33.32 1.28 34.42 1.28 35.51 1.28 36.6 1.28 37.69 1.28 38.79 1.28 39.88 1.28 40.97 1.28 42.06 1.28 43.16 1.28 44.25 1.28 45.34 1.28 46.43 1.28 47.53 1.28 48.62 1.28 49.71 1.28 50.8 1.28 51.9 1.28 52.99 1.28 54.08 1.28" class="primitive"/>
          </g>
          <g transform="translate(74.04,72.28)" id="img-5a7c5f9b-111" stroke="#A08CFF" stroke-dasharray="none" class="color_24">
            <path fill="none" d="M-54.08,-49.62 L -52.99 -35.86 -51.9 -23.42 -50.8 -10.73 -49.71 -0.81 -48.62 0.73 -47.53 1.09 -46.43 1.28 -45.34 1.28 -44.25 1.28 -43.16 1.28 -42.06 1.28 -40.97 1.28 -39.88 1.28 -38.79 1.28 -37.69 1.28 -36.6 1.28 -35.51 1.28 -34.42 1.28 -33.32 1.28 -32.23 1.28 -31.14 1.28 -30.05 1.28 -28.95 1.28 -27.86 1.28 -26.77 1.28 -25.67 1.28 -24.58 1.28 -23.49 1.28 -22.4 1.28 -21.3 1.28 -20.21 1.28 -19.12 1.28 -18.03 1.28 -16.93 1.28 -15.84 1.28 -14.75 1.28 -13.66 1.28 -12.56 1.28 -11.47 1.28 -10.38 1.28 -9.29 1.28 -8.19 1.28 -7.1 1.28 -6.01 1.28 -4.92 1.28 -3.82 1.28 -2.73 1.28 -1.64 1.28 -0.55 1.28 0.55 1.28 1.64 1.28 2.73 1.28 3.82 1.28 4.92 1.28 6.01 1.28 7.1 1.28 8.19 1.28 9.29 1.28 10.38 1.28 11.47 1.28 12.56 1.28 13.66 1.28 14.75 1.28 15.84 1.28 16.93 1.28 18.03 1.28 19.12 1.28 20.21 1.28 21.3 1.28 22.4 1.28 23.49 1.28 24.58 1.28 25.67 1.28 26.77 1.28 27.86 1.28 28.95 1.28 30.05 1.28 31.14 1.28 32.23 1.28 33.32 1.28 34.42 1.28 35.51 1.28 36.6 1.28 37.69 1.28 38.79 1.28 39.88 1.28 40.97 1.28 42.06 1.28 43.16 1.28 44.25 1.28 45.34 1.28 46.43 1.28 47.53 1.28 48.62 1.28 49.71 1.28 50.8 1.28 51.9 1.28 52.99 1.28 54.08 1.28" class="primitive"/>
          </g>
          <g transform="translate(74.04,70.85)" id="img-5a7c5f9b-112" stroke="#00D485" stroke-dasharray="none" class="color_25">
            <path fill="none" d="M-54.08,-48.56 L -52.99 -33.59 -51.9 -21.12 -50.8 -9.04 -49.71 -1.58 -48.62 0.32 -47.53 1.06 -46.43 1.17 -45.34 1.2 -44.25 1.2 -43.16 1.2 -42.06 1.24 -40.97 1.24 -39.88 1.24 -38.79 1.24 -37.69 1.24 -36.6 1.24 -35.51 1.24 -34.42 1.24 -33.32 1.24 -32.23 1.24 -31.14 1.24 -30.05 1.24 -28.95 1.24 -27.86 1.24 -26.77 1.24 -25.67 1.2 -24.58 1.24 -23.49 1.24 -22.4 1.24 -21.3 1.2 -20.21 1.2 -19.12 1.2 -18.03 1.2 -16.93 1.2 -15.84 1.2 -14.75 1.2 -13.66 1.2 -12.56 1.2 -11.47 1.2 -10.38 1.2 -9.29 1.2 -8.19 1.2 -7.1 1.2 -6.01 1.2 -4.92 1.2 -3.82 1.2 -2.73 1.2 -1.64 1.2 -0.55 1.2 0.55 1.2 1.64 1.2 2.73 1.2 3.82 1.2 4.92 1.2 6.01 1.2 7.1 1.2 8.19 1.2 9.29 1.2 10.38 1.2 11.47 1.2 12.56 1.2 13.66 1.2 14.75 1.2 15.84 1.2 16.93 1.2 18.03 1.2 19.12 1.2 20.21 1.2 21.3 1.2 22.4 1.2 23.49 1.2 24.58 1.2 25.67 1.2 26.77 1.2 27.86 1.2 28.95 1.2 30.05 1.2 31.14 1.2 32.23 1.2 33.32 1.2 34.42 1.2 35.51 1.2 36.6 1.2 37.69 1.2 38.79 1.2 39.88 1.2 40.97 1.2 42.06 1.2 43.16 1.2 44.25 1.2 45.34 1.2 46.43 1.2 47.53 1.2 48.62 1.2 49.71 1.2 50.8 1.2 51.9 1.2 52.99 1.2 54.08 1.2" class="primitive"/>
          </g>
          <g transform="translate(74.04,72.61)" id="img-5a7c5f9b-113" stroke="#BCCF6F" stroke-dasharray="none" class="color_26">
            <path fill="none" d="M-54.08,-50.43 L -52.99 -36.92 -51.9 -23.97 -50.8 -11.71 -49.71 -3.55 -48.62 -0.26 -47.53 0.58 -46.43 1.13 -45.34 1.28 -44.25 1.28 -43.16 1.31 -42.06 1.35 -40.97 1.35 -39.88 1.35 -38.79 1.35 -37.69 1.35 -36.6 1.35 -35.51 1.35 -34.42 1.35 -33.32 1.35 -32.23 1.35 -31.14 1.35 -30.05 1.35 -28.95 1.35 -27.86 1.35 -26.77 1.35 -25.67 1.35 -24.58 1.35 -23.49 1.35 -22.4 1.35 -21.3 1.35 -20.21 1.35 -19.12 1.35 -18.03 1.35 -16.93 1.35 -15.84 1.35 -14.75 1.35 -13.66 1.35 -12.56 1.35 -11.47 1.35 -10.38 1.35 -9.29 1.35 -8.19 1.35 -7.1 1.35 -6.01 1.35 -4.92 1.35 -3.82 1.35 -2.73 1.35 -1.64 1.35 -0.55 1.35 0.55 1.35 1.64 1.35 2.73 1.35 3.82 1.35 4.92 1.35 6.01 1.35 7.1 1.35 8.19 1.35 9.29 1.35 10.38 1.35 11.47 1.35 12.56 1.35 13.66 1.35 14.75 1.35 15.84 1.35 16.93 1.35 18.03 1.39 19.12 1.39 20.21 1.39 21.3 1.39 22.4 1.39 23.49 1.39 24.58 1.39 25.67 1.39 26.77 1.39 27.86 1.39 28.95 1.39 30.05 1.39 31.14 1.39 32.23 1.39 33.32 1.39 34.42 1.39 35.51 1.39 36.6 1.39 37.69 1.39 38.79 1.39 39.88 1.39 40.97 1.39 42.06 1.39 43.16 1.39 44.25 1.39 45.34 1.39 46.43 1.39 47.53 1.39 48.62 1.39 49.71 1.39 50.8 1.39 51.9 1.39 52.99 1.39 54.08 1.39" class="primitive"/>
          </g>
          <g transform="translate(74.04,72.75)" id="img-5a7c5f9b-114" stroke="#FFA0C8" stroke-dasharray="none" class="color_27">
            <path fill="none" d="M-54.08,-51.37 L -52.99 -37.5 -51.9 -23.93 -50.8 -10.68 -49.71 -2.16 -48.62 -0.03 -47.53 0.62 -46.43 0.99 -45.34 1.14 -44.25 1.28 -43.16 1.28 -42.06 1.28 -40.97 1.28 -39.88 1.28 -38.79 1.28 -37.69 1.28 -36.6 1.28 -35.51 1.28 -34.42 1.32 -33.32 1.32 -32.23 1.32 -31.14 1.28 -30.05 1.32 -28.95 1.32 -27.86 1.32 -26.77 1.32 -25.67 1.36 -24.58 1.36 -23.49 1.36 -22.4 1.36 -21.3 1.36 -20.21 1.36 -19.12 1.36 -18.03 1.36 -16.93 1.36 -15.84 1.36 -14.75 1.36 -13.66 1.36 -12.56 1.36 -11.47 1.36 -10.38 1.36 -9.29 1.36 -8.19 1.36 -7.1 1.36 -6.01 1.36 -4.92 1.36 -3.82 1.36 -2.73 1.36 -1.64 1.36 -0.55 1.36 0.55 1.36 1.64 1.36 2.73 1.36 3.82 1.36 4.92 1.36 6.01 1.36 7.1 1.36 8.19 1.36 9.29 1.36 10.38 1.36 11.47 1.36 12.56 1.36 13.66 1.36 14.75 1.36 15.84 1.36 16.93 1.36 18.03 1.36 19.12 1.36 20.21 1.36 21.3 1.36 22.4 1.36 23.49 1.36 24.58 1.36 25.67 1.36 26.77 1.36 27.86 1.36 28.95 1.36 30.05 1.36 31.14 1.36 32.23 1.36 33.32 1.36 34.42 1.36 35.51 1.36 36.6 1.36 37.69 1.36 38.79 1.36 39.88 1.36 40.97 1.36 42.06 1.36 43.16 1.36 44.25 1.36 45.34 1.36 46.43 1.36 47.53 1.36 48.62 1.36 49.71 1.36 50.8 1.47 51.9 1.47 52.99 1.47 54.08 1.47" class="primitive"/>
          </g>
          <g transform="translate(74.04,70.03)" id="img-5a7c5f9b-115" stroke="#FF5F82" stroke-dasharray="none" class="color_28">
            <path fill="none" d="M-54.08,-47.66 L -52.99 -33.61 -51.9 -21.76 -50.8 -9.35 -49.71 -1.19 -48.62 0.49 -47.53 1 -46.43 1.04 -45.34 1.11 -44.25 1.15 -43.16 1.11 -42.06 1.11 -40.97 1.11 -39.88 1.11 -38.79 1.11 -37.69 1.11 -36.6 1.11 -35.51 1.11 -34.42 1.11 -33.32 1.11 -32.23 1.11 -31.14 1.11 -30.05 1.11 -28.95 1.11 -27.86 1.11 -26.77 1.11 -25.67 1.11 -24.58 1.11 -23.49 1.11 -22.4 1.11 -21.3 1.11 -20.21 1.11 -19.12 1.11 -18.03 1.11 -16.93 1.11 -15.84 1.11 -14.75 1.22 -13.66 1.22 -12.56 1.22 -11.47 1.22 -10.38 1.22 -9.29 1.22 -8.19 1.22 -7.1 1.22 -6.01 1.22 -4.92 1.22 -3.82 1.22 -2.73 1.22 -1.64 1.22 -0.55 1.22 0.55 1.22 1.64 1.22 2.73 1.22 3.82 1.22 4.92 1.22 6.01 1.22 7.1 1.22 8.19 1.26 9.29 1.26 10.38 1.26 11.47 1.26 12.56 1.26 13.66 1.26 14.75 1.26 15.84 1.26 16.93 1.26 18.03 1.26 19.12 1.26 20.21 1.26 21.3 1.26 22.4 1.26 23.49 1.26 24.58 1.26 25.67 1.26 26.77 1.26 27.86 1.26 28.95 1.26 30.05 1.26 31.14 1.26 32.23 1.26 33.32 1.26 34.42 1.26 35.51 1.26 36.6 1.26 37.69 1.26 38.79 1.26 39.88 1.26 40.97 1.26 42.06 1.26 43.16 1.26 44.25 1.26 45.34 1.26 46.43 1.26 47.53 1.26 48.62 1.26 49.71 1.26 50.8 1.26 51.9 1.26 52.99 1.26 54.08 1.26" class="primitive"/>
          </g>
          <g transform="translate(74.04,65.86)" id="img-5a7c5f9b-116" stroke="#C483E9" stroke-dasharray="none" class="color_29">
            <path fill="none" d="M-54.08,-43.64 L -52.99 -29.4 -51.9 -15.9 -50.8 -4.93 -49.71 0.16 -48.62 0.85 -47.53 0.93 -46.43 0.93 -45.34 0.93 -44.25 0.93 -43.16 0.93 -42.06 0.93 -40.97 0.93 -39.88 0.93 -38.79 0.89 -37.69 0.96 -36.6 0.96 -35.51 0.96 -34.42 0.96 -33.32 0.96 -32.23 0.96 -31.14 0.96 -30.05 0.96 -28.95 0.96 -27.86 0.96 -26.77 0.96 -25.67 0.96 -24.58 0.96 -23.49 0.96 -22.4 0.96 -21.3 0.96 -20.21 0.96 -19.12 0.96 -18.03 0.96 -16.93 0.96 -15.84 0.96 -14.75 0.96 -13.66 0.96 -12.56 0.96 -11.47 0.96 -10.38 0.96 -9.29 0.96 -8.19 0.96 -7.1 0.96 -6.01 0.96 -4.92 0.96 -3.82 0.96 -2.73 0.96 -1.64 0.96 -0.55 0.96 0.55 0.96 1.64 0.96 2.73 0.96 3.82 0.96 4.92 0.96 6.01 0.96 7.1 0.96 8.19 0.96 9.29 0.96 10.38 0.96 11.47 0.96 12.56 0.96 13.66 0.96 14.75 0.96 15.84 1 16.93 1.04 18.03 1.04 19.12 1.04 20.21 1.04 21.3 1.04 22.4 1.04 23.49 1.04 24.58 1.04 25.67 1.04 26.77 1.04 27.86 1.04 28.95 1.04 30.05 1.04 31.14 1.04 32.23 1.04 33.32 1.04 34.42 1.04 35.51 1.04 36.6 1.04 37.69 1.04 38.79 1.04 39.88 1.04 40.97 1.04 42.06 1.04 43.16 1.04 44.25 1.04 45.34 1.04 46.43 1.04 47.53 1.04 48.62 1.04 49.71 1.04 50.8 1.04 51.9 1.04 52.99 1.04 54.08 1.04" class="primitive"/>
          </g>
        </g>
      </g>
    </g>
  </g>
  <g class="guide ylabels" font-size="2.82" font-family="'PT Sans Caption','Helvetica Neue','Helvetica',sans-serif" fill="#6C606B" id="img-5a7c5f9b-117">
    <g transform="translate(16.96,78.72)" id="img-5a7c5f9b-118">
      <g class="primitive">
        <text text-anchor="end" dy="0.35em">0</text>
      </g>
    </g>
    <g transform="translate(16.96,60.79)" id="img-5a7c5f9b-119">
      <g class="primitive">
        <text text-anchor="end" dy="0.35em">10</text>
      </g>
    </g>
    <g transform="translate(16.96,42.86)" id="img-5a7c5f9b-120">
      <g class="primitive">
        <text text-anchor="end" dy="0.35em">20</text>
      </g>
    </g>
    <g transform="translate(16.96,24.93)" id="img-5a7c5f9b-121">
      <g class="primitive">
        <text text-anchor="end" dy="0.35em">30</text>
      </g>
    </g>
    <g transform="translate(16.96,7)" id="img-5a7c5f9b-122">
      <g class="primitive">
        <text text-anchor="end" dy="0.35em">40</text>
      </g>
    </g>
  </g>
  <g font-size="3.88" font-family="'PT Sans','Helvetica Neue','Helvetica',sans-serif" fill="#564A55" stroke="#000000" stroke-opacity="0.000" id="img-5a7c5f9b-123">
    <g transform="translate(8.81,40.86)" id="img-5a7c5f9b-124">
      <g class="primitive">
        <text text-anchor="middle" dy="0.35em" transform="rotate(-90,0, 2)">Numero Medio de Variedades por UD</text>
      </g>
    </g>
  </g>
</g>
<defs>
  <clipPath id="img-5a7c5f9b-71">
    <path d="M17.96,5 L 131.21 5 131.21 80.72 17.96 80.72" />
  </clipPath>
</defs>
</svg>
