<?xml version="1.0" encoding="UTF-8"?>
<svg xmlns="http://www.w3.org/2000/svg"
     xmlns:xlink="http://www.w3.org/1999/xlink"
     xmlns:gadfly="http://www.gadflyjl.org/ns"
     version="1.2"
     width="200mm" height="100mm" viewBox="0 0 200 100"
     stroke="none"
     fill="#000000"
     stroke-width="0.3"
     font-size="3.88"
>
<defs>
  <marker id="arrow" markerWidth="15" markerHeight="7" refX="5" refY="3.5" orient="auto" markerUnits="strokeWidth">
    <path d="M0,0 L15,3.5 L0,7 z" stroke="context-stroke" fill="context-stroke"/>
  </marker>
</defs>
<g class="plotroot xscalable yscalable" id="img-7d29dcbc-1">
  <g font-size="3.88" font-family="'PT Sans','Helvetica Neue','Helvetica',sans-serif" fill="#564A55" stroke="#000000" stroke-opacity="0.000" id="img-7d29dcbc-2">
    <g transform="translate(77.83,88.39)">
      <g class="primitive">
        <text text-anchor="middle" dy="0.6em">Tempo</text>
      </g>
    </g>
  </g>
  <g class="guide xlabels" font-size="2.82" font-family="'PT Sans Caption','Helvetica Neue','Helvetica',sans-serif" fill="#6C606B" id="img-7d29dcbc-3">
    <g transform="translate(12.35,81.72)">
      <g class="primitive">
        <text text-anchor="middle" dy="0.6em">0</text>
      </g>
    </g>
    <g transform="translate(77.83,81.72)">
      <g class="primitive">
        <text text-anchor="middle" dy="0.6em">500</text>
      </g>
    </g>
    <g transform="translate(143.31,81.72)">
      <g class="primitive">
        <text text-anchor="middle" dy="0.6em">1000</text>
      </g>
    </g>
  </g>
  <g class="guide colorkey" id="img-7d29dcbc-4">
    <g fill="#4C404B" font-size="2.82" font-family="'PT Sans','Helvetica Neue','Helvetica',sans-serif" id="img-7d29dcbc-5">
      <g transform="translate(149.12,42.86)" id="img-7d29dcbc-6">
        <g class="primitive">
          <text dy="0.35em">Número de Variedades</text>
        </g>
      </g>
      <g transform="translate(149.12,46.48)" id="img-7d29dcbc-7">
        <g class="primitive">
          <text dy="0.35em">Número Médio de Variedades por UD</text>
        </g>
      </g>
    </g>
    <g stroke="#000000" stroke-opacity="0.000" id="img-7d29dcbc-8">
      <g transform="translate(147.21,42.86)" id="img-7d29dcbc-9" fill="#008000">
        <path d="M-0.91,-0.91 L 0.91 -0.91 0.91 0.91 -0.91 0.91 z" class="primitive"/>
      </g>
      <g transform="translate(147.21,46.48)" id="img-7d29dcbc-10" fill="#FF0000">
        <path d="M-0.91,-0.91 L 0.91 -0.91 0.91 0.91 -0.91 0.91 z" class="primitive"/>
      </g>
    </g>
    <g fill="#362A35" font-size="3.88" font-family="'PT Sans','Helvetica Neue','Helvetica',sans-serif" stroke="#000000" stroke-opacity="0.000" id="img-7d29dcbc-11">
      <g transform="translate(146.31,39.04)" id="img-7d29dcbc-12">
        <g class="primitive">
          <text></text>
        </g>
      </g>
    </g>
  </g>
  <g clip-path="url(#img-7d29dcbc-13)">
    <g id="img-7d29dcbc-14">
      <g pointer-events="visible" fill="#000000" fill-opacity="0.000" stroke="#000000" stroke-opacity="0.000" class="guide background" id="img-7d29dcbc-15">
        <g transform="translate(77.83,42.86)" id="img-7d29dcbc-16">
          <path d="M-67.48,-37.86 L 67.48 -37.86 67.48 37.86 -67.48 37.86 z" class="primitive"/>
        </g>
      </g>
      <g class="guide ygridlines xfixed" stroke-dasharray="0.5,0.5" stroke-width="0.2" stroke="#D0D0E0" id="img-7d29dcbc-17">
        <g transform="translate(77.83,78.71)" id="img-7d29dcbc-18">
          <path fill="none" d="M-67.48,0 L 67.48 0" class="primitive"/>
        </g>
        <g transform="translate(77.83,64.37)" id="img-7d29dcbc-19">
          <path fill="none" d="M-67.48,0 L 67.48 0" class="primitive"/>
        </g>
        <g transform="translate(77.83,50.03)" id="img-7d29dcbc-20">
          <path fill="none" d="M-67.48,0 L 67.48 0" class="primitive"/>
        </g>
        <g transform="translate(77.83,35.69)" id="img-7d29dcbc-21">
          <path fill="none" d="M-67.48,0 L 67.48 0" class="primitive"/>
        </g>
        <g transform="translate(77.83,21.34)" id="img-7d29dcbc-22">
          <path fill="none" d="M-67.48,0 L 67.48 0" class="primitive"/>
        </g>
        <g transform="translate(77.83,7)" id="img-7d29dcbc-23">
          <path fill="none" d="M-67.48,0 L 67.48 0" class="primitive"/>
        </g>
      </g>
      <g class="guide xgridlines yfixed" stroke-dasharray="0.5,0.5" stroke-width="0.2" stroke="#D0D0E0" id="img-7d29dcbc-24">
        <g transform="translate(12.35,42.86)" id="img-7d29dcbc-25">
          <path fill="none" d="M0,-37.86 L 0 37.86" class="primitive"/>
        </g>
        <g transform="translate(77.83,42.86)" id="img-7d29dcbc-26">
          <path fill="none" d="M0,-37.86 L 0 37.86" class="primitive"/>
        </g>
        <g transform="translate(143.31,42.86)" id="img-7d29dcbc-27">
          <path fill="none" d="M0,-37.86 L 0 37.86" class="primitive"/>
        </g>
      </g>
      <g class="plotpanel" id="img-7d29dcbc-28">
        <metadata>
          <boundingbox value="10.346666666666664mm 5.0mm 134.95999999999998mm 75.715mm"/>
          <unitbox value="-15.27183872938302 51.39440842222687 1030.543677458766 -52.78881684445375"/>
        </metadata>
        <g stroke-width="0.3" fill="#000000" fill-opacity="0.000" class="geometry" id="img-7d29dcbc-29">
          <g class="color_RGB{N0f8}(1.0,0.0,0.0)" stroke-dasharray="none" stroke="#FF0000" id="img-7d29dcbc-30">
            <g transform="translate(77.17,72.27)" id="img-7d29dcbc-31">
              <path fill="none" d="M-64.83,-38.5 L -63.52 -26.87 -62.21 -16.34 -60.9 -6.89 -59.59 -1.34 -58.28 0.29 -56.97 0.68 -55.66 0.81 -54.35 0.87 -53.04 0.9 -51.73 0.91 -50.42 0.92 -49.11 0.92 -47.8 0.93 -46.49 0.93 -45.18 0.93 -43.87 0.93 -42.56 0.93 -41.25 0.93 -39.94 0.94 -38.63 0.94 -37.32 0.94 -36.01 0.94 -34.7 0.94 -33.39 0.94 -32.09 0.94 -30.78 0.94 -29.47 0.94 -28.16 0.94 -26.85 0.94 -25.54 0.94 -24.23 0.94 -22.92 0.94 -21.61 0.94 -20.3 0.94 -18.99 0.95 -17.68 0.95 -16.37 0.95 -15.06 0.95 -13.75 0.95 -12.44 0.95 -11.13 0.95 -9.82 0.95 -8.51 0.95 -7.2 0.95 -5.89 0.95 -4.58 0.96 -3.27 0.96 -1.96 0.96 -0.65 0.96 0.65 0.96 1.96 0.96 3.27 0.96 4.58 0.96 5.89 0.96 7.2 0.96 8.51 0.96 9.82 0.96 11.13 0.96 12.44 0.96 13.75 0.96 15.06 0.96 16.37 0.97 17.68 0.97 18.99 0.97 20.3 0.97 21.61 0.97 22.92 0.97 24.23 0.97 25.54 0.97 26.85 0.97 28.16 0.97 29.47 0.97 30.78 0.97 32.09 0.97 33.39 0.97 34.7 0.97 36.01 0.98 37.32 0.98 38.63 0.98 39.94 0.98 41.25 0.98 42.56 0.98 43.87 0.98 45.18 0.98 46.49 0.98 47.8 0.98 49.11 0.98 50.42 0.98 51.73 0.99 53.04 0.99 54.35 0.99 55.66 0.99 56.97 0.99 58.28 0.99 59.59 0.99 60.9 0.99 62.21 0.99 63.52 0.99 64.83 0.99" class="primitive"/>
            </g>
          </g>
        </g>
        <g stroke-width="0.3" fill="#000000" fill-opacity="0.000" class="geometry" id="img-7d29dcbc-32">
          <g class="color_RGB{N0f8}(0.0,0.502,0.0)" stroke-dasharray="none" stroke="#008000" id="img-7d29dcbc-33">
            <g transform="translate(77.17,44.32)" id="img-7d29dcbc-34">
              <path fill="none" d="M-64.83,-37.1 L -63.52 -37.1 -62.21 -36.75 -60.9 -29.62 -59.59 -17.18 -58.28 -5.83 -56.97 -0.36 -55.66 0.98 -54.35 1.47 -53.04 1.74 -51.73 1.84 -50.42 1.9 -49.11 1.91 -47.8 1.93 -46.49 1.94 -45.18 1.95 -43.87 1.95 -42.56 1.94 -41.25 1.94 -39.94 1.94 -38.63 1.94 -37.32 1.94 -36.01 1.93 -34.7 1.93 -33.39 1.92 -32.09 1.92 -30.78 1.91 -29.47 1.91 -28.16 1.91 -26.85 1.91 -25.54 1.9 -24.23 1.91 -22.92 1.89 -21.61 1.89 -20.3 1.87 -18.99 1.87 -17.68 1.86 -16.37 1.87 -15.06 1.86 -13.75 1.85 -12.44 1.86 -11.13 1.87 -9.82 1.85 -8.51 1.84 -7.2 1.83 -5.89 1.83 -4.58 1.83 -3.27 1.82 -1.96 1.82 -0.65 1.81 0.65 1.8 1.96 1.8 3.27 1.79 4.58 1.77 5.89 1.76 7.2 1.77 8.51 1.76 9.82 1.76 11.13 1.76 12.44 1.75 13.75 1.74 15.06 1.74 16.37 1.74 17.68 1.72 18.99 1.73 20.3 1.73 21.61 1.72 22.92 1.71 24.23 1.72 25.54 1.72 26.85 1.71 28.16 1.7 29.47 1.7 30.78 1.69 32.09 1.69 33.39 1.68 34.7 1.68 36.01 1.67 37.32 1.66 38.63 1.67 39.94 1.67 41.25 1.66 42.56 1.65 43.87 1.65 45.18 1.63 46.49 1.62 47.8 1.63 49.11 1.63 50.42 1.63 51.73 1.62 53.04 1.62 54.35 1.61 55.66 1.61 56.97 1.59 58.28 1.59 59.59 1.59 60.9 1.58 62.21 1.59 63.52 1.58 64.83 1.58" class="primitive"/>
            </g>
          </g>
        </g>
      </g>
    </g>
  </g>
  <g class="guide ylabels" font-size="2.82" font-family="'PT Sans Caption','Helvetica Neue','Helvetica',sans-serif" fill="#6C606B" id="img-7d29dcbc-35">
    <g transform="translate(9.35,78.71)" id="img-7d29dcbc-36">
      <g class="primitive">
        <text text-anchor="end" dy="0.35em">0</text>
      </g>
    </g>
    <g transform="translate(9.35,64.37)" id="img-7d29dcbc-37">
      <g class="primitive">
        <text text-anchor="end" dy="0.35em">10</text>
      </g>
    </g>
    <g transform="translate(9.35,50.03)" id="img-7d29dcbc-38">
      <g class="primitive">
        <text text-anchor="end" dy="0.35em">20</text>
      </g>
    </g>
    <g transform="translate(9.35,35.69)" id="img-7d29dcbc-39">
      <g class="primitive">
        <text text-anchor="end" dy="0.35em">30</text>
      </g>
    </g>
    <g transform="translate(9.35,21.34)" id="img-7d29dcbc-40">
      <g class="primitive">
        <text text-anchor="end" dy="0.35em">40</text>
      </g>
    </g>
    <g transform="translate(9.35,7)" id="img-7d29dcbc-41">
      <g class="primitive">
        <text text-anchor="end" dy="0.35em">50</text>
      </g>
    </g>
  </g>
</g>
<defs>
  <clipPath id="img-7d29dcbc-13">
    <path d="M10.35,5 L 145.31 5 145.31 80.72 10.35 80.72" />
  </clipPath>
</defs>
</svg>
