<?xml version="1.0" encoding="UTF-8"?>
<svg xmlns="http://www.w3.org/2000/svg"
     xmlns:xlink="http://www.w3.org/1999/xlink"
     xmlns:gadfly="http://www.gadflyjl.org/ns"
     version="1.2"
     width="150mm" height="100mm" viewBox="0 0 150 100"
     stroke="none"
     fill="#000000"
     stroke-width="0.3"
     font-size="3.88"
>
<defs>
  <marker id="arrow" markerWidth="15" markerHeight="7" refX="5" refY="3.5" orient="auto" markerUnits="strokeWidth">
    <path d="M0,0 L15,3.5 L0,7 z" stroke="context-stroke" fill="context-stroke"/>
  </marker>
</defs>
<g class="plotroot xscalable yscalable" id="img-aa685baa-1">
  <g font-size="3.88" font-family="'PT Sans','Helvetica Neue','Helvetica',sans-serif" fill="#564A55" stroke="#000000" stroke-opacity="0.000" id="img-aa685baa-2">
    <g transform="translate(77.67,88.39)">
      <g class="primitive">
        <text text-anchor="middle" dy="0.6em">Appearence</text>
      </g>
    </g>
  </g>
  <g class="guide xlabels" font-size="2.82" font-family="'PT Sans Caption','Helvetica Neue','Helvetica',sans-serif" fill="#6C606B" id="img-aa685baa-3">
    <g transform="translate(22.31,81.72)">
      <g class="primitive">
        <text text-anchor="middle" dy="0.6em">0.0</text>
      </g>
    </g>
    <g transform="translate(77.67,81.72)">
      <g class="primitive">
        <text text-anchor="middle" dy="0.6em">0.5</text>
      </g>
    </g>
    <g transform="translate(133.03,81.72)">
      <g class="primitive">
        <text text-anchor="middle" dy="0.6em">1.0</text>
      </g>
    </g>
  </g>
  <g class="guide colorkey" id="img-aa685baa-4">
    <g fill="#4C404B" font-size="2.82" font-family="'PT Sans','Helvetica Neue','Helvetica',sans-serif" id="img-aa685baa-5">
      <g transform="translate(138.84,39.23)" id="img-aa685baa-6" class="color_1">
        <g class="primitive">
          <text dy="0.35em">1</text>
        </g>
      </g>
      <g transform="translate(138.84,42.86)" id="img-aa685baa-7" class="color_7">
        <g class="primitive">
          <text dy="0.35em">7</text>
        </g>
      </g>
      <g transform="translate(138.84,46.48)" id="img-aa685baa-8" class="color_49">
        <g class="primitive">
          <text dy="0.35em">49</text>
        </g>
      </g>
      <g transform="translate(138.84,50.11)" id="img-aa685baa-9" class="color_2401">
        <g class="primitive">
          <text dy="0.35em">2401</text>
        </g>
      </g>
    </g>
    <g stroke="#000000" stroke-opacity="0.000" id="img-aa685baa-10">
      <g transform="translate(136.93,39.23)" id="img-aa685baa-11" fill="#00BFFF" class="color_1">
        <path d="M-0.91,-0.91 L 0.91 -0.91 0.91 0.91 -0.91 0.91 z" class="primitive"/>
      </g>
      <g transform="translate(136.93,42.86)" id="img-aa685baa-12" fill="#D4CA3A" class="color_7">
        <path d="M-0.91,-0.91 L 0.91 -0.91 0.91 0.91 -0.91 0.91 z" class="primitive"/>
      </g>
      <g transform="translate(136.93,46.48)" id="img-aa685baa-13" fill="#FF6DAE" class="color_49">
        <path d="M-0.91,-0.91 L 0.91 -0.91 0.91 0.91 -0.91 0.91 z" class="primitive"/>
      </g>
      <g transform="translate(136.93,50.11)" id="img-aa685baa-14" fill="#00B78D" class="color_2401">
        <path d="M-0.91,-0.91 L 0.91 -0.91 0.91 0.91 -0.91 0.91 z" class="primitive"/>
      </g>
    </g>
    <g fill="#362A35" font-size="3.88" font-family="'PT Sans','Helvetica Neue','Helvetica',sans-serif" stroke="#000000" stroke-opacity="0.000" id="img-aa685baa-15">
      <g transform="translate(136.03,35.41)" id="img-aa685baa-16">
        <g class="primitive">
          <text>r</text>
        </g>
      </g>
    </g>
  </g>
  <g clip-path="url(#img-aa685baa-17)">
    <g id="img-aa685baa-18">
      <g pointer-events="visible" fill="#000000" fill-opacity="0.000" stroke="#000000" stroke-opacity="0.000" class="guide background" id="img-aa685baa-19">
        <g transform="translate(77.67,42.86)" id="img-aa685baa-20">
          <path d="M-57.36,-37.86 L 57.36 -37.86 57.36 37.86 -57.36 37.86 z" class="primitive"/>
        </g>
      </g>
      <g class="guide ygridlines xfixed" stroke-dasharray="0.5,0.5" stroke-width="0.2" stroke="#D0D0E0" id="img-aa685baa-21">
        <g transform="translate(77.67,78.72)" id="img-aa685baa-22">
          <path fill="none" d="M-57.36,0 L 57.36 0" class="primitive"/>
        </g>
        <g transform="translate(77.67,60.79)" id="img-aa685baa-23">
          <path fill="none" d="M-57.36,0 L 57.36 0" class="primitive"/>
        </g>
        <g transform="translate(77.67,42.86)" id="img-aa685baa-24">
          <path fill="none" d="M-57.36,0 L 57.36 0" class="primitive"/>
        </g>
        <g transform="translate(77.67,24.93)" id="img-aa685baa-25">
          <path fill="none" d="M-57.36,0 L 57.36 0" class="primitive"/>
        </g>
        <g transform="translate(77.67,7)" id="img-aa685baa-26">
          <path fill="none" d="M-57.36,0 L 57.36 0" class="primitive"/>
        </g>
      </g>
      <g class="guide xgridlines yfixed" stroke-dasharray="0.5,0.5" stroke-width="0.2" stroke="#D0D0E0" id="img-aa685baa-27">
        <g transform="translate(22.31,42.86)" id="img-aa685baa-28">
          <path fill="none" d="M0,-37.86 L 0 37.86" class="primitive"/>
        </g>
        <g transform="translate(77.67,42.86)" id="img-aa685baa-29">
          <path fill="none" d="M0,-37.86 L 0 37.86" class="primitive"/>
        </g>
        <g transform="translate(133.03,42.86)" id="img-aa685baa-30">
          <path fill="none" d="M0,-37.86 L 0 37.86" class="primitive"/>
        </g>
      </g>
      <g class="plotpanel" id="img-aa685baa-31">
        <metadata>
          <boundingbox value="20.305000000000007mm 5.0mm 114.72166666666666mm 75.715mm"/>
          <unitbox value="-0.018063311908238375 0.2055776336889075 1.0361266238164768 -0.21115526737781498"/>
        </metadata>
        <g stroke-width="0.3" fill="#000000" fill-opacity="0.000" class="geometry" id="img-aa685baa-32">
          <g transform="translate(77.67,60.79)" id="img-aa685baa-33" stroke="#00BFFF" stroke-dasharray="none" class="color_1">
            <path fill="none" d="M-52.59,17.91 L -47.06 17.9 -41.52 17.75 -35.98 17.2 -30.45 14.94 -24.91 10.29 -19.38 1.73 -13.84 -15.96 -8.3 -38.61 -2.77 -41.18 2.77 -48.95 8.3 -32.18 13.84 -15.73 19.38 -1.09 24.91 9.98 30.45 15 35.98 17.4 41.52 17.8 47.06 17.87 52.59 17.93" class="primitive"/>
          </g>
          <g transform="translate(77.67,60.79)" id="img-aa685baa-34" stroke="#D4CA3A" stroke-dasharray="none" class="color_7">
            <path fill="none" d="M-52.59,17.93 L -47.06 17.88 -41.52 17.76 -35.98 17.1 -30.45 15.16 -24.91 10.57 -19.38 0.26 -13.84 -16.16 -8.3 -33.41 -2.77 -51.23 2.77 -45.64 8.3 -34.33 13.84 -13.58 19.38 0.4 24.91 10.94 30.45 15.65 35.98 17.15 41.52 17.71 47.06 17.91 52.59 17.93" class="primitive"/>
          </g>
          <g transform="translate(77.67,60.79)" id="img-aa685baa-35" stroke="#FF6DAE" stroke-dasharray="none" class="color_49">
            <path fill="none" d="M-52.59,17.68 L -47.06 17.43 -41.52 16.95 -35.98 15.65 -30.45 13.15 -24.91 8.21 -19.38 -0.76 -13.84 -15.12 -8.3 -29.58 -2.77 -40.77 2.77 -43.83 8.3 -30.08 13.84 -15.48 19.38 -2.07 24.91 7.94 30.45 13.18 35.98 15.52 41.52 16.89 47.06 17.41 52.59 17.65" class="primitive"/>
          </g>
          <g transform="translate(77.67,60.79)" id="img-aa685baa-36" stroke="#00B78D" stroke-dasharray="none" class="color_2401">
            <path fill="none" d="M-52.59,17.62 L -47.06 17.34 -41.52 16.76 -35.98 15.33 -30.45 12.58 -24.91 7.57 -19.38 -1.98 -13.84 -14.52 -8.3 -27.63 -2.77 -43.51 2.77 -41.32 8.3 -28.73 13.84 -14.84 19.38 -1.68 24.91 7.14 30.45 12.81 35.98 15.46 41.52 16.68 47.06 17.32 52.59 17.61" class="primitive"/>
          </g>
        </g>
      </g>
    </g>
  </g>
  <g class="guide ylabels" font-size="2.82" font-family="'PT Sans Caption','Helvetica Neue','Helvetica',sans-serif" fill="#6C606B" id="img-aa685baa-37">
    <g transform="translate(19.3,78.72)" id="img-aa685baa-38">
      <g class="primitive">
        <text text-anchor="end" dy="0.35em">0.00</text>
      </g>
    </g>
    <g transform="translate(19.3,60.79)" id="img-aa685baa-39">
      <g class="primitive">
        <text text-anchor="end" dy="0.35em">0.05</text>
      </g>
    </g>
    <g transform="translate(19.3,42.86)" id="img-aa685baa-40">
      <g class="primitive">
        <text text-anchor="end" dy="0.35em">0.10</text>
      </g>
    </g>
    <g transform="translate(19.3,24.93)" id="img-aa685baa-41">
      <g class="primitive">
        <text text-anchor="end" dy="0.35em">0.15</text>
      </g>
    </g>
    <g transform="translate(19.3,7)" id="img-aa685baa-42">
      <g class="primitive">
        <text text-anchor="end" dy="0.35em">0.20</text>
      </g>
    </g>
  </g>
  <g font-size="3.88" font-family="'PT Sans','Helvetica Neue','Helvetica',sans-serif" fill="#564A55" stroke="#000000" stroke-opacity="0.000" id="img-aa685baa-43">
    <g transform="translate(8.81,40.86)" id="img-aa685baa-44">
      <g class="primitive">
        <text text-anchor="middle" dy="0.35em" transform="rotate(-90,0, 2)">Frequencia</text>
      </g>
    </g>
  </g>
</g>
<defs>
  <clipPath id="img-aa685baa-17">
    <path d="M20.31,5 L 135.03 5 135.03 80.72 20.31 80.72" />
  </clipPath>
</defs>
</svg>
