<?xml version="1.0" encoding="UTF-8"?>
<svg xmlns="http://www.w3.org/2000/svg"
     xmlns:xlink="http://www.w3.org/1999/xlink"
     xmlns:gadfly="http://www.gadflyjl.org/ns"
     version="1.2"
     width="150mm" height="100mm" viewBox="0 0 150 100"
     stroke="none"
     fill="#000000"
     stroke-width="0.3"
     font-size="3.88"
>
<defs>
  <marker id="arrow" markerWidth="15" markerHeight="7" refX="5" refY="3.5" orient="auto" markerUnits="strokeWidth">
    <path d="M0,0 L15,3.5 L0,7 z" stroke="context-stroke" fill="context-stroke"/>
  </marker>
</defs>
<g class="plotroot xscalable yscalable" id="img-5acef308-1">
  <g font-size="3.88" font-family="'PT Sans','Helvetica Neue','Helvetica',sans-serif" fill="#564A55" stroke="#000000" stroke-opacity="0.000" id="img-5acef308-2">
    <g transform="translate(77.3,88.39)">
      <g class="primitive">
        <text text-anchor="middle" dy="0.6em">Numero Medio de Variedades por UD</text>
      </g>
    </g>
  </g>
  <g class="guide xlabels" font-size="2.82" font-family="'PT Sans Caption','Helvetica Neue','Helvetica',sans-serif" fill="#6C606B" id="img-5acef308-3">
    <g transform="translate(20.63,81.72)">
      <g class="primitive">
        <text text-anchor="middle" dy="0.6em">0</text>
      </g>
    </g>
    <g transform="translate(48.96,81.72)">
      <g class="primitive">
        <text text-anchor="middle" dy="0.6em">5</text>
      </g>
    </g>
    <g transform="translate(77.3,81.72)">
      <g class="primitive">
        <text text-anchor="middle" dy="0.6em">10</text>
      </g>
    </g>
    <g transform="translate(105.63,81.72)">
      <g class="primitive">
        <text text-anchor="middle" dy="0.6em">15</text>
      </g>
    </g>
    <g transform="translate(133.96,81.72)">
      <g class="primitive">
        <text text-anchor="middle" dy="0.6em">20</text>
      </g>
    </g>
  </g>
  <g class="guide colorkey" id="img-5acef308-4">
    <g fill="#4C404B" font-size="2.82" font-family="'PT Sans','Helvetica Neue','Helvetica',sans-serif" id="img-5acef308-5">
      <g transform="translate(139.77,37.42)" id="img-5acef308-6" class="color_0.0">
        <g class="primitive">
          <text dy="0.35em">0.0</text>
        </g>
      </g>
      <g transform="translate(139.77,41.04)" id="img-5acef308-7" class="color_0.25">
        <g class="primitive">
          <text dy="0.35em">0.25</text>
        </g>
      </g>
      <g transform="translate(139.77,44.67)" id="img-5acef308-8" class="color_0.5">
        <g class="primitive">
          <text dy="0.35em">0.5</text>
        </g>
      </g>
      <g transform="translate(139.77,48.3)" id="img-5acef308-9" class="color_0.75">
        <g class="primitive">
          <text dy="0.35em">0.75</text>
        </g>
      </g>
      <g transform="translate(139.77,51.92)" id="img-5acef308-10" class="color_1.0">
        <g class="primitive">
          <text dy="0.35em">1.0</text>
        </g>
      </g>
    </g>
    <g stroke="#000000" stroke-opacity="0.000" id="img-5acef308-11">
      <g transform="translate(137.87,37.42)" id="img-5acef308-12" fill="#00BFFF" class="color_0.0">
        <path d="M-0.91,-0.91 L 0.91 -0.91 0.91 0.91 -0.91 0.91 z" class="primitive"/>
      </g>
      <g transform="translate(137.87,41.04)" id="img-5acef308-13" fill="#D4CA3A" class="color_0.25">
        <path d="M-0.91,-0.91 L 0.91 -0.91 0.91 0.91 -0.91 0.91 z" class="primitive"/>
      </g>
      <g transform="translate(137.87,44.67)" id="img-5acef308-14" fill="#FF6DAE" class="color_0.5">
        <path d="M-0.91,-0.91 L 0.91 -0.91 0.91 0.91 -0.91 0.91 z" class="primitive"/>
      </g>
      <g transform="translate(137.87,48.3)" id="img-5acef308-15" fill="#00B78D" class="color_0.75">
        <path d="M-0.91,-0.91 L 0.91 -0.91 0.91 0.91 -0.91 0.91 z" class="primitive"/>
      </g>
      <g transform="translate(137.87,51.92)" id="img-5acef308-16" fill="#BEA9FF" class="color_1.0">
        <path d="M-0.91,-0.91 L 0.91 -0.91 0.91 0.91 -0.91 0.91 z" class="primitive"/>
      </g>
    </g>
    <g fill="#362A35" font-size="3.88" font-family="'PT Sans','Helvetica Neue','Helvetica',sans-serif" stroke="#000000" stroke-opacity="0.000" id="img-5acef308-17">
      <g transform="translate(136.96,33.6)" id="img-5acef308-18">
        <g class="primitive">
          <text>b</text>
        </g>
      </g>
    </g>
  </g>
  <g clip-path="url(#img-5acef308-19)">
    <g id="img-5acef308-20">
      <g pointer-events="visible" fill="#000000" fill-opacity="0.000" stroke="#000000" stroke-opacity="0.000" class="guide background" id="img-5acef308-21">
        <g transform="translate(77.3,42.86)" id="img-5acef308-22">
          <path d="M-58.66,-37.86 L 58.66 -37.86 58.66 37.86 -58.66 37.86 z" class="primitive"/>
        </g>
      </g>
      <g class="guide ygridlines xfixed" stroke-dasharray="0.5,0.5" stroke-width="0.2" stroke="#D0D0E0" id="img-5acef308-23">
        <g transform="translate(77.3,78.71)" id="img-5acef308-24">
          <path fill="none" d="M-58.66,0 L 58.66 0" class="primitive"/>
        </g>
        <g transform="translate(77.3,42.86)" id="img-5acef308-25">
          <path fill="none" d="M-58.66,0 L 58.66 0" class="primitive"/>
        </g>
        <g transform="translate(77.3,7)" id="img-5acef308-26">
          <path fill="none" d="M-58.66,0 L 58.66 0" class="primitive"/>
        </g>
      </g>
      <g class="guide xgridlines yfixed" stroke-dasharray="0.5,0.5" stroke-width="0.2" stroke="#D0D0E0" id="img-5acef308-27">
        <g transform="translate(20.63,42.86)" id="img-5acef308-28">
          <path fill="none" d="M0,-37.86 L 0 37.86" class="primitive"/>
        </g>
        <g transform="translate(48.96,42.86)" id="img-5acef308-29">
          <path fill="none" d="M0,-37.86 L 0 37.86" class="primitive"/>
        </g>
        <g transform="translate(77.3,42.86)" id="img-5acef308-30">
          <path fill="none" d="M0,-37.86 L 0 37.86" class="primitive"/>
        </g>
        <g transform="translate(105.63,42.86)" id="img-5acef308-31">
          <path fill="none" d="M0,-37.86 L 0 37.86" class="primitive"/>
        </g>
        <g transform="translate(133.96,42.86)" id="img-5acef308-32">
          <path fill="none" d="M0,-37.86 L 0 37.86" class="primitive"/>
        </g>
      </g>
      <g class="plotpanel" id="img-5acef308-33">
        <metadata>
          <boundingbox value="18.63166666666666mm 5.0mm 117.32833333333332mm 75.715mm"/>
          <unitbox value="-0.35295674809182764 1.0278881684445373 20.705913496183655 -1.055776336889075"/>
        </metadata>
        <g stroke-width="0.3" fill="#000000" fill-opacity="0.000" class="geometry" id="img-5acef308-34">
          <g transform="translate(162.29,77.25)" id="img-5acef308-35" stroke-dasharray="none" stroke="#00BFFF" class="color_0.0">
            <path fill="none" d="M-135.99,-13.54 L -130.33 -11.56 -124.66 -8.77 -118.99 -7.88 -113.33 -6.3 -107.66 -4.65 -102 -2.91 -96.33 -1.37 -90.66 -0.16 -85 0.68 -79.33 1.08 -73.66 1.31 -68 1.39 -62.33 1.44 -56.66 1.45 -51 1.46 -45.33 1.46 -39.66 1.46 -34 1.46 -28.33 1.46 -22.67 1.46 -17 1.46 -11.33 1.46 -5.67 1.46 -0 1.46 5.67 1.46 11.33 1.46 17 1.46 22.67 1.46 28.33 1.46 34 1.46 39.66 1.46 45.33 1.46 51 1.46 56.66 1.46 62.33 1.46 68 1.46 73.66 1.46 79.33 1.46 85 1.46 90.66 1.46 96.33 1.46 102 1.46 107.66 1.46 113.33 1.46 118.99 1.46 124.66 1.46 130.33 1.46 135.99 1.46" class="primitive"/>
          </g>
          <g transform="translate(162.29,77.25)" id="img-5acef308-36" stroke-dasharray="none" stroke="#D4CA3A" class="color_0.25">
            <path fill="none" d="M-135.99,-13.8 L -130.33 -11.29 -124.66 -8.64 -118.99 -7.76 -113.33 -6.44 -107.66 -4.62 -102 -2.84 -96.33 -1.39 -90.66 -0.24 -85 0.59 -79.33 1.11 -73.66 1.29 -68 1.39 -62.33 1.44 -56.66 1.45 -51 1.46 -45.33 1.46 -39.66 1.46 -34 1.46 -28.33 1.46 -22.67 1.46 -17 1.46 -11.33 1.46 -5.67 1.46 -0 1.46 5.67 1.46 11.33 1.46 17 1.46 22.67 1.46 28.33 1.46 34 1.46 39.66 1.46 45.33 1.46 51 1.46 56.66 1.46 62.33 1.46 68 1.46 73.66 1.46 79.33 1.46 85 1.46 90.66 1.46 96.33 1.46 102 1.46 107.66 1.46 113.33 1.46 118.99 1.46 124.66 1.46 130.33 1.46 135.99 1.46" class="primitive"/>
          </g>
          <g transform="translate(162.29,77.25)" id="img-5acef308-37" stroke-dasharray="none" stroke="#FF6DAE" class="color_0.5">
            <path fill="none" d="M-135.99,-13.73 L -130.33 -11.14 -124.66 -8.42 -118.99 -7.59 -113.33 -6.4 -107.66 -4.68 -102 -3.01 -96.33 -1.59 -90.66 -0.24 -85 0.46 -79.33 1.02 -73.66 1.26 -68 1.4 -62.33 1.44 -56.66 1.46 -51 1.46 -45.33 1.46 -39.66 1.46 -34 1.46 -28.33 1.46 -22.67 1.46 -17 1.46 -11.33 1.46 -5.67 1.46 -0 1.46 5.67 1.46 11.33 1.46 17 1.46 22.67 1.46 28.33 1.46 34 1.46 39.66 1.46 45.33 1.46 51 1.46 56.66 1.46 62.33 1.46 68 1.46 73.66 1.46 79.33 1.46 85 1.46 90.66 1.46 96.33 1.46 102 1.46 107.66 1.46 113.33 1.46 118.99 1.46 124.66 1.46 130.33 1.46 135.99 1.46" class="primitive"/>
          </g>
          <g transform="translate(162.29,77.25)" id="img-5acef308-38" stroke-dasharray="none" stroke="#00B78D" class="color_0.75">
            <path fill="none" d="M-135.99,-13.46 L -130.33 -11.52 -124.66 -8.57 -118.99 -8 -113.33 -6.4 -107.66 -4.66 -102 -2.85 -96.33 -1.48 -90.66 -0.09 -85 0.56 -79.33 1.11 -73.66 1.3 -68 1.4 -62.33 1.43 -56.66 1.46 -51 1.46 -45.33 1.46 -39.66 1.46 -34 1.46 -28.33 1.46 -22.67 1.46 -17 1.46 -11.33 1.46 -5.67 1.46 -0 1.46 5.67 1.46 11.33 1.46 17 1.46 22.67 1.46 28.33 1.46 34 1.46 39.66 1.46 45.33 1.46 51 1.46 56.66 1.46 62.33 1.46 68 1.46 73.66 1.46 79.33 1.46 85 1.46 90.66 1.46 96.33 1.46 102 1.46 107.66 1.46 113.33 1.46 118.99 1.46 124.66 1.46 130.33 1.46 135.99 1.46" class="primitive"/>
          </g>
          <g transform="translate(162.29,77.25)" id="img-5acef308-39" stroke-dasharray="none" stroke="#BEA9FF" class="color_1.0">
            <path fill="none" d="M-135.99,-14.36 L -130.33 -12 -124.66 -8.97 -118.99 -7.4 -113.33 -5.98 -107.66 -4.3 -102 -2.63 -96.33 -1.22 -90.66 -0.07 -85 0.62 -79.33 1.02 -73.66 1.26 -68 1.39 -62.33 1.43 -56.66 1.45 -51 1.46 -45.33 1.46 -39.66 1.46 -34 1.46 -28.33 1.46 -22.67 1.46 -17 1.46 -11.33 1.46 -5.67 1.46 -0 1.46 5.67 1.46 11.33 1.46 17 1.46 22.67 1.46 28.33 1.46 34 1.46 39.66 1.46 45.33 1.46 51 1.46 56.66 1.46 62.33 1.46 68 1.46 73.66 1.46 79.33 1.46 85 1.46 90.66 1.46 96.33 1.46 102 1.46 107.66 1.46 113.33 1.46 118.99 1.46 124.66 1.46 130.33 1.46 135.99 1.46" class="primitive"/>
          </g>
        </g>
      </g>
    </g>
  </g>
  <g class="guide ylabels" font-size="2.82" font-family="'PT Sans Caption','Helvetica Neue','Helvetica',sans-serif" fill="#6C606B" id="img-5acef308-40">
    <g transform="translate(17.63,78.71)" id="img-5acef308-41">
      <g class="primitive">
        <text text-anchor="end" dy="0.35em">0.0</text>
      </g>
    </g>
    <g transform="translate(17.63,42.86)" id="img-5acef308-42">
      <g class="primitive">
        <text text-anchor="end" dy="0.35em">0.5</text>
      </g>
    </g>
    <g transform="translate(17.63,7)" id="img-5acef308-43">
      <g class="primitive">
        <text text-anchor="end" dy="0.35em">1.0</text>
      </g>
    </g>
  </g>
  <g font-size="3.88" font-family="'PT Sans','Helvetica Neue','Helvetica',sans-serif" fill="#564A55" stroke="#000000" stroke-opacity="0.000" id="img-5acef308-44">
    <g transform="translate(8.81,40.86)" id="img-5acef308-45">
      <g class="primitive">
        <text text-anchor="middle" dy="0.35em" transform="rotate(-90,0, 2)">Frequencia</text>
      </g>
    </g>
  </g>
</g>
<defs>
  <clipPath id="img-5acef308-19">
    <path d="M18.63,5 L 135.96 5 135.96 80.72 18.63 80.72" />
  </clipPath>
</defs>
</svg>
