<?xml version="1.0" encoding="UTF-8"?>
<svg xmlns="http://www.w3.org/2000/svg"
     xmlns:xlink="http://www.w3.org/1999/xlink"
     xmlns:gadfly="http://www.gadflyjl.org/ns"
     version="1.2"
     width="150mm" height="100mm" viewBox="0 0 150 100"
     stroke="none"
     fill="#000000"
     stroke-width="0.3"
     font-size="3.88"
>
<defs>
  <marker id="arrow" markerWidth="15" markerHeight="7" refX="5" refY="3.5" orient="auto" markerUnits="strokeWidth">
    <path d="M0,0 L15,3.5 L0,7 z" stroke="context-stroke" fill="context-stroke"/>
  </marker>
</defs>
<g class="plotroot xscalable yscalable" id="img-b8efddee-1">
  <g font-size="3.88" font-family="'PT Sans','Helvetica Neue','Helvetica',sans-serif" fill="#564A55" stroke="#000000" stroke-opacity="0.000" id="img-b8efddee-2">
    <g transform="translate(75.76,88.39)">
      <g class="primitive">
        <text text-anchor="middle" dy="0.6em">Numero Medio de Variedades por UD</text>
      </g>
    </g>
  </g>
  <g class="guide xlabels" font-size="2.82" font-family="'PT Sans Caption','Helvetica Neue','Helvetica',sans-serif" fill="#6C606B" id="img-b8efddee-3">
    <g transform="translate(20.63,81.72)">
      <g class="primitive">
        <text text-anchor="middle" dy="0.6em">0</text>
      </g>
    </g>
    <g transform="translate(48.19,81.72)">
      <g class="primitive">
        <text text-anchor="middle" dy="0.6em">5</text>
      </g>
    </g>
    <g transform="translate(75.76,81.72)">
      <g class="primitive">
        <text text-anchor="middle" dy="0.6em">10</text>
      </g>
    </g>
    <g transform="translate(103.32,81.72)">
      <g class="primitive">
        <text text-anchor="middle" dy="0.6em">15</text>
      </g>
    </g>
    <g transform="translate(130.88,81.72)">
      <g class="primitive">
        <text text-anchor="middle" dy="0.6em">20</text>
      </g>
    </g>
  </g>
  <g class="guide colorkey" id="img-b8efddee-4">
    <g fill="#4C404B" font-size="2.82" font-family="'PT Sans','Helvetica Neue','Helvetica',sans-serif" id="img-b8efddee-5">
      <g transform="translate(136.69,37.42)" id="img-b8efddee-6" class="color_0.005">
        <g class="primitive">
          <text dy="0.35em">0.005</text>
        </g>
      </g>
      <g transform="translate(136.69,41.04)" id="img-b8efddee-7" class="color_0.0075">
        <g class="primitive">
          <text dy="0.35em">0.0075</text>
        </g>
      </g>
      <g transform="translate(136.69,44.67)" id="img-b8efddee-8" class="color_0.01">
        <g class="primitive">
          <text dy="0.35em">0.01</text>
        </g>
      </g>
      <g transform="translate(136.69,48.3)" id="img-b8efddee-9" class="color_0.025">
        <g class="primitive">
          <text dy="0.35em">0.025</text>
        </g>
      </g>
      <g transform="translate(136.69,51.92)" id="img-b8efddee-10" class="color_0.05">
        <g class="primitive">
          <text dy="0.35em">0.05</text>
        </g>
      </g>
    </g>
    <g stroke="#000000" stroke-opacity="0.000" id="img-b8efddee-11">
      <g transform="translate(134.79,37.42)" id="img-b8efddee-12" fill="#00BFFF" class="color_0.005">
        <path d="M-0.91,-0.91 L 0.91 -0.91 0.91 0.91 -0.91 0.91 z" class="primitive"/>
      </g>
      <g transform="translate(134.79,41.04)" id="img-b8efddee-13" fill="#D4CA3A" class="color_0.0075">
        <path d="M-0.91,-0.91 L 0.91 -0.91 0.91 0.91 -0.91 0.91 z" class="primitive"/>
      </g>
      <g transform="translate(134.79,44.67)" id="img-b8efddee-14" fill="#FF6DAE" class="color_0.01">
        <path d="M-0.91,-0.91 L 0.91 -0.91 0.91 0.91 -0.91 0.91 z" class="primitive"/>
      </g>
      <g transform="translate(134.79,48.3)" id="img-b8efddee-15" fill="#00B78D" class="color_0.025">
        <path d="M-0.91,-0.91 L 0.91 -0.91 0.91 0.91 -0.91 0.91 z" class="primitive"/>
      </g>
      <g transform="translate(134.79,51.92)" id="img-b8efddee-16" fill="#BEA9FF" class="color_0.05">
        <path d="M-0.91,-0.91 L 0.91 -0.91 0.91 0.91 -0.91 0.91 z" class="primitive"/>
      </g>
    </g>
    <g fill="#362A35" font-size="3.88" font-family="'PT Sans','Helvetica Neue','Helvetica',sans-serif" stroke="#000000" stroke-opacity="0.000" id="img-b8efddee-17">
      <g transform="translate(133.88,33.6)" id="img-b8efddee-18">
        <g class="primitive">
          <text>o</text>
        </g>
      </g>
    </g>
  </g>
  <g clip-path="url(#img-b8efddee-19)">
    <g id="img-b8efddee-20">
      <g pointer-events="visible" fill="#000000" fill-opacity="0.000" stroke="#000000" stroke-opacity="0.000" class="guide background" id="img-b8efddee-21">
        <g transform="translate(75.76,42.86)" id="img-b8efddee-22">
          <path d="M-57.12,-37.86 L 57.12 -37.86 57.12 37.86 -57.12 37.86 z" class="primitive"/>
        </g>
      </g>
      <g class="guide ygridlines xfixed" stroke-dasharray="0.5,0.5" stroke-width="0.2" stroke="#D0D0E0" id="img-b8efddee-23">
        <g transform="translate(75.76,78.71)" id="img-b8efddee-24">
          <path fill="none" d="M-57.12,0 L 57.12 0" class="primitive"/>
        </g>
        <g transform="translate(75.76,42.86)" id="img-b8efddee-25">
          <path fill="none" d="M-57.12,0 L 57.12 0" class="primitive"/>
        </g>
        <g transform="translate(75.76,7)" id="img-b8efddee-26">
          <path fill="none" d="M-57.12,0 L 57.12 0" class="primitive"/>
        </g>
      </g>
      <g class="guide xgridlines yfixed" stroke-dasharray="0.5,0.5" stroke-width="0.2" stroke="#D0D0E0" id="img-b8efddee-27">
        <g transform="translate(20.63,42.86)" id="img-b8efddee-28">
          <path fill="none" d="M0,-37.86 L 0 37.86" class="primitive"/>
        </g>
        <g transform="translate(48.19,42.86)" id="img-b8efddee-29">
          <path fill="none" d="M0,-37.86 L 0 37.86" class="primitive"/>
        </g>
        <g transform="translate(75.76,42.86)" id="img-b8efddee-30">
          <path fill="none" d="M0,-37.86 L 0 37.86" class="primitive"/>
        </g>
        <g transform="translate(103.32,42.86)" id="img-b8efddee-31">
          <path fill="none" d="M0,-37.86 L 0 37.86" class="primitive"/>
        </g>
        <g transform="translate(130.88,42.86)" id="img-b8efddee-32">
          <path fill="none" d="M0,-37.86 L 0 37.86" class="primitive"/>
        </g>
      </g>
      <g class="plotpanel" id="img-b8efddee-33">
        <metadata>
          <boundingbox value="18.63166666666666mm 5.0mm 114.24833333333332mm 75.715mm"/>
          <unitbox value="-0.3628172761492993 1.0278881684445373 20.725634552298597 -1.055776336889075"/>
        </metadata>
        <g stroke-width="0.3" fill="#000000" fill-opacity="0.000" class="geometry" id="img-b8efddee-34">
          <g transform="translate(158.44,77.25)" id="img-b8efddee-35" stroke="#00BFFF" stroke-dasharray="none" class="color_0.005">
            <path fill="none" d="M-132.3,-20.38 L -126.79 -15.08 -121.27 -7.99 -115.76 -6.39 -110.25 -4.26 -104.74 -2.84 -99.22 -1.26 -93.71 -0.24 -88.2 0.66 -82.69 1.02 -77.17 1.25 -71.66 1.39 -66.15 1.44 -60.64 1.45 -55.12 1.46 -49.61 1.46 -44.1 1.46 -38.59 1.46 -33.07 1.46 -27.56 1.46 -22.05 1.46 -16.54 1.46 -11.02 1.46 -5.51 1.46 0 1.46 5.51 1.46 11.02 1.46 16.54 1.46 22.05 1.46 27.56 1.46 33.07 1.46 38.59 1.46 44.1 1.46 49.61 1.46 55.12 1.46 60.64 1.46 66.15 1.46 71.66 1.46 77.17 1.46 82.69 1.46 88.2 1.46 93.71 1.46 99.22 1.46 104.74 1.46 110.25 1.46 115.76 1.46 121.27 1.46 126.79 1.46 132.3 1.46" class="primitive"/>
          </g>
          <g transform="translate(158.44,77.25)" id="img-b8efddee-36" stroke="#D4CA3A" stroke-dasharray="none" class="color_0.0075">
            <path fill="none" d="M-132.3,-16.81 L -126.79 -12.7 -121.27 -8.66 -115.76 -7.08 -110.25 -5.55 -104.74 -3.76 -99.22 -2.3 -93.71 -0.88 -88.2 0.23 -82.69 0.82 -77.17 1.23 -71.66 1.36 -66.15 1.43 -60.64 1.45 -55.12 1.46 -49.61 1.46 -44.1 1.46 -38.59 1.46 -33.07 1.46 -27.56 1.46 -22.05 1.46 -16.54 1.46 -11.02 1.46 -5.51 1.46 0 1.46 5.51 1.46 11.02 1.46 16.54 1.46 22.05 1.46 27.56 1.46 33.07 1.46 38.59 1.46 44.1 1.46 49.61 1.46 55.12 1.46 60.64 1.46 66.15 1.46 71.66 1.46 77.17 1.46 82.69 1.46 88.2 1.46 93.71 1.46 99.22 1.46 104.74 1.46 110.25 1.46 115.76 1.46 121.27 1.46 126.79 1.46 132.3 1.46" class="primitive"/>
          </g>
          <g transform="translate(158.44,77.25)" id="img-b8efddee-37" stroke="#FF6DAE" stroke-dasharray="none" class="color_0.01">
            <path fill="none" d="M-132.3,-14.7 L -126.79 -11.04 -121.27 -8.38 -115.76 -7.76 -110.25 -5.95 -104.74 -4.51 -99.22 -2.92 -93.71 -1.5 -88.2 -0.07 -82.69 0.55 -77.17 0.99 -71.66 1.28 -66.15 1.38 -60.64 1.42 -55.12 1.45 -49.61 1.46 -44.1 1.46 -38.59 1.46 -33.07 1.46 -27.56 1.46 -22.05 1.46 -16.54 1.46 -11.02 1.46 -5.51 1.46 0 1.46 5.51 1.46 11.02 1.46 16.54 1.46 22.05 1.46 27.56 1.46 33.07 1.46 38.59 1.46 44.1 1.46 49.61 1.46 55.12 1.46 60.64 1.46 66.15 1.46 71.66 1.46 77.17 1.46 82.69 1.46 88.2 1.46 93.71 1.46 99.22 1.46 104.74 1.46 110.25 1.46 115.76 1.46 121.27 1.46 126.79 1.46 132.3 1.46" class="primitive"/>
          </g>
          <g transform="translate(158.44,77.25)" id="img-b8efddee-38" stroke="#00B78D" stroke-dasharray="none" class="color_0.025">
            <path fill="none" d="M-132.3,-6.7 L -126.79 -6.85 -121.27 -7.27 -115.76 -8.2 -110.25 -8.03 -104.74 -7.36 -99.22 -5.73 -93.71 -3.64 -88.2 -1.68 -82.69 -0.15 -77.17 0.54 -71.66 1.12 -66.15 1.31 -60.64 1.43 -55.12 1.45 -49.61 1.46 -44.1 1.46 -38.59 1.46 -33.07 1.46 -27.56 1.46 -22.05 1.46 -16.54 1.46 -11.02 1.46 -5.51 1.46 0 1.46 5.51 1.46 11.02 1.46 16.54 1.46 22.05 1.46 27.56 1.46 33.07 1.46 38.59 1.46 44.1 1.46 49.61 1.46 55.12 1.46 60.64 1.46 66.15 1.46 71.66 1.46 77.17 1.46 82.69 1.46 88.2 1.46 93.71 1.46 99.22 1.46 104.74 1.46 110.25 1.46 115.76 1.46 121.27 1.46 126.79 1.46 132.3 1.46" class="primitive"/>
          </g>
          <g transform="translate(158.44,77.25)" id="img-b8efddee-39" stroke="#BEA9FF" stroke-dasharray="none" class="color_0.05">
            <path fill="none" d="M-132.3,-2.3 L -126.79 -4.24 -121.27 -6.25 -115.76 -8.28 -110.25 -8.86 -104.74 -8.8 -99.22 -7.07 -93.71 -5.05 -88.2 -2.73 -82.69 -1.09 -77.17 0.12 -71.66 0.84 -66.15 1.18 -60.64 1.36 -55.12 1.43 -49.61 1.46 -44.1 1.46 -38.59 1.46 -33.07 1.46 -27.56 1.46 -22.05 1.46 -16.54 1.46 -11.02 1.46 -5.51 1.46 0 1.46 5.51 1.46 11.02 1.46 16.54 1.46 22.05 1.46 27.56 1.46 33.07 1.46 38.59 1.46 44.1 1.46 49.61 1.46 55.12 1.46 60.64 1.46 66.15 1.46 71.66 1.46 77.17 1.46 82.69 1.46 88.2 1.46 93.71 1.46 99.22 1.46 104.74 1.46 110.25 1.46 115.76 1.46 121.27 1.46 126.79 1.46 132.3 1.46" class="primitive"/>
          </g>
        </g>
      </g>
    </g>
  </g>
  <g class="guide ylabels" font-size="2.82" font-family="'PT Sans Caption','Helvetica Neue','Helvetica',sans-serif" fill="#6C606B" id="img-b8efddee-40">
    <g transform="translate(17.63,78.71)" id="img-b8efddee-41">
      <g class="primitive">
        <text text-anchor="end" dy="0.35em">0.0</text>
      </g>
    </g>
    <g transform="translate(17.63,42.86)" id="img-b8efddee-42">
      <g class="primitive">
        <text text-anchor="end" dy="0.35em">0.5</text>
      </g>
    </g>
    <g transform="translate(17.63,7)" id="img-b8efddee-43">
      <g class="primitive">
        <text text-anchor="end" dy="0.35em">1.0</text>
      </g>
    </g>
  </g>
  <g font-size="3.88" font-family="'PT Sans','Helvetica Neue','Helvetica',sans-serif" fill="#564A55" stroke="#000000" stroke-opacity="0.000" id="img-b8efddee-44">
    <g transform="translate(8.81,40.86)" id="img-b8efddee-45">
      <g class="primitive">
        <text text-anchor="middle" dy="0.35em" transform="rotate(-90,0, 2)">Frequencia</text>
      </g>
    </g>
  </g>
</g>
<defs>
  <clipPath id="img-b8efddee-19">
    <path d="M18.63,5 L 132.88 5 132.88 80.72 18.63 80.72" />
  </clipPath>
</defs>
</svg>
