<?xml version="1.0" encoding="UTF-8"?>
<svg xmlns="http://www.w3.org/2000/svg"
     xmlns:xlink="http://www.w3.org/1999/xlink"
     xmlns:gadfly="http://www.gadflyjl.org/ns"
     version="1.2"
     width="200mm" height="100mm" viewBox="0 0 200 100"
     stroke="none"
     fill="#000000"
     stroke-width="0.3"
     font-size="3.88"
>
<defs>
  <marker id="arrow" markerWidth="15" markerHeight="7" refX="5" refY="3.5" orient="auto" markerUnits="strokeWidth">
    <path d="M0,0 L15,3.5 L0,7 z" stroke="context-stroke" fill="context-stroke"/>
  </marker>
</defs>
<g class="plotroot xscalable yscalable" id="img-e0a65f1f-1">
  <g font-size="3.88" font-family="'PT Sans','Helvetica Neue','Helvetica',sans-serif" fill="#564A55" stroke="#000000" stroke-opacity="0.000" id="img-e0a65f1f-2">
    <g transform="translate(77.83,88.39)">
      <g class="primitive">
        <text text-anchor="middle" dy="0.6em">v</text>
      </g>
    </g>
  </g>
  <g class="guide xlabels" font-size="2.82" font-family="'PT Sans Caption','Helvetica Neue','Helvetica',sans-serif" fill="#6C606B" id="img-e0a65f1f-3">
    <g transform="translate(12.35,81.72)">
      <g class="primitive">
        <text text-anchor="middle" dy="0.6em">0</text>
      </g>
    </g>
    <g transform="translate(77.83,81.72)">
      <g class="primitive">
        <text text-anchor="middle" dy="0.6em">50</text>
      </g>
    </g>
    <g transform="translate(143.31,81.72)">
      <g class="primitive">
        <text text-anchor="middle" dy="0.6em">100</text>
      </g>
    </g>
  </g>
  <g class="guide colorkey" id="img-e0a65f1f-4">
    <g fill="#4C404B" font-size="2.82" font-family="'PT Sans','Helvetica Neue','Helvetica',sans-serif" id="img-e0a65f1f-5">
      <g transform="translate(149.12,42.86)" id="img-e0a65f1f-6">
        <g class="primitive">
          <text dy="0.35em">Número de Variedades</text>
        </g>
      </g>
      <g transform="translate(149.12,46.48)" id="img-e0a65f1f-7">
        <g class="primitive">
          <text dy="0.35em">Número Médio de Variedades por UD</text>
        </g>
      </g>
    </g>
    <g stroke="#000000" stroke-opacity="0.000" id="img-e0a65f1f-8">
      <g transform="translate(147.21,42.86)" id="img-e0a65f1f-9" fill="#008000">
        <path d="M-0.91,-0.91 L 0.91 -0.91 0.91 0.91 -0.91 0.91 z" class="primitive"/>
      </g>
      <g transform="translate(147.21,46.48)" id="img-e0a65f1f-10" fill="#FF0000">
        <path d="M-0.91,-0.91 L 0.91 -0.91 0.91 0.91 -0.91 0.91 z" class="primitive"/>
      </g>
    </g>
    <g fill="#362A35" font-size="3.88" font-family="'PT Sans','Helvetica Neue','Helvetica',sans-serif" stroke="#000000" stroke-opacity="0.000" id="img-e0a65f1f-11">
      <g transform="translate(146.31,39.04)" id="img-e0a65f1f-12">
        <g class="primitive">
          <text></text>
        </g>
      </g>
    </g>
  </g>
  <g clip-path="url(#img-e0a65f1f-13)">
    <g id="img-e0a65f1f-14">
      <g pointer-events="visible" fill="#000000" fill-opacity="0.000" stroke="#000000" stroke-opacity="0.000" class="guide background" id="img-e0a65f1f-15">
        <g transform="translate(77.83,42.86)" id="img-e0a65f1f-16">
          <path d="M-67.48,-37.86 L 67.48 -37.86 67.48 37.86 -67.48 37.86 z" class="primitive"/>
        </g>
      </g>
      <g class="guide ygridlines xfixed" stroke-dasharray="0.5,0.5" stroke-width="0.2" stroke="#D0D0E0" id="img-e0a65f1f-17">
        <g transform="translate(77.83,78.72)" id="img-e0a65f1f-18">
          <path fill="none" d="M-67.48,0 L 67.48 0" class="primitive"/>
        </g>
        <g transform="translate(77.83,60.79)" id="img-e0a65f1f-19">
          <path fill="none" d="M-67.48,0 L 67.48 0" class="primitive"/>
        </g>
        <g transform="translate(77.83,42.86)" id="img-e0a65f1f-20">
          <path fill="none" d="M-67.48,0 L 67.48 0" class="primitive"/>
        </g>
        <g transform="translate(77.83,24.93)" id="img-e0a65f1f-21">
          <path fill="none" d="M-67.48,0 L 67.48 0" class="primitive"/>
        </g>
        <g transform="translate(77.83,7)" id="img-e0a65f1f-22">
          <path fill="none" d="M-67.48,0 L 67.48 0" class="primitive"/>
        </g>
      </g>
      <g class="guide xgridlines yfixed" stroke-dasharray="0.5,0.5" stroke-width="0.2" stroke="#D0D0E0" id="img-e0a65f1f-23">
        <g transform="translate(12.35,42.86)" id="img-e0a65f1f-24">
          <path fill="none" d="M0,-37.86 L 0 37.86" class="primitive"/>
        </g>
        <g transform="translate(77.83,42.86)" id="img-e0a65f1f-25">
          <path fill="none" d="M0,-37.86 L 0 37.86" class="primitive"/>
        </g>
        <g transform="translate(143.31,42.86)" id="img-e0a65f1f-26">
          <path fill="none" d="M0,-37.86 L 0 37.86" class="primitive"/>
        </g>
      </g>
      <g class="plotpanel" id="img-e0a65f1f-27">
        <metadata>
          <boundingbox value="10.346666666666664mm 5.0mm 134.95999999999998mm 75.715mm"/>
          <unitbox value="-1.5271838729383018 41.115526737781494 103.05436774587659 -42.231053475562994"/>
        </metadata>
        <g stroke-width="0.3" fill="#000000" fill-opacity="0.000" class="geometry" id="img-e0a65f1f-28">
          <g class="color_RGB{N0f8}(1.0,0.0,0.0)" stroke-dasharray="none" stroke="#FF0000" id="img-e0a65f1f-29">
            <g transform="translate(81.1,72.41)" id="img-e0a65f1f-30">
              <path fill="none" d="M-62.21,3.72 L -55.66 2.91 -49.11 2.28 -42.56 1.5 -36.01 1.07 -29.47 0.62 -22.92 0.18 -16.37 -0.11 -9.82 -0.44 -3.27 -0.57 3.27 -0.81 9.82 -0.91 16.37 -1.05 22.92 -1.08 29.47 -1 36.01 -1.14 42.56 -1.31 49.11 -1.22 55.66 -1.36 62.21 -1.28" class="primitive"/>
            </g>
          </g>
        </g>
        <g stroke-width="0.3" fill="#000000" fill-opacity="0.000" class="geometry" id="img-e0a65f1f-31">
          <g class="color_RGB{N0f8}(0.0,0.502,0.0)" stroke-dasharray="none" stroke="#008000" id="img-e0a65f1f-32">
            <g transform="translate(81.1,37.76)" id="img-e0a65f1f-33">
              <path fill="none" d="M-62.21,32.75 L -55.66 28.88 -49.11 24.55 -42.56 20.43 -36.01 17.19 -29.47 13.31 -22.92 9.9 -16.37 5.96 -9.82 2.11 -3.27 -0.35 3.27 -3.97 9.82 -6.8 16.37 -9.46 22.92 -12.2 29.47 -13.79 36.01 -16.33 42.56 -19.91 49.11 -22.15 55.66 -24.91 62.21 -25.22" class="primitive"/>
            </g>
          </g>
        </g>
      </g>
    </g>
  </g>
  <g class="guide ylabels" font-size="2.82" font-family="'PT Sans Caption','Helvetica Neue','Helvetica',sans-serif" fill="#6C606B" id="img-e0a65f1f-34">
    <g transform="translate(9.35,78.72)" id="img-e0a65f1f-35">
      <g class="primitive">
        <text text-anchor="end" dy="0.35em">0</text>
      </g>
    </g>
    <g transform="translate(9.35,60.79)" id="img-e0a65f1f-36">
      <g class="primitive">
        <text text-anchor="end" dy="0.35em">10</text>
      </g>
    </g>
    <g transform="translate(9.35,42.86)" id="img-e0a65f1f-37">
      <g class="primitive">
        <text text-anchor="end" dy="0.35em">20</text>
      </g>
    </g>
    <g transform="translate(9.35,24.93)" id="img-e0a65f1f-38">
      <g class="primitive">
        <text text-anchor="end" dy="0.35em">30</text>
      </g>
    </g>
    <g transform="translate(9.35,7)" id="img-e0a65f1f-39">
      <g class="primitive">
        <text text-anchor="end" dy="0.35em">40</text>
      </g>
    </g>
  </g>
</g>
<defs>
  <clipPath id="img-e0a65f1f-13">
    <path d="M10.35,5 L 145.31 5 145.31 80.72 10.35 80.72" />
  </clipPath>
</defs>
</svg>
