<?xml version="1.0" encoding="UTF-8"?>
<svg xmlns="http://www.w3.org/2000/svg"
     xmlns:xlink="http://www.w3.org/1999/xlink"
     xmlns:gadfly="http://www.gadflyjl.org/ns"
     version="1.2"
     width="150mm" height="100mm" viewBox="0 0 150 100"
     stroke="none"
     fill="#000000"
     stroke-width="0.3"
     font-size="3.88"
>
<defs>
  <marker id="arrow" markerWidth="15" markerHeight="7" refX="5" refY="3.5" orient="auto" markerUnits="strokeWidth">
    <path d="M0,0 L15,3.5 L0,7 z" stroke="context-stroke" fill="context-stroke"/>
  </marker>
</defs>
<g class="plotroot xscalable yscalable" id="img-0b4440cb-1">
  <g font-size="3.88" font-family="'PT Sans','Helvetica Neue','Helvetica',sans-serif" fill="#564A55" stroke="#000000" stroke-opacity="0.000" id="img-0b4440cb-2">
    <g transform="translate(77.6,88.39)">
      <g class="primitive">
        <text text-anchor="middle" dy="0.6em">Numero Medio de Variedades por UD</text>
      </g>
    </g>
  </g>
  <g class="guide xlabels" font-size="2.82" font-family="'PT Sans Caption','Helvetica Neue','Helvetica',sans-serif" fill="#6C606B" id="img-0b4440cb-3">
    <g transform="translate(20.63,81.72)">
      <g class="primitive">
        <text text-anchor="middle" dy="0.6em">0</text>
      </g>
    </g>
    <g transform="translate(49.12,81.72)">
      <g class="primitive">
        <text text-anchor="middle" dy="0.6em">5</text>
      </g>
    </g>
    <g transform="translate(77.6,81.72)">
      <g class="primitive">
        <text text-anchor="middle" dy="0.6em">10</text>
      </g>
    </g>
    <g transform="translate(106.08,81.72)">
      <g class="primitive">
        <text text-anchor="middle" dy="0.6em">15</text>
      </g>
    </g>
    <g transform="translate(134.57,81.72)">
      <g class="primitive">
        <text text-anchor="middle" dy="0.6em">20</text>
      </g>
    </g>
  </g>
  <g class="guide colorkey" id="img-0b4440cb-4">
    <g fill="#4C404B" font-size="2.82" font-family="'PT Sans','Helvetica Neue','Helvetica',sans-serif" id="img-0b4440cb-5">
      <g transform="translate(140.38,37.42)" id="img-0b4440cb-6" class="color_10">
        <g class="primitive">
          <text dy="0.35em">10</text>
        </g>
      </g>
      <g transform="translate(140.38,41.04)" id="img-0b4440cb-7" class="color_25">
        <g class="primitive">
          <text dy="0.35em">25</text>
        </g>
      </g>
      <g transform="translate(140.38,44.67)" id="img-0b4440cb-8" class="color_50">
        <g class="primitive">
          <text dy="0.35em">50</text>
        </g>
      </g>
      <g transform="translate(140.38,48.3)" id="img-0b4440cb-9" class="color_75">
        <g class="primitive">
          <text dy="0.35em">75</text>
        </g>
      </g>
      <g transform="translate(140.38,51.92)" id="img-0b4440cb-10" class="color_100">
        <g class="primitive">
          <text dy="0.35em">100</text>
        </g>
      </g>
    </g>
    <g stroke="#000000" stroke-opacity="0.000" id="img-0b4440cb-11">
      <g transform="translate(138.47,37.42)" id="img-0b4440cb-12" fill="#00BFFF" class="color_10">
        <path d="M-0.91,-0.91 L 0.91 -0.91 0.91 0.91 -0.91 0.91 z" class="primitive"/>
      </g>
      <g transform="translate(138.47,41.04)" id="img-0b4440cb-13" fill="#D4CA3A" class="color_25">
        <path d="M-0.91,-0.91 L 0.91 -0.91 0.91 0.91 -0.91 0.91 z" class="primitive"/>
      </g>
      <g transform="translate(138.47,44.67)" id="img-0b4440cb-14" fill="#FF6DAE" class="color_50">
        <path d="M-0.91,-0.91 L 0.91 -0.91 0.91 0.91 -0.91 0.91 z" class="primitive"/>
      </g>
      <g transform="translate(138.47,48.3)" id="img-0b4440cb-15" fill="#00B78D" class="color_75">
        <path d="M-0.91,-0.91 L 0.91 -0.91 0.91 0.91 -0.91 0.91 z" class="primitive"/>
      </g>
      <g transform="translate(138.47,51.92)" id="img-0b4440cb-16" fill="#BEA9FF" class="color_100">
        <path d="M-0.91,-0.91 L 0.91 -0.91 0.91 0.91 -0.91 0.91 z" class="primitive"/>
      </g>
    </g>
    <g fill="#362A35" font-size="3.88" font-family="'PT Sans','Helvetica Neue','Helvetica',sans-serif" stroke="#000000" stroke-opacity="0.000" id="img-0b4440cb-17">
      <g transform="translate(137.57,33.6)" id="img-0b4440cb-18">
        <g class="primitive">
          <text>v</text>
        </g>
      </g>
    </g>
  </g>
  <g clip-path="url(#img-0b4440cb-19)">
    <g id="img-0b4440cb-20">
      <g pointer-events="visible" fill="#000000" fill-opacity="0.000" stroke="#000000" stroke-opacity="0.000" class="guide background" id="img-0b4440cb-21">
        <g transform="translate(77.6,42.86)" id="img-0b4440cb-22">
          <path d="M-58.97,-37.86 L 58.97 -37.86 58.97 37.86 -58.97 37.86 z" class="primitive"/>
        </g>
      </g>
      <g class="guide ygridlines xfixed" stroke-dasharray="0.5,0.5" stroke-width="0.2" stroke="#D0D0E0" id="img-0b4440cb-23">
        <g transform="translate(77.6,78.71)" id="img-0b4440cb-24">
          <path fill="none" d="M-58.97,0 L 58.97 0" class="primitive"/>
        </g>
        <g transform="translate(77.6,42.86)" id="img-0b4440cb-25">
          <path fill="none" d="M-58.97,0 L 58.97 0" class="primitive"/>
        </g>
        <g transform="translate(77.6,7)" id="img-0b4440cb-26">
          <path fill="none" d="M-58.97,0 L 58.97 0" class="primitive"/>
        </g>
      </g>
      <g class="guide xgridlines yfixed" stroke-dasharray="0.5,0.5" stroke-width="0.2" stroke="#D0D0E0" id="img-0b4440cb-27">
        <g transform="translate(20.63,42.86)" id="img-0b4440cb-28">
          <path fill="none" d="M0,-37.86 L 0 37.86" class="primitive"/>
        </g>
        <g transform="translate(49.12,42.86)" id="img-0b4440cb-29">
          <path fill="none" d="M0,-37.86 L 0 37.86" class="primitive"/>
        </g>
        <g transform="translate(77.6,42.86)" id="img-0b4440cb-30">
          <path fill="none" d="M0,-37.86 L 0 37.86" class="primitive"/>
        </g>
        <g transform="translate(106.08,42.86)" id="img-0b4440cb-31">
          <path fill="none" d="M0,-37.86 L 0 37.86" class="primitive"/>
        </g>
        <g transform="translate(134.57,42.86)" id="img-0b4440cb-32">
          <path fill="none" d="M0,-37.86 L 0 37.86" class="primitive"/>
        </g>
      </g>
      <g class="plotpanel" id="img-0b4440cb-33">
        <metadata>
          <boundingbox value="18.631666666666675mm 5.0mm 117.93499999999999mm 75.715mm"/>
          <unitbox value="-0.35107736867512174 1.0278881684445373 20.70215473735024 -1.055776336889075"/>
        </metadata>
        <g stroke-width="0.3" fill="#000000" fill-opacity="0.000" class="geometry" id="img-0b4440cb-34">
          <g transform="translate(163.05,77.25)" id="img-0b4440cb-35" stroke="#00BFFF" stroke-dasharray="none" class="color_10">
            <path fill="none" d="M-136.72,-28.48 L -131.03 -22.66 -125.33 -10.28 -119.63 -3.02 -113.93 0.36 -108.24 1.17 -102.54 1.45 -96.84 1.46 -91.15 1.46 -85.45 1.46 -79.75 1.46 -74.06 1.46 -68.36 1.46 -62.66 1.46 -56.97 1.46 -51.27 1.46 -45.57 1.46 -39.88 1.46 -34.18 1.46 -28.48 1.46 -22.79 1.46 -17.09 1.46 -11.39 1.46 -5.7 1.46 0 1.46 5.7 1.46 11.39 1.46 17.09 1.46 22.79 1.46 28.48 1.46 34.18 1.46 39.88 1.46 45.57 1.46 51.27 1.46 56.97 1.46 62.66 1.46 68.36 1.46 74.06 1.46 79.75 1.46 85.45 1.46 91.15 1.46 96.84 1.46 102.54 1.46 108.24 1.46 113.94 1.46 119.63 1.46 125.33 1.46 131.03 1.46 136.72 1.46" class="primitive"/>
          </g>
          <g transform="translate(163.05,77.25)" id="img-0b4440cb-36" stroke="#D4CA3A" stroke-dasharray="none" class="color_25">
            <path fill="none" d="M-136.72,-17.22 L -131.03 -15.5 -125.33 -11.51 -119.63 -8.21 -113.93 -4.84 -108.24 -2.25 -102.54 -0.48 -96.84 0.5 -91.15 1.12 -85.45 1.35 -79.75 1.44 -74.06 1.45 -68.36 1.46 -62.66 1.46 -56.97 1.46 -51.27 1.46 -45.57 1.46 -39.88 1.46 -34.18 1.46 -28.48 1.46 -22.79 1.46 -17.09 1.46 -11.39 1.46 -5.7 1.46 0 1.46 5.7 1.46 11.39 1.46 17.09 1.46 22.79 1.46 28.48 1.46 34.18 1.46 39.88 1.46 45.57 1.46 51.27 1.46 56.97 1.46 62.66 1.46 68.36 1.46 74.06 1.46 79.75 1.46 85.45 1.46 91.15 1.46 96.84 1.46 102.54 1.46 108.24 1.46 113.94 1.46 119.63 1.46 125.33 1.46 131.03 1.46 136.72 1.46" class="primitive"/>
          </g>
          <g transform="translate(163.05,77.25)" id="img-0b4440cb-37" stroke="#FF6DAE" stroke-dasharray="none" class="color_50">
            <path fill="none" d="M-136.72,-15.01 L -131.03 -11.25 -125.33 -8.49 -119.63 -7.18 -113.93 -6.13 -108.24 -4.56 -102.54 -2.75 -96.84 -1.36 -91.15 -0.18 -85.45 0.61 -79.75 1.02 -74.06 1.24 -68.36 1.37 -62.66 1.44 -56.97 1.45 -51.27 1.46 -45.57 1.46 -39.88 1.46 -34.18 1.46 -28.48 1.46 -22.79 1.46 -17.09 1.46 -11.39 1.46 -5.7 1.46 0 1.46 5.7 1.46 11.39 1.46 17.09 1.46 22.79 1.46 28.48 1.46 34.18 1.46 39.88 1.46 45.57 1.46 51.27 1.46 56.97 1.46 62.66 1.46 68.36 1.46 74.06 1.46 79.75 1.46 85.45 1.46 91.15 1.46 96.84 1.46 102.54 1.46 108.24 1.46 113.94 1.46 119.63 1.46 125.33 1.46 131.03 1.46 136.72 1.46" class="primitive"/>
          </g>
          <g transform="translate(163.05,77.25)" id="img-0b4440cb-38" stroke="#00B78D" stroke-dasharray="none" class="color_75">
            <path fill="none" d="M-136.72,-13.01 L -131.03 -10.98 -125.33 -8.17 -119.63 -7.12 -113.93 -5.97 -108.24 -4.44 -102.54 -3.21 -96.84 -2.02 -91.15 -0.9 -85.45 0.15 -79.75 0.71 -74.06 1.07 -68.36 1.32 -62.66 1.38 -56.97 1.44 -51.27 1.45 -45.57 1.46 -39.88 1.46 -34.18 1.46 -28.48 1.46 -22.79 1.46 -17.09 1.46 -11.39 1.46 -5.7 1.46 0 1.46 5.7 1.46 11.39 1.46 17.09 1.46 22.79 1.46 28.48 1.46 34.18 1.46 39.88 1.46 45.57 1.46 51.27 1.46 56.97 1.46 62.66 1.46 68.36 1.46 74.06 1.46 79.75 1.46 85.45 1.46 91.15 1.46 96.84 1.46 102.54 1.46 108.24 1.46 113.94 1.46 119.63 1.46 125.33 1.46 131.03 1.46 136.72 1.46" class="primitive"/>
          </g>
          <g transform="translate(163.05,77.25)" id="img-0b4440cb-39" stroke="#BEA9FF" stroke-dasharray="none" class="color_100">
            <path fill="none" d="M-136.72,-13.51 L -131.03 -10.42 -125.33 -7.29 -119.63 -6.5 -113.93 -5.62 -108.24 -4.65 -102.54 -3.35 -96.84 -2.13 -91.15 -1.18 -85.45 -0.16 -79.75 0.42 -74.06 0.86 -68.36 1.11 -62.66 1.31 -56.97 1.4 -51.27 1.42 -45.57 1.45 -39.88 1.46 -34.18 1.46 -28.48 1.46 -22.79 1.46 -17.09 1.46 -11.39 1.46 -5.7 1.46 0 1.46 5.7 1.46 11.39 1.46 17.09 1.46 22.79 1.46 28.48 1.46 34.18 1.46 39.88 1.46 45.57 1.46 51.27 1.46 56.97 1.46 62.66 1.46 68.36 1.46 74.06 1.46 79.75 1.46 85.45 1.46 91.15 1.46 96.84 1.46 102.54 1.46 108.24 1.46 113.94 1.46 119.63 1.46 125.33 1.46 131.03 1.46 136.72 1.46" class="primitive"/>
          </g>
        </g>
      </g>
    </g>
  </g>
  <g class="guide ylabels" font-size="2.82" font-family="'PT Sans Caption','Helvetica Neue','Helvetica',sans-serif" fill="#6C606B" id="img-0b4440cb-40">
    <g transform="translate(17.63,78.71)" id="img-0b4440cb-41">
      <g class="primitive">
        <text text-anchor="end" dy="0.35em">0.0</text>
      </g>
    </g>
    <g transform="translate(17.63,42.86)" id="img-0b4440cb-42">
      <g class="primitive">
        <text text-anchor="end" dy="0.35em">0.5</text>
      </g>
    </g>
    <g transform="translate(17.63,7)" id="img-0b4440cb-43">
      <g class="primitive">
        <text text-anchor="end" dy="0.35em">1.0</text>
      </g>
    </g>
  </g>
  <g font-size="3.88" font-family="'PT Sans','Helvetica Neue','Helvetica',sans-serif" fill="#564A55" stroke="#000000" stroke-opacity="0.000" id="img-0b4440cb-44">
    <g transform="translate(8.81,40.86)" id="img-0b4440cb-45">
      <g class="primitive">
        <text text-anchor="middle" dy="0.35em" transform="rotate(-90,0, 2)">Frequencia</text>
      </g>
    </g>
  </g>
</g>
<defs>
  <clipPath id="img-0b4440cb-19">
    <path d="M18.63,5 L 136.57 5 136.57 80.72 18.63 80.72" />
  </clipPath>
</defs>
</svg>
