<?xml version="1.0" encoding="UTF-8"?>
<svg xmlns="http://www.w3.org/2000/svg"
     xmlns:xlink="http://www.w3.org/1999/xlink"
     xmlns:gadfly="http://www.gadflyjl.org/ns"
     version="1.2"
     width="150mm" height="100mm" viewBox="0 0 150 100"
     stroke="none"
     fill="#000000"
     stroke-width="0.3"
     font-size="3.88"
>
<defs>
  <marker id="arrow" markerWidth="15" markerHeight="7" refX="5" refY="3.5" orient="auto" markerUnits="strokeWidth">
    <path d="M0,0 L15,3.5 L0,7 z" stroke="context-stroke" fill="context-stroke"/>
  </marker>
</defs>
<g class="plotroot xscalable yscalable" id="img-248caa18-1">
  <g font-size="3.88" font-family="'PT Sans','Helvetica Neue','Helvetica',sans-serif" fill="#564A55" stroke="#000000" stroke-opacity="0.000" id="img-248caa18-2">
    <g transform="translate(78.8,88.39)">
      <g class="primitive">
        <text text-anchor="middle" dy="0.6em">Tempo</text>
      </g>
    </g>
  </g>
  <g class="guide xlabels" font-size="2.82" font-family="'PT Sans Caption','Helvetica Neue','Helvetica',sans-serif" fill="#6C606B" id="img-248caa18-3">
    <g transform="translate(19.96,81.72)">
      <g class="primitive">
        <text text-anchor="middle" dy="0.6em">0</text>
      </g>
    </g>
    <g transform="translate(78.8,81.72)">
      <g class="primitive">
        <text text-anchor="middle" dy="0.6em">500</text>
      </g>
    </g>
    <g transform="translate(137.65,81.72)">
      <g class="primitive">
        <text text-anchor="middle" dy="0.6em">1000</text>
      </g>
    </g>
  </g>
  <g class="guide colorkey" id="img-248caa18-4">
    <g fill="#4C404B" font-size="2.82" font-family="'PT Sans','Helvetica Neue','Helvetica',sans-serif" id="img-248caa18-5">
      <g transform="translate(143.46,41.04)" id="img-248caa18-6" class="color_0">
        <g class="primitive">
          <text dy="0.35em">0</text>
        </g>
      </g>
      <g transform="translate(143.46,44.67)" id="img-248caa18-7" class="color_1">
        <g class="primitive">
          <text dy="0.35em">1</text>
        </g>
      </g>
      <g transform="translate(143.46,48.3)" id="img-248caa18-8" class="color_2">
        <g class="primitive">
          <text dy="0.35em">2</text>
        </g>
      </g>
    </g>
    <g stroke="#000000" stroke-opacity="0.000" id="img-248caa18-9">
      <g transform="translate(141.55,41.04)" id="img-248caa18-10" fill="#00BFFF" class="color_0">
        <path d="M-0.91,-0.91 L 0.91 -0.91 0.91 0.91 -0.91 0.91 z" class="primitive"/>
      </g>
      <g transform="translate(141.55,44.67)" id="img-248caa18-11" fill="#D4CA3A" class="color_1">
        <path d="M-0.91,-0.91 L 0.91 -0.91 0.91 0.91 -0.91 0.91 z" class="primitive"/>
      </g>
      <g transform="translate(141.55,48.3)" id="img-248caa18-12" fill="#FF6DAE" class="color_2">
        <path d="M-0.91,-0.91 L 0.91 -0.91 0.91 0.91 -0.91 0.91 z" class="primitive"/>
      </g>
    </g>
    <g fill="#362A35" font-size="3.88" font-family="'PT Sans','Helvetica Neue','Helvetica',sans-serif" stroke="#000000" stroke-opacity="0.000" id="img-248caa18-13">
      <g transform="translate(140.65,37.22)" id="img-248caa18-14">
        <g class="primitive">
          <text>n</text>
        </g>
      </g>
    </g>
  </g>
  <g clip-path="url(#img-248caa18-15)">
    <g id="img-248caa18-16">
      <g pointer-events="visible" fill="#000000" fill-opacity="0.000" stroke="#000000" stroke-opacity="0.000" class="guide background" id="img-248caa18-17">
        <g transform="translate(78.8,42.86)" id="img-248caa18-18">
          <path d="M-60.84,-37.86 L 60.84 -37.86 60.84 37.86 -60.84 37.86 z" class="primitive"/>
        </g>
      </g>
      <g class="guide ygridlines xfixed" stroke-dasharray="0.5,0.5" stroke-width="0.2" stroke="#D0D0E0" id="img-248caa18-19">
        <g transform="translate(78.8,78.71)" id="img-248caa18-20">
          <path fill="none" d="M-60.84,0 L 60.84 0" class="primitive"/>
        </g>
        <g transform="translate(78.8,54.81)" id="img-248caa18-21">
          <path fill="none" d="M-60.84,0 L 60.84 0" class="primitive"/>
        </g>
        <g transform="translate(78.8,30.9)" id="img-248caa18-22">
          <path fill="none" d="M-60.84,0 L 60.84 0" class="primitive"/>
        </g>
        <g transform="translate(78.8,7)" id="img-248caa18-23">
          <path fill="none" d="M-60.84,0 L 60.84 0" class="primitive"/>
        </g>
      </g>
      <g class="guide xgridlines yfixed" stroke-dasharray="0.5,0.5" stroke-width="0.2" stroke="#D0D0E0" id="img-248caa18-24">
        <g transform="translate(19.96,42.86)" id="img-248caa18-25">
          <path fill="none" d="M0,-37.86 L 0 37.86" class="primitive"/>
        </g>
        <g transform="translate(78.8,42.86)" id="img-248caa18-26">
          <path fill="none" d="M0,-37.86 L 0 37.86" class="primitive"/>
        </g>
        <g transform="translate(137.65,42.86)" id="img-248caa18-27">
          <path fill="none" d="M0,-37.86 L 0 37.86" class="primitive"/>
        </g>
      </g>
      <g class="plotpanel" id="img-248caa18-28">
        <metadata>
          <boundingbox value="17.958333333333343mm 5.0mm 121.68833333333333mm 75.715mm"/>
          <unitbox value="-16.99403792502797 50.83664505333612 1033.988075850056 -31.673290106672248"/>
        </metadata>
        <g stroke-width="0.3" fill="#000000" fill-opacity="0.000" class="geometry" id="img-248caa18-29">
          <g transform="translate(78.21,74.66)" id="img-248caa18-30" stroke="#00BFFF" stroke-dasharray="none" class="color_0">
            <path fill="none" d="M-58.26,-67.3 L -57.08 -67.32 -55.9 -66.14 -54.73 -51.84 -53.55 -31.14 -52.37 -12.59 -51.19 -2.88 -50.02 0.39 -48.84 1.79 -47.66 2.48 -46.49 2.8 -45.31 3.02 -44.13 3.12 -42.96 3.19 -41.78 3.25 -40.6 3.25 -39.43 3.26 -38.25 3.3 -37.07 3.31 -35.89 3.29 -34.72 3.29 -33.54 3.31 -32.36 3.31 -31.19 3.34 -30.01 3.33 -28.83 3.32 -27.66 3.31 -26.48 3.31 -25.3 3.31 -24.13 3.31 -22.95 3.3 -21.77 3.3 -20.6 3.3 -19.42 3.31 -18.24 3.32 -17.06 3.34 -15.89 3.33 -14.71 3.34 -13.53 3.34 -12.36 3.34 -11.18 3.34 -10 3.31 -8.83 3.33 -7.65 3.31 -6.47 3.33 -5.3 3.31 -4.12 3.31 -2.94 3.31 -1.77 3.31 -0.59 3.29 0.59 3.29 1.77 3.3 2.94 3.31 4.12 3.29 5.3 3.3 6.47 3.29 7.65 3.3 8.83 3.3 10 3.3 11.18 3.3 12.36 3.31 13.53 3.3 14.71 3.31 15.89 3.32 17.06 3.32 18.24 3.32 19.42 3.31 20.6 3.31 21.77 3.28 22.95 3.26 24.13 3.26 25.3 3.28 26.48 3.29 27.66 3.27 28.83 3.26 30.01 3.24 31.19 3.23 32.36 3.22 33.54 3.22 34.72 3.23 35.89 3.25 37.07 3.24 38.25 3.21 39.43 3.23 40.6 3.23 41.78 3.22 42.96 3.22 44.13 3.21 45.31 3.19 46.49 3.21 47.66 3.21 48.84 3.24 50.02 3.28 51.19 3.28 52.37 3.26 53.55 3.26 54.73 3.22 55.9 3.26 57.08 3.23 58.26 3.26" class="primitive"/>
          </g>
          <g transform="translate(78.21,69.7)" id="img-248caa18-31" stroke="#D4CA3A" stroke-dasharray="none" class="color_1">
            <path fill="none" d="M-58.26,-62.32 L -57.08 -62.34 -55.9 -61.7 -54.73 -49.94 -53.55 -28.95 -52.37 -10.52 -51.19 -0.65 -50.02 1.64 -48.84 2.58 -47.66 2.95 -46.49 3.12 -45.31 3.23 -44.13 3.23 -42.96 3.22 -41.78 3.22 -40.6 3.23 -39.43 3.22 -38.25 3.23 -37.07 3.22 -35.89 3.21 -34.72 3.22 -33.54 3.22 -32.36 3.19 -31.19 3.2 -30.01 3.19 -28.83 3.2 -27.66 3.18 -26.48 3.17 -25.3 3.16 -24.13 3.14 -22.95 3.16 -21.77 3.14 -20.6 3.14 -19.42 3.12 -18.24 3.11 -17.06 3.11 -15.89 3.1 -14.71 3.09 -13.53 3.08 -12.36 3.08 -11.18 3.06 -10 3.06 -8.83 3.06 -7.65 3.06 -6.47 3.07 -5.3 3.06 -4.12 3.02 -2.94 3.01 -1.77 3.01 -0.59 3 0.59 2.98 1.77 3 2.94 3.01 4.12 3.01 5.3 3 6.47 2.99 7.65 2.99 8.83 2.98 10 2.99 11.18 2.98 12.36 2.94 13.53 2.95 14.71 2.94 15.89 2.94 17.06 2.95 18.24 2.92 19.42 2.94 20.6 2.91 21.77 2.93 22.95 2.92 24.13 2.9 25.3 2.91 26.48 2.93 27.66 2.91 28.83 2.9 30.01 2.91 31.19 2.89 32.36 2.89 33.54 2.88 34.72 2.88 35.89 2.87 37.07 2.86 38.25 2.86 39.43 2.85 40.6 2.84 41.78 2.81 42.96 2.82 44.13 2.82 45.31 2.81 46.49 2.81 47.66 2.79 48.84 2.78 50.02 2.76 51.19 2.73 52.37 2.72 53.55 2.7 54.73 2.68 55.9 2.68 57.08 2.66 58.26 2.64" class="primitive"/>
          </g>
          <g transform="translate(78.21,70.8)" id="img-248caa18-32" stroke="#FF6DAE" stroke-dasharray="none" class="color_2">
            <path fill="none" d="M-58.26,-63.44 L -57.08 -63.45 -55.9 -62.77 -54.73 -49.97 -53.55 -29.66 -52.37 -11.39 -51.19 -1.7 -50.02 1.36 -48.84 2.24 -47.66 2.78 -46.49 3.1 -45.31 3.18 -44.13 3.2 -42.96 3.22 -41.78 3.23 -40.6 3.23 -39.43 3.25 -38.25 3.24 -37.07 3.26 -35.89 3.24 -34.72 3.24 -33.54 3.23 -32.36 3.21 -31.19 3.23 -30.01 3.22 -28.83 3.22 -27.66 3.22 -26.48 3.23 -25.3 3.22 -24.13 3.2 -22.95 3.18 -21.77 3.18 -20.6 3.18 -19.42 3.2 -18.24 3.2 -17.06 3.21 -15.89 3.21 -14.71 3.2 -13.53 3.18 -12.36 3.18 -11.18 3.17 -10 3.18 -8.83 3.18 -7.65 3.17 -6.47 3.14 -5.3 3.14 -4.12 3.15 -2.94 3.13 -1.77 3.12 -0.59 3.12 0.59 3.09 1.77 3.08 2.94 3.1 4.12 3.1 5.3 3.1 6.47 3.1 7.65 3.08 8.83 3.08 10 3.09 11.18 3.05 12.36 3.06 13.53 3.05 14.71 3.01 15.89 3.01 17.06 3.02 18.24 3.02 19.42 3 20.6 3.01 21.77 2.99 22.95 3.01 24.13 3.01 25.3 2.99 26.48 2.98 27.66 2.96 28.83 2.95 30.01 2.94 31.19 2.93 32.36 2.92 33.54 2.9 34.72 2.92 35.89 2.91 37.07 2.88 38.25 2.88 39.43 2.91 40.6 2.92 41.78 2.92 42.96 2.92 44.13 2.91 45.31 2.89 46.49 2.87 47.66 2.87 48.84 2.86 50.02 2.86 51.19 2.86 52.37 2.87 53.55 2.87 54.73 2.88 55.9 2.86 57.08 2.87 58.26 2.85" class="primitive"/>
          </g>
        </g>
      </g>
    </g>
  </g>
  <g class="guide ylabels" font-size="2.82" font-family="'PT Sans Caption','Helvetica Neue','Helvetica',sans-serif" fill="#6C606B" id="img-248caa18-33">
    <g transform="translate(16.96,78.71)" id="img-248caa18-34">
      <g class="primitive">
        <text text-anchor="end" dy="0.35em">20</text>
      </g>
    </g>
    <g transform="translate(16.96,54.81)" id="img-248caa18-35">
      <g class="primitive">
        <text text-anchor="end" dy="0.35em">30</text>
      </g>
    </g>
    <g transform="translate(16.96,30.9)" id="img-248caa18-36">
      <g class="primitive">
        <text text-anchor="end" dy="0.35em">40</text>
      </g>
    </g>
    <g transform="translate(16.96,7)" id="img-248caa18-37">
      <g class="primitive">
        <text text-anchor="end" dy="0.35em">50</text>
      </g>
    </g>
  </g>
  <g font-size="3.88" font-family="'PT Sans','Helvetica Neue','Helvetica',sans-serif" fill="#564A55" stroke="#000000" stroke-opacity="0.000" id="img-248caa18-38">
    <g transform="translate(8.81,40.86)" id="img-248caa18-39">
      <g class="primitive">
        <text text-anchor="middle" dy="0.35em" transform="rotate(-90,0, 2)">Numero de Variedades</text>
      </g>
    </g>
  </g>
</g>
<defs>
  <clipPath id="img-248caa18-15">
    <path d="M17.96,5 L 139.65 5 139.65 80.72 17.96 80.72" />
  </clipPath>
</defs>
</svg>
