<?xml version="1.0" encoding="UTF-8"?>
<svg xmlns="http://www.w3.org/2000/svg"
     xmlns:xlink="http://www.w3.org/1999/xlink"
     xmlns:gadfly="http://www.gadflyjl.org/ns"
     version="1.2"
     width="150mm" height="100mm" viewBox="0 0 150 100"
     stroke="none"
     fill="#000000"
     stroke-width="0.3"
     font-size="3.88"
>
<defs>
  <marker id="arrow" markerWidth="15" markerHeight="7" refX="5" refY="3.5" orient="auto" markerUnits="strokeWidth">
    <path d="M0,0 L15,3.5 L0,7 z" stroke="context-stroke" fill="context-stroke"/>
  </marker>
</defs>
<g class="plotroot xscalable yscalable" id="img-2ce70c9e-1">
  <g font-size="3.88" font-family="'PT Sans','Helvetica Neue','Helvetica',sans-serif" fill="#564A55" stroke="#000000" stroke-opacity="0.000" id="img-2ce70c9e-2">
    <g transform="translate(78.13,88.39)">
      <g class="primitive">
        <text text-anchor="middle" dy="0.6em">Appearence</text>
      </g>
    </g>
  </g>
  <g class="guide xlabels" font-size="2.82" font-family="'PT Sans Caption','Helvetica Neue','Helvetica',sans-serif" fill="#6C606B" id="img-2ce70c9e-3">
    <g transform="translate(22.31,81.72)">
      <g class="primitive">
        <text text-anchor="middle" dy="0.6em">0.0</text>
      </g>
    </g>
    <g transform="translate(78.13,81.72)">
      <g class="primitive">
        <text text-anchor="middle" dy="0.6em">0.5</text>
      </g>
    </g>
    <g transform="translate(133.96,81.72)">
      <g class="primitive">
        <text text-anchor="middle" dy="0.6em">1.0</text>
      </g>
    </g>
  </g>
  <g class="guide colorkey" id="img-2ce70c9e-4">
    <g fill="#4C404B" font-size="2.82" font-family="'PT Sans','Helvetica Neue','Helvetica',sans-serif" id="img-2ce70c9e-5">
      <g transform="translate(139.77,37.42)" id="img-2ce70c9e-6" class="color_0.0">
        <g class="primitive">
          <text dy="0.35em">0.0</text>
        </g>
      </g>
      <g transform="translate(139.77,41.04)" id="img-2ce70c9e-7" class="color_0.25">
        <g class="primitive">
          <text dy="0.35em">0.25</text>
        </g>
      </g>
      <g transform="translate(139.77,44.67)" id="img-2ce70c9e-8" class="color_0.5">
        <g class="primitive">
          <text dy="0.35em">0.5</text>
        </g>
      </g>
      <g transform="translate(139.77,48.3)" id="img-2ce70c9e-9" class="color_0.75">
        <g class="primitive">
          <text dy="0.35em">0.75</text>
        </g>
      </g>
      <g transform="translate(139.77,51.92)" id="img-2ce70c9e-10" class="color_1.0">
        <g class="primitive">
          <text dy="0.35em">1.0</text>
        </g>
      </g>
    </g>
    <g stroke="#000000" stroke-opacity="0.000" id="img-2ce70c9e-11">
      <g transform="translate(137.87,37.42)" id="img-2ce70c9e-12" fill="#00BFFF" class="color_0.0">
        <path d="M-0.91,-0.91 L 0.91 -0.91 0.91 0.91 -0.91 0.91 z" class="primitive"/>
      </g>
      <g transform="translate(137.87,41.04)" id="img-2ce70c9e-13" fill="#D4CA3A" class="color_0.25">
        <path d="M-0.91,-0.91 L 0.91 -0.91 0.91 0.91 -0.91 0.91 z" class="primitive"/>
      </g>
      <g transform="translate(137.87,44.67)" id="img-2ce70c9e-14" fill="#FF6DAE" class="color_0.5">
        <path d="M-0.91,-0.91 L 0.91 -0.91 0.91 0.91 -0.91 0.91 z" class="primitive"/>
      </g>
      <g transform="translate(137.87,48.3)" id="img-2ce70c9e-15" fill="#00B78D" class="color_0.75">
        <path d="M-0.91,-0.91 L 0.91 -0.91 0.91 0.91 -0.91 0.91 z" class="primitive"/>
      </g>
      <g transform="translate(137.87,51.92)" id="img-2ce70c9e-16" fill="#BEA9FF" class="color_1.0">
        <path d="M-0.91,-0.91 L 0.91 -0.91 0.91 0.91 -0.91 0.91 z" class="primitive"/>
      </g>
    </g>
    <g fill="#362A35" font-size="3.88" font-family="'PT Sans','Helvetica Neue','Helvetica',sans-serif" stroke="#000000" stroke-opacity="0.000" id="img-2ce70c9e-17">
      <g transform="translate(136.96,33.6)" id="img-2ce70c9e-18">
        <g class="primitive">
          <text>a</text>
        </g>
      </g>
    </g>
  </g>
  <g clip-path="url(#img-2ce70c9e-19)">
    <g id="img-2ce70c9e-20">
      <g pointer-events="visible" fill="#000000" fill-opacity="0.000" stroke="#000000" stroke-opacity="0.000" class="guide background" id="img-2ce70c9e-21">
        <g transform="translate(78.13,42.86)" id="img-2ce70c9e-22">
          <path d="M-57.83,-37.86 L 57.83 -37.86 57.83 37.86 -57.83 37.86 z" class="primitive"/>
        </g>
      </g>
      <g class="guide ygridlines xfixed" stroke-dasharray="0.5,0.5" stroke-width="0.2" stroke="#D0D0E0" id="img-2ce70c9e-23">
        <g transform="translate(78.13,78.72)" id="img-2ce70c9e-24">
          <path fill="none" d="M-57.83,0 L 57.83 0" class="primitive"/>
        </g>
        <g transform="translate(78.13,60.79)" id="img-2ce70c9e-25">
          <path fill="none" d="M-57.83,0 L 57.83 0" class="primitive"/>
        </g>
        <g transform="translate(78.13,42.86)" id="img-2ce70c9e-26">
          <path fill="none" d="M-57.83,0 L 57.83 0" class="primitive"/>
        </g>
        <g transform="translate(78.13,24.93)" id="img-2ce70c9e-27">
          <path fill="none" d="M-57.83,0 L 57.83 0" class="primitive"/>
        </g>
        <g transform="translate(78.13,7)" id="img-2ce70c9e-28">
          <path fill="none" d="M-57.83,0 L 57.83 0" class="primitive"/>
        </g>
      </g>
      <g class="guide xgridlines yfixed" stroke-dasharray="0.5,0.5" stroke-width="0.2" stroke="#D0D0E0" id="img-2ce70c9e-29">
        <g transform="translate(22.31,42.86)" id="img-2ce70c9e-30">
          <path fill="none" d="M0,-37.86 L 0 37.86" class="primitive"/>
        </g>
        <g transform="translate(78.13,42.86)" id="img-2ce70c9e-31">
          <path fill="none" d="M0,-37.86 L 0 37.86" class="primitive"/>
        </g>
        <g transform="translate(133.96,42.86)" id="img-2ce70c9e-32">
          <path fill="none" d="M0,-37.86 L 0 37.86" class="primitive"/>
        </g>
      </g>
      <g class="plotpanel" id="img-2ce70c9e-33">
        <metadata>
          <boundingbox value="20.305000000000007mm 5.0mm 115.655mm 75.715mm"/>
          <unitbox value="-0.0179123191975281 0.2055776336889075 1.0358246383950562 -0.21115526737781498"/>
        </metadata>
        <g stroke-width="0.3" fill="#000000" fill-opacity="0.000" class="geometry" id="img-2ce70c9e-34">
          <g transform="translate(78.13,60.79)" id="img-2ce70c9e-35" stroke="#00BFFF" stroke-dasharray="none" class="color_0.0">
            <path fill="none" d="M-53.04,17.93 L -47.45 17.93 -41.87 17.85 -36.29 17.36 -30.71 16.03 -25.12 12.02 -19.54 2.86 -13.96 -13.93 -8.37 -37.22 -2.79 -48.52 2.79 -50.1 8.37 -36.27 13.96 -15.66 19.54 2.04 25.12 11.14 30.71 15.54 36.29 17.27 41.87 17.89 47.45 17.9 53.04 17.93" class="primitive"/>
          </g>
          <g transform="translate(78.13,60.79)" id="img-2ce70c9e-36" stroke="#D4CA3A" stroke-dasharray="none" class="color_0.25">
            <path fill="none" d="M-53.04,17.91 L -47.45 17.91 -41.87 17.82 -36.29 17.41 -30.71 15.24 -25.12 11.9 -19.54 0.42 -13.96 -12.45 -8.37 -35.12 -2.79 -50.1 2.79 -50.44 8.37 -34.68 13.96 -15.9 19.54 1.62 25.12 11.18 30.71 16.23 36.29 17.37 41.87 17.82 47.45 17.92 53.04 17.93" class="primitive"/>
          </g>
          <g transform="translate(78.13,60.79)" id="img-2ce70c9e-37" stroke="#FF6DAE" stroke-dasharray="none" class="color_0.5">
            <path fill="none" d="M-53.04,17.9 L -47.45 17.88 -41.87 17.68 -36.29 17.32 -30.71 14.94 -25.12 10.52 -19.54 1.62 -13.96 -12.19 -8.37 -37.86 -2.79 -48.55 2.79 -48.62 8.37 -32.85 13.96 -15.02 19.54 1.06 25.12 10.34 30.71 15.15 36.29 17.17 41.87 17.69 47.45 17.91 53.04 17.92" class="primitive"/>
          </g>
          <g transform="translate(78.13,60.79)" id="img-2ce70c9e-38" stroke="#00B78D" stroke-dasharray="none" class="color_0.75">
            <path fill="none" d="M-53.04,17.54 L -47.45 17.55 -41.87 16.81 -36.29 12.28 -30.71 9.25 -25.12 3.35 -19.54 -2.59 -13.96 -12.56 -8.37 -30 -2.79 -31.94 2.79 -32.76 8.37 -24.23 13.96 -14.99 19.54 -4.43 25.12 4.46 30.71 9.01 36.29 13.1 41.87 16.65 47.45 16.68 53.04 16.82" class="primitive"/>
          </g>
          <g transform="translate(78.13,60.79)" id="img-2ce70c9e-39" stroke="#BEA9FF" stroke-dasharray="none" class="color_1.0">
            <path fill="none" d="M-53.04,0.04 L -47.45 2.28 -41.87 -1.55 -36.29 -2.85 -30.71 1.6 -25.12 -0.91 -19.54 4.46 -13.96 -2.99 -8.37 -0.08 -2.79 -0.78 2.79 1.17 8.37 2.36 13.96 1.56 19.54 1.99 25.12 -4.58 30.71 1.02 36.29 -0.27 41.87 3.23 47.45 0.07 53.04 -5.76" class="primitive"/>
          </g>
        </g>
      </g>
    </g>
  </g>
  <g class="guide ylabels" font-size="2.82" font-family="'PT Sans Caption','Helvetica Neue','Helvetica',sans-serif" fill="#6C606B" id="img-2ce70c9e-40">
    <g transform="translate(19.3,78.72)" id="img-2ce70c9e-41">
      <g class="primitive">
        <text text-anchor="end" dy="0.35em">0.00</text>
      </g>
    </g>
    <g transform="translate(19.3,60.79)" id="img-2ce70c9e-42">
      <g class="primitive">
        <text text-anchor="end" dy="0.35em">0.05</text>
      </g>
    </g>
    <g transform="translate(19.3,42.86)" id="img-2ce70c9e-43">
      <g class="primitive">
        <text text-anchor="end" dy="0.35em">0.10</text>
      </g>
    </g>
    <g transform="translate(19.3,24.93)" id="img-2ce70c9e-44">
      <g class="primitive">
        <text text-anchor="end" dy="0.35em">0.15</text>
      </g>
    </g>
    <g transform="translate(19.3,7)" id="img-2ce70c9e-45">
      <g class="primitive">
        <text text-anchor="end" dy="0.35em">0.20</text>
      </g>
    </g>
  </g>
  <g font-size="3.88" font-family="'PT Sans','Helvetica Neue','Helvetica',sans-serif" fill="#564A55" stroke="#000000" stroke-opacity="0.000" id="img-2ce70c9e-46">
    <g transform="translate(8.81,40.86)" id="img-2ce70c9e-47">
      <g class="primitive">
        <text text-anchor="middle" dy="0.35em" transform="rotate(-90,0, 2)">Frequencia</text>
      </g>
    </g>
  </g>
</g>
<defs>
  <clipPath id="img-2ce70c9e-19">
    <path d="M20.31,5 L 135.96 5 135.96 80.72 20.31 80.72" />
  </clipPath>
</defs>
</svg>
