<?xml version="1.0" encoding="UTF-8"?>
<svg xmlns="http://www.w3.org/2000/svg"
     xmlns:xlink="http://www.w3.org/1999/xlink"
     xmlns:gadfly="http://www.gadflyjl.org/ns"
     version="1.2"
     width="150mm" height="100mm" viewBox="0 0 150 100"
     stroke="none"
     fill="#000000"
     stroke-width="0.3"
     font-size="3.88"
>
<defs>
  <marker id="arrow" markerWidth="15" markerHeight="7" refX="5" refY="3.5" orient="auto" markerUnits="strokeWidth">
    <path d="M0,0 L15,3.5 L0,7 z" stroke="context-stroke" fill="context-stroke"/>
  </marker>
</defs>
<g class="plotroot xscalable yscalable" id="img-d5d1fe43-1">
  <g font-size="3.88" font-family="'PT Sans','Helvetica Neue','Helvetica',sans-serif" fill="#564A55" stroke="#000000" stroke-opacity="0.000" id="img-d5d1fe43-2">
    <g transform="translate(78.13,88.39)">
      <g class="primitive">
        <text text-anchor="middle" dy="0.6em">Fitness</text>
      </g>
    </g>
  </g>
  <g class="guide xlabels" font-size="2.82" font-family="'PT Sans Caption','Helvetica Neue','Helvetica',sans-serif" fill="#6C606B" id="img-d5d1fe43-3">
    <g transform="translate(22.31,81.72)">
      <g class="primitive">
        <text text-anchor="middle" dy="0.6em">0.0</text>
      </g>
    </g>
    <g transform="translate(78.13,81.72)">
      <g class="primitive">
        <text text-anchor="middle" dy="0.6em">0.5</text>
      </g>
    </g>
    <g transform="translate(133.96,81.72)">
      <g class="primitive">
        <text text-anchor="middle" dy="0.6em">1.0</text>
      </g>
    </g>
  </g>
  <g class="guide colorkey" id="img-d5d1fe43-4">
    <g fill="#4C404B" font-size="2.82" font-family="'PT Sans','Helvetica Neue','Helvetica',sans-serif" id="img-d5d1fe43-5">
      <g transform="translate(139.77,37.42)" id="img-d5d1fe43-6" class="color_0.0">
        <g class="primitive">
          <text dy="0.35em">0.0</text>
        </g>
      </g>
      <g transform="translate(139.77,41.04)" id="img-d5d1fe43-7" class="color_0.25">
        <g class="primitive">
          <text dy="0.35em">0.25</text>
        </g>
      </g>
      <g transform="translate(139.77,44.67)" id="img-d5d1fe43-8" class="color_0.5">
        <g class="primitive">
          <text dy="0.35em">0.5</text>
        </g>
      </g>
      <g transform="translate(139.77,48.3)" id="img-d5d1fe43-9" class="color_0.75">
        <g class="primitive">
          <text dy="0.35em">0.75</text>
        </g>
      </g>
      <g transform="translate(139.77,51.92)" id="img-d5d1fe43-10" class="color_1.0">
        <g class="primitive">
          <text dy="0.35em">1.0</text>
        </g>
      </g>
    </g>
    <g stroke="#000000" stroke-opacity="0.000" id="img-d5d1fe43-11">
      <g transform="translate(137.87,37.42)" id="img-d5d1fe43-12" fill="#00BFFF" class="color_0.0">
        <path d="M-0.91,-0.91 L 0.91 -0.91 0.91 0.91 -0.91 0.91 z" class="primitive"/>
      </g>
      <g transform="translate(137.87,41.04)" id="img-d5d1fe43-13" fill="#D4CA3A" class="color_0.25">
        <path d="M-0.91,-0.91 L 0.91 -0.91 0.91 0.91 -0.91 0.91 z" class="primitive"/>
      </g>
      <g transform="translate(137.87,44.67)" id="img-d5d1fe43-14" fill="#FF6DAE" class="color_0.5">
        <path d="M-0.91,-0.91 L 0.91 -0.91 0.91 0.91 -0.91 0.91 z" class="primitive"/>
      </g>
      <g transform="translate(137.87,48.3)" id="img-d5d1fe43-15" fill="#00B78D" class="color_0.75">
        <path d="M-0.91,-0.91 L 0.91 -0.91 0.91 0.91 -0.91 0.91 z" class="primitive"/>
      </g>
      <g transform="translate(137.87,51.92)" id="img-d5d1fe43-16" fill="#BEA9FF" class="color_1.0">
        <path d="M-0.91,-0.91 L 0.91 -0.91 0.91 0.91 -0.91 0.91 z" class="primitive"/>
      </g>
    </g>
    <g fill="#362A35" font-size="3.88" font-family="'PT Sans','Helvetica Neue','Helvetica',sans-serif" stroke="#000000" stroke-opacity="0.000" id="img-d5d1fe43-17">
      <g transform="translate(136.96,33.6)" id="img-d5d1fe43-18">
        <g class="primitive">
          <text>a</text>
        </g>
      </g>
    </g>
  </g>
  <g clip-path="url(#img-d5d1fe43-19)">
    <g id="img-d5d1fe43-20">
      <g pointer-events="visible" fill="#000000" fill-opacity="0.000" stroke="#000000" stroke-opacity="0.000" class="guide background" id="img-d5d1fe43-21">
        <g transform="translate(78.13,42.86)" id="img-d5d1fe43-22">
          <path d="M-57.83,-37.86 L 57.83 -37.86 57.83 37.86 -57.83 37.86 z" class="primitive"/>
        </g>
      </g>
      <g class="guide ygridlines xfixed" stroke-dasharray="0.5,0.5" stroke-width="0.2" stroke="#D0D0E0" id="img-d5d1fe43-23">
        <g transform="translate(78.13,78.72)" id="img-d5d1fe43-24">
          <path fill="none" d="M-57.83,0 L 57.83 0" class="primitive"/>
        </g>
        <g transform="translate(78.13,60.79)" id="img-d5d1fe43-25">
          <path fill="none" d="M-57.83,0 L 57.83 0" class="primitive"/>
        </g>
        <g transform="translate(78.13,42.86)" id="img-d5d1fe43-26">
          <path fill="none" d="M-57.83,0 L 57.83 0" class="primitive"/>
        </g>
        <g transform="translate(78.13,24.93)" id="img-d5d1fe43-27">
          <path fill="none" d="M-57.83,0 L 57.83 0" class="primitive"/>
        </g>
        <g transform="translate(78.13,7)" id="img-d5d1fe43-28">
          <path fill="none" d="M-57.83,0 L 57.83 0" class="primitive"/>
        </g>
      </g>
      <g class="guide xgridlines yfixed" stroke-dasharray="0.5,0.5" stroke-width="0.2" stroke="#D0D0E0" id="img-d5d1fe43-29">
        <g transform="translate(22.31,42.86)" id="img-d5d1fe43-30">
          <path fill="none" d="M0,-37.86 L 0 37.86" class="primitive"/>
        </g>
        <g transform="translate(78.13,42.86)" id="img-d5d1fe43-31">
          <path fill="none" d="M0,-37.86 L 0 37.86" class="primitive"/>
        </g>
        <g transform="translate(133.96,42.86)" id="img-d5d1fe43-32">
          <path fill="none" d="M0,-37.86 L 0 37.86" class="primitive"/>
        </g>
      </g>
      <g class="plotpanel" id="img-d5d1fe43-33">
        <metadata>
          <boundingbox value="20.305000000000007mm 5.0mm 115.655mm 75.715mm"/>
          <unitbox value="-0.0179123191975281 0.2055776336889075 1.0358246383950562 -0.21115526737781498"/>
        </metadata>
        <g stroke-width="0.3" fill="#000000" fill-opacity="0.000" class="geometry" id="img-d5d1fe43-34">
          <g transform="translate(78.13,60.79)" id="img-d5d1fe43-35" stroke="#00BFFF" stroke-dasharray="none" class="color_0.0">
            <path fill="none" d="M-53.04,-16.88 L -47.45 -11.59 -41.87 -12.38 -36.29 -9.57 -30.71 -12.34 -25.12 -16.29 -19.54 -14.18 -13.96 -17.45 -8.37 -14.23 -2.79 -11.68 2.79 -4.93 8.37 3.78 13.96 12.79 19.54 17.37 25.12 17.93 30.71 17.93 36.29 17.93 41.87 17.93 47.45 17.93 53.04 17.93" class="primitive"/>
          </g>
          <g transform="translate(78.13,60.79)" id="img-d5d1fe43-36" stroke="#D4CA3A" stroke-dasharray="none" class="color_0.25">
            <path fill="none" d="M-53.04,-0.39 L -47.45 -10.68 -41.87 -6.38 -36.29 -12.1 -30.71 -16.81 -25.12 -13.33 -19.54 -14.56 -13.96 -17.47 -8.37 -20.85 -2.79 -14.11 2.79 -9.25 8.37 1.85 13.96 10.63 19.54 15.87 25.12 17.93 30.71 17.93 36.29 17.93 41.87 17.93 47.45 17.93 53.04 17.93" class="primitive"/>
          </g>
          <g transform="translate(78.13,60.79)" id="img-d5d1fe43-37" stroke="#FF6DAE" stroke-dasharray="none" class="color_0.5">
            <path fill="none" d="M-53.04,-3.39 L -47.45 -0.75 -41.87 -5.03 -36.29 -0.6 -30.71 -1.57 -25.12 -3.88 -19.54 -17.19 -13.96 -19.31 -8.37 -11.52 -2.79 -15.79 2.79 -22.29 8.37 -20.21 13.96 -0.19 19.54 14.15 25.12 17.93 30.71 17.93 36.29 17.93 41.87 17.93 47.45 17.93 53.04 17.93" class="primitive"/>
          </g>
          <g transform="translate(78.13,60.79)" id="img-d5d1fe43-38" stroke="#00B78D" stroke-dasharray="none" class="color_0.75">
            <path fill="none" d="M-53.04,-0.24 L -47.45 1.1 -41.87 -0.65 -36.29 -0.54 -30.71 -6.95 -25.12 -10.81 -19.54 -15.38 -13.96 -12.88 -8.37 -18.14 -2.79 -21.73 2.79 -18.45 8.37 -11.83 13.96 -4.52 19.54 13.45 25.12 17.93 30.71 17.93 36.29 17.93 41.87 17.93 47.45 17.93 53.04 17.93" class="primitive"/>
          </g>
          <g transform="translate(78.13,60.79)" id="img-d5d1fe43-39" stroke="#BEA9FF" stroke-dasharray="none" class="color_1.0">
            <path fill="none" d="M-53.04,-3.02 L -47.45 4.81 -41.87 1.68 -36.29 -8.82 -30.71 -8.15 -25.12 -0.25 -19.54 -12.98 -13.96 -4 -8.37 -15.04 -2.79 -16.5 2.79 -21.84 8.37 -19.71 13.96 -8.13 19.54 5.09 25.12 17.21 30.71 17.93 36.29 17.93 41.87 17.93 47.45 17.93 53.04 17.93" class="primitive"/>
          </g>
        </g>
      </g>
    </g>
  </g>
  <g class="guide ylabels" font-size="2.82" font-family="'PT Sans Caption','Helvetica Neue','Helvetica',sans-serif" fill="#6C606B" id="img-d5d1fe43-40">
    <g transform="translate(19.3,78.72)" id="img-d5d1fe43-41">
      <g class="primitive">
        <text text-anchor="end" dy="0.35em">0.00</text>
      </g>
    </g>
    <g transform="translate(19.3,60.79)" id="img-d5d1fe43-42">
      <g class="primitive">
        <text text-anchor="end" dy="0.35em">0.05</text>
      </g>
    </g>
    <g transform="translate(19.3,42.86)" id="img-d5d1fe43-43">
      <g class="primitive">
        <text text-anchor="end" dy="0.35em">0.10</text>
      </g>
    </g>
    <g transform="translate(19.3,24.93)" id="img-d5d1fe43-44">
      <g class="primitive">
        <text text-anchor="end" dy="0.35em">0.15</text>
      </g>
    </g>
    <g transform="translate(19.3,7)" id="img-d5d1fe43-45">
      <g class="primitive">
        <text text-anchor="end" dy="0.35em">0.20</text>
      </g>
    </g>
  </g>
  <g font-size="3.88" font-family="'PT Sans','Helvetica Neue','Helvetica',sans-serif" fill="#564A55" stroke="#000000" stroke-opacity="0.000" id="img-d5d1fe43-46">
    <g transform="translate(8.81,40.86)" id="img-d5d1fe43-47">
      <g class="primitive">
        <text text-anchor="middle" dy="0.35em" transform="rotate(-90,0, 2)">Frequencia</text>
      </g>
    </g>
  </g>
</g>
<defs>
  <clipPath id="img-d5d1fe43-19">
    <path d="M20.31,5 L 135.96 5 135.96 80.72 20.31 80.72" />
  </clipPath>
</defs>
</svg>
