<?xml version="1.0" encoding="UTF-8"?>
<svg xmlns="http://www.w3.org/2000/svg"
     xmlns:xlink="http://www.w3.org/1999/xlink"
     xmlns:gadfly="http://www.gadflyjl.org/ns"
     version="1.2"
     width="150mm" height="100mm" viewBox="0 0 150 100"
     stroke="none"
     fill="#000000"
     stroke-width="0.3"
     font-size="3.88"
>
<defs>
  <marker id="arrow" markerWidth="15" markerHeight="7" refX="5" refY="3.5" orient="auto" markerUnits="strokeWidth">
    <path d="M0,0 L15,3.5 L0,7 z" stroke="context-stroke" fill="context-stroke"/>
  </marker>
</defs>
<g class="plotroot xscalable yscalable" id="img-e6e5eb88-1">
  <g font-size="3.88" font-family="'PT Sans','Helvetica Neue','Helvetica',sans-serif" fill="#564A55" stroke="#000000" stroke-opacity="0.000" id="img-e6e5eb88-2">
    <g transform="translate(77.67,88.39)">
      <g class="primitive">
        <text text-anchor="middle" dy="0.6em">Fitness</text>
      </g>
    </g>
  </g>
  <g class="guide xlabels" font-size="2.82" font-family="'PT Sans Caption','Helvetica Neue','Helvetica',sans-serif" fill="#6C606B" id="img-e6e5eb88-3">
    <g transform="translate(22.31,81.72)">
      <g class="primitive">
        <text text-anchor="middle" dy="0.6em">0.0</text>
      </g>
    </g>
    <g transform="translate(77.67,81.72)">
      <g class="primitive">
        <text text-anchor="middle" dy="0.6em">0.5</text>
      </g>
    </g>
    <g transform="translate(133.03,81.72)">
      <g class="primitive">
        <text text-anchor="middle" dy="0.6em">1.0</text>
      </g>
    </g>
  </g>
  <g class="guide colorkey" id="img-e6e5eb88-4">
    <g fill="#4C404B" font-size="2.82" font-family="'PT Sans','Helvetica Neue','Helvetica',sans-serif" id="img-e6e5eb88-5">
      <g transform="translate(138.84,39.23)" id="img-e6e5eb88-6" class="color_1">
        <g class="primitive">
          <text dy="0.35em">1</text>
        </g>
      </g>
      <g transform="translate(138.84,42.86)" id="img-e6e5eb88-7" class="color_7">
        <g class="primitive">
          <text dy="0.35em">7</text>
        </g>
      </g>
      <g transform="translate(138.84,46.48)" id="img-e6e5eb88-8" class="color_49">
        <g class="primitive">
          <text dy="0.35em">49</text>
        </g>
      </g>
      <g transform="translate(138.84,50.11)" id="img-e6e5eb88-9" class="color_2401">
        <g class="primitive">
          <text dy="0.35em">2401</text>
        </g>
      </g>
    </g>
    <g stroke="#000000" stroke-opacity="0.000" id="img-e6e5eb88-10">
      <g transform="translate(136.93,39.23)" id="img-e6e5eb88-11" fill="#00BFFF" class="color_1">
        <path d="M-0.91,-0.91 L 0.91 -0.91 0.91 0.91 -0.91 0.91 z" class="primitive"/>
      </g>
      <g transform="translate(136.93,42.86)" id="img-e6e5eb88-12" fill="#D4CA3A" class="color_7">
        <path d="M-0.91,-0.91 L 0.91 -0.91 0.91 0.91 -0.91 0.91 z" class="primitive"/>
      </g>
      <g transform="translate(136.93,46.48)" id="img-e6e5eb88-13" fill="#FF6DAE" class="color_49">
        <path d="M-0.91,-0.91 L 0.91 -0.91 0.91 0.91 -0.91 0.91 z" class="primitive"/>
      </g>
      <g transform="translate(136.93,50.11)" id="img-e6e5eb88-14" fill="#00B78D" class="color_2401">
        <path d="M-0.91,-0.91 L 0.91 -0.91 0.91 0.91 -0.91 0.91 z" class="primitive"/>
      </g>
    </g>
    <g fill="#362A35" font-size="3.88" font-family="'PT Sans','Helvetica Neue','Helvetica',sans-serif" stroke="#000000" stroke-opacity="0.000" id="img-e6e5eb88-15">
      <g transform="translate(136.03,35.41)" id="img-e6e5eb88-16">
        <g class="primitive">
          <text>r</text>
        </g>
      </g>
    </g>
  </g>
  <g clip-path="url(#img-e6e5eb88-17)">
    <g id="img-e6e5eb88-18">
      <g pointer-events="visible" fill="#000000" fill-opacity="0.000" stroke="#000000" stroke-opacity="0.000" class="guide background" id="img-e6e5eb88-19">
        <g transform="translate(77.67,42.86)" id="img-e6e5eb88-20">
          <path d="M-57.36,-37.86 L 57.36 -37.86 57.36 37.86 -57.36 37.86 z" class="primitive"/>
        </g>
      </g>
      <g class="guide ygridlines xfixed" stroke-dasharray="0.5,0.5" stroke-width="0.2" stroke="#D0D0E0" id="img-e6e5eb88-21">
        <g transform="translate(77.67,78.72)" id="img-e6e5eb88-22">
          <path fill="none" d="M-57.36,0 L 57.36 0" class="primitive"/>
        </g>
        <g transform="translate(77.67,60.79)" id="img-e6e5eb88-23">
          <path fill="none" d="M-57.36,0 L 57.36 0" class="primitive"/>
        </g>
        <g transform="translate(77.67,42.86)" id="img-e6e5eb88-24">
          <path fill="none" d="M-57.36,0 L 57.36 0" class="primitive"/>
        </g>
        <g transform="translate(77.67,24.93)" id="img-e6e5eb88-25">
          <path fill="none" d="M-57.36,0 L 57.36 0" class="primitive"/>
        </g>
        <g transform="translate(77.67,7)" id="img-e6e5eb88-26">
          <path fill="none" d="M-57.36,0 L 57.36 0" class="primitive"/>
        </g>
      </g>
      <g class="guide xgridlines yfixed" stroke-dasharray="0.5,0.5" stroke-width="0.2" stroke="#D0D0E0" id="img-e6e5eb88-27">
        <g transform="translate(22.31,42.86)" id="img-e6e5eb88-28">
          <path fill="none" d="M0,-37.86 L 0 37.86" class="primitive"/>
        </g>
        <g transform="translate(77.67,42.86)" id="img-e6e5eb88-29">
          <path fill="none" d="M0,-37.86 L 0 37.86" class="primitive"/>
        </g>
        <g transform="translate(133.03,42.86)" id="img-e6e5eb88-30">
          <path fill="none" d="M0,-37.86 L 0 37.86" class="primitive"/>
        </g>
      </g>
      <g class="plotpanel" id="img-e6e5eb88-31">
        <metadata>
          <boundingbox value="20.305000000000007mm 5.0mm 114.72166666666666mm 75.715mm"/>
          <unitbox value="-0.018063311908238375 0.2055776336889075 1.0361266238164768 -0.21115526737781498"/>
        </metadata>
        <g stroke-width="0.3" fill="#000000" fill-opacity="0.000" class="geometry" id="img-e6e5eb88-32">
          <g transform="translate(77.67,60.79)" id="img-e6e5eb88-33" stroke="#00BFFF" stroke-dasharray="none" class="color_1">
            <path fill="none" d="M-52.59,-8.29 L -47.06 -4.65 -41.52 -4.31 -35.98 -11.04 -30.45 -4.96 -24.91 -3.1 -19.38 -13.59 -13.84 -15.55 -8.3 -19.01 -2.77 -19.85 2.77 -14.14 8.3 -8.08 13.84 3.65 19.38 15.34 24.91 17.93 30.45 17.93 35.98 17.93 41.52 17.93 47.06 17.93 52.59 17.93" class="primitive"/>
          </g>
          <g transform="translate(77.67,60.79)" id="img-e6e5eb88-34" stroke="#D4CA3A" stroke-dasharray="none" class="color_7">
            <path fill="none" d="M-52.59,-6.17 L -47.06 -6.94 -41.52 -4.84 -35.98 -6.22 -30.45 -7.44 -24.91 -6.3 -19.38 -10.56 -13.84 -14.75 -8.3 -16.67 -2.77 -16.81 2.77 -15.45 8.3 -11.79 13.84 1.52 19.38 14.92 24.91 17.85 30.45 17.93 35.98 17.93 41.52 17.93 47.06 17.93 52.59 17.93" class="primitive"/>
          </g>
          <g transform="translate(77.67,60.79)" id="img-e6e5eb88-35" stroke="#FF6DAE" stroke-dasharray="none" class="color_49">
            <path fill="none" d="M-52.59,-8.08 L -47.06 -8.55 -41.52 -9.87 -35.98 -11.43 -30.45 -13.02 -24.91 -14.39 -19.38 -15.5 -13.84 -16.17 -8.3 -14.82 -2.77 -13.21 2.77 -8.22 8.3 -0.95 13.84 10.06 19.38 16.61 24.91 17.9 30.45 17.93 35.98 17.93 41.52 17.93 47.06 17.93 52.59 17.93" class="primitive"/>
          </g>
          <g transform="translate(77.67,60.79)" id="img-e6e5eb88-36" stroke="#00B78D" stroke-dasharray="none" class="color_2401">
            <path fill="none" d="M-52.59,-7.91 L -47.06 -9.32 -41.52 -10.72 -35.98 -11.94 -30.45 -13.53 -24.91 -14.79 -19.38 -15.81 -13.84 -15.81 -8.3 -15.07 -2.77 -12.54 2.77 -7.67 8.3 0.06 13.84 10.65 19.38 16.85 24.91 17.9 30.45 17.93 35.98 17.93 41.52 17.93 47.06 17.93 52.59 17.93" class="primitive"/>
          </g>
        </g>
      </g>
    </g>
  </g>
  <g class="guide ylabels" font-size="2.82" font-family="'PT Sans Caption','Helvetica Neue','Helvetica',sans-serif" fill="#6C606B" id="img-e6e5eb88-37">
    <g transform="translate(19.3,78.72)" id="img-e6e5eb88-38">
      <g class="primitive">
        <text text-anchor="end" dy="0.35em">0.00</text>
      </g>
    </g>
    <g transform="translate(19.3,60.79)" id="img-e6e5eb88-39">
      <g class="primitive">
        <text text-anchor="end" dy="0.35em">0.05</text>
      </g>
    </g>
    <g transform="translate(19.3,42.86)" id="img-e6e5eb88-40">
      <g class="primitive">
        <text text-anchor="end" dy="0.35em">0.10</text>
      </g>
    </g>
    <g transform="translate(19.3,24.93)" id="img-e6e5eb88-41">
      <g class="primitive">
        <text text-anchor="end" dy="0.35em">0.15</text>
      </g>
    </g>
    <g transform="translate(19.3,7)" id="img-e6e5eb88-42">
      <g class="primitive">
        <text text-anchor="end" dy="0.35em">0.20</text>
      </g>
    </g>
  </g>
  <g font-size="3.88" font-family="'PT Sans','Helvetica Neue','Helvetica',sans-serif" fill="#564A55" stroke="#000000" stroke-opacity="0.000" id="img-e6e5eb88-43">
    <g transform="translate(8.81,40.86)" id="img-e6e5eb88-44">
      <g class="primitive">
        <text text-anchor="middle" dy="0.35em" transform="rotate(-90,0, 2)">Frequencia</text>
      </g>
    </g>
  </g>
</g>
<defs>
  <clipPath id="img-e6e5eb88-17">
    <path d="M20.31,5 L 135.03 5 135.03 80.72 20.31 80.72" />
  </clipPath>
</defs>
</svg>
