<?xml version="1.0" encoding="UTF-8"?>
<svg xmlns="http://www.w3.org/2000/svg"
     xmlns:xlink="http://www.w3.org/1999/xlink"
     xmlns:gadfly="http://www.gadflyjl.org/ns"
     version="1.2"
     width="150mm" height="100mm" viewBox="0 0 150 100"
     stroke="none"
     fill="#000000"
     stroke-width="0.3"
     font-size="3.88"
>
<defs>
  <marker id="arrow" markerWidth="15" markerHeight="7" refX="5" refY="3.5" orient="auto" markerUnits="strokeWidth">
    <path d="M0,0 L15,3.5 L0,7 z" stroke="context-stroke" fill="context-stroke"/>
  </marker>
</defs>
<g class="plotroot xscalable yscalable" id="img-135b7cb3-1">
  <g font-size="3.88" font-family="'PT Sans','Helvetica Neue','Helvetica',sans-serif" fill="#564A55" stroke="#000000" stroke-opacity="0.000" id="img-135b7cb3-2">
    <g transform="translate(78.44,88.39)">
      <g class="primitive">
        <text text-anchor="middle" dy="0.6em">Appearence</text>
      </g>
    </g>
  </g>
  <g class="guide xlabels" font-size="2.82" font-family="'PT Sans Caption','Helvetica Neue','Helvetica',sans-serif" fill="#6C606B" id="img-135b7cb3-3">
    <g transform="translate(22.3,81.72)">
      <g class="primitive">
        <text text-anchor="middle" dy="0.6em">0.0</text>
      </g>
    </g>
    <g transform="translate(78.44,81.72)">
      <g class="primitive">
        <text text-anchor="middle" dy="0.6em">0.5</text>
      </g>
    </g>
    <g transform="translate(134.57,81.72)">
      <g class="primitive">
        <text text-anchor="middle" dy="0.6em">1.0</text>
      </g>
    </g>
  </g>
  <g class="guide colorkey" id="img-135b7cb3-4">
    <g fill="#4C404B" font-size="2.82" font-family="'PT Sans','Helvetica Neue','Helvetica',sans-serif" id="img-135b7cb3-5">
      <g transform="translate(140.38,35.6)" id="img-135b7cb3-6" class="color_25">
        <g class="primitive">
          <text dy="0.35em">25</text>
        </g>
      </g>
      <g transform="translate(140.38,39.23)" id="img-135b7cb3-7" class="color_36">
        <g class="primitive">
          <text dy="0.35em">36</text>
        </g>
      </g>
      <g transform="translate(140.38,42.86)" id="img-135b7cb3-8" class="color_49">
        <g class="primitive">
          <text dy="0.35em">49</text>
        </g>
      </g>
      <g transform="translate(140.38,46.48)" id="img-135b7cb3-9" class="color_64">
        <g class="primitive">
          <text dy="0.35em">64</text>
        </g>
      </g>
      <g transform="translate(140.38,50.11)" id="img-135b7cb3-10" class="color_81">
        <g class="primitive">
          <text dy="0.35em">81</text>
        </g>
      </g>
      <g transform="translate(140.38,53.74)" id="img-135b7cb3-11" class="color_100">
        <g class="primitive">
          <text dy="0.35em">100</text>
        </g>
      </g>
    </g>
    <g stroke="#000000" stroke-opacity="0.000" id="img-135b7cb3-12">
      <g transform="translate(138.47,35.6)" id="img-135b7cb3-13" fill="#00BFFF" class="color_25">
        <path d="M-0.91,-0.91 L 0.91 -0.91 0.91 0.91 -0.91 0.91 z" class="primitive"/>
      </g>
      <g transform="translate(138.47,39.23)" id="img-135b7cb3-14" fill="#D4CA3A" class="color_36">
        <path d="M-0.91,-0.91 L 0.91 -0.91 0.91 0.91 -0.91 0.91 z" class="primitive"/>
      </g>
      <g transform="translate(138.47,42.86)" id="img-135b7cb3-15" fill="#FF6DAE" class="color_49">
        <path d="M-0.91,-0.91 L 0.91 -0.91 0.91 0.91 -0.91 0.91 z" class="primitive"/>
      </g>
      <g transform="translate(138.47,46.48)" id="img-135b7cb3-16" fill="#00B78D" class="color_64">
        <path d="M-0.91,-0.91 L 0.91 -0.91 0.91 0.91 -0.91 0.91 z" class="primitive"/>
      </g>
      <g transform="translate(138.47,50.11)" id="img-135b7cb3-17" fill="#BEA9FF" class="color_81">
        <path d="M-0.91,-0.91 L 0.91 -0.91 0.91 0.91 -0.91 0.91 z" class="primitive"/>
      </g>
      <g transform="translate(138.47,53.74)" id="img-135b7cb3-18" fill="#FF6765" class="color_100">
        <path d="M-0.91,-0.91 L 0.91 -0.91 0.91 0.91 -0.91 0.91 z" class="primitive"/>
      </g>
    </g>
    <g fill="#362A35" font-size="3.88" font-family="'PT Sans','Helvetica Neue','Helvetica',sans-serif" stroke="#000000" stroke-opacity="0.000" id="img-135b7cb3-19">
      <g transform="translate(137.57,31.78)" id="img-135b7cb3-20">
        <g class="primitive">
          <text>L</text>
        </g>
      </g>
    </g>
  </g>
  <g clip-path="url(#img-135b7cb3-21)">
    <g id="img-135b7cb3-22">
      <g pointer-events="visible" fill="#000000" fill-opacity="0.000" stroke="#000000" stroke-opacity="0.000" class="guide background" id="img-135b7cb3-23">
        <g transform="translate(78.44,42.86)" id="img-135b7cb3-24">
          <path d="M-58.13,-37.86 L 58.13 -37.86 58.13 37.86 -58.13 37.86 z" class="primitive"/>
        </g>
      </g>
      <g class="guide ygridlines xfixed" stroke-dasharray="0.5,0.5" stroke-width="0.2" stroke="#D0D0E0" id="img-135b7cb3-25">
        <g transform="translate(78.44,78.72)" id="img-135b7cb3-26">
          <path fill="none" d="M-58.13,0 L 58.13 0" class="primitive"/>
        </g>
        <g transform="translate(78.44,60.79)" id="img-135b7cb3-27">
          <path fill="none" d="M-58.13,0 L 58.13 0" class="primitive"/>
        </g>
        <g transform="translate(78.44,42.86)" id="img-135b7cb3-28">
          <path fill="none" d="M-58.13,0 L 58.13 0" class="primitive"/>
        </g>
        <g transform="translate(78.44,24.93)" id="img-135b7cb3-29">
          <path fill="none" d="M-58.13,0 L 58.13 0" class="primitive"/>
        </g>
        <g transform="translate(78.44,7)" id="img-135b7cb3-30">
          <path fill="none" d="M-58.13,0 L 58.13 0" class="primitive"/>
        </g>
      </g>
      <g class="guide xgridlines yfixed" stroke-dasharray="0.5,0.5" stroke-width="0.2" stroke="#D0D0E0" id="img-135b7cb3-31">
        <g transform="translate(22.3,42.86)" id="img-135b7cb3-32">
          <path fill="none" d="M0,-37.86 L 0 37.86" class="primitive"/>
        </g>
        <g transform="translate(78.44,42.86)" id="img-135b7cb3-33">
          <path fill="none" d="M0,-37.86 L 0 37.86" class="primitive"/>
        </g>
        <g transform="translate(134.57,42.86)" id="img-135b7cb3-34">
          <path fill="none" d="M0,-37.86 L 0 37.86" class="primitive"/>
        </g>
      </g>
      <g class="plotpanel" id="img-135b7cb3-35">
        <metadata>
          <boundingbox value="20.304999999999993mm 5.0mm 116.26166666666667mm 75.715mm"/>
          <unitbox value="-0.017815520287423725 0.2055776336889075 1.0356310405748475 -0.21115526737781498"/>
        </metadata>
        <g stroke-width="0.3" fill="#000000" fill-opacity="0.000" class="geometry" id="img-135b7cb3-36">
          <g transform="translate(78.44,60.79)" id="img-135b7cb3-37" stroke="#00BFFF" stroke-dasharray="none" class="color_25">
            <path fill="none" d="M-53.32,17.93 L -47.71 17.89 -42.1 17.71 -36.49 17.35 -30.87 14.79 -25.26 11.26 -19.65 2.42 -14.03 -13.65 -8.42 -37.66 -2.81 -52.34 2.81 -46.27 8.42 -34.16 14.03 -13.66 19.65 2.92 25.26 10.27 30.87 15.14 36.49 16.5 42.1 17.74 47.71 17.9 53.32 17.93" class="primitive"/>
          </g>
          <g transform="translate(78.44,60.79)" id="img-135b7cb3-38" stroke="#D4CA3A" stroke-dasharray="none" class="color_36">
            <path fill="none" d="M-53.32,17.93 L -47.71 17.89 -42.1 17.74 -36.49 17.19 -30.87 14.92 -25.26 10.12 -19.65 2.21 -14.03 -14.72 -8.42 -35.66 -2.81 -49.41 2.81 -45.88 8.42 -32.63 14.03 -17.14 19.65 1.02 25.26 10.87 30.87 14.88 36.49 17.28 42.1 17.64 47.71 17.83 53.32 17.93" class="primitive"/>
          </g>
          <g transform="translate(78.44,60.79)" id="img-135b7cb3-39" stroke="#FF6DAE" stroke-dasharray="none" class="color_49">
            <path fill="none" d="M-53.32,17.93 L -47.71 17.88 -42.1 17.76 -36.49 17.19 -30.87 15.34 -25.26 9.83 -19.65 1.09 -14.03 -15.9 -8.42 -29.4 -2.81 -51.8 2.81 -42.16 8.42 -41.1 14.03 -12.32 19.65 -0.13 25.26 9.73 30.87 15.48 36.49 17.14 42.1 17.65 47.71 17.89 53.32 17.9" class="primitive"/>
          </g>
          <g transform="translate(78.44,60.79)" id="img-135b7cb3-40" stroke="#00B78D" stroke-dasharray="none" class="color_64">
            <path fill="none" d="M-53.32,17.91 L -47.71 17.9 -42.1 17.73 -36.49 17.19 -30.87 15.13 -25.26 11.42 -19.65 -0.1 -14.03 -15.43 -8.42 -34.69 -2.81 -45.52 2.81 -48.86 8.42 -37.38 14.03 -11.43 19.65 0.96 25.26 9.94 30.87 14.68 36.49 17.12 42.1 17.62 47.71 17.89 53.32 17.93" class="primitive"/>
          </g>
          <g transform="translate(78.44,60.79)" id="img-135b7cb3-41" stroke="#BEA9FF" stroke-dasharray="none" class="color_81">
            <path fill="none" d="M-53.32,17.91 L -47.71 17.87 -42.1 17.6 -36.49 16.95 -30.87 14.92 -25.26 10.38 -19.65 0.13 -14.03 -14.12 -8.42 -37.71 -2.81 -43.52 2.81 -48.82 8.42 -30.76 14.03 -17.53 19.65 0.95 25.26 9.82 30.87 15.59 36.49 16.82 42.1 17.71 47.71 17.89 53.32 17.92" class="primitive"/>
          </g>
          <g transform="translate(78.44,60.79)" id="img-135b7cb3-42" stroke="#FF6765" stroke-dasharray="none" class="color_100">
            <path fill="none" d="M-53.32,17.92 L -47.71 17.9 -42.1 17.62 -36.49 17.2 -30.87 14.65 -25.26 10.77 -19.65 0.47 -14.03 -17.62 -8.42 -34.02 -2.81 -46.04 2.81 -44.41 8.42 -33.99 14.03 -16.71 19.65 -0.16 25.26 10.34 30.87 15.39 36.49 17.15 42.1 17.72 47.71 17.89 53.32 17.92" class="primitive"/>
          </g>
        </g>
      </g>
    </g>
  </g>
  <g class="guide ylabels" font-size="2.82" font-family="'PT Sans Caption','Helvetica Neue','Helvetica',sans-serif" fill="#6C606B" id="img-135b7cb3-43">
    <g transform="translate(19.3,78.72)" id="img-135b7cb3-44">
      <g class="primitive">
        <text text-anchor="end" dy="0.35em">0.00</text>
      </g>
    </g>
    <g transform="translate(19.3,60.79)" id="img-135b7cb3-45">
      <g class="primitive">
        <text text-anchor="end" dy="0.35em">0.05</text>
      </g>
    </g>
    <g transform="translate(19.3,42.86)" id="img-135b7cb3-46">
      <g class="primitive">
        <text text-anchor="end" dy="0.35em">0.10</text>
      </g>
    </g>
    <g transform="translate(19.3,24.93)" id="img-135b7cb3-47">
      <g class="primitive">
        <text text-anchor="end" dy="0.35em">0.15</text>
      </g>
    </g>
    <g transform="translate(19.3,7)" id="img-135b7cb3-48">
      <g class="primitive">
        <text text-anchor="end" dy="0.35em">0.20</text>
      </g>
    </g>
  </g>
  <g font-size="3.88" font-family="'PT Sans','Helvetica Neue','Helvetica',sans-serif" fill="#564A55" stroke="#000000" stroke-opacity="0.000" id="img-135b7cb3-49">
    <g transform="translate(8.81,40.86)" id="img-135b7cb3-50">
      <g class="primitive">
        <text text-anchor="middle" dy="0.35em" transform="rotate(-90,0, 2)">Frequencia</text>
      </g>
    </g>
  </g>
</g>
<defs>
  <clipPath id="img-135b7cb3-21">
    <path d="M20.3,5 L 136.57 5 136.57 80.72 20.3 80.72" />
  </clipPath>
</defs>
</svg>
