<?xml version="1.0" encoding="UTF-8"?>
<svg xmlns="http://www.w3.org/2000/svg"
     xmlns:xlink="http://www.w3.org/1999/xlink"
     xmlns:gadfly="http://www.gadflyjl.org/ns"
     version="1.2"
     width="150mm" height="100mm" viewBox="0 0 150 100"
     stroke="none"
     fill="#000000"
     stroke-width="0.3"
     font-size="3.88"
>
<defs>
  <marker id="arrow" markerWidth="15" markerHeight="7" refX="5" refY="3.5" orient="auto" markerUnits="strokeWidth">
    <path d="M0,0 L15,3.5 L0,7 z" stroke="context-stroke" fill="context-stroke"/>
  </marker>
</defs>
<g class="plotroot xscalable yscalable" id="img-ba635d29-1">
  <g font-size="3.88" font-family="'PT Sans','Helvetica Neue','Helvetica',sans-serif" fill="#564A55" stroke="#000000" stroke-opacity="0.000" id="img-ba635d29-2">
    <g transform="translate(81.48,88.39)">
      <g class="primitive">
        <text text-anchor="middle" dy="0.6em">Tempo</text>
      </g>
    </g>
  </g>
  <g class="guide xlabels" font-size="2.82" font-family="'PT Sans Caption','Helvetica Neue','Helvetica',sans-serif" fill="#6C606B" id="img-ba635d29-3">
    <g transform="translate(19.96,81.72)">
      <g class="primitive">
        <text text-anchor="middle" dy="0.6em">0</text>
      </g>
    </g>
    <g transform="translate(44.57,81.72)">
      <g class="primitive">
        <text text-anchor="middle" dy="0.6em">50</text>
      </g>
    </g>
    <g transform="translate(69.18,81.72)">
      <g class="primitive">
        <text text-anchor="middle" dy="0.6em">100</text>
      </g>
    </g>
    <g transform="translate(93.78,81.72)">
      <g class="primitive">
        <text text-anchor="middle" dy="0.6em">150</text>
      </g>
    </g>
    <g transform="translate(118.39,81.72)">
      <g class="primitive">
        <text text-anchor="middle" dy="0.6em">200</text>
      </g>
    </g>
    <g transform="translate(143,81.72)">
      <g class="primitive">
        <text text-anchor="middle" dy="0.6em">250</text>
      </g>
    </g>
  </g>
  <g clip-path="url(#img-ba635d29-4)">
    <g id="img-ba635d29-5">
      <g pointer-events="visible" fill="#000000" fill-opacity="0.000" stroke="#000000" stroke-opacity="0.000" class="guide background" id="img-ba635d29-6">
        <g transform="translate(81.48,42.86)" id="img-ba635d29-7">
          <path d="M-63.52,-37.86 L 63.52 -37.86 63.52 37.86 -63.52 37.86 z" class="primitive"/>
        </g>
      </g>
      <g class="guide ygridlines xfixed" stroke-dasharray="0.5,0.5" stroke-width="0.2" stroke="#D0D0E0" id="img-ba635d29-8">
        <g transform="translate(81.48,78.72)" id="img-ba635d29-9">
          <path fill="none" d="M-63.52,0 L 63.52 0" class="primitive"/>
        </g>
        <g transform="translate(81.48,66.76)" id="img-ba635d29-10">
          <path fill="none" d="M-63.52,0 L 63.52 0" class="primitive"/>
        </g>
        <g transform="translate(81.48,54.81)" id="img-ba635d29-11">
          <path fill="none" d="M-63.52,0 L 63.52 0" class="primitive"/>
        </g>
        <g transform="translate(81.48,42.86)" id="img-ba635d29-12">
          <path fill="none" d="M-63.52,0 L 63.52 0" class="primitive"/>
        </g>
        <g transform="translate(81.48,30.91)" id="img-ba635d29-13">
          <path fill="none" d="M-63.52,0 L 63.52 0" class="primitive"/>
        </g>
        <g transform="translate(81.48,18.95)" id="img-ba635d29-14">
          <path fill="none" d="M-63.52,0 L 63.52 0" class="primitive"/>
        </g>
        <g transform="translate(81.48,7)" id="img-ba635d29-15">
          <path fill="none" d="M-63.52,0 L 63.52 0" class="primitive"/>
        </g>
      </g>
      <g class="guide xgridlines yfixed" stroke-dasharray="0.5,0.5" stroke-width="0.2" stroke="#D0D0E0" id="img-ba635d29-16">
        <g transform="translate(19.96,42.86)" id="img-ba635d29-17">
          <path fill="none" d="M0,-37.86 L 0 37.86" class="primitive"/>
        </g>
        <g transform="translate(44.57,42.86)" id="img-ba635d29-18">
          <path fill="none" d="M0,-37.86 L 0 37.86" class="primitive"/>
        </g>
        <g transform="translate(69.18,42.86)" id="img-ba635d29-19">
          <path fill="none" d="M0,-37.86 L 0 37.86" class="primitive"/>
        </g>
        <g transform="translate(93.78,42.86)" id="img-ba635d29-20">
          <path fill="none" d="M0,-37.86 L 0 37.86" class="primitive"/>
        </g>
        <g transform="translate(118.39,42.86)" id="img-ba635d29-21">
          <path fill="none" d="M0,-37.86 L 0 37.86" class="primitive"/>
        </g>
        <g transform="translate(143,42.86)" id="img-ba635d29-22">
          <path fill="none" d="M0,-37.86 L 0 37.86" class="primitive"/>
        </g>
      </g>
      <g class="plotpanel" id="img-ba635d29-23">
        <metadata>
          <boundingbox value="17.958333333333343mm 5.0mm 127.04166666666666mm 75.715mm"/>
          <unitbox value="-4.063664070436844 61.67329010667225 258.1273281408737 -63.346580213344495"/>
        </metadata>
        <g shape-rendering="crispEdges" stroke-width="0.3" id="img-ba635d29-24">
          <g stroke="#000000" stroke-opacity="0.000" class="geometry" fill="#00BFFF" id="img-ba635d29-25">
            <g transform="translate(20.36,45.25)" id="img-ba635d29-26">
              <path d="M-0.43,-33.47 L 0.43 -33.47 0.43 33.47 -0.43 33.47 z" class="primitive"/>
            </g>
            <g transform="translate(21.17,46.44)" id="img-ba635d29-27">
              <path d="M-0.43,-32.27 L 0.43 -32.27 0.43 32.27 -0.43 32.27 z" class="primitive"/>
            </g>
            <g transform="translate(21.98,61.98)" id="img-ba635d29-28">
              <path d="M-0.43,-16.73 L 0.43 -16.73 0.43 16.73 -0.43 16.73 z" class="primitive"/>
            </g>
            <g transform="translate(22.78,44.05)" id="img-ba635d29-29">
              <path d="M-0.43,-34.66 L 0.43 -34.66 0.43 34.66 -0.43 34.66 z" class="primitive"/>
            </g>
            <g transform="translate(23.59,43.46)" id="img-ba635d29-30">
              <path d="M-0.43,-35.26 L 0.43 -35.26 0.43 35.26 -0.43 35.26 z" class="primitive"/>
            </g>
            <g transform="translate(24.4,60.19)" id="img-ba635d29-31">
              <path d="M-0.43,-18.53 L 0.43 -18.53 0.43 18.53 -0.43 18.53 z" class="primitive"/>
            </g>
            <g transform="translate(25.2,45.25)" id="img-ba635d29-32">
              <path d="M-0.43,-33.47 L 0.43 -33.47 0.43 33.47 -0.43 33.47 z" class="primitive"/>
            </g>
            <g transform="translate(26.01,43.46)" id="img-ba635d29-33">
              <path d="M-0.43,-35.26 L 0.43 -35.26 0.43 35.26 -0.43 35.26 z" class="primitive"/>
            </g>
            <g transform="translate(26.82,61.38)" id="img-ba635d29-34">
              <path d="M-0.43,-17.33 L 0.43 -17.33 0.43 17.33 -0.43 17.33 z" class="primitive"/>
            </g>
            <g transform="translate(27.63,46.44)" id="img-ba635d29-35">
              <path d="M-0.43,-32.27 L 0.43 -32.27 0.43 32.27 -0.43 32.27 z" class="primitive"/>
            </g>
            <g transform="translate(28.43,47.04)" id="img-ba635d29-36">
              <path d="M-0.43,-31.67 L 0.43 -31.67 0.43 31.67 -0.43 31.67 z" class="primitive"/>
            </g>
            <g transform="translate(29.24,62.58)" id="img-ba635d29-37">
              <path d="M-0.43,-16.14 L 0.43 -16.14 0.43 16.14 -0.43 16.14 z" class="primitive"/>
            </g>
            <g transform="translate(30.05,42.86)" id="img-ba635d29-38">
              <path d="M-0.43,-35.86 L 0.43 -35.86 0.43 35.86 -0.43 35.86 z" class="primitive"/>
            </g>
            <g transform="translate(30.85,61.98)" id="img-ba635d29-39">
              <path d="M-0.43,-16.73 L 0.43 -16.73 0.43 16.73 -0.43 16.73 z" class="primitive"/>
            </g>
            <g transform="translate(31.66,46.44)" id="img-ba635d29-40">
              <path d="M-0.43,-32.27 L 0.43 -32.27 0.43 32.27 -0.43 32.27 z" class="primitive"/>
            </g>
            <g transform="translate(32.47,47.64)" id="img-ba635d29-41">
              <path d="M-0.43,-31.08 L 0.43 -31.08 0.43 31.08 -0.43 31.08 z" class="primitive"/>
            </g>
            <g transform="translate(33.28,63.18)" id="img-ba635d29-42">
              <path d="M-0.43,-15.54 L 0.43 -15.54 0.43 15.54 -0.43 15.54 z" class="primitive"/>
            </g>
            <g transform="translate(34.08,50.03)" id="img-ba635d29-43">
              <path d="M-0.43,-28.69 L 0.43 -28.69 0.43 28.69 -0.43 28.69 z" class="primitive"/>
            </g>
            <g transform="translate(34.89,50.03)" id="img-ba635d29-44">
              <path d="M-0.43,-28.69 L 0.43 -28.69 0.43 28.69 -0.43 28.69 z" class="primitive"/>
            </g>
            <g transform="translate(35.7,65.57)" id="img-ba635d29-45">
              <path d="M-0.43,-13.15 L 0.43 -13.15 0.43 13.15 -0.43 13.15 z" class="primitive"/>
            </g>
            <g transform="translate(36.5,54.21)" id="img-ba635d29-46">
              <path d="M-0.43,-24.5 L 0.43 -24.5 0.43 24.5 -0.43 24.5 z" class="primitive"/>
            </g>
            <g transform="translate(37.31,58.4)" id="img-ba635d29-47">
              <path d="M-0.43,-20.32 L 0.43 -20.32 0.43 20.32 -0.43 20.32 z" class="primitive"/>
            </g>
            <g transform="translate(38.12,66.76)" id="img-ba635d29-48">
              <path d="M-0.43,-11.95 L 0.43 -11.95 0.43 11.95 -0.43 11.95 z" class="primitive"/>
            </g>
            <g transform="translate(38.93,57.2)" id="img-ba635d29-49">
              <path d="M-0.43,-21.51 L 0.43 -21.51 0.43 21.51 -0.43 21.51 z" class="primitive"/>
            </g>
            <g transform="translate(39.73,67.96)" id="img-ba635d29-50">
              <path d="M-0.43,-10.76 L 0.43 -10.76 0.43 10.76 -0.43 10.76 z" class="primitive"/>
            </g>
            <g transform="translate(40.54,62.58)" id="img-ba635d29-51">
              <path d="M-0.43,-16.14 L 0.43 -16.14 0.43 16.14 -0.43 16.14 z" class="primitive"/>
            </g>
            <g transform="translate(41.35,63.77)" id="img-ba635d29-52">
              <path d="M-0.43,-14.94 L 0.43 -14.94 0.43 14.94 -0.43 14.94 z" class="primitive"/>
            </g>
            <g transform="translate(42.16,69.75)" id="img-ba635d29-53">
              <path d="M-0.43,-8.96 L 0.43 -8.96 0.43 8.96 -0.43 8.96 z" class="primitive"/>
            </g>
            <g transform="translate(42.96,60.19)" id="img-ba635d29-54">
              <path d="M-0.43,-18.53 L 0.43 -18.53 0.43 18.53 -0.43 18.53 z" class="primitive"/>
            </g>
            <g transform="translate(43.77,61.38)" id="img-ba635d29-55">
              <path d="M-0.43,-17.33 L 0.43 -17.33 0.43 17.33 -0.43 17.33 z" class="primitive"/>
            </g>
            <g transform="translate(44.58,69.75)" id="img-ba635d29-56">
              <path d="M-0.43,-8.96 L 0.43 -8.96 0.43 8.96 -0.43 8.96 z" class="primitive"/>
            </g>
            <g transform="translate(45.38,64.37)" id="img-ba635d29-57">
              <path d="M-0.43,-14.34 L 0.43 -14.34 0.43 14.34 -0.43 14.34 z" class="primitive"/>
            </g>
            <g transform="translate(46.19,67.96)" id="img-ba635d29-58">
              <path d="M-0.43,-10.76 L 0.43 -10.76 0.43 10.76 -0.43 10.76 z" class="primitive"/>
            </g>
            <g transform="translate(47,76.32)" id="img-ba635d29-59">
              <path d="M-0.43,-2.39 L 0.43 -2.39 0.43 2.39 -0.43 2.39 z" class="primitive"/>
            </g>
            <g transform="translate(47.81,72.14)" id="img-ba635d29-60">
              <path d="M-0.43,-6.57 L 0.43 -6.57 0.43 6.57 -0.43 6.57 z" class="primitive"/>
            </g>
            <g transform="translate(48.61,72.14)" id="img-ba635d29-61">
              <path d="M-0.43,-6.57 L 0.43 -6.57 0.43 6.57 -0.43 6.57 z" class="primitive"/>
            </g>
            <g transform="translate(49.42,75.13)" id="img-ba635d29-62">
              <path d="M-0.43,-3.59 L 0.43 -3.59 0.43 3.59 -0.43 3.59 z" class="primitive"/>
            </g>
            <g transform="translate(50.23,73.34)" id="img-ba635d29-63">
              <path d="M-0.43,-5.38 L 0.43 -5.38 0.43 5.38 -0.43 5.38 z" class="primitive"/>
            </g>
            <g transform="translate(51.03,75.13)" id="img-ba635d29-64">
              <path d="M-0.43,-3.59 L 0.43 -3.59 0.43 3.59 -0.43 3.59 z" class="primitive"/>
            </g>
            <g transform="translate(51.84,72.74)" id="img-ba635d29-65">
              <path d="M-0.43,-5.98 L 0.43 -5.98 0.43 5.98 -0.43 5.98 z" class="primitive"/>
            </g>
            <g transform="translate(52.65,73.34)" id="img-ba635d29-66">
              <path d="M-0.43,-5.38 L 0.43 -5.38 0.43 5.38 -0.43 5.38 z" class="primitive"/>
            </g>
            <g transform="translate(53.46,76.92)" id="img-ba635d29-67">
              <path d="M-0.43,-1.79 L 0.43 -1.79 0.43 1.79 -0.43 1.79 z" class="primitive"/>
            </g>
            <g transform="translate(54.26,72.14)" id="img-ba635d29-68">
              <path d="M-0.43,-6.57 L 0.43 -6.57 0.43 6.57 -0.43 6.57 z" class="primitive"/>
            </g>
            <g transform="translate(55.07,72.14)" id="img-ba635d29-69">
              <path d="M-0.43,-6.57 L 0.43 -6.57 0.43 6.57 -0.43 6.57 z" class="primitive"/>
            </g>
            <g transform="translate(55.88,75.13)" id="img-ba635d29-70">
              <path d="M-0.43,-3.59 L 0.43 -3.59 0.43 3.59 -0.43 3.59 z" class="primitive"/>
            </g>
            <g transform="translate(56.68,74.53)" id="img-ba635d29-71">
              <path d="M-0.43,-4.18 L 0.43 -4.18 0.43 4.18 -0.43 4.18 z" class="primitive"/>
            </g>
            <g transform="translate(57.49,75.13)" id="img-ba635d29-72">
              <path d="M-0.43,-3.59 L 0.43 -3.59 0.43 3.59 -0.43 3.59 z" class="primitive"/>
            </g>
            <g transform="translate(58.3,78.12)" id="img-ba635d29-73">
              <path d="M-0.43,-0.6 L 0.43 -0.6 0.43 0.6 -0.43 0.6 z" class="primitive"/>
            </g>
            <g transform="translate(59.11,75.13)" id="img-ba635d29-74">
              <path d="M-0.43,-3.59 L 0.43 -3.59 0.43 3.59 -0.43 3.59 z" class="primitive"/>
            </g>
            <g transform="translate(59.91,75.13)" id="img-ba635d29-75">
              <path d="M-0.43,-3.59 L 0.43 -3.59 0.43 3.59 -0.43 3.59 z" class="primitive"/>
            </g>
            <g transform="translate(60.72,74.53)" id="img-ba635d29-76">
              <path d="M-0.43,-4.18 L 0.43 -4.18 0.43 4.18 -0.43 4.18 z" class="primitive"/>
            </g>
            <g transform="translate(61.53,72.14)" id="img-ba635d29-77">
              <path d="M-0.43,-6.57 L 0.43 -6.57 0.43 6.57 -0.43 6.57 z" class="primitive"/>
            </g>
            <g transform="translate(62.33,76.32)" id="img-ba635d29-78">
              <path d="M-0.43,-2.39 L 0.43 -2.39 0.43 2.39 -0.43 2.39 z" class="primitive"/>
            </g>
            <g transform="translate(63.14,72.74)" id="img-ba635d29-79">
              <path d="M-0.43,-5.98 L 0.43 -5.98 0.43 5.98 -0.43 5.98 z" class="primitive"/>
            </g>
            <g transform="translate(63.95,72.74)" id="img-ba635d29-80">
              <path d="M-0.43,-5.98 L 0.43 -5.98 0.43 5.98 -0.43 5.98 z" class="primitive"/>
            </g>
            <g transform="translate(64.76,75.73)" id="img-ba635d29-81">
              <path d="M-0.43,-2.99 L 0.43 -2.99 0.43 2.99 -0.43 2.99 z" class="primitive"/>
            </g>
            <g transform="translate(65.56,74.53)" id="img-ba635d29-82">
              <path d="M-0.43,-4.18 L 0.43 -4.18 0.43 4.18 -0.43 4.18 z" class="primitive"/>
            </g>
            <g transform="translate(66.37,74.53)" id="img-ba635d29-83">
              <path d="M-0.43,-4.18 L 0.43 -4.18 0.43 4.18 -0.43 4.18 z" class="primitive"/>
            </g>
            <g transform="translate(67.18,77.52)" id="img-ba635d29-84">
              <path d="M-0.43,-1.2 L 0.43 -1.2 0.43 1.2 -0.43 1.2 z" class="primitive"/>
            </g>
            <g transform="translate(67.98,75.13)" id="img-ba635d29-85">
              <path d="M-0.43,-3.59 L 0.43 -3.59 0.43 3.59 -0.43 3.59 z" class="primitive"/>
            </g>
            <g transform="translate(68.79,75.13)" id="img-ba635d29-86">
              <path d="M-0.43,-3.59 L 0.43 -3.59 0.43 3.59 -0.43 3.59 z" class="primitive"/>
            </g>
            <g transform="translate(69.6,76.32)" id="img-ba635d29-87">
              <path d="M-0.43,-2.39 L 0.43 -2.39 0.43 2.39 -0.43 2.39 z" class="primitive"/>
            </g>
            <g transform="translate(70.41,75.13)" id="img-ba635d29-88">
              <path d="M-0.43,-3.59 L 0.43 -3.59 0.43 3.59 -0.43 3.59 z" class="primitive"/>
            </g>
            <g transform="translate(71.21,78.12)" id="img-ba635d29-89">
              <path d="M-0.43,-0.6 L 0.43 -0.6 0.43 0.6 -0.43 0.6 z" class="primitive"/>
            </g>
            <g transform="translate(72.02,76.32)" id="img-ba635d29-90">
              <path d="M-0.43,-2.39 L 0.43 -2.39 0.43 2.39 -0.43 2.39 z" class="primitive"/>
            </g>
            <g transform="translate(72.83,76.32)" id="img-ba635d29-91">
              <path d="M-0.43,-2.39 L 0.43 -2.39 0.43 2.39 -0.43 2.39 z" class="primitive"/>
            </g>
            <g transform="translate(73.63,77.52)" id="img-ba635d29-92">
              <path d="M-0.43,-1.2 L 0.43 -1.2 0.43 1.2 -0.43 1.2 z" class="primitive"/>
            </g>
            <g transform="translate(74.44,77.52)" id="img-ba635d29-93">
              <path d="M-0.43,-1.2 L 0.43 -1.2 0.43 1.2 -0.43 1.2 z" class="primitive"/>
            </g>
            <g transform="translate(75.25,77.52)" id="img-ba635d29-94">
              <path d="M-0.43,-1.2 L 0.43 -1.2 0.43 1.2 -0.43 1.2 z" class="primitive"/>
            </g>
            <g transform="translate(76.06,78.72)" id="img-ba635d29-95">
              <path d="M-0.43,-0 L 0.43 -0 0.43 0 -0.43 0 z" class="primitive"/>
            </g>
            <g transform="translate(76.86,77.52)" id="img-ba635d29-96">
              <path d="M-0.43,-1.2 L 0.43 -1.2 0.43 1.2 -0.43 1.2 z" class="primitive"/>
            </g>
            <g transform="translate(77.67,78.12)" id="img-ba635d29-97">
              <path d="M-0.43,-0.6 L 0.43 -0.6 0.43 0.6 -0.43 0.6 z" class="primitive"/>
            </g>
            <g transform="translate(78.48,78.72)" id="img-ba635d29-98">
              <path d="M-0.43,-0 L 0.43 -0 0.43 0 -0.43 0 z" class="primitive"/>
            </g>
            <g transform="translate(79.28,78.72)" id="img-ba635d29-99">
              <path d="M-0.43,-0 L 0.43 -0 0.43 0 -0.43 0 z" class="primitive"/>
            </g>
            <g transform="translate(80.09,78.72)" id="img-ba635d29-100">
              <path d="M-0.43,-0 L 0.43 -0 0.43 0 -0.43 0 z" class="primitive"/>
            </g>
            <g transform="translate(80.9,78.72)" id="img-ba635d29-101">
              <path d="M-0.43,-0 L 0.43 -0 0.43 0 -0.43 0 z" class="primitive"/>
            </g>
            <g transform="translate(81.71,78.72)" id="img-ba635d29-102">
              <path d="M-0.43,-0 L 0.43 -0 0.43 0 -0.43 0 z" class="primitive"/>
            </g>
            <g transform="translate(82.51,78.72)" id="img-ba635d29-103">
              <path d="M-0.43,-0 L 0.43 -0 0.43 0 -0.43 0 z" class="primitive"/>
            </g>
            <g transform="translate(83.32,78.72)" id="img-ba635d29-104">
              <path d="M-0.43,-0 L 0.43 -0 0.43 0 -0.43 0 z" class="primitive"/>
            </g>
            <g transform="translate(84.13,78.72)" id="img-ba635d29-105">
              <path d="M-0.43,-0 L 0.43 -0 0.43 0 -0.43 0 z" class="primitive"/>
            </g>
            <g transform="translate(84.93,78.72)" id="img-ba635d29-106">
              <path d="M-0.43,-0 L 0.43 -0 0.43 0 -0.43 0 z" class="primitive"/>
            </g>
            <g transform="translate(85.74,78.72)" id="img-ba635d29-107">
              <path d="M-0.43,-0 L 0.43 -0 0.43 0 -0.43 0 z" class="primitive"/>
            </g>
            <g transform="translate(86.55,78.72)" id="img-ba635d29-108">
              <path d="M-0.43,-0 L 0.43 -0 0.43 0 -0.43 0 z" class="primitive"/>
            </g>
            <g transform="translate(87.36,78.72)" id="img-ba635d29-109">
              <path d="M-0.43,-0 L 0.43 -0 0.43 0 -0.43 0 z" class="primitive"/>
            </g>
            <g transform="translate(88.16,78.72)" id="img-ba635d29-110">
              <path d="M-0.43,-0 L 0.43 -0 0.43 0 -0.43 0 z" class="primitive"/>
            </g>
            <g transform="translate(88.97,78.72)" id="img-ba635d29-111">
              <path d="M-0.43,-0 L 0.43 -0 0.43 0 -0.43 0 z" class="primitive"/>
            </g>
            <g transform="translate(89.78,78.72)" id="img-ba635d29-112">
              <path d="M-0.43,-0 L 0.43 -0 0.43 0 -0.43 0 z" class="primitive"/>
            </g>
            <g transform="translate(90.58,78.72)" id="img-ba635d29-113">
              <path d="M-0.43,-0 L 0.43 -0 0.43 0 -0.43 0 z" class="primitive"/>
            </g>
            <g transform="translate(91.39,78.72)" id="img-ba635d29-114">
              <path d="M-0.43,-0 L 0.43 -0 0.43 0 -0.43 0 z" class="primitive"/>
            </g>
            <g transform="translate(92.2,78.72)" id="img-ba635d29-115">
              <path d="M-0.43,-0 L 0.43 -0 0.43 0 -0.43 0 z" class="primitive"/>
            </g>
            <g transform="translate(93.01,78.72)" id="img-ba635d29-116">
              <path d="M-0.43,-0 L 0.43 -0 0.43 0 -0.43 0 z" class="primitive"/>
            </g>
            <g transform="translate(93.81,78.72)" id="img-ba635d29-117">
              <path d="M-0.43,-0 L 0.43 -0 0.43 0 -0.43 0 z" class="primitive"/>
            </g>
            <g transform="translate(94.62,78.72)" id="img-ba635d29-118">
              <path d="M-0.43,-0 L 0.43 -0 0.43 0 -0.43 0 z" class="primitive"/>
            </g>
            <g transform="translate(95.43,78.72)" id="img-ba635d29-119">
              <path d="M-0.43,-0 L 0.43 -0 0.43 0 -0.43 0 z" class="primitive"/>
            </g>
            <g transform="translate(96.23,78.72)" id="img-ba635d29-120">
              <path d="M-0.43,-0 L 0.43 -0 0.43 0 -0.43 0 z" class="primitive"/>
            </g>
            <g transform="translate(97.04,78.72)" id="img-ba635d29-121">
              <path d="M-0.43,-0 L 0.43 -0 0.43 0 -0.43 0 z" class="primitive"/>
            </g>
            <g transform="translate(97.85,78.72)" id="img-ba635d29-122">
              <path d="M-0.43,-0 L 0.43 -0 0.43 0 -0.43 0 z" class="primitive"/>
            </g>
            <g transform="translate(98.66,78.72)" id="img-ba635d29-123">
              <path d="M-0.43,-0 L 0.43 -0 0.43 0 -0.43 0 z" class="primitive"/>
            </g>
            <g transform="translate(99.46,78.72)" id="img-ba635d29-124">
              <path d="M-0.43,-0 L 0.43 -0 0.43 0 -0.43 0 z" class="primitive"/>
            </g>
            <g transform="translate(100.27,78.72)" id="img-ba635d29-125">
              <path d="M-0.43,-0 L 0.43 -0 0.43 0 -0.43 0 z" class="primitive"/>
            </g>
            <g transform="translate(101.08,78.72)" id="img-ba635d29-126">
              <path d="M-0.43,-0 L 0.43 -0 0.43 0 -0.43 0 z" class="primitive"/>
            </g>
            <g transform="translate(101.88,78.72)" id="img-ba635d29-127">
              <path d="M-0.43,-0 L 0.43 -0 0.43 0 -0.43 0 z" class="primitive"/>
            </g>
            <g transform="translate(102.69,78.72)" id="img-ba635d29-128">
              <path d="M-0.43,-0 L 0.43 -0 0.43 0 -0.43 0 z" class="primitive"/>
            </g>
            <g transform="translate(103.5,78.72)" id="img-ba635d29-129">
              <path d="M-0.43,-0 L 0.43 -0 0.43 0 -0.43 0 z" class="primitive"/>
            </g>
            <g transform="translate(104.31,78.72)" id="img-ba635d29-130">
              <path d="M-0.43,-0 L 0.43 -0 0.43 0 -0.43 0 z" class="primitive"/>
            </g>
            <g transform="translate(105.11,78.72)" id="img-ba635d29-131">
              <path d="M-0.43,-0 L 0.43 -0 0.43 0 -0.43 0 z" class="primitive"/>
            </g>
            <g transform="translate(105.92,78.72)" id="img-ba635d29-132">
              <path d="M-0.43,-0 L 0.43 -0 0.43 0 -0.43 0 z" class="primitive"/>
            </g>
            <g transform="translate(106.73,78.72)" id="img-ba635d29-133">
              <path d="M-0.43,-0 L 0.43 -0 0.43 0 -0.43 0 z" class="primitive"/>
            </g>
            <g transform="translate(107.53,78.72)" id="img-ba635d29-134">
              <path d="M-0.43,-0 L 0.43 -0 0.43 0 -0.43 0 z" class="primitive"/>
            </g>
            <g transform="translate(108.34,78.72)" id="img-ba635d29-135">
              <path d="M-0.43,-0 L 0.43 -0 0.43 0 -0.43 0 z" class="primitive"/>
            </g>
            <g transform="translate(109.15,78.72)" id="img-ba635d29-136">
              <path d="M-0.43,-0 L 0.43 -0 0.43 0 -0.43 0 z" class="primitive"/>
            </g>
            <g transform="translate(109.96,78.72)" id="img-ba635d29-137">
              <path d="M-0.43,-0 L 0.43 -0 0.43 0 -0.43 0 z" class="primitive"/>
            </g>
            <g transform="translate(110.76,78.72)" id="img-ba635d29-138">
              <path d="M-0.43,-0 L 0.43 -0 0.43 0 -0.43 0 z" class="primitive"/>
            </g>
            <g transform="translate(111.57,78.72)" id="img-ba635d29-139">
              <path d="M-0.43,-0 L 0.43 -0 0.43 0 -0.43 0 z" class="primitive"/>
            </g>
            <g transform="translate(112.38,78.72)" id="img-ba635d29-140">
              <path d="M-0.43,-0 L 0.43 -0 0.43 0 -0.43 0 z" class="primitive"/>
            </g>
            <g transform="translate(113.18,78.72)" id="img-ba635d29-141">
              <path d="M-0.43,-0 L 0.43 -0 0.43 0 -0.43 0 z" class="primitive"/>
            </g>
            <g transform="translate(113.99,78.72)" id="img-ba635d29-142">
              <path d="M-0.43,-0 L 0.43 -0 0.43 0 -0.43 0 z" class="primitive"/>
            </g>
            <g transform="translate(114.8,78.72)" id="img-ba635d29-143">
              <path d="M-0.43,-0 L 0.43 -0 0.43 0 -0.43 0 z" class="primitive"/>
            </g>
            <g transform="translate(115.61,78.72)" id="img-ba635d29-144">
              <path d="M-0.43,-0 L 0.43 -0 0.43 0 -0.43 0 z" class="primitive"/>
            </g>
            <g transform="translate(116.41,78.12)" id="img-ba635d29-145">
              <path d="M-0.43,-0.6 L 0.43 -0.6 0.43 0.6 -0.43 0.6 z" class="primitive"/>
            </g>
            <g transform="translate(117.22,78.72)" id="img-ba635d29-146">
              <path d="M-0.43,-0 L 0.43 -0 0.43 0 -0.43 0 z" class="primitive"/>
            </g>
            <g transform="translate(118.03,78.72)" id="img-ba635d29-147">
              <path d="M-0.43,-0 L 0.43 -0 0.43 0 -0.43 0 z" class="primitive"/>
            </g>
            <g transform="translate(118.83,78.72)" id="img-ba635d29-148">
              <path d="M-0.43,-0 L 0.43 -0 0.43 0 -0.43 0 z" class="primitive"/>
            </g>
            <g transform="translate(119.64,78.72)" id="img-ba635d29-149">
              <path d="M-0.43,-0 L 0.43 -0 0.43 0 -0.43 0 z" class="primitive"/>
            </g>
            <g transform="translate(120.45,78.72)" id="img-ba635d29-150">
              <path d="M-0.43,-0 L 0.43 -0 0.43 0 -0.43 0 z" class="primitive"/>
            </g>
            <g transform="translate(121.26,78.72)" id="img-ba635d29-151">
              <path d="M-0.43,-0 L 0.43 -0 0.43 0 -0.43 0 z" class="primitive"/>
            </g>
            <g transform="translate(122.06,78.72)" id="img-ba635d29-152">
              <path d="M-0.43,-0 L 0.43 -0 0.43 0 -0.43 0 z" class="primitive"/>
            </g>
            <g transform="translate(122.87,78.72)" id="img-ba635d29-153">
              <path d="M-0.43,-0 L 0.43 -0 0.43 0 -0.43 0 z" class="primitive"/>
            </g>
            <g transform="translate(123.68,78.72)" id="img-ba635d29-154">
              <path d="M-0.43,-0 L 0.43 -0 0.43 0 -0.43 0 z" class="primitive"/>
            </g>
            <g transform="translate(124.48,78.72)" id="img-ba635d29-155">
              <path d="M-0.43,-0 L 0.43 -0 0.43 0 -0.43 0 z" class="primitive"/>
            </g>
            <g transform="translate(125.29,78.72)" id="img-ba635d29-156">
              <path d="M-0.43,-0 L 0.43 -0 0.43 0 -0.43 0 z" class="primitive"/>
            </g>
            <g transform="translate(126.1,78.72)" id="img-ba635d29-157">
              <path d="M-0.43,-0 L 0.43 -0 0.43 0 -0.43 0 z" class="primitive"/>
            </g>
            <g transform="translate(126.91,78.72)" id="img-ba635d29-158">
              <path d="M-0.43,-0 L 0.43 -0 0.43 0 -0.43 0 z" class="primitive"/>
            </g>
            <g transform="translate(127.71,78.72)" id="img-ba635d29-159">
              <path d="M-0.43,-0 L 0.43 -0 0.43 0 -0.43 0 z" class="primitive"/>
            </g>
            <g transform="translate(128.52,78.72)" id="img-ba635d29-160">
              <path d="M-0.43,-0 L 0.43 -0 0.43 0 -0.43 0 z" class="primitive"/>
            </g>
            <g transform="translate(129.33,78.72)" id="img-ba635d29-161">
              <path d="M-0.43,-0 L 0.43 -0 0.43 0 -0.43 0 z" class="primitive"/>
            </g>
            <g transform="translate(130.13,78.72)" id="img-ba635d29-162">
              <path d="M-0.43,-0 L 0.43 -0 0.43 0 -0.43 0 z" class="primitive"/>
            </g>
            <g transform="translate(130.94,78.72)" id="img-ba635d29-163">
              <path d="M-0.43,-0 L 0.43 -0 0.43 0 -0.43 0 z" class="primitive"/>
            </g>
            <g transform="translate(131.75,78.72)" id="img-ba635d29-164">
              <path d="M-0.43,-0 L 0.43 -0 0.43 0 -0.43 0 z" class="primitive"/>
            </g>
            <g transform="translate(132.56,78.72)" id="img-ba635d29-165">
              <path d="M-0.43,-0 L 0.43 -0 0.43 0 -0.43 0 z" class="primitive"/>
            </g>
            <g transform="translate(133.36,78.72)" id="img-ba635d29-166">
              <path d="M-0.43,-0 L 0.43 -0 0.43 0 -0.43 0 z" class="primitive"/>
            </g>
            <g transform="translate(134.17,78.72)" id="img-ba635d29-167">
              <path d="M-0.43,-0 L 0.43 -0 0.43 0 -0.43 0 z" class="primitive"/>
            </g>
            <g transform="translate(134.98,78.72)" id="img-ba635d29-168">
              <path d="M-0.43,-0 L 0.43 -0 0.43 0 -0.43 0 z" class="primitive"/>
            </g>
            <g transform="translate(135.78,78.72)" id="img-ba635d29-169">
              <path d="M-0.43,-0 L 0.43 -0 0.43 0 -0.43 0 z" class="primitive"/>
            </g>
            <g transform="translate(136.59,78.72)" id="img-ba635d29-170">
              <path d="M-0.43,-0 L 0.43 -0 0.43 0 -0.43 0 z" class="primitive"/>
            </g>
            <g transform="translate(137.4,78.72)" id="img-ba635d29-171">
              <path d="M-0.43,-0 L 0.43 -0 0.43 0 -0.43 0 z" class="primitive"/>
            </g>
            <g transform="translate(138.21,78.72)" id="img-ba635d29-172">
              <path d="M-0.43,-0 L 0.43 -0 0.43 0 -0.43 0 z" class="primitive"/>
            </g>
            <g transform="translate(139.01,78.72)" id="img-ba635d29-173">
              <path d="M-0.43,-0 L 0.43 -0 0.43 0 -0.43 0 z" class="primitive"/>
            </g>
            <g transform="translate(139.82,78.72)" id="img-ba635d29-174">
              <path d="M-0.43,-0 L 0.43 -0 0.43 0 -0.43 0 z" class="primitive"/>
            </g>
            <g transform="translate(140.63,78.12)" id="img-ba635d29-175">
              <path d="M-0.43,-0.6 L 0.43 -0.6 0.43 0.6 -0.43 0.6 z" class="primitive"/>
            </g>
          </g>
        </g>
      </g>
    </g>
  </g>
  <g class="guide ylabels" font-size="2.82" font-family="'PT Sans Caption','Helvetica Neue','Helvetica',sans-serif" fill="#6C606B" id="img-ba635d29-176">
    <g transform="translate(16.96,78.72)" id="img-ba635d29-177">
      <g class="primitive">
        <text text-anchor="end" dy="0.35em">0</text>
      </g>
    </g>
    <g transform="translate(16.96,66.76)" id="img-ba635d29-178">
      <g class="primitive">
        <text text-anchor="end" dy="0.35em">10</text>
      </g>
    </g>
    <g transform="translate(16.96,54.81)" id="img-ba635d29-179">
      <g class="primitive">
        <text text-anchor="end" dy="0.35em">20</text>
      </g>
    </g>
    <g transform="translate(16.96,42.86)" id="img-ba635d29-180">
      <g class="primitive">
        <text text-anchor="end" dy="0.35em">30</text>
      </g>
    </g>
    <g transform="translate(16.96,30.91)" id="img-ba635d29-181">
      <g class="primitive">
        <text text-anchor="end" dy="0.35em">40</text>
      </g>
    </g>
    <g transform="translate(16.96,18.95)" id="img-ba635d29-182">
      <g class="primitive">
        <text text-anchor="end" dy="0.35em">50</text>
      </g>
    </g>
    <g transform="translate(16.96,7)" id="img-ba635d29-183">
      <g class="primitive">
        <text text-anchor="end" dy="0.35em">60</text>
      </g>
    </g>
  </g>
  <g font-size="3.88" font-family="'PT Sans','Helvetica Neue','Helvetica',sans-serif" fill="#564A55" stroke="#000000" stroke-opacity="0.000" id="img-ba635d29-184">
    <g transform="translate(8.81,40.86)" id="img-ba635d29-185">
      <g class="primitive">
        <text text-anchor="middle" dy="0.35em" transform="rotate(-90,0, 2)">Número de trocas externas</text>
      </g>
    </g>
  </g>
</g>
<defs>
  <clipPath id="img-ba635d29-4">
    <path d="M17.96,5 L 145 5 145 80.72 17.96 80.72" />
  </clipPath>
</defs>
</svg>
