<?xml version="1.0" encoding="UTF-8"?>
<svg xmlns="http://www.w3.org/2000/svg"
     xmlns:xlink="http://www.w3.org/1999/xlink"
     xmlns:gadfly="http://www.gadflyjl.org/ns"
     version="1.2"
     width="200mm" height="100mm" viewBox="0 0 200 100"
     stroke="none"
     fill="#000000"
     stroke-width="0.3"
     font-size="3.88"
>
<defs>
  <marker id="arrow" markerWidth="15" markerHeight="7" refX="5" refY="3.5" orient="auto" markerUnits="strokeWidth">
    <path d="M0,0 L15,3.5 L0,7 z" stroke="context-stroke" fill="context-stroke"/>
  </marker>
</defs>
<g class="plotroot xscalable yscalable" id="img-32057a2b-1">
  <g font-size="3.88" font-family="'PT Sans','Helvetica Neue','Helvetica',sans-serif" fill="#564A55" stroke="#000000" stroke-opacity="0.000" id="img-32057a2b-2">
    <g transform="translate(77.83,88.39)">
      <g class="primitive">
        <text text-anchor="middle" dy="0.6em">a</text>
      </g>
    </g>
  </g>
  <g class="guide xlabels" font-size="2.82" font-family="'PT Sans Caption','Helvetica Neue','Helvetica',sans-serif" fill="#6C606B" id="img-32057a2b-3">
    <g transform="translate(12.35,81.72)">
      <g class="primitive">
        <text text-anchor="middle" dy="0.6em">0.0</text>
      </g>
    </g>
    <g transform="translate(77.83,81.72)">
      <g class="primitive">
        <text text-anchor="middle" dy="0.6em">0.5</text>
      </g>
    </g>
    <g transform="translate(143.31,81.72)">
      <g class="primitive">
        <text text-anchor="middle" dy="0.6em">1.0</text>
      </g>
    </g>
  </g>
  <g class="guide colorkey" id="img-32057a2b-4">
    <g fill="#4C404B" font-size="2.82" font-family="'PT Sans','Helvetica Neue','Helvetica',sans-serif" id="img-32057a2b-5">
      <g transform="translate(149.12,42.86)" id="img-32057a2b-6">
        <g class="primitive">
          <text dy="0.35em">Número de Variedades</text>
        </g>
      </g>
      <g transform="translate(149.12,46.48)" id="img-32057a2b-7">
        <g class="primitive">
          <text dy="0.35em">Número Médio de Variedades por UD</text>
        </g>
      </g>
    </g>
    <g stroke="#000000" stroke-opacity="0.000" id="img-32057a2b-8">
      <g transform="translate(147.21,42.86)" id="img-32057a2b-9" fill="#008000">
        <path d="M-0.91,-0.91 L 0.91 -0.91 0.91 0.91 -0.91 0.91 z" class="primitive"/>
      </g>
      <g transform="translate(147.21,46.48)" id="img-32057a2b-10" fill="#FF0000">
        <path d="M-0.91,-0.91 L 0.91 -0.91 0.91 0.91 -0.91 0.91 z" class="primitive"/>
      </g>
    </g>
    <g fill="#362A35" font-size="3.88" font-family="'PT Sans','Helvetica Neue','Helvetica',sans-serif" stroke="#000000" stroke-opacity="0.000" id="img-32057a2b-11">
      <g transform="translate(146.31,39.04)" id="img-32057a2b-12">
        <g class="primitive">
          <text></text>
        </g>
      </g>
    </g>
  </g>
  <g clip-path="url(#img-32057a2b-13)">
    <g id="img-32057a2b-14">
      <g pointer-events="visible" fill="#000000" fill-opacity="0.000" stroke="#000000" stroke-opacity="0.000" class="guide background" id="img-32057a2b-15">
        <g transform="translate(77.83,42.86)" id="img-32057a2b-16">
          <path d="M-67.48,-37.86 L 67.48 -37.86 67.48 37.86 -67.48 37.86 z" class="primitive"/>
        </g>
      </g>
      <g class="guide ygridlines xfixed" stroke-dasharray="0.5,0.5" stroke-width="0.2" stroke="#D0D0E0" id="img-32057a2b-17">
        <g transform="translate(77.83,78.72)" id="img-32057a2b-18">
          <path fill="none" d="M-67.48,0 L 67.48 0" class="primitive"/>
        </g>
        <g transform="translate(77.83,54.81)" id="img-32057a2b-19">
          <path fill="none" d="M-67.48,0 L 67.48 0" class="primitive"/>
        </g>
        <g transform="translate(77.83,30.91)" id="img-32057a2b-20">
          <path fill="none" d="M-67.48,0 L 67.48 0" class="primitive"/>
        </g>
        <g transform="translate(77.83,7)" id="img-32057a2b-21">
          <path fill="none" d="M-67.48,0 L 67.48 0" class="primitive"/>
        </g>
      </g>
      <g class="guide xgridlines yfixed" stroke-dasharray="0.5,0.5" stroke-width="0.2" stroke="#D0D0E0" id="img-32057a2b-22">
        <g transform="translate(12.35,42.86)" id="img-32057a2b-23">
          <path fill="none" d="M0,-37.86 L 0 37.86" class="primitive"/>
        </g>
        <g transform="translate(77.83,42.86)" id="img-32057a2b-24">
          <path fill="none" d="M0,-37.86 L 0 37.86" class="primitive"/>
        </g>
        <g transform="translate(143.31,42.86)" id="img-32057a2b-25">
          <path fill="none" d="M0,-37.86 L 0 37.86" class="primitive"/>
        </g>
      </g>
      <g class="plotpanel" id="img-32057a2b-26">
        <metadata>
          <boundingbox value="10.346666666666664mm 5.0mm 134.95999999999998mm 75.715mm"/>
          <unitbox value="-0.01527183872938302 30.836645053336124 1.030543677458766 -31.673290106672248"/>
        </metadata>
        <g stroke-width="0.3" fill="#000000" fill-opacity="0.000" class="geometry" id="img-32057a2b-27">
          <g class="color_RGB{N0f8}(1.0,0.0,0.0)" stroke-dasharray="none" stroke="#FF0000" id="img-32057a2b-28">
            <g transform="translate(77.83,68.43)" id="img-32057a2b-29">
              <path fill="none" d="M-65.48,3 L -58.93 2.88 -52.38 2.57 -45.84 2.27 -39.29 1.79 -32.74 1.9 -26.19 1.7 -19.64 1.55 -13.1 1.46 -6.55 1.41 0 1.18 6.55 1.01 13.1 0.79 19.64 1.21 26.19 0.23 32.74 -0.08 39.29 -1.29 45.84 -2.61 52.38 -4.81 58.93 -7.95 65.48 -8.2" class="primitive"/>
            </g>
          </g>
        </g>
        <g stroke-width="0.3" fill="#000000" fill-opacity="0.000" class="geometry" id="img-32057a2b-30">
          <g class="color_RGB{N0f8}(0.0,0.502,0.0)" stroke-dasharray="none" stroke="#008000" id="img-32057a2b-31">
            <g transform="translate(77.83,27.48)" id="img-32057a2b-32">
              <path fill="none" d="M-65.48,-7.73 L -58.93 -6.91 -52.38 -8.03 -45.84 -8.73 -39.29 -9.42 -32.74 -7.44 -26.19 -7.79 -19.64 -7.84 -13.1 -7.06 -6.55 -5.05 0 -4.28 6.55 -1.63 13.1 -0.75 19.64 4.43 26.19 3.97 32.74 7.31 39.29 8.67 45.84 11.95 52.38 13.89 58.93 14.6 65.48 17.84" class="primitive"/>
            </g>
          </g>
        </g>
      </g>
    </g>
  </g>
  <g class="guide ylabels" font-size="2.82" font-family="'PT Sans Caption','Helvetica Neue','Helvetica',sans-serif" fill="#6C606B" id="img-32057a2b-33">
    <g transform="translate(9.35,78.72)" id="img-32057a2b-34">
      <g class="primitive">
        <text text-anchor="end" dy="0.35em">0</text>
      </g>
    </g>
    <g transform="translate(9.35,54.81)" id="img-32057a2b-35">
      <g class="primitive">
        <text text-anchor="end" dy="0.35em">10</text>
      </g>
    </g>
    <g transform="translate(9.35,30.91)" id="img-32057a2b-36">
      <g class="primitive">
        <text text-anchor="end" dy="0.35em">20</text>
      </g>
    </g>
    <g transform="translate(9.35,7)" id="img-32057a2b-37">
      <g class="primitive">
        <text text-anchor="end" dy="0.35em">30</text>
      </g>
    </g>
  </g>
</g>
<defs>
  <clipPath id="img-32057a2b-13">
    <path d="M10.35,5 L 145.31 5 145.31 80.72 10.35 80.72" />
  </clipPath>
</defs>
</svg>
