<?xml version="1.0" encoding="UTF-8"?>
<svg xmlns="http://www.w3.org/2000/svg"
     xmlns:xlink="http://www.w3.org/1999/xlink"
     xmlns:gadfly="http://www.gadflyjl.org/ns"
     version="1.2"
     width="150mm" height="100mm" viewBox="0 0 150 100"
     stroke="none"
     fill="#000000"
     stroke-width="0.3"
     font-size="3.88"
>
<defs>
  <marker id="arrow" markerWidth="15" markerHeight="7" refX="5" refY="3.5" orient="auto" markerUnits="strokeWidth">
    <path d="M0,0 L15,3.5 L0,7 z" stroke="context-stroke" fill="context-stroke"/>
  </marker>
</defs>
<g class="plotroot xscalable yscalable" id="img-01e05cc3-1">
  <g font-size="3.88" font-family="'PT Sans','Helvetica Neue','Helvetica',sans-serif" fill="#564A55" stroke="#000000" stroke-opacity="0.000" id="img-01e05cc3-2">
    <g transform="translate(75.42,88.39)">
      <g class="primitive">
        <text text-anchor="middle" dy="0.6em">Tempo</text>
      </g>
    </g>
  </g>
  <g class="guide xlabels" font-size="2.82" font-family="'PT Sans Caption','Helvetica Neue','Helvetica',sans-serif" fill="#6C606B" id="img-01e05cc3-3">
    <g transform="translate(19.96,81.72)">
      <g class="primitive">
        <text text-anchor="middle" dy="0.6em">0</text>
      </g>
    </g>
    <g transform="translate(75.42,81.72)">
      <g class="primitive">
        <text text-anchor="middle" dy="0.6em">500</text>
      </g>
    </g>
    <g transform="translate(130.88,81.72)">
      <g class="primitive">
        <text text-anchor="middle" dy="0.6em">1000</text>
      </g>
    </g>
  </g>
  <g class="guide colorkey" id="img-01e05cc3-4">
    <g fill="#4C404B" font-size="2.82" font-family="'PT Sans','Helvetica Neue','Helvetica',sans-serif" id="img-01e05cc3-5">
      <g transform="translate(136.69,37.42)" id="img-01e05cc3-6" class="color_0.005">
        <g class="primitive">
          <text dy="0.35em">0.005</text>
        </g>
      </g>
      <g transform="translate(136.69,41.04)" id="img-01e05cc3-7" class="color_0.0075">
        <g class="primitive">
          <text dy="0.35em">0.0075</text>
        </g>
      </g>
      <g transform="translate(136.69,44.67)" id="img-01e05cc3-8" class="color_0.01">
        <g class="primitive">
          <text dy="0.35em">0.01</text>
        </g>
      </g>
      <g transform="translate(136.69,48.3)" id="img-01e05cc3-9" class="color_0.025">
        <g class="primitive">
          <text dy="0.35em">0.025</text>
        </g>
      </g>
      <g transform="translate(136.69,51.92)" id="img-01e05cc3-10" class="color_0.05">
        <g class="primitive">
          <text dy="0.35em">0.05</text>
        </g>
      </g>
    </g>
    <g stroke="#000000" stroke-opacity="0.000" id="img-01e05cc3-11">
      <g transform="translate(134.79,37.42)" id="img-01e05cc3-12" fill="#00BFFF" class="color_0.005">
        <path d="M-0.91,-0.91 L 0.91 -0.91 0.91 0.91 -0.91 0.91 z" class="primitive"/>
      </g>
      <g transform="translate(134.79,41.04)" id="img-01e05cc3-13" fill="#D4CA3A" class="color_0.0075">
        <path d="M-0.91,-0.91 L 0.91 -0.91 0.91 0.91 -0.91 0.91 z" class="primitive"/>
      </g>
      <g transform="translate(134.79,44.67)" id="img-01e05cc3-14" fill="#FF6DAE" class="color_0.01">
        <path d="M-0.91,-0.91 L 0.91 -0.91 0.91 0.91 -0.91 0.91 z" class="primitive"/>
      </g>
      <g transform="translate(134.79,48.3)" id="img-01e05cc3-15" fill="#00B78D" class="color_0.025">
        <path d="M-0.91,-0.91 L 0.91 -0.91 0.91 0.91 -0.91 0.91 z" class="primitive"/>
      </g>
      <g transform="translate(134.79,51.92)" id="img-01e05cc3-16" fill="#BEA9FF" class="color_0.05">
        <path d="M-0.91,-0.91 L 0.91 -0.91 0.91 0.91 -0.91 0.91 z" class="primitive"/>
      </g>
    </g>
    <g fill="#362A35" font-size="3.88" font-family="'PT Sans','Helvetica Neue','Helvetica',sans-serif" stroke="#000000" stroke-opacity="0.000" id="img-01e05cc3-17">
      <g transform="translate(133.88,33.6)" id="img-01e05cc3-18">
        <g class="primitive">
          <text>o</text>
        </g>
      </g>
    </g>
  </g>
  <g clip-path="url(#img-01e05cc3-19)">
    <g id="img-01e05cc3-20">
      <g pointer-events="visible" fill="#000000" fill-opacity="0.000" stroke="#000000" stroke-opacity="0.000" class="guide background" id="img-01e05cc3-21">
        <g transform="translate(75.42,42.86)" id="img-01e05cc3-22">
          <path d="M-57.46,-37.86 L 57.46 -37.86 57.46 37.86 -57.46 37.86 z" class="primitive"/>
        </g>
      </g>
      <g class="guide ygridlines xfixed" stroke-dasharray="0.5,0.5" stroke-width="0.2" stroke="#D0D0E0" id="img-01e05cc3-23">
        <g transform="translate(75.42,78.71)" id="img-01e05cc3-24">
          <path fill="none" d="M-57.46,0 L 57.46 0" class="primitive"/>
        </g>
        <g transform="translate(75.42,54.81)" id="img-01e05cc3-25">
          <path fill="none" d="M-57.46,0 L 57.46 0" class="primitive"/>
        </g>
        <g transform="translate(75.42,30.9)" id="img-01e05cc3-26">
          <path fill="none" d="M-57.46,0 L 57.46 0" class="primitive"/>
        </g>
        <g transform="translate(75.42,7)" id="img-01e05cc3-27">
          <path fill="none" d="M-57.46,0 L 57.46 0" class="primitive"/>
        </g>
      </g>
      <g class="guide xgridlines yfixed" stroke-dasharray="0.5,0.5" stroke-width="0.2" stroke="#D0D0E0" id="img-01e05cc3-28">
        <g transform="translate(19.96,42.86)" id="img-01e05cc3-29">
          <path fill="none" d="M0,-37.86 L 0 37.86" class="primitive"/>
        </g>
        <g transform="translate(75.42,42.86)" id="img-01e05cc3-30">
          <path fill="none" d="M0,-37.86 L 0 37.86" class="primitive"/>
        </g>
        <g transform="translate(130.88,42.86)" id="img-01e05cc3-31">
          <path fill="none" d="M0,-37.86 L 0 37.86" class="primitive"/>
        </g>
      </g>
      <g class="plotpanel" id="img-01e05cc3-32">
        <metadata>
          <boundingbox value="17.95833333333333mm 5.0mm 114.92166666666668mm 75.715mm"/>
          <unitbox value="-18.03074241581897 50.83664505333612 1036.061484831638 -31.673290106672248"/>
        </metadata>
        <g stroke-width="0.3" fill="#000000" fill-opacity="0.000" class="geometry" id="img-01e05cc3-33">
          <g transform="translate(74.86,74.95)" id="img-01e05cc3-34" stroke="#00BFFF" stroke-dasharray="none" class="color_0.005">
            <path fill="none" d="M-54.91,-67.56 L -53.8 -67.58 -52.69 -66.26 -51.58 -49.98 -50.47 -29.39 -49.36 -11.8 -48.25 -2.55 -47.14 0.91 -46.03 2 -44.92 2.68 -43.81 2.96 -42.7 3.07 -41.6 3.19 -40.49 3.22 -39.38 3.28 -38.27 3.28 -37.16 3.26 -36.05 3.29 -34.94 3.31 -33.83 3.3 -32.72 3.32 -31.61 3.29 -30.5 3.32 -29.39 3.31 -28.29 3.31 -27.18 3.32 -26.07 3.32 -24.96 3.33 -23.85 3.31 -22.74 3.29 -21.63 3.29 -20.52 3.27 -19.41 3.31 -18.3 3.29 -17.19 3.29 -16.08 3.27 -14.97 3.27 -13.87 3.27 -12.76 3.25 -11.65 3.25 -10.54 3.24 -9.43 3.23 -8.32 3.22 -7.21 3.21 -6.1 3.21 -4.99 3.2 -3.88 3.23 -2.77 3.22 -1.66 3.23 -0.55 3.26 0.55 3.22 1.66 3.24 2.77 3.22 3.88 3.2 4.99 3.23 6.1 3.22 7.21 3.21 8.32 3.19 9.43 3.2 10.54 3.18 11.65 3.2 12.76 3.18 13.87 3.18 14.97 3.18 16.08 3.18 17.19 3.18 18.3 3.22 19.41 3.2 20.52 3.2 21.63 3.19 22.74 3.21 23.85 3.21 24.96 3.19 26.07 3.19 27.18 3.18 28.29 3.18 29.39 3.19 30.5 3.19 31.61 3.19 32.72 3.18 33.83 3.17 34.94 3.18 36.05 3.17 37.16 3.19 38.27 3.18 39.38 3.18 40.49 3.19 41.6 3.18 42.7 3.2 43.81 3.18 44.92 3.18 46.03 3.18 47.14 3.16 48.25 3.17 49.36 3.15 50.47 3.15 51.58 3.13 52.69 3.12 53.8 3.12 54.91 3.11" class="primitive"/>
          </g>
          <g transform="translate(74.86,72.47)" id="img-01e05cc3-35" stroke="#D4CA3A" stroke-dasharray="none" class="color_0.0075">
            <path fill="none" d="M-54.91,-65.04 L -53.8 -65.06 -52.69 -64.31 -51.58 -50.46 -50.47 -29.13 -49.36 -10.85 -48.25 -1.4 -47.14 1.54 -46.03 2.56 -44.92 2.94 -43.81 3.13 -42.7 3.23 -41.6 3.23 -40.49 3.25 -39.38 3.25 -38.27 3.27 -37.16 3.28 -36.05 3.28 -34.94 3.27 -33.83 3.26 -32.72 3.25 -31.61 3.23 -30.5 3.23 -29.39 3.23 -28.29 3.21 -27.18 3.19 -26.07 3.22 -24.96 3.2 -23.85 3.21 -22.74 3.22 -21.63 3.25 -20.52 3.24 -19.41 3.24 -18.3 3.24 -17.19 3.24 -16.08 3.21 -14.97 3.22 -13.87 3.19 -12.76 3.18 -11.65 3.19 -10.54 3.19 -9.43 3.18 -8.32 3.17 -7.21 3.18 -6.1 3.18 -4.99 3.18 -3.88 3.16 -2.77 3.14 -1.66 3.13 -0.55 3.11 0.55 3.1 1.66 3.08 2.77 3.09 3.88 3.08 4.99 3.09 6.1 3.07 7.21 3.08 8.32 3.07 9.43 3.07 10.54 3.07 11.65 3.07 12.76 3.07 13.87 3.07 14.97 3.07 16.08 3.06 17.19 3.08 18.3 3.09 19.41 3.08 20.52 3.07 21.63 3.08 22.74 3.08 23.85 3.07 24.96 3.07 26.07 3.06 27.18 3.07 28.29 3.04 29.39 3.05 30.5 3.04 31.61 3.03 32.72 3.01 33.83 3.02 34.94 3 36.05 2.97 37.16 2.96 38.27 2.97 39.38 2.96 40.49 2.96 41.6 2.94 42.7 2.95 43.81 2.94 44.92 2.95 46.03 2.92 47.14 2.93 48.25 2.93 49.36 2.89 50.47 2.89 51.58 2.88 52.69 2.89 53.8 2.85 54.91 2.86" class="primitive"/>
          </g>
          <g transform="translate(74.86,69.97)" id="img-01e05cc3-36" stroke="#FF6DAE" stroke-dasharray="none" class="color_0.01">
            <path fill="none" d="M-54.91,-62.57 L -53.8 -62.58 -52.69 -61.96 -51.58 -50 -50.47 -29.27 -49.36 -10.03 -48.25 -0.6 -47.14 1.93 -46.03 2.67 -44.92 2.97 -43.81 3.16 -42.7 3.2 -41.6 3.22 -40.49 3.24 -39.38 3.25 -38.27 3.25 -37.16 3.23 -36.05 3.24 -34.94 3.24 -33.83 3.25 -32.72 3.22 -31.61 3.22 -30.5 3.22 -29.39 3.23 -28.29 3.21 -27.18 3.21 -26.07 3.22 -24.96 3.22 -23.85 3.2 -22.74 3.2 -21.63 3.18 -20.52 3.16 -19.41 3.16 -18.3 3.16 -17.19 3.13 -16.08 3.12 -14.97 3.13 -13.87 3.1 -12.76 3.13 -11.65 3.12 -10.54 3.1 -9.43 3.11 -8.32 3.11 -7.21 3.1 -6.1 3.1 -4.99 3.1 -3.88 3.08 -2.77 3.05 -1.66 3.05 -0.55 3.03 0.55 3.02 1.66 3.03 2.77 3.02 3.88 2.99 4.99 2.99 6.1 2.98 7.21 2.97 8.32 2.95 9.43 2.95 10.54 2.92 11.65 2.92 12.76 2.94 13.87 2.95 14.97 2.96 16.08 2.96 17.19 2.95 18.3 2.93 19.41 2.92 20.52 2.87 21.63 2.87 22.74 2.87 23.85 2.86 24.96 2.85 26.07 2.84 27.18 2.84 28.29 2.85 29.39 2.82 30.5 2.81 31.61 2.8 32.72 2.78 33.83 2.81 34.94 2.8 36.05 2.81 37.16 2.79 38.27 2.8 39.38 2.78 40.49 2.76 41.6 2.77 42.7 2.76 43.81 2.76 44.92 2.74 46.03 2.75 47.14 2.73 48.25 2.75 49.36 2.73 50.47 2.75 51.58 2.75 52.69 2.76 53.8 2.78 54.91 2.77" class="primitive"/>
          </g>
          <g transform="translate(74.86,60.82)" id="img-01e05cc3-37" stroke="#00B78D" stroke-dasharray="none" class="color_0.025">
            <path fill="none" d="M-54.91,-53.4 L -53.8 -53.41 -52.69 -53.26 -51.58 -46.74 -50.47 -27.08 -49.36 -7.01 -48.25 0.7 -47.14 2.27 -46.03 2.65 -44.92 2.8 -43.81 2.96 -42.7 3.03 -41.6 3.04 -40.49 3.06 -39.38 3.05 -38.27 3.04 -37.16 3.03 -36.05 2.99 -34.94 3.01 -33.83 3 -32.72 3.01 -31.61 2.99 -30.5 2.96 -29.39 2.97 -28.29 2.95 -27.18 2.94 -26.07 2.94 -24.96 2.91 -23.85 2.91 -22.74 2.91 -21.63 2.88 -20.52 2.9 -19.41 2.87 -18.3 2.84 -17.19 2.83 -16.08 2.83 -14.97 2.84 -13.87 2.82 -12.76 2.81 -11.65 2.8 -10.54 2.79 -9.43 2.75 -8.32 2.77 -7.21 2.75 -6.1 2.75 -4.99 2.76 -3.88 2.77 -2.77 2.75 -1.66 2.72 -0.55 2.7 0.55 2.68 1.66 2.65 2.77 2.66 3.88 2.64 4.99 2.65 6.1 2.63 7.21 2.6 8.32 2.58 9.43 2.57 10.54 2.58 11.65 2.56 12.76 2.57 13.87 2.54 14.97 2.53 16.08 2.52 17.19 2.48 18.3 2.46 19.41 2.45 20.52 2.45 21.63 2.44 22.74 2.41 23.85 2.38 24.96 2.37 26.07 2.35 27.18 2.35 28.29 2.35 29.39 2.32 30.5 2.3 31.61 2.28 32.72 2.24 33.83 2.23 34.94 2.23 36.05 2.23 37.16 2.19 38.27 2.18 39.38 2.18 40.49 2.17 41.6 2.14 42.7 2.14 43.81 2.1 44.92 2.09 46.03 2.1 47.14 2.07 48.25 2.06 49.36 2.05 50.47 2.06 51.58 2.05 52.69 2.02 53.8 2.01 54.91 2.01" class="primitive"/>
          </g>
          <g transform="translate(74.86,55.24)" id="img-01e05cc3-38" stroke="#BEA9FF" stroke-dasharray="none" class="color_0.05">
            <path fill="none" d="M-54.91,-47.86 L -53.8 -47.88 -52.69 -47.9 -51.58 -43.5 -50.47 -24.6 -49.36 -3.32 -48.25 2.1 -47.14 2.71 -46.03 2.84 -44.92 2.87 -43.81 2.92 -42.7 3.01 -41.6 3.05 -40.49 3.03 -39.38 3.01 -38.27 3.02 -37.16 3 -36.05 2.99 -34.94 2.97 -33.83 2.97 -32.72 2.94 -31.61 2.94 -30.5 2.92 -29.39 2.88 -28.29 2.87 -27.18 2.86 -26.07 2.85 -24.96 2.83 -23.85 2.79 -22.74 2.78 -21.63 2.72 -20.52 2.72 -19.41 2.7 -18.3 2.69 -17.19 2.67 -16.08 2.65 -14.97 2.64 -13.87 2.64 -12.76 2.59 -11.65 2.57 -10.54 2.54 -9.43 2.52 -8.32 2.5 -7.21 2.49 -6.1 2.46 -4.99 2.44 -3.88 2.42 -2.77 2.41 -1.66 2.38 -0.55 2.37 0.55 2.34 1.66 2.33 2.77 2.32 3.88 2.3 4.99 2.28 6.1 2.27 7.21 2.26 8.32 2.24 9.43 2.21 10.54 2.19 11.65 2.2 12.76 2.17 13.87 2.15 14.97 2.13 16.08 2.11 17.19 2.06 18.3 2.05 19.41 2.04 20.52 2.02 21.63 1.99 22.74 2.01 23.85 2 24.96 1.97 26.07 1.96 27.18 1.92 28.29 1.91 29.39 1.88 30.5 1.87 31.61 1.85 32.72 1.81 33.83 1.78 34.94 1.76 36.05 1.73 37.16 1.71 38.27 1.66 39.38 1.63 40.49 1.61 41.6 1.6 42.7 1.61 43.81 1.61 44.92 1.59 46.03 1.59 47.14 1.56 48.25 1.53 49.36 1.52 50.47 1.51 51.58 1.49 52.69 1.5 53.8 1.47 54.91 1.46" class="primitive"/>
          </g>
        </g>
      </g>
    </g>
  </g>
  <g class="guide ylabels" font-size="2.82" font-family="'PT Sans Caption','Helvetica Neue','Helvetica',sans-serif" fill="#6C606B" id="img-01e05cc3-39">
    <g transform="translate(16.96,78.71)" id="img-01e05cc3-40">
      <g class="primitive">
        <text text-anchor="end" dy="0.35em">20</text>
      </g>
    </g>
    <g transform="translate(16.96,54.81)" id="img-01e05cc3-41">
      <g class="primitive">
        <text text-anchor="end" dy="0.35em">30</text>
      </g>
    </g>
    <g transform="translate(16.96,30.9)" id="img-01e05cc3-42">
      <g class="primitive">
        <text text-anchor="end" dy="0.35em">40</text>
      </g>
    </g>
    <g transform="translate(16.96,7)" id="img-01e05cc3-43">
      <g class="primitive">
        <text text-anchor="end" dy="0.35em">50</text>
      </g>
    </g>
  </g>
  <g font-size="3.88" font-family="'PT Sans','Helvetica Neue','Helvetica',sans-serif" fill="#564A55" stroke="#000000" stroke-opacity="0.000" id="img-01e05cc3-44">
    <g transform="translate(8.81,40.86)" id="img-01e05cc3-45">
      <g class="primitive">
        <text text-anchor="middle" dy="0.35em" transform="rotate(-90,0, 2)">Numero de Variedades</text>
      </g>
    </g>
  </g>
</g>
<defs>
  <clipPath id="img-01e05cc3-19">
    <path d="M17.96,5 L 132.88 5 132.88 80.72 17.96 80.72" />
  </clipPath>
</defs>
</svg>
