<?xml version="1.0" encoding="UTF-8"?>
<svg xmlns="http://www.w3.org/2000/svg"
     xmlns:xlink="http://www.w3.org/1999/xlink"
     xmlns:gadfly="http://www.gadflyjl.org/ns"
     version="1.2"
     width="150mm" height="100mm" viewBox="0 0 150 100"
     stroke="none"
     fill="#000000"
     stroke-width="0.3"
     font-size="3.88"
>
<defs>
  <marker id="arrow" markerWidth="15" markerHeight="7" refX="5" refY="3.5" orient="auto" markerUnits="strokeWidth">
    <path d="M0,0 L15,3.5 L0,7 z" stroke="context-stroke" fill="context-stroke"/>
  </marker>
</defs>
<g class="plotroot xscalable yscalable" id="img-00332bba-1">
  <g font-size="3.88" font-family="'PT Sans','Helvetica Neue','Helvetica',sans-serif" fill="#564A55" stroke="#000000" stroke-opacity="0.000" id="img-00332bba-2">
    <g transform="translate(77.26,88.39)">
      <g class="primitive">
        <text text-anchor="middle" dy="0.6em">Tempo</text>
      </g>
    </g>
  </g>
  <g class="guide xlabels" font-size="2.82" font-family="'PT Sans Caption','Helvetica Neue','Helvetica',sans-serif" fill="#6C606B" id="img-00332bba-3">
    <g transform="translate(19.96,81.72)">
      <g class="primitive">
        <text text-anchor="middle" dy="0.6em">0</text>
      </g>
    </g>
    <g transform="translate(77.26,81.72)">
      <g class="primitive">
        <text text-anchor="middle" dy="0.6em">500</text>
      </g>
    </g>
    <g transform="translate(134.57,81.72)">
      <g class="primitive">
        <text text-anchor="middle" dy="0.6em">1000</text>
      </g>
    </g>
  </g>
  <g class="guide colorkey" id="img-00332bba-4">
    <g fill="#4C404B" font-size="2.82" font-family="'PT Sans','Helvetica Neue','Helvetica',sans-serif" id="img-00332bba-5">
      <g transform="translate(140.38,35.6)" id="img-00332bba-6" class="color_25">
        <g class="primitive">
          <text dy="0.35em">25</text>
        </g>
      </g>
      <g transform="translate(140.38,39.23)" id="img-00332bba-7" class="color_36">
        <g class="primitive">
          <text dy="0.35em">36</text>
        </g>
      </g>
      <g transform="translate(140.38,42.86)" id="img-00332bba-8" class="color_49">
        <g class="primitive">
          <text dy="0.35em">49</text>
        </g>
      </g>
      <g transform="translate(140.38,46.48)" id="img-00332bba-9" class="color_64">
        <g class="primitive">
          <text dy="0.35em">64</text>
        </g>
      </g>
      <g transform="translate(140.38,50.11)" id="img-00332bba-10" class="color_81">
        <g class="primitive">
          <text dy="0.35em">81</text>
        </g>
      </g>
      <g transform="translate(140.38,53.74)" id="img-00332bba-11" class="color_100">
        <g class="primitive">
          <text dy="0.35em">100</text>
        </g>
      </g>
    </g>
    <g stroke="#000000" stroke-opacity="0.000" id="img-00332bba-12">
      <g transform="translate(138.47,35.6)" id="img-00332bba-13" fill="#00BFFF" class="color_25">
        <path d="M-0.91,-0.91 L 0.91 -0.91 0.91 0.91 -0.91 0.91 z" class="primitive"/>
      </g>
      <g transform="translate(138.47,39.23)" id="img-00332bba-14" fill="#D4CA3A" class="color_36">
        <path d="M-0.91,-0.91 L 0.91 -0.91 0.91 0.91 -0.91 0.91 z" class="primitive"/>
      </g>
      <g transform="translate(138.47,42.86)" id="img-00332bba-15" fill="#FF6DAE" class="color_49">
        <path d="M-0.91,-0.91 L 0.91 -0.91 0.91 0.91 -0.91 0.91 z" class="primitive"/>
      </g>
      <g transform="translate(138.47,46.48)" id="img-00332bba-16" fill="#00B78D" class="color_64">
        <path d="M-0.91,-0.91 L 0.91 -0.91 0.91 0.91 -0.91 0.91 z" class="primitive"/>
      </g>
      <g transform="translate(138.47,50.11)" id="img-00332bba-17" fill="#BEA9FF" class="color_81">
        <path d="M-0.91,-0.91 L 0.91 -0.91 0.91 0.91 -0.91 0.91 z" class="primitive"/>
      </g>
      <g transform="translate(138.47,53.74)" id="img-00332bba-18" fill="#FF6765" class="color_100">
        <path d="M-0.91,-0.91 L 0.91 -0.91 0.91 0.91 -0.91 0.91 z" class="primitive"/>
      </g>
    </g>
    <g fill="#362A35" font-size="3.88" font-family="'PT Sans','Helvetica Neue','Helvetica',sans-serif" stroke="#000000" stroke-opacity="0.000" id="img-00332bba-19">
      <g transform="translate(137.57,31.78)" id="img-00332bba-20">
        <g class="primitive">
          <text>L</text>
        </g>
      </g>
    </g>
  </g>
  <g clip-path="url(#img-00332bba-21)">
    <g id="img-00332bba-22">
      <g pointer-events="visible" fill="#000000" fill-opacity="0.000" stroke="#000000" stroke-opacity="0.000" class="guide background" id="img-00332bba-23">
        <g transform="translate(77.26,42.86)" id="img-00332bba-24">
          <path d="M-59.3,-37.86 L 59.3 -37.86 59.3 37.86 -59.3 37.86 z" class="primitive"/>
        </g>
      </g>
      <g class="guide ygridlines xfixed" stroke-dasharray="0.5,0.5" stroke-width="0.2" stroke="#D0D0E0" id="img-00332bba-25">
        <g transform="translate(77.26,78.71)" id="img-00332bba-26">
          <path fill="none" d="M-59.3,0 L 59.3 0" class="primitive"/>
        </g>
        <g transform="translate(77.26,64.37)" id="img-00332bba-27">
          <path fill="none" d="M-59.3,0 L 59.3 0" class="primitive"/>
        </g>
        <g transform="translate(77.26,50.03)" id="img-00332bba-28">
          <path fill="none" d="M-59.3,0 L 59.3 0" class="primitive"/>
        </g>
        <g transform="translate(77.26,35.69)" id="img-00332bba-29">
          <path fill="none" d="M-59.3,0 L 59.3 0" class="primitive"/>
        </g>
        <g transform="translate(77.26,21.34)" id="img-00332bba-30">
          <path fill="none" d="M-59.3,0 L 59.3 0" class="primitive"/>
        </g>
        <g transform="translate(77.26,7)" id="img-00332bba-31">
          <path fill="none" d="M-59.3,0 L 59.3 0" class="primitive"/>
        </g>
      </g>
      <g class="guide xgridlines yfixed" stroke-dasharray="0.5,0.5" stroke-width="0.2" stroke="#D0D0E0" id="img-00332bba-32">
        <g transform="translate(19.96,42.86)" id="img-00332bba-33">
          <path fill="none" d="M0,-37.86 L 0 37.86" class="primitive"/>
        </g>
        <g transform="translate(77.26,42.86)" id="img-00332bba-34">
          <path fill="none" d="M0,-37.86 L 0 37.86" class="primitive"/>
        </g>
        <g transform="translate(134.57,42.86)" id="img-00332bba-35">
          <path fill="none" d="M0,-37.86 L 0 37.86" class="primitive"/>
        </g>
      </g>
      <g class="plotpanel" id="img-00332bba-36">
        <metadata>
          <boundingbox value="17.958333333333343mm 5.0mm 118.60833333333335mm 75.715mm"/>
          <unitbox value="-17.450738020795463 51.39440842222687 1034.901476041591 -52.78881684445375"/>
        </metadata>
        <g stroke-width="0.3" fill="#000000" fill-opacity="0.000" class="geometry" id="img-00332bba-37">
          <g transform="translate(76.69,53.01)" id="img-00332bba-38" stroke="#00BFFF" stroke-dasharray="none" class="color_25">
            <path fill="none" d="M-56.73,-45.79 L -55.59 -45.78 -54.44 -27.07 -53.29 -5.12 -52.15 -0.1 -51 0.79 -49.85 1.09 -48.71 1.17 -47.56 1.22 -46.42 1.23 -45.27 1.24 -44.12 1.26 -42.98 1.27 -41.83 1.26 -40.69 1.26 -39.54 1.26 -38.39 1.26 -37.25 1.27 -36.1 1.26 -34.96 1.27 -33.81 1.27 -32.66 1.28 -31.52 1.27 -30.37 1.27 -29.23 1.27 -28.08 1.27 -26.93 1.26 -25.79 1.26 -24.64 1.26 -23.49 1.27 -22.35 1.26 -21.2 1.27 -20.06 1.27 -18.91 1.28 -17.76 1.28 -16.62 1.28 -15.47 1.28 -14.33 1.28 -13.18 1.28 -12.03 1.28 -10.89 1.28 -9.74 1.28 -8.6 1.27 -7.45 1.27 -6.3 1.27 -5.16 1.26 -4.01 1.26 -2.87 1.26 -1.72 1.26 -0.57 1.25 0.57 1.26 1.72 1.25 2.87 1.25 4.01 1.25 5.16 1.26 6.3 1.26 7.45 1.27 8.6 1.28 9.74 1.27 10.89 1.28 12.03 1.29 13.18 1.29 14.33 1.3 15.47 1.31 16.62 1.3 17.76 1.31 18.91 1.31 20.06 1.32 21.2 1.31 22.35 1.32 23.49 1.31 24.64 1.33 25.79 1.33 26.93 1.33 28.08 1.32 29.23 1.33 30.37 1.33 31.52 1.33 32.66 1.35 33.81 1.37 34.96 1.39 36.1 1.39 37.25 1.41 38.39 1.42 39.54 1.41 40.69 1.43 41.83 1.42 42.98 1.42 44.12 1.42 45.27 1.42 46.42 1.42 47.56 1.42 48.71 1.43 49.85 1.44 51 1.46 52.15 1.46 53.29 1.46 54.44 1.46 55.59 1.46 56.73 1.47" class="primitive"/>
          </g>
          <g transform="translate(76.69,48.61)" id="img-00332bba-39" stroke="#D4CA3A" stroke-dasharray="none" class="color_36">
            <path fill="none" d="M-56.73,-41.34 L -55.59 -41.35 -54.44 -37.38 -53.29 -19.83 -52.15 -5.04 -51 0 -49.85 0.96 -48.71 1.38 -47.56 1.55 -46.42 1.58 -45.27 1.59 -44.12 1.6 -42.98 1.62 -41.83 1.64 -40.69 1.64 -39.54 1.64 -38.39 1.64 -37.25 1.63 -36.1 1.63 -34.96 1.61 -33.81 1.62 -32.66 1.61 -31.52 1.61 -30.37 1.6 -29.23 1.6 -28.08 1.6 -26.93 1.59 -25.79 1.59 -24.64 1.6 -23.49 1.6 -22.35 1.61 -21.2 1.6 -20.06 1.6 -18.91 1.59 -17.76 1.59 -16.62 1.59 -15.47 1.59 -14.33 1.59 -13.18 1.59 -12.03 1.58 -10.89 1.58 -9.74 1.58 -8.6 1.57 -7.45 1.57 -6.3 1.57 -5.16 1.56 -4.01 1.56 -2.87 1.56 -1.72 1.55 -0.57 1.56 0.57 1.55 1.72 1.55 2.87 1.55 4.01 1.54 5.16 1.54 6.3 1.54 7.45 1.56 8.6 1.55 9.74 1.54 10.89 1.54 12.03 1.54 13.18 1.54 14.33 1.53 15.47 1.53 16.62 1.54 17.76 1.54 18.91 1.54 20.06 1.54 21.2 1.53 22.35 1.53 23.49 1.53 24.64 1.53 25.79 1.52 26.93 1.52 28.08 1.51 29.23 1.5 30.37 1.51 31.52 1.51 32.66 1.52 33.81 1.51 34.96 1.5 36.1 1.5 37.25 1.49 38.39 1.49 39.54 1.47 40.69 1.49 41.83 1.49 42.98 1.48 44.12 1.47 45.27 1.48 46.42 1.49 47.56 1.49 48.71 1.48 49.85 1.48 51 1.47 52.15 1.47 53.29 1.47 54.44 1.46 55.59 1.46 56.73 1.46" class="primitive"/>
          </g>
          <g transform="translate(76.69,44.93)" id="img-00332bba-40" stroke="#FF6DAE" stroke-dasharray="none" class="color_49">
            <path fill="none" d="M-56.73,-37.72 L -55.59 -37.73 -54.44 -37.38 -53.29 -30.27 -52.15 -17.45 -51 -6.27 -49.85 -0.2 -48.71 1.17 -47.56 1.61 -46.42 1.79 -45.27 1.92 -44.12 1.98 -42.98 1.99 -41.83 2 -40.69 2.01 -39.54 2 -38.39 2 -37.25 2 -36.1 2.01 -34.96 2 -33.81 2 -32.66 2 -31.52 1.99 -30.37 1.98 -29.23 1.98 -28.08 1.99 -26.93 1.97 -25.79 1.96 -24.64 1.95 -23.49 1.95 -22.35 1.95 -21.2 1.92 -20.06 1.94 -18.91 1.92 -17.76 1.91 -16.62 1.9 -15.47 1.9 -14.33 1.89 -13.18 1.9 -12.03 1.89 -10.89 1.88 -9.74 1.9 -8.6 1.88 -7.45 1.88 -6.3 1.86 -5.16 1.86 -4.01 1.85 -2.87 1.85 -1.72 1.84 -0.57 1.84 0.57 1.83 1.72 1.83 2.87 1.83 4.01 1.82 5.16 1.81 6.3 1.81 7.45 1.8 8.6 1.79 9.74 1.77 10.89 1.77 12.03 1.76 13.18 1.76 14.33 1.76 15.47 1.75 16.62 1.75 17.76 1.74 18.91 1.74 20.06 1.73 21.2 1.72 22.35 1.72 23.49 1.72 24.64 1.71 25.79 1.71 26.93 1.71 28.08 1.71 29.23 1.7 30.37 1.71 31.52 1.71 32.66 1.7 33.81 1.7 34.96 1.68 36.1 1.67 37.25 1.66 38.39 1.66 39.54 1.65 40.69 1.65 41.83 1.65 42.98 1.64 44.12 1.63 45.27 1.62 46.42 1.63 47.56 1.61 48.71 1.61 49.85 1.61 51 1.6 52.15 1.58 53.29 1.58 54.44 1.57 55.59 1.57 56.73 1.58" class="primitive"/>
          </g>
          <g transform="translate(76.69,41.66)" id="img-00332bba-41" stroke="#00B78D" stroke-dasharray="none" class="color_64">
            <path fill="none" d="M-56.73,-34.43 L -55.59 -34.44 -54.44 -34.48 -53.29 -33.12 -52.15 -26.86 -51 -17.66 -49.85 -8.49 -48.71 -1.45 -47.56 0.88 -46.42 1.7 -45.27 2.01 -44.12 2.19 -42.98 2.28 -41.83 2.33 -40.69 2.35 -39.54 2.36 -38.39 2.36 -37.25 2.37 -36.1 2.37 -34.96 2.38 -33.81 2.36 -32.66 2.36 -31.52 2.36 -30.37 2.35 -29.23 2.33 -28.08 2.33 -26.93 2.33 -25.79 2.33 -24.64 2.31 -23.49 2.3 -22.35 2.3 -21.2 2.27 -20.06 2.26 -18.91 2.26 -17.76 2.26 -16.62 2.24 -15.47 2.23 -14.33 2.21 -13.18 2.19 -12.03 2.19 -10.89 2.18 -9.74 2.16 -8.6 2.15 -7.45 2.15 -6.3 2.15 -5.16 2.15 -4.01 2.15 -2.87 2.15 -1.72 2.13 -0.57 2.12 0.57 2.1 1.72 2.11 2.87 2.1 4.01 2.1 5.16 2.09 6.3 2.09 7.45 2.07 8.6 2.07 9.74 2.06 10.89 2.07 12.03 2.07 13.18 2.07 14.33 2.05 15.47 2.05 16.62 2.04 17.76 2.04 18.91 2.04 20.06 2.04 21.2 2.03 22.35 2.03 23.49 2 24.64 2.02 25.79 1.99 26.93 1.99 28.08 1.97 29.23 1.96 30.37 1.95 31.52 1.94 32.66 1.94 33.81 1.93 34.96 1.91 36.1 1.9 37.25 1.89 38.39 1.89 39.54 1.88 40.69 1.87 41.83 1.86 42.98 1.87 44.12 1.86 45.27 1.86 46.42 1.86 47.56 1.86 48.71 1.84 49.85 1.84 51 1.86 52.15 1.82 53.29 1.82 54.44 1.81 55.59 1.8 56.73 1.8" class="primitive"/>
          </g>
          <g transform="translate(76.69,39.34)" id="img-00332bba-42" stroke="#BEA9FF" stroke-dasharray="none" class="color_81">
            <path fill="none" d="M-56.73,-32.08 L -55.59 -32.09 -54.44 -32.19 -53.29 -32.12 -52.15 -30.48 -51 -25.81 -49.85 -18.35 -48.71 -10.88 -47.56 -3.87 -46.42 0.39 -45.27 1.72 -44.12 2.28 -42.98 2.51 -41.83 2.64 -40.69 2.74 -39.54 2.75 -38.39 2.79 -37.25 2.78 -36.1 2.78 -34.96 2.78 -33.81 2.77 -32.66 2.76 -31.52 2.76 -30.37 2.76 -29.23 2.74 -28.08 2.72 -26.93 2.72 -25.79 2.7 -24.64 2.7 -23.49 2.68 -22.35 2.7 -21.2 2.68 -20.06 2.68 -18.91 2.68 -17.76 2.67 -16.62 2.66 -15.47 2.65 -14.33 2.65 -13.18 2.63 -12.03 2.64 -10.89 2.63 -9.74 2.62 -8.6 2.6 -7.45 2.61 -6.3 2.6 -5.16 2.59 -4.01 2.58 -2.87 2.57 -1.72 2.56 -0.57 2.56 0.57 2.54 1.72 2.52 2.87 2.51 4.01 2.51 5.16 2.49 6.3 2.47 7.45 2.44 8.6 2.43 9.74 2.42 10.89 2.42 12.03 2.42 13.18 2.39 14.33 2.39 15.47 2.36 16.62 2.37 17.76 2.33 18.91 2.33 20.06 2.33 21.2 2.31 22.35 2.31 23.49 2.29 24.64 2.28 25.79 2.27 26.93 2.26 28.08 2.26 29.23 2.23 30.37 2.23 31.52 2.19 32.66 2.18 33.81 2.17 34.96 2.16 36.1 2.15 37.25 2.13 38.39 2.12 39.54 2.11 40.69 2.09 41.83 2.1 42.98 2.09 44.12 2.08 45.27 2.07 46.42 2.07 47.56 2.03 48.71 2.03 49.85 2.02 51 2.02 52.15 2 53.29 2 54.44 1.97 55.59 1.96 56.73 1.95" class="primitive"/>
          </g>
          <g transform="translate(76.69,36.4)" id="img-00332bba-43" stroke="#FF6765" stroke-dasharray="none" class="color_100">
            <path fill="none" d="M-56.73,-29.18 L -55.59 -29.18 -54.44 -29.27 -53.29 -29.38 -52.15 -29.17 -51 -27.83 -49.85 -24.46 -48.71 -19.19 -47.56 -13.15 -46.42 -7 -45.27 -1.68 -44.12 1.08 -42.98 2.19 -41.83 2.84 -40.69 3.05 -39.54 3.19 -38.39 3.24 -37.25 3.25 -36.1 3.25 -34.96 3.26 -33.81 3.27 -32.66 3.27 -31.52 3.26 -30.37 3.26 -29.23 3.23 -28.08 3.22 -26.93 3.21 -25.79 3.19 -24.64 3.19 -23.49 3.15 -22.35 3.13 -21.2 3.09 -20.06 3.1 -18.91 3.08 -17.76 3.06 -16.62 3.05 -15.47 3.02 -14.33 3 -13.18 2.99 -12.03 2.97 -10.89 2.94 -9.74 2.94 -8.6 2.93 -7.45 2.9 -6.3 2.88 -5.16 2.86 -4.01 2.86 -2.87 2.86 -1.72 2.85 -0.57 2.83 0.57 2.81 1.72 2.79 2.87 2.78 4.01 2.76 5.16 2.75 6.3 2.73 7.45 2.72 8.6 2.7 9.74 2.69 10.89 2.69 12.03 2.67 13.18 2.66 14.33 2.65 15.47 2.63 16.62 2.62 17.76 2.61 18.91 2.6 20.06 2.56 21.2 2.54 22.35 2.52 23.49 2.5 24.64 2.48 25.79 2.48 26.93 2.44 28.08 2.43 29.23 2.42 30.37 2.42 31.52 2.4 32.66 2.38 33.81 2.37 34.96 2.35 36.1 2.34 37.25 2.32 38.39 2.33 39.54 2.3 40.69 2.3 41.83 2.29 42.98 2.26 44.12 2.24 45.27 2.23 46.42 2.24 47.56 2.23 48.71 2.21 49.85 2.2 51 2.18 52.15 2.17 53.29 2.15 54.44 2.15 55.59 2.14 56.73 2.09" class="primitive"/>
          </g>
        </g>
      </g>
    </g>
  </g>
  <g class="guide ylabels" font-size="2.82" font-family="'PT Sans Caption','Helvetica Neue','Helvetica',sans-serif" fill="#6C606B" id="img-00332bba-44">
    <g transform="translate(16.96,78.71)" id="img-00332bba-45">
      <g class="primitive">
        <text text-anchor="end" dy="0.35em">0</text>
      </g>
    </g>
    <g transform="translate(16.96,64.37)" id="img-00332bba-46">
      <g class="primitive">
        <text text-anchor="end" dy="0.35em">10</text>
      </g>
    </g>
    <g transform="translate(16.96,50.03)" id="img-00332bba-47">
      <g class="primitive">
        <text text-anchor="end" dy="0.35em">20</text>
      </g>
    </g>
    <g transform="translate(16.96,35.69)" id="img-00332bba-48">
      <g class="primitive">
        <text text-anchor="end" dy="0.35em">30</text>
      </g>
    </g>
    <g transform="translate(16.96,21.34)" id="img-00332bba-49">
      <g class="primitive">
        <text text-anchor="end" dy="0.35em">40</text>
      </g>
    </g>
    <g transform="translate(16.96,7)" id="img-00332bba-50">
      <g class="primitive">
        <text text-anchor="end" dy="0.35em">50</text>
      </g>
    </g>
  </g>
  <g font-size="3.88" font-family="'PT Sans','Helvetica Neue','Helvetica',sans-serif" fill="#564A55" stroke="#000000" stroke-opacity="0.000" id="img-00332bba-51">
    <g transform="translate(8.81,40.86)" id="img-00332bba-52">
      <g class="primitive">
        <text text-anchor="middle" dy="0.35em" transform="rotate(-90,0, 2)">Numero de Variedades</text>
      </g>
    </g>
  </g>
</g>
<defs>
  <clipPath id="img-00332bba-21">
    <path d="M17.96,5 L 136.57 5 136.57 80.72 17.96 80.72" />
  </clipPath>
</defs>
</svg>
