<?xml version="1.0" encoding="UTF-8"?>
<svg xmlns="http://www.w3.org/2000/svg"
     xmlns:xlink="http://www.w3.org/1999/xlink"
     xmlns:gadfly="http://www.gadflyjl.org/ns"
     version="1.2"
     width="150mm" height="100mm" viewBox="0 0 150 100"
     stroke="none"
     fill="#000000"
     stroke-width="0.3"
     font-size="3.88"
>
<defs>
  <marker id="arrow" markerWidth="15" markerHeight="7" refX="5" refY="3.5" orient="auto" markerUnits="strokeWidth">
    <path d="M0,0 L15,3.5 L0,7 z" stroke="context-stroke" fill="context-stroke"/>
  </marker>
</defs>
<g class="plotroot xscalable yscalable" id="img-34dad202-1">
  <g font-size="3.88" font-family="'PT Sans','Helvetica Neue','Helvetica',sans-serif" fill="#564A55" stroke="#000000" stroke-opacity="0.000" id="img-34dad202-2">
    <g transform="translate(81.48,88.39)">
      <g class="primitive">
        <text text-anchor="middle" dy="0.6em">Tempo</text>
      </g>
    </g>
  </g>
  <g class="guide xlabels" font-size="2.82" font-family="'PT Sans Caption','Helvetica Neue','Helvetica',sans-serif" fill="#6C606B" id="img-34dad202-3">
    <g transform="translate(19.96,81.72)">
      <g class="primitive">
        <text text-anchor="middle" dy="0.6em">0</text>
      </g>
    </g>
    <g transform="translate(44.57,81.72)">
      <g class="primitive">
        <text text-anchor="middle" dy="0.6em">50</text>
      </g>
    </g>
    <g transform="translate(69.18,81.72)">
      <g class="primitive">
        <text text-anchor="middle" dy="0.6em">100</text>
      </g>
    </g>
    <g transform="translate(93.78,81.72)">
      <g class="primitive">
        <text text-anchor="middle" dy="0.6em">150</text>
      </g>
    </g>
    <g transform="translate(118.39,81.72)">
      <g class="primitive">
        <text text-anchor="middle" dy="0.6em">200</text>
      </g>
    </g>
    <g transform="translate(143,81.72)">
      <g class="primitive">
        <text text-anchor="middle" dy="0.6em">250</text>
      </g>
    </g>
  </g>
  <g clip-path="url(#img-34dad202-4)">
    <g id="img-34dad202-5">
      <g pointer-events="visible" fill="#000000" fill-opacity="0.000" stroke="#000000" stroke-opacity="0.000" class="guide background" id="img-34dad202-6">
        <g transform="translate(81.48,42.86)" id="img-34dad202-7">
          <path d="M-63.52,-37.86 L 63.52 -37.86 63.52 37.86 -63.52 37.86 z" class="primitive"/>
        </g>
      </g>
      <g class="guide ygridlines xfixed" stroke-dasharray="0.5,0.5" stroke-width="0.2" stroke="#D0D0E0" id="img-34dad202-8">
        <g transform="translate(81.48,78.71)" id="img-34dad202-9">
          <path fill="none" d="M-63.52,0 L 63.52 0" class="primitive"/>
        </g>
        <g transform="translate(81.48,64.37)" id="img-34dad202-10">
          <path fill="none" d="M-63.52,0 L 63.52 0" class="primitive"/>
        </g>
        <g transform="translate(81.48,50.03)" id="img-34dad202-11">
          <path fill="none" d="M-63.52,0 L 63.52 0" class="primitive"/>
        </g>
        <g transform="translate(81.48,35.69)" id="img-34dad202-12">
          <path fill="none" d="M-63.52,0 L 63.52 0" class="primitive"/>
        </g>
        <g transform="translate(81.48,21.34)" id="img-34dad202-13">
          <path fill="none" d="M-63.52,0 L 63.52 0" class="primitive"/>
        </g>
        <g transform="translate(81.48,7)" id="img-34dad202-14">
          <path fill="none" d="M-63.52,0 L 63.52 0" class="primitive"/>
        </g>
      </g>
      <g class="guide xgridlines yfixed" stroke-dasharray="0.5,0.5" stroke-width="0.2" stroke="#D0D0E0" id="img-34dad202-15">
        <g transform="translate(19.96,42.86)" id="img-34dad202-16">
          <path fill="none" d="M0,-37.86 L 0 37.86" class="primitive"/>
        </g>
        <g transform="translate(44.57,42.86)" id="img-34dad202-17">
          <path fill="none" d="M0,-37.86 L 0 37.86" class="primitive"/>
        </g>
        <g transform="translate(69.18,42.86)" id="img-34dad202-18">
          <path fill="none" d="M0,-37.86 L 0 37.86" class="primitive"/>
        </g>
        <g transform="translate(93.78,42.86)" id="img-34dad202-19">
          <path fill="none" d="M0,-37.86 L 0 37.86" class="primitive"/>
        </g>
        <g transform="translate(118.39,42.86)" id="img-34dad202-20">
          <path fill="none" d="M0,-37.86 L 0 37.86" class="primitive"/>
        </g>
        <g transform="translate(143,42.86)" id="img-34dad202-21">
          <path fill="none" d="M0,-37.86 L 0 37.86" class="primitive"/>
        </g>
      </g>
      <g class="plotpanel" id="img-34dad202-22">
        <metadata>
          <boundingbox value="17.958333333333343mm 5.0mm 127.04166666666666mm 75.715mm"/>
          <unitbox value="-4.063664070436844 51.39440842222687 258.1273281408737 -52.78881684445375"/>
        </metadata>
        <g shape-rendering="crispEdges" stroke-width="0.3" id="img-34dad202-23">
          <g stroke="#000000" stroke-opacity="0.000" class="geometry" fill="#00BFFF" id="img-34dad202-24">
            <g transform="translate(20.36,48.59)" id="img-34dad202-25">
              <path d="M-0.43,-30.12 L 0.43 -30.12 0.43 30.12 -0.43 30.12 z" class="primitive"/>
            </g>
            <g transform="translate(21.17,47.16)" id="img-34dad202-26">
              <path d="M-0.43,-31.55 L 0.43 -31.55 0.43 31.55 -0.43 31.55 z" class="primitive"/>
            </g>
            <g transform="translate(21.98,63.65)" id="img-34dad202-27">
              <path d="M-0.43,-15.06 L 0.43 -15.06 0.43 15.06 -0.43 15.06 z" class="primitive"/>
            </g>
            <g transform="translate(22.79,50.03)" id="img-34dad202-28">
              <path d="M-0.43,-28.69 L 0.43 -28.69 0.43 28.69 -0.43 28.69 z" class="primitive"/>
            </g>
            <g transform="translate(23.61,50.75)" id="img-34dad202-29">
              <path d="M-0.43,-27.97 L 0.43 -27.97 0.43 27.97 -0.43 27.97 z" class="primitive"/>
            </g>
            <g transform="translate(24.42,65.81)" id="img-34dad202-30">
              <path d="M-0.43,-12.91 L 0.43 -12.91 0.43 12.91 -0.43 12.91 z" class="primitive"/>
            </g>
            <g transform="translate(25.23,48.59)" id="img-34dad202-31">
              <path d="M-0.43,-30.12 L 0.43 -30.12 0.43 30.12 -0.43 30.12 z" class="primitive"/>
            </g>
            <g transform="translate(26.04,50.75)" id="img-34dad202-32">
              <path d="M-0.43,-27.97 L 0.43 -27.97 0.43 27.97 -0.43 27.97 z" class="primitive"/>
            </g>
            <g transform="translate(26.85,64.37)" id="img-34dad202-33">
              <path d="M-0.43,-14.34 L 0.43 -14.34 0.43 14.34 -0.43 14.34 z" class="primitive"/>
            </g>
            <g transform="translate(27.66,47.16)" id="img-34dad202-34">
              <path d="M-0.43,-31.55 L 0.43 -31.55 0.43 31.55 -0.43 31.55 z" class="primitive"/>
            </g>
            <g transform="translate(28.47,46.44)" id="img-34dad202-35">
              <path d="M-0.43,-32.27 L 0.43 -32.27 0.43 32.27 -0.43 32.27 z" class="primitive"/>
            </g>
            <g transform="translate(29.28,62.94)" id="img-34dad202-36">
              <path d="M-0.43,-15.78 L 0.43 -15.78 0.43 15.78 -0.43 15.78 z" class="primitive"/>
            </g>
            <g transform="translate(30.09,51.46)" id="img-34dad202-37">
              <path d="M-0.43,-27.25 L 0.43 -27.25 0.43 27.25 -0.43 27.25 z" class="primitive"/>
            </g>
            <g transform="translate(30.9,47.88)" id="img-34dad202-38">
              <path d="M-0.43,-30.84 L 0.43 -30.84 0.43 30.84 -0.43 30.84 z" class="primitive"/>
            </g>
            <g transform="translate(31.71,62.94)" id="img-34dad202-39">
              <path d="M-0.43,-15.78 L 0.43 -15.78 0.43 15.78 -0.43 15.78 z" class="primitive"/>
            </g>
            <g transform="translate(32.52,45.73)" id="img-34dad202-40">
              <path d="M-0.43,-32.99 L 0.43 -32.99 0.43 32.99 -0.43 32.99 z" class="primitive"/>
            </g>
            <g transform="translate(33.33,62.22)" id="img-34dad202-41">
              <path d="M-0.43,-16.49 L 0.43 -16.49 0.43 16.49 -0.43 16.49 z" class="primitive"/>
            </g>
            <g transform="translate(34.14,45.73)" id="img-34dad202-42">
              <path d="M-0.43,-32.99 L 0.43 -32.99 0.43 32.99 -0.43 32.99 z" class="primitive"/>
            </g>
            <g transform="translate(34.95,47.88)" id="img-34dad202-43">
              <path d="M-0.43,-30.84 L 0.43 -30.84 0.43 30.84 -0.43 30.84 z" class="primitive"/>
            </g>
            <g transform="translate(35.76,63.65)" id="img-34dad202-44">
              <path d="M-0.43,-15.06 L 0.43 -15.06 0.43 15.06 -0.43 15.06 z" class="primitive"/>
            </g>
            <g transform="translate(36.57,48.59)" id="img-34dad202-45">
              <path d="M-0.43,-30.12 L 0.43 -30.12 0.43 30.12 -0.43 30.12 z" class="primitive"/>
            </g>
            <g transform="translate(37.38,48.59)" id="img-34dad202-46">
              <path d="M-0.43,-30.12 L 0.43 -30.12 0.43 30.12 -0.43 30.12 z" class="primitive"/>
            </g>
            <g transform="translate(38.19,66.52)" id="img-34dad202-47">
              <path d="M-0.43,-12.19 L 0.43 -12.19 0.43 12.19 -0.43 12.19 z" class="primitive"/>
            </g>
            <g transform="translate(39,55.77)" id="img-34dad202-48">
              <path d="M-0.43,-22.95 L 0.43 -22.95 0.43 22.95 -0.43 22.95 z" class="primitive"/>
            </g>
            <g transform="translate(39.81,62.22)" id="img-34dad202-49">
              <path d="M-0.43,-16.49 L 0.43 -16.49 0.43 16.49 -0.43 16.49 z" class="primitive"/>
            </g>
            <g transform="translate(40.62,71.54)" id="img-34dad202-50">
              <path d="M-0.43,-7.17 L 0.43 -7.17 0.43 7.17 -0.43 7.17 z" class="primitive"/>
            </g>
            <g transform="translate(41.43,61.5)" id="img-34dad202-51">
              <path d="M-0.43,-17.21 L 0.43 -17.21 0.43 17.21 -0.43 17.21 z" class="primitive"/>
            </g>
            <g transform="translate(42.25,66.52)" id="img-34dad202-52">
              <path d="M-0.43,-12.19 L 0.43 -12.19 0.43 12.19 -0.43 12.19 z" class="primitive"/>
            </g>
            <g transform="translate(43.06,71.54)" id="img-34dad202-53">
              <path d="M-0.43,-7.17 L 0.43 -7.17 0.43 7.17 -0.43 7.17 z" class="primitive"/>
            </g>
            <g transform="translate(43.87,65.81)" id="img-34dad202-54">
              <path d="M-0.43,-12.91 L 0.43 -12.91 0.43 12.91 -0.43 12.91 z" class="primitive"/>
            </g>
            <g transform="translate(44.68,67.96)" id="img-34dad202-55">
              <path d="M-0.43,-10.76 L 0.43 -10.76 0.43 10.76 -0.43 10.76 z" class="primitive"/>
            </g>
            <g transform="translate(45.49,73.69)" id="img-34dad202-56">
              <path d="M-0.43,-5.02 L 0.43 -5.02 0.43 5.02 -0.43 5.02 z" class="primitive"/>
            </g>
            <g transform="translate(46.3,67.96)" id="img-34dad202-57">
              <path d="M-0.43,-10.76 L 0.43 -10.76 0.43 10.76 -0.43 10.76 z" class="primitive"/>
            </g>
            <g transform="translate(47.11,71.54)" id="img-34dad202-58">
              <path d="M-0.43,-7.17 L 0.43 -7.17 0.43 7.17 -0.43 7.17 z" class="primitive"/>
            </g>
            <g transform="translate(47.92,66.52)" id="img-34dad202-59">
              <path d="M-0.43,-12.19 L 0.43 -12.19 0.43 12.19 -0.43 12.19 z" class="primitive"/>
            </g>
            <g transform="translate(48.73,66.52)" id="img-34dad202-60">
              <path d="M-0.43,-12.19 L 0.43 -12.19 0.43 12.19 -0.43 12.19 z" class="primitive"/>
            </g>
            <g transform="translate(49.54,73.69)" id="img-34dad202-61">
              <path d="M-0.43,-5.02 L 0.43 -5.02 0.43 5.02 -0.43 5.02 z" class="primitive"/>
            </g>
            <g transform="translate(50.35,66.52)" id="img-34dad202-62">
              <path d="M-0.43,-12.19 L 0.43 -12.19 0.43 12.19 -0.43 12.19 z" class="primitive"/>
            </g>
            <g transform="translate(51.16,68.67)" id="img-34dad202-63">
              <path d="M-0.43,-10.04 L 0.43 -10.04 0.43 10.04 -0.43 10.04 z" class="primitive"/>
            </g>
            <g transform="translate(51.97,75.13)" id="img-34dad202-64">
              <path d="M-0.43,-3.59 L 0.43 -3.59 0.43 3.59 -0.43 3.59 z" class="primitive"/>
            </g>
            <g transform="translate(52.78,69.39)" id="img-34dad202-65">
              <path d="M-0.43,-9.32 L 0.43 -9.32 0.43 9.32 -0.43 9.32 z" class="primitive"/>
            </g>
            <g transform="translate(53.59,70.11)" id="img-34dad202-66">
              <path d="M-0.43,-8.61 L 0.43 -8.61 0.43 8.61 -0.43 8.61 z" class="primitive"/>
            </g>
            <g transform="translate(54.4,73.69)" id="img-34dad202-67">
              <path d="M-0.43,-5.02 L 0.43 -5.02 0.43 5.02 -0.43 5.02 z" class="primitive"/>
            </g>
            <g transform="translate(55.21,72.26)" id="img-34dad202-68">
              <path d="M-0.43,-6.45 L 0.43 -6.45 0.43 6.45 -0.43 6.45 z" class="primitive"/>
            </g>
            <g transform="translate(56.02,71.54)" id="img-34dad202-69">
              <path d="M-0.43,-7.17 L 0.43 -7.17 0.43 7.17 -0.43 7.17 z" class="primitive"/>
            </g>
            <g transform="translate(56.83,75.85)" id="img-34dad202-70">
              <path d="M-0.43,-2.87 L 0.43 -2.87 0.43 2.87 -0.43 2.87 z" class="primitive"/>
            </g>
            <g transform="translate(57.64,70.11)" id="img-34dad202-71">
              <path d="M-0.43,-8.61 L 0.43 -8.61 0.43 8.61 -0.43 8.61 z" class="primitive"/>
            </g>
            <g transform="translate(58.45,70.83)" id="img-34dad202-72">
              <path d="M-0.43,-7.89 L 0.43 -7.89 0.43 7.89 -0.43 7.89 z" class="primitive"/>
            </g>
            <g transform="translate(59.26,73.69)" id="img-34dad202-73">
              <path d="M-0.43,-5.02 L 0.43 -5.02 0.43 5.02 -0.43 5.02 z" class="primitive"/>
            </g>
            <g transform="translate(60.07,72.98)" id="img-34dad202-74">
              <path d="M-0.43,-5.74 L 0.43 -5.74 0.43 5.74 -0.43 5.74 z" class="primitive"/>
            </g>
            <g transform="translate(60.89,78)" id="img-34dad202-75">
              <path d="M-0.43,-0.72 L 0.43 -0.72 0.43 0.72 -0.43 0.72 z" class="primitive"/>
            </g>
            <g transform="translate(61.7,75.13)" id="img-34dad202-76">
              <path d="M-0.43,-3.59 L 0.43 -3.59 0.43 3.59 -0.43 3.59 z" class="primitive"/>
            </g>
            <g transform="translate(62.51,75.13)" id="img-34dad202-77">
              <path d="M-0.43,-3.59 L 0.43 -3.59 0.43 3.59 -0.43 3.59 z" class="primitive"/>
            </g>
            <g transform="translate(63.32,75.13)" id="img-34dad202-78">
              <path d="M-0.43,-3.59 L 0.43 -3.59 0.43 3.59 -0.43 3.59 z" class="primitive"/>
            </g>
            <g transform="translate(64.13,74.41)" id="img-34dad202-79">
              <path d="M-0.43,-4.3 L 0.43 -4.3 0.43 4.3 -0.43 4.3 z" class="primitive"/>
            </g>
            <g transform="translate(64.94,73.69)" id="img-34dad202-80">
              <path d="M-0.43,-5.02 L 0.43 -5.02 0.43 5.02 -0.43 5.02 z" class="primitive"/>
            </g>
            <g transform="translate(65.75,78)" id="img-34dad202-81">
              <path d="M-0.43,-0.72 L 0.43 -0.72 0.43 0.72 -0.43 0.72 z" class="primitive"/>
            </g>
            <g transform="translate(66.56,75.13)" id="img-34dad202-82">
              <path d="M-0.43,-3.59 L 0.43 -3.59 0.43 3.59 -0.43 3.59 z" class="primitive"/>
            </g>
            <g transform="translate(67.37,75.13)" id="img-34dad202-83">
              <path d="M-0.43,-3.59 L 0.43 -3.59 0.43 3.59 -0.43 3.59 z" class="primitive"/>
            </g>
            <g transform="translate(68.18,76.56)" id="img-34dad202-84">
              <path d="M-0.43,-2.15 L 0.43 -2.15 0.43 2.15 -0.43 2.15 z" class="primitive"/>
            </g>
            <g transform="translate(68.99,75.85)" id="img-34dad202-85">
              <path d="M-0.43,-2.87 L 0.43 -2.87 0.43 2.87 -0.43 2.87 z" class="primitive"/>
            </g>
            <g transform="translate(69.8,75.85)" id="img-34dad202-86">
              <path d="M-0.43,-2.87 L 0.43 -2.87 0.43 2.87 -0.43 2.87 z" class="primitive"/>
            </g>
            <g transform="translate(70.61,78)" id="img-34dad202-87">
              <path d="M-0.43,-0.72 L 0.43 -0.72 0.43 0.72 -0.43 0.72 z" class="primitive"/>
            </g>
            <g transform="translate(71.42,76.56)" id="img-34dad202-88">
              <path d="M-0.43,-2.15 L 0.43 -2.15 0.43 2.15 -0.43 2.15 z" class="primitive"/>
            </g>
            <g transform="translate(72.23,77.28)" id="img-34dad202-89">
              <path d="M-0.43,-1.43 L 0.43 -1.43 0.43 1.43 -0.43 1.43 z" class="primitive"/>
            </g>
            <g transform="translate(73.04,77.28)" id="img-34dad202-90">
              <path d="M-0.43,-1.43 L 0.43 -1.43 0.43 1.43 -0.43 1.43 z" class="primitive"/>
            </g>
            <g transform="translate(73.85,77.28)" id="img-34dad202-91">
              <path d="M-0.43,-1.43 L 0.43 -1.43 0.43 1.43 -0.43 1.43 z" class="primitive"/>
            </g>
            <g transform="translate(74.66,78.72)" id="img-34dad202-92">
              <path d="M-0.43,-0 L 0.43 -0 0.43 0 -0.43 0 z" class="primitive"/>
            </g>
            <g transform="translate(75.47,77.28)" id="img-34dad202-93">
              <path d="M-0.43,-1.43 L 0.43 -1.43 0.43 1.43 -0.43 1.43 z" class="primitive"/>
            </g>
            <g transform="translate(76.28,77.28)" id="img-34dad202-94">
              <path d="M-0.43,-1.43 L 0.43 -1.43 0.43 1.43 -0.43 1.43 z" class="primitive"/>
            </g>
            <g transform="translate(77.09,77.28)" id="img-34dad202-95">
              <path d="M-0.43,-1.43 L 0.43 -1.43 0.43 1.43 -0.43 1.43 z" class="primitive"/>
            </g>
            <g transform="translate(77.9,78)" id="img-34dad202-96">
              <path d="M-0.43,-0.72 L 0.43 -0.72 0.43 0.72 -0.43 0.72 z" class="primitive"/>
            </g>
            <g transform="translate(78.71,78.72)" id="img-34dad202-97">
              <path d="M-0.43,-0 L 0.43 -0 0.43 0 -0.43 0 z" class="primitive"/>
            </g>
            <g transform="translate(79.53,78.72)" id="img-34dad202-98">
              <path d="M-0.43,-0 L 0.43 -0 0.43 0 -0.43 0 z" class="primitive"/>
            </g>
            <g transform="translate(80.34,78.72)" id="img-34dad202-99">
              <path d="M-0.43,-0 L 0.43 -0 0.43 0 -0.43 0 z" class="primitive"/>
            </g>
            <g transform="translate(81.15,78.72)" id="img-34dad202-100">
              <path d="M-0.43,-0 L 0.43 -0 0.43 0 -0.43 0 z" class="primitive"/>
            </g>
            <g transform="translate(81.96,78.72)" id="img-34dad202-101">
              <path d="M-0.43,-0 L 0.43 -0 0.43 0 -0.43 0 z" class="primitive"/>
            </g>
            <g transform="translate(82.77,78.72)" id="img-34dad202-102">
              <path d="M-0.43,-0 L 0.43 -0 0.43 0 -0.43 0 z" class="primitive"/>
            </g>
            <g transform="translate(83.58,78.72)" id="img-34dad202-103">
              <path d="M-0.43,-0 L 0.43 -0 0.43 0 -0.43 0 z" class="primitive"/>
            </g>
            <g transform="translate(84.39,78.72)" id="img-34dad202-104">
              <path d="M-0.43,-0 L 0.43 -0 0.43 0 -0.43 0 z" class="primitive"/>
            </g>
            <g transform="translate(85.2,78.72)" id="img-34dad202-105">
              <path d="M-0.43,-0 L 0.43 -0 0.43 0 -0.43 0 z" class="primitive"/>
            </g>
            <g transform="translate(86.01,78.72)" id="img-34dad202-106">
              <path d="M-0.43,-0 L 0.43 -0 0.43 0 -0.43 0 z" class="primitive"/>
            </g>
            <g transform="translate(86.82,78.72)" id="img-34dad202-107">
              <path d="M-0.43,-0 L 0.43 -0 0.43 0 -0.43 0 z" class="primitive"/>
            </g>
            <g transform="translate(87.63,78.72)" id="img-34dad202-108">
              <path d="M-0.43,-0 L 0.43 -0 0.43 0 -0.43 0 z" class="primitive"/>
            </g>
            <g transform="translate(88.44,78.72)" id="img-34dad202-109">
              <path d="M-0.43,-0 L 0.43 -0 0.43 0 -0.43 0 z" class="primitive"/>
            </g>
            <g transform="translate(89.25,78.72)" id="img-34dad202-110">
              <path d="M-0.43,-0 L 0.43 -0 0.43 0 -0.43 0 z" class="primitive"/>
            </g>
            <g transform="translate(90.06,78.72)" id="img-34dad202-111">
              <path d="M-0.43,-0 L 0.43 -0 0.43 0 -0.43 0 z" class="primitive"/>
            </g>
            <g transform="translate(90.87,78.72)" id="img-34dad202-112">
              <path d="M-0.43,-0 L 0.43 -0 0.43 0 -0.43 0 z" class="primitive"/>
            </g>
            <g transform="translate(91.68,78.72)" id="img-34dad202-113">
              <path d="M-0.43,-0 L 0.43 -0 0.43 0 -0.43 0 z" class="primitive"/>
            </g>
            <g transform="translate(92.49,78.72)" id="img-34dad202-114">
              <path d="M-0.43,-0 L 0.43 -0 0.43 0 -0.43 0 z" class="primitive"/>
            </g>
            <g transform="translate(93.3,78.72)" id="img-34dad202-115">
              <path d="M-0.43,-0 L 0.43 -0 0.43 0 -0.43 0 z" class="primitive"/>
            </g>
            <g transform="translate(94.11,78.72)" id="img-34dad202-116">
              <path d="M-0.43,-0 L 0.43 -0 0.43 0 -0.43 0 z" class="primitive"/>
            </g>
            <g transform="translate(94.92,78.72)" id="img-34dad202-117">
              <path d="M-0.43,-0 L 0.43 -0 0.43 0 -0.43 0 z" class="primitive"/>
            </g>
            <g transform="translate(95.73,78.72)" id="img-34dad202-118">
              <path d="M-0.43,-0 L 0.43 -0 0.43 0 -0.43 0 z" class="primitive"/>
            </g>
            <g transform="translate(96.54,78.72)" id="img-34dad202-119">
              <path d="M-0.43,-0 L 0.43 -0 0.43 0 -0.43 0 z" class="primitive"/>
            </g>
            <g transform="translate(97.35,78.72)" id="img-34dad202-120">
              <path d="M-0.43,-0 L 0.43 -0 0.43 0 -0.43 0 z" class="primitive"/>
            </g>
            <g transform="translate(98.17,78.72)" id="img-34dad202-121">
              <path d="M-0.43,-0 L 0.43 -0 0.43 0 -0.43 0 z" class="primitive"/>
            </g>
            <g transform="translate(98.98,78.72)" id="img-34dad202-122">
              <path d="M-0.43,-0 L 0.43 -0 0.43 0 -0.43 0 z" class="primitive"/>
            </g>
            <g transform="translate(99.79,78.72)" id="img-34dad202-123">
              <path d="M-0.43,-0 L 0.43 -0 0.43 0 -0.43 0 z" class="primitive"/>
            </g>
            <g transform="translate(100.6,78.72)" id="img-34dad202-124">
              <path d="M-0.43,-0 L 0.43 -0 0.43 0 -0.43 0 z" class="primitive"/>
            </g>
            <g transform="translate(101.41,78.72)" id="img-34dad202-125">
              <path d="M-0.43,-0 L 0.43 -0 0.43 0 -0.43 0 z" class="primitive"/>
            </g>
            <g transform="translate(102.22,78.72)" id="img-34dad202-126">
              <path d="M-0.43,-0 L 0.43 -0 0.43 0 -0.43 0 z" class="primitive"/>
            </g>
            <g transform="translate(103.03,78.72)" id="img-34dad202-127">
              <path d="M-0.43,-0 L 0.43 -0 0.43 0 -0.43 0 z" class="primitive"/>
            </g>
            <g transform="translate(103.84,78.72)" id="img-34dad202-128">
              <path d="M-0.43,-0 L 0.43 -0 0.43 0 -0.43 0 z" class="primitive"/>
            </g>
            <g transform="translate(104.65,78.72)" id="img-34dad202-129">
              <path d="M-0.43,-0 L 0.43 -0 0.43 0 -0.43 0 z" class="primitive"/>
            </g>
            <g transform="translate(105.46,78.72)" id="img-34dad202-130">
              <path d="M-0.43,-0 L 0.43 -0 0.43 0 -0.43 0 z" class="primitive"/>
            </g>
            <g transform="translate(106.27,78.72)" id="img-34dad202-131">
              <path d="M-0.43,-0 L 0.43 -0 0.43 0 -0.43 0 z" class="primitive"/>
            </g>
            <g transform="translate(107.08,78.72)" id="img-34dad202-132">
              <path d="M-0.43,-0 L 0.43 -0 0.43 0 -0.43 0 z" class="primitive"/>
            </g>
            <g transform="translate(107.89,78.72)" id="img-34dad202-133">
              <path d="M-0.43,-0 L 0.43 -0 0.43 0 -0.43 0 z" class="primitive"/>
            </g>
            <g transform="translate(108.7,78.72)" id="img-34dad202-134">
              <path d="M-0.43,-0 L 0.43 -0 0.43 0 -0.43 0 z" class="primitive"/>
            </g>
            <g transform="translate(109.51,78.72)" id="img-34dad202-135">
              <path d="M-0.43,-0 L 0.43 -0 0.43 0 -0.43 0 z" class="primitive"/>
            </g>
            <g transform="translate(110.32,78.72)" id="img-34dad202-136">
              <path d="M-0.43,-0 L 0.43 -0 0.43 0 -0.43 0 z" class="primitive"/>
            </g>
            <g transform="translate(111.13,78.72)" id="img-34dad202-137">
              <path d="M-0.43,-0 L 0.43 -0 0.43 0 -0.43 0 z" class="primitive"/>
            </g>
            <g transform="translate(111.94,78.72)" id="img-34dad202-138">
              <path d="M-0.43,-0 L 0.43 -0 0.43 0 -0.43 0 z" class="primitive"/>
            </g>
            <g transform="translate(112.75,78.72)" id="img-34dad202-139">
              <path d="M-0.43,-0 L 0.43 -0 0.43 0 -0.43 0 z" class="primitive"/>
            </g>
            <g transform="translate(113.56,78.72)" id="img-34dad202-140">
              <path d="M-0.43,-0 L 0.43 -0 0.43 0 -0.43 0 z" class="primitive"/>
            </g>
            <g transform="translate(114.37,78.72)" id="img-34dad202-141">
              <path d="M-0.43,-0 L 0.43 -0 0.43 0 -0.43 0 z" class="primitive"/>
            </g>
            <g transform="translate(115.18,78.72)" id="img-34dad202-142">
              <path d="M-0.43,-0 L 0.43 -0 0.43 0 -0.43 0 z" class="primitive"/>
            </g>
            <g transform="translate(115.99,78.72)" id="img-34dad202-143">
              <path d="M-0.43,-0 L 0.43 -0 0.43 0 -0.43 0 z" class="primitive"/>
            </g>
            <g transform="translate(116.81,78)" id="img-34dad202-144">
              <path d="M-0.43,-0.72 L 0.43 -0.72 0.43 0.72 -0.43 0.72 z" class="primitive"/>
            </g>
            <g transform="translate(117.62,78.72)" id="img-34dad202-145">
              <path d="M-0.43,-0 L 0.43 -0 0.43 0 -0.43 0 z" class="primitive"/>
            </g>
            <g transform="translate(118.43,78.72)" id="img-34dad202-146">
              <path d="M-0.43,-0 L 0.43 -0 0.43 0 -0.43 0 z" class="primitive"/>
            </g>
            <g transform="translate(119.24,78.72)" id="img-34dad202-147">
              <path d="M-0.43,-0 L 0.43 -0 0.43 0 -0.43 0 z" class="primitive"/>
            </g>
            <g transform="translate(120.05,78.72)" id="img-34dad202-148">
              <path d="M-0.43,-0 L 0.43 -0 0.43 0 -0.43 0 z" class="primitive"/>
            </g>
            <g transform="translate(120.86,78.72)" id="img-34dad202-149">
              <path d="M-0.43,-0 L 0.43 -0 0.43 0 -0.43 0 z" class="primitive"/>
            </g>
            <g transform="translate(121.67,78.72)" id="img-34dad202-150">
              <path d="M-0.43,-0 L 0.43 -0 0.43 0 -0.43 0 z" class="primitive"/>
            </g>
            <g transform="translate(122.48,78.72)" id="img-34dad202-151">
              <path d="M-0.43,-0 L 0.43 -0 0.43 0 -0.43 0 z" class="primitive"/>
            </g>
            <g transform="translate(123.29,78.72)" id="img-34dad202-152">
              <path d="M-0.43,-0 L 0.43 -0 0.43 0 -0.43 0 z" class="primitive"/>
            </g>
            <g transform="translate(124.1,78.72)" id="img-34dad202-153">
              <path d="M-0.43,-0 L 0.43 -0 0.43 0 -0.43 0 z" class="primitive"/>
            </g>
            <g transform="translate(124.91,78.72)" id="img-34dad202-154">
              <path d="M-0.43,-0 L 0.43 -0 0.43 0 -0.43 0 z" class="primitive"/>
            </g>
            <g transform="translate(125.72,78.72)" id="img-34dad202-155">
              <path d="M-0.43,-0 L 0.43 -0 0.43 0 -0.43 0 z" class="primitive"/>
            </g>
            <g transform="translate(126.53,78.72)" id="img-34dad202-156">
              <path d="M-0.43,-0 L 0.43 -0 0.43 0 -0.43 0 z" class="primitive"/>
            </g>
            <g transform="translate(127.34,78.72)" id="img-34dad202-157">
              <path d="M-0.43,-0 L 0.43 -0 0.43 0 -0.43 0 z" class="primitive"/>
            </g>
            <g transform="translate(128.15,78.72)" id="img-34dad202-158">
              <path d="M-0.43,-0 L 0.43 -0 0.43 0 -0.43 0 z" class="primitive"/>
            </g>
            <g transform="translate(128.96,78.72)" id="img-34dad202-159">
              <path d="M-0.43,-0 L 0.43 -0 0.43 0 -0.43 0 z" class="primitive"/>
            </g>
            <g transform="translate(129.77,78.72)" id="img-34dad202-160">
              <path d="M-0.43,-0 L 0.43 -0 0.43 0 -0.43 0 z" class="primitive"/>
            </g>
            <g transform="translate(130.58,78.72)" id="img-34dad202-161">
              <path d="M-0.43,-0 L 0.43 -0 0.43 0 -0.43 0 z" class="primitive"/>
            </g>
            <g transform="translate(131.39,78.72)" id="img-34dad202-162">
              <path d="M-0.43,-0 L 0.43 -0 0.43 0 -0.43 0 z" class="primitive"/>
            </g>
            <g transform="translate(132.2,78.72)" id="img-34dad202-163">
              <path d="M-0.43,-0 L 0.43 -0 0.43 0 -0.43 0 z" class="primitive"/>
            </g>
            <g transform="translate(133.01,78.72)" id="img-34dad202-164">
              <path d="M-0.43,-0 L 0.43 -0 0.43 0 -0.43 0 z" class="primitive"/>
            </g>
            <g transform="translate(133.82,78.72)" id="img-34dad202-165">
              <path d="M-0.43,-0 L 0.43 -0 0.43 0 -0.43 0 z" class="primitive"/>
            </g>
            <g transform="translate(134.63,78.72)" id="img-34dad202-166">
              <path d="M-0.43,-0 L 0.43 -0 0.43 0 -0.43 0 z" class="primitive"/>
            </g>
            <g transform="translate(135.45,78.72)" id="img-34dad202-167">
              <path d="M-0.43,-0 L 0.43 -0 0.43 0 -0.43 0 z" class="primitive"/>
            </g>
            <g transform="translate(136.26,78.72)" id="img-34dad202-168">
              <path d="M-0.43,-0 L 0.43 -0 0.43 0 -0.43 0 z" class="primitive"/>
            </g>
            <g transform="translate(137.07,78.72)" id="img-34dad202-169">
              <path d="M-0.43,-0 L 0.43 -0 0.43 0 -0.43 0 z" class="primitive"/>
            </g>
            <g transform="translate(137.88,78.72)" id="img-34dad202-170">
              <path d="M-0.43,-0 L 0.43 -0 0.43 0 -0.43 0 z" class="primitive"/>
            </g>
            <g transform="translate(138.69,78.72)" id="img-34dad202-171">
              <path d="M-0.43,-0 L 0.43 -0 0.43 0 -0.43 0 z" class="primitive"/>
            </g>
            <g transform="translate(139.5,78.72)" id="img-34dad202-172">
              <path d="M-0.43,-0 L 0.43 -0 0.43 0 -0.43 0 z" class="primitive"/>
            </g>
            <g transform="translate(140.31,78.72)" id="img-34dad202-173">
              <path d="M-0.43,-0 L 0.43 -0 0.43 0 -0.43 0 z" class="primitive"/>
            </g>
            <g transform="translate(141.12,78)" id="img-34dad202-174">
              <path d="M-0.43,-0.72 L 0.43 -0.72 0.43 0.72 -0.43 0.72 z" class="primitive"/>
            </g>
          </g>
        </g>
      </g>
    </g>
  </g>
  <g class="guide ylabels" font-size="2.82" font-family="'PT Sans Caption','Helvetica Neue','Helvetica',sans-serif" fill="#6C606B" id="img-34dad202-175">
    <g transform="translate(16.96,78.71)" id="img-34dad202-176">
      <g class="primitive">
        <text text-anchor="end" dy="0.35em">0</text>
      </g>
    </g>
    <g transform="translate(16.96,64.37)" id="img-34dad202-177">
      <g class="primitive">
        <text text-anchor="end" dy="0.35em">10</text>
      </g>
    </g>
    <g transform="translate(16.96,50.03)" id="img-34dad202-178">
      <g class="primitive">
        <text text-anchor="end" dy="0.35em">20</text>
      </g>
    </g>
    <g transform="translate(16.96,35.69)" id="img-34dad202-179">
      <g class="primitive">
        <text text-anchor="end" dy="0.35em">30</text>
      </g>
    </g>
    <g transform="translate(16.96,21.34)" id="img-34dad202-180">
      <g class="primitive">
        <text text-anchor="end" dy="0.35em">40</text>
      </g>
    </g>
    <g transform="translate(16.96,7)" id="img-34dad202-181">
      <g class="primitive">
        <text text-anchor="end" dy="0.35em">50</text>
      </g>
    </g>
  </g>
  <g font-size="3.88" font-family="'PT Sans','Helvetica Neue','Helvetica',sans-serif" fill="#564A55" stroke="#000000" stroke-opacity="0.000" id="img-34dad202-182">
    <g transform="translate(8.81,40.86)" id="img-34dad202-183">
      <g class="primitive">
        <text text-anchor="middle" dy="0.35em" transform="rotate(-90,0, 2)">Número de trocas internas</text>
      </g>
    </g>
  </g>
</g>
<defs>
  <clipPath id="img-34dad202-4">
    <path d="M17.96,5 L 145 5 145 80.72 17.96 80.72" />
  </clipPath>
</defs>
</svg>
