<?xml version="1.0" encoding="UTF-8"?>
<svg xmlns="http://www.w3.org/2000/svg"
     xmlns:xlink="http://www.w3.org/1999/xlink"
     xmlns:gadfly="http://www.gadflyjl.org/ns"
     version="1.2"
     width="150mm" height="100mm" viewBox="0 0 150 100"
     stroke="none"
     fill="#000000"
     stroke-width="0.3"
     font-size="3.88"
>
<defs>
  <marker id="arrow" markerWidth="15" markerHeight="7" refX="5" refY="3.5" orient="auto" markerUnits="strokeWidth">
    <path d="M0,0 L15,3.5 L0,7 z" stroke="context-stroke" fill="context-stroke"/>
  </marker>
</defs>
<g class="plotroot xscalable yscalable" id="img-4c088295-1">
  <g font-size="3.88" font-family="'PT Sans','Helvetica Neue','Helvetica',sans-serif" fill="#564A55" stroke="#000000" stroke-opacity="0.000" id="img-4c088295-2">
    <g transform="translate(82.32,88.39)">
      <g class="primitive">
        <text text-anchor="middle" dy="0.6em">Tempo</text>
      </g>
    </g>
  </g>
  <g class="guide xlabels" font-size="2.82" font-family="'PT Sans Caption','Helvetica Neue','Helvetica',sans-serif" fill="#6C606B" id="img-4c088295-3">
    <g transform="translate(21.63,81.72)">
      <g class="primitive">
        <text text-anchor="middle" dy="0.6em">0</text>
      </g>
    </g>
    <g transform="translate(45.91,81.72)">
      <g class="primitive">
        <text text-anchor="middle" dy="0.6em">100</text>
      </g>
    </g>
    <g transform="translate(70.18,81.72)">
      <g class="primitive">
        <text text-anchor="middle" dy="0.6em">200</text>
      </g>
    </g>
    <g transform="translate(94.45,81.72)">
      <g class="primitive">
        <text text-anchor="middle" dy="0.6em">300</text>
      </g>
    </g>
    <g transform="translate(118.73,81.72)">
      <g class="primitive">
        <text text-anchor="middle" dy="0.6em">400</text>
      </g>
    </g>
    <g transform="translate(143,81.72)">
      <g class="primitive">
        <text text-anchor="middle" dy="0.6em">500</text>
      </g>
    </g>
  </g>
  <g clip-path="url(#img-4c088295-4)">
    <g id="img-4c088295-5">
      <g pointer-events="visible" fill="#000000" fill-opacity="0.000" stroke="#000000" stroke-opacity="0.000" class="guide background" id="img-4c088295-6">
        <g transform="translate(82.32,42.86)" id="img-4c088295-7">
          <path d="M-62.68,-37.86 L 62.68 -37.86 62.68 37.86 -62.68 37.86 z" class="primitive"/>
        </g>
      </g>
      <g class="guide ygridlines xfixed" stroke-dasharray="0.5,0.5" stroke-width="0.2" stroke="#D0D0E0" id="img-4c088295-8">
        <g transform="translate(82.32,78.71)" id="img-4c088295-9">
          <path fill="none" d="M-62.68,0 L 62.68 0" class="primitive"/>
        </g>
        <g transform="translate(82.32,42.86)" id="img-4c088295-10">
          <path fill="none" d="M-62.68,0 L 62.68 0" class="primitive"/>
        </g>
        <g transform="translate(82.32,7)" id="img-4c088295-11">
          <path fill="none" d="M-62.68,0 L 62.68 0" class="primitive"/>
        </g>
      </g>
      <g class="guide xgridlines yfixed" stroke-dasharray="0.5,0.5" stroke-width="0.2" stroke="#D0D0E0" id="img-4c088295-12">
        <g transform="translate(21.63,42.86)" id="img-4c088295-13">
          <path fill="none" d="M0,-37.86 L 0 37.86" class="primitive"/>
        </g>
        <g transform="translate(45.91,42.86)" id="img-4c088295-14">
          <path fill="none" d="M0,-37.86 L 0 37.86" class="primitive"/>
        </g>
        <g transform="translate(70.18,42.86)" id="img-4c088295-15">
          <path fill="none" d="M0,-37.86 L 0 37.86" class="primitive"/>
        </g>
        <g transform="translate(94.45,42.86)" id="img-4c088295-16">
          <path fill="none" d="M0,-37.86 L 0 37.86" class="primitive"/>
        </g>
        <g transform="translate(118.73,42.86)" id="img-4c088295-17">
          <path fill="none" d="M0,-37.86 L 0 37.86" class="primitive"/>
        </g>
        <g transform="translate(143,42.86)" id="img-4c088295-18">
          <path fill="none" d="M0,-37.86 L 0 37.86" class="primitive"/>
        </g>
      </g>
      <g class="plotpanel" id="img-4c088295-19">
        <metadata>
          <boundingbox value="19.63166666666669mm 5.0mm 125.36833333333334mm 75.715mm"/>
          <unitbox value="-8.239381497095618 102.78881684445373 516.4787629941912 -105.5776336889075"/>
        </metadata>
        <g shape-rendering="crispEdges" stroke-width="0.3" id="img-4c088295-20">
          <g stroke="#000000" stroke-opacity="0.000" class="geometry" fill="#00BFFF" id="img-4c088295-21">
            <g transform="translate(22.04,53.97)" id="img-4c088295-22">
              <path d="M-0.43,-24.74 L 0.43 -24.74 0.43 24.74 -0.43 24.74 z" class="primitive"/>
            </g>
            <g transform="translate(22.84,58.63)" id="img-4c088295-23">
              <path d="M-0.43,-20.08 L 0.43 -20.08 0.43 20.08 -0.43 20.08 z" class="primitive"/>
            </g>
            <g transform="translate(23.65,55.05)" id="img-4c088295-24">
              <path d="M-0.43,-23.67 L 0.43 -23.67 0.43 23.67 -0.43 23.67 z" class="primitive"/>
            </g>
            <g transform="translate(24.46,45.73)" id="img-4c088295-25">
              <path d="M-0.43,-32.99 L 0.43 -32.99 0.43 32.99 -0.43 32.99 z" class="primitive"/>
            </g>
            <g transform="translate(25.27,52.54)" id="img-4c088295-26">
              <path d="M-0.43,-26.18 L 0.43 -26.18 0.43 26.18 -0.43 26.18 z" class="primitive"/>
            </g>
            <g transform="translate(26.07,50.75)" id="img-4c088295-27">
              <path d="M-0.43,-27.97 L 0.43 -27.97 0.43 27.97 -0.43 27.97 z" class="primitive"/>
            </g>
            <g transform="translate(26.88,46.44)" id="img-4c088295-28">
              <path d="M-0.43,-32.27 L 0.43 -32.27 0.43 32.27 -0.43 32.27 z" class="primitive"/>
            </g>
            <g transform="translate(27.69,55.05)" id="img-4c088295-29">
              <path d="M-0.43,-23.67 L 0.43 -23.67 0.43 23.67 -0.43 23.67 z" class="primitive"/>
            </g>
            <g transform="translate(28.5,56.48)" id="img-4c088295-30">
              <path d="M-0.43,-22.23 L 0.43 -22.23 0.43 22.23 -0.43 22.23 z" class="primitive"/>
            </g>
            <g transform="translate(29.3,48.95)" id="img-4c088295-31">
              <path d="M-0.43,-29.76 L 0.43 -29.76 0.43 29.76 -0.43 29.76 z" class="primitive"/>
            </g>
            <g transform="translate(30.11,56.48)" id="img-4c088295-32">
              <path d="M-0.43,-22.23 L 0.43 -22.23 0.43 22.23 -0.43 22.23 z" class="primitive"/>
            </g>
            <g transform="translate(30.92,58.99)" id="img-4c088295-33">
              <path d="M-0.43,-19.72 L 0.43 -19.72 0.43 19.72 -0.43 19.72 z" class="primitive"/>
            </g>
            <g transform="translate(31.73,56.12)" id="img-4c088295-34">
              <path d="M-0.43,-22.59 L 0.43 -22.59 0.43 22.59 -0.43 22.59 z" class="primitive"/>
            </g>
            <g transform="translate(32.53,62.94)" id="img-4c088295-35">
              <path d="M-0.43,-15.78 L 0.43 -15.78 0.43 15.78 -0.43 15.78 z" class="primitive"/>
            </g>
            <g transform="translate(33.34,58.28)" id="img-4c088295-36">
              <path d="M-0.43,-20.44 L 0.43 -20.44 0.43 20.44 -0.43 20.44 z" class="primitive"/>
            </g>
            <g transform="translate(34.15,58.99)" id="img-4c088295-37">
              <path d="M-0.43,-19.72 L 0.43 -19.72 0.43 19.72 -0.43 19.72 z" class="primitive"/>
            </g>
            <g transform="translate(34.96,65.81)" id="img-4c088295-38">
              <path d="M-0.43,-12.91 L 0.43 -12.91 0.43 12.91 -0.43 12.91 z" class="primitive"/>
            </g>
            <g transform="translate(35.76,66.16)" id="img-4c088295-39">
              <path d="M-0.43,-12.55 L 0.43 -12.55 0.43 12.55 -0.43 12.55 z" class="primitive"/>
            </g>
            <g transform="translate(36.57,64.01)" id="img-4c088295-40">
              <path d="M-0.43,-14.7 L 0.43 -14.7 0.43 14.7 -0.43 14.7 z" class="primitive"/>
            </g>
            <g transform="translate(37.38,67.6)" id="img-4c088295-41">
              <path d="M-0.43,-11.12 L 0.43 -11.12 0.43 11.12 -0.43 11.12 z" class="primitive"/>
            </g>
            <g transform="translate(38.19,66.88)" id="img-4c088295-42">
              <path d="M-0.43,-11.83 L 0.43 -11.83 0.43 11.83 -0.43 11.83 z" class="primitive"/>
            </g>
            <g transform="translate(38.99,64.37)" id="img-4c088295-43">
              <path d="M-0.43,-14.34 L 0.43 -14.34 0.43 14.34 -0.43 14.34 z" class="primitive"/>
            </g>
            <g transform="translate(39.8,70.83)" id="img-4c088295-44">
              <path d="M-0.43,-7.89 L 0.43 -7.89 0.43 7.89 -0.43 7.89 z" class="primitive"/>
            </g>
            <g transform="translate(40.61,70.83)" id="img-4c088295-45">
              <path d="M-0.43,-7.89 L 0.43 -7.89 0.43 7.89 -0.43 7.89 z" class="primitive"/>
            </g>
            <g transform="translate(41.42,71.18)" id="img-4c088295-46">
              <path d="M-0.43,-7.53 L 0.43 -7.53 0.43 7.53 -0.43 7.53 z" class="primitive"/>
            </g>
            <g transform="translate(42.22,76.2)" id="img-4c088295-47">
              <path d="M-0.43,-2.51 L 0.43 -2.51 0.43 2.51 -0.43 2.51 z" class="primitive"/>
            </g>
            <g transform="translate(43.03,75.85)" id="img-4c088295-48">
              <path d="M-0.43,-2.87 L 0.43 -2.87 0.43 2.87 -0.43 2.87 z" class="primitive"/>
            </g>
            <g transform="translate(43.84,75.13)" id="img-4c088295-49">
              <path d="M-0.43,-3.59 L 0.43 -3.59 0.43 3.59 -0.43 3.59 z" class="primitive"/>
            </g>
            <g transform="translate(44.65,76.2)" id="img-4c088295-50">
              <path d="M-0.43,-2.51 L 0.43 -2.51 0.43 2.51 -0.43 2.51 z" class="primitive"/>
            </g>
            <g transform="translate(45.45,75.85)" id="img-4c088295-51">
              <path d="M-0.43,-2.87 L 0.43 -2.87 0.43 2.87 -0.43 2.87 z" class="primitive"/>
            </g>
            <g transform="translate(46.26,75.13)" id="img-4c088295-52">
              <path d="M-0.43,-3.59 L 0.43 -3.59 0.43 3.59 -0.43 3.59 z" class="primitive"/>
            </g>
            <g transform="translate(47.07,76.2)" id="img-4c088295-53">
              <path d="M-0.43,-2.51 L 0.43 -2.51 0.43 2.51 -0.43 2.51 z" class="primitive"/>
            </g>
            <g transform="translate(47.88,75.85)" id="img-4c088295-54">
              <path d="M-0.43,-2.87 L 0.43 -2.87 0.43 2.87 -0.43 2.87 z" class="primitive"/>
            </g>
            <g transform="translate(48.68,75.13)" id="img-4c088295-55">
              <path d="M-0.43,-3.59 L 0.43 -3.59 0.43 3.59 -0.43 3.59 z" class="primitive"/>
            </g>
            <g transform="translate(49.49,76.2)" id="img-4c088295-56">
              <path d="M-0.43,-2.51 L 0.43 -2.51 0.43 2.51 -0.43 2.51 z" class="primitive"/>
            </g>
            <g transform="translate(50.3,75.85)" id="img-4c088295-57">
              <path d="M-0.43,-2.87 L 0.43 -2.87 0.43 2.87 -0.43 2.87 z" class="primitive"/>
            </g>
            <g transform="translate(51.11,75.13)" id="img-4c088295-58">
              <path d="M-0.43,-3.59 L 0.43 -3.59 0.43 3.59 -0.43 3.59 z" class="primitive"/>
            </g>
            <g transform="translate(51.91,76.2)" id="img-4c088295-59">
              <path d="M-0.43,-2.51 L 0.43 -2.51 0.43 2.51 -0.43 2.51 z" class="primitive"/>
            </g>
            <g transform="translate(52.72,75.85)" id="img-4c088295-60">
              <path d="M-0.43,-2.87 L 0.43 -2.87 0.43 2.87 -0.43 2.87 z" class="primitive"/>
            </g>
            <g transform="translate(53.53,75.13)" id="img-4c088295-61">
              <path d="M-0.43,-3.59 L 0.43 -3.59 0.43 3.59 -0.43 3.59 z" class="primitive"/>
            </g>
            <g transform="translate(54.34,76.2)" id="img-4c088295-62">
              <path d="M-0.43,-2.51 L 0.43 -2.51 0.43 2.51 -0.43 2.51 z" class="primitive"/>
            </g>
            <g transform="translate(55.14,75.85)" id="img-4c088295-63">
              <path d="M-0.43,-2.87 L 0.43 -2.87 0.43 2.87 -0.43 2.87 z" class="primitive"/>
            </g>
            <g transform="translate(55.95,75.13)" id="img-4c088295-64">
              <path d="M-0.43,-3.59 L 0.43 -3.59 0.43 3.59 -0.43 3.59 z" class="primitive"/>
            </g>
            <g transform="translate(56.76,76.2)" id="img-4c088295-65">
              <path d="M-0.43,-2.51 L 0.43 -2.51 0.43 2.51 -0.43 2.51 z" class="primitive"/>
            </g>
            <g transform="translate(57.57,75.85)" id="img-4c088295-66">
              <path d="M-0.43,-2.87 L 0.43 -2.87 0.43 2.87 -0.43 2.87 z" class="primitive"/>
            </g>
            <g transform="translate(58.37,75.13)" id="img-4c088295-67">
              <path d="M-0.43,-3.59 L 0.43 -3.59 0.43 3.59 -0.43 3.59 z" class="primitive"/>
            </g>
            <g transform="translate(59.18,76.2)" id="img-4c088295-68">
              <path d="M-0.43,-2.51 L 0.43 -2.51 0.43 2.51 -0.43 2.51 z" class="primitive"/>
            </g>
            <g transform="translate(59.99,75.85)" id="img-4c088295-69">
              <path d="M-0.43,-2.87 L 0.43 -2.87 0.43 2.87 -0.43 2.87 z" class="primitive"/>
            </g>
            <g transform="translate(60.8,75.13)" id="img-4c088295-70">
              <path d="M-0.43,-3.59 L 0.43 -3.59 0.43 3.59 -0.43 3.59 z" class="primitive"/>
            </g>
            <g transform="translate(61.6,76.2)" id="img-4c088295-71">
              <path d="M-0.43,-2.51 L 0.43 -2.51 0.43 2.51 -0.43 2.51 z" class="primitive"/>
            </g>
            <g transform="translate(62.41,75.85)" id="img-4c088295-72">
              <path d="M-0.43,-2.87 L 0.43 -2.87 0.43 2.87 -0.43 2.87 z" class="primitive"/>
            </g>
            <g transform="translate(63.22,76.2)" id="img-4c088295-73">
              <path d="M-0.43,-2.51 L 0.43 -2.51 0.43 2.51 -0.43 2.51 z" class="primitive"/>
            </g>
            <g transform="translate(64.03,75.13)" id="img-4c088295-74">
              <path d="M-0.43,-3.59 L 0.43 -3.59 0.43 3.59 -0.43 3.59 z" class="primitive"/>
            </g>
            <g transform="translate(64.83,75.49)" id="img-4c088295-75">
              <path d="M-0.43,-3.23 L 0.43 -3.23 0.43 3.23 -0.43 3.23 z" class="primitive"/>
            </g>
            <g transform="translate(65.64,76.2)" id="img-4c088295-76">
              <path d="M-0.43,-2.51 L 0.43 -2.51 0.43 2.51 -0.43 2.51 z" class="primitive"/>
            </g>
            <g transform="translate(66.45,75.13)" id="img-4c088295-77">
              <path d="M-0.43,-3.59 L 0.43 -3.59 0.43 3.59 -0.43 3.59 z" class="primitive"/>
            </g>
            <g transform="translate(67.26,75.85)" id="img-4c088295-78">
              <path d="M-0.43,-2.87 L 0.43 -2.87 0.43 2.87 -0.43 2.87 z" class="primitive"/>
            </g>
            <g transform="translate(68.06,76.2)" id="img-4c088295-79">
              <path d="M-0.43,-2.51 L 0.43 -2.51 0.43 2.51 -0.43 2.51 z" class="primitive"/>
            </g>
            <g transform="translate(68.87,75.13)" id="img-4c088295-80">
              <path d="M-0.43,-3.59 L 0.43 -3.59 0.43 3.59 -0.43 3.59 z" class="primitive"/>
            </g>
            <g transform="translate(69.68,75.85)" id="img-4c088295-81">
              <path d="M-0.43,-2.87 L 0.43 -2.87 0.43 2.87 -0.43 2.87 z" class="primitive"/>
            </g>
            <g transform="translate(70.49,76.2)" id="img-4c088295-82">
              <path d="M-0.43,-2.51 L 0.43 -2.51 0.43 2.51 -0.43 2.51 z" class="primitive"/>
            </g>
            <g transform="translate(71.29,75.13)" id="img-4c088295-83">
              <path d="M-0.43,-3.59 L 0.43 -3.59 0.43 3.59 -0.43 3.59 z" class="primitive"/>
            </g>
            <g transform="translate(72.1,75.85)" id="img-4c088295-84">
              <path d="M-0.43,-2.87 L 0.43 -2.87 0.43 2.87 -0.43 2.87 z" class="primitive"/>
            </g>
            <g transform="translate(72.91,76.2)" id="img-4c088295-85">
              <path d="M-0.43,-2.51 L 0.43 -2.51 0.43 2.51 -0.43 2.51 z" class="primitive"/>
            </g>
            <g transform="translate(73.72,75.13)" id="img-4c088295-86">
              <path d="M-0.43,-3.59 L 0.43 -3.59 0.43 3.59 -0.43 3.59 z" class="primitive"/>
            </g>
            <g transform="translate(74.52,75.85)" id="img-4c088295-87">
              <path d="M-0.43,-2.87 L 0.43 -2.87 0.43 2.87 -0.43 2.87 z" class="primitive"/>
            </g>
            <g transform="translate(75.33,76.2)" id="img-4c088295-88">
              <path d="M-0.43,-2.51 L 0.43 -2.51 0.43 2.51 -0.43 2.51 z" class="primitive"/>
            </g>
            <g transform="translate(76.14,75.13)" id="img-4c088295-89">
              <path d="M-0.43,-3.59 L 0.43 -3.59 0.43 3.59 -0.43 3.59 z" class="primitive"/>
            </g>
            <g transform="translate(76.95,75.85)" id="img-4c088295-90">
              <path d="M-0.43,-2.87 L 0.43 -2.87 0.43 2.87 -0.43 2.87 z" class="primitive"/>
            </g>
            <g transform="translate(77.75,76.2)" id="img-4c088295-91">
              <path d="M-0.43,-2.51 L 0.43 -2.51 0.43 2.51 -0.43 2.51 z" class="primitive"/>
            </g>
            <g transform="translate(78.56,75.13)" id="img-4c088295-92">
              <path d="M-0.43,-3.59 L 0.43 -3.59 0.43 3.59 -0.43 3.59 z" class="primitive"/>
            </g>
            <g transform="translate(79.37,75.85)" id="img-4c088295-93">
              <path d="M-0.43,-2.87 L 0.43 -2.87 0.43 2.87 -0.43 2.87 z" class="primitive"/>
            </g>
            <g transform="translate(80.18,76.2)" id="img-4c088295-94">
              <path d="M-0.43,-2.51 L 0.43 -2.51 0.43 2.51 -0.43 2.51 z" class="primitive"/>
            </g>
            <g transform="translate(80.98,75.13)" id="img-4c088295-95">
              <path d="M-0.43,-3.59 L 0.43 -3.59 0.43 3.59 -0.43 3.59 z" class="primitive"/>
            </g>
            <g transform="translate(81.79,75.85)" id="img-4c088295-96">
              <path d="M-0.43,-2.87 L 0.43 -2.87 0.43 2.87 -0.43 2.87 z" class="primitive"/>
            </g>
            <g transform="translate(82.6,76.2)" id="img-4c088295-97">
              <path d="M-0.43,-2.51 L 0.43 -2.51 0.43 2.51 -0.43 2.51 z" class="primitive"/>
            </g>
            <g transform="translate(83.41,75.13)" id="img-4c088295-98">
              <path d="M-0.43,-3.59 L 0.43 -3.59 0.43 3.59 -0.43 3.59 z" class="primitive"/>
            </g>
            <g transform="translate(84.21,75.85)" id="img-4c088295-99">
              <path d="M-0.43,-2.87 L 0.43 -2.87 0.43 2.87 -0.43 2.87 z" class="primitive"/>
            </g>
            <g transform="translate(85.02,76.2)" id="img-4c088295-100">
              <path d="M-0.43,-2.51 L 0.43 -2.51 0.43 2.51 -0.43 2.51 z" class="primitive"/>
            </g>
            <g transform="translate(85.83,75.13)" id="img-4c088295-101">
              <path d="M-0.43,-3.59 L 0.43 -3.59 0.43 3.59 -0.43 3.59 z" class="primitive"/>
            </g>
            <g transform="translate(86.64,75.85)" id="img-4c088295-102">
              <path d="M-0.43,-2.87 L 0.43 -2.87 0.43 2.87 -0.43 2.87 z" class="primitive"/>
            </g>
            <g transform="translate(87.44,76.2)" id="img-4c088295-103">
              <path d="M-0.43,-2.51 L 0.43 -2.51 0.43 2.51 -0.43 2.51 z" class="primitive"/>
            </g>
            <g transform="translate(88.25,75.13)" id="img-4c088295-104">
              <path d="M-0.43,-3.59 L 0.43 -3.59 0.43 3.59 -0.43 3.59 z" class="primitive"/>
            </g>
            <g transform="translate(89.06,75.85)" id="img-4c088295-105">
              <path d="M-0.43,-2.87 L 0.43 -2.87 0.43 2.87 -0.43 2.87 z" class="primitive"/>
            </g>
            <g transform="translate(89.87,76.2)" id="img-4c088295-106">
              <path d="M-0.43,-2.51 L 0.43 -2.51 0.43 2.51 -0.43 2.51 z" class="primitive"/>
            </g>
            <g transform="translate(90.67,75.13)" id="img-4c088295-107">
              <path d="M-0.43,-3.59 L 0.43 -3.59 0.43 3.59 -0.43 3.59 z" class="primitive"/>
            </g>
            <g transform="translate(91.48,75.85)" id="img-4c088295-108">
              <path d="M-0.43,-2.87 L 0.43 -2.87 0.43 2.87 -0.43 2.87 z" class="primitive"/>
            </g>
            <g transform="translate(92.29,76.2)" id="img-4c088295-109">
              <path d="M-0.43,-2.51 L 0.43 -2.51 0.43 2.51 -0.43 2.51 z" class="primitive"/>
            </g>
            <g transform="translate(93.1,75.13)" id="img-4c088295-110">
              <path d="M-0.43,-3.59 L 0.43 -3.59 0.43 3.59 -0.43 3.59 z" class="primitive"/>
            </g>
            <g transform="translate(93.9,75.85)" id="img-4c088295-111">
              <path d="M-0.43,-2.87 L 0.43 -2.87 0.43 2.87 -0.43 2.87 z" class="primitive"/>
            </g>
            <g transform="translate(94.71,76.2)" id="img-4c088295-112">
              <path d="M-0.43,-2.51 L 0.43 -2.51 0.43 2.51 -0.43 2.51 z" class="primitive"/>
            </g>
            <g transform="translate(95.52,75.13)" id="img-4c088295-113">
              <path d="M-0.43,-3.59 L 0.43 -3.59 0.43 3.59 -0.43 3.59 z" class="primitive"/>
            </g>
            <g transform="translate(96.33,75.85)" id="img-4c088295-114">
              <path d="M-0.43,-2.87 L 0.43 -2.87 0.43 2.87 -0.43 2.87 z" class="primitive"/>
            </g>
            <g transform="translate(97.13,76.2)" id="img-4c088295-115">
              <path d="M-0.43,-2.51 L 0.43 -2.51 0.43 2.51 -0.43 2.51 z" class="primitive"/>
            </g>
            <g transform="translate(97.94,75.13)" id="img-4c088295-116">
              <path d="M-0.43,-3.59 L 0.43 -3.59 0.43 3.59 -0.43 3.59 z" class="primitive"/>
            </g>
            <g transform="translate(98.75,75.49)" id="img-4c088295-117">
              <path d="M-0.43,-3.23 L 0.43 -3.23 0.43 3.23 -0.43 3.23 z" class="primitive"/>
            </g>
            <g transform="translate(99.56,76.2)" id="img-4c088295-118">
              <path d="M-0.43,-2.51 L 0.43 -2.51 0.43 2.51 -0.43 2.51 z" class="primitive"/>
            </g>
            <g transform="translate(100.36,75.13)" id="img-4c088295-119">
              <path d="M-0.43,-3.59 L 0.43 -3.59 0.43 3.59 -0.43 3.59 z" class="primitive"/>
            </g>
            <g transform="translate(101.17,75.85)" id="img-4c088295-120">
              <path d="M-0.43,-2.87 L 0.43 -2.87 0.43 2.87 -0.43 2.87 z" class="primitive"/>
            </g>
            <g transform="translate(101.98,76.2)" id="img-4c088295-121">
              <path d="M-0.43,-2.51 L 0.43 -2.51 0.43 2.51 -0.43 2.51 z" class="primitive"/>
            </g>
            <g transform="translate(102.79,75.85)" id="img-4c088295-122">
              <path d="M-0.43,-2.87 L 0.43 -2.87 0.43 2.87 -0.43 2.87 z" class="primitive"/>
            </g>
            <g transform="translate(103.59,74.77)" id="img-4c088295-123">
              <path d="M-0.43,-3.94 L 0.43 -3.94 0.43 3.94 -0.43 3.94 z" class="primitive"/>
            </g>
            <g transform="translate(104.4,76.2)" id="img-4c088295-124">
              <path d="M-0.43,-2.51 L 0.43 -2.51 0.43 2.51 -0.43 2.51 z" class="primitive"/>
            </g>
            <g transform="translate(105.21,75.85)" id="img-4c088295-125">
              <path d="M-0.43,-2.87 L 0.43 -2.87 0.43 2.87 -0.43 2.87 z" class="primitive"/>
            </g>
            <g transform="translate(106.02,75.13)" id="img-4c088295-126">
              <path d="M-0.43,-3.59 L 0.43 -3.59 0.43 3.59 -0.43 3.59 z" class="primitive"/>
            </g>
            <g transform="translate(106.82,76.2)" id="img-4c088295-127">
              <path d="M-0.43,-2.51 L 0.43 -2.51 0.43 2.51 -0.43 2.51 z" class="primitive"/>
            </g>
            <g transform="translate(107.63,75.85)" id="img-4c088295-128">
              <path d="M-0.43,-2.87 L 0.43 -2.87 0.43 2.87 -0.43 2.87 z" class="primitive"/>
            </g>
            <g transform="translate(108.44,75.13)" id="img-4c088295-129">
              <path d="M-0.43,-3.59 L 0.43 -3.59 0.43 3.59 -0.43 3.59 z" class="primitive"/>
            </g>
            <g transform="translate(109.25,76.2)" id="img-4c088295-130">
              <path d="M-0.43,-2.51 L 0.43 -2.51 0.43 2.51 -0.43 2.51 z" class="primitive"/>
            </g>
            <g transform="translate(110.05,75.85)" id="img-4c088295-131">
              <path d="M-0.43,-2.87 L 0.43 -2.87 0.43 2.87 -0.43 2.87 z" class="primitive"/>
            </g>
            <g transform="translate(110.86,75.13)" id="img-4c088295-132">
              <path d="M-0.43,-3.59 L 0.43 -3.59 0.43 3.59 -0.43 3.59 z" class="primitive"/>
            </g>
            <g transform="translate(111.67,76.2)" id="img-4c088295-133">
              <path d="M-0.43,-2.51 L 0.43 -2.51 0.43 2.51 -0.43 2.51 z" class="primitive"/>
            </g>
            <g transform="translate(112.48,75.85)" id="img-4c088295-134">
              <path d="M-0.43,-2.87 L 0.43 -2.87 0.43 2.87 -0.43 2.87 z" class="primitive"/>
            </g>
            <g transform="translate(113.28,75.13)" id="img-4c088295-135">
              <path d="M-0.43,-3.59 L 0.43 -3.59 0.43 3.59 -0.43 3.59 z" class="primitive"/>
            </g>
            <g transform="translate(114.09,76.2)" id="img-4c088295-136">
              <path d="M-0.43,-2.51 L 0.43 -2.51 0.43 2.51 -0.43 2.51 z" class="primitive"/>
            </g>
            <g transform="translate(114.9,75.85)" id="img-4c088295-137">
              <path d="M-0.43,-2.87 L 0.43 -2.87 0.43 2.87 -0.43 2.87 z" class="primitive"/>
            </g>
            <g transform="translate(115.71,75.13)" id="img-4c088295-138">
              <path d="M-0.43,-3.59 L 0.43 -3.59 0.43 3.59 -0.43 3.59 z" class="primitive"/>
            </g>
            <g transform="translate(116.51,76.2)" id="img-4c088295-139">
              <path d="M-0.43,-2.51 L 0.43 -2.51 0.43 2.51 -0.43 2.51 z" class="primitive"/>
            </g>
            <g transform="translate(117.32,75.85)" id="img-4c088295-140">
              <path d="M-0.43,-2.87 L 0.43 -2.87 0.43 2.87 -0.43 2.87 z" class="primitive"/>
            </g>
            <g transform="translate(118.13,75.13)" id="img-4c088295-141">
              <path d="M-0.43,-3.59 L 0.43 -3.59 0.43 3.59 -0.43 3.59 z" class="primitive"/>
            </g>
            <g transform="translate(118.94,76.2)" id="img-4c088295-142">
              <path d="M-0.43,-2.51 L 0.43 -2.51 0.43 2.51 -0.43 2.51 z" class="primitive"/>
            </g>
            <g transform="translate(119.74,75.85)" id="img-4c088295-143">
              <path d="M-0.43,-2.87 L 0.43 -2.87 0.43 2.87 -0.43 2.87 z" class="primitive"/>
            </g>
            <g transform="translate(120.55,75.13)" id="img-4c088295-144">
              <path d="M-0.43,-3.59 L 0.43 -3.59 0.43 3.59 -0.43 3.59 z" class="primitive"/>
            </g>
            <g transform="translate(121.36,76.2)" id="img-4c088295-145">
              <path d="M-0.43,-2.51 L 0.43 -2.51 0.43 2.51 -0.43 2.51 z" class="primitive"/>
            </g>
            <g transform="translate(122.17,75.85)" id="img-4c088295-146">
              <path d="M-0.43,-2.87 L 0.43 -2.87 0.43 2.87 -0.43 2.87 z" class="primitive"/>
            </g>
            <g transform="translate(122.97,75.13)" id="img-4c088295-147">
              <path d="M-0.43,-3.59 L 0.43 -3.59 0.43 3.59 -0.43 3.59 z" class="primitive"/>
            </g>
            <g transform="translate(123.78,76.2)" id="img-4c088295-148">
              <path d="M-0.43,-2.51 L 0.43 -2.51 0.43 2.51 -0.43 2.51 z" class="primitive"/>
            </g>
            <g transform="translate(124.59,75.85)" id="img-4c088295-149">
              <path d="M-0.43,-2.87 L 0.43 -2.87 0.43 2.87 -0.43 2.87 z" class="primitive"/>
            </g>
            <g transform="translate(125.4,75.13)" id="img-4c088295-150">
              <path d="M-0.43,-3.59 L 0.43 -3.59 0.43 3.59 -0.43 3.59 z" class="primitive"/>
            </g>
            <g transform="translate(126.2,76.2)" id="img-4c088295-151">
              <path d="M-0.43,-2.51 L 0.43 -2.51 0.43 2.51 -0.43 2.51 z" class="primitive"/>
            </g>
            <g transform="translate(127.01,75.85)" id="img-4c088295-152">
              <path d="M-0.43,-2.87 L 0.43 -2.87 0.43 2.87 -0.43 2.87 z" class="primitive"/>
            </g>
            <g transform="translate(127.82,75.13)" id="img-4c088295-153">
              <path d="M-0.43,-3.59 L 0.43 -3.59 0.43 3.59 -0.43 3.59 z" class="primitive"/>
            </g>
            <g transform="translate(128.63,76.2)" id="img-4c088295-154">
              <path d="M-0.43,-2.51 L 0.43 -2.51 0.43 2.51 -0.43 2.51 z" class="primitive"/>
            </g>
            <g transform="translate(129.43,75.85)" id="img-4c088295-155">
              <path d="M-0.43,-2.87 L 0.43 -2.87 0.43 2.87 -0.43 2.87 z" class="primitive"/>
            </g>
            <g transform="translate(130.24,75.13)" id="img-4c088295-156">
              <path d="M-0.43,-3.59 L 0.43 -3.59 0.43 3.59 -0.43 3.59 z" class="primitive"/>
            </g>
            <g transform="translate(131.05,76.2)" id="img-4c088295-157">
              <path d="M-0.43,-2.51 L 0.43 -2.51 0.43 2.51 -0.43 2.51 z" class="primitive"/>
            </g>
            <g transform="translate(131.86,75.85)" id="img-4c088295-158">
              <path d="M-0.43,-2.87 L 0.43 -2.87 0.43 2.87 -0.43 2.87 z" class="primitive"/>
            </g>
            <g transform="translate(132.66,74.77)" id="img-4c088295-159">
              <path d="M-0.43,-3.94 L 0.43 -3.94 0.43 3.94 -0.43 3.94 z" class="primitive"/>
            </g>
            <g transform="translate(133.47,76.2)" id="img-4c088295-160">
              <path d="M-0.43,-2.51 L 0.43 -2.51 0.43 2.51 -0.43 2.51 z" class="primitive"/>
            </g>
            <g transform="translate(134.28,75.85)" id="img-4c088295-161">
              <path d="M-0.43,-2.87 L 0.43 -2.87 0.43 2.87 -0.43 2.87 z" class="primitive"/>
            </g>
            <g transform="translate(135.09,75.13)" id="img-4c088295-162">
              <path d="M-0.43,-3.59 L 0.43 -3.59 0.43 3.59 -0.43 3.59 z" class="primitive"/>
            </g>
            <g transform="translate(135.89,76.2)" id="img-4c088295-163">
              <path d="M-0.43,-2.51 L 0.43 -2.51 0.43 2.51 -0.43 2.51 z" class="primitive"/>
            </g>
            <g transform="translate(136.7,75.85)" id="img-4c088295-164">
              <path d="M-0.43,-2.87 L 0.43 -2.87 0.43 2.87 -0.43 2.87 z" class="primitive"/>
            </g>
            <g transform="translate(137.51,75.13)" id="img-4c088295-165">
              <path d="M-0.43,-3.59 L 0.43 -3.59 0.43 3.59 -0.43 3.59 z" class="primitive"/>
            </g>
            <g transform="translate(138.32,76.2)" id="img-4c088295-166">
              <path d="M-0.43,-2.51 L 0.43 -2.51 0.43 2.51 -0.43 2.51 z" class="primitive"/>
            </g>
            <g transform="translate(139.12,75.85)" id="img-4c088295-167">
              <path d="M-0.43,-2.87 L 0.43 -2.87 0.43 2.87 -0.43 2.87 z" class="primitive"/>
            </g>
            <g transform="translate(139.93,75.13)" id="img-4c088295-168">
              <path d="M-0.43,-3.59 L 0.43 -3.59 0.43 3.59 -0.43 3.59 z" class="primitive"/>
            </g>
            <g transform="translate(140.74,76.2)" id="img-4c088295-169">
              <path d="M-0.43,-2.51 L 0.43 -2.51 0.43 2.51 -0.43 2.51 z" class="primitive"/>
            </g>
            <g transform="translate(141.55,75.85)" id="img-4c088295-170">
              <path d="M-0.43,-2.87 L 0.43 -2.87 0.43 2.87 -0.43 2.87 z" class="primitive"/>
            </g>
            <g transform="translate(142.35,75.13)" id="img-4c088295-171">
              <path d="M-0.43,-3.59 L 0.43 -3.59 0.43 3.59 -0.43 3.59 z" class="primitive"/>
            </g>
          </g>
        </g>
      </g>
    </g>
  </g>
  <g class="guide ylabels" font-size="2.82" font-family="'PT Sans Caption','Helvetica Neue','Helvetica',sans-serif" fill="#6C606B" id="img-4c088295-172">
    <g transform="translate(18.63,78.71)" id="img-4c088295-173">
      <g class="primitive">
        <text text-anchor="end" dy="0.35em">0</text>
      </g>
    </g>
    <g transform="translate(18.63,42.86)" id="img-4c088295-174">
      <g class="primitive">
        <text text-anchor="end" dy="0.35em">50</text>
      </g>
    </g>
    <g transform="translate(18.63,7)" id="img-4c088295-175">
      <g class="primitive">
        <text text-anchor="end" dy="0.35em">100</text>
      </g>
    </g>
  </g>
  <g font-size="3.88" font-family="'PT Sans','Helvetica Neue','Helvetica',sans-serif" fill="#564A55" stroke="#000000" stroke-opacity="0.000" id="img-4c088295-176">
    <g transform="translate(8.81,40.86)" id="img-4c088295-177">
      <g class="primitive">
        <text text-anchor="middle" dy="0.35em" transform="rotate(-90,0, 2)">Número de trocas externas</text>
      </g>
    </g>
  </g>
</g>
<defs>
  <clipPath id="img-4c088295-4">
    <path d="M19.63,5 L 145 5 145 80.72 19.63 80.72" />
  </clipPath>
</defs>
</svg>
