<?xml version="1.0" encoding="UTF-8"?>
<svg xmlns="http://www.w3.org/2000/svg"
     xmlns:xlink="http://www.w3.org/1999/xlink"
     xmlns:gadfly="http://www.gadflyjl.org/ns"
     version="1.2"
     width="150mm" height="100mm" viewBox="0 0 150 100"
     stroke="none"
     fill="#000000"
     stroke-width="0.3"
     font-size="3.88"
>
<defs>
  <marker id="arrow" markerWidth="15" markerHeight="7" refX="5" refY="3.5" orient="auto" markerUnits="strokeWidth">
    <path d="M0,0 L15,3.5 L0,7 z" stroke="context-stroke" fill="context-stroke"/>
  </marker>
</defs>
<g class="plotroot xscalable yscalable" id="img-20bb5c22-1">
  <g font-size="3.88" font-family="'PT Sans','Helvetica Neue','Helvetica',sans-serif" fill="#564A55" stroke="#000000" stroke-opacity="0.000" id="img-20bb5c22-2">
    <g transform="translate(79.98,88.39)">
      <g class="primitive">
        <text text-anchor="middle" dy="0.6em">Fitness</text>
      </g>
    </g>
  </g>
  <g class="guide xlabels" font-size="2.82" font-family="'PT Sans Caption','Helvetica Neue','Helvetica',sans-serif" fill="#6C606B" id="img-20bb5c22-3">
    <g transform="translate(22.31,81.72)">
      <g class="primitive">
        <text text-anchor="middle" dy="0.6em">0.0</text>
      </g>
    </g>
    <g transform="translate(79.98,81.72)">
      <g class="primitive">
        <text text-anchor="middle" dy="0.6em">0.5</text>
      </g>
    </g>
    <g transform="translate(137.65,81.72)">
      <g class="primitive">
        <text text-anchor="middle" dy="0.6em">1.0</text>
      </g>
    </g>
  </g>
  <g class="guide colorkey" id="img-20bb5c22-4">
    <g fill="#4C404B" font-size="2.82" font-family="'PT Sans','Helvetica Neue','Helvetica',sans-serif" id="img-20bb5c22-5">
      <g transform="translate(143.46,41.04)" id="img-20bb5c22-6" class="color_0">
        <g class="primitive">
          <text dy="0.35em">0</text>
        </g>
      </g>
      <g transform="translate(143.46,44.67)" id="img-20bb5c22-7" class="color_1">
        <g class="primitive">
          <text dy="0.35em">1</text>
        </g>
      </g>
      <g transform="translate(143.46,48.3)" id="img-20bb5c22-8" class="color_2">
        <g class="primitive">
          <text dy="0.35em">2</text>
        </g>
      </g>
    </g>
    <g stroke="#000000" stroke-opacity="0.000" id="img-20bb5c22-9">
      <g transform="translate(141.55,41.04)" id="img-20bb5c22-10" fill="#00BFFF" class="color_0">
        <path d="M-0.91,-0.91 L 0.91 -0.91 0.91 0.91 -0.91 0.91 z" class="primitive"/>
      </g>
      <g transform="translate(141.55,44.67)" id="img-20bb5c22-11" fill="#D4CA3A" class="color_1">
        <path d="M-0.91,-0.91 L 0.91 -0.91 0.91 0.91 -0.91 0.91 z" class="primitive"/>
      </g>
      <g transform="translate(141.55,48.3)" id="img-20bb5c22-12" fill="#FF6DAE" class="color_2">
        <path d="M-0.91,-0.91 L 0.91 -0.91 0.91 0.91 -0.91 0.91 z" class="primitive"/>
      </g>
    </g>
    <g fill="#362A35" font-size="3.88" font-family="'PT Sans','Helvetica Neue','Helvetica',sans-serif" stroke="#000000" stroke-opacity="0.000" id="img-20bb5c22-13">
      <g transform="translate(140.65,37.22)" id="img-20bb5c22-14">
        <g class="primitive">
          <text>n</text>
        </g>
      </g>
    </g>
  </g>
  <g clip-path="url(#img-20bb5c22-15)">
    <g id="img-20bb5c22-16">
      <g pointer-events="visible" fill="#000000" fill-opacity="0.000" stroke="#000000" stroke-opacity="0.000" class="guide background" id="img-20bb5c22-17">
        <g transform="translate(79.98,42.86)" id="img-20bb5c22-18">
          <path d="M-59.67,-37.86 L 59.67 -37.86 59.67 37.86 -59.67 37.86 z" class="primitive"/>
        </g>
      </g>
      <g class="guide ygridlines xfixed" stroke-dasharray="0.5,0.5" stroke-width="0.2" stroke="#D0D0E0" id="img-20bb5c22-19">
        <g transform="translate(79.98,78.72)" id="img-20bb5c22-20">
          <path fill="none" d="M-59.67,0 L 59.67 0" class="primitive"/>
        </g>
        <g transform="translate(79.98,60.79)" id="img-20bb5c22-21">
          <path fill="none" d="M-59.67,0 L 59.67 0" class="primitive"/>
        </g>
        <g transform="translate(79.98,42.86)" id="img-20bb5c22-22">
          <path fill="none" d="M-59.67,0 L 59.67 0" class="primitive"/>
        </g>
        <g transform="translate(79.98,24.93)" id="img-20bb5c22-23">
          <path fill="none" d="M-59.67,0 L 59.67 0" class="primitive"/>
        </g>
        <g transform="translate(79.98,7)" id="img-20bb5c22-24">
          <path fill="none" d="M-59.67,0 L 59.67 0" class="primitive"/>
        </g>
      </g>
      <g class="guide xgridlines yfixed" stroke-dasharray="0.5,0.5" stroke-width="0.2" stroke="#D0D0E0" id="img-20bb5c22-25">
        <g transform="translate(22.31,42.86)" id="img-20bb5c22-26">
          <path fill="none" d="M0,-37.86 L 0 37.86" class="primitive"/>
        </g>
        <g transform="translate(79.98,42.86)" id="img-20bb5c22-27">
          <path fill="none" d="M0,-37.86 L 0 37.86" class="primitive"/>
        </g>
        <g transform="translate(137.65,42.86)" id="img-20bb5c22-28">
          <path fill="none" d="M0,-37.86 L 0 37.86" class="primitive"/>
        </g>
      </g>
      <g class="plotpanel" id="img-20bb5c22-29">
        <metadata>
          <boundingbox value="20.305000000000007mm 5.0mm 119.34166666666667mm 75.715mm"/>
          <unitbox value="-0.017339787587602053 0.2055776336889075 1.034679575175204 -0.21115526737781498"/>
        </metadata>
        <g stroke-width="0.3" fill="#000000" fill-opacity="0.000" class="geometry" id="img-20bb5c22-30">
          <g transform="translate(79.98,60.79)" id="img-20bb5c22-31" stroke="#00BFFF" stroke-dasharray="none" class="color_0">
            <path fill="none" d="M-54.79,-8.03 L -49.02 -6.34 -43.25 -9.55 -37.49 -7.16 -31.72 -6.3 -25.95 -9.24 -20.18 -2.75 -14.42 -13.39 -8.65 -13.49 -2.88 -21.2 2.88 -15.81 8.65 -7.59 14.42 -0.4 20.18 14.17 25.95 17.45 31.72 17.93 37.49 17.93 43.25 17.93 49.02 17.93 54.79 17.93" class="primitive"/>
          </g>
          <g transform="translate(79.98,60.79)" id="img-20bb5c22-32" stroke="#D4CA3A" stroke-dasharray="none" class="color_1">
            <path fill="none" d="M-54.79,-3.96 L -49.02 0.17 -43.25 -6.71 -37.49 -6.61 -31.72 -10.01 -25.95 -11.6 -20.18 -10.56 -14.42 -19.74 -8.65 -15.69 -2.88 -10.73 2.88 -13.98 8.65 -7.86 14.42 -2.95 20.18 12.69 25.95 17.9 31.72 17.93 37.49 17.93 43.25 17.93 49.02 17.93 54.79 17.93" class="primitive"/>
          </g>
          <g transform="translate(79.98,60.79)" id="img-20bb5c22-33" stroke="#FF6DAE" stroke-dasharray="none" class="color_2">
            <path fill="none" d="M-54.79,-0.43 L -49.02 -5.04 -43.25 -0.4 -37.49 -2.45 -31.72 -5.65 -25.95 -11.66 -20.18 -13.43 -14.42 -11.68 -8.65 -19.01 -2.88 -19.24 2.88 -16.53 8.65 -13.23 14.42 -2.24 20.18 13.42 25.95 17.93 31.72 17.93 37.49 17.93 43.25 17.93 49.02 17.93 54.79 17.93" class="primitive"/>
          </g>
        </g>
      </g>
    </g>
  </g>
  <g class="guide ylabels" font-size="2.82" font-family="'PT Sans Caption','Helvetica Neue','Helvetica',sans-serif" fill="#6C606B" id="img-20bb5c22-34">
    <g transform="translate(19.3,78.72)" id="img-20bb5c22-35">
      <g class="primitive">
        <text text-anchor="end" dy="0.35em">0.00</text>
      </g>
    </g>
    <g transform="translate(19.3,60.79)" id="img-20bb5c22-36">
      <g class="primitive">
        <text text-anchor="end" dy="0.35em">0.05</text>
      </g>
    </g>
    <g transform="translate(19.3,42.86)" id="img-20bb5c22-37">
      <g class="primitive">
        <text text-anchor="end" dy="0.35em">0.10</text>
      </g>
    </g>
    <g transform="translate(19.3,24.93)" id="img-20bb5c22-38">
      <g class="primitive">
        <text text-anchor="end" dy="0.35em">0.15</text>
      </g>
    </g>
    <g transform="translate(19.3,7)" id="img-20bb5c22-39">
      <g class="primitive">
        <text text-anchor="end" dy="0.35em">0.20</text>
      </g>
    </g>
  </g>
  <g font-size="3.88" font-family="'PT Sans','Helvetica Neue','Helvetica',sans-serif" fill="#564A55" stroke="#000000" stroke-opacity="0.000" id="img-20bb5c22-40">
    <g transform="translate(8.81,40.86)" id="img-20bb5c22-41">
      <g class="primitive">
        <text text-anchor="middle" dy="0.35em" transform="rotate(-90,0, 2)">Frequencia</text>
      </g>
    </g>
  </g>
</g>
<defs>
  <clipPath id="img-20bb5c22-15">
    <path d="M20.31,5 L 139.65 5 139.65 80.72 20.31 80.72" />
  </clipPath>
</defs>
</svg>
