<?xml version="1.0" encoding="UTF-8"?>
<svg xmlns="http://www.w3.org/2000/svg"
     xmlns:xlink="http://www.w3.org/1999/xlink"
     xmlns:gadfly="http://www.gadflyjl.org/ns"
     version="1.2"
     width="150mm" height="100mm" viewBox="0 0 150 100"
     stroke="none"
     fill="#000000"
     stroke-width="0.3"
     font-size="3.88"
>
<defs>
  <marker id="arrow" markerWidth="15" markerHeight="7" refX="5" refY="3.5" orient="auto" markerUnits="strokeWidth">
    <path d="M0,0 L15,3.5 L0,7 z" stroke="context-stroke" fill="context-stroke"/>
  </marker>
</defs>
<g class="plotroot xscalable yscalable" id="img-6077af5f-1">
  <g font-size="3.88" font-family="'PT Sans','Helvetica Neue','Helvetica',sans-serif" fill="#564A55" stroke="#000000" stroke-opacity="0.000" id="img-6077af5f-2">
    <g transform="translate(75.82,88.39)">
      <g class="primitive">
        <text text-anchor="middle" dy="0.6em">Appearence</text>
      </g>
    </g>
  </g>
  <g class="guide xlabels" font-size="2.82" font-family="'PT Sans Caption','Helvetica Neue','Helvetica',sans-serif" fill="#6C606B" id="img-6077af5f-3">
    <g transform="translate(22.3,81.72)">
      <g class="primitive">
        <text text-anchor="middle" dy="0.6em">0.0</text>
      </g>
    </g>
    <g transform="translate(75.82,81.72)">
      <g class="primitive">
        <text text-anchor="middle" dy="0.6em">0.5</text>
      </g>
    </g>
    <g transform="translate(129.34,81.72)">
      <g class="primitive">
        <text text-anchor="middle" dy="0.6em">1.0</text>
      </g>
    </g>
  </g>
  <g class="guide colorkey" id="img-6077af5f-4">
    <g fill="#4C404B" font-size="2.82" font-family="'PT Sans','Helvetica Neue','Helvetica',sans-serif" id="img-6077af5f-5">
      <g transform="translate(135.15,33.79)" id="img-6077af5f-6" class="color_2.5e-5">
        <g class="primitive">
          <text dy="0.35em">2.5e-5</text>
        </g>
      </g>
      <g transform="translate(135.15,37.42)" id="img-6077af5f-7" class="color_5.0e-5">
        <g class="primitive">
          <text dy="0.35em">5.0e-5</text>
        </g>
      </g>
      <g transform="translate(135.15,41.04)" id="img-6077af5f-8" class="color_0.0001">
        <g class="primitive">
          <text dy="0.35em">0.0001</text>
        </g>
      </g>
      <g transform="translate(135.15,44.67)" id="img-6077af5f-9" class="color_0.00025">
        <g class="primitive">
          <text dy="0.35em">0.00025</text>
        </g>
      </g>
      <g transform="translate(135.15,48.3)" id="img-6077af5f-10" class="color_0.0005">
        <g class="primitive">
          <text dy="0.35em">0.0005</text>
        </g>
      </g>
      <g transform="translate(135.15,51.92)" id="img-6077af5f-11" class="color_0.001">
        <g class="primitive">
          <text dy="0.35em">0.001</text>
        </g>
      </g>
      <g transform="translate(135.15,55.55)" id="img-6077af5f-12" class="color_0.005">
        <g class="primitive">
          <text dy="0.35em">0.005</text>
        </g>
      </g>
    </g>
    <g stroke="#000000" stroke-opacity="0.000" id="img-6077af5f-13">
      <g transform="translate(133.25,33.79)" id="img-6077af5f-14" fill="#00BFFF" class="color_2.5e-5">
        <path d="M-0.91,-0.91 L 0.91 -0.91 0.91 0.91 -0.91 0.91 z" class="primitive"/>
      </g>
      <g transform="translate(133.25,37.42)" id="img-6077af5f-15" fill="#D4CA3A" class="color_5.0e-5">
        <path d="M-0.91,-0.91 L 0.91 -0.91 0.91 0.91 -0.91 0.91 z" class="primitive"/>
      </g>
      <g transform="translate(133.25,41.04)" id="img-6077af5f-16" fill="#FF6DAE" class="color_0.0001">
        <path d="M-0.91,-0.91 L 0.91 -0.91 0.91 0.91 -0.91 0.91 z" class="primitive"/>
      </g>
      <g transform="translate(133.25,44.67)" id="img-6077af5f-17" fill="#00B78D" class="color_0.00025">
        <path d="M-0.91,-0.91 L 0.91 -0.91 0.91 0.91 -0.91 0.91 z" class="primitive"/>
      </g>
      <g transform="translate(133.25,48.3)" id="img-6077af5f-18" fill="#BEA9FF" class="color_0.0005">
        <path d="M-0.91,-0.91 L 0.91 -0.91 0.91 0.91 -0.91 0.91 z" class="primitive"/>
      </g>
      <g transform="translate(133.25,51.92)" id="img-6077af5f-19" fill="#FF6765" class="color_0.001">
        <path d="M-0.91,-0.91 L 0.91 -0.91 0.91 0.91 -0.91 0.91 z" class="primitive"/>
      </g>
      <g transform="translate(133.25,55.55)" id="img-6077af5f-20" fill="#C6C6C6" class="color_0.005">
        <path d="M-0.91,-0.91 L 0.91 -0.91 0.91 0.91 -0.91 0.91 z" class="primitive"/>
      </g>
    </g>
    <g fill="#362A35" font-size="3.88" font-family="'PT Sans','Helvetica Neue','Helvetica',sans-serif" stroke="#000000" stroke-opacity="0.000" id="img-6077af5f-21">
      <g transform="translate(132.34,29.97)" id="img-6077af5f-22">
        <g class="primitive">
          <text>p</text>
        </g>
      </g>
    </g>
  </g>
  <g clip-path="url(#img-6077af5f-23)">
    <g id="img-6077af5f-24">
      <g pointer-events="visible" fill="#000000" fill-opacity="0.000" stroke="#000000" stroke-opacity="0.000" class="guide background" id="img-6077af5f-25">
        <g transform="translate(75.82,42.86)" id="img-6077af5f-26">
          <path d="M-55.52,-37.86 L 55.52 -37.86 55.52 37.86 -55.52 37.86 z" class="primitive"/>
        </g>
      </g>
      <g class="guide ygridlines xfixed" stroke-dasharray="0.5,0.5" stroke-width="0.2" stroke="#D0D0E0" id="img-6077af5f-27">
        <g transform="translate(75.82,78.71)" id="img-6077af5f-28">
          <path fill="none" d="M-55.52,0 L 55.52 0" class="primitive"/>
        </g>
        <g transform="translate(75.82,64.37)" id="img-6077af5f-29">
          <path fill="none" d="M-55.52,0 L 55.52 0" class="primitive"/>
        </g>
        <g transform="translate(75.82,50.03)" id="img-6077af5f-30">
          <path fill="none" d="M-55.52,0 L 55.52 0" class="primitive"/>
        </g>
        <g transform="translate(75.82,35.69)" id="img-6077af5f-31">
          <path fill="none" d="M-55.52,0 L 55.52 0" class="primitive"/>
        </g>
        <g transform="translate(75.82,21.34)" id="img-6077af5f-32">
          <path fill="none" d="M-55.52,0 L 55.52 0" class="primitive"/>
        </g>
        <g transform="translate(75.82,7)" id="img-6077af5f-33">
          <path fill="none" d="M-55.52,0 L 55.52 0" class="primitive"/>
        </g>
      </g>
      <g class="guide xgridlines yfixed" stroke-dasharray="0.5,0.5" stroke-width="0.2" stroke="#D0D0E0" id="img-6077af5f-34">
        <g transform="translate(22.3,42.86)" id="img-6077af5f-35">
          <path fill="none" d="M0,-37.86 L 0 37.86" class="primitive"/>
        </g>
        <g transform="translate(75.82,42.86)" id="img-6077af5f-36">
          <path fill="none" d="M0,-37.86 L 0 37.86" class="primitive"/>
        </g>
        <g transform="translate(129.34,42.86)" id="img-6077af5f-37">
          <path fill="none" d="M0,-37.86 L 0 37.86" class="primitive"/>
        </g>
      </g>
      <g class="plotpanel" id="img-6077af5f-38">
        <metadata>
          <boundingbox value="20.304999999999993mm 5.0mm 111.035mm 75.715mm"/>
          <unitbox value="-0.018685476713224645 0.25697204211113434 1.0373709534264492 -0.2639440842222687"/>
        </metadata>
        <g stroke-width="0.3" fill="#000000" fill-opacity="0.000" class="geometry" id="img-6077af5f-39">
          <g transform="translate(75.82,64.37)" id="img-6077af5f-40" stroke="#00BFFF" stroke-dasharray="none" class="color_2.5e-5">
            <path fill="none" d="M-50.84,14.34 L -45.49 14.29 -40.14 14.18 -34.79 13.69 -29.43 11.93 -24.08 8.22 -18.73 0.09 -13.38 -12.46 -8.03 -23.47 -2.68 -37.5 2.68 -43.21 8.03 -25.91 13.38 -9.93 18.73 -1.12 24.08 8.21 29.43 12.26 34.79 13.66 40.14 14.07 45.49 14.31 50.84 14.34" class="primitive"/>
          </g>
          <g transform="translate(75.82,64.37)" id="img-6077af5f-41" stroke="#D4CA3A" stroke-dasharray="none" class="color_5.0e-5">
            <path fill="none" d="M-50.84,14.34 L -45.49 14.29 -40.14 14.13 -34.79 13.57 -29.43 12.38 -24.08 7.65 -18.73 0.59 -13.38 -11.41 -8.03 -25.98 -2.68 -36.73 2.68 -37.69 8.03 -30.83 13.38 -12.13 18.73 0.78 24.08 8.55 29.43 11.94 34.79 13.76 40.14 14.16 45.49 14.32 50.84 14.32" class="primitive"/>
          </g>
          <g transform="translate(75.82,64.37)" id="img-6077af5f-42" stroke="#FF6DAE" stroke-dasharray="none" class="color_0.0001">
            <path fill="none" d="M-50.84,14.33 L -45.49 14.31 -40.14 14.23 -34.79 13.6 -29.43 12.46 -24.08 9.01 -18.73 -0.9 -13.38 -10.86 -8.03 -25.07 -2.68 -39.02 2.68 -39.27 8.03 -29.33 13.38 -12.06 18.73 1.15 24.08 8.56 29.43 12.13 34.79 13.87 40.14 14.2 45.49 14.32 50.84 14.34" class="primitive"/>
          </g>
          <g transform="translate(75.82,64.37)" id="img-6077af5f-43" stroke="#00B78D" stroke-dasharray="none" class="color_0.00025">
            <path fill="none" d="M-50.84,14.33 L -45.49 14.3 -40.14 14.17 -34.79 13.71 -29.43 12.33 -24.08 7.89 -18.73 0.19 -13.38 -11.81 -8.03 -28.49 -2.68 -37.94 2.68 -38.01 8.03 -24 13.38 -14.82 18.73 0.45 24.08 8.71 29.43 12.51 34.79 13.7 40.14 14.17 45.49 14.29 50.84 14.33" class="primitive"/>
          </g>
          <g transform="translate(75.82,64.37)" id="img-6077af5f-44" stroke="#BEA9FF" stroke-dasharray="none" class="color_0.0005">
            <path fill="none" d="M-50.84,14.32 L -45.49 14.3 -40.14 14.17 -34.79 13.82 -29.43 12.35 -24.08 8.19 -18.73 0.17 -13.38 -11.92 -8.03 -26.63 -2.68 -39.25 2.68 -36.68 8.03 -30.53 13.38 -10.99 18.73 0.83 24.08 9.2 29.43 12.01 34.79 13.74 40.14 14.22 45.49 14.33 50.84 14.34" class="primitive"/>
          </g>
          <g transform="translate(75.82,64.37)" id="img-6077af5f-45" stroke="#FF6765" stroke-dasharray="none" class="color_0.001">
            <path fill="none" d="M-50.84,14.34 L -45.49 14.3 -40.14 14.16 -34.79 13.59 -29.43 11.91 -24.08 9.14 -18.73 0.72 -13.38 -14.5 -8.03 -24.3 -2.68 -38.85 2.68 -38.57 8.03 -26.03 13.38 -13.78 18.73 0.32 24.08 8.64 29.43 12.37 34.79 13.66 40.14 14.21 45.49 14.32 50.84 14.34" class="primitive"/>
          </g>
          <g transform="translate(75.82,64.37)" id="img-6077af5f-46" stroke="#C6C6C6" stroke-dasharray="none" class="color_0.005">
            <path fill="none" d="M-50.84,14.33 L -45.49 14.31 -40.14 14.15 -34.79 13.81 -29.43 12.25 -24.08 8.7 -18.73 1.03 -13.38 -11.14 -8.03 -28.76 -2.68 -39.8 2.68 -36.37 8.03 -27.67 13.38 -13.53 18.73 1.65 24.08 8.29 29.43 12.04 34.79 13.87 40.14 14.2 45.49 14.29 50.84 14.32" class="primitive"/>
          </g>
        </g>
      </g>
    </g>
  </g>
  <g class="guide ylabels" font-size="2.82" font-family="'PT Sans Caption','Helvetica Neue','Helvetica',sans-serif" fill="#6C606B" id="img-6077af5f-47">
    <g transform="translate(19.3,78.71)" id="img-6077af5f-48">
      <g class="primitive">
        <text text-anchor="end" dy="0.35em">0.00</text>
      </g>
    </g>
    <g transform="translate(19.3,64.37)" id="img-6077af5f-49">
      <g class="primitive">
        <text text-anchor="end" dy="0.35em">0.05</text>
      </g>
    </g>
    <g transform="translate(19.3,50.03)" id="img-6077af5f-50">
      <g class="primitive">
        <text text-anchor="end" dy="0.35em">0.10</text>
      </g>
    </g>
    <g transform="translate(19.3,35.69)" id="img-6077af5f-51">
      <g class="primitive">
        <text text-anchor="end" dy="0.35em">0.15</text>
      </g>
    </g>
    <g transform="translate(19.3,21.34)" id="img-6077af5f-52">
      <g class="primitive">
        <text text-anchor="end" dy="0.35em">0.20</text>
      </g>
    </g>
    <g transform="translate(19.3,7)" id="img-6077af5f-53">
      <g class="primitive">
        <text text-anchor="end" dy="0.35em">0.25</text>
      </g>
    </g>
  </g>
  <g font-size="3.88" font-family="'PT Sans','Helvetica Neue','Helvetica',sans-serif" fill="#564A55" stroke="#000000" stroke-opacity="0.000" id="img-6077af5f-54">
    <g transform="translate(8.81,40.86)" id="img-6077af5f-55">
      <g class="primitive">
        <text text-anchor="middle" dy="0.35em" transform="rotate(-90,0, 2)">Frequencia</text>
      </g>
    </g>
  </g>
</g>
<defs>
  <clipPath id="img-6077af5f-23">
    <path d="M20.3,5 L 131.34 5 131.34 80.72 20.3 80.72" />
  </clipPath>
</defs>
</svg>
