<?xml version="1.0" encoding="UTF-8"?>
<svg xmlns="http://www.w3.org/2000/svg"
     xmlns:xlink="http://www.w3.org/1999/xlink"
     xmlns:gadfly="http://www.gadflyjl.org/ns"
     version="1.2"
     width="150mm" height="100mm" viewBox="0 0 150 100"
     stroke="none"
     fill="#000000"
     stroke-width="0.3"
     font-size="3.88"
>
<defs>
  <marker id="arrow" markerWidth="15" markerHeight="7" refX="5" refY="3.5" orient="auto" markerUnits="strokeWidth">
    <path d="M0,0 L15,3.5 L0,7 z" stroke="context-stroke" fill="context-stroke"/>
  </marker>
</defs>
<g class="plotroot xscalable yscalable" id="img-33143d8b-1">
  <g font-size="3.88" font-family="'PT Sans','Helvetica Neue','Helvetica',sans-serif" fill="#564A55" stroke="#000000" stroke-opacity="0.000" id="img-33143d8b-2">
    <g transform="translate(75.76,88.39)">
      <g class="primitive">
        <text text-anchor="middle" dy="0.6em">Fitness</text>
      </g>
    </g>
  </g>
  <g class="guide xlabels" font-size="2.82" font-family="'PT Sans Caption','Helvetica Neue','Helvetica',sans-serif" fill="#6C606B" id="img-33143d8b-3">
    <g transform="translate(22.3,81.72)">
      <g class="primitive">
        <text text-anchor="middle" dy="0.6em">0.0</text>
      </g>
    </g>
    <g transform="translate(75.76,81.72)">
      <g class="primitive">
        <text text-anchor="middle" dy="0.6em">0.5</text>
      </g>
    </g>
    <g transform="translate(129.21,81.72)">
      <g class="primitive">
        <text text-anchor="middle" dy="0.6em">1.0</text>
      </g>
    </g>
  </g>
  <g class="guide colorkey" id="img-33143d8b-4">
    <g fill="#4C404B" font-size="2.82" font-family="'PT Sans','Helvetica Neue','Helvetica',sans-serif" id="img-33143d8b-5">
      <g transform="translate(141.92,19.28)" id="img-33143d8b-6" class="color_15">
        <g class="primitive">
          <text dy="0.35em">15</text>
        </g>
      </g>
      <g transform="translate(141.92,22.91)" id="img-33143d8b-7" class="color_16">
        <g class="primitive">
          <text dy="0.35em">16</text>
        </g>
      </g>
      <g transform="translate(141.92,26.54)" id="img-33143d8b-8" class="color_17">
        <g class="primitive">
          <text dy="0.35em">17</text>
        </g>
      </g>
      <g transform="translate(141.92,30.16)" id="img-33143d8b-9" class="color_18">
        <g class="primitive">
          <text dy="0.35em">18</text>
        </g>
      </g>
      <g transform="translate(141.92,33.79)" id="img-33143d8b-10" class="color_19">
        <g class="primitive">
          <text dy="0.35em">19</text>
        </g>
      </g>
      <g transform="translate(141.92,37.42)" id="img-33143d8b-11" class="color_20">
        <g class="primitive">
          <text dy="0.35em">20</text>
        </g>
      </g>
      <g transform="translate(141.92,41.04)" id="img-33143d8b-12" class="color_21">
        <g class="primitive">
          <text dy="0.35em">21</text>
        </g>
      </g>
      <g transform="translate(141.92,44.67)" id="img-33143d8b-13" class="color_22">
        <g class="primitive">
          <text dy="0.35em">22</text>
        </g>
      </g>
      <g transform="translate(141.92,48.3)" id="img-33143d8b-14" class="color_23">
        <g class="primitive">
          <text dy="0.35em">23</text>
        </g>
      </g>
      <g transform="translate(141.92,51.92)" id="img-33143d8b-15" class="color_24">
        <g class="primitive">
          <text dy="0.35em">24</text>
        </g>
      </g>
      <g transform="translate(141.92,55.55)" id="img-33143d8b-16" class="color_25">
        <g class="primitive">
          <text dy="0.35em">25</text>
        </g>
      </g>
      <g transform="translate(141.92,59.18)" id="img-33143d8b-17" class="color_26">
        <g class="primitive">
          <text dy="0.35em">26</text>
        </g>
      </g>
      <g transform="translate(141.92,62.8)" id="img-33143d8b-18" class="color_27">
        <g class="primitive">
          <text dy="0.35em">27</text>
        </g>
      </g>
      <g transform="translate(141.92,66.43)" id="img-33143d8b-19" class="color_28">
        <g class="primitive">
          <text dy="0.35em">28</text>
        </g>
      </g>
      <g transform="translate(141.92,70.06)" id="img-33143d8b-20" class="color_29">
        <g class="primitive">
          <text dy="0.35em">29</text>
        </g>
      </g>
    </g>
    <g stroke="#000000" stroke-opacity="0.000" id="img-33143d8b-21">
      <g transform="translate(140.01,19.28)" id="img-33143d8b-22" fill="#C39800" class="color_15">
        <path d="M-0.91,-0.91 L 0.91 -0.91 0.91 0.91 -0.91 0.91 z" class="primitive"/>
      </g>
      <g transform="translate(140.01,22.91)" id="img-33143d8b-23" fill="#FF93A4" class="color_16">
        <path d="M-0.91,-0.91 L 0.91 -0.91 0.91 0.91 -0.91 0.91 z" class="primitive"/>
      </g>
      <g transform="translate(140.01,26.54)" id="img-33143d8b-24" fill="#32B44E" class="color_17">
        <path d="M-0.91,-0.91 L 0.91 -0.91 0.91 0.91 -0.91 0.91 z" class="primitive"/>
      </g>
      <g transform="translate(140.01,30.16)" id="img-33143d8b-25" fill="#9E9E9E" class="color_18">
        <path d="M-0.91,-0.91 L 0.91 -0.91 0.91 0.91 -0.91 0.91 z" class="primitive"/>
      </g>
      <g transform="translate(140.01,33.79)" id="img-33143d8b-26" fill="#00E5B2" class="color_19">
        <path d="M-0.91,-0.91 L 0.91 -0.91 0.91 0.91 -0.91 0.91 z" class="primitive"/>
      </g>
      <g transform="translate(140.01,37.42)" id="img-33143d8b-27" fill="#FFA9F6" class="color_20">
        <path d="M-0.91,-0.91 L 0.91 -0.91 0.91 0.91 -0.91 0.91 z" class="primitive"/>
      </g>
      <g transform="translate(140.01,41.04)" id="img-33143d8b-28" fill="#FFAA89" class="color_21">
        <path d="M-0.91,-0.91 L 0.91 -0.91 0.91 0.91 -0.91 0.91 z" class="primitive"/>
      </g>
      <g transform="translate(140.01,44.67)" id="img-33143d8b-29" fill="#82CAFF" class="color_22">
        <path d="M-0.91,-0.91 L 0.91 -0.91 0.91 0.91 -0.91 0.91 z" class="primitive"/>
      </g>
      <g transform="translate(140.01,48.3)" id="img-33143d8b-30" fill="#00BBAA" class="color_23">
        <path d="M-0.91,-0.91 L 0.91 -0.91 0.91 0.91 -0.91 0.91 z" class="primitive"/>
      </g>
      <g transform="translate(140.01,51.92)" id="img-33143d8b-31" fill="#A08CFF" class="color_24">
        <path d="M-0.91,-0.91 L 0.91 -0.91 0.91 0.91 -0.91 0.91 z" class="primitive"/>
      </g>
      <g transform="translate(140.01,55.55)" id="img-33143d8b-32" fill="#00D485" class="color_25">
        <path d="M-0.91,-0.91 L 0.91 -0.91 0.91 0.91 -0.91 0.91 z" class="primitive"/>
      </g>
      <g transform="translate(140.01,59.18)" id="img-33143d8b-33" fill="#BCCF6F" class="color_26">
        <path d="M-0.91,-0.91 L 0.91 -0.91 0.91 0.91 -0.91 0.91 z" class="primitive"/>
      </g>
      <g transform="translate(140.01,62.8)" id="img-33143d8b-34" fill="#FFA0C8" class="color_27">
        <path d="M-0.91,-0.91 L 0.91 -0.91 0.91 0.91 -0.91 0.91 z" class="primitive"/>
      </g>
      <g transform="translate(140.01,66.43)" id="img-33143d8b-35" fill="#FF5F82" class="color_28">
        <path d="M-0.91,-0.91 L 0.91 -0.91 0.91 0.91 -0.91 0.91 z" class="primitive"/>
      </g>
      <g transform="translate(140.01,70.06)" id="img-33143d8b-36" fill="#C483E9" class="color_29">
        <path d="M-0.91,-0.91 L 0.91 -0.91 0.91 0.91 -0.91 0.91 z" class="primitive"/>
      </g>
    </g>
    <g fill="#4C404B" font-size="2.82" font-family="'PT Sans','Helvetica Neue','Helvetica',sans-serif" id="img-33143d8b-37">
      <g transform="translate(135.03,19.28)" id="img-33143d8b-38" class="color_0">
        <g class="primitive">
          <text dy="0.35em">0</text>
        </g>
      </g>
      <g transform="translate(135.03,22.91)" id="img-33143d8b-39" class="color_1">
        <g class="primitive">
          <text dy="0.35em">1</text>
        </g>
      </g>
      <g transform="translate(135.03,26.54)" id="img-33143d8b-40" class="color_2">
        <g class="primitive">
          <text dy="0.35em">2</text>
        </g>
      </g>
      <g transform="translate(135.03,30.16)" id="img-33143d8b-41" class="color_3">
        <g class="primitive">
          <text dy="0.35em">3</text>
        </g>
      </g>
      <g transform="translate(135.03,33.79)" id="img-33143d8b-42" class="color_4">
        <g class="primitive">
          <text dy="0.35em">4</text>
        </g>
      </g>
      <g transform="translate(135.03,37.42)" id="img-33143d8b-43" class="color_5">
        <g class="primitive">
          <text dy="0.35em">5</text>
        </g>
      </g>
      <g transform="translate(135.03,41.04)" id="img-33143d8b-44" class="color_6">
        <g class="primitive">
          <text dy="0.35em">6</text>
        </g>
      </g>
      <g transform="translate(135.03,44.67)" id="img-33143d8b-45" class="color_7">
        <g class="primitive">
          <text dy="0.35em">7</text>
        </g>
      </g>
      <g transform="translate(135.03,48.3)" id="img-33143d8b-46" class="color_8">
        <g class="primitive">
          <text dy="0.35em">8</text>
        </g>
      </g>
      <g transform="translate(135.03,51.92)" id="img-33143d8b-47" class="color_9">
        <g class="primitive">
          <text dy="0.35em">9</text>
        </g>
      </g>
      <g transform="translate(135.03,55.55)" id="img-33143d8b-48" class="color_10">
        <g class="primitive">
          <text dy="0.35em">10</text>
        </g>
      </g>
      <g transform="translate(135.03,59.18)" id="img-33143d8b-49" class="color_11">
        <g class="primitive">
          <text dy="0.35em">11</text>
        </g>
      </g>
      <g transform="translate(135.03,62.8)" id="img-33143d8b-50" class="color_12">
        <g class="primitive">
          <text dy="0.35em">12</text>
        </g>
      </g>
      <g transform="translate(135.03,66.43)" id="img-33143d8b-51" class="color_13">
        <g class="primitive">
          <text dy="0.35em">13</text>
        </g>
      </g>
      <g transform="translate(135.03,70.06)" id="img-33143d8b-52" class="color_14">
        <g class="primitive">
          <text dy="0.35em">14</text>
        </g>
      </g>
    </g>
    <g stroke="#000000" stroke-opacity="0.000" id="img-33143d8b-53">
      <g transform="translate(133.12,19.28)" id="img-33143d8b-54" fill="#00BFFF" class="color_0">
        <path d="M-0.91,-0.91 L 0.91 -0.91 0.91 0.91 -0.91 0.91 z" class="primitive"/>
      </g>
      <g transform="translate(133.12,22.91)" id="img-33143d8b-55" fill="#D4CA3A" class="color_1">
        <path d="M-0.91,-0.91 L 0.91 -0.91 0.91 0.91 -0.91 0.91 z" class="primitive"/>
      </g>
      <g transform="translate(133.12,26.54)" id="img-33143d8b-56" fill="#FF6DAE" class="color_2">
        <path d="M-0.91,-0.91 L 0.91 -0.91 0.91 0.91 -0.91 0.91 z" class="primitive"/>
      </g>
      <g transform="translate(133.12,30.16)" id="img-33143d8b-57" fill="#00B78D" class="color_3">
        <path d="M-0.91,-0.91 L 0.91 -0.91 0.91 0.91 -0.91 0.91 z" class="primitive"/>
      </g>
      <g transform="translate(133.12,33.79)" id="img-33143d8b-58" fill="#BEA9FF" class="color_4">
        <path d="M-0.91,-0.91 L 0.91 -0.91 0.91 0.91 -0.91 0.91 z" class="primitive"/>
      </g>
      <g transform="translate(133.12,37.42)" id="img-33143d8b-59" fill="#FF6765" class="color_5">
        <path d="M-0.91,-0.91 L 0.91 -0.91 0.91 0.91 -0.91 0.91 z" class="primitive"/>
      </g>
      <g transform="translate(133.12,41.04)" id="img-33143d8b-60" fill="#C6C6C6" class="color_6">
        <path d="M-0.91,-0.91 L 0.91 -0.91 0.91 0.91 -0.91 0.91 z" class="primitive"/>
      </g>
      <g transform="translate(133.12,44.67)" id="img-33143d8b-61" fill="#63DF75" class="color_7">
        <path d="M-0.91,-0.91 L 0.91 -0.91 0.91 0.91 -0.91 0.91 z" class="primitive"/>
      </g>
      <g transform="translate(133.12,48.3)" id="img-33143d8b-62" fill="#00E6D3" class="color_8">
        <path d="M-0.91,-0.91 L 0.91 -0.91 0.91 0.91 -0.91 0.91 z" class="primitive"/>
      </g>
      <g transform="translate(133.12,51.92)" id="img-33143d8b-63" fill="#E870DD" class="color_9">
        <path d="M-0.91,-0.91 L 0.91 -0.91 0.91 0.91 -0.91 0.91 z" class="primitive"/>
      </g>
      <g transform="translate(133.12,55.55)" id="img-33143d8b-64" fill="#93A649" class="color_10">
        <path d="M-0.91,-0.91 L 0.91 -0.91 0.91 0.91 -0.91 0.91 z" class="primitive"/>
      </g>
      <g transform="translate(133.12,59.18)" id="img-33143d8b-65" fill="#FF9A4B" class="color_11">
        <path d="M-0.91,-0.91 L 0.91 -0.91 0.91 0.91 -0.91 0.91 z" class="primitive"/>
      </g>
      <g transform="translate(133.12,62.8)" id="img-33143d8b-66" fill="#00B4BC" class="color_12">
        <path d="M-0.91,-0.91 L 0.91 -0.91 0.91 0.91 -0.91 0.91 z" class="primitive"/>
      </g>
      <g transform="translate(133.12,66.43)" id="img-33143d8b-67" fill="#6299FF" class="color_13">
        <path d="M-0.91,-0.91 L 0.91 -0.91 0.91 0.91 -0.91 0.91 z" class="primitive"/>
      </g>
      <g transform="translate(133.12,70.06)" id="img-33143d8b-68" fill="#00E4FF" class="color_14">
        <path d="M-0.91,-0.91 L 0.91 -0.91 0.91 0.91 -0.91 0.91 z" class="primitive"/>
      </g>
    </g>
    <g fill="#362A35" font-size="3.88" font-family="'PT Sans','Helvetica Neue','Helvetica',sans-serif" stroke="#000000" stroke-opacity="0.000" id="img-33143d8b-69">
      <g transform="translate(132.21,15.46)" id="img-33143d8b-70">
        <g class="primitive">
          <text>m</text>
        </g>
      </g>
    </g>
  </g>
  <g clip-path="url(#img-33143d8b-71)">
    <g id="img-33143d8b-72">
      <g pointer-events="visible" fill="#000000" fill-opacity="0.000" stroke="#000000" stroke-opacity="0.000" class="guide background" id="img-33143d8b-73">
        <g transform="translate(75.76,42.86)" id="img-33143d8b-74">
          <path d="M-55.45,-37.86 L 55.45 -37.86 55.45 37.86 -55.45 37.86 z" class="primitive"/>
        </g>
      </g>
      <g class="guide ygridlines xfixed" stroke-dasharray="0.5,0.5" stroke-width="0.2" stroke="#D0D0E0" id="img-33143d8b-75">
        <g transform="translate(75.76,78.71)" id="img-33143d8b-76">
          <path fill="none" d="M-55.45,0 L 55.45 0" class="primitive"/>
        </g>
        <g transform="translate(75.76,60.79)" id="img-33143d8b-77">
          <path fill="none" d="M-55.45,0 L 55.45 0" class="primitive"/>
        </g>
        <g transform="translate(75.76,42.86)" id="img-33143d8b-78">
          <path fill="none" d="M-55.45,0 L 55.45 0" class="primitive"/>
        </g>
        <g transform="translate(75.76,24.93)" id="img-33143d8b-79">
          <path fill="none" d="M-55.45,0 L 55.45 0" class="primitive"/>
        </g>
        <g transform="translate(75.76,7)" id="img-33143d8b-80">
          <path fill="none" d="M-55.45,0 L 55.45 0" class="primitive"/>
        </g>
      </g>
      <g class="guide xgridlines yfixed" stroke-dasharray="0.5,0.5" stroke-width="0.2" stroke="#D0D0E0" id="img-33143d8b-81">
        <g transform="translate(22.3,42.86)" id="img-33143d8b-82">
          <path fill="none" d="M0,-37.86 L 0 37.86" class="primitive"/>
        </g>
        <g transform="translate(75.76,42.86)" id="img-33143d8b-83">
          <path fill="none" d="M0,-37.86 L 0 37.86" class="primitive"/>
        </g>
        <g transform="translate(129.21,42.86)" id="img-33143d8b-84">
          <path fill="none" d="M0,-37.86 L 0 37.86" class="primitive"/>
        </g>
      </g>
      <g class="plotpanel" id="img-33143d8b-85">
        <metadata>
          <boundingbox value="20.304999999999993mm 5.0mm 110.90833333333333mm 75.715mm"/>
          <unitbox value="-0.018707615558500274 1.0278881684445373 1.0374152311170006 -1.055776336889075"/>
        </metadata>
        <g stroke-width="0.3" fill="#000000" fill-opacity="0.000" class="geometry" id="img-33143d8b-86">
          <g transform="translate(75.76,75.13)" id="img-33143d8b-87" stroke="#00BFFF" stroke-dasharray="none" class="color_0">
            <path fill="none" d="M-50.78,3.59 L -45.44 3.59 -40.09 3.59 -34.75 3.59 -29.4 3.59 -24.05 2.48 -18.71 -11.17 -13.36 -26.22 -8.02 -22.46 -2.67 3.59 2.67 3.59 8.02 3.59 13.36 3.59 18.71 3.59 24.05 3.59 29.4 3.59 34.75 3.59 40.09 3.59 45.44 3.59 50.78 3.59" class="primitive"/>
          </g>
          <g transform="translate(75.76,75.13)" id="img-33143d8b-88" stroke="#D4CA3A" stroke-dasharray="none" class="color_1">
            <path fill="none" d="M-50.78,3.59 L -45.44 3.59 -40.09 3.59 -34.75 3.59 -29.4 3.59 -24.05 3.59 -18.71 -0.18 -13.36 0.81 -8.02 -61.59 -2.67 3.59 2.67 3.59 8.02 3.59 13.36 3.59 18.71 3.59 24.05 3.59 29.4 3.59 34.75 3.59 40.09 3.59 45.44 3.59 50.78 3.59" class="primitive"/>
          </g>
          <g transform="translate(75.76,75.13)" id="img-33143d8b-89" stroke="#FF6DAE" stroke-dasharray="none" class="color_2">
            <path fill="none" d="M-50.78,3.59 L -45.44 3.59 -40.09 3.59 -34.75 3.59 -29.4 3.59 -24.05 3.59 -18.71 3.59 -13.36 3.59 -8.02 3.5 -2.67 -8.78 2.67 -35.36 8.02 -16.72 13.36 3.59 18.71 3.59 24.05 3.59 29.4 3.59 34.75 3.59 40.09 3.59 45.44 3.59 50.78 3.59" class="primitive"/>
          </g>
          <g transform="translate(75.76,75.13)" id="img-33143d8b-90" stroke="#00B78D" stroke-dasharray="none" class="color_3">
            <path fill="none" d="M-50.78,3.59 L -45.44 3.59 -40.09 3.59 -34.75 3.59 -29.4 3.59 -24.05 3.59 -18.71 0.78 -13.36 -55.56 -8.02 -6.18 -2.67 3.59 2.67 3.59 8.02 3.59 13.36 3.59 18.71 3.59 24.05 3.59 29.4 3.59 34.75 3.59 40.09 3.59 45.44 3.59 50.78 3.59" class="primitive"/>
          </g>
          <g transform="translate(75.76,75.13)" id="img-33143d8b-91" stroke="#BEA9FF" stroke-dasharray="none" class="color_4">
            <path fill="none" d="M-50.78,3.59 L -45.44 3.59 -40.09 3.59 -34.75 3.59 -29.4 3.59 -24.05 3.59 -18.71 3.44 -13.36 -9.05 -8.02 -53.94 -2.67 3.59 2.67 2.18 8.02 3.59 13.36 3.59 18.71 3.59 24.05 3.59 29.4 3.59 34.75 3.59 40.09 3.59 45.44 3.59 50.78 3.59" class="primitive"/>
          </g>
          <g transform="translate(75.76,75.13)" id="img-33143d8b-92" stroke="#FF6765" stroke-dasharray="none" class="color_5">
            <path fill="none" d="M-50.78,3.59 L -45.44 3.59 -40.09 3.59 -34.75 3.59 -29.4 3.59 -24.05 -23.15 -18.71 -36.53 -13.36 -1.28 -8.02 3.59 -2.67 3.59 2.67 3.59 8.02 3.59 13.36 3.59 18.71 3.59 24.05 3.59 29.4 3.59 34.75 3.59 40.09 3.59 45.44 3.59 50.78 3.59" class="primitive"/>
          </g>
          <g transform="translate(75.76,75.13)" id="img-33143d8b-93" stroke="#C6C6C6" stroke-dasharray="none" class="color_6">
            <path fill="none" d="M-50.78,3.59 L -45.44 -18.99 -40.09 -45.55 -34.75 3.59 -29.4 3.59 -24.05 3.59 -18.71 3.59 -13.36 3.59 -8.02 3.59 -2.67 3.59 2.67 3.59 8.02 3.59 13.36 3.59 18.71 3.59 24.05 3.59 29.4 3.59 34.75 3.59 40.09 3.59 45.44 3.59 50.78 3.59" class="primitive"/>
          </g>
          <g transform="translate(75.76,75.13)" id="img-33143d8b-94" stroke="#63DF75" stroke-dasharray="none" class="color_7">
            <path fill="none" d="M-50.78,3.59 L -45.44 3.59 -40.09 3.59 -34.75 3.59 -29.4 3.59 -24.05 3.47 -18.71 2.36 -13.36 -6.96 -8.02 -13.77 -2.67 -38.89 2.67 3.59 8.02 3.59 13.36 3.59 18.71 3.59 24.05 3.59 29.4 3.59 34.75 3.59 40.09 3.59 45.44 3.59 50.78 3.59" class="primitive"/>
          </g>
          <g transform="translate(75.76,75.13)" id="img-33143d8b-95" stroke="#00E6D3" stroke-dasharray="none" class="color_8">
            <path fill="none" d="M-50.78,3.59 L -45.44 -4.99 -40.09 -58.21 -34.75 2.24 -29.4 3.59 -24.05 3.59 -18.71 3.59 -13.36 3.59 -8.02 3.59 -2.67 3.59 2.67 3.59 8.02 3.59 13.36 3.59 18.71 3.59 24.05 3.59 29.4 3.59 34.75 3.59 40.09 3.59 45.44 3.59 50.78 3.59" class="primitive"/>
          </g>
          <g transform="translate(75.76,75.13)" id="img-33143d8b-96" stroke="#E870DD" stroke-dasharray="none" class="color_9">
            <path fill="none" d="M-50.78,3.59 L -45.44 3.59 -40.09 3.59 -34.75 3.59 -29.4 3.59 -24.05 3.59 -18.71 3.59 -13.36 3.59 -8.02 3.41 -2.67 -3.49 2.67 -59.41 8.02 2.12 13.36 3.59 18.71 3.59 24.05 3.59 29.4 3.59 34.75 3.59 40.09 3.59 45.44 3.59 50.78 3.59" class="primitive"/>
          </g>
          <g transform="translate(75.76,75.13)" id="img-33143d8b-97" stroke="#93A649" stroke-dasharray="none" class="color_10">
            <path fill="none" d="M-50.78,3.59 L -45.44 3.59 -40.09 3.59 -34.75 3.59 -29.4 3.59 -24.05 3.59 -18.71 3.59 -13.36 3.08 -8.02 -28.4 -2.67 0.18 2.67 -32.23 8.02 3.59 13.36 3.59 18.71 3.59 24.05 3.59 29.4 3.59 34.75 3.59 40.09 3.59 45.44 3.59 50.78 3.59" class="primitive"/>
          </g>
          <g transform="translate(75.76,75.13)" id="img-33143d8b-98" stroke="#FF9A4B" stroke-dasharray="none" class="color_11">
            <path fill="none" d="M-50.78,3.59 L -45.44 3.59 -40.09 3.59 -34.75 3.59 -29.4 3.59 -24.05 3.59 -18.71 3.59 -13.36 3.59 -8.02 3.59 -2.67 3.53 2.67 -6.18 8.02 -51.55 13.36 -3.16 18.71 3.59 24.05 3.59 29.4 3.59 34.75 3.59 40.09 3.59 45.44 3.59 50.78 3.59" class="primitive"/>
          </g>
          <g transform="translate(75.76,75.13)" id="img-33143d8b-99" stroke="#00B4BC" stroke-dasharray="none" class="color_12">
            <path fill="none" d="M-50.78,3.59 L -45.44 3.59 -40.09 3.59 -34.75 3.59 -29.4 -11.77 -24.05 -12.63 -18.71 -29.3 -13.36 -3.67 -8.02 3.59 -2.67 3.59 2.67 3.59 8.02 3.59 13.36 3.59 18.71 3.59 24.05 3.59 29.4 3.59 34.75 3.59 40.09 3.59 45.44 3.59 50.78 3.59" class="primitive"/>
          </g>
          <g transform="translate(75.76,75.13)" id="img-33143d8b-100" stroke="#6299FF" stroke-dasharray="none" class="color_13">
            <path fill="none" d="M-50.78,-36.05 L -45.44 -28.49 -40.09 3.59 -34.75 3.59 -29.4 3.59 -24.05 3.59 -18.71 3.59 -13.36 3.59 -8.02 3.59 -2.67 3.59 2.67 3.59 8.02 3.59 13.36 3.59 18.71 3.59 24.05 3.59 29.4 3.59 34.75 3.59 40.09 3.59 45.44 3.59 50.78 3.59" class="primitive"/>
          </g>
          <g transform="translate(75.76,75.13)" id="img-33143d8b-101" stroke="#00E4FF" stroke-dasharray="none" class="color_14">
            <path fill="none" d="M-50.78,3.59 L -45.44 3.59 -40.09 3.59 -34.75 3.59 -29.4 3.59 -24.05 3.59 -18.71 3.59 -13.36 3.59 -8.02 -10.75 -2.67 -29.39 2.67 -9.53 8.02 -7.7 13.36 3.59 18.71 3.59 24.05 3.59 29.4 3.59 34.75 3.59 40.09 3.59 45.44 3.59 50.78 3.59" class="primitive"/>
          </g>
          <g transform="translate(75.76,75.13)" id="img-33143d8b-102" stroke="#C39800" stroke-dasharray="none" class="color_15">
            <path fill="none" d="M-50.78,-10.63 L -45.44 -53.91 -40.09 3.59 -34.75 3.59 -29.4 3.59 -24.05 3.59 -18.71 3.59 -13.36 3.59 -8.02 3.59 -2.67 3.59 2.67 3.59 8.02 3.59 13.36 3.59 18.71 3.59 24.05 3.59 29.4 3.59 34.75 3.59 40.09 3.59 45.44 3.59 50.78 3.59" class="primitive"/>
          </g>
          <g transform="translate(75.76,75.13)" id="img-33143d8b-103" stroke="#FF93A4" stroke-dasharray="none" class="color_16">
            <path fill="none" d="M-50.78,3.59 L -45.44 -1.1 -40.09 -40.02 -34.75 -19.83 -29.4 3.59 -24.05 3.59 -18.71 3.59 -13.36 3.59 -8.02 3.59 -2.67 3.59 2.67 3.59 8.02 3.59 13.36 3.59 18.71 3.59 24.05 3.59 29.4 3.59 34.75 3.59 40.09 3.59 45.44 3.59 50.78 3.59" class="primitive"/>
          </g>
          <g transform="translate(75.76,75.13)" id="img-33143d8b-104" stroke="#32B44E" stroke-dasharray="none" class="color_17">
            <path fill="none" d="M-50.78,3.59 L -45.44 3.59 -40.09 3.56 -34.75 -4.39 -29.4 -54.93 -24.05 -1.61 -18.71 3.59 -13.36 3.59 -8.02 3.59 -2.67 3.59 2.67 3.59 8.02 3.59 13.36 3.59 18.71 3.59 24.05 3.59 29.4 3.59 34.75 3.59 40.09 3.59 45.44 3.59 50.78 3.59" class="primitive"/>
          </g>
          <g transform="translate(75.76,75.13)" id="img-33143d8b-105" stroke="#9E9E9E" stroke-dasharray="none" class="color_18">
            <path fill="none" d="M-50.78,3.59 L -45.44 3.59 -40.09 3.59 -34.75 3.59 -29.4 3.59 -24.05 3.59 -18.71 2.03 -13.36 -6.69 -8.02 -56.3 -2.67 3.59 2.67 3.59 8.02 3.59 13.36 3.59 18.71 3.59 24.05 3.59 29.4 3.59 34.75 3.59 40.09 3.59 45.44 3.59 50.78 3.59" class="primitive"/>
          </g>
          <g transform="translate(75.76,75.13)" id="img-33143d8b-106" stroke="#00E5B2" stroke-dasharray="none" class="color_19">
            <path fill="none" d="M-50.78,3.59 L -45.44 3.59 -40.09 3.59 -34.75 3.59 -29.4 3.59 -24.05 3.59 -18.71 3.56 -13.36 -7.29 -8.02 -19.8 -2.67 -33.84 2.67 3.59 8.02 3.59 13.36 3.59 18.71 3.59 24.05 3.59 29.4 3.59 34.75 3.59 40.09 3.59 45.44 3.59 50.78 3.59" class="primitive"/>
          </g>
          <g transform="translate(75.76,75.13)" id="img-33143d8b-107" stroke="#FFA9F6" stroke-dasharray="none" class="color_20">
            <path fill="none" d="M-50.78,3.59 L -45.44 3.59 -40.09 3.59 -34.75 3.59 -29.4 3.59 -24.05 3.59 -18.71 3.59 -13.36 3.59 -8.02 -6.75 -2.67 -54.87 2.67 0.66 8.02 3.59 13.36 3.59 18.71 3.59 24.05 3.59 29.4 3.59 34.75 3.59 40.09 3.59 45.44 3.59 50.78 3.59" class="primitive"/>
          </g>
          <g transform="translate(75.76,75.13)" id="img-33143d8b-108" stroke="#FFAA89" stroke-dasharray="none" class="color_21">
            <path fill="none" d="M-50.78,3.59 L -45.44 3.59 -40.09 3.59 -34.75 3.59 -29.4 3.59 -24.05 3.59 -18.71 1.58 -13.36 -18.25 -8.02 -35.93 -2.67 -4.78 2.67 3.59 8.02 3.59 13.36 3.59 18.71 3.59 24.05 3.59 29.4 3.59 34.75 3.59 40.09 3.59 45.44 3.59 50.78 3.59" class="primitive"/>
          </g>
          <g transform="translate(75.76,75.13)" id="img-33143d8b-109" stroke="#82CAFF" stroke-dasharray="none" class="color_22">
            <path fill="none" d="M-50.78,3.59 L -45.44 3.59 -40.09 3.59 -34.75 1.82 -29.4 -6.21 -24.05 -34.91 -18.71 -18.07 -13.36 3.59 -8.02 3.59 -2.67 3.59 2.67 3.59 8.02 3.59 13.36 3.59 18.71 3.59 24.05 3.59 29.4 3.59 34.75 3.59 40.09 3.59 45.44 3.59 50.78 3.59" class="primitive"/>
          </g>
          <g transform="translate(75.76,75.13)" id="img-33143d8b-110" stroke="#00BBAA" stroke-dasharray="none" class="color_23">
            <path fill="none" d="M-50.78,3.59 L -45.44 3.59 -40.09 3.59 -34.75 3.59 -29.4 3.59 -24.05 3.59 -18.71 3.59 -13.36 -2.21 -8.02 -15.17 -2.67 -5.67 2.67 -34.32 8.02 3.59 13.36 3.59 18.71 3.59 24.05 3.59 29.4 3.59 34.75 3.59 40.09 3.59 45.44 3.59 50.78 3.59" class="primitive"/>
          </g>
          <g transform="translate(75.76,75.13)" id="img-33143d8b-111" stroke="#A08CFF" stroke-dasharray="none" class="color_24">
            <path fill="none" d="M-50.78,3.59 L -45.44 3.59 -40.09 3.59 -34.75 3.59 -29.4 3.59 -24.05 3.59 -18.71 3.59 -13.36 3.59 -8.02 3.59 -2.67 3.59 2.67 0.48 8.02 -13.56 13.36 -47.88 18.71 3.59 24.05 3.59 29.4 3.59 34.75 3.59 40.09 3.59 45.44 3.59 50.78 3.59" class="primitive"/>
          </g>
          <g transform="translate(75.76,75.13)" id="img-33143d8b-112" stroke="#00D485" stroke-dasharray="none" class="color_25">
            <path fill="none" d="M-50.78,3.59 L -45.44 3.59 -40.09 3.59 -34.75 3.59 -29.4 3.59 -24.05 3.59 -18.71 3.59 -13.36 3.59 -8.02 3.59 -2.67 3.59 2.67 1.94 8.02 -7.2 13.36 -55.7 18.71 3.59 24.05 3.59 29.4 3.59 34.75 3.59 40.09 3.59 45.44 3.59 50.78 3.59" class="primitive"/>
          </g>
          <g transform="translate(75.76,75.13)" id="img-33143d8b-113" stroke="#BCCF6F" stroke-dasharray="none" class="color_26">
            <path fill="none" d="M-50.78,3.59 L -45.44 3.59 -40.09 3.59 -34.75 3.59 -29.4 1.88 -24.05 -13.2 -18.71 -49.64 -13.36 3.59 -8.02 3.59 -2.67 3.59 2.67 3.59 8.02 3.59 13.36 3.59 18.71 3.59 24.05 3.59 29.4 3.59 34.75 3.59 40.09 3.59 45.44 3.59 50.78 3.59" class="primitive"/>
          </g>
          <g transform="translate(75.76,75.13)" id="img-33143d8b-114" stroke="#FFA0C8" stroke-dasharray="none" class="color_27">
            <path fill="none" d="M-50.78,3.59 L -45.44 3.59 -40.09 3.59 -34.75 3.59 -29.4 3.59 -24.05 3.59 -18.71 3.59 -13.36 3.14 -8.02 -11.35 -2.67 -52.75 2.67 3.59 8.02 3.59 13.36 3.59 18.71 3.59 24.05 3.59 29.4 3.59 34.75 3.59 40.09 3.59 45.44 3.59 50.78 3.59" class="primitive"/>
          </g>
          <g transform="translate(75.76,75.13)" id="img-33143d8b-115" stroke="#FF5F82" stroke-dasharray="none" class="color_28">
            <path fill="none" d="M-50.78,3.59 L -45.44 3.59 -40.09 3.59 -34.75 3.59 -29.4 3.59 -24.05 3.59 -18.71 3.59 -13.36 3.59 -8.02 3.59 -2.67 2.45 2.67 -10.48 8.02 -52.78 13.36 3.44 18.71 3.59 24.05 3.59 29.4 3.59 34.75 3.59 40.09 3.59 45.44 3.59 50.78 3.59" class="primitive"/>
          </g>
          <g transform="translate(75.76,75.13)" id="img-33143d8b-116" stroke="#C483E9" stroke-dasharray="none" class="color_29">
            <path fill="none" d="M-50.78,3.02 L -45.44 -47.76 -40.09 -16.22 -34.75 3.59 -29.4 3.59 -24.05 3.59 -18.71 3.59 -13.36 3.59 -8.02 3.59 -2.67 3.59 2.67 3.59 8.02 3.59 13.36 3.59 18.71 3.59 24.05 3.59 29.4 3.59 34.75 3.59 40.09 3.59 45.44 3.59 50.78 3.59" class="primitive"/>
          </g>
        </g>
      </g>
    </g>
  </g>
  <g class="guide ylabels" font-size="2.82" font-family="'PT Sans Caption','Helvetica Neue','Helvetica',sans-serif" fill="#6C606B" id="img-33143d8b-117">
    <g transform="translate(19.3,78.71)" id="img-33143d8b-118">
      <g class="primitive">
        <text text-anchor="end" dy="0.35em">0.00</text>
      </g>
    </g>
    <g transform="translate(19.3,60.79)" id="img-33143d8b-119">
      <g class="primitive">
        <text text-anchor="end" dy="0.35em">0.25</text>
      </g>
    </g>
    <g transform="translate(19.3,42.86)" id="img-33143d8b-120">
      <g class="primitive">
        <text text-anchor="end" dy="0.35em">0.50</text>
      </g>
    </g>
    <g transform="translate(19.3,24.93)" id="img-33143d8b-121">
      <g class="primitive">
        <text text-anchor="end" dy="0.35em">0.75</text>
      </g>
    </g>
    <g transform="translate(19.3,7)" id="img-33143d8b-122">
      <g class="primitive">
        <text text-anchor="end" dy="0.35em">1.00</text>
      </g>
    </g>
  </g>
  <g font-size="3.88" font-family="'PT Sans','Helvetica Neue','Helvetica',sans-serif" fill="#564A55" stroke="#000000" stroke-opacity="0.000" id="img-33143d8b-123">
    <g transform="translate(8.81,40.86)" id="img-33143d8b-124">
      <g class="primitive">
        <text text-anchor="middle" dy="0.35em" transform="rotate(-90,0, 2)">Frequencia</text>
      </g>
    </g>
  </g>
</g>
<defs>
  <clipPath id="img-33143d8b-71">
    <path d="M20.3,5 L 131.21 5 131.21 80.72 20.3 80.72" />
  </clipPath>
</defs>
</svg>
