<?xml version="1.0" encoding="UTF-8"?>
<svg xmlns="http://www.w3.org/2000/svg"
     xmlns:xlink="http://www.w3.org/1999/xlink"
     xmlns:gadfly="http://www.gadflyjl.org/ns"
     version="1.2"
     width="150mm" height="100mm" viewBox="0 0 150 100"
     stroke="none"
     fill="#000000"
     stroke-width="0.3"
     font-size="3.88"
>
<defs>
  <marker id="arrow" markerWidth="15" markerHeight="7" refX="5" refY="3.5" orient="auto" markerUnits="strokeWidth">
    <path d="M0,0 L15,3.5 L0,7 z" stroke="context-stroke" fill="context-stroke"/>
  </marker>
</defs>
<g class="plotroot xscalable yscalable" id="img-f14bc1fc-1">
  <g font-size="3.88" font-family="'PT Sans','Helvetica Neue','Helvetica',sans-serif" fill="#564A55" stroke="#000000" stroke-opacity="0.000" id="img-f14bc1fc-2">
    <g transform="translate(79.98,88.39)">
      <g class="primitive">
        <text text-anchor="middle" dy="0.6em">Appearence</text>
      </g>
    </g>
  </g>
  <g class="guide xlabels" font-size="2.82" font-family="'PT Sans Caption','Helvetica Neue','Helvetica',sans-serif" fill="#6C606B" id="img-f14bc1fc-3">
    <g transform="translate(22.31,81.72)">
      <g class="primitive">
        <text text-anchor="middle" dy="0.6em">0.0</text>
      </g>
    </g>
    <g transform="translate(79.98,81.72)">
      <g class="primitive">
        <text text-anchor="middle" dy="0.6em">0.5</text>
      </g>
    </g>
    <g transform="translate(137.65,81.72)">
      <g class="primitive">
        <text text-anchor="middle" dy="0.6em">1.0</text>
      </g>
    </g>
  </g>
  <g class="guide colorkey" id="img-f14bc1fc-4">
    <g fill="#4C404B" font-size="2.82" font-family="'PT Sans','Helvetica Neue','Helvetica',sans-serif" id="img-f14bc1fc-5">
      <g transform="translate(143.46,41.04)" id="img-f14bc1fc-6" class="color_0">
        <g class="primitive">
          <text dy="0.35em">0</text>
        </g>
      </g>
      <g transform="translate(143.46,44.67)" id="img-f14bc1fc-7" class="color_1">
        <g class="primitive">
          <text dy="0.35em">1</text>
        </g>
      </g>
      <g transform="translate(143.46,48.3)" id="img-f14bc1fc-8" class="color_2">
        <g class="primitive">
          <text dy="0.35em">2</text>
        </g>
      </g>
    </g>
    <g stroke="#000000" stroke-opacity="0.000" id="img-f14bc1fc-9">
      <g transform="translate(141.55,41.04)" id="img-f14bc1fc-10" fill="#00BFFF" class="color_0">
        <path d="M-0.91,-0.91 L 0.91 -0.91 0.91 0.91 -0.91 0.91 z" class="primitive"/>
      </g>
      <g transform="translate(141.55,44.67)" id="img-f14bc1fc-11" fill="#D4CA3A" class="color_1">
        <path d="M-0.91,-0.91 L 0.91 -0.91 0.91 0.91 -0.91 0.91 z" class="primitive"/>
      </g>
      <g transform="translate(141.55,48.3)" id="img-f14bc1fc-12" fill="#FF6DAE" class="color_2">
        <path d="M-0.91,-0.91 L 0.91 -0.91 0.91 0.91 -0.91 0.91 z" class="primitive"/>
      </g>
    </g>
    <g fill="#362A35" font-size="3.88" font-family="'PT Sans','Helvetica Neue','Helvetica',sans-serif" stroke="#000000" stroke-opacity="0.000" id="img-f14bc1fc-13">
      <g transform="translate(140.65,37.22)" id="img-f14bc1fc-14">
        <g class="primitive">
          <text>n</text>
        </g>
      </g>
    </g>
  </g>
  <g clip-path="url(#img-f14bc1fc-15)">
    <g id="img-f14bc1fc-16">
      <g pointer-events="visible" fill="#000000" fill-opacity="0.000" stroke="#000000" stroke-opacity="0.000" class="guide background" id="img-f14bc1fc-17">
        <g transform="translate(79.98,42.86)" id="img-f14bc1fc-18">
          <path d="M-59.67,-37.86 L 59.67 -37.86 59.67 37.86 -59.67 37.86 z" class="primitive"/>
        </g>
      </g>
      <g class="guide ygridlines xfixed" stroke-dasharray="0.5,0.5" stroke-width="0.2" stroke="#D0D0E0" id="img-f14bc1fc-19">
        <g transform="translate(79.98,78.72)" id="img-f14bc1fc-20">
          <path fill="none" d="M-59.67,0 L 59.67 0" class="primitive"/>
        </g>
        <g transform="translate(79.98,60.79)" id="img-f14bc1fc-21">
          <path fill="none" d="M-59.67,0 L 59.67 0" class="primitive"/>
        </g>
        <g transform="translate(79.98,42.86)" id="img-f14bc1fc-22">
          <path fill="none" d="M-59.67,0 L 59.67 0" class="primitive"/>
        </g>
        <g transform="translate(79.98,24.93)" id="img-f14bc1fc-23">
          <path fill="none" d="M-59.67,0 L 59.67 0" class="primitive"/>
        </g>
        <g transform="translate(79.98,7)" id="img-f14bc1fc-24">
          <path fill="none" d="M-59.67,0 L 59.67 0" class="primitive"/>
        </g>
      </g>
      <g class="guide xgridlines yfixed" stroke-dasharray="0.5,0.5" stroke-width="0.2" stroke="#D0D0E0" id="img-f14bc1fc-25">
        <g transform="translate(22.31,42.86)" id="img-f14bc1fc-26">
          <path fill="none" d="M0,-37.86 L 0 37.86" class="primitive"/>
        </g>
        <g transform="translate(79.98,42.86)" id="img-f14bc1fc-27">
          <path fill="none" d="M0,-37.86 L 0 37.86" class="primitive"/>
        </g>
        <g transform="translate(137.65,42.86)" id="img-f14bc1fc-28">
          <path fill="none" d="M0,-37.86 L 0 37.86" class="primitive"/>
        </g>
      </g>
      <g class="plotpanel" id="img-f14bc1fc-29">
        <metadata>
          <boundingbox value="20.305000000000007mm 5.0mm 119.34166666666667mm 75.715mm"/>
          <unitbox value="-0.017339787587602053 0.2055776336889075 1.034679575175204 -0.21115526737781498"/>
        </metadata>
        <g stroke-width="0.3" fill="#000000" fill-opacity="0.000" class="geometry" id="img-f14bc1fc-30">
          <g transform="translate(79.98,60.79)" id="img-f14bc1fc-31" stroke="#00BFFF" stroke-dasharray="none" class="color_0">
            <path fill="none" d="M-54.79,17.91 L -49.02 17.88 -43.25 17.68 -37.49 17.39 -31.72 14.97 -25.95 10.3 -20.18 0.5 -14.42 -14.05 -8.65 -32.38 -2.88 -49.6 2.88 -52.48 8.65 -32.75 14.42 -13.39 20.18 1.18 25.95 10.63 31.72 15.52 37.49 17.17 43.25 17.71 49.02 17.89 54.79 17.93" class="primitive"/>
          </g>
          <g transform="translate(79.98,60.79)" id="img-f14bc1fc-32" stroke="#D4CA3A" stroke-dasharray="none" class="color_1">
            <path fill="none" d="M-54.79,17.91 L -49.02 17.9 -43.25 17.77 -37.49 16.98 -31.72 14.6 -25.95 9.76 -20.18 0.98 -14.42 -14.98 -8.65 -32.84 -2.88 -51.38 2.88 -44.58 8.65 -33.36 14.42 -14.78 20.18 0.39 25.95 9.96 31.72 14.94 37.49 17.07 43.25 17.83 49.02 17.91 54.79 17.93" class="primitive"/>
          </g>
          <g transform="translate(79.98,60.79)" id="img-f14bc1fc-33" stroke="#FF6DAE" stroke-dasharray="none" class="color_2">
            <path fill="none" d="M-54.79,17.93 L -49.02 17.86 -43.25 17.71 -37.49 16.74 -31.72 15.55 -25.95 10.79 -20.18 -0.6 -14.42 -16.44 -8.65 -31.87 -2.88 -51.16 2.88 -44.56 8.65 -31.11 14.42 -16.55 20.18 -0.56 25.95 10.45 31.72 15.14 37.49 17.14 43.25 17.71 49.02 17.9 54.79 17.93" class="primitive"/>
          </g>
        </g>
      </g>
    </g>
  </g>
  <g class="guide ylabels" font-size="2.82" font-family="'PT Sans Caption','Helvetica Neue','Helvetica',sans-serif" fill="#6C606B" id="img-f14bc1fc-34">
    <g transform="translate(19.3,78.72)" id="img-f14bc1fc-35">
      <g class="primitive">
        <text text-anchor="end" dy="0.35em">0.00</text>
      </g>
    </g>
    <g transform="translate(19.3,60.79)" id="img-f14bc1fc-36">
      <g class="primitive">
        <text text-anchor="end" dy="0.35em">0.05</text>
      </g>
    </g>
    <g transform="translate(19.3,42.86)" id="img-f14bc1fc-37">
      <g class="primitive">
        <text text-anchor="end" dy="0.35em">0.10</text>
      </g>
    </g>
    <g transform="translate(19.3,24.93)" id="img-f14bc1fc-38">
      <g class="primitive">
        <text text-anchor="end" dy="0.35em">0.15</text>
      </g>
    </g>
    <g transform="translate(19.3,7)" id="img-f14bc1fc-39">
      <g class="primitive">
        <text text-anchor="end" dy="0.35em">0.20</text>
      </g>
    </g>
  </g>
  <g font-size="3.88" font-family="'PT Sans','Helvetica Neue','Helvetica',sans-serif" fill="#564A55" stroke="#000000" stroke-opacity="0.000" id="img-f14bc1fc-40">
    <g transform="translate(8.81,40.86)" id="img-f14bc1fc-41">
      <g class="primitive">
        <text text-anchor="middle" dy="0.35em" transform="rotate(-90,0, 2)">Frequencia</text>
      </g>
    </g>
  </g>
</g>
<defs>
  <clipPath id="img-f14bc1fc-15">
    <path d="M20.31,5 L 139.65 5 139.65 80.72 20.31 80.72" />
  </clipPath>
</defs>
</svg>
