<?xml version="1.0" encoding="UTF-8"?>
<svg xmlns="http://www.w3.org/2000/svg"
     xmlns:xlink="http://www.w3.org/1999/xlink"
     xmlns:gadfly="http://www.gadflyjl.org/ns"
     version="1.2"
     width="150mm" height="100mm" viewBox="0 0 150 100"
     stroke="none"
     fill="#000000"
     stroke-width="0.3"
     font-size="3.88"
>
<defs>
  <marker id="arrow" markerWidth="15" markerHeight="7" refX="5" refY="3.5" orient="auto" markerUnits="strokeWidth">
    <path d="M0,0 L15,3.5 L0,7 z" stroke="context-stroke" fill="context-stroke"/>
  </marker>
</defs>
<g class="plotroot xscalable yscalable" id="img-bba86f57-1">
  <g font-size="3.88" font-family="'PT Sans','Helvetica Neue','Helvetica',sans-serif" fill="#564A55" stroke="#000000" stroke-opacity="0.000" id="img-bba86f57-2">
    <g transform="translate(77.26,88.39)">
      <g class="primitive">
        <text text-anchor="middle" dy="0.6em">Time</text>
      </g>
    </g>
  </g>
  <g class="guide xlabels" font-size="2.82" font-family="'PT Sans Caption','Helvetica Neue','Helvetica',sans-serif" fill="#6C606B" id="img-bba86f57-3">
    <g transform="translate(19.96,81.72)">
      <g class="primitive">
        <text text-anchor="middle" dy="0.6em">0</text>
      </g>
    </g>
    <g transform="translate(77.26,81.72)">
      <g class="primitive">
        <text text-anchor="middle" dy="0.6em">500</text>
      </g>
    </g>
    <g transform="translate(134.57,81.72)">
      <g class="primitive">
        <text text-anchor="middle" dy="0.6em">1000</text>
      </g>
    </g>
  </g>
  <g class="guide colorkey" id="img-bba86f57-4">
    <g fill="#4C404B" font-size="2.82" font-family="'PT Sans','Helvetica Neue','Helvetica',sans-serif" id="img-bba86f57-5">
      <g transform="translate(140.38,35.6)" id="img-bba86f57-6" class="color_25">
        <g class="primitive">
          <text dy="0.35em">25</text>
        </g>
      </g>
      <g transform="translate(140.38,39.23)" id="img-bba86f57-7" class="color_36">
        <g class="primitive">
          <text dy="0.35em">36</text>
        </g>
      </g>
      <g transform="translate(140.38,42.86)" id="img-bba86f57-8" class="color_49">
        <g class="primitive">
          <text dy="0.35em">49</text>
        </g>
      </g>
      <g transform="translate(140.38,46.48)" id="img-bba86f57-9" class="color_64">
        <g class="primitive">
          <text dy="0.35em">64</text>
        </g>
      </g>
      <g transform="translate(140.38,50.11)" id="img-bba86f57-10" class="color_81">
        <g class="primitive">
          <text dy="0.35em">81</text>
        </g>
      </g>
      <g transform="translate(140.38,53.74)" id="img-bba86f57-11" class="color_100">
        <g class="primitive">
          <text dy="0.35em">100</text>
        </g>
      </g>
    </g>
    <g stroke="#000000" stroke-opacity="0.000" id="img-bba86f57-12">
      <g transform="translate(138.47,35.6)" id="img-bba86f57-13" fill="#00BFFF" class="color_25">
        <path d="M-0.91,-0.91 L 0.91 -0.91 0.91 0.91 -0.91 0.91 z" class="primitive"/>
      </g>
      <g transform="translate(138.47,39.23)" id="img-bba86f57-14" fill="#D4CA3A" class="color_36">
        <path d="M-0.91,-0.91 L 0.91 -0.91 0.91 0.91 -0.91 0.91 z" class="primitive"/>
      </g>
      <g transform="translate(138.47,42.86)" id="img-bba86f57-15" fill="#FF6DAE" class="color_49">
        <path d="M-0.91,-0.91 L 0.91 -0.91 0.91 0.91 -0.91 0.91 z" class="primitive"/>
      </g>
      <g transform="translate(138.47,46.48)" id="img-bba86f57-16" fill="#00B78D" class="color_64">
        <path d="M-0.91,-0.91 L 0.91 -0.91 0.91 0.91 -0.91 0.91 z" class="primitive"/>
      </g>
      <g transform="translate(138.47,50.11)" id="img-bba86f57-17" fill="#BEA9FF" class="color_81">
        <path d="M-0.91,-0.91 L 0.91 -0.91 0.91 0.91 -0.91 0.91 z" class="primitive"/>
      </g>
      <g transform="translate(138.47,53.74)" id="img-bba86f57-18" fill="#FF6765" class="color_100">
        <path d="M-0.91,-0.91 L 0.91 -0.91 0.91 0.91 -0.91 0.91 z" class="primitive"/>
      </g>
    </g>
    <g fill="#362A35" font-size="3.88" font-family="'PT Sans','Helvetica Neue','Helvetica',sans-serif" stroke="#000000" stroke-opacity="0.000" id="img-bba86f57-19">
      <g transform="translate(137.57,31.78)" id="img-bba86f57-20">
        <g class="primitive">
          <text>L</text>
        </g>
      </g>
    </g>
  </g>
  <g clip-path="url(#img-bba86f57-21)">
    <g id="img-bba86f57-22">
      <g pointer-events="visible" fill="#000000" fill-opacity="0.000" stroke="#000000" stroke-opacity="0.000" class="guide background" id="img-bba86f57-23">
        <g transform="translate(77.26,42.86)" id="img-bba86f57-24">
          <path d="M-59.3,-37.86 L 59.3 -37.86 59.3 37.86 -59.3 37.86 z" class="primitive"/>
        </g>
      </g>
      <g class="guide ygridlines xfixed" stroke-dasharray="0.5,0.5" stroke-width="0.2" stroke="#D0D0E0" id="img-bba86f57-25">
        <g transform="translate(77.26,78.71)" id="img-bba86f57-26">
          <path fill="none" d="M-59.3,0 L 59.3 0" class="primitive"/>
        </g>
        <g transform="translate(77.26,64.37)" id="img-bba86f57-27">
          <path fill="none" d="M-59.3,0 L 59.3 0" class="primitive"/>
        </g>
        <g transform="translate(77.26,50.03)" id="img-bba86f57-28">
          <path fill="none" d="M-59.3,0 L 59.3 0" class="primitive"/>
        </g>
        <g transform="translate(77.26,35.69)" id="img-bba86f57-29">
          <path fill="none" d="M-59.3,0 L 59.3 0" class="primitive"/>
        </g>
        <g transform="translate(77.26,21.34)" id="img-bba86f57-30">
          <path fill="none" d="M-59.3,0 L 59.3 0" class="primitive"/>
        </g>
        <g transform="translate(77.26,7)" id="img-bba86f57-31">
          <path fill="none" d="M-59.3,0 L 59.3 0" class="primitive"/>
        </g>
      </g>
      <g class="guide xgridlines yfixed" stroke-dasharray="0.5,0.5" stroke-width="0.2" stroke="#D0D0E0" id="img-bba86f57-32">
        <g transform="translate(19.96,42.86)" id="img-bba86f57-33">
          <path fill="none" d="M0,-37.86 L 0 37.86" class="primitive"/>
        </g>
        <g transform="translate(77.26,42.86)" id="img-bba86f57-34">
          <path fill="none" d="M0,-37.86 L 0 37.86" class="primitive"/>
        </g>
        <g transform="translate(134.57,42.86)" id="img-bba86f57-35">
          <path fill="none" d="M0,-37.86 L 0 37.86" class="primitive"/>
        </g>
      </g>
      <g class="plotpanel" id="img-bba86f57-36">
        <metadata>
          <boundingbox value="17.95833333333333mm 5.0mm 118.60833333333333mm 75.715mm"/>
          <unitbox value="-17.450738020795466 51.39440842222687 1034.901476041591 -52.78881684445375"/>
        </metadata>
        <g stroke-width="0.3" fill="#000000" fill-opacity="0.000" class="geometry" id="img-bba86f57-37">
          <g transform="translate(76.69,74.36)" id="img-bba86f57-38" stroke="#00BFFF" stroke-dasharray="none" class="color_25">
            <path fill="none" d="M-56.73,-24.04 L -55.59 -9.77 -54.44 -1.3 -53.29 -0.01 -52.15 0.22 -51 0.29 -49.85 0.32 -48.71 0.32 -47.56 0.33 -46.42 0.33 -45.27 0.33 -44.12 0.33 -42.98 0.33 -41.83 0.33 -40.69 0.33 -39.54 0.34 -38.39 0.34 -37.25 0.34 -36.1 0.34 -34.96 0.34 -33.81 0.34 -32.66 0.34 -31.52 0.34 -30.37 0.34 -29.23 0.34 -28.08 0.34 -26.93 0.35 -25.79 0.35 -24.64 0.35 -23.49 0.35 -22.35 0.35 -21.2 0.35 -20.06 0.35 -18.91 0.35 -17.76 0.35 -16.62 0.35 -15.47 0.35 -14.33 0.36 -13.18 0.36 -12.03 0.36 -10.89 0.36 -9.74 0.36 -8.6 0.36 -7.45 0.36 -6.3 0.36 -5.16 0.36 -4.01 0.36 -2.87 0.36 -1.72 0.36 -0.57 0.36 0.57 0.36 1.72 0.36 2.87 0.36 4.01 0.36 5.16 0.36 6.3 0.37 7.45 0.37 8.6 0.37 9.74 0.37 10.89 0.37 12.03 0.37 13.18 0.37 14.33 0.37 15.47 0.37 16.62 0.38 17.76 0.38 18.91 0.38 20.06 0.38 21.2 0.38 22.35 0.38 23.49 0.38 24.64 0.38 25.79 0.38 26.93 0.38 28.08 0.38 29.23 0.38 30.37 0.38 31.52 0.39 32.66 0.39 33.81 0.39 34.96 0.4 36.1 0.4 37.25 0.4 38.39 0.4 39.54 0.4 40.69 0.4 41.83 0.41 42.98 0.41 44.12 0.41 45.27 0.41 46.42 0.41 47.56 0.41 48.71 0.41 49.85 0.41 51 0.41 52.15 0.42 53.29 0.42 54.44 0.42 55.59 0.42 56.73 0.42" class="primitive"/>
          </g>
          <g transform="translate(76.69,73.5)" id="img-bba86f57-39" stroke="#D4CA3A" stroke-dasharray="none" class="color_36">
            <path fill="none" d="M-56.73,-31.81 L -55.59 -18.77 -54.44 -7.48 -53.29 -1.14 -52.15 0.16 -51 0.44 -49.85 0.53 -48.71 0.56 -47.56 0.58 -46.42 0.58 -45.27 0.59 -44.12 0.59 -42.98 0.59 -41.83 0.6 -40.69 0.6 -39.54 0.6 -38.39 0.6 -37.25 0.6 -36.1 0.6 -34.96 0.6 -33.81 0.6 -32.66 0.61 -31.52 0.61 -30.37 0.61 -29.23 0.61 -28.08 0.61 -26.93 0.61 -25.79 0.61 -24.64 0.61 -23.49 0.61 -22.35 0.61 -21.2 0.61 -20.06 0.61 -18.91 0.61 -17.76 0.61 -16.62 0.61 -15.47 0.61 -14.33 0.61 -13.18 0.62 -12.03 0.62 -10.89 0.62 -9.74 0.62 -8.6 0.62 -7.45 0.62 -6.3 0.62 -5.16 0.62 -4.01 0.62 -2.87 0.62 -1.72 0.62 -0.57 0.62 0.57 0.62 1.72 0.62 2.87 0.63 4.01 0.63 5.16 0.63 6.3 0.63 7.45 0.63 8.6 0.63 9.74 0.63 10.89 0.63 12.03 0.63 13.18 0.63 14.33 0.63 15.47 0.63 16.62 0.63 17.76 0.63 18.91 0.63 20.06 0.63 21.2 0.64 22.35 0.64 23.49 0.64 24.64 0.64 25.79 0.64 26.93 0.64 28.08 0.64 29.23 0.64 30.37 0.64 31.52 0.64 32.66 0.64 33.81 0.64 34.96 0.64 36.1 0.64 37.25 0.64 38.39 0.64 39.54 0.65 40.69 0.65 41.83 0.65 42.98 0.65 44.12 0.65 45.27 0.65 46.42 0.65 47.56 0.65 48.71 0.65 49.85 0.65 51 0.65 52.15 0.65 53.29 0.65 54.44 0.65 55.59 0.65 56.73 0.66" class="primitive"/>
          </g>
          <g transform="translate(76.69,72.49)" id="img-bba86f57-40" stroke="#FF6DAE" stroke-dasharray="none" class="color_49">
            <path fill="none" d="M-56.73,-38.76 L -55.59 -27.13 -54.44 -16.54 -53.29 -7.07 -52.15 -1.39 -51 0.27 -49.85 0.69 -48.71 0.82 -47.56 0.88 -46.42 0.91 -45.27 0.92 -44.12 0.93 -42.98 0.93 -41.83 0.93 -40.69 0.94 -39.54 0.94 -38.39 0.94 -37.25 0.94 -36.1 0.94 -34.96 0.95 -33.81 0.95 -32.66 0.95 -31.52 0.95 -30.37 0.95 -29.23 0.95 -28.08 0.95 -26.93 0.95 -25.79 0.95 -24.64 0.95 -23.49 0.95 -22.35 0.95 -21.2 0.95 -20.06 0.96 -18.91 0.96 -17.76 0.96 -16.62 0.96 -15.47 0.96 -14.33 0.96 -13.18 0.96 -12.03 0.96 -10.89 0.96 -9.74 0.96 -8.6 0.96 -7.45 0.96 -6.3 0.96 -5.16 0.97 -4.01 0.97 -2.87 0.97 -1.72 0.97 -0.57 0.97 0.57 0.97 1.72 0.97 2.87 0.97 4.01 0.97 5.16 0.97 6.3 0.97 7.45 0.97 8.6 0.97 9.74 0.97 10.89 0.97 12.03 0.97 13.18 0.97 14.33 0.97 15.47 0.97 16.62 0.98 17.76 0.98 18.91 0.98 20.06 0.98 21.2 0.98 22.35 0.98 23.49 0.98 24.64 0.98 25.79 0.98 26.93 0.98 28.08 0.98 29.23 0.98 30.37 0.98 31.52 0.98 32.66 0.98 33.81 0.98 34.96 0.99 36.1 0.99 37.25 0.99 38.39 0.99 39.54 0.99 40.69 1 41.83 1 42.98 1 44.12 1 45.27 1 46.42 1 47.56 1 48.71 1 49.85 1 51 1 52.15 1 53.29 1 54.44 1 55.59 1 56.73 1" class="primitive"/>
          </g>
          <g transform="translate(76.69,71.18)" id="img-bba86f57-41" stroke="#00B78D" stroke-dasharray="none" class="color_64">
            <path fill="none" d="M-56.73,-44.34 L -55.59 -34.25 -54.44 -24.85 -53.29 -15.92 -52.15 -7.74 -51 -2.13 -49.85 0.25 -48.71 0.93 -47.56 1.17 -46.42 1.27 -45.27 1.31 -44.12 1.33 -42.98 1.35 -41.83 1.35 -40.69 1.36 -39.54 1.36 -38.39 1.36 -37.25 1.37 -36.1 1.37 -34.96 1.37 -33.81 1.37 -32.66 1.37 -31.52 1.37 -30.37 1.37 -29.23 1.37 -28.08 1.37 -26.93 1.37 -25.79 1.38 -24.64 1.38 -23.49 1.38 -22.35 1.38 -21.2 1.38 -20.06 1.38 -18.91 1.38 -17.76 1.38 -16.62 1.38 -15.47 1.38 -14.33 1.38 -13.18 1.38 -12.03 1.38 -10.89 1.38 -9.74 1.38 -8.6 1.38 -7.45 1.38 -6.3 1.39 -5.16 1.39 -4.01 1.39 -2.87 1.39 -1.72 1.39 -0.57 1.39 0.57 1.39 1.72 1.39 2.87 1.39 4.01 1.39 5.16 1.39 6.3 1.39 7.45 1.39 8.6 1.39 9.74 1.4 10.89 1.4 12.03 1.4 13.18 1.4 14.33 1.4 15.47 1.4 16.62 1.4 17.76 1.4 18.91 1.4 20.06 1.4 21.2 1.41 22.35 1.41 23.49 1.41 24.64 1.41 25.79 1.41 26.93 1.41 28.08 1.41 29.23 1.41 30.37 1.42 31.52 1.42 32.66 1.42 33.81 1.42 34.96 1.42 36.1 1.42 37.25 1.42 38.39 1.43 39.54 1.43 40.69 1.43 41.83 1.43 42.98 1.43 44.12 1.43 45.27 1.43 46.42 1.43 47.56 1.43 48.71 1.43 49.85 1.44 51 1.44 52.15 1.44 53.29 1.44 54.44 1.44 55.59 1.44 56.73 1.44" class="primitive"/>
          </g>
          <g transform="translate(76.69,70.3)" id="img-bba86f57-42" stroke="#BEA9FF" stroke-dasharray="none" class="color_81">
            <path fill="none" d="M-56.73,-49.16 L -55.59 -40.4 -54.44 -32.06 -53.29 -24.08 -52.15 -16.38 -51 -9.19 -49.85 -3.55 -48.71 -0.34 -47.56 0.99 -46.42 1.47 -45.27 1.68 -44.12 1.78 -42.98 1.83 -41.83 1.86 -40.69 1.87 -39.54 1.88 -38.39 1.89 -37.25 1.89 -36.1 1.89 -34.96 1.9 -33.81 1.9 -32.66 1.9 -31.52 1.9 -30.37 1.91 -29.23 1.91 -28.08 1.91 -26.93 1.91 -25.79 1.91 -24.64 1.91 -23.49 1.91 -22.35 1.91 -21.2 1.91 -20.06 1.91 -18.91 1.91 -17.76 1.91 -16.62 1.91 -15.47 1.91 -14.33 1.91 -13.18 1.92 -12.03 1.92 -10.89 1.92 -9.74 1.92 -8.6 1.92 -7.45 1.92 -6.3 1.92 -5.16 1.92 -4.01 1.92 -2.87 1.92 -1.72 1.92 -0.57 1.92 0.57 1.92 1.72 1.92 2.87 1.92 4.01 1.92 5.16 1.92 6.3 1.92 7.45 1.92 8.6 1.92 9.74 1.93 10.89 1.93 12.03 1.93 13.18 1.93 14.33 1.93 15.47 1.93 16.62 1.93 17.76 1.93 18.91 1.93 20.06 1.93 21.2 1.93 22.35 1.93 23.49 1.93 24.64 1.93 25.79 1.93 26.93 1.93 28.08 1.93 29.23 1.94 30.37 1.94 31.52 1.94 32.66 1.94 33.81 1.94 34.96 1.94 36.1 1.94 37.25 1.94 38.39 1.94 39.54 1.94 40.69 1.95 41.83 1.95 42.98 1.95 44.12 1.95 45.27 1.95 46.42 1.95 47.56 1.95 48.71 1.95 49.85 1.95 51 1.95 52.15 1.95 53.29 1.95 54.44 1.95 55.59 1.96 56.73 1.96" class="primitive"/>
          </g>
          <g transform="translate(76.69,68.98)" id="img-bba86f57-43" stroke="#FF6765" stroke-dasharray="none" class="color_100">
            <path fill="none" d="M-56.73,-52.29 L -55.59 -44.84 -54.44 -37.61 -53.29 -30.63 -52.15 -23.83 -51 -17.22 -49.85 -10.91 -48.71 -5.35 -47.56 -1.42 -46.42 0.73 -45.27 1.66 -44.12 2.05 -42.98 2.25 -41.83 2.35 -40.69 2.41 -39.54 2.44 -38.39 2.45 -37.25 2.46 -36.1 2.47 -34.96 2.47 -33.81 2.48 -32.66 2.48 -31.52 2.48 -30.37 2.48 -29.23 2.48 -28.08 2.48 -26.93 2.48 -25.79 2.48 -24.64 2.49 -23.49 2.49 -22.35 2.49 -21.2 2.49 -20.06 2.49 -18.91 2.49 -17.76 2.49 -16.62 2.49 -15.47 2.49 -14.33 2.49 -13.18 2.49 -12.03 2.49 -10.89 2.49 -9.74 2.5 -8.6 2.5 -7.45 2.5 -6.3 2.5 -5.16 2.5 -4.01 2.5 -2.87 2.5 -1.72 2.5 -0.57 2.5 0.57 2.5 1.72 2.5 2.87 2.5 4.01 2.5 5.16 2.5 6.3 2.5 7.45 2.5 8.6 2.5 9.74 2.5 10.89 2.5 12.03 2.51 13.18 2.51 14.33 2.51 15.47 2.51 16.62 2.51 17.76 2.51 18.91 2.51 20.06 2.51 21.2 2.51 22.35 2.51 23.49 2.51 24.64 2.51 25.79 2.51 26.93 2.51 28.08 2.51 29.23 2.51 30.37 2.51 31.52 2.51 32.66 2.51 33.81 2.51 34.96 2.52 36.1 2.52 37.25 2.52 38.39 2.52 39.54 2.52 40.69 2.52 41.83 2.52 42.98 2.52 44.12 2.52 45.27 2.52 46.42 2.52 47.56 2.52 48.71 2.52 49.85 2.52 51 2.52 52.15 2.52 53.29 2.53 54.44 2.53 55.59 2.53 56.73 2.53" class="primitive"/>
          </g>
        </g>
      </g>
    </g>
  </g>
  <g class="guide ylabels" font-size="2.82" font-family="'PT Sans Caption','Helvetica Neue','Helvetica',sans-serif" fill="#6C606B" id="img-bba86f57-44">
    <g transform="translate(16.96,78.71)" id="img-bba86f57-45">
      <g class="primitive">
        <text text-anchor="end" dy="0.35em">0</text>
      </g>
    </g>
    <g transform="translate(16.96,64.37)" id="img-bba86f57-46">
      <g class="primitive">
        <text text-anchor="end" dy="0.35em">10</text>
      </g>
    </g>
    <g transform="translate(16.96,50.03)" id="img-bba86f57-47">
      <g class="primitive">
        <text text-anchor="end" dy="0.35em">20</text>
      </g>
    </g>
    <g transform="translate(16.96,35.69)" id="img-bba86f57-48">
      <g class="primitive">
        <text text-anchor="end" dy="0.35em">30</text>
      </g>
    </g>
    <g transform="translate(16.96,21.34)" id="img-bba86f57-49">
      <g class="primitive">
        <text text-anchor="end" dy="0.35em">40</text>
      </g>
    </g>
    <g transform="translate(16.96,7)" id="img-bba86f57-50">
      <g class="primitive">
        <text text-anchor="end" dy="0.35em">50</text>
      </g>
    </g>
  </g>
  <g font-size="3.88" font-family="'PT Sans','Helvetica Neue','Helvetica',sans-serif" fill="#564A55" stroke="#000000" stroke-opacity="0.000" id="img-bba86f57-51">
    <g transform="translate(8.81,40.86)" id="img-bba86f57-52">
      <g class="primitive">
        <text text-anchor="middle" dy="0.35em" transform="rotate(-90,0, 2)">Numero Medio de Variedades por UD</text>
      </g>
    </g>
  </g>
</g>
<defs>
  <clipPath id="img-bba86f57-21">
    <path d="M17.96,5 L 136.57 5 136.57 80.72 17.96 80.72" />
  </clipPath>
</defs>
</svg>
