<?xml version="1.0" encoding="UTF-8"?>
<svg xmlns="http://www.w3.org/2000/svg"
     xmlns:xlink="http://www.w3.org/1999/xlink"
     xmlns:gadfly="http://www.gadflyjl.org/ns"
     version="1.2"
     width="150mm" height="100mm" viewBox="0 0 150 100"
     stroke="none"
     fill="#000000"
     stroke-width="0.3"
     font-size="3.88"
>
<defs>
  <marker id="arrow" markerWidth="15" markerHeight="7" refX="5" refY="3.5" orient="auto" markerUnits="strokeWidth">
    <path d="M0,0 L15,3.5 L0,7 z" stroke="context-stroke" fill="context-stroke"/>
  </marker>
</defs>
<g class="plotroot xscalable yscalable" id="img-1564e6eb-1">
  <g font-size="3.88" font-family="'PT Sans','Helvetica Neue','Helvetica',sans-serif" fill="#564A55" stroke="#000000" stroke-opacity="0.000" id="img-1564e6eb-2">
    <g transform="translate(79.14,88.39)">
      <g class="primitive">
        <text text-anchor="middle" dy="0.6em">Tempo</text>
      </g>
    </g>
  </g>
  <g class="guide xlabels" font-size="2.82" font-family="'PT Sans Caption','Helvetica Neue','Helvetica',sans-serif" fill="#6C606B" id="img-1564e6eb-3">
    <g transform="translate(20.63,81.72)">
      <g class="primitive">
        <text text-anchor="middle" dy="0.6em">0</text>
      </g>
    </g>
    <g transform="translate(44.03,81.72)">
      <g class="primitive">
        <text text-anchor="middle" dy="0.6em">100</text>
      </g>
    </g>
    <g transform="translate(67.44,81.72)">
      <g class="primitive">
        <text text-anchor="middle" dy="0.6em">200</text>
      </g>
    </g>
    <g transform="translate(90.84,81.72)">
      <g class="primitive">
        <text text-anchor="middle" dy="0.6em">300</text>
      </g>
    </g>
    <g transform="translate(114.24,81.72)">
      <g class="primitive">
        <text text-anchor="middle" dy="0.6em">400</text>
      </g>
    </g>
    <g transform="translate(137.65,81.72)">
      <g class="primitive">
        <text text-anchor="middle" dy="0.6em">500</text>
      </g>
    </g>
  </g>
  <g class="guide colorkey" id="img-1564e6eb-4">
    <g fill="#4C404B" font-size="2.82" font-family="'PT Sans','Helvetica Neue','Helvetica',sans-serif" id="img-1564e6eb-5">
      <g transform="translate(143.46,37.42)" id="img-1564e6eb-6" class="color_4">
        <g class="primitive">
          <text dy="0.35em">4</text>
        </g>
      </g>
      <g transform="translate(143.46,41.04)" id="img-1564e6eb-7" class="color_2">
        <g class="primitive">
          <text dy="0.35em">2</text>
        </g>
      </g>
      <g transform="translate(143.46,44.67)" id="img-1564e6eb-8" class="color_3">
        <g class="primitive">
          <text dy="0.35em">3</text>
        </g>
      </g>
      <g transform="translate(143.46,48.3)" id="img-1564e6eb-9" class="color_1">
        <g class="primitive">
          <text dy="0.35em">1</text>
        </g>
      </g>
      <g transform="translate(143.46,51.92)" id="img-1564e6eb-10" class="color_0">
        <g class="primitive">
          <text dy="0.35em">0</text>
        </g>
      </g>
    </g>
    <g stroke="#000000" stroke-opacity="0.000" id="img-1564e6eb-11">
      <g transform="translate(141.55,37.42)" id="img-1564e6eb-12" fill="#00BFFF" class="color_4">
        <path d="M-0.91,-0.91 L 0.91 -0.91 0.91 0.91 -0.91 0.91 z" class="primitive"/>
      </g>
      <g transform="translate(141.55,41.04)" id="img-1564e6eb-13" fill="#D4CA3A" class="color_2">
        <path d="M-0.91,-0.91 L 0.91 -0.91 0.91 0.91 -0.91 0.91 z" class="primitive"/>
      </g>
      <g transform="translate(141.55,44.67)" id="img-1564e6eb-14" fill="#FF6DAE" class="color_3">
        <path d="M-0.91,-0.91 L 0.91 -0.91 0.91 0.91 -0.91 0.91 z" class="primitive"/>
      </g>
      <g transform="translate(141.55,48.3)" id="img-1564e6eb-15" fill="#00B78D" class="color_1">
        <path d="M-0.91,-0.91 L 0.91 -0.91 0.91 0.91 -0.91 0.91 z" class="primitive"/>
      </g>
      <g transform="translate(141.55,51.92)" id="img-1564e6eb-16" fill="#BEA9FF" class="color_0">
        <path d="M-0.91,-0.91 L 0.91 -0.91 0.91 0.91 -0.91 0.91 z" class="primitive"/>
      </g>
    </g>
    <g fill="#362A35" font-size="3.88" font-family="'PT Sans','Helvetica Neue','Helvetica',sans-serif" stroke="#000000" stroke-opacity="0.000" id="img-1564e6eb-17">
      <g transform="translate(140.65,33.6)" id="img-1564e6eb-18">
        <g class="primitive">
          <text>DU</text>
        </g>
      </g>
    </g>
  </g>
  <g clip-path="url(#img-1564e6eb-19)">
    <g id="img-1564e6eb-20">
      <g pointer-events="visible" fill="#000000" fill-opacity="0.000" stroke="#000000" stroke-opacity="0.000" class="guide background" id="img-1564e6eb-21">
        <g transform="translate(79.14,42.86)" id="img-1564e6eb-22">
          <path d="M-60.51,-37.86 L 60.51 -37.86 60.51 37.86 -60.51 37.86 z" class="primitive"/>
        </g>
      </g>
      <g class="guide ygridlines xfixed" stroke-dasharray="0.5,0.5" stroke-width="0.2" stroke="#D0D0E0" id="img-1564e6eb-23">
        <g transform="translate(79.14,78.71)" id="img-1564e6eb-24">
          <path fill="none" d="M-60.51,0 L 60.51 0" class="primitive"/>
        </g>
        <g transform="translate(79.14,54.81)" id="img-1564e6eb-25">
          <path fill="none" d="M-60.51,0 L 60.51 0" class="primitive"/>
        </g>
        <g transform="translate(79.14,30.9)" id="img-1564e6eb-26">
          <path fill="none" d="M-60.51,0 L 60.51 0" class="primitive"/>
        </g>
        <g transform="translate(79.14,7)" id="img-1564e6eb-27">
          <path fill="none" d="M-60.51,0 L 60.51 0" class="primitive"/>
        </g>
      </g>
      <g class="guide xgridlines yfixed" stroke-dasharray="0.5,0.5" stroke-width="0.2" stroke="#D0D0E0" id="img-1564e6eb-28">
        <g transform="translate(20.63,42.86)" id="img-1564e6eb-29">
          <path fill="none" d="M0,-37.86 L 0 37.86" class="primitive"/>
        </g>
        <g transform="translate(44.03,42.86)" id="img-1564e6eb-30">
          <path fill="none" d="M0,-37.86 L 0 37.86" class="primitive"/>
        </g>
        <g transform="translate(67.44,42.86)" id="img-1564e6eb-31">
          <path fill="none" d="M0,-37.86 L 0 37.86" class="primitive"/>
        </g>
        <g transform="translate(90.84,42.86)" id="img-1564e6eb-32">
          <path fill="none" d="M0,-37.86 L 0 37.86" class="primitive"/>
        </g>
        <g transform="translate(114.24,42.86)" id="img-1564e6eb-33">
          <path fill="none" d="M0,-37.86 L 0 37.86" class="primitive"/>
        </g>
        <g transform="translate(137.65,42.86)" id="img-1564e6eb-34">
          <path fill="none" d="M0,-37.86 L 0 37.86" class="primitive"/>
        </g>
      </g>
      <g class="plotpanel" id="img-1564e6eb-35">
        <metadata>
          <boundingbox value="18.63166666666666mm 5.0mm 121.01500000000001mm 75.715mm"/>
          <unitbox value="-8.545912917147373 0.30836645053336126 517.0918258342947 -0.3167329010667225"/>
        </metadata>
        <g stroke-width="0.3" fill="#000000" fill-opacity="0.000" class="geometry" id="img-1564e6eb-36">
          <g transform="translate(79.02,65.86)" id="img-1564e6eb-37" stroke-dasharray="none" stroke="#00BFFF" class="color_4">
            <path fill="none" d="M-58.39,-45.56 L -58.16 -41.89 -57.92 -40.61 -57.69 -40.61 -57.45 -40.61 -57.22 -37.09 -56.99 -37.09 -56.75 -35.76 -56.52 -35.76 -56.28 -29.76 -56.05 -28.7 -55.82 -28.47 -55.58 -26.83 -55.35 -26.83 -55.11 -26.81 -54.88 -26.81 -54.65 -26.81 -54.41 -23.71 -54.18 -19.3 -53.94 -19.3 -53.71 -10.82 -53.48 -10.82 -53.24 -9.6 -53.01 -9.6 -52.77 -9.58 -52.54 -9.58 -52.31 -6.74 -52.07 -6.68 -51.84 -5.92 -51.6 -4.13 -51.37 -3.83 -51.14 -3.83 -50.9 -9.34 -50.67 -9.34 -50.43 -9.34 -50.2 -8.5 -49.97 -8.5 -49.73 -8.5 -49.5 -8.5 -49.26 -8.5 -49.03 -8.5 -48.8 -8.5 -48.56 -8.5 -48.33 -8.5 -48.09 -8.5 -47.86 -8.5 -47.63 -8.5 -47.39 -8.5 -47.16 -8.5 -46.92 -8.5 -46.69 -8.5 -46.45 -8.5 -46.22 -8.5 -45.99 -8.5 -45.75 -8.5 -45.52 -8.5 -45.28 -8.5 -45.05 -8.5 -44.82 -8.5 -44.58 -8.5 -44.35 -8.5 -44.11 -8.5 -43.88 -8.5 -43.65 -8.5 -43.41 -8.5 -43.18 -8.5 -42.94 -8.5 -42.71 -7.18 -42.48 -7.18 -42.24 -2.57 -42.01 2.43 -41.77 2.43 -41.54 2.43 -41.31 2.43 -41.07 2.43 -40.84 2.43 -40.6 2.43 -40.37 2.43 -40.14 2.43 -39.9 2.43 -39.67 2.43 -39.43 2.43 -39.2 2.43 -38.97 2.43 -38.73 2.43 -38.5 2.43 -38.26 2.43 -38.03 2.43 -37.8 2.43 -37.56 2.43 -37.33 2.43 -37.09 2.43 -36.86 2.43 -36.63 2.43 -36.39 2.43 -36.16 2.43 -35.92 2.43 -35.69 2.43 -35.46 2.43 -35.22 2.43 -34.99 2.43 -34.75 2.43 -34.52 2.43 -34.29 2.43 -34.05 2.43 -33.82 2.43 -33.58 2.43 -33.35 2.43 -33.12 2.43 -32.88 2.43 -32.65 2.43 -32.41 2.43 -32.18 2.43 -31.95 2.43 -31.71 2.43 -31.48 2.43 -31.24 2.43 -31.01 2.43 -30.77 2.43 -30.54 2.43 -30.31 2.43 -30.07 2.43 -29.84 2.43 -29.6 2.43 -29.37 2.43 -29.14 2.43 -28.9 2.43 -28.67 2.43 -28.43 2.43 -28.2 2.43 -27.97 2.43 -27.73 2.43 -27.5 2.43 -27.26 2.43 -27.03 2.43 -26.8 2.43 -26.56 2.43 -26.33 2.43 -26.09 2.43 -25.86 2.43 -25.63 2.43 -25.39 2.43 -25.16 2.43 -24.92 2.43 -24.69 2.43 -24.46 2.43 -24.22 2.43 -23.99 2.43 -23.75 2.43 -23.52 2.43 -23.29 2.43 -23.05 2.43 -22.82 2.43 -22.58 2.43 -22.35 2.43 -22.12 2.43 -21.88 2.43 -21.65 2.43 -21.41 2.43 -21.18 2.43 -20.95 2.43 -20.71 2.43 -20.48 2.43 -20.24 2.43 -20.01 2.43 -19.78 2.43 -19.54 2.43 -19.31 2.43 -19.07 2.43 -18.84 2.43 -18.61 2.43 -18.37 2.43 -18.14 2.43 -17.9 2.43 -17.67 2.43 -17.44 2.43 -17.2 2.43 -16.97 2.43 -16.73 2.43 -16.5 2.43 -16.27 2.43 -16.03 2.43 -15.8 2.43 -15.56 2.43 -15.33 2.43 -15.09 2.43 -14.86 2.43 -14.63 2.43 -14.39 2.43 -14.16 2.43 -13.92 2.43 -13.69 2.43 -13.46 2.43 -13.22 2.43 -12.99 2.43 -12.75 2.43 -12.52 2.43 -12.29 2.43 -12.05 2.43 -11.82 2.43 -11.58 2.43 -11.35 2.43 -11.12 2.43 -10.88 2.43 -10.65 2.43 -10.41 2.43 -10.18 2.43 -9.95 2.43 -9.71 2.43 -9.48 2.43 -9.24 2.43 -9.01 2.43 -8.78 2.43 -8.54 2.43 -8.31 2.43 -8.07 2.43 -7.84 2.43 -7.61 2.43 -7.37 2.43 -7.14 2.43 -6.9 2.43 -6.67 2.43 -6.44 2.43 -6.2 2.43 -5.97 2.43 -5.73 2.43 -5.5 2.43 -5.27 2.43 -5.03 2.43 -4.8 2.43 -4.56 2.43 -4.33 2.43 -4.1 2.43 -3.86 2.43 -3.63 2.43 -3.39 2.43 -3.16 2.43 -2.93 2.43 -2.69 2.43 -2.46 2.43 -2.22 2.43 -1.99 2.43 -1.76 2.43 -1.52 2.43 -1.29 2.43 -1.05 2.43 -0.82 2.43 -0.59 2.43 -0.35 2.43 -0.12 2.43 0.12 2.43 0.35 2.43 0.59 2.43 0.82 2.43 1.05 2.43 1.29 2.43 1.52 2.43 1.76 2.43 1.99 2.43 2.22 2.43 2.46 2.43 2.69 2.43 2.93 2.43 3.16 2.43 3.39 2.43 3.63 2.43 3.86 2.43 4.1 2.43 4.33 2.43 4.56 2.43 4.8 2.43 5.03 2.43 5.27 2.43 5.5 2.43 5.73 2.43 5.97 2.43 6.2 2.43 6.44 2.43 6.67 2.43 6.9 2.43 7.14 2.43 7.37 2.43 7.61 2.43 7.84 2.43 8.07 2.43 8.31 2.43 8.54 2.43 8.78 2.43 9.01 2.43 9.24 2.43 9.48 2.43 9.71 2.43 9.95 2.43 10.18 2.43 10.41 2.43 10.65 2.43 10.88 2.43 11.12 2.43 11.35 2.43 11.58 2.43 11.82 2.43 12.05 2.43 12.29 2.43 12.52 2.43 12.75 2.43 12.99 2.43 13.22 2.43 13.46 2.43 13.69 2.43 13.92 2.43 14.16 2.43 14.39 2.43 14.63 2.43 14.86 2.43 15.09 2.43 15.33 2.43 15.56 2.43 15.8 2.43 16.03 2.43 16.27 2.43 16.5 2.43 16.73 2.43 16.97 2.43 17.2 2.43 17.44 2.43 17.67 2.43 17.9 2.43 18.14 2.43 18.37 2.43 18.61 2.43 18.84 2.43 19.07 2.43 19.31 2.43 19.54 2.43 19.78 2.43 20.01 2.43 20.24 2.43 20.48 2.43 20.71 2.43 20.95 2.43 21.18 2.43 21.41 2.43 21.65 2.43 21.88 2.43 22.12 2.43 22.35 2.43 22.58 2.43 22.82 2.43 23.05 2.43 23.29 2.43 23.52 2.43 23.75 2.43 23.99 2.43 24.22 2.43 24.46 2.43 24.69 2.43 24.92 2.43 25.16 2.43 25.39 2.43 25.63 2.43 25.86 2.43 26.09 2.43 26.33 2.43 26.56 2.43 26.8 2.43 27.03 2.43 27.26 2.43 27.5 2.43 27.73 2.43 27.97 2.43 28.2 2.43 28.43 2.43 28.67 2.43 28.9 2.43 29.14 2.43 29.37 2.43 29.6 2.43 29.84 2.43 30.07 2.43 30.31 2.43 30.54 2.43 30.77 2.43 31.01 2.43 31.24 2.43 31.48 2.43 31.71 2.43 31.95 2.43 32.18 2.43 32.41 2.43 32.65 2.43 32.88 2.43 33.12 2.43 33.35 2.43 33.58 2.43 33.82 2.43 34.05 2.43 34.29 2.43 34.52 2.43 34.75 2.43 34.99 2.43 35.22 2.43 35.46 2.43 35.69 2.43 35.92 2.43 36.16 2.43 36.39 2.43 36.63 2.43 36.86 2.43 37.09 2.43 37.33 2.43 37.56 2.43 37.8 2.43 38.03 2.43 38.26 2.43 38.5 2.43 38.73 2.43 38.97 2.43 39.2 2.43 39.43 2.43 39.67 2.43 39.9 2.43 40.14 2.43 40.37 2.43 40.6 2.43 40.84 2.43 41.07 2.43 41.31 2.43 41.54 2.43 41.77 2.43 42.01 2.43 42.24 2.43 42.48 2.43 42.71 2.43 42.94 2.43 43.18 2.43 43.41 2.43 43.65 2.43 43.88 2.43 44.11 2.43 44.35 2.43 44.58 2.43 44.82 2.43 45.05 2.43 45.28 2.43 45.52 2.43 45.75 2.43 45.99 2.43 46.22 2.43 46.45 2.43 46.69 2.43 46.92 2.43 47.16 2.43 47.39 2.43 47.63 2.43 47.86 2.43 48.09 2.43 48.33 2.43 48.56 2.43 48.8 2.43 49.03 2.43 49.26 2.43 49.5 2.43 49.73 2.43 49.97 2.43 50.2 2.43 50.43 2.43 50.67 2.43 50.9 2.43 51.14 2.43 51.37 2.43 51.6 2.43 51.84 2.43 52.07 2.43 52.31 2.43 52.54 2.43 52.77 2.43 53.01 2.43 53.24 2.43 53.48 2.43 53.71 2.43 53.94 2.43 54.18 2.43 54.41 2.43 54.65 2.43 54.88 2.43 55.11 2.43 55.35 2.43 55.58 2.43 55.82 2.43 56.05 2.43 56.28 2.43 56.52 2.43 56.75 2.43 56.99 2.43 57.22 2.43 57.45 2.43 57.69 2.43 57.92 2.43 58.16 2.43 58.39 2.43" class="primitive"/>
          </g>
          <g transform="translate(79.02,65.74)" id="img-1564e6eb-38" stroke-dasharray="none" stroke="#D4CA3A" class="color_2">
            <path fill="none" d="M-58.39,-48.26 L -58.16 -46.47 -57.92 -42.94 -57.69 -42.94 -57.45 -39.63 -57.22 -39.63 -56.99 -38.14 -56.75 -37.61 -56.52 -37.26 -56.28 -37.09 -56.05 -31.21 -55.82 -29.76 -55.58 -29.76 -55.35 -29.76 -55.11 -29.52 -54.88 -29.52 -54.65 -27.88 -54.41 -27.23 -54.18 -27.23 -53.94 -27.23 -53.71 -27.23 -53.48 -20.36 -53.24 -18.72 -53.01 -18.72 -52.77 -14.18 -52.54 -11.39 -52.31 -11.33 -52.07 -11.33 -51.84 -10.63 -51.6 -10.63 -51.37 -9.17 -51.14 -4.05 -50.9 -4.05 -50.67 -4.05 -50.43 1.88 -50.2 1.88 -49.97 1.88 -49.73 1.88 -49.5 1.88 -49.26 1.88 -49.03 1.88 -48.8 1.88 -48.56 1.88 -48.33 1.88 -48.09 1.88 -47.86 1.88 -47.63 1.88 -47.39 1.88 -47.16 1.88 -46.92 1.88 -46.69 1.88 -46.45 1.88 -46.22 1.88 -45.99 1.88 -45.75 1.88 -45.52 1.88 -45.28 1.88 -45.05 1.88 -44.82 1.88 -44.58 1.88 -44.35 1.88 -44.11 1.88 -43.88 1.88 -43.65 1.88 -43.41 1.88 -43.18 1.88 -42.94 1.88 -42.71 1.88 -42.48 1.88 -42.24 1.88 -42.01 1.88 -41.77 1.88 -41.54 1.88 -41.31 1.88 -41.07 1.88 -40.84 1.88 -40.6 1.88 -40.37 1.88 -40.14 1.88 -39.9 1.88 -39.67 1.88 -39.43 1.88 -39.2 1.88 -38.97 1.88 -38.73 1.88 -38.5 1.88 -38.26 1.88 -38.03 1.88 -37.8 1.88 -37.56 1.88 -37.33 1.88 -37.09 1.88 -36.86 1.88 -36.63 1.88 -36.39 1.88 -36.16 1.88 -35.92 1.88 -35.69 1.88 -35.46 1.88 -35.22 1.88 -34.99 1.88 -34.75 1.88 -34.52 1.88 -34.29 1.88 -34.05 1.88 -33.82 1.88 -33.58 1.88 -33.35 1.88 -33.12 1.88 -32.88 1.88 -32.65 1.88 -32.41 1.88 -32.18 1.88 -31.95 1.88 -31.71 1.88 -31.48 1.88 -31.24 1.88 -31.01 1.88 -30.77 1.88 -30.54 1.88 -30.31 1.88 -30.07 1.88 -29.84 1.88 -29.6 1.88 -29.37 1.88 -29.14 1.88 -28.9 1.88 -28.67 1.88 -28.43 1.88 -28.2 1.88 -27.97 1.88 -27.73 1.88 -27.5 1.88 -27.26 1.88 -27.03 1.88 -26.8 1.88 -26.56 1.88 -26.33 1.88 -26.09 1.88 -25.86 1.88 -25.63 1.88 -25.39 1.88 -25.16 1.88 -24.92 1.88 -24.69 1.88 -24.46 1.88 -24.22 1.88 -23.99 1.88 -23.75 1.88 -23.52 1.88 -23.29 1.88 -23.05 1.88 -22.82 1.88 -22.58 1.88 -22.35 1.88 -22.12 1.88 -21.88 1.88 -21.65 1.88 -21.41 1.88 -21.18 1.88 -20.95 1.88 -20.71 1.88 -20.48 1.88 -20.24 1.88 -20.01 1.88 -19.78 1.88 -19.54 1.88 -19.31 1.88 -19.07 1.88 -18.84 1.88 -18.61 1.88 -18.37 1.88 -18.14 1.88 -17.9 1.88 -17.67 1.88 -17.44 1.88 -17.2 1.88 -16.97 1.88 -16.73 1.88 -16.5 1.88 -16.27 1.88 -16.03 1.88 -15.8 1.88 -15.56 1.88 -15.33 1.88 -15.09 1.88 -14.86 1.88 -14.63 1.88 -14.39 1.88 -14.16 1.88 -13.92 1.88 -13.69 1.88 -13.46 1.88 -13.22 1.88 -12.99 1.88 -12.75 1.88 -12.52 1.88 -12.29 1.88 -12.05 1.88 -11.82 1.88 -11.58 1.88 -11.35 1.88 -11.12 1.88 -10.88 1.88 -10.65 1.88 -10.41 1.88 -10.18 1.88 -9.95 1.88 -9.71 1.88 -9.48 1.88 -9.24 1.88 -9.01 1.88 -8.78 1.88 -8.54 1.88 -8.31 1.88 -8.07 1.88 -7.84 1.88 -7.61 1.88 -7.37 1.88 -7.14 1.88 -6.9 1.88 -6.67 1.88 -6.44 1.88 -6.2 1.88 -5.97 1.88 -5.73 1.88 -5.5 1.88 -5.27 1.88 -5.03 1.88 -4.8 1.88 -4.56 1.88 -4.33 1.88 -4.1 1.88 -3.86 1.88 -3.63 1.88 -3.39 1.88 -3.16 1.88 -2.93 1.88 -2.69 1.88 -2.46 1.88 -2.22 1.88 -1.99 1.88 -1.76 1.88 -1.52 1.88 -1.29 1.88 -1.05 1.88 -0.82 1.88 -0.59 1.88 -0.35 1.88 -0.12 1.88 0.12 1.88 0.35 1.88 0.59 1.88 0.82 1.88 1.05 1.88 1.29 1.88 1.52 1.88 1.76 1.88 1.99 1.88 2.22 1.88 2.46 1.88 2.69 1.88 2.93 1.88 3.16 1.88 3.39 1.88 3.63 1.88 3.86 1.88 4.1 1.88 4.33 1.88 4.56 1.88 4.8 1.88 5.03 1.88 5.27 1.88 5.5 1.88 5.73 1.88 5.97 1.88 6.2 1.88 6.44 1.88 6.67 1.88 6.9 1.88 7.14 1.88 7.37 1.88 7.61 1.88 7.84 1.88 8.07 1.88 8.31 1.88 8.54 1.88 8.78 1.88 9.01 1.88 9.24 1.88 9.48 1.88 9.71 1.88 9.95 1.88 10.18 1.88 10.41 1.88 10.65 1.88 10.88 1.88 11.12 1.88 11.35 1.88 11.58 1.88 11.82 1.88 12.05 1.88 12.29 1.88 12.52 1.88 12.75 1.88 12.99 1.88 13.22 1.88 13.46 1.88 13.69 1.88 13.92 1.88 14.16 1.88 14.39 1.88 14.63 1.88 14.86 1.88 15.09 1.88 15.33 1.88 15.56 1.88 15.8 1.88 16.03 1.88 16.27 1.88 16.5 1.88 16.73 1.88 16.97 1.88 17.2 1.88 17.44 1.88 17.67 1.88 17.9 1.88 18.14 1.88 18.37 1.88 18.61 1.88 18.84 1.88 19.07 1.88 19.31 1.88 19.54 1.88 19.78 1.88 20.01 1.88 20.24 1.88 20.48 1.88 20.71 1.88 20.95 1.88 21.18 1.88 21.41 1.88 21.65 1.88 21.88 1.88 22.12 1.88 22.35 1.88 22.58 1.88 22.82 1.88 23.05 1.88 23.29 1.88 23.52 1.88 23.75 1.88 23.99 1.88 24.22 1.88 24.46 1.88 24.69 1.88 24.92 1.88 25.16 1.88 25.39 1.88 25.63 1.88 25.86 1.88 26.09 1.88 26.33 1.88 26.56 1.88 26.8 1.88 27.03 1.88 27.26 1.88 27.5 1.88 27.73 1.88 27.97 1.88 28.2 1.88 28.43 1.88 28.67 1.88 28.9 1.88 29.14 1.88 29.37 1.88 29.6 1.88 29.84 1.88 30.07 1.88 30.31 1.88 30.54 1.88 30.77 1.88 31.01 1.88 31.24 1.88 31.48 1.88 31.71 1.88 31.95 1.88 32.18 1.88 32.41 1.88 32.65 1.88 32.88 1.88 33.12 1.88 33.35 1.88 33.58 1.88 33.82 1.88 34.05 1.88 34.29 1.88 34.52 1.88 34.75 1.88 34.99 1.88 35.22 1.88 35.46 1.88 35.69 1.88 35.92 1.88 36.16 1.88 36.39 1.88 36.63 1.88 36.86 1.88 37.09 1.88 37.33 1.88 37.56 1.88 37.8 1.88 38.03 1.88 38.26 1.88 38.5 1.88 38.73 1.88 38.97 1.88 39.2 1.88 39.43 1.88 39.67 1.88 39.9 1.88 40.14 1.88 40.37 1.88 40.6 1.88 40.84 1.88 41.07 1.88 41.31 1.88 41.54 1.88 41.77 1.88 42.01 1.88 42.24 1.88 42.48 1.88 42.71 1.88 42.94 1.88 43.18 1.88 43.41 1.88 43.65 1.88 43.88 1.88 44.11 1.88 44.35 1.88 44.58 1.88 44.82 1.88 45.05 1.88 45.28 1.88 45.52 1.88 45.75 1.88 45.99 1.88 46.22 1.88 46.45 1.88 46.69 1.88 46.92 1.88 47.16 1.88 47.39 1.88 47.63 1.88 47.86 1.88 48.09 1.88 48.33 1.88 48.56 1.88 48.8 1.88 49.03 1.88 49.26 1.88 49.5 1.88 49.73 1.88 49.97 1.88 50.2 1.88 50.43 1.88 50.67 1.88 50.9 1.88 51.14 1.88 51.37 1.88 51.6 1.88 51.84 1.88 52.07 1.88 52.31 1.88 52.54 1.88 52.77 1.88 53.01 1.88 53.24 1.88 53.48 1.88 53.71 1.88 53.94 1.88 54.18 1.88 54.41 1.88 54.65 1.88 54.88 1.88 55.11 1.88 55.35 1.88 55.58 1.88 55.82 1.88 56.05 1.88 56.28 1.88 56.52 1.88 56.75 1.88 56.99 1.88 57.22 1.88 57.45 1.88 57.69 1.88 57.92 1.88 58.16 1.88 58.39 1.88" class="primitive"/>
          </g>
          <g transform="translate(79.02,67.51)" id="img-1564e6eb-39" stroke-dasharray="none" stroke="#FF6DAE" class="color_3">
            <path fill="none" d="M-58.39,-46.34 L -58.16 -46.34 -57.92 -46.34 -57.69 -46.34 -57.45 -46.34 -57.22 -45.29 -56.99 -44.94 -56.75 -44.11 -56.52 -44.11 -56.28 -41.3 -56.05 -41.3 -55.82 -41.3 -55.58 -37.96 -55.35 -36.35 -55.11 -32.17 -54.88 -31.5 -54.65 -31.5 -54.41 -30.35 -54.18 -30.35 -53.94 -30.35 -53.71 -28.66 -53.48 -28.66 -53.24 -20.56 -53.01 -20.07 -52.77 -19.45 -52.54 -18.83 -52.31 -16 -52.07 -12.25 -51.84 -12.25 -51.6 -12.25 -51.37 -12.25 -51.14 -12.25 -50.9 -12.25 -50.67 -12.25 -50.43 -12.25 -50.2 -12.25 -49.97 -12.25 -49.73 -12.25 -49.5 -12.25 -49.26 -12.25 -49.03 -12.25 -48.8 -11.3 -48.56 -11.3 -48.33 -10.13 -48.09 -6.32 -47.86 -3.92 -47.63 -3.92 -47.39 -2.42 -47.16 -2.42 -46.92 -2.29 -46.69 -1.66 -46.45 -1.32 -46.22 -1.32 -45.99 2.59 -45.75 2.59 -45.52 2.59 -45.28 2.59 -45.05 2.59 -44.82 2.59 -44.58 2.59 -44.35 2.59 -44.11 2.59 -43.88 2.59 -43.65 2.59 -43.41 2.59 -43.18 2.59 -42.94 2.59 -42.71 2.59 -42.48 2.59 -42.24 2.59 -42.01 2.59 -41.77 2.59 -41.54 2.59 -41.31 2.63 -41.07 2.63 -40.84 2.63 -40.6 2.63 -40.37 2.63 -40.14 2.63 -39.9 2.63 -39.67 2.63 -39.43 2.63 -39.2 2.63 -38.97 2.63 -38.73 2.63 -38.5 2.63 -38.26 2.63 -38.03 2.63 -37.8 2.63 -37.56 2.63 -37.33 2.63 -37.09 2.63 -36.86 2.63 -36.63 2.63 -36.39 2.63 -36.16 2.63 -35.92 2.63 -35.69 2.63 -35.46 2.63 -35.22 2.63 -34.99 2.63 -34.75 2.63 -34.52 2.63 -34.29 2.63 -34.05 2.63 -33.82 2.63 -33.58 2.63 -33.35 2.63 -33.12 2.63 -32.88 2.63 -32.65 2.63 -32.41 2.63 -32.18 2.63 -31.95 2.63 -31.71 2.63 -31.48 2.63 -31.24 2.63 -31.01 2.63 -30.77 2.63 -30.54 2.63 -30.31 2.63 -30.07 2.63 -29.84 2.63 -29.6 2.63 -29.37 2.63 -29.14 2.63 -28.9 2.63 -28.67 2.63 -28.43 2.63 -28.2 2.63 -27.97 2.63 -27.73 2.63 -27.5 2.63 -27.26 2.63 -27.03 2.63 -26.8 2.63 -26.56 2.63 -26.33 2.63 -26.09 2.63 -25.86 2.63 -25.63 2.63 -25.39 2.63 -25.16 2.63 -24.92 2.63 -24.69 2.63 -24.46 2.63 -24.22 2.63 -23.99 2.63 -23.75 2.63 -23.52 2.63 -23.29 2.63 -23.05 2.63 -22.82 2.63 -22.58 2.63 -22.35 2.63 -22.12 2.63 -21.88 2.63 -21.65 2.63 -21.41 2.63 -21.18 2.63 -20.95 2.63 -20.71 2.63 -20.48 2.63 -20.24 2.63 -20.01 2.63 -19.78 2.63 -19.54 2.63 -19.31 2.63 -19.07 2.63 -18.84 2.63 -18.61 2.63 -18.37 2.63 -18.14 2.63 -17.9 2.63 -17.67 2.63 -17.44 2.63 -17.2 2.63 -16.97 2.63 -16.73 2.63 -16.5 2.63 -16.27 2.63 -16.03 2.63 -15.8 2.63 -15.56 2.63 -15.33 2.63 -15.09 2.63 -14.86 2.63 -14.63 2.63 -14.39 2.63 -14.16 2.63 -13.92 2.63 -13.69 2.63 -13.46 2.63 -13.22 2.63 -12.99 2.63 -12.75 2.63 -12.52 2.63 -12.29 2.63 -12.05 2.63 -11.82 2.63 -11.58 2.63 -11.35 2.63 -11.12 2.63 -10.88 2.63 -10.65 2.63 -10.41 2.63 -10.18 2.63 -9.95 2.63 -9.71 2.63 -9.48 2.63 -9.24 2.63 -9.01 2.63 -8.78 2.63 -8.54 2.63 -8.31 2.63 -8.07 2.63 -7.84 2.63 -7.61 2.63 -7.37 2.63 -7.14 2.63 -6.9 2.63 -6.67 2.63 -6.44 2.63 -6.2 2.63 -5.97 2.63 -5.73 2.63 -5.5 2.63 -5.27 2.63 -5.03 2.63 -4.8 2.63 -4.56 2.63 -4.33 2.63 -4.1 2.63 -3.86 2.63 -3.63 2.63 -3.39 2.63 -3.16 2.63 -2.93 2.63 -2.69 2.63 -2.46 2.63 -2.22 2.63 -1.99 2.63 -1.76 2.63 -1.52 2.63 -1.29 2.63 -1.05 2.63 -0.82 2.63 -0.59 2.63 -0.35 2.63 -0.12 2.63 0.12 2.63 0.35 2.63 0.59 2.63 0.82 2.63 1.05 2.63 1.29 2.63 1.52 2.63 1.76 2.63 1.99 2.63 2.22 2.63 2.46 2.63 2.69 2.63 2.93 2.63 3.16 2.63 3.39 2.63 3.63 2.63 3.86 2.63 4.1 2.63 4.33 2.63 4.56 2.63 4.8 2.63 5.03 2.63 5.27 2.63 5.5 2.63 5.73 2.63 5.97 2.63 6.2 2.63 6.44 2.63 6.67 2.63 6.9 2.63 7.14 2.63 7.37 2.63 7.61 2.63 7.84 2.63 8.07 2.63 8.31 2.63 8.54 2.63 8.78 2.63 9.01 2.63 9.24 2.63 9.48 2.63 9.71 2.63 9.95 2.63 10.18 2.63 10.41 2.63 10.65 2.63 10.88 2.63 11.12 2.63 11.35 2.63 11.58 2.63 11.82 2.63 12.05 2.63 12.29 2.63 12.52 2.63 12.75 2.63 12.99 2.63 13.22 2.63 13.46 2.63 13.69 2.63 13.92 2.63 14.16 2.63 14.39 2.63 14.63 2.63 14.86 2.63 15.09 2.63 15.33 2.63 15.56 2.63 15.8 2.63 16.03 2.63 16.27 2.63 16.5 2.63 16.73 2.63 16.97 2.63 17.2 2.63 17.44 2.63 17.67 2.63 17.9 2.63 18.14 2.63 18.37 2.63 18.61 2.63 18.84 2.63 19.07 2.63 19.31 2.63 19.54 2.63 19.78 2.63 20.01 2.63 20.24 2.63 20.48 2.63 20.71 2.63 20.95 2.63 21.18 2.63 21.41 2.63 21.65 2.63 21.88 2.63 22.12 2.63 22.35 2.63 22.58 2.63 22.82 2.63 23.05 2.63 23.29 2.63 23.52 2.63 23.75 2.63 23.99 2.63 24.22 2.63 24.46 2.63 24.69 2.63 24.92 2.63 25.16 2.63 25.39 2.63 25.63 2.63 25.86 2.63 26.09 2.63 26.33 2.63 26.56 2.63 26.8 2.63 27.03 2.63 27.26 2.63 27.5 2.63 27.73 2.63 27.97 2.63 28.2 2.63 28.43 2.63 28.67 2.63 28.9 2.63 29.14 2.63 29.37 2.63 29.6 2.63 29.84 2.63 30.07 2.63 30.31 2.63 30.54 2.63 30.77 2.63 31.01 2.63 31.24 2.63 31.48 2.63 31.71 2.63 31.95 2.63 32.18 2.63 32.41 2.63 32.65 2.63 32.88 2.63 33.12 2.63 33.35 2.63 33.58 2.63 33.82 2.63 34.05 2.63 34.29 2.63 34.52 2.63 34.75 2.63 34.99 2.63 35.22 2.63 35.46 2.63 35.69 2.63 35.92 2.63 36.16 2.63 36.39 2.63 36.63 2.63 36.86 2.63 37.09 2.63 37.33 2.63 37.56 2.63 37.8 2.63 38.03 2.63 38.26 2.63 38.5 2.63 38.73 2.63 38.97 2.63 39.2 2.63 39.43 2.63 39.67 2.63 39.9 2.63 40.14 2.63 40.37 2.63 40.6 2.63 40.84 2.63 41.07 2.63 41.31 2.63 41.54 2.63 41.77 2.63 42.01 2.63 42.24 2.63 42.48 2.63 42.71 2.63 42.94 2.63 43.18 2.63 43.41 2.63 43.65 2.63 43.88 2.63 44.11 2.63 44.35 2.63 44.58 2.63 44.82 2.63 45.05 2.63 45.28 2.63 45.52 2.63 45.75 2.63 45.99 2.63 46.22 2.63 46.45 2.63 46.69 2.63 46.92 2.63 47.16 2.63 47.39 2.63 47.63 2.63 47.86 2.63 48.09 2.63 48.33 2.63 48.56 2.63 48.8 2.63 49.03 2.63 49.26 2.63 49.5 2.63 49.73 2.63 49.97 2.63 50.2 2.63 50.43 2.63 50.67 2.63 50.9 2.63 51.14 2.63 51.37 2.63 51.6 2.63 51.84 2.63 52.07 2.63 52.31 2.63 52.54 2.63 52.77 2.63 53.01 2.63 53.24 2.63 53.48 2.63 53.71 2.63 53.94 2.63 54.18 2.63 54.41 2.63 54.65 2.63 54.88 2.63 55.11 2.63 55.35 2.63 55.58 2.63 55.82 2.63 56.05 2.63 56.28 2.63 56.52 2.63 56.75 2.63 56.99 2.63 57.22 2.63 57.45 2.63 57.69 2.63 57.92 2.63 58.16 2.63 58.39 2.63" class="primitive"/>
          </g>
          <g transform="translate(79.02,66.78)" id="img-1564e6eb-40" stroke-dasharray="none" stroke="#00B78D" class="color_1">
            <path fill="none" d="M-58.39,-47.93 L -58.16 -46.78 -57.92 -46.7 -57.69 -44.72 -57.45 -44.72 -57.22 -42.4 -56.99 -41.89 -56.75 -38.72 -56.52 -38.15 -56.28 -38.15 -56.05 -36.13 -55.82 -35.61 -55.58 -26.4 -55.35 -26.4 -55.11 -25.75 -54.88 -22.91 -54.65 -20.18 -54.41 -18.57 -54.18 -18.57 -53.94 -15.64 -53.71 -15.64 -53.48 -13.1 -53.24 -12.8 -53.01 -10.88 -52.77 -7.63 -52.54 -7.63 -52.31 -6.32 -52.07 -1.63 -51.84 -1.63 -51.6 1.6 -51.37 1.6 -51.14 1.6 -50.9 1.6 -50.67 1.6 -50.43 1.6 -50.2 1.6 -49.97 1.6 -49.73 1.6 -49.5 1.6 -49.26 1.6 -49.03 1.6 -48.8 1.6 -48.56 1.6 -48.33 1.6 -48.09 1.6 -47.86 1.6 -47.63 1.6 -47.39 1.6 -47.16 1.6 -46.92 1.6 -46.69 1.6 -46.45 1.6 -46.22 1.6 -45.99 1.6 -45.75 1.6 -45.52 1.6 -45.28 1.6 -45.05 1.6 -44.82 1.6 -44.58 1.6 -44.35 1.6 -44.11 1.6 -43.88 1.6 -43.65 1.6 -43.41 1.6 -43.18 1.6 -42.94 1.6 -42.71 1.6 -42.48 1.6 -42.24 1.6 -42.01 1.6 -41.77 1.6 -41.54 1.6 -41.31 1.6 -41.07 1.6 -40.84 1.6 -40.6 1.6 -40.37 1.6 -40.14 1.6 -39.9 1.6 -39.67 1.6 -39.43 1.6 -39.2 1.6 -38.97 1.6 -38.73 1.6 -38.5 1.6 -38.26 1.6 -38.03 1.6 -37.8 1.6 -37.56 1.6 -37.33 1.6 -37.09 1.6 -36.86 1.6 -36.63 1.6 -36.39 1.6 -36.16 1.6 -35.92 1.6 -35.69 1.6 -35.46 1.6 -35.22 1.6 -34.99 1.6 -34.75 1.6 -34.52 1.6 -34.29 1.6 -34.05 1.6 -33.82 1.6 -33.58 1.6 -33.35 1.6 -33.12 1.6 -32.88 1.6 -32.65 1.6 -32.41 1.6 -32.18 1.6 -31.95 1.6 -31.71 1.6 -31.48 1.6 -31.24 1.6 -31.01 1.6 -30.77 1.6 -30.54 1.6 -30.31 1.6 -30.07 1.6 -29.84 1.6 -29.6 1.6 -29.37 1.6 -29.14 1.6 -28.9 1.6 -28.67 1.6 -28.43 1.6 -28.2 1.6 -27.97 1.6 -27.73 1.6 -27.5 1.6 -27.26 1.6 -27.03 1.6 -26.8 1.6 -26.56 1.6 -26.33 1.6 -26.09 1.6 -25.86 1.6 -25.63 1.6 -25.39 1.6 -25.16 1.6 -24.92 1.6 -24.69 1.6 -24.46 1.6 -24.22 1.6 -23.99 1.6 -23.75 1.6 -23.52 1.6 -23.29 1.6 -23.05 1.6 -22.82 1.6 -22.58 1.6 -22.35 1.6 -22.12 1.6 -21.88 1.6 -21.65 1.6 -21.41 1.6 -21.18 1.6 -20.95 1.6 -20.71 1.6 -20.48 1.6 -20.24 1.6 -20.01 1.6 -19.78 1.6 -19.54 1.6 -19.31 1.6 -19.07 1.6 -18.84 1.6 -18.61 1.6 -18.37 1.6 -18.14 1.6 -17.9 1.6 -17.67 1.6 -17.44 1.6 -17.2 1.6 -16.97 1.6 -16.73 1.6 -16.5 1.6 -16.27 1.6 -16.03 1.6 -15.8 1.6 -15.56 1.6 -15.33 1.6 -15.09 1.6 -14.86 1.6 -14.63 1.6 -14.39 1.6 -14.16 1.6 -13.92 1.6 -13.69 1.6 -13.46 1.6 -13.22 1.6 -12.99 1.6 -12.75 1.6 -12.52 1.6 -12.29 1.6 -12.05 1.6 -11.82 1.6 -11.58 1.6 -11.35 1.6 -11.12 1.6 -10.88 1.6 -10.65 1.6 -10.41 1.6 -10.18 1.6 -9.95 1.6 -9.71 1.6 -9.48 1.6 -9.24 1.6 -9.01 1.6 -8.78 1.6 -8.54 1.6 -8.31 1.6 -8.07 1.6 -7.84 1.6 -7.61 1.6 -7.37 1.6 -7.14 1.6 -6.9 1.6 -6.67 1.6 -6.44 1.6 -6.2 1.6 -5.97 1.6 -5.73 1.6 -5.5 1.6 -5.27 1.6 -5.03 1.6 -4.8 1.6 -4.56 1.6 -4.33 1.6 -4.1 1.6 -3.86 1.6 -3.63 1.6 -3.39 1.6 -3.16 1.6 -2.93 1.6 -2.69 1.6 -2.46 1.6 -2.22 1.6 -1.99 1.6 -1.76 1.6 -1.52 1.6 -1.29 1.6 -1.05 1.6 -0.82 1.6 -0.59 1.6 -0.35 1.6 -0.12 1.6 0.12 1.6 0.35 1.6 0.59 1.6 0.82 1.6 1.05 1.6 1.29 1.6 1.52 1.6 1.76 1.6 1.99 1.6 2.22 1.6 2.46 1.6 2.69 1.6 2.93 1.6 3.16 1.6 3.39 1.6 3.63 1.6 3.86 1.6 4.1 1.6 4.33 1.6 4.56 1.6 4.8 1.6 5.03 1.6 5.27 1.6 5.5 1.6 5.73 1.6 5.97 1.6 6.2 1.6 6.44 1.6 6.67 1.6 6.9 1.6 7.14 1.6 7.37 1.6 7.61 1.6 7.84 1.6 8.07 1.6 8.31 1.6 8.54 1.6 8.78 1.6 9.01 1.6 9.24 1.6 9.48 1.6 9.71 1.6 9.95 1.6 10.18 1.6 10.41 1.6 10.65 1.6 10.88 1.6 11.12 1.6 11.35 1.6 11.58 1.6 11.82 1.6 12.05 1.6 12.29 1.6 12.52 1.6 12.75 1.6 12.99 1.6 13.22 1.6 13.46 1.6 13.69 1.6 13.92 1.6 14.16 1.6 14.39 1.6 14.63 1.6 14.86 1.6 15.09 1.6 15.33 1.6 15.56 1.6 15.8 1.6 16.03 1.6 16.27 1.6 16.5 1.6 16.73 1.6 16.97 1.6 17.2 1.6 17.44 1.6 17.67 1.6 17.9 1.6 18.14 1.6 18.37 1.6 18.61 1.6 18.84 1.6 19.07 1.6 19.31 1.6 19.54 1.6 19.78 1.6 20.01 1.6 20.24 1.6 20.48 1.6 20.71 1.6 20.95 1.6 21.18 1.6 21.41 1.6 21.65 1.6 21.88 1.6 22.12 1.6 22.35 1.6 22.58 1.6 22.82 1.6 23.05 1.6 23.29 1.6 23.52 1.6 23.75 1.6 23.99 1.6 24.22 1.6 24.46 1.6 24.69 1.6 24.92 1.6 25.16 1.6 25.39 1.6 25.63 1.6 25.86 1.6 26.09 1.6 26.33 1.6 26.56 1.6 26.8 1.6 27.03 1.6 27.26 1.6 27.5 1.6 27.73 1.6 27.97 1.6 28.2 1.6 28.43 1.6 28.67 1.6 28.9 1.6 29.14 1.6 29.37 1.6 29.6 1.6 29.84 1.6 30.07 1.6 30.31 1.6 30.54 1.6 30.77 1.6 31.01 1.6 31.24 1.6 31.48 1.6 31.71 1.6 31.95 1.6 32.18 1.6 32.41 1.6 32.65 1.6 32.88 1.6 33.12 1.6 33.35 1.6 33.58 1.6 33.82 1.6 34.05 1.6 34.29 1.6 34.52 1.6 34.75 1.6 34.99 1.6 35.22 1.6 35.46 1.6 35.69 1.6 35.92 1.6 36.16 1.6 36.39 1.6 36.63 1.6 36.86 1.6 37.09 1.6 37.33 1.6 37.56 1.6 37.8 1.6 38.03 1.6 38.26 1.6 38.5 1.6 38.73 1.6 38.97 1.6 39.2 1.6 39.43 1.6 39.67 1.6 39.9 1.6 40.14 1.6 40.37 1.6 40.6 1.6 40.84 1.6 41.07 1.6 41.31 1.6 41.54 1.6 41.77 1.6 42.01 1.6 42.24 1.6 42.48 1.6 42.71 1.6 42.94 1.6 43.18 1.6 43.41 1.6 43.65 1.6 43.88 1.6 44.11 1.6 44.35 1.6 44.58 1.6 44.82 1.6 45.05 1.6 45.28 1.6 45.52 1.6 45.75 1.6 45.99 1.6 46.22 1.6 46.45 1.6 46.69 1.6 46.92 1.6 47.16 1.6 47.39 1.6 47.63 1.6 47.86 1.6 48.09 1.6 48.33 1.6 48.56 1.6 48.8 1.6 49.03 1.6 49.26 1.6 49.5 1.6 49.73 1.6 49.97 1.6 50.2 1.6 50.43 1.6 50.67 1.6 50.9 1.6 51.14 1.6 51.37 1.6 51.6 1.6 51.84 1.6 52.07 1.6 52.31 1.6 52.54 1.6 52.77 1.6 53.01 1.6 53.24 1.6 53.48 1.6 53.71 1.6 53.94 1.6 54.18 1.6 54.41 1.6 54.65 1.6 54.88 1.6 55.11 1.6 55.35 1.6 55.58 1.6 55.82 1.6 56.05 1.6 56.28 1.6 56.52 1.6 56.75 1.6 56.99 1.6 57.22 1.6 57.45 1.6 57.69 1.6 57.92 1.6 58.16 1.6 58.39 1.6" class="primitive"/>
          </g>
          <g transform="translate(79.02,65.33)" id="img-1564e6eb-41" stroke-dasharray="none" stroke="#BEA9FF" class="color_0">
            <path fill="none" d="M-58.39,-45.88 L -58.16 -45.88 -57.92 -45.55 -57.69 -42.93 -57.45 -42.4 -57.22 -42.4 -56.99 -41.88 -56.75 -37.78 -56.52 -36.14 -56.28 -34.31 -56.05 -32.65 -55.82 -31.79 -55.58 -31.79 -55.35 -31.79 -55.11 -31.79 -54.88 -29.18 -54.65 -29.18 -54.41 -28.76 -54.18 -28.76 -53.94 -26.93 -53.71 -26.93 -53.48 -25.14 -53.24 -20.89 -53.01 -16.66 -52.77 -16.66 -52.54 -16.18 -52.31 -15.42 -52.07 -15.42 -51.84 -8.84 -51.6 -8.84 -51.37 -8.4 -51.14 -8.4 -50.9 -8.4 -50.67 -8.4 -50.43 -7.89 -50.2 -7.89 -49.97 -7.89 -49.73 -6.78 -49.5 -3.85 -49.26 -1.31 -49.03 -0.5 -48.8 -0.5 -48.56 1.12 -48.33 1.15 -48.09 2.1 -47.86 2.1 -47.63 2.1 -47.39 2.1 -47.16 2.1 -46.92 2.1 -46.69 2.1 -46.45 2.1 -46.22 2.1 -45.99 2.1 -45.75 2.1 -45.52 2.1 -45.28 2.1 -45.05 2.1 -44.82 2.1 -44.58 2.1 -44.35 2.1 -44.11 2.1 -43.88 2.1 -43.65 2.1 -43.41 2.1 -43.18 2.1 -42.94 2.1 -42.71 2.1 -42.48 2.1 -42.24 2.1 -42.01 2.1 -41.77 2.1 -41.54 2.1 -41.31 2.1 -41.07 2.1 -40.84 2.1 -40.6 2.1 -40.37 2.1 -40.14 2.1 -39.9 2.1 -39.67 2.1 -39.43 2.1 -39.2 2.1 -38.97 2.1 -38.73 2.1 -38.5 2.1 -38.26 2.1 -38.03 2.1 -37.8 2.1 -37.56 2.1 -37.33 2.1 -37.09 2.1 -36.86 2.1 -36.63 2.1 -36.39 2.1 -36.16 2.1 -35.92 2.1 -35.69 2.1 -35.46 2.1 -35.22 2.1 -34.99 2.1 -34.75 2.1 -34.52 2.1 -34.29 2.1 -34.05 2.1 -33.82 2.1 -33.58 2.1 -33.35 2.1 -33.12 2.1 -32.88 2.1 -32.65 2.1 -32.41 2.1 -32.18 2.1 -31.95 2.1 -31.71 2.1 -31.48 2.1 -31.24 2.1 -31.01 2.1 -30.77 2.1 -30.54 2.1 -30.31 2.1 -30.07 2.1 -29.84 2.1 -29.6 2.1 -29.37 2.1 -29.14 2.1 -28.9 2.1 -28.67 2.1 -28.43 2.1 -28.2 2.1 -27.97 2.1 -27.73 2.1 -27.5 2.1 -27.26 2.1 -27.03 2.1 -26.8 2.1 -26.56 2.1 -26.33 2.1 -26.09 2.1 -25.86 2.1 -25.63 2.1 -25.39 2.1 -25.16 2.1 -24.92 2.1 -24.69 2.1 -24.46 2.1 -24.22 2.1 -23.99 2.1 -23.75 2.1 -23.52 2.1 -23.29 2.1 -23.05 2.1 -22.82 2.1 -22.58 2.1 -22.35 2.1 -22.12 2.1 -21.88 2.1 -21.65 2.1 -21.41 2.1 -21.18 2.1 -20.95 2.1 -20.71 2.1 -20.48 2.1 -20.24 2.1 -20.01 2.1 -19.78 2.1 -19.54 2.1 -19.31 2.1 -19.07 2.1 -18.84 2.1 -18.61 2.1 -18.37 2.1 -18.14 2.1 -17.9 2.1 -17.67 2.1 -17.44 2.1 -17.2 2.1 -16.97 2.1 -16.73 2.1 -16.5 2.1 -16.27 2.1 -16.03 2.1 -15.8 2.1 -15.56 2.1 -15.33 2.1 -15.09 2.1 -14.86 2.1 -14.63 2.1 -14.39 2.1 -14.16 2.1 -13.92 2.1 -13.69 2.1 -13.46 2.1 -13.22 2.1 -12.99 2.1 -12.75 2.1 -12.52 2.1 -12.29 2.1 -12.05 2.1 -11.82 2.1 -11.58 2.1 -11.35 2.1 -11.12 2.1 -10.88 2.1 -10.65 2.1 -10.41 2.1 -10.18 2.1 -9.95 2.1 -9.71 2.1 -9.48 2.1 -9.24 2.1 -9.01 2.1 -8.78 2.1 -8.54 2.1 -8.31 2.1 -8.07 2.1 -7.84 2.1 -7.61 2.1 -7.37 2.1 -7.14 2.1 -6.9 2.1 -6.67 2.1 -6.44 2.1 -6.2 2.1 -5.97 2.1 -5.73 2.1 -5.5 2.1 -5.27 2.1 -5.03 2.1 -4.8 2.1 -4.56 2.1 -4.33 2.1 -4.1 2.1 -3.86 2.1 -3.63 2.1 -3.39 2.1 -3.16 2.1 -2.93 2.1 -2.69 2.1 -2.46 2.1 -2.22 2.1 -1.99 2.1 -1.76 2.1 -1.52 2.1 -1.29 2.1 -1.05 2.1 -0.82 2.1 -0.59 2.1 -0.35 2.1 -0.12 2.1 0.12 2.1 0.35 2.1 0.59 2.1 0.82 2.1 1.05 2.1 1.29 2.1 1.52 2.1 1.76 2.1 1.99 2.1 2.22 2.1 2.46 2.1 2.69 2.1 2.93 2.1 3.16 2.1 3.39 2.1 3.63 2.1 3.86 2.1 4.1 2.1 4.33 2.1 4.56 2.1 4.8 2.1 5.03 2.1 5.27 2.1 5.5 2.1 5.73 2.1 5.97 2.1 6.2 2.1 6.44 2.1 6.67 2.1 6.9 2.1 7.14 2.1 7.37 2.1 7.61 2.1 7.84 2.1 8.07 2.1 8.31 2.1 8.54 2.1 8.78 2.1 9.01 2.1 9.24 2.1 9.48 2.1 9.71 2.1 9.95 2.1 10.18 2.1 10.41 2.1 10.65 2.1 10.88 2.1 11.12 2.1 11.35 2.1 11.58 2.1 11.82 2.1 12.05 2.1 12.29 2.1 12.52 2.1 12.75 2.1 12.99 2.1 13.22 2.1 13.46 2.1 13.69 2.1 13.92 2.1 14.16 2.1 14.39 2.1 14.63 2.1 14.86 2.1 15.09 2.1 15.33 2.1 15.56 2.1 15.8 2.1 16.03 2.1 16.27 2.1 16.5 2.1 16.73 2.1 16.97 2.1 17.2 2.1 17.44 2.1 17.67 2.1 17.9 2.1 18.14 2.1 18.37 2.1 18.61 2.1 18.84 2.1 19.07 2.1 19.31 2.1 19.54 2.1 19.78 2.1 20.01 2.1 20.24 2.1 20.48 2.1 20.71 2.1 20.95 2.1 21.18 2.1 21.41 2.1 21.65 2.1 21.88 2.1 22.12 2.1 22.35 2.1 22.58 2.1 22.82 2.1 23.05 2.1 23.29 2.1 23.52 2.1 23.75 2.1 23.99 2.1 24.22 2.1 24.46 2.1 24.69 2.1 24.92 2.1 25.16 2.1 25.39 2.1 25.63 2.1 25.86 2.1 26.09 2.1 26.33 2.1 26.56 2.1 26.8 2.1 27.03 2.1 27.26 2.1 27.5 2.1 27.73 2.1 27.97 2.1 28.2 2.1 28.43 2.1 28.67 2.1 28.9 2.1 29.14 2.1 29.37 2.1 29.6 2.1 29.84 2.1 30.07 2.1 30.31 2.1 30.54 2.1 30.77 2.1 31.01 2.1 31.24 2.1 31.48 2.1 31.71 2.1 31.95 2.1 32.18 2.1 32.41 2.1 32.65 2.1 32.88 2.1 33.12 2.1 33.35 2.1 33.58 2.1 33.82 2.1 34.05 2.1 34.29 2.1 34.52 2.1 34.75 2.1 34.99 2.1 35.22 2.1 35.46 2.1 35.69 2.1 35.92 2.1 36.16 2.1 36.39 2.1 36.63 2.1 36.86 2.1 37.09 2.1 37.33 2.1 37.56 2.1 37.8 2.1 38.03 2.1 38.26 2.1 38.5 2.1 38.73 2.1 38.97 2.1 39.2 2.1 39.43 2.1 39.67 2.1 39.9 2.1 40.14 2.1 40.37 2.1 40.6 2.1 40.84 2.1 41.07 2.1 41.31 2.1 41.54 2.1 41.77 2.1 42.01 2.1 42.24 2.1 42.48 2.1 42.71 2.1 42.94 2.1 43.18 2.1 43.41 2.1 43.65 2.1 43.88 2.1 44.11 2.1 44.35 2.1 44.58 2.1 44.82 2.1 45.05 2.1 45.28 2.1 45.52 2.1 45.75 2.1 45.99 2.1 46.22 2.1 46.45 2.1 46.69 2.1 46.92 2.1 47.16 2.1 47.39 2.1 47.63 2.1 47.86 2.1 48.09 2.1 48.33 2.1 48.56 2.1 48.8 2.1 49.03 2.1 49.26 2.1 49.5 2.1 49.73 2.1 49.97 2.1 50.2 2.1 50.43 2.1 50.67 2.1 50.9 2.1 51.14 2.1 51.37 2.1 51.6 2.1 51.84 2.1 52.07 2.1 52.31 2.1 52.54 2.1 52.77 2.1 53.01 2.1 53.24 2.1 53.48 2.1 53.71 2.1 53.94 2.1 54.18 2.1 54.41 2.1 54.65 2.1 54.88 2.1 55.11 2.1 55.35 2.1 55.58 2.1 55.82 2.1 56.05 2.1 56.28 2.1 56.52 2.1 56.75 2.1 56.99 2.1 57.22 2.1 57.45 2.1 57.69 2.1 57.92 2.1 58.16 2.1 58.39 2.1" class="primitive"/>
          </g>
        </g>
      </g>
    </g>
  </g>
  <g class="guide ylabels" font-size="2.82" font-family="'PT Sans Caption','Helvetica Neue','Helvetica',sans-serif" fill="#6C606B" id="img-1564e6eb-42">
    <g transform="translate(17.63,78.71)" id="img-1564e6eb-43">
      <g class="primitive">
        <text text-anchor="end" dy="0.35em">0.0</text>
      </g>
    </g>
    <g transform="translate(17.63,54.81)" id="img-1564e6eb-44">
      <g class="primitive">
        <text text-anchor="end" dy="0.35em">0.1</text>
      </g>
    </g>
    <g transform="translate(17.63,30.9)" id="img-1564e6eb-45">
      <g class="primitive">
        <text text-anchor="end" dy="0.35em">0.2</text>
      </g>
    </g>
    <g transform="translate(17.63,7)" id="img-1564e6eb-46">
      <g class="primitive">
        <text text-anchor="end" dy="0.35em">0.3</text>
      </g>
    </g>
  </g>
  <g font-size="3.88" font-family="'PT Sans','Helvetica Neue','Helvetica',sans-serif" fill="#564A55" stroke="#000000" stroke-opacity="0.000" id="img-1564e6eb-47">
    <g transform="translate(8.81,40.86)" id="img-1564e6eb-48">
      <g class="primitive">
        <text text-anchor="middle" dy="0.35em" transform="rotate(-90,0, 2)">Diferença de pontuação interna</text>
      </g>
    </g>
  </g>
</g>
<defs>
  <clipPath id="img-1564e6eb-19">
    <path d="M18.63,5 L 139.65 5 139.65 80.72 18.63 80.72" />
  </clipPath>
</defs>
</svg>
