<?xml version="1.0" encoding="UTF-8"?>
<svg xmlns="http://www.w3.org/2000/svg"
     xmlns:xlink="http://www.w3.org/1999/xlink"
     xmlns:gadfly="http://www.gadflyjl.org/ns"
     version="1.2"
     width="150mm" height="100mm" viewBox="0 0 150 100"
     stroke="none"
     fill="#000000"
     stroke-width="0.3"
     font-size="3.88"
>
<defs>
  <marker id="arrow" markerWidth="15" markerHeight="7" refX="5" refY="3.5" orient="auto" markerUnits="strokeWidth">
    <path d="M0,0 L15,3.5 L0,7 z" stroke="context-stroke" fill="context-stroke"/>
  </marker>
</defs>
<g class="plotroot xscalable yscalable" id="img-b5ccfe4a-1">
  <g font-size="3.88" font-family="'PT Sans','Helvetica Neue','Helvetica',sans-serif" fill="#564A55" stroke="#000000" stroke-opacity="0.000" id="img-b5ccfe4a-2">
    <g transform="translate(76.59,88.39)">
      <g class="primitive">
        <text text-anchor="middle" dy="0.6em">Fitness</text>
      </g>
    </g>
  </g>
  <g class="guide xlabels" font-size="2.82" font-family="'PT Sans Caption','Helvetica Neue','Helvetica',sans-serif" fill="#6C606B" id="img-b5ccfe4a-3">
    <g transform="translate(22.3,81.72)">
      <g class="primitive">
        <text text-anchor="middle" dy="0.6em">0.0</text>
      </g>
    </g>
    <g transform="translate(76.59,81.72)">
      <g class="primitive">
        <text text-anchor="middle" dy="0.6em">0.5</text>
      </g>
    </g>
    <g transform="translate(130.88,81.72)">
      <g class="primitive">
        <text text-anchor="middle" dy="0.6em">1.0</text>
      </g>
    </g>
  </g>
  <g class="guide colorkey" id="img-b5ccfe4a-4">
    <g fill="#4C404B" font-size="2.82" font-family="'PT Sans','Helvetica Neue','Helvetica',sans-serif" id="img-b5ccfe4a-5">
      <g transform="translate(136.69,37.42)" id="img-b5ccfe4a-6" class="color_0.005">
        <g class="primitive">
          <text dy="0.35em">0.005</text>
        </g>
      </g>
      <g transform="translate(136.69,41.04)" id="img-b5ccfe4a-7" class="color_0.0075">
        <g class="primitive">
          <text dy="0.35em">0.0075</text>
        </g>
      </g>
      <g transform="translate(136.69,44.67)" id="img-b5ccfe4a-8" class="color_0.01">
        <g class="primitive">
          <text dy="0.35em">0.01</text>
        </g>
      </g>
      <g transform="translate(136.69,48.3)" id="img-b5ccfe4a-9" class="color_0.025">
        <g class="primitive">
          <text dy="0.35em">0.025</text>
        </g>
      </g>
      <g transform="translate(136.69,51.92)" id="img-b5ccfe4a-10" class="color_0.05">
        <g class="primitive">
          <text dy="0.35em">0.05</text>
        </g>
      </g>
    </g>
    <g stroke="#000000" stroke-opacity="0.000" id="img-b5ccfe4a-11">
      <g transform="translate(134.79,37.42)" id="img-b5ccfe4a-12" fill="#00BFFF" class="color_0.005">
        <path d="M-0.91,-0.91 L 0.91 -0.91 0.91 0.91 -0.91 0.91 z" class="primitive"/>
      </g>
      <g transform="translate(134.79,41.04)" id="img-b5ccfe4a-13" fill="#D4CA3A" class="color_0.0075">
        <path d="M-0.91,-0.91 L 0.91 -0.91 0.91 0.91 -0.91 0.91 z" class="primitive"/>
      </g>
      <g transform="translate(134.79,44.67)" id="img-b5ccfe4a-14" fill="#FF6DAE" class="color_0.01">
        <path d="M-0.91,-0.91 L 0.91 -0.91 0.91 0.91 -0.91 0.91 z" class="primitive"/>
      </g>
      <g transform="translate(134.79,48.3)" id="img-b5ccfe4a-15" fill="#00B78D" class="color_0.025">
        <path d="M-0.91,-0.91 L 0.91 -0.91 0.91 0.91 -0.91 0.91 z" class="primitive"/>
      </g>
      <g transform="translate(134.79,51.92)" id="img-b5ccfe4a-16" fill="#BEA9FF" class="color_0.05">
        <path d="M-0.91,-0.91 L 0.91 -0.91 0.91 0.91 -0.91 0.91 z" class="primitive"/>
      </g>
    </g>
    <g fill="#362A35" font-size="3.88" font-family="'PT Sans','Helvetica Neue','Helvetica',sans-serif" stroke="#000000" stroke-opacity="0.000" id="img-b5ccfe4a-17">
      <g transform="translate(133.88,33.6)" id="img-b5ccfe4a-18">
        <g class="primitive">
          <text>o</text>
        </g>
      </g>
    </g>
  </g>
  <g clip-path="url(#img-b5ccfe4a-19)">
    <g id="img-b5ccfe4a-20">
      <g pointer-events="visible" fill="#000000" fill-opacity="0.000" stroke="#000000" stroke-opacity="0.000" class="guide background" id="img-b5ccfe4a-21">
        <g transform="translate(76.59,42.86)" id="img-b5ccfe4a-22">
          <path d="M-56.29,-37.86 L 56.29 -37.86 56.29 37.86 -56.29 37.86 z" class="primitive"/>
        </g>
      </g>
      <g class="guide ygridlines xfixed" stroke-dasharray="0.5,0.5" stroke-width="0.2" stroke="#D0D0E0" id="img-b5ccfe4a-23">
        <g transform="translate(76.59,78.72)" id="img-b5ccfe4a-24">
          <path fill="none" d="M-56.29,0 L 56.29 0" class="primitive"/>
        </g>
        <g transform="translate(76.59,60.79)" id="img-b5ccfe4a-25">
          <path fill="none" d="M-56.29,0 L 56.29 0" class="primitive"/>
        </g>
        <g transform="translate(76.59,42.86)" id="img-b5ccfe4a-26">
          <path fill="none" d="M-56.29,0 L 56.29 0" class="primitive"/>
        </g>
        <g transform="translate(76.59,24.93)" id="img-b5ccfe4a-27">
          <path fill="none" d="M-56.29,0 L 56.29 0" class="primitive"/>
        </g>
        <g transform="translate(76.59,7)" id="img-b5ccfe4a-28">
          <path fill="none" d="M-56.29,0 L 56.29 0" class="primitive"/>
        </g>
      </g>
      <g class="guide xgridlines yfixed" stroke-dasharray="0.5,0.5" stroke-width="0.2" stroke="#D0D0E0" id="img-b5ccfe4a-29">
        <g transform="translate(22.3,42.86)" id="img-b5ccfe4a-30">
          <path fill="none" d="M0,-37.86 L 0 37.86" class="primitive"/>
        </g>
        <g transform="translate(76.59,42.86)" id="img-b5ccfe4a-31">
          <path fill="none" d="M0,-37.86 L 0 37.86" class="primitive"/>
        </g>
        <g transform="translate(130.88,42.86)" id="img-b5ccfe4a-32">
          <path fill="none" d="M0,-37.86 L 0 37.86" class="primitive"/>
        </g>
      </g>
      <g class="plotpanel" id="img-b5ccfe4a-33">
        <metadata>
          <boundingbox value="20.304999999999993mm 5.0mm 112.575mm 75.715mm"/>
          <unitbox value="-0.018420446695832378 0.2055776336889075 1.0368408933916649 -0.21115526737781498"/>
        </metadata>
        <g stroke-width="0.3" fill="#000000" fill-opacity="0.000" class="geometry" id="img-b5ccfe4a-34">
          <g transform="translate(76.59,60.79)" id="img-b5ccfe4a-35" stroke="#00BFFF" stroke-dasharray="none" class="color_0.005">
            <path fill="none" d="M-51.57,-4.06 L -46.14 -6.65 -40.72 -8.65 -35.29 -7.43 -29.86 -3.64 -24.43 -4.04 -19 -4.5 -13.57 -12.49 -8.14 -16.56 -2.71 -21.94 2.71 -20.2 8.14 -13.92 13.57 0.77 19 15.74 24.43 17.93 29.86 17.93 35.29 17.93 40.72 17.93 46.14 17.93 51.57 17.93" class="primitive"/>
          </g>
          <g transform="translate(76.59,60.79)" id="img-b5ccfe4a-36" stroke="#D4CA3A" stroke-dasharray="none" class="color_0.0075">
            <path fill="none" d="M-51.57,-5.57 L -46.14 -4.51 -40.72 -5.3 -35.29 -7.11 -29.86 -5.48 -24.43 -9.24 -19 -8.96 -13.57 -15.68 -8.14 -14.25 -2.71 -19.53 2.71 -19.86 8.14 -13.86 13.57 4.76 19 17.02 24.43 17.93 29.86 17.93 35.29 17.93 40.72 17.93 46.14 17.93 51.57 17.93" class="primitive"/>
          </g>
          <g transform="translate(76.59,60.79)" id="img-b5ccfe4a-37" stroke="#FF6DAE" stroke-dasharray="none" class="color_0.01">
            <path fill="none" d="M-51.57,-7.36 L -46.14 -3.7 -40.72 -5.7 -35.29 -7.7 -29.86 -7.43 -24.43 -8.88 -19 -13.69 -13.57 -7.07 -8.14 -10.2 -2.71 -15.47 2.71 -17.56 8.14 -17.03 13.57 -1.32 19 15.84 24.43 17.65 29.86 17.93 35.29 17.93 40.72 17.93 46.14 17.93 51.57 17.93" class="primitive"/>
          </g>
          <g transform="translate(76.59,60.79)" id="img-b5ccfe4a-38" stroke="#00B78D" stroke-dasharray="none" class="color_0.025">
            <path fill="none" d="M-51.57,-10.21 L -46.14 -2.58 -40.72 -2.18 -35.29 -3.5 -29.86 -6.66 -24.43 -11.88 -19 -10.67 -13.57 -13.15 -8.14 -22.23 -2.71 -18.54 2.71 -15.44 8.14 -6.49 13.57 1.85 19 14.5 24.43 17.54 29.86 17.93 35.29 17.93 40.72 17.93 46.14 17.93 51.57 17.93" class="primitive"/>
          </g>
          <g transform="translate(76.59,60.79)" id="img-b5ccfe4a-39" stroke="#BEA9FF" stroke-dasharray="none" class="color_0.05">
            <path fill="none" d="M-51.57,-11.27 L -46.14 -2.45 -40.72 -6.76 -35.29 -11.36 -29.86 -8.66 -24.43 -7.99 -19 -11.91 -13.57 -13.44 -8.14 -17.06 -2.71 -13.13 2.71 -13.81 8.14 -9.27 13.57 3.64 19 16.27 24.43 17.57 29.86 17.93 35.29 17.93 40.72 17.93 46.14 17.93 51.57 17.93" class="primitive"/>
          </g>
        </g>
      </g>
    </g>
  </g>
  <g class="guide ylabels" font-size="2.82" font-family="'PT Sans Caption','Helvetica Neue','Helvetica',sans-serif" fill="#6C606B" id="img-b5ccfe4a-40">
    <g transform="translate(19.3,78.72)" id="img-b5ccfe4a-41">
      <g class="primitive">
        <text text-anchor="end" dy="0.35em">0.00</text>
      </g>
    </g>
    <g transform="translate(19.3,60.79)" id="img-b5ccfe4a-42">
      <g class="primitive">
        <text text-anchor="end" dy="0.35em">0.05</text>
      </g>
    </g>
    <g transform="translate(19.3,42.86)" id="img-b5ccfe4a-43">
      <g class="primitive">
        <text text-anchor="end" dy="0.35em">0.10</text>
      </g>
    </g>
    <g transform="translate(19.3,24.93)" id="img-b5ccfe4a-44">
      <g class="primitive">
        <text text-anchor="end" dy="0.35em">0.15</text>
      </g>
    </g>
    <g transform="translate(19.3,7)" id="img-b5ccfe4a-45">
      <g class="primitive">
        <text text-anchor="end" dy="0.35em">0.20</text>
      </g>
    </g>
  </g>
  <g font-size="3.88" font-family="'PT Sans','Helvetica Neue','Helvetica',sans-serif" fill="#564A55" stroke="#000000" stroke-opacity="0.000" id="img-b5ccfe4a-46">
    <g transform="translate(8.81,40.86)" id="img-b5ccfe4a-47">
      <g class="primitive">
        <text text-anchor="middle" dy="0.35em" transform="rotate(-90,0, 2)">Frequencia</text>
      </g>
    </g>
  </g>
</g>
<defs>
  <clipPath id="img-b5ccfe4a-19">
    <path d="M20.3,5 L 132.88 5 132.88 80.72 20.3 80.72" />
  </clipPath>
</defs>
</svg>
