<?xml version="1.0" encoding="UTF-8"?>
<svg xmlns="http://www.w3.org/2000/svg"
     xmlns:xlink="http://www.w3.org/1999/xlink"
     xmlns:gadfly="http://www.gadflyjl.org/ns"
     version="1.2"
     width="150mm" height="100mm" viewBox="0 0 150 100"
     stroke="none"
     fill="#000000"
     stroke-width="0.3"
     font-size="3.88"
>
<defs>
  <marker id="arrow" markerWidth="15" markerHeight="7" refX="5" refY="3.5" orient="auto" markerUnits="strokeWidth">
    <path d="M0,0 L15,3.5 L0,7 z" stroke="context-stroke" fill="context-stroke"/>
  </marker>
</defs>
<g class="plotroot xscalable yscalable" id="img-9d3e0c0d-1">
  <g font-size="3.88" font-family="'PT Sans','Helvetica Neue','Helvetica',sans-serif" fill="#564A55" stroke="#000000" stroke-opacity="0.000" id="img-9d3e0c0d-2">
    <g transform="translate(81.48,88.39)">
      <g class="primitive">
        <text text-anchor="middle" dy="0.6em">Numero Medio de Variedades por UD</text>
      </g>
    </g>
  </g>
  <g class="guide xlabels" font-size="2.82" font-family="'PT Sans Caption','Helvetica Neue','Helvetica',sans-serif" fill="#6C606B" id="img-9d3e0c0d-3">
    <g transform="translate(19.96,81.72)">
      <g class="primitive">
        <text text-anchor="middle" dy="0.6em">0</text>
      </g>
    </g>
    <g transform="translate(50.72,81.72)">
      <g class="primitive">
        <text text-anchor="middle" dy="0.6em">10</text>
      </g>
    </g>
    <g transform="translate(81.48,81.72)">
      <g class="primitive">
        <text text-anchor="middle" dy="0.6em">20</text>
      </g>
    </g>
    <g transform="translate(112.24,81.72)">
      <g class="primitive">
        <text text-anchor="middle" dy="0.6em">30</text>
      </g>
    </g>
    <g transform="translate(143,81.72)">
      <g class="primitive">
        <text text-anchor="middle" dy="0.6em">40</text>
      </g>
    </g>
  </g>
  <g clip-path="url(#img-9d3e0c0d-4)">
    <g id="img-9d3e0c0d-5">
      <g pointer-events="visible" fill="#000000" fill-opacity="0.000" stroke="#000000" stroke-opacity="0.000" class="guide background" id="img-9d3e0c0d-6">
        <g transform="translate(81.48,42.86)" id="img-9d3e0c0d-7">
          <path d="M-63.52,-37.86 L 63.52 -37.86 63.52 37.86 -63.52 37.86 z" class="primitive"/>
        </g>
      </g>
      <g class="guide ygridlines xfixed" stroke-dasharray="0.5,0.5" stroke-width="0.2" stroke="#D0D0E0" id="img-9d3e0c0d-8">
        <g transform="translate(81.48,78.71)" id="img-9d3e0c0d-9">
          <path fill="none" d="M-63.52,0 L 63.52 0" class="primitive"/>
        </g>
        <g transform="translate(81.48,54.81)" id="img-9d3e0c0d-10">
          <path fill="none" d="M-63.52,0 L 63.52 0" class="primitive"/>
        </g>
        <g transform="translate(81.48,30.9)" id="img-9d3e0c0d-11">
          <path fill="none" d="M-63.52,0 L 63.52 0" class="primitive"/>
        </g>
        <g transform="translate(81.48,7)" id="img-9d3e0c0d-12">
          <path fill="none" d="M-63.52,0 L 63.52 0" class="primitive"/>
        </g>
      </g>
      <g class="guide xgridlines yfixed" stroke-dasharray="0.5,0.5" stroke-width="0.2" stroke="#D0D0E0" id="img-9d3e0c0d-13">
        <g transform="translate(19.96,42.86)" id="img-9d3e0c0d-14">
          <path fill="none" d="M0,-37.86 L 0 37.86" class="primitive"/>
        </g>
        <g transform="translate(50.72,42.86)" id="img-9d3e0c0d-15">
          <path fill="none" d="M0,-37.86 L 0 37.86" class="primitive"/>
        </g>
        <g transform="translate(81.48,42.86)" id="img-9d3e0c0d-16">
          <path fill="none" d="M0,-37.86 L 0 37.86" class="primitive"/>
        </g>
        <g transform="translate(112.24,42.86)" id="img-9d3e0c0d-17">
          <path fill="none" d="M0,-37.86 L 0 37.86" class="primitive"/>
        </g>
        <g transform="translate(143,42.86)" id="img-9d3e0c0d-18">
          <path fill="none" d="M0,-37.86 L 0 37.86" class="primitive"/>
        </g>
      </g>
      <g class="plotpanel" id="img-9d3e0c0d-19">
        <metadata>
          <boundingbox value="17.958333333333357mm 5.0mm 127.04166666666667mm 75.715mm"/>
          <unitbox value="-0.6501862512698949 50.83664505333612 41.30037250253979 -31.673290106672248"/>
        </metadata>
        <g stroke-width="0.3" fill="#000000" fill-opacity="0.000" class="geometry" id="img-9d3e0c0d-20">
          <g class="color_LCHab{Float32}(70.0f0,60.0f0,240.0f0)" stroke-dasharray="none" stroke="#00BFFF" id="img-9d3e0c0d-21">
            <g transform="translate(33.79,69.2)" id="img-9d3e0c0d-22">
              <path fill="none" d="M-2.13,2.63 L -2.13 2.63 -2.13 2.65 -2.13 2.63 -2.13 2.65 -2.12 2.64 -2.12 2.65 -2.12 2.68 -2.12 2.69 -2.11 2.69 -2.11 2.7 -2.11 2.71 -2.11 2.72 -2.11 2.72 -2.11 2.7 -2.11 2.72 -2.1 2.74 -2.1 2.75 -2.1 2.76 -2.1 2.78 -2.1 2.78 -2.1 2.77 -2.09 2.78 -2.09 2.79 -2.09 2.81 -2.09 2.82 -2.09 2.82 -2.08 2.83 -2.08 2.83 -2.08 2.85 -2.08 2.86 -2.08 2.86 -2.08 2.85 -2.08 2.86 -2.07 2.88 -2.07 2.88 -2.07 2.87 -2.07 2.89 -2.07 2.9 -2.07 2.91 -2.07 2.91 -2.07 2.93 -2.06 2.93 -2.06 2.94 -2.06 2.94 -2.06 2.95 -2.06 2.96 -2.06 2.99 -2.06 3 -2.05 2.99 -2.05 3.01 -2.05 3.04 -2.05 3.04 -2.05 3.05 -2.05 3.05 -2.05 3.05 -2.04 3.07 -2.04 3.08 -2.04 3.11 -2.04 3.11 -2.03 3.08 -2.03 3.1 -2.03 3.12 -2.03 3.11 -2.03 3.12 -2.03 3.12 -2.02 3.15 -2.02 3.18 -2.02 3.16 -2.02 3.17 -2.02 3.18 -2.02 3.19 -2.02 3.18 -2.02 3.18 -2.01 3.19 -2.01 3.2 -2.01 3.22 -2.01 3.22 -2.01 3.23 -2.01 3.23 -2.01 3.24 -2.01 3.23 -2 3.23 -2 3.25 -2 3.25 -2 3.23 -1.99 3.22 -1.98 3.19 -1.97 3.16 -1.96 3.07 -1.93 2.89 -1.87 2.44 -1.74 1.64 -1.45 -0.61 -0.61 -9.72 2.87 -28.64 14.78 -49.36 35.05 -61.25 57.62 -61.83 82.57 -61.83" class="primitive"/>
            </g>
          </g>
        </g>
      </g>
    </g>
  </g>
  <g class="guide ylabels" font-size="2.82" font-family="'PT Sans Caption','Helvetica Neue','Helvetica',sans-serif" fill="#6C606B" id="img-9d3e0c0d-23">
    <g transform="translate(16.96,78.71)" id="img-9d3e0c0d-24">
      <g class="primitive">
        <text text-anchor="end" dy="0.35em">20</text>
      </g>
    </g>
    <g transform="translate(16.96,54.81)" id="img-9d3e0c0d-25">
      <g class="primitive">
        <text text-anchor="end" dy="0.35em">30</text>
      </g>
    </g>
    <g transform="translate(16.96,30.9)" id="img-9d3e0c0d-26">
      <g class="primitive">
        <text text-anchor="end" dy="0.35em">40</text>
      </g>
    </g>
    <g transform="translate(16.96,7)" id="img-9d3e0c0d-27">
      <g class="primitive">
        <text text-anchor="end" dy="0.35em">50</text>
      </g>
    </g>
  </g>
  <g font-size="3.88" font-family="'PT Sans','Helvetica Neue','Helvetica',sans-serif" fill="#564A55" stroke="#000000" stroke-opacity="0.000" id="img-9d3e0c0d-28">
    <g transform="translate(8.81,40.86)" id="img-9d3e0c0d-29">
      <g class="primitive">
        <text text-anchor="middle" dy="0.35em" transform="rotate(-90,0, 2)">Numero de Variedades</text>
      </g>
    </g>
  </g>
</g>
<defs>
  <clipPath id="img-9d3e0c0d-4">
    <path d="M17.96,5 L 145 5 145 80.72 17.96 80.72" />
  </clipPath>
</defs>
</svg>
