<?xml version="1.0" encoding="UTF-8"?>
<svg xmlns="http://www.w3.org/2000/svg"
     xmlns:xlink="http://www.w3.org/1999/xlink"
     xmlns:gadfly="http://www.gadflyjl.org/ns"
     version="1.2"
     width="150mm" height="100mm" viewBox="0 0 150 100"
     stroke="none"
     fill="#000000"
     stroke-width="0.3"
     font-size="3.88"
>
<defs>
  <marker id="arrow" markerWidth="15" markerHeight="7" refX="5" refY="3.5" orient="auto" markerUnits="strokeWidth">
    <path d="M0,0 L15,3.5 L0,7 z" stroke="context-stroke" fill="context-stroke"/>
  </marker>
</defs>
<g class="plotroot xscalable yscalable" id="img-f57bb68b-1">
  <g font-size="3.88" font-family="'PT Sans','Helvetica Neue','Helvetica',sans-serif" fill="#564A55" stroke="#000000" stroke-opacity="0.000" id="img-f57bb68b-2">
    <g transform="translate(82.32,88.39)">
      <g class="primitive">
        <text text-anchor="middle" dy="0.6em">Tempo</text>
      </g>
    </g>
  </g>
  <g class="guide xlabels" font-size="2.82" font-family="'PT Sans Caption','Helvetica Neue','Helvetica',sans-serif" fill="#6C606B" id="img-f57bb68b-3">
    <g transform="translate(21.63,81.72)">
      <g class="primitive">
        <text text-anchor="middle" dy="0.6em">0</text>
      </g>
    </g>
    <g transform="translate(45.91,81.72)">
      <g class="primitive">
        <text text-anchor="middle" dy="0.6em">100</text>
      </g>
    </g>
    <g transform="translate(70.18,81.72)">
      <g class="primitive">
        <text text-anchor="middle" dy="0.6em">200</text>
      </g>
    </g>
    <g transform="translate(94.45,81.72)">
      <g class="primitive">
        <text text-anchor="middle" dy="0.6em">300</text>
      </g>
    </g>
    <g transform="translate(118.73,81.72)">
      <g class="primitive">
        <text text-anchor="middle" dy="0.6em">400</text>
      </g>
    </g>
    <g transform="translate(143,81.72)">
      <g class="primitive">
        <text text-anchor="middle" dy="0.6em">500</text>
      </g>
    </g>
  </g>
  <g clip-path="url(#img-f57bb68b-4)">
    <g id="img-f57bb68b-5">
      <g pointer-events="visible" fill="#000000" fill-opacity="0.000" stroke="#000000" stroke-opacity="0.000" class="guide background" id="img-f57bb68b-6">
        <g transform="translate(82.32,42.86)" id="img-f57bb68b-7">
          <path d="M-62.68,-37.86 L 62.68 -37.86 62.68 37.86 -62.68 37.86 z" class="primitive"/>
        </g>
      </g>
      <g class="guide ygridlines xfixed" stroke-dasharray="0.5,0.5" stroke-width="0.2" stroke="#D0D0E0" id="img-f57bb68b-8">
        <g transform="translate(82.32,78.71)" id="img-f57bb68b-9">
          <path fill="none" d="M-62.68,0 L 62.68 0" class="primitive"/>
        </g>
        <g transform="translate(82.32,54.81)" id="img-f57bb68b-10">
          <path fill="none" d="M-62.68,0 L 62.68 0" class="primitive"/>
        </g>
        <g transform="translate(82.32,30.9)" id="img-f57bb68b-11">
          <path fill="none" d="M-62.68,0 L 62.68 0" class="primitive"/>
        </g>
        <g transform="translate(82.32,7)" id="img-f57bb68b-12">
          <path fill="none" d="M-62.68,0 L 62.68 0" class="primitive"/>
        </g>
      </g>
      <g class="guide xgridlines yfixed" stroke-dasharray="0.5,0.5" stroke-width="0.2" stroke="#D0D0E0" id="img-f57bb68b-13">
        <g transform="translate(21.63,42.86)" id="img-f57bb68b-14">
          <path fill="none" d="M0,-37.86 L 0 37.86" class="primitive"/>
        </g>
        <g transform="translate(45.91,42.86)" id="img-f57bb68b-15">
          <path fill="none" d="M0,-37.86 L 0 37.86" class="primitive"/>
        </g>
        <g transform="translate(70.18,42.86)" id="img-f57bb68b-16">
          <path fill="none" d="M0,-37.86 L 0 37.86" class="primitive"/>
        </g>
        <g transform="translate(94.45,42.86)" id="img-f57bb68b-17">
          <path fill="none" d="M0,-37.86 L 0 37.86" class="primitive"/>
        </g>
        <g transform="translate(118.73,42.86)" id="img-f57bb68b-18">
          <path fill="none" d="M0,-37.86 L 0 37.86" class="primitive"/>
        </g>
        <g transform="translate(143,42.86)" id="img-f57bb68b-19">
          <path fill="none" d="M0,-37.86 L 0 37.86" class="primitive"/>
        </g>
      </g>
      <g class="plotpanel" id="img-f57bb68b-20">
        <metadata>
          <boundingbox value="19.63166666666669mm 5.0mm 125.36833333333334mm 75.715mm"/>
          <unitbox value="-8.239381497095618 154.1832252666806 516.4787629941912 -158.36645053336125"/>
        </metadata>
        <g shape-rendering="crispEdges" stroke-width="0.3" id="img-f57bb68b-21">
          <g stroke="#000000" stroke-opacity="0.000" class="geometry" fill="#00BFFF" id="img-f57bb68b-22">
            <g transform="translate(22.04,48.36)" id="img-f57bb68b-23">
              <path d="M-0.43,-30.36 L 0.43 -30.36 0.43 30.36 -0.43 30.36 z" class="primitive"/>
            </g>
            <g transform="translate(22.84,56.96)" id="img-f57bb68b-24">
              <path d="M-0.43,-21.75 L 0.43 -21.75 0.43 21.75 -0.43 21.75 z" class="primitive"/>
            </g>
            <g transform="translate(23.65,59.35)" id="img-f57bb68b-25">
              <path d="M-0.43,-19.36 L 0.43 -19.36 0.43 19.36 -0.43 19.36 z" class="primitive"/>
            </g>
            <g transform="translate(24.46,53.85)" id="img-f57bb68b-26">
              <path d="M-0.43,-24.86 L 0.43 -24.86 0.43 24.86 -0.43 24.86 z" class="primitive"/>
            </g>
            <g transform="translate(25.27,61.03)" id="img-f57bb68b-27">
              <path d="M-0.43,-17.69 L 0.43 -17.69 0.43 17.69 -0.43 17.69 z" class="primitive"/>
            </g>
            <g transform="translate(26.07,62.22)" id="img-f57bb68b-28">
              <path d="M-0.43,-16.49 L 0.43 -16.49 0.43 16.49 -0.43 16.49 z" class="primitive"/>
            </g>
            <g transform="translate(26.88,53.38)" id="img-f57bb68b-29">
              <path d="M-0.43,-25.34 L 0.43 -25.34 0.43 25.34 -0.43 25.34 z" class="primitive"/>
            </g>
            <g transform="translate(27.69,59.35)" id="img-f57bb68b-30">
              <path d="M-0.43,-19.36 L 0.43 -19.36 0.43 19.36 -0.43 19.36 z" class="primitive"/>
            </g>
            <g transform="translate(28.5,58.4)" id="img-f57bb68b-31">
              <path d="M-0.43,-20.32 L 0.43 -20.32 0.43 20.32 -0.43 20.32 z" class="primitive"/>
            </g>
            <g transform="translate(29.3,52.18)" id="img-f57bb68b-32">
              <path d="M-0.43,-26.53 L 0.43 -26.53 0.43 26.53 -0.43 26.53 z" class="primitive"/>
            </g>
            <g transform="translate(30.11,60.55)" id="img-f57bb68b-33">
              <path d="M-0.43,-18.17 L 0.43 -18.17 0.43 18.17 -0.43 18.17 z" class="primitive"/>
            </g>
            <g transform="translate(30.92,62.46)" id="img-f57bb68b-34">
              <path d="M-0.43,-16.26 L 0.43 -16.26 0.43 16.26 -0.43 16.26 z" class="primitive"/>
            </g>
            <g transform="translate(31.73,60.79)" id="img-f57bb68b-35">
              <path d="M-0.43,-17.93 L 0.43 -17.93 0.43 17.93 -0.43 17.93 z" class="primitive"/>
            </g>
            <g transform="translate(32.53,69.63)" id="img-f57bb68b-36">
              <path d="M-0.43,-9.08 L 0.43 -9.08 0.43 9.08 -0.43 9.08 z" class="primitive"/>
            </g>
            <g transform="translate(33.34,73.93)" id="img-f57bb68b-37">
              <path d="M-0.43,-4.78 L 0.43 -4.78 0.43 4.78 -0.43 4.78 z" class="primitive"/>
            </g>
            <g transform="translate(34.15,72.5)" id="img-f57bb68b-38">
              <path d="M-0.43,-6.22 L 0.43 -6.22 0.43 6.22 -0.43 6.22 z" class="primitive"/>
            </g>
            <g transform="translate(34.96,74.17)" id="img-f57bb68b-39">
              <path d="M-0.43,-4.54 L 0.43 -4.54 0.43 4.54 -0.43 4.54 z" class="primitive"/>
            </g>
            <g transform="translate(35.76,74.65)" id="img-f57bb68b-40">
              <path d="M-0.43,-4.06 L 0.43 -4.06 0.43 4.06 -0.43 4.06 z" class="primitive"/>
            </g>
            <g transform="translate(36.57,73.93)" id="img-f57bb68b-41">
              <path d="M-0.43,-4.78 L 0.43 -4.78 0.43 4.78 -0.43 4.78 z" class="primitive"/>
            </g>
            <g transform="translate(37.38,74.41)" id="img-f57bb68b-42">
              <path d="M-0.43,-4.3 L 0.43 -4.3 0.43 4.3 -0.43 4.3 z" class="primitive"/>
            </g>
            <g transform="translate(38.19,75.13)" id="img-f57bb68b-43">
              <path d="M-0.43,-3.59 L 0.43 -3.59 0.43 3.59 -0.43 3.59 z" class="primitive"/>
            </g>
            <g transform="translate(38.99,74.41)" id="img-f57bb68b-44">
              <path d="M-0.43,-4.3 L 0.43 -4.3 0.43 4.3 -0.43 4.3 z" class="primitive"/>
            </g>
            <g transform="translate(39.8,76.09)" id="img-f57bb68b-45">
              <path d="M-0.43,-2.63 L 0.43 -2.63 0.43 2.63 -0.43 2.63 z" class="primitive"/>
            </g>
            <g transform="translate(40.61,76.56)" id="img-f57bb68b-46">
              <path d="M-0.43,-2.15 L 0.43 -2.15 0.43 2.15 -0.43 2.15 z" class="primitive"/>
            </g>
            <g transform="translate(41.42,76.09)" id="img-f57bb68b-47">
              <path d="M-0.43,-2.63 L 0.43 -2.63 0.43 2.63 -0.43 2.63 z" class="primitive"/>
            </g>
            <g transform="translate(42.22,76.8)" id="img-f57bb68b-48">
              <path d="M-0.43,-1.91 L 0.43 -1.91 0.43 1.91 -0.43 1.91 z" class="primitive"/>
            </g>
            <g transform="translate(43.03,77.04)" id="img-f57bb68b-49">
              <path d="M-0.43,-1.67 L 0.43 -1.67 0.43 1.67 -0.43 1.67 z" class="primitive"/>
            </g>
            <g transform="translate(43.84,76.32)" id="img-f57bb68b-50">
              <path d="M-0.43,-2.39 L 0.43 -2.39 0.43 2.39 -0.43 2.39 z" class="primitive"/>
            </g>
            <g transform="translate(44.65,76.8)" id="img-f57bb68b-51">
              <path d="M-0.43,-1.91 L 0.43 -1.91 0.43 1.91 -0.43 1.91 z" class="primitive"/>
            </g>
            <g transform="translate(45.45,77.04)" id="img-f57bb68b-52">
              <path d="M-0.43,-1.67 L 0.43 -1.67 0.43 1.67 -0.43 1.67 z" class="primitive"/>
            </g>
            <g transform="translate(46.26,76.32)" id="img-f57bb68b-53">
              <path d="M-0.43,-2.39 L 0.43 -2.39 0.43 2.39 -0.43 2.39 z" class="primitive"/>
            </g>
            <g transform="translate(47.07,76.8)" id="img-f57bb68b-54">
              <path d="M-0.43,-1.91 L 0.43 -1.91 0.43 1.91 -0.43 1.91 z" class="primitive"/>
            </g>
            <g transform="translate(47.88,77.04)" id="img-f57bb68b-55">
              <path d="M-0.43,-1.67 L 0.43 -1.67 0.43 1.67 -0.43 1.67 z" class="primitive"/>
            </g>
            <g transform="translate(48.68,76.32)" id="img-f57bb68b-56">
              <path d="M-0.43,-2.39 L 0.43 -2.39 0.43 2.39 -0.43 2.39 z" class="primitive"/>
            </g>
            <g transform="translate(49.49,76.8)" id="img-f57bb68b-57">
              <path d="M-0.43,-1.91 L 0.43 -1.91 0.43 1.91 -0.43 1.91 z" class="primitive"/>
            </g>
            <g transform="translate(50.3,77.04)" id="img-f57bb68b-58">
              <path d="M-0.43,-1.67 L 0.43 -1.67 0.43 1.67 -0.43 1.67 z" class="primitive"/>
            </g>
            <g transform="translate(51.11,76.32)" id="img-f57bb68b-59">
              <path d="M-0.43,-2.39 L 0.43 -2.39 0.43 2.39 -0.43 2.39 z" class="primitive"/>
            </g>
            <g transform="translate(51.91,76.8)" id="img-f57bb68b-60">
              <path d="M-0.43,-1.91 L 0.43 -1.91 0.43 1.91 -0.43 1.91 z" class="primitive"/>
            </g>
            <g transform="translate(52.72,77.04)" id="img-f57bb68b-61">
              <path d="M-0.43,-1.67 L 0.43 -1.67 0.43 1.67 -0.43 1.67 z" class="primitive"/>
            </g>
            <g transform="translate(53.53,76.32)" id="img-f57bb68b-62">
              <path d="M-0.43,-2.39 L 0.43 -2.39 0.43 2.39 -0.43 2.39 z" class="primitive"/>
            </g>
            <g transform="translate(54.34,76.8)" id="img-f57bb68b-63">
              <path d="M-0.43,-1.91 L 0.43 -1.91 0.43 1.91 -0.43 1.91 z" class="primitive"/>
            </g>
            <g transform="translate(55.14,77.04)" id="img-f57bb68b-64">
              <path d="M-0.43,-1.67 L 0.43 -1.67 0.43 1.67 -0.43 1.67 z" class="primitive"/>
            </g>
            <g transform="translate(55.95,76.32)" id="img-f57bb68b-65">
              <path d="M-0.43,-2.39 L 0.43 -2.39 0.43 2.39 -0.43 2.39 z" class="primitive"/>
            </g>
            <g transform="translate(56.76,76.8)" id="img-f57bb68b-66">
              <path d="M-0.43,-1.91 L 0.43 -1.91 0.43 1.91 -0.43 1.91 z" class="primitive"/>
            </g>
            <g transform="translate(57.57,77.04)" id="img-f57bb68b-67">
              <path d="M-0.43,-1.67 L 0.43 -1.67 0.43 1.67 -0.43 1.67 z" class="primitive"/>
            </g>
            <g transform="translate(58.37,76.32)" id="img-f57bb68b-68">
              <path d="M-0.43,-2.39 L 0.43 -2.39 0.43 2.39 -0.43 2.39 z" class="primitive"/>
            </g>
            <g transform="translate(59.18,76.8)" id="img-f57bb68b-69">
              <path d="M-0.43,-1.91 L 0.43 -1.91 0.43 1.91 -0.43 1.91 z" class="primitive"/>
            </g>
            <g transform="translate(59.99,77.04)" id="img-f57bb68b-70">
              <path d="M-0.43,-1.67 L 0.43 -1.67 0.43 1.67 -0.43 1.67 z" class="primitive"/>
            </g>
            <g transform="translate(60.8,76.32)" id="img-f57bb68b-71">
              <path d="M-0.43,-2.39 L 0.43 -2.39 0.43 2.39 -0.43 2.39 z" class="primitive"/>
            </g>
            <g transform="translate(61.6,76.8)" id="img-f57bb68b-72">
              <path d="M-0.43,-1.91 L 0.43 -1.91 0.43 1.91 -0.43 1.91 z" class="primitive"/>
            </g>
            <g transform="translate(62.41,77.04)" id="img-f57bb68b-73">
              <path d="M-0.43,-1.67 L 0.43 -1.67 0.43 1.67 -0.43 1.67 z" class="primitive"/>
            </g>
            <g transform="translate(63.22,76.8)" id="img-f57bb68b-74">
              <path d="M-0.43,-1.91 L 0.43 -1.91 0.43 1.91 -0.43 1.91 z" class="primitive"/>
            </g>
            <g transform="translate(64.03,76.32)" id="img-f57bb68b-75">
              <path d="M-0.43,-2.39 L 0.43 -2.39 0.43 2.39 -0.43 2.39 z" class="primitive"/>
            </g>
            <g transform="translate(64.83,77.04)" id="img-f57bb68b-76">
              <path d="M-0.43,-1.67 L 0.43 -1.67 0.43 1.67 -0.43 1.67 z" class="primitive"/>
            </g>
            <g transform="translate(65.64,76.8)" id="img-f57bb68b-77">
              <path d="M-0.43,-1.91 L 0.43 -1.91 0.43 1.91 -0.43 1.91 z" class="primitive"/>
            </g>
            <g transform="translate(66.45,76.32)" id="img-f57bb68b-78">
              <path d="M-0.43,-2.39 L 0.43 -2.39 0.43 2.39 -0.43 2.39 z" class="primitive"/>
            </g>
            <g transform="translate(67.26,77.04)" id="img-f57bb68b-79">
              <path d="M-0.43,-1.67 L 0.43 -1.67 0.43 1.67 -0.43 1.67 z" class="primitive"/>
            </g>
            <g transform="translate(68.06,76.8)" id="img-f57bb68b-80">
              <path d="M-0.43,-1.91 L 0.43 -1.91 0.43 1.91 -0.43 1.91 z" class="primitive"/>
            </g>
            <g transform="translate(68.87,76.32)" id="img-f57bb68b-81">
              <path d="M-0.43,-2.39 L 0.43 -2.39 0.43 2.39 -0.43 2.39 z" class="primitive"/>
            </g>
            <g transform="translate(69.68,77.04)" id="img-f57bb68b-82">
              <path d="M-0.43,-1.67 L 0.43 -1.67 0.43 1.67 -0.43 1.67 z" class="primitive"/>
            </g>
            <g transform="translate(70.49,76.8)" id="img-f57bb68b-83">
              <path d="M-0.43,-1.91 L 0.43 -1.91 0.43 1.91 -0.43 1.91 z" class="primitive"/>
            </g>
            <g transform="translate(71.29,76.32)" id="img-f57bb68b-84">
              <path d="M-0.43,-2.39 L 0.43 -2.39 0.43 2.39 -0.43 2.39 z" class="primitive"/>
            </g>
            <g transform="translate(72.1,77.04)" id="img-f57bb68b-85">
              <path d="M-0.43,-1.67 L 0.43 -1.67 0.43 1.67 -0.43 1.67 z" class="primitive"/>
            </g>
            <g transform="translate(72.91,76.8)" id="img-f57bb68b-86">
              <path d="M-0.43,-1.91 L 0.43 -1.91 0.43 1.91 -0.43 1.91 z" class="primitive"/>
            </g>
            <g transform="translate(73.72,76.32)" id="img-f57bb68b-87">
              <path d="M-0.43,-2.39 L 0.43 -2.39 0.43 2.39 -0.43 2.39 z" class="primitive"/>
            </g>
            <g transform="translate(74.52,77.04)" id="img-f57bb68b-88">
              <path d="M-0.43,-1.67 L 0.43 -1.67 0.43 1.67 -0.43 1.67 z" class="primitive"/>
            </g>
            <g transform="translate(75.33,76.8)" id="img-f57bb68b-89">
              <path d="M-0.43,-1.91 L 0.43 -1.91 0.43 1.91 -0.43 1.91 z" class="primitive"/>
            </g>
            <g transform="translate(76.14,76.32)" id="img-f57bb68b-90">
              <path d="M-0.43,-2.39 L 0.43 -2.39 0.43 2.39 -0.43 2.39 z" class="primitive"/>
            </g>
            <g transform="translate(76.95,77.04)" id="img-f57bb68b-91">
              <path d="M-0.43,-1.67 L 0.43 -1.67 0.43 1.67 -0.43 1.67 z" class="primitive"/>
            </g>
            <g transform="translate(77.75,76.8)" id="img-f57bb68b-92">
              <path d="M-0.43,-1.91 L 0.43 -1.91 0.43 1.91 -0.43 1.91 z" class="primitive"/>
            </g>
            <g transform="translate(78.56,76.32)" id="img-f57bb68b-93">
              <path d="M-0.43,-2.39 L 0.43 -2.39 0.43 2.39 -0.43 2.39 z" class="primitive"/>
            </g>
            <g transform="translate(79.37,77.04)" id="img-f57bb68b-94">
              <path d="M-0.43,-1.67 L 0.43 -1.67 0.43 1.67 -0.43 1.67 z" class="primitive"/>
            </g>
            <g transform="translate(80.18,76.8)" id="img-f57bb68b-95">
              <path d="M-0.43,-1.91 L 0.43 -1.91 0.43 1.91 -0.43 1.91 z" class="primitive"/>
            </g>
            <g transform="translate(80.98,76.32)" id="img-f57bb68b-96">
              <path d="M-0.43,-2.39 L 0.43 -2.39 0.43 2.39 -0.43 2.39 z" class="primitive"/>
            </g>
            <g transform="translate(81.79,77.04)" id="img-f57bb68b-97">
              <path d="M-0.43,-1.67 L 0.43 -1.67 0.43 1.67 -0.43 1.67 z" class="primitive"/>
            </g>
            <g transform="translate(82.6,76.8)" id="img-f57bb68b-98">
              <path d="M-0.43,-1.91 L 0.43 -1.91 0.43 1.91 -0.43 1.91 z" class="primitive"/>
            </g>
            <g transform="translate(83.41,76.32)" id="img-f57bb68b-99">
              <path d="M-0.43,-2.39 L 0.43 -2.39 0.43 2.39 -0.43 2.39 z" class="primitive"/>
            </g>
            <g transform="translate(84.21,77.04)" id="img-f57bb68b-100">
              <path d="M-0.43,-1.67 L 0.43 -1.67 0.43 1.67 -0.43 1.67 z" class="primitive"/>
            </g>
            <g transform="translate(85.02,76.8)" id="img-f57bb68b-101">
              <path d="M-0.43,-1.91 L 0.43 -1.91 0.43 1.91 -0.43 1.91 z" class="primitive"/>
            </g>
            <g transform="translate(85.83,76.32)" id="img-f57bb68b-102">
              <path d="M-0.43,-2.39 L 0.43 -2.39 0.43 2.39 -0.43 2.39 z" class="primitive"/>
            </g>
            <g transform="translate(86.64,77.04)" id="img-f57bb68b-103">
              <path d="M-0.43,-1.67 L 0.43 -1.67 0.43 1.67 -0.43 1.67 z" class="primitive"/>
            </g>
            <g transform="translate(87.44,76.8)" id="img-f57bb68b-104">
              <path d="M-0.43,-1.91 L 0.43 -1.91 0.43 1.91 -0.43 1.91 z" class="primitive"/>
            </g>
            <g transform="translate(88.25,76.32)" id="img-f57bb68b-105">
              <path d="M-0.43,-2.39 L 0.43 -2.39 0.43 2.39 -0.43 2.39 z" class="primitive"/>
            </g>
            <g transform="translate(89.06,77.04)" id="img-f57bb68b-106">
              <path d="M-0.43,-1.67 L 0.43 -1.67 0.43 1.67 -0.43 1.67 z" class="primitive"/>
            </g>
            <g transform="translate(89.87,76.8)" id="img-f57bb68b-107">
              <path d="M-0.43,-1.91 L 0.43 -1.91 0.43 1.91 -0.43 1.91 z" class="primitive"/>
            </g>
            <g transform="translate(90.67,76.32)" id="img-f57bb68b-108">
              <path d="M-0.43,-2.39 L 0.43 -2.39 0.43 2.39 -0.43 2.39 z" class="primitive"/>
            </g>
            <g transform="translate(91.48,77.04)" id="img-f57bb68b-109">
              <path d="M-0.43,-1.67 L 0.43 -1.67 0.43 1.67 -0.43 1.67 z" class="primitive"/>
            </g>
            <g transform="translate(92.29,76.8)" id="img-f57bb68b-110">
              <path d="M-0.43,-1.91 L 0.43 -1.91 0.43 1.91 -0.43 1.91 z" class="primitive"/>
            </g>
            <g transform="translate(93.1,76.32)" id="img-f57bb68b-111">
              <path d="M-0.43,-2.39 L 0.43 -2.39 0.43 2.39 -0.43 2.39 z" class="primitive"/>
            </g>
            <g transform="translate(93.9,77.04)" id="img-f57bb68b-112">
              <path d="M-0.43,-1.67 L 0.43 -1.67 0.43 1.67 -0.43 1.67 z" class="primitive"/>
            </g>
            <g transform="translate(94.71,76.8)" id="img-f57bb68b-113">
              <path d="M-0.43,-1.91 L 0.43 -1.91 0.43 1.91 -0.43 1.91 z" class="primitive"/>
            </g>
            <g transform="translate(95.52,76.32)" id="img-f57bb68b-114">
              <path d="M-0.43,-2.39 L 0.43 -2.39 0.43 2.39 -0.43 2.39 z" class="primitive"/>
            </g>
            <g transform="translate(96.33,77.04)" id="img-f57bb68b-115">
              <path d="M-0.43,-1.67 L 0.43 -1.67 0.43 1.67 -0.43 1.67 z" class="primitive"/>
            </g>
            <g transform="translate(97.13,76.8)" id="img-f57bb68b-116">
              <path d="M-0.43,-1.91 L 0.43 -1.91 0.43 1.91 -0.43 1.91 z" class="primitive"/>
            </g>
            <g transform="translate(97.94,76.32)" id="img-f57bb68b-117">
              <path d="M-0.43,-2.39 L 0.43 -2.39 0.43 2.39 -0.43 2.39 z" class="primitive"/>
            </g>
            <g transform="translate(98.75,77.04)" id="img-f57bb68b-118">
              <path d="M-0.43,-1.67 L 0.43 -1.67 0.43 1.67 -0.43 1.67 z" class="primitive"/>
            </g>
            <g transform="translate(99.56,76.8)" id="img-f57bb68b-119">
              <path d="M-0.43,-1.91 L 0.43 -1.91 0.43 1.91 -0.43 1.91 z" class="primitive"/>
            </g>
            <g transform="translate(100.36,76.32)" id="img-f57bb68b-120">
              <path d="M-0.43,-2.39 L 0.43 -2.39 0.43 2.39 -0.43 2.39 z" class="primitive"/>
            </g>
            <g transform="translate(101.17,77.04)" id="img-f57bb68b-121">
              <path d="M-0.43,-1.67 L 0.43 -1.67 0.43 1.67 -0.43 1.67 z" class="primitive"/>
            </g>
            <g transform="translate(101.98,76.8)" id="img-f57bb68b-122">
              <path d="M-0.43,-1.91 L 0.43 -1.91 0.43 1.91 -0.43 1.91 z" class="primitive"/>
            </g>
            <g transform="translate(102.79,77.04)" id="img-f57bb68b-123">
              <path d="M-0.43,-1.67 L 0.43 -1.67 0.43 1.67 -0.43 1.67 z" class="primitive"/>
            </g>
            <g transform="translate(103.59,76.32)" id="img-f57bb68b-124">
              <path d="M-0.43,-2.39 L 0.43 -2.39 0.43 2.39 -0.43 2.39 z" class="primitive"/>
            </g>
            <g transform="translate(104.4,76.8)" id="img-f57bb68b-125">
              <path d="M-0.43,-1.91 L 0.43 -1.91 0.43 1.91 -0.43 1.91 z" class="primitive"/>
            </g>
            <g transform="translate(105.21,77.04)" id="img-f57bb68b-126">
              <path d="M-0.43,-1.67 L 0.43 -1.67 0.43 1.67 -0.43 1.67 z" class="primitive"/>
            </g>
            <g transform="translate(106.02,76.32)" id="img-f57bb68b-127">
              <path d="M-0.43,-2.39 L 0.43 -2.39 0.43 2.39 -0.43 2.39 z" class="primitive"/>
            </g>
            <g transform="translate(106.82,76.8)" id="img-f57bb68b-128">
              <path d="M-0.43,-1.91 L 0.43 -1.91 0.43 1.91 -0.43 1.91 z" class="primitive"/>
            </g>
            <g transform="translate(107.63,77.04)" id="img-f57bb68b-129">
              <path d="M-0.43,-1.67 L 0.43 -1.67 0.43 1.67 -0.43 1.67 z" class="primitive"/>
            </g>
            <g transform="translate(108.44,76.32)" id="img-f57bb68b-130">
              <path d="M-0.43,-2.39 L 0.43 -2.39 0.43 2.39 -0.43 2.39 z" class="primitive"/>
            </g>
            <g transform="translate(109.25,76.8)" id="img-f57bb68b-131">
              <path d="M-0.43,-1.91 L 0.43 -1.91 0.43 1.91 -0.43 1.91 z" class="primitive"/>
            </g>
            <g transform="translate(110.05,77.04)" id="img-f57bb68b-132">
              <path d="M-0.43,-1.67 L 0.43 -1.67 0.43 1.67 -0.43 1.67 z" class="primitive"/>
            </g>
            <g transform="translate(110.86,76.32)" id="img-f57bb68b-133">
              <path d="M-0.43,-2.39 L 0.43 -2.39 0.43 2.39 -0.43 2.39 z" class="primitive"/>
            </g>
            <g transform="translate(111.67,76.8)" id="img-f57bb68b-134">
              <path d="M-0.43,-1.91 L 0.43 -1.91 0.43 1.91 -0.43 1.91 z" class="primitive"/>
            </g>
            <g transform="translate(112.48,77.04)" id="img-f57bb68b-135">
              <path d="M-0.43,-1.67 L 0.43 -1.67 0.43 1.67 -0.43 1.67 z" class="primitive"/>
            </g>
            <g transform="translate(113.28,76.32)" id="img-f57bb68b-136">
              <path d="M-0.43,-2.39 L 0.43 -2.39 0.43 2.39 -0.43 2.39 z" class="primitive"/>
            </g>
            <g transform="translate(114.09,76.8)" id="img-f57bb68b-137">
              <path d="M-0.43,-1.91 L 0.43 -1.91 0.43 1.91 -0.43 1.91 z" class="primitive"/>
            </g>
            <g transform="translate(114.9,77.04)" id="img-f57bb68b-138">
              <path d="M-0.43,-1.67 L 0.43 -1.67 0.43 1.67 -0.43 1.67 z" class="primitive"/>
            </g>
            <g transform="translate(115.71,76.32)" id="img-f57bb68b-139">
              <path d="M-0.43,-2.39 L 0.43 -2.39 0.43 2.39 -0.43 2.39 z" class="primitive"/>
            </g>
            <g transform="translate(116.51,76.8)" id="img-f57bb68b-140">
              <path d="M-0.43,-1.91 L 0.43 -1.91 0.43 1.91 -0.43 1.91 z" class="primitive"/>
            </g>
            <g transform="translate(117.32,77.04)" id="img-f57bb68b-141">
              <path d="M-0.43,-1.67 L 0.43 -1.67 0.43 1.67 -0.43 1.67 z" class="primitive"/>
            </g>
            <g transform="translate(118.13,76.32)" id="img-f57bb68b-142">
              <path d="M-0.43,-2.39 L 0.43 -2.39 0.43 2.39 -0.43 2.39 z" class="primitive"/>
            </g>
            <g transform="translate(118.94,76.8)" id="img-f57bb68b-143">
              <path d="M-0.43,-1.91 L 0.43 -1.91 0.43 1.91 -0.43 1.91 z" class="primitive"/>
            </g>
            <g transform="translate(119.74,77.04)" id="img-f57bb68b-144">
              <path d="M-0.43,-1.67 L 0.43 -1.67 0.43 1.67 -0.43 1.67 z" class="primitive"/>
            </g>
            <g transform="translate(120.55,76.32)" id="img-f57bb68b-145">
              <path d="M-0.43,-2.39 L 0.43 -2.39 0.43 2.39 -0.43 2.39 z" class="primitive"/>
            </g>
            <g transform="translate(121.36,76.8)" id="img-f57bb68b-146">
              <path d="M-0.43,-1.91 L 0.43 -1.91 0.43 1.91 -0.43 1.91 z" class="primitive"/>
            </g>
            <g transform="translate(122.17,77.04)" id="img-f57bb68b-147">
              <path d="M-0.43,-1.67 L 0.43 -1.67 0.43 1.67 -0.43 1.67 z" class="primitive"/>
            </g>
            <g transform="translate(122.97,76.32)" id="img-f57bb68b-148">
              <path d="M-0.43,-2.39 L 0.43 -2.39 0.43 2.39 -0.43 2.39 z" class="primitive"/>
            </g>
            <g transform="translate(123.78,76.8)" id="img-f57bb68b-149">
              <path d="M-0.43,-1.91 L 0.43 -1.91 0.43 1.91 -0.43 1.91 z" class="primitive"/>
            </g>
            <g transform="translate(124.59,77.04)" id="img-f57bb68b-150">
              <path d="M-0.43,-1.67 L 0.43 -1.67 0.43 1.67 -0.43 1.67 z" class="primitive"/>
            </g>
            <g transform="translate(125.4,76.32)" id="img-f57bb68b-151">
              <path d="M-0.43,-2.39 L 0.43 -2.39 0.43 2.39 -0.43 2.39 z" class="primitive"/>
            </g>
            <g transform="translate(126.2,76.8)" id="img-f57bb68b-152">
              <path d="M-0.43,-1.91 L 0.43 -1.91 0.43 1.91 -0.43 1.91 z" class="primitive"/>
            </g>
            <g transform="translate(127.01,77.04)" id="img-f57bb68b-153">
              <path d="M-0.43,-1.67 L 0.43 -1.67 0.43 1.67 -0.43 1.67 z" class="primitive"/>
            </g>
            <g transform="translate(127.82,76.32)" id="img-f57bb68b-154">
              <path d="M-0.43,-2.39 L 0.43 -2.39 0.43 2.39 -0.43 2.39 z" class="primitive"/>
            </g>
            <g transform="translate(128.63,76.8)" id="img-f57bb68b-155">
              <path d="M-0.43,-1.91 L 0.43 -1.91 0.43 1.91 -0.43 1.91 z" class="primitive"/>
            </g>
            <g transform="translate(129.43,77.04)" id="img-f57bb68b-156">
              <path d="M-0.43,-1.67 L 0.43 -1.67 0.43 1.67 -0.43 1.67 z" class="primitive"/>
            </g>
            <g transform="translate(130.24,76.32)" id="img-f57bb68b-157">
              <path d="M-0.43,-2.39 L 0.43 -2.39 0.43 2.39 -0.43 2.39 z" class="primitive"/>
            </g>
            <g transform="translate(131.05,76.8)" id="img-f57bb68b-158">
              <path d="M-0.43,-1.91 L 0.43 -1.91 0.43 1.91 -0.43 1.91 z" class="primitive"/>
            </g>
            <g transform="translate(131.86,77.04)" id="img-f57bb68b-159">
              <path d="M-0.43,-1.67 L 0.43 -1.67 0.43 1.67 -0.43 1.67 z" class="primitive"/>
            </g>
            <g transform="translate(132.66,76.32)" id="img-f57bb68b-160">
              <path d="M-0.43,-2.39 L 0.43 -2.39 0.43 2.39 -0.43 2.39 z" class="primitive"/>
            </g>
            <g transform="translate(133.47,76.8)" id="img-f57bb68b-161">
              <path d="M-0.43,-1.91 L 0.43 -1.91 0.43 1.91 -0.43 1.91 z" class="primitive"/>
            </g>
            <g transform="translate(134.28,77.04)" id="img-f57bb68b-162">
              <path d="M-0.43,-1.67 L 0.43 -1.67 0.43 1.67 -0.43 1.67 z" class="primitive"/>
            </g>
            <g transform="translate(135.09,76.32)" id="img-f57bb68b-163">
              <path d="M-0.43,-2.39 L 0.43 -2.39 0.43 2.39 -0.43 2.39 z" class="primitive"/>
            </g>
            <g transform="translate(135.89,76.8)" id="img-f57bb68b-164">
              <path d="M-0.43,-1.91 L 0.43 -1.91 0.43 1.91 -0.43 1.91 z" class="primitive"/>
            </g>
            <g transform="translate(136.7,77.04)" id="img-f57bb68b-165">
              <path d="M-0.43,-1.67 L 0.43 -1.67 0.43 1.67 -0.43 1.67 z" class="primitive"/>
            </g>
            <g transform="translate(137.51,76.32)" id="img-f57bb68b-166">
              <path d="M-0.43,-2.39 L 0.43 -2.39 0.43 2.39 -0.43 2.39 z" class="primitive"/>
            </g>
            <g transform="translate(138.32,76.8)" id="img-f57bb68b-167">
              <path d="M-0.43,-1.91 L 0.43 -1.91 0.43 1.91 -0.43 1.91 z" class="primitive"/>
            </g>
            <g transform="translate(139.12,77.04)" id="img-f57bb68b-168">
              <path d="M-0.43,-1.67 L 0.43 -1.67 0.43 1.67 -0.43 1.67 z" class="primitive"/>
            </g>
            <g transform="translate(139.93,76.32)" id="img-f57bb68b-169">
              <path d="M-0.43,-2.39 L 0.43 -2.39 0.43 2.39 -0.43 2.39 z" class="primitive"/>
            </g>
            <g transform="translate(140.74,76.8)" id="img-f57bb68b-170">
              <path d="M-0.43,-1.91 L 0.43 -1.91 0.43 1.91 -0.43 1.91 z" class="primitive"/>
            </g>
            <g transform="translate(141.55,77.04)" id="img-f57bb68b-171">
              <path d="M-0.43,-1.67 L 0.43 -1.67 0.43 1.67 -0.43 1.67 z" class="primitive"/>
            </g>
            <g transform="translate(142.35,76.32)" id="img-f57bb68b-172">
              <path d="M-0.43,-2.39 L 0.43 -2.39 0.43 2.39 -0.43 2.39 z" class="primitive"/>
            </g>
          </g>
        </g>
      </g>
    </g>
  </g>
  <g class="guide ylabels" font-size="2.82" font-family="'PT Sans Caption','Helvetica Neue','Helvetica',sans-serif" fill="#6C606B" id="img-f57bb68b-173">
    <g transform="translate(18.63,78.71)" id="img-f57bb68b-174">
      <g class="primitive">
        <text text-anchor="end" dy="0.35em">0</text>
      </g>
    </g>
    <g transform="translate(18.63,54.81)" id="img-f57bb68b-175">
      <g class="primitive">
        <text text-anchor="end" dy="0.35em">50</text>
      </g>
    </g>
    <g transform="translate(18.63,30.9)" id="img-f57bb68b-176">
      <g class="primitive">
        <text text-anchor="end" dy="0.35em">100</text>
      </g>
    </g>
    <g transform="translate(18.63,7)" id="img-f57bb68b-177">
      <g class="primitive">
        <text text-anchor="end" dy="0.35em">150</text>
      </g>
    </g>
  </g>
  <g font-size="3.88" font-family="'PT Sans','Helvetica Neue','Helvetica',sans-serif" fill="#564A55" stroke="#000000" stroke-opacity="0.000" id="img-f57bb68b-178">
    <g transform="translate(8.81,40.86)" id="img-f57bb68b-179">
      <g class="primitive">
        <text text-anchor="middle" dy="0.35em" transform="rotate(-90,0, 2)">Número de trocas internas</text>
      </g>
    </g>
  </g>
</g>
<defs>
  <clipPath id="img-f57bb68b-4">
    <path d="M19.63,5 L 145 5 145 80.72 19.63 80.72" />
  </clipPath>
</defs>
</svg>
