<?xml version="1.0" encoding="UTF-8"?>
<svg xmlns="http://www.w3.org/2000/svg"
     xmlns:xlink="http://www.w3.org/1999/xlink"
     xmlns:gadfly="http://www.gadflyjl.org/ns"
     version="1.2"
     width="150mm" height="100mm" viewBox="0 0 150 100"
     stroke="none"
     fill="#000000"
     stroke-width="0.3"
     font-size="3.88"
>
<defs>
  <marker id="arrow" markerWidth="15" markerHeight="7" refX="5" refY="3.5" orient="auto" markerUnits="strokeWidth">
    <path d="M0,0 L15,3.5 L0,7 z" stroke="context-stroke" fill="context-stroke"/>
  </marker>
</defs>
<g class="plotroot xscalable yscalable" id="img-bf6e22cd-1">
  <g font-size="3.88" font-family="'PT Sans','Helvetica Neue','Helvetica',sans-serif" fill="#564A55" stroke="#000000" stroke-opacity="0.000" id="img-bf6e22cd-2">
    <g transform="translate(74.59,88.39)">
      <g class="primitive">
        <text text-anchor="middle" dy="0.6em">Tempo</text>
      </g>
    </g>
  </g>
  <g class="guide xlabels" font-size="2.82" font-family="'PT Sans Caption','Helvetica Neue','Helvetica',sans-serif" fill="#6C606B" id="img-bf6e22cd-3">
    <g transform="translate(19.96,81.72)">
      <g class="primitive">
        <text text-anchor="middle" dy="0.6em">0</text>
      </g>
    </g>
    <g transform="translate(74.59,81.72)">
      <g class="primitive">
        <text text-anchor="middle" dy="0.6em">500</text>
      </g>
    </g>
    <g transform="translate(129.21,81.72)">
      <g class="primitive">
        <text text-anchor="middle" dy="0.6em">1000</text>
      </g>
    </g>
  </g>
  <g class="guide colorkey" id="img-bf6e22cd-4">
    <g fill="#4C404B" font-size="2.82" font-family="'PT Sans','Helvetica Neue','Helvetica',sans-serif" id="img-bf6e22cd-5">
      <g transform="translate(141.92,19.28)" id="img-bf6e22cd-6" class="color_15">
        <g class="primitive">
          <text dy="0.35em">15</text>
        </g>
      </g>
      <g transform="translate(141.92,22.91)" id="img-bf6e22cd-7" class="color_16">
        <g class="primitive">
          <text dy="0.35em">16</text>
        </g>
      </g>
      <g transform="translate(141.92,26.54)" id="img-bf6e22cd-8" class="color_17">
        <g class="primitive">
          <text dy="0.35em">17</text>
        </g>
      </g>
      <g transform="translate(141.92,30.16)" id="img-bf6e22cd-9" class="color_18">
        <g class="primitive">
          <text dy="0.35em">18</text>
        </g>
      </g>
      <g transform="translate(141.92,33.79)" id="img-bf6e22cd-10" class="color_19">
        <g class="primitive">
          <text dy="0.35em">19</text>
        </g>
      </g>
      <g transform="translate(141.92,37.42)" id="img-bf6e22cd-11" class="color_20">
        <g class="primitive">
          <text dy="0.35em">20</text>
        </g>
      </g>
      <g transform="translate(141.92,41.04)" id="img-bf6e22cd-12" class="color_21">
        <g class="primitive">
          <text dy="0.35em">21</text>
        </g>
      </g>
      <g transform="translate(141.92,44.67)" id="img-bf6e22cd-13" class="color_22">
        <g class="primitive">
          <text dy="0.35em">22</text>
        </g>
      </g>
      <g transform="translate(141.92,48.3)" id="img-bf6e22cd-14" class="color_23">
        <g class="primitive">
          <text dy="0.35em">23</text>
        </g>
      </g>
      <g transform="translate(141.92,51.92)" id="img-bf6e22cd-15" class="color_24">
        <g class="primitive">
          <text dy="0.35em">24</text>
        </g>
      </g>
      <g transform="translate(141.92,55.55)" id="img-bf6e22cd-16" class="color_25">
        <g class="primitive">
          <text dy="0.35em">25</text>
        </g>
      </g>
      <g transform="translate(141.92,59.18)" id="img-bf6e22cd-17" class="color_26">
        <g class="primitive">
          <text dy="0.35em">26</text>
        </g>
      </g>
      <g transform="translate(141.92,62.8)" id="img-bf6e22cd-18" class="color_27">
        <g class="primitive">
          <text dy="0.35em">27</text>
        </g>
      </g>
      <g transform="translate(141.92,66.43)" id="img-bf6e22cd-19" class="color_28">
        <g class="primitive">
          <text dy="0.35em">28</text>
        </g>
      </g>
      <g transform="translate(141.92,70.06)" id="img-bf6e22cd-20" class="color_29">
        <g class="primitive">
          <text dy="0.35em">29</text>
        </g>
      </g>
    </g>
    <g stroke="#000000" stroke-opacity="0.000" id="img-bf6e22cd-21">
      <g transform="translate(140.01,19.28)" id="img-bf6e22cd-22" fill="#C39800" class="color_15">
        <path d="M-0.91,-0.91 L 0.91 -0.91 0.91 0.91 -0.91 0.91 z" class="primitive"/>
      </g>
      <g transform="translate(140.01,22.91)" id="img-bf6e22cd-23" fill="#FF93A4" class="color_16">
        <path d="M-0.91,-0.91 L 0.91 -0.91 0.91 0.91 -0.91 0.91 z" class="primitive"/>
      </g>
      <g transform="translate(140.01,26.54)" id="img-bf6e22cd-24" fill="#32B44E" class="color_17">
        <path d="M-0.91,-0.91 L 0.91 -0.91 0.91 0.91 -0.91 0.91 z" class="primitive"/>
      </g>
      <g transform="translate(140.01,30.16)" id="img-bf6e22cd-25" fill="#9E9E9E" class="color_18">
        <path d="M-0.91,-0.91 L 0.91 -0.91 0.91 0.91 -0.91 0.91 z" class="primitive"/>
      </g>
      <g transform="translate(140.01,33.79)" id="img-bf6e22cd-26" fill="#00E5B2" class="color_19">
        <path d="M-0.91,-0.91 L 0.91 -0.91 0.91 0.91 -0.91 0.91 z" class="primitive"/>
      </g>
      <g transform="translate(140.01,37.42)" id="img-bf6e22cd-27" fill="#FFA9F6" class="color_20">
        <path d="M-0.91,-0.91 L 0.91 -0.91 0.91 0.91 -0.91 0.91 z" class="primitive"/>
      </g>
      <g transform="translate(140.01,41.04)" id="img-bf6e22cd-28" fill="#FFAA89" class="color_21">
        <path d="M-0.91,-0.91 L 0.91 -0.91 0.91 0.91 -0.91 0.91 z" class="primitive"/>
      </g>
      <g transform="translate(140.01,44.67)" id="img-bf6e22cd-29" fill="#82CAFF" class="color_22">
        <path d="M-0.91,-0.91 L 0.91 -0.91 0.91 0.91 -0.91 0.91 z" class="primitive"/>
      </g>
      <g transform="translate(140.01,48.3)" id="img-bf6e22cd-30" fill="#00BBAA" class="color_23">
        <path d="M-0.91,-0.91 L 0.91 -0.91 0.91 0.91 -0.91 0.91 z" class="primitive"/>
      </g>
      <g transform="translate(140.01,51.92)" id="img-bf6e22cd-31" fill="#A08CFF" class="color_24">
        <path d="M-0.91,-0.91 L 0.91 -0.91 0.91 0.91 -0.91 0.91 z" class="primitive"/>
      </g>
      <g transform="translate(140.01,55.55)" id="img-bf6e22cd-32" fill="#00D485" class="color_25">
        <path d="M-0.91,-0.91 L 0.91 -0.91 0.91 0.91 -0.91 0.91 z" class="primitive"/>
      </g>
      <g transform="translate(140.01,59.18)" id="img-bf6e22cd-33" fill="#BCCF6F" class="color_26">
        <path d="M-0.91,-0.91 L 0.91 -0.91 0.91 0.91 -0.91 0.91 z" class="primitive"/>
      </g>
      <g transform="translate(140.01,62.8)" id="img-bf6e22cd-34" fill="#FFA0C8" class="color_27">
        <path d="M-0.91,-0.91 L 0.91 -0.91 0.91 0.91 -0.91 0.91 z" class="primitive"/>
      </g>
      <g transform="translate(140.01,66.43)" id="img-bf6e22cd-35" fill="#FF5F82" class="color_28">
        <path d="M-0.91,-0.91 L 0.91 -0.91 0.91 0.91 -0.91 0.91 z" class="primitive"/>
      </g>
      <g transform="translate(140.01,70.06)" id="img-bf6e22cd-36" fill="#C483E9" class="color_29">
        <path d="M-0.91,-0.91 L 0.91 -0.91 0.91 0.91 -0.91 0.91 z" class="primitive"/>
      </g>
    </g>
    <g fill="#4C404B" font-size="2.82" font-family="'PT Sans','Helvetica Neue','Helvetica',sans-serif" id="img-bf6e22cd-37">
      <g transform="translate(135.03,19.28)" id="img-bf6e22cd-38" class="color_0">
        <g class="primitive">
          <text dy="0.35em">0</text>
        </g>
      </g>
      <g transform="translate(135.03,22.91)" id="img-bf6e22cd-39" class="color_1">
        <g class="primitive">
          <text dy="0.35em">1</text>
        </g>
      </g>
      <g transform="translate(135.03,26.54)" id="img-bf6e22cd-40" class="color_2">
        <g class="primitive">
          <text dy="0.35em">2</text>
        </g>
      </g>
      <g transform="translate(135.03,30.16)" id="img-bf6e22cd-41" class="color_3">
        <g class="primitive">
          <text dy="0.35em">3</text>
        </g>
      </g>
      <g transform="translate(135.03,33.79)" id="img-bf6e22cd-42" class="color_4">
        <g class="primitive">
          <text dy="0.35em">4</text>
        </g>
      </g>
      <g transform="translate(135.03,37.42)" id="img-bf6e22cd-43" class="color_5">
        <g class="primitive">
          <text dy="0.35em">5</text>
        </g>
      </g>
      <g transform="translate(135.03,41.04)" id="img-bf6e22cd-44" class="color_6">
        <g class="primitive">
          <text dy="0.35em">6</text>
        </g>
      </g>
      <g transform="translate(135.03,44.67)" id="img-bf6e22cd-45" class="color_7">
        <g class="primitive">
          <text dy="0.35em">7</text>
        </g>
      </g>
      <g transform="translate(135.03,48.3)" id="img-bf6e22cd-46" class="color_8">
        <g class="primitive">
          <text dy="0.35em">8</text>
        </g>
      </g>
      <g transform="translate(135.03,51.92)" id="img-bf6e22cd-47" class="color_9">
        <g class="primitive">
          <text dy="0.35em">9</text>
        </g>
      </g>
      <g transform="translate(135.03,55.55)" id="img-bf6e22cd-48" class="color_10">
        <g class="primitive">
          <text dy="0.35em">10</text>
        </g>
      </g>
      <g transform="translate(135.03,59.18)" id="img-bf6e22cd-49" class="color_11">
        <g class="primitive">
          <text dy="0.35em">11</text>
        </g>
      </g>
      <g transform="translate(135.03,62.8)" id="img-bf6e22cd-50" class="color_12">
        <g class="primitive">
          <text dy="0.35em">12</text>
        </g>
      </g>
      <g transform="translate(135.03,66.43)" id="img-bf6e22cd-51" class="color_13">
        <g class="primitive">
          <text dy="0.35em">13</text>
        </g>
      </g>
      <g transform="translate(135.03,70.06)" id="img-bf6e22cd-52" class="color_14">
        <g class="primitive">
          <text dy="0.35em">14</text>
        </g>
      </g>
    </g>
    <g stroke="#000000" stroke-opacity="0.000" id="img-bf6e22cd-53">
      <g transform="translate(133.12,19.28)" id="img-bf6e22cd-54" fill="#00BFFF" class="color_0">
        <path d="M-0.91,-0.91 L 0.91 -0.91 0.91 0.91 -0.91 0.91 z" class="primitive"/>
      </g>
      <g transform="translate(133.12,22.91)" id="img-bf6e22cd-55" fill="#D4CA3A" class="color_1">
        <path d="M-0.91,-0.91 L 0.91 -0.91 0.91 0.91 -0.91 0.91 z" class="primitive"/>
      </g>
      <g transform="translate(133.12,26.54)" id="img-bf6e22cd-56" fill="#FF6DAE" class="color_2">
        <path d="M-0.91,-0.91 L 0.91 -0.91 0.91 0.91 -0.91 0.91 z" class="primitive"/>
      </g>
      <g transform="translate(133.12,30.16)" id="img-bf6e22cd-57" fill="#00B78D" class="color_3">
        <path d="M-0.91,-0.91 L 0.91 -0.91 0.91 0.91 -0.91 0.91 z" class="primitive"/>
      </g>
      <g transform="translate(133.12,33.79)" id="img-bf6e22cd-58" fill="#BEA9FF" class="color_4">
        <path d="M-0.91,-0.91 L 0.91 -0.91 0.91 0.91 -0.91 0.91 z" class="primitive"/>
      </g>
      <g transform="translate(133.12,37.42)" id="img-bf6e22cd-59" fill="#FF6765" class="color_5">
        <path d="M-0.91,-0.91 L 0.91 -0.91 0.91 0.91 -0.91 0.91 z" class="primitive"/>
      </g>
      <g transform="translate(133.12,41.04)" id="img-bf6e22cd-60" fill="#C6C6C6" class="color_6">
        <path d="M-0.91,-0.91 L 0.91 -0.91 0.91 0.91 -0.91 0.91 z" class="primitive"/>
      </g>
      <g transform="translate(133.12,44.67)" id="img-bf6e22cd-61" fill="#63DF75" class="color_7">
        <path d="M-0.91,-0.91 L 0.91 -0.91 0.91 0.91 -0.91 0.91 z" class="primitive"/>
      </g>
      <g transform="translate(133.12,48.3)" id="img-bf6e22cd-62" fill="#00E6D3" class="color_8">
        <path d="M-0.91,-0.91 L 0.91 -0.91 0.91 0.91 -0.91 0.91 z" class="primitive"/>
      </g>
      <g transform="translate(133.12,51.92)" id="img-bf6e22cd-63" fill="#E870DD" class="color_9">
        <path d="M-0.91,-0.91 L 0.91 -0.91 0.91 0.91 -0.91 0.91 z" class="primitive"/>
      </g>
      <g transform="translate(133.12,55.55)" id="img-bf6e22cd-64" fill="#93A649" class="color_10">
        <path d="M-0.91,-0.91 L 0.91 -0.91 0.91 0.91 -0.91 0.91 z" class="primitive"/>
      </g>
      <g transform="translate(133.12,59.18)" id="img-bf6e22cd-65" fill="#FF9A4B" class="color_11">
        <path d="M-0.91,-0.91 L 0.91 -0.91 0.91 0.91 -0.91 0.91 z" class="primitive"/>
      </g>
      <g transform="translate(133.12,62.8)" id="img-bf6e22cd-66" fill="#00B4BC" class="color_12">
        <path d="M-0.91,-0.91 L 0.91 -0.91 0.91 0.91 -0.91 0.91 z" class="primitive"/>
      </g>
      <g transform="translate(133.12,66.43)" id="img-bf6e22cd-67" fill="#6299FF" class="color_13">
        <path d="M-0.91,-0.91 L 0.91 -0.91 0.91 0.91 -0.91 0.91 z" class="primitive"/>
      </g>
      <g transform="translate(133.12,70.06)" id="img-bf6e22cd-68" fill="#00E4FF" class="color_14">
        <path d="M-0.91,-0.91 L 0.91 -0.91 0.91 0.91 -0.91 0.91 z" class="primitive"/>
      </g>
    </g>
    <g fill="#362A35" font-size="3.88" font-family="'PT Sans','Helvetica Neue','Helvetica',sans-serif" stroke="#000000" stroke-opacity="0.000" id="img-bf6e22cd-69">
      <g transform="translate(132.21,15.46)" id="img-bf6e22cd-70">
        <g class="primitive">
          <text>m</text>
        </g>
      </g>
    </g>
  </g>
  <g clip-path="url(#img-bf6e22cd-71)">
    <g id="img-bf6e22cd-72">
      <g pointer-events="visible" fill="#000000" fill-opacity="0.000" stroke="#000000" stroke-opacity="0.000" class="guide background" id="img-bf6e22cd-73">
        <g transform="translate(74.59,42.86)" id="img-bf6e22cd-74">
          <path d="M-56.63,-37.86 L 56.63 -37.86 56.63 37.86 -56.63 37.86 z" class="primitive"/>
        </g>
      </g>
      <g class="guide ygridlines xfixed" stroke-dasharray="0.5,0.5" stroke-width="0.2" stroke="#D0D0E0" id="img-bf6e22cd-75">
        <g transform="translate(74.59,78.71)" id="img-bf6e22cd-76">
          <path fill="none" d="M-56.63,0 L 56.63 0" class="primitive"/>
        </g>
        <g transform="translate(74.59,64.37)" id="img-bf6e22cd-77">
          <path fill="none" d="M-56.63,0 L 56.63 0" class="primitive"/>
        </g>
        <g transform="translate(74.59,50.03)" id="img-bf6e22cd-78">
          <path fill="none" d="M-56.63,0 L 56.63 0" class="primitive"/>
        </g>
        <g transform="translate(74.59,35.69)" id="img-bf6e22cd-79">
          <path fill="none" d="M-56.63,0 L 56.63 0" class="primitive"/>
        </g>
        <g transform="translate(74.59,21.34)" id="img-bf6e22cd-80">
          <path fill="none" d="M-56.63,0 L 56.63 0" class="primitive"/>
        </g>
        <g transform="translate(74.59,7)" id="img-bf6e22cd-81">
          <path fill="none" d="M-56.63,0 L 56.63 0" class="primitive"/>
        </g>
      </g>
      <g class="guide xgridlines yfixed" stroke-dasharray="0.5,0.5" stroke-width="0.2" stroke="#D0D0E0" id="img-bf6e22cd-82">
        <g transform="translate(19.96,42.86)" id="img-bf6e22cd-83">
          <path fill="none" d="M0,-37.86 L 0 37.86" class="primitive"/>
        </g>
        <g transform="translate(74.59,42.86)" id="img-bf6e22cd-84">
          <path fill="none" d="M0,-37.86 L 0 37.86" class="primitive"/>
        </g>
        <g transform="translate(129.21,42.86)" id="img-bf6e22cd-85">
          <path fill="none" d="M0,-37.86 L 0 37.86" class="primitive"/>
        </g>
      </g>
      <g class="plotpanel" id="img-bf6e22cd-86">
        <metadata>
          <boundingbox value="17.95833333333333mm 5.0mm 113.255mm 75.715mm"/>
          <unitbox value="-18.305798361631048 51.39440842222687 1036.611596723262 -52.78881684445375"/>
        </metadata>
        <g stroke-width="0.3" fill="#000000" fill-opacity="0.000" class="geometry" id="img-bf6e22cd-87">
          <g transform="translate(74.04,42.89)" id="img-bf6e22cd-88" stroke="#00BFFF" stroke-dasharray="none" class="color_0">
            <path fill="none" d="M-54.08,-35.89 L -52.99 -35.89 -51.9 -35.89 -50.8 -33.02 -49.71 -21.54 -48.62 -7.2 -47.53 -1.46 -46.43 2.84 -45.34 2.84 -44.25 2.84 -43.16 2.84 -42.06 2.84 -40.97 2.84 -39.88 2.84 -38.79 2.84 -37.69 2.84 -36.6 2.84 -35.51 2.84 -34.42 2.84 -33.32 2.84 -32.23 1.41 -31.14 2.84 -30.05 2.84 -28.95 2.84 -27.86 2.84 -26.77 2.84 -25.67 2.84 -24.58 2.84 -23.49 2.84 -22.4 2.84 -21.3 2.84 -20.21 2.84 -19.12 2.84 -18.03 2.84 -16.93 2.84 -15.84 2.84 -14.75 2.84 -13.66 1.41 -12.56 1.41 -11.47 1.41 -10.38 1.41 -9.29 1.41 -8.19 1.41 -7.1 1.41 -6.01 1.41 -4.92 1.41 -3.82 1.41 -2.73 1.41 -1.64 1.41 -0.55 1.41 0.55 1.41 1.64 1.41 2.73 1.41 3.82 1.41 4.92 1.41 6.01 1.41 7.1 1.41 8.19 1.41 9.29 1.41 10.38 1.41 11.47 1.41 12.56 -0.03 13.66 1.41 14.75 1.41 15.84 1.41 16.93 1.41 18.03 1.41 19.12 1.41 20.21 1.41 21.3 1.41 22.4 1.41 23.49 1.41 24.58 1.41 25.67 1.41 26.77 1.41 27.86 1.41 28.95 1.41 30.05 1.41 31.14 1.41 32.23 1.41 33.32 1.41 34.42 1.41 35.51 1.41 36.6 1.41 37.69 1.41 38.79 1.41 39.88 1.41 40.97 1.41 42.06 1.41 43.16 1.41 44.25 1.41 45.34 1.41 46.43 1.41 47.53 1.41 48.62 1.41 49.71 1.41 50.8 1.41 51.9 1.41 52.99 1.41 54.08 1.41" class="primitive"/>
          </g>
          <g transform="translate(74.04,65.71)" id="img-bf6e22cd-89" stroke="#D4CA3A" stroke-dasharray="none" class="color_1">
            <path fill="none" d="M-54.08,-57.27 L -52.99 -57.27 -51.9 -57.27 -50.8 -52.97 -49.71 -37.19 -48.62 -14.24 -47.53 1.53 -46.43 1.53 -45.34 2.97 -44.25 2.97 -43.16 2.97 -42.06 2.97 -40.97 2.97 -39.88 2.97 -38.79 2.97 -37.69 2.97 -36.6 2.97 -35.51 2.97 -34.42 2.97 -33.32 2.97 -32.23 2.97 -31.14 2.97 -30.05 2.97 -28.95 2.97 -27.86 2.97 -26.77 2.97 -25.67 2.97 -24.58 2.97 -23.49 2.97 -22.4 2.97 -21.3 2.97 -20.21 2.97 -19.12 2.97 -18.03 2.97 -16.93 2.97 -15.84 2.97 -14.75 2.97 -13.66 2.97 -12.56 2.97 -11.47 2.97 -10.38 2.97 -9.29 2.97 -8.19 2.97 -7.1 2.97 -6.01 2.97 -4.92 2.97 -3.82 2.97 -2.73 2.97 -1.64 2.97 -0.55 2.97 0.55 2.97 1.64 2.97 2.73 2.97 3.82 2.97 4.92 2.97 6.01 2.97 7.1 2.97 8.19 2.97 9.29 2.97 10.38 2.97 11.47 2.97 12.56 2.97 13.66 2.97 14.75 2.97 15.84 2.97 16.93 2.97 18.03 2.97 19.12 2.97 20.21 2.97 21.3 2.97 22.4 2.97 23.49 2.97 24.58 2.97 25.67 2.97 26.77 2.97 27.86 2.97 28.95 2.97 30.05 2.97 31.14 2.97 32.23 2.97 33.32 2.97 34.42 2.97 35.51 2.97 36.6 2.97 37.69 2.97 38.79 2.97 39.88 2.97 40.97 2.97 42.06 2.97 43.16 2.97 44.25 2.97 45.34 2.97 46.43 2.97 47.53 2.97 48.62 2.97 49.71 2.97 50.8 2.97 51.9 2.97 52.99 2.97 54.08 2.97" class="primitive"/>
          </g>
          <g transform="translate(74.04,47)" id="img-bf6e22cd-90" stroke="#FF6DAE" stroke-dasharray="none" class="color_2">
            <path fill="none" d="M-54.08,-38.57 L -52.99 -38.57 -51.9 -37.13 -50.8 -27.09 -49.71 -9.88 -48.62 1.59 -47.53 1.59 -46.43 1.59 -45.34 1.59 -44.25 1.59 -43.16 1.59 -42.06 1.59 -40.97 1.59 -39.88 1.59 -38.79 1.59 -37.69 1.59 -36.6 1.59 -35.51 1.59 -34.42 1.59 -33.32 1.59 -32.23 1.59 -31.14 1.59 -30.05 1.59 -28.95 1.59 -27.86 1.59 -26.77 1.59 -25.67 1.59 -24.58 1.59 -23.49 1.59 -22.4 1.59 -21.3 1.59 -20.21 1.59 -19.12 1.59 -18.03 1.59 -16.93 1.59 -15.84 1.59 -14.75 1.59 -13.66 1.59 -12.56 1.59 -11.47 1.59 -10.38 1.59 -9.29 1.59 -8.19 1.59 -7.1 1.59 -6.01 1.59 -4.92 1.59 -3.82 1.59 -2.73 1.59 -1.64 1.59 -0.55 1.59 0.55 1.59 1.64 1.59 2.73 1.59 3.82 1.59 4.92 1.59 6.01 1.59 7.1 1.59 8.19 1.59 9.29 1.59 10.38 1.59 11.47 1.59 12.56 1.59 13.66 1.59 14.75 1.59 15.84 1.59 16.93 1.59 18.03 1.59 19.12 1.59 20.21 1.59 21.3 1.59 22.4 1.59 23.49 1.59 24.58 1.59 25.67 1.59 26.77 1.59 27.86 1.59 28.95 1.59 30.05 1.59 31.14 1.59 32.23 1.59 33.32 1.59 34.42 1.59 35.51 1.59 36.6 1.59 37.69 1.59 38.79 1.59 39.88 1.59 40.97 1.59 42.06 1.59 43.16 1.59 44.25 1.59 45.34 1.59 46.43 1.59 47.53 1.59 48.62 1.59 49.71 1.59 50.8 1.59 51.9 1.59 52.99 1.59 54.08 1.59" class="primitive"/>
          </g>
          <g transform="translate(74.04,42.69)" id="img-bf6e22cd-91" stroke="#00B78D" stroke-dasharray="none" class="color_3">
            <path fill="none" d="M-54.08,-35.69 L -52.99 -35.69 -51.9 -35.69 -50.8 -27.08 -49.71 -12.74 -48.62 -4.13 -47.53 1.61 -46.43 1.61 -45.34 1.61 -44.25 1.61 -43.16 1.61 -42.06 1.61 -40.97 1.61 -39.88 1.61 -38.79 1.61 -37.69 1.61 -36.6 1.61 -35.51 1.61 -34.42 1.61 -33.32 1.61 -32.23 1.61 -31.14 1.61 -30.05 1.61 -28.95 1.61 -27.86 1.61 -26.77 1.61 -25.67 1.61 -24.58 1.61 -23.49 1.61 -22.4 1.61 -21.3 1.61 -20.21 1.61 -19.12 1.61 -18.03 1.61 -16.93 1.61 -15.84 1.61 -14.75 1.61 -13.66 1.61 -12.56 1.61 -11.47 1.61 -10.38 1.61 -9.29 1.61 -8.19 1.61 -7.1 1.61 -6.01 1.61 -4.92 1.61 -3.82 1.61 -2.73 1.61 -1.64 1.61 -0.55 1.61 0.55 1.61 1.64 1.61 2.73 1.61 3.82 1.61 4.92 1.61 6.01 1.61 7.1 1.61 8.19 1.61 9.29 1.61 10.38 1.61 11.47 1.61 12.56 1.61 13.66 1.61 14.75 1.61 15.84 1.61 16.93 1.61 18.03 1.61 19.12 1.61 20.21 1.61 21.3 1.61 22.4 1.61 23.49 1.61 24.58 1.61 25.67 1.61 26.77 1.61 27.86 1.61 28.95 1.61 30.05 1.61 31.14 1.61 32.23 1.61 33.32 1.61 34.42 1.61 35.51 1.61 36.6 1.61 37.69 1.61 38.79 1.61 39.88 1.61 40.97 1.61 42.06 1.61 43.16 1.61 44.25 1.61 45.34 1.61 46.43 1.61 47.53 1.61 48.62 1.61 49.71 1.61 50.8 1.61 51.9 1.61 52.99 1.61 54.08 1.61" class="primitive"/>
          </g>
          <g transform="translate(74.04,51.88)" id="img-bf6e22cd-92" stroke="#BEA9FF" stroke-dasharray="none" class="color_4">
            <path fill="none" d="M-54.08,-44.88 L -52.99 -44.88 -51.9 -44.88 -50.8 -37.71 -49.71 -24.8 -48.62 -13.32 -47.53 -4.72 -46.43 -0.42 -45.34 -0.42 -44.25 1.02 -43.16 1.02 -42.06 1.02 -40.97 1.02 -39.88 2.45 -38.79 2.45 -37.69 2.45 -36.6 2.45 -35.51 2.45 -34.42 2.45 -33.32 2.45 -32.23 2.45 -31.14 2.45 -30.05 2.45 -28.95 2.45 -27.86 2.45 -26.77 2.45 -25.67 2.45 -24.58 2.45 -23.49 2.45 -22.4 2.45 -21.3 2.45 -20.21 2.45 -19.12 2.45 -18.03 2.45 -16.93 2.45 -15.84 2.45 -14.75 2.45 -13.66 2.45 -12.56 2.45 -11.47 2.45 -10.38 2.45 -9.29 2.45 -8.19 2.45 -7.1 2.45 -6.01 2.45 -4.92 2.45 -3.82 2.45 -2.73 2.45 -1.64 2.45 -0.55 2.45 0.55 2.45 1.64 2.45 2.73 2.45 3.82 2.45 4.92 2.45 6.01 2.45 7.1 2.45 8.19 2.45 9.29 2.45 10.38 2.45 11.47 2.45 12.56 2.45 13.66 2.45 14.75 2.45 15.84 2.45 16.93 2.45 18.03 2.45 19.12 2.45 20.21 2.45 21.3 2.45 22.4 2.45 23.49 2.45 24.58 2.45 25.67 2.45 26.77 2.45 27.86 2.45 28.95 2.45 30.05 2.45 31.14 2.45 32.23 2.45 33.32 2.45 34.42 2.45 35.51 2.45 36.6 2.45 37.69 2.45 38.79 2.45 39.88 2.45 40.97 2.45 42.06 2.45 43.16 2.45 44.25 2.45 45.34 2.45 46.43 2.45 47.53 2.45 48.62 2.45 49.71 2.45 50.8 2.45 51.9 2.45 52.99 2.45 54.08 1.02" class="primitive"/>
          </g>
          <g transform="translate(74.04,42.73)" id="img-bf6e22cd-93" stroke="#FF6765" stroke-dasharray="none" class="color_5">
            <path fill="none" d="M-54.08,-34.29 L -52.99 -34.29 -51.9 -34.29 -50.8 -28.56 -49.71 -14.21 -48.62 0.13 -47.53 1.56 -46.43 1.56 -45.34 1.56 -44.25 1.56 -43.16 1.56 -42.06 1.56 -40.97 1.56 -39.88 1.56 -38.79 1.56 -37.69 1.56 -36.6 1.56 -35.51 1.56 -34.42 1.56 -33.32 1.56 -32.23 1.56 -31.14 1.56 -30.05 1.56 -28.95 1.56 -27.86 1.56 -26.77 1.56 -25.67 1.56 -24.58 1.56 -23.49 1.56 -22.4 1.56 -21.3 1.56 -20.21 1.56 -19.12 1.56 -18.03 1.56 -16.93 1.56 -15.84 1.56 -14.75 1.56 -13.66 1.56 -12.56 1.56 -11.47 1.56 -10.38 1.56 -9.29 1.56 -8.19 1.56 -7.1 1.56 -6.01 1.56 -4.92 1.56 -3.82 1.56 -2.73 1.56 -1.64 1.56 -0.55 1.56 0.55 1.56 1.64 1.56 2.73 1.56 3.82 1.56 4.92 1.56 6.01 1.56 7.1 1.56 8.19 1.56 9.29 1.56 10.38 1.56 11.47 1.56 12.56 1.56 13.66 1.56 14.75 1.56 15.84 1.56 16.93 1.56 18.03 1.56 19.12 1.56 20.21 1.56 21.3 1.56 22.4 1.56 23.49 1.56 24.58 1.56 25.67 0.13 26.77 1.56 27.86 1.56 28.95 1.56 30.05 1.56 31.14 1.56 32.23 1.56 33.32 1.56 34.42 1.56 35.51 1.56 36.6 1.56 37.69 1.56 38.79 1.56 39.88 1.56 40.97 1.56 42.06 1.56 43.16 1.56 44.25 1.56 45.34 1.56 46.43 1.56 47.53 1.56 48.62 1.56 49.71 1.56 50.8 1.56 51.9 1.56 52.99 1.56 54.08 1.56" class="primitive"/>
          </g>
          <g transform="translate(74.04,32.11)" id="img-bf6e22cd-94" stroke="#C6C6C6" stroke-dasharray="none" class="color_6">
            <path fill="none" d="M-54.08,-25.11 L -52.99 -25.11 -51.9 -25.11 -50.8 -19.38 -49.71 -12.21 -48.62 -3.6 -47.53 -0.73 -46.43 0.7 -45.34 0.7 -44.25 2.14 -43.16 2.14 -42.06 2.14 -40.97 2.14 -39.88 2.14 -38.79 2.14 -37.69 2.14 -36.6 2.14 -35.51 2.14 -34.42 2.14 -33.32 2.14 -32.23 2.14 -31.14 2.14 -30.05 2.14 -28.95 2.14 -27.86 2.14 -26.77 2.14 -25.67 2.14 -24.58 2.14 -23.49 2.14 -22.4 2.14 -21.3 2.14 -20.21 2.14 -19.12 2.14 -18.03 2.14 -16.93 2.14 -15.84 2.14 -14.75 2.14 -13.66 2.14 -12.56 2.14 -11.47 2.14 -10.38 2.14 -9.29 2.14 -8.19 0.7 -7.1 0.7 -6.01 0.7 -4.92 0.7 -3.82 0.7 -2.73 0.7 -1.64 0.7 -0.55 0.7 0.55 0.7 1.64 0.7 2.73 0.7 3.82 0.7 4.92 0.7 6.01 0.7 7.1 0.7 8.19 0.7 9.29 0.7 10.38 0.7 11.47 0.7 12.56 0.7 13.66 0.7 14.75 0.7 15.84 0.7 16.93 0.7 18.03 0.7 19.12 0.7 20.21 0.7 21.3 0.7 22.4 0.7 23.49 0.7 24.58 0.7 25.67 0.7 26.77 0.7 27.86 0.7 28.95 0.7 30.05 0.7 31.14 0.7 32.23 0.7 33.32 0.7 34.42 0.7 35.51 0.7 36.6 0.7 37.69 0.7 38.79 0.7 39.88 -0.73 40.97 0.7 42.06 0.7 43.16 0.7 44.25 0.7 45.34 0.7 46.43 0.7 47.53 0.7 48.62 0.7 49.71 0.7 50.8 0.7 51.9 0.7 52.99 0.7 54.08 0.7" class="primitive"/>
          </g>
          <g transform="translate(74.04,47.29)" id="img-bf6e22cd-95" stroke="#63DF75" stroke-dasharray="none" class="color_7">
            <path fill="none" d="M-54.08,-40.29 L -52.99 -40.29 -51.9 -38.86 -50.8 -30.25 -49.71 -21.64 -48.62 -13.04 -47.53 -5.87 -46.43 1.31 -45.34 1.31 -44.25 1.31 -43.16 1.31 -42.06 1.31 -40.97 1.31 -39.88 1.31 -38.79 1.31 -37.69 1.31 -36.6 1.31 -35.51 1.31 -34.42 1.31 -33.32 1.31 -32.23 1.31 -31.14 1.31 -30.05 1.31 -28.95 1.31 -27.86 1.31 -26.77 1.31 -25.67 1.31 -24.58 1.31 -23.49 1.31 -22.4 1.31 -21.3 1.31 -20.21 1.31 -19.12 1.31 -18.03 1.31 -16.93 1.31 -15.84 1.31 -14.75 1.31 -13.66 1.31 -12.56 1.31 -11.47 1.31 -10.38 1.31 -9.29 1.31 -8.19 1.31 -7.1 1.31 -6.01 1.31 -4.92 1.31 -3.82 1.31 -2.73 1.31 -1.64 1.31 -0.55 1.31 0.55 1.31 1.64 1.31 2.73 2.74 3.82 2.74 4.92 2.74 6.01 2.74 7.1 2.74 8.19 2.74 9.29 2.74 10.38 2.74 11.47 2.74 12.56 2.74 13.66 2.74 14.75 2.74 15.84 2.74 16.93 2.74 18.03 2.74 19.12 2.74 20.21 2.74 21.3 2.74 22.4 2.74 23.49 2.74 24.58 2.74 25.67 2.74 26.77 2.74 27.86 2.74 28.95 2.74 30.05 2.74 31.14 2.74 32.23 2.74 33.32 2.74 34.42 2.74 35.51 2.74 36.6 2.74 37.69 2.74 38.79 2.74 39.88 2.74 40.97 2.74 42.06 2.74 43.16 2.74 44.25 2.74 45.34 2.74 46.43 2.74 47.53 2.74 48.62 2.74 49.71 2.74 50.8 2.74 51.9 2.74 52.99 2.74 54.08 2.74" class="primitive"/>
          </g>
          <g transform="translate(74.04,30.21)" id="img-bf6e22cd-96" stroke="#00E6D3" stroke-dasharray="none" class="color_8">
            <path fill="none" d="M-54.08,-23.21 L -52.99 -23.21 -51.9 -23.21 -50.8 -17.47 -49.71 -8.86 -48.62 1.18 -47.53 1.18 -46.43 1.18 -45.34 1.18 -44.25 1.18 -43.16 1.18 -42.06 1.18 -40.97 1.18 -39.88 1.18 -38.79 1.18 -37.69 1.18 -36.6 1.18 -35.51 1.18 -34.42 1.18 -33.32 1.18 -32.23 1.18 -31.14 1.18 -30.05 1.18 -28.95 1.18 -27.86 1.18 -26.77 1.18 -25.67 1.18 -24.58 1.18 -23.49 1.18 -22.4 1.18 -21.3 1.18 -20.21 1.18 -19.12 1.18 -18.03 1.18 -16.93 1.18 -15.84 1.18 -14.75 1.18 -13.66 1.18 -12.56 1.18 -11.47 1.18 -10.38 1.18 -9.29 1.18 -8.19 1.18 -7.1 1.18 -6.01 1.18 -4.92 1.18 -3.82 1.18 -2.73 1.18 -1.64 1.18 -0.55 1.18 0.55 1.18 1.64 1.18 2.73 1.18 3.82 1.18 4.92 1.18 6.01 1.18 7.1 1.18 8.19 1.18 9.29 1.18 10.38 1.18 11.47 1.18 12.56 1.18 13.66 1.18 14.75 1.18 15.84 1.18 16.93 1.18 18.03 1.18 19.12 1.18 20.21 1.18 21.3 1.18 22.4 1.18 23.49 1.18 24.58 1.18 25.67 1.18 26.77 1.18 27.86 1.18 28.95 1.18 30.05 1.18 31.14 1.18 32.23 1.18 33.32 1.18 34.42 1.18 35.51 1.18 36.6 1.18 37.69 1.18 38.79 1.18 39.88 1.18 40.97 1.18 42.06 1.18 43.16 -0.26 44.25 -0.26 45.34 -0.26 46.43 -0.26 47.53 -0.26 48.62 -0.26 49.71 -0.26 50.8 -0.26 51.9 -0.26 52.99 -0.26 54.08 -0.26" class="primitive"/>
          </g>
          <g transform="translate(74.04,52.9)" id="img-bf6e22cd-97" stroke="#E870DD" stroke-dasharray="none" class="color_9">
            <path fill="none" d="M-54.08,-45.9 L -52.99 -45.9 -51.9 -45.9 -50.8 -37.29 -49.71 -20.08 -48.62 -5.74 -47.53 1.43 -46.43 4.3 -45.34 4.3 -44.25 4.3 -43.16 4.3 -42.06 4.3 -40.97 4.3 -39.88 4.3 -38.79 4.3 -37.69 4.3 -36.6 4.3 -35.51 4.3 -34.42 4.3 -33.32 4.3 -32.23 4.3 -31.14 4.3 -30.05 4.3 -28.95 4.3 -27.86 4.3 -26.77 4.3 -25.67 4.3 -24.58 2.87 -23.49 2.87 -22.4 2.87 -21.3 2.87 -20.21 2.87 -19.12 2.87 -18.03 2.87 -16.93 -0 -15.84 1.43 -14.75 1.43 -13.66 1.43 -12.56 1.43 -11.47 1.43 -10.38 1.43 -9.29 1.43 -8.19 1.43 -7.1 1.43 -6.01 1.43 -4.92 1.43 -3.82 1.43 -2.73 1.43 -1.64 1.43 -0.55 1.43 0.55 1.43 1.64 1.43 2.73 1.43 3.82 1.43 4.92 1.43 6.01 1.43 7.1 1.43 8.19 1.43 9.29 1.43 10.38 1.43 11.47 1.43 12.56 1.43 13.66 1.43 14.75 1.43 15.84 1.43 16.93 1.43 18.03 1.43 19.12 1.43 20.21 1.43 21.3 1.43 22.4 1.43 23.49 1.43 24.58 1.43 25.67 1.43 26.77 1.43 27.86 1.43 28.95 1.43 30.05 1.43 31.14 1.43 32.23 1.43 33.32 1.43 34.42 1.43 35.51 1.43 36.6 1.43 37.69 1.43 38.79 1.43 39.88 1.43 40.97 1.43 42.06 1.43 43.16 1.43 44.25 1.43 45.34 1.43 46.43 1.43 47.53 1.43 48.62 1.43 49.71 1.43 50.8 1.43 51.9 1.43 52.99 1.43 54.08 1.43" class="primitive"/>
          </g>
          <g transform="translate(74.04,50.53)" id="img-bf6e22cd-98" stroke="#93A649" stroke-dasharray="none" class="color_10">
            <path fill="none" d="M-54.08,-43.53 L -52.99 -43.53 -51.9 -43.53 -50.8 -37.79 -49.71 -27.75 -48.62 -17.71 -47.53 -1.94 -46.43 -0.5 -45.34 0.93 -44.25 2.37 -43.16 2.37 -42.06 2.37 -40.97 2.37 -39.88 2.37 -38.79 2.37 -37.69 2.37 -36.6 2.37 -35.51 2.37 -34.42 2.37 -33.32 2.37 -32.23 2.37 -31.14 2.37 -30.05 2.37 -28.95 2.37 -27.86 2.37 -26.77 2.37 -25.67 2.37 -24.58 2.37 -23.49 2.37 -22.4 2.37 -21.3 2.37 -20.21 2.37 -19.12 2.37 -18.03 2.37 -16.93 2.37 -15.84 2.37 -14.75 2.37 -13.66 2.37 -12.56 2.37 -11.47 2.37 -10.38 2.37 -9.29 2.37 -8.19 2.37 -7.1 2.37 -6.01 2.37 -4.92 2.37 -3.82 2.37 -2.73 2.37 -1.64 2.37 -0.55 2.37 0.55 2.37 1.64 2.37 2.73 2.37 3.82 2.37 4.92 2.37 6.01 2.37 7.1 2.37 8.19 2.37 9.29 2.37 10.38 2.37 11.47 2.37 12.56 2.37 13.66 2.37 14.75 2.37 15.84 2.37 16.93 2.37 18.03 2.37 19.12 2.37 20.21 2.37 21.3 2.37 22.4 2.37 23.49 2.37 24.58 2.37 25.67 2.37 26.77 2.37 27.86 2.37 28.95 2.37 30.05 2.37 31.14 2.37 32.23 2.37 33.32 2.37 34.42 2.37 35.51 2.37 36.6 2.37 37.69 2.37 38.79 2.37 39.88 2.37 40.97 2.37 42.06 2.37 43.16 2.37 44.25 2.37 45.34 2.37 46.43 2.37 47.53 2.37 48.62 2.37 49.71 2.37 50.8 2.37 51.9 2.37 52.99 2.37 54.08 2.37" class="primitive"/>
          </g>
          <g transform="translate(74.04,38.53)" id="img-bf6e22cd-99" stroke="#FF9A4B" stroke-dasharray="none" class="color_11">
            <path fill="none" d="M-54.08,-31.53 L -52.99 -31.53 -51.9 -31.53 -50.8 -25.79 -49.71 -11.45 -48.62 -2.84 -47.53 -1.41 -46.43 1.46 -45.34 1.46 -44.25 1.46 -43.16 1.46 -42.06 1.46 -40.97 1.46 -39.88 1.46 -38.79 1.46 -37.69 1.46 -36.6 1.46 -35.51 1.46 -34.42 1.46 -33.32 1.46 -32.23 1.46 -31.14 1.46 -30.05 1.46 -28.95 1.46 -27.86 1.46 -26.77 1.46 -25.67 1.46 -24.58 1.46 -23.49 1.46 -22.4 1.46 -21.3 1.46 -20.21 1.46 -19.12 1.46 -18.03 1.46 -16.93 1.46 -15.84 1.46 -14.75 1.46 -13.66 1.46 -12.56 1.46 -11.47 1.46 -10.38 1.46 -9.29 1.46 -8.19 1.46 -7.1 1.46 -6.01 1.46 -4.92 1.46 -3.82 1.46 -2.73 1.46 -1.64 1.46 -0.55 1.46 0.55 1.46 1.64 1.46 2.73 1.46 3.82 1.46 4.92 1.46 6.01 1.46 7.1 1.46 8.19 1.46 9.29 1.46 10.38 1.46 11.47 1.46 12.56 1.46 13.66 1.46 14.75 1.46 15.84 1.46 16.93 1.46 18.03 1.46 19.12 1.46 20.21 1.46 21.3 1.46 22.4 1.46 23.49 1.46 24.58 1.46 25.67 1.46 26.77 1.46 27.86 1.46 28.95 1.46 30.05 1.46 31.14 1.46 32.23 1.46 33.32 1.46 34.42 1.46 35.51 1.46 36.6 1.46 37.69 1.46 38.79 1.46 39.88 1.46 40.97 1.46 42.06 1.46 43.16 1.46 44.25 1.46 45.34 1.46 46.43 1.46 47.53 1.46 48.62 1.46 49.71 1.46 50.8 1.46 51.9 1.46 52.99 1.46 54.08 1.46" class="primitive"/>
          </g>
          <g transform="translate(74.04,40.38)" id="img-bf6e22cd-100" stroke="#00B4BC" stroke-dasharray="none" class="color_12">
            <path fill="none" d="M-54.08,-33.38 L -52.99 -33.38 -51.9 -33.38 -50.8 -27.64 -49.71 -19.03 -48.62 -1.82 -47.53 1.05 -46.43 1.05 -45.34 2.48 -44.25 2.48 -43.16 2.48 -42.06 2.48 -40.97 2.48 -39.88 2.48 -38.79 2.48 -37.69 2.48 -36.6 2.48 -35.51 2.48 -34.42 2.48 -33.32 2.48 -32.23 2.48 -31.14 2.48 -30.05 2.48 -28.95 2.48 -27.86 2.48 -26.77 2.48 -25.67 2.48 -24.58 2.48 -23.49 2.48 -22.4 2.48 -21.3 2.48 -20.21 2.48 -19.12 2.48 -18.03 2.48 -16.93 2.48 -15.84 2.48 -14.75 2.48 -13.66 2.48 -12.56 2.48 -11.47 2.48 -10.38 2.48 -9.29 2.48 -8.19 2.48 -7.1 2.48 -6.01 1.05 -4.92 1.05 -3.82 1.05 -2.73 1.05 -1.64 1.05 -0.55 1.05 0.55 1.05 1.64 1.05 2.73 1.05 3.82 1.05 4.92 1.05 6.01 1.05 7.1 1.05 8.19 1.05 9.29 1.05 10.38 1.05 11.47 1.05 12.56 1.05 13.66 1.05 14.75 1.05 15.84 1.05 16.93 1.05 18.03 1.05 19.12 1.05 20.21 1.05 21.3 1.05 22.4 1.05 23.49 1.05 24.58 1.05 25.67 1.05 26.77 1.05 27.86 1.05 28.95 1.05 30.05 1.05 31.14 1.05 32.23 1.05 33.32 1.05 34.42 1.05 35.51 1.05 36.6 1.05 37.69 1.05 38.79 1.05 39.88 1.05 40.97 1.05 42.06 1.05 43.16 1.05 44.25 1.05 45.34 1.05 46.43 1.05 47.53 1.05 48.62 1.05 49.71 1.05 50.8 1.05 51.9 1.05 52.99 1.05 54.08 -0.39" class="primitive"/>
          </g>
          <g transform="translate(74.04,36.59)" id="img-bf6e22cd-101" stroke="#6299FF" stroke-dasharray="none" class="color_13">
            <path fill="none" d="M-54.08,-29.59 L -52.99 -29.59 -51.9 -29.59 -50.8 -26.72 -49.71 -12.38 -48.62 -0.9 -47.53 0.53 -46.43 1.96 -45.34 1.96 -44.25 1.96 -43.16 1.96 -42.06 1.96 -40.97 1.96 -39.88 1.96 -38.79 1.96 -37.69 1.96 -36.6 1.96 -35.51 1.96 -34.42 1.96 -33.32 1.96 -32.23 1.96 -31.14 1.96 -30.05 1.96 -28.95 1.96 -27.86 1.96 -26.77 1.96 -25.67 1.96 -24.58 1.96 -23.49 1.96 -22.4 1.96 -21.3 1.96 -20.21 1.96 -19.12 1.96 -18.03 1.96 -16.93 1.96 -15.84 1.96 -14.75 1.96 -13.66 1.96 -12.56 1.96 -11.47 1.96 -10.38 1.96 -9.29 1.96 -8.19 1.96 -7.1 1.96 -6.01 1.96 -4.92 1.96 -3.82 1.96 -2.73 1.96 -1.64 1.96 -0.55 1.96 0.55 1.96 1.64 1.96 2.73 1.96 3.82 1.96 4.92 1.96 6.01 1.96 7.1 1.96 8.19 1.96 9.29 1.96 10.38 1.96 11.47 1.96 12.56 1.96 13.66 0.53 14.75 0.53 15.84 0.53 16.93 0.53 18.03 0.53 19.12 0.53 20.21 0.53 21.3 0.53 22.4 0.53 23.49 0.53 24.58 0.53 25.67 0.53 26.77 0.53 27.86 0.53 28.95 0.53 30.05 0.53 31.14 0.53 32.23 0.53 33.32 0.53 34.42 0.53 35.51 0.53 36.6 0.53 37.69 0.53 38.79 0.53 39.88 0.53 40.97 0.53 42.06 0.53 43.16 0.53 44.25 0.53 45.34 0.53 46.43 0.53 47.53 0.53 48.62 0.53 49.71 0.53 50.8 0.53 51.9 0.53 52.99 0.53 54.08 0.53" class="primitive"/>
          </g>
          <g transform="translate(74.04,39.92)" id="img-bf6e22cd-102" stroke="#00E4FF" stroke-dasharray="none" class="color_14">
            <path fill="none" d="M-54.08,-32.92 L -52.99 -32.92 -51.9 -32.92 -50.8 -27.18 -49.71 -15.71 -48.62 0.07 -47.53 1.51 -46.43 1.51 -45.34 1.51 -44.25 1.51 -43.16 1.51 -42.06 1.51 -40.97 1.51 -39.88 1.51 -38.79 1.51 -37.69 1.51 -36.6 1.51 -35.51 1.51 -34.42 1.51 -33.32 1.51 -32.23 1.51 -31.14 1.51 -30.05 1.51 -28.95 1.51 -27.86 1.51 -26.77 1.51 -25.67 1.51 -24.58 1.51 -23.49 1.51 -22.4 1.51 -21.3 1.51 -20.21 1.51 -19.12 1.51 -18.03 1.51 -16.93 1.51 -15.84 1.51 -14.75 1.51 -13.66 1.51 -12.56 1.51 -11.47 1.51 -10.38 1.51 -9.29 1.51 -8.19 1.51 -7.1 1.51 -6.01 1.51 -4.92 1.51 -3.82 1.51 -2.73 1.51 -1.64 1.51 -0.55 1.51 0.55 1.51 1.64 1.51 2.73 1.51 3.82 1.51 4.92 1.51 6.01 1.51 7.1 1.51 8.19 1.51 9.29 1.51 10.38 1.51 11.47 1.51 12.56 1.51 13.66 1.51 14.75 1.51 15.84 1.51 16.93 1.51 18.03 1.51 19.12 1.51 20.21 1.51 21.3 1.51 22.4 1.51 23.49 1.51 24.58 1.51 25.67 1.51 26.77 1.51 27.86 1.51 28.95 1.51 30.05 1.51 31.14 1.51 32.23 1.51 33.32 1.51 34.42 1.51 35.51 1.51 36.6 1.51 37.69 1.51 38.79 1.51 39.88 1.51 40.97 1.51 42.06 1.51 43.16 1.51 44.25 1.51 45.34 1.51 46.43 1.51 47.53 1.51 48.62 1.51 49.71 1.51 50.8 1.51 51.9 1.51 52.99 1.51 54.08 1.51" class="primitive"/>
          </g>
          <g transform="translate(74.04,29.03)" id="img-bf6e22cd-103" stroke="#C39800" stroke-dasharray="none" class="color_15">
            <path fill="none" d="M-54.08,-22.03 L -52.99 -22.03 -51.9 -22.03 -50.8 -16.29 -49.71 -4.82 -48.62 0.92 -47.53 0.92 -46.43 0.92 -45.34 0.92 -44.25 0.92 -43.16 0.92 -42.06 0.92 -40.97 0.92 -39.88 0.92 -38.79 0.92 -37.69 0.92 -36.6 0.92 -35.51 0.92 -34.42 0.92 -33.32 0.92 -32.23 0.92 -31.14 0.92 -30.05 0.92 -28.95 0.92 -27.86 0.92 -26.77 0.92 -25.67 0.92 -24.58 0.92 -23.49 0.92 -22.4 0.92 -21.3 0.92 -20.21 0.92 -19.12 0.92 -18.03 0.92 -16.93 0.92 -15.84 0.92 -14.75 0.92 -13.66 0.92 -12.56 0.92 -11.47 0.92 -10.38 0.92 -9.29 0.92 -8.19 0.92 -7.1 0.92 -6.01 0.92 -4.92 0.92 -3.82 0.92 -2.73 0.92 -1.64 0.92 -0.55 0.92 0.55 0.92 1.64 0.92 2.73 0.92 3.82 0.92 4.92 0.92 6.01 0.92 7.1 0.92 8.19 0.92 9.29 0.92 10.38 0.92 11.47 0.92 12.56 0.92 13.66 0.92 14.75 0.92 15.84 0.92 16.93 0.92 18.03 0.92 19.12 0.92 20.21 0.92 21.3 0.92 22.4 0.92 23.49 0.92 24.58 0.92 25.67 0.92 26.77 0.92 27.86 0.92 28.95 0.92 30.05 0.92 31.14 0.92 32.23 0.92 33.32 0.92 34.42 0.92 35.51 0.92 36.6 0.92 37.69 0.92 38.79 0.92 39.88 0.92 40.97 0.92 42.06 0.92 43.16 0.92 44.25 0.92 45.34 0.92 46.43 0.92 47.53 0.92 48.62 0.92 49.71 0.92 50.8 0.92 51.9 0.92 52.99 0.92 54.08 0.92" class="primitive"/>
          </g>
          <g transform="translate(74.04,38.67)" id="img-bf6e22cd-104" stroke="#FF93A4" stroke-dasharray="none" class="color_16">
            <path fill="none" d="M-54.08,-31.67 L -52.99 -31.67 -51.9 -31.67 -50.8 -21.63 -49.71 -8.72 -48.62 1.32 -47.53 1.32 -46.43 1.32 -45.34 1.32 -44.25 1.32 -43.16 1.32 -42.06 1.32 -40.97 1.32 -39.88 1.32 -38.79 1.32 -37.69 1.32 -36.6 1.32 -35.51 1.32 -34.42 1.32 -33.32 1.32 -32.23 1.32 -31.14 1.32 -30.05 1.32 -28.95 1.32 -27.86 1.32 -26.77 1.32 -25.67 1.32 -24.58 1.32 -23.49 1.32 -22.4 1.32 -21.3 1.32 -20.21 1.32 -19.12 1.32 -18.03 1.32 -16.93 1.32 -15.84 1.32 -14.75 1.32 -13.66 1.32 -12.56 1.32 -11.47 1.32 -10.38 1.32 -9.29 1.32 -8.19 1.32 -7.1 1.32 -6.01 1.32 -4.92 1.32 -3.82 1.32 -2.73 1.32 -1.64 1.32 -0.55 1.32 0.55 1.32 1.64 1.32 2.73 1.32 3.82 1.32 4.92 1.32 6.01 1.32 7.1 1.32 8.19 1.32 9.29 1.32 10.38 1.32 11.47 1.32 12.56 1.32 13.66 1.32 14.75 1.32 15.84 1.32 16.93 1.32 18.03 1.32 19.12 1.32 20.21 1.32 21.3 1.32 22.4 1.32 23.49 1.32 24.58 1.32 25.67 1.32 26.77 1.32 27.86 1.32 28.95 1.32 30.05 1.32 31.14 1.32 32.23 1.32 33.32 1.32 34.42 1.32 35.51 1.32 36.6 1.32 37.69 1.32 38.79 1.32 39.88 1.32 40.97 1.32 42.06 1.32 43.16 1.32 44.25 1.32 45.34 1.32 46.43 1.32 47.53 1.32 48.62 1.32 49.71 1.32 50.8 1.32 51.9 1.32 52.99 1.32 54.08 1.32" class="primitive"/>
          </g>
          <g transform="translate(74.04,33.2)" id="img-bf6e22cd-105" stroke="#32B44E" stroke-dasharray="none" class="color_17">
            <path fill="none" d="M-54.08,-26.2 L -52.99 -26.2 -51.9 -24.77 -50.8 -14.73 -49.71 -4.69 -48.62 -1.82 -47.53 1.05 -46.43 1.05 -45.34 1.05 -44.25 1.05 -43.16 1.05 -42.06 1.05 -40.97 1.05 -39.88 1.05 -38.79 1.05 -37.69 1.05 -36.6 1.05 -35.51 1.05 -34.42 1.05 -33.32 1.05 -32.23 1.05 -31.14 1.05 -30.05 1.05 -28.95 1.05 -27.86 1.05 -26.77 1.05 -25.67 1.05 -24.58 1.05 -23.49 1.05 -22.4 1.05 -21.3 1.05 -20.21 1.05 -19.12 1.05 -18.03 1.05 -16.93 1.05 -15.84 1.05 -14.75 1.05 -13.66 1.05 -12.56 1.05 -11.47 1.05 -10.38 1.05 -9.29 1.05 -8.19 1.05 -7.1 1.05 -6.01 1.05 -4.92 1.05 -3.82 1.05 -2.73 1.05 -1.64 1.05 -0.55 1.05 0.55 1.05 1.64 1.05 2.73 1.05 3.82 1.05 4.92 1.05 6.01 1.05 7.1 1.05 8.19 1.05 9.29 1.05 10.38 1.05 11.47 1.05 12.56 1.05 13.66 1.05 14.75 1.05 15.84 1.05 16.93 1.05 18.03 1.05 19.12 1.05 20.21 1.05 21.3 1.05 22.4 1.05 23.49 1.05 24.58 1.05 25.67 1.05 26.77 1.05 27.86 1.05 28.95 1.05 30.05 1.05 31.14 1.05 32.23 1.05 33.32 1.05 34.42 1.05 35.51 1.05 36.6 1.05 37.69 1.05 38.79 1.05 39.88 1.05 40.97 1.05 42.06 1.05 43.16 1.05 44.25 1.05 45.34 1.05 46.43 1.05 47.53 1.05 48.62 1.05 49.71 1.05 50.8 1.05 51.9 1.05 52.99 1.05 54.08 1.05" class="primitive"/>
          </g>
          <g transform="translate(74.04,71.16)" id="img-bf6e22cd-106" stroke="#9E9E9E" stroke-dasharray="none" class="color_18">
            <path fill="none" d="M-54.08,-64.16 L -52.99 -64.16 -51.9 -64.16 -50.8 -58.42 -49.71 -44.08 -48.62 -8.22 -47.53 0.39 -46.43 3.26 -45.34 3.26 -44.25 3.26 -43.16 3.26 -42.06 3.26 -40.97 3.26 -39.88 3.26 -38.79 3.26 -37.69 3.26 -36.6 3.26 -35.51 3.26 -34.42 3.26 -33.32 3.26 -32.23 3.26 -31.14 3.26 -30.05 3.26 -28.95 3.26 -27.86 3.26 -26.77 3.26 -25.67 3.26 -24.58 3.26 -23.49 3.26 -22.4 3.26 -21.3 3.26 -20.21 3.26 -19.12 3.26 -18.03 3.26 -16.93 3.26 -15.84 3.26 -14.75 3.26 -13.66 3.26 -12.56 3.26 -11.47 3.26 -10.38 3.26 -9.29 3.26 -8.19 3.26 -7.1 3.26 -6.01 3.26 -4.92 3.26 -3.82 3.26 -2.73 3.26 -1.64 3.26 -0.55 3.26 0.55 3.26 1.64 3.26 2.73 3.26 3.82 3.26 4.92 3.26 6.01 3.26 7.1 3.26 8.19 3.26 9.29 3.26 10.38 3.26 11.47 3.26 12.56 3.26 13.66 3.26 14.75 3.26 15.84 3.26 16.93 3.26 18.03 3.26 19.12 3.26 20.21 3.26 21.3 3.26 22.4 3.26 23.49 3.26 24.58 3.26 25.67 3.26 26.77 3.26 27.86 3.26 28.95 3.26 30.05 3.26 31.14 3.26 32.23 3.26 33.32 3.26 34.42 3.26 35.51 3.26 36.6 3.26 37.69 3.26 38.79 3.26 39.88 3.26 40.97 3.26 42.06 3.26 43.16 3.26 44.25 3.26 45.34 3.26 46.43 3.26 47.53 3.26 48.62 3.26 49.71 3.26 50.8 3.26 51.9 3.26 52.99 3.26 54.08 3.26" class="primitive"/>
          </g>
          <g transform="translate(74.04,48.22)" id="img-bf6e22cd-107" stroke="#00E5B2" stroke-dasharray="none" class="color_19">
            <path fill="none" d="M-54.08,-39.79 L -52.99 -39.79 -51.9 -38.35 -50.8 -29.75 -49.71 -18.27 -48.62 -3.93 -47.53 1.81 -46.43 1.81 -45.34 1.81 -44.25 1.81 -43.16 1.81 -42.06 1.81 -40.97 1.81 -39.88 1.81 -38.79 1.81 -37.69 1.81 -36.6 1.81 -35.51 1.81 -34.42 1.81 -33.32 1.81 -32.23 1.81 -31.14 1.81 -30.05 1.81 -28.95 1.81 -27.86 1.81 -26.77 1.81 -25.67 1.81 -24.58 1.81 -23.49 1.81 -22.4 1.81 -21.3 1.81 -20.21 1.81 -19.12 1.81 -18.03 1.81 -16.93 1.81 -15.84 1.81 -14.75 1.81 -13.66 1.81 -12.56 1.81 -11.47 1.81 -10.38 1.81 -9.29 1.81 -8.19 1.81 -7.1 1.81 -6.01 1.81 -4.92 1.81 -3.82 1.81 -2.73 1.81 -1.64 1.81 -0.55 1.81 0.55 1.81 1.64 1.81 2.73 1.81 3.82 1.81 4.92 1.81 6.01 1.81 7.1 1.81 8.19 1.81 9.29 1.81 10.38 1.81 11.47 1.81 12.56 1.81 13.66 1.81 14.75 1.81 15.84 1.81 16.93 1.81 18.03 1.81 19.12 1.81 20.21 1.81 21.3 1.81 22.4 1.81 23.49 1.81 24.58 1.81 25.67 1.81 26.77 1.81 27.86 1.81 28.95 1.81 30.05 1.81 31.14 1.81 32.23 1.81 33.32 1.81 34.42 1.81 35.51 1.81 36.6 1.81 37.69 1.81 38.79 1.81 39.88 1.81 40.97 1.81 42.06 1.81 43.16 1.81 44.25 1.81 45.34 1.81 46.43 1.81 47.53 1.81 48.62 1.81 49.71 1.81 50.8 1.81 51.9 1.81 52.99 1.81 54.08 1.81" class="primitive"/>
          </g>
          <g transform="translate(74.04,33.78)" id="img-bf6e22cd-108" stroke="#FFA9F6" stroke-dasharray="none" class="color_20">
            <path fill="none" d="M-54.08,-26.78 L -52.99 -26.78 -51.9 -26.78 -50.8 -25.34 -49.71 -13.87 -48.62 -2.4 -47.53 0.47 -46.43 1.91 -45.34 1.91 -44.25 1.91 -43.16 1.91 -42.06 1.91 -40.97 1.91 -39.88 1.91 -38.79 1.91 -37.69 1.91 -36.6 1.91 -35.51 1.91 -34.42 1.91 -33.32 1.91 -32.23 1.91 -31.14 1.91 -30.05 1.91 -28.95 1.91 -27.86 1.91 -26.77 1.91 -25.67 1.91 -24.58 1.91 -23.49 1.91 -22.4 1.91 -21.3 1.91 -20.21 1.91 -19.12 1.91 -18.03 1.91 -16.93 1.91 -15.84 1.91 -14.75 1.91 -13.66 1.91 -12.56 1.91 -11.47 1.91 -10.38 1.91 -9.29 1.91 -8.19 1.91 -7.1 1.91 -6.01 1.91 -4.92 1.91 -3.82 1.91 -2.73 1.91 -1.64 1.91 -0.55 1.91 0.55 1.91 1.64 1.91 2.73 1.91 3.82 1.91 4.92 1.91 6.01 1.91 7.1 1.91 8.19 0.47 9.29 1.91 10.38 1.91 11.47 1.91 12.56 1.91 13.66 0.47 14.75 0.47 15.84 0.47 16.93 0.47 18.03 0.47 19.12 0.47 20.21 0.47 21.3 0.47 22.4 0.47 23.49 0.47 24.58 0.47 25.67 0.47 26.77 0.47 27.86 0.47 28.95 0.47 30.05 0.47 31.14 0.47 32.23 0.47 33.32 0.47 34.42 0.47 35.51 0.47 36.6 0.47 37.69 0.47 38.79 0.47 39.88 0.47 40.97 0.47 42.06 0.47 43.16 0.47 44.25 0.47 45.34 0.47 46.43 0.47 47.53 0.47 48.62 0.47 49.71 0.47 50.8 0.47 51.9 0.47 52.99 0.47 54.08 0.47" class="primitive"/>
          </g>
          <g transform="translate(74.04,48.52)" id="img-bf6e22cd-109" stroke="#FFAA89" stroke-dasharray="none" class="color_21">
            <path fill="none" d="M-54.08,-41.52 L -52.99 -41.52 -51.9 -41.52 -50.8 -34.35 -49.71 -18.57 -48.62 -7.1 -47.53 -1.36 -46.43 -1.36 -45.34 -1.36 -44.25 -1.36 -43.16 -1.36 -42.06 -1.36 -40.97 -1.36 -39.88 -1.36 -38.79 -1.36 -37.69 -1.36 -36.6 -1.36 -35.51 -2.8 -34.42 1.51 -33.32 1.51 -32.23 2.94 -31.14 2.94 -30.05 2.94 -28.95 2.94 -27.86 2.94 -26.77 2.94 -25.67 2.94 -24.58 2.94 -23.49 2.94 -22.4 2.94 -21.3 2.94 -20.21 2.94 -19.12 2.94 -18.03 2.94 -16.93 2.94 -15.84 2.94 -14.75 2.94 -13.66 2.94 -12.56 2.94 -11.47 2.94 -10.38 2.94 -9.29 2.94 -8.19 2.94 -7.1 2.94 -6.01 2.94 -4.92 2.94 -3.82 2.94 -2.73 2.94 -1.64 2.94 -0.55 2.94 0.55 2.94 1.64 2.94 2.73 2.94 3.82 2.94 4.92 2.94 6.01 2.94 7.1 2.94 8.19 2.94 9.29 2.94 10.38 2.94 11.47 2.94 12.56 2.94 13.66 2.94 14.75 2.94 15.84 2.94 16.93 2.94 18.03 2.94 19.12 2.94 20.21 2.94 21.3 2.94 22.4 1.51 23.49 2.94 24.58 2.94 25.67 2.94 26.77 2.94 27.86 2.94 28.95 1.51 30.05 1.51 31.14 1.51 32.23 1.51 33.32 1.51 34.42 1.51 35.51 1.51 36.6 1.51 37.69 1.51 38.79 1.51 39.88 1.51 40.97 1.51 42.06 1.51 43.16 1.51 44.25 1.51 45.34 1.51 46.43 1.51 47.53 1.51 48.62 1.51 49.71 1.51 50.8 1.51 51.9 1.51 52.99 1.51 54.08 1.51" class="primitive"/>
          </g>
          <g transform="translate(74.04,53.18)" id="img-bf6e22cd-110" stroke="#82CAFF" stroke-dasharray="none" class="color_22">
            <path fill="none" d="M-54.08,-46.18 L -52.99 -46.18 -51.9 -46.18 -50.8 -40.45 -49.71 -23.24 -48.62 -14.63 -47.53 -7.46 -46.43 -7.46 -45.34 -3.16 -44.25 2.58 -43.16 2.58 -42.06 2.58 -40.97 2.58 -39.88 2.58 -38.79 2.58 -37.69 2.58 -36.6 2.58 -35.51 2.58 -34.42 2.58 -33.32 2.58 -32.23 2.58 -31.14 2.58 -30.05 2.58 -28.95 2.58 -27.86 2.58 -26.77 2.58 -25.67 2.58 -24.58 2.58 -23.49 2.58 -22.4 2.58 -21.3 2.58 -20.21 2.58 -19.12 2.58 -18.03 2.58 -16.93 2.58 -15.84 2.58 -14.75 2.58 -13.66 2.58 -12.56 2.58 -11.47 2.58 -10.38 2.58 -9.29 2.58 -8.19 2.58 -7.1 2.58 -6.01 2.58 -4.92 2.58 -3.82 2.58 -2.73 2.58 -1.64 2.58 -0.55 2.58 0.55 2.58 1.64 2.58 2.73 2.58 3.82 2.58 4.92 2.58 6.01 2.58 7.1 2.58 8.19 2.58 9.29 2.58 10.38 2.58 11.47 2.58 12.56 2.58 13.66 2.58 14.75 2.58 15.84 2.58 16.93 2.58 18.03 2.58 19.12 2.58 20.21 2.58 21.3 2.58 22.4 2.58 23.49 2.58 24.58 2.58 25.67 2.58 26.77 2.58 27.86 2.58 28.95 2.58 30.05 2.58 31.14 2.58 32.23 2.58 33.32 2.58 34.42 2.58 35.51 2.58 36.6 2.58 37.69 2.58 38.79 2.58 39.88 2.58 40.97 2.58 42.06 2.58 43.16 2.58 44.25 2.58 45.34 2.58 46.43 2.58 47.53 2.58 48.62 2.58 49.71 2.58 50.8 2.58 51.9 2.58 52.99 2.58 54.08 2.58" class="primitive"/>
          </g>
          <g transform="translate(74.04,42.5)" id="img-bf6e22cd-111" stroke="#00BBAA" stroke-dasharray="none" class="color_23">
            <path fill="none" d="M-54.08,-34.06 L -52.99 -34.06 -51.9 -34.06 -50.8 -31.2 -49.71 -22.59 -48.62 -6.81 -47.53 -2.51 -46.43 1.79 -45.34 1.79 -44.25 1.79 -43.16 1.79 -42.06 1.79 -40.97 1.79 -39.88 1.79 -38.79 1.79 -37.69 1.79 -36.6 1.79 -35.51 1.79 -34.42 1.79 -33.32 1.79 -32.23 1.79 -31.14 1.79 -30.05 1.79 -28.95 1.79 -27.86 1.79 -26.77 1.79 -25.67 1.79 -24.58 1.79 -23.49 1.79 -22.4 1.79 -21.3 1.79 -20.21 1.79 -19.12 1.79 -18.03 1.79 -16.93 1.79 -15.84 1.79 -14.75 1.79 -13.66 1.79 -12.56 1.79 -11.47 1.79 -10.38 1.79 -9.29 1.79 -8.19 1.79 -7.1 1.79 -6.01 1.79 -4.92 1.79 -3.82 1.79 -2.73 1.79 -1.64 1.79 -0.55 1.79 0.55 1.79 1.64 1.79 2.73 1.79 3.82 1.79 4.92 1.79 6.01 1.79 7.1 1.79 8.19 1.79 9.29 1.79 10.38 1.79 11.47 1.79 12.56 1.79 13.66 1.79 14.75 1.79 15.84 1.79 16.93 1.79 18.03 1.79 19.12 1.79 20.21 1.79 21.3 1.79 22.4 1.79 23.49 1.79 24.58 0.36 25.67 1.79 26.77 1.79 27.86 1.79 28.95 1.79 30.05 1.79 31.14 1.79 32.23 1.79 33.32 1.79 34.42 1.79 35.51 1.79 36.6 1.79 37.69 1.79 38.79 1.79 39.88 1.79 40.97 1.79 42.06 1.79 43.16 1.79 44.25 1.79 45.34 1.79 46.43 1.79 47.53 1.79 48.62 1.79 49.71 1.79 50.8 1.79 51.9 1.79 52.99 1.79 54.08 1.79" class="primitive"/>
          </g>
          <g transform="translate(74.04,48.12)" id="img-bf6e22cd-112" stroke="#A08CFF" stroke-dasharray="none" class="color_24">
            <path fill="none" d="M-54.08,-41.12 L -52.99 -41.12 -51.9 -39.69 -50.8 -35.38 -49.71 -16.74 -48.62 -2.4 -47.53 0.47 -46.43 0.47 -45.34 1.91 -44.25 1.91 -43.16 1.91 -42.06 1.91 -40.97 1.91 -39.88 1.91 -38.79 1.91 -37.69 1.91 -36.6 1.91 -35.51 1.91 -34.42 1.91 -33.32 1.91 -32.23 1.91 -31.14 1.91 -30.05 1.91 -28.95 1.91 -27.86 1.91 -26.77 1.91 -25.67 1.91 -24.58 1.91 -23.49 1.91 -22.4 1.91 -21.3 1.91 -20.21 1.91 -19.12 1.91 -18.03 1.91 -16.93 1.91 -15.84 1.91 -14.75 1.91 -13.66 1.91 -12.56 1.91 -11.47 1.91 -10.38 1.91 -9.29 1.91 -8.19 1.91 -7.1 1.91 -6.01 1.91 -4.92 1.91 -3.82 1.91 -2.73 1.91 -1.64 1.91 -0.55 1.91 0.55 1.91 1.64 1.91 2.73 1.91 3.82 1.91 4.92 1.91 6.01 1.91 7.1 1.91 8.19 1.91 9.29 1.91 10.38 1.91 11.47 1.91 12.56 1.91 13.66 1.91 14.75 1.91 15.84 1.91 16.93 1.91 18.03 1.91 19.12 1.91 20.21 1.91 21.3 1.91 22.4 1.91 23.49 1.91 24.58 1.91 25.67 1.91 26.77 1.91 27.86 1.91 28.95 1.91 30.05 1.91 31.14 1.91 32.23 1.91 33.32 1.91 34.42 1.91 35.51 1.91 36.6 1.91 37.69 1.91 38.79 1.91 39.88 1.91 40.97 1.91 42.06 1.91 43.16 1.91 44.25 1.91 45.34 1.91 46.43 1.91 47.53 1.91 48.62 1.91 49.71 1.91 50.8 1.91 51.9 1.91 52.99 1.91 54.08 1.91" class="primitive"/>
          </g>
          <g transform="translate(74.04,42.93)" id="img-bf6e22cd-113" stroke="#00D485" stroke-dasharray="none" class="color_25">
            <path fill="none" d="M-54.08,-35.93 L -52.99 -35.93 -51.9 -34.49 -50.8 -30.19 -49.71 -20.15 -48.62 -5.81 -47.53 2.8 -46.43 2.8 -45.34 2.8 -44.25 2.8 -43.16 2.8 -42.06 2.8 -40.97 2.8 -39.88 2.8 -38.79 2.8 -37.69 2.8 -36.6 2.8 -35.51 2.8 -34.42 2.8 -33.32 2.8 -32.23 2.8 -31.14 2.8 -30.05 2.8 -28.95 2.8 -27.86 2.8 -26.77 2.8 -25.67 2.8 -24.58 2.8 -23.49 1.36 -22.4 2.8 -21.3 2.8 -20.21 1.36 -19.12 1.36 -18.03 1.36 -16.93 1.36 -15.84 1.36 -14.75 1.36 -13.66 1.36 -12.56 1.36 -11.47 1.36 -10.38 1.36 -9.29 1.36 -8.19 1.36 -7.1 1.36 -6.01 1.36 -4.92 1.36 -3.82 1.36 -2.73 1.36 -1.64 1.36 -0.55 1.36 0.55 1.36 1.64 1.36 2.73 1.36 3.82 1.36 4.92 1.36 6.01 1.36 7.1 1.36 8.19 1.36 9.29 1.36 10.38 1.36 11.47 1.36 12.56 1.36 13.66 1.36 14.75 1.36 15.84 1.36 16.93 1.36 18.03 1.36 19.12 1.36 20.21 1.36 21.3 1.36 22.4 1.36 23.49 1.36 24.58 1.36 25.67 1.36 26.77 1.36 27.86 1.36 28.95 1.36 30.05 1.36 31.14 1.36 32.23 1.36 33.32 1.36 34.42 1.36 35.51 1.36 36.6 1.36 37.69 1.36 38.79 1.36 39.88 1.36 40.97 1.36 42.06 1.36 43.16 1.36 44.25 1.36 45.34 1.36 46.43 1.36 47.53 1.36 48.62 1.36 49.71 1.36 50.8 1.36 51.9 1.36 52.99 1.36 54.08 1.36" class="primitive"/>
          </g>
          <g transform="translate(74.04,46.8)" id="img-bf6e22cd-114" stroke="#BCCF6F" stroke-dasharray="none" class="color_26">
            <path fill="none" d="M-54.08,-38.37 L -52.99 -38.37 -51.9 -38.37 -50.8 -26.89 -49.71 -16.85 -48.62 -3.94 -47.53 -1.08 -46.43 -1.08 -45.34 1.79 -44.25 1.79 -43.16 1.79 -42.06 1.79 -40.97 1.79 -39.88 1.79 -38.79 1.79 -37.69 1.79 -36.6 1.79 -35.51 1.79 -34.42 1.79 -33.32 1.79 -32.23 1.79 -31.14 1.79 -30.05 1.79 -28.95 1.79 -27.86 1.79 -26.77 1.79 -25.67 1.79 -24.58 1.79 -23.49 1.79 -22.4 1.79 -21.3 1.79 -20.21 1.79 -19.12 1.79 -18.03 1.79 -16.93 1.79 -15.84 1.79 -14.75 1.79 -13.66 1.79 -12.56 1.79 -11.47 1.79 -10.38 1.79 -9.29 1.79 -8.19 1.79 -7.1 1.79 -6.01 1.79 -4.92 1.79 -3.82 1.79 -2.73 1.79 -1.64 1.79 -0.55 1.79 0.55 1.79 1.64 1.79 2.73 1.79 3.82 1.79 4.92 1.79 6.01 1.79 7.1 1.79 8.19 1.79 9.29 1.79 10.38 1.79 11.47 1.79 12.56 1.79 13.66 1.79 14.75 1.79 15.84 1.79 16.93 1.79 18.03 1.79 19.12 1.79 20.21 1.79 21.3 1.79 22.4 1.79 23.49 1.79 24.58 1.79 25.67 1.79 26.77 1.79 27.86 1.79 28.95 1.79 30.05 1.79 31.14 1.79 32.23 1.79 33.32 1.79 34.42 1.79 35.51 1.79 36.6 1.79 37.69 1.79 38.79 1.79 39.88 1.79 40.97 1.79 42.06 1.79 43.16 1.79 44.25 1.79 45.34 1.79 46.43 1.79 47.53 1.79 48.62 1.79 49.71 1.79 50.8 1.79 51.9 1.79 52.99 1.79 54.08 1.79" class="primitive"/>
          </g>
          <g transform="translate(74.04,55.71)" id="img-bf6e22cd-115" stroke="#FFA0C8" stroke-dasharray="none" class="color_27">
            <path fill="none" d="M-54.08,-48.71 L -52.99 -48.71 -51.9 -48.71 -50.8 -47.27 -49.71 -31.5 -48.62 -14.29 -47.53 -4.25 -46.43 1.49 -45.34 1.49 -44.25 1.49 -43.16 1.49 -42.06 1.49 -40.97 1.49 -39.88 1.49 -38.79 1.49 -37.69 1.49 -36.6 1.49 -35.51 1.49 -34.42 1.49 -33.32 1.49 -32.23 1.49 -31.14 1.49 -30.05 1.49 -28.95 1.49 -27.86 1.49 -26.77 1.49 -25.67 1.49 -24.58 2.93 -23.49 2.93 -22.4 2.93 -21.3 2.93 -20.21 2.93 -19.12 2.93 -18.03 2.93 -16.93 2.93 -15.84 2.93 -14.75 2.93 -13.66 2.93 -12.56 2.93 -11.47 2.93 -10.38 2.93 -9.29 2.93 -8.19 2.93 -7.1 2.93 -6.01 2.93 -4.92 2.93 -3.82 2.93 -2.73 2.93 -1.64 2.93 -0.55 2.93 0.55 2.93 1.64 2.93 2.73 2.93 3.82 2.93 4.92 2.93 6.01 2.93 7.1 2.93 8.19 2.93 9.29 2.93 10.38 2.93 11.47 2.93 12.56 2.93 13.66 2.93 14.75 2.93 15.84 2.93 16.93 2.93 18.03 2.93 19.12 2.93 20.21 2.93 21.3 2.93 22.4 2.93 23.49 2.93 24.58 2.93 25.67 2.93 26.77 2.93 27.86 2.93 28.95 2.93 30.05 2.93 31.14 2.93 32.23 2.93 33.32 2.93 34.42 2.93 35.51 2.93 36.6 2.93 37.69 2.93 38.79 2.93 39.88 2.93 40.97 2.93 42.06 2.93 43.16 2.93 44.25 2.93 45.34 2.93 46.43 2.93 47.53 2.93 48.62 2.93 49.71 2.93 50.8 2.93 51.9 2.93 52.99 2.93 54.08 2.93" class="primitive"/>
          </g>
          <g transform="translate(74.04,42.61)" id="img-bf6e22cd-116" stroke="#FF5F82" stroke-dasharray="none" class="color_28">
            <path fill="none" d="M-54.08,-35.61 L -52.99 -35.61 -51.9 -35.61 -50.8 -31.31 -49.71 -15.53 -48.62 -2.62 -47.53 0.24 -46.43 1.68 -45.34 1.68 -44.25 1.68 -43.16 1.68 -42.06 1.68 -40.97 1.68 -39.88 1.68 -38.79 1.68 -37.69 1.68 -36.6 1.68 -35.51 1.68 -34.42 1.68 -33.32 1.68 -32.23 1.68 -31.14 1.68 -30.05 1.68 -28.95 1.68 -27.86 1.68 -26.77 1.68 -25.67 1.68 -24.58 1.68 -23.49 1.68 -22.4 1.68 -21.3 1.68 -20.21 1.68 -19.12 1.68 -18.03 1.68 -16.93 1.68 -15.84 1.68 -14.75 1.68 -13.66 1.68 -12.56 1.68 -11.47 1.68 -10.38 1.68 -9.29 1.68 -8.19 1.68 -7.1 1.68 -6.01 1.68 -4.92 1.68 -3.82 1.68 -2.73 1.68 -1.64 1.68 -0.55 1.68 0.55 1.68 1.64 1.68 2.73 1.68 3.82 1.68 4.92 1.68 6.01 1.68 7.1 1.68 8.19 1.68 9.29 1.68 10.38 1.68 11.47 1.68 12.56 1.68 13.66 1.68 14.75 1.68 15.84 1.68 16.93 1.68 18.03 1.68 19.12 1.68 20.21 1.68 21.3 1.68 22.4 1.68 23.49 1.68 24.58 1.68 25.67 1.68 26.77 1.68 27.86 1.68 28.95 1.68 30.05 1.68 31.14 1.68 32.23 1.68 33.32 1.68 34.42 1.68 35.51 1.68 36.6 1.68 37.69 1.68 38.79 1.68 39.88 1.68 40.97 1.68 42.06 1.68 43.16 1.68 44.25 1.68 45.34 1.68 46.43 1.68 47.53 1.68 48.62 1.68 49.71 1.68 50.8 1.68 51.9 1.68 52.99 1.68 54.08 1.68" class="primitive"/>
          </g>
          <g transform="translate(74.04,35.96)" id="img-bf6e22cd-117" stroke="#C483E9" stroke-dasharray="none" class="color_29">
            <path fill="none" d="M-54.08,-28.96 L -52.99 -28.96 -51.9 -28.96 -50.8 -16.05 -49.71 -6.01 -48.62 -0.27 -47.53 1.16 -46.43 1.16 -45.34 1.16 -44.25 1.16 -43.16 1.16 -42.06 1.16 -40.97 1.16 -39.88 1.16 -38.79 1.16 -37.69 1.16 -36.6 1.16 -35.51 1.16 -34.42 1.16 -33.32 1.16 -32.23 1.16 -31.14 1.16 -30.05 1.16 -28.95 1.16 -27.86 1.16 -26.77 1.16 -25.67 1.16 -24.58 1.16 -23.49 1.16 -22.4 1.16 -21.3 1.16 -20.21 1.16 -19.12 1.16 -18.03 1.16 -16.93 1.16 -15.84 1.16 -14.75 1.16 -13.66 1.16 -12.56 1.16 -11.47 1.16 -10.38 1.16 -9.29 1.16 -8.19 1.16 -7.1 1.16 -6.01 1.16 -4.92 1.16 -3.82 1.16 -2.73 1.16 -1.64 1.16 -0.55 1.16 0.55 1.16 1.64 1.16 2.73 1.16 3.82 1.16 4.92 1.16 6.01 1.16 7.1 1.16 8.19 1.16 9.29 1.16 10.38 1.16 11.47 1.16 12.56 1.16 13.66 1.16 14.75 1.16 15.84 1.16 16.93 1.16 18.03 1.16 19.12 1.16 20.21 1.16 21.3 1.16 22.4 1.16 23.49 1.16 24.58 1.16 25.67 1.16 26.77 1.16 27.86 1.16 28.95 1.16 30.05 1.16 31.14 1.16 32.23 1.16 33.32 1.16 34.42 1.16 35.51 1.16 36.6 1.16 37.69 1.16 38.79 1.16 39.88 1.16 40.97 1.16 42.06 1.16 43.16 1.16 44.25 1.16 45.34 1.16 46.43 1.16 47.53 1.16 48.62 1.16 49.71 1.16 50.8 1.16 51.9 1.16 52.99 1.16 54.08 1.16" class="primitive"/>
          </g>
        </g>
      </g>
    </g>
  </g>
  <g class="guide ylabels" font-size="2.82" font-family="'PT Sans Caption','Helvetica Neue','Helvetica',sans-serif" fill="#6C606B" id="img-bf6e22cd-118">
    <g transform="translate(16.96,78.71)" id="img-bf6e22cd-119">
      <g class="primitive">
        <text text-anchor="end" dy="0.35em">0</text>
      </g>
    </g>
    <g transform="translate(16.96,64.37)" id="img-bf6e22cd-120">
      <g class="primitive">
        <text text-anchor="end" dy="0.35em">10</text>
      </g>
    </g>
    <g transform="translate(16.96,50.03)" id="img-bf6e22cd-121">
      <g class="primitive">
        <text text-anchor="end" dy="0.35em">20</text>
      </g>
    </g>
    <g transform="translate(16.96,35.69)" id="img-bf6e22cd-122">
      <g class="primitive">
        <text text-anchor="end" dy="0.35em">30</text>
      </g>
    </g>
    <g transform="translate(16.96,21.34)" id="img-bf6e22cd-123">
      <g class="primitive">
        <text text-anchor="end" dy="0.35em">40</text>
      </g>
    </g>
    <g transform="translate(16.96,7)" id="img-bf6e22cd-124">
      <g class="primitive">
        <text text-anchor="end" dy="0.35em">50</text>
      </g>
    </g>
  </g>
  <g font-size="3.88" font-family="'PT Sans','Helvetica Neue','Helvetica',sans-serif" fill="#564A55" stroke="#000000" stroke-opacity="0.000" id="img-bf6e22cd-125">
    <g transform="translate(8.81,40.86)" id="img-bf6e22cd-126">
      <g class="primitive">
        <text text-anchor="middle" dy="0.35em" transform="rotate(-90,0, 2)">Numero de Variedades</text>
      </g>
    </g>
  </g>
</g>
<defs>
  <clipPath id="img-bf6e22cd-71">
    <path d="M17.96,5 L 131.21 5 131.21 80.72 17.96 80.72" />
  </clipPath>
</defs>
</svg>
