<?xml version="1.0" encoding="UTF-8"?>
<svg xmlns="http://www.w3.org/2000/svg"
     xmlns:xlink="http://www.w3.org/1999/xlink"
     xmlns:gadfly="http://www.gadflyjl.org/ns"
     version="1.2"
     width="150mm" height="100mm" viewBox="0 0 150 100"
     stroke="none"
     fill="#000000"
     stroke-width="0.3"
     font-size="3.88"
>
<defs>
  <marker id="arrow" markerWidth="15" markerHeight="7" refX="5" refY="3.5" orient="auto" markerUnits="strokeWidth">
    <path d="M0,0 L15,3.5 L0,7 z" stroke="context-stroke" fill="context-stroke"/>
  </marker>
</defs>
<g class="plotroot xscalable yscalable" id="img-997e1059-1">
  <g font-size="3.88" font-family="'PT Sans','Helvetica Neue','Helvetica',sans-serif" fill="#564A55" stroke="#000000" stroke-opacity="0.000" id="img-997e1059-2">
    <g transform="translate(81.82,88.39)">
      <g class="primitive">
        <text text-anchor="middle" dy="0.6em">Numero Medio de Variedades por UD</text>
      </g>
    </g>
  </g>
  <g class="guide xlabels" font-size="2.82" font-family="'PT Sans Caption','Helvetica Neue','Helvetica',sans-serif" fill="#6C606B" id="img-997e1059-3">
    <g transform="translate(20.63,81.72)">
      <g class="primitive">
        <text text-anchor="middle" dy="0.6em">0</text>
      </g>
    </g>
    <g transform="translate(51.22,81.72)">
      <g class="primitive">
        <text text-anchor="middle" dy="0.6em">5</text>
      </g>
    </g>
    <g transform="translate(81.82,81.72)">
      <g class="primitive">
        <text text-anchor="middle" dy="0.6em">10</text>
      </g>
    </g>
    <g transform="translate(112.41,81.72)">
      <g class="primitive">
        <text text-anchor="middle" dy="0.6em">15</text>
      </g>
    </g>
    <g transform="translate(143,81.72)">
      <g class="primitive">
        <text text-anchor="middle" dy="0.6em">20</text>
      </g>
    </g>
  </g>
  <g clip-path="url(#img-997e1059-4)">
    <g id="img-997e1059-5">
      <g pointer-events="visible" fill="#000000" fill-opacity="0.000" stroke="#000000" stroke-opacity="0.000" class="guide background" id="img-997e1059-6">
        <g transform="translate(81.82,42.86)" id="img-997e1059-7">
          <path d="M-63.18,-37.86 L 63.18 -37.86 63.18 37.86 -63.18 37.86 z" class="primitive"/>
        </g>
      </g>
      <g class="guide ygridlines xfixed" stroke-dasharray="0.5,0.5" stroke-width="0.2" stroke="#D0D0E0" id="img-997e1059-8">
        <g transform="translate(81.82,78.71)" id="img-997e1059-9">
          <path fill="none" d="M-63.18,0 L 63.18 0" class="primitive"/>
        </g>
        <g transform="translate(81.82,42.86)" id="img-997e1059-10">
          <path fill="none" d="M-63.18,0 L 63.18 0" class="primitive"/>
        </g>
        <g transform="translate(81.82,7)" id="img-997e1059-11">
          <path fill="none" d="M-63.18,0 L 63.18 0" class="primitive"/>
        </g>
      </g>
      <g class="guide xgridlines yfixed" stroke-dasharray="0.5,0.5" stroke-width="0.2" stroke="#D0D0E0" id="img-997e1059-12">
        <g transform="translate(20.63,42.86)" id="img-997e1059-13">
          <path fill="none" d="M0,-37.86 L 0 37.86" class="primitive"/>
        </g>
        <g transform="translate(51.22,42.86)" id="img-997e1059-14">
          <path fill="none" d="M0,-37.86 L 0 37.86" class="primitive"/>
        </g>
        <g transform="translate(81.82,42.86)" id="img-997e1059-15">
          <path fill="none" d="M0,-37.86 L 0 37.86" class="primitive"/>
        </g>
        <g transform="translate(112.41,42.86)" id="img-997e1059-16">
          <path fill="none" d="M0,-37.86 L 0 37.86" class="primitive"/>
        </g>
        <g transform="translate(143,42.86)" id="img-997e1059-17">
          <path fill="none" d="M0,-37.86 L 0 37.86" class="primitive"/>
        </g>
      </g>
      <g class="plotpanel" id="img-997e1059-18">
        <metadata>
          <boundingbox value="18.631666666666675mm 5.0mm 126.36833333333333mm 75.715mm"/>
          <unitbox value="-0.32688195475408943 1.0278881684445373 20.65376390950818 -1.055776336889075"/>
        </metadata>
        <g shape-rendering="crispEdges" stroke-width="0.3" id="img-997e1059-19">
          <g stroke="#000000" stroke-opacity="0.000" class="geometry" fill="#00BFFF" id="img-997e1059-20">
            <g transform="translate(26.75,71.2)" id="img-997e1059-21">
              <path d="M-3.08,-7.51 L 3.08 -7.51 3.08 7.51 -3.08 7.51 z" class="primitive"/>
            </g>
            <g transform="translate(32.87,72.19)" id="img-997e1059-22">
              <path d="M-3.08,-6.53 L 3.08 -6.53 3.08 6.53 -3.08 6.53 z" class="primitive"/>
            </g>
            <g transform="translate(38.99,73.99)" id="img-997e1059-23">
              <path d="M-3.08,-4.73 L 3.08 -4.73 3.08 4.73 -3.08 4.73 z" class="primitive"/>
            </g>
            <g transform="translate(45.11,74.29)" id="img-997e1059-24">
              <path d="M-3.08,-4.42 L 3.08 -4.42 3.08 4.42 -3.08 4.42 z" class="primitive"/>
            </g>
            <g transform="translate(51.22,74.71)" id="img-997e1059-25">
              <path d="M-3.08,-4 L 3.08 -4 3.08 4 -3.08 4 z" class="primitive"/>
            </g>
            <g transform="translate(57.34,75.55)" id="img-997e1059-26">
              <path d="M-3.08,-3.17 L 3.08 -3.17 3.08 3.17 -3.08 3.17 z" class="primitive"/>
            </g>
            <g transform="translate(63.46,76.43)" id="img-997e1059-27">
              <path d="M-3.08,-2.28 L 3.08 -2.28 3.08 2.28 -3.08 2.28 z" class="primitive"/>
            </g>
            <g transform="translate(69.58,77.25)" id="img-997e1059-28">
              <path d="M-3.08,-1.46 L 3.08 -1.46 3.08 1.46 -3.08 1.46 z" class="primitive"/>
            </g>
            <g transform="translate(75.7,77.82)" id="img-997e1059-29">
              <path d="M-3.08,-0.89 L 3.08 -0.89 3.08 0.89 -3.08 0.89 z" class="primitive"/>
            </g>
            <g transform="translate(81.82,78.23)" id="img-997e1059-30">
              <path d="M-3.08,-0.48 L 3.08 -0.48 3.08 0.48 -3.08 0.48 z" class="primitive"/>
            </g>
            <g transform="translate(87.93,78.46)" id="img-997e1059-31">
              <path d="M-3.08,-0.25 L 3.08 -0.25 3.08 0.25 -3.08 0.25 z" class="primitive"/>
            </g>
            <g transform="translate(94.05,78.63)" id="img-997e1059-32">
              <path d="M-3.08,-0.08 L 3.08 -0.08 3.08 0.08 -3.08 0.08 z" class="primitive"/>
            </g>
            <g transform="translate(100.17,78.68)" id="img-997e1059-33">
              <path d="M-3.08,-0.03 L 3.08 -0.03 3.08 0.03 -3.08 0.03 z" class="primitive"/>
            </g>
            <g transform="translate(106.29,78.7)" id="img-997e1059-34">
              <path d="M-3.08,-0.01 L 3.08 -0.01 3.08 0.01 -3.08 0.01 z" class="primitive"/>
            </g>
            <g transform="translate(112.41,78.71)" id="img-997e1059-35">
              <path d="M-3.08,-0.01 L 3.08 -0.01 3.08 0.01 -3.08 0.01 z" class="primitive"/>
            </g>
            <g transform="translate(118.53,78.72)" id="img-997e1059-36">
              <path d="M-3.08,-0 L 3.08 -0 3.08 0 -3.08 0 z" class="primitive"/>
            </g>
            <g transform="translate(124.64,78.72)" id="img-997e1059-37">
              <path d="M-3.08,-0 L 3.08 -0 3.08 0 -3.08 0 z" class="primitive"/>
            </g>
            <g transform="translate(130.76,78.72)" id="img-997e1059-38">
              <path d="M-3.08,-0 L 3.08 -0 3.08 0 -3.08 0 z" class="primitive"/>
            </g>
            <g transform="translate(136.88,78.72)" id="img-997e1059-39">
              <path d="M-3.08,-0 L 3.08 -0 3.08 0 -3.08 0 z" class="primitive"/>
            </g>
            <g transform="translate(143,78.72)" id="img-997e1059-40">
              <path d="M-3.08,-0 L 3.08 -0 3.08 0 -3.08 0 z" class="primitive"/>
            </g>
            <g transform="translate(149.12,78.72)" id="img-997e1059-41">
              <path d="M-3.08,-0 L 3.08 -0 3.08 0 -3.08 0 z" class="primitive"/>
            </g>
            <g transform="translate(155.24,78.72)" id="img-997e1059-42">
              <path d="M-3.08,-0 L 3.08 -0 3.08 0 -3.08 0 z" class="primitive"/>
            </g>
            <g transform="translate(161.36,78.72)" id="img-997e1059-43">
              <path d="M-3.08,-0 L 3.08 -0 3.08 0 -3.08 0 z" class="primitive"/>
            </g>
            <g transform="translate(167.47,78.72)" id="img-997e1059-44">
              <path d="M-3.08,-0 L 3.08 -0 3.08 0 -3.08 0 z" class="primitive"/>
            </g>
            <g transform="translate(173.59,78.72)" id="img-997e1059-45">
              <path d="M-3.08,-0 L 3.08 -0 3.08 0 -3.08 0 z" class="primitive"/>
            </g>
            <g transform="translate(179.71,78.72)" id="img-997e1059-46">
              <path d="M-3.08,-0 L 3.08 -0 3.08 0 -3.08 0 z" class="primitive"/>
            </g>
            <g transform="translate(185.83,78.72)" id="img-997e1059-47">
              <path d="M-3.08,-0 L 3.08 -0 3.08 0 -3.08 0 z" class="primitive"/>
            </g>
            <g transform="translate(191.95,78.72)" id="img-997e1059-48">
              <path d="M-3.08,-0 L 3.08 -0 3.08 0 -3.08 0 z" class="primitive"/>
            </g>
            <g transform="translate(198.07,78.72)" id="img-997e1059-49">
              <path d="M-3.08,-0 L 3.08 -0 3.08 0 -3.08 0 z" class="primitive"/>
            </g>
            <g transform="translate(204.18,78.72)" id="img-997e1059-50">
              <path d="M-3.08,-0 L 3.08 -0 3.08 0 -3.08 0 z" class="primitive"/>
            </g>
            <g transform="translate(210.3,78.72)" id="img-997e1059-51">
              <path d="M-3.08,-0 L 3.08 -0 3.08 0 -3.08 0 z" class="primitive"/>
            </g>
            <g transform="translate(216.42,78.72)" id="img-997e1059-52">
              <path d="M-3.08,-0 L 3.08 -0 3.08 0 -3.08 0 z" class="primitive"/>
            </g>
            <g transform="translate(222.54,78.72)" id="img-997e1059-53">
              <path d="M-3.08,-0 L 3.08 -0 3.08 0 -3.08 0 z" class="primitive"/>
            </g>
            <g transform="translate(228.66,78.72)" id="img-997e1059-54">
              <path d="M-3.08,-0 L 3.08 -0 3.08 0 -3.08 0 z" class="primitive"/>
            </g>
            <g transform="translate(234.78,78.72)" id="img-997e1059-55">
              <path d="M-3.08,-0 L 3.08 -0 3.08 0 -3.08 0 z" class="primitive"/>
            </g>
            <g transform="translate(240.89,78.72)" id="img-997e1059-56">
              <path d="M-3.08,-0 L 3.08 -0 3.08 0 -3.08 0 z" class="primitive"/>
            </g>
            <g transform="translate(247.01,78.72)" id="img-997e1059-57">
              <path d="M-3.08,-0 L 3.08 -0 3.08 0 -3.08 0 z" class="primitive"/>
            </g>
            <g transform="translate(253.13,78.72)" id="img-997e1059-58">
              <path d="M-3.08,-0 L 3.08 -0 3.08 0 -3.08 0 z" class="primitive"/>
            </g>
            <g transform="translate(259.25,78.72)" id="img-997e1059-59">
              <path d="M-3.08,-0 L 3.08 -0 3.08 0 -3.08 0 z" class="primitive"/>
            </g>
            <g transform="translate(265.37,78.72)" id="img-997e1059-60">
              <path d="M-3.08,-0 L 3.08 -0 3.08 0 -3.08 0 z" class="primitive"/>
            </g>
            <g transform="translate(271.49,78.72)" id="img-997e1059-61">
              <path d="M-3.08,-0 L 3.08 -0 3.08 0 -3.08 0 z" class="primitive"/>
            </g>
            <g transform="translate(277.61,78.72)" id="img-997e1059-62">
              <path d="M-3.08,-0 L 3.08 -0 3.08 0 -3.08 0 z" class="primitive"/>
            </g>
            <g transform="translate(283.72,78.72)" id="img-997e1059-63">
              <path d="M-3.08,-0 L 3.08 -0 3.08 0 -3.08 0 z" class="primitive"/>
            </g>
            <g transform="translate(289.84,78.72)" id="img-997e1059-64">
              <path d="M-3.08,-0 L 3.08 -0 3.08 0 -3.08 0 z" class="primitive"/>
            </g>
            <g transform="translate(295.96,78.72)" id="img-997e1059-65">
              <path d="M-3.08,-0 L 3.08 -0 3.08 0 -3.08 0 z" class="primitive"/>
            </g>
            <g transform="translate(302.08,78.72)" id="img-997e1059-66">
              <path d="M-3.08,-0 L 3.08 -0 3.08 0 -3.08 0 z" class="primitive"/>
            </g>
            <g transform="translate(308.2,78.72)" id="img-997e1059-67">
              <path d="M-3.08,-0 L 3.08 -0 3.08 0 -3.08 0 z" class="primitive"/>
            </g>
            <g transform="translate(314.32,78.72)" id="img-997e1059-68">
              <path d="M-3.08,-0 L 3.08 -0 3.08 0 -3.08 0 z" class="primitive"/>
            </g>
            <g transform="translate(320.43,78.72)" id="img-997e1059-69">
              <path d="M-3.08,-0 L 3.08 -0 3.08 0 -3.08 0 z" class="primitive"/>
            </g>
          </g>
        </g>
      </g>
    </g>
  </g>
  <g class="guide ylabels" font-size="2.82" font-family="'PT Sans Caption','Helvetica Neue','Helvetica',sans-serif" fill="#6C606B" id="img-997e1059-70">
    <g transform="translate(17.63,78.71)" id="img-997e1059-71">
      <g class="primitive">
        <text text-anchor="end" dy="0.35em">0.0</text>
      </g>
    </g>
    <g transform="translate(17.63,42.86)" id="img-997e1059-72">
      <g class="primitive">
        <text text-anchor="end" dy="0.35em">0.5</text>
      </g>
    </g>
    <g transform="translate(17.63,7)" id="img-997e1059-73">
      <g class="primitive">
        <text text-anchor="end" dy="0.35em">1.0</text>
      </g>
    </g>
  </g>
  <g font-size="3.88" font-family="'PT Sans','Helvetica Neue','Helvetica',sans-serif" fill="#564A55" stroke="#000000" stroke-opacity="0.000" id="img-997e1059-74">
    <g transform="translate(8.81,40.86)" id="img-997e1059-75">
      <g class="primitive">
        <text text-anchor="middle" dy="0.35em" transform="rotate(-90,0, 2)">Frequencia</text>
      </g>
    </g>
  </g>
</g>
<defs>
  <clipPath id="img-997e1059-4">
    <path d="M18.63,5 L 145 5 145 80.72 18.63 80.72" />
  </clipPath>
</defs>
</svg>
