<?xml version="1.0" encoding="UTF-8"?>
<svg xmlns="http://www.w3.org/2000/svg"
     xmlns:xlink="http://www.w3.org/1999/xlink"
     xmlns:gadfly="http://www.gadflyjl.org/ns"
     version="1.2"
     width="150mm" height="100mm" viewBox="0 0 150 100"
     stroke="none"
     fill="#000000"
     stroke-width="0.3"
     font-size="3.88"
>
<defs>
  <marker id="arrow" markerWidth="15" markerHeight="7" refX="5" refY="3.5" orient="auto" markerUnits="strokeWidth">
    <path d="M0,0 L15,3.5 L0,7 z" stroke="context-stroke" fill="context-stroke"/>
  </marker>
</defs>
<g class="plotroot xscalable yscalable" id="img-e1ff9ecc-1">
  <g font-size="3.88" font-family="'PT Sans','Helvetica Neue','Helvetica',sans-serif" fill="#564A55" stroke="#000000" stroke-opacity="0.000" id="img-e1ff9ecc-2">
    <g transform="translate(73.66,88.39)">
      <g class="primitive">
        <text text-anchor="middle" dy="0.6em">value</text>
      </g>
    </g>
  </g>
  <g class="guide xlabels" font-size="2.82" font-family="'PT Sans Caption','Helvetica Neue','Helvetica',sans-serif" fill="#6C606B" id="img-e1ff9ecc-3">
    <g transform="translate(22.3,81.72)">
      <g class="primitive">
        <text text-anchor="middle" dy="0.6em">0.0</text>
      </g>
    </g>
    <g transform="translate(73.66,81.72)">
      <g class="primitive">
        <text text-anchor="middle" dy="0.6em">0.5</text>
      </g>
    </g>
    <g transform="translate(125.01,81.72)">
      <g class="primitive">
        <text text-anchor="middle" dy="0.6em">1.0</text>
      </g>
    </g>
  </g>
  <g class="guide colorkey" id="img-e1ff9ecc-4">
    <g fill="#4C404B" font-size="2.82" font-family="'PT Sans','Helvetica Neue','Helvetica',sans-serif" id="img-e1ff9ecc-5">
      <g transform="translate(130.82,42.86)" id="img-e1ff9ecc-6">
        <g class="primitive">
          <text dy="0.35em">Fitness</text>
        </g>
      </g>
      <g transform="translate(130.82,46.48)" id="img-e1ff9ecc-7">
        <g class="primitive">
          <text dy="0.35em">Appearence</text>
        </g>
      </g>
    </g>
    <g stroke="#000000" stroke-opacity="0.000" id="img-e1ff9ecc-8">
      <g transform="translate(128.91,42.86)" id="img-e1ff9ecc-9" fill="#008000">
        <path d="M-0.91,-0.91 L 0.91 -0.91 0.91 0.91 -0.91 0.91 z" class="primitive"/>
      </g>
      <g transform="translate(128.91,46.48)" id="img-e1ff9ecc-10" fill="#FF0000">
        <path d="M-0.91,-0.91 L 0.91 -0.91 0.91 0.91 -0.91 0.91 z" class="primitive"/>
      </g>
    </g>
    <g fill="#362A35" font-size="3.88" font-family="'PT Sans','Helvetica Neue','Helvetica',sans-serif" stroke="#000000" stroke-opacity="0.000" id="img-e1ff9ecc-11">
      <g transform="translate(128.01,39.04)" id="img-e1ff9ecc-12">
        <g class="primitive">
          <text></text>
        </g>
      </g>
    </g>
  </g>
  <g clip-path="url(#img-e1ff9ecc-13)">
    <g id="img-e1ff9ecc-14">
      <g pointer-events="visible" fill="#000000" fill-opacity="0.000" stroke="#000000" stroke-opacity="0.000" class="guide background" id="img-e1ff9ecc-15">
        <g transform="translate(73.66,42.86)" id="img-e1ff9ecc-16">
          <path d="M-53.35,-37.86 L 53.35 -37.86 53.35 37.86 -53.35 37.86 z" class="primitive"/>
        </g>
      </g>
      <g class="guide ygridlines xfixed" stroke-dasharray="0.5,0.5" stroke-width="0.2" stroke="#D0D0E0" id="img-e1ff9ecc-17">
        <g transform="translate(73.66,78.72)" id="img-e1ff9ecc-18">
          <path fill="none" d="M-53.35,0 L 53.35 0" class="primitive"/>
        </g>
        <g transform="translate(73.66,60.79)" id="img-e1ff9ecc-19">
          <path fill="none" d="M-53.35,0 L 53.35 0" class="primitive"/>
        </g>
        <g transform="translate(73.66,42.86)" id="img-e1ff9ecc-20">
          <path fill="none" d="M-53.35,0 L 53.35 0" class="primitive"/>
        </g>
        <g transform="translate(73.66,24.93)" id="img-e1ff9ecc-21">
          <path fill="none" d="M-53.35,0 L 53.35 0" class="primitive"/>
        </g>
        <g transform="translate(73.66,7)" id="img-e1ff9ecc-22">
          <path fill="none" d="M-53.35,0 L 53.35 0" class="primitive"/>
        </g>
      </g>
      <g class="guide xgridlines yfixed" stroke-dasharray="0.5,0.5" stroke-width="0.2" stroke="#D0D0E0" id="img-e1ff9ecc-23">
        <g transform="translate(22.3,42.86)" id="img-e1ff9ecc-24">
          <path fill="none" d="M0,-37.86 L 0 37.86" class="primitive"/>
        </g>
        <g transform="translate(73.66,42.86)" id="img-e1ff9ecc-25">
          <path fill="none" d="M0,-37.86 L 0 37.86" class="primitive"/>
        </g>
        <g transform="translate(125.01,42.86)" id="img-e1ff9ecc-26">
          <path fill="none" d="M0,-37.86 L 0 37.86" class="primitive"/>
        </g>
      </g>
      <g class="plotpanel" id="img-e1ff9ecc-27">
        <metadata>
          <boundingbox value="20.304999999999993mm 5.0mm 106.70166666666668mm 75.715mm"/>
          <unitbox value="-0.019473880657568034 0.2055776336889075 1.038947761315136 -0.21115526737781498"/>
        </metadata>
        <g shape-rendering="crispEdges" stroke-width="0.3" id="img-e1ff9ecc-28">
          <g stroke="#000000" stroke-opacity="0.000" class="geometry" fill="#FF0000" fill-opacity="0.400" id="img-e1ff9ecc-29">
            <g transform="translate(24.87,78.71)" id="img-e1ff9ecc-30">
              <path d="M-2.59,-0.01 L 2.59 -0.01 2.59 0.01 -2.59 0.01 z" class="primitive"/>
            </g>
            <g transform="translate(30.01,78.7)" id="img-e1ff9ecc-31">
              <path d="M-2.59,-0.02 L 2.59 -0.02 2.59 0.02 -2.59 0.02 z" class="primitive"/>
            </g>
            <g transform="translate(35.14,78.59)" id="img-e1ff9ecc-32">
              <path d="M-2.59,-0.12 L 2.59 -0.12 2.59 0.12 -2.59 0.12 z" class="primitive"/>
            </g>
            <g transform="translate(40.28,78.25)" id="img-e1ff9ecc-33">
              <path d="M-2.59,-0.47 L 2.59 -0.47 2.59 0.47 -2.59 0.47 z" class="primitive"/>
            </g>
            <g transform="translate(45.41,77.12)" id="img-e1ff9ecc-34">
              <path d="M-2.59,-1.6 L 2.59 -1.6 2.59 1.6 -2.59 1.6 z" class="primitive"/>
            </g>
            <g transform="translate(50.55,74.74)" id="img-e1ff9ecc-35">
              <path d="M-2.59,-3.97 L 2.59 -3.97 2.59 3.97 -2.59 3.97 z" class="primitive"/>
            </g>
            <g transform="translate(55.68,71)" id="img-e1ff9ecc-36">
              <path d="M-2.59,-7.72 L 2.59 -7.72 2.59 7.72 -2.59 7.72 z" class="primitive"/>
            </g>
            <g transform="translate(60.82,61.54)" id="img-e1ff9ecc-37">
              <path d="M-2.59,-17.18 L 2.59 -17.18 2.59 17.18 -2.59 17.18 z" class="primitive"/>
            </g>
            <g transform="translate(65.95,53.31)" id="img-e1ff9ecc-38">
              <path d="M-2.59,-25.41 L 2.59 -25.41 2.59 25.41 -2.59 25.41 z" class="primitive"/>
            </g>
            <g transform="translate(71.09,46.71)" id="img-e1ff9ecc-39">
              <path d="M-2.59,-32 L 2.59 -32 2.59 32 -2.59 32 z" class="primitive"/>
            </g>
            <g transform="translate(76.22,44.16)" id="img-e1ff9ecc-40">
              <path d="M-2.59,-34.55 L 2.59 -34.55 2.59 34.55 -2.59 34.55 z" class="primitive"/>
            </g>
            <g transform="translate(81.36,51.36)" id="img-e1ff9ecc-41">
              <path d="M-2.59,-27.36 L 2.59 -27.36 2.59 27.36 -2.59 27.36 z" class="primitive"/>
            </g>
            <g transform="translate(86.49,63.65)" id="img-e1ff9ecc-42">
              <path d="M-2.59,-15.07 L 2.59 -15.07 2.59 15.07 -2.59 15.07 z" class="primitive"/>
            </g>
            <g transform="translate(91.63,69.88)" id="img-e1ff9ecc-43">
              <path d="M-2.59,-8.84 L 2.59 -8.84 2.59 8.84 -2.59 8.84 z" class="primitive"/>
            </g>
            <g transform="translate(96.76,75.49)" id="img-e1ff9ecc-44">
              <path d="M-2.59,-3.23 L 2.59 -3.23 2.59 3.23 -2.59 3.23 z" class="primitive"/>
            </g>
            <g transform="translate(101.9,77.45)" id="img-e1ff9ecc-45">
              <path d="M-2.59,-1.27 L 2.59 -1.27 2.59 1.27 -2.59 1.27 z" class="primitive"/>
            </g>
            <g transform="translate(107.03,78.32)" id="img-e1ff9ecc-46">
              <path d="M-2.59,-0.39 L 2.59 -0.39 2.59 0.39 -2.59 0.39 z" class="primitive"/>
            </g>
            <g transform="translate(112.17,78.64)" id="img-e1ff9ecc-47">
              <path d="M-2.59,-0.07 L 2.59 -0.07 2.59 0.07 -2.59 0.07 z" class="primitive"/>
            </g>
            <g transform="translate(117.3,78.7)" id="img-e1ff9ecc-48">
              <path d="M-2.59,-0.01 L 2.59 -0.01 2.59 0.01 -2.59 0.01 z" class="primitive"/>
            </g>
            <g transform="translate(122.44,78.71)" id="img-e1ff9ecc-49">
              <path d="M-2.59,-0.01 L 2.59 -0.01 2.59 0.01 -2.59 0.01 z" class="primitive"/>
            </g>
          </g>
        </g>
        <g shape-rendering="crispEdges" stroke-width="0.3" id="img-e1ff9ecc-50">
          <g stroke="#000000" stroke-opacity="0.000" class="geometry" fill="#00FF00" fill-opacity="0.400" id="img-e1ff9ecc-51">
            <g transform="translate(24.87,66.02)" id="img-e1ff9ecc-52">
              <path d="M-2.59,-12.7 L 2.59 -12.7 2.59 12.7 -2.59 12.7 z" class="primitive"/>
            </g>
            <g transform="translate(30.01,67.87)" id="img-e1ff9ecc-53">
              <path d="M-2.59,-10.85 L 2.59 -10.85 2.59 10.85 -2.59 10.85 z" class="primitive"/>
            </g>
            <g transform="translate(35.14,67.61)" id="img-e1ff9ecc-54">
              <path d="M-2.59,-11.1 L 2.59 -11.1 2.59 11.1 -2.59 11.1 z" class="primitive"/>
            </g>
            <g transform="translate(40.28,65.8)" id="img-e1ff9ecc-55">
              <path d="M-2.59,-12.92 L 2.59 -12.92 2.59 12.92 -2.59 12.92 z" class="primitive"/>
            </g>
            <g transform="translate(45.41,64.21)" id="img-e1ff9ecc-56">
              <path d="M-2.59,-14.5 L 2.59 -14.5 2.59 14.5 -2.59 14.5 z" class="primitive"/>
            </g>
            <g transform="translate(50.55,66.35)" id="img-e1ff9ecc-57">
              <path d="M-2.59,-12.37 L 2.59 -12.37 2.59 12.37 -2.59 12.37 z" class="primitive"/>
            </g>
            <g transform="translate(55.68,65.7)" id="img-e1ff9ecc-58">
              <path d="M-2.59,-13.02 L 2.59 -13.02 2.59 13.02 -2.59 13.02 z" class="primitive"/>
            </g>
            <g transform="translate(60.82,65.57)" id="img-e1ff9ecc-59">
              <path d="M-2.59,-13.14 L 2.59 -13.14 2.59 13.14 -2.59 13.14 z" class="primitive"/>
            </g>
            <g transform="translate(65.95,64.16)" id="img-e1ff9ecc-60">
              <path d="M-2.59,-14.55 L 2.59 -14.55 2.59 14.55 -2.59 14.55 z" class="primitive"/>
            </g>
            <g transform="translate(71.09,61.41)" id="img-e1ff9ecc-61">
              <path d="M-2.59,-17.31 L 2.59 -17.31 2.59 17.31 -2.59 17.31 z" class="primitive"/>
            </g>
            <g transform="translate(76.22,59.84)" id="img-e1ff9ecc-62">
              <path d="M-2.59,-18.88 L 2.59 -18.88 2.59 18.88 -2.59 18.88 z" class="primitive"/>
            </g>
            <g transform="translate(81.36,63.39)" id="img-e1ff9ecc-63">
              <path d="M-2.59,-15.32 L 2.59 -15.32 2.59 15.32 -2.59 15.32 z" class="primitive"/>
            </g>
            <g transform="translate(86.49,68.88)" id="img-e1ff9ecc-64">
              <path d="M-2.59,-9.84 L 2.59 -9.84 2.59 9.84 -2.59 9.84 z" class="primitive"/>
            </g>
            <g transform="translate(91.63,75.92)" id="img-e1ff9ecc-65">
              <path d="M-2.59,-2.8 L 2.59 -2.8 2.59 2.8 -2.59 2.8 z" class="primitive"/>
            </g>
            <g transform="translate(96.76,78.72)" id="img-e1ff9ecc-66">
              <path d="M-2.59,-0 L 2.59 -0 2.59 0 -2.59 0 z" class="primitive"/>
            </g>
            <g transform="translate(101.9,78.72)" id="img-e1ff9ecc-67">
              <path d="M-2.59,-0 L 2.59 -0 2.59 0 -2.59 0 z" class="primitive"/>
            </g>
            <g transform="translate(107.03,78.72)" id="img-e1ff9ecc-68">
              <path d="M-2.59,-0 L 2.59 -0 2.59 0 -2.59 0 z" class="primitive"/>
            </g>
            <g transform="translate(112.17,78.72)" id="img-e1ff9ecc-69">
              <path d="M-2.59,-0 L 2.59 -0 2.59 0 -2.59 0 z" class="primitive"/>
            </g>
            <g transform="translate(117.3,78.72)" id="img-e1ff9ecc-70">
              <path d="M-2.59,-0 L 2.59 -0 2.59 0 -2.59 0 z" class="primitive"/>
            </g>
            <g transform="translate(122.44,78.72)" id="img-e1ff9ecc-71">
              <path d="M-2.59,-0 L 2.59 -0 2.59 0 -2.59 0 z" class="primitive"/>
            </g>
          </g>
        </g>
      </g>
    </g>
  </g>
  <g class="guide ylabels" font-size="2.82" font-family="'PT Sans Caption','Helvetica Neue','Helvetica',sans-serif" fill="#6C606B" id="img-e1ff9ecc-72">
    <g transform="translate(19.3,78.72)" id="img-e1ff9ecc-73">
      <g class="primitive">
        <text text-anchor="end" dy="0.35em">0.00</text>
      </g>
    </g>
    <g transform="translate(19.3,60.79)" id="img-e1ff9ecc-74">
      <g class="primitive">
        <text text-anchor="end" dy="0.35em">0.05</text>
      </g>
    </g>
    <g transform="translate(19.3,42.86)" id="img-e1ff9ecc-75">
      <g class="primitive">
        <text text-anchor="end" dy="0.35em">0.10</text>
      </g>
    </g>
    <g transform="translate(19.3,24.93)" id="img-e1ff9ecc-76">
      <g class="primitive">
        <text text-anchor="end" dy="0.35em">0.15</text>
      </g>
    </g>
    <g transform="translate(19.3,7)" id="img-e1ff9ecc-77">
      <g class="primitive">
        <text text-anchor="end" dy="0.35em">0.20</text>
      </g>
    </g>
  </g>
  <g font-size="3.88" font-family="'PT Sans','Helvetica Neue','Helvetica',sans-serif" fill="#564A55" stroke="#000000" stroke-opacity="0.000" id="img-e1ff9ecc-78">
    <g transform="translate(8.81,40.86)" id="img-e1ff9ecc-79">
      <g class="primitive">
        <text text-anchor="middle" dy="0.35em" transform="rotate(-90,0, 2)">fitness</text>
      </g>
    </g>
  </g>
</g>
<defs>
  <clipPath id="img-e1ff9ecc-13">
    <path d="M20.3,5 L 127.01 5 127.01 80.72 20.3 80.72" />
  </clipPath>
</defs>
</svg>
