<?xml version="1.0" encoding="UTF-8"?>
<svg xmlns="http://www.w3.org/2000/svg"
     xmlns:xlink="http://www.w3.org/1999/xlink"
     xmlns:gadfly="http://www.gadflyjl.org/ns"
     version="1.2"
     width="150mm" height="100mm" viewBox="0 0 150 100"
     stroke="none"
     fill="#000000"
     stroke-width="0.3"
     font-size="3.88"
>
<defs>
  <marker id="arrow" markerWidth="15" markerHeight="7" refX="5" refY="3.5" orient="auto" markerUnits="strokeWidth">
    <path d="M0,0 L15,3.5 L0,7 z" stroke="context-stroke" fill="context-stroke"/>
  </marker>
</defs>
<g class="plotroot xscalable yscalable" id="img-5af57a70-1">
  <g font-size="3.88" font-family="'PT Sans','Helvetica Neue','Helvetica',sans-serif" fill="#564A55" stroke="#000000" stroke-opacity="0.000" id="img-5af57a70-2">
    <g transform="translate(77.36,88.39)">
      <g class="primitive">
        <text text-anchor="middle" dy="0.6em">Appearence</text>
      </g>
    </g>
  </g>
  <g class="guide xlabels" font-size="2.82" font-family="'PT Sans Caption','Helvetica Neue','Helvetica',sans-serif" fill="#6C606B" id="img-5af57a70-3">
    <g transform="translate(22.31,81.72)">
      <g class="primitive">
        <text text-anchor="middle" dy="0.6em">0.0</text>
      </g>
    </g>
    <g transform="translate(77.36,81.72)">
      <g class="primitive">
        <text text-anchor="middle" dy="0.6em">0.5</text>
      </g>
    </g>
    <g transform="translate(132.42,81.72)">
      <g class="primitive">
        <text text-anchor="middle" dy="0.6em">1.0</text>
      </g>
    </g>
  </g>
  <g class="guide colorkey" id="img-5af57a70-4">
    <g fill="#4C404B" font-size="2.82" font-family="'PT Sans','Helvetica Neue','Helvetica',sans-serif" id="img-5af57a70-5">
      <g transform="translate(138.23,37.42)" id="img-5af57a70-6" class="color_0.01">
        <g class="primitive">
          <text dy="0.35em">0.01</text>
        </g>
      </g>
      <g transform="translate(138.23,41.04)" id="img-5af57a70-7" class="color_0.025">
        <g class="primitive">
          <text dy="0.35em">0.025</text>
        </g>
      </g>
      <g transform="translate(138.23,44.67)" id="img-5af57a70-8" class="color_0.05">
        <g class="primitive">
          <text dy="0.35em">0.05</text>
        </g>
      </g>
      <g transform="translate(138.23,48.3)" id="img-5af57a70-9" class="color_0.075">
        <g class="primitive">
          <text dy="0.35em">0.075</text>
        </g>
      </g>
      <g transform="translate(138.23,51.92)" id="img-5af57a70-10" class="color_0.1">
        <g class="primitive">
          <text dy="0.35em">0.1</text>
        </g>
      </g>
    </g>
    <g stroke="#000000" stroke-opacity="0.000" id="img-5af57a70-11">
      <g transform="translate(136.33,37.42)" id="img-5af57a70-12" fill="#00BFFF" class="color_0.01">
        <path d="M-0.91,-0.91 L 0.91 -0.91 0.91 0.91 -0.91 0.91 z" class="primitive"/>
      </g>
      <g transform="translate(136.33,41.04)" id="img-5af57a70-13" fill="#D4CA3A" class="color_0.025">
        <path d="M-0.91,-0.91 L 0.91 -0.91 0.91 0.91 -0.91 0.91 z" class="primitive"/>
      </g>
      <g transform="translate(136.33,44.67)" id="img-5af57a70-14" fill="#FF6DAE" class="color_0.05">
        <path d="M-0.91,-0.91 L 0.91 -0.91 0.91 0.91 -0.91 0.91 z" class="primitive"/>
      </g>
      <g transform="translate(136.33,48.3)" id="img-5af57a70-15" fill="#00B78D" class="color_0.075">
        <path d="M-0.91,-0.91 L 0.91 -0.91 0.91 0.91 -0.91 0.91 z" class="primitive"/>
      </g>
      <g transform="translate(136.33,51.92)" id="img-5af57a70-16" fill="#BEA9FF" class="color_0.1">
        <path d="M-0.91,-0.91 L 0.91 -0.91 0.91 0.91 -0.91 0.91 z" class="primitive"/>
      </g>
    </g>
    <g fill="#362A35" font-size="3.88" font-family="'PT Sans','Helvetica Neue','Helvetica',sans-serif" stroke="#000000" stroke-opacity="0.000" id="img-5af57a70-17">
      <g transform="translate(135.42,33.6)" id="img-5af57a70-18">
        <g class="primitive">
          <text>i</text>
        </g>
      </g>
    </g>
  </g>
  <g clip-path="url(#img-5af57a70-19)">
    <g id="img-5af57a70-20">
      <g pointer-events="visible" fill="#000000" fill-opacity="0.000" stroke="#000000" stroke-opacity="0.000" class="guide background" id="img-5af57a70-21">
        <g transform="translate(77.36,42.86)" id="img-5af57a70-22">
          <path d="M-57.06,-37.86 L 57.06 -37.86 57.06 37.86 -57.06 37.86 z" class="primitive"/>
        </g>
      </g>
      <g class="guide ygridlines xfixed" stroke-dasharray="0.5,0.5" stroke-width="0.2" stroke="#D0D0E0" id="img-5af57a70-23">
        <g transform="translate(77.36,78.72)" id="img-5af57a70-24">
          <path fill="none" d="M-57.06,0 L 57.06 0" class="primitive"/>
        </g>
        <g transform="translate(77.36,60.79)" id="img-5af57a70-25">
          <path fill="none" d="M-57.06,0 L 57.06 0" class="primitive"/>
        </g>
        <g transform="translate(77.36,42.86)" id="img-5af57a70-26">
          <path fill="none" d="M-57.06,0 L 57.06 0" class="primitive"/>
        </g>
        <g transform="translate(77.36,24.93)" id="img-5af57a70-27">
          <path fill="none" d="M-57.06,0 L 57.06 0" class="primitive"/>
        </g>
        <g transform="translate(77.36,7)" id="img-5af57a70-28">
          <path fill="none" d="M-57.06,0 L 57.06 0" class="primitive"/>
        </g>
      </g>
      <g class="guide xgridlines yfixed" stroke-dasharray="0.5,0.5" stroke-width="0.2" stroke="#D0D0E0" id="img-5af57a70-29">
        <g transform="translate(22.31,42.86)" id="img-5af57a70-30">
          <path fill="none" d="M0,-37.86 L 0 37.86" class="primitive"/>
        </g>
        <g transform="translate(77.36,42.86)" id="img-5af57a70-31">
          <path fill="none" d="M0,-37.86 L 0 37.86" class="primitive"/>
        </g>
        <g transform="translate(132.42,42.86)" id="img-5af57a70-32">
          <path fill="none" d="M0,-37.86 L 0 37.86" class="primitive"/>
        </g>
      </g>
      <g class="plotpanel" id="img-5af57a70-33">
        <metadata>
          <boundingbox value="20.305000000000007mm 5.0mm 114.11500000000001mm 75.715mm"/>
          <unitbox value="-0.018162829768877987 0.2055776336889075 1.036325659537756 -0.21115526737781498"/>
        </metadata>
        <g stroke-width="0.3" fill="#000000" fill-opacity="0.000" class="geometry" id="img-5af57a70-34">
          <g transform="translate(77.36,60.79)" id="img-5af57a70-35" stroke="#00BFFF" stroke-dasharray="none" class="color_0.01">
            <path fill="none" d="M-52.3,17.93 L -46.8 17.89 -41.29 17.68 -35.79 17.18 -30.28 15.23 -24.78 9.74 -19.27 2.44 -13.76 -15.02 -8.26 -36.62 -2.75 -44.55 2.75 -53.25 8.26 -32.77 13.76 -14.41 19.27 1.62 24.78 10.34 30.28 15.89 35.79 17.24 41.29 17.65 46.8 17.87 52.3 17.93" class="primitive"/>
          </g>
          <g transform="translate(77.36,60.79)" id="img-5af57a70-36" stroke="#D4CA3A" stroke-dasharray="none" class="color_0.025">
            <path fill="none" d="M-52.3,17.93 L -46.8 17.83 -41.29 17.73 -35.79 17.29 -30.28 15.79 -24.78 10.58 -19.27 -2.66 -13.76 -15.08 -8.26 -32.15 -2.75 -42.57 2.75 -50.66 8.26 -36.11 13.76 -15.63 19.27 1.03 24.78 10.74 30.28 15.44 35.79 17.03 41.29 17.68 46.8 17.85 52.3 17.93" class="primitive"/>
          </g>
          <g transform="translate(77.36,60.79)" id="img-5af57a70-37" stroke="#FF6DAE" stroke-dasharray="none" class="color_0.05">
            <path fill="none" d="M-52.3,17.93 L -46.8 17.84 -41.29 17.66 -35.79 17.17 -30.28 15.13 -24.78 10.61 -19.27 0.48 -13.76 -18.55 -8.26 -31.42 -2.75 -50.58 2.75 -45.16 8.26 -35.82 13.76 -13.48 19.27 0.39 24.78 12.1 30.28 15.16 35.79 17.08 41.29 17.66 46.8 17.86 52.3 17.93" class="primitive"/>
          </g>
          <g transform="translate(77.36,60.79)" id="img-5af57a70-38" stroke="#00B78D" stroke-dasharray="none" class="color_0.075">
            <path fill="none" d="M-52.3,17.89 L -46.8 17.87 -41.29 17.66 -35.79 16.66 -30.28 14.77 -24.78 8.5 -19.27 1.13 -13.76 -15.29 -8.26 -34.63 -2.75 -45.15 2.75 -47.55 8.26 -31.01 13.76 -14.68 19.27 -0.75 24.78 9.8 30.28 14.51 35.79 16.88 41.29 17.61 46.8 17.86 52.3 17.92" class="primitive"/>
          </g>
          <g transform="translate(77.36,60.79)" id="img-5af57a70-39" stroke="#BEA9FF" stroke-dasharray="none" class="color_0.1">
            <path fill="none" d="M-52.3,17.87 L -46.8 17.79 -41.29 17.33 -35.79 16.2 -30.28 13.53 -24.78 7.64 -19.27 -2.14 -13.76 -15.53 -8.26 -31.44 -2.75 -39.86 2.75 -41.63 8.26 -32.63 13.76 -17.26 19.27 -1.38 24.78 8.29 30.28 13.92 35.79 16.26 41.29 17.41 46.8 17.76 52.3 17.87" class="primitive"/>
          </g>
        </g>
      </g>
    </g>
  </g>
  <g class="guide ylabels" font-size="2.82" font-family="'PT Sans Caption','Helvetica Neue','Helvetica',sans-serif" fill="#6C606B" id="img-5af57a70-40">
    <g transform="translate(19.3,78.72)" id="img-5af57a70-41">
      <g class="primitive">
        <text text-anchor="end" dy="0.35em">0.00</text>
      </g>
    </g>
    <g transform="translate(19.3,60.79)" id="img-5af57a70-42">
      <g class="primitive">
        <text text-anchor="end" dy="0.35em">0.05</text>
      </g>
    </g>
    <g transform="translate(19.3,42.86)" id="img-5af57a70-43">
      <g class="primitive">
        <text text-anchor="end" dy="0.35em">0.10</text>
      </g>
    </g>
    <g transform="translate(19.3,24.93)" id="img-5af57a70-44">
      <g class="primitive">
        <text text-anchor="end" dy="0.35em">0.15</text>
      </g>
    </g>
    <g transform="translate(19.3,7)" id="img-5af57a70-45">
      <g class="primitive">
        <text text-anchor="end" dy="0.35em">0.20</text>
      </g>
    </g>
  </g>
  <g font-size="3.88" font-family="'PT Sans','Helvetica Neue','Helvetica',sans-serif" fill="#564A55" stroke="#000000" stroke-opacity="0.000" id="img-5af57a70-46">
    <g transform="translate(8.81,40.86)" id="img-5af57a70-47">
      <g class="primitive">
        <text text-anchor="middle" dy="0.35em" transform="rotate(-90,0, 2)">Frequencia</text>
      </g>
    </g>
  </g>
</g>
<defs>
  <clipPath id="img-5af57a70-19">
    <path d="M20.31,5 L 134.42 5 134.42 80.72 20.31 80.72" />
  </clipPath>
</defs>
</svg>
