<?xml version="1.0" encoding="UTF-8"?>
<svg xmlns="http://www.w3.org/2000/svg"
     xmlns:xlink="http://www.w3.org/1999/xlink"
     xmlns:gadfly="http://www.gadflyjl.org/ns"
     version="1.2"
     width="150mm" height="100mm" viewBox="0 0 150 100"
     stroke="none"
     fill="#000000"
     stroke-width="0.3"
     font-size="3.88"
>
<defs>
  <marker id="arrow" markerWidth="15" markerHeight="7" refX="5" refY="3.5" orient="auto" markerUnits="strokeWidth">
    <path d="M0,0 L15,3.5 L0,7 z" stroke="context-stroke" fill="context-stroke"/>
  </marker>
</defs>
<g class="plotroot xscalable yscalable" id="img-186605bf-1">
  <g font-size="3.88" font-family="'PT Sans','Helvetica Neue','Helvetica',sans-serif" fill="#564A55" stroke="#000000" stroke-opacity="0.000" id="img-186605bf-2">
    <g transform="translate(79.14,88.39)">
      <g class="primitive">
        <text text-anchor="middle" dy="0.6em">Tempo</text>
      </g>
    </g>
  </g>
  <g class="guide xlabels" font-size="2.82" font-family="'PT Sans Caption','Helvetica Neue','Helvetica',sans-serif" fill="#6C606B" id="img-186605bf-3">
    <g transform="translate(20.63,81.72)">
      <g class="primitive">
        <text text-anchor="middle" dy="0.6em">0</text>
      </g>
    </g>
    <g transform="translate(44.03,81.72)">
      <g class="primitive">
        <text text-anchor="middle" dy="0.6em">100</text>
      </g>
    </g>
    <g transform="translate(67.44,81.72)">
      <g class="primitive">
        <text text-anchor="middle" dy="0.6em">200</text>
      </g>
    </g>
    <g transform="translate(90.84,81.72)">
      <g class="primitive">
        <text text-anchor="middle" dy="0.6em">300</text>
      </g>
    </g>
    <g transform="translate(114.24,81.72)">
      <g class="primitive">
        <text text-anchor="middle" dy="0.6em">400</text>
      </g>
    </g>
    <g transform="translate(137.65,81.72)">
      <g class="primitive">
        <text text-anchor="middle" dy="0.6em">500</text>
      </g>
    </g>
  </g>
  <g class="guide colorkey" id="img-186605bf-4">
    <g fill="#4C404B" font-size="2.82" font-family="'PT Sans','Helvetica Neue','Helvetica',sans-serif" id="img-186605bf-5">
      <g transform="translate(143.46,37.42)" id="img-186605bf-6" class="color_4">
        <g class="primitive">
          <text dy="0.35em">4</text>
        </g>
      </g>
      <g transform="translate(143.46,41.04)" id="img-186605bf-7" class="color_2">
        <g class="primitive">
          <text dy="0.35em">2</text>
        </g>
      </g>
      <g transform="translate(143.46,44.67)" id="img-186605bf-8" class="color_3">
        <g class="primitive">
          <text dy="0.35em">3</text>
        </g>
      </g>
      <g transform="translate(143.46,48.3)" id="img-186605bf-9" class="color_1">
        <g class="primitive">
          <text dy="0.35em">1</text>
        </g>
      </g>
      <g transform="translate(143.46,51.92)" id="img-186605bf-10" class="color_0">
        <g class="primitive">
          <text dy="0.35em">0</text>
        </g>
      </g>
    </g>
    <g stroke="#000000" stroke-opacity="0.000" id="img-186605bf-11">
      <g transform="translate(141.55,37.42)" id="img-186605bf-12" fill="#00BFFF" class="color_4">
        <path d="M-0.91,-0.91 L 0.91 -0.91 0.91 0.91 -0.91 0.91 z" class="primitive"/>
      </g>
      <g transform="translate(141.55,41.04)" id="img-186605bf-13" fill="#D4CA3A" class="color_2">
        <path d="M-0.91,-0.91 L 0.91 -0.91 0.91 0.91 -0.91 0.91 z" class="primitive"/>
      </g>
      <g transform="translate(141.55,44.67)" id="img-186605bf-14" fill="#FF6DAE" class="color_3">
        <path d="M-0.91,-0.91 L 0.91 -0.91 0.91 0.91 -0.91 0.91 z" class="primitive"/>
      </g>
      <g transform="translate(141.55,48.3)" id="img-186605bf-15" fill="#00B78D" class="color_1">
        <path d="M-0.91,-0.91 L 0.91 -0.91 0.91 0.91 -0.91 0.91 z" class="primitive"/>
      </g>
      <g transform="translate(141.55,51.92)" id="img-186605bf-16" fill="#BEA9FF" class="color_0">
        <path d="M-0.91,-0.91 L 0.91 -0.91 0.91 0.91 -0.91 0.91 z" class="primitive"/>
      </g>
    </g>
    <g fill="#362A35" font-size="3.88" font-family="'PT Sans','Helvetica Neue','Helvetica',sans-serif" stroke="#000000" stroke-opacity="0.000" id="img-186605bf-17">
      <g transform="translate(140.65,33.6)" id="img-186605bf-18">
        <g class="primitive">
          <text>DU</text>
        </g>
      </g>
    </g>
  </g>
  <g clip-path="url(#img-186605bf-19)">
    <g id="img-186605bf-20">
      <g pointer-events="visible" fill="#000000" fill-opacity="0.000" stroke="#000000" stroke-opacity="0.000" class="guide background" id="img-186605bf-21">
        <g transform="translate(79.14,42.86)" id="img-186605bf-22">
          <path d="M-60.51,-37.86 L 60.51 -37.86 60.51 37.86 -60.51 37.86 z" class="primitive"/>
        </g>
      </g>
      <g class="guide ygridlines xfixed" stroke-dasharray="0.5,0.5" stroke-width="0.2" stroke="#D0D0E0" id="img-186605bf-23">
        <g transform="translate(79.14,78.71)" id="img-186605bf-24">
          <path fill="none" d="M-60.51,0 L 60.51 0" class="primitive"/>
        </g>
        <g transform="translate(79.14,54.81)" id="img-186605bf-25">
          <path fill="none" d="M-60.51,0 L 60.51 0" class="primitive"/>
        </g>
        <g transform="translate(79.14,30.9)" id="img-186605bf-26">
          <path fill="none" d="M-60.51,0 L 60.51 0" class="primitive"/>
        </g>
        <g transform="translate(79.14,7)" id="img-186605bf-27">
          <path fill="none" d="M-60.51,0 L 60.51 0" class="primitive"/>
        </g>
      </g>
      <g class="guide xgridlines yfixed" stroke-dasharray="0.5,0.5" stroke-width="0.2" stroke="#D0D0E0" id="img-186605bf-28">
        <g transform="translate(20.63,42.86)" id="img-186605bf-29">
          <path fill="none" d="M0,-37.86 L 0 37.86" class="primitive"/>
        </g>
        <g transform="translate(44.03,42.86)" id="img-186605bf-30">
          <path fill="none" d="M0,-37.86 L 0 37.86" class="primitive"/>
        </g>
        <g transform="translate(67.44,42.86)" id="img-186605bf-31">
          <path fill="none" d="M0,-37.86 L 0 37.86" class="primitive"/>
        </g>
        <g transform="translate(90.84,42.86)" id="img-186605bf-32">
          <path fill="none" d="M0,-37.86 L 0 37.86" class="primitive"/>
        </g>
        <g transform="translate(114.24,42.86)" id="img-186605bf-33">
          <path fill="none" d="M0,-37.86 L 0 37.86" class="primitive"/>
        </g>
        <g transform="translate(137.65,42.86)" id="img-186605bf-34">
          <path fill="none" d="M0,-37.86 L 0 37.86" class="primitive"/>
        </g>
      </g>
      <g class="plotpanel" id="img-186605bf-35">
        <metadata>
          <boundingbox value="18.63166666666666mm 5.0mm 121.01500000000001mm 75.715mm"/>
          <unitbox value="-8.545912917147373 0.30836645053336126 517.0918258342947 -0.3167329010667225"/>
        </metadata>
        <g stroke-width="0.3" fill="#000000" fill-opacity="0.000" class="geometry" id="img-186605bf-36">
          <g transform="translate(79.02,73.9)" id="img-186605bf-37" stroke-dasharray="none" stroke="#00BFFF" class="color_4">
            <path fill="none" d="M-58.39,-60.39 L -58.16 -60.39 -57.92 -58.4 -57.69 -57.35 -57.45 -56.91 -57.22 -56.91 -56.99 -51.43 -56.75 -51.04 -56.52 -50.03 -56.28 -48.04 -56.05 -48.04 -55.82 -43.08 -55.58 -43.08 -55.35 -42.89 -55.11 -41.84 -54.88 -41.84 -54.65 -39.16 -54.41 -39.16 -54.18 -37.46 -53.94 -35.02 -53.71 -35.02 -53.48 -35.02 -53.24 -34.37 -53.01 -32.77 -52.77 -31.8 -52.54 -30.16 -52.31 -29.09 -52.07 -28.09 -51.84 -28.09 -51.6 -22.16 -51.37 -22.16 -51.14 -22.16 -50.9 -21.31 -50.67 -19.01 -50.43 -16.99 -50.2 -16.98 -49.97 -16.46 -49.73 -16.02 -49.5 -9.77 -49.26 -8.48 -49.03 -8.48 -48.8 -8.48 -48.56 -8.18 -48.33 -8.18 -48.09 -7.51 -47.86 -7.51 -47.63 -7.51 -47.39 -7.51 -47.16 -7.51 -46.92 -7.51 -46.69 -7.51 -46.45 -7.51 -46.22 -7.51 -45.99 -7.51 -45.75 -7.51 -45.52 -7.51 -45.28 -7.51 -45.05 -7.51 -44.82 -7.51 -44.58 -7.51 -44.35 -7.51 -44.11 -7.51 -43.88 -7.51 -43.65 -7.51 -43.41 -7.51 -43.18 -6.28 -42.94 -6.28 -42.71 3.79 -42.48 3.79 -42.24 3.79 -42.01 3.79 -41.77 3.79 -41.54 3.79 -41.31 3.79 -41.07 3.79 -40.84 3.79 -40.6 3.79 -40.37 3.79 -40.14 3.79 -39.9 3.79 -39.67 3.79 -39.43 3.79 -39.2 3.79 -38.97 3.79 -38.73 3.79 -38.5 3.79 -38.26 3.79 -38.03 3.79 -37.8 3.79 -37.56 3.79 -37.33 3.79 -37.09 3.79 -36.86 3.79 -36.63 3.79 -36.39 3.79 -36.16 3.79 -35.92 3.79 -35.69 3.79 -35.46 3.79 -35.22 3.79 -34.99 3.79 -34.75 3.79 -34.52 3.79 -34.29 3.79 -34.05 3.79 -33.82 3.79 -33.58 3.79 -33.35 3.79 -33.12 3.79 -32.88 3.79 -32.65 3.79 -32.41 3.79 -32.18 3.79 -31.95 3.79 -31.71 3.79 -31.48 3.79 -31.24 3.79 -31.01 3.79 -30.77 3.79 -30.54 3.79 -30.31 3.79 -30.07 3.79 -29.84 3.79 -29.6 3.79 -29.37 3.79 -29.14 3.79 -28.9 3.79 -28.67 3.79 -28.43 3.79 -28.2 3.79 -27.97 3.79 -27.73 3.79 -27.5 3.79 -27.26 3.79 -27.03 3.79 -26.8 3.79 -26.56 3.79 -26.33 3.79 -26.09 3.79 -25.86 3.79 -25.63 3.79 -25.39 3.79 -25.16 3.79 -24.92 3.79 -24.69 3.79 -24.46 3.79 -24.22 3.79 -23.99 3.79 -23.75 3.79 -23.52 3.79 -23.29 3.79 -23.05 3.79 -22.82 3.79 -22.58 3.79 -22.35 3.79 -22.12 3.79 -21.88 3.79 -21.65 3.79 -21.41 3.79 -21.18 3.79 -20.95 3.79 -20.71 3.79 -20.48 3.79 -20.24 3.79 -20.01 3.79 -19.78 3.79 -19.54 3.79 -19.31 3.79 -19.07 3.79 -18.84 3.79 -18.61 3.79 -18.37 3.79 -18.14 3.79 -17.9 3.79 -17.67 3.79 -17.44 3.79 -17.2 3.79 -16.97 3.79 -16.73 3.79 -16.5 3.79 -16.27 3.79 -16.03 3.79 -15.8 3.79 -15.56 3.79 -15.33 3.79 -15.09 3.79 -14.86 3.79 -14.63 3.79 -14.39 3.79 -14.16 3.79 -13.92 3.79 -13.69 3.79 -13.46 3.79 -13.22 3.79 -12.99 3.79 -12.75 3.79 -12.52 3.79 -12.29 3.79 -12.05 3.79 -11.82 3.79 -11.58 3.79 -11.35 3.79 -11.12 3.79 -10.88 3.79 -10.65 3.79 -10.41 3.79 -10.18 3.79 -9.95 3.79 -9.71 3.79 -9.48 3.79 -9.24 3.79 -9.01 3.79 -8.78 3.79 -8.54 3.79 -8.31 3.79 -8.07 3.79 -7.84 3.79 -7.61 3.79 -7.37 3.79 -7.14 3.79 -6.9 3.79 -6.67 3.79 -6.44 3.79 -6.2 3.79 -5.97 3.79 -5.73 3.79 -5.5 3.79 -5.27 3.79 -5.03 3.79 -4.8 3.79 -4.56 3.79 -4.33 3.79 -4.1 3.79 -3.86 3.79 -3.63 3.79 -3.39 3.79 -3.16 3.79 -2.93 3.79 -2.69 3.79 -2.46 3.79 -2.22 3.79 -1.99 3.79 -1.76 3.79 -1.52 3.79 -1.29 3.79 -1.05 3.79 -0.82 3.79 -0.59 3.79 -0.35 3.79 -0.12 3.79 0.12 3.79 0.35 3.79 0.59 3.79 0.82 3.79 1.05 3.79 1.29 3.79 1.52 3.79 1.76 3.79 1.99 3.79 2.22 3.79 2.46 3.79 2.69 3.79 2.93 3.79 3.16 3.79 3.39 3.79 3.63 3.79 3.86 3.79 4.1 3.79 4.33 3.79 4.56 3.79 4.8 3.79 5.03 3.79 5.27 3.79 5.5 3.79 5.73 3.79 5.97 3.79 6.2 3.79 6.44 3.79 6.67 3.79 6.9 3.79 7.14 3.79 7.37 3.79 7.61 3.79 7.84 3.79 8.07 3.79 8.31 3.79 8.54 3.79 8.78 3.79 9.01 3.79 9.24 3.79 9.48 3.79 9.71 3.79 9.95 3.79 10.18 3.79 10.41 3.79 10.65 3.79 10.88 3.79 11.12 3.79 11.35 3.79 11.58 3.79 11.82 3.79 12.05 3.79 12.29 3.79 12.52 3.79 12.75 3.79 12.99 3.79 13.22 3.79 13.46 3.79 13.69 3.79 13.92 3.79 14.16 3.79 14.39 3.79 14.63 3.79 14.86 3.79 15.09 3.79 15.33 3.79 15.56 3.79 15.8 3.79 16.03 3.79 16.27 3.79 16.5 3.79 16.73 3.79 16.97 3.79 17.2 3.79 17.44 3.79 17.67 3.79 17.9 3.79 18.14 3.79 18.37 3.79 18.61 3.79 18.84 3.79 19.07 3.79 19.31 3.79 19.54 3.79 19.78 3.79 20.01 3.79 20.24 3.79 20.48 3.79 20.71 3.79 20.95 3.79 21.18 3.79 21.41 3.79 21.65 3.79 21.88 3.79 22.12 3.79 22.35 3.79 22.58 3.79 22.82 3.79 23.05 3.79 23.29 3.79 23.52 3.79 23.75 3.79 23.99 3.79 24.22 3.79 24.46 3.79 24.69 3.79 24.92 3.79 25.16 3.79 25.39 3.79 25.63 3.79 25.86 3.79 26.09 3.79 26.33 3.79 26.56 3.79 26.8 3.79 27.03 3.79 27.26 3.79 27.5 3.79 27.73 3.79 27.97 3.79 28.2 3.79 28.43 3.79 28.67 3.79 28.9 3.79 29.14 3.79 29.37 3.79 29.6 3.79 29.84 3.79 30.07 3.79 30.31 3.79 30.54 3.79 30.77 3.79 31.01 3.79 31.24 3.79 31.48 3.79 31.71 3.79 31.95 3.79 32.18 3.79 32.41 3.79 32.65 3.79 32.88 3.79 33.12 3.79 33.35 3.79 33.58 3.79 33.82 3.79 34.05 3.79 34.29 3.79 34.52 3.79 34.75 3.79 34.99 3.79 35.22 3.79 35.46 3.79 35.69 3.79 35.92 3.79 36.16 3.79 36.39 3.79 36.63 3.79 36.86 3.79 37.09 3.79 37.33 3.79 37.56 3.79 37.8 3.79 38.03 3.79 38.26 3.79 38.5 3.79 38.73 3.79 38.97 3.79 39.2 3.79 39.43 3.79 39.67 3.79 39.9 3.79 40.14 3.79 40.37 3.79 40.6 3.79 40.84 3.79 41.07 3.79 41.31 3.79 41.54 3.79 41.77 3.79 42.01 3.79 42.24 3.79 42.48 3.79 42.71 3.79 42.94 3.79 43.18 3.79 43.41 3.79 43.65 3.79 43.88 3.79 44.11 3.79 44.35 3.79 44.58 3.79 44.82 3.79 45.05 3.79 45.28 3.79 45.52 3.79 45.75 3.79 45.99 3.79 46.22 3.79 46.45 3.79 46.69 3.79 46.92 3.79 47.16 3.79 47.39 3.79 47.63 3.79 47.86 3.79 48.09 3.79 48.33 3.79 48.56 3.79 48.8 3.79 49.03 3.79 49.26 3.79 49.5 3.79 49.73 3.79 49.97 3.79 50.2 3.79 50.43 3.79 50.67 3.79 50.9 3.79 51.14 3.79 51.37 3.79 51.6 3.79 51.84 3.79 52.07 3.79 52.31 3.79 52.54 3.79 52.77 3.79 53.01 3.79 53.24 3.79 53.48 3.79 53.71 3.79 53.94 3.79 54.18 3.79 54.41 3.79 54.65 3.79 54.88 3.79 55.11 3.79 55.35 3.79 55.58 3.79 55.82 3.79 56.05 3.79 56.28 3.79 56.52 3.79 56.75 3.79 56.99 3.79 57.22 3.79 57.45 3.79 57.69 3.79 57.92 3.79 58.16 3.79 58.39 3.79" class="primitive"/>
          </g>
          <g transform="translate(79.02,72.12)" id="img-186605bf-38" stroke-dasharray="none" stroke="#D4CA3A" class="color_2">
            <path fill="none" d="M-58.39,-62.22 L -58.16 -61.87 -57.92 -61.87 -57.69 -60.18 -57.45 -59.88 -57.22 -59.88 -56.99 -52.91 -56.75 -49.2 -56.52 -47.99 -56.28 -46.98 -56.05 -44.99 -55.82 -43.92 -55.58 -40.03 -55.35 -39.83 -55.11 -39.83 -54.88 -38.79 -54.65 -35.84 -54.41 -35.84 -54.18 -33.28 -53.94 -33.28 -53.71 -33.28 -53.48 -31.97 -53.24 -31.97 -53.01 -31.32 -52.77 -31.32 -52.54 -29.71 -52.31 -29.71 -52.07 -29.57 -51.84 -29.57 -51.6 -27.11 -51.37 -26.04 -51.14 -25.28 -50.9 -23.64 -50.67 -18.47 -50.43 -18.26 -50.2 -17.94 -49.97 -17.94 -49.73 -17.5 -49.5 -14.44 -49.26 -13.92 -49.03 -13.42 -48.8 -9.29 -48.56 -9.29 -48.33 -9.29 -48.09 -7.76 -47.86 -7.76 -47.63 -6.96 -47.39 3.34 -47.16 3.34 -46.92 3.34 -46.69 3.34 -46.45 3.34 -46.22 3.34 -45.99 3.34 -45.75 3.34 -45.52 3.34 -45.28 3.34 -45.05 3.34 -44.82 3.34 -44.58 3.34 -44.35 3.34 -44.11 3.34 -43.88 3.34 -43.65 3.34 -43.41 3.34 -43.18 3.34 -42.94 3.34 -42.71 3.34 -42.48 3.34 -42.24 3.34 -42.01 3.34 -41.77 3.34 -41.54 3.34 -41.31 3.34 -41.07 3.34 -40.84 3.34 -40.6 3.34 -40.37 3.34 -40.14 3.34 -39.9 3.34 -39.67 3.34 -39.43 3.34 -39.2 3.34 -38.97 3.34 -38.73 3.34 -38.5 3.34 -38.26 3.34 -38.03 3.34 -37.8 3.34 -37.56 3.34 -37.33 3.34 -37.09 3.34 -36.86 3.34 -36.63 3.34 -36.39 3.34 -36.16 3.34 -35.92 3.34 -35.69 3.34 -35.46 3.34 -35.22 3.34 -34.99 3.34 -34.75 3.34 -34.52 3.34 -34.29 3.34 -34.05 3.34 -33.82 3.34 -33.58 3.34 -33.35 3.34 -33.12 3.34 -32.88 3.34 -32.65 3.34 -32.41 3.34 -32.18 3.34 -31.95 3.34 -31.71 3.34 -31.48 3.34 -31.24 3.34 -31.01 3.34 -30.77 3.34 -30.54 3.34 -30.31 3.34 -30.07 3.34 -29.84 3.34 -29.6 3.34 -29.37 3.34 -29.14 3.34 -28.9 3.34 -28.67 3.34 -28.43 3.34 -28.2 3.34 -27.97 3.34 -27.73 3.34 -27.5 3.34 -27.26 3.34 -27.03 3.34 -26.8 3.34 -26.56 3.34 -26.33 3.34 -26.09 3.34 -25.86 3.34 -25.63 3.34 -25.39 3.34 -25.16 3.34 -24.92 3.34 -24.69 3.34 -24.46 3.34 -24.22 3.34 -23.99 3.34 -23.75 3.34 -23.52 3.34 -23.29 3.34 -23.05 3.34 -22.82 3.34 -22.58 3.34 -22.35 3.34 -22.12 3.34 -21.88 3.34 -21.65 3.34 -21.41 3.34 -21.18 3.34 -20.95 3.34 -20.71 3.34 -20.48 3.34 -20.24 3.34 -20.01 3.34 -19.78 3.34 -19.54 3.34 -19.31 3.34 -19.07 3.34 -18.84 3.34 -18.61 3.34 -18.37 3.34 -18.14 3.34 -17.9 3.34 -17.67 3.34 -17.44 3.34 -17.2 3.34 -16.97 3.34 -16.73 3.34 -16.5 3.34 -16.27 3.34 -16.03 3.34 -15.8 3.34 -15.56 3.34 -15.33 3.34 -15.09 3.34 -14.86 3.34 -14.63 3.34 -14.39 3.34 -14.16 3.34 -13.92 3.34 -13.69 3.34 -13.46 3.34 -13.22 3.34 -12.99 3.34 -12.75 3.34 -12.52 3.34 -12.29 3.34 -12.05 3.34 -11.82 3.34 -11.58 3.34 -11.35 3.34 -11.12 3.34 -10.88 3.34 -10.65 3.34 -10.41 3.34 -10.18 3.34 -9.95 3.34 -9.71 3.34 -9.48 3.34 -9.24 3.34 -9.01 3.34 -8.78 3.34 -8.54 3.34 -8.31 3.34 -8.07 3.34 -7.84 3.34 -7.61 3.34 -7.37 3.34 -7.14 3.34 -6.9 3.34 -6.67 3.34 -6.44 3.34 -6.2 3.34 -5.97 3.34 -5.73 3.34 -5.5 3.34 -5.27 3.34 -5.03 3.34 -4.8 3.34 -4.56 3.34 -4.33 3.34 -4.1 3.34 -3.86 3.34 -3.63 3.34 -3.39 3.34 -3.16 3.34 -2.93 3.34 -2.69 3.34 -2.46 3.34 -2.22 3.34 -1.99 3.34 -1.76 3.34 -1.52 3.34 -1.29 3.34 -1.05 3.34 -0.82 3.34 -0.59 3.34 -0.35 3.34 -0.12 3.34 0.12 3.34 0.35 3.34 0.59 3.34 0.82 3.34 1.05 3.34 1.29 3.34 1.52 3.34 1.76 3.34 1.99 3.34 2.22 3.34 2.46 3.34 2.69 3.34 2.93 3.34 3.16 3.34 3.39 3.34 3.63 3.34 3.86 3.34 4.1 3.34 4.33 3.34 4.56 3.34 4.8 3.34 5.03 3.34 5.27 3.34 5.5 3.34 5.73 3.34 5.97 3.34 6.2 3.34 6.44 3.34 6.67 3.34 6.9 3.34 7.14 3.34 7.37 3.34 7.61 3.34 7.84 3.34 8.07 3.34 8.31 3.34 8.54 3.34 8.78 3.34 9.01 3.34 9.24 3.34 9.48 3.34 9.71 3.34 9.95 3.34 10.18 3.34 10.41 3.34 10.65 3.34 10.88 3.34 11.12 3.34 11.35 3.34 11.58 3.34 11.82 3.34 12.05 3.34 12.29 3.34 12.52 3.34 12.75 3.34 12.99 3.34 13.22 3.34 13.46 3.34 13.69 3.34 13.92 3.34 14.16 3.34 14.39 3.34 14.63 3.34 14.86 3.34 15.09 3.34 15.33 3.34 15.56 3.34 15.8 3.34 16.03 3.34 16.27 3.34 16.5 3.34 16.73 3.34 16.97 3.34 17.2 3.34 17.44 3.34 17.67 3.34 17.9 3.34 18.14 3.34 18.37 3.34 18.61 3.34 18.84 3.34 19.07 3.34 19.31 3.34 19.54 3.34 19.78 3.34 20.01 3.34 20.24 3.34 20.48 3.34 20.71 3.34 20.95 3.34 21.18 3.34 21.41 3.34 21.65 3.34 21.88 3.34 22.12 3.34 22.35 3.34 22.58 3.34 22.82 3.34 23.05 3.34 23.29 3.34 23.52 3.34 23.75 3.34 23.99 3.34 24.22 3.34 24.46 3.34 24.69 3.34 24.92 3.34 25.16 3.34 25.39 3.34 25.63 3.34 25.86 3.34 26.09 3.34 26.33 3.34 26.56 3.34 26.8 3.34 27.03 3.34 27.26 3.34 27.5 3.34 27.73 3.34 27.97 3.34 28.2 3.34 28.43 3.34 28.67 3.34 28.9 3.34 29.14 3.34 29.37 3.34 29.6 3.34 29.84 3.34 30.07 3.34 30.31 3.34 30.54 3.34 30.77 3.34 31.01 3.34 31.24 3.34 31.48 3.34 31.71 3.34 31.95 3.34 32.18 3.34 32.41 3.34 32.65 3.34 32.88 3.34 33.12 3.34 33.35 3.34 33.58 3.34 33.82 3.34 34.05 3.34 34.29 3.34 34.52 3.34 34.75 3.34 34.99 3.34 35.22 3.34 35.46 3.34 35.69 3.34 35.92 3.34 36.16 3.34 36.39 3.34 36.63 3.34 36.86 3.34 37.09 3.34 37.33 3.34 37.56 3.34 37.8 3.34 38.03 3.34 38.26 3.34 38.5 3.34 38.73 3.34 38.97 3.34 39.2 3.34 39.43 3.34 39.67 3.34 39.9 3.34 40.14 3.34 40.37 3.34 40.6 3.34 40.84 3.34 41.07 3.34 41.31 3.34 41.54 3.34 41.77 3.34 42.01 3.34 42.24 3.34 42.48 3.34 42.71 3.34 42.94 3.34 43.18 3.34 43.41 3.34 43.65 3.34 43.88 3.34 44.11 3.34 44.35 3.34 44.58 3.34 44.82 3.34 45.05 3.34 45.28 3.34 45.52 3.34 45.75 3.34 45.99 3.34 46.22 3.34 46.45 3.34 46.69 3.34 46.92 3.34 47.16 3.34 47.39 3.34 47.63 3.34 47.86 3.34 48.09 3.34 48.33 3.34 48.56 3.34 48.8 3.34 49.03 3.34 49.26 3.34 49.5 3.34 49.73 3.34 49.97 3.34 50.2 3.34 50.43 3.34 50.67 3.34 50.9 3.34 51.14 3.34 51.37 3.34 51.6 3.34 51.84 3.34 52.07 3.34 52.31 3.34 52.54 3.34 52.77 3.34 53.01 3.34 53.24 3.34 53.48 3.34 53.71 3.34 53.94 3.34 54.18 3.34 54.41 3.34 54.65 3.34 54.88 3.34 55.11 3.34 55.35 3.34 55.58 3.34 55.82 3.34 56.05 3.34 56.28 3.34 56.52 3.34 56.75 3.34 56.99 3.34 57.22 3.34 57.45 3.34 57.69 3.34 57.92 3.34 58.16 3.34 58.39 3.34" class="primitive"/>
          </g>
          <g transform="translate(79.02,75.11)" id="img-186605bf-39" stroke-dasharray="none" stroke="#FF6DAE" class="color_3">
            <path fill="none" d="M-58.39,-57.14 L -58.16 -54.79 -57.92 -54.79 -57.69 -53.35 -57.45 -52.34 -57.22 -52.34 -56.99 -52.34 -56.75 -50.35 -56.52 -50.35 -56.28 -50.35 -56.05 -50.35 -55.82 -50.35 -55.58 -49.28 -55.35 -49.28 -55.11 -45.39 -54.88 -45.39 -54.65 -45.39 -54.41 -44.11 -54.18 -39.12 -53.94 -38.26 -53.71 -37.33 -53.48 -36.68 -53.24 -36.68 -53.01 -33.98 -52.77 -32.47 -52.54 -31.4 -52.31 -30.75 -52.07 -30.75 -51.84 -28.2 -51.6 -27.46 -51.37 -23.62 -51.14 -19.8 -50.9 -19.8 -50.67 -19.28 -50.43 -19.28 -50.2 -18.56 -49.97 -18.56 -49.73 -18.56 -49.5 -15.4 -49.26 -13.39 -49.03 -13.39 -48.8 -12.86 -48.56 -12.41 -48.33 -4.75 -48.09 -4.75 -47.86 -4.75 -47.63 -4.75 -47.39 -4.75 -47.16 -4.27 -46.92 -2.68 -46.69 -1.87 -46.45 -1.87 -46.22 1.49 -45.99 1.49 -45.75 1.49 -45.52 1.49 -45.28 1.49 -45.05 1.49 -44.82 1.49 -44.58 1.49 -44.35 1.49 -44.11 1.49 -43.88 1.49 -43.65 1.49 -43.41 1.49 -43.18 1.49 -42.94 1.49 -42.71 1.49 -42.48 1.49 -42.24 1.49 -42.01 1.49 -41.77 1.49 -41.54 1.49 -41.31 1.49 -41.07 3.61 -40.84 3.61 -40.6 3.61 -40.37 3.61 -40.14 3.61 -39.9 3.61 -39.67 3.61 -39.43 3.61 -39.2 3.61 -38.97 3.61 -38.73 3.61 -38.5 3.61 -38.26 3.61 -38.03 3.61 -37.8 3.61 -37.56 3.61 -37.33 3.61 -37.09 3.61 -36.86 3.61 -36.63 3.61 -36.39 3.61 -36.16 3.61 -35.92 3.61 -35.69 3.61 -35.46 3.61 -35.22 3.61 -34.99 3.61 -34.75 3.61 -34.52 3.61 -34.29 3.61 -34.05 3.61 -33.82 3.61 -33.58 3.61 -33.35 3.61 -33.12 3.61 -32.88 3.61 -32.65 3.61 -32.41 3.61 -32.18 3.61 -31.95 3.61 -31.71 3.61 -31.48 3.61 -31.24 3.61 -31.01 3.61 -30.77 3.61 -30.54 3.61 -30.31 3.61 -30.07 3.61 -29.84 3.61 -29.6 3.61 -29.37 3.61 -29.14 3.61 -28.9 3.61 -28.67 3.61 -28.43 3.61 -28.2 3.61 -27.97 3.61 -27.73 3.61 -27.5 3.61 -27.26 3.61 -27.03 3.61 -26.8 3.61 -26.56 3.61 -26.33 3.61 -26.09 3.61 -25.86 3.61 -25.63 3.61 -25.39 3.61 -25.16 3.61 -24.92 3.61 -24.69 3.61 -24.46 3.61 -24.22 3.61 -23.99 3.61 -23.75 3.61 -23.52 3.61 -23.29 3.61 -23.05 3.61 -22.82 3.61 -22.58 3.61 -22.35 3.61 -22.12 3.61 -21.88 3.61 -21.65 3.61 -21.41 3.61 -21.18 3.61 -20.95 3.61 -20.71 3.61 -20.48 3.61 -20.24 3.61 -20.01 3.61 -19.78 3.61 -19.54 3.61 -19.31 3.61 -19.07 3.61 -18.84 3.61 -18.61 3.61 -18.37 3.61 -18.14 3.61 -17.9 3.61 -17.67 3.61 -17.44 3.61 -17.2 3.61 -16.97 3.61 -16.73 3.61 -16.5 3.61 -16.27 3.61 -16.03 3.61 -15.8 3.61 -15.56 3.61 -15.33 3.61 -15.09 3.61 -14.86 3.61 -14.63 3.61 -14.39 3.61 -14.16 3.61 -13.92 3.61 -13.69 3.61 -13.46 3.61 -13.22 3.61 -12.99 3.61 -12.75 3.61 -12.52 3.61 -12.29 3.61 -12.05 3.61 -11.82 3.61 -11.58 3.61 -11.35 3.61 -11.12 3.61 -10.88 3.61 -10.65 3.61 -10.41 3.61 -10.18 3.61 -9.95 3.61 -9.71 3.61 -9.48 3.61 -9.24 3.61 -9.01 3.61 -8.78 3.61 -8.54 3.61 -8.31 3.61 -8.07 3.61 -7.84 3.61 -7.61 3.61 -7.37 3.61 -7.14 3.61 -6.9 3.61 -6.67 3.61 -6.44 3.61 -6.2 3.61 -5.97 3.61 -5.73 3.61 -5.5 3.61 -5.27 3.61 -5.03 3.61 -4.8 3.61 -4.56 3.61 -4.33 3.61 -4.1 3.61 -3.86 3.61 -3.63 3.61 -3.39 3.61 -3.16 3.61 -2.93 3.61 -2.69 3.61 -2.46 3.61 -2.22 3.61 -1.99 3.61 -1.76 3.61 -1.52 3.61 -1.29 3.61 -1.05 3.61 -0.82 3.61 -0.59 3.61 -0.35 3.61 -0.12 3.61 0.12 3.61 0.35 3.61 0.59 3.61 0.82 3.61 1.05 3.61 1.29 3.61 1.52 3.61 1.76 3.61 1.99 3.61 2.22 3.61 2.46 3.61 2.69 3.61 2.93 3.61 3.16 3.61 3.39 3.61 3.63 3.61 3.86 3.61 4.1 3.61 4.33 3.61 4.56 3.61 4.8 3.61 5.03 3.61 5.27 3.61 5.5 3.61 5.73 3.61 5.97 3.61 6.2 3.61 6.44 3.61 6.67 3.61 6.9 3.61 7.14 3.61 7.37 3.61 7.61 3.61 7.84 3.61 8.07 3.61 8.31 3.61 8.54 3.61 8.78 3.61 9.01 3.61 9.24 3.61 9.48 3.61 9.71 3.61 9.95 3.61 10.18 3.61 10.41 3.61 10.65 3.61 10.88 3.61 11.12 3.61 11.35 3.61 11.58 3.61 11.82 3.61 12.05 3.61 12.29 3.61 12.52 3.61 12.75 3.61 12.99 3.61 13.22 3.61 13.46 3.61 13.69 3.61 13.92 3.61 14.16 3.61 14.39 3.61 14.63 3.61 14.86 3.61 15.09 3.61 15.33 3.61 15.56 3.61 15.8 3.61 16.03 3.61 16.27 3.61 16.5 3.61 16.73 3.61 16.97 3.61 17.2 3.61 17.44 3.61 17.67 3.61 17.9 3.61 18.14 3.61 18.37 3.61 18.61 3.61 18.84 3.61 19.07 3.61 19.31 3.61 19.54 3.61 19.78 3.61 20.01 3.61 20.24 3.61 20.48 3.61 20.71 3.61 20.95 3.61 21.18 3.61 21.41 3.61 21.65 3.61 21.88 3.61 22.12 3.61 22.35 3.61 22.58 3.61 22.82 3.61 23.05 3.61 23.29 3.61 23.52 3.61 23.75 3.61 23.99 3.61 24.22 3.61 24.46 3.61 24.69 3.61 24.92 3.61 25.16 3.61 25.39 3.61 25.63 3.61 25.86 3.61 26.09 3.61 26.33 3.61 26.56 3.61 26.8 3.61 27.03 3.61 27.26 3.61 27.5 3.61 27.73 3.61 27.97 3.61 28.2 3.61 28.43 3.61 28.67 3.61 28.9 3.61 29.14 3.61 29.37 3.61 29.6 3.61 29.84 3.61 30.07 3.61 30.31 3.61 30.54 3.61 30.77 3.61 31.01 3.61 31.24 3.61 31.48 3.61 31.71 3.61 31.95 3.61 32.18 3.61 32.41 3.61 32.65 3.61 32.88 3.61 33.12 3.61 33.35 3.61 33.58 3.61 33.82 3.61 34.05 3.61 34.29 3.61 34.52 3.61 34.75 3.61 34.99 3.61 35.22 3.61 35.46 3.61 35.69 3.61 35.92 3.61 36.16 3.61 36.39 3.61 36.63 3.61 36.86 3.61 37.09 3.61 37.33 3.61 37.56 3.61 37.8 3.61 38.03 3.61 38.26 3.61 38.5 3.61 38.73 3.61 38.97 3.61 39.2 3.61 39.43 3.61 39.67 3.61 39.9 3.61 40.14 3.61 40.37 3.61 40.6 3.61 40.84 3.61 41.07 3.61 41.31 3.61 41.54 3.61 41.77 3.61 42.01 3.61 42.24 3.61 42.48 3.61 42.71 3.61 42.94 3.61 43.18 3.61 43.41 3.61 43.65 3.61 43.88 3.61 44.11 3.61 44.35 3.61 44.58 3.61 44.82 3.61 45.05 3.61 45.28 3.61 45.52 3.61 45.75 3.61 45.99 3.61 46.22 3.61 46.45 3.61 46.69 3.61 46.92 3.61 47.16 3.61 47.39 3.61 47.63 3.61 47.86 3.61 48.09 3.61 48.33 3.61 48.56 3.61 48.8 3.61 49.03 3.61 49.26 3.61 49.5 3.61 49.73 3.61 49.97 3.61 50.2 3.61 50.43 3.61 50.67 3.61 50.9 3.61 51.14 3.61 51.37 3.61 51.6 3.61 51.84 3.61 52.07 3.61 52.31 3.61 52.54 3.61 52.77 3.61 53.01 3.61 53.24 3.61 53.48 3.61 53.71 3.61 53.94 3.61 54.18 3.61 54.41 3.61 54.65 3.61 54.88 3.61 55.11 3.61 55.35 3.61 55.58 3.61 55.82 3.61 56.05 3.61 56.28 3.61 56.52 3.61 56.75 3.61 56.99 3.61 57.22 3.61 57.45 3.61 57.69 3.61 57.92 3.61 58.16 3.61 58.39 3.61" class="primitive"/>
          </g>
          <g transform="translate(79.02,71.74)" id="img-186605bf-40" stroke-dasharray="none" stroke="#00B78D" class="color_1">
            <path fill="none" d="M-58.39,-60.63 L -58.16 -58.59 -57.92 -58.59 -57.69 -58.28 -57.45 -57.24 -57.22 -57.24 -56.99 -57.24 -56.75 -56.79 -56.52 -56.05 -56.28 -51.37 -56.05 -52.57 -55.82 -52.57 -55.58 -52.52 -55.35 -48.81 -55.11 -43.3 -54.88 -42.3 -54.65 -40.3 -54.41 -40.3 -54.18 -39.24 -53.94 -38.68 -53.71 -38.56 -53.48 -35.45 -53.24 -35.34 -53.01 -35.15 -52.77 -34.1 -52.54 -32.9 -52.31 -32.9 -52.07 -32.16 -51.84 -28.22 -51.6 -27.29 -51.37 -26.64 -51.14 -24.9 -50.9 -24.9 -50.67 -23.26 -50.43 -22.43 -50.2 -22.43 -49.97 -22.43 -49.73 -20.1 -49.5 -20.1 -49.26 -17.56 -49.03 -17.56 -48.8 -9.76 -48.56 -9.24 -48.33 -8.61 -48.09 -6.57 -47.86 -6.57 -47.63 -2.03 -47.39 -2.03 -47.16 -0.44 -46.92 -0.44 -46.69 -0.44 -46.45 -0.44 -46.22 -0.44 -45.99 -0.44 -45.75 -0.44 -45.52 -0.44 -45.28 -0.44 -45.05 -0.44 -44.82 3.72 -44.58 3.72 -44.35 3.72 -44.11 3.72 -43.88 3.72 -43.65 3.72 -43.41 3.72 -43.18 3.72 -42.94 3.72 -42.71 3.72 -42.48 3.72 -42.24 3.72 -42.01 3.72 -41.77 3.72 -41.54 3.72 -41.31 3.72 -41.07 3.72 -40.84 3.72 -40.6 3.72 -40.37 3.72 -40.14 3.72 -39.9 3.72 -39.67 3.72 -39.43 3.72 -39.2 3.72 -38.97 3.72 -38.73 3.72 -38.5 3.72 -38.26 3.72 -38.03 3.72 -37.8 3.72 -37.56 3.72 -37.33 3.72 -37.09 3.72 -36.86 3.72 -36.63 3.72 -36.39 3.72 -36.16 3.72 -35.92 3.72 -35.69 3.72 -35.46 3.72 -35.22 3.72 -34.99 3.72 -34.75 3.72 -34.52 3.72 -34.29 3.72 -34.05 3.72 -33.82 3.72 -33.58 3.72 -33.35 3.72 -33.12 3.72 -32.88 3.72 -32.65 3.72 -32.41 3.72 -32.18 3.72 -31.95 3.72 -31.71 3.72 -31.48 3.72 -31.24 3.72 -31.01 3.72 -30.77 3.72 -30.54 3.72 -30.31 3.72 -30.07 3.72 -29.84 3.72 -29.6 3.72 -29.37 3.72 -29.14 3.72 -28.9 3.72 -28.67 3.72 -28.43 3.72 -28.2 3.72 -27.97 3.72 -27.73 3.72 -27.5 3.72 -27.26 3.72 -27.03 3.72 -26.8 3.72 -26.56 3.72 -26.33 3.72 -26.09 3.72 -25.86 3.72 -25.63 3.72 -25.39 3.72 -25.16 3.72 -24.92 3.72 -24.69 3.72 -24.46 3.72 -24.22 3.72 -23.99 3.72 -23.75 3.72 -23.52 3.72 -23.29 3.72 -23.05 3.72 -22.82 3.72 -22.58 3.72 -22.35 3.72 -22.12 3.72 -21.88 3.72 -21.65 3.72 -21.41 3.72 -21.18 3.72 -20.95 3.72 -20.71 3.72 -20.48 3.72 -20.24 3.72 -20.01 3.72 -19.78 3.72 -19.54 3.72 -19.31 3.72 -19.07 3.72 -18.84 3.72 -18.61 3.72 -18.37 3.72 -18.14 3.72 -17.9 3.72 -17.67 3.72 -17.44 3.72 -17.2 3.72 -16.97 3.72 -16.73 3.72 -16.5 3.72 -16.27 3.72 -16.03 3.72 -15.8 3.72 -15.56 3.72 -15.33 3.72 -15.09 3.72 -14.86 3.72 -14.63 3.72 -14.39 3.72 -14.16 3.72 -13.92 3.72 -13.69 3.72 -13.46 3.72 -13.22 3.72 -12.99 3.72 -12.75 3.72 -12.52 3.72 -12.29 3.72 -12.05 3.72 -11.82 3.72 -11.58 3.72 -11.35 3.72 -11.12 3.72 -10.88 3.72 -10.65 3.72 -10.41 3.72 -10.18 3.72 -9.95 3.72 -9.71 3.72 -9.48 3.72 -9.24 3.72 -9.01 3.72 -8.78 3.72 -8.54 3.72 -8.31 3.72 -8.07 3.72 -7.84 3.72 -7.61 3.72 -7.37 3.72 -7.14 3.72 -6.9 3.72 -6.67 3.72 -6.44 3.72 -6.2 3.72 -5.97 3.72 -5.73 3.72 -5.5 3.72 -5.27 3.72 -5.03 3.72 -4.8 3.72 -4.56 3.72 -4.33 3.72 -4.1 3.72 -3.86 3.72 -3.63 3.72 -3.39 3.72 -3.16 3.72 -2.93 3.72 -2.69 3.72 -2.46 3.72 -2.22 3.72 -1.99 3.72 -1.76 3.72 -1.52 3.72 -1.29 3.72 -1.05 3.72 -0.82 3.72 -0.59 3.72 -0.35 3.72 -0.12 3.72 0.12 3.72 0.35 3.72 0.59 3.72 0.82 3.72 1.05 3.72 1.29 3.72 1.52 3.72 1.76 3.72 1.99 3.72 2.22 3.72 2.46 3.72 2.69 3.72 2.93 3.72 3.16 3.72 3.39 3.72 3.63 3.72 3.86 3.72 4.1 3.72 4.33 3.72 4.56 3.72 4.8 3.72 5.03 3.72 5.27 3.72 5.5 3.72 5.73 3.72 5.97 3.72 6.2 3.72 6.44 3.72 6.67 3.72 6.9 3.72 7.14 3.72 7.37 3.72 7.61 3.72 7.84 3.72 8.07 3.72 8.31 3.72 8.54 3.72 8.78 3.72 9.01 3.72 9.24 3.72 9.48 3.72 9.71 3.72 9.95 3.72 10.18 3.72 10.41 3.72 10.65 3.72 10.88 3.72 11.12 3.72 11.35 3.72 11.58 3.72 11.82 3.72 12.05 3.72 12.29 3.72 12.52 3.72 12.75 3.72 12.99 3.72 13.22 3.72 13.46 3.72 13.69 3.72 13.92 3.72 14.16 3.72 14.39 3.72 14.63 3.72 14.86 3.72 15.09 3.72 15.33 3.72 15.56 3.72 15.8 3.72 16.03 3.72 16.27 3.72 16.5 3.72 16.73 3.72 16.97 3.72 17.2 3.72 17.44 3.72 17.67 3.72 17.9 3.72 18.14 3.72 18.37 3.72 18.61 3.72 18.84 3.72 19.07 3.72 19.31 3.72 19.54 3.72 19.78 3.72 20.01 3.72 20.24 3.72 20.48 3.72 20.71 3.72 20.95 3.72 21.18 3.72 21.41 3.72 21.65 3.72 21.88 3.72 22.12 3.72 22.35 3.72 22.58 3.72 22.82 3.72 23.05 3.72 23.29 3.72 23.52 3.72 23.75 3.72 23.99 3.72 24.22 3.72 24.46 3.72 24.69 3.72 24.92 3.72 25.16 3.72 25.39 3.72 25.63 3.72 25.86 3.72 26.09 3.72 26.33 3.72 26.56 3.72 26.8 3.72 27.03 3.72 27.26 3.72 27.5 3.72 27.73 3.72 27.97 3.72 28.2 3.72 28.43 3.72 28.67 3.72 28.9 3.72 29.14 3.72 29.37 3.72 29.6 3.72 29.84 3.72 30.07 3.72 30.31 3.72 30.54 3.72 30.77 3.72 31.01 3.72 31.24 3.72 31.48 3.72 31.71 3.72 31.95 3.72 32.18 3.72 32.41 3.72 32.65 3.72 32.88 3.72 33.12 3.72 33.35 3.72 33.58 3.72 33.82 3.72 34.05 3.72 34.29 3.72 34.52 3.72 34.75 3.72 34.99 3.72 35.22 3.72 35.46 3.72 35.69 3.72 35.92 3.72 36.16 3.72 36.39 3.72 36.63 3.72 36.86 3.72 37.09 3.72 37.33 3.72 37.56 3.72 37.8 3.72 38.03 3.72 38.26 3.72 38.5 3.72 38.73 3.72 38.97 3.72 39.2 3.72 39.43 3.72 39.67 3.72 39.9 3.72 40.14 3.72 40.37 3.72 40.6 3.72 40.84 3.72 41.07 3.72 41.31 3.72 41.54 3.72 41.77 3.72 42.01 3.72 42.24 3.72 42.48 3.72 42.71 3.72 42.94 3.72 43.18 3.72 43.41 3.72 43.65 3.72 43.88 3.72 44.11 3.72 44.35 3.72 44.58 3.72 44.82 3.72 45.05 3.72 45.28 3.72 45.52 3.72 45.75 3.72 45.99 3.72 46.22 3.72 46.45 3.72 46.69 3.72 46.92 3.72 47.16 3.72 47.39 3.72 47.63 3.72 47.86 3.72 48.09 3.72 48.33 3.72 48.56 3.72 48.8 3.72 49.03 3.72 49.26 3.72 49.5 3.72 49.73 3.72 49.97 3.72 50.2 3.72 50.43 3.72 50.67 3.72 50.9 3.72 51.14 3.72 51.37 3.72 51.6 3.72 51.84 3.72 52.07 3.72 52.31 3.72 52.54 3.72 52.77 3.72 53.01 3.72 53.24 3.72 53.48 3.72 53.71 3.72 53.94 3.72 54.18 3.72 54.41 3.72 54.65 3.72 54.88 3.72 55.11 3.72 55.35 3.72 55.58 3.72 55.82 3.72 56.05 3.72 56.28 3.72 56.52 3.72 56.75 3.72 56.99 3.72 57.22 3.72 57.45 3.72 57.69 3.72 57.92 3.72 58.16 3.72 58.39 3.72" class="primitive"/>
          </g>
          <g transform="translate(79.02,64.97)" id="img-186605bf-41" stroke-dasharray="none" stroke="#BEA9FF" class="color_0">
            <path fill="none" d="M-58.39,-50.66 L -58.16 -50.15 -57.92 -50.15 -57.69 -49.82 -57.45 -49.14 -57.22 -49.14 -56.99 -46.67 -56.75 -46.67 -56.52 -46.67 -56.28 -46.38 -56.05 -43.01 -55.82 -39.9 -55.58 -37.35 -55.35 -29.35 -55.11 -28.81 -54.88 -27.81 -54.65 -27.81 -54.41 -27.71 -54.18 -27.71 -53.94 -27.71 -53.71 -25.81 -53.48 -24.75 -53.24 -24.55 -53.01 -22.01 -52.77 -21.56 -52.54 -20.85 -52.31 -20.85 -52.07 -16.93 -51.84 -13.9 -51.6 -13.73 -51.37 -12.8 -51.14 -12.8 -50.9 -12.8 -50.67 -12.8 -50.43 -11.83 -50.2 -11.83 -49.97 -11.02 -49.73 -10.54 -49.5 -10.54 -49.26 -10.54 -49.03 -7.93 -48.8 -7.93 -48.56 -7.93 -48.33 -0.4 -48.09 0.92 -47.86 0.92 -47.63 2.53 -47.39 2.53 -47.16 2.53 -46.92 2.53 -46.69 2.53 -46.45 2.53 -46.22 2.53 -45.99 2.53 -45.75 2.53 -45.52 2.53 -45.28 2.53 -45.05 2.53 -44.82 2.53 -44.58 2.53 -44.35 2.53 -44.11 2.53 -43.88 2.53 -43.65 2.53 -43.41 2.53 -43.18 2.53 -42.94 2.53 -42.71 2.53 -42.48 2.53 -42.24 2.53 -42.01 2.53 -41.77 2.53 -41.54 2.53 -41.31 2.53 -41.07 2.53 -40.84 2.53 -40.6 2.53 -40.37 2.53 -40.14 2.53 -39.9 2.53 -39.67 2.53 -39.43 2.53 -39.2 2.53 -38.97 2.53 -38.73 2.53 -38.5 2.53 -38.26 2.53 -38.03 2.53 -37.8 2.53 -37.56 2.53 -37.33 2.53 -37.09 2.53 -36.86 2.53 -36.63 2.53 -36.39 2.53 -36.16 2.53 -35.92 2.53 -35.69 2.53 -35.46 2.53 -35.22 2.53 -34.99 2.53 -34.75 2.53 -34.52 2.53 -34.29 2.53 -34.05 2.53 -33.82 2.53 -33.58 2.53 -33.35 2.53 -33.12 2.53 -32.88 2.53 -32.65 2.53 -32.41 2.53 -32.18 2.53 -31.95 2.53 -31.71 2.53 -31.48 2.53 -31.24 2.53 -31.01 2.53 -30.77 2.53 -30.54 2.53 -30.31 2.53 -30.07 2.53 -29.84 2.53 -29.6 2.53 -29.37 2.53 -29.14 2.53 -28.9 2.53 -28.67 2.53 -28.43 2.53 -28.2 2.53 -27.97 2.53 -27.73 2.53 -27.5 2.53 -27.26 2.53 -27.03 2.53 -26.8 2.53 -26.56 2.53 -26.33 2.53 -26.09 2.53 -25.86 2.53 -25.63 2.53 -25.39 2.53 -25.16 2.53 -24.92 2.53 -24.69 2.53 -24.46 2.53 -24.22 2.53 -23.99 2.53 -23.75 2.53 -23.52 2.53 -23.29 2.53 -23.05 2.53 -22.82 2.53 -22.58 2.53 -22.35 2.53 -22.12 2.53 -21.88 2.53 -21.65 2.53 -21.41 2.53 -21.18 2.53 -20.95 2.53 -20.71 2.53 -20.48 2.53 -20.24 2.53 -20.01 2.53 -19.78 2.53 -19.54 2.53 -19.31 2.53 -19.07 2.53 -18.84 2.53 -18.61 2.53 -18.37 2.53 -18.14 2.53 -17.9 2.53 -17.67 2.53 -17.44 2.53 -17.2 2.53 -16.97 2.53 -16.73 2.53 -16.5 2.53 -16.27 2.53 -16.03 2.53 -15.8 2.53 -15.56 2.53 -15.33 2.53 -15.09 2.53 -14.86 2.53 -14.63 2.53 -14.39 2.53 -14.16 2.53 -13.92 2.53 -13.69 2.53 -13.46 2.53 -13.22 2.53 -12.99 2.53 -12.75 2.53 -12.52 2.53 -12.29 2.53 -12.05 2.53 -11.82 2.53 -11.58 2.53 -11.35 2.53 -11.12 2.53 -10.88 2.53 -10.65 2.53 -10.41 2.53 -10.18 2.53 -9.95 2.53 -9.71 2.53 -9.48 2.53 -9.24 2.53 -9.01 2.53 -8.78 2.53 -8.54 2.53 -8.31 2.53 -8.07 2.53 -7.84 2.53 -7.61 2.53 -7.37 2.53 -7.14 2.53 -6.9 2.53 -6.67 2.53 -6.44 2.53 -6.2 2.53 -5.97 2.53 -5.73 2.53 -5.5 2.53 -5.27 2.53 -5.03 2.53 -4.8 2.53 -4.56 2.53 -4.33 2.53 -4.1 2.53 -3.86 2.53 -3.63 2.53 -3.39 2.53 -3.16 2.53 -2.93 2.53 -2.69 2.53 -2.46 2.53 -2.22 2.53 -1.99 2.53 -1.76 2.53 -1.52 2.53 -1.29 2.53 -1.05 2.53 -0.82 2.53 -0.59 2.53 -0.35 2.53 -0.12 2.53 0.12 2.53 0.35 2.53 0.59 2.53 0.82 2.53 1.05 2.53 1.29 2.53 1.52 2.53 1.76 2.53 1.99 2.53 2.22 2.53 2.46 2.53 2.69 2.53 2.93 2.53 3.16 2.53 3.39 2.53 3.63 2.53 3.86 2.53 4.1 2.53 4.33 2.53 4.56 2.53 4.8 2.53 5.03 2.53 5.27 2.53 5.5 2.53 5.73 2.53 5.97 2.53 6.2 2.53 6.44 2.53 6.67 2.53 6.9 2.53 7.14 2.53 7.37 2.53 7.61 2.53 7.84 2.53 8.07 2.53 8.31 2.53 8.54 2.53 8.78 2.53 9.01 2.53 9.24 2.53 9.48 2.53 9.71 2.53 9.95 2.53 10.18 2.53 10.41 2.53 10.65 2.53 10.88 2.53 11.12 2.53 11.35 2.53 11.58 2.53 11.82 2.53 12.05 2.53 12.29 2.53 12.52 2.53 12.75 2.53 12.99 2.53 13.22 2.53 13.46 2.53 13.69 2.53 13.92 2.53 14.16 2.53 14.39 2.53 14.63 2.53 14.86 2.53 15.09 2.53 15.33 2.53 15.56 2.53 15.8 2.53 16.03 2.53 16.27 2.53 16.5 2.53 16.73 2.53 16.97 2.53 17.2 2.53 17.44 2.53 17.67 2.53 17.9 2.53 18.14 2.53 18.37 2.53 18.61 2.53 18.84 2.53 19.07 2.53 19.31 2.53 19.54 2.53 19.78 2.53 20.01 2.53 20.24 2.53 20.48 2.53 20.71 2.53 20.95 2.53 21.18 2.53 21.41 2.53 21.65 2.53 21.88 2.53 22.12 2.53 22.35 2.53 22.58 2.53 22.82 2.53 23.05 2.53 23.29 2.53 23.52 2.53 23.75 2.53 23.99 2.53 24.22 2.53 24.46 2.53 24.69 2.53 24.92 2.53 25.16 2.53 25.39 2.53 25.63 2.53 25.86 2.53 26.09 2.53 26.33 2.53 26.56 2.53 26.8 2.53 27.03 2.53 27.26 2.53 27.5 2.53 27.73 2.53 27.97 2.53 28.2 2.53 28.43 2.53 28.67 2.53 28.9 2.53 29.14 2.53 29.37 2.53 29.6 2.53 29.84 2.53 30.07 2.53 30.31 2.53 30.54 2.53 30.77 2.53 31.01 2.53 31.24 2.53 31.48 2.53 31.71 2.53 31.95 2.53 32.18 2.53 32.41 2.53 32.65 2.53 32.88 2.53 33.12 2.53 33.35 2.53 33.58 2.53 33.82 2.53 34.05 2.53 34.29 2.53 34.52 2.53 34.75 2.53 34.99 2.53 35.22 2.53 35.46 2.53 35.69 2.53 35.92 2.53 36.16 2.53 36.39 2.53 36.63 2.53 36.86 2.53 37.09 2.53 37.33 2.53 37.56 2.53 37.8 2.53 38.03 2.53 38.26 2.53 38.5 2.53 38.73 2.53 38.97 2.53 39.2 2.53 39.43 2.53 39.67 2.53 39.9 2.53 40.14 2.53 40.37 2.53 40.6 2.53 40.84 2.53 41.07 2.53 41.31 2.53 41.54 2.53 41.77 2.53 42.01 2.53 42.24 2.53 42.48 2.53 42.71 2.53 42.94 2.53 43.18 2.53 43.41 2.53 43.65 2.53 43.88 2.53 44.11 2.53 44.35 2.53 44.58 2.53 44.82 2.53 45.05 2.53 45.28 2.53 45.52 2.53 45.75 2.53 45.99 2.53 46.22 2.53 46.45 2.53 46.69 2.53 46.92 2.53 47.16 2.53 47.39 2.53 47.63 2.53 47.86 2.53 48.09 2.53 48.33 2.53 48.56 2.53 48.8 2.53 49.03 2.53 49.26 2.53 49.5 2.53 49.73 2.53 49.97 2.53 50.2 2.53 50.43 2.53 50.67 2.53 50.9 2.53 51.14 2.53 51.37 2.53 51.6 2.53 51.84 2.53 52.07 2.53 52.31 2.53 52.54 2.53 52.77 2.53 53.01 2.53 53.24 2.53 53.48 2.53 53.71 2.53 53.94 2.53 54.18 2.53 54.41 2.53 54.65 2.53 54.88 2.53 55.11 2.53 55.35 2.53 55.58 2.53 55.82 2.53 56.05 2.53 56.28 2.53 56.52 2.53 56.75 2.53 56.99 2.53 57.22 2.53 57.45 2.53 57.69 2.53 57.92 2.53 58.16 2.53 58.39 2.53" class="primitive"/>
          </g>
        </g>
      </g>
    </g>
  </g>
  <g class="guide ylabels" font-size="2.82" font-family="'PT Sans Caption','Helvetica Neue','Helvetica',sans-serif" fill="#6C606B" id="img-186605bf-42">
    <g transform="translate(17.63,78.71)" id="img-186605bf-43">
      <g class="primitive">
        <text text-anchor="end" dy="0.35em">0.0</text>
      </g>
    </g>
    <g transform="translate(17.63,54.81)" id="img-186605bf-44">
      <g class="primitive">
        <text text-anchor="end" dy="0.35em">0.1</text>
      </g>
    </g>
    <g transform="translate(17.63,30.9)" id="img-186605bf-45">
      <g class="primitive">
        <text text-anchor="end" dy="0.35em">0.2</text>
      </g>
    </g>
    <g transform="translate(17.63,7)" id="img-186605bf-46">
      <g class="primitive">
        <text text-anchor="end" dy="0.35em">0.3</text>
      </g>
    </g>
  </g>
  <g font-size="3.88" font-family="'PT Sans','Helvetica Neue','Helvetica',sans-serif" fill="#564A55" stroke="#000000" stroke-opacity="0.000" id="img-186605bf-47">
    <g transform="translate(8.81,40.86)" id="img-186605bf-48">
      <g class="primitive">
        <text text-anchor="middle" dy="0.35em" transform="rotate(-90,0, 2)">Diferença de pontuação interna</text>
      </g>
    </g>
  </g>
</g>
<defs>
  <clipPath id="img-186605bf-19">
    <path d="M18.63,5 L 139.65 5 139.65 80.72 18.63 80.72" />
  </clipPath>
</defs>
</svg>
