<?xml version="1.0" encoding="UTF-8"?>
<svg xmlns="http://www.w3.org/2000/svg"
     xmlns:xlink="http://www.w3.org/1999/xlink"
     xmlns:gadfly="http://www.gadflyjl.org/ns"
     version="1.2"
     width="200mm" height="100mm" viewBox="0 0 200 100"
     stroke="none"
     fill="#000000"
     stroke-width="0.3"
     font-size="3.88"
>
<defs>
  <marker id="arrow" markerWidth="15" markerHeight="7" refX="5" refY="3.5" orient="auto" markerUnits="strokeWidth">
    <path d="M0,0 L15,3.5 L0,7 z" stroke="context-stroke" fill="context-stroke"/>
  </marker>
</defs>
<g class="plotroot xscalable yscalable" id="img-7d29dcbc-1">
  <g font-size="3.88" font-family="'PT Sans','Helvetica Neue','Helvetica',sans-serif" fill="#564A55" stroke="#000000" stroke-opacity="0.000" id="img-7d29dcbc-2">
    <g transform="translate(77.83,88.39)">
      <g class="primitive">
        <text text-anchor="middle" dy="0.6em">Tempo</text>
      </g>
    </g>
  </g>
  <g class="guide xlabels" font-size="2.82" font-family="'PT Sans Caption','Helvetica Neue','Helvetica',sans-serif" fill="#6C606B" id="img-7d29dcbc-3">
    <g transform="translate(12.35,81.72)">
      <g class="primitive">
        <text text-anchor="middle" dy="0.6em">0</text>
      </g>
    </g>
    <g transform="translate(38.54,81.72)">
      <g class="primitive">
        <text text-anchor="middle" dy="0.6em">100</text>
      </g>
    </g>
    <g transform="translate(64.73,81.72)">
      <g class="primitive">
        <text text-anchor="middle" dy="0.6em">200</text>
      </g>
    </g>
    <g transform="translate(90.92,81.72)">
      <g class="primitive">
        <text text-anchor="middle" dy="0.6em">300</text>
      </g>
    </g>
    <g transform="translate(117.11,81.72)">
      <g class="primitive">
        <text text-anchor="middle" dy="0.6em">400</text>
      </g>
    </g>
    <g transform="translate(143.31,81.72)">
      <g class="primitive">
        <text text-anchor="middle" dy="0.6em">500</text>
      </g>
    </g>
  </g>
  <g class="guide colorkey" id="img-7d29dcbc-4">
    <g fill="#4C404B" font-size="2.82" font-family="'PT Sans','Helvetica Neue','Helvetica',sans-serif" id="img-7d29dcbc-5">
      <g transform="translate(149.12,42.86)" id="img-7d29dcbc-6">
        <g class="primitive">
          <text dy="0.35em">Número de Variedades</text>
        </g>
      </g>
      <g transform="translate(149.12,46.48)" id="img-7d29dcbc-7">
        <g class="primitive">
          <text dy="0.35em">Número Médio de Variedades por UD</text>
        </g>
      </g>
    </g>
    <g stroke="#000000" stroke-opacity="0.000" id="img-7d29dcbc-8">
      <g transform="translate(147.21,42.86)" id="img-7d29dcbc-9" fill="#008000">
        <path d="M-0.91,-0.91 L 0.91 -0.91 0.91 0.91 -0.91 0.91 z" class="primitive"/>
      </g>
      <g transform="translate(147.21,46.48)" id="img-7d29dcbc-10" fill="#FF0000">
        <path d="M-0.91,-0.91 L 0.91 -0.91 0.91 0.91 -0.91 0.91 z" class="primitive"/>
      </g>
    </g>
    <g fill="#362A35" font-size="3.88" font-family="'PT Sans','Helvetica Neue','Helvetica',sans-serif" stroke="#000000" stroke-opacity="0.000" id="img-7d29dcbc-11">
      <g transform="translate(146.31,39.04)" id="img-7d29dcbc-12">
        <g class="primitive">
          <text></text>
        </g>
      </g>
    </g>
  </g>
  <g clip-path="url(#img-7d29dcbc-13)">
    <g id="img-7d29dcbc-14">
      <g pointer-events="visible" fill="#000000" fill-opacity="0.000" stroke="#000000" stroke-opacity="0.000" class="guide background" id="img-7d29dcbc-15">
        <g transform="translate(77.83,42.86)" id="img-7d29dcbc-16">
          <path d="M-67.48,-37.86 L 67.48 -37.86 67.48 37.86 -67.48 37.86 z" class="primitive"/>
        </g>
      </g>
      <g class="guide ygridlines xfixed" stroke-dasharray="0.5,0.5" stroke-width="0.2" stroke="#D0D0E0" id="img-7d29dcbc-17">
        <g transform="translate(77.83,78.71)" id="img-7d29dcbc-18">
          <path fill="none" d="M-67.48,0 L 67.48 0" class="primitive"/>
        </g>
        <g transform="translate(77.83,64.37)" id="img-7d29dcbc-19">
          <path fill="none" d="M-67.48,0 L 67.48 0" class="primitive"/>
        </g>
        <g transform="translate(77.83,50.03)" id="img-7d29dcbc-20">
          <path fill="none" d="M-67.48,0 L 67.48 0" class="primitive"/>
        </g>
        <g transform="translate(77.83,35.69)" id="img-7d29dcbc-21">
          <path fill="none" d="M-67.48,0 L 67.48 0" class="primitive"/>
        </g>
        <g transform="translate(77.83,21.34)" id="img-7d29dcbc-22">
          <path fill="none" d="M-67.48,0 L 67.48 0" class="primitive"/>
        </g>
        <g transform="translate(77.83,7)" id="img-7d29dcbc-23">
          <path fill="none" d="M-67.48,0 L 67.48 0" class="primitive"/>
        </g>
      </g>
      <g class="guide xgridlines yfixed" stroke-dasharray="0.5,0.5" stroke-width="0.2" stroke="#D0D0E0" id="img-7d29dcbc-24">
        <g transform="translate(12.35,42.86)" id="img-7d29dcbc-25">
          <path fill="none" d="M0,-37.86 L 0 37.86" class="primitive"/>
        </g>
        <g transform="translate(38.54,42.86)" id="img-7d29dcbc-26">
          <path fill="none" d="M0,-37.86 L 0 37.86" class="primitive"/>
        </g>
        <g transform="translate(64.73,42.86)" id="img-7d29dcbc-27">
          <path fill="none" d="M0,-37.86 L 0 37.86" class="primitive"/>
        </g>
        <g transform="translate(90.92,42.86)" id="img-7d29dcbc-28">
          <path fill="none" d="M0,-37.86 L 0 37.86" class="primitive"/>
        </g>
        <g transform="translate(117.11,42.86)" id="img-7d29dcbc-29">
          <path fill="none" d="M0,-37.86 L 0 37.86" class="primitive"/>
        </g>
        <g transform="translate(143.31,42.86)" id="img-7d29dcbc-30">
          <path fill="none" d="M0,-37.86 L 0 37.86" class="primitive"/>
        </g>
      </g>
      <g class="plotpanel" id="img-7d29dcbc-31">
        <metadata>
          <boundingbox value="10.346666666666664mm 5.0mm 134.96mm 75.715mm"/>
          <unitbox value="-7.6359193646915084 51.39440842222687 515.271838729383 -52.78881684445375"/>
        </metadata>
        <g stroke-width="0.3" fill="#000000" fill-opacity="0.000" class="geometry" id="img-7d29dcbc-32">
          <g class="color_RGB{N0f8}(1.0,0.0,0.0)" stroke-dasharray="none" stroke="#FF0000" id="img-7d29dcbc-33">
            <g transform="translate(77.17,68.19)" id="img-7d29dcbc-34">
              <path fill="none" d="M-64.83,-34.53 L -63.52 -30.16 -62.21 -25.57 -60.9 -21.12 -59.59 -16.82 -58.28 -12.75 -56.97 -8.59 -55.66 -5.58 -54.35 -3.23 -53.04 -2.01 -51.73 -0.95 -50.42 -0.4 -49.11 -0.22 -47.8 0.04 -46.49 0.34 -45.18 0.66 -43.87 0.72 -42.56 1.01 -41.25 1.04 -39.94 1.3 -38.63 1.33 -37.32 1.62 -36.01 1.77 -34.7 1.92 -33.39 1.98 -32.09 1.98 -30.78 1.98 -29.47 1.98 -28.16 1.98 -26.85 1.98 -25.54 1.98 -24.23 1.98 -22.92 1.98 -21.61 1.98 -20.3 1.98 -18.99 1.98 -17.68 1.98 -16.37 1.98 -15.06 1.98 -13.75 1.98 -12.44 1.98 -11.13 1.98 -9.82 1.98 -8.51 1.98 -7.2 1.98 -5.89 1.98 -4.58 1.98 -3.27 1.98 -1.96 1.98 -0.65 1.98 0.65 1.98 1.96 1.98 3.27 1.98 4.58 1.98 5.89 1.98 7.2 1.98 8.51 1.98 9.82 1.98 11.13 1.98 12.44 1.98 13.75 1.98 15.06 1.98 16.37 1.98 17.68 1.98 18.99 1.98 20.3 1.98 21.61 1.98 22.92 1.98 24.23 1.98 25.54 1.98 26.85 1.98 28.16 1.98 29.47 1.98 30.78 1.98 32.09 1.98 33.39 1.98 34.7 1.98 36.01 1.98 37.32 1.98 38.63 1.98 39.94 1.98 41.25 1.98 42.56 1.98 43.87 1.98 45.18 1.98 46.49 1.98 47.8 1.98 49.11 1.98 50.42 1.98 51.73 1.98 53.04 1.98 54.35 1.98 55.66 1.98 56.97 1.98 58.28 1.98 59.59 1.98 60.9 1.98 62.21 1.98 63.52 1.98 64.83 1.98" class="primitive"/>
            </g>
          </g>
        </g>
        <g stroke-width="0.3" fill="#000000" fill-opacity="0.000" class="geometry" id="img-7d29dcbc-35">
          <g class="color_RGB{N0f8}(0.0,0.502,0.0)" stroke-dasharray="none" stroke="#008000" id="img-7d29dcbc-36">
            <g transform="translate(77.17,35.41)" id="img-7d29dcbc-37">
              <path fill="none" d="M-64.83,-28.41 L -63.52 -28.41 -62.21 -28.41 -60.9 -28.41 -59.59 -28.41 -58.28 -28.41 -56.97 -22.68 -55.66 -18.37 -54.35 -14.07 -53.04 -11.2 -51.73 -8.33 -50.42 -4.03 -49.11 -1.16 -47.8 -1.16 -46.49 0.27 -45.18 0.27 -43.87 1.71 -42.56 1.71 -41.25 1.71 -39.94 1.71 -38.63 1.71 -37.32 1.71 -36.01 1.71 -34.7 3.14 -33.39 3.14 -32.09 3.14 -30.78 3.14 -29.47 3.14 -28.16 3.14 -26.85 3.14 -25.54 3.14 -24.23 3.14 -22.92 3.14 -21.61 3.14 -20.3 3.14 -18.99 3.14 -17.68 3.14 -16.37 3.14 -15.06 3.14 -13.75 3.14 -12.44 1.71 -11.13 3.14 -9.82 3.14 -8.51 3.14 -7.2 3.14 -5.89 3.14 -4.58 3.14 -3.27 3.14 -1.96 3.14 -0.65 3.14 0.65 1.71 1.96 3.14 3.27 3.14 4.58 3.14 5.89 3.14 7.2 3.14 8.51 3.14 9.82 3.14 11.13 3.14 12.44 3.14 13.75 3.14 15.06 3.14 16.37 3.14 17.68 3.14 18.99 3.14 20.3 3.14 21.61 3.14 22.92 3.14 24.23 3.14 25.54 3.14 26.85 3.14 28.16 3.14 29.47 3.14 30.78 3.14 32.09 3.14 33.39 3.14 34.7 3.14 36.01 3.14 37.32 3.14 38.63 3.14 39.94 3.14 41.25 3.14 42.56 3.14 43.87 3.14 45.18 3.14 46.49 3.14 47.8 3.14 49.11 3.14 50.42 3.14 51.73 3.14 53.04 3.14 54.35 3.14 55.66 3.14 56.97 3.14 58.28 3.14 59.59 3.14 60.9 3.14 62.21 3.14 63.52 3.14 64.83 3.14" class="primitive"/>
            </g>
          </g>
        </g>
      </g>
    </g>
  </g>
  <g class="guide ylabels" font-size="2.82" font-family="'PT Sans Caption','Helvetica Neue','Helvetica',sans-serif" fill="#6C606B" id="img-7d29dcbc-38">
    <g transform="translate(9.35,78.71)" id="img-7d29dcbc-39">
      <g class="primitive">
        <text text-anchor="end" dy="0.35em">0</text>
      </g>
    </g>
    <g transform="translate(9.35,64.37)" id="img-7d29dcbc-40">
      <g class="primitive">
        <text text-anchor="end" dy="0.35em">10</text>
      </g>
    </g>
    <g transform="translate(9.35,50.03)" id="img-7d29dcbc-41">
      <g class="primitive">
        <text text-anchor="end" dy="0.35em">20</text>
      </g>
    </g>
    <g transform="translate(9.35,35.69)" id="img-7d29dcbc-42">
      <g class="primitive">
        <text text-anchor="end" dy="0.35em">30</text>
      </g>
    </g>
    <g transform="translate(9.35,21.34)" id="img-7d29dcbc-43">
      <g class="primitive">
        <text text-anchor="end" dy="0.35em">40</text>
      </g>
    </g>
    <g transform="translate(9.35,7)" id="img-7d29dcbc-44">
      <g class="primitive">
        <text text-anchor="end" dy="0.35em">50</text>
      </g>
    </g>
  </g>
</g>
<defs>
  <clipPath id="img-7d29dcbc-13">
    <path d="M10.35,5 L 145.31 5 145.31 80.72 10.35 80.72" />
  </clipPath>
</defs>
</svg>
