<?xml version="1.0" encoding="UTF-8"?>
<svg xmlns="http://www.w3.org/2000/svg"
     xmlns:xlink="http://www.w3.org/1999/xlink"
     xmlns:gadfly="http://www.gadflyjl.org/ns"
     version="1.2"
     width="150mm" height="100mm" viewBox="0 0 150 100"
     stroke="none"
     fill="#000000"
     stroke-width="0.3"
     font-size="3.88"
>
<g class="plotroot xscalable yscalable" id="img-306847d5-1">
  <g font-size="3.88" font-family="'PT Sans','Helvetica Neue','Helvetica',sans-serif" fill="#564A55" stroke="#000000" stroke-opacity="0.000" id="img-306847d5-2">
    <text x="78.43" y="89.18" text-anchor="middle" dy="0.6em">Fitness</text>
  </g>
  <g class="guide xlabels" font-size="2.82" font-family="'PT Sans Caption','Helvetica Neue','Helvetica',sans-serif" fill="#6C606B" id="img-306847d5-3">
    <text x="22.88" y="82.71" text-anchor="middle" dy="0.6em">0.0</text>
    <text x="78.43" y="82.71" text-anchor="middle" dy="0.6em">0.5</text>
    <text x="133.97" y="82.71" text-anchor="middle" dy="0.6em">1.0</text>
  </g>
  <g class="guide colorkey" id="img-306847d5-4">
    <g fill="#4C404B" font-size="2.82" font-family="'PT Sans','Helvetica Neue','Helvetica',sans-serif" id="img-306847d5-5">
      <text x="139.71" y="38.15" dy="0.35em" id="img-306847d5-6" class="color_10">10</text>
      <text x="139.71" y="41.62" dy="0.35em" id="img-306847d5-7" class="color_25">25</text>
      <text x="139.71" y="45.09" dy="0.35em" id="img-306847d5-8" class="color_50">50</text>
      <text x="139.71" y="48.56" dy="0.35em" id="img-306847d5-9" class="color_75">75</text>
      <text x="139.71" y="52.03" dy="0.35em" id="img-306847d5-10" class="color_100">100</text>
    </g>
    <g stroke="#000000" stroke-opacity="0.000" id="img-306847d5-11">
      <rect x="136.97" y="37.28" width="1.73" height="1.73" id="img-306847d5-12" class="color_10" fill="#00BFFF"/>
      <rect x="136.97" y="40.75" width="1.73" height="1.73" id="img-306847d5-13" class="color_25" fill="#D4CA3A"/>
      <rect x="136.97" y="44.22" width="1.73" height="1.73" id="img-306847d5-14" class="color_50" fill="#FF6DAE"/>
      <rect x="136.97" y="47.69" width="1.73" height="1.73" id="img-306847d5-15" class="color_75" fill="#00B78D"/>
      <rect x="136.97" y="51.16" width="1.73" height="1.73" id="img-306847d5-16" class="color_100" fill="#BEA9FF"/>
    </g>
    <g fill="#362A35" font-size="3.88" font-family="'PT Sans','Helvetica Neue','Helvetica',sans-serif" stroke="#000000" stroke-opacity="0.000" id="img-306847d5-17">
      <text x="136.97" y="33.74" id="img-306847d5-18">v</text>
    </g>
  </g>
<g clip-path="url(#img-306847d5-19)">
  <g id="img-306847d5-20">
    <g pointer-events="visible" opacity="1" fill="#000000" fill-opacity="0.000" stroke="#000000" stroke-opacity="0.000" class="guide background" id="img-306847d5-21">
      <rect x="20.88" y="5" width="115.1" height="76.71" id="img-306847d5-22"/>
    </g>
    <g class="guide ygridlines xfixed" stroke-dasharray="0.5,0.5" stroke-width="0.2" stroke="#D0D0E0" id="img-306847d5-23">
      <path fill="none" d="M20.88,79.71 L 135.97 79.71" id="img-306847d5-24"/>
      <path fill="none" d="M20.88,61.53 L 135.97 61.53" id="img-306847d5-25"/>
      <path fill="none" d="M20.88,43.35 L 135.97 43.35" id="img-306847d5-26"/>
      <path fill="none" d="M20.88,25.18 L 135.97 25.18" id="img-306847d5-27"/>
      <path fill="none" d="M20.88,7 L 135.97 7" id="img-306847d5-28"/>
    </g>
    <g class="guide xgridlines yfixed" stroke-dasharray="0.5,0.5" stroke-width="0.2" stroke="#D0D0E0" id="img-306847d5-29">
      <path fill="none" d="M22.88,5 L 22.88 81.71" id="img-306847d5-30"/>
      <path fill="none" d="M78.43,5 L 78.43 81.71" id="img-306847d5-31"/>
      <path fill="none" d="M133.97,5 L 133.97 81.71" id="img-306847d5-32"/>
    </g>
    <g class="plotpanel" id="img-306847d5-33">
      <g stroke-width="0.3" fill="#000000" fill-opacity="0.000" stroke-dasharray="none" id="img-306847d5-34">
        <path fill="none" d="M25.66,69.65 L 31.21 73.87 36.76 73.42 42.32 74.03 47.87 72 53.43 70.51 58.98 68.07 64.54 62.85 70.09 55.61 75.65 49.57 81.2 36.76 86.76 25.87 92.31 28.67 97.87 36.06 103.42 55.06 108.98 64.49 114.53 77.5 120.09 77.62 125.64 79.29 131.2 79.71" id="img-306847d5-35" stroke="#00B78D" class="geometry color_75"/>
        <path fill="none" d="M25.66,60.99 L 31.21 58.98 36.76 64.28 42.32 66.22 47.87 60.32 53.43 56.86 58.98 56.12 64.54 54.7 70.09 54.95 75.65 42.51 81.2 36.31 86.76 41.28 92.31 47.03 97.87 60.28 103.42 75.4 108.98 76.33 114.53 78.95 120.09 79.71 125.64 79.71 131.2 79.71" id="img-306847d5-36" stroke="#00BFFF" class="geometry color_10"/>
        <path fill="none" d="M25.66,74.08 L 31.21 74.59 36.76 74.48 42.32 74.04 47.87 74.04 53.43 72.43 58.98 65.04 64.54 63.44 70.09 55.44 75.65 47.49 81.2 39.05 86.76 27.92 92.31 22.03 97.87 32.69 103.42 51.69 108.98 68.06 114.53 76.52 120.09 79.08 125.64 78.82 131.2 79.71" id="img-306847d5-37" stroke="#BEA9FF" class="geometry color_100"/>
        <path fill="none" d="M25.66,57.93 L 31.21 69.28 36.76 71.64 42.32 71.78 47.87 68.36 53.43 66.34 58.98 63.77 64.54 58.29 70.09 51.99 75.65 45.56 81.2 36.24 86.76 32.04 92.31 39.89 97.87 47.74 103.42 61.44 108.98 73.97 114.53 76.98 120.09 78.51 125.64 79.16 131.2 79.71" id="img-306847d5-38" stroke="#D4CA3A" class="geometry color_25"/>
        <path fill="none" d="M25.66,68.43 L 31.21 72.84 36.76 72.87 42.32 72.95 47.87 71.57 53.43 67.67 58.98 65.52 64.54 56.56 70.09 51.23 75.65 44.77 81.2 35.17 86.76 26.31 92.31 35.55 97.87 43.52 103.42 57.73 108.98 72.29 114.53 77.48 120.09 78.75 125.64 79.71 131.2 79.71" id="img-306847d5-39" stroke="#FF6DAE" class="geometry color_50"/>
      </g>
    </g>
  </g>
</g>
  <g class="guide ylabels" font-size="2.82" font-family="'PT Sans Caption','Helvetica Neue','Helvetica',sans-serif" fill="#6C606B" id="img-306847d5-40">
    <text x="19.88" y="79.71" text-anchor="end" dy="0.35em" id="img-306847d5-41">0.00</text>
    <text x="19.88" y="61.53" text-anchor="end" dy="0.35em" id="img-306847d5-42">0.05</text>
    <text x="19.88" y="43.35" text-anchor="end" dy="0.35em" id="img-306847d5-43">0.10</text>
    <text x="19.88" y="25.18" text-anchor="end" dy="0.35em" id="img-306847d5-44">0.15</text>
    <text x="19.88" y="7" text-anchor="end" dy="0.35em" id="img-306847d5-45">0.20</text>
  </g>
  <g font-size="3.88" font-family="'PT Sans','Helvetica Neue','Helvetica',sans-serif" fill="#564A55" stroke="#000000" stroke-opacity="0.000" id="img-306847d5-46">
    <text x="8.76" y="41.35" text-anchor="middle" dy="0.35em" transform="rotate(-90, 8.76, 43.35)" id="img-306847d5-47">Frequencia</text>
  </g>
</g>
<defs>
  <clipPath id="img-306847d5-19">
  <path d="M20.88,5 L 135.97 5 135.97 81.71 20.88 81.71" />
</clipPath>
</defs>
</svg>
