<?xml version="1.0" encoding="UTF-8"?>
<svg xmlns="http://www.w3.org/2000/svg"
     xmlns:xlink="http://www.w3.org/1999/xlink"
     xmlns:gadfly="http://www.gadflyjl.org/ns"
     version="1.2"
     width="150mm" height="100mm" viewBox="0 0 150 100"
     stroke="none"
     fill="#000000"
     stroke-width="0.3"
     font-size="3.88"
>
<g class="plotroot xscalable yscalable" id="img-26f80785-1">
  <g font-size="3.88" font-family="'PT Sans','Helvetica Neue','Helvetica',sans-serif" fill="#564A55" stroke="#000000" stroke-opacity="0.000" id="img-26f80785-2">
    <text x="80.19" y="88.47" text-anchor="middle" dy="0.6em">Appearence</text>
  </g>
  <g class="guide xlabels" font-size="2.82" font-family="'PT Sans Caption','Helvetica Neue','Helvetica',sans-serif" fill="#6C606B" id="img-26f80785-3">
    <text x="22.88" y="82" text-anchor="middle" dy="0.6em">0.0</text>
    <text x="80.19" y="82" text-anchor="middle" dy="0.6em">0.5</text>
    <text x="137.5" y="82" text-anchor="middle" dy="0.6em">1.0</text>
  </g>
  <g class="guide colorkey" id="img-26f80785-4">
    <g fill="#4C404B" font-size="2.82" font-family="'PT Sans','Helvetica Neue','Helvetica',sans-serif" id="img-26f80785-5">
      <text x="143.24" y="41.27" dy="0.35em" id="img-26f80785-6" class="color_0">0</text>
      <text x="143.24" y="44.74" dy="0.35em" id="img-26f80785-7" class="color_1">1</text>
      <text x="143.24" y="48.21" dy="0.35em" id="img-26f80785-8" class="color_2">2</text>
    </g>
    <g stroke="#000000" stroke-opacity="0.000" id="img-26f80785-9">
      <rect x="140.5" y="40.4" width="1.73" height="1.73" id="img-26f80785-10" class="color_0" fill="#00BFFF"/>
      <rect x="140.5" y="43.87" width="1.73" height="1.73" id="img-26f80785-11" class="color_1" fill="#D4CA3A"/>
      <rect x="140.5" y="47.34" width="1.73" height="1.73" id="img-26f80785-12" class="color_2" fill="#FF6DAE"/>
    </g>
    <g fill="#362A35" font-size="3.88" font-family="'PT Sans','Helvetica Neue','Helvetica',sans-serif" stroke="#000000" stroke-opacity="0.000" id="img-26f80785-13">
      <text x="140.5" y="36.86" id="img-26f80785-14">n</text>
    </g>
  </g>
<g clip-path="url(#img-26f80785-15)">
  <g id="img-26f80785-16">
    <g pointer-events="visible" opacity="1" fill="#000000" fill-opacity="0.000" stroke="#000000" stroke-opacity="0.000" class="guide background" id="img-26f80785-17">
      <rect x="20.88" y="5" width="118.62" height="76" id="img-26f80785-18"/>
    </g>
    <g class="guide ygridlines xfixed" stroke-dasharray="0.5,0.5" stroke-width="0.2" stroke="#D0D0E0" id="img-26f80785-19">
      <path fill="none" d="M20.88,79 L 139.5 79" id="img-26f80785-20"/>
      <path fill="none" d="M20.88,43 L 139.5 43" id="img-26f80785-21"/>
      <path fill="none" d="M20.88,7 L 139.5 7" id="img-26f80785-22"/>
    </g>
    <g class="guide xgridlines yfixed" stroke-dasharray="0.5,0.5" stroke-width="0.2" stroke="#D0D0E0" id="img-26f80785-23">
      <path fill="none" d="M22.88,5 L 22.88 81" id="img-26f80785-24"/>
      <path fill="none" d="M80.19,5 L 80.19 81" id="img-26f80785-25"/>
      <path fill="none" d="M137.5,5 L 137.5 81" id="img-26f80785-26"/>
    </g>
    <g class="plotpanel" id="img-26f80785-27">
      <g stroke-width="0.3" fill="#000000" fill-opacity="0.000" stroke-dasharray="none" id="img-26f80785-28">
        <path fill="none" d="M25.74,46.12 L 31.47 40.81 37.21 45.38 42.94 39.54 48.67 43.44 54.4 41.72 60.13 42.07 65.86 40.57 71.59 40.82 77.32 43.45 83.06 39.13 88.79 42.94 94.52 47.07 100.25 41.37 105.98 42.12 111.71 48.6 117.44 39.85 123.17 45.2 128.9 45.44 134.64 44.38" id="img-26f80785-29" stroke="#00BFFF" class="geometry color_0"/>
        <path fill="none" d="M25.74,43.05 L 31.47 43.2 37.21 41.89 42.94 44.42 48.67 46.46 54.4 41.8 60.13 42.83 65.86 42.05 71.59 42.22 77.32 44.44 83.06 40.12 88.79 43.75 94.52 43.34 100.25 50.97 105.98 38.76 111.71 44.39 117.44 41.9 123.17 37.11 128.9 39.98 134.64 47.34" id="img-26f80785-30" stroke="#D4CA3A" class="geometry color_1"/>
        <path fill="none" d="M25.74,46.94 L 31.47 36.8 37.21 40.22 42.94 46.23 48.67 42.46 54.4 38.39 60.13 40.69 65.86 46.39 71.59 45.16 77.32 45.09 83.06 43.33 88.79 40.97 94.52 42.76 100.25 42.38 105.98 46.07 111.71 46.66 117.44 42.39 123.17 40.83 128.9 43.09 134.64 43.19" id="img-26f80785-31" stroke="#FF6DAE" class="geometry color_2"/>
      </g>
    </g>
  </g>
</g>
  <g class="guide ylabels" font-size="2.82" font-family="'PT Sans Caption','Helvetica Neue','Helvetica',sans-serif" fill="#6C606B" id="img-26f80785-32">
    <text x="19.88" y="79" text-anchor="end" dy="0.35em" id="img-26f80785-33">0.00</text>
    <text x="19.88" y="43" text-anchor="end" dy="0.35em" id="img-26f80785-34">0.05</text>
    <text x="19.88" y="7" text-anchor="end" dy="0.35em" id="img-26f80785-35">0.10</text>
  </g>
  <g font-size="3.88" font-family="'PT Sans','Helvetica Neue','Helvetica',sans-serif" fill="#564A55" stroke="#000000" stroke-opacity="0.000" id="img-26f80785-36">
    <text x="8.76" y="41" text-anchor="middle" dy="0.35em" transform="rotate(-90, 8.76, 43)" id="img-26f80785-37">Frequencia</text>
  </g>
</g>
<defs>
  <clipPath id="img-26f80785-15">
  <path d="M20.88,5 L 139.5 5 139.5 81 20.88 81" />
</clipPath>
</defs>
</svg>
