<?xml version="1.0" encoding="UTF-8"?>
<svg xmlns="http://www.w3.org/2000/svg"
     xmlns:xlink="http://www.w3.org/1999/xlink"
     xmlns:gadfly="http://www.gadflyjl.org/ns"
     version="1.2"
     width="150mm" height="100mm" viewBox="0 0 150 100"
     stroke="none"
     fill="#000000"
     stroke-width="0.3"
     font-size="3.88"
>
<g class="plotroot xscalable yscalable" id="img-4b49598e-1">
  <g font-size="3.88" font-family="'PT Sans','Helvetica Neue','Helvetica',sans-serif" fill="#564A55" stroke="#000000" stroke-opacity="0.000" id="img-4b49598e-2">
    <text x="75.25" y="88.47" text-anchor="middle" dy="0.6em">Numero Medio de Variedades por UD</text>
  </g>
  <g class="guide xlabels" font-size="2.82" font-family="'PT Sans Caption','Helvetica Neue','Helvetica',sans-serif" fill="#6C606B" id="img-4b49598e-3">
    <text x="19.35" y="82" text-anchor="middle" dy="0.6em">0</text>
    <text x="47.3" y="82" text-anchor="middle" dy="0.6em">10</text>
    <text x="75.25" y="82" text-anchor="middle" dy="0.6em">20</text>
    <text x="103.2" y="82" text-anchor="middle" dy="0.6em">30</text>
    <text x="131.15" y="82" text-anchor="middle" dy="0.6em">40</text>
  </g>
  <g class="guide colorkey" id="img-4b49598e-4">
    <g fill="#4C404B" font-size="2.82" font-family="'PT Sans','Helvetica Neue','Helvetica',sans-serif" id="img-4b49598e-5">
      <text x="136.89" y="37.8" dy="0.35em" id="img-4b49598e-6" class="color_0.005">0.005</text>
      <text x="136.89" y="41.27" dy="0.35em" id="img-4b49598e-7" class="color_0.01">0.01</text>
      <text x="136.89" y="44.74" dy="0.35em" id="img-4b49598e-8" class="color_0.02">0.02</text>
      <text x="136.89" y="48.21" dy="0.35em" id="img-4b49598e-9" class="color_0.04">0.04</text>
      <text x="136.89" y="51.68" dy="0.35em" id="img-4b49598e-10" class="color_0.08">0.08</text>
    </g>
    <g stroke="#000000" stroke-opacity="0.000" id="img-4b49598e-11">
      <rect x="134.15" y="36.93" width="1.73" height="1.73" id="img-4b49598e-12" class="color_0.005" fill="#00BFFF"/>
      <rect x="134.15" y="40.4" width="1.73" height="1.73" id="img-4b49598e-13" class="color_0.01" fill="#D4CA3A"/>
      <rect x="134.15" y="43.87" width="1.73" height="1.73" id="img-4b49598e-14" class="color_0.02" fill="#FF6DAE"/>
      <rect x="134.15" y="47.34" width="1.73" height="1.73" id="img-4b49598e-15" class="color_0.04" fill="#00B78D"/>
      <rect x="134.15" y="50.81" width="1.73" height="1.73" id="img-4b49598e-16" class="color_0.08" fill="#BEA9FF"/>
    </g>
    <g fill="#362A35" font-size="3.88" font-family="'PT Sans','Helvetica Neue','Helvetica',sans-serif" stroke="#000000" stroke-opacity="0.000" id="img-4b49598e-17">
      <text x="134.15" y="33.39" id="img-4b49598e-18">o</text>
    </g>
  </g>
<g clip-path="url(#img-4b49598e-19)">
  <g id="img-4b49598e-20">
    <g pointer-events="visible" opacity="1" fill="#000000" fill-opacity="0.000" stroke="#000000" stroke-opacity="0.000" class="guide background" id="img-4b49598e-21">
      <rect x="17.35" y="5" width="115.8" height="76" id="img-4b49598e-22"/>
    </g>
    <g class="guide ygridlines xfixed" stroke-dasharray="0.5,0.5" stroke-width="0.2" stroke="#D0D0E0" id="img-4b49598e-23">
      <path fill="none" d="M17.35,79 L 133.15 79" id="img-4b49598e-24"/>
      <path fill="none" d="M17.35,67 L 133.15 67" id="img-4b49598e-25"/>
      <path fill="none" d="M17.35,55 L 133.15 55" id="img-4b49598e-26"/>
      <path fill="none" d="M17.35,43 L 133.15 43" id="img-4b49598e-27"/>
      <path fill="none" d="M17.35,31 L 133.15 31" id="img-4b49598e-28"/>
      <path fill="none" d="M17.35,19 L 133.15 19" id="img-4b49598e-29"/>
      <path fill="none" d="M17.35,7 L 133.15 7" id="img-4b49598e-30"/>
    </g>
    <g class="guide xgridlines yfixed" stroke-dasharray="0.5,0.5" stroke-width="0.2" stroke="#D0D0E0" id="img-4b49598e-31">
      <path fill="none" d="M19.35,5 L 19.35 81" id="img-4b49598e-32"/>
      <path fill="none" d="M47.3,5 L 47.3 81" id="img-4b49598e-33"/>
      <path fill="none" d="M75.25,5 L 75.25 81" id="img-4b49598e-34"/>
      <path fill="none" d="M103.2,5 L 103.2 81" id="img-4b49598e-35"/>
      <path fill="none" d="M131.15,5 L 131.15 81" id="img-4b49598e-36"/>
    </g>
    <g class="plotpanel" id="img-4b49598e-37">
      <g stroke-width="0.3" fill="#000000" fill-opacity="0.000" stroke-dasharray="none" id="img-4b49598e-38">
        <path fill="none" d="M22.94,61.32 L 22.94 61.31 22.94 61.29 22.94 61.33 22.94 61.32 22.95 61.31 22.95 61.25 22.95 61.17 22.97 61.1 22.97 61.04 22.99 60.98 22.99 61 22.99 60.9 23 60.95 23.01 60.8 23.02 60.55 23.08 60.01 23.15 59.59 23.22 59.44 23.22 59.37 23.24 59.31 23.24 59.19 23.28 58.96 23.31 58.36 23.45 56.44 23.92 50.64 25.53 40.22 29.21 29.88 34.9 23.23 41.43 20.31 48.07 19.24 54.65 18.98 61.21 18.94 67.7 18.94 74.2 18.94 80.74 18.94 87.29 18.95 93.92 18.97 100.62 18.99 107.26 19" id="img-4b49598e-39" stroke="#00B78D" class="geometry color_0.04"/>
        <path fill="none" d="M23.46,62.59 L 23.47 62.62 23.47 62.54 23.47 62.56 23.47 62.46 23.48 62.51 23.49 62.38 23.5 62.31 23.52 62.17 23.54 61.99 23.58 61.78 23.61 61.46 23.68 61.02 23.76 60.33 23.9 59.32 24.08 57.94 24.37 56.22 24.74 53.93 25.27 51.17 25.98 48 26.94 44.37 28.23 40.48 29.84 36.77 31.78 33 34.09 29.51 36.84 26.3 40.1 23.38 43.77 21.35 47.79 19.94 52.09 19.24 56.6 18.99 61.37 18.92 66.36 18.91 71.62 18.91 77.12 18.93 82.89 18.93 88.93 18.96 95.1 18.98 101.5 18.99 107.18 19" id="img-4b49598e-40" stroke="#00BFFF" class="geometry color_0.005"/>
        <path fill="none" d="M22.72,60.78 L 22.72 60.78 22.72 60.76 22.72 60.79 22.72 60.78 22.72 60.77 22.73 60.73 22.73 60.69 22.73 60.66 22.73 60.64 22.73 60.65 22.73 60.67 22.74 60.66 22.74 60.65 22.74 60.56 22.75 60.39 22.78 60.07 22.82 59.9 22.84 59.85 22.84 59.85 22.84 59.85 22.84 59.85 22.84 59.82 22.84 59.67 22.9 58.53 23.22 53.65 24.66 42.86 28.4 31.54 34.1 23.96 40.68 20.48 47.46 19.24 54.18 18.92 60.82 18.89 67.43 18.89 74.03 18.91 80.64 18.92 87.23 18.94 93.81 18.95 100.49 19 107.22 19" id="img-4b49598e-41" stroke="#BEA9FF" class="geometry color_0.08"/>
        <path fill="none" d="M23.3,62.66 L 23.3 62.64 23.3 62.62 23.31 62.61 23.31 62.57 23.31 62.53 23.32 62.48 23.33 62.43 23.34 62.35 23.35 62.26 23.37 62.14 23.39 61.92 23.43 61.61 23.47 61.19 23.53 60.72 23.61 60.06 23.72 59.2 23.86 58.11 24.06 56.74 24.33 54.87 24.7 52.68 25.23 49.67 25.98 46.09 27.1 41.6 28.77 36.69 31.26 31.46 34.63 26.76 38.83 22.9 43.57 20.5 48.56 19.35 53.77 19 59.14 18.92 64.6 18.89 70.23 18.91 76.08 18.91 82.14 18.93 88.38 18.94 94.76 18.98 101.27 19 107.18 19" id="img-4b49598e-42" stroke="#D4CA3A" class="geometry color_0.01"/>
        <path fill="none" d="M23.12,62.5 L 23.12 62.49 23.13 62.47 23.13 62.49 23.13 62.48 23.14 62.43 23.14 62.36 23.16 62.28 23.16 62.2 23.18 62.12 23.19 61.98 23.22 61.89 23.23 61.76 23.25 61.6 23.27 61.31 23.32 60.82 23.39 60.26 23.49 59.67 23.58 59.05 23.68 58.4 23.79 57.61 23.94 56.61 24.15 55.21 24.5 52.76 25.12 48.71 26.39 41.91 28.86 33.53 33.04 26.27 38.48 21.7 44.46 19.78 50.57 19.07 56.67 18.92 62.78 18.91 68.9 18.9 75.1 18.9 81.41 18.92 87.82 18.95 94.34 18.98 100.94 18.99 107.2 19" id="img-4b49598e-43" stroke="#FF6DAE" class="geometry color_0.02"/>
      </g>
    </g>
  </g>
</g>
  <g class="guide ylabels" font-size="2.82" font-family="'PT Sans Caption','Helvetica Neue','Helvetica',sans-serif" fill="#6C606B" id="img-4b49598e-44">
    <text x="16.35" y="79" text-anchor="end" dy="0.35em" id="img-4b49598e-45">0</text>
    <text x="16.35" y="67" text-anchor="end" dy="0.35em" id="img-4b49598e-46">10</text>
    <text x="16.35" y="55" text-anchor="end" dy="0.35em" id="img-4b49598e-47">20</text>
    <text x="16.35" y="43" text-anchor="end" dy="0.35em" id="img-4b49598e-48">30</text>
    <text x="16.35" y="31" text-anchor="end" dy="0.35em" id="img-4b49598e-49">40</text>
    <text x="16.35" y="19" text-anchor="end" dy="0.35em" id="img-4b49598e-50">50</text>
    <text x="16.35" y="7" text-anchor="end" dy="0.35em" id="img-4b49598e-51">60</text>
  </g>
  <g font-size="3.88" font-family="'PT Sans','Helvetica Neue','Helvetica',sans-serif" fill="#564A55" stroke="#000000" stroke-opacity="0.000" id="img-4b49598e-52">
    <text x="8.41" y="41" text-anchor="middle" dy="0.35em" transform="rotate(-90, 8.41, 43)" id="img-4b49598e-53">Numero de Variedades</text>
  </g>
</g>
<defs>
  <clipPath id="img-4b49598e-19">
  <path d="M17.35,5 L 133.15 5 133.15 81 17.35 81" />
</clipPath>
</defs>
</svg>
