<?xml version="1.0" encoding="UTF-8"?>
<svg xmlns="http://www.w3.org/2000/svg"
     xmlns:xlink="http://www.w3.org/1999/xlink"
     xmlns:gadfly="http://www.gadflyjl.org/ns"
     version="1.2"
     width="150mm" height="100mm" viewBox="0 0 150 100"
     stroke="none"
     fill="#000000"
     stroke-width="0.3"
     font-size="3.88"
>
<g class="plotroot xscalable yscalable" id="img-2beee2cf-1">
  <g font-size="3.88" font-family="'PT Sans','Helvetica Neue','Helvetica',sans-serif" fill="#564A55" stroke="#000000" stroke-opacity="0.000" id="img-2beee2cf-2">
    <text x="77.54" y="88.47" text-anchor="middle" dy="0.6em">Numero Medio de Variedades por UD</text>
  </g>
  <g class="guide xlabels" font-size="2.82" font-family="'PT Sans Caption','Helvetica Neue','Helvetica',sans-serif" fill="#6C606B" id="img-2beee2cf-3">
    <text x="21.11" y="82" text-anchor="middle" dy="0.6em">0</text>
    <text x="49.33" y="82" text-anchor="middle" dy="0.6em">10</text>
    <text x="77.54" y="82" text-anchor="middle" dy="0.6em">20</text>
    <text x="105.76" y="82" text-anchor="middle" dy="0.6em">30</text>
    <text x="133.97" y="82" text-anchor="middle" dy="0.6em">40</text>
  </g>
  <g class="guide colorkey" id="img-2beee2cf-4">
    <g fill="#4C404B" font-size="2.82" font-family="'PT Sans','Helvetica Neue','Helvetica',sans-serif" id="img-2beee2cf-5">
      <text x="139.71" y="37.8" dy="0.35em" id="img-2beee2cf-6" class="color_10">10</text>
      <text x="139.71" y="41.27" dy="0.35em" id="img-2beee2cf-7" class="color_25">25</text>
      <text x="139.71" y="44.74" dy="0.35em" id="img-2beee2cf-8" class="color_50">50</text>
      <text x="139.71" y="48.21" dy="0.35em" id="img-2beee2cf-9" class="color_75">75</text>
      <text x="139.71" y="51.68" dy="0.35em" id="img-2beee2cf-10" class="color_100">100</text>
    </g>
    <g stroke="#000000" stroke-opacity="0.000" id="img-2beee2cf-11">
      <rect x="136.97" y="36.93" width="1.73" height="1.73" id="img-2beee2cf-12" class="color_10" fill="#00BFFF"/>
      <rect x="136.97" y="40.4" width="1.73" height="1.73" id="img-2beee2cf-13" class="color_25" fill="#D4CA3A"/>
      <rect x="136.97" y="43.87" width="1.73" height="1.73" id="img-2beee2cf-14" class="color_50" fill="#FF6DAE"/>
      <rect x="136.97" y="47.34" width="1.73" height="1.73" id="img-2beee2cf-15" class="color_75" fill="#00B78D"/>
      <rect x="136.97" y="50.81" width="1.73" height="1.73" id="img-2beee2cf-16" class="color_100" fill="#BEA9FF"/>
    </g>
    <g fill="#362A35" font-size="3.88" font-family="'PT Sans','Helvetica Neue','Helvetica',sans-serif" stroke="#000000" stroke-opacity="0.000" id="img-2beee2cf-17">
      <text x="136.97" y="33.39" id="img-2beee2cf-18">v</text>
    </g>
  </g>
<g clip-path="url(#img-2beee2cf-19)">
  <g id="img-2beee2cf-20">
    <g pointer-events="visible" opacity="1" fill="#000000" fill-opacity="0.000" stroke="#000000" stroke-opacity="0.000" class="guide background" id="img-2beee2cf-21">
      <rect x="19.11" y="5" width="116.86" height="76" id="img-2beee2cf-22"/>
    </g>
    <g class="guide ygridlines xfixed" stroke-dasharray="0.5,0.5" stroke-width="0.2" stroke="#D0D0E0" id="img-2beee2cf-23">
      <path fill="none" d="M19.11,79 L 135.97 79" id="img-2beee2cf-24"/>
      <path fill="none" d="M19.11,55 L 135.97 55" id="img-2beee2cf-25"/>
      <path fill="none" d="M19.11,31 L 135.97 31" id="img-2beee2cf-26"/>
      <path fill="none" d="M19.11,7 L 135.97 7" id="img-2beee2cf-27"/>
    </g>
    <g class="guide xgridlines yfixed" stroke-dasharray="0.5,0.5" stroke-width="0.2" stroke="#D0D0E0" id="img-2beee2cf-28">
      <path fill="none" d="M21.11,5 L 21.11 81" id="img-2beee2cf-29"/>
      <path fill="none" d="M49.33,5 L 49.33 81" id="img-2beee2cf-30"/>
      <path fill="none" d="M77.54,5 L 77.54 81" id="img-2beee2cf-31"/>
      <path fill="none" d="M105.76,5 L 105.76 81" id="img-2beee2cf-32"/>
      <path fill="none" d="M133.97,5 L 133.97 81" id="img-2beee2cf-33"/>
    </g>
    <g class="plotpanel" id="img-2beee2cf-34">
      <g stroke-width="0.3" fill="#000000" fill-opacity="0.000" stroke-dasharray="none" id="img-2beee2cf-35">
        <path fill="none" d="M24.92,71.44 L 24.92 71.43 24.92 71.41 24.92 71.44 24.92 71.43 24.93 71.38 24.94 71.32 24.97 71.25 24.99 71.19 25.01 71.14 25.02 71.1 25.05 71.04 25.06 70.97 25.09 70.87 25.11 70.72 25.18 70.48 25.27 70.14 25.39 69.85 25.48 69.62 25.55 69.37 25.63 69.07 25.73 68.65 25.89 68.01 26.17 66.69 26.78 64.13 28.23 59.64 31.41 53.81 36.72 48.52 43.47 45.2 50.67 43.68 57.84 43.15 64.95 43 72.02 42.97 79.07 42.96 86.17 42.97 93.38 42.97 100.72 42.98 108.19 42.99 115.81 43 123.1 43" id="img-2beee2cf-36" stroke="#00B78D" class="geometry color_75"/>
        <path fill="none" d="M24.94,75.61 L 24.94 75.6 24.94 75.61 24.94 75.61 24.94 75.6 24.94 75.6 24.95 75.6 24.95 75.61 24.95 75.61 24.96 75.61 24.96 75.61 24.96 75.59 24.96 75.61 24.96 75.6 24.97 75.6 24.98 75.58 24.99 75.56 25.04 75.52 25.06 75.48 25.15 75.4 25.24 75.31 25.41 75.19 25.63 75.05 26.01 74.89 26.46 74.71 27.1 74.55 27.88 74.4 28.88 74.29 30.06 74.23 31.39 74.19 32.81 74.17 34.34 74.17 35.95 74.17 37.68 74.17 39.5 74.17 41.45 74.18 43.47 74.19 45.57 74.2 47.73 74.2 49.17 74.2" id="img-2beee2cf-37" stroke="#00BFFF" class="geometry color_10"/>
        <path fill="none" d="M24.85,70.98 L 24.85 70.97 24.86 70.94 24.86 70.97 24.87 70.97 24.88 70.9 24.89 70.81 24.93 70.68 24.96 70.6 24.99 70.53 25 70.48 25.03 70.43 25.03 70.38 25.06 70.26 25.09 70.03 25.18 69.7 25.29 69.26 25.44 68.93 25.52 68.72 25.58 68.52 25.63 68.28 25.71 67.87 25.83 67.15 26.09 65.64 26.71 62.19 28.34 55.52 32.01 46.66 38.17 39 45.68 34.3 53.49 32.2 61.24 31.33 68.88 31.06 76.46 30.98 83.99 30.96 91.53 30.97 99.17 30.97 106.99 30.98 114.97 30.98 123.09 31 130.9 31" id="img-2beee2cf-38" stroke="#BEA9FF" class="geometry color_100"/>
        <path fill="none" d="M24.98,73.81 L 24.98 73.81 24.98 73.81 24.98 73.8 24.99 73.79 24.99 73.81 24.99 73.81 25 73.81 25 73.76 25 73.8 25.01 73.78 25.02 73.72 25.02 73.74 25.05 73.69 25.05 73.64 25.09 73.58 25.12 73.48 25.2 73.35 25.27 73.19 25.4 72.98 25.55 72.77 25.79 72.46 26.08 72.06 26.54 71.51 27.16 70.76 28.21 69.84 29.84 68.82 32.35 67.93 35.6 67.33 39.29 67.08 43.16 66.99 47.16 66.96 51.26 66.96 55.44 66.96 59.73 66.97 64.09 66.97 68.58 66.98 73.18 66.99 77.84 67 82.1 67" id="img-2beee2cf-39" stroke="#D4CA3A" class="geometry color_25"/>
        <path fill="none" d="M24.93,72.41 L 24.93 72.4 24.93 72.4 24.94 72.39 24.94 72.38 24.94 72.37 24.95 72.34 24.96 72.3 24.98 72.27 24.99 72.22 25.01 72.17 25.03 72.12 25.04 72.08 25.06 72.02 25.09 71.9 25.14 71.74 25.21 71.5 25.32 71.23 25.42 70.94 25.54 70.65 25.65 70.28 25.84 69.86 26.06 69.25 26.44 68.26 27.09 66.67 28.41 64.02 30.94 60.78 35.14 57.83 40.62 56.06 46.65 55.28 52.78 55.02 58.9 54.97 65.01 54.96 71.15 54.96 77.38 54.96 83.71 54.96 90.16 54.97 96.74 54.98 103.38 55 109.69 55" id="img-2beee2cf-40" stroke="#FF6DAE" class="geometry color_50"/>
      </g>
    </g>
  </g>
</g>
  <g class="guide ylabels" font-size="2.82" font-family="'PT Sans Caption','Helvetica Neue','Helvetica',sans-serif" fill="#6C606B" id="img-2beee2cf-41">
    <text x="18.11" y="79" text-anchor="end" dy="0.35em" id="img-2beee2cf-42">0</text>
    <text x="18.11" y="55" text-anchor="end" dy="0.35em" id="img-2beee2cf-43">50</text>
    <text x="18.11" y="31" text-anchor="end" dy="0.35em" id="img-2beee2cf-44">100</text>
    <text x="18.11" y="7" text-anchor="end" dy="0.35em" id="img-2beee2cf-45">150</text>
  </g>
  <g font-size="3.88" font-family="'PT Sans','Helvetica Neue','Helvetica',sans-serif" fill="#564A55" stroke="#000000" stroke-opacity="0.000" id="img-2beee2cf-46">
    <text x="8.41" y="41" text-anchor="middle" dy="0.35em" transform="rotate(-90, 8.41, 43)" id="img-2beee2cf-47">Numero de Variedades</text>
  </g>
</g>
<defs>
  <clipPath id="img-2beee2cf-19">
  <path d="M19.11,5 L 135.97 5 135.97 81 19.11 81" />
</clipPath>
</defs>
</svg>
