<?xml version="1.0" encoding="UTF-8"?>
<svg xmlns="http://www.w3.org/2000/svg"
     xmlns:xlink="http://www.w3.org/1999/xlink"
     xmlns:gadfly="http://www.gadflyjl.org/ns"
     version="1.2"
     width="200mm" height="100mm" viewBox="0 0 200 100"
     stroke="none"
     fill="#000000"
     stroke-width="0.3"
     font-size="3.88"
>
<g class="plotroot xscalable yscalable" id="img-1f6da30c-1">
  <g font-size="3.88" font-family="'PT Sans','Helvetica Neue','Helvetica',sans-serif" fill="#564A55" stroke="#000000" stroke-opacity="0.000" id="img-1f6da30c-2">
    <text x="74.35" y="89.18" text-anchor="middle" dy="0.6em">Time</text>
  </g>
  <g class="guide xlabels" font-size="2.82" font-family="'PT Sans Caption','Helvetica Neue','Helvetica',sans-serif" fill="#6C606B" id="img-1f6da30c-3">
    <text x="12.53" y="82.71" text-anchor="middle" dy="0.6em">0.000</text>
    <text x="74.35" y="82.71" text-anchor="middle" dy="0.6em">0.005</text>
    <text x="136.17" y="82.71" text-anchor="middle" dy="0.6em">0.010</text>
  </g>
  <g class="guide colorkey" id="img-1f6da30c-4">
    <g fill="#4C404B" font-size="2.82" font-family="'PT Sans','Helvetica Neue','Helvetica',sans-serif" id="img-1f6da30c-5">
      <text x="142.44" y="43.35" dy="0.35em">Número de Variedades</text>
      <text x="142.44" y="47.88" dy="0.35em">Número Médio de Variedades por UD</text>
    </g>
    <g stroke="#000000" stroke-opacity="0.000" id="img-1f6da30c-6">
      <rect x="139.17" y="42.22" width="2.26" height="2.26" fill="#008000"/>
      <rect x="139.17" y="46.75" width="2.26" height="2.26" fill="#FF0000"/>
    </g>
    <g fill="#362A35" font-size="3.88" font-family="'PT Sans','Helvetica Neue','Helvetica',sans-serif" stroke="#000000" stroke-opacity="0.000" id="img-1f6da30c-7">
      <text x="139.17" y="36.83"></text>
    </g>
  </g>
<g clip-path="url(#img-1f6da30c-8)">
  <g id="img-1f6da30c-9">
    <g pointer-events="visible" opacity="1" fill="#000000" fill-opacity="0.000" stroke="#000000" stroke-opacity="0.000" class="guide background" id="img-1f6da30c-10">
      <rect x="10.53" y="5" width="127.64" height="76.71"/>
    </g>
    <g class="guide ygridlines xfixed" stroke-dasharray="0.5,0.5" stroke-width="0.2" stroke="#D0D0E0" id="img-1f6da30c-11">
      <path fill="none" d="M10.53,79.71 L 138.17 79.71"/>
      <path fill="none" d="M10.53,67.59 L 138.17 67.59"/>
      <path fill="none" d="M10.53,55.47 L 138.17 55.47"/>
      <path fill="none" d="M10.53,43.35 L 138.17 43.35"/>
      <path fill="none" d="M10.53,31.24 L 138.17 31.24"/>
      <path fill="none" d="M10.53,19.12 L 138.17 19.12"/>
      <path fill="none" d="M10.53,7 L 138.17 7"/>
    </g>
    <g class="guide xgridlines yfixed" stroke-dasharray="0.5,0.5" stroke-width="0.2" stroke="#D0D0E0" id="img-1f6da30c-12">
      <path fill="none" d="M12.53,5 L 12.53 81.71"/>
      <path fill="none" d="M74.35,5 L 74.35 81.71"/>
      <path fill="none" d="M136.17,5 L 136.17 81.71"/>
    </g>
    <g class="plotpanel" id="img-1f6da30c-13">
      <g stroke-width="0.3" fill="#000000" fill-opacity="0.000" class="geometry" stroke-dasharray="none" stroke="#FF0000" id="img-1f6da30c-14">
        <path fill="none" d="M13.76,78.11 L 18.71 78.09 24.89 78.06 31.07 78.05 37.26 77.99 43.44 77.18 49.62 56.89 55.8 48.51 61.99 47.48 68.17 47.06 74.35 46.63 105.26 45.24 136.17 44.51"/>
      </g>
      <g stroke-width="0.3" fill="#000000" fill-opacity="0.000" class="geometry" stroke-dasharray="none" stroke="#008000" id="img-1f6da30c-15">
        <path fill="none" d="M13.76,63.79 L 18.71 63.86 24.89 62.65 31.07 63.36 37.26 62.19 43.44 60.17 49.62 28.47 55.8 18.29 61.99 18.11 68.17 18.24 74.35 18.16 105.26 18.07 136.17 18.07"/>
      </g>
    </g>
  </g>
</g>
  <g class="guide ylabels" font-size="2.82" font-family="'PT Sans Caption','Helvetica Neue','Helvetica',sans-serif" fill="#6C606B" id="img-1f6da30c-16">
    <text x="9.53" y="79.71" text-anchor="end" dy="0.35em">0</text>
    <text x="9.53" y="67.59" text-anchor="end" dy="0.35em">10</text>
    <text x="9.53" y="55.47" text-anchor="end" dy="0.35em">20</text>
    <text x="9.53" y="43.35" text-anchor="end" dy="0.35em">30</text>
    <text x="9.53" y="31.24" text-anchor="end" dy="0.35em">40</text>
    <text x="9.53" y="19.12" text-anchor="end" dy="0.35em">50</text>
    <text x="9.53" y="7" text-anchor="end" dy="0.35em">60</text>
  </g>
</g>
<defs>
  <clipPath id="img-1f6da30c-8">
  <path d="M10.53,5 L 138.17 5 138.17 81.71 10.53 81.71" />
</clipPath>
</defs>
</svg>
