<?xml version="1.0" encoding="UTF-8"?>
<svg xmlns="http://www.w3.org/2000/svg"
     xmlns:xlink="http://www.w3.org/1999/xlink"
     xmlns:gadfly="http://www.gadflyjl.org/ns"
     version="1.2"
     width="150mm" height="100mm" viewBox="0 0 150 100"
     stroke="none"
     fill="#000000"
     stroke-width="0.3"
     font-size="3.88"
>
<g class="plotroot xscalable yscalable" id="img-4d4d27fc-1">
  <g font-size="3.88" font-family="'PT Sans','Helvetica Neue','Helvetica',sans-serif" fill="#564A55" stroke="#000000" stroke-opacity="0.000" id="img-4d4d27fc-2">
    <text x="77.54" y="88.47" text-anchor="middle" dy="0.6em">Numero Medio de Variedades por UD</text>
  </g>
  <g class="guide xlabels" font-size="2.82" font-family="'PT Sans Caption','Helvetica Neue','Helvetica',sans-serif" fill="#6C606B" id="img-4d4d27fc-3">
    <text x="21.11" y="82" text-anchor="middle" dy="0.6em">0</text>
    <text x="49.33" y="82" text-anchor="middle" dy="0.6em">5</text>
    <text x="77.54" y="82" text-anchor="middle" dy="0.6em">10</text>
    <text x="105.76" y="82" text-anchor="middle" dy="0.6em">15</text>
    <text x="133.97" y="82" text-anchor="middle" dy="0.6em">20</text>
  </g>
  <g class="guide colorkey" id="img-4d4d27fc-4">
    <g fill="#4C404B" font-size="2.82" font-family="'PT Sans','Helvetica Neue','Helvetica',sans-serif" id="img-4d4d27fc-5">
      <text x="139.71" y="36.06" dy="0.35em" id="img-4d4d27fc-6" class="color_25">25</text>
      <text x="139.71" y="39.53" dy="0.35em" id="img-4d4d27fc-7" class="color_36">36</text>
      <text x="139.71" y="43" dy="0.35em" id="img-4d4d27fc-8" class="color_49">49</text>
      <text x="139.71" y="46.47" dy="0.35em" id="img-4d4d27fc-9" class="color_64">64</text>
      <text x="139.71" y="49.94" dy="0.35em" id="img-4d4d27fc-10" class="color_81">81</text>
      <text x="139.71" y="53.41" dy="0.35em" id="img-4d4d27fc-11" class="color_100">100</text>
    </g>
    <g stroke="#000000" stroke-opacity="0.000" id="img-4d4d27fc-12">
      <rect x="136.97" y="35.2" width="1.73" height="1.73" id="img-4d4d27fc-13" class="color_25" fill="#00BFFF"/>
      <rect x="136.97" y="38.66" width="1.73" height="1.73" id="img-4d4d27fc-14" class="color_36" fill="#D4CA3A"/>
      <rect x="136.97" y="42.13" width="1.73" height="1.73" id="img-4d4d27fc-15" class="color_49" fill="#FF6DAE"/>
      <rect x="136.97" y="45.6" width="1.73" height="1.73" id="img-4d4d27fc-16" class="color_64" fill="#00B78D"/>
      <rect x="136.97" y="49.07" width="1.73" height="1.73" id="img-4d4d27fc-17" class="color_81" fill="#BEA9FF"/>
      <rect x="136.97" y="52.54" width="1.73" height="1.73" id="img-4d4d27fc-18" class="color_100" fill="#FF6765"/>
    </g>
    <g fill="#362A35" font-size="3.88" font-family="'PT Sans','Helvetica Neue','Helvetica',sans-serif" stroke="#000000" stroke-opacity="0.000" id="img-4d4d27fc-19">
      <text x="136.97" y="32" id="img-4d4d27fc-20">L</text>
    </g>
  </g>
<g clip-path="url(#img-4d4d27fc-21)">
  <g id="img-4d4d27fc-22">
    <g pointer-events="visible" opacity="1" fill="#000000" fill-opacity="0.000" stroke="#000000" stroke-opacity="0.000" class="guide background" id="img-4d4d27fc-23">
      <rect x="19.11" y="5" width="116.86" height="76" id="img-4d4d27fc-24"/>
    </g>
    <g class="guide ygridlines xfixed" stroke-dasharray="0.5,0.5" stroke-width="0.2" stroke="#D0D0E0" id="img-4d4d27fc-25">
      <path fill="none" d="M19.11,79 L 135.97 79" id="img-4d4d27fc-26"/>
      <path fill="none" d="M19.11,43 L 135.97 43" id="img-4d4d27fc-27"/>
      <path fill="none" d="M19.11,7 L 135.97 7" id="img-4d4d27fc-28"/>
    </g>
    <g class="guide xgridlines yfixed" stroke-dasharray="0.5,0.5" stroke-width="0.2" stroke="#D0D0E0" id="img-4d4d27fc-29">
      <path fill="none" d="M21.11,5 L 21.11 81" id="img-4d4d27fc-30"/>
      <path fill="none" d="M49.33,5 L 49.33 81" id="img-4d4d27fc-31"/>
      <path fill="none" d="M77.54,5 L 77.54 81" id="img-4d4d27fc-32"/>
      <path fill="none" d="M105.76,5 L 105.76 81" id="img-4d4d27fc-33"/>
      <path fill="none" d="M133.97,5 L 133.97 81" id="img-4d4d27fc-34"/>
    </g>
    <g class="plotpanel" id="img-4d4d27fc-35">
      <g stroke-width="0.3" fill="#000000" fill-opacity="0.000" stroke-dasharray="none" id="img-4d4d27fc-36">
        <path fill="none" d="M26.76,28.1 L 32.4 61.04 38.04 77.13 43.69 78.34 49.33 78.71 54.97 78.87 60.61 78.92 66.26 78.96 71.9 78.98 77.54 78.99 83.19 79 88.83 79 94.47 79 100.12 79 105.76 79 111.4 79 117.04 79 122.69 79 128.33 79 133.97 79 139.62 79 145.26 79 150.9 79 156.55 79 162.19 79 167.83 79 173.47 79 179.12 79 184.76 79 190.4 79 196.05 79 201.69 79 207.33 79 212.98 79 218.62 79 224.26 79 229.9 79 235.55 79 241.19 79 246.83 79 252.48 79 258.12 79 263.76 79 269.41 79 275.05 79 280.69 79 286.33 79 291.98 79 297.62 79" id="img-4d4d27fc-37" stroke="#00B78D" class="geometry color_64"/>
        <path fill="none" d="M26.76,25.74 L 32.4 62.18 38.04 77.86 43.69 78.52 49.33 78.82 54.97 78.94 60.61 78.97 66.26 78.99 71.9 79 77.54 79 83.19 79 88.83 79 94.47 79 100.12 79 105.76 79 111.4 79 117.04 79 122.69 79 128.33 79 133.97 79 139.62 79 145.26 79 150.9 79 156.55 79 162.19 79 167.83 79 173.47 79 179.12 79 184.76 79 190.4 79 196.05 79 201.69 79 207.33 79 212.98 79 218.62 79 224.26 79 229.9 79 235.55 78.92 241.19 79 246.83 79 252.48 79 258.12 79 263.76 79 269.41 79 275.05 79 280.69 78.92 286.33 79 291.98 79 297.62 79" id="img-4d4d27fc-38" stroke="#00BFFF" class="geometry color_25"/>
        <path fill="none" d="M26.76,29.64 L 32.4 60.15 38.04 76.82 43.69 78.22 49.33 78.63 54.97 78.82 60.61 78.9 66.26 78.94 71.9 78.95 77.54 78.98 83.19 78.99 88.83 79 94.47 79 100.12 79 105.76 79 111.4 79 117.04 79 122.69 79 128.33 79 133.97 79 139.62 79 145.26 79 150.9 79 156.55 79 162.19 79 167.83 79 173.47 79 179.12 79 184.76 79 190.4 79 196.05 79 201.69 79 207.33 79 212.98 79 218.62 79 224.26 79 229.9 79 235.55 79 241.19 79 246.83 79 252.48 79 258.12 79 263.76 79 269.41 79 275.05 79 280.69 79 286.33 79 291.98 79 297.62 79" id="img-4d4d27fc-39" stroke="#BEA9FF" class="geometry color_81"/>
        <path fill="none" d="M26.76,27.72 L 32.4 60.66 38.04 77.64 43.69 78.49 49.33 78.77 54.97 78.87 60.61 78.95 66.26 78.97 71.9 78.97 77.54 79 83.19 79 88.83 79 94.47 78.99 100.12 79 105.76 79 111.4 79 117.04 79 122.69 79 128.33 79 133.97 79 139.62 79 145.26 79 150.9 79 156.55 79 162.19 79 167.83 79 173.47 79 179.12 79 184.76 79 190.4 79 196.05 79 201.69 79 207.33 79 212.98 79 218.62 79 224.26 79 229.9 79 235.55 79 241.19 79 246.83 79 252.48 79 258.12 79 263.76 79 269.41 79 275.05 79 280.69 79 286.33 79 291.98 79 297.62 78.98" id="img-4d4d27fc-40" stroke="#D4CA3A" class="geometry color_36"/>
        <path fill="none" d="M26.76,31.29 L 32.4 59.61 38.04 76.57 43.69 77.96 49.33 78.44 54.97 78.69 60.61 78.76 66.26 78.9 71.9 78.92 77.54 78.96 83.19 78.97 88.83 78.98 94.47 78.99 100.12 79 105.76 79 111.4 79 117.04 79 122.69 79 128.33 79 133.97 79 139.62 79 145.26 79 150.9 79 156.55 79 162.19 79 167.83 79 173.47 79 179.12 79 184.76 79 190.4 79 196.05 79 201.69 79 207.33 79 212.98 79 218.62 79 224.26 79 229.9 79 235.55 79 241.19 79 246.83 79 252.48 79 258.12 79 263.76 79 269.41 79 275.05 79 280.69 79 286.33 79 291.98 79 297.62 79" id="img-4d4d27fc-41" stroke="#FF6765" class="geometry color_100"/>
        <path fill="none" d="M26.76,27.39 L 32.4 61.04 38.04 77.65 43.69 78.46 49.33 78.71 54.97 78.91 60.61 78.94 66.26 78.96 71.9 79 77.54 78.99 83.19 78.99 88.83 79 94.47 78.99 100.12 79 105.76 79 111.4 79 117.04 79 122.69 79 128.33 79 133.97 79 139.62 79 145.26 79 150.9 79 156.55 79 162.19 79 167.83 79 173.47 79 179.12 79 184.76 79 190.4 79 196.05 79 201.69 79 207.33 79 212.98 79 218.62 79 224.26 79 229.9 79 235.55 79 241.19 79 246.83 79 252.48 79 258.12 79 263.76 79 269.41 79 275.05 79 280.69 79 286.33 79 291.98 79 297.62 79" id="img-4d4d27fc-42" stroke="#FF6DAE" class="geometry color_49"/>
      </g>
    </g>
  </g>
</g>
  <g class="guide ylabels" font-size="2.82" font-family="'PT Sans Caption','Helvetica Neue','Helvetica',sans-serif" fill="#6C606B" id="img-4d4d27fc-43">
    <text x="18.11" y="79" text-anchor="end" dy="0.35em" id="img-4d4d27fc-44">0.0</text>
    <text x="18.11" y="43" text-anchor="end" dy="0.35em" id="img-4d4d27fc-45">0.5</text>
    <text x="18.11" y="7" text-anchor="end" dy="0.35em" id="img-4d4d27fc-46">1.0</text>
  </g>
  <g font-size="3.88" font-family="'PT Sans','Helvetica Neue','Helvetica',sans-serif" fill="#564A55" stroke="#000000" stroke-opacity="0.000" id="img-4d4d27fc-47">
    <text x="8.76" y="41" text-anchor="middle" dy="0.35em" transform="rotate(-90, 8.76, 43)" id="img-4d4d27fc-48">Frequencia</text>
  </g>
</g>
<defs>
  <clipPath id="img-4d4d27fc-21">
  <path d="M19.11,5 L 135.97 5 135.97 81 19.11 81" />
</clipPath>
</defs>
</svg>
