<?xml version="1.0" encoding="UTF-8"?>
<svg xmlns="http://www.w3.org/2000/svg"
     xmlns:xlink="http://www.w3.org/1999/xlink"
     xmlns:gadfly="http://www.gadflyjl.org/ns"
     version="1.2"
     width="200mm" height="100mm" viewBox="0 0 200 100"
     stroke="none"
     fill="#000000"
     stroke-width="0.3"
     font-size="3.88"
>
<g class="plotroot xscalable yscalable" id="img-46fe19dc-1">
  <g font-size="3.88" font-family="'PT Sans','Helvetica Neue','Helvetica',sans-serif" fill="#564A55" stroke="#000000" stroke-opacity="0.000" id="img-46fe19dc-2">
    <text x="74.35" y="89.18" text-anchor="middle" dy="0.6em">Time</text>
  </g>
  <g class="guide xlabels" font-size="2.82" font-family="'PT Sans Caption','Helvetica Neue','Helvetica',sans-serif" fill="#6C606B" id="img-46fe19dc-3">
    <text x="12.53" y="82.71" text-anchor="middle" dy="0.6em">0.0</text>
    <text x="74.35" y="82.71" text-anchor="middle" dy="0.6em">0.5</text>
    <text x="136.17" y="82.71" text-anchor="middle" dy="0.6em">1.0</text>
  </g>
  <g class="guide colorkey" id="img-46fe19dc-4">
    <g fill="#4C404B" font-size="2.82" font-family="'PT Sans','Helvetica Neue','Helvetica',sans-serif" id="img-46fe19dc-5">
      <text x="142.44" y="43.35" dy="0.35em">Número de Variedades</text>
      <text x="142.44" y="47.88" dy="0.35em">Número Médio de Variedades por UD</text>
    </g>
    <g stroke="#000000" stroke-opacity="0.000" id="img-46fe19dc-6">
      <rect x="139.17" y="42.22" width="2.26" height="2.26" fill="#008000"/>
      <rect x="139.17" y="46.75" width="2.26" height="2.26" fill="#FF0000"/>
    </g>
    <g fill="#362A35" font-size="3.88" font-family="'PT Sans','Helvetica Neue','Helvetica',sans-serif" stroke="#000000" stroke-opacity="0.000" id="img-46fe19dc-7">
      <text x="139.17" y="36.83"></text>
    </g>
  </g>
<g clip-path="url(#img-46fe19dc-8)">
  <g id="img-46fe19dc-9">
    <g pointer-events="visible" opacity="1" fill="#000000" fill-opacity="0.000" stroke="#000000" stroke-opacity="0.000" class="guide background" id="img-46fe19dc-10">
      <rect x="10.53" y="5" width="127.64" height="76.71"/>
    </g>
    <g class="guide ygridlines xfixed" stroke-dasharray="0.5,0.5" stroke-width="0.2" stroke="#D0D0E0" id="img-46fe19dc-11">
      <path fill="none" d="M10.53,79.71 L 138.17 79.71"/>
      <path fill="none" d="M10.53,61.53 L 138.17 61.53"/>
      <path fill="none" d="M10.53,43.35 L 138.17 43.35"/>
      <path fill="none" d="M10.53,25.18 L 138.17 25.18"/>
      <path fill="none" d="M10.53,7 L 138.17 7"/>
    </g>
    <g class="guide xgridlines yfixed" stroke-dasharray="0.5,0.5" stroke-width="0.2" stroke="#D0D0E0" id="img-46fe19dc-12">
      <path fill="none" d="M12.53,5 L 12.53 81.71"/>
      <path fill="none" d="M74.35,5 L 74.35 81.71"/>
      <path fill="none" d="M136.17,5 L 136.17 81.71"/>
    </g>
    <g class="plotpanel" id="img-46fe19dc-13">
      <g stroke-width="0.3" fill="#000000" fill-opacity="0.000" class="geometry" stroke-dasharray="none" stroke="#FF0000" id="img-46fe19dc-14">
        <path fill="none" d="M18.71,77.37 L 24.89 77.3 31.07 77.25 37.26 77.18 43.44 77.13 49.62 77.11 55.8 77.12 61.99 77.18 68.17 77.18 74.35 77.26 80.53 77.3 86.71 77.32 92.9 77.43 99.08 77.48 105.26 77.54 111.44 77.43 117.63 76.18 123.81 75.66 129.99 75.17 136.17 75.26"/>
      </g>
      <g stroke-width="0.3" fill="#000000" fill-opacity="0.000" class="geometry" stroke-dasharray="none" stroke="#008000" id="img-46fe19dc-15">
        <path fill="none" d="M18.71,20.13 L 24.89 22.99 31.07 25.89 37.26 29.9 43.44 33.62 49.62 37.92 55.8 42.37 61.99 47.1 68.17 50.17 74.35 54.32 80.53 59 86.71 60.92 92.9 65.16 99.08 66.96 105.26 68.91 111.44 71.02 117.63 71.39 123.81 71.69 129.99 71.51 136.17 72.2"/>
      </g>
    </g>
  </g>
</g>
  <g class="guide ylabels" font-size="2.82" font-family="'PT Sans Caption','Helvetica Neue','Helvetica',sans-serif" fill="#6C606B" id="img-46fe19dc-16">
    <text x="9.53" y="79.71" text-anchor="end" dy="0.35em">0</text>
    <text x="9.53" y="61.53" text-anchor="end" dy="0.35em">10</text>
    <text x="9.53" y="43.35" text-anchor="end" dy="0.35em">20</text>
    <text x="9.53" y="25.18" text-anchor="end" dy="0.35em">30</text>
    <text x="9.53" y="7" text-anchor="end" dy="0.35em">40</text>
  </g>
</g>
<defs>
  <clipPath id="img-46fe19dc-8">
  <path d="M10.53,5 L 138.17 5 138.17 81.71 10.53 81.71" />
</clipPath>
</defs>
</svg>
