<?xml version="1.0" encoding="UTF-8"?>
<svg xmlns="http://www.w3.org/2000/svg"
     xmlns:xlink="http://www.w3.org/1999/xlink"
     xmlns:gadfly="http://www.gadflyjl.org/ns"
     version="1.2"
     width="150mm" height="100mm" viewBox="0 0 150 100"
     stroke="none"
     fill="#000000"
     stroke-width="0.3"
     font-size="3.88"
>
<g class="plotroot xscalable yscalable" id="img-d5cdf133-1">
  <g font-size="3.88" font-family="'PT Sans','Helvetica Neue','Helvetica',sans-serif" fill="#564A55" stroke="#000000" stroke-opacity="0.000" id="img-d5cdf133-2">
    <text x="77.01" y="89.18" text-anchor="middle" dy="0.6em">Fitness</text>
  </g>
  <g class="guide xlabels" font-size="2.82" font-family="'PT Sans Caption','Helvetica Neue','Helvetica',sans-serif" fill="#6C606B" id="img-d5cdf133-3">
    <text x="22.88" y="82.71" text-anchor="middle" dy="0.6em">0.0</text>
    <text x="77.01" y="82.71" text-anchor="middle" dy="0.6em">0.5</text>
    <text x="131.15" y="82.71" text-anchor="middle" dy="0.6em">1.0</text>
  </g>
  <g class="guide colorkey" id="img-d5cdf133-4">
    <g fill="#4C404B" font-size="2.82" font-family="'PT Sans','Helvetica Neue','Helvetica',sans-serif" id="img-d5cdf133-5">
      <text x="136.89" y="38.15" dy="0.35em" id="img-d5cdf133-6" class="color_0.005">0.005</text>
      <text x="136.89" y="41.62" dy="0.35em" id="img-d5cdf133-7" class="color_0.01">0.01</text>
      <text x="136.89" y="45.09" dy="0.35em" id="img-d5cdf133-8" class="color_0.02">0.02</text>
      <text x="136.89" y="48.56" dy="0.35em" id="img-d5cdf133-9" class="color_0.04">0.04</text>
      <text x="136.89" y="52.03" dy="0.35em" id="img-d5cdf133-10" class="color_0.08">0.08</text>
    </g>
    <g stroke="#000000" stroke-opacity="0.000" id="img-d5cdf133-11">
      <rect x="134.15" y="37.28" width="1.73" height="1.73" id="img-d5cdf133-12" class="color_0.005" fill="#00BFFF"/>
      <rect x="134.15" y="40.75" width="1.73" height="1.73" id="img-d5cdf133-13" class="color_0.01" fill="#D4CA3A"/>
      <rect x="134.15" y="44.22" width="1.73" height="1.73" id="img-d5cdf133-14" class="color_0.02" fill="#FF6DAE"/>
      <rect x="134.15" y="47.69" width="1.73" height="1.73" id="img-d5cdf133-15" class="color_0.04" fill="#00B78D"/>
      <rect x="134.15" y="51.16" width="1.73" height="1.73" id="img-d5cdf133-16" class="color_0.08" fill="#BEA9FF"/>
    </g>
    <g fill="#362A35" font-size="3.88" font-family="'PT Sans','Helvetica Neue','Helvetica',sans-serif" stroke="#000000" stroke-opacity="0.000" id="img-d5cdf133-17">
      <text x="134.15" y="33.74" id="img-d5cdf133-18">o</text>
    </g>
  </g>
<g clip-path="url(#img-d5cdf133-19)">
  <g id="img-d5cdf133-20">
    <g pointer-events="visible" opacity="1" fill="#000000" fill-opacity="0.000" stroke="#000000" stroke-opacity="0.000" class="guide background" id="img-d5cdf133-21">
      <rect x="20.88" y="5" width="112.27" height="76.71" id="img-d5cdf133-22"/>
    </g>
    <g class="guide ygridlines xfixed" stroke-dasharray="0.5,0.5" stroke-width="0.2" stroke="#D0D0E0" id="img-d5cdf133-23">
      <path fill="none" d="M20.88,79.71 L 133.15 79.71" id="img-d5cdf133-24"/>
      <path fill="none" d="M20.88,61.53 L 133.15 61.53" id="img-d5cdf133-25"/>
      <path fill="none" d="M20.88,43.35 L 133.15 43.35" id="img-d5cdf133-26"/>
      <path fill="none" d="M20.88,25.18 L 133.15 25.18" id="img-d5cdf133-27"/>
      <path fill="none" d="M20.88,7 L 133.15 7" id="img-d5cdf133-28"/>
    </g>
    <g class="guide xgridlines yfixed" stroke-dasharray="0.5,0.5" stroke-width="0.2" stroke="#D0D0E0" id="img-d5cdf133-29">
      <path fill="none" d="M22.88,5 L 22.88 81.71" id="img-d5cdf133-30"/>
      <path fill="none" d="M77.01,5 L 77.01 81.71" id="img-d5cdf133-31"/>
      <path fill="none" d="M131.15,5 L 131.15 81.71" id="img-d5cdf133-32"/>
    </g>
    <g class="plotpanel" id="img-d5cdf133-33">
      <g stroke-width="0.3" fill="#000000" fill-opacity="0.000" stroke-dasharray="none" id="img-d5cdf133-34">
        <path fill="none" d="M25.58,67.39 L 31 72.54 36.41 72.52 41.83 70.12 47.24 68.94 52.65 66.62 58.07 61.18 63.48 58.12 68.89 53.13 74.31 44.16 79.72 32.53 85.14 37.46 90.55 32.3 95.96 45.09 101.38 62.18 106.79 71.58 112.2 76.03 117.62 79.32 123.03 79.71 128.44 79.71" id="img-d5cdf133-35" stroke="#00B78D" class="geometry color_0.04"/>
        <path fill="none" d="M25.58,73.16 L 31 72.95 36.41 71.59 41.83 71.45 47.24 67.16 52.65 65.37 58.07 62.07 63.48 56.38 68.89 53.44 74.31 41.56 79.72 35.7 85.14 33.78 90.55 32.72 95.96 44.09 101.38 60.8 106.79 74.81 112.2 76.79 117.62 78.55 123.03 78.57 128.44 79.71" id="img-d5cdf133-36" stroke="#00BFFF" class="geometry color_0.005"/>
        <path fill="none" d="M25.58,69.64 L 31 72.41 36.41 73.85 41.83 73.95 47.24 72.45 52.65 69.63 58.07 61.51 63.48 60.93 68.89 53.74 74.31 43 79.72 35.82 85.14 28.33 90.55 30.23 95.96 38.54 101.38 59.92 106.79 73.8 112.2 74.92 117.62 78.53 123.03 79.71 128.44 79.71" id="img-d5cdf133-37" stroke="#BEA9FF" class="geometry color_0.08"/>
        <path fill="none" d="M25.58,67.5 L 31 73.23 36.41 72.35 41.83 71.8 47.24 67.88 52.65 65.2 58.07 61.67 63.48 61.93 68.89 54.3 74.31 49.42 79.72 32.58 85.14 33.41 90.55 28.28 95.96 43.98 101.38 60.66 106.79 71.85 112.2 76.4 117.62 78.75 123.03 79.71 128.44 79.71" id="img-d5cdf133-38" stroke="#D4CA3A" class="geometry color_0.01"/>
        <path fill="none" d="M25.58,65.39 L 31 72.81 36.41 73.11 41.83 71.56 47.24 69.91 52.65 67.61 58.07 62.92 63.48 59.83 68.89 54.37 74.31 48.59 79.72 41.82 85.14 30.05 90.55 29.27 95.96 41.18 101.38 57.33 106.79 69.55 112.2 77.14 117.62 78.78 123.03 79.71 128.44 79.71" id="img-d5cdf133-39" stroke="#FF6DAE" class="geometry color_0.02"/>
      </g>
    </g>
  </g>
</g>
  <g class="guide ylabels" font-size="2.82" font-family="'PT Sans Caption','Helvetica Neue','Helvetica',sans-serif" fill="#6C606B" id="img-d5cdf133-40">
    <text x="19.88" y="79.71" text-anchor="end" dy="0.35em" id="img-d5cdf133-41">0.00</text>
    <text x="19.88" y="61.53" text-anchor="end" dy="0.35em" id="img-d5cdf133-42">0.05</text>
    <text x="19.88" y="43.35" text-anchor="end" dy="0.35em" id="img-d5cdf133-43">0.10</text>
    <text x="19.88" y="25.18" text-anchor="end" dy="0.35em" id="img-d5cdf133-44">0.15</text>
    <text x="19.88" y="7" text-anchor="end" dy="0.35em" id="img-d5cdf133-45">0.20</text>
  </g>
  <g font-size="3.88" font-family="'PT Sans','Helvetica Neue','Helvetica',sans-serif" fill="#564A55" stroke="#000000" stroke-opacity="0.000" id="img-d5cdf133-46">
    <text x="8.76" y="41.35" text-anchor="middle" dy="0.35em" transform="rotate(-90, 8.76, 43.35)" id="img-d5cdf133-47">Frequencia</text>
  </g>
</g>
<defs>
  <clipPath id="img-d5cdf133-19">
  <path d="M20.88,5 L 133.15 5 133.15 81.71 20.88 81.71" />
</clipPath>
</defs>
</svg>
