<?xml version="1.0" encoding="UTF-8"?>
<svg xmlns="http://www.w3.org/2000/svg"
     xmlns:xlink="http://www.w3.org/1999/xlink"
     xmlns:gadfly="http://www.gadflyjl.org/ns"
     version="1.2"
     width="150mm" height="100mm" viewBox="0 0 150 100"
     stroke="none"
     fill="#000000"
     stroke-width="0.3"
     font-size="3.88"
>
<g class="plotroot xscalable yscalable" id="img-ef7ba62b-1">
  <g font-size="3.88" font-family="'PT Sans','Helvetica Neue','Helvetica',sans-serif" fill="#564A55" stroke="#000000" stroke-opacity="0.000" id="img-ef7ba62b-2">
    <text x="76.66" y="88.47" text-anchor="middle" dy="0.6em">Numero Medio de Variedades por UD</text>
  </g>
  <g class="guide xlabels" font-size="2.82" font-family="'PT Sans Caption','Helvetica Neue','Helvetica',sans-serif" fill="#6C606B" id="img-ef7ba62b-3">
    <text x="19.35" y="82" text-anchor="middle" dy="0.6em">0</text>
    <text x="42.27" y="82" text-anchor="middle" dy="0.6em">10</text>
    <text x="65.2" y="82" text-anchor="middle" dy="0.6em">20</text>
    <text x="88.12" y="82" text-anchor="middle" dy="0.6em">30</text>
    <text x="111.05" y="82" text-anchor="middle" dy="0.6em">40</text>
    <text x="133.97" y="82" text-anchor="middle" dy="0.6em">50</text>
  </g>
  <g class="guide colorkey" id="img-ef7ba62b-4">
    <g fill="#4C404B" font-size="2.82" font-family="'PT Sans','Helvetica Neue','Helvetica',sans-serif" id="img-ef7ba62b-5">
      <text x="139.71" y="36.06" dy="0.35em" id="img-ef7ba62b-6" class="color_25">25</text>
      <text x="139.71" y="39.53" dy="0.35em" id="img-ef7ba62b-7" class="color_36">36</text>
      <text x="139.71" y="43" dy="0.35em" id="img-ef7ba62b-8" class="color_49">49</text>
      <text x="139.71" y="46.47" dy="0.35em" id="img-ef7ba62b-9" class="color_64">64</text>
      <text x="139.71" y="49.94" dy="0.35em" id="img-ef7ba62b-10" class="color_81">81</text>
      <text x="139.71" y="53.41" dy="0.35em" id="img-ef7ba62b-11" class="color_100">100</text>
    </g>
    <g stroke="#000000" stroke-opacity="0.000" id="img-ef7ba62b-12">
      <rect x="136.97" y="35.2" width="1.73" height="1.73" id="img-ef7ba62b-13" class="color_25" fill="#00BFFF"/>
      <rect x="136.97" y="38.66" width="1.73" height="1.73" id="img-ef7ba62b-14" class="color_36" fill="#D4CA3A"/>
      <rect x="136.97" y="42.13" width="1.73" height="1.73" id="img-ef7ba62b-15" class="color_49" fill="#FF6DAE"/>
      <rect x="136.97" y="45.6" width="1.73" height="1.73" id="img-ef7ba62b-16" class="color_64" fill="#00B78D"/>
      <rect x="136.97" y="49.07" width="1.73" height="1.73" id="img-ef7ba62b-17" class="color_81" fill="#BEA9FF"/>
      <rect x="136.97" y="52.54" width="1.73" height="1.73" id="img-ef7ba62b-18" class="color_100" fill="#FF6765"/>
    </g>
    <g fill="#362A35" font-size="3.88" font-family="'PT Sans','Helvetica Neue','Helvetica',sans-serif" stroke="#000000" stroke-opacity="0.000" id="img-ef7ba62b-19">
      <text x="136.97" y="32" id="img-ef7ba62b-20">L</text>
    </g>
  </g>
<g clip-path="url(#img-ef7ba62b-21)">
  <g id="img-ef7ba62b-22">
    <g pointer-events="visible" opacity="1" fill="#000000" fill-opacity="0.000" stroke="#000000" stroke-opacity="0.000" class="guide background" id="img-ef7ba62b-23">
      <rect x="17.35" y="5" width="118.62" height="76" id="img-ef7ba62b-24"/>
    </g>
    <g class="guide ygridlines xfixed" stroke-dasharray="0.5,0.5" stroke-width="0.2" stroke="#D0D0E0" id="img-ef7ba62b-25">
      <path fill="none" d="M17.35,79 L 135.97 79" id="img-ef7ba62b-26"/>
      <path fill="none" d="M17.35,67 L 135.97 67" id="img-ef7ba62b-27"/>
      <path fill="none" d="M17.35,55 L 135.97 55" id="img-ef7ba62b-28"/>
      <path fill="none" d="M17.35,43 L 135.97 43" id="img-ef7ba62b-29"/>
      <path fill="none" d="M17.35,31 L 135.97 31" id="img-ef7ba62b-30"/>
      <path fill="none" d="M17.35,19 L 135.97 19" id="img-ef7ba62b-31"/>
      <path fill="none" d="M17.35,7 L 135.97 7" id="img-ef7ba62b-32"/>
    </g>
    <g class="guide xgridlines yfixed" stroke-dasharray="0.5,0.5" stroke-width="0.2" stroke="#D0D0E0" id="img-ef7ba62b-33">
      <path fill="none" d="M19.35,5 L 19.35 81" id="img-ef7ba62b-34"/>
      <path fill="none" d="M42.27,5 L 42.27 81" id="img-ef7ba62b-35"/>
      <path fill="none" d="M65.2,5 L 65.2 81" id="img-ef7ba62b-36"/>
      <path fill="none" d="M88.12,5 L 88.12 81" id="img-ef7ba62b-37"/>
      <path fill="none" d="M111.05,5 L 111.05 81" id="img-ef7ba62b-38"/>
      <path fill="none" d="M133.97,5 L 133.97 81" id="img-ef7ba62b-39"/>
    </g>
    <g class="plotpanel" id="img-ef7ba62b-40">
      <g stroke-width="0.3" fill="#000000" fill-opacity="0.000" stroke-dasharray="none" id="img-ef7ba62b-41">
        <path fill="none" d="M22.5,61.9 L 22.51 61.84 22.52 61.78 22.52 61.72 22.53 61.64 22.54 61.53 22.55 61.36 22.57 61.15 22.59 60.81 22.63 60.44 22.68 60.03 22.73 59.68 22.77 59.3 22.81 58.9 22.87 58.41 22.94 57.78 23.04 56.83 23.18 55.53 23.41 53.7 23.79 50.7 24.51 45.96 25.81 39.85 28.02 33.16 31.27 27.36 35.29 23.15 39.65 20.73 44.09 19.51 48.5 19.01 52.9 18.87 57.27 18.83 61.65 18.83 66.05 18.85 70.46 18.86 74.9 18.87 79.39 18.89 83.95 18.92 88.55 18.93 93.22 18.96 97.97 19 102.5 19" id="img-ef7ba62b-42" stroke="#00B78D" class="geometry color_64"/>
        <path fill="none" d="M22.34,66 L 22.34 66 22.34 66.01 22.34 66.01 22.34 66.01 22.34 66 22.34 66.01 22.34 66.01 22.34 66 22.35 65.98 22.35 65.96 22.35 66.01 22.35 66.01 22.35 66.01 22.35 66.01 22.35 66.01 22.35 66.01 22.35 66 22.35 66 22.35 65.99 22.36 65.97 22.36 65.84 22.36 65.93 22.38 65.72 22.4 65.52 22.45 65.22 22.49 64.71 22.59 63.78 22.76 62.6 22.97 61.04 23.26 58.5 23.78 53.36 25.04 42.58 28.16 29.34 33.33 22.12 39.27 19.69 45.43 19.1 51.91 18.99 58.67 18.99 64.83 19" id="img-ef7ba62b-43" stroke="#00BFFF" class="geometry color_25"/>
        <path fill="none" d="M22.61,60.73 L 22.64 60.47 22.67 60.22 22.69 60.01 22.71 59.81 22.74 59.64 22.76 59.41 22.78 59.12 22.82 58.74 22.87 58.26 22.94 57.55 23.04 56.64 23.19 55.33 23.44 53.33 23.84 50.39 24.54 46.04 25.74 40.54 27.65 34.75 30.34 29.48 33.69 25.07 37.45 22.22 41.38 20.49 45.35 19.54 49.27 19.04 53.16 18.84 57 18.76 60.82 18.74 64.64 18.72 68.44 18.71 72.26 18.72 76.08 18.73 79.91 18.76 83.77 18.81 87.66 18.83 91.59 18.86 95.54 18.88 99.54 18.91 103.56 18.93 107.7 18.98 111.65 19" id="img-ef7ba62b-44" stroke="#BEA9FF" class="geometry color_81"/>
        <path fill="none" d="M22.42,63.81 L 22.42 63.81 22.42 63.81 22.42 63.8 22.43 63.77 22.43 63.78 22.43 63.74 22.44 63.57 22.45 63.81 22.45 63.82 22.45 63.81 22.45 63.81 22.45 63.79 22.45 63.78 22.45 63.75 22.46 63.67 22.47 63.31 22.48 63.45 22.52 62.94 22.52 63.14 22.57 62.62 22.59 62.09 22.7 61.32 22.8 60.38 22.95 59.48 23.07 58.22 23.31 56.45 23.6 53.62 24.23 48.19 25.61 39.25 28.52 29.18 33.01 22.62 38.28 19.83 43.76 19.09 49.28 18.95 54.94 18.95 60.77 18.95 66.76 18.97 72.88 18.99 78.54 19" id="img-ef7ba62b-45" stroke="#D4CA3A" class="geometry color_36"/>
        <path fill="none" d="M22.79,58.1 L 22.83 57.74 22.88 57.34 22.95 56.79 23.03 56.01 23.16 55.03 23.34 53.71 23.61 51.82 24.04 49.19 24.72 45.61 25.75 41.56 27.27 36.96 29.34 32.53 31.97 28.38 35 25.04 38.28 22.65 41.68 21.01 45.1 19.92 48.5 19.28 51.86 18.92 55.21 18.76 58.52 18.67 61.82 18.62 65.09 18.59 68.35 18.61 71.63 18.62 74.87 18.62 78.14 18.62 81.41 18.66 84.68 18.67 87.97 18.69 91.29 18.71 94.64 18.75 98.01 18.78 101.41 18.8 104.82 18.85 108.28 18.89 111.77 18.94 115.35 18.99 118.77 19" id="img-ef7ba62b-46" stroke="#FF6765" class="geometry color_100"/>
        <path fill="none" d="M22.44,62.72 L 22.44 62.69 22.44 62.73 22.44 62.71 22.44 62.62 22.45 62.66 22.45 62.53 22.46 62.44 22.48 62.32 22.49 62.17 22.51 62.1 22.51 62.01 22.53 61.87 22.54 61.68 22.57 61.42 22.6 60.96 22.68 60.34 22.74 59.72 22.83 59.15 22.89 58.52 22.99 57.81 23.09 56.79 23.28 55.18 23.55 52.64 24.09 48.37 25.14 41.72 27.24 33.63 30.7 26.54 35.18 22.01 40.07 19.87 45.06 19.15 50.05 18.96 55.05 18.94 60.03 18.95 65.09 18.94 70.23 18.96 75.49 18.97 80.8 18.98 86.24 19 91.39 19" id="img-ef7ba62b-47" stroke="#FF6DAE" class="geometry color_49"/>
      </g>
    </g>
  </g>
</g>
  <g class="guide ylabels" font-size="2.82" font-family="'PT Sans Caption','Helvetica Neue','Helvetica',sans-serif" fill="#6C606B" id="img-ef7ba62b-48">
    <text x="16.35" y="79" text-anchor="end" dy="0.35em" id="img-ef7ba62b-49">0</text>
    <text x="16.35" y="67" text-anchor="end" dy="0.35em" id="img-ef7ba62b-50">10</text>
    <text x="16.35" y="55" text-anchor="end" dy="0.35em" id="img-ef7ba62b-51">20</text>
    <text x="16.35" y="43" text-anchor="end" dy="0.35em" id="img-ef7ba62b-52">30</text>
    <text x="16.35" y="31" text-anchor="end" dy="0.35em" id="img-ef7ba62b-53">40</text>
    <text x="16.35" y="19" text-anchor="end" dy="0.35em" id="img-ef7ba62b-54">50</text>
    <text x="16.35" y="7" text-anchor="end" dy="0.35em" id="img-ef7ba62b-55">60</text>
  </g>
  <g font-size="3.88" font-family="'PT Sans','Helvetica Neue','Helvetica',sans-serif" fill="#564A55" stroke="#000000" stroke-opacity="0.000" id="img-ef7ba62b-56">
    <text x="8.41" y="41" text-anchor="middle" dy="0.35em" transform="rotate(-90, 8.41, 43)" id="img-ef7ba62b-57">Numero de Variedades</text>
  </g>
</g>
<defs>
  <clipPath id="img-ef7ba62b-21">
  <path d="M17.35,5 L 135.97 5 135.97 81 17.35 81" />
</clipPath>
</defs>
</svg>
