<?xml version="1.0" encoding="UTF-8"?>
<svg xmlns="http://www.w3.org/2000/svg"
     xmlns:xlink="http://www.w3.org/1999/xlink"
     xmlns:gadfly="http://www.gadflyjl.org/ns"
     version="1.2"
     width="200mm" height="100mm" viewBox="0 0 200 100"
     stroke="none"
     fill="#000000"
     stroke-width="0.3"
     font-size="3.88"
>
<g class="plotroot xscalable yscalable" id="img-8e3588c3-1">
  <g font-size="3.88" font-family="'PT Sans','Helvetica Neue','Helvetica',sans-serif" fill="#564A55" stroke="#000000" stroke-opacity="0.000" id="img-8e3588c3-2">
    <text x="74.35" y="88.47" text-anchor="middle" dy="0.6em">Tempo</text>
  </g>
  <g class="guide xlabels" font-size="2.82" font-family="'PT Sans Caption','Helvetica Neue','Helvetica',sans-serif" fill="#6C606B" id="img-8e3588c3-3">
    <text x="12.53" y="82" text-anchor="middle" dy="0.6em">0</text>
    <text x="43.44" y="82" text-anchor="middle" dy="0.6em">50</text>
    <text x="74.35" y="82" text-anchor="middle" dy="0.6em">100</text>
    <text x="105.26" y="82" text-anchor="middle" dy="0.6em">150</text>
    <text x="136.17" y="82" text-anchor="middle" dy="0.6em">200</text>
  </g>
  <g class="guide colorkey" id="img-8e3588c3-4">
    <g fill="#4C404B" font-size="2.82" font-family="'PT Sans','Helvetica Neue','Helvetica',sans-serif" id="img-8e3588c3-5">
      <text x="142.44" y="43" dy="0.35em">Número de Variedades</text>
      <text x="142.44" y="47.53" dy="0.35em">Número Médio de Variedades por UD</text>
    </g>
    <g stroke="#000000" stroke-opacity="0.000" id="img-8e3588c3-6">
      <rect x="139.17" y="41.87" width="2.26" height="2.26" fill="#008000"/>
      <rect x="139.17" y="46.4" width="2.26" height="2.26" fill="#FF0000"/>
    </g>
    <g fill="#362A35" font-size="3.88" font-family="'PT Sans','Helvetica Neue','Helvetica',sans-serif" stroke="#000000" stroke-opacity="0.000" id="img-8e3588c3-7">
      <text x="139.17" y="36.47"></text>
    </g>
  </g>
<g clip-path="url(#img-8e3588c3-8)">
  <g id="img-8e3588c3-9">
    <g pointer-events="visible" opacity="1" fill="#000000" fill-opacity="0.000" stroke="#000000" stroke-opacity="0.000" class="guide background" id="img-8e3588c3-10">
      <rect x="10.53" y="5" width="127.64" height="76"/>
    </g>
    <g class="guide ygridlines xfixed" stroke-dasharray="0.5,0.5" stroke-width="0.2" stroke="#D0D0E0" id="img-8e3588c3-11">
      <path fill="none" d="M10.53,79 L 138.17 79"/>
      <path fill="none" d="M10.53,67 L 138.17 67"/>
      <path fill="none" d="M10.53,55 L 138.17 55"/>
      <path fill="none" d="M10.53,43 L 138.17 43"/>
      <path fill="none" d="M10.53,31 L 138.17 31"/>
      <path fill="none" d="M10.53,19 L 138.17 19"/>
      <path fill="none" d="M10.53,7 L 138.17 7"/>
    </g>
    <g class="guide xgridlines yfixed" stroke-dasharray="0.5,0.5" stroke-width="0.2" stroke="#D0D0E0" id="img-8e3588c3-12">
      <path fill="none" d="M12.53,5 L 12.53 81"/>
      <path fill="none" d="M43.44,5 L 43.44 81"/>
      <path fill="none" d="M74.35,5 L 74.35 81"/>
      <path fill="none" d="M105.26,5 L 105.26 81"/>
      <path fill="none" d="M136.17,5 L 136.17 81"/>
    </g>
    <g class="plotpanel" id="img-8e3588c3-13">
      <g stroke-width="0.3" fill="#000000" fill-opacity="0.000" class="geometry" stroke-dasharray="none" stroke="#FF0000" id="img-8e3588c3-14">
        <path fill="none" d="M12.53,41.3 L 15.62 44.24 18.71 47.49 21.8 50.7 24.89 53.86 27.98 56.92 31.07 59.88 34.17 62.78 37.26 65.6 40.35 68.33 43.44 70.94 46.53 73.15 49.62 74.65 52.71 75.5 55.8 75.97 58.89 76.27 61.99 76.48 65.08 76.65 68.17 76.77 71.26 76.89 74.35 76.97 77.44 77.07 80.53 77.14 83.62 77.21 86.71 77.23 89.81 77.28 92.9 77.29 95.99 77.33 99.08 77.33 102.17 77.36 105.26 77.36 108.35 77.38 111.44 77.37 114.53 77.38 117.63 77.37 120.72 77.38 123.81 77.37 126.9 77.39 129.99 77.37 133.08 77.39"/>
      </g>
      <g stroke-width="0.3" fill="#000000" fill-opacity="0.000" class="geometry" stroke-dasharray="none" stroke="#008000" id="img-8e3588c3-15">
        <path fill="none" d="M12.53,19 L 15.62 18.99 18.71 18.98 21.8 18.95 24.89 18.95 27.98 18.95 31.07 18.94 34.17 18.95 37.26 19.18 40.35 20.13 43.44 22.86 46.53 28.14 49.62 35.34 52.71 42.01 55.8 47.25 58.89 50.63 61.99 53.06 65.08 54.89 68.17 56.35 71.26 57.63 74.35 58.64 77.44 59.72 80.53 60.7 83.62 61.61 86.71 62.29 89.81 62.83 92.9 63.27 95.99 63.58 99.08 63.9 102.17 64.14 105.26 64.35 108.35 64.52 111.44 64.6 114.53 64.66 117.63 64.69 120.72 64.69 123.81 64.72 126.9 64.73 129.99 64.74 133.08 64.75"/>
      </g>
    </g>
  </g>
</g>
  <g class="guide ylabels" font-size="2.82" font-family="'PT Sans Caption','Helvetica Neue','Helvetica',sans-serif" fill="#6C606B" id="img-8e3588c3-16">
    <text x="9.53" y="79" text-anchor="end" dy="0.35em">0</text>
    <text x="9.53" y="67" text-anchor="end" dy="0.35em">10</text>
    <text x="9.53" y="55" text-anchor="end" dy="0.35em">20</text>
    <text x="9.53" y="43" text-anchor="end" dy="0.35em">30</text>
    <text x="9.53" y="31" text-anchor="end" dy="0.35em">40</text>
    <text x="9.53" y="19" text-anchor="end" dy="0.35em">50</text>
    <text x="9.53" y="7" text-anchor="end" dy="0.35em">60</text>
  </g>
</g>
<defs>
  <clipPath id="img-8e3588c3-8">
  <path d="M10.53,5 L 138.17 5 138.17 81 10.53 81" />
</clipPath>
</defs>
</svg>
