<?xml version="1.0" encoding="UTF-8"?>
<svg xmlns="http://www.w3.org/2000/svg"
     xmlns:xlink="http://www.w3.org/1999/xlink"
     xmlns:gadfly="http://www.gadflyjl.org/ns"
     version="1.2"
     width="150mm" height="100mm" viewBox="0 0 150 100"
     stroke="none"
     fill="#000000"
     stroke-width="0.3"
     font-size="3.88"
>
<g class="plotroot xscalable yscalable" id="img-ca1cf8a9-1">
  <g font-size="3.88" font-family="'PT Sans','Helvetica Neue','Helvetica',sans-serif" fill="#564A55" stroke="#000000" stroke-opacity="0.000" id="img-ca1cf8a9-2">
    <text x="80.19" y="89.18" text-anchor="middle" dy="0.6em">Fitness</text>
  </g>
  <g class="guide xlabels" font-size="2.82" font-family="'PT Sans Caption','Helvetica Neue','Helvetica',sans-serif" fill="#6C606B" id="img-ca1cf8a9-3">
    <text x="22.88" y="82.71" text-anchor="middle" dy="0.6em">0.0</text>
    <text x="80.19" y="82.71" text-anchor="middle" dy="0.6em">0.5</text>
    <text x="137.5" y="82.71" text-anchor="middle" dy="0.6em">1.0</text>
  </g>
  <g class="guide colorkey" id="img-ca1cf8a9-4">
    <g fill="#4C404B" font-size="2.82" font-family="'PT Sans','Helvetica Neue','Helvetica',sans-serif" id="img-ca1cf8a9-5">
      <text x="143.24" y="41.62" dy="0.35em" id="img-ca1cf8a9-6" class="color_0">0</text>
      <text x="143.24" y="45.09" dy="0.35em" id="img-ca1cf8a9-7" class="color_1">1</text>
      <text x="143.24" y="48.56" dy="0.35em" id="img-ca1cf8a9-8" class="color_2">2</text>
    </g>
    <g stroke="#000000" stroke-opacity="0.000" id="img-ca1cf8a9-9">
      <rect x="140.5" y="40.75" width="1.73" height="1.73" id="img-ca1cf8a9-10" class="color_0" fill="#00BFFF"/>
      <rect x="140.5" y="44.22" width="1.73" height="1.73" id="img-ca1cf8a9-11" class="color_1" fill="#D4CA3A"/>
      <rect x="140.5" y="47.69" width="1.73" height="1.73" id="img-ca1cf8a9-12" class="color_2" fill="#FF6DAE"/>
    </g>
    <g fill="#362A35" font-size="3.88" font-family="'PT Sans','Helvetica Neue','Helvetica',sans-serif" stroke="#000000" stroke-opacity="0.000" id="img-ca1cf8a9-13">
      <text x="140.5" y="37.21" id="img-ca1cf8a9-14">n</text>
    </g>
  </g>
<g clip-path="url(#img-ca1cf8a9-15)">
  <g id="img-ca1cf8a9-16">
    <g pointer-events="visible" opacity="1" fill="#000000" fill-opacity="0.000" stroke="#000000" stroke-opacity="0.000" class="guide background" id="img-ca1cf8a9-17">
      <rect x="20.88" y="5" width="118.62" height="76.71" id="img-ca1cf8a9-18"/>
    </g>
    <g class="guide ygridlines xfixed" stroke-dasharray="0.5,0.5" stroke-width="0.2" stroke="#D0D0E0" id="img-ca1cf8a9-19">
      <path fill="none" d="M20.88,79.71 L 139.5 79.71" id="img-ca1cf8a9-20"/>
      <path fill="none" d="M20.88,61.53 L 139.5 61.53" id="img-ca1cf8a9-21"/>
      <path fill="none" d="M20.88,43.35 L 139.5 43.35" id="img-ca1cf8a9-22"/>
      <path fill="none" d="M20.88,25.18 L 139.5 25.18" id="img-ca1cf8a9-23"/>
      <path fill="none" d="M20.88,7 L 139.5 7" id="img-ca1cf8a9-24"/>
    </g>
    <g class="guide xgridlines yfixed" stroke-dasharray="0.5,0.5" stroke-width="0.2" stroke="#D0D0E0" id="img-ca1cf8a9-25">
      <path fill="none" d="M22.88,5 L 22.88 81.71" id="img-ca1cf8a9-26"/>
      <path fill="none" d="M80.19,5 L 80.19 81.71" id="img-ca1cf8a9-27"/>
      <path fill="none" d="M137.5,5 L 137.5 81.71" id="img-ca1cf8a9-28"/>
    </g>
    <g class="plotpanel" id="img-ca1cf8a9-29">
      <g stroke-width="0.3" fill="#000000" fill-opacity="0.000" stroke-dasharray="none" id="img-ca1cf8a9-30">
        <path fill="none" d="M25.74,67.99 L 31.47 75.05 37.21 73.28 42.94 72.11 48.67 69.81 54.4 66.7 60.13 62.93 65.86 56.37 71.59 49.55 77.32 47.8 83.06 38.59 88.79 30.06 94.52 35.2 100.25 41.49 105.98 57.05 111.71 72.23 117.44 77.18 123.17 78.9 128.9 79.29 134.64 79.04" id="img-ca1cf8a9-31" stroke="#00BFFF" class="geometry color_0"/>
        <path fill="none" d="M25.74,67.32 L 31.47 71.82 37.21 72.86 42.94 71.37 48.67 69.05 54.4 67.79 60.13 66.5 65.86 59.59 71.59 54.16 77.32 48.52 83.06 37.23 88.79 32.64 94.52 28.17 100.25 38.24 105.98 60.08 111.71 70.57 117.44 76.1 123.17 79.22 128.9 79.71 134.64 79.71" id="img-ca1cf8a9-32" stroke="#D4CA3A" class="geometry color_1"/>
        <path fill="none" d="M25.74,72.43 L 31.47 72.92 37.21 72.21 42.94 71.67 48.67 69.33 54.4 67.19 60.13 63.37 65.86 58.97 71.59 53.17 77.32 45.65 83.06 34.59 88.79 32.04 94.52 31.49 100.25 37.68 105.98 60.12 111.71 72.79 117.44 76.14 123.17 79.43 128.9 79.71 134.64 79.71" id="img-ca1cf8a9-33" stroke="#FF6DAE" class="geometry color_2"/>
      </g>
    </g>
  </g>
</g>
  <g class="guide ylabels" font-size="2.82" font-family="'PT Sans Caption','Helvetica Neue','Helvetica',sans-serif" fill="#6C606B" id="img-ca1cf8a9-34">
    <text x="19.88" y="79.71" text-anchor="end" dy="0.35em" id="img-ca1cf8a9-35">0.00</text>
    <text x="19.88" y="61.53" text-anchor="end" dy="0.35em" id="img-ca1cf8a9-36">0.05</text>
    <text x="19.88" y="43.35" text-anchor="end" dy="0.35em" id="img-ca1cf8a9-37">0.10</text>
    <text x="19.88" y="25.18" text-anchor="end" dy="0.35em" id="img-ca1cf8a9-38">0.15</text>
    <text x="19.88" y="7" text-anchor="end" dy="0.35em" id="img-ca1cf8a9-39">0.20</text>
  </g>
  <g font-size="3.88" font-family="'PT Sans','Helvetica Neue','Helvetica',sans-serif" fill="#564A55" stroke="#000000" stroke-opacity="0.000" id="img-ca1cf8a9-40">
    <text x="8.76" y="41.35" text-anchor="middle" dy="0.35em" transform="rotate(-90, 8.76, 43.35)" id="img-ca1cf8a9-41">Frequencia</text>
  </g>
</g>
<defs>
  <clipPath id="img-ca1cf8a9-15">
  <path d="M20.88,5 L 139.5 5 139.5 81.71 20.88 81.71" />
</clipPath>
</defs>
</svg>
