<?xml version="1.0" encoding="UTF-8"?>
<svg xmlns="http://www.w3.org/2000/svg"
     xmlns:xlink="http://www.w3.org/1999/xlink"
     xmlns:gadfly="http://www.gadflyjl.org/ns"
     version="1.2"
     width="150mm" height="100mm" viewBox="0 0 150 100"
     stroke="none"
     fill="#000000"
     stroke-width="0.3"
     font-size="3.88"
>
<g class="plotroot xscalable yscalable" id="img-36a8ea27-1">
  <g font-size="3.88" font-family="'PT Sans','Helvetica Neue','Helvetica',sans-serif" fill="#564A55" stroke="#000000" stroke-opacity="0.000" id="img-36a8ea27-2">
    <text x="75.25" y="88.47" text-anchor="middle" dy="0.6em">Appearence</text>
  </g>
  <g class="guide xlabels" font-size="2.82" font-family="'PT Sans Caption','Helvetica Neue','Helvetica',sans-serif" fill="#6C606B" id="img-36a8ea27-3">
    <text x="22.88" y="82" text-anchor="middle" dy="0.6em">0.0</text>
    <text x="75.25" y="82" text-anchor="middle" dy="0.6em">0.5</text>
    <text x="127.62" y="82" text-anchor="middle" dy="0.6em">1.0</text>
  </g>
  <g class="guide colorkey" id="img-36a8ea27-4">
    <g fill="#4C404B" font-size="2.82" font-family="'PT Sans','Helvetica Neue','Helvetica',sans-serif" id="img-36a8ea27-5">
      <text x="133.36" y="37.8" dy="0.35em" id="img-36a8ea27-6" class="color_0.00025">0.00025</text>
      <text x="133.36" y="41.27" dy="0.35em" id="img-36a8ea27-7" class="color_0.0005">0.0005</text>
      <text x="133.36" y="44.74" dy="0.35em" id="img-36a8ea27-8" class="color_0.001">0.001</text>
      <text x="133.36" y="48.21" dy="0.35em" id="img-36a8ea27-9" class="color_0.002">0.002</text>
      <text x="133.36" y="51.68" dy="0.35em" id="img-36a8ea27-10" class="color_0.004">0.004</text>
    </g>
    <g stroke="#000000" stroke-opacity="0.000" id="img-36a8ea27-11">
      <rect x="130.62" y="36.93" width="1.73" height="1.73" id="img-36a8ea27-12" class="color_0.00025" fill="#00BFFF"/>
      <rect x="130.62" y="40.4" width="1.73" height="1.73" id="img-36a8ea27-13" class="color_0.0005" fill="#D4CA3A"/>
      <rect x="130.62" y="43.87" width="1.73" height="1.73" id="img-36a8ea27-14" class="color_0.001" fill="#FF6DAE"/>
      <rect x="130.62" y="47.34" width="1.73" height="1.73" id="img-36a8ea27-15" class="color_0.002" fill="#00B78D"/>
      <rect x="130.62" y="50.81" width="1.73" height="1.73" id="img-36a8ea27-16" class="color_0.004" fill="#BEA9FF"/>
    </g>
    <g fill="#362A35" font-size="3.88" font-family="'PT Sans','Helvetica Neue','Helvetica',sans-serif" stroke="#000000" stroke-opacity="0.000" id="img-36a8ea27-17">
      <text x="130.62" y="33.74" id="img-36a8ea27-18">i</text>
    </g>
  </g>
<g clip-path="url(#img-36a8ea27-19)">
  <g id="img-36a8ea27-20">
    <g pointer-events="visible" opacity="1" fill="#000000" fill-opacity="0.000" stroke="#000000" stroke-opacity="0.000" class="guide background" id="img-36a8ea27-21">
      <rect x="20.88" y="5" width="108.75" height="76" id="img-36a8ea27-22"/>
    </g>
    <g class="guide ygridlines xfixed" stroke-dasharray="0.5,0.5" stroke-width="0.2" stroke="#D0D0E0" id="img-36a8ea27-23">
      <path fill="none" d="M20.88,79 L 129.62 79" id="img-36a8ea27-24"/>
      <path fill="none" d="M20.88,43 L 129.62 43" id="img-36a8ea27-25"/>
      <path fill="none" d="M20.88,7 L 129.62 7" id="img-36a8ea27-26"/>
    </g>
    <g class="guide xgridlines yfixed" stroke-dasharray="0.5,0.5" stroke-width="0.2" stroke="#D0D0E0" id="img-36a8ea27-27">
      <path fill="none" d="M22.88,5 L 22.88 81" id="img-36a8ea27-28"/>
      <path fill="none" d="M75.25,5 L 75.25 81" id="img-36a8ea27-29"/>
      <path fill="none" d="M127.62,5 L 127.62 81" id="img-36a8ea27-30"/>
    </g>
    <g class="plotpanel" id="img-36a8ea27-31">
      <g stroke-width="0.3" fill="#000000" fill-opacity="0.000" stroke-dasharray="none" id="img-36a8ea27-32">
        <path fill="none" d="M25.5,44.3 L 30.73 41.87 35.97 44.89 41.21 50.95 46.45 41.18 51.68 39.06 56.92 45.61 62.16 44.36 67.39 41.92 72.63 39.62 77.87 40.11 83.11 44.35 88.34 38.19 93.58 46.44 98.82 46.26 104.06 43.48 109.29 40.16 114.53 45.86 119.77 43.22 125 38.18" id="img-36a8ea27-33" stroke="#00B78D" class="geometry color_0.002"/>
        <path fill="none" d="M25.5,41.47 L 30.73 43.41 35.97 38.95 41.21 40.28 46.45 39.45 51.68 47.23 56.92 39.05 62.16 46.37 67.39 48.58 72.63 40.87 77.87 43.33 83.11 41.72 88.34 38.59 93.58 44.13 98.82 46.63 104.06 42.83 109.29 44.5 114.53 43.61 119.77 46.33 125 42.68" id="img-36a8ea27-34" stroke="#00BFFF" class="geometry color_0.00025"/>
        <path fill="none" d="M25.5,43.58 L 30.73 42.57 35.97 42.3 41.21 42.91 46.45 45.18 51.68 42.86 56.92 40.95 62.16 42.5 67.39 42.81 72.63 41.47 77.87 44.1 83.11 45.55 88.34 43.17 93.58 42.54 98.82 42.66 104.06 44.14 109.29 42.31 114.53 43.47 119.77 41.97 125 43.01" id="img-36a8ea27-35" stroke="#BEA9FF" class="geometry color_0.004"/>
        <path fill="none" d="M25.5,42.46 L 30.73 43.42 35.97 45.54 41.21 41.85 46.45 42.26 51.68 42.23 56.92 44.28 62.16 42.04 67.39 45.24 72.63 39.42 77.87 38.86 83.11 41.79 88.34 46.1 93.58 42.32 98.82 41.4 104.06 45.71 109.29 43.2 114.53 47.03 119.77 40.01 125 44.86" id="img-36a8ea27-36" stroke="#D4CA3A" class="geometry color_0.0005"/>
        <path fill="none" d="M25.5,40.31 L 30.73 41.63 35.97 44.25 41.21 44.56 46.45 43.51 51.68 43.97 56.92 37.35 62.16 45.15 67.39 45.74 72.63 42.64 77.87 39.1 83.11 46.45 88.34 44.76 93.58 38.72 98.82 42.31 104.06 37.38 109.29 43.96 114.53 48.58 119.77 46.12 125 43.51" id="img-36a8ea27-37" stroke="#FF6DAE" class="geometry color_0.001"/>
      </g>
    </g>
  </g>
</g>
  <g class="guide ylabels" font-size="2.82" font-family="'PT Sans Caption','Helvetica Neue','Helvetica',sans-serif" fill="#6C606B" id="img-36a8ea27-38">
    <text x="19.88" y="79" text-anchor="end" dy="0.35em" id="img-36a8ea27-39">0.00</text>
    <text x="19.88" y="43" text-anchor="end" dy="0.35em" id="img-36a8ea27-40">0.05</text>
    <text x="19.88" y="7" text-anchor="end" dy="0.35em" id="img-36a8ea27-41">0.10</text>
  </g>
  <g font-size="3.88" font-family="'PT Sans','Helvetica Neue','Helvetica',sans-serif" fill="#564A55" stroke="#000000" stroke-opacity="0.000" id="img-36a8ea27-42">
    <text x="8.76" y="41" text-anchor="middle" dy="0.35em" transform="rotate(-90, 8.76, 43)" id="img-36a8ea27-43">Frequencia</text>
  </g>
</g>
<defs>
  <clipPath id="img-36a8ea27-19">
  <path d="M20.88,5 L 129.62 5 129.62 81 20.88 81" />
</clipPath>
</defs>
</svg>
