<?xml version="1.0" encoding="UTF-8"?>
<svg xmlns="http://www.w3.org/2000/svg"
     xmlns:xlink="http://www.w3.org/1999/xlink"
     xmlns:gadfly="http://www.gadflyjl.org/ns"
     version="1.2"
     width="150mm" height="100mm" viewBox="0 0 150 100"
     stroke="none"
     fill="#000000"
     stroke-width="0.3"
     font-size="3.88"
>
<g class="plotroot xscalable yscalable" id="img-98889a9d-1">
  <g font-size="3.88" font-family="'PT Sans','Helvetica Neue','Helvetica',sans-serif" fill="#564A55" stroke="#000000" stroke-opacity="0.000" id="img-98889a9d-2">
    <text x="79.31" y="88.47" text-anchor="middle" dy="0.6em">Numero Medio de Variedades por UD</text>
  </g>
  <g class="guide xlabels" font-size="2.82" font-family="'PT Sans Caption','Helvetica Neue','Helvetica',sans-serif" fill="#6C606B" id="img-98889a9d-3">
    <text x="21.11" y="82" text-anchor="middle" dy="0.6em">0</text>
    <text x="50.21" y="82" text-anchor="middle" dy="0.6em">5</text>
    <text x="79.31" y="82" text-anchor="middle" dy="0.6em">10</text>
    <text x="108.4" y="82" text-anchor="middle" dy="0.6em">15</text>
    <text x="137.5" y="82" text-anchor="middle" dy="0.6em">20</text>
  </g>
  <g class="guide colorkey" id="img-98889a9d-4">
    <g fill="#4C404B" font-size="2.82" font-family="'PT Sans','Helvetica Neue','Helvetica',sans-serif" id="img-98889a9d-5">
      <text x="143.24" y="41.27" dy="0.35em" id="img-98889a9d-6" class="color_0">0</text>
      <text x="143.24" y="44.74" dy="0.35em" id="img-98889a9d-7" class="color_1">1</text>
      <text x="143.24" y="48.21" dy="0.35em" id="img-98889a9d-8" class="color_2">2</text>
    </g>
    <g stroke="#000000" stroke-opacity="0.000" id="img-98889a9d-9">
      <rect x="140.5" y="40.4" width="1.73" height="1.73" id="img-98889a9d-10" class="color_0" fill="#00BFFF"/>
      <rect x="140.5" y="43.87" width="1.73" height="1.73" id="img-98889a9d-11" class="color_1" fill="#D4CA3A"/>
      <rect x="140.5" y="47.34" width="1.73" height="1.73" id="img-98889a9d-12" class="color_2" fill="#FF6DAE"/>
    </g>
    <g fill="#362A35" font-size="3.88" font-family="'PT Sans','Helvetica Neue','Helvetica',sans-serif" stroke="#000000" stroke-opacity="0.000" id="img-98889a9d-13">
      <text x="140.5" y="36.86" id="img-98889a9d-14">n</text>
    </g>
  </g>
<g clip-path="url(#img-98889a9d-15)">
  <g id="img-98889a9d-16">
    <g pointer-events="visible" opacity="1" fill="#000000" fill-opacity="0.000" stroke="#000000" stroke-opacity="0.000" class="guide background" id="img-98889a9d-17">
      <rect x="19.11" y="5" width="120.39" height="76" id="img-98889a9d-18"/>
    </g>
    <g class="guide ygridlines xfixed" stroke-dasharray="0.5,0.5" stroke-width="0.2" stroke="#D0D0E0" id="img-98889a9d-19">
      <path fill="none" d="M19.11,79 L 139.5 79" id="img-98889a9d-20"/>
      <path fill="none" d="M19.11,43 L 139.5 43" id="img-98889a9d-21"/>
      <path fill="none" d="M19.11,7 L 139.5 7" id="img-98889a9d-22"/>
    </g>
    <g class="guide xgridlines yfixed" stroke-dasharray="0.5,0.5" stroke-width="0.2" stroke="#D0D0E0" id="img-98889a9d-23">
      <path fill="none" d="M21.11,5 L 21.11 81" id="img-98889a9d-24"/>
      <path fill="none" d="M50.21,5 L 50.21 81" id="img-98889a9d-25"/>
      <path fill="none" d="M79.31,5 L 79.31 81" id="img-98889a9d-26"/>
      <path fill="none" d="M108.4,5 L 108.4 81" id="img-98889a9d-27"/>
      <path fill="none" d="M137.5,5 L 137.5 81" id="img-98889a9d-28"/>
    </g>
    <g class="plotpanel" id="img-98889a9d-29">
      <g stroke-width="0.3" fill="#000000" fill-opacity="0.000" stroke-dasharray="none" id="img-98889a9d-30">
        <path fill="none" d="M26.93,28.15 L 32.75 59.17 38.57 78.32 44.39 78.74 50.21 78.9 56.03 78.93 61.85 78.93 67.67 78.98 73.49 78.98 79.31 79 85.13 79 90.95 79 96.77 78.99 102.59 79 108.4 79 114.22 79 120.04 79 125.86 79 131.68 79 137.5 79 143.32 79 149.14 79 154.96 79 160.78 79 166.6 79 172.42 79 178.24 79 184.06 79 189.88 79 195.7 79 201.51 78.99 207.33 79 213.15 78.99 218.97 79 224.79 79 230.61 79 236.43 79 242.25 79 248.07 79 253.89 79 259.71 79 265.53 79 271.35 79 277.17 79 282.99 79 288.81 79 294.62 79 300.44 79 306.26 79" id="img-98889a9d-31" stroke="#00BFFF" class="geometry color_0"/>
        <path fill="none" d="M26.93,27.61 L 32.75 61.02 38.57 77.58 44.39 78.34 50.21 78.76 56.03 78.86 61.85 78.94 67.67 78.98 73.49 78.98 79.31 78.99 85.13 79 90.95 79 96.77 79 102.59 79 108.4 79 114.22 79 120.04 79 125.86 79 131.68 79 137.5 79 143.32 79 149.14 79 154.96 79 160.78 79 166.6 79 172.42 79 178.24 79 184.06 79 189.88 79 195.7 79 201.51 79 207.33 79 213.15 79 218.97 79 224.79 79 230.61 79 236.43 79 242.25 79 248.07 79 253.89 79 259.71 79 265.53 79 271.35 79 277.17 79 282.99 79 288.81 79 294.62 79 300.44 79 306.26 79" id="img-98889a9d-32" stroke="#D4CA3A" class="geometry color_1"/>
        <path fill="none" d="M26.93,30.31 L 32.75 60.16 38.57 77.01 44.39 77.94 50.21 78.39 56.03 78.7 61.85 78.84 67.67 78.9 73.49 78.94 79.31 78.94 85.13 78.96 90.95 78.98 96.77 78.98 102.59 79 108.4 79 114.22 79 120.04 79 125.86 79 131.68 79 137.5 79 143.32 79 149.14 79 154.96 79 160.78 79 166.6 79 172.42 79 178.24 79 184.06 79 189.88 79 195.7 79 201.51 79 207.33 79 213.15 79 218.97 79 224.79 79 230.61 79 236.43 79 242.25 79 248.07 79 253.89 79 259.71 79 265.53 79 271.35 79 277.17 79 282.99 79 288.81 79 294.62 79 300.44 79 306.26 79" id="img-98889a9d-33" stroke="#FF6DAE" class="geometry color_2"/>
      </g>
    </g>
  </g>
</g>
  <g class="guide ylabels" font-size="2.82" font-family="'PT Sans Caption','Helvetica Neue','Helvetica',sans-serif" fill="#6C606B" id="img-98889a9d-34">
    <text x="18.11" y="79" text-anchor="end" dy="0.35em" id="img-98889a9d-35">0.0</text>
    <text x="18.11" y="43" text-anchor="end" dy="0.35em" id="img-98889a9d-36">0.5</text>
    <text x="18.11" y="7" text-anchor="end" dy="0.35em" id="img-98889a9d-37">1.0</text>
  </g>
  <g font-size="3.88" font-family="'PT Sans','Helvetica Neue','Helvetica',sans-serif" fill="#564A55" stroke="#000000" stroke-opacity="0.000" id="img-98889a9d-38">
    <text x="8.76" y="41" text-anchor="middle" dy="0.35em" transform="rotate(-90, 8.76, 43)" id="img-98889a9d-39">Frequencia</text>
  </g>
</g>
<defs>
  <clipPath id="img-98889a9d-15">
  <path d="M19.11,5 L 139.5 5 139.5 81 19.11 81" />
</clipPath>
</defs>
</svg>
