<?xml version="1.0" encoding="UTF-8"?>
<svg xmlns="http://www.w3.org/2000/svg"
     xmlns:xlink="http://www.w3.org/1999/xlink"
     xmlns:gadfly="http://www.gadflyjl.org/ns"
     version="1.2"
     width="150mm" height="100mm" viewBox="0 0 150 100"
     stroke="none"
     fill="#000000"
     stroke-width="0.3"
     font-size="3.88"
>
<g class="plotroot xscalable yscalable" id="img-0e7e807e-1">
  <g font-size="3.88" font-family="'PT Sans','Helvetica Neue','Helvetica',sans-serif" fill="#564A55" stroke="#000000" stroke-opacity="0.000" id="img-0e7e807e-2">
    <text x="76.13" y="89.18" text-anchor="middle" dy="0.6em">Fitness</text>
  </g>
  <g class="guide xlabels" font-size="2.82" font-family="'PT Sans Caption','Helvetica Neue','Helvetica',sans-serif" fill="#6C606B" id="img-0e7e807e-3">
    <text x="22.88" y="82.71" text-anchor="middle" dy="0.6em">0.0</text>
    <text x="76.13" y="82.71" text-anchor="middle" dy="0.6em">0.5</text>
    <text x="129.39" y="82.71" text-anchor="middle" dy="0.6em">1.0</text>
  </g>
  <g class="guide colorkey" id="img-0e7e807e-4">
    <g fill="#4C404B" font-size="2.82" font-family="'PT Sans','Helvetica Neue','Helvetica',sans-serif" id="img-0e7e807e-5">
      <text x="135.12" y="36.42" dy="0.35em" id="img-0e7e807e-6" class="color_2.5e-5">2.5e-5</text>
      <text x="135.12" y="39.88" dy="0.35em" id="img-0e7e807e-7" class="color_5.0e-5">5.0e-5</text>
      <text x="135.12" y="43.35" dy="0.35em" id="img-0e7e807e-8" class="color_0.0001">0.0001</text>
      <text x="135.12" y="46.82" dy="0.35em" id="img-0e7e807e-9" class="color_0.0002">0.0002</text>
      <text x="135.12" y="50.29" dy="0.35em" id="img-0e7e807e-10" class="color_0.0005">0.0005</text>
      <text x="135.12" y="53.76" dy="0.35em" id="img-0e7e807e-11" class="color_0.001">0.001</text>
    </g>
    <g stroke="#000000" stroke-opacity="0.000" id="img-0e7e807e-12">
      <rect x="132.39" y="35.55" width="1.73" height="1.73" id="img-0e7e807e-13" class="color_2.5e-5" fill="#00BFFF"/>
      <rect x="132.39" y="39.02" width="1.73" height="1.73" id="img-0e7e807e-14" class="color_5.0e-5" fill="#D4CA3A"/>
      <rect x="132.39" y="42.49" width="1.73" height="1.73" id="img-0e7e807e-15" class="color_0.0001" fill="#FF6DAE"/>
      <rect x="132.39" y="45.96" width="1.73" height="1.73" id="img-0e7e807e-16" class="color_0.0002" fill="#00B78D"/>
      <rect x="132.39" y="49.43" width="1.73" height="1.73" id="img-0e7e807e-17" class="color_0.0005" fill="#BEA9FF"/>
      <rect x="132.39" y="52.9" width="1.73" height="1.73" id="img-0e7e807e-18" class="color_0.001" fill="#FF6765"/>
    </g>
    <g fill="#362A35" font-size="3.88" font-family="'PT Sans','Helvetica Neue','Helvetica',sans-serif" stroke="#000000" stroke-opacity="0.000" id="img-0e7e807e-19">
      <text x="132.39" y="32.36" id="img-0e7e807e-20">p</text>
    </g>
  </g>
<g clip-path="url(#img-0e7e807e-21)">
  <g id="img-0e7e807e-22">
    <g pointer-events="visible" opacity="1" fill="#000000" fill-opacity="0.000" stroke="#000000" stroke-opacity="0.000" class="guide background" id="img-0e7e807e-23">
      <rect x="20.88" y="5" width="110.51" height="76.71" id="img-0e7e807e-24"/>
    </g>
    <g class="guide ygridlines xfixed" stroke-dasharray="0.5,0.5" stroke-width="0.2" stroke="#D0D0E0" id="img-0e7e807e-25">
      <path fill="none" d="M20.88,79.71 L 131.39 79.71" id="img-0e7e807e-26"/>
      <path fill="none" d="M20.88,61.53 L 131.39 61.53" id="img-0e7e807e-27"/>
      <path fill="none" d="M20.88,43.35 L 131.39 43.35" id="img-0e7e807e-28"/>
      <path fill="none" d="M20.88,25.18 L 131.39 25.18" id="img-0e7e807e-29"/>
      <path fill="none" d="M20.88,7 L 131.39 7" id="img-0e7e807e-30"/>
    </g>
    <g class="guide xgridlines yfixed" stroke-dasharray="0.5,0.5" stroke-width="0.2" stroke="#D0D0E0" id="img-0e7e807e-31">
      <path fill="none" d="M22.88,5 L 22.88 81.71" id="img-0e7e807e-32"/>
      <path fill="none" d="M76.13,5 L 76.13 81.71" id="img-0e7e807e-33"/>
      <path fill="none" d="M129.39,5 L 129.39 81.71" id="img-0e7e807e-34"/>
    </g>
    <g class="plotpanel" id="img-0e7e807e-35">
      <g stroke-width="0.3" fill="#000000" fill-opacity="0.000" stroke-dasharray="none" id="img-0e7e807e-36">
        <path fill="none" d="M25.54,71.63 L 30.87 74.53 36.19 73.83 41.52 72.96 46.84 70.69 52.17 66.58 57.49 64.43 62.82 57.3 68.14 54.31 73.47 51.15 78.8 41.3 84.12 28.36 89.45 24.88 94.77 34.04 100.1 58.02 105.42 71.04 110.75 76.92 116.07 79.71 121.4 79.23 126.72 79.71" id="img-0e7e807e-37" stroke="#00B78D" class="geometry color_0.0002"/>
        <path fill="none" d="M25.54,69.89 L 30.87 72.72 36.19 73.12 41.52 69.44 46.84 69.59 52.17 65.64 57.49 63.2 62.82 59.34 68.14 53.38 73.47 42.32 78.8 38.37 84.12 32.51 89.45 32.4 94.77 45.34 100.1 59.62 105.42 70.31 110.75 76.71 116.07 77.32 121.4 79.71 126.72 79.71" id="img-0e7e807e-38" stroke="#00BFFF" class="geometry color_2.5e-5"/>
        <path fill="none" d="M25.54,67.28 L 30.87 72.07 36.19 72.34 41.52 72.63 46.84 71.93 52.17 67.53 57.49 63.42 62.82 61.25 68.14 48.85 73.47 38.85 78.8 37.53 84.12 30.99 89.45 33.92 94.77 45.55 100.1 58.34 105.42 72.92 110.75 76.56 116.07 79.26 121.4 79.71 126.72 79.71" id="img-0e7e807e-39" stroke="#BEA9FF" class="geometry color_0.0005"/>
        <path fill="none" d="M25.54,66.93 L 30.87 72.53 36.19 73.81 41.52 74.63 46.84 71.23 52.17 67.3 57.49 61.59 62.82 59.62 68.14 52.99 73.47 42.71 78.8 35.84 84.12 29.7 89.45 32.36 94.77 40.56 100.1 62.11 105.42 71.21 110.75 77.1 116.07 79.2 121.4 79.48 126.72 79.71" id="img-0e7e807e-40" stroke="#D4CA3A" class="geometry color_5.0e-5"/>
        <path fill="none" d="M25.54,72.7 L 30.87 73.53 36.19 73.22 41.52 73.44 46.84 72.06 52.17 70.35 57.49 63.09 62.82 61.07 68.14 51.23 73.47 49.3 78.8 36.58 84.12 21.43 89.45 27.29 94.77 43.27 100.1 58.27 105.42 69.07 110.75 76.75 116.07 78.57 121.4 79.71 126.72 79.71" id="img-0e7e807e-41" stroke="#FF6765" class="geometry color_0.001"/>
        <path fill="none" d="M25.54,69.29 L 30.87 73.79 36.19 73.55 41.52 71.76 46.84 69.53 52.17 66.2 57.49 64.85 62.82 61.26 68.14 53.5 73.47 48.77 78.8 35.12 84.12 29.68 89.45 27.56 94.77 40.73 100.1 60.51 105.42 68.71 110.75 77.82 116.07 79.23 121.4 79.08 126.72 79.71" id="img-0e7e807e-42" stroke="#FF6DAE" class="geometry color_0.0001"/>
      </g>
    </g>
  </g>
</g>
  <g class="guide ylabels" font-size="2.82" font-family="'PT Sans Caption','Helvetica Neue','Helvetica',sans-serif" fill="#6C606B" id="img-0e7e807e-43">
    <text x="19.88" y="79.71" text-anchor="end" dy="0.35em" id="img-0e7e807e-44">0.00</text>
    <text x="19.88" y="61.53" text-anchor="end" dy="0.35em" id="img-0e7e807e-45">0.05</text>
    <text x="19.88" y="43.35" text-anchor="end" dy="0.35em" id="img-0e7e807e-46">0.10</text>
    <text x="19.88" y="25.18" text-anchor="end" dy="0.35em" id="img-0e7e807e-47">0.15</text>
    <text x="19.88" y="7" text-anchor="end" dy="0.35em" id="img-0e7e807e-48">0.20</text>
  </g>
  <g font-size="3.88" font-family="'PT Sans','Helvetica Neue','Helvetica',sans-serif" fill="#564A55" stroke="#000000" stroke-opacity="0.000" id="img-0e7e807e-49">
    <text x="8.76" y="41.35" text-anchor="middle" dy="0.35em" transform="rotate(-90, 8.76, 43.35)" id="img-0e7e807e-50">Frequencia</text>
  </g>
</g>
<defs>
  <clipPath id="img-0e7e807e-21">
  <path d="M20.88,5 L 131.39 5 131.39 81.71 20.88 81.71" />
</clipPath>
</defs>
</svg>
