<?xml version="1.0" encoding="UTF-8"?>
<svg xmlns="http://www.w3.org/2000/svg"
     xmlns:xlink="http://www.w3.org/1999/xlink"
     xmlns:gadfly="http://www.gadflyjl.org/ns"
     version="1.2"
     width="150mm" height="100mm" viewBox="0 0 150 100"
     stroke="none"
     fill="#000000"
     stroke-width="0.3"
     font-size="3.88"
>
<g class="plotroot xscalable yscalable" id="img-41683716-1">
  <g font-size="3.88" font-family="'PT Sans','Helvetica Neue','Helvetica',sans-serif" fill="#564A55" stroke="#000000" stroke-opacity="0.000" id="img-41683716-2">
    <text x="75.25" y="89.18" text-anchor="middle" dy="0.6em">Fitness</text>
  </g>
  <g class="guide xlabels" font-size="2.82" font-family="'PT Sans Caption','Helvetica Neue','Helvetica',sans-serif" fill="#6C606B" id="img-41683716-3">
    <text x="22.88" y="82.71" text-anchor="middle" dy="0.6em">0.0</text>
    <text x="75.25" y="82.71" text-anchor="middle" dy="0.6em">0.5</text>
    <text x="127.62" y="82.71" text-anchor="middle" dy="0.6em">1.0</text>
  </g>
  <g class="guide colorkey" id="img-41683716-4">
    <g fill="#4C404B" font-size="2.82" font-family="'PT Sans','Helvetica Neue','Helvetica',sans-serif" id="img-41683716-5">
      <text x="133.36" y="38.15" dy="0.35em" id="img-41683716-6" class="color_0.00025">0.00025</text>
      <text x="133.36" y="41.62" dy="0.35em" id="img-41683716-7" class="color_0.0005">0.0005</text>
      <text x="133.36" y="45.09" dy="0.35em" id="img-41683716-8" class="color_0.001">0.001</text>
      <text x="133.36" y="48.56" dy="0.35em" id="img-41683716-9" class="color_0.002">0.002</text>
      <text x="133.36" y="52.03" dy="0.35em" id="img-41683716-10" class="color_0.004">0.004</text>
    </g>
    <g stroke="#000000" stroke-opacity="0.000" id="img-41683716-11">
      <rect x="130.62" y="37.28" width="1.73" height="1.73" id="img-41683716-12" class="color_0.00025" fill="#00BFFF"/>
      <rect x="130.62" y="40.75" width="1.73" height="1.73" id="img-41683716-13" class="color_0.0005" fill="#D4CA3A"/>
      <rect x="130.62" y="44.22" width="1.73" height="1.73" id="img-41683716-14" class="color_0.001" fill="#FF6DAE"/>
      <rect x="130.62" y="47.69" width="1.73" height="1.73" id="img-41683716-15" class="color_0.002" fill="#00B78D"/>
      <rect x="130.62" y="51.16" width="1.73" height="1.73" id="img-41683716-16" class="color_0.004" fill="#BEA9FF"/>
    </g>
    <g fill="#362A35" font-size="3.88" font-family="'PT Sans','Helvetica Neue','Helvetica',sans-serif" stroke="#000000" stroke-opacity="0.000" id="img-41683716-17">
      <text x="130.62" y="34.09" id="img-41683716-18">i</text>
    </g>
  </g>
<g clip-path="url(#img-41683716-19)">
  <g id="img-41683716-20">
    <g pointer-events="visible" opacity="1" fill="#000000" fill-opacity="0.000" stroke="#000000" stroke-opacity="0.000" class="guide background" id="img-41683716-21">
      <rect x="20.88" y="5" width="108.75" height="76.71" id="img-41683716-22"/>
    </g>
    <g class="guide ygridlines xfixed" stroke-dasharray="0.5,0.5" stroke-width="0.2" stroke="#D0D0E0" id="img-41683716-23">
      <path fill="none" d="M20.88,79.71 L 129.62 79.71" id="img-41683716-24"/>
      <path fill="none" d="M20.88,61.53 L 129.62 61.53" id="img-41683716-25"/>
      <path fill="none" d="M20.88,43.35 L 129.62 43.35" id="img-41683716-26"/>
      <path fill="none" d="M20.88,25.18 L 129.62 25.18" id="img-41683716-27"/>
      <path fill="none" d="M20.88,7 L 129.62 7" id="img-41683716-28"/>
    </g>
    <g class="guide xgridlines yfixed" stroke-dasharray="0.5,0.5" stroke-width="0.2" stroke="#D0D0E0" id="img-41683716-29">
      <path fill="none" d="M22.88,5 L 22.88 81.71" id="img-41683716-30"/>
      <path fill="none" d="M75.25,5 L 75.25 81.71" id="img-41683716-31"/>
      <path fill="none" d="M127.62,5 L 127.62 81.71" id="img-41683716-32"/>
    </g>
    <g class="plotpanel" id="img-41683716-33">
      <g stroke-width="0.3" fill="#000000" fill-opacity="0.000" stroke-dasharray="none" id="img-41683716-34">
        <path fill="none" d="M25.5,70.6 L 30.73 73.5 35.97 73.27 41.21 71.55 46.45 69.74 51.68 66.12 56.92 63.73 62.16 60.65 67.39 53.12 72.63 46.5 77.87 39.63 83.11 32.47 88.34 28.6 93.58 36.02 98.82 60.99 104.06 70.45 109.29 75.15 114.53 79.13 119.77 79.71 125 79.71" id="img-41683716-35" stroke="#00B78D" class="geometry color_0.002"/>
        <path fill="none" d="M25.5,67.54 L 30.73 73.11 35.97 72.85 41.21 72.15 46.45 72.46 51.68 69.39 56.92 66.2 62.16 61.03 67.39 53.17 72.63 45.62 77.87 36.83 83.11 27.55 88.34 28.63 93.58 40.12 98.82 57.34 104.06 71.74 109.29 77.52 114.53 77.95 119.77 79.71 125 79.71" id="img-41683716-36" stroke="#00BFFF" class="geometry color_0.00025"/>
        <path fill="none" d="M25.5,53.69 L 30.73 61.68 35.97 59.57 41.21 57.89 46.45 54.84 51.68 53.15 56.92 51.27 62.16 48.91 67.39 46.83 72.63 46.56 77.87 47.75 83.11 50.85 88.34 58.71 93.58 68.29 98.82 74.34 104.06 78.1 109.29 79.15 114.53 79.71 119.77 79.65 125 79.71" id="img-41683716-37" stroke="#BEA9FF" class="geometry color_0.004"/>
        <path fill="none" d="M25.5,69.54 L 30.73 73.06 35.97 73.57 41.21 73.19 46.45 71.13 51.68 68.42 56.92 63.97 62.16 60.61 67.39 57.43 72.63 43.45 77.87 32.37 83.11 29.67 88.34 27.95 93.58 46.23 98.82 55.59 104.06 70.07 109.29 75.26 114.53 79.71 119.77 79.71 125 79.71" id="img-41683716-38" stroke="#D4CA3A" class="geometry color_0.0005"/>
        <path fill="none" d="M25.5,70.17 L 30.73 74.95 35.97 73.64 41.21 73.63 46.45 69.72 51.68 69.31 56.92 64.63 62.16 60.47 67.39 55.08 72.63 41.89 77.87 37.35 83.11 26.26 88.34 28.49 93.58 38.66 98.82 60.7 104.06 69.33 109.29 77.59 114.53 79.35 119.77 79.71 125 79.71" id="img-41683716-39" stroke="#FF6DAE" class="geometry color_0.001"/>
      </g>
    </g>
  </g>
</g>
  <g class="guide ylabels" font-size="2.82" font-family="'PT Sans Caption','Helvetica Neue','Helvetica',sans-serif" fill="#6C606B" id="img-41683716-40">
    <text x="19.88" y="79.71" text-anchor="end" dy="0.35em" id="img-41683716-41">0.00</text>
    <text x="19.88" y="61.53" text-anchor="end" dy="0.35em" id="img-41683716-42">0.05</text>
    <text x="19.88" y="43.35" text-anchor="end" dy="0.35em" id="img-41683716-43">0.10</text>
    <text x="19.88" y="25.18" text-anchor="end" dy="0.35em" id="img-41683716-44">0.15</text>
    <text x="19.88" y="7" text-anchor="end" dy="0.35em" id="img-41683716-45">0.20</text>
  </g>
  <g font-size="3.88" font-family="'PT Sans','Helvetica Neue','Helvetica',sans-serif" fill="#564A55" stroke="#000000" stroke-opacity="0.000" id="img-41683716-46">
    <text x="8.76" y="41.35" text-anchor="middle" dy="0.35em" transform="rotate(-90, 8.76, 43.35)" id="img-41683716-47">Frequencia</text>
  </g>
</g>
<defs>
  <clipPath id="img-41683716-19">
  <path d="M20.88,5 L 129.62 5 129.62 81.71 20.88 81.71" />
</clipPath>
</defs>
</svg>
