<?xml version="1.0" encoding="UTF-8"?>
<svg xmlns="http://www.w3.org/2000/svg"
     xmlns:xlink="http://www.w3.org/1999/xlink"
     xmlns:gadfly="http://www.gadflyjl.org/ns"
     version="1.2"
     width="150mm" height="100mm" viewBox="0 0 150 100"
     stroke="none"
     fill="#000000"
     stroke-width="0.3"
     font-size="3.88"
>
<g class="plotroot xscalable yscalable" id="img-dfcf1e7e-1">
  <g font-size="3.88" font-family="'PT Sans','Helvetica Neue','Helvetica',sans-serif" fill="#564A55" stroke="#000000" stroke-opacity="0.000" id="img-dfcf1e7e-2">
    <text x="74.37" y="88.47" text-anchor="middle" dy="0.6em">Numero Medio de Variedades por UD</text>
  </g>
  <g class="guide xlabels" font-size="2.82" font-family="'PT Sans Caption','Helvetica Neue','Helvetica',sans-serif" fill="#6C606B" id="img-dfcf1e7e-3">
    <text x="19.35" y="82" text-anchor="middle" dy="0.6em">0</text>
    <text x="46.86" y="82" text-anchor="middle" dy="0.6em">10</text>
    <text x="74.37" y="82" text-anchor="middle" dy="0.6em">20</text>
    <text x="101.88" y="82" text-anchor="middle" dy="0.6em">30</text>
    <text x="129.39" y="82" text-anchor="middle" dy="0.6em">40</text>
  </g>
  <g class="guide colorkey" id="img-dfcf1e7e-4">
    <g fill="#4C404B" font-size="2.82" font-family="'PT Sans','Helvetica Neue','Helvetica',sans-serif" id="img-dfcf1e7e-5">
      <text x="135.12" y="36.06" dy="0.35em" id="img-dfcf1e7e-6" class="color_2.5e-5">2.5e-5</text>
      <text x="135.12" y="39.53" dy="0.35em" id="img-dfcf1e7e-7" class="color_5.0e-5">5.0e-5</text>
      <text x="135.12" y="43" dy="0.35em" id="img-dfcf1e7e-8" class="color_0.0001">0.0001</text>
      <text x="135.12" y="46.47" dy="0.35em" id="img-dfcf1e7e-9" class="color_0.0002">0.0002</text>
      <text x="135.12" y="49.94" dy="0.35em" id="img-dfcf1e7e-10" class="color_0.0005">0.0005</text>
      <text x="135.12" y="53.41" dy="0.35em" id="img-dfcf1e7e-11" class="color_0.001">0.001</text>
    </g>
    <g stroke="#000000" stroke-opacity="0.000" id="img-dfcf1e7e-12">
      <rect x="132.39" y="35.2" width="1.73" height="1.73" id="img-dfcf1e7e-13" class="color_2.5e-5" fill="#00BFFF"/>
      <rect x="132.39" y="38.66" width="1.73" height="1.73" id="img-dfcf1e7e-14" class="color_5.0e-5" fill="#D4CA3A"/>
      <rect x="132.39" y="42.13" width="1.73" height="1.73" id="img-dfcf1e7e-15" class="color_0.0001" fill="#FF6DAE"/>
      <rect x="132.39" y="45.6" width="1.73" height="1.73" id="img-dfcf1e7e-16" class="color_0.0002" fill="#00B78D"/>
      <rect x="132.39" y="49.07" width="1.73" height="1.73" id="img-dfcf1e7e-17" class="color_0.0005" fill="#BEA9FF"/>
      <rect x="132.39" y="52.54" width="1.73" height="1.73" id="img-dfcf1e7e-18" class="color_0.001" fill="#FF6765"/>
    </g>
    <g fill="#362A35" font-size="3.88" font-family="'PT Sans','Helvetica Neue','Helvetica',sans-serif" stroke="#000000" stroke-opacity="0.000" id="img-dfcf1e7e-19">
      <text x="132.39" y="32" id="img-dfcf1e7e-20">p</text>
    </g>
  </g>
<g clip-path="url(#img-dfcf1e7e-21)">
  <g id="img-dfcf1e7e-22">
    <g pointer-events="visible" opacity="1" fill="#000000" fill-opacity="0.000" stroke="#000000" stroke-opacity="0.000" class="guide background" id="img-dfcf1e7e-23">
      <rect x="17.35" y="5" width="114.04" height="76" id="img-dfcf1e7e-24"/>
    </g>
    <g class="guide ygridlines xfixed" stroke-dasharray="0.5,0.5" stroke-width="0.2" stroke="#D0D0E0" id="img-dfcf1e7e-25">
      <path fill="none" d="M17.35,79 L 131.39 79" id="img-dfcf1e7e-26"/>
      <path fill="none" d="M17.35,67 L 131.39 67" id="img-dfcf1e7e-27"/>
      <path fill="none" d="M17.35,55 L 131.39 55" id="img-dfcf1e7e-28"/>
      <path fill="none" d="M17.35,43 L 131.39 43" id="img-dfcf1e7e-29"/>
      <path fill="none" d="M17.35,31 L 131.39 31" id="img-dfcf1e7e-30"/>
      <path fill="none" d="M17.35,19 L 131.39 19" id="img-dfcf1e7e-31"/>
      <path fill="none" d="M17.35,7 L 131.39 7" id="img-dfcf1e7e-32"/>
    </g>
    <g class="guide xgridlines yfixed" stroke-dasharray="0.5,0.5" stroke-width="0.2" stroke="#D0D0E0" id="img-dfcf1e7e-33">
      <path fill="none" d="M19.35,5 L 19.35 81" id="img-dfcf1e7e-34"/>
      <path fill="none" d="M46.86,5 L 46.86 81" id="img-dfcf1e7e-35"/>
      <path fill="none" d="M74.37,5 L 74.37 81" id="img-dfcf1e7e-36"/>
      <path fill="none" d="M101.88,5 L 101.88 81" id="img-dfcf1e7e-37"/>
      <path fill="none" d="M129.39,5 L 129.39 81" id="img-dfcf1e7e-38"/>
    </g>
    <g class="plotpanel" id="img-dfcf1e7e-39">
      <g stroke-width="0.3" fill="#000000" fill-opacity="0.000" stroke-dasharray="none" id="img-dfcf1e7e-40">
        <path fill="none" d="M23.08,62.54 L 23.08 62.53 23.09 62.49 23.09 62.54 23.1 62.52 23.1 62.36 23.1 62.43 23.12 62.27 23.12 62.17 23.15 62.09 23.15 61.95 23.18 61.86 23.18 61.72 23.21 61.58 23.23 61.27 23.29 60.75 23.36 60.13 23.46 59.51 23.54 58.84 23.65 58.18 23.75 57.28 23.9 56.22 24.11 54.64 24.48 51.99 25.14 47.65 26.47 40.76 29.03 32.75 33.12 25.95 38.49 21.55 44.37 19.67 50.3 19.01 56.24 18.84 62.18 18.84 68.18 18.84 74.25 18.87 80.43 18.89 86.73 18.92 93.14 18.95 99.64 18.99 105.81 19" id="img-dfcf1e7e-41" stroke="#00B78D" class="geometry color_0.0002"/>
        <path fill="none" d="M23.07,62.59 L 23.07 62.58 23.08 62.56 23.09 62.59 23.09 62.45 23.09 62.56 23.09 62.53 23.11 62.28 23.11 62.38 23.14 62.19 23.14 62.1 23.17 62 23.17 61.91 23.2 61.75 23.21 61.5 23.27 61.04 23.34 60.37 23.45 59.78 23.53 59.24 23.64 58.61 23.73 57.91 23.87 56.93 24.06 55.33 24.42 52.68 25.02 48.61 26.24 41.78 28.69 33.67 32.73 26.28 38.08 21.71 43.96 19.78 49.99 19.18 56 18.99 62 18.97 68.06 18.96 74.16 18.96 80.38 18.97 86.68 18.97 93.07 18.99 99.58 19 105.75 19" id="img-dfcf1e7e-42" stroke="#00BFFF" class="geometry color_2.5e-5"/>
        <path fill="none" d="M23.05,62.51 L 23.05 62.53 23.05 62.51 23.06 62.52 23.06 62.54 23.06 62.52 23.07 62.35 23.07 62.45 23.09 62.28 23.1 62.17 23.12 62.09 23.13 61.98 23.15 61.87 23.16 61.74 23.2 61.53 23.23 61.13 23.31 60.54 23.39 59.9 23.5 59.38 23.56 58.8 23.66 58.19 23.77 57.3 23.96 55.98 24.24 53.62 24.8 49.37 25.98 42.62 28.42 33.9 32.52 26.41 37.94 21.65 43.86 19.47 49.89 18.76 55.93 18.57 61.98 18.52 68.02 18.56 74.16 18.57 80.37 18.66 86.7 18.76 93.11 18.87 99.59 18.98 105.78 19" id="img-dfcf1e7e-43" stroke="#BEA9FF" class="geometry color_0.0005"/>
        <path fill="none" d="M23.06,62.46 L 23.06 62.46 23.07 62.43 23.07 62.47 23.07 62.45 23.07 62.33 23.08 62.41 23.09 62.23 23.1 62.15 23.12 62.07 23.13 61.98 23.15 61.89 23.15 61.82 23.18 61.65 23.2 61.41 23.25 61.02 23.3 60.48 23.4 59.91 23.48 59.42 23.56 58.89 23.65 58.19 23.79 57.22 23.97 55.71 24.31 53.13 24.91 48.8 26.18 42.07 28.61 33.66 32.7 26.48 38.1 21.97 44 19.9 50 19.16 56.01 18.98 62.02 18.96 68.07 18.96 74.18 18.97 80.36 18.97 86.65 18.97 93.07 18.99 99.59 19 105.77 19" id="img-dfcf1e7e-44" stroke="#D4CA3A" class="geometry color_5.0e-5"/>
        <path fill="none" d="M23.07,62.52 L 23.08 62.48 23.08 62.43 23.09 62.51 23.09 62.49 23.09 62.46 23.1 62.31 23.1 62.37 23.12 62.15 23.13 62.25 23.15 61.98 23.15 62.06 23.18 61.88 23.19 61.71 23.23 61.44 23.26 61.11 23.35 60.56 23.43 60.02 23.52 59.58 23.59 58.99 23.7 58.3 23.82 57.34 24.03 55.89 24.35 53.42 24.96 49.08 26.19 42.25 28.67 33.75 32.79 26.29 38.14 21.46 44.05 19.1 50.08 18.24 56.09 18.01 62.08 17.97 68.1 18.08 74.24 18.17 80.48 18.28 86.77 18.48 93.18 18.72 99.66 18.93 105.81 19" id="img-dfcf1e7e-45" stroke="#FF6765" class="geometry color_0.001"/>
        <path fill="none" d="M23.04,63.13 L 23.04 63.12 23.04 63.09 23.05 63.13 23.05 62.99 23.05 63.11 23.06 63.05 23.07 62.91 23.08 62.8 23.11 62.7 23.11 62.58 23.14 62.48 23.14 62.33 23.17 62.15 23.19 61.84 23.25 61.45 23.31 60.89 23.41 60.27 23.49 59.68 23.6 59.13 23.69 58.48 23.83 57.51 24.02 56.05 24.34 53.67 24.92 49.61 26.1 43 28.53 34.34 32.62 26.68 37.97 22.04 43.91 19.88 49.91 19.13 55.93 18.94 61.94 18.92 67.99 18.92 74.11 18.94 80.32 18.93 86.65 18.95 93.04 18.98 99.55 19 105.73 19" id="img-dfcf1e7e-46" stroke="#FF6DAE" class="geometry color_0.0001"/>
      </g>
    </g>
  </g>
</g>
  <g class="guide ylabels" font-size="2.82" font-family="'PT Sans Caption','Helvetica Neue','Helvetica',sans-serif" fill="#6C606B" id="img-dfcf1e7e-47">
    <text x="16.35" y="79" text-anchor="end" dy="0.35em" id="img-dfcf1e7e-48">0</text>
    <text x="16.35" y="67" text-anchor="end" dy="0.35em" id="img-dfcf1e7e-49">10</text>
    <text x="16.35" y="55" text-anchor="end" dy="0.35em" id="img-dfcf1e7e-50">20</text>
    <text x="16.35" y="43" text-anchor="end" dy="0.35em" id="img-dfcf1e7e-51">30</text>
    <text x="16.35" y="31" text-anchor="end" dy="0.35em" id="img-dfcf1e7e-52">40</text>
    <text x="16.35" y="19" text-anchor="end" dy="0.35em" id="img-dfcf1e7e-53">50</text>
    <text x="16.35" y="7" text-anchor="end" dy="0.35em" id="img-dfcf1e7e-54">60</text>
  </g>
  <g font-size="3.88" font-family="'PT Sans','Helvetica Neue','Helvetica',sans-serif" fill="#564A55" stroke="#000000" stroke-opacity="0.000" id="img-dfcf1e7e-55">
    <text x="8.41" y="41" text-anchor="middle" dy="0.35em" transform="rotate(-90, 8.41, 43)" id="img-dfcf1e7e-56">Numero de Variedades</text>
  </g>
</g>
<defs>
  <clipPath id="img-dfcf1e7e-21">
  <path d="M17.35,5 L 131.39 5 131.39 81 17.35 81" />
</clipPath>
</defs>
</svg>
