<?xml version="1.0" encoding="UTF-8"?>
<svg xmlns="http://www.w3.org/2000/svg"
     xmlns:xlink="http://www.w3.org/1999/xlink"
     xmlns:gadfly="http://www.gadflyjl.org/ns"
     version="1.2"
     width="150mm" height="100mm" viewBox="0 0 150 100"
     stroke="none"
     fill="#000000"
     stroke-width="0.3"
     font-size="3.88"
>
<g class="plotroot xscalable yscalable" id="img-a9fe461e-1">
  <g font-size="3.88" font-family="'PT Sans','Helvetica Neue','Helvetica',sans-serif" fill="#564A55" stroke="#000000" stroke-opacity="0.000" id="img-a9fe461e-2">
    <text x="81.18" y="88.47" text-anchor="middle" dy="0.6em">Numero Medio de Variedades por UD</text>
  </g>
  <g class="guide xlabels" font-size="2.82" font-family="'PT Sans Caption','Helvetica Neue','Helvetica',sans-serif" fill="#6C606B" id="img-a9fe461e-3">
    <text x="19.35" y="82" text-anchor="middle" dy="0.6em">0</text>
    <text x="50.26" y="82" text-anchor="middle" dy="0.6em">10</text>
    <text x="81.18" y="82" text-anchor="middle" dy="0.6em">20</text>
    <text x="112.09" y="82" text-anchor="middle" dy="0.6em">30</text>
    <text x="143" y="82" text-anchor="middle" dy="0.6em">40</text>
  </g>
<g clip-path="url(#img-a9fe461e-4)">
  <g id="img-a9fe461e-5">
    <g pointer-events="visible" opacity="1" fill="#000000" fill-opacity="0.000" stroke="#000000" stroke-opacity="0.000" class="guide background" id="img-a9fe461e-6">
      <rect x="17.35" y="5" width="127.65" height="76"/>
    </g>
    <g class="guide ygridlines xfixed" stroke-dasharray="0.5,0.5" stroke-width="0.2" stroke="#D0D0E0" id="img-a9fe461e-7">
      <path fill="none" d="M17.35,79 L 145 79"/>
      <path fill="none" d="M17.35,67 L 145 67"/>
      <path fill="none" d="M17.35,55 L 145 55"/>
      <path fill="none" d="M17.35,43 L 145 43"/>
      <path fill="none" d="M17.35,31 L 145 31"/>
      <path fill="none" d="M17.35,19 L 145 19"/>
      <path fill="none" d="M17.35,7 L 145 7"/>
    </g>
    <g class="guide xgridlines yfixed" stroke-dasharray="0.5,0.5" stroke-width="0.2" stroke="#D0D0E0" id="img-a9fe461e-8">
      <path fill="none" d="M19.35,5 L 19.35 81"/>
      <path fill="none" d="M50.26,5 L 50.26 81"/>
      <path fill="none" d="M81.18,5 L 81.18 81"/>
      <path fill="none" d="M112.09,5 L 112.09 81"/>
      <path fill="none" d="M143,5 L 143 81"/>
    </g>
    <g class="plotpanel" id="img-a9fe461e-9">
      <g stroke-width="0.3" fill="#000000" fill-opacity="0.000" class="geometry" stroke-dasharray="none" stroke="#00BFFF" id="img-a9fe461e-10">
        <path fill="none" d="M23.51,64.75 L 23.52 64.73 23.52 64.69 23.53 64.66 23.54 64.52 23.54 64.74 23.55 64.72 23.55 64.69 23.56 64.6 23.59 64.14 23.59 64.35 23.66 63.9 23.67 63.58 23.75 63.27 23.79 62.83 23.91 62.29 23.98 61.61 24.16 60.7 24.32 59.72 24.58 58.64 24.79 57.63 25.1 56.35 25.41 54.89 25.85 53.06 26.38 50.63 27.16 47.25 28.36 42.01 30.56 35.34 34.44 28.14 40.12 22.86 46.84 20.13 53.87 19.18 61.15 18.95 68.61 18.94 76.25 18.95 84.12 18.95 92.25 18.95 100.53 18.98 108.89 18.99 116.47 19"/>
      </g>
    </g>
  </g>
</g>
  <g class="guide ylabels" font-size="2.82" font-family="'PT Sans Caption','Helvetica Neue','Helvetica',sans-serif" fill="#6C606B" id="img-a9fe461e-11">
    <text x="16.35" y="79" text-anchor="end" dy="0.35em">0</text>
    <text x="16.35" y="67" text-anchor="end" dy="0.35em">10</text>
    <text x="16.35" y="55" text-anchor="end" dy="0.35em">20</text>
    <text x="16.35" y="43" text-anchor="end" dy="0.35em">30</text>
    <text x="16.35" y="31" text-anchor="end" dy="0.35em">40</text>
    <text x="16.35" y="19" text-anchor="end" dy="0.35em">50</text>
    <text x="16.35" y="7" text-anchor="end" dy="0.35em">60</text>
  </g>
  <g font-size="3.88" font-family="'PT Sans','Helvetica Neue','Helvetica',sans-serif" fill="#564A55" stroke="#000000" stroke-opacity="0.000" id="img-a9fe461e-12">
    <text x="8.41" y="41" text-anchor="middle" dy="0.35em" transform="rotate(-90, 8.41, 43)">Numero de Variedades</text>
  </g>
</g>
<defs>
  <clipPath id="img-a9fe461e-4">
  <path d="M17.35,5 L 145 5 145 81 17.35 81" />
</clipPath>
</defs>
</svg>
