<?xml version="1.0" encoding="UTF-8"?>
<svg xmlns="http://www.w3.org/2000/svg"
     xmlns:xlink="http://www.w3.org/1999/xlink"
     xmlns:gadfly="http://www.gadflyjl.org/ns"
     version="1.2"
     width="200mm" height="100mm" viewBox="0 0 200 100"
     stroke="none"
     fill="#000000"
     stroke-width="0.3"
     font-size="3.88"
>
<g class="plotroot xscalable yscalable" id="img-500c16e2-1">
  <g font-size="3.88" font-family="'PT Sans','Helvetica Neue','Helvetica',sans-serif" fill="#564A55" stroke="#000000" stroke-opacity="0.000" id="img-500c16e2-2">
    <text x="74.35" y="89.18" text-anchor="middle" dy="0.6em">Time</text>
  </g>
  <g class="guide xlabels" font-size="2.82" font-family="'PT Sans Caption','Helvetica Neue','Helvetica',sans-serif" fill="#6C606B" id="img-500c16e2-3">
    <text x="12.53" y="82.71" text-anchor="middle" dy="0.6em">0</text>
    <text x="74.35" y="82.71" text-anchor="middle" dy="0.6em">50</text>
    <text x="136.17" y="82.71" text-anchor="middle" dy="0.6em">100</text>
  </g>
  <g class="guide colorkey" id="img-500c16e2-4">
    <g fill="#4C404B" font-size="2.82" font-family="'PT Sans','Helvetica Neue','Helvetica',sans-serif" id="img-500c16e2-5">
      <text x="142.44" y="43.35" dy="0.35em">Número de Variedades</text>
      <text x="142.44" y="47.88" dy="0.35em">Número Médio de Variedades por UD</text>
    </g>
    <g stroke="#000000" stroke-opacity="0.000" id="img-500c16e2-6">
      <rect x="139.17" y="42.22" width="2.26" height="2.26" fill="#008000"/>
      <rect x="139.17" y="46.75" width="2.26" height="2.26" fill="#FF0000"/>
    </g>
    <g fill="#362A35" font-size="3.88" font-family="'PT Sans','Helvetica Neue','Helvetica',sans-serif" stroke="#000000" stroke-opacity="0.000" id="img-500c16e2-7">
      <text x="139.17" y="36.83"></text>
    </g>
  </g>
<g clip-path="url(#img-500c16e2-8)">
  <g id="img-500c16e2-9">
    <g pointer-events="visible" opacity="1" fill="#000000" fill-opacity="0.000" stroke="#000000" stroke-opacity="0.000" class="guide background" id="img-500c16e2-10">
      <rect x="10.53" y="5" width="127.64" height="76.71"/>
    </g>
    <g class="guide ygridlines xfixed" stroke-dasharray="0.5,0.5" stroke-width="0.2" stroke="#D0D0E0" id="img-500c16e2-11">
      <path fill="none" d="M10.53,79.71 L 138.17 79.71"/>
      <path fill="none" d="M10.53,61.53 L 138.17 61.53"/>
      <path fill="none" d="M10.53,43.35 L 138.17 43.35"/>
      <path fill="none" d="M10.53,25.18 L 138.17 25.18"/>
      <path fill="none" d="M10.53,7 L 138.17 7"/>
    </g>
    <g class="guide xgridlines yfixed" stroke-dasharray="0.5,0.5" stroke-width="0.2" stroke="#D0D0E0" id="img-500c16e2-12">
      <path fill="none" d="M12.53,5 L 12.53 81.71"/>
      <path fill="none" d="M74.35,5 L 74.35 81.71"/>
      <path fill="none" d="M136.17,5 L 136.17 81.71"/>
    </g>
    <g class="plotpanel" id="img-500c16e2-13">
      <g stroke-width="0.3" fill="#000000" fill-opacity="0.000" class="geometry" stroke-dasharray="none" stroke="#FF0000" id="img-500c16e2-14">
        <path fill="none" d="M18.71,74.96 L 24.89 74.81 31.07 74.79 37.26 74.74 43.44 74.73 49.62 74.77 55.8 74.74 61.99 74.75 68.17 74.79 74.35 74.84 80.53 74.81 86.71 74.84 92.9 74.82 99.08 74.82 105.26 74.83 111.44 74.84 117.63 74.86 123.81 74.84 129.99 74.86 136.17 74.85"/>
      </g>
      <g stroke-width="0.3" fill="#000000" fill-opacity="0.000" class="geometry" stroke-dasharray="none" stroke="#008000" id="img-500c16e2-15">
        <path fill="none" d="M18.71,62.83 L 24.89 54.6 31.07 48.95 37.26 45.04 43.44 41.57 49.62 39.34 55.8 35.96 61.99 34.03 68.17 32.83 74.35 31.03 80.53 27.53 86.71 27.7 92.9 24.16 99.08 22.7 105.26 20.73 111.44 21.67 117.63 19.75 123.81 17.78 129.99 18.54 136.17 15.48"/>
      </g>
    </g>
  </g>
</g>
  <g class="guide ylabels" font-size="2.82" font-family="'PT Sans Caption','Helvetica Neue','Helvetica',sans-serif" fill="#6C606B" id="img-500c16e2-16">
    <text x="9.53" y="79.71" text-anchor="end" dy="0.35em">0</text>
    <text x="9.53" y="61.53" text-anchor="end" dy="0.35em">5</text>
    <text x="9.53" y="43.35" text-anchor="end" dy="0.35em">10</text>
    <text x="9.53" y="25.18" text-anchor="end" dy="0.35em">15</text>
    <text x="9.53" y="7" text-anchor="end" dy="0.35em">20</text>
  </g>
</g>
<defs>
  <clipPath id="img-500c16e2-8">
  <path d="M10.53,5 L 138.17 5 138.17 81.71 10.53 81.71" />
</clipPath>
</defs>
</svg>
