<?xml version="1.0" encoding="UTF-8"?>
<svg xmlns="http://www.w3.org/2000/svg"
     xmlns:xlink="http://www.w3.org/1999/xlink"
     xmlns:gadfly="http://www.gadflyjl.org/ns"
     version="1.2"
     width="150mm" height="100mm" viewBox="0 0 150 100"
     stroke="none"
     fill="#000000"
     stroke-width="0.3"
     font-size="3.88"
>
<g class="plotroot xscalable yscalable" id="img-99a2f674-1">
  <g font-size="3.88" font-family="'PT Sans','Helvetica Neue','Helvetica',sans-serif" fill="#564A55" stroke="#000000" stroke-opacity="0.000" id="img-99a2f674-2">
    <text x="78.43" y="88.47" text-anchor="middle" dy="0.6em">Appearence</text>
  </g>
  <g class="guide xlabels" font-size="2.82" font-family="'PT Sans Caption','Helvetica Neue','Helvetica',sans-serif" fill="#6C606B" id="img-99a2f674-3">
    <text x="22.88" y="82" text-anchor="middle" dy="0.6em">0.0</text>
    <text x="78.43" y="82" text-anchor="middle" dy="0.6em">0.5</text>
    <text x="133.97" y="82" text-anchor="middle" dy="0.6em">1.0</text>
  </g>
  <g class="guide colorkey" id="img-99a2f674-4">
    <g fill="#4C404B" font-size="2.82" font-family="'PT Sans','Helvetica Neue','Helvetica',sans-serif" id="img-99a2f674-5">
      <text x="139.71" y="36.06" dy="0.35em" id="img-99a2f674-6" class="color_25">25</text>
      <text x="139.71" y="39.53" dy="0.35em" id="img-99a2f674-7" class="color_36">36</text>
      <text x="139.71" y="43" dy="0.35em" id="img-99a2f674-8" class="color_49">49</text>
      <text x="139.71" y="46.47" dy="0.35em" id="img-99a2f674-9" class="color_64">64</text>
      <text x="139.71" y="49.94" dy="0.35em" id="img-99a2f674-10" class="color_81">81</text>
      <text x="139.71" y="53.41" dy="0.35em" id="img-99a2f674-11" class="color_100">100</text>
    </g>
    <g stroke="#000000" stroke-opacity="0.000" id="img-99a2f674-12">
      <rect x="136.97" y="35.2" width="1.73" height="1.73" id="img-99a2f674-13" class="color_25" fill="#00BFFF"/>
      <rect x="136.97" y="38.66" width="1.73" height="1.73" id="img-99a2f674-14" class="color_36" fill="#D4CA3A"/>
      <rect x="136.97" y="42.13" width="1.73" height="1.73" id="img-99a2f674-15" class="color_49" fill="#FF6DAE"/>
      <rect x="136.97" y="45.6" width="1.73" height="1.73" id="img-99a2f674-16" class="color_64" fill="#00B78D"/>
      <rect x="136.97" y="49.07" width="1.73" height="1.73" id="img-99a2f674-17" class="color_81" fill="#BEA9FF"/>
      <rect x="136.97" y="52.54" width="1.73" height="1.73" id="img-99a2f674-18" class="color_100" fill="#FF6765"/>
    </g>
    <g fill="#362A35" font-size="3.88" font-family="'PT Sans','Helvetica Neue','Helvetica',sans-serif" stroke="#000000" stroke-opacity="0.000" id="img-99a2f674-19">
      <text x="136.97" y="32" id="img-99a2f674-20">L</text>
    </g>
  </g>
<g clip-path="url(#img-99a2f674-21)">
  <g id="img-99a2f674-22">
    <g pointer-events="visible" opacity="1" fill="#000000" fill-opacity="0.000" stroke="#000000" stroke-opacity="0.000" class="guide background" id="img-99a2f674-23">
      <rect x="20.88" y="5" width="115.1" height="76" id="img-99a2f674-24"/>
    </g>
    <g class="guide ygridlines xfixed" stroke-dasharray="0.5,0.5" stroke-width="0.2" stroke="#D0D0E0" id="img-99a2f674-25">
      <path fill="none" d="M20.88,79 L 135.97 79" id="img-99a2f674-26"/>
      <path fill="none" d="M20.88,43 L 135.97 43" id="img-99a2f674-27"/>
      <path fill="none" d="M20.88,7 L 135.97 7" id="img-99a2f674-28"/>
    </g>
    <g class="guide xgridlines yfixed" stroke-dasharray="0.5,0.5" stroke-width="0.2" stroke="#D0D0E0" id="img-99a2f674-29">
      <path fill="none" d="M22.88,5 L 22.88 81" id="img-99a2f674-30"/>
      <path fill="none" d="M78.43,5 L 78.43 81" id="img-99a2f674-31"/>
      <path fill="none" d="M133.97,5 L 133.97 81" id="img-99a2f674-32"/>
    </g>
    <g class="plotpanel" id="img-99a2f674-33">
      <g stroke-width="0.3" fill="#000000" fill-opacity="0.000" stroke-dasharray="none" id="img-99a2f674-34">
        <path fill="none" d="M25.66,45.81 L 31.21 41.09 36.76 43.81 42.32 44.45 47.87 41.69 53.43 42.33 58.98 42 64.54 43.1 70.09 43.26 75.65 47.77 81.2 43.05 86.76 38.85 92.31 43.56 97.87 46.89 103.42 38.98 108.98 45 114.53 45.74 120.09 38.47 125.64 39.27 131.2 44.89" id="img-99a2f674-35" stroke="#00B78D" class="geometry color_64"/>
        <path fill="none" d="M25.66,42.68 L 31.21 45.93 36.76 44.69 42.32 41.89 47.87 43.4 53.43 45.88 58.98 40.1 64.54 46.65 70.09 41.47 75.65 47.76 81.2 42.63 86.76 43.78 92.31 46.13 97.87 41.25 103.42 39.53 108.98 42.77 114.53 46.13 120.09 34.66 125.64 42.49 131.2 40.22" id="img-99a2f674-36" stroke="#00BFFF" class="geometry color_25"/>
        <path fill="none" d="M25.66,46 L 31.21 44.54 36.76 35.78 42.32 39.24 47.87 49.49 53.43 45.26 58.98 46 64.54 38.83 70.09 47.15 75.65 42.43 81.2 42.97 86.76 44.01 92.31 38.44 97.87 43.58 103.42 46.71 108.98 39.96 114.53 40.08 120.09 46.23 125.64 38.83 131.2 44.47" id="img-99a2f674-37" stroke="#BEA9FF" class="geometry color_81"/>
        <path fill="none" d="M25.66,38.68 L 31.21 40.79 36.76 47 42.32 37.67 47.87 45.63 53.43 44.92 58.98 43.75 64.54 43.95 70.09 43.78 75.65 41.25 81.2 47.21 86.76 40.47 92.31 42.28 97.87 45.85 103.42 40.88 108.98 39.17 114.53 42.1 120.09 44.86 125.64 46.52 131.2 43.25" id="img-99a2f674-38" stroke="#D4CA3A" class="geometry color_36"/>
        <path fill="none" d="M25.66,40.21 L 31.21 43 36.76 43.34 42.32 41.66 47.87 49.93 53.43 43.17 58.98 38.09 64.54 39.09 70.09 46.59 75.65 46.69 81.2 43 86.76 37.08 92.31 39.65 97.87 48.37 103.42 45.24 108.98 44.15 114.53 44.18 120.09 39.61 125.64 48.76 131.2 38.22" id="img-99a2f674-39" stroke="#FF6765" class="geometry color_100"/>
        <path fill="none" d="M25.66,39.74 L 31.21 38.19 36.76 43.43 42.32 43.54 47.87 45.22 53.43 44.44 58.98 42.4 64.54 44.57 70.09 44.7 75.65 43.28 81.2 42.28 86.76 44.39 92.31 41.3 97.87 45.84 103.42 36.35 108.98 49.03 114.53 40.9 120.09 44.28 125.64 40.19 131.2 45.96" id="img-99a2f674-40" stroke="#FF6DAE" class="geometry color_49"/>
      </g>
    </g>
  </g>
</g>
  <g class="guide ylabels" font-size="2.82" font-family="'PT Sans Caption','Helvetica Neue','Helvetica',sans-serif" fill="#6C606B" id="img-99a2f674-41">
    <text x="19.88" y="79" text-anchor="end" dy="0.35em" id="img-99a2f674-42">0.00</text>
    <text x="19.88" y="43" text-anchor="end" dy="0.35em" id="img-99a2f674-43">0.05</text>
    <text x="19.88" y="7" text-anchor="end" dy="0.35em" id="img-99a2f674-44">0.10</text>
  </g>
  <g font-size="3.88" font-family="'PT Sans','Helvetica Neue','Helvetica',sans-serif" fill="#564A55" stroke="#000000" stroke-opacity="0.000" id="img-99a2f674-45">
    <text x="8.76" y="41" text-anchor="middle" dy="0.35em" transform="rotate(-90, 8.76, 43)" id="img-99a2f674-46">Frequencia</text>
  </g>
</g>
<defs>
  <clipPath id="img-99a2f674-21">
  <path d="M20.88,5 L 135.97 5 135.97 81 20.88 81" />
</clipPath>
</defs>
</svg>
