<?xml version="1.0" encoding="UTF-8"?>
<svg xmlns="http://www.w3.org/2000/svg"
     xmlns:xlink="http://www.w3.org/1999/xlink"
     xmlns:gadfly="http://www.gadflyjl.org/ns"
     version="1.2"
     width="150mm" height="100mm" viewBox="0 0 150 100"
     stroke="none"
     fill="#000000"
     stroke-width="0.3"
     font-size="3.88"
>
<defs>
  <marker id="arrow" markerWidth="15" markerHeight="7" refX="5" refY="3.5" orient="auto" markerUnits="strokeWidth">
    <path d="M0,0 L15,3.5 L0,7 z" stroke="context-stroke" fill="context-stroke"/>
  </marker>
</defs>
<g class="plotroot xscalable yscalable" id="img-2690f6dc-1">
  <g font-size="4.94" font-family="'PT Sans','Helvetica Neue','Helvetica',sans-serif" fill="#564A55" stroke="#000000" stroke-opacity="0.000" id="img-2690f6dc-2">
    <g transform="translate(82.39,87.4)">
      <g class="primitive">
        <text text-anchor="middle" dy="0.6em">Percentage of households (%)</text>
      </g>
    </g>
  </g>
  <g class="guide xlabels" font-size="3.53" font-family="'PT Sans Caption','Helvetica Neue','Helvetica',sans-serif" fill="#6C606B" id="img-2690f6dc-3">
    <g transform="translate(21.78,80.06)">
      <g class="primitive">
        <text text-anchor="middle" dy="0.6em">0</text>
      </g>
    </g>
    <g transform="translate(46.02,80.06)">
      <g class="primitive">
        <text text-anchor="middle" dy="0.6em">20</text>
      </g>
    </g>
    <g transform="translate(70.27,80.06)">
      <g class="primitive">
        <text text-anchor="middle" dy="0.6em">40</text>
      </g>
    </g>
    <g transform="translate(94.51,80.06)">
      <g class="primitive">
        <text text-anchor="middle" dy="0.6em">60</text>
      </g>
    </g>
    <g transform="translate(118.76,80.06)">
      <g class="primitive">
        <text text-anchor="middle" dy="0.6em">80</text>
      </g>
    </g>
    <g transform="translate(143,80.06)">
      <g class="primitive">
        <text text-anchor="middle" dy="0.6em">100</text>
      </g>
    </g>
  </g>
  <g clip-path="url(#img-2690f6dc-4)">
    <g id="img-2690f6dc-5">
      <g pointer-events="visible" fill="#000000" fill-opacity="0.000" stroke="#000000" stroke-opacity="0.000" class="guide background" id="img-2690f6dc-6">
        <g transform="translate(82.39,42.03)" id="img-2690f6dc-7">
          <path d="M-62.61,-37.03 L 62.61 -37.03 62.61 37.03 -62.61 37.03 z" class="primitive"/>
        </g>
      </g>
      <g class="guide ygridlines xfixed" stroke-dasharray="0.5,0.5" stroke-width="0.2" stroke="#D0D0E0" id="img-2690f6dc-8">
        <g transform="translate(82.39,77.06)" id="img-2690f6dc-9">
          <path fill="none" d="M-62.61,0 L 62.61 0" class="primitive"/>
        </g>
        <g transform="translate(82.39,53.71)" id="img-2690f6dc-10">
          <path fill="none" d="M-62.61,0 L 62.61 0" class="primitive"/>
        </g>
        <g transform="translate(82.39,30.35)" id="img-2690f6dc-11">
          <path fill="none" d="M-62.61,0 L 62.61 0" class="primitive"/>
        </g>
        <g transform="translate(82.39,7)" id="img-2690f6dc-12">
          <path fill="none" d="M-62.61,0 L 62.61 0" class="primitive"/>
        </g>
      </g>
      <g class="guide xgridlines yfixed" stroke-dasharray="0.5,0.5" stroke-width="0.2" stroke="#D0D0E0" id="img-2690f6dc-13">
        <g transform="translate(21.78,42.03)" id="img-2690f6dc-14">
          <path fill="none" d="M0,-37.03 L 0 37.03" class="primitive"/>
        </g>
        <g transform="translate(46.02,42.03)" id="img-2690f6dc-15">
          <path fill="none" d="M0,-37.03 L 0 37.03" class="primitive"/>
        </g>
        <g transform="translate(70.27,42.03)" id="img-2690f6dc-16">
          <path fill="none" d="M0,-37.03 L 0 37.03" class="primitive"/>
        </g>
        <g transform="translate(94.51,42.03)" id="img-2690f6dc-17">
          <path fill="none" d="M0,-37.03 L 0 37.03" class="primitive"/>
        </g>
        <g transform="translate(118.76,42.03)" id="img-2690f6dc-18">
          <path fill="none" d="M0,-37.03 L 0 37.03" class="primitive"/>
        </g>
        <g transform="translate(143,42.03)" id="img-2690f6dc-19">
          <path fill="none" d="M0,-37.03 L 0 37.03" class="primitive"/>
        </g>
      </g>
      <g class="plotpanel" id="img-2690f6dc-20">
        <metadata>
          <boundingbox value="19.78mm 5.0mm 125.22mm 74.06166666666667mm"/>
          <unitbox value="-1.6498927569707966 15.42819420986274 103.29978551394159 -15.856388419725478"/>
        </metadata>
        <g shape-rendering="crispEdges" stroke-width="0.3" id="img-2690f6dc-21">
          <g stroke="#000000" stroke-opacity="0.000" class="geometry" fill="#00BFFF" id="img-2690f6dc-22">
            <g transform="translate(24.25,52.45)" id="img-2690f6dc-23">
              <path d="M-1.26,-24.61 L 1.26 -24.61 1.26 24.61 -1.26 24.61 z" class="primitive"/>
            </g>
            <g transform="translate(26.73,64.97)" id="img-2690f6dc-24">
              <path d="M-1.26,-12.1 L 1.26 -12.1 1.26 12.1 -1.26 12.1 z" class="primitive"/>
            </g>
            <g transform="translate(29.2,68.54)" id="img-2690f6dc-25">
              <path d="M-1.26,-8.52 L 1.26 -8.52 1.26 8.52 -1.26 8.52 z" class="primitive"/>
            </g>
            <g transform="translate(31.68,70.27)" id="img-2690f6dc-26">
              <path d="M-1.26,-6.79 L 1.26 -6.79 1.26 6.79 -1.26 6.79 z" class="primitive"/>
            </g>
            <g transform="translate(34.15,70.75)" id="img-2690f6dc-27">
              <path d="M-1.26,-6.32 L 1.26 -6.32 1.26 6.32 -1.26 6.32 z" class="primitive"/>
            </g>
            <g transform="translate(36.62,71.34)" id="img-2690f6dc-28">
              <path d="M-1.26,-5.72 L 1.26 -5.72 1.26 5.72 -1.26 5.72 z" class="primitive"/>
            </g>
            <g transform="translate(39.1,70.76)" id="img-2690f6dc-29">
              <path d="M-1.26,-6.3 L 1.26 -6.3 1.26 6.3 -1.26 6.3 z" class="primitive"/>
            </g>
            <g transform="translate(41.57,70.29)" id="img-2690f6dc-30">
              <path d="M-1.26,-6.77 L 1.26 -6.77 1.26 6.77 -1.26 6.77 z" class="primitive"/>
            </g>
            <g transform="translate(44.04,70.69)" id="img-2690f6dc-31">
              <path d="M-1.26,-6.37 L 1.26 -6.37 1.26 6.37 -1.26 6.37 z" class="primitive"/>
            </g>
            <g transform="translate(46.52,70.57)" id="img-2690f6dc-32">
              <path d="M-1.26,-6.49 L 1.26 -6.49 1.26 6.49 -1.26 6.49 z" class="primitive"/>
            </g>
            <g transform="translate(48.99,70.27)" id="img-2690f6dc-33">
              <path d="M-1.26,-6.8 L 1.26 -6.8 1.26 6.8 -1.26 6.8 z" class="primitive"/>
            </g>
            <g transform="translate(51.47,69.68)" id="img-2690f6dc-34">
              <path d="M-1.26,-7.38 L 1.26 -7.38 1.26 7.38 -1.26 7.38 z" class="primitive"/>
            </g>
            <g transform="translate(53.94,70.16)" id="img-2690f6dc-35">
              <path d="M-1.26,-6.91 L 1.26 -6.91 1.26 6.91 -1.26 6.91 z" class="primitive"/>
            </g>
            <g transform="translate(56.41,70.01)" id="img-2690f6dc-36">
              <path d="M-1.26,-7.05 L 1.26 -7.05 1.26 7.05 -1.26 7.05 z" class="primitive"/>
            </g>
            <g transform="translate(58.89,69.82)" id="img-2690f6dc-37">
              <path d="M-1.26,-7.25 L 1.26 -7.25 1.26 7.25 -1.26 7.25 z" class="primitive"/>
            </g>
            <g transform="translate(61.36,68.85)" id="img-2690f6dc-38">
              <path d="M-1.26,-8.21 L 1.26 -8.21 1.26 8.21 -1.26 8.21 z" class="primitive"/>
            </g>
            <g transform="translate(63.84,68.94)" id="img-2690f6dc-39">
              <path d="M-1.26,-8.12 L 1.26 -8.12 1.26 8.12 -1.26 8.12 z" class="primitive"/>
            </g>
            <g transform="translate(66.31,69.9)" id="img-2690f6dc-40">
              <path d="M-1.26,-7.16 L 1.26 -7.16 1.26 7.16 -1.26 7.16 z" class="primitive"/>
            </g>
            <g transform="translate(68.78,70.09)" id="img-2690f6dc-41">
              <path d="M-1.26,-6.97 L 1.26 -6.97 1.26 6.97 -1.26 6.97 z" class="primitive"/>
            </g>
            <g transform="translate(71.26,68.68)" id="img-2690f6dc-42">
              <path d="M-1.26,-8.39 L 1.26 -8.39 1.26 8.39 -1.26 8.39 z" class="primitive"/>
            </g>
            <g transform="translate(73.73,69.24)" id="img-2690f6dc-43">
              <path d="M-1.26,-7.82 L 1.26 -7.82 1.26 7.82 -1.26 7.82 z" class="primitive"/>
            </g>
            <g transform="translate(76.21,70.13)" id="img-2690f6dc-44">
              <path d="M-1.26,-6.93 L 1.26 -6.93 1.26 6.93 -1.26 6.93 z" class="primitive"/>
            </g>
            <g transform="translate(78.68,70.21)" id="img-2690f6dc-45">
              <path d="M-1.26,-6.85 L 1.26 -6.85 1.26 6.85 -1.26 6.85 z" class="primitive"/>
            </g>
            <g transform="translate(81.15,71.4)" id="img-2690f6dc-46">
              <path d="M-1.26,-5.67 L 1.26 -5.67 1.26 5.67 -1.26 5.67 z" class="primitive"/>
            </g>
            <g transform="translate(83.63,71.42)" id="img-2690f6dc-47">
              <path d="M-1.26,-5.64 L 1.26 -5.64 1.26 5.64 -1.26 5.64 z" class="primitive"/>
            </g>
            <g transform="translate(86.1,71.8)" id="img-2690f6dc-48">
              <path d="M-1.26,-5.26 L 1.26 -5.26 1.26 5.26 -1.26 5.26 z" class="primitive"/>
            </g>
            <g transform="translate(88.57,72.08)" id="img-2690f6dc-49">
              <path d="M-1.26,-4.98 L 1.26 -4.98 1.26 4.98 -1.26 4.98 z" class="primitive"/>
            </g>
            <g transform="translate(91.05,73.22)" id="img-2690f6dc-50">
              <path d="M-1.26,-3.84 L 1.26 -3.84 1.26 3.84 -1.26 3.84 z" class="primitive"/>
            </g>
            <g transform="translate(93.52,73.5)" id="img-2690f6dc-51">
              <path d="M-1.26,-3.56 L 1.26 -3.56 1.26 3.56 -1.26 3.56 z" class="primitive"/>
            </g>
            <g transform="translate(96,73.49)" id="img-2690f6dc-52">
              <path d="M-1.26,-3.57 L 1.26 -3.57 1.26 3.57 -1.26 3.57 z" class="primitive"/>
            </g>
            <g transform="translate(98.47,74.24)" id="img-2690f6dc-53">
              <path d="M-1.26,-2.82 L 1.26 -2.82 1.26 2.82 -1.26 2.82 z" class="primitive"/>
            </g>
            <g transform="translate(100.94,74.03)" id="img-2690f6dc-54">
              <path d="M-1.26,-3.03 L 1.26 -3.03 1.26 3.03 -1.26 3.03 z" class="primitive"/>
            </g>
            <g transform="translate(103.42,74.61)" id="img-2690f6dc-55">
              <path d="M-1.26,-2.45 L 1.26 -2.45 1.26 2.45 -1.26 2.45 z" class="primitive"/>
            </g>
            <g transform="translate(105.89,76.16)" id="img-2690f6dc-56">
              <path d="M-1.26,-0.9 L 1.26 -0.9 1.26 0.9 -1.26 0.9 z" class="primitive"/>
            </g>
            <g transform="translate(108.37,76.05)" id="img-2690f6dc-57">
              <path d="M-1.26,-1.01 L 1.26 -1.01 1.26 1.01 -1.26 1.01 z" class="primitive"/>
            </g>
            <g transform="translate(110.84,76.44)" id="img-2690f6dc-58">
              <path d="M-1.26,-0.62 L 1.26 -0.62 1.26 0.62 -1.26 0.62 z" class="primitive"/>
            </g>
            <g transform="translate(113.31,76.39)" id="img-2690f6dc-59">
              <path d="M-1.26,-0.67 L 1.26 -0.67 1.26 0.67 -1.26 0.67 z" class="primitive"/>
            </g>
            <g transform="translate(115.79,76.43)" id="img-2690f6dc-60">
              <path d="M-1.26,-0.63 L 1.26 -0.63 1.26 0.63 -1.26 0.63 z" class="primitive"/>
            </g>
            <g transform="translate(118.26,76.28)" id="img-2690f6dc-61">
              <path d="M-1.26,-0.78 L 1.26 -0.78 1.26 0.78 -1.26 0.78 z" class="primitive"/>
            </g>
            <g transform="translate(120.74,76.23)" id="img-2690f6dc-62">
              <path d="M-1.26,-0.84 L 1.26 -0.84 1.26 0.84 -1.26 0.84 z" class="primitive"/>
            </g>
            <g transform="translate(123.21,76.62)" id="img-2690f6dc-63">
              <path d="M-1.26,-0.45 L 1.26 -0.45 1.26 0.45 -1.26 0.45 z" class="primitive"/>
            </g>
            <g transform="translate(125.68,76.78)" id="img-2690f6dc-64">
              <path d="M-1.26,-0.28 L 1.26 -0.28 1.26 0.28 -1.26 0.28 z" class="primitive"/>
            </g>
            <g transform="translate(128.16,76.96)" id="img-2690f6dc-65">
              <path d="M-1.26,-0.1 L 1.26 -0.1 1.26 0.1 -1.26 0.1 z" class="primitive"/>
            </g>
            <g transform="translate(130.63,77.07)" id="img-2690f6dc-66">
              <path d="M-1.26,-0 L 1.26 -0 1.26 0 -1.26 0 z" class="primitive"/>
            </g>
            <g transform="translate(133.1,76.92)" id="img-2690f6dc-67">
              <path d="M-1.26,-0.15 L 1.26 -0.15 1.26 0.15 -1.26 0.15 z" class="primitive"/>
            </g>
            <g transform="translate(135.58,76.77)" id="img-2690f6dc-68">
              <path d="M-1.26,-0.29 L 1.26 -0.29 1.26 0.29 -1.26 0.29 z" class="primitive"/>
            </g>
            <g transform="translate(138.05,77.07)" id="img-2690f6dc-69">
              <path d="M-1.26,-0 L 1.26 -0 1.26 0 -1.26 0 z" class="primitive"/>
            </g>
            <g transform="translate(140.53,77.07)" id="img-2690f6dc-70">
              <path d="M-1.26,-0 L 1.26 -0 1.26 0 -1.26 0 z" class="primitive"/>
            </g>
            <g transform="translate(143,76.87)" id="img-2690f6dc-71">
              <path d="M-1.26,-0.19 L 1.26 -0.19 1.26 0.19 -1.26 0.19 z" class="primitive"/>
            </g>
          </g>
        </g>
      </g>
    </g>
  </g>
  <g class="guide ylabels" font-size="3.53" font-family="'PT Sans Caption','Helvetica Neue','Helvetica',sans-serif" fill="#6C606B" id="img-2690f6dc-72">
    <g transform="translate(18.78,77.06)" id="img-2690f6dc-73">
      <g class="primitive">
        <text text-anchor="end" dy="0.35em">0</text>
      </g>
    </g>
    <g transform="translate(18.78,53.71)" id="img-2690f6dc-74">
      <g class="primitive">
        <text text-anchor="end" dy="0.35em">5</text>
      </g>
    </g>
    <g transform="translate(18.78,30.35)" id="img-2690f6dc-75">
      <g class="primitive">
        <text text-anchor="end" dy="0.35em">10</text>
      </g>
    </g>
    <g transform="translate(18.78,7)" id="img-2690f6dc-76">
      <g class="primitive">
        <text text-anchor="end" dy="0.35em">15</text>
      </g>
    </g>
  </g>
  <g font-size="4.94" font-family="'PT Sans','Helvetica Neue','Helvetica',sans-serif" fill="#564A55" stroke="#000000" stroke-opacity="0.000" id="img-2690f6dc-77">
    <g transform="translate(9.3,40.03)" id="img-2690f6dc-78">
      <g class="primitive">
        <text text-anchor="middle" dy="0.35em" transform="rotate(-90,0, 2)">Percentage of varieties (%)</text>
      </g>
    </g>
  </g>
</g>
<defs>
  <clipPath id="img-2690f6dc-4">
    <path d="M19.78,5 L 145 5 145 79.06 19.78 79.06" />
  </clipPath>
</defs>
</svg>
