<?xml version="1.0" encoding="UTF-8"?>
<svg xmlns="http://www.w3.org/2000/svg"
     xmlns:xlink="http://www.w3.org/1999/xlink"
     xmlns:gadfly="http://www.gadflyjl.org/ns"
     version="1.2"
     width="150mm" height="100mm" viewBox="0 0 150 100"
     stroke="none"
     fill="#000000"
     stroke-width="0.3"
     font-size="3.88"
>
<defs>
  <marker id="arrow" markerWidth="15" markerHeight="7" refX="5" refY="3.5" orient="auto" markerUnits="strokeWidth">
    <path d="M0,0 L15,3.5 L0,7 z" stroke="context-stroke" fill="context-stroke"/>
  </marker>
</defs>
<g class="plotroot xscalable yscalable" id="img-c0a2235f-1">
  <g font-size="3.88" font-family="'PT Sans','Helvetica Neue','Helvetica',sans-serif" fill="#564A55" stroke="#000000" stroke-opacity="0.000" id="img-c0a2235f-2">
    <g transform="translate(78.8,88.39)">
      <g class="primitive">
        <text text-anchor="middle" dy="0.6em">Quality</text>
      </g>
    </g>
  </g>
  <g class="guide xlabels" font-size="2.82" font-family="'PT Sans Caption','Helvetica Neue','Helvetica',sans-serif" fill="#6C606B" id="img-c0a2235f-3">
    <g transform="translate(19.96,81.72)">
      <g class="primitive">
        <text text-anchor="middle" dy="0.6em">0.0</text>
      </g>
    </g>
    <g transform="translate(78.8,81.72)">
      <g class="primitive">
        <text text-anchor="middle" dy="0.6em">0.5</text>
      </g>
    </g>
    <g transform="translate(137.65,81.72)">
      <g class="primitive">
        <text text-anchor="middle" dy="0.6em">1.0</text>
      </g>
    </g>
  </g>
  <g class="guide colorkey" id="img-c0a2235f-4">
    <g fill="#4C404B" font-size="2.82" font-family="'PT Sans','Helvetica Neue','Helvetica',sans-serif" id="img-c0a2235f-5">
      <g transform="translate(143.46,41.04)" id="img-c0a2235f-6" class="color_1">
        <g class="primitive">
          <text dy="0.35em">1</text>
        </g>
      </g>
      <g transform="translate(143.46,44.67)" id="img-c0a2235f-7" class="color_3">
        <g class="primitive">
          <text dy="0.35em">3</text>
        </g>
      </g>
      <g transform="translate(143.46,48.3)" id="img-c0a2235f-8" class="color_5">
        <g class="primitive">
          <text dy="0.35em">5</text>
        </g>
      </g>
    </g>
    <g fill-opacity="1" id="img-c0a2235f-9">
      <g transform="translate(141.55,41.04)" id="img-c0a2235f-10" fill="#00BFFF" class="color_1" stroke="#FFFFFF">
        <path d="M-0.91,-0.91 L 0.91 -0.91 0.91 0.91 -0.91 0.91 z" class="primitive"/>
      </g>
      <g transform="translate(141.55,44.67)" id="img-c0a2235f-11" fill="#D4CA3A" class="color_3" stroke="#FFFFFF">
        <path d="M-0.91,-0.91 L 0.91 -0.91 0.91 0.91 -0.91 0.91 z" class="primitive"/>
      </g>
      <g transform="translate(141.55,48.3)" id="img-c0a2235f-12" fill="#FF6DAE" class="color_5" stroke="#FFFFFF">
        <path d="M-0.91,-0.91 L 0.91 -0.91 0.91 0.91 -0.91 0.91 z" class="primitive"/>
      </g>
    </g>
    <g fill="#362A35" font-size="3.88" font-family="'PT Sans','Helvetica Neue','Helvetica',sans-serif" stroke="#000000" stroke-opacity="0.000" id="img-c0a2235f-13">
      <g transform="translate(140.65,37.22)" id="img-c0a2235f-14">
        <g class="primitive">
          <text dy="-0em">H</text>
        </g>
      </g>
    </g>
  </g>
  <g clip-path="url(#img-c0a2235f-15)">
    <g id="img-c0a2235f-16">
      <g pointer-events="visible" fill="#000000" fill-opacity="0.000" stroke="#000000" stroke-opacity="0.000" class="guide background" id="img-c0a2235f-17">
        <g transform="translate(78.8,42.86)" id="img-c0a2235f-18">
          <path d="M-60.84,-37.86 L 60.84 -37.86 60.84 37.86 -60.84 37.86 z" class="primitive"/>
        </g>
      </g>
      <g class="guide ygridlines xfixed" stroke-dasharray="0.5,0.5" stroke-width="0.2" stroke="#D0D0E0" id="img-c0a2235f-19">
        <g transform="translate(78.8,78.72)" id="img-c0a2235f-20">
          <path fill="none" d="M-60.84,0 L 60.84 0" class="primitive"/>
        </g>
        <g transform="translate(78.8,60.79)" id="img-c0a2235f-21">
          <path fill="none" d="M-60.84,0 L 60.84 0" class="primitive"/>
        </g>
        <g transform="translate(78.8,42.86)" id="img-c0a2235f-22">
          <path fill="none" d="M-60.84,0 L 60.84 0" class="primitive"/>
        </g>
        <g transform="translate(78.8,24.93)" id="img-c0a2235f-23">
          <path fill="none" d="M-60.84,0 L 60.84 0" class="primitive"/>
        </g>
        <g transform="translate(78.8,7)" id="img-c0a2235f-24">
          <path fill="none" d="M-60.84,0 L 60.84 0" class="primitive"/>
        </g>
      </g>
      <g class="guide xgridlines yfixed" stroke-dasharray="0.5,0.5" stroke-width="0.2" stroke="#D0D0E0" id="img-c0a2235f-25">
        <g transform="translate(19.96,42.86)" id="img-c0a2235f-26">
          <path fill="none" d="M0,-37.86 L 0 37.86" class="primitive"/>
        </g>
        <g transform="translate(78.8,42.86)" id="img-c0a2235f-27">
          <path fill="none" d="M0,-37.86 L 0 37.86" class="primitive"/>
        </g>
        <g transform="translate(137.65,42.86)" id="img-c0a2235f-28">
          <path fill="none" d="M0,-37.86 L 0 37.86" class="primitive"/>
        </g>
      </g>
      <g class="plotpanel" id="img-c0a2235f-29">
        <metadata>
          <boundingbox value="17.958333333333343mm 5.0mm 121.68833333333333mm 75.715mm"/>
          <unitbox value="-0.01699403792502797 41.115526737781494 1.033988075850056 -42.231053475562994"/>
        </metadata>
        <g stroke-width="0.3" fill="#000000" fill-opacity="0.000" class="geometry" id="img-c0a2235f-30">
          <g transform="translate(78.8,69.75)" id="img-c0a2235f-31" stroke-dasharray="none" class="color_1" stroke="#00BFFF">
            <path fill="none" d="M-55.9,8.96 L -50.02 8.96 -44.13 8.96 -38.25 8.96 -32.36 8.93 -26.48 8.85 -20.6 8.64 -14.71 5.02 -8.83 -13.09 -2.94 -48.19 2.94 -49.43 8.83 -20.47 14.71 2.06 20.6 8.19 26.48 8.89 32.36 8.89 38.25 8.96 44.13 8.96 50.02 8.96 55.9 8.96" class="primitive"/>
          </g>
          <g transform="translate(78.8,69.75)" id="img-c0a2235f-32" stroke-dasharray="none" class="color_3" stroke="#D4CA3A">
            <path fill="none" d="M-55.9,8.96 L -50.02 8.96 -44.13 8.96 -38.25 8.96 -32.36 8.9 -26.48 8.8 -20.6 8.37 -14.71 5 -8.83 -12.22 -2.94 -44.11 2.94 -53.21 8.83 -21.98 14.71 2.9 20.6 8.05 26.48 8.85 32.36 8.95 38.25 8.96 44.13 8.96 50.02 8.96 55.9 8.96" class="primitive"/>
          </g>
          <g transform="translate(78.8,69.75)" id="img-c0a2235f-33" stroke-dasharray="none" class="color_5" stroke="#FF6DAE">
            <path fill="none" d="M-55.9,8.96 L -50.02 8.96 -44.13 8.94 -38.25 8.94 -32.36 8.94 -26.48 8.64 -20.6 8.34 -14.71 4.16 -8.83 -14.11 -2.94 -45.94 2.94 -48.65 8.83 -21.41 14.71 2.71 20.6 8 26.48 8.78 32.36 8.9 38.25 8.94 44.13 8.96 50.02 8.96 55.9 8.96" class="primitive"/>
          </g>
        </g>
      </g>
    </g>
  </g>
  <g class="guide ylabels" font-size="2.82" font-family="'PT Sans Caption','Helvetica Neue','Helvetica',sans-serif" fill="#6C606B" id="img-c0a2235f-34">
    <g transform="translate(16.96,78.72)" id="img-c0a2235f-35">
      <g class="primitive">
        <text text-anchor="end" dy="0.35em">0</text>
      </g>
    </g>
    <g transform="translate(16.96,60.79)" id="img-c0a2235f-36">
      <g class="primitive">
        <text text-anchor="end" dy="0.35em">10</text>
      </g>
    </g>
    <g transform="translate(16.96,42.86)" id="img-c0a2235f-37">
      <g class="primitive">
        <text text-anchor="end" dy="0.35em">20</text>
      </g>
    </g>
    <g transform="translate(16.96,24.93)" id="img-c0a2235f-38">
      <g class="primitive">
        <text text-anchor="end" dy="0.35em">30</text>
      </g>
    </g>
    <g transform="translate(16.96,7)" id="img-c0a2235f-39">
      <g class="primitive">
        <text text-anchor="end" dy="0.35em">40</text>
      </g>
    </g>
  </g>
  <g font-size="3.88" font-family="'PT Sans','Helvetica Neue','Helvetica',sans-serif" fill="#564A55" stroke="#000000" stroke-opacity="0.000" id="img-c0a2235f-40">
    <g transform="translate(8.81,40.86)" id="img-c0a2235f-41">
      <g class="primitive">
        <text text-anchor="middle" dy="0.35em" transform="rotate(-90,0, 2)">Occupied area (%)</text>
      </g>
    </g>
  </g>
</g>
<defs>
  <clipPath id="img-c0a2235f-15">
    <path d="M17.96,5 L 139.65 5 139.65 80.72 17.96 80.72" />
  </clipPath>
</defs>
</svg>
