<?xml version="1.0" encoding="UTF-8"?>
<svg xmlns="http://www.w3.org/2000/svg"
     xmlns:xlink="http://www.w3.org/1999/xlink"
     xmlns:gadfly="http://www.gadflyjl.org/ns"
     version="1.2"
     width="150mm" height="100mm" viewBox="0 0 150 100"
     stroke="none"
     fill="#000000"
     stroke-width="0.3"
     font-size="3.88"
>
<defs>
  <marker id="arrow" markerWidth="15" markerHeight="7" refX="5" refY="3.5" orient="auto" markerUnits="strokeWidth">
    <path d="M0,0 L15,3.5 L0,7 z" stroke="context-stroke" fill="context-stroke"/>
  </marker>
</defs>
<g class="plotroot xscalable yscalable" id="img-c87bd2ed-1">
  <g font-size="4.94" font-family="'PT Sans','Helvetica Neue','Helvetica',sans-serif" fill="#564A55" stroke="#000000" stroke-opacity="0.000" id="img-c87bd2ed-2">
    <g transform="translate(76.69,87.4)">
      <g class="primitive">
        <text text-anchor="middle" dy="0.6em">Occupied area in community (%)</text>
      </g>
    </g>
  </g>
  <g class="guide xlabels" font-size="3.53" font-family="'PT Sans Caption','Helvetica Neue','Helvetica',sans-serif" fill="#6C606B" id="img-c87bd2ed-3">
    <g transform="translate(34.14,80.06)">
      <g class="primitive">
        <text text-anchor="middle" dy="0.6em">0.1</text>
      </g>
    </g>
    <g transform="translate(66.63,80.06)">
      <g class="primitive">
        <text text-anchor="middle" dy="0.6em">1.0</text>
      </g>
    </g>
    <g transform="translate(89.37,80.06)">
      <g class="primitive">
        <text text-anchor="middle" dy="0.6em">5.0</text>
      </g>
    </g>
    <g transform="translate(99.11,80.06)">
      <g class="primitive">
        <text text-anchor="middle" dy="0.6em">10.0</text>
      </g>
    </g>
    <g transform="translate(121.82,80.06)">
      <g class="primitive">
        <text text-anchor="middle" dy="0.6em">50.0</text>
      </g>
    </g>
    <g transform="translate(131.6,80.06)">
      <g class="primitive">
        <text text-anchor="middle" dy="0.6em">100.0</text>
      </g>
    </g>
  </g>
  <g class="guide colorkey" id="img-c87bd2ed-4">
    <g fill="#4C404B" font-size="4.23" font-family="'PT Sans','Helvetica Neue','Helvetica',sans-serif" id="img-c87bd2ed-5">
      <g transform="translate(138.07,34.62)" id="img-c87bd2ed-6" class="color_5">
        <g class="primitive">
          <text dy="0.35em">5</text>
        </g>
      </g>
      <g transform="translate(138.07,39.56)" id="img-c87bd2ed-7" class="color_10">
        <g class="primitive">
          <text dy="0.35em">10</text>
        </g>
      </g>
      <g transform="translate(138.07,44.5)" id="img-c87bd2ed-8" class="color_25">
        <g class="primitive">
          <text dy="0.35em">25</text>
        </g>
      </g>
      <g transform="translate(138.07,49.44)" id="img-c87bd2ed-9" class="color_50">
        <g class="primitive">
          <text dy="0.35em">50</text>
        </g>
      </g>
      <g transform="translate(138.07,54.38)" id="img-c87bd2ed-10" class="color_100">
        <g class="primitive">
          <text dy="0.35em">100</text>
        </g>
      </g>
    </g>
    <g fill-opacity="1" id="img-c87bd2ed-11">
      <g transform="translate(135.84,34.62)" id="img-c87bd2ed-12" fill="#00BFFF" class="color_5" stroke="#FFFFFF">
        <path d="M-1.23,-1.23 L 1.23 -1.23 1.23 1.23 -1.23 1.23 z" class="primitive"/>
      </g>
      <g transform="translate(135.84,39.56)" id="img-c87bd2ed-13" fill="#D4CA3A" class="color_10" stroke="#FFFFFF">
        <path d="M-1.23,-1.23 L 1.23 -1.23 1.23 1.23 -1.23 1.23 z" class="primitive"/>
      </g>
      <g transform="translate(135.84,44.5)" id="img-c87bd2ed-14" fill="#FF6DAE" class="color_25" stroke="#FFFFFF">
        <path d="M-1.23,-1.23 L 1.23 -1.23 1.23 1.23 -1.23 1.23 z" class="primitive"/>
      </g>
      <g transform="translate(135.84,49.44)" id="img-c87bd2ed-15" fill="#00B78D" class="color_50" stroke="#FFFFFF">
        <path d="M-1.23,-1.23 L 1.23 -1.23 1.23 1.23 -1.23 1.23 z" class="primitive"/>
      </g>
      <g transform="translate(135.84,54.38)" id="img-c87bd2ed-16" fill="#BEA9FF" class="color_100" stroke="#FFFFFF">
        <path d="M-1.23,-1.23 L 1.23 -1.23 1.23 1.23 -1.23 1.23 z" class="primitive"/>
      </g>
    </g>
    <g fill="#362A35" font-size="4.94" font-family="'PT Sans','Helvetica Neue','Helvetica',sans-serif" stroke="#000000" stroke-opacity="0.000" id="img-c87bd2ed-17">
      <g transform="translate(134.6,29.98)" id="img-c87bd2ed-18">
        <g class="primitive">
          <text dy="-0em">V</text>
        </g>
      </g>
    </g>
  </g>
  <g clip-path="url(#img-c87bd2ed-19)">
    <g id="img-c87bd2ed-20">
      <g pointer-events="visible" fill="#000000" fill-opacity="0.000" stroke="#000000" stroke-opacity="0.000" class="guide background" id="img-c87bd2ed-21">
        <g transform="translate(76.69,42.03)" id="img-c87bd2ed-22">
          <path d="M-56.91,-37.03 L 56.91 -37.03 56.91 37.03 -56.91 37.03 z" class="primitive"/>
        </g>
      </g>
      <g class="guide ygridlines xfixed" stroke-dasharray="0.5,0.5" stroke-width="0.2" stroke="#D0D0E0" id="img-c87bd2ed-23">
        <g transform="translate(76.69,77.06)" id="img-c87bd2ed-24">
          <path fill="none" d="M-56.91,0 L 56.91 0" class="primitive"/>
        </g>
        <g transform="translate(76.69,63.05)" id="img-c87bd2ed-25">
          <path fill="none" d="M-56.91,0 L 56.91 0" class="primitive"/>
        </g>
        <g transform="translate(76.69,49.04)" id="img-c87bd2ed-26">
          <path fill="none" d="M-56.91,0 L 56.91 0" class="primitive"/>
        </g>
        <g transform="translate(76.69,35.02)" id="img-c87bd2ed-27">
          <path fill="none" d="M-56.91,0 L 56.91 0" class="primitive"/>
        </g>
        <g transform="translate(76.69,21.01)" id="img-c87bd2ed-28">
          <path fill="none" d="M-56.91,0 L 56.91 0" class="primitive"/>
        </g>
        <g transform="translate(76.69,7)" id="img-c87bd2ed-29">
          <path fill="none" d="M-56.91,0 L 56.91 0" class="primitive"/>
        </g>
      </g>
      <g class="guide xgridlines yfixed" stroke-dasharray="0.5,0.5" stroke-width="0.2" stroke="#D0D0E0" id="img-c87bd2ed-30">
        <g transform="translate(34.14,42.03)" id="img-c87bd2ed-31">
          <path fill="none" d="M0,-37.03 L 0 37.03" class="primitive"/>
        </g>
        <g transform="translate(66.63,42.03)" id="img-c87bd2ed-32">
          <path fill="none" d="M0,-37.03 L 0 37.03" class="primitive"/>
        </g>
        <g transform="translate(89.37,42.03)" id="img-c87bd2ed-33">
          <path fill="none" d="M0,-37.03 L 0 37.03" class="primitive"/>
        </g>
        <g transform="translate(99.11,42.03)" id="img-c87bd2ed-34">
          <path fill="none" d="M0,-37.03 L 0 37.03" class="primitive"/>
        </g>
        <g transform="translate(121.82,42.03)" id="img-c87bd2ed-35">
          <path fill="none" d="M0,-37.03 L 0 37.03" class="primitive"/>
        </g>
        <g transform="translate(131.6,42.03)" id="img-c87bd2ed-36">
          <path fill="none" d="M0,-37.03 L 0 37.03" class="primitive"/>
        </g>
      </g>
      <g class="plotpanel" id="img-c87bd2ed-37">
        <metadata>
          <boundingbox value="19.78mm 5.0mm 113.82mm 74.06166666666667mm"/>
          <unitbox value="-1.4419547099468353 25.7136570164379 3.5035171265082163 -26.4273140328758"/>
        </metadata>
        <g stroke-width="0.3" fill="#000000" fill-opacity="0.000" class="geometry" id="img-c87bd2ed-38">
          <g transform="translate(73.76,60.58)" id="img-c87bd2ed-39" stroke-dasharray="none" class="color_5" stroke="#00BFFF">
            <path fill="none" d="M-51.98,-6.27 L -45.48 11.43 -38.98 13.62 -32.49 11.19 -25.99 11.02 -19.49 8.45 -12.99 3.62 -6.5 -1.83 0 -12.63 6.5 -29.55 12.99 -42.86 19.49 -33.85 25.99 4.84 32.49 15.34 38.98 16.2 45.48 16.2 51.98 15.08" class="primitive"/>
          </g>
          <g transform="translate(73.76,60.58)" id="img-c87bd2ed-40" stroke-dasharray="none" class="color_10" stroke="#D4CA3A">
            <path fill="none" d="M-51.98,-5.7 L -45.48 10.47 -38.98 13.43 -32.49 10.35 -25.99 10.74 -19.49 8.51 -12.99 4.77 -6.5 0.72 0 -11.31 6.5 -28.03 12.99 -47.73 19.49 -35.85 25.99 5.85 32.49 15.73 38.98 16.49 45.48 15.08 51.98 16.49" class="primitive"/>
          </g>
          <g transform="translate(73.76,60.58)" id="img-c87bd2ed-41" stroke-dasharray="none" class="color_25" stroke="#FF6DAE">
            <path fill="none" d="M-51.98,-3.36 L -45.48 9.72 -38.98 13.44 -32.49 10.65 -25.99 10.34 -19.49 10.01 -12.99 3.89 -6.5 -2.75 0 -10.89 6.5 -29.05 12.99 -46.4 19.49 -34.21 25.99 4.52 32.49 15.26 38.98 16.2 45.48 16.13 51.98 16.49" class="primitive"/>
          </g>
          <g transform="translate(73.76,60.58)" id="img-c87bd2ed-42" stroke-dasharray="none" class="color_50" stroke="#00B78D">
            <path fill="none" d="M-51.98,-4.27 L -45.48 9.85 -38.98 13.28 -32.49 10.56 -25.99 10.98 -19.49 10.51 -12.99 5.01 -6.5 3.01 0 -9.62 6.5 -27.01 12.99 -48.25 19.49 -38.89 25.99 1.14 32.49 14.24 38.98 16.49 45.48 16.49 51.98 16.49" class="primitive"/>
          </g>
          <g transform="translate(73.76,60.58)" id="img-c87bd2ed-43" stroke-dasharray="none" class="color_100" stroke="#BEA9FF">
            <path fill="none" d="M-51.98,-4.14 L -45.48 9.44 -38.98 13.05 -32.49 11.29 -25.99 10.82 -19.49 10.46 -12.99 4.23 -6.5 0.42 0 -9.95 6.5 -29.62 12.99 -45.83 19.49 -37.38 25.99 4.21 32.49 13.78 38.98 16.25 45.48 16.49 51.98 16.49" class="primitive"/>
          </g>
        </g>
      </g>
    </g>
  </g>
  <g class="guide ylabels" font-size="3.53" font-family="'PT Sans Caption','Helvetica Neue','Helvetica',sans-serif" fill="#6C606B" id="img-c87bd2ed-44">
    <g transform="translate(18.78,77.06)" id="img-c87bd2ed-45">
      <g class="primitive">
        <text text-anchor="end" dy="0.35em">0</text>
      </g>
    </g>
    <g transform="translate(18.78,63.05)" id="img-c87bd2ed-46">
      <g class="primitive">
        <text text-anchor="end" dy="0.35em">5</text>
      </g>
    </g>
    <g transform="translate(18.78,49.04)" id="img-c87bd2ed-47">
      <g class="primitive">
        <text text-anchor="end" dy="0.35em">10</text>
      </g>
    </g>
    <g transform="translate(18.78,35.02)" id="img-c87bd2ed-48">
      <g class="primitive">
        <text text-anchor="end" dy="0.35em">15</text>
      </g>
    </g>
    <g transform="translate(18.78,21.01)" id="img-c87bd2ed-49">
      <g class="primitive">
        <text text-anchor="end" dy="0.35em">20</text>
      </g>
    </g>
    <g transform="translate(18.78,7)" id="img-c87bd2ed-50">
      <g class="primitive">
        <text text-anchor="end" dy="0.35em">25</text>
      </g>
    </g>
  </g>
  <g font-size="4.94" font-family="'PT Sans','Helvetica Neue','Helvetica',sans-serif" fill="#564A55" stroke="#000000" stroke-opacity="0.000" id="img-c87bd2ed-51">
    <g transform="translate(9.3,40.03)" id="img-c87bd2ed-52">
      <g class="primitive">
        <text text-anchor="middle" dy="0.35em" transform="rotate(-90,0, 2)">Percentage of varieties (%)</text>
      </g>
    </g>
  </g>
</g>
<defs>
  <clipPath id="img-c87bd2ed-19">
    <path d="M19.78,5 L 133.6 5 133.6 79.06 19.78 79.06" />
  </clipPath>
</defs>
</svg>
