<?xml version="1.0" encoding="UTF-8"?>
<svg xmlns="http://www.w3.org/2000/svg"
     xmlns:xlink="http://www.w3.org/1999/xlink"
     xmlns:gadfly="http://www.gadflyjl.org/ns"
     version="1.2"
     width="160mm" height="120mm" viewBox="0 0 160 120"
     stroke="none"
     fill="#000000"
     stroke-width="0.3"
     font-size="3.88"
>
<defs>
  <marker id="arrow" markerWidth="15" markerHeight="7" refX="5" refY="3.5" orient="auto" markerUnits="strokeWidth">
    <path d="M0,0 L15,3.5 L0,7 z" stroke="context-stroke" fill="context-stroke"/>
  </marker>
</defs>
<g class="plotroot xscalable yscalable" id="img-9195837a-1">
  <g font-size="4.94" font-family="'PT Sans','Helvetica Neue','Helvetica',sans-serif" fill="#564A55" stroke="#000000" stroke-opacity="0.000" id="img-9195837a-2">
    <g transform="translate(84,107.4)">
      <g class="primitive">
        <text text-anchor="middle" dy="0.6em">Agricultural cycle</text>
      </g>
    </g>
  </g>
  <g class="guide xlabels" font-size="3.53" font-family="'PT Sans Caption','Helvetica Neue','Helvetica',sans-serif" fill="#6C606B" id="img-9195837a-3">
    <g transform="translate(21.78,100.06)">
      <g class="primitive">
        <text text-anchor="middle" dy="0.6em">0</text>
      </g>
    </g>
    <g transform="translate(63.26,100.06)">
      <g class="primitive">
        <text text-anchor="middle" dy="0.6em">1×10³</text>
      </g>
    </g>
    <g transform="translate(104.74,100.06)">
      <g class="primitive">
        <text text-anchor="middle" dy="0.6em">2×10³</text>
      </g>
    </g>
    <g transform="translate(146.22,100.06)">
      <g class="primitive">
        <text text-anchor="middle" dy="0.6em">3×10³</text>
      </g>
    </g>
  </g>
  <g class="guide colorkey" id="img-9195837a-4">
    <g fill="#4C404B" font-size="4.23" font-family="'PT Sans','Helvetica Neue','Helvetica',sans-serif" id="img-9195837a-5">
      <g transform="translate(152.69,49.56)" id="img-9195837a-6" class="color_1">
        <g class="primitive">
          <text dy="0.35em">1</text>
        </g>
      </g>
      <g transform="translate(152.69,54.5)" id="img-9195837a-7" class="color_3">
        <g class="primitive">
          <text dy="0.35em">3</text>
        </g>
      </g>
      <g transform="translate(152.69,59.44)" id="img-9195837a-8" class="color_5">
        <g class="primitive">
          <text dy="0.35em">5</text>
        </g>
      </g>
    </g>
    <g fill-opacity="1" id="img-9195837a-9">
      <g transform="translate(150.46,49.56)" id="img-9195837a-10" fill="#00BFFF" class="color_1" stroke="#FFFFFF">
        <path d="M-1.23,-1.23 L 1.23 -1.23 1.23 1.23 -1.23 1.23 z" class="primitive"/>
      </g>
      <g transform="translate(150.46,54.5)" id="img-9195837a-11" fill="#D4CA3A" class="color_3" stroke="#FFFFFF">
        <path d="M-1.23,-1.23 L 1.23 -1.23 1.23 1.23 -1.23 1.23 z" class="primitive"/>
      </g>
      <g transform="translate(150.46,59.44)" id="img-9195837a-12" fill="#FF6DAE" class="color_5" stroke="#FFFFFF">
        <path d="M-1.23,-1.23 L 1.23 -1.23 1.23 1.23 -1.23 1.23 z" class="primitive"/>
      </g>
    </g>
    <g fill="#362A35" font-size="4.94" font-family="'PT Sans','Helvetica Neue','Helvetica',sans-serif" stroke="#000000" stroke-opacity="0.000" id="img-9195837a-13">
      <g transform="translate(149.22,44.92)" id="img-9195837a-14">
        <g class="primitive">
          <text dy="-0em">H</text>
        </g>
      </g>
    </g>
  </g>
  <g clip-path="url(#img-9195837a-15)">
    <g id="img-9195837a-16">
      <g pointer-events="visible" fill="#000000" fill-opacity="0.000" stroke="#000000" stroke-opacity="0.000" class="guide background" id="img-9195837a-17">
        <g transform="translate(84,52.03)" id="img-9195837a-18">
          <path d="M-64.22,-47.03 L 64.22 -47.03 64.22 47.03 -64.22 47.03 z" class="primitive"/>
        </g>
      </g>
      <g class="guide ygridlines xfixed" stroke-dasharray="0.5,0.5" stroke-width="0.2" stroke="#D0D0E0" id="img-9195837a-19">
        <g transform="translate(84,97.06)" id="img-9195837a-20">
          <path fill="none" d="M-64.22,0 L 64.22 0" class="primitive"/>
        </g>
        <g transform="translate(84,79.05)" id="img-9195837a-21">
          <path fill="none" d="M-64.22,0 L 64.22 0" class="primitive"/>
        </g>
        <g transform="translate(84,61.04)" id="img-9195837a-22">
          <path fill="none" d="M-64.22,0 L 64.22 0" class="primitive"/>
        </g>
        <g transform="translate(84,43.02)" id="img-9195837a-23">
          <path fill="none" d="M-64.22,0 L 64.22 0" class="primitive"/>
        </g>
        <g transform="translate(84,25.01)" id="img-9195837a-24">
          <path fill="none" d="M-64.22,0 L 64.22 0" class="primitive"/>
        </g>
        <g transform="translate(84,7)" id="img-9195837a-25">
          <path fill="none" d="M-64.22,0 L 64.22 0" class="primitive"/>
        </g>
      </g>
      <g class="guide xgridlines yfixed" stroke-dasharray="0.5,0.5" stroke-width="0.2" stroke="#D0D0E0" id="img-9195837a-26">
        <g transform="translate(21.78,52.03)" id="img-9195837a-27">
          <path fill="none" d="M0,-47.03 L 0 47.03" class="primitive"/>
        </g>
        <g transform="translate(63.26,52.03)" id="img-9195837a-28">
          <path fill="none" d="M0,-47.03 L 0 47.03" class="primitive"/>
        </g>
        <g transform="translate(104.74,52.03)" id="img-9195837a-29">
          <path fill="none" d="M0,-47.03 L 0 47.03" class="primitive"/>
        </g>
        <g transform="translate(146.22,52.03)" id="img-9195837a-30">
          <path fill="none" d="M0,-47.03 L 0 47.03" class="primitive"/>
        </g>
      </g>
      <g class="plotpanel" id="img-9195837a-31">
        <metadata>
          <boundingbox value="19.78mm 5.0mm 128.44mm 94.06166666666667mm"/>
          <unitbox value="-48.21600771456124 51.11035031552455 3096.4320154291227 -52.2207006310491"/>
        </metadata>
        <g stroke-width="0.3" fill="#000000" fill-opacity="0.000" class="geometry" id="img-9195837a-32">
          <g transform="translate(83.38,48.95)" id="img-9195837a-33" stroke-dasharray="none" class="color_1" stroke="#00BFFF">
            <path fill="none" d="M-61.6,30.16 L -60.35 26.76 -59.11 -10.65 -57.86 -23.76 -56.62 -28.61 -55.38 -29.34 -54.13 -27.94 -52.89 -26.71 -51.64 -24.34 -50.4 -23.15 -49.15 -20.42 -47.91 -18.66 -46.66 -17.07 -45.42 -15.95 -44.18 -14.9 -42.93 -12.77 -41.69 -11.05 -40.44 -9.12 -39.2 -8.1 -37.95 -7.65 -36.71 -6.52 -35.47 -6 -34.22 -5.27 -32.98 -4.29 -31.73 -3.82 -30.49 -3.22 -29.24 -2.61 -28 -1.81 -26.75 -1.33 -25.51 -1.1 -24.27 -0.85 -23.02 -0.72 -21.78 -0.18 -20.53 0.51 -19.29 1.12 -18.04 1.12 -16.8 1.6 -15.55 1.6 -14.31 1.62 -13.07 1.29 -11.82 1.83 -10.58 1.97 -9.33 2.15 -8.09 2.75 -6.84 2.77 -5.6 3.1 -4.36 2.95 -3.11 2.81 -1.87 3 -0.62 2.52 0.62 2.77 1.87 3.14 3.11 3.14 4.36 3.37 5.6 3.65 6.84 3.94 8.09 3.86 9.33 3.91 10.58 4.21 11.82 4.41 13.07 4.39 14.31 4.77 15.56 4.27 16.8 4.78 18.04 4.51 19.29 4.28 20.53 4.77 21.78 4.5 23.02 4.4 24.27 4.71 25.51 5.13 26.75 5.04 28 4.86 29.24 5.4 30.49 5.49 31.73 5.42 32.98 5.99 34.22 5.75 35.47 6.22 36.71 6.55 37.95 6.61 39.2 6.69 40.44 6.63 41.69 6.85 42.93 6.72 44.18 6.85 45.42 6.88 46.67 6.89 47.91 6.91 49.15 6.52 50.4 6.85 51.64 7.06 52.89 6.65 54.13 6.9 55.38 7.03 56.62 7.08 57.86 7.43 59.11 7.46 60.35 7.28 61.6 7.4" class="primitive"/>
          </g>
          <g transform="translate(83.38,37.08)" id="img-9195837a-34" stroke-dasharray="none" class="color_3" stroke="#D4CA3A">
            <path fill="none" d="M-61.6,42.02 L -60.35 38.62 -59.11 -0.56 -57.86 -17.5 -56.62 -25.3 -55.38 -27.89 -54.13 -27.58 -52.89 -27.05 -51.64 -26 -50.4 -24.63 -49.15 -22.54 -47.91 -20.69 -46.66 -18.65 -45.42 -18.06 -44.18 -16.41 -42.93 -14.78 -41.69 -13.69 -40.44 -12.7 -39.2 -11.03 -37.95 -9.7 -36.71 -8.99 -35.47 -7.93 -34.22 -7.22 -32.98 -6.92 -31.73 -5.57 -30.49 -4.36 -29.24 -4 -28 -3.9 -26.75 -3.23 -25.51 -2.96 -24.27 -2.64 -23.02 -2.26 -21.78 -1.71 -20.53 -1.32 -19.29 -0.94 -18.04 -0.82 -16.8 -1.19 -15.55 0.06 -14.31 0.21 -13.07 -0.1 -11.82 -0.08 -10.58 0.54 -9.33 0.78 -8.09 1.17 -6.84 1.41 -5.6 1.09 -4.36 1.42 -3.11 1.75 -1.87 2.06 -0.62 2.53 0.62 3.04 1.87 2.96 3.11 3.3 4.36 3.25 5.6 3.77 6.84 3.73 8.09 3.88 9.33 4.09 10.58 4.69 11.82 4.65 13.07 4.6 14.31 4.87 15.56 4.67 16.8 5.06 18.04 4.23 19.29 4.99 20.53 5 21.78 5.37 23.02 5.74 24.27 5.93 25.51 6.47 26.75 6.51 28 6.74 29.24 7.08 30.49 6.77 31.73 6.59 32.98 6.38 34.22 6.88 35.47 6.77 36.71 6.79 37.95 6.98 39.2 6.61 40.44 6.5 41.69 7.04 42.93 8.06 44.18 7.79 45.42 7.26 46.67 7.57 47.91 7.41 49.15 7.77 50.4 7.53 51.64 8.02 52.89 7.69 54.13 8.02 55.38 7.84 56.62 7.99 57.86 7.73 59.11 8.1 60.35 8.35 61.6 8.21" class="primitive"/>
          </g>
          <g transform="translate(83.38,32.37)" id="img-9195837a-35" stroke-dasharray="none" class="color_5" stroke="#FF6DAE">
            <path fill="none" d="M-61.6,46.7 L -60.35 43.04 -59.11 5.07 -57.86 -11.55 -56.62 -18.98 -55.38 -23.6 -54.13 -24.19 -52.89 -24.1 -51.64 -23.55 -50.4 -22.29 -49.15 -22.23 -47.91 -21.48 -46.66 -20 -45.42 -18.48 -44.18 -16.28 -42.93 -15.42 -41.69 -13.95 -40.44 -12.22 -39.2 -11.59 -37.95 -10.78 -36.71 -11.05 -35.47 -9.92 -34.22 -9.03 -32.98 -8.7 -31.73 -7.51 -30.49 -7.16 -29.24 -6.97 -28 -6.66 -26.75 -5.86 -25.51 -4.53 -24.27 -4.03 -23.02 -3.88 -21.78 -3.25 -20.53 -1.96 -19.29 -2.02 -18.04 -2.45 -16.8 -2.14 -15.55 -1.77 -14.31 -1.42 -13.07 -1.52 -11.82 -0.72 -10.58 -0.49 -9.33 -0.95 -8.09 -0.27 -6.84 0.22 -5.6 0.73 -4.36 1.09 -3.11 0.99 -1.87 0.81 -0.62 1.38 0.62 2.37 1.87 2.88 3.11 2.74 4.36 2.49 5.6 2.89 6.84 2.53 8.09 2.71 9.33 3.17 10.58 3.32 11.82 3.62 13.07 3.12 14.31 3.54 15.56 4.03 16.8 4.44 18.04 4.53 19.29 4.82 20.53 4.89 21.78 5.14 23.02 5.54 24.27 5.54 25.51 5.53 26.75 5.91 28 5.82 29.24 6.6 30.49 6.47 31.73 6.07 32.98 6.61 34.22 6.86 35.47 6.73 36.71 7.34 37.95 7.63 39.2 7.8 40.44 7.95 41.69 8.47 42.93 8.37 44.18 8.98 45.42 8.68 46.67 9 47.91 8.17 49.15 8.25 50.4 8.27 51.64 9.07 52.89 8.66 54.13 9.4 55.38 9.7 56.62 9.37 57.86 10.18 59.11 9.8 60.35 9.76 61.6 9.16" class="primitive"/>
          </g>
        </g>
      </g>
    </g>
  </g>
  <g class="guide ylabels" font-size="3.53" font-family="'PT Sans Caption','Helvetica Neue','Helvetica',sans-serif" fill="#6C606B" id="img-9195837a-36">
    <g transform="translate(18.78,97.06)" id="img-9195837a-37">
      <g class="primitive">
        <text text-anchor="end" dy="0.35em">0</text>
      </g>
    </g>
    <g transform="translate(18.78,79.05)" id="img-9195837a-38">
      <g class="primitive">
        <text text-anchor="end" dy="0.35em">10</text>
      </g>
    </g>
    <g transform="translate(18.78,61.04)" id="img-9195837a-39">
      <g class="primitive">
        <text text-anchor="end" dy="0.35em">20</text>
      </g>
    </g>
    <g transform="translate(18.78,43.02)" id="img-9195837a-40">
      <g class="primitive">
        <text text-anchor="end" dy="0.35em">30</text>
      </g>
    </g>
    <g transform="translate(18.78,25.01)" id="img-9195837a-41">
      <g class="primitive">
        <text text-anchor="end" dy="0.35em">40</text>
      </g>
    </g>
    <g transform="translate(18.78,7)" id="img-9195837a-42">
      <g class="primitive">
        <text text-anchor="end" dy="0.35em">50</text>
      </g>
    </g>
  </g>
  <g font-size="4.94" font-family="'PT Sans','Helvetica Neue','Helvetica',sans-serif" fill="#564A55" stroke="#000000" stroke-opacity="0.000" id="img-9195837a-43">
    <g transform="translate(9.3,50.03)" id="img-9195837a-44">
      <g class="primitive">
        <text text-anchor="middle" dy="0.35em" transform="rotate(-90,0, 2)">Varietal richness in community</text>
      </g>
    </g>
  </g>
</g>
<defs>
  <clipPath id="img-9195837a-15">
    <path d="M19.78,5 L 148.22 5 148.22 99.06 19.78 99.06" />
  </clipPath>
</defs>
</svg>
