<?xml version="1.0" encoding="UTF-8"?>
<svg xmlns="http://www.w3.org/2000/svg"
     xmlns:xlink="http://www.w3.org/1999/xlink"
     xmlns:gadfly="http://www.gadflyjl.org/ns"
     version="1.2"
     width="150mm" height="100mm" viewBox="0 0 150 100"
     stroke="none"
     fill="#000000"
     stroke-width="0.3"
     font-size="3.88"
>
<defs>
  <marker id="arrow" markerWidth="15" markerHeight="7" refX="5" refY="3.5" orient="auto" markerUnits="strokeWidth">
    <path d="M0,0 L15,3.5 L0,7 z" stroke="context-stroke" fill="context-stroke"/>
  </marker>
</defs>
<g class="plotroot xscalable yscalable" id="img-cf9c8f0b-1">
  <g font-size="4.94" font-family="'PT Sans','Helvetica Neue','Helvetica',sans-serif" fill="#564A55" stroke="#000000" stroke-opacity="0.000" id="img-cf9c8f0b-2">
    <g transform="translate(76.69,87.4)">
      <g class="primitive">
        <text text-anchor="middle" dy="0.6em">Percentage of households (%)</text>
      </g>
    </g>
  </g>
  <g class="guide xlabels" font-size="3.53" font-family="'PT Sans Caption','Helvetica Neue','Helvetica',sans-serif" fill="#6C606B" id="img-cf9c8f0b-3">
    <g transform="translate(21.78,80.06)">
      <g class="primitive">
        <text text-anchor="middle" dy="0.6em">0</text>
      </g>
    </g>
    <g transform="translate(43.74,80.06)">
      <g class="primitive">
        <text text-anchor="middle" dy="0.6em">20</text>
      </g>
    </g>
    <g transform="translate(65.71,80.06)">
      <g class="primitive">
        <text text-anchor="middle" dy="0.6em">40</text>
      </g>
    </g>
    <g transform="translate(76.69,80.06)">
      <g class="primitive">
        <text text-anchor="middle" dy="0.6em">50</text>
      </g>
    </g>
    <g transform="translate(87.67,80.06)">
      <g class="primitive">
        <text text-anchor="middle" dy="0.6em">60</text>
      </g>
    </g>
    <g transform="translate(109.64,80.06)">
      <g class="primitive">
        <text text-anchor="middle" dy="0.6em">80</text>
      </g>
    </g>
    <g transform="translate(131.6,80.06)">
      <g class="primitive">
        <text text-anchor="middle" dy="0.6em">100</text>
      </g>
    </g>
  </g>
  <g class="guide colorkey" id="img-cf9c8f0b-4">
    <g fill="#4C404B" font-size="4.23" font-family="'PT Sans','Helvetica Neue','Helvetica',sans-serif" id="img-cf9c8f0b-5">
      <g transform="translate(138.07,34.62)" id="img-cf9c8f0b-6" class="color_5">
        <g class="primitive">
          <text dy="0.35em">5</text>
        </g>
      </g>
      <g transform="translate(138.07,39.56)" id="img-cf9c8f0b-7" class="color_10">
        <g class="primitive">
          <text dy="0.35em">10</text>
        </g>
      </g>
      <g transform="translate(138.07,44.5)" id="img-cf9c8f0b-8" class="color_25">
        <g class="primitive">
          <text dy="0.35em">25</text>
        </g>
      </g>
      <g transform="translate(138.07,49.44)" id="img-cf9c8f0b-9" class="color_50">
        <g class="primitive">
          <text dy="0.35em">50</text>
        </g>
      </g>
      <g transform="translate(138.07,54.38)" id="img-cf9c8f0b-10" class="color_100">
        <g class="primitive">
          <text dy="0.35em">100</text>
        </g>
      </g>
    </g>
    <g fill-opacity="1" id="img-cf9c8f0b-11">
      <g transform="translate(135.84,34.62)" id="img-cf9c8f0b-12" fill="#00BFFF" class="color_5" stroke="#FFFFFF">
        <path d="M-1.23,-1.23 L 1.23 -1.23 1.23 1.23 -1.23 1.23 z" class="primitive"/>
      </g>
      <g transform="translate(135.84,39.56)" id="img-cf9c8f0b-13" fill="#D4CA3A" class="color_10" stroke="#FFFFFF">
        <path d="M-1.23,-1.23 L 1.23 -1.23 1.23 1.23 -1.23 1.23 z" class="primitive"/>
      </g>
      <g transform="translate(135.84,44.5)" id="img-cf9c8f0b-14" fill="#FF6DAE" class="color_25" stroke="#FFFFFF">
        <path d="M-1.23,-1.23 L 1.23 -1.23 1.23 1.23 -1.23 1.23 z" class="primitive"/>
      </g>
      <g transform="translate(135.84,49.44)" id="img-cf9c8f0b-15" fill="#00B78D" class="color_50" stroke="#FFFFFF">
        <path d="M-1.23,-1.23 L 1.23 -1.23 1.23 1.23 -1.23 1.23 z" class="primitive"/>
      </g>
      <g transform="translate(135.84,54.38)" id="img-cf9c8f0b-16" fill="#BEA9FF" class="color_100" stroke="#FFFFFF">
        <path d="M-1.23,-1.23 L 1.23 -1.23 1.23 1.23 -1.23 1.23 z" class="primitive"/>
      </g>
    </g>
    <g fill="#362A35" font-size="4.94" font-family="'PT Sans','Helvetica Neue','Helvetica',sans-serif" stroke="#000000" stroke-opacity="0.000" id="img-cf9c8f0b-17">
      <g transform="translate(134.6,29.98)" id="img-cf9c8f0b-18">
        <g class="primitive">
          <text dy="-0em">V</text>
        </g>
      </g>
    </g>
  </g>
  <g clip-path="url(#img-cf9c8f0b-19)">
    <g id="img-cf9c8f0b-20">
      <g pointer-events="visible" fill="#000000" fill-opacity="0.000" stroke="#000000" stroke-opacity="0.000" class="guide background" id="img-cf9c8f0b-21">
        <g transform="translate(76.69,42.03)" id="img-cf9c8f0b-22">
          <path d="M-56.91,-37.03 L 56.91 -37.03 56.91 37.03 -56.91 37.03 z" class="primitive"/>
        </g>
      </g>
      <g class="guide ygridlines xfixed" stroke-dasharray="0.5,0.5" stroke-width="0.2" stroke="#D0D0E0" id="img-cf9c8f0b-23">
        <g transform="translate(76.69,77.06)" id="img-cf9c8f0b-24">
          <path fill="none" d="M-56.91,0 L 56.91 0" class="primitive"/>
        </g>
        <g transform="translate(76.69,53.71)" id="img-cf9c8f0b-25">
          <path fill="none" d="M-56.91,0 L 56.91 0" class="primitive"/>
        </g>
        <g transform="translate(76.69,30.35)" id="img-cf9c8f0b-26">
          <path fill="none" d="M-56.91,0 L 56.91 0" class="primitive"/>
        </g>
        <g transform="translate(76.69,7)" id="img-cf9c8f0b-27">
          <path fill="none" d="M-56.91,0 L 56.91 0" class="primitive"/>
        </g>
      </g>
      <g class="guide xgridlines yfixed" stroke-dasharray="0.5,0.5" stroke-width="0.2" stroke="#D0D0E0" id="img-cf9c8f0b-28">
        <g transform="translate(21.78,42.03)" id="img-cf9c8f0b-29">
          <path fill="none" d="M0,-37.03 L 0 37.03" class="primitive"/>
        </g>
        <g transform="translate(43.74,42.03)" id="img-cf9c8f0b-30">
          <path fill="none" d="M0,-37.03 L 0 37.03" class="primitive"/>
        </g>
        <g transform="translate(65.71,42.03)" id="img-cf9c8f0b-31">
          <path fill="none" d="M0,-37.03 L 0 37.03" class="primitive"/>
        </g>
        <g transform="translate(76.69,42.03)" id="img-cf9c8f0b-32">
          <path fill="none" d="M0,-37.03 L 0 37.03" class="primitive"/>
        </g>
        <g transform="translate(87.67,42.03)" id="img-cf9c8f0b-33">
          <path fill="none" d="M0,-37.03 L 0 37.03" class="primitive"/>
        </g>
        <g transform="translate(109.64,42.03)" id="img-cf9c8f0b-34">
          <path fill="none" d="M0,-37.03 L 0 37.03" class="primitive"/>
        </g>
        <g transform="translate(131.6,42.03)" id="img-cf9c8f0b-35">
          <path fill="none" d="M0,-37.03 L 0 37.03" class="primitive"/>
        </g>
      </g>
      <g class="plotpanel" id="img-cf9c8f0b-36">
        <metadata>
          <boundingbox value="19.78mm 5.0mm 113.82mm 74.06166666666667mm"/>
          <unitbox value="-1.821161901293025 15.42819420986274 103.64232380258605 -15.856388419725478"/>
        </metadata>
        <g stroke-width="0.3" fill="#000000" fill-opacity="0.000" class="geometry" id="img-cf9c8f0b-37">
          <g transform="translate(77.81,67.53)" id="img-cf9c8f0b-38" stroke-dasharray="none" class="color_5" stroke="#00BFFF">
            <path fill="none" d="M-53.79,-43.91 L -51.55 -13.61 -49.31 -7.78 -47.07 -5.98 -44.82 -3.3 -42.58 -5.24 -40.34 -2.58 -38.1 -4.22 -35.86 -2.06 -33.62 -3.07 -31.38 -3.53 -29.14 -5.39 -26.89 -4.55 -24.65 -3.9 -22.41 -6.24 -20.17 -5.46 -17.93 -6.49 -15.69 -5.13 -13.45 -6.36 -11.21 -4.33 -8.96 -2.9 -6.72 -4.03 -4.48 -2.45 -2.24 -2.95 -0 -1 2.24 -0.94 4.48 3.54 6.72 -0.26 8.96 0.67 11.21 2.86 13.45 4.94 15.69 3.24 17.93 5.64 20.17 6.46 22.41 7.55 24.65 8.57 26.89 8.03 29.14 7.07 31.38 8.68 33.62 9.25 35.86 8.67 38.1 9.04 40.34 9.53 42.58 9.53 44.82 9.53 47.07 9.53 49.31 9.53 51.55 8.6 53.79 7.2" class="primitive"/>
          </g>
          <g transform="translate(77.81,67.53)" id="img-cf9c8f0b-39" stroke-dasharray="none" class="color_10" stroke="#D4CA3A">
            <path fill="none" d="M-53.79,-44.04 L -51.55 -15.56 -49.31 -6.69 -47.07 -4.31 -44.82 -1.76 -42.58 -2.62 -40.34 -1.01 -38.1 -4.5 -35.86 -0.48 -33.62 -5.01 -31.38 -2.14 -29.14 -4.06 -26.89 -4.06 -24.65 -6.02 -22.41 -4.62 -20.17 -5.27 -17.93 -6.07 -15.69 -7.26 -13.45 -4.16 -11.21 -5.42 -8.96 -3.97 -6.72 -1.95 -4.48 -3.8 -2.24 -2.01 -0 -2.21 2.24 -0.44 4.48 -1.84 6.72 -1.25 8.96 1.28 11.21 0.52 13.45 4.07 15.69 4.53 17.93 4.91 20.17 6.04 22.41 6.22 24.65 7.62 26.89 8.05 29.14 9.34 31.38 8.4 33.62 9.12 35.86 9.09 38.1 9.24 40.34 9.53 42.58 9.37 44.82 9.53 47.07 9.53 49.31 9.37 51.55 9.53 53.79 7.2" class="primitive"/>
          </g>
          <g transform="translate(77.81,67.53)" id="img-cf9c8f0b-40" stroke-dasharray="none" class="color_25" stroke="#FF6DAE">
            <path fill="none" d="M-53.79,-38.84 L -51.55 -16.95 -49.31 -7.38 -47.07 -4.18 -44.82 -4.66 -42.58 -2.37 -40.34 -3.68 -38.1 -4.05 -35.86 -5.06 -33.62 -2.35 -31.38 -1.47 -29.14 -5.11 -26.89 -3.64 -24.65 -4.15 -22.41 -3 -20.17 -5.06 -17.93 -5.9 -15.69 -7.97 -13.45 -7.1 -11.21 -4.31 -8.96 -5.28 -6.72 -5.02 -4.48 -3.51 -2.24 -3.38 -0 0.79 2.24 -2.14 4.48 -2.25 6.72 0.72 8.96 0.63 11.21 3.35 13.45 2.89 15.69 5.15 17.93 5.02 20.17 6.45 22.41 7.34 24.65 8.45 26.89 7.37 29.14 8.54 31.38 8.6 33.62 9.16 35.86 9.4 38.1 9.53 40.34 9.38 42.58 9.3 44.82 9.37 47.07 9.53 49.31 9.53 51.55 9.37 53.79 8.95" class="primitive"/>
          </g>
          <g transform="translate(77.81,67.53)" id="img-cf9c8f0b-41" stroke-dasharray="none" class="color_50" stroke="#00B78D">
            <path fill="none" d="M-53.79,-37.9 L -51.55 -14.14 -49.31 -5.89 -47.07 -3.96 -44.82 -1.28 -42.58 -1.48 -40.34 -0.01 -38.1 -2.45 -35.86 -4.71 -33.62 -2.87 -31.38 -3.67 -29.14 -4.63 -26.89 -3.18 -24.65 -3.9 -22.41 -3.67 -20.17 -5.9 -17.93 -6.22 -15.69 -6.22 -13.45 -6.13 -11.21 -6 -8.96 -5.57 -6.72 -3.31 -4.48 -2.33 -2.24 -4.14 -0 -3.79 2.24 -2.46 4.48 -1.7 6.72 -0.6 8.96 0.99 11.21 2.47 13.45 2.12 15.69 3.78 17.93 4.41 20.17 5.63 22.41 7.18 24.65 6.7 26.89 7.22 29.14 7.45 31.38 8.36 33.62 8.49 35.86 8.75 38.1 8.64 40.34 9.27 42.58 9.27 44.82 9.24 47.07 9.53 49.31 9.53 51.55 9.53 53.79 9.53" class="primitive"/>
          </g>
          <g transform="translate(77.81,67.53)" id="img-cf9c8f0b-42" stroke-dasharray="none" class="color_100" stroke="#BEA9FF">
            <path fill="none" d="M-53.79,-38.58 L -51.55 -14.41 -49.31 -6.22 -47.07 -2.49 -44.82 -1.93 -42.58 -1.84 -40.34 -2.18 -38.1 -4.33 -35.86 -3.5 -33.62 -2.88 -31.38 -5.21 -29.14 -3.67 -26.89 -3.09 -24.65 -3.82 -22.41 -4.16 -20.17 -5.9 -17.93 -7.69 -15.69 -5.11 -13.45 -8.25 -11.21 -3.02 -8.96 -3.26 -6.72 -3.26 -4.48 -3.39 -2.24 -2.64 -0 -3.78 2.24 -3.2 4.48 -0.58 6.72 -0.76 8.96 1.24 11.21 1.11 13.45 3.44 15.69 3.97 17.93 5.19 20.17 5.13 22.41 5.87 24.65 8.53 26.89 8.11 29.14 8.05 31.38 8.05 33.62 8.02 35.86 8.68 38.1 8.7 40.34 8.48 42.58 9.53 44.82 9.53 47.07 9.34 49.31 9.53 51.55 9.14 53.79 9.53" class="primitive"/>
          </g>
        </g>
      </g>
    </g>
  </g>
  <g class="guide ylabels" font-size="3.53" font-family="'PT Sans Caption','Helvetica Neue','Helvetica',sans-serif" fill="#6C606B" id="img-cf9c8f0b-43">
    <g transform="translate(18.78,77.06)" id="img-cf9c8f0b-44">
      <g class="primitive">
        <text text-anchor="end" dy="0.35em">0</text>
      </g>
    </g>
    <g transform="translate(18.78,53.71)" id="img-cf9c8f0b-45">
      <g class="primitive">
        <text text-anchor="end" dy="0.35em">5</text>
      </g>
    </g>
    <g transform="translate(18.78,30.35)" id="img-cf9c8f0b-46">
      <g class="primitive">
        <text text-anchor="end" dy="0.35em">10</text>
      </g>
    </g>
    <g transform="translate(18.78,7)" id="img-cf9c8f0b-47">
      <g class="primitive">
        <text text-anchor="end" dy="0.35em">15</text>
      </g>
    </g>
  </g>
  <g font-size="4.94" font-family="'PT Sans','Helvetica Neue','Helvetica',sans-serif" fill="#564A55" stroke="#000000" stroke-opacity="0.000" id="img-cf9c8f0b-48">
    <g transform="translate(9.3,40.03)" id="img-cf9c8f0b-49">
      <g class="primitive">
        <text text-anchor="middle" dy="0.35em" transform="rotate(-90,0, 2)">Percentage of varieties (%)</text>
      </g>
    </g>
  </g>
</g>
<defs>
  <clipPath id="img-cf9c8f0b-19">
    <path d="M19.78,5 L 133.6 5 133.6 79.06 19.78 79.06" />
  </clipPath>
</defs>
</svg>
