<?xml version="1.0" encoding="UTF-8"?>
<svg xmlns="http://www.w3.org/2000/svg"
     xmlns:xlink="http://www.w3.org/1999/xlink"
     xmlns:gadfly="http://www.gadflyjl.org/ns"
     version="1.2"
     width="160mm" height="120mm" viewBox="0 0 160 120"
     stroke="none"
     fill="#000000"
     stroke-width="0.3"
     font-size="3.88"
>
<defs>
  <marker id="arrow" markerWidth="15" markerHeight="7" refX="5" refY="3.5" orient="auto" markerUnits="strokeWidth">
    <path d="M0,0 L15,3.5 L0,7 z" stroke="context-stroke" fill="context-stroke"/>
  </marker>
</defs>
<g class="plotroot xscalable yscalable" id="img-9fcc39a2-1">
  <g font-size="4.94" font-family="'PT Sans','Helvetica Neue','Helvetica',sans-serif" fill="#564A55" stroke="#000000" stroke-opacity="0.000" id="img-9fcc39a2-2">
    <g transform="translate(82.74,107.4)">
      <g class="primitive">
        <text text-anchor="middle" dy="0.6em">Agricultural cycle</text>
      </g>
    </g>
  </g>
  <g class="guide xlabels" font-size="3.53" font-family="'PT Sans Caption','Helvetica Neue','Helvetica',sans-serif" fill="#6C606B" id="img-9fcc39a2-3">
    <g transform="translate(23.87,100.06)">
      <g class="primitive">
        <text text-anchor="middle" dy="0.6em">0</text>
      </g>
    </g>
    <g transform="translate(63.11,100.06)">
      <g class="primitive">
        <text text-anchor="middle" dy="0.6em">1×10³</text>
      </g>
    </g>
    <g transform="translate(102.36,100.06)">
      <g class="primitive">
        <text text-anchor="middle" dy="0.6em">2×10³</text>
      </g>
    </g>
    <g transform="translate(141.6,100.06)">
      <g class="primitive">
        <text text-anchor="middle" dy="0.6em">3×10³</text>
      </g>
    </g>
  </g>
  <g class="guide colorkey" id="img-9fcc39a2-4">
    <g fill="#4C404B" font-size="4.23" font-family="'PT Sans','Helvetica Neue','Helvetica',sans-serif" id="img-9fcc39a2-5">
      <g transform="translate(148.07,44.62)" id="img-9fcc39a2-6" class="color_5">
        <g class="primitive">
          <text dy="0.35em">5</text>
        </g>
      </g>
      <g transform="translate(148.07,49.56)" id="img-9fcc39a2-7" class="color_10">
        <g class="primitive">
          <text dy="0.35em">10</text>
        </g>
      </g>
      <g transform="translate(148.07,54.5)" id="img-9fcc39a2-8" class="color_25">
        <g class="primitive">
          <text dy="0.35em">25</text>
        </g>
      </g>
      <g transform="translate(148.07,59.44)" id="img-9fcc39a2-9" class="color_50">
        <g class="primitive">
          <text dy="0.35em">50</text>
        </g>
      </g>
      <g transform="translate(148.07,64.38)" id="img-9fcc39a2-10" class="color_100">
        <g class="primitive">
          <text dy="0.35em">100</text>
        </g>
      </g>
    </g>
    <g fill-opacity="1" id="img-9fcc39a2-11">
      <g transform="translate(145.84,44.62)" id="img-9fcc39a2-12" fill="#00BFFF" class="color_5" stroke="#FFFFFF">
        <path d="M-1.23,-1.23 L 1.23 -1.23 1.23 1.23 -1.23 1.23 z" class="primitive"/>
      </g>
      <g transform="translate(145.84,49.56)" id="img-9fcc39a2-13" fill="#D4CA3A" class="color_10" stroke="#FFFFFF">
        <path d="M-1.23,-1.23 L 1.23 -1.23 1.23 1.23 -1.23 1.23 z" class="primitive"/>
      </g>
      <g transform="translate(145.84,54.5)" id="img-9fcc39a2-14" fill="#FF6DAE" class="color_25" stroke="#FFFFFF">
        <path d="M-1.23,-1.23 L 1.23 -1.23 1.23 1.23 -1.23 1.23 z" class="primitive"/>
      </g>
      <g transform="translate(145.84,59.44)" id="img-9fcc39a2-15" fill="#00B78D" class="color_50" stroke="#FFFFFF">
        <path d="M-1.23,-1.23 L 1.23 -1.23 1.23 1.23 -1.23 1.23 z" class="primitive"/>
      </g>
      <g transform="translate(145.84,64.38)" id="img-9fcc39a2-16" fill="#BEA9FF" class="color_100" stroke="#FFFFFF">
        <path d="M-1.23,-1.23 L 1.23 -1.23 1.23 1.23 -1.23 1.23 z" class="primitive"/>
      </g>
    </g>
    <g fill="#362A35" font-size="4.94" font-family="'PT Sans','Helvetica Neue','Helvetica',sans-serif" stroke="#000000" stroke-opacity="0.000" id="img-9fcc39a2-17">
      <g transform="translate(144.6,39.98)" id="img-9fcc39a2-18">
        <g class="primitive">
          <text dy="-0em">V</text>
        </g>
      </g>
    </g>
  </g>
  <g clip-path="url(#img-9fcc39a2-19)">
    <g id="img-9fcc39a2-20">
      <g pointer-events="visible" fill="#000000" fill-opacity="0.000" stroke="#000000" stroke-opacity="0.000" class="guide background" id="img-9fcc39a2-21">
        <g transform="translate(82.74,52.03)" id="img-9fcc39a2-22">
          <path d="M-60.86,-47.03 L 60.86 -47.03 60.86 47.03 -60.86 47.03 z" class="primitive"/>
        </g>
      </g>
      <g class="guide ygridlines xfixed" stroke-dasharray="0.5,0.5" stroke-width="0.2" stroke="#D0D0E0" id="img-9fcc39a2-23">
        <g transform="translate(82.74,97.06)" id="img-9fcc39a2-24">
          <path fill="none" d="M-60.86,0 L 60.86 0" class="primitive"/>
        </g>
        <g transform="translate(82.74,52.03)" id="img-9fcc39a2-25">
          <path fill="none" d="M-60.86,0 L 60.86 0" class="primitive"/>
        </g>
        <g transform="translate(82.74,7)" id="img-9fcc39a2-26">
          <path fill="none" d="M-60.86,0 L 60.86 0" class="primitive"/>
        </g>
      </g>
      <g class="guide xgridlines yfixed" stroke-dasharray="0.5,0.5" stroke-width="0.2" stroke="#D0D0E0" id="img-9fcc39a2-27">
        <g transform="translate(23.87,52.03)" id="img-9fcc39a2-28">
          <path fill="none" d="M0,-47.03 L 0 47.03" class="primitive"/>
        </g>
        <g transform="translate(63.11,52.03)" id="img-9fcc39a2-29">
          <path fill="none" d="M0,-47.03 L 0 47.03" class="primitive"/>
        </g>
        <g transform="translate(102.36,52.03)" id="img-9fcc39a2-30">
          <path fill="none" d="M0,-47.03 L 0 47.03" class="primitive"/>
        </g>
        <g transform="translate(141.6,52.03)" id="img-9fcc39a2-31">
          <path fill="none" d="M0,-47.03 L 0 47.03" class="primitive"/>
        </g>
      </g>
      <g class="plotpanel" id="img-9fcc39a2-32">
        <metadata>
          <boundingbox value="21.87166666666667mm 5.0mm 121.72833333333332mm 94.06166666666667mm"/>
          <unitbox value="-50.964791822982285 102.2207006310491 3101.929583645964 -104.4414012620982"/>
        </metadata>
        <g stroke-width="0.3" fill="#000000" fill-opacity="0.000" class="geometry" id="img-9fcc39a2-33">
          <g transform="translate(82.15,72.28)" id="img-9fcc39a2-34" stroke-dasharray="none" class="color_5" stroke="#00BFFF">
            <path fill="none" d="M-58.28,20.28 L -57.1 18.65 -55.92 3.94 -54.74 -4.18 -53.57 -9.61 -52.39 -12 -51.21 -12.94 -50.03 -12.94 -48.86 -12.71 -47.68 -12.41 -46.5 -11.61 -45.33 -10.65 -44.15 -9.74 -42.97 -9.04 -41.79 -7.99 -40.62 -7 -39.44 -6.11 -38.26 -5.11 -37.08 -4.62 -35.91 -4.46 -34.73 -4.09 -33.55 -3.74 -32.38 -3.31 -31.2 -3.28 -30.02 -2.83 -28.84 -2.39 -27.67 -2.15 -26.49 -1.91 -25.31 -1.64 -24.13 -1.44 -22.96 -1.39 -21.78 -1.39 -20.6 -1.26 -19.43 -0.99 -18.25 -1.05 -17.07 -0.71 -15.89 -0.63 -14.72 -0.28 -13.54 -0.08 -12.36 0.09 -11.18 0 -10.01 0.21 -8.83 0.28 -7.65 0.46 -6.48 0.56 -5.3 0.83 -4.12 1 -2.94 0.91 -1.77 0.81 -0.59 1.13 0.59 1.28 1.77 1.55 2.94 1.6 4.12 1.79 5.3 2 6.48 1.82 7.65 2.1 8.83 2.25 10.01 2.04 11.18 2.28 12.36 2.33 13.54 2.07 14.72 2.03 15.89 1.9 17.07 2.09 18.25 1.96 19.43 2.06 20.6 2.29 21.78 2.38 22.96 2.33 24.13 2.64 25.31 2.42 26.49 2.92 27.67 2.72 28.84 2.94 30.02 3 31.2 3.01 32.38 3.12 33.55 2.91 34.73 3.03 35.91 3.05 37.08 3.1 38.26 3.28 39.44 3.31 40.62 3.37 41.79 3.41 42.97 3.31 44.15 3.38 45.33 3.25 46.5 3.43 47.68 3.55 48.86 3.5 50.03 3.66 51.21 3.71 52.39 3.62 53.57 3.61 54.74 3.68 55.92 3.97 57.1 3.79 58.28 3.7" class="primitive"/>
          </g>
          <g transform="translate(82.15,72.28)" id="img-9fcc39a2-35" stroke-dasharray="none" class="color_10" stroke="#D4CA3A">
            <path fill="none" d="M-58.28,15.81 L -57.1 13.89 -55.92 -5.16 -54.74 -12.14 -53.57 -15.05 -52.39 -15.24 -51.21 -14.67 -50.03 -13.39 -48.86 -12.52 -47.68 -11.96 -46.5 -10.7 -45.33 -9.8 -44.15 -8.74 -42.97 -7.59 -41.79 -6.89 -40.62 -6.39 -39.44 -5.97 -38.26 -5.69 -37.08 -5.16 -35.91 -4.74 -34.73 -4.77 -33.55 -4.12 -32.38 -3.9 -31.2 -3.69 -30.02 -3.15 -28.84 -2.83 -27.67 -2.45 -26.49 -1.85 -25.31 -1.46 -24.13 -1.45 -22.96 -1.15 -21.78 -0.93 -20.6 -0.47 -19.43 -0.21 -18.25 -0.11 -17.07 -0.04 -15.89 0.05 -14.72 0.44 -13.54 0.28 -12.36 0.57 -11.18 0.73 -10.01 0.95 -8.83 1.13 -7.65 1.07 -6.48 1.17 -5.3 1.31 -4.12 1.4 -2.94 1.34 -1.77 1.61 -0.59 1.81 0.59 2.03 1.77 1.79 2.94 1.97 4.12 1.92 5.3 2.36 6.48 2.4 7.65 2.28 8.83 2.37 10.01 2.68 11.18 2.6 12.36 2.62 13.54 2.58 14.72 2.48 15.89 2.53 17.07 2.71 18.25 2.88 19.43 2.65 20.6 2.84 21.78 3.3 22.96 3.11 24.13 3.22 25.31 3.11 26.49 3.16 27.67 3.27 28.84 3.36 30.02 3.42 31.2 3.56 32.38 3.59 33.55 3.66 34.73 3.63 35.91 3.91 37.08 3.6 38.26 4.01 39.44 3.99 40.62 3.72 41.79 3.71 42.97 3.73 44.15 3.59 45.33 3.89 46.5 3.85 47.68 3.78 48.86 3.78 50.03 3.68 51.21 3.9 52.39 3.81 53.57 4.07 54.74 3.87 55.92 3.98 57.1 3.88 58.28 3.99" class="primitive"/>
          </g>
          <g transform="translate(82.15,72.07)" id="img-9fcc39a2-36" stroke-dasharray="none" class="color_25" stroke="#FF6DAE">
            <path fill="none" d="M-58.28,2.68 L -57.1 0.89 -55.92 -19.45 -54.74 -22.74 -53.57 -22.52 -52.39 -20.06 -51.21 -17.95 -50.03 -15.71 -48.86 -13.8 -47.68 -12.17 -46.5 -10.75 -45.33 -9.46 -44.15 -8.21 -42.97 -6.95 -41.79 -6.14 -40.62 -5.71 -39.44 -4.92 -38.26 -4.28 -37.08 -3.44 -35.91 -3.18 -34.73 -2.9 -33.55 -2.49 -32.38 -2.08 -31.2 -1.77 -30.02 -1.54 -28.84 -1.25 -27.67 -0.99 -26.49 -0.54 -25.31 -0.11 -24.13 0.11 -22.96 0.35 -21.78 0.33 -20.6 0.52 -19.43 0.79 -18.25 1.01 -17.07 0.99 -15.89 0.97 -14.72 0.91 -13.54 1.24 -12.36 1.62 -11.18 1.59 -10.01 1.67 -8.83 1.74 -7.65 1.94 -6.48 2.18 -5.3 2.19 -4.12 2.31 -2.94 2.41 -1.77 2.28 -0.59 2.5 0.59 2.57 1.77 2.8 2.94 2.82 4.12 2.9 5.3 2.88 6.48 3.04 7.65 3.03 8.83 3.07 10.01 3.18 11.18 3.41 12.36 3.37 13.54 3.5 14.72 3.62 15.89 3.58 17.07 3.59 18.25 3.63 19.43 3.56 20.6 3.56 21.78 3.75 22.96 3.84 24.13 3.66 25.31 3.69 26.49 3.94 27.67 3.63 28.84 4.07 30.02 4.25 31.2 4.25 32.38 4.14 33.55 4.12 34.73 4.27 35.91 4.16 37.08 3.91 38.26 4.12 39.44 4.26 40.62 3.96 41.79 3.97 42.97 3.77 44.15 4.12 45.33 3.97 46.5 3.82 47.68 4.07 48.86 3.9 50.03 4.26 51.21 4.06 52.39 4.31 53.57 4.36 54.74 4.35 55.92 4.49 57.1 4.18 58.28 4.16" class="primitive"/>
          </g>
          <g transform="translate(82.15,71.86)" id="img-9fcc39a2-37" stroke-dasharray="none" class="color_50" stroke="#00B78D">
            <path fill="none" d="M-58.28,-18.82 L -57.1 -20.31 -55.92 -32.11 -54.74 -30.35 -53.57 -27.06 -52.39 -23.11 -51.21 -19.54 -50.03 -16.4 -48.86 -14.09 -47.68 -11.76 -46.5 -10.27 -45.33 -8.39 -44.15 -7.32 -42.97 -6.45 -41.79 -5.64 -40.62 -4.79 -39.44 -3.79 -38.26 -3.54 -37.08 -3.03 -35.91 -2.37 -34.73 -1.87 -33.55 -1.73 -32.38 -1.33 -31.2 -0.73 -30.02 -0.33 -28.84 -0.18 -27.67 -0.16 -26.49 0.16 -25.31 0.47 -24.13 0.83 -22.96 0.9 -21.78 1.16 -20.6 1.28 -19.43 1.82 -18.25 2.24 -17.07 1.78 -15.89 1.99 -14.72 2.03 -13.54 2.26 -12.36 2.35 -11.18 2.43 -10.01 2.32 -8.83 2.71 -7.65 2.87 -6.48 3.27 -5.3 3.23 -4.12 3.28 -2.94 3.39 -1.77 3.26 -0.59 3.22 0.59 3.47 1.77 3.54 2.94 3.73 4.12 3.58 5.3 3.46 6.48 3.38 7.65 3.64 8.83 3.52 10.01 3.52 11.18 3.86 12.36 3.83 13.54 4.1 14.72 3.87 15.89 4.06 17.07 3.99 18.25 4.15 19.43 4.29 20.6 4.34 21.78 4.23 22.96 4.48 24.13 4.74 25.31 4.85 26.49 4.87 27.67 4.96 28.84 4.96 30.02 4.93 31.2 4.99 32.38 5.03 33.55 4.98 34.73 4.79 35.91 4.76 37.08 4.83 38.26 4.56 39.44 4.94 40.62 4.99 41.79 4.8 42.97 5.12 44.15 4.78 45.33 4.83 46.5 4.96 47.68 4.93 48.86 5.02 50.03 5.17 51.21 5.09 52.39 4.92 53.57 5.04 54.74 5.09 55.92 5.38 57.1 5.43 58.28 5.43" class="primitive"/>
          </g>
          <g transform="translate(82.15,70.43)" id="img-9fcc39a2-38" stroke-dasharray="none" class="color_100" stroke="#BEA9FF">
            <path fill="none" d="M-58.28,-53.58 L -57.1 -53.16 -55.92 -44.64 -54.74 -36.61 -53.57 -31.07 -52.39 -24.79 -51.21 -20.42 -50.03 -16.45 -48.86 -13.9 -47.68 -11.35 -46.5 -9.28 -45.33 -7.74 -44.15 -6.38 -42.97 -5.38 -41.79 -4.36 -40.62 -3.6 -39.44 -2.87 -38.26 -2.4 -37.08 -1.57 -35.91 -1.35 -34.73 -0.9 -33.55 -0.19 -32.38 0.11 -31.2 0.19 -30.02 0.73 -28.84 0.79 -27.67 1.25 -26.49 1.46 -25.31 1.88 -24.13 2.08 -22.96 2.14 -21.78 2.3 -20.6 2.4 -19.43 2.29 -18.25 2.64 -17.07 2.9 -15.89 2.98 -14.72 3.15 -13.54 3.05 -12.36 3.23 -11.18 3.43 -10.01 3.68 -8.83 3.73 -7.65 3.89 -6.48 3.93 -5.3 4.04 -4.12 4.11 -2.94 4.22 -1.77 4.03 -0.59 4.18 0.59 4.35 1.77 4.59 2.94 4.67 4.12 4.48 5.3 4.8 6.48 4.9 7.65 4.83 8.83 5.04 10.01 5.05 11.18 5 12.36 5.01 13.54 4.98 14.72 5.09 15.89 5.04 17.07 5.17 18.25 5.29 19.43 5.45 20.6 5.31 21.78 5.44 22.96 5.4 24.13 5.62 25.31 5.38 26.49 5.81 27.67 5.86 28.84 5.58 30.02 5.56 31.2 5.52 32.38 5.73 33.55 5.63 34.73 5.87 35.91 5.94 37.08 6 38.26 5.96 39.44 6 40.62 6.01 41.79 5.9 42.97 5.89 44.15 5.86 45.33 5.96 46.5 6 47.68 6.14 48.86 6.04 50.03 6.04 51.21 6.07 52.39 5.94 53.57 5.99 54.74 6.29 55.92 6.19 57.1 6.25 58.28 6.28" class="primitive"/>
          </g>
        </g>
      </g>
    </g>
  </g>
  <g class="guide ylabels" font-size="3.53" font-family="'PT Sans Caption','Helvetica Neue','Helvetica',sans-serif" fill="#6C606B" id="img-9fcc39a2-39">
    <g transform="translate(20.87,97.06)" id="img-9fcc39a2-40">
      <g class="primitive">
        <text text-anchor="end" dy="0.35em">0</text>
      </g>
    </g>
    <g transform="translate(20.87,52.03)" id="img-9fcc39a2-41">
      <g class="primitive">
        <text text-anchor="end" dy="0.35em">50</text>
      </g>
    </g>
    <g transform="translate(20.87,7)" id="img-9fcc39a2-42">
      <g class="primitive">
        <text text-anchor="end" dy="0.35em">100</text>
      </g>
    </g>
  </g>
  <g font-size="4.94" font-family="'PT Sans','Helvetica Neue','Helvetica',sans-serif" fill="#564A55" stroke="#000000" stroke-opacity="0.000" id="img-9fcc39a2-43">
    <g transform="translate(9.3,50.03)" id="img-9fcc39a2-44">
      <g class="primitive">
        <text text-anchor="middle" dy="0.35em" transform="rotate(-90,0, 2)">Varietal richness in community</text>
      </g>
    </g>
  </g>
</g>
<defs>
  <clipPath id="img-9fcc39a2-19">
    <path d="M21.87,5 L 143.6 5 143.6 99.06 21.87 99.06" />
  </clipPath>
</defs>
</svg>
