<?xml version="1.0" encoding="UTF-8"?>
<svg xmlns="http://www.w3.org/2000/svg"
     xmlns:xlink="http://www.w3.org/1999/xlink"
     xmlns:gadfly="http://www.gadflyjl.org/ns"
     version="1.2"
     width="200mm" height="100mm" viewBox="0 0 200 100"
     stroke="none"
     fill="#000000"
     stroke-width="0.3"
     font-size="3.88"
>
<defs>
  <marker id="arrow" markerWidth="15" markerHeight="7" refX="5" refY="3.5" orient="auto" markerUnits="strokeWidth">
    <path d="M0,0 L15,3.5 L0,7 z" stroke="context-stroke" fill="context-stroke"/>
  </marker>
</defs>
<g class="plotroot xscalable yscalable" id="img-a6f721c4-1">
  <g font-size="3.88" font-family="'PT Sans','Helvetica Neue','Helvetica',sans-serif" fill="#564A55" stroke="#000000" stroke-opacity="0.000" id="img-a6f721c4-2">
    <g transform="translate(106.48,88.39)">
      <g class="primitive">
        <text text-anchor="middle" dy="0.6em">Average varietal richness per HD</text>
      </g>
    </g>
  </g>
  <g class="guide xlabels" font-size="2.82" font-family="'PT Sans Caption','Helvetica Neue','Helvetica',sans-serif" fill="#6C606B" id="img-a6f721c4-3">
    <g transform="translate(19.96,81.72)">
      <g class="primitive">
        <text text-anchor="middle" dy="0.6em">4</text>
      </g>
    </g>
    <g transform="translate(77.64,81.72)">
      <g class="primitive">
        <text text-anchor="middle" dy="0.6em">5</text>
      </g>
    </g>
    <g transform="translate(135.32,81.72)">
      <g class="primitive">
        <text text-anchor="middle" dy="0.6em">6</text>
      </g>
    </g>
    <g transform="translate(193,81.72)">
      <g class="primitive">
        <text text-anchor="middle" dy="0.6em">7</text>
      </g>
    </g>
  </g>
  <g clip-path="url(#img-a6f721c4-4)">
    <g id="img-a6f721c4-5">
      <g pointer-events="visible" fill="#000000" fill-opacity="0.000" stroke="#000000" stroke-opacity="0.000" class="guide background" id="img-a6f721c4-6">
        <g transform="translate(106.48,42.86)" id="img-a6f721c4-7">
          <path d="M-88.52,-37.86 L 88.52 -37.86 88.52 37.86 -88.52 37.86 z" class="primitive"/>
        </g>
      </g>
      <g class="guide ygridlines xfixed" stroke-dasharray="0.5,0.5" stroke-width="0.2" stroke="#D0D0E0" id="img-a6f721c4-8">
        <g transform="translate(106.48,78.71)" id="img-a6f721c4-9">
          <path fill="none" d="M-88.52,0 L 88.52 0" class="primitive"/>
        </g>
        <g transform="translate(106.48,64.37)" id="img-a6f721c4-10">
          <path fill="none" d="M-88.52,0 L 88.52 0" class="primitive"/>
        </g>
        <g transform="translate(106.48,50.03)" id="img-a6f721c4-11">
          <path fill="none" d="M-88.52,0 L 88.52 0" class="primitive"/>
        </g>
        <g transform="translate(106.48,35.69)" id="img-a6f721c4-12">
          <path fill="none" d="M-88.52,0 L 88.52 0" class="primitive"/>
        </g>
        <g transform="translate(106.48,21.34)" id="img-a6f721c4-13">
          <path fill="none" d="M-88.52,0 L 88.52 0" class="primitive"/>
        </g>
        <g transform="translate(106.48,7)" id="img-a6f721c4-14">
          <path fill="none" d="M-88.52,0 L 88.52 0" class="primitive"/>
        </g>
      </g>
      <g class="guide xgridlines yfixed" stroke-dasharray="0.5,0.5" stroke-width="0.2" stroke="#D0D0E0" id="img-a6f721c4-15">
        <g transform="translate(19.96,42.86)" id="img-a6f721c4-16">
          <path fill="none" d="M0,-37.86 L 0 37.86" class="primitive"/>
        </g>
        <g transform="translate(77.64,42.86)" id="img-a6f721c4-17">
          <path fill="none" d="M0,-37.86 L 0 37.86" class="primitive"/>
        </g>
        <g transform="translate(135.32,42.86)" id="img-a6f721c4-18">
          <path fill="none" d="M0,-37.86 L 0 37.86" class="primitive"/>
        </g>
        <g transform="translate(193,42.86)" id="img-a6f721c4-19">
          <path fill="none" d="M0,-37.86 L 0 37.86" class="primitive"/>
        </g>
      </g>
      <g class="plotpanel" id="img-a6f721c4-20">
        <metadata>
          <boundingbox value="17.958333333333343mm 5.0mm 177.04166666666669mm 75.715mm"/>
          <unitbox value="3.965326270166145 51.39440842222687 3.06934745966771 -52.78881684445375"/>
        </metadata>
        <g stroke-width="0.3" fill="#000000" fill-opacity="0.000" class="geometry" id="img-a6f721c4-21">
          <g class="color_LCHab{Float32}(70.0f0,60.0f0,240.0f0)" stroke-dasharray="none" stroke="#00BFFF" id="img-a6f721c4-22">
            <g transform="translate(150.98,39.63)" id="img-a6f721c4-23">
              <path fill="none" d="M-125.99,24.79 L -92.15 22.1 -54.53 -8.67 -36.42 -19.14 -26.7 -22.02 -19.89 -22.95 -16.43 -22.64 -14.46 -20.71 -11.08 -18.88 -10.14 -15.94 -9.28 -13.25 -9.22 -11.89 -9.06 -17.29 -8.76 -14.77 -7.42 -11.1 -7.05 -9.64 -6.45 -8.95 -5.85 -7.63 -5.14 -6.35 -4.86 -7.14 -4.79 -5.45 -3.66 -3.09 -3.33 -4.16 -2.37 -4.83 -1.42 -4.82 -1.24 -2 -1.06 -1.39 -0.81 -0.07 -0.77 -0.33 -0.61 -2.81 -0.18 -0.86 0.25 -0.2 0.51 -3.45 0.69 0.54 0.76 0.51 1.65 1.43 1.9 0.61 1.95 0.18 2.12 -0.2 2.62 1.89 2.9 1.09 3.08 1.17 3.14 2.3 3.48 1.65 4.11 1.11 4.47 3.85 4.53 2.24 4.67 3.18 4.71 3.12 4.94 3.23 4.96 3.92 5.07 2.26 5.46 2.91 5.51 3.99 5.86 3.92 5.94 2.75 6 3.65 6.1 3.69 6.21 2.89 6.31 2.97 6.34 2.58 6.42 3.27 6.64 3.68 6.84 4.02 6.94 3.42 7.48 3.96 7.53 4.04 7.65 3.69 7.73 4.38 7.95 4.47 8.64 4.38 8.69 4.81 8.71 4.66 8.74 4.51 8.87 4.26 8.93 4.53 8.99 4.42 9.51 4.79 9.89 5.13 9.93 5.04 10.2 4.78 10.38 4.58 10.45 4.84 10.62 5.33 10.74 5.41 10.79 5.7 10.81 4.83 10.98 4.63 11.04 4.8 11.18 4.86 11.28 4.95 11.34 5.03 11.58 4.86 11.59 4.87 11.8 5.42 12.04 5.24 12.4 5.05 12.51 4.7 13.15 5.42 13.93 5.33" class="primitive"/>
            </g>
          </g>
        </g>
      </g>
    </g>
  </g>
  <g class="guide ylabels" font-size="2.82" font-family="'PT Sans Caption','Helvetica Neue','Helvetica',sans-serif" fill="#6C606B" id="img-a6f721c4-24">
    <g transform="translate(16.96,78.71)" id="img-a6f721c4-25">
      <g class="primitive">
        <text text-anchor="end" dy="0.35em">0</text>
      </g>
    </g>
    <g transform="translate(16.96,64.37)" id="img-a6f721c4-26">
      <g class="primitive">
        <text text-anchor="end" dy="0.35em">10</text>
      </g>
    </g>
    <g transform="translate(16.96,50.03)" id="img-a6f721c4-27">
      <g class="primitive">
        <text text-anchor="end" dy="0.35em">20</text>
      </g>
    </g>
    <g transform="translate(16.96,35.69)" id="img-a6f721c4-28">
      <g class="primitive">
        <text text-anchor="end" dy="0.35em">30</text>
      </g>
    </g>
    <g transform="translate(16.96,21.34)" id="img-a6f721c4-29">
      <g class="primitive">
        <text text-anchor="end" dy="0.35em">40</text>
      </g>
    </g>
    <g transform="translate(16.96,7)" id="img-a6f721c4-30">
      <g class="primitive">
        <text text-anchor="end" dy="0.35em">50</text>
      </g>
    </g>
  </g>
  <g font-size="3.88" font-family="'PT Sans','Helvetica Neue','Helvetica',sans-serif" fill="#564A55" stroke="#000000" stroke-opacity="0.000" id="img-a6f721c4-31">
    <g transform="translate(8.81,40.86)" id="img-a6f721c4-32">
      <g class="primitive">
        <text text-anchor="middle" dy="0.35em" transform="rotate(-90,0, 2)">Varietal richness in community</text>
      </g>
    </g>
  </g>
</g>
<defs>
  <clipPath id="img-a6f721c4-4">
    <path d="M17.96,5 L 195 5 195 80.72 17.96 80.72" />
  </clipPath>
</defs>
</svg>
