<?xml version="1.0" encoding="UTF-8"?>
<svg xmlns="http://www.w3.org/2000/svg"
     xmlns:xlink="http://www.w3.org/1999/xlink"
     xmlns:gadfly="http://www.gadflyjl.org/ns"
     version="1.2"
     width="150mm" height="100mm" viewBox="0 0 150 100"
     stroke="none"
     fill="#000000"
     stroke-width="0.3"
     font-size="3.88"
>
<defs>
  <marker id="arrow" markerWidth="15" markerHeight="7" refX="5" refY="3.5" orient="auto" markerUnits="strokeWidth">
    <path d="M0,0 L15,3.5 L0,7 z" stroke="context-stroke" fill="context-stroke"/>
  </marker>
</defs>
<g class="plotroot xscalable yscalable" id="img-f3a3443f-1">
  <g font-size="4.94" font-family="'PT Sans','Helvetica Neue','Helvetica',sans-serif" fill="#564A55" stroke="#000000" stroke-opacity="0.000" id="img-f3a3443f-2">
    <g transform="translate(76.69,87.4)">
      <g class="primitive">
        <text text-anchor="middle" dy="0.6em">Varietal richness per HD</text>
      </g>
    </g>
  </g>
  <g class="guide xlabels" font-size="3.53" font-family="'PT Sans Caption','Helvetica Neue','Helvetica',sans-serif" fill="#6C606B" id="img-f3a3443f-3">
    <g transform="translate(21.78,80.06)">
      <g class="primitive">
        <text text-anchor="middle" dy="0.6em">0</text>
      </g>
    </g>
    <g transform="translate(43.74,80.06)">
      <g class="primitive">
        <text text-anchor="middle" dy="0.6em">10</text>
      </g>
    </g>
    <g transform="translate(65.71,80.06)">
      <g class="primitive">
        <text text-anchor="middle" dy="0.6em">20</text>
      </g>
    </g>
    <g transform="translate(87.67,80.06)">
      <g class="primitive">
        <text text-anchor="middle" dy="0.6em">30</text>
      </g>
    </g>
    <g transform="translate(109.64,80.06)">
      <g class="primitive">
        <text text-anchor="middle" dy="0.6em">40</text>
      </g>
    </g>
    <g transform="translate(131.6,80.06)">
      <g class="primitive">
        <text text-anchor="middle" dy="0.6em">50</text>
      </g>
    </g>
  </g>
  <g class="guide colorkey" id="img-f3a3443f-4">
    <g fill="#4C404B" font-size="4.23" font-family="'PT Sans','Helvetica Neue','Helvetica',sans-serif" id="img-f3a3443f-5">
      <g transform="translate(138.07,34.62)" id="img-f3a3443f-6" class="color_5">
        <g class="primitive">
          <text dy="0.35em">5</text>
        </g>
      </g>
      <g transform="translate(138.07,39.56)" id="img-f3a3443f-7" class="color_10">
        <g class="primitive">
          <text dy="0.35em">10</text>
        </g>
      </g>
      <g transform="translate(138.07,44.5)" id="img-f3a3443f-8" class="color_25">
        <g class="primitive">
          <text dy="0.35em">25</text>
        </g>
      </g>
      <g transform="translate(138.07,49.44)" id="img-f3a3443f-9" class="color_50">
        <g class="primitive">
          <text dy="0.35em">50</text>
        </g>
      </g>
      <g transform="translate(138.07,54.38)" id="img-f3a3443f-10" class="color_100">
        <g class="primitive">
          <text dy="0.35em">100</text>
        </g>
      </g>
    </g>
    <g fill-opacity="1" id="img-f3a3443f-11">
      <g transform="translate(135.84,34.62)" id="img-f3a3443f-12" fill="#00BFFF" class="color_5" stroke="#FFFFFF">
        <path d="M-1.23,-1.23 L 1.23 -1.23 1.23 1.23 -1.23 1.23 z" class="primitive"/>
      </g>
      <g transform="translate(135.84,39.56)" id="img-f3a3443f-13" fill="#D4CA3A" class="color_10" stroke="#FFFFFF">
        <path d="M-1.23,-1.23 L 1.23 -1.23 1.23 1.23 -1.23 1.23 z" class="primitive"/>
      </g>
      <g transform="translate(135.84,44.5)" id="img-f3a3443f-14" fill="#FF6DAE" class="color_25" stroke="#FFFFFF">
        <path d="M-1.23,-1.23 L 1.23 -1.23 1.23 1.23 -1.23 1.23 z" class="primitive"/>
      </g>
      <g transform="translate(135.84,49.44)" id="img-f3a3443f-15" fill="#00B78D" class="color_50" stroke="#FFFFFF">
        <path d="M-1.23,-1.23 L 1.23 -1.23 1.23 1.23 -1.23 1.23 z" class="primitive"/>
      </g>
      <g transform="translate(135.84,54.38)" id="img-f3a3443f-16" fill="#BEA9FF" class="color_100" stroke="#FFFFFF">
        <path d="M-1.23,-1.23 L 1.23 -1.23 1.23 1.23 -1.23 1.23 z" class="primitive"/>
      </g>
    </g>
    <g fill="#362A35" font-size="4.94" font-family="'PT Sans','Helvetica Neue','Helvetica',sans-serif" stroke="#000000" stroke-opacity="0.000" id="img-f3a3443f-17">
      <g transform="translate(134.6,29.98)" id="img-f3a3443f-18">
        <g class="primitive">
          <text dy="-0em">V</text>
        </g>
      </g>
    </g>
  </g>
  <g clip-path="url(#img-f3a3443f-19)">
    <g id="img-f3a3443f-20">
      <g pointer-events="visible" fill="#000000" fill-opacity="0.000" stroke="#000000" stroke-opacity="0.000" class="guide background" id="img-f3a3443f-21">
        <g transform="translate(76.69,42.03)" id="img-f3a3443f-22">
          <path d="M-56.91,-37.03 L 56.91 -37.03 56.91 37.03 -56.91 37.03 z" class="primitive"/>
        </g>
      </g>
      <g class="guide ygridlines xfixed" stroke-dasharray="0.5,0.5" stroke-width="0.2" stroke="#D0D0E0" id="img-f3a3443f-23">
        <g transform="translate(76.69,77.06)" id="img-f3a3443f-24">
          <path fill="none" d="M-56.91,0 L 56.91 0" class="primitive"/>
        </g>
        <g transform="translate(76.69,63.05)" id="img-f3a3443f-25">
          <path fill="none" d="M-56.91,0 L 56.91 0" class="primitive"/>
        </g>
        <g transform="translate(76.69,49.04)" id="img-f3a3443f-26">
          <path fill="none" d="M-56.91,0 L 56.91 0" class="primitive"/>
        </g>
        <g transform="translate(76.69,35.02)" id="img-f3a3443f-27">
          <path fill="none" d="M-56.91,0 L 56.91 0" class="primitive"/>
        </g>
        <g transform="translate(76.69,21.01)" id="img-f3a3443f-28">
          <path fill="none" d="M-56.91,0 L 56.91 0" class="primitive"/>
        </g>
        <g transform="translate(76.69,7)" id="img-f3a3443f-29">
          <path fill="none" d="M-56.91,0 L 56.91 0" class="primitive"/>
        </g>
      </g>
      <g class="guide xgridlines yfixed" stroke-dasharray="0.5,0.5" stroke-width="0.2" stroke="#D0D0E0" id="img-f3a3443f-30">
        <g transform="translate(21.78,42.03)" id="img-f3a3443f-31">
          <path fill="none" d="M0,-37.03 L 0 37.03" class="primitive"/>
        </g>
        <g transform="translate(43.74,42.03)" id="img-f3a3443f-32">
          <path fill="none" d="M0,-37.03 L 0 37.03" class="primitive"/>
        </g>
        <g transform="translate(65.71,42.03)" id="img-f3a3443f-33">
          <path fill="none" d="M0,-37.03 L 0 37.03" class="primitive"/>
        </g>
        <g transform="translate(87.67,42.03)" id="img-f3a3443f-34">
          <path fill="none" d="M0,-37.03 L 0 37.03" class="primitive"/>
        </g>
        <g transform="translate(109.64,42.03)" id="img-f3a3443f-35">
          <path fill="none" d="M0,-37.03 L 0 37.03" class="primitive"/>
        </g>
        <g transform="translate(131.6,42.03)" id="img-f3a3443f-36">
          <path fill="none" d="M0,-37.03 L 0 37.03" class="primitive"/>
        </g>
      </g>
      <g class="plotpanel" id="img-f3a3443f-37">
        <metadata>
          <boundingbox value="19.78mm 5.0mm 113.82mm 74.06166666666667mm"/>
          <unitbox value="-0.9105809506465125 25.7136570164379 51.821161901293024 -26.4273140328758"/>
        </metadata>
        <g stroke-width="0.3" fill="#000000" fill-opacity="0.000" class="geometry" id="img-f3a3443f-38">
          <g transform="translate(74.49,71.34)" id="img-f3a3443f-39" stroke-dasharray="none" class="color_5" stroke="#00BFFF">
            <path fill="none" d="M-52.71,5.72 L -50.52 3.83 -48.32 0.74 -46.12 -7.66 -43.93 -23.91 -41.73 -39.84 -39.54 -48.1 -37.34 -47.47 -35.14 -31.43 -32.95 -16.7 -30.75 -5.78 -28.55 1.32 -26.36 4.15 -24.16 5.15 -21.96 5.55 -19.77 5.69 -17.57 5.72 -15.37 5.72 -13.18 5.72 -10.98 5.72 -8.79 5.72 -6.59 5.72 -4.39 5.72 -2.2 5.72 0 5.72 2.2 5.72 4.39 5.72 6.59 5.72 8.79 5.72 10.98 5.72 13.18 5.72 15.37 5.72 17.57 5.72 19.77 5.72 21.96 5.72 24.16 5.72 26.36 5.72 28.55 5.72 30.75 5.72 32.95 5.72 35.14 5.72 37.34 5.72 39.54 5.72 41.73 5.72 43.93 5.72 46.12 5.72 48.32 5.72 50.52 5.72 52.71 5.72" class="primitive"/>
          </g>
          <g transform="translate(74.49,71.34)" id="img-f3a3443f-40" stroke-dasharray="none" class="color_10" stroke="#D4CA3A">
            <path fill="none" d="M-52.71,5.72 L -50.52 5.4 -48.32 1.29 -46.12 -5.18 -43.93 -20.82 -41.73 -40.55 -39.54 -50.84 -37.34 -47.96 -35.14 -33.94 -32.95 -17.59 -30.75 -6.86 -28.55 1.23 -26.36 4.58 -24.16 5.43 -21.96 5.66 -19.77 5.69 -17.57 5.72 -15.37 5.72 -13.18 5.72 -10.98 5.72 -8.79 5.72 -6.59 5.72 -4.39 5.72 -2.2 5.72 0 5.72 2.2 5.72 4.39 5.72 6.59 5.72 8.79 5.72 10.98 5.72 13.18 5.72 15.37 5.72 17.57 5.72 19.77 5.72 21.96 5.72 24.16 5.72 26.36 5.72 28.55 5.72 30.75 5.72 32.95 5.72 35.14 5.72 37.34 5.72 39.54 5.72 41.73 5.72 43.93 5.72 46.12 5.72 48.32 5.72 50.52 5.72 52.71 5.72" class="primitive"/>
          </g>
          <g transform="translate(74.49,71.34)" id="img-f3a3443f-41" stroke-dasharray="none" class="color_25" stroke="#FF6DAE">
            <path fill="none" d="M-52.71,5.72 L -50.52 4.89 -48.32 0.6 -46.12 -7.81 -43.93 -25.59 -41.73 -41.49 -39.54 -49.01 -37.34 -44.01 -35.14 -31.37 -32.95 -16.67 -30.75 -5.49 -28.55 1.03 -26.36 4.15 -24.16 5.06 -21.96 5.58 -19.77 5.69 -17.57 5.72 -15.37 5.72 -13.18 5.72 -10.98 5.72 -8.79 5.72 -6.59 5.72 -4.39 5.72 -2.2 5.72 0 5.72 2.2 5.72 4.39 5.72 6.59 5.72 8.79 5.72 10.98 5.72 13.18 5.72 15.37 5.72 17.57 5.72 19.77 5.72 21.96 5.72 24.16 5.72 26.36 5.72 28.55 5.72 30.75 5.72 32.95 5.72 35.14 5.72 37.34 5.72 39.54 5.72 41.73 5.72 43.93 5.72 46.12 5.72 48.32 5.72 50.52 5.72 52.71 5.72" class="primitive"/>
          </g>
          <g transform="translate(74.49,71.34)" id="img-f3a3443f-42" stroke-dasharray="none" class="color_50" stroke="#00B78D">
            <path fill="none" d="M-52.71,5.72 L -50.52 5.09 -48.32 1.94 -46.12 -7.29 -43.93 -24.14 -41.73 -44.04 -39.54 -51.56 -37.34 -45.78 -35.14 -31.89 -32.95 -15.27 -30.75 -4.8 -28.55 2.03 -26.36 4.6 -24.16 5.32 -21.96 5.6 -19.77 5.72 -17.57 5.72 -15.37 5.72 -13.18 5.72 -10.98 5.72 -8.79 5.72 -6.59 5.72 -4.39 5.72 -2.2 5.72 0 5.72 2.2 5.72 4.39 5.72 6.59 5.72 8.79 5.72 10.98 5.72 13.18 5.72 15.37 5.72 17.57 5.72 19.77 5.72 21.96 5.72 24.16 5.72 26.36 5.72 28.55 5.72 30.75 5.72 32.95 5.72 35.14 5.72 37.34 5.72 39.54 5.72 41.73 5.72 43.93 5.72 46.12 5.72 48.32 5.72 50.52 5.72 52.71 5.72" class="primitive"/>
          </g>
          <g transform="translate(74.49,71.34)" id="img-f3a3443f-43" stroke-dasharray="none" class="color_100" stroke="#BEA9FF">
            <path fill="none" d="M-52.71,5.72 L -50.52 5.58 -48.32 2.86 -46.12 -6.29 -43.93 -21.42 -41.73 -40.61 -39.54 -49.7 -37.34 -48.84 -35.14 -34.57 -32.95 -17.96 -30.75 -5.66 -28.55 1.17 -26.36 4.4 -24.16 5.23 -21.96 5.66 -19.77 5.72 -17.57 5.69 -15.37 5.72 -13.18 5.72 -10.98 5.72 -8.79 5.72 -6.59 5.72 -4.39 5.72 -2.2 5.72 0 5.72 2.2 5.72 4.39 5.72 6.59 5.72 8.79 5.72 10.98 5.72 13.18 5.72 15.37 5.72 17.57 5.72 19.77 5.72 21.96 5.72 24.16 5.72 26.36 5.72 28.55 5.72 30.75 5.72 32.95 5.72 35.14 5.72 37.34 5.72 39.54 5.72 41.73 5.72 43.93 5.72 46.12 5.72 48.32 5.72 50.52 5.72 52.71 5.72" class="primitive"/>
          </g>
        </g>
      </g>
    </g>
  </g>
  <g class="guide ylabels" font-size="3.53" font-family="'PT Sans Caption','Helvetica Neue','Helvetica',sans-serif" fill="#6C606B" id="img-f3a3443f-44">
    <g transform="translate(18.78,77.06)" id="img-f3a3443f-45">
      <g class="primitive">
        <text text-anchor="end" dy="0.35em">0</text>
      </g>
    </g>
    <g transform="translate(18.78,63.05)" id="img-f3a3443f-46">
      <g class="primitive">
        <text text-anchor="end" dy="0.35em">5</text>
      </g>
    </g>
    <g transform="translate(18.78,49.04)" id="img-f3a3443f-47">
      <g class="primitive">
        <text text-anchor="end" dy="0.35em">10</text>
      </g>
    </g>
    <g transform="translate(18.78,35.02)" id="img-f3a3443f-48">
      <g class="primitive">
        <text text-anchor="end" dy="0.35em">15</text>
      </g>
    </g>
    <g transform="translate(18.78,21.01)" id="img-f3a3443f-49">
      <g class="primitive">
        <text text-anchor="end" dy="0.35em">20</text>
      </g>
    </g>
    <g transform="translate(18.78,7)" id="img-f3a3443f-50">
      <g class="primitive">
        <text text-anchor="end" dy="0.35em">25</text>
      </g>
    </g>
  </g>
  <g font-size="4.94" font-family="'PT Sans','Helvetica Neue','Helvetica',sans-serif" fill="#564A55" stroke="#000000" stroke-opacity="0.000" id="img-f3a3443f-51">
    <g transform="translate(9.3,40.03)" id="img-f3a3443f-52">
      <g class="primitive">
        <text text-anchor="middle" dy="0.35em" transform="rotate(-90,0, 2)">Percentage (%)</text>
      </g>
    </g>
  </g>
</g>
<defs>
  <clipPath id="img-f3a3443f-19">
    <path d="M19.78,5 L 133.6 5 133.6 79.06 19.78 79.06" />
  </clipPath>
</defs>
</svg>
