<?xml version="1.0" encoding="UTF-8"?>
<svg xmlns="http://www.w3.org/2000/svg"
     xmlns:xlink="http://www.w3.org/1999/xlink"
     xmlns:gadfly="http://www.gadflyjl.org/ns"
     version="1.2"
     width="150mm" height="100mm" viewBox="0 0 150 100"
     stroke="none"
     fill="#000000"
     stroke-width="0.3"
     font-size="3.88"
>
<defs>
  <marker id="arrow" markerWidth="15" markerHeight="7" refX="5" refY="3.5" orient="auto" markerUnits="strokeWidth">
    <path d="M0,0 L15,3.5 L0,7 z" stroke="context-stroke" fill="context-stroke"/>
  </marker>
</defs>
<g class="plotroot xscalable yscalable" id="img-3d54e6d8-1">
  <g font-size="4.94" font-family="'PT Sans','Helvetica Neue','Helvetica',sans-serif" fill="#564A55" stroke="#000000" stroke-opacity="0.000" id="img-3d54e6d8-2">
    <g transform="translate(79,87.4)">
      <g class="primitive">
        <text text-anchor="middle" dy="0.6em">Occupied area in community (%)</text>
      </g>
    </g>
  </g>
  <g class="guide xlabels" font-size="3.53" font-family="'PT Sans Caption','Helvetica Neue','Helvetica',sans-serif" fill="#6C606B" id="img-3d54e6d8-3">
    <g transform="translate(34.66,80.06)">
      <g class="primitive">
        <text text-anchor="middle" dy="0.6em">0.1</text>
      </g>
    </g>
    <g transform="translate(68.51,80.06)">
      <g class="primitive">
        <text text-anchor="middle" dy="0.6em">1.0</text>
      </g>
    </g>
    <g transform="translate(92.21,80.06)">
      <g class="primitive">
        <text text-anchor="middle" dy="0.6em">5.0</text>
      </g>
    </g>
    <g transform="translate(102.37,80.06)">
      <g class="primitive">
        <text text-anchor="middle" dy="0.6em">10.0</text>
      </g>
    </g>
    <g transform="translate(126.03,80.06)">
      <g class="primitive">
        <text text-anchor="middle" dy="0.6em">50.0</text>
      </g>
    </g>
    <g transform="translate(136.22,80.06)">
      <g class="primitive">
        <text text-anchor="middle" dy="0.6em">100.0</text>
      </g>
    </g>
  </g>
  <g class="guide colorkey" id="img-3d54e6d8-4">
    <g fill="#4C404B" font-size="4.23" font-family="'PT Sans','Helvetica Neue','Helvetica',sans-serif" id="img-3d54e6d8-5">
      <g transform="translate(142.69,39.56)" id="img-3d54e6d8-6" class="color_1">
        <g class="primitive">
          <text dy="0.35em">1</text>
        </g>
      </g>
      <g transform="translate(142.69,44.5)" id="img-3d54e6d8-7" class="color_3">
        <g class="primitive">
          <text dy="0.35em">3</text>
        </g>
      </g>
      <g transform="translate(142.69,49.44)" id="img-3d54e6d8-8" class="color_5">
        <g class="primitive">
          <text dy="0.35em">5</text>
        </g>
      </g>
    </g>
    <g fill-opacity="1" id="img-3d54e6d8-9">
      <g transform="translate(140.46,39.56)" id="img-3d54e6d8-10" fill="#00BFFF" class="color_1" stroke="#FFFFFF">
        <path d="M-1.23,-1.23 L 1.23 -1.23 1.23 1.23 -1.23 1.23 z" class="primitive"/>
      </g>
      <g transform="translate(140.46,44.5)" id="img-3d54e6d8-11" fill="#D4CA3A" class="color_3" stroke="#FFFFFF">
        <path d="M-1.23,-1.23 L 1.23 -1.23 1.23 1.23 -1.23 1.23 z" class="primitive"/>
      </g>
      <g transform="translate(140.46,49.44)" id="img-3d54e6d8-12" fill="#FF6DAE" class="color_5" stroke="#FFFFFF">
        <path d="M-1.23,-1.23 L 1.23 -1.23 1.23 1.23 -1.23 1.23 z" class="primitive"/>
      </g>
    </g>
    <g fill="#362A35" font-size="4.94" font-family="'PT Sans','Helvetica Neue','Helvetica',sans-serif" stroke="#000000" stroke-opacity="0.000" id="img-3d54e6d8-13">
      <g transform="translate(139.22,34.92)" id="img-3d54e6d8-14">
        <g class="primitive">
          <text dy="-0em">H</text>
        </g>
      </g>
    </g>
  </g>
  <g clip-path="url(#img-3d54e6d8-15)">
    <g id="img-3d54e6d8-16">
      <g pointer-events="visible" fill="#000000" fill-opacity="0.000" stroke="#000000" stroke-opacity="0.000" class="guide background" id="img-3d54e6d8-17">
        <g transform="translate(79,42.03)" id="img-3d54e6d8-18">
          <path d="M-59.22,-37.03 L 59.22 -37.03 59.22 37.03 -59.22 37.03 z" class="primitive"/>
        </g>
      </g>
      <g class="guide ygridlines xfixed" stroke-dasharray="0.5,0.5" stroke-width="0.2" stroke="#D0D0E0" id="img-3d54e6d8-19">
        <g transform="translate(79,77.06)" id="img-3d54e6d8-20">
          <path fill="none" d="M-59.22,0 L 59.22 0" class="primitive"/>
        </g>
        <g transform="translate(79,63.05)" id="img-3d54e6d8-21">
          <path fill="none" d="M-59.22,0 L 59.22 0" class="primitive"/>
        </g>
        <g transform="translate(79,49.04)" id="img-3d54e6d8-22">
          <path fill="none" d="M-59.22,0 L 59.22 0" class="primitive"/>
        </g>
        <g transform="translate(79,35.02)" id="img-3d54e6d8-23">
          <path fill="none" d="M-59.22,0 L 59.22 0" class="primitive"/>
        </g>
        <g transform="translate(79,21.01)" id="img-3d54e6d8-24">
          <path fill="none" d="M-59.22,0 L 59.22 0" class="primitive"/>
        </g>
        <g transform="translate(79,7)" id="img-3d54e6d8-25">
          <path fill="none" d="M-59.22,0 L 59.22 0" class="primitive"/>
        </g>
      </g>
      <g class="guide xgridlines yfixed" stroke-dasharray="0.5,0.5" stroke-width="0.2" stroke="#D0D0E0" id="img-3d54e6d8-26">
        <g transform="translate(34.66,42.03)" id="img-3d54e6d8-27">
          <path fill="none" d="M0,-37.03 L 0 37.03" class="primitive"/>
        </g>
        <g transform="translate(68.51,42.03)" id="img-3d54e6d8-28">
          <path fill="none" d="M0,-37.03 L 0 37.03" class="primitive"/>
        </g>
        <g transform="translate(92.21,42.03)" id="img-3d54e6d8-29">
          <path fill="none" d="M0,-37.03 L 0 37.03" class="primitive"/>
        </g>
        <g transform="translate(102.37,42.03)" id="img-3d54e6d8-30">
          <path fill="none" d="M0,-37.03 L 0 37.03" class="primitive"/>
        </g>
        <g transform="translate(126.03,42.03)" id="img-3d54e6d8-31">
          <path fill="none" d="M0,-37.03 L 0 37.03" class="primitive"/>
        </g>
        <g transform="translate(136.22,42.03)" id="img-3d54e6d8-32">
          <path fill="none" d="M0,-37.03 L 0 37.03" class="primitive"/>
        </g>
      </g>
      <g class="plotpanel" id="img-3d54e6d8-33">
        <metadata>
          <boundingbox value="19.78mm 5.0mm 118.44mm 74.06166666666667mm"/>
          <unitbox value="-1.4394694044198029 25.7136570164379 3.498546515454152 -26.4273140328758"/>
        </metadata>
        <g stroke-width="0.3" fill="#000000" fill-opacity="0.000" class="geometry" id="img-3d54e6d8-34">
          <g transform="translate(75.95,60.58)" id="img-3d54e6d8-35" stroke-dasharray="none" class="color_1" stroke="#00BFFF">
            <path fill="none" d="M-54.17,-3 L -47.4 9.49 -40.62 13.51 -33.85 9.99 -27.08 10.46 -20.31 8.67 -13.54 3.46 -6.77 0.93 0 -11.81 6.77 -29.3 13.54 -41.17 20.31 -34.24 27.08 0.7 33.85 13.8 40.62 16.49 47.4 15.55 54.17 16.49" class="primitive"/>
          </g>
          <g transform="translate(75.95,60.58)" id="img-3d54e6d8-36" stroke-dasharray="none" class="color_3" stroke="#D4CA3A">
            <path fill="none" d="M-54.17,-1.77 L -47.4 9.19 -40.62 13.67 -33.85 8.39 -27.08 7.19 -20.31 7.05 -13.54 -4.11 -6.77 -10.22 0 -23.52 6.77 -30.9 13.54 -37.5 20.31 -13.7 27.08 11.27 33.85 15.69 40.62 16.39 47.4 16.41 54.17 16.49" class="primitive"/>
          </g>
          <g transform="translate(75.95,60.58)" id="img-3d54e6d8-37" stroke-dasharray="none" class="color_5" stroke="#FF6DAE">
            <path fill="none" d="M-54.17,-0.2 L -47.4 11.5 -40.62 13.23 -33.85 7.94 -27.08 3.83 -20.31 6.29 -13.54 -5.04 -6.77 -11.7 0 -24.21 6.77 -36.09 13.54 -35.85 20.31 -8.37 27.08 12.9 33.85 16.31 40.62 16.49 47.4 16.49 54.17 16.49" class="primitive"/>
          </g>
        </g>
      </g>
    </g>
  </g>
  <g class="guide ylabels" font-size="3.53" font-family="'PT Sans Caption','Helvetica Neue','Helvetica',sans-serif" fill="#6C606B" id="img-3d54e6d8-38">
    <g transform="translate(18.78,77.06)" id="img-3d54e6d8-39">
      <g class="primitive">
        <text text-anchor="end" dy="0.35em">0</text>
      </g>
    </g>
    <g transform="translate(18.78,63.05)" id="img-3d54e6d8-40">
      <g class="primitive">
        <text text-anchor="end" dy="0.35em">5</text>
      </g>
    </g>
    <g transform="translate(18.78,49.04)" id="img-3d54e6d8-41">
      <g class="primitive">
        <text text-anchor="end" dy="0.35em">10</text>
      </g>
    </g>
    <g transform="translate(18.78,35.02)" id="img-3d54e6d8-42">
      <g class="primitive">
        <text text-anchor="end" dy="0.35em">15</text>
      </g>
    </g>
    <g transform="translate(18.78,21.01)" id="img-3d54e6d8-43">
      <g class="primitive">
        <text text-anchor="end" dy="0.35em">20</text>
      </g>
    </g>
    <g transform="translate(18.78,7)" id="img-3d54e6d8-44">
      <g class="primitive">
        <text text-anchor="end" dy="0.35em">25</text>
      </g>
    </g>
  </g>
  <g font-size="4.94" font-family="'PT Sans','Helvetica Neue','Helvetica',sans-serif" fill="#564A55" stroke="#000000" stroke-opacity="0.000" id="img-3d54e6d8-45">
    <g transform="translate(9.3,40.03)" id="img-3d54e6d8-46">
      <g class="primitive">
        <text text-anchor="middle" dy="0.35em" transform="rotate(-90,0, 2)">Percentage of varieties (%)</text>
      </g>
    </g>
  </g>
</g>
<defs>
  <clipPath id="img-3d54e6d8-15">
    <path d="M19.78,5 L 138.22 5 138.22 79.06 19.78 79.06" />
  </clipPath>
</defs>
</svg>
