<?xml version="1.0" encoding="UTF-8"?>
<svg xmlns="http://www.w3.org/2000/svg"
     xmlns:xlink="http://www.w3.org/1999/xlink"
     xmlns:gadfly="http://www.gadflyjl.org/ns"
     version="1.2"
     width="150mm" height="100mm" viewBox="0 0 150 100"
     stroke="none"
     fill="#000000"
     stroke-width="0.3"
     font-size="3.88"
>
<defs>
  <marker id="arrow" markerWidth="15" markerHeight="7" refX="5" refY="3.5" orient="auto" markerUnits="strokeWidth">
    <path d="M0,0 L15,3.5 L0,7 z" stroke="context-stroke" fill="context-stroke"/>
  </marker>
</defs>
<g class="plotroot xscalable yscalable" id="img-962dc5c9-1">
  <g font-size="4.94" font-family="'PT Sans','Helvetica Neue','Helvetica',sans-serif" fill="#564A55" stroke="#000000" stroke-opacity="0.000" id="img-962dc5c9-2">
    <g transform="translate(69.31,87.4)">
      <g class="primitive">
        <text text-anchor="middle" dy="0.6em">Value of metric</text>
      </g>
    </g>
  </g>
  <g class="guide xlabels" font-size="3.53" font-family="'PT Sans Caption','Helvetica Neue','Helvetica',sans-serif" fill="#6C606B" id="img-962dc5c9-3">
    <g transform="translate(21.78,80.06)">
      <g class="primitive">
        <text text-anchor="middle" dy="0.6em">0.0</text>
      </g>
    </g>
    <g transform="translate(69.31,80.06)">
      <g class="primitive">
        <text text-anchor="middle" dy="0.6em">0.5</text>
      </g>
    </g>
    <g transform="translate(116.83,80.06)">
      <g class="primitive">
        <text text-anchor="middle" dy="0.6em">1.0</text>
      </g>
    </g>
  </g>
  <g class="guide colorkey" id="img-962dc5c9-4">
    <g fill="#4C404B" font-size="4.23" font-family="'PT Sans','Helvetica Neue','Helvetica',sans-serif" id="img-962dc5c9-5">
      <g transform="translate(123.3,42.03)" id="img-962dc5c9-6">
        <g class="primitive">
          <text dy="0.35em">Productivity</text>
        </g>
      </g>
      <g transform="translate(123.3,46.97)" id="img-962dc5c9-7">
        <g class="primitive">
          <text dy="0.35em">Quality</text>
        </g>
      </g>
    </g>
    <g fill-opacity="1" id="img-962dc5c9-8">
      <g transform="translate(121.07,42.03)" id="img-962dc5c9-9" fill="#008000" stroke="#FFFFFF">
        <path d="M-1.23,-1.23 L 1.23 -1.23 1.23 1.23 -1.23 1.23 z" class="primitive"/>
      </g>
      <g transform="translate(121.07,46.97)" id="img-962dc5c9-10" fill="#FF0000" stroke="#FFFFFF">
        <path d="M-1.23,-1.23 L 1.23 -1.23 1.23 1.23 -1.23 1.23 z" class="primitive"/>
      </g>
    </g>
    <g fill="#362A35" font-size="4.94" font-family="'PT Sans','Helvetica Neue','Helvetica',sans-serif" stroke="#000000" stroke-opacity="0.000" id="img-962dc5c9-11">
      <g transform="translate(119.83,37.39)" id="img-962dc5c9-12">
        <g class="primitive">
          <text dy="-0em"></text>
        </g>
      </g>
    </g>
  </g>
  <g clip-path="url(#img-962dc5c9-13)">
    <g id="img-962dc5c9-14">
      <g pointer-events="visible" fill="#000000" fill-opacity="0.000" stroke="#000000" stroke-opacity="0.000" class="guide background" id="img-962dc5c9-15">
        <g transform="translate(69.31,42.03)" id="img-962dc5c9-16">
          <path d="M-49.53,-37.03 L 49.53 -37.03 49.53 37.03 -49.53 37.03 z" class="primitive"/>
        </g>
      </g>
      <g class="guide ygridlines xfixed" stroke-dasharray="0.5,0.5" stroke-width="0.2" stroke="#D0D0E0" id="img-962dc5c9-17">
        <g transform="translate(69.31,77.06)" id="img-962dc5c9-18">
          <path fill="none" d="M-49.53,0 L 49.53 0" class="primitive"/>
        </g>
        <g transform="translate(69.31,59.55)" id="img-962dc5c9-19">
          <path fill="none" d="M-49.53,0 L 49.53 0" class="primitive"/>
        </g>
        <g transform="translate(69.31,42.03)" id="img-962dc5c9-20">
          <path fill="none" d="M-49.53,0 L 49.53 0" class="primitive"/>
        </g>
        <g transform="translate(69.31,24.52)" id="img-962dc5c9-21">
          <path fill="none" d="M-49.53,0 L 49.53 0" class="primitive"/>
        </g>
        <g transform="translate(69.31,7)" id="img-962dc5c9-22">
          <path fill="none" d="M-49.53,0 L 49.53 0" class="primitive"/>
        </g>
      </g>
      <g class="guide xgridlines yfixed" stroke-dasharray="0.5,0.5" stroke-width="0.2" stroke="#D0D0E0" id="img-962dc5c9-23">
        <g transform="translate(21.78,42.03)" id="img-962dc5c9-24">
          <path fill="none" d="M0,-37.03 L 0 37.03" class="primitive"/>
        </g>
        <g transform="translate(69.31,42.03)" id="img-962dc5c9-25">
          <path fill="none" d="M0,-37.03 L 0 37.03" class="primitive"/>
        </g>
        <g transform="translate(116.83,42.03)" id="img-962dc5c9-26">
          <path fill="none" d="M0,-37.03 L 0 37.03" class="primitive"/>
        </g>
      </g>
      <g class="plotpanel" id="img-962dc5c9-27">
        <metadata>
          <boundingbox value="19.78mm 5.0mm 99.05000000000001mm 74.06166666666667mm"/>
          <unitbox value="-0.021041557075223562 41.14185122630064 1.0420831141504472 -42.283702452601275"/>
        </metadata>
        <g shape-rendering="crispEdges" stroke-width="0.3" id="img-962dc5c9-28">
          <g stroke="#000000" stroke-opacity="0.000" class="geometry" fill="#FF0000" fill-opacity="0.400" id="img-962dc5c9-29">
            <g transform="translate(24.16,77.07)" id="img-962dc5c9-30">
              <path d="M-2.4,-0 L 2.4 -0 2.4 0 -2.4 0 z" class="primitive"/>
            </g>
            <g transform="translate(28.91,77.07)" id="img-962dc5c9-31">
              <path d="M-2.4,-0 L 2.4 -0 2.4 0 -2.4 0 z" class="primitive"/>
            </g>
            <g transform="translate(33.66,77.07)" id="img-962dc5c9-32">
              <path d="M-2.4,-0 L 2.4 -0 2.4 0 -2.4 0 z" class="primitive"/>
            </g>
            <g transform="translate(38.41,77.06)" id="img-962dc5c9-33">
              <path d="M-2.4,-0 L 2.4 -0 2.4 0 -2.4 0 z" class="primitive"/>
            </g>
            <g transform="translate(43.17,77.06)" id="img-962dc5c9-34">
              <path d="M-2.4,-0 L 2.4 -0 2.4 0 -2.4 0 z" class="primitive"/>
            </g>
            <g transform="translate(47.92,77.01)" id="img-962dc5c9-35">
              <path d="M-2.4,-0.06 L 2.4 -0.06 2.4 0.06 -2.4 0.06 z" class="primitive"/>
            </g>
            <g transform="translate(52.67,76.87)" id="img-962dc5c9-36">
              <path d="M-2.4,-0.19 L 2.4 -0.19 2.4 0.19 -2.4 0.19 z" class="primitive"/>
            </g>
            <g transform="translate(57.42,75.03)" id="img-962dc5c9-37">
              <path d="M-2.4,-2.03 L 2.4 -2.03 2.4 2.03 -2.4 2.03 z" class="primitive"/>
            </g>
            <g transform="translate(62.18,66.54)" id="img-962dc5c9-38">
              <path d="M-2.4,-10.52 L 2.4 -10.52 2.4 10.52 -2.4 10.52 z" class="primitive"/>
            </g>
            <g transform="translate(66.93,50.37)" id="img-962dc5c9-39">
              <path d="M-2.4,-26.69 L 2.4 -26.69 2.4 26.69 -2.4 26.69 z" class="primitive"/>
            </g>
            <g transform="translate(71.68,47.44)" id="img-962dc5c9-40">
              <path d="M-2.4,-29.62 L 2.4 -29.62 2.4 29.62 -2.4 29.62 z" class="primitive"/>
            </g>
            <g transform="translate(76.43,61.95)" id="img-962dc5c9-41">
              <path d="M-2.4,-15.11 L 2.4 -15.11 2.4 15.11 -2.4 15.11 z" class="primitive"/>
            </g>
            <g transform="translate(81.19,74.13)" id="img-962dc5c9-42">
              <path d="M-2.4,-2.93 L 2.4 -2.93 2.4 2.93 -2.4 2.93 z" class="primitive"/>
            </g>
            <g transform="translate(85.94,76.76)" id="img-962dc5c9-43">
              <path d="M-2.4,-0.3 L 2.4 -0.3 2.4 0.3 -2.4 0.3 z" class="primitive"/>
            </g>
            <g transform="translate(90.69,76.99)" id="img-962dc5c9-44">
              <path d="M-2.4,-0.07 L 2.4 -0.07 2.4 0.07 -2.4 0.07 z" class="primitive"/>
            </g>
            <g transform="translate(95.44,77.04)" id="img-962dc5c9-45">
              <path d="M-2.4,-0.03 L 2.4 -0.03 2.4 0.03 -2.4 0.03 z" class="primitive"/>
            </g>
            <g transform="translate(100.2,77.05)" id="img-962dc5c9-46">
              <path d="M-2.4,-0.01 L 2.4 -0.01 2.4 0.01 -2.4 0.01 z" class="primitive"/>
            </g>
            <g transform="translate(104.95,77.07)" id="img-962dc5c9-47">
              <path d="M-2.4,-0 L 2.4 -0 2.4 0 -2.4 0 z" class="primitive"/>
            </g>
            <g transform="translate(109.7,77.07)" id="img-962dc5c9-48">
              <path d="M-2.4,-0 L 2.4 -0 2.4 0 -2.4 0 z" class="primitive"/>
            </g>
            <g transform="translate(114.45,77.07)" id="img-962dc5c9-49">
              <path d="M-2.4,-0 L 2.4 -0 2.4 0 -2.4 0 z" class="primitive"/>
            </g>
          </g>
        </g>
        <g shape-rendering="crispEdges" stroke-width="0.3" id="img-962dc5c9-50">
          <g stroke="#000000" stroke-opacity="0.000" class="geometry" fill="#00FF00" fill-opacity="0.400" id="img-962dc5c9-51">
            <g transform="translate(24.16,77.06)" id="img-962dc5c9-52">
              <path d="M-2.4,-0 L 2.4 -0 2.4 0 -2.4 0 z" class="primitive"/>
            </g>
            <g transform="translate(28.91,76.98)" id="img-962dc5c9-53">
              <path d="M-2.4,-0.08 L 2.4 -0.08 2.4 0.08 -2.4 0.08 z" class="primitive"/>
            </g>
            <g transform="translate(33.66,76.9)" id="img-962dc5c9-54">
              <path d="M-2.4,-0.16 L 2.4 -0.16 2.4 0.16 -2.4 0.16 z" class="primitive"/>
            </g>
            <g transform="translate(38.41,76.83)" id="img-962dc5c9-55">
              <path d="M-2.4,-0.24 L 2.4 -0.24 2.4 0.24 -2.4 0.24 z" class="primitive"/>
            </g>
            <g transform="translate(43.17,76.51)" id="img-962dc5c9-56">
              <path d="M-2.4,-0.55 L 2.4 -0.55 2.4 0.55 -2.4 0.55 z" class="primitive"/>
            </g>
            <g transform="translate(47.92,76.57)" id="img-962dc5c9-57">
              <path d="M-2.4,-0.5 L 2.4 -0.5 2.4 0.5 -2.4 0.5 z" class="primitive"/>
            </g>
            <g transform="translate(52.67,75.94)" id="img-962dc5c9-58">
              <path d="M-2.4,-1.12 L 2.4 -1.12 2.4 1.12 -2.4 1.12 z" class="primitive"/>
            </g>
            <g transform="translate(57.42,76.08)" id="img-962dc5c9-59">
              <path d="M-2.4,-0.98 L 2.4 -0.98 2.4 0.98 -2.4 0.98 z" class="primitive"/>
            </g>
            <g transform="translate(62.18,74.84)" id="img-962dc5c9-60">
              <path d="M-2.4,-2.22 L 2.4 -2.22 2.4 2.22 -2.4 2.22 z" class="primitive"/>
            </g>
            <g transform="translate(66.93,71.68)" id="img-962dc5c9-61">
              <path d="M-2.4,-5.38 L 2.4 -5.38 2.4 5.38 -2.4 5.38 z" class="primitive"/>
            </g>
            <g transform="translate(71.68,67.04)" id="img-962dc5c9-62">
              <path d="M-2.4,-10.02 L 2.4 -10.02 2.4 10.02 -2.4 10.02 z" class="primitive"/>
            </g>
            <g transform="translate(76.43,55.23)" id="img-962dc5c9-63">
              <path d="M-2.4,-21.83 L 2.4 -21.83 2.4 21.83 -2.4 21.83 z" class="primitive"/>
            </g>
            <g transform="translate(81.19,51.09)" id="img-962dc5c9-64">
              <path d="M-2.4,-25.98 L 2.4 -25.98 2.4 25.98 -2.4 25.98 z" class="primitive"/>
            </g>
            <g transform="translate(85.94,61.69)" id="img-962dc5c9-65">
              <path d="M-2.4,-15.37 L 2.4 -15.37 2.4 15.37 -2.4 15.37 z" class="primitive"/>
            </g>
            <g transform="translate(90.69,74.08)" id="img-962dc5c9-66">
              <path d="M-2.4,-2.98 L 2.4 -2.98 2.4 2.98 -2.4 2.98 z" class="primitive"/>
            </g>
            <g transform="translate(95.44,76.89)" id="img-962dc5c9-67">
              <path d="M-2.4,-0.17 L 2.4 -0.17 2.4 0.17 -2.4 0.17 z" class="primitive"/>
            </g>
            <g transform="translate(100.2,77.07)" id="img-962dc5c9-68">
              <path d="M-2.4,-0 L 2.4 -0 2.4 0 -2.4 0 z" class="primitive"/>
            </g>
            <g transform="translate(104.95,77.07)" id="img-962dc5c9-69">
              <path d="M-2.4,-0 L 2.4 -0 2.4 0 -2.4 0 z" class="primitive"/>
            </g>
            <g transform="translate(109.7,77.07)" id="img-962dc5c9-70">
              <path d="M-2.4,-0 L 2.4 -0 2.4 0 -2.4 0 z" class="primitive"/>
            </g>
            <g transform="translate(114.45,77.07)" id="img-962dc5c9-71">
              <path d="M-2.4,-0 L 2.4 -0 2.4 0 -2.4 0 z" class="primitive"/>
            </g>
          </g>
        </g>
      </g>
    </g>
  </g>
  <g class="guide ylabels" font-size="3.53" font-family="'PT Sans Caption','Helvetica Neue','Helvetica',sans-serif" fill="#6C606B" id="img-962dc5c9-72">
    <g transform="translate(18.78,77.06)" id="img-962dc5c9-73">
      <g class="primitive">
        <text text-anchor="end" dy="0.35em">0</text>
      </g>
    </g>
    <g transform="translate(18.78,59.55)" id="img-962dc5c9-74">
      <g class="primitive">
        <text text-anchor="end" dy="0.35em">10</text>
      </g>
    </g>
    <g transform="translate(18.78,42.03)" id="img-962dc5c9-75">
      <g class="primitive">
        <text text-anchor="end" dy="0.35em">20</text>
      </g>
    </g>
    <g transform="translate(18.78,24.52)" id="img-962dc5c9-76">
      <g class="primitive">
        <text text-anchor="end" dy="0.35em">30</text>
      </g>
    </g>
    <g transform="translate(18.78,7)" id="img-962dc5c9-77">
      <g class="primitive">
        <text text-anchor="end" dy="0.35em">40</text>
      </g>
    </g>
  </g>
  <g font-size="4.94" font-family="'PT Sans','Helvetica Neue','Helvetica',sans-serif" fill="#564A55" stroke="#000000" stroke-opacity="0.000" id="img-962dc5c9-78">
    <g transform="translate(9.3,40.03)" id="img-962dc5c9-79">
      <g class="primitive">
        <text text-anchor="middle" dy="0.35em" transform="rotate(-90,0, 2)">Occupied area (%)</text>
      </g>
    </g>
  </g>
</g>
<defs>
  <clipPath id="img-962dc5c9-13">
    <path d="M19.78,5 L 118.83 5 118.83 79.06 19.78 79.06" />
  </clipPath>
</defs>
</svg>
