<?xml version="1.0" encoding="UTF-8"?>
<svg xmlns="http://www.w3.org/2000/svg"
     xmlns:xlink="http://www.w3.org/1999/xlink"
     xmlns:gadfly="http://www.gadflyjl.org/ns"
     version="1.2"
     width="150mm" height="100mm" viewBox="0 0 150 100"
     stroke="none"
     fill="#000000"
     stroke-width="0.3"
     font-size="3.88"
>
<defs>
  <marker id="arrow" markerWidth="15" markerHeight="7" refX="5" refY="3.5" orient="auto" markerUnits="strokeWidth">
    <path d="M0,0 L15,3.5 L0,7 z" stroke="context-stroke" fill="context-stroke"/>
  </marker>
</defs>
<g class="plotroot xscalable yscalable" id="img-6b28728d-1">
  <g font-size="4.94" font-family="'PT Sans','Helvetica Neue','Helvetica',sans-serif" fill="#564A55" stroke="#000000" stroke-opacity="0.000" id="img-6b28728d-2">
    <g transform="translate(79,87.4)">
      <g class="primitive">
        <text text-anchor="middle" dy="0.6em">Percentage of households (%)</text>
      </g>
    </g>
  </g>
  <g class="guide xlabels" font-size="3.53" font-family="'PT Sans Caption','Helvetica Neue','Helvetica',sans-serif" fill="#6C606B" id="img-6b28728d-3">
    <g transform="translate(21.78,80.06)">
      <g class="primitive">
        <text text-anchor="middle" dy="0.6em">0</text>
      </g>
    </g>
    <g transform="translate(44.67,80.06)">
      <g class="primitive">
        <text text-anchor="middle" dy="0.6em">20</text>
      </g>
    </g>
    <g transform="translate(67.56,80.06)">
      <g class="primitive">
        <text text-anchor="middle" dy="0.6em">40</text>
      </g>
    </g>
    <g transform="translate(79,80.06)">
      <g class="primitive">
        <text text-anchor="middle" dy="0.6em">50</text>
      </g>
    </g>
    <g transform="translate(90.44,80.06)">
      <g class="primitive">
        <text text-anchor="middle" dy="0.6em">60</text>
      </g>
    </g>
    <g transform="translate(113.33,80.06)">
      <g class="primitive">
        <text text-anchor="middle" dy="0.6em">80</text>
      </g>
    </g>
    <g transform="translate(136.22,80.06)">
      <g class="primitive">
        <text text-anchor="middle" dy="0.6em">100</text>
      </g>
    </g>
  </g>
  <g class="guide colorkey" id="img-6b28728d-4">
    <g fill="#4C404B" font-size="4.23" font-family="'PT Sans','Helvetica Neue','Helvetica',sans-serif" id="img-6b28728d-5">
      <g transform="translate(142.69,39.56)" id="img-6b28728d-6" class="color_1">
        <g class="primitive">
          <text dy="0.35em">1</text>
        </g>
      </g>
      <g transform="translate(142.69,44.5)" id="img-6b28728d-7" class="color_3">
        <g class="primitive">
          <text dy="0.35em">3</text>
        </g>
      </g>
      <g transform="translate(142.69,49.44)" id="img-6b28728d-8" class="color_5">
        <g class="primitive">
          <text dy="0.35em">5</text>
        </g>
      </g>
    </g>
    <g fill-opacity="1" id="img-6b28728d-9">
      <g transform="translate(140.46,39.56)" id="img-6b28728d-10" fill="#00BFFF" class="color_1" stroke="#FFFFFF">
        <path d="M-1.23,-1.23 L 1.23 -1.23 1.23 1.23 -1.23 1.23 z" class="primitive"/>
      </g>
      <g transform="translate(140.46,44.5)" id="img-6b28728d-11" fill="#D4CA3A" class="color_3" stroke="#FFFFFF">
        <path d="M-1.23,-1.23 L 1.23 -1.23 1.23 1.23 -1.23 1.23 z" class="primitive"/>
      </g>
      <g transform="translate(140.46,49.44)" id="img-6b28728d-12" fill="#FF6DAE" class="color_5" stroke="#FFFFFF">
        <path d="M-1.23,-1.23 L 1.23 -1.23 1.23 1.23 -1.23 1.23 z" class="primitive"/>
      </g>
    </g>
    <g fill="#362A35" font-size="4.94" font-family="'PT Sans','Helvetica Neue','Helvetica',sans-serif" stroke="#000000" stroke-opacity="0.000" id="img-6b28728d-13">
      <g transform="translate(139.22,34.92)" id="img-6b28728d-14">
        <g class="primitive">
          <text dy="-0em">H</text>
        </g>
      </g>
    </g>
  </g>
  <g clip-path="url(#img-6b28728d-15)">
    <g id="img-6b28728d-16">
      <g pointer-events="visible" fill="#000000" fill-opacity="0.000" stroke="#000000" stroke-opacity="0.000" class="guide background" id="img-6b28728d-17">
        <g transform="translate(79,42.03)" id="img-6b28728d-18">
          <path d="M-59.22,-37.03 L 59.22 -37.03 59.22 37.03 -59.22 37.03 z" class="primitive"/>
        </g>
      </g>
      <g class="guide ygridlines xfixed" stroke-dasharray="0.5,0.5" stroke-width="0.2" stroke="#D0D0E0" id="img-6b28728d-19">
        <g transform="translate(79,77.06)" id="img-6b28728d-20">
          <path fill="none" d="M-59.22,0 L 59.22 0" class="primitive"/>
        </g>
        <g transform="translate(79,53.71)" id="img-6b28728d-21">
          <path fill="none" d="M-59.22,0 L 59.22 0" class="primitive"/>
        </g>
        <g transform="translate(79,30.35)" id="img-6b28728d-22">
          <path fill="none" d="M-59.22,0 L 59.22 0" class="primitive"/>
        </g>
        <g transform="translate(79,7)" id="img-6b28728d-23">
          <path fill="none" d="M-59.22,0 L 59.22 0" class="primitive"/>
        </g>
      </g>
      <g class="guide xgridlines yfixed" stroke-dasharray="0.5,0.5" stroke-width="0.2" stroke="#D0D0E0" id="img-6b28728d-24">
        <g transform="translate(21.78,42.03)" id="img-6b28728d-25">
          <path fill="none" d="M0,-37.03 L 0 37.03" class="primitive"/>
        </g>
        <g transform="translate(44.67,42.03)" id="img-6b28728d-26">
          <path fill="none" d="M0,-37.03 L 0 37.03" class="primitive"/>
        </g>
        <g transform="translate(67.56,42.03)" id="img-6b28728d-27">
          <path fill="none" d="M0,-37.03 L 0 37.03" class="primitive"/>
        </g>
        <g transform="translate(79,42.03)" id="img-6b28728d-28">
          <path fill="none" d="M0,-37.03 L 0 37.03" class="primitive"/>
        </g>
        <g transform="translate(90.44,42.03)" id="img-6b28728d-29">
          <path fill="none" d="M0,-37.03 L 0 37.03" class="primitive"/>
        </g>
        <g transform="translate(113.33,42.03)" id="img-6b28728d-30">
          <path fill="none" d="M0,-37.03 L 0 37.03" class="primitive"/>
        </g>
        <g transform="translate(136.22,42.03)" id="img-6b28728d-31">
          <path fill="none" d="M0,-37.03 L 0 37.03" class="primitive"/>
        </g>
      </g>
      <g class="plotpanel" id="img-6b28728d-32">
        <metadata>
          <boundingbox value="19.78mm 5.0mm 118.44mm 74.06166666666667mm"/>
          <unitbox value="-1.7476406850751487 15.42819420986274 103.4952813701503 -15.856388419725478"/>
        </metadata>
        <g stroke-width="0.3" fill="#000000" fill-opacity="0.000" class="geometry" id="img-6b28728d-33">
          <g transform="translate(80.17,67.53)" id="img-6b28728d-34" stroke-dasharray="none" class="color_1" stroke="#00BFFF">
            <path fill="none" d="M-56.05,-37.64 L -53.72 -17.1 -51.38 -9.1 -49.05 -3.46 -46.71 -3.7 -44.37 -1.26 -42.04 -2.41 -39.7 -3.26 -37.37 -1.79 -35.03 -3.65 -32.7 -3.63 -30.36 -3.83 -28.03 -4.31 -25.69 -3.16 -23.36 -4.48 -21.02 -6.16 -18.68 -4.99 -16.35 -4.91 -14.01 -5.88 -11.68 -3.63 -9.34 -4.55 -7.01 -4.63 -4.67 -3.61 -2.34 -2.45 -0 -1 2.34 0.06 4.67 -1.84 7.01 1.23 9.34 2.05 11.68 2.27 14.01 2.85 16.35 2.58 18.68 5 21.02 5.54 23.36 6.99 25.69 6.93 28.03 6.3 30.36 7.96 32.7 7.8 35.03 8.43 37.37 8.8 39.7 8.5 42.04 8.42 44.37 9.27 46.71 9.27 49.05 9.53 51.38 9.53 53.72 9.14 56.05 7.98" class="primitive"/>
          </g>
          <g transform="translate(80.17,67.53)" id="img-6b28728d-35" stroke-dasharray="none" class="color_3" stroke="#D4CA3A">
            <path fill="none" d="M-56.05,-44.52 L -53.72 -26.53 -51.38 -16.01 -49.05 -13.36 -46.71 -12.59 -44.37 -9.24 -42.04 -9.56 -39.7 -8.8 -37.37 -6.42 -35.03 -7.46 -32.7 -7 -30.36 -6.26 -28.03 -6.71 -25.69 -5.04 -23.36 -5.72 -21.02 -6.23 -18.68 -4.73 -16.35 -1.43 -14.01 -3.46 -11.68 -2.04 -9.34 -0.65 -7.01 -1.28 -4.67 1.25 -2.34 1.97 -0 2.96 2.34 3.96 4.67 4.48 7.01 4.73 9.34 6.1 11.68 6.8 14.01 7.85 16.35 7.9 18.68 8.48 21.02 8.8 23.36 8.91 25.69 8.88 28.03 9.31 30.36 9.33 32.7 8.83 35.03 9.34 37.37 9.43 39.7 9.43 42.04 9.43 44.37 9.4 46.71 9.53 49.05 9.53 51.38 9.37 53.72 9.53 56.05 9.53" class="primitive"/>
          </g>
          <g transform="translate(80.17,67.53)" id="img-6b28728d-36" stroke-dasharray="none" class="color_5" stroke="#FF6DAE">
            <path fill="none" d="M-56.05,-50.63 L -53.72 -24.84 -51.38 -17.55 -49.05 -15.88 -46.71 -13.15 -44.37 -8.45 -42.04 -10.37 -39.7 -10.18 -37.37 -10.27 -35.03 -10.53 -32.7 -8.32 -30.36 -7.6 -28.03 -6.98 -25.69 -6.51 -23.36 -5.59 -21.02 -3 -18.68 -6 -16.35 -2.84 -14.01 -1.55 -11.68 -0.49 -9.34 0.84 -7.01 1.3 -4.67 3.51 -2.34 4.12 -0 3.12 2.34 6.39 4.67 6.15 7.01 6.38 9.34 6.39 11.68 7.22 14.01 8.04 16.35 8.53 18.68 8.11 21.02 8.81 23.36 9.15 25.69 9.14 28.03 9.53 30.36 9.39 32.7 9.29 35.03 9.53 37.37 9.53 39.7 9.53 42.04 9.53 44.37 9.53 46.71 9.53 49.05 9.53 51.38 9.53 53.72 9.53 56.05 9.53" class="primitive"/>
          </g>
        </g>
      </g>
    </g>
  </g>
  <g class="guide ylabels" font-size="3.53" font-family="'PT Sans Caption','Helvetica Neue','Helvetica',sans-serif" fill="#6C606B" id="img-6b28728d-37">
    <g transform="translate(18.78,77.06)" id="img-6b28728d-38">
      <g class="primitive">
        <text text-anchor="end" dy="0.35em">0</text>
      </g>
    </g>
    <g transform="translate(18.78,53.71)" id="img-6b28728d-39">
      <g class="primitive">
        <text text-anchor="end" dy="0.35em">5</text>
      </g>
    </g>
    <g transform="translate(18.78,30.35)" id="img-6b28728d-40">
      <g class="primitive">
        <text text-anchor="end" dy="0.35em">10</text>
      </g>
    </g>
    <g transform="translate(18.78,7)" id="img-6b28728d-41">
      <g class="primitive">
        <text text-anchor="end" dy="0.35em">15</text>
      </g>
    </g>
  </g>
  <g font-size="4.94" font-family="'PT Sans','Helvetica Neue','Helvetica',sans-serif" fill="#564A55" stroke="#000000" stroke-opacity="0.000" id="img-6b28728d-42">
    <g transform="translate(9.3,40.03)" id="img-6b28728d-43">
      <g class="primitive">
        <text text-anchor="middle" dy="0.35em" transform="rotate(-90,0, 2)">Percentage of varieties (%)</text>
      </g>
    </g>
  </g>
</g>
<defs>
  <clipPath id="img-6b28728d-15">
    <path d="M19.78,5 L 138.22 5 138.22 79.06 19.78 79.06" />
  </clipPath>
</defs>
</svg>
