<?xml version="1.0" encoding="UTF-8"?>
<svg xmlns="http://www.w3.org/2000/svg"
     xmlns:xlink="http://www.w3.org/1999/xlink"
     xmlns:gadfly="http://www.gadflyjl.org/ns"
     version="1.2"
     width="230mm" height="100mm" viewBox="0 0 230 100"
     stroke="none"
     fill="#000000"
     stroke-width="0.3"
     font-size="3.88"
>
<defs>
  <marker id="arrow" markerWidth="15" markerHeight="7" refX="5" refY="3.5" orient="auto" markerUnits="strokeWidth">
    <path d="M0,0 L15,3.5 L0,7 z" stroke="context-stroke" fill="context-stroke"/>
  </marker>
</defs>
<g class="plotroot xscalable yscalable" id="img-de2cc83b-1">
  <g font-size="4.94" font-family="'PT Sans','Helvetica Neue','Helvetica',sans-serif" fill="#564A55" stroke="#000000" stroke-opacity="0.000" id="img-de2cc83b-2">
    <g transform="translate(97.99,87.4)">
      <g class="primitive">
        <text text-anchor="middle" dy="0.6em">Agricultural cycle</text>
      </g>
    </g>
  </g>
  <g class="guide xlabels" font-size="3.53" font-family="'PT Sans Caption','Helvetica Neue','Helvetica',sans-serif" fill="#6C606B" id="img-de2cc83b-3">
    <g transform="translate(21.78,80.06)">
      <g class="primitive">
        <text text-anchor="middle" dy="0.6em">0</text>
      </g>
    </g>
    <g transform="translate(72.59,80.06)">
      <g class="primitive">
        <text text-anchor="middle" dy="0.6em">1×10³</text>
      </g>
    </g>
    <g transform="translate(123.39,80.06)">
      <g class="primitive">
        <text text-anchor="middle" dy="0.6em">2×10³</text>
      </g>
    </g>
    <g transform="translate(174.2,80.06)">
      <g class="primitive">
        <text text-anchor="middle" dy="0.6em">3×10³</text>
      </g>
    </g>
  </g>
  <g class="guide colorkey" id="img-de2cc83b-4">
    <g fill="#4C404B" font-size="4.23" font-family="'PT Sans','Helvetica Neue','Helvetica',sans-serif" id="img-de2cc83b-5">
      <g transform="translate(180.67,42.03)" id="img-de2cc83b-6">
        <g class="primitive">
          <text dy="0.35em">Richness in community</text>
        </g>
      </g>
      <g transform="translate(180.67,46.97)" id="img-de2cc83b-7">
        <g class="primitive">
          <text dy="0.35em">Average richness per HD</text>
        </g>
      </g>
    </g>
    <g fill-opacity="1" id="img-de2cc83b-8">
      <g transform="translate(178.44,42.03)" id="img-de2cc83b-9" fill="#008000" stroke="#FFFFFF">
        <path d="M-1.23,-1.23 L 1.23 -1.23 1.23 1.23 -1.23 1.23 z" class="primitive"/>
      </g>
      <g transform="translate(178.44,46.97)" id="img-de2cc83b-10" fill="#FF0000" stroke="#FFFFFF">
        <path d="M-1.23,-1.23 L 1.23 -1.23 1.23 1.23 -1.23 1.23 z" class="primitive"/>
      </g>
    </g>
    <g fill="#362A35" font-size="4.94" font-family="'PT Sans','Helvetica Neue','Helvetica',sans-serif" stroke="#000000" stroke-opacity="0.000" id="img-de2cc83b-11">
      <g transform="translate(177.2,37.39)" id="img-de2cc83b-12">
        <g class="primitive">
          <text dy="-0em"></text>
        </g>
      </g>
    </g>
  </g>
  <g clip-path="url(#img-de2cc83b-13)">
    <g id="img-de2cc83b-14">
      <g pointer-events="visible" fill="#000000" fill-opacity="0.000" stroke="#000000" stroke-opacity="0.000" class="guide background" id="img-de2cc83b-15">
        <g transform="translate(97.99,42.03)" id="img-de2cc83b-16">
          <path d="M-78.21,-37.03 L 78.21 -37.03 78.21 37.03 -78.21 37.03 z" class="primitive"/>
        </g>
      </g>
      <g class="guide ygridlines xfixed" stroke-dasharray="0.5,0.5" stroke-width="0.2" stroke="#D0D0E0" id="img-de2cc83b-17">
        <g transform="translate(97.99,77.06)" id="img-de2cc83b-18">
          <path fill="none" d="M-78.21,0 L 78.21 0" class="primitive"/>
        </g>
        <g transform="translate(97.99,63.05)" id="img-de2cc83b-19">
          <path fill="none" d="M-78.21,0 L 78.21 0" class="primitive"/>
        </g>
        <g transform="translate(97.99,49.04)" id="img-de2cc83b-20">
          <path fill="none" d="M-78.21,0 L 78.21 0" class="primitive"/>
        </g>
        <g transform="translate(97.99,35.02)" id="img-de2cc83b-21">
          <path fill="none" d="M-78.21,0 L 78.21 0" class="primitive"/>
        </g>
        <g transform="translate(97.99,21.01)" id="img-de2cc83b-22">
          <path fill="none" d="M-78.21,0 L 78.21 0" class="primitive"/>
        </g>
        <g transform="translate(97.99,7)" id="img-de2cc83b-23">
          <path fill="none" d="M-78.21,0 L 78.21 0" class="primitive"/>
        </g>
      </g>
      <g class="guide xgridlines yfixed" stroke-dasharray="0.5,0.5" stroke-width="0.2" stroke="#D0D0E0" id="img-de2cc83b-24">
        <g transform="translate(21.78,42.03)" id="img-de2cc83b-25">
          <path fill="none" d="M0,-37.03 L 0 37.03" class="primitive"/>
        </g>
        <g transform="translate(72.59,42.03)" id="img-de2cc83b-26">
          <path fill="none" d="M0,-37.03 L 0 37.03" class="primitive"/>
        </g>
        <g transform="translate(123.39,42.03)" id="img-de2cc83b-27">
          <path fill="none" d="M0,-37.03 L 0 37.03" class="primitive"/>
        </g>
        <g transform="translate(174.2,42.03)" id="img-de2cc83b-28">
          <path fill="none" d="M0,-37.03 L 0 37.03" class="primitive"/>
        </g>
      </g>
      <g class="plotpanel" id="img-de2cc83b-29">
        <metadata>
          <boundingbox value="19.78mm 5.0mm 156.42000000000002mm 74.06166666666667mm"/>
          <unitbox value="-39.36491274111008 51.4273140328758 3078.72982548222 -52.8546280657516"/>
        </metadata>
        <g stroke-width="0.3" fill="#000000" fill-opacity="0.000" class="geometry" id="img-de2cc83b-30">
          <g class="color_RGB{N0f8}(1.0,0.0,0.0)" stroke-dasharray="none" stroke="#FF0000" id="img-de2cc83b-31">
            <g transform="translate(97.23,68.27)" id="img-de2cc83b-32">
              <path fill="none" d="M-75.45,3.06 L -73.92 2.24 -72.4 1.32 -70.88 0.88 -69.35 0.65 -67.83 0.48 -66.3 0.4 -64.78 0.35 -63.25 0.27 -61.73 0.22 -60.21 0.25 -58.68 0.21 -57.16 0.23 -55.63 0.22 -54.11 0.18 -52.58 0.17 -51.06 0.16 -49.54 0.14 -48.01 0.12 -46.49 0.12 -44.96 0.12 -43.44 0.06 -41.92 0.03 -40.39 0.08 -38.87 -0.01 -37.34 0.09 -35.82 0.01 -34.29 0.03 -32.77 0.03 -31.25 0 -29.72 0.02 -28.2 0.02 -26.67 -0.01 -25.15 -0.05 -23.63 -0.05 -22.1 -0.02 -20.58 -0.02 -19.05 -0.05 -17.53 -0.07 -16 -0.1 -14.48 -0.07 -12.96 -0.08 -11.43 -0.04 -9.91 -0.06 -8.38 -0.12 -6.86 -0.11 -5.33 -0.08 -3.81 -0.15 -2.29 -0.15 -0.76 -0.13 0.76 -0.14 2.29 -0.15 3.81 -0.11 5.33 -0.11 6.86 -0.11 8.38 -0.15 9.91 -0.16 11.43 -0.12 12.96 -0.17 14.48 -0.15 16 -0.12 17.53 -0.19 19.05 -0.14 20.58 -0.18 22.1 -0.18 23.63 -0.16 25.15 -0.13 26.67 -0.19 28.2 -0.17 29.72 -0.19 31.25 -0.21 32.77 -0.23 34.29 -0.22 35.82 -0.21 37.34 -0.22 38.87 -0.21 40.39 -0.22 41.92 -0.25 43.44 -0.25 44.96 -0.21 46.49 -0.25 48.01 -0.27 49.54 -0.27 51.06 -0.27 52.58 -0.24 54.11 -0.28 55.63 -0.26 57.16 -0.27 58.68 -0.3 60.21 -0.28 61.73 -0.28 63.25 -0.26 64.78 -0.24 66.3 -0.26 67.83 -0.26 69.35 -0.29 70.88 -0.32 72.4 -0.29 73.92 -0.34 75.45 -0.3" class="primitive"/>
            </g>
          </g>
        </g>
        <g stroke-width="0.3" fill="#000000" fill-opacity="0.000" class="geometry" id="img-de2cc83b-33">
          <g class="color_RGB{N0f8}(0.0,0.502,0.0)" stroke-dasharray="none" stroke="#008000" id="img-de2cc83b-34">
            <g transform="translate(97.23,38.87)" id="img-de2cc83b-35">
              <path fill="none" d="M-75.45,24.22 L -73.92 21.59 -72.4 -8.47 -70.88 -18.69 -69.35 -21.51 -67.83 -22.42 -66.3 -22.11 -64.78 -20.24 -63.25 -18.44 -61.73 -16.89 -60.21 -15.58 -58.68 -14.43 -57.16 -12.95 -55.63 -11.61 -54.11 -10.84 -52.58 -9.42 -51.06 -8.75 -49.54 -7.45 -48.01 -6.97 -46.49 -6.2 -44.96 -5.32 -43.44 -4.72 -41.92 -4.71 -40.39 -4.07 -38.87 -3.37 -37.34 -3.02 -35.82 -2.74 -34.29 -1.96 -32.77 -1.36 -31.25 -0.84 -29.72 -0.32 -28.2 -0.07 -26.67 -0.2 -25.15 -0.19 -23.63 0.18 -22.1 0.5 -20.58 0.53 -19.05 0.6 -17.53 1.06 -16 1.08 -14.48 1.14 -12.96 1.61 -11.43 1.39 -9.91 1.85 -8.38 2.21 -6.86 2.18 -5.33 2.25 -3.81 2.52 -2.29 2.91 -0.76 2.84 0.76 2.69 2.29 2.82 3.81 3.05 5.33 3.11 6.86 3.76 8.38 3.56 9.91 3.19 11.43 3.15 12.96 3.34 14.48 3.61 16 3.83 17.53 3.61 19.05 3.83 20.58 3.94 22.1 3.87 23.63 3.59 25.15 3.9 26.67 4.28 28.2 3.93 29.72 4.36 31.25 4.4 32.77 4.68 34.29 4.16 35.82 4.28 37.34 4.43 38.87 4.55 40.39 4.32 41.92 4.48 43.44 4.67 44.96 4.7 46.49 4.73 48.01 4.52 49.54 4.83 51.06 4.75 52.58 4.92 54.11 4.75 55.63 4.72 57.16 4.69 58.68 4.59 60.21 4.76 61.73 4.91 63.25 5.57 64.78 5.01 66.3 5.29 67.83 5.21 69.35 5.29 70.88 5.29 72.4 5.12 73.92 5.2 75.45 4.93" class="primitive"/>
            </g>
          </g>
        </g>
      </g>
    </g>
  </g>
  <g class="guide ylabels" font-size="3.53" font-family="'PT Sans Caption','Helvetica Neue','Helvetica',sans-serif" fill="#6C606B" id="img-de2cc83b-36">
    <g transform="translate(18.78,77.06)" id="img-de2cc83b-37">
      <g class="primitive">
        <text text-anchor="end" dy="0.35em">0</text>
      </g>
    </g>
    <g transform="translate(18.78,63.05)" id="img-de2cc83b-38">
      <g class="primitive">
        <text text-anchor="end" dy="0.35em">10</text>
      </g>
    </g>
    <g transform="translate(18.78,49.04)" id="img-de2cc83b-39">
      <g class="primitive">
        <text text-anchor="end" dy="0.35em">20</text>
      </g>
    </g>
    <g transform="translate(18.78,35.02)" id="img-de2cc83b-40">
      <g class="primitive">
        <text text-anchor="end" dy="0.35em">30</text>
      </g>
    </g>
    <g transform="translate(18.78,21.01)" id="img-de2cc83b-41">
      <g class="primitive">
        <text text-anchor="end" dy="0.35em">40</text>
      </g>
    </g>
    <g transform="translate(18.78,7)" id="img-de2cc83b-42">
      <g class="primitive">
        <text text-anchor="end" dy="0.35em">50</text>
      </g>
    </g>
  </g>
  <g font-size="4.94" font-family="'PT Sans','Helvetica Neue','Helvetica',sans-serif" fill="#564A55" stroke="#000000" stroke-opacity="0.000" id="img-de2cc83b-43">
    <g transform="translate(9.3,40.03)" id="img-de2cc83b-44">
      <g class="primitive">
        <text text-anchor="middle" dy="0.35em" transform="rotate(-90,0, 2)">Varietal richness</text>
      </g>
    </g>
  </g>
</g>
<defs>
  <clipPath id="img-de2cc83b-13">
    <path d="M19.78,5 L 176.2 5 176.2 79.06 19.78 79.06" />
  </clipPath>
</defs>
</svg>
