<?xml version="1.0" encoding="UTF-8"?>
<svg xmlns="http://www.w3.org/2000/svg"
     xmlns:xlink="http://www.w3.org/1999/xlink"
     xmlns:gadfly="http://www.gadflyjl.org/ns"
     version="1.2"
     width="150mm" height="100mm" viewBox="0 0 150 100"
     stroke="none"
     fill="#000000"
     stroke-width="0.3"
     font-size="3.88"
>
<defs>
  <marker id="arrow" markerWidth="15" markerHeight="7" refX="5" refY="3.5" orient="auto" markerUnits="strokeWidth">
    <path d="M0,0 L15,3.5 L0,7 z" stroke="context-stroke" fill="context-stroke"/>
  </marker>
</defs>
<g class="plotroot xscalable yscalable" id="img-2fe889f9-1">
  <g font-size="4.94" font-family="'PT Sans','Helvetica Neue','Helvetica',sans-serif" fill="#564A55" stroke="#000000" stroke-opacity="0.000" id="img-2fe889f9-2">
    <g transform="translate(82.39,87.4)">
      <g class="primitive">
        <text text-anchor="middle" dy="0.6em">Occupied area in community (%)</text>
      </g>
    </g>
  </g>
  <g class="guide xlabels" font-size="3.53" font-family="'PT Sans Caption','Helvetica Neue','Helvetica',sans-serif" fill="#6C606B" id="img-2fe889f9-3">
    <g transform="translate(38.51,80.06)">
      <g class="primitive">
        <text text-anchor="middle" dy="0.6em">0.1</text>
      </g>
    </g>
    <g transform="translate(73.34,80.06)">
      <g class="primitive">
        <text text-anchor="middle" dy="0.6em">1.0</text>
      </g>
    </g>
    <g transform="translate(97.72,80.06)">
      <g class="primitive">
        <text text-anchor="middle" dy="0.6em">5.0</text>
      </g>
    </g>
    <g transform="translate(108.17,80.06)">
      <g class="primitive">
        <text text-anchor="middle" dy="0.6em">10.0</text>
      </g>
    </g>
    <g transform="translate(132.52,80.06)">
      <g class="primitive">
        <text text-anchor="middle" dy="0.6em">50.0</text>
      </g>
    </g>
    <g transform="translate(143,80.06)">
      <g class="primitive">
        <text text-anchor="middle" dy="0.6em">100.0</text>
      </g>
    </g>
  </g>
  <g clip-path="url(#img-2fe889f9-4)">
    <g id="img-2fe889f9-5">
      <g pointer-events="visible" fill="#000000" fill-opacity="0.000" stroke="#000000" stroke-opacity="0.000" class="guide background" id="img-2fe889f9-6">
        <g transform="translate(82.39,42.03)" id="img-2fe889f9-7">
          <path d="M-62.61,-37.03 L 62.61 -37.03 62.61 37.03 -62.61 37.03 z" class="primitive"/>
        </g>
      </g>
      <g class="guide ygridlines xfixed" stroke-dasharray="0.5,0.5" stroke-width="0.2" stroke="#D0D0E0" id="img-2fe889f9-8">
        <g transform="translate(82.39,77.06)" id="img-2fe889f9-9">
          <path fill="none" d="M-62.61,0 L 62.61 0" class="primitive"/>
        </g>
        <g transform="translate(82.39,63.05)" id="img-2fe889f9-10">
          <path fill="none" d="M-62.61,0 L 62.61 0" class="primitive"/>
        </g>
        <g transform="translate(82.39,49.04)" id="img-2fe889f9-11">
          <path fill="none" d="M-62.61,0 L 62.61 0" class="primitive"/>
        </g>
        <g transform="translate(82.39,35.02)" id="img-2fe889f9-12">
          <path fill="none" d="M-62.61,0 L 62.61 0" class="primitive"/>
        </g>
        <g transform="translate(82.39,21.01)" id="img-2fe889f9-13">
          <path fill="none" d="M-62.61,0 L 62.61 0" class="primitive"/>
        </g>
        <g transform="translate(82.39,7)" id="img-2fe889f9-14">
          <path fill="none" d="M-62.61,0 L 62.61 0" class="primitive"/>
        </g>
      </g>
      <g class="guide xgridlines yfixed" stroke-dasharray="0.5,0.5" stroke-width="0.2" stroke="#D0D0E0" id="img-2fe889f9-15">
        <g transform="translate(38.51,42.03)" id="img-2fe889f9-16">
          <path fill="none" d="M0,-37.03 L 0 37.03" class="primitive"/>
        </g>
        <g transform="translate(73.34,42.03)" id="img-2fe889f9-17">
          <path fill="none" d="M0,-37.03 L 0 37.03" class="primitive"/>
        </g>
        <g transform="translate(97.72,42.03)" id="img-2fe889f9-18">
          <path fill="none" d="M0,-37.03 L 0 37.03" class="primitive"/>
        </g>
        <g transform="translate(108.17,42.03)" id="img-2fe889f9-19">
          <path fill="none" d="M0,-37.03 L 0 37.03" class="primitive"/>
        </g>
        <g transform="translate(132.52,42.03)" id="img-2fe889f9-20">
          <path fill="none" d="M0,-37.03 L 0 37.03" class="primitive"/>
        </g>
        <g transform="translate(143,42.03)" id="img-2fe889f9-21">
          <path fill="none" d="M0,-37.03 L 0 37.03" class="primitive"/>
        </g>
      </g>
      <g class="plotpanel" id="img-2fe889f9-22">
        <metadata>
          <boundingbox value="19.78mm 5.0mm 125.22mm 74.06166666666667mm"/>
          <unitbox value="-1.5378143498016565 25.7136570164379 3.595237079063167 -26.4273140328758"/>
        </metadata>
        <g shape-rendering="crispEdges" stroke-width="0.3" id="img-2fe889f9-23">
          <g stroke="#000000" stroke-opacity="0.000" class="geometry" fill="#00BFFF" id="img-2fe889f9-24">
            <g transform="translate(25.26,66.58)" id="img-2fe889f9-25">
              <path d="M-3.51,-10.49 L 3.51 -10.49 3.51 10.49 -3.51 10.49 z" class="primitive"/>
            </g>
            <g transform="translate(32.23,73.97)" id="img-2fe889f9-26">
              <path d="M-3.51,-3.09 L 3.51 -3.09 3.51 3.09 -3.51 3.09 z" class="primitive"/>
            </g>
            <g transform="translate(39.19,75.57)" id="img-2fe889f9-27">
              <path d="M-3.51,-1.49 L 3.51 -1.49 3.51 1.49 -3.51 1.49 z" class="primitive"/>
            </g>
            <g transform="translate(46.16,74.35)" id="img-2fe889f9-28">
              <path d="M-3.51,-2.72 L 3.51 -2.72 3.51 2.72 -3.51 2.72 z" class="primitive"/>
            </g>
            <g transform="translate(53.13,74.32)" id="img-2fe889f9-29">
              <path d="M-3.51,-2.74 L 3.51 -2.74 3.51 2.74 -3.51 2.74 z" class="primitive"/>
            </g>
            <g transform="translate(60.09,73.34)" id="img-2fe889f9-30">
              <path d="M-3.51,-3.72 L 3.51 -3.72 3.51 3.72 -3.51 3.72 z" class="primitive"/>
            </g>
            <g transform="translate(67.06,69.84)" id="img-2fe889f9-31">
              <path d="M-3.51,-7.22 L 3.51 -7.22 3.51 7.22 -3.51 7.22 z" class="primitive"/>
            </g>
            <g transform="translate(74.02,69.32)" id="img-2fe889f9-32">
              <path d="M-3.51,-7.74 L 3.51 -7.74 3.51 7.74 -3.51 7.74 z" class="primitive"/>
            </g>
            <g transform="translate(80.99,62.96)" id="img-2fe889f9-33">
              <path d="M-3.51,-14.1 L 3.51 -14.1 3.51 14.1 -3.51 14.1 z" class="primitive"/>
            </g>
            <g transform="translate(87.96,53.9)" id="img-2fe889f9-34">
              <path d="M-3.51,-23.16 L 3.51 -23.16 3.51 23.16 -3.51 23.16 z" class="primitive"/>
            </g>
            <g transform="translate(94.92,45.04)" id="img-2fe889f9-35">
              <path d="M-3.51,-32.02 L 3.51 -32.02 3.51 32.02 -3.51 32.02 z" class="primitive"/>
            </g>
            <g transform="translate(101.89,52.03)" id="img-2fe889f9-36">
              <path d="M-3.51,-25.03 L 3.51 -25.03 3.51 25.03 -3.51 25.03 z" class="primitive"/>
            </g>
            <g transform="translate(108.85,71.92)" id="img-2fe889f9-37">
              <path d="M-3.51,-5.14 L 3.51 -5.14 3.51 5.14 -3.51 5.14 z" class="primitive"/>
            </g>
            <g transform="translate(115.82,75.72)" id="img-2fe889f9-38">
              <path d="M-3.51,-1.34 L 3.51 -1.34 3.51 1.34 -3.51 1.34 z" class="primitive"/>
            </g>
            <g transform="translate(122.79,76.94)" id="img-2fe889f9-39">
              <path d="M-3.51,-0.12 L 3.51 -0.12 3.51 0.12 -3.51 0.12 z" class="primitive"/>
            </g>
            <g transform="translate(129.75,77.07)" id="img-2fe889f9-40">
              <path d="M-3.51,-0 L 3.51 -0 3.51 0 -3.51 0 z" class="primitive"/>
            </g>
            <g transform="translate(136.72,77.07)" id="img-2fe889f9-41">
              <path d="M-3.51,-0 L 3.51 -0 3.51 0 -3.51 0 z" class="primitive"/>
            </g>
          </g>
        </g>
      </g>
    </g>
  </g>
  <g class="guide ylabels" font-size="3.53" font-family="'PT Sans Caption','Helvetica Neue','Helvetica',sans-serif" fill="#6C606B" id="img-2fe889f9-42">
    <g transform="translate(18.78,77.06)" id="img-2fe889f9-43">
      <g class="primitive">
        <text text-anchor="end" dy="0.35em">0</text>
      </g>
    </g>
    <g transform="translate(18.78,63.05)" id="img-2fe889f9-44">
      <g class="primitive">
        <text text-anchor="end" dy="0.35em">5</text>
      </g>
    </g>
    <g transform="translate(18.78,49.04)" id="img-2fe889f9-45">
      <g class="primitive">
        <text text-anchor="end" dy="0.35em">10</text>
      </g>
    </g>
    <g transform="translate(18.78,35.02)" id="img-2fe889f9-46">
      <g class="primitive">
        <text text-anchor="end" dy="0.35em">15</text>
      </g>
    </g>
    <g transform="translate(18.78,21.01)" id="img-2fe889f9-47">
      <g class="primitive">
        <text text-anchor="end" dy="0.35em">20</text>
      </g>
    </g>
    <g transform="translate(18.78,7)" id="img-2fe889f9-48">
      <g class="primitive">
        <text text-anchor="end" dy="0.35em">25</text>
      </g>
    </g>
  </g>
  <g font-size="4.94" font-family="'PT Sans','Helvetica Neue','Helvetica',sans-serif" fill="#564A55" stroke="#000000" stroke-opacity="0.000" id="img-2fe889f9-49">
    <g transform="translate(9.3,40.03)" id="img-2fe889f9-50">
      <g class="primitive">
        <text text-anchor="middle" dy="0.35em" transform="rotate(-90,0, 2)">Percentage of varieties (%)</text>
      </g>
    </g>
  </g>
</g>
<defs>
  <clipPath id="img-2fe889f9-4">
    <path d="M19.78,5 L 145 5 145 79.06 19.78 79.06" />
  </clipPath>
</defs>
</svg>
