<?xml version="1.0" encoding="UTF-8"?>
<svg xmlns="http://www.w3.org/2000/svg"
     xmlns:xlink="http://www.w3.org/1999/xlink"
     xmlns:gadfly="http://www.gadflyjl.org/ns"
     version="1.2"
     width="150mm" height="100mm" viewBox="0 0 150 100"
     stroke="none"
     fill="#000000"
     stroke-width="0.3"
     font-size="3.88"
>
<defs>
  <marker id="arrow" markerWidth="15" markerHeight="7" refX="5" refY="3.5" orient="auto" markerUnits="strokeWidth">
    <path d="M0,0 L15,3.5 L0,7 z" stroke="context-stroke" fill="context-stroke"/>
  </marker>
</defs>
<g class="plotroot xscalable yscalable" id="img-3f44cba6-1">
  <g font-size="4.94" font-family="'PT Sans','Helvetica Neue','Helvetica',sans-serif" fill="#564A55" stroke="#000000" stroke-opacity="0.000" id="img-3f44cba6-2">
    <g transform="translate(82.39,87.4)">
      <g class="primitive">
        <text text-anchor="middle" dy="0.6em">Varietal richness per HD</text>
      </g>
    </g>
  </g>
  <g class="guide xlabels" font-size="3.53" font-family="'PT Sans Caption','Helvetica Neue','Helvetica',sans-serif" fill="#6C606B" id="img-3f44cba6-3">
    <g transform="translate(21.78,80.06)">
      <g class="primitive">
        <text text-anchor="middle" dy="0.6em">0</text>
      </g>
    </g>
    <g transform="translate(62.19,80.06)">
      <g class="primitive">
        <text text-anchor="middle" dy="0.6em">5</text>
      </g>
    </g>
    <g transform="translate(102.59,80.06)">
      <g class="primitive">
        <text text-anchor="middle" dy="0.6em">10</text>
      </g>
    </g>
    <g transform="translate(143,80.06)">
      <g class="primitive">
        <text text-anchor="middle" dy="0.6em">15</text>
      </g>
    </g>
  </g>
  <g clip-path="url(#img-3f44cba6-4)">
    <g id="img-3f44cba6-5">
      <g pointer-events="visible" fill="#000000" fill-opacity="0.000" stroke="#000000" stroke-opacity="0.000" class="guide background" id="img-3f44cba6-6">
        <g transform="translate(82.39,42.03)" id="img-3f44cba6-7">
          <path d="M-62.61,-37.03 L 62.61 -37.03 62.61 37.03 -62.61 37.03 z" class="primitive"/>
        </g>
      </g>
      <g class="guide ygridlines xfixed" stroke-dasharray="0.5,0.5" stroke-width="0.2" stroke="#D0D0E0" id="img-3f44cba6-8">
        <g transform="translate(82.39,77.06)" id="img-3f44cba6-9">
          <path fill="none" d="M-62.61,0 L 62.61 0" class="primitive"/>
        </g>
        <g transform="translate(82.39,59.55)" id="img-3f44cba6-10">
          <path fill="none" d="M-62.61,0 L 62.61 0" class="primitive"/>
        </g>
        <g transform="translate(82.39,42.03)" id="img-3f44cba6-11">
          <path fill="none" d="M-62.61,0 L 62.61 0" class="primitive"/>
        </g>
        <g transform="translate(82.39,24.52)" id="img-3f44cba6-12">
          <path fill="none" d="M-62.61,0 L 62.61 0" class="primitive"/>
        </g>
        <g transform="translate(82.39,7)" id="img-3f44cba6-13">
          <path fill="none" d="M-62.61,0 L 62.61 0" class="primitive"/>
        </g>
      </g>
      <g class="guide xgridlines yfixed" stroke-dasharray="0.5,0.5" stroke-width="0.2" stroke="#D0D0E0" id="img-3f44cba6-14">
        <g transform="translate(21.78,42.03)" id="img-3f44cba6-15">
          <path fill="none" d="M0,-37.03 L 0 37.03" class="primitive"/>
        </g>
        <g transform="translate(62.19,42.03)" id="img-3f44cba6-16">
          <path fill="none" d="M0,-37.03 L 0 37.03" class="primitive"/>
        </g>
        <g transform="translate(102.59,42.03)" id="img-3f44cba6-17">
          <path fill="none" d="M0,-37.03 L 0 37.03" class="primitive"/>
        </g>
        <g transform="translate(143,42.03)" id="img-3f44cba6-18">
          <path fill="none" d="M0,-37.03 L 0 37.03" class="primitive"/>
        </g>
      </g>
      <g class="plotpanel" id="img-3f44cba6-19">
        <metadata>
          <boundingbox value="19.78mm 5.0mm 125.22mm 74.06166666666667mm"/>
          <unitbox value="-0.24748391354561952 20.57092561315032 15.494967827091239 -21.141851226300638"/>
        </metadata>
        <g shape-rendering="crispEdges" stroke-width="0.3" id="img-3f44cba6-20">
          <g stroke="#000000" stroke-opacity="0.000" class="geometry" fill="#00BFFF" id="img-3f44cba6-21">
            <g transform="translate(21.78,77.07)" id="img-3f44cba6-22">
              <path d="M-4.07,-0 L 4.07 -0 4.07 0 -4.07 0 z" class="primitive"/>
            </g>
            <g transform="translate(29.86,76.95)" id="img-3f44cba6-23">
              <path d="M-4.07,-0.11 L 4.07 -0.11 4.07 0.11 -4.07 0.11 z" class="primitive"/>
            </g>
            <g transform="translate(37.94,75.27)" id="img-3f44cba6-24">
              <path d="M-4.07,-1.79 L 4.07 -1.79 4.07 1.79 -4.07 1.79 z" class="primitive"/>
            </g>
            <g transform="translate(46.02,69.2)" id="img-3f44cba6-25">
              <path d="M-4.07,-7.86 L 4.07 -7.86 4.07 7.86 -4.07 7.86 z" class="primitive"/>
            </g>
            <g transform="translate(54.11,59.65)" id="img-3f44cba6-26">
              <path d="M-4.07,-17.41 L 4.07 -17.41 4.07 17.41 -4.07 17.41 z" class="primitive"/>
            </g>
            <g transform="translate(62.19,49.04)" id="img-3f44cba6-27">
              <path d="M-4.07,-28.02 L 4.07 -28.02 4.07 28.02 -4.07 28.02 z" class="primitive"/>
            </g>
            <g transform="translate(70.27,42.53)" id="img-3f44cba6-28">
              <path d="M-4.07,-34.53 L 4.07 -34.53 4.07 34.53 -4.07 34.53 z" class="primitive"/>
            </g>
            <g transform="translate(78.35,43.42)" id="img-3f44cba6-29">
              <path d="M-4.07,-33.64 L 4.07 -33.64 4.07 33.64 -4.07 33.64 z" class="primitive"/>
            </g>
            <g transform="translate(86.43,51.68)" id="img-3f44cba6-30">
              <path d="M-4.07,-25.38 L 4.07 -25.38 4.07 25.38 -4.07 25.38 z" class="primitive"/>
            </g>
            <g transform="translate(94.51,61.66)" id="img-3f44cba6-31">
              <path d="M-4.07,-15.41 L 4.07 -15.41 4.07 15.41 -4.07 15.41 z" class="primitive"/>
            </g>
            <g transform="translate(102.59,70.04)" id="img-3f44cba6-32">
              <path d="M-4.07,-7.02 L 4.07 -7.02 4.07 7.02 -4.07 7.02 z" class="primitive"/>
            </g>
            <g transform="translate(110.67,74.33)" id="img-3f44cba6-33">
              <path d="M-4.07,-2.73 L 4.07 -2.73 4.07 2.73 -4.07 2.73 z" class="primitive"/>
            </g>
            <g transform="translate(118.76,76.2)" id="img-3f44cba6-34">
              <path d="M-4.07,-0.86 L 4.07 -0.86 4.07 0.86 -4.07 0.86 z" class="primitive"/>
            </g>
            <g transform="translate(126.84,76.74)" id="img-3f44cba6-35">
              <path d="M-4.07,-0.32 L 4.07 -0.32 4.07 0.32 -4.07 0.32 z" class="primitive"/>
            </g>
            <g transform="translate(134.92,77.03)" id="img-3f44cba6-36">
              <path d="M-4.07,-0.04 L 4.07 -0.04 4.07 0.04 -4.07 0.04 z" class="primitive"/>
            </g>
            <g transform="translate(143,77.03)" id="img-3f44cba6-37">
              <path d="M-4.07,-0.04 L 4.07 -0.04 4.07 0.04 -4.07 0.04 z" class="primitive"/>
            </g>
            <g transform="translate(151.08,77.07)" id="img-3f44cba6-38">
              <path d="M-4.07,-0 L 4.07 -0 4.07 0 -4.07 0 z" class="primitive"/>
            </g>
            <g transform="translate(159.16,77.07)" id="img-3f44cba6-39">
              <path d="M-4.07,-0 L 4.07 -0 4.07 0 -4.07 0 z" class="primitive"/>
            </g>
            <g transform="translate(167.24,77.07)" id="img-3f44cba6-40">
              <path d="M-4.07,-0 L 4.07 -0 4.07 0 -4.07 0 z" class="primitive"/>
            </g>
            <g transform="translate(175.33,77.07)" id="img-3f44cba6-41">
              <path d="M-4.07,-0 L 4.07 -0 4.07 0 -4.07 0 z" class="primitive"/>
            </g>
            <g transform="translate(183.41,77.07)" id="img-3f44cba6-42">
              <path d="M-4.07,-0 L 4.07 -0 4.07 0 -4.07 0 z" class="primitive"/>
            </g>
            <g transform="translate(191.49,77.07)" id="img-3f44cba6-43">
              <path d="M-4.07,-0 L 4.07 -0 4.07 0 -4.07 0 z" class="primitive"/>
            </g>
            <g transform="translate(199.57,77.07)" id="img-3f44cba6-44">
              <path d="M-4.07,-0 L 4.07 -0 4.07 0 -4.07 0 z" class="primitive"/>
            </g>
            <g transform="translate(207.65,77.07)" id="img-3f44cba6-45">
              <path d="M-4.07,-0 L 4.07 -0 4.07 0 -4.07 0 z" class="primitive"/>
            </g>
            <g transform="translate(215.73,77.07)" id="img-3f44cba6-46">
              <path d="M-4.07,-0 L 4.07 -0 4.07 0 -4.07 0 z" class="primitive"/>
            </g>
            <g transform="translate(223.81,77.07)" id="img-3f44cba6-47">
              <path d="M-4.07,-0 L 4.07 -0 4.07 0 -4.07 0 z" class="primitive"/>
            </g>
            <g transform="translate(231.89,77.07)" id="img-3f44cba6-48">
              <path d="M-4.07,-0 L 4.07 -0 4.07 0 -4.07 0 z" class="primitive"/>
            </g>
            <g transform="translate(239.98,77.07)" id="img-3f44cba6-49">
              <path d="M-4.07,-0 L 4.07 -0 4.07 0 -4.07 0 z" class="primitive"/>
            </g>
            <g transform="translate(248.06,77.07)" id="img-3f44cba6-50">
              <path d="M-4.07,-0 L 4.07 -0 4.07 0 -4.07 0 z" class="primitive"/>
            </g>
            <g transform="translate(256.14,77.07)" id="img-3f44cba6-51">
              <path d="M-4.07,-0 L 4.07 -0 4.07 0 -4.07 0 z" class="primitive"/>
            </g>
            <g transform="translate(264.22,77.07)" id="img-3f44cba6-52">
              <path d="M-4.07,-0 L 4.07 -0 4.07 0 -4.07 0 z" class="primitive"/>
            </g>
            <g transform="translate(272.3,77.07)" id="img-3f44cba6-53">
              <path d="M-4.07,-0 L 4.07 -0 4.07 0 -4.07 0 z" class="primitive"/>
            </g>
            <g transform="translate(280.38,77.07)" id="img-3f44cba6-54">
              <path d="M-4.07,-0 L 4.07 -0 4.07 0 -4.07 0 z" class="primitive"/>
            </g>
            <g transform="translate(288.46,77.07)" id="img-3f44cba6-55">
              <path d="M-4.07,-0 L 4.07 -0 4.07 0 -4.07 0 z" class="primitive"/>
            </g>
            <g transform="translate(296.55,77.07)" id="img-3f44cba6-56">
              <path d="M-4.07,-0 L 4.07 -0 4.07 0 -4.07 0 z" class="primitive"/>
            </g>
            <g transform="translate(304.63,77.07)" id="img-3f44cba6-57">
              <path d="M-4.07,-0 L 4.07 -0 4.07 0 -4.07 0 z" class="primitive"/>
            </g>
            <g transform="translate(312.71,77.07)" id="img-3f44cba6-58">
              <path d="M-4.07,-0 L 4.07 -0 4.07 0 -4.07 0 z" class="primitive"/>
            </g>
            <g transform="translate(320.79,77.07)" id="img-3f44cba6-59">
              <path d="M-4.07,-0 L 4.07 -0 4.07 0 -4.07 0 z" class="primitive"/>
            </g>
            <g transform="translate(328.87,77.07)" id="img-3f44cba6-60">
              <path d="M-4.07,-0 L 4.07 -0 4.07 0 -4.07 0 z" class="primitive"/>
            </g>
            <g transform="translate(336.95,77.07)" id="img-3f44cba6-61">
              <path d="M-4.07,-0 L 4.07 -0 4.07 0 -4.07 0 z" class="primitive"/>
            </g>
            <g transform="translate(345.03,77.07)" id="img-3f44cba6-62">
              <path d="M-4.07,-0 L 4.07 -0 4.07 0 -4.07 0 z" class="primitive"/>
            </g>
            <g transform="translate(353.11,77.07)" id="img-3f44cba6-63">
              <path d="M-4.07,-0 L 4.07 -0 4.07 0 -4.07 0 z" class="primitive"/>
            </g>
            <g transform="translate(361.2,77.07)" id="img-3f44cba6-64">
              <path d="M-4.07,-0 L 4.07 -0 4.07 0 -4.07 0 z" class="primitive"/>
            </g>
            <g transform="translate(369.28,77.07)" id="img-3f44cba6-65">
              <path d="M-4.07,-0 L 4.07 -0 4.07 0 -4.07 0 z" class="primitive"/>
            </g>
            <g transform="translate(377.36,77.07)" id="img-3f44cba6-66">
              <path d="M-4.07,-0 L 4.07 -0 4.07 0 -4.07 0 z" class="primitive"/>
            </g>
            <g transform="translate(385.44,77.07)" id="img-3f44cba6-67">
              <path d="M-4.07,-0 L 4.07 -0 4.07 0 -4.07 0 z" class="primitive"/>
            </g>
            <g transform="translate(393.52,77.07)" id="img-3f44cba6-68">
              <path d="M-4.07,-0 L 4.07 -0 4.07 0 -4.07 0 z" class="primitive"/>
            </g>
            <g transform="translate(401.6,77.07)" id="img-3f44cba6-69">
              <path d="M-4.07,-0 L 4.07 -0 4.07 0 -4.07 0 z" class="primitive"/>
            </g>
            <g transform="translate(409.68,77.07)" id="img-3f44cba6-70">
              <path d="M-4.07,-0 L 4.07 -0 4.07 0 -4.07 0 z" class="primitive"/>
            </g>
          </g>
        </g>
      </g>
    </g>
  </g>
  <g class="guide ylabels" font-size="3.53" font-family="'PT Sans Caption','Helvetica Neue','Helvetica',sans-serif" fill="#6C606B" id="img-3f44cba6-71">
    <g transform="translate(18.78,77.06)" id="img-3f44cba6-72">
      <g class="primitive">
        <text text-anchor="end" dy="0.35em">0</text>
      </g>
    </g>
    <g transform="translate(18.78,59.55)" id="img-3f44cba6-73">
      <g class="primitive">
        <text text-anchor="end" dy="0.35em">5</text>
      </g>
    </g>
    <g transform="translate(18.78,42.03)" id="img-3f44cba6-74">
      <g class="primitive">
        <text text-anchor="end" dy="0.35em">10</text>
      </g>
    </g>
    <g transform="translate(18.78,24.52)" id="img-3f44cba6-75">
      <g class="primitive">
        <text text-anchor="end" dy="0.35em">15</text>
      </g>
    </g>
    <g transform="translate(18.78,7)" id="img-3f44cba6-76">
      <g class="primitive">
        <text text-anchor="end" dy="0.35em">20</text>
      </g>
    </g>
  </g>
  <g font-size="4.94" font-family="'PT Sans','Helvetica Neue','Helvetica',sans-serif" fill="#564A55" stroke="#000000" stroke-opacity="0.000" id="img-3f44cba6-77">
    <g transform="translate(9.3,40.03)" id="img-3f44cba6-78">
      <g class="primitive">
        <text text-anchor="middle" dy="0.35em" transform="rotate(-90,0, 2)">Percentage (%)</text>
      </g>
    </g>
  </g>
</g>
<defs>
  <clipPath id="img-3f44cba6-4">
    <path d="M19.78,5 L 145 5 145 79.06 19.78 79.06" />
  </clipPath>
</defs>
</svg>
