<?xml version="1.0" encoding="UTF-8"?>
<svg xmlns="http://www.w3.org/2000/svg"
     xmlns:xlink="http://www.w3.org/1999/xlink"
     xmlns:gadfly="http://www.gadflyjl.org/ns"
     version="1.2"
     width="150mm" height="100mm" viewBox="0 0 150 100"
     stroke="none"
     fill="#000000"
     stroke-width="0.3"
     font-size="3.88"
>
<defs>
  <marker id="arrow" markerWidth="15" markerHeight="7" refX="5" refY="3.5" orient="auto" markerUnits="strokeWidth">
    <path d="M0,0 L15,3.5 L0,7 z" stroke="context-stroke" fill="context-stroke"/>
  </marker>
</defs>
<g class="plotroot xscalable yscalable" id="img-7b2d81ca-1">
  <g font-size="4.94" font-family="'PT Sans','Helvetica Neue','Helvetica',sans-serif" fill="#564A55" stroke="#000000" stroke-opacity="0.000" id="img-7b2d81ca-2">
    <g transform="translate(79,87.4)">
      <g class="primitive">
        <text text-anchor="middle" dy="0.6em">Varietal richness per HD</text>
      </g>
    </g>
  </g>
  <g class="guide xlabels" font-size="3.53" font-family="'PT Sans Caption','Helvetica Neue','Helvetica',sans-serif" fill="#6C606B" id="img-7b2d81ca-3">
    <g transform="translate(21.78,80.06)">
      <g class="primitive">
        <text text-anchor="middle" dy="0.6em">0</text>
      </g>
    </g>
    <g transform="translate(44.67,80.06)">
      <g class="primitive">
        <text text-anchor="middle" dy="0.6em">10</text>
      </g>
    </g>
    <g transform="translate(67.56,80.06)">
      <g class="primitive">
        <text text-anchor="middle" dy="0.6em">20</text>
      </g>
    </g>
    <g transform="translate(90.44,80.06)">
      <g class="primitive">
        <text text-anchor="middle" dy="0.6em">30</text>
      </g>
    </g>
    <g transform="translate(113.33,80.06)">
      <g class="primitive">
        <text text-anchor="middle" dy="0.6em">40</text>
      </g>
    </g>
    <g transform="translate(136.22,80.06)">
      <g class="primitive">
        <text text-anchor="middle" dy="0.6em">50</text>
      </g>
    </g>
  </g>
  <g class="guide colorkey" id="img-7b2d81ca-4">
    <g fill="#4C404B" font-size="4.23" font-family="'PT Sans','Helvetica Neue','Helvetica',sans-serif" id="img-7b2d81ca-5">
      <g transform="translate(142.69,39.56)" id="img-7b2d81ca-6" class="color_1">
        <g class="primitive">
          <text dy="0.35em">1</text>
        </g>
      </g>
      <g transform="translate(142.69,44.5)" id="img-7b2d81ca-7" class="color_3">
        <g class="primitive">
          <text dy="0.35em">3</text>
        </g>
      </g>
      <g transform="translate(142.69,49.44)" id="img-7b2d81ca-8" class="color_5">
        <g class="primitive">
          <text dy="0.35em">5</text>
        </g>
      </g>
    </g>
    <g fill-opacity="1" id="img-7b2d81ca-9">
      <g transform="translate(140.46,39.56)" id="img-7b2d81ca-10" fill="#00BFFF" class="color_1" stroke="#FFFFFF">
        <path d="M-1.23,-1.23 L 1.23 -1.23 1.23 1.23 -1.23 1.23 z" class="primitive"/>
      </g>
      <g transform="translate(140.46,44.5)" id="img-7b2d81ca-11" fill="#D4CA3A" class="color_3" stroke="#FFFFFF">
        <path d="M-1.23,-1.23 L 1.23 -1.23 1.23 1.23 -1.23 1.23 z" class="primitive"/>
      </g>
      <g transform="translate(140.46,49.44)" id="img-7b2d81ca-12" fill="#FF6DAE" class="color_5" stroke="#FFFFFF">
        <path d="M-1.23,-1.23 L 1.23 -1.23 1.23 1.23 -1.23 1.23 z" class="primitive"/>
      </g>
    </g>
    <g fill="#362A35" font-size="4.94" font-family="'PT Sans','Helvetica Neue','Helvetica',sans-serif" stroke="#000000" stroke-opacity="0.000" id="img-7b2d81ca-13">
      <g transform="translate(139.22,34.92)" id="img-7b2d81ca-14">
        <g class="primitive">
          <text dy="-0em">H</text>
        </g>
      </g>
    </g>
  </g>
  <g clip-path="url(#img-7b2d81ca-15)">
    <g id="img-7b2d81ca-16">
      <g pointer-events="visible" fill="#000000" fill-opacity="0.000" stroke="#000000" stroke-opacity="0.000" class="guide background" id="img-7b2d81ca-17">
        <g transform="translate(79,42.03)" id="img-7b2d81ca-18">
          <path d="M-59.22,-37.03 L 59.22 -37.03 59.22 37.03 -59.22 37.03 z" class="primitive"/>
        </g>
      </g>
      <g class="guide ygridlines xfixed" stroke-dasharray="0.5,0.5" stroke-width="0.2" stroke="#D0D0E0" id="img-7b2d81ca-19">
        <g transform="translate(79,77.06)" id="img-7b2d81ca-20">
          <path fill="none" d="M-59.22,0 L 59.22 0" class="primitive"/>
        </g>
        <g transform="translate(79,63.05)" id="img-7b2d81ca-21">
          <path fill="none" d="M-59.22,0 L 59.22 0" class="primitive"/>
        </g>
        <g transform="translate(79,49.04)" id="img-7b2d81ca-22">
          <path fill="none" d="M-59.22,0 L 59.22 0" class="primitive"/>
        </g>
        <g transform="translate(79,35.02)" id="img-7b2d81ca-23">
          <path fill="none" d="M-59.22,0 L 59.22 0" class="primitive"/>
        </g>
        <g transform="translate(79,21.01)" id="img-7b2d81ca-24">
          <path fill="none" d="M-59.22,0 L 59.22 0" class="primitive"/>
        </g>
        <g transform="translate(79,7)" id="img-7b2d81ca-25">
          <path fill="none" d="M-59.22,0 L 59.22 0" class="primitive"/>
        </g>
      </g>
      <g class="guide xgridlines yfixed" stroke-dasharray="0.5,0.5" stroke-width="0.2" stroke="#D0D0E0" id="img-7b2d81ca-26">
        <g transform="translate(21.78,42.03)" id="img-7b2d81ca-27">
          <path fill="none" d="M0,-37.03 L 0 37.03" class="primitive"/>
        </g>
        <g transform="translate(44.67,42.03)" id="img-7b2d81ca-28">
          <path fill="none" d="M0,-37.03 L 0 37.03" class="primitive"/>
        </g>
        <g transform="translate(67.56,42.03)" id="img-7b2d81ca-29">
          <path fill="none" d="M0,-37.03 L 0 37.03" class="primitive"/>
        </g>
        <g transform="translate(90.44,42.03)" id="img-7b2d81ca-30">
          <path fill="none" d="M0,-37.03 L 0 37.03" class="primitive"/>
        </g>
        <g transform="translate(113.33,42.03)" id="img-7b2d81ca-31">
          <path fill="none" d="M0,-37.03 L 0 37.03" class="primitive"/>
        </g>
        <g transform="translate(136.22,42.03)" id="img-7b2d81ca-32">
          <path fill="none" d="M0,-37.03 L 0 37.03" class="primitive"/>
        </g>
      </g>
      <g class="plotpanel" id="img-7b2d81ca-33">
        <metadata>
          <boundingbox value="19.78mm 5.0mm 118.44mm 74.06166666666667mm"/>
          <unitbox value="-0.8738203425375743 25.7136570164379 51.74764068507515 -26.4273140328758"/>
        </metadata>
        <g stroke-width="0.3" fill="#000000" fill-opacity="0.000" class="geometry" id="img-7b2d81ca-34">
          <g transform="translate(76.71,71.34)" id="img-7b2d81ca-35" stroke-dasharray="none" class="color_1" stroke="#00BFFF">
            <path fill="none" d="M-54.93,5.72 L -52.64 5.38 -50.35 1.52 -48.06 -5.66 -45.78 -24.96 -43.49 -39.78 -41.2 -51.45 -38.91 -46.61 -36.62 -32.4 -34.33 -17.16 -32.04 -5.6 -29.75 1.49 -27.47 4.32 -25.18 5.29 -22.89 5.55 -20.6 5.66 -18.31 5.69 -16.02 5.72 -13.73 5.72 -11.44 5.72 -9.16 5.72 -6.87 5.72 -4.58 5.72 -2.29 5.72 -0 5.72 2.29 5.72 4.58 5.72 6.87 5.72 9.16 5.72 11.44 5.72 13.73 5.72 16.02 5.72 18.31 5.72 20.6 5.72 22.89 5.72 25.18 5.72 27.47 5.72 29.75 5.72 32.04 5.72 34.33 5.72 36.62 5.72 38.91 5.72 41.2 5.72 43.49 5.72 45.78 5.72 48.06 5.72 50.35 5.72 52.64 5.72 54.93 5.72" class="primitive"/>
          </g>
          <g transform="translate(76.71,71.34)" id="img-7b2d81ca-36" stroke-dasharray="none" class="color_3" stroke="#D4CA3A">
            <path fill="none" d="M-54.93,5.72 L -52.64 4.23 -50.35 0.51 -48.06 -10.78 -45.78 -27.31 -43.49 -45.15 -41.2 -49.73 -38.91 -44.38 -36.62 -28.85 -34.33 -13.3 -32.04 -3.23 -29.75 1.97 -27.47 4.75 -25.18 5.49 -22.89 5.6 -20.6 5.72 -18.31 5.72 -16.02 5.72 -13.73 5.72 -11.44 5.72 -9.16 5.72 -6.87 5.72 -4.58 5.72 -2.29 5.72 -0 5.72 2.29 5.72 4.58 5.72 6.87 5.72 9.16 5.72 11.44 5.72 13.73 5.72 16.02 5.72 18.31 5.72 20.6 5.72 22.89 5.72 25.18 5.72 27.47 5.72 29.75 5.72 32.04 5.72 34.33 5.72 36.62 5.72 38.91 5.72 41.2 5.72 43.49 5.72 45.78 5.72 48.06 5.72 50.35 5.72 52.64 5.72 54.93 5.72" class="primitive"/>
          </g>
          <g transform="translate(76.71,71.34)" id="img-7b2d81ca-37" stroke-dasharray="none" class="color_5" stroke="#FF6DAE">
            <path fill="none" d="M-54.93,5.72 L -52.64 4.46 -50.35 0.03 -48.06 -10.84 -45.78 -31 -43.49 -44.78 -41.2 -50.07 -38.91 -43.92 -36.62 -26.19 -34.33 -12.67 -32.04 -2.86 -29.75 2.4 -27.47 4.23 -25.18 5.38 -22.89 5.69 -20.6 5.69 -18.31 5.72 -16.02 5.72 -13.73 5.72 -11.44 5.72 -9.16 5.72 -6.87 5.72 -4.58 5.72 -2.29 5.72 -0 5.72 2.29 5.72 4.58 5.72 6.87 5.72 9.16 5.72 11.44 5.72 13.73 5.72 16.02 5.72 18.31 5.72 20.6 5.72 22.89 5.72 25.18 5.72 27.47 5.72 29.75 5.72 32.04 5.72 34.33 5.72 36.62 5.72 38.91 5.72 41.2 5.72 43.49 5.72 45.78 5.72 48.06 5.72 50.35 5.72 52.64 5.72 54.93 5.72" class="primitive"/>
          </g>
        </g>
      </g>
    </g>
  </g>
  <g class="guide ylabels" font-size="3.53" font-family="'PT Sans Caption','Helvetica Neue','Helvetica',sans-serif" fill="#6C606B" id="img-7b2d81ca-38">
    <g transform="translate(18.78,77.06)" id="img-7b2d81ca-39">
      <g class="primitive">
        <text text-anchor="end" dy="0.35em">0</text>
      </g>
    </g>
    <g transform="translate(18.78,63.05)" id="img-7b2d81ca-40">
      <g class="primitive">
        <text text-anchor="end" dy="0.35em">5</text>
      </g>
    </g>
    <g transform="translate(18.78,49.04)" id="img-7b2d81ca-41">
      <g class="primitive">
        <text text-anchor="end" dy="0.35em">10</text>
      </g>
    </g>
    <g transform="translate(18.78,35.02)" id="img-7b2d81ca-42">
      <g class="primitive">
        <text text-anchor="end" dy="0.35em">15</text>
      </g>
    </g>
    <g transform="translate(18.78,21.01)" id="img-7b2d81ca-43">
      <g class="primitive">
        <text text-anchor="end" dy="0.35em">20</text>
      </g>
    </g>
    <g transform="translate(18.78,7)" id="img-7b2d81ca-44">
      <g class="primitive">
        <text text-anchor="end" dy="0.35em">25</text>
      </g>
    </g>
  </g>
  <g font-size="4.94" font-family="'PT Sans','Helvetica Neue','Helvetica',sans-serif" fill="#564A55" stroke="#000000" stroke-opacity="0.000" id="img-7b2d81ca-45">
    <g transform="translate(9.3,40.03)" id="img-7b2d81ca-46">
      <g class="primitive">
        <text text-anchor="middle" dy="0.35em" transform="rotate(-90,0, 2)">Percentage (%)</text>
      </g>
    </g>
  </g>
</g>
<defs>
  <clipPath id="img-7b2d81ca-15">
    <path d="M19.78,5 L 138.22 5 138.22 79.06 19.78 79.06" />
  </clipPath>
</defs>
</svg>
