<?xml version="1.0" encoding="UTF-8"?>
<svg xmlns="http://www.w3.org/2000/svg"
     xmlns:xlink="http://www.w3.org/1999/xlink"
     xmlns:gadfly="http://www.gadflyjl.org/ns"
     version="1.2"
     width="230mm" height="100mm" viewBox="0 0 230 100"
     stroke="none"
     fill="#000000"
     stroke-width="0.3"
     font-size="3.88"
>
<defs>
  <marker id="arrow" markerWidth="15" markerHeight="7" refX="5" refY="3.5" orient="auto" markerUnits="strokeWidth">
    <path d="M0,0 L15,3.5 L0,7 z" stroke="context-stroke" fill="context-stroke"/>
  </marker>
</defs>
<g class="plotroot xscalable yscalable" id="img-2fe0e43d-1">
  <g font-size="4.94" font-family="'PT Sans','Helvetica Neue','Helvetica',sans-serif" fill="#564A55" stroke="#000000" stroke-opacity="0.000" id="img-2fe0e43d-2">
    <g transform="translate(92.83,87.4)">
      <g class="primitive">
        <text text-anchor="middle" dy="0.6em">Agricultural cycle</text>
      </g>
    </g>
  </g>
  <g class="guide xlabels" font-size="3.53" font-family="'PT Sans Caption','Helvetica Neue','Helvetica',sans-serif" fill="#6C606B" id="img-2fe0e43d-3">
    <g transform="translate(22.62,80.06)">
      <g class="primitive">
        <text text-anchor="middle" dy="0.6em">0</text>
      </g>
    </g>
    <g transform="translate(69.43,80.06)">
      <g class="primitive">
        <text text-anchor="middle" dy="0.6em">1×10³</text>
      </g>
    </g>
    <g transform="translate(116.23,80.06)">
      <g class="primitive">
        <text text-anchor="middle" dy="0.6em">2×10³</text>
      </g>
    </g>
    <g transform="translate(163.04,80.06)">
      <g class="primitive">
        <text text-anchor="middle" dy="0.6em">3×10³</text>
      </g>
    </g>
  </g>
  <g class="guide colorkey" id="img-2fe0e43d-4">
    <g fill="#4C404B" font-size="4.23" font-family="'PT Sans','Helvetica Neue','Helvetica',sans-serif" id="img-2fe0e43d-5">
      <g transform="translate(169.51,32.15)" id="img-2fe0e43d-6">
        <g class="primitive">
          <text dy="0.35em">Berger-Parker Community</text>
        </g>
      </g>
      <g transform="translate(169.51,37.09)" id="img-2fe0e43d-7">
        <g class="primitive">
          <text dy="0.35em">Simpson Community</text>
        </g>
      </g>
      <g transform="translate(169.51,42.03)" id="img-2fe0e43d-8">
        <g class="primitive">
          <text dy="0.35em">Shannon evenness Community</text>
        </g>
      </g>
      <g transform="translate(169.51,46.97)" id="img-2fe0e43d-9">
        <g class="primitive">
          <text dy="0.35em">Berger-Parker HD</text>
        </g>
      </g>
      <g transform="translate(169.51,51.91)" id="img-2fe0e43d-10">
        <g class="primitive">
          <text dy="0.35em">Simpson HD</text>
        </g>
      </g>
      <g transform="translate(169.51,56.85)" id="img-2fe0e43d-11">
        <g class="primitive">
          <text dy="0.35em">Shannon evenness HD</text>
        </g>
      </g>
    </g>
    <g fill-opacity="1" id="img-2fe0e43d-12">
      <g transform="translate(167.28,32.15)" id="img-2fe0e43d-13" fill="#A52A2A" stroke="#FFFFFF">
        <path d="M-1.23,-1.23 L 1.23 -1.23 1.23 1.23 -1.23 1.23 z" class="primitive"/>
      </g>
      <g transform="translate(167.28,37.09)" id="img-2fe0e43d-14" fill="#0000FF" stroke="#FFFFFF">
        <path d="M-1.23,-1.23 L 1.23 -1.23 1.23 1.23 -1.23 1.23 z" class="primitive"/>
      </g>
      <g transform="translate(167.28,42.03)" id="img-2fe0e43d-15" fill="#FF0000" stroke="#FFFFFF">
        <path d="M-1.23,-1.23 L 1.23 -1.23 1.23 1.23 -1.23 1.23 z" class="primitive"/>
      </g>
      <g transform="translate(167.28,46.97)" id="img-2fe0e43d-16" fill="#008000" stroke="#FFFFFF">
        <path d="M-1.23,-1.23 L 1.23 -1.23 1.23 1.23 -1.23 1.23 z" class="primitive"/>
      </g>
      <g transform="translate(167.28,51.91)" id="img-2fe0e43d-17" fill="#FFA500" stroke="#FFFFFF">
        <path d="M-1.23,-1.23 L 1.23 -1.23 1.23 1.23 -1.23 1.23 z" class="primitive"/>
      </g>
      <g transform="translate(167.28,56.85)" id="img-2fe0e43d-18" fill="#800080" stroke="#FFFFFF">
        <path d="M-1.23,-1.23 L 1.23 -1.23 1.23 1.23 -1.23 1.23 z" class="primitive"/>
      </g>
    </g>
    <g fill="#362A35" font-size="4.94" font-family="'PT Sans','Helvetica Neue','Helvetica',sans-serif" stroke="#000000" stroke-opacity="0.000" id="img-2fe0e43d-19">
      <g transform="translate(166.04,27.51)" id="img-2fe0e43d-20">
        <g class="primitive">
          <text dy="-0em">Index</text>
        </g>
      </g>
    </g>
  </g>
  <g clip-path="url(#img-2fe0e43d-21)">
    <g id="img-2fe0e43d-22">
      <g pointer-events="visible" fill="#000000" fill-opacity="0.000" stroke="#000000" stroke-opacity="0.000" class="guide background" id="img-2fe0e43d-23">
        <g transform="translate(92.83,42.03)" id="img-2fe0e43d-24">
          <path d="M-72.21,-37.03 L 72.21 -37.03 72.21 37.03 -72.21 37.03 z" class="primitive"/>
        </g>
      </g>
      <g class="guide ygridlines xfixed" stroke-dasharray="0.5,0.5" stroke-width="0.2" stroke="#D0D0E0" id="img-2fe0e43d-25">
        <g transform="translate(92.83,77.06)" id="img-2fe0e43d-26">
          <path fill="none" d="M-72.21,0 L 72.21 0" class="primitive"/>
        </g>
        <g transform="translate(92.83,63.05)" id="img-2fe0e43d-27">
          <path fill="none" d="M-72.21,0 L 72.21 0" class="primitive"/>
        </g>
        <g transform="translate(92.83,49.04)" id="img-2fe0e43d-28">
          <path fill="none" d="M-72.21,0 L 72.21 0" class="primitive"/>
        </g>
        <g transform="translate(92.83,35.02)" id="img-2fe0e43d-29">
          <path fill="none" d="M-72.21,0 L 72.21 0" class="primitive"/>
        </g>
        <g transform="translate(92.83,21.01)" id="img-2fe0e43d-30">
          <path fill="none" d="M-72.21,0 L 72.21 0" class="primitive"/>
        </g>
        <g transform="translate(92.83,7)" id="img-2fe0e43d-31">
          <path fill="none" d="M-72.21,0 L 72.21 0" class="primitive"/>
        </g>
      </g>
      <g class="guide xgridlines yfixed" stroke-dasharray="0.5,0.5" stroke-width="0.2" stroke="#D0D0E0" id="img-2fe0e43d-32">
        <g transform="translate(22.62,42.03)" id="img-2fe0e43d-33">
          <path fill="none" d="M0,-37.03 L 0 37.03" class="primitive"/>
        </g>
        <g transform="translate(69.43,42.03)" id="img-2fe0e43d-34">
          <path fill="none" d="M0,-37.03 L 0 37.03" class="primitive"/>
        </g>
        <g transform="translate(116.23,42.03)" id="img-2fe0e43d-35">
          <path fill="none" d="M0,-37.03 L 0 37.03" class="primitive"/>
        </g>
        <g transform="translate(163.04,42.03)" id="img-2fe0e43d-36">
          <path fill="none" d="M0,-37.03 L 0 37.03" class="primitive"/>
        </g>
      </g>
      <g class="plotpanel" id="img-2fe0e43d-37">
        <metadata>
          <boundingbox value="20.62166666666667mm 5.0mm 144.41833333333332mm 74.06166666666667mm"/>
          <unitbox value="-42.72946315177268 1.028546280657516 3085.458926303545 -1.057092561315032"/>
        </metadata>
        <g stroke-width="0.3" fill="#000000" fill-opacity="0.000" class="geometry" id="img-2fe0e43d-38">
          <g class="color_RGB{N0f8}(0.502,0.0,0.502)" stroke-dasharray="none" stroke="#800080" id="img-2fe0e43d-39">
            <g transform="translate(92.13,21.74)" id="img-2fe0e43d-40">
              <path fill="none" d="M-69.51,-8.01 L -68.1 1.66 -66.7 1.74 -65.29 1.38 -63.89 1.33 -62.49 1.23 -61.08 1.26 -59.68 1.17 -58.27 0.99 -56.87 0.9 -55.47 0.8 -54.06 0.75 -52.66 0.68 -51.25 0.64 -49.85 0.69 -48.44 0.51 -47.04 0.53 -45.64 0.43 -44.23 0.42 -42.83 0.48 -41.42 0.37 -40.02 0.41 -38.62 0.25 -37.21 0.29 -35.81 0.31 -34.4 0.26 -33 0.33 -31.59 0.34 -30.19 0.22 -28.79 0.1 -27.38 0.31 -25.98 0.18 -24.57 0.05 -23.17 0.13 -21.76 0.21 -20.36 0.14 -18.96 -0.06 -17.55 0.01 -16.15 0.09 -14.74 0.03 -13.34 -0.02 -11.94 -0.03 -10.53 -0.12 -9.13 -0.12 -7.72 -0.11 -6.32 -0.03 -4.91 -0.09 -3.51 -0.16 -2.11 -0.1 -0.7 -0.12 0.7 -0.12 2.11 -0.07 3.51 -0.06 4.91 -0.21 6.32 -0.05 7.72 -0.13 9.13 -0.08 10.53 -0.12 11.94 -0.23 13.34 -0.19 14.74 -0.28 16.15 -0.19 17.55 -0.28 18.96 -0.22 20.36 -0.29 21.76 -0.2 23.17 -0.18 24.57 -0.25 25.98 -0.31 27.38 -0.27 28.79 -0.23 30.19 -0.27 31.59 -0.25 33 -0.18 34.4 -0.32 35.81 -0.21 37.21 -0.31 38.62 -0.25 40.02 -0.33 41.42 -0.23 42.83 -0.24 44.23 -0.35 45.64 -0.36 47.04 -0.33 48.44 -0.29 49.85 -0.27 51.25 -0.19 52.66 -0.31 54.06 -0.36 55.47 -0.34 56.87 -0.32 58.27 -0.33 59.68 -0.33 61.08 -0.33 62.49 -0.32 63.89 -0.36 65.29 -0.22 66.7 -0.39 68.1 -0.3 69.51 -0.44" class="primitive"/>
            </g>
          </g>
        </g>
        <g stroke-width="0.3" fill="#000000" fill-opacity="0.000" class="geometry" id="img-2fe0e43d-41">
          <g class="color_RGB{N0f8}(1.0,0.647,0.0)" stroke-dasharray="none" stroke="#FFA500" id="img-2fe0e43d-42">
            <g transform="translate(92.13,50.38)" id="img-2fe0e43d-43">
              <path fill="none" d="M-69.51,2.85 L -68.1 -5.26 -66.7 -3.28 -65.29 -2.17 -63.89 -1.7 -62.49 -1.25 -61.08 -1.2 -59.68 -0.96 -58.27 -0.83 -56.87 -0.73 -55.47 -0.64 -54.06 -0.65 -52.66 -0.7 -51.25 -0.71 -49.85 -0.6 -48.44 -0.44 -47.04 -0.58 -45.64 -0.33 -44.23 -0.4 -42.83 -0.47 -41.42 -0.43 -40.02 -0.28 -38.62 -0.17 -37.21 -0.31 -35.81 -0.17 -34.4 -0.26 -33 -0.04 -31.59 -0.15 -30.19 -0.06 -28.79 -0.02 -27.38 -0.12 -25.98 -0.08 -24.57 0.08 -23.17 -0.1 -21.76 -0.03 -20.36 -0.02 -18.96 0.08 -17.55 0.17 -16.15 0.09 -14.74 0.15 -13.34 0.23 -11.94 0.05 -10.53 0.14 -9.13 0.19 -7.72 0.19 -6.32 0.24 -4.91 0.14 -3.51 0.33 -2.11 0.3 -0.7 0.3 0.7 0.27 2.11 0.28 3.51 0.23 4.91 0.32 6.32 0.15 7.72 0.2 9.13 0.22 10.53 0.15 11.94 0.31 13.34 0.25 14.74 0.37 16.15 0.3 17.55 0.32 18.96 0.35 20.36 0.39 21.76 0.4 23.17 0.11 24.57 0.33 25.98 0.45 27.38 0.28 28.79 0.43 30.19 0.44 31.59 0.41 33 0.32 34.4 0.41 35.81 0.32 37.21 0.43 38.62 0.42 40.02 0.51 41.42 0.36 42.83 0.49 44.23 0.58 45.64 0.53 47.04 0.52 48.44 0.5 49.85 0.42 51.25 0.35 52.66 0.52 54.06 0.6 55.47 0.47 56.87 0.48 58.27 0.44 59.68 0.45 61.08 0.4 62.49 0.4 63.89 0.57 65.29 0.44 66.7 0.49 68.1 0.56 69.51 0.65" class="primitive"/>
            </g>
          </g>
        </g>
        <g stroke-width="0.3" fill="#000000" fill-opacity="0.000" class="geometry" id="img-2fe0e43d-44">
          <g class="color_RGB{N0f8}(0.0,0.502,0.0)" stroke-dasharray="none" stroke="#008000" id="img-2fe0e43d-45">
            <g transform="translate(92.13,60.5)" id="img-2fe0e43d-46">
              <path fill="none" d="M-69.51,0.8 L -68.1 -5.19 -66.7 -3 -65.29 -1.94 -63.89 -1.48 -62.49 -1.07 -61.08 -0.99 -59.68 -0.74 -58.27 -0.66 -56.87 -0.57 -55.47 -0.51 -54.06 -0.51 -52.66 -0.54 -51.25 -0.56 -49.85 -0.48 -48.44 -0.38 -47.04 -0.45 -45.64 -0.24 -44.23 -0.31 -42.83 -0.36 -41.42 -0.33 -40.02 -0.19 -38.62 -0.16 -37.21 -0.22 -35.81 -0.12 -34.4 -0.18 -33 -0.02 -31.59 -0.06 -30.19 -0.02 -28.79 0.02 -27.38 -0.07 -25.98 -0.05 -24.57 0.05 -23.17 -0.03 -21.76 0.06 -20.36 -0 -18.96 0.07 -17.55 0.16 -16.15 0.12 -14.74 0.17 -13.34 0.18 -11.94 0.08 -10.53 0.14 -9.13 0.18 -7.72 0.2 -6.32 0.24 -4.91 0.15 -3.51 0.31 -2.11 0.29 -0.7 0.27 0.7 0.26 2.11 0.26 3.51 0.24 4.91 0.27 6.32 0.16 7.72 0.2 9.13 0.21 10.53 0.18 11.94 0.28 13.34 0.26 14.74 0.31 16.15 0.31 17.55 0.29 18.96 0.3 20.36 0.34 21.76 0.32 23.17 0.2 24.57 0.31 25.98 0.39 27.38 0.27 28.79 0.36 30.19 0.4 31.59 0.41 33 0.3 34.4 0.38 35.81 0.29 37.21 0.34 38.62 0.35 40.02 0.44 41.42 0.34 42.83 0.44 44.23 0.49 45.64 0.47 47.04 0.49 48.44 0.44 49.85 0.37 51.25 0.36 52.66 0.48 54.06 0.55 55.47 0.43 56.87 0.38 58.27 0.4 59.68 0.4 61.08 0.35 62.49 0.4 63.89 0.49 65.29 0.44 66.7 0.47 68.1 0.55 69.51 0.55" class="primitive"/>
            </g>
          </g>
        </g>
        <g stroke-width="0.3" fill="#000000" fill-opacity="0.000" class="geometry" id="img-2fe0e43d-47">
          <g class="color_RGB{N0f8}(1.0,0.0,0.0)" stroke-dasharray="none" stroke="#FF0000" id="img-2fe0e43d-48">
            <g transform="translate(92.13,15.16)" id="img-2fe0e43d-49">
              <path fill="none" d="M-69.51,-7.53 L -68.1 8.14 -66.7 4.85 -65.29 3.1 -63.89 2.43 -62.49 2.2 -61.08 1.81 -59.68 1.71 -58.27 1.57 -56.87 1.66 -55.47 1.57 -54.06 1.68 -52.66 1.56 -51.25 1.48 -49.85 1.27 -48.44 1.18 -47.04 0.95 -45.64 0.82 -44.23 0.68 -42.83 0.79 -41.42 0.55 -40.02 0.58 -38.62 0.57 -37.21 0.54 -35.81 0.57 -34.4 0.37 -33 0.22 -31.59 0.18 -30.19 0.1 -28.79 -0.08 -27.38 -0.12 -25.98 0.24 -24.57 0.4 -23.17 0.35 -21.76 0.16 -20.36 0.08 -18.96 0.12 -17.55 0.07 -16.15 0.1 -14.74 0.05 -13.34 -0.08 -11.94 -0.12 -10.53 -0.07 -9.13 -0.27 -7.72 -0.37 -6.32 -0.13 -4.91 -0.06 -3.51 -0.41 -2.11 -0.28 -0.7 -0.28 0.7 -0.32 2.11 -0.49 3.51 -0.26 4.91 -0.55 6.32 -0.47 7.72 -0.29 9.13 -0.32 10.53 -0.37 11.94 -0.45 13.34 -0.49 14.74 -0.34 16.15 -0.48 17.55 -0.43 18.96 -0.6 20.36 -0.43 21.76 -0.45 23.17 -0.68 24.57 -0.45 25.98 -0.61 27.38 -0.5 28.79 -0.76 30.19 -0.67 31.59 -0.62 33 -0.64 34.4 -0.91 35.81 -0.7 37.21 -0.65 38.62 -0.97 40.02 -0.96 41.42 -1.06 42.83 -0.74 44.23 -0.97 45.64 -1.02 47.04 -0.84 48.44 -1.02 49.85 -1.03 51.25 -0.9 52.66 -0.87 54.06 -0.76 55.47 -0.7 56.87 -1.05 58.27 -0.76 59.68 -0.9 61.08 -0.84 62.49 -0.79 63.89 -0.99 65.29 -0.92 66.7 -0.9 68.1 -0.93 69.51 -1.05" class="primitive"/>
            </g>
          </g>
        </g>
        <g stroke-width="0.3" fill="#000000" fill-opacity="0.000" class="geometry" id="img-2fe0e43d-50">
          <g class="color_RGB{N0f8}(0.0,0.0,1.0)" stroke-dasharray="none" stroke="#0000FF" id="img-2fe0e43d-51">
            <g transform="translate(92.13,12.06)" id="img-2fe0e43d-52">
              <path fill="none" d="M-69.51,2.26 L -68.1 3.03 -66.7 0.6 -65.29 -0.37 -63.89 -0.65 -62.49 -0.74 -61.08 -0.81 -59.68 -0.77 -58.27 -0.76 -56.87 -0.6 -55.47 -0.55 -54.06 -0.4 -52.66 -0.31 -51.25 -0.24 -49.85 -0.27 -48.44 -0.27 -47.04 -0.28 -45.64 -0.32 -44.23 -0.26 -42.83 -0.21 -41.42 -0.2 -40.02 -0.23 -38.62 -0.21 -37.21 -0.19 -35.81 -0.19 -34.4 -0.24 -33 -0.22 -31.59 -0.2 -30.19 -0.17 -28.79 -0.17 -27.38 -0.17 -25.98 -0.04 -24.57 -0.02 -23.17 -0.02 -21.76 -0.05 -20.36 -0.08 -18.96 -0.04 -17.55 -0.03 -16.15 -0.03 -14.74 -0.02 -13.34 -0.01 -11.94 -0.03 -10.53 -0.02 -9.13 0 -7.72 -0.02 -6.32 0.03 -4.91 0.05 -3.51 0.01 -2.11 0.04 -0.7 0.04 0.7 0.03 2.11 0.03 3.51 0.07 4.91 0.06 6.32 0.1 7.72 0.07 9.13 0.1 10.53 0.06 11.94 0.1 13.34 0.09 14.74 0.1 16.15 0.09 17.55 0.1 18.96 0.03 20.36 0.04 21.76 0.07 23.17 0.08 24.57 0.13 25.98 0.14 27.38 0.14 28.79 0.1 30.19 0.12 31.59 0.12 33 0.12 34.4 0.11 35.81 0.08 37.21 0.11 38.62 0.08 40.02 0.07 41.42 0.03 42.83 0.07 44.23 0.05 45.64 0.08 47.04 0.1 48.44 0.06 49.85 0.03 51.25 0.07 52.66 0.07 54.06 0.06 55.47 0.14 56.87 0.13 58.27 0.14 59.68 0.14 61.08 0.14 62.49 0.15 63.89 0.12 65.29 0.08 66.7 0.09 68.1 0.04 69.51 0.05" class="primitive"/>
            </g>
          </g>
        </g>
        <g stroke-width="0.3" fill="#000000" fill-opacity="0.000" class="geometry" id="img-2fe0e43d-53">
          <g class="color_RGB{N0f8}(0.647,0.165,0.165)" stroke-dasharray="none" stroke="#A52A2A" id="img-2fe0e43d-54">
            <g transform="translate(92.13,69.34)" id="img-2fe0e43d-55">
              <path fill="none" d="M-69.51,-0.46 L -68.1 -6.71 -66.7 -3.14 -65.29 -1.22 -63.89 -0.49 -62.49 -0.37 -61.08 -0.08 -59.68 0.08 -58.27 0.15 -56.87 -0.22 -55.47 -0.2 -54.06 -0.29 -52.66 -0.18 -51.25 -0.31 -49.85 -0.21 -48.44 -0.13 -47.04 -0.12 -45.64 0.08 -44.23 0.02 -42.83 -0.03 -41.42 -0.04 -40.02 0.06 -38.62 0 -37.21 -0.08 -35.81 0.06 -34.4 0.17 -33 0.18 -31.59 0.21 -30.19 0.19 -28.79 0.15 -27.38 0.18 -25.98 -0.02 -24.57 0.07 -23.17 0.05 -21.76 0.15 -20.36 0.21 -18.96 0.01 -17.55 0.09 -16.15 0.1 -14.74 0.06 -13.34 0.13 -11.94 0.15 -10.53 0.16 -9.13 0.19 -7.72 0.15 -6.32 0.13 -4.91 0.06 -3.51 0.22 -2.11 0.14 -0.7 0.11 0.7 0.1 2.11 0.06 3.51 0.17 4.91 0.17 6.32 0.04 7.72 0.12 9.13 0.05 10.53 0.16 11.94 0.07 13.34 0.08 14.74 0.1 16.15 0.11 17.55 0.14 18.96 0.33 20.36 0.27 21.76 0.28 23.17 0.19 24.57 0.14 25.98 0.13 27.38 0.14 28.79 0.3 30.19 0.12 31.59 0.25 33 0.18 34.4 0.19 35.81 0.17 37.21 0.23 38.62 0.23 40.02 0.31 41.42 0.35 42.83 0.18 44.23 0.28 45.64 0.26 47.04 0.25 48.44 0.34 49.85 0.42 51.25 0.28 52.66 0.3 54.06 0.35 55.47 0.16 56.87 0.17 58.27 0.13 59.68 0.27 61.08 0.2 62.49 0.26 63.89 0.33 65.29 0.32 66.7 0.26 68.1 0.3 69.51 0.39" class="primitive"/>
            </g>
          </g>
        </g>
      </g>
    </g>
  </g>
  <g class="guide ylabels" font-size="3.53" font-family="'PT Sans Caption','Helvetica Neue','Helvetica',sans-serif" fill="#6C606B" id="img-2fe0e43d-56">
    <g transform="translate(19.62,77.06)" id="img-2fe0e43d-57">
      <g class="primitive">
        <text text-anchor="end" dy="0.35em">0.0</text>
      </g>
    </g>
    <g transform="translate(19.62,63.05)" id="img-2fe0e43d-58">
      <g class="primitive">
        <text text-anchor="end" dy="0.35em">0.2</text>
      </g>
    </g>
    <g transform="translate(19.62,49.04)" id="img-2fe0e43d-59">
      <g class="primitive">
        <text text-anchor="end" dy="0.35em">0.4</text>
      </g>
    </g>
    <g transform="translate(19.62,35.02)" id="img-2fe0e43d-60">
      <g class="primitive">
        <text text-anchor="end" dy="0.35em">0.6</text>
      </g>
    </g>
    <g transform="translate(19.62,21.01)" id="img-2fe0e43d-61">
      <g class="primitive">
        <text text-anchor="end" dy="0.35em">0.8</text>
      </g>
    </g>
    <g transform="translate(19.62,7)" id="img-2fe0e43d-62">
      <g class="primitive">
        <text text-anchor="end" dy="0.35em">1.0</text>
      </g>
    </g>
  </g>
  <g font-size="4.94" font-family="'PT Sans','Helvetica Neue','Helvetica',sans-serif" fill="#564A55" stroke="#000000" stroke-opacity="0.000" id="img-2fe0e43d-63">
    <g transform="translate(9.3,40.03)" id="img-2fe0e43d-64">
      <g class="primitive">
        <text text-anchor="middle" dy="0.35em" transform="rotate(-90,0, 2)">Value of the metric</text>
      </g>
    </g>
  </g>
</g>
<defs>
  <clipPath id="img-2fe0e43d-21">
    <path d="M20.62,5 L 165.04 5 165.04 79.06 20.62 79.06" />
  </clipPath>
</defs>
</svg>
