<?xml version="1.0" encoding="UTF-8"?>
<svg xmlns="http://www.w3.org/2000/svg"
     xmlns:xlink="http://www.w3.org/1999/xlink"
     xmlns:gadfly="http://www.gadflyjl.org/ns"
     version="1.2"
     width="150mm" height="100mm" viewBox="0 0 150 100"
     stroke="none"
     fill="#000000"
     stroke-width="0.3"
     font-size="3.88"
>
<defs>
  <marker id="arrow" markerWidth="15" markerHeight="7" refX="5" refY="3.5" orient="auto" markerUnits="strokeWidth">
    <path d="M0,0 L15,3.5 L0,7 z" stroke="context-stroke" fill="context-stroke"/>
  </marker>
</defs>
<g class="plotroot xscalable yscalable" id="img-c27b5baa-1">
  <g font-size="3.88" font-family="'PT Sans','Helvetica Neue','Helvetica',sans-serif" fill="#564A55" stroke="#000000" stroke-opacity="0.000" id="img-c27b5baa-2">
    <g transform="translate(77.26,88.39)">
      <g class="primitive">
        <text text-anchor="middle" dy="0.6em">Productivity</text>
      </g>
    </g>
  </g>
  <g class="guide xlabels" font-size="2.82" font-family="'PT Sans Caption','Helvetica Neue','Helvetica',sans-serif" fill="#6C606B" id="img-c27b5baa-3">
    <g transform="translate(19.96,81.72)">
      <g class="primitive">
        <text text-anchor="middle" dy="0.6em">0.0</text>
      </g>
    </g>
    <g transform="translate(77.26,81.72)">
      <g class="primitive">
        <text text-anchor="middle" dy="0.6em">0.5</text>
      </g>
    </g>
    <g transform="translate(134.57,81.72)">
      <g class="primitive">
        <text text-anchor="middle" dy="0.6em">1.0</text>
      </g>
    </g>
  </g>
  <g class="guide colorkey" id="img-c27b5baa-4">
    <g fill="#4C404B" font-size="2.82" font-family="'PT Sans','Helvetica Neue','Helvetica',sans-serif" id="img-c27b5baa-5">
      <g transform="translate(140.38,37.42)" id="img-c27b5baa-6" class="color_5">
        <g class="primitive">
          <text dy="0.35em">5</text>
        </g>
      </g>
      <g transform="translate(140.38,41.04)" id="img-c27b5baa-7" class="color_10">
        <g class="primitive">
          <text dy="0.35em">10</text>
        </g>
      </g>
      <g transform="translate(140.38,44.67)" id="img-c27b5baa-8" class="color_25">
        <g class="primitive">
          <text dy="0.35em">25</text>
        </g>
      </g>
      <g transform="translate(140.38,48.3)" id="img-c27b5baa-9" class="color_50">
        <g class="primitive">
          <text dy="0.35em">50</text>
        </g>
      </g>
      <g transform="translate(140.38,51.92)" id="img-c27b5baa-10" class="color_100">
        <g class="primitive">
          <text dy="0.35em">100</text>
        </g>
      </g>
    </g>
    <g fill-opacity="1" id="img-c27b5baa-11">
      <g transform="translate(138.47,37.42)" id="img-c27b5baa-12" fill="#00BFFF" class="color_5" stroke="#FFFFFF">
        <path d="M-0.91,-0.91 L 0.91 -0.91 0.91 0.91 -0.91 0.91 z" class="primitive"/>
      </g>
      <g transform="translate(138.47,41.04)" id="img-c27b5baa-13" fill="#D4CA3A" class="color_10" stroke="#FFFFFF">
        <path d="M-0.91,-0.91 L 0.91 -0.91 0.91 0.91 -0.91 0.91 z" class="primitive"/>
      </g>
      <g transform="translate(138.47,44.67)" id="img-c27b5baa-14" fill="#FF6DAE" class="color_25" stroke="#FFFFFF">
        <path d="M-0.91,-0.91 L 0.91 -0.91 0.91 0.91 -0.91 0.91 z" class="primitive"/>
      </g>
      <g transform="translate(138.47,48.3)" id="img-c27b5baa-15" fill="#00B78D" class="color_50" stroke="#FFFFFF">
        <path d="M-0.91,-0.91 L 0.91 -0.91 0.91 0.91 -0.91 0.91 z" class="primitive"/>
      </g>
      <g transform="translate(138.47,51.92)" id="img-c27b5baa-16" fill="#BEA9FF" class="color_100" stroke="#FFFFFF">
        <path d="M-0.91,-0.91 L 0.91 -0.91 0.91 0.91 -0.91 0.91 z" class="primitive"/>
      </g>
    </g>
    <g fill="#362A35" font-size="3.88" font-family="'PT Sans','Helvetica Neue','Helvetica',sans-serif" stroke="#000000" stroke-opacity="0.000" id="img-c27b5baa-17">
      <g transform="translate(137.57,33.6)" id="img-c27b5baa-18">
        <g class="primitive">
          <text dy="-0em">V</text>
        </g>
      </g>
    </g>
  </g>
  <g clip-path="url(#img-c27b5baa-19)">
    <g id="img-c27b5baa-20">
      <g pointer-events="visible" fill="#000000" fill-opacity="0.000" stroke="#000000" stroke-opacity="0.000" class="guide background" id="img-c27b5baa-21">
        <g transform="translate(77.26,42.86)" id="img-c27b5baa-22">
          <path d="M-59.3,-37.86 L 59.3 -37.86 59.3 37.86 -59.3 37.86 z" class="primitive"/>
        </g>
      </g>
      <g class="guide ygridlines xfixed" stroke-dasharray="0.5,0.5" stroke-width="0.2" stroke="#D0D0E0" id="img-c27b5baa-23">
        <g transform="translate(77.26,78.72)" id="img-c27b5baa-24">
          <path fill="none" d="M-59.3,0 L 59.3 0" class="primitive"/>
        </g>
        <g transform="translate(77.26,54.81)" id="img-c27b5baa-25">
          <path fill="none" d="M-59.3,0 L 59.3 0" class="primitive"/>
        </g>
        <g transform="translate(77.26,30.91)" id="img-c27b5baa-26">
          <path fill="none" d="M-59.3,0 L 59.3 0" class="primitive"/>
        </g>
        <g transform="translate(77.26,7)" id="img-c27b5baa-27">
          <path fill="none" d="M-59.3,0 L 59.3 0" class="primitive"/>
        </g>
      </g>
      <g class="guide xgridlines yfixed" stroke-dasharray="0.5,0.5" stroke-width="0.2" stroke="#D0D0E0" id="img-c27b5baa-28">
        <g transform="translate(19.96,42.86)" id="img-c27b5baa-29">
          <path fill="none" d="M0,-37.86 L 0 37.86" class="primitive"/>
        </g>
        <g transform="translate(77.26,42.86)" id="img-c27b5baa-30">
          <path fill="none" d="M0,-37.86 L 0 37.86" class="primitive"/>
        </g>
        <g transform="translate(134.57,42.86)" id="img-c27b5baa-31">
          <path fill="none" d="M0,-37.86 L 0 37.86" class="primitive"/>
        </g>
      </g>
      <g class="plotpanel" id="img-c27b5baa-32">
        <metadata>
          <boundingbox value="17.95833333333333mm 5.0mm 118.60833333333333mm 75.715mm"/>
          <unitbox value="-0.017450738020795463 30.836645053336124 1.0349014760415909 -31.673290106672248"/>
        </metadata>
        <g stroke-width="0.3" fill="#000000" fill-opacity="0.000" class="geometry" id="img-c27b5baa-33">
          <g transform="translate(77.26,66.76)" id="img-c27b5baa-34" stroke-dasharray="none" class="color_5" stroke="#00BFFF">
            <path fill="none" d="M-54.44,11.58 L -48.71 11.51 -42.98 9.63 -37.25 11.66 -31.52 8.46 -25.79 10.28 -20.06 5.58 -14.33 7.91 -8.6 7.64 -2.87 -2.85 2.87 -20.89 8.6 -35.1 14.33 -50.11 20.06 -33.89 25.79 -0.75 31.52 11.52 37.25 11.95 42.98 11.95 48.71 11.95 54.44 11.95" class="primitive"/>
          </g>
          <g transform="translate(77.26,66.76)" id="img-c27b5baa-35" stroke-dasharray="none" class="color_10" stroke="#D4CA3A">
            <path fill="none" d="M-54.44,11.42 L -48.71 11.28 -42.98 11.95 -37.25 11.87 -31.52 11.92 -25.79 11.83 -20.06 10.41 -14.33 9.64 -8.6 5.13 -2.87 2.19 2.87 -20.58 8.6 -48.62 14.33 -56.05 20.06 -34.45 25.79 2.67 31.52 11.56 37.25 11.95 42.98 11.95 48.71 11.95 54.44 11.95" class="primitive"/>
          </g>
          <g transform="translate(77.26,66.76)" id="img-c27b5baa-36" stroke-dasharray="none" class="color_25" stroke="#FF6DAE">
            <path fill="none" d="M-54.44,11.87 L -48.71 11.47 -42.98 11.1 -37.25 10.68 -31.52 11.13 -25.79 9.96 -20.06 5.98 -14.33 4.12 -8.6 0.25 -2.87 -2.6 2.87 -13.09 8.6 -43.93 14.33 -49.76 20.06 -29.01 25.79 2.24 31.52 11.78 37.25 11.95 42.98 11.95 48.71 11.95 54.44 11.95" class="primitive"/>
          </g>
          <g transform="translate(77.26,66.76)" id="img-c27b5baa-37" stroke-dasharray="none" class="color_50" stroke="#00B78D">
            <path fill="none" d="M-54.44,10.73 L -48.71 11.89 -42.98 11.01 -37.25 9.51 -31.52 10.59 -25.79 10.72 -20.06 10.5 -14.33 8.86 -8.6 1.96 -2.87 -10.18 2.87 -20.77 8.6 -39.61 14.33 -42.03 20.06 -32.74 25.79 0.12 31.52 11.64 37.25 11.95 42.98 11.95 48.71 11.95 54.44 11.95" class="primitive"/>
          </g>
          <g transform="translate(77.26,66.76)" id="img-c27b5baa-38" stroke-dasharray="none" class="color_100" stroke="#BEA9FF">
            <path fill="none" d="M-54.44,11.95 L -48.71 11.95 -42.98 11.95 -37.25 11.94 -31.52 11.93 -25.79 11.87 -20.06 10.95 -14.33 8.09 -8.6 3.25 -2.87 0.77 2.87 -9.36 8.6 -43.15 14.33 -56.04 20.06 -43.7 25.79 -0.98 31.52 10.87 37.25 11.85 42.98 11.95 48.71 11.95 54.44 11.95" class="primitive"/>
          </g>
        </g>
      </g>
    </g>
  </g>
  <g class="guide ylabels" font-size="2.82" font-family="'PT Sans Caption','Helvetica Neue','Helvetica',sans-serif" fill="#6C606B" id="img-c27b5baa-39">
    <g transform="translate(16.96,78.72)" id="img-c27b5baa-40">
      <g class="primitive">
        <text text-anchor="end" dy="0.35em">0</text>
      </g>
    </g>
    <g transform="translate(16.96,54.81)" id="img-c27b5baa-41">
      <g class="primitive">
        <text text-anchor="end" dy="0.35em">10</text>
      </g>
    </g>
    <g transform="translate(16.96,30.91)" id="img-c27b5baa-42">
      <g class="primitive">
        <text text-anchor="end" dy="0.35em">20</text>
      </g>
    </g>
    <g transform="translate(16.96,7)" id="img-c27b5baa-43">
      <g class="primitive">
        <text text-anchor="end" dy="0.35em">30</text>
      </g>
    </g>
  </g>
  <g font-size="3.88" font-family="'PT Sans','Helvetica Neue','Helvetica',sans-serif" fill="#564A55" stroke="#000000" stroke-opacity="0.000" id="img-c27b5baa-44">
    <g transform="translate(8.81,40.86)" id="img-c27b5baa-45">
      <g class="primitive">
        <text text-anchor="middle" dy="0.35em" transform="rotate(-90,0, 2)">Occupied area (%)</text>
      </g>
    </g>
  </g>
</g>
<defs>
  <clipPath id="img-c27b5baa-19">
    <path d="M17.96,5 L 136.57 5 136.57 80.72 17.96 80.72" />
  </clipPath>
</defs>
</svg>
