<?xml version="1.0" encoding="UTF-8"?>
<svg xmlns="http://www.w3.org/2000/svg"
     xmlns:xlink="http://www.w3.org/1999/xlink"
     xmlns:gadfly="http://www.gadflyjl.org/ns"
     version="1.2"
     width="150mm" height="100mm" viewBox="0 0 150 100"
     stroke="none"
     fill="#000000"
     stroke-width="0.3"
     font-size="3.88"
>
<defs>
  <marker id="arrow" markerWidth="15" markerHeight="7" refX="5" refY="3.5" orient="auto" markerUnits="strokeWidth">
    <path d="M0,0 L15,3.5 L0,7 z" stroke="context-stroke" fill="context-stroke"/>
  </marker>
</defs>
<g class="plotroot xscalable yscalable" id="img-90e5d518-1">
  <g font-size="3.88" font-family="'PT Sans','Helvetica Neue','Helvetica',sans-serif" fill="#564A55" stroke="#000000" stroke-opacity="0.000" id="img-90e5d518-2">
    <g transform="translate(77.73,88.39)">
      <g class="primitive">
        <text text-anchor="middle" dy="0.6em">Productivity</text>
      </g>
    </g>
  </g>
  <g class="guide xlabels" font-size="2.82" font-family="'PT Sans Caption','Helvetica Neue','Helvetica',sans-serif" fill="#6C606B" id="img-90e5d518-3">
    <g transform="translate(19.96,81.72)">
      <g class="primitive">
        <text text-anchor="middle" dy="0.6em">0.0</text>
      </g>
    </g>
    <g transform="translate(77.73,81.72)">
      <g class="primitive">
        <text text-anchor="middle" dy="0.6em">0.5</text>
      </g>
    </g>
    <g transform="translate(135.5,81.72)">
      <g class="primitive">
        <text text-anchor="middle" dy="0.6em">1.0</text>
      </g>
    </g>
  </g>
  <g class="guide colorkey" id="img-90e5d518-4">
    <g fill="#4C404B" font-size="2.82" font-family="'PT Sans','Helvetica Neue','Helvetica',sans-serif" id="img-90e5d518-5">
      <g transform="translate(141.31,37.42)" id="img-90e5d518-6" class="color_0.0">
        <g class="primitive">
          <text dy="0.35em">0.0</text>
        </g>
      </g>
      <g transform="translate(141.31,41.04)" id="img-90e5d518-7" class="color_0.3">
        <g class="primitive">
          <text dy="0.35em">0.3</text>
        </g>
      </g>
      <g transform="translate(141.31,44.67)" id="img-90e5d518-8" class="color_0.6">
        <g class="primitive">
          <text dy="0.35em">0.6</text>
        </g>
      </g>
      <g transform="translate(141.31,48.3)" id="img-90e5d518-9" class="color_0.8">
        <g class="primitive">
          <text dy="0.35em">0.8</text>
        </g>
      </g>
      <g transform="translate(141.31,51.92)" id="img-90e5d518-10" class="color_1.0">
        <g class="primitive">
          <text dy="0.35em">1.0</text>
        </g>
      </g>
    </g>
    <g fill-opacity="1" id="img-90e5d518-11">
      <g transform="translate(139.41,37.42)" id="img-90e5d518-12" fill="#00BFFF" class="color_0.0" stroke="#FFFFFF">
        <path d="M-0.91,-0.91 L 0.91 -0.91 0.91 0.91 -0.91 0.91 z" class="primitive"/>
      </g>
      <g transform="translate(139.41,41.04)" id="img-90e5d518-13" fill="#D4CA3A" class="color_0.3" stroke="#FFFFFF">
        <path d="M-0.91,-0.91 L 0.91 -0.91 0.91 0.91 -0.91 0.91 z" class="primitive"/>
      </g>
      <g transform="translate(139.41,44.67)" id="img-90e5d518-14" fill="#FF6DAE" class="color_0.6" stroke="#FFFFFF">
        <path d="M-0.91,-0.91 L 0.91 -0.91 0.91 0.91 -0.91 0.91 z" class="primitive"/>
      </g>
      <g transform="translate(139.41,48.3)" id="img-90e5d518-15" fill="#00B78D" class="color_0.8" stroke="#FFFFFF">
        <path d="M-0.91,-0.91 L 0.91 -0.91 0.91 0.91 -0.91 0.91 z" class="primitive"/>
      </g>
      <g transform="translate(139.41,51.92)" id="img-90e5d518-16" fill="#BEA9FF" class="color_1.0" stroke="#FFFFFF">
        <path d="M-0.91,-0.91 L 0.91 -0.91 0.91 0.91 -0.91 0.91 z" class="primitive"/>
      </g>
    </g>
    <g fill="#362A35" font-size="3.88" font-family="'PT Sans','Helvetica Neue','Helvetica',sans-serif" stroke="#000000" stroke-opacity="0.000" id="img-90e5d518-17">
      <g transform="translate(138.5,33.6)" id="img-90e5d518-18">
        <g class="primitive">
          <text dy="-0em">α</text>
        </g>
      </g>
    </g>
  </g>
  <g clip-path="url(#img-90e5d518-19)">
    <g id="img-90e5d518-20">
      <g pointer-events="visible" fill="#000000" fill-opacity="0.000" stroke="#000000" stroke-opacity="0.000" class="guide background" id="img-90e5d518-21">
        <g transform="translate(77.73,42.86)" id="img-90e5d518-22">
          <path d="M-59.77,-37.86 L 59.77 -37.86 59.77 37.86 -59.77 37.86 z" class="primitive"/>
        </g>
      </g>
      <g class="guide ygridlines xfixed" stroke-dasharray="0.5,0.5" stroke-width="0.2" stroke="#D0D0E0" id="img-90e5d518-23">
        <g transform="translate(77.73,78.72)" id="img-90e5d518-24">
          <path fill="none" d="M-59.77,0 L 59.77 0" class="primitive"/>
        </g>
        <g transform="translate(77.73,60.79)" id="img-90e5d518-25">
          <path fill="none" d="M-59.77,0 L 59.77 0" class="primitive"/>
        </g>
        <g transform="translate(77.73,42.86)" id="img-90e5d518-26">
          <path fill="none" d="M-59.77,0 L 59.77 0" class="primitive"/>
        </g>
        <g transform="translate(77.73,24.93)" id="img-90e5d518-27">
          <path fill="none" d="M-59.77,0 L 59.77 0" class="primitive"/>
        </g>
        <g transform="translate(77.73,7)" id="img-90e5d518-28">
          <path fill="none" d="M-59.77,0 L 59.77 0" class="primitive"/>
        </g>
      </g>
      <g class="guide xgridlines yfixed" stroke-dasharray="0.5,0.5" stroke-width="0.2" stroke="#D0D0E0" id="img-90e5d518-29">
        <g transform="translate(19.96,42.86)" id="img-90e5d518-30">
          <path fill="none" d="M0,-37.86 L 0 37.86" class="primitive"/>
        </g>
        <g transform="translate(77.73,42.86)" id="img-90e5d518-31">
          <path fill="none" d="M0,-37.86 L 0 37.86" class="primitive"/>
        </g>
        <g transform="translate(135.5,42.86)" id="img-90e5d518-32">
          <path fill="none" d="M0,-37.86 L 0 37.86" class="primitive"/>
        </g>
      </g>
      <g class="plotpanel" id="img-90e5d518-33">
        <metadata>
          <boundingbox value="17.95833333333333mm 5.0mm 119.54166666666667mm 75.715mm"/>
          <unitbox value="-0.017309772809231877 41.115526737781494 1.0346195456184637 -42.231053475562994"/>
        </metadata>
        <g stroke-width="0.3" fill="#000000" fill-opacity="0.000" class="geometry" id="img-90e5d518-34">
          <g transform="translate(77.73,69.75)" id="img-90e5d518-35" stroke-dasharray="none" class="color_0.0" stroke="#00BFFF">
            <path fill="none" d="M-54.88,4.78 L -49.11 7.11 -43.33 4.93 -37.55 4.74 -31.77 2.31 -26 0.7 -20.22 -0.82 -14.44 -7.33 -8.67 -13.13 -2.89 -19.62 2.89 -26.09 8.67 -17.39 14.44 -1.47 20.22 7.58 26 8.87 31.77 8.96 37.55 8.96 43.33 8.96 49.11 8.96 54.88 8.96" class="primitive"/>
          </g>
          <g transform="translate(77.73,69.75)" id="img-90e5d518-36" stroke-dasharray="none" class="color_0.3" stroke="#D4CA3A">
            <path fill="none" d="M-54.88,5.3 L -49.11 7.16 -43.33 7.15 -37.55 7.13 -31.77 7.68 -26 7.4 -20.22 5.03 -14.44 2.87 -8.67 -0.32 -2.89 -5.62 2.89 -21.84 8.67 -37.6 14.44 -33.94 20.22 -3.7 26 8.48 31.77 8.96 37.55 8.96 43.33 8.96 49.11 8.96 54.88 8.96" class="primitive"/>
          </g>
          <g transform="translate(77.73,69.75)" id="img-90e5d518-37" stroke-dasharray="none" class="color_0.6" stroke="#FF6DAE">
            <path fill="none" d="M-54.88,8.92 L -49.11 8.55 -43.33 8.52 -37.55 8.92 -31.77 8.27 -26 8.66 -20.22 8.12 -14.44 5.44 -8.67 3.18 -2.89 -1.45 2.89 -17.38 8.67 -28.23 14.44 -40.87 20.22 -23.89 26 -0.81 31.77 8.2 37.55 8.96 43.33 8.96 49.11 8.96 54.88 8.96" class="primitive"/>
          </g>
          <g transform="translate(77.73,69.75)" id="img-90e5d518-38" stroke-dasharray="none" class="color_0.8" stroke="#00B78D">
            <path fill="none" d="M-54.88,8.07 L -49.11 8.96 -43.33 8.34 -37.55 8.06 -31.77 8.32 -26 7.51 -20.22 8.03 -14.44 6.84 -8.67 4.79 -2.89 -1.56 2.89 1.09 8.67 -18.15 14.44 -45.85 20.22 -42.56 26 -5.5 31.77 7.75 37.55 8.96 43.33 8.96 49.11 8.96 54.88 8.96" class="primitive"/>
          </g>
          <g transform="translate(77.73,69.75)" id="img-90e5d518-39" stroke-dasharray="none" class="color_1.0" stroke="#BEA9FF">
            <path fill="none" d="M-54.88,8.07 L -49.11 8.96 -43.33 8.96 -37.55 8.96 -31.77 8.95 -26 8.21 -20.22 7.03 -14.44 8.9 -8.67 5.16 -2.89 -2.51 2.89 -7.15 8.67 -20.48 14.44 -35.45 20.22 -36.92 26 -10.98 31.77 5.28 37.55 8.12 43.33 8.96 49.11 8.96 54.88 8.96" class="primitive"/>
          </g>
        </g>
      </g>
    </g>
  </g>
  <g class="guide ylabels" font-size="2.82" font-family="'PT Sans Caption','Helvetica Neue','Helvetica',sans-serif" fill="#6C606B" id="img-90e5d518-40">
    <g transform="translate(16.96,78.72)" id="img-90e5d518-41">
      <g class="primitive">
        <text text-anchor="end" dy="0.35em">0</text>
      </g>
    </g>
    <g transform="translate(16.96,60.79)" id="img-90e5d518-42">
      <g class="primitive">
        <text text-anchor="end" dy="0.35em">10</text>
      </g>
    </g>
    <g transform="translate(16.96,42.86)" id="img-90e5d518-43">
      <g class="primitive">
        <text text-anchor="end" dy="0.35em">20</text>
      </g>
    </g>
    <g transform="translate(16.96,24.93)" id="img-90e5d518-44">
      <g class="primitive">
        <text text-anchor="end" dy="0.35em">30</text>
      </g>
    </g>
    <g transform="translate(16.96,7)" id="img-90e5d518-45">
      <g class="primitive">
        <text text-anchor="end" dy="0.35em">40</text>
      </g>
    </g>
  </g>
  <g font-size="3.88" font-family="'PT Sans','Helvetica Neue','Helvetica',sans-serif" fill="#564A55" stroke="#000000" stroke-opacity="0.000" id="img-90e5d518-46">
    <g transform="translate(8.81,40.86)" id="img-90e5d518-47">
      <g class="primitive">
        <text text-anchor="middle" dy="0.35em" transform="rotate(-90,0, 2)">Occupied area (%)</text>
      </g>
    </g>
  </g>
</g>
<defs>
  <clipPath id="img-90e5d518-19">
    <path d="M17.96,5 L 137.5 5 137.5 80.72 17.96 80.72" />
  </clipPath>
</defs>
</svg>
