<?xml version="1.0" encoding="UTF-8"?>
<svg xmlns="http://www.w3.org/2000/svg"
     xmlns:xlink="http://www.w3.org/1999/xlink"
     xmlns:gadfly="http://www.gadflyjl.org/ns"
     version="1.2"
     width="150mm" height="100mm" viewBox="0 0 150 100"
     stroke="none"
     fill="#000000"
     stroke-width="0.3"
     font-size="3.88"
>
<defs>
  <marker id="arrow" markerWidth="15" markerHeight="7" refX="5" refY="3.5" orient="auto" markerUnits="strokeWidth">
    <path d="M0,0 L15,3.5 L0,7 z" stroke="context-stroke" fill="context-stroke"/>
  </marker>
</defs>
<g class="plotroot xscalable yscalable" id="img-549ff434-1">
  <g font-size="4.94" font-family="'PT Sans','Helvetica Neue','Helvetica',sans-serif" fill="#564A55" stroke="#000000" stroke-opacity="0.000" id="img-549ff434-2">
    <g transform="translate(77.39,87.4)">
      <g class="primitive">
        <text text-anchor="middle" dy="0.6em">Occupied area in community (%)</text>
      </g>
    </g>
  </g>
  <g class="guide xlabels" font-size="3.53" font-family="'PT Sans Caption','Helvetica Neue','Helvetica',sans-serif" fill="#6C606B" id="img-549ff434-3">
    <g transform="translate(34.3,80.06)">
      <g class="primitive">
        <text text-anchor="middle" dy="0.6em">0.1</text>
      </g>
    </g>
    <g transform="translate(67.2,80.06)">
      <g class="primitive">
        <text text-anchor="middle" dy="0.6em">1.0</text>
      </g>
    </g>
    <g transform="translate(90.23,80.06)">
      <g class="primitive">
        <text text-anchor="middle" dy="0.6em">5.0</text>
      </g>
    </g>
    <g transform="translate(100.1,80.06)">
      <g class="primitive">
        <text text-anchor="middle" dy="0.6em">10.0</text>
      </g>
    </g>
    <g transform="translate(123.1,80.06)">
      <g class="primitive">
        <text text-anchor="middle" dy="0.6em">50.0</text>
      </g>
    </g>
    <g transform="translate(133,80.06)">
      <g class="primitive">
        <text text-anchor="middle" dy="0.6em">100.0</text>
      </g>
    </g>
  </g>
  <g class="guide colorkey" id="img-549ff434-4">
    <g fill="#4C404B" font-size="4.23" font-family="'PT Sans','Helvetica Neue','Helvetica',sans-serif" id="img-549ff434-5">
      <g transform="translate(139.47,34.62)" id="img-549ff434-6" class="color_0.0">
        <g class="primitive">
          <text dy="0.35em">0.0</text>
        </g>
      </g>
      <g transform="translate(139.47,39.56)" id="img-549ff434-7" class="color_0.3">
        <g class="primitive">
          <text dy="0.35em">0.3</text>
        </g>
      </g>
      <g transform="translate(139.47,44.5)" id="img-549ff434-8" class="color_0.6">
        <g class="primitive">
          <text dy="0.35em">0.6</text>
        </g>
      </g>
      <g transform="translate(139.47,49.44)" id="img-549ff434-9" class="color_0.8">
        <g class="primitive">
          <text dy="0.35em">0.8</text>
        </g>
      </g>
      <g transform="translate(139.47,54.38)" id="img-549ff434-10" class="color_1.0">
        <g class="primitive">
          <text dy="0.35em">1.0</text>
        </g>
      </g>
    </g>
    <g fill-opacity="1" id="img-549ff434-11">
      <g transform="translate(137.24,34.62)" id="img-549ff434-12" fill="#00BFFF" class="color_0.0" stroke="#FFFFFF">
        <path d="M-1.23,-1.23 L 1.23 -1.23 1.23 1.23 -1.23 1.23 z" class="primitive"/>
      </g>
      <g transform="translate(137.24,39.56)" id="img-549ff434-13" fill="#D4CA3A" class="color_0.3" stroke="#FFFFFF">
        <path d="M-1.23,-1.23 L 1.23 -1.23 1.23 1.23 -1.23 1.23 z" class="primitive"/>
      </g>
      <g transform="translate(137.24,44.5)" id="img-549ff434-14" fill="#FF6DAE" class="color_0.6" stroke="#FFFFFF">
        <path d="M-1.23,-1.23 L 1.23 -1.23 1.23 1.23 -1.23 1.23 z" class="primitive"/>
      </g>
      <g transform="translate(137.24,49.44)" id="img-549ff434-15" fill="#00B78D" class="color_0.8" stroke="#FFFFFF">
        <path d="M-1.23,-1.23 L 1.23 -1.23 1.23 1.23 -1.23 1.23 z" class="primitive"/>
      </g>
      <g transform="translate(137.24,54.38)" id="img-549ff434-16" fill="#BEA9FF" class="color_1.0" stroke="#FFFFFF">
        <path d="M-1.23,-1.23 L 1.23 -1.23 1.23 1.23 -1.23 1.23 z" class="primitive"/>
      </g>
    </g>
    <g fill="#362A35" font-size="4.94" font-family="'PT Sans','Helvetica Neue','Helvetica',sans-serif" stroke="#000000" stroke-opacity="0.000" id="img-549ff434-17">
      <g transform="translate(136,29.98)" id="img-549ff434-18">
        <g class="primitive">
          <text dy="-0em">α</text>
        </g>
      </g>
    </g>
  </g>
  <g clip-path="url(#img-549ff434-19)">
    <g id="img-549ff434-20">
      <g pointer-events="visible" fill="#000000" fill-opacity="0.000" stroke="#000000" stroke-opacity="0.000" class="guide background" id="img-549ff434-21">
        <g transform="translate(77.39,42.03)" id="img-549ff434-22">
          <path d="M-57.61,-37.03 L 57.61 -37.03 57.61 37.03 -57.61 37.03 z" class="primitive"/>
        </g>
      </g>
      <g class="guide ygridlines xfixed" stroke-dasharray="0.5,0.5" stroke-width="0.2" stroke="#D0D0E0" id="img-549ff434-23">
        <g transform="translate(77.39,77.06)" id="img-549ff434-24">
          <path fill="none" d="M-57.61,0 L 57.61 0" class="primitive"/>
        </g>
        <g transform="translate(77.39,63.05)" id="img-549ff434-25">
          <path fill="none" d="M-57.61,0 L 57.61 0" class="primitive"/>
        </g>
        <g transform="translate(77.39,49.04)" id="img-549ff434-26">
          <path fill="none" d="M-57.61,0 L 57.61 0" class="primitive"/>
        </g>
        <g transform="translate(77.39,35.02)" id="img-549ff434-27">
          <path fill="none" d="M-57.61,0 L 57.61 0" class="primitive"/>
        </g>
        <g transform="translate(77.39,21.01)" id="img-549ff434-28">
          <path fill="none" d="M-57.61,0 L 57.61 0" class="primitive"/>
        </g>
        <g transform="translate(77.39,7)" id="img-549ff434-29">
          <path fill="none" d="M-57.61,0 L 57.61 0" class="primitive"/>
        </g>
      </g>
      <g class="guide xgridlines yfixed" stroke-dasharray="0.5,0.5" stroke-width="0.2" stroke="#D0D0E0" id="img-549ff434-30">
        <g transform="translate(34.3,42.03)" id="img-549ff434-31">
          <path fill="none" d="M0,-37.03 L 0 37.03" class="primitive"/>
        </g>
        <g transform="translate(67.2,42.03)" id="img-549ff434-32">
          <path fill="none" d="M0,-37.03 L 0 37.03" class="primitive"/>
        </g>
        <g transform="translate(90.23,42.03)" id="img-549ff434-33">
          <path fill="none" d="M0,-37.03 L 0 37.03" class="primitive"/>
        </g>
        <g transform="translate(100.1,42.03)" id="img-549ff434-34">
          <path fill="none" d="M0,-37.03 L 0 37.03" class="primitive"/>
        </g>
        <g transform="translate(123.1,42.03)" id="img-549ff434-35">
          <path fill="none" d="M0,-37.03 L 0 37.03" class="primitive"/>
        </g>
        <g transform="translate(133,42.03)" id="img-549ff434-36">
          <path fill="none" d="M0,-37.03 L 0 37.03" class="primitive"/>
        </g>
      </g>
      <g class="plotpanel" id="img-549ff434-37">
        <metadata>
          <boundingbox value="19.78mm 5.0mm 115.22mm 74.06166666666667mm"/>
          <unitbox value="-1.4411797829266415 25.7136570164379 3.5019672724678297 -26.4273140328758"/>
        </metadata>
        <g stroke-width="0.3" fill="#000000" fill-opacity="0.000" class="geometry" id="img-549ff434-38">
          <g transform="translate(74.42,60.58)" id="img-549ff434-39" stroke-dasharray="none" class="color_0.0" stroke="#00BFFF">
            <path fill="none" d="M-52.64,4.87 L -46.06 11.29 -39.48 12.48 -32.9 0.8 -26.32 -3.87 -19.74 -7.37 -13.16 -25.61 -6.58 -31.17 0 -39.43 6.58 -23.31 13.16 3.29 19.74 15.61 26.32 16.49 32.9 16.49 39.48 16.49 46.06 16.49 52.64 16.49" class="primitive"/>
          </g>
          <g transform="translate(74.42,60.58)" id="img-549ff434-40" stroke-dasharray="none" class="color_0.3" stroke="#D4CA3A">
            <path fill="none" d="M-52.64,3.1 L -46.06 11.11 -39.48 13.41 -32.9 5.53 -26.32 1.93 -19.74 0.64 -13.16 -13.71 -6.58 -17.28 0 -30.55 6.58 -34.4 13.16 -27.15 19.74 5.37 26.32 16.09 32.9 16.44 39.48 16.49 46.06 16.49 52.64 16.49" class="primitive"/>
          </g>
          <g transform="translate(74.42,60.58)" id="img-549ff434-41" stroke-dasharray="none" class="color_0.6" stroke="#FF6DAE">
            <path fill="none" d="M-52.64,-5.18 L -46.06 10.46 -39.48 13.73 -32.9 9.72 -26.32 11.23 -19.74 9.46 -13.16 4.34 -6.58 -0.74 0 -13.94 6.58 -27.52 13.16 -44.87 19.74 -31.62 26.32 1.49 32.9 14.34 39.48 16.14 46.06 16.49 52.64 16.49" class="primitive"/>
          </g>
          <g transform="translate(74.42,60.58)" id="img-549ff434-42" stroke-dasharray="none" class="color_0.8" stroke="#00B78D">
            <path fill="none" d="M-52.64,-13.24 L -46.06 8.83 -39.48 12.29 -32.9 13.45 -26.32 13.8 -19.74 12.51 -13.16 10.05 -6.58 5.82 0 1.23 6.58 -13.73 13.16 -32.92 19.74 -49.25 26.32 -22.39 32.9 8.13 39.48 14.48 46.06 15.86 52.64 15.08" class="primitive"/>
          </g>
          <g transform="translate(74.42,60.58)" id="img-549ff434-43" stroke-dasharray="none" class="color_1.0" stroke="#BEA9FF">
            <path fill="none" d="M-52.64,-15.38 L -46.06 7.57 -39.48 13.43 -32.9 13.05 -26.32 14.27 -19.74 13.51 -13.16 12.27 -6.58 10.84 0 4.14 6.58 -3.33 13.16 -27.77 19.74 -50.5 26.32 -32.85 32.9 -1.43 39.48 12.49 46.06 15.32 52.64 14.38" class="primitive"/>
          </g>
        </g>
      </g>
    </g>
  </g>
  <g class="guide ylabels" font-size="3.53" font-family="'PT Sans Caption','Helvetica Neue','Helvetica',sans-serif" fill="#6C606B" id="img-549ff434-44">
    <g transform="translate(18.78,77.06)" id="img-549ff434-45">
      <g class="primitive">
        <text text-anchor="end" dy="0.35em">0</text>
      </g>
    </g>
    <g transform="translate(18.78,63.05)" id="img-549ff434-46">
      <g class="primitive">
        <text text-anchor="end" dy="0.35em">5</text>
      </g>
    </g>
    <g transform="translate(18.78,49.04)" id="img-549ff434-47">
      <g class="primitive">
        <text text-anchor="end" dy="0.35em">10</text>
      </g>
    </g>
    <g transform="translate(18.78,35.02)" id="img-549ff434-48">
      <g class="primitive">
        <text text-anchor="end" dy="0.35em">15</text>
      </g>
    </g>
    <g transform="translate(18.78,21.01)" id="img-549ff434-49">
      <g class="primitive">
        <text text-anchor="end" dy="0.35em">20</text>
      </g>
    </g>
    <g transform="translate(18.78,7)" id="img-549ff434-50">
      <g class="primitive">
        <text text-anchor="end" dy="0.35em">25</text>
      </g>
    </g>
  </g>
  <g font-size="4.94" font-family="'PT Sans','Helvetica Neue','Helvetica',sans-serif" fill="#564A55" stroke="#000000" stroke-opacity="0.000" id="img-549ff434-51">
    <g transform="translate(9.3,40.03)" id="img-549ff434-52">
      <g class="primitive">
        <text text-anchor="middle" dy="0.35em" transform="rotate(-90,0, 2)">Percentage of varieties (%)</text>
      </g>
    </g>
  </g>
</g>
<defs>
  <clipPath id="img-549ff434-19">
    <path d="M19.78,5 L 135 5 135 79.06 19.78 79.06" />
  </clipPath>
</defs>
</svg>
