<?xml version="1.0" encoding="UTF-8"?>
<svg xmlns="http://www.w3.org/2000/svg"
     xmlns:xlink="http://www.w3.org/1999/xlink"
     xmlns:gadfly="http://www.gadflyjl.org/ns"
     version="1.2"
     width="150mm" height="100mm" viewBox="0 0 150 100"
     stroke="none"
     fill="#000000"
     stroke-width="0.3"
     font-size="3.88"
>
<defs>
  <marker id="arrow" markerWidth="15" markerHeight="7" refX="5" refY="3.5" orient="auto" markerUnits="strokeWidth">
    <path d="M0,0 L15,3.5 L0,7 z" stroke="context-stroke" fill="context-stroke"/>
  </marker>
</defs>
<g class="plotroot xscalable yscalable" id="img-7c3564ad-1">
  <g font-size="4.94" font-family="'PT Sans','Helvetica Neue','Helvetica',sans-serif" fill="#564A55" stroke="#000000" stroke-opacity="0.000" id="img-7c3564ad-2">
    <g transform="translate(77.39,87.4)">
      <g class="primitive">
        <text text-anchor="middle" dy="0.6em">Varietal richness per HD</text>
      </g>
    </g>
  </g>
  <g class="guide xlabels" font-size="3.53" font-family="'PT Sans Caption','Helvetica Neue','Helvetica',sans-serif" fill="#6C606B" id="img-7c3564ad-3">
    <g transform="translate(21.78,80.06)">
      <g class="primitive">
        <text text-anchor="middle" dy="0.6em">0</text>
      </g>
    </g>
    <g transform="translate(44.02,80.06)">
      <g class="primitive">
        <text text-anchor="middle" dy="0.6em">10</text>
      </g>
    </g>
    <g transform="translate(66.27,80.06)">
      <g class="primitive">
        <text text-anchor="middle" dy="0.6em">20</text>
      </g>
    </g>
    <g transform="translate(88.51,80.06)">
      <g class="primitive">
        <text text-anchor="middle" dy="0.6em">30</text>
      </g>
    </g>
    <g transform="translate(110.76,80.06)">
      <g class="primitive">
        <text text-anchor="middle" dy="0.6em">40</text>
      </g>
    </g>
    <g transform="translate(133,80.06)">
      <g class="primitive">
        <text text-anchor="middle" dy="0.6em">50</text>
      </g>
    </g>
  </g>
  <g class="guide colorkey" id="img-7c3564ad-4">
    <g fill="#4C404B" font-size="4.23" font-family="'PT Sans','Helvetica Neue','Helvetica',sans-serif" id="img-7c3564ad-5">
      <g transform="translate(139.47,34.62)" id="img-7c3564ad-6" class="color_0.0">
        <g class="primitive">
          <text dy="0.35em">0.0</text>
        </g>
      </g>
      <g transform="translate(139.47,39.56)" id="img-7c3564ad-7" class="color_0.3">
        <g class="primitive">
          <text dy="0.35em">0.3</text>
        </g>
      </g>
      <g transform="translate(139.47,44.5)" id="img-7c3564ad-8" class="color_0.6">
        <g class="primitive">
          <text dy="0.35em">0.6</text>
        </g>
      </g>
      <g transform="translate(139.47,49.44)" id="img-7c3564ad-9" class="color_0.8">
        <g class="primitive">
          <text dy="0.35em">0.8</text>
        </g>
      </g>
      <g transform="translate(139.47,54.38)" id="img-7c3564ad-10" class="color_1.0">
        <g class="primitive">
          <text dy="0.35em">1.0</text>
        </g>
      </g>
    </g>
    <g fill-opacity="1" id="img-7c3564ad-11">
      <g transform="translate(137.24,34.62)" id="img-7c3564ad-12" fill="#00BFFF" class="color_0.0" stroke="#FFFFFF">
        <path d="M-1.23,-1.23 L 1.23 -1.23 1.23 1.23 -1.23 1.23 z" class="primitive"/>
      </g>
      <g transform="translate(137.24,39.56)" id="img-7c3564ad-13" fill="#D4CA3A" class="color_0.3" stroke="#FFFFFF">
        <path d="M-1.23,-1.23 L 1.23 -1.23 1.23 1.23 -1.23 1.23 z" class="primitive"/>
      </g>
      <g transform="translate(137.24,44.5)" id="img-7c3564ad-14" fill="#FF6DAE" class="color_0.6" stroke="#FFFFFF">
        <path d="M-1.23,-1.23 L 1.23 -1.23 1.23 1.23 -1.23 1.23 z" class="primitive"/>
      </g>
      <g transform="translate(137.24,49.44)" id="img-7c3564ad-15" fill="#00B78D" class="color_0.8" stroke="#FFFFFF">
        <path d="M-1.23,-1.23 L 1.23 -1.23 1.23 1.23 -1.23 1.23 z" class="primitive"/>
      </g>
      <g transform="translate(137.24,54.38)" id="img-7c3564ad-16" fill="#BEA9FF" class="color_1.0" stroke="#FFFFFF">
        <path d="M-1.23,-1.23 L 1.23 -1.23 1.23 1.23 -1.23 1.23 z" class="primitive"/>
      </g>
    </g>
    <g fill="#362A35" font-size="4.94" font-family="'PT Sans','Helvetica Neue','Helvetica',sans-serif" stroke="#000000" stroke-opacity="0.000" id="img-7c3564ad-17">
      <g transform="translate(136,29.98)" id="img-7c3564ad-18">
        <g class="primitive">
          <text dy="-0em">α</text>
        </g>
      </g>
    </g>
  </g>
  <g clip-path="url(#img-7c3564ad-19)">
    <g id="img-7c3564ad-20">
      <g pointer-events="visible" fill="#000000" fill-opacity="0.000" stroke="#000000" stroke-opacity="0.000" class="guide background" id="img-7c3564ad-21">
        <g transform="translate(77.39,42.03)" id="img-7c3564ad-22">
          <path d="M-57.61,-37.03 L 57.61 -37.03 57.61 37.03 -57.61 37.03 z" class="primitive"/>
        </g>
      </g>
      <g class="guide ygridlines xfixed" stroke-dasharray="0.5,0.5" stroke-width="0.2" stroke="#D0D0E0" id="img-7c3564ad-23">
        <g transform="translate(77.39,77.06)" id="img-7c3564ad-24">
          <path fill="none" d="M-57.61,0 L 57.61 0" class="primitive"/>
        </g>
        <g transform="translate(77.39,63.05)" id="img-7c3564ad-25">
          <path fill="none" d="M-57.61,0 L 57.61 0" class="primitive"/>
        </g>
        <g transform="translate(77.39,49.04)" id="img-7c3564ad-26">
          <path fill="none" d="M-57.61,0 L 57.61 0" class="primitive"/>
        </g>
        <g transform="translate(77.39,35.02)" id="img-7c3564ad-27">
          <path fill="none" d="M-57.61,0 L 57.61 0" class="primitive"/>
        </g>
        <g transform="translate(77.39,21.01)" id="img-7c3564ad-28">
          <path fill="none" d="M-57.61,0 L 57.61 0" class="primitive"/>
        </g>
        <g transform="translate(77.39,7)" id="img-7c3564ad-29">
          <path fill="none" d="M-57.61,0 L 57.61 0" class="primitive"/>
        </g>
      </g>
      <g class="guide xgridlines yfixed" stroke-dasharray="0.5,0.5" stroke-width="0.2" stroke="#D0D0E0" id="img-7c3564ad-30">
        <g transform="translate(21.78,42.03)" id="img-7c3564ad-31">
          <path fill="none" d="M0,-37.03 L 0 37.03" class="primitive"/>
        </g>
        <g transform="translate(44.02,42.03)" id="img-7c3564ad-32">
          <path fill="none" d="M0,-37.03 L 0 37.03" class="primitive"/>
        </g>
        <g transform="translate(66.27,42.03)" id="img-7c3564ad-33">
          <path fill="none" d="M0,-37.03 L 0 37.03" class="primitive"/>
        </g>
        <g transform="translate(88.51,42.03)" id="img-7c3564ad-34">
          <path fill="none" d="M0,-37.03 L 0 37.03" class="primitive"/>
        </g>
        <g transform="translate(110.76,42.03)" id="img-7c3564ad-35">
          <path fill="none" d="M0,-37.03 L 0 37.03" class="primitive"/>
        </g>
        <g transform="translate(133,42.03)" id="img-7c3564ad-36">
          <path fill="none" d="M0,-37.03 L 0 37.03" class="primitive"/>
        </g>
      </g>
      <g class="plotpanel" id="img-7c3564ad-37">
        <metadata>
          <boundingbox value="19.78mm 5.0mm 115.22mm 74.06166666666667mm"/>
          <unitbox value="-0.8991188635137567 25.7136570164379 51.79823772702752 -26.4273140328758"/>
        </metadata>
        <g stroke-width="0.3" fill="#000000" fill-opacity="0.000" class="geometry" id="img-7c3564ad-38">
          <g transform="translate(75.17,71.34)" id="img-7c3564ad-39" stroke-dasharray="none" class="color_0.0" stroke="#00BFFF">
            <path fill="none" d="M-53.39,5.72 L -51.16 3.77 -48.94 0.46 -46.71 -4.4 -44.49 -13.73 -42.26 -24.94 -40.04 -34.95 -37.81 -40.01 -35.59 -38.03 -33.37 -28.6 -31.14 -16.39 -28.92 -8.72 -26.69 -0.29 -24.47 2.32 -22.24 4.23 -20.02 5.06 -17.8 5.52 -15.57 5.66 -13.35 5.72 -11.12 5.72 -8.9 5.72 -6.67 5.72 -4.45 5.72 -2.22 5.72 -0 5.72 2.22 5.72 4.45 5.72 6.67 5.72 8.9 5.72 11.12 5.72 13.35 5.72 15.57 5.72 17.8 5.72 20.02 5.72 22.24 5.72 24.47 5.72 26.69 5.72 28.92 5.72 31.14 5.72 33.37 5.72 35.59 5.72 37.81 5.72 40.04 5.72 42.26 5.72 44.49 5.72 46.71 5.72 48.94 5.72 51.16 5.72 53.39 5.72" class="primitive"/>
          </g>
          <g transform="translate(75.17,71.34)" id="img-7c3564ad-40" stroke-dasharray="none" class="color_0.3" stroke="#D4CA3A">
            <path fill="none" d="M-53.39,5.72 L -51.16 4.72 -48.94 0.63 -46.71 -5.89 -44.49 -17.76 -42.26 -34.03 -40.04 -39.81 -37.81 -42.32 -35.59 -37.78 -33.37 -22.48 -31.14 -12.33 -28.92 -3.77 -26.69 1.72 -24.47 4.15 -22.24 5.06 -20.02 5.46 -17.8 5.72 -15.57 5.69 -13.35 5.72 -11.12 5.72 -8.9 5.72 -6.67 5.72 -4.45 5.72 -2.22 5.72 -0 5.72 2.22 5.72 4.45 5.72 6.67 5.72 8.9 5.72 11.12 5.72 13.35 5.72 15.57 5.72 17.8 5.72 20.02 5.72 22.24 5.72 24.47 5.72 26.69 5.72 28.92 5.72 31.14 5.72 33.37 5.72 35.59 5.72 37.81 5.72 40.04 5.72 42.26 5.72 44.49 5.72 46.71 5.72 48.94 5.72 51.16 5.72 53.39 5.72" class="primitive"/>
          </g>
          <g transform="translate(75.17,71.34)" id="img-7c3564ad-41" stroke-dasharray="none" class="color_0.6" stroke="#FF6DAE">
            <path fill="none" d="M-53.39,5.72 L -51.16 5.43 -48.94 2.46 -46.71 -6.55 -44.49 -21.25 -42.26 -42.92 -40.04 -49.47 -37.81 -50.02 -35.59 -33 -33.37 -17.42 -31.14 -4.66 -28.92 1.86 -26.69 4.46 -24.47 5.26 -22.24 5.63 -20.02 5.72 -17.8 5.72 -15.57 5.72 -13.35 5.72 -11.12 5.72 -8.9 5.72 -6.67 5.72 -4.45 5.72 -2.22 5.72 -0 5.72 2.22 5.72 4.45 5.72 6.67 5.72 8.9 5.72 11.12 5.72 13.35 5.72 15.57 5.72 17.8 5.72 20.02 5.72 22.24 5.72 24.47 5.72 26.69 5.72 28.92 5.72 31.14 5.72 33.37 5.72 35.59 5.72 37.81 5.72 40.04 5.72 42.26 5.72 44.49 5.72 46.71 5.72 48.94 5.72 51.16 5.72 53.39 5.72" class="primitive"/>
          </g>
          <g transform="translate(75.17,71.34)" id="img-7c3564ad-42" stroke-dasharray="none" class="color_0.8" stroke="#00B78D">
            <path fill="none" d="M-53.39,5.72 L -51.16 4 -48.94 0.74 -46.71 -10.21 -44.49 -25.99 -42.26 -42.44 -40.04 -52.07 -37.81 -47.79 -35.59 -29.2 -33.37 -12.93 -31.14 -2.86 -28.92 2.34 -26.69 5.03 -24.47 5.52 -22.24 5.69 -20.02 5.72 -17.8 5.69 -15.57 5.72 -13.35 5.72 -11.12 5.72 -8.9 5.72 -6.67 5.72 -4.45 5.72 -2.22 5.72 -0 5.72 2.22 5.72 4.45 5.72 6.67 5.72 8.9 5.72 11.12 5.72 13.35 5.72 15.57 5.72 17.8 5.72 20.02 5.72 22.24 5.72 24.47 5.72 26.69 5.72 28.92 5.72 31.14 5.72 33.37 5.72 35.59 5.72 37.81 5.72 40.04 5.72 42.26 5.72 44.49 5.72 46.71 5.72 48.94 5.72 51.16 5.72 53.39 5.72" class="primitive"/>
          </g>
          <g transform="translate(75.17,71.34)" id="img-7c3564ad-43" stroke-dasharray="none" class="color_1.0" stroke="#BEA9FF">
            <path fill="none" d="M-53.39,5.72 L -51.16 2.97 -48.94 -2.69 -46.71 -14.9 -44.49 -34.77 -42.26 -48.93 -40.04 -46.98 -37.81 -37.43 -35.59 -23.85 -33.37 -10.98 -31.14 -2.2 -28.92 3.32 -26.69 5.12 -24.47 5.43 -22.24 5.72 -20.02 5.72 -17.8 5.72 -15.57 5.72 -13.35 5.72 -11.12 5.72 -8.9 5.72 -6.67 5.72 -4.45 5.72 -2.22 5.72 -0 5.72 2.22 5.72 4.45 5.72 6.67 5.72 8.9 5.72 11.12 5.72 13.35 5.72 15.57 5.72 17.8 5.72 20.02 5.72 22.24 5.72 24.47 5.72 26.69 5.72 28.92 5.72 31.14 5.72 33.37 5.72 35.59 5.72 37.81 5.72 40.04 5.72 42.26 5.72 44.49 5.72 46.71 5.72 48.94 5.72 51.16 5.72 53.39 5.72" class="primitive"/>
          </g>
        </g>
      </g>
    </g>
  </g>
  <g class="guide ylabels" font-size="3.53" font-family="'PT Sans Caption','Helvetica Neue','Helvetica',sans-serif" fill="#6C606B" id="img-7c3564ad-44">
    <g transform="translate(18.78,77.06)" id="img-7c3564ad-45">
      <g class="primitive">
        <text text-anchor="end" dy="0.35em">0</text>
      </g>
    </g>
    <g transform="translate(18.78,63.05)" id="img-7c3564ad-46">
      <g class="primitive">
        <text text-anchor="end" dy="0.35em">5</text>
      </g>
    </g>
    <g transform="translate(18.78,49.04)" id="img-7c3564ad-47">
      <g class="primitive">
        <text text-anchor="end" dy="0.35em">10</text>
      </g>
    </g>
    <g transform="translate(18.78,35.02)" id="img-7c3564ad-48">
      <g class="primitive">
        <text text-anchor="end" dy="0.35em">15</text>
      </g>
    </g>
    <g transform="translate(18.78,21.01)" id="img-7c3564ad-49">
      <g class="primitive">
        <text text-anchor="end" dy="0.35em">20</text>
      </g>
    </g>
    <g transform="translate(18.78,7)" id="img-7c3564ad-50">
      <g class="primitive">
        <text text-anchor="end" dy="0.35em">25</text>
      </g>
    </g>
  </g>
  <g font-size="4.94" font-family="'PT Sans','Helvetica Neue','Helvetica',sans-serif" fill="#564A55" stroke="#000000" stroke-opacity="0.000" id="img-7c3564ad-51">
    <g transform="translate(9.3,40.03)" id="img-7c3564ad-52">
      <g class="primitive">
        <text text-anchor="middle" dy="0.35em" transform="rotate(-90,0, 2)">Percentage (%)</text>
      </g>
    </g>
  </g>
</g>
<defs>
  <clipPath id="img-7c3564ad-19">
    <path d="M19.78,5 L 135 5 135 79.06 19.78 79.06" />
  </clipPath>
</defs>
</svg>
