<?xml version="1.0" encoding="UTF-8"?>
<svg xmlns="http://www.w3.org/2000/svg"
     xmlns:xlink="http://www.w3.org/1999/xlink"
     xmlns:gadfly="http://www.gadflyjl.org/ns"
     version="1.2"
     width="160mm" height="120mm" viewBox="0 0 160 120"
     stroke="none"
     fill="#000000"
     stroke-width="0.3"
     font-size="3.88"
>
<defs>
  <marker id="arrow" markerWidth="15" markerHeight="7" refX="5" refY="3.5" orient="auto" markerUnits="strokeWidth">
    <path d="M0,0 L15,3.5 L0,7 z" stroke="context-stroke" fill="context-stroke"/>
  </marker>
</defs>
<g class="plotroot xscalable yscalable" id="img-715ba270-1">
  <g font-size="4.94" font-family="'PT Sans','Helvetica Neue','Helvetica',sans-serif" fill="#564A55" stroke="#000000" stroke-opacity="0.000" id="img-715ba270-2">
    <g transform="translate(81.34,107.4)">
      <g class="primitive">
        <text text-anchor="middle" dy="0.6em">Agricultural cycle</text>
      </g>
    </g>
  </g>
  <g class="guide xlabels" font-size="3.53" font-family="'PT Sans Caption','Helvetica Neue','Helvetica',sans-serif" fill="#6C606B" id="img-715ba270-3">
    <g transform="translate(19.69,100.06)">
      <g class="primitive">
        <text text-anchor="middle" dy="0.6em">0</text>
      </g>
    </g>
    <g transform="translate(60.79,100.06)">
      <g class="primitive">
        <text text-anchor="middle" dy="0.6em">1×10³</text>
      </g>
    </g>
    <g transform="translate(101.9,100.06)">
      <g class="primitive">
        <text text-anchor="middle" dy="0.6em">2×10³</text>
      </g>
    </g>
    <g transform="translate(143,100.06)">
      <g class="primitive">
        <text text-anchor="middle" dy="0.6em">3×10³</text>
      </g>
    </g>
  </g>
  <g class="guide colorkey" id="img-715ba270-4">
    <g fill="#4C404B" font-size="4.23" font-family="'PT Sans','Helvetica Neue','Helvetica',sans-serif" id="img-715ba270-5">
      <g transform="translate(149.47,44.62)" id="img-715ba270-6" class="color_0.0">
        <g class="primitive">
          <text dy="0.35em">0.0</text>
        </g>
      </g>
      <g transform="translate(149.47,49.56)" id="img-715ba270-7" class="color_0.3">
        <g class="primitive">
          <text dy="0.35em">0.3</text>
        </g>
      </g>
      <g transform="translate(149.47,54.5)" id="img-715ba270-8" class="color_0.6">
        <g class="primitive">
          <text dy="0.35em">0.6</text>
        </g>
      </g>
      <g transform="translate(149.47,59.44)" id="img-715ba270-9" class="color_0.8">
        <g class="primitive">
          <text dy="0.35em">0.8</text>
        </g>
      </g>
      <g transform="translate(149.47,64.38)" id="img-715ba270-10" class="color_1.0">
        <g class="primitive">
          <text dy="0.35em">1.0</text>
        </g>
      </g>
    </g>
    <g fill-opacity="1" id="img-715ba270-11">
      <g transform="translate(147.24,44.62)" id="img-715ba270-12" fill="#00BFFF" class="color_0.0" stroke="#FFFFFF">
        <path d="M-1.23,-1.23 L 1.23 -1.23 1.23 1.23 -1.23 1.23 z" class="primitive"/>
      </g>
      <g transform="translate(147.24,49.56)" id="img-715ba270-13" fill="#D4CA3A" class="color_0.3" stroke="#FFFFFF">
        <path d="M-1.23,-1.23 L 1.23 -1.23 1.23 1.23 -1.23 1.23 z" class="primitive"/>
      </g>
      <g transform="translate(147.24,54.5)" id="img-715ba270-14" fill="#FF6DAE" class="color_0.6" stroke="#FFFFFF">
        <path d="M-1.23,-1.23 L 1.23 -1.23 1.23 1.23 -1.23 1.23 z" class="primitive"/>
      </g>
      <g transform="translate(147.24,59.44)" id="img-715ba270-15" fill="#00B78D" class="color_0.8" stroke="#FFFFFF">
        <path d="M-1.23,-1.23 L 1.23 -1.23 1.23 1.23 -1.23 1.23 z" class="primitive"/>
      </g>
      <g transform="translate(147.24,64.38)" id="img-715ba270-16" fill="#BEA9FF" class="color_1.0" stroke="#FFFFFF">
        <path d="M-1.23,-1.23 L 1.23 -1.23 1.23 1.23 -1.23 1.23 z" class="primitive"/>
      </g>
    </g>
    <g fill="#362A35" font-size="4.94" font-family="'PT Sans','Helvetica Neue','Helvetica',sans-serif" stroke="#000000" stroke-opacity="0.000" id="img-715ba270-17">
      <g transform="translate(146,39.98)" id="img-715ba270-18">
        <g class="primitive">
          <text dy="-0em">α</text>
        </g>
      </g>
    </g>
  </g>
  <g clip-path="url(#img-715ba270-19)">
    <g id="img-715ba270-20">
      <g pointer-events="visible" fill="#000000" fill-opacity="0.000" stroke="#000000" stroke-opacity="0.000" class="guide background" id="img-715ba270-21">
        <g transform="translate(81.34,52.03)" id="img-715ba270-22">
          <path d="M-63.66,-47.03 L 63.66 -47.03 63.66 47.03 -63.66 47.03 z" class="primitive"/>
        </g>
      </g>
      <g class="guide ygridlines xfixed" stroke-dasharray="0.5,0.5" stroke-width="0.2" stroke="#D0D0E0" id="img-715ba270-23">
        <g transform="translate(81.34,97.06)" id="img-715ba270-24">
          <path fill="none" d="M-63.66,0 L 63.66 0" class="primitive"/>
        </g>
        <g transform="translate(81.34,79.05)" id="img-715ba270-25">
          <path fill="none" d="M-63.66,0 L 63.66 0" class="primitive"/>
        </g>
        <g transform="translate(81.34,61.04)" id="img-715ba270-26">
          <path fill="none" d="M-63.66,0 L 63.66 0" class="primitive"/>
        </g>
        <g transform="translate(81.34,43.02)" id="img-715ba270-27">
          <path fill="none" d="M-63.66,0 L 63.66 0" class="primitive"/>
        </g>
        <g transform="translate(81.34,25.01)" id="img-715ba270-28">
          <path fill="none" d="M-63.66,0 L 63.66 0" class="primitive"/>
        </g>
        <g transform="translate(81.34,7)" id="img-715ba270-29">
          <path fill="none" d="M-63.66,0 L 63.66 0" class="primitive"/>
        </g>
      </g>
      <g class="guide xgridlines yfixed" stroke-dasharray="0.5,0.5" stroke-width="0.2" stroke="#D0D0E0" id="img-715ba270-30">
        <g transform="translate(19.69,52.03)" id="img-715ba270-31">
          <path fill="none" d="M0,-47.03 L 0 47.03" class="primitive"/>
        </g>
        <g transform="translate(60.79,52.03)" id="img-715ba270-32">
          <path fill="none" d="M0,-47.03 L 0 47.03" class="primitive"/>
        </g>
        <g transform="translate(101.9,52.03)" id="img-715ba270-33">
          <path fill="none" d="M0,-47.03 L 0 47.03" class="primitive"/>
        </g>
        <g transform="translate(143,52.03)" id="img-715ba270-34">
          <path fill="none" d="M0,-47.03 L 0 47.03" class="primitive"/>
        </g>
      </g>
      <g class="plotpanel" id="img-715ba270-35">
        <metadata>
          <boundingbox value="17.688333333333333mm 5.0mm 127.31166666666667mm 94.06166666666667mm"/>
          <unitbox value="-48.657196534526335 8.111035031552454 3097.3143930690526 -5.22207006310491"/>
        </metadata>
        <g stroke-width="0.3" fill="#000000" fill-opacity="0.000" class="geometry" id="img-715ba270-36">
          <g transform="translate(80.73,22.81)" id="img-715ba270-37" stroke-dasharray="none" class="color_0.0" stroke="#00BFFF">
            <path fill="none" d="M-61.04,54.82 L -59.81 31.95 -58.57 14.03 -57.34 6.5 -56.11 2.77 -54.87 1.19 -53.64 0.05 -52.41 -0.68 -51.17 -0.41 -49.94 -0.89 -48.71 -0.67 -47.47 -0.86 -46.24 -0.94 -45.01 -1.45 -43.78 -0.78 -42.54 -1.11 -41.31 -0.88 -40.08 -0.68 -38.84 -0.65 -37.61 -0.42 -36.38 -0.89 -35.14 -0.94 -33.91 -1.47 -32.68 -0.93 -31.44 -0.56 -30.21 -0.27 -28.98 -0.67 -27.75 -0.39 -26.51 -1.16 -25.28 -0.67 -24.05 -0.81 -22.81 -0.72 -21.58 -0.94 -20.35 -0.97 -19.11 -0.65 -17.88 -1.23 -16.65 -1.19 -15.41 -0.88 -14.18 -1.1 -12.95 -1.83 -11.71 -1.59 -10.48 -1.02 -9.25 -1.06 -8.02 -0.88 -6.78 -0.69 -5.55 -0.8 -4.32 -0.48 -3.08 -0.94 -1.85 -1.05 -0.62 -0.81 0.62 -0.81 1.85 -1.29 3.08 -1.2 4.32 -1.21 5.55 -0.76 6.78 -1.79 8.02 -1.78 9.25 -1.92 10.48 -2.09 11.71 -1.62 12.95 -1.03 14.18 -1.5 15.41 -1.53 16.65 -1.47 17.88 -2.09 19.11 -1.56 20.35 -1.64 21.58 -1.11 22.81 -1.42 24.05 -1.64 25.28 -1.86 26.51 -1.22 27.75 -1.77 28.98 -2.07 30.21 -1.56 31.44 -1.27 32.68 -1.37 33.91 -1.02 35.14 -1.05 36.38 -1.4 37.61 -0.93 38.84 -0.35 40.08 -1.33 41.31 -1.3 42.54 -1.35 43.78 -1.66 45.01 -1.72 46.24 -1.75 47.47 -1.62 48.71 -1.88 49.94 -1.54 51.17 -1.69 52.41 -1.34 53.64 -1.27 54.87 -1.76 56.11 -1.56 57.34 -1.79 58.57 -1.33 59.81 -1.34 61.04 -1.76" class="primitive"/>
          </g>
          <g transform="translate(80.73,31.09)" id="img-715ba270-38" stroke-dasharray="none" class="color_0.3" stroke="#D4CA3A">
            <path fill="none" d="M-61.04,46.29 L -59.81 29.26 -58.57 15.02 -57.34 8.3 -56.11 4.7 -54.87 3.67 -53.64 3 -52.41 2.43 -51.17 2.11 -49.94 1.54 -48.71 1.2 -47.47 1.26 -46.24 1.44 -45.01 0.58 -43.78 0.79 -42.54 0.93 -41.31 0.76 -40.08 0.33 -38.84 0.55 -37.61 0.21 -36.38 -0.26 -35.14 0.29 -33.91 -0.04 -32.68 -0.18 -31.44 -0.21 -30.21 0.22 -28.98 -0.3 -27.75 -0.23 -26.51 -0.89 -25.28 -0.5 -24.05 -0.37 -22.81 -0.18 -21.58 -0.53 -20.35 -0.9 -19.11 -0.44 -17.88 -0.99 -16.65 -0.94 -15.41 -1.3 -14.18 -0.44 -12.95 -0.4 -11.71 -1.01 -10.48 -0.4 -9.25 -0.52 -8.02 -0.73 -6.78 -0.57 -5.55 -0.99 -4.32 -1.03 -3.08 -1.82 -1.85 -1.57 -0.62 -1.27 0.62 -0.97 1.85 -1.38 3.08 -0.98 4.32 -0.87 5.55 -1.43 6.78 -1.79 8.02 -1.74 9.25 -1.31 10.48 -1.51 11.71 -1.69 12.95 -2.08 14.18 -1.89 15.41 -1.83 16.65 -2.12 17.88 -2.02 19.11 -1.88 20.35 -1.82 21.58 -1.67 22.81 -1.36 24.05 -1.51 25.28 -2.17 26.51 -1.98 27.75 -2.17 28.98 -2.46 30.21 -1.9 31.44 -2.31 32.68 -2.05 33.91 -2.4 35.14 -2.21 36.38 -2.28 37.61 -1.88 38.84 -2.21 40.08 -2.63 41.31 -2.75 42.54 -2.51 43.78 -2.39 45.01 -2.19 46.24 -2.64 47.47 -3.12 48.71 -2.35 49.94 -2.01 51.17 -2.33 52.41 -3.18 53.64 -2.55 54.87 -2.67 56.11 -2.6 57.34 -2.6 58.57 -3.51 59.81 -3.08 61.04 -2.88" class="primitive"/>
          </g>
          <g transform="translate(80.73,38.72)" id="img-715ba270-39" stroke-dasharray="none" class="color_0.6" stroke="#FF6DAE">
            <path fill="none" d="M-61.04,38.78 L -59.81 28.54 -58.57 17.88 -57.34 11.34 -56.11 8.71 -54.87 6.24 -53.64 5.89 -52.41 4.45 -51.17 4.51 -49.94 4.47 -48.71 3.64 -47.47 3.29 -46.24 2.84 -45.01 1.99 -43.78 2.2 -42.54 2.16 -41.31 2.11 -40.08 2.18 -38.84 1.46 -37.61 1.88 -36.38 1.37 -35.14 1.6 -33.91 1.21 -32.68 1.08 -31.44 0.54 -30.21 0.51 -28.98 0.59 -27.75 -0.2 -26.51 -0.39 -25.28 0.01 -24.05 -0.11 -22.81 -0.33 -21.58 0.01 -20.35 -0.68 -19.11 -0.4 -17.88 -0.86 -16.65 -0.57 -15.41 -0.39 -14.18 -0.45 -12.95 -0.68 -11.71 -1.54 -10.48 -1.11 -9.25 -1.64 -8.02 -1.73 -6.78 -0.83 -5.55 -1.56 -4.32 -1.34 -3.08 -1.75 -1.85 -1.82 -0.62 -1.77 0.62 -1.59 1.85 -1.41 3.08 -1.61 4.32 -1.69 5.55 -1.29 6.78 -1.37 8.02 -1.51 9.25 -2.01 10.48 -2.06 11.71 -1.82 12.95 -1.96 14.18 -2.32 15.41 -2.28 16.65 -2.77 17.88 -2.64 19.11 -2.18 20.35 -2.76 21.58 -2.89 22.81 -2.64 24.05 -3 25.28 -2.72 26.51 -2.92 27.75 -3.11 28.98 -2.86 30.21 -2.9 31.44 -3.16 32.68 -3.18 33.91 -3.2 35.14 -3.06 36.38 -3.15 37.61 -3.89 38.84 -3.59 40.08 -3.47 41.31 -3.85 42.54 -3.29 43.78 -3.32 45.01 -2.86 46.24 -3.48 47.47 -3.18 48.71 -3.21 49.94 -3.12 51.17 -3.36 52.41 -3.86 53.64 -3.27 54.87 -3.9 56.11 -3.42 57.34 -3.54 58.57 -3.28 59.81 -3.85 61.04 -3.52" class="primitive"/>
          </g>
          <g transform="translate(80.73,42.88)" id="img-715ba270-40" stroke-dasharray="none" class="color_0.8" stroke="#00B78D">
            <path fill="none" d="M-61.04,34.51 L -59.81 27.06 -58.57 17.5 -57.34 10.94 -56.11 7.91 -54.87 5.78 -53.64 4.32 -52.41 3.46 -51.17 3 -49.94 3.02 -48.71 2.71 -47.47 1.91 -46.24 2.25 -45.01 1.58 -43.78 1.29 -42.54 1.12 -41.31 0.8 -40.08 0.52 -38.84 0.3 -37.61 0.58 -36.38 0.23 -35.14 0.5 -33.91 -0.54 -32.68 0.18 -31.44 -0.38 -30.21 -0.33 -28.98 -0.14 -27.75 -0.03 -26.51 -0.34 -25.28 -0.16 -24.05 -0.51 -22.81 -0.01 -21.58 0.18 -20.35 0.19 -19.11 -0.12 -17.88 -0.17 -16.65 -0.56 -15.41 -0.67 -14.18 0.11 -12.95 -0.87 -11.71 0.3 -10.48 0.09 -9.25 -0.42 -8.02 -0.77 -6.78 -0.62 -5.55 -0.39 -4.32 -1.06 -3.08 -1.4 -1.85 -0.59 -0.62 -1.14 0.62 -1.76 1.85 -2.07 3.08 -1.64 4.32 -1.58 5.55 -1.26 6.78 -1.79 8.02 -1.58 9.25 -1.61 10.48 -1.47 11.71 -1.62 12.95 -1.76 14.18 -2.45 15.41 -1.87 16.65 -1.3 17.88 -1.67 19.11 -2.19 20.35 -1.8 21.58 -2.28 22.81 -2.29 24.05 -1.87 25.28 -1.98 26.51 -2.59 27.75 -2.43 28.98 -2.95 30.21 -2.64 31.44 -2.56 32.68 -2.87 33.91 -2.72 35.14 -3.02 36.38 -2.92 37.61 -2.76 38.84 -2.94 40.08 -3.24 41.31 -3.4 42.54 -3.34 43.78 -2.76 45.01 -2.6 46.24 -3.1 47.47 -2.9 48.71 -2.29 49.94 -2.82 51.17 -3.24 52.41 -3.07 53.64 -2.42 54.87 -2.65 56.11 -3.09 57.34 -3.02 58.57 -3.34 59.81 -2.89 61.04 -2.67" class="primitive"/>
          </g>
          <g transform="translate(80.73,49.34)" id="img-715ba270-41" stroke-dasharray="none" class="color_1.0" stroke="#BEA9FF">
            <path fill="none" d="M-61.04,27.99 L -59.81 31.26 -58.57 23.48 -57.34 17.29 -56.11 12.96 -54.87 10.11 -53.64 8.3 -52.41 6.57 -51.17 5.67 -49.94 5.18 -48.71 3.38 -47.47 2.73 -46.24 2.87 -45.01 2.65 -43.78 2.48 -42.54 2.49 -41.31 2.12 -40.08 1.78 -38.84 1.7 -37.61 0.69 -36.38 0.34 -35.14 0.42 -33.91 0.19 -32.68 0.58 -31.44 0.34 -30.21 -0.21 -28.98 0.12 -27.75 0.34 -26.51 -0.16 -25.28 -0.42 -24.05 -0.25 -22.81 -0.59 -21.58 -1.38 -20.35 -1.3 -19.11 -0.82 -17.88 -0.95 -16.65 -0.55 -15.41 -1.05 -14.18 -1.16 -12.95 -1.74 -11.71 -1.46 -10.48 -1.89 -9.25 -1.54 -8.02 -2.05 -6.78 -1.66 -5.55 -1.77 -4.32 -1.32 -3.08 -1.43 -1.85 -1.47 -0.62 -1.52 0.62 -1.88 1.85 -2 3.08 -1.04 4.32 -1.69 5.55 -1.5 6.78 -1.89 8.02 -2.04 9.25 -2.51 10.48 -2.5 11.71 -2.81 12.95 -2.14 14.18 -2.66 15.41 -2.31 16.65 -2.42 17.88 -2.53 19.11 -2.93 20.35 -2.99 21.58 -2.67 22.81 -3.15 24.05 -2.48 25.28 -3.45 26.51 -2.98 27.75 -2.76 28.98 -2.59 30.21 -2.9 31.44 -2.88 32.68 -3.39 33.91 -3.4 35.14 -3.57 36.38 -3.54 37.61 -3.42 38.84 -3.47 40.08 -3.36 41.31 -3.73 42.54 -3.91 43.78 -3.89 45.01 -3.22 46.24 -3.33 47.47 -3.84 48.71 -3.59 49.94 -3.16 51.17 -3.37 52.41 -3.25 53.64 -3.82 54.87 -3.35 56.11 -3.65 57.34 -3.57 58.57 -3.4 59.81 -3.17 61.04 -3.29" class="primitive"/>
          </g>
        </g>
      </g>
    </g>
  </g>
  <g class="guide ylabels" font-size="3.53" font-family="'PT Sans Caption','Helvetica Neue','Helvetica',sans-serif" fill="#6C606B" id="img-715ba270-42">
    <g transform="translate(16.69,97.06)" id="img-715ba270-43">
      <g class="primitive">
        <text text-anchor="end" dy="0.35em">3</text>
      </g>
    </g>
    <g transform="translate(16.69,79.05)" id="img-715ba270-44">
      <g class="primitive">
        <text text-anchor="end" dy="0.35em">4</text>
      </g>
    </g>
    <g transform="translate(16.69,61.04)" id="img-715ba270-45">
      <g class="primitive">
        <text text-anchor="end" dy="0.35em">5</text>
      </g>
    </g>
    <g transform="translate(16.69,43.02)" id="img-715ba270-46">
      <g class="primitive">
        <text text-anchor="end" dy="0.35em">6</text>
      </g>
    </g>
    <g transform="translate(16.69,25.01)" id="img-715ba270-47">
      <g class="primitive">
        <text text-anchor="end" dy="0.35em">7</text>
      </g>
    </g>
    <g transform="translate(16.69,7)" id="img-715ba270-48">
      <g class="primitive">
        <text text-anchor="end" dy="0.35em">8</text>
      </g>
    </g>
  </g>
  <g font-size="4.94" font-family="'PT Sans','Helvetica Neue','Helvetica',sans-serif" fill="#564A55" stroke="#000000" stroke-opacity="0.000" id="img-715ba270-49">
    <g transform="translate(9.3,50.03)" id="img-715ba270-50">
      <g class="primitive">
        <text text-anchor="middle" dy="0.35em" transform="rotate(-90,0, 2)">Average varietal richness per HD</text>
      </g>
    </g>
  </g>
</g>
<defs>
  <clipPath id="img-715ba270-19">
    <path d="M17.69,5 L 145 5 145 99.06 17.69 99.06" />
  </clipPath>
</defs>
</svg>
