<?xml version="1.0" encoding="UTF-8"?>
<svg xmlns="http://www.w3.org/2000/svg"
     xmlns:xlink="http://www.w3.org/1999/xlink"
     xmlns:gadfly="http://www.gadflyjl.org/ns"
     version="1.2"
     width="160mm" height="120mm" viewBox="0 0 160 120"
     stroke="none"
     fill="#000000"
     stroke-width="0.3"
     font-size="3.88"
>
<defs>
  <marker id="arrow" markerWidth="15" markerHeight="7" refX="5" refY="3.5" orient="auto" markerUnits="strokeWidth">
    <path d="M0,0 L15,3.5 L0,7 z" stroke="context-stroke" fill="context-stroke"/>
  </marker>
</defs>
<g class="plotroot xscalable yscalable" id="img-37201d2b-1">
  <g font-size="4.94" font-family="'PT Sans','Helvetica Neue','Helvetica',sans-serif" fill="#564A55" stroke="#000000" stroke-opacity="0.000" id="img-37201d2b-2">
    <g transform="translate(82.39,107.4)">
      <g class="primitive">
        <text text-anchor="middle" dy="0.6em">Agricultural cycle</text>
      </g>
    </g>
  </g>
  <g class="guide xlabels" font-size="3.53" font-family="'PT Sans Caption','Helvetica Neue','Helvetica',sans-serif" fill="#6C606B" id="img-37201d2b-3">
    <g transform="translate(21.78,100.06)">
      <g class="primitive">
        <text text-anchor="middle" dy="0.6em">0</text>
      </g>
    </g>
    <g transform="translate(62.19,100.06)">
      <g class="primitive">
        <text text-anchor="middle" dy="0.6em">1×10³</text>
      </g>
    </g>
    <g transform="translate(102.59,100.06)">
      <g class="primitive">
        <text text-anchor="middle" dy="0.6em">2×10³</text>
      </g>
    </g>
    <g transform="translate(143,100.06)">
      <g class="primitive">
        <text text-anchor="middle" dy="0.6em">3×10³</text>
      </g>
    </g>
  </g>
  <g class="guide colorkey" id="img-37201d2b-4">
    <g fill="#4C404B" font-size="4.23" font-family="'PT Sans','Helvetica Neue','Helvetica',sans-serif" id="img-37201d2b-5">
      <g transform="translate(149.47,44.62)" id="img-37201d2b-6" class="color_0.0">
        <g class="primitive">
          <text dy="0.35em">0.0</text>
        </g>
      </g>
      <g transform="translate(149.47,49.56)" id="img-37201d2b-7" class="color_0.3">
        <g class="primitive">
          <text dy="0.35em">0.3</text>
        </g>
      </g>
      <g transform="translate(149.47,54.5)" id="img-37201d2b-8" class="color_0.6">
        <g class="primitive">
          <text dy="0.35em">0.6</text>
        </g>
      </g>
      <g transform="translate(149.47,59.44)" id="img-37201d2b-9" class="color_0.8">
        <g class="primitive">
          <text dy="0.35em">0.8</text>
        </g>
      </g>
      <g transform="translate(149.47,64.38)" id="img-37201d2b-10" class="color_1.0">
        <g class="primitive">
          <text dy="0.35em">1.0</text>
        </g>
      </g>
    </g>
    <g fill-opacity="1" id="img-37201d2b-11">
      <g transform="translate(147.24,44.62)" id="img-37201d2b-12" fill="#00BFFF" class="color_0.0" stroke="#FFFFFF">
        <path d="M-1.23,-1.23 L 1.23 -1.23 1.23 1.23 -1.23 1.23 z" class="primitive"/>
      </g>
      <g transform="translate(147.24,49.56)" id="img-37201d2b-13" fill="#D4CA3A" class="color_0.3" stroke="#FFFFFF">
        <path d="M-1.23,-1.23 L 1.23 -1.23 1.23 1.23 -1.23 1.23 z" class="primitive"/>
      </g>
      <g transform="translate(147.24,54.5)" id="img-37201d2b-14" fill="#FF6DAE" class="color_0.6" stroke="#FFFFFF">
        <path d="M-1.23,-1.23 L 1.23 -1.23 1.23 1.23 -1.23 1.23 z" class="primitive"/>
      </g>
      <g transform="translate(147.24,59.44)" id="img-37201d2b-15" fill="#00B78D" class="color_0.8" stroke="#FFFFFF">
        <path d="M-1.23,-1.23 L 1.23 -1.23 1.23 1.23 -1.23 1.23 z" class="primitive"/>
      </g>
      <g transform="translate(147.24,64.38)" id="img-37201d2b-16" fill="#BEA9FF" class="color_1.0" stroke="#FFFFFF">
        <path d="M-1.23,-1.23 L 1.23 -1.23 1.23 1.23 -1.23 1.23 z" class="primitive"/>
      </g>
    </g>
    <g fill="#362A35" font-size="4.94" font-family="'PT Sans','Helvetica Neue','Helvetica',sans-serif" stroke="#000000" stroke-opacity="0.000" id="img-37201d2b-17">
      <g transform="translate(146,39.98)" id="img-37201d2b-18">
        <g class="primitive">
          <text dy="-0em">α</text>
        </g>
      </g>
    </g>
  </g>
  <g clip-path="url(#img-37201d2b-19)">
    <g id="img-37201d2b-20">
      <g pointer-events="visible" fill="#000000" fill-opacity="0.000" stroke="#000000" stroke-opacity="0.000" class="guide background" id="img-37201d2b-21">
        <g transform="translate(82.39,52.03)" id="img-37201d2b-22">
          <path d="M-62.61,-47.03 L 62.61 -47.03 62.61 47.03 -62.61 47.03 z" class="primitive"/>
        </g>
      </g>
      <g class="guide ygridlines xfixed" stroke-dasharray="0.5,0.5" stroke-width="0.2" stroke="#D0D0E0" id="img-37201d2b-23">
        <g transform="translate(82.39,97.06)" id="img-37201d2b-24">
          <path fill="none" d="M-62.61,0 L 62.61 0" class="primitive"/>
        </g>
        <g transform="translate(82.39,74.55)" id="img-37201d2b-25">
          <path fill="none" d="M-62.61,0 L 62.61 0" class="primitive"/>
        </g>
        <g transform="translate(82.39,52.03)" id="img-37201d2b-26">
          <path fill="none" d="M-62.61,0 L 62.61 0" class="primitive"/>
        </g>
        <g transform="translate(82.39,29.52)" id="img-37201d2b-27">
          <path fill="none" d="M-62.61,0 L 62.61 0" class="primitive"/>
        </g>
        <g transform="translate(82.39,7)" id="img-37201d2b-28">
          <path fill="none" d="M-62.61,0 L 62.61 0" class="primitive"/>
        </g>
      </g>
      <g class="guide xgridlines yfixed" stroke-dasharray="0.5,0.5" stroke-width="0.2" stroke="#D0D0E0" id="img-37201d2b-29">
        <g transform="translate(21.78,52.03)" id="img-37201d2b-30">
          <path fill="none" d="M0,-47.03 L 0 47.03" class="primitive"/>
        </g>
        <g transform="translate(62.19,52.03)" id="img-37201d2b-31">
          <path fill="none" d="M0,-47.03 L 0 47.03" class="primitive"/>
        </g>
        <g transform="translate(102.59,52.03)" id="img-37201d2b-32">
          <path fill="none" d="M0,-47.03 L 0 47.03" class="primitive"/>
        </g>
        <g transform="translate(143,52.03)" id="img-37201d2b-33">
          <path fill="none" d="M0,-47.03 L 0 47.03" class="primitive"/>
        </g>
      </g>
      <g class="plotpanel" id="img-37201d2b-34">
        <metadata>
          <boundingbox value="19.78mm 5.0mm 125.22mm 94.06166666666667mm"/>
          <unitbox value="-49.496782709123906 81.77656050483928 3098.9935654182477 -83.55312100967856"/>
        </metadata>
        <g stroke-width="0.3" fill="#000000" fill-opacity="0.000" class="geometry" id="img-37201d2b-35">
          <g transform="translate(81.78,32.98)" id="img-37201d2b-36" stroke-dasharray="none" class="color_0.0" stroke="#00BFFF">
            <path fill="none" d="M-60,52.88 L -58.79 50.66 -57.58 25.1 -56.37 11.36 -55.16 2.5 -53.94 -2.39 -52.73 -5.58 -51.52 -6.97 -50.31 -8.4 -49.09 -8.92 -47.88 -8.45 -46.67 -8.36 -45.46 -8.04 -44.25 -8.34 -43.03 -7.9 -41.82 -7.29 -40.61 -6.62 -39.4 -6.37 -38.18 -5.87 -36.97 -5.26 -35.76 -4.43 -34.55 -4.14 -33.34 -4.02 -32.12 -4.13 -30.91 -3.42 -29.7 -3.02 -28.49 -2.83 -27.27 -2.53 -26.06 -2.48 -24.85 -2.38 -23.64 -1.93 -22.43 -1.55 -21.21 -1.93 -20 -2.08 -18.79 -1.75 -17.58 -1.59 -16.36 -1.46 -15.15 -1.71 -13.94 -1.07 -12.73 -1.33 -11.52 -1.4 -10.3 -1.85 -9.09 -1.25 -7.88 -0.55 -6.67 -0.36 -5.45 -0.29 -4.24 -0.29 -3.03 -0.42 -1.82 -0.31 -0.61 0.02 0.61 0.28 1.82 0.08 3.03 -0.29 4.24 -0.27 5.45 -0.37 6.67 -0.38 7.88 -0.37 9.09 -0.37 10.3 0.03 11.52 -0.29 12.73 0.44 13.94 0.68 15.15 0.22 16.36 0.36 17.58 -0.02 18.79 0.13 20 -0.05 21.21 -0.03 22.43 0.42 23.64 0.71 24.85 0.33 26.06 0.08 27.27 0.67 28.49 0.6 29.7 0.06 30.91 -0.2 32.12 0.94 33.34 0.73 34.55 0.92 35.76 1.38 36.97 1.22 38.18 1.32 39.4 1.24 40.61 0.57 41.82 0.65 43.03 0.61 44.25 0.9 45.46 0.13 46.67 0.63 47.88 0.76 49.09 0.48 50.31 0.58 51.52 0.52 52.73 -0.07 53.94 0.54 55.16 0.36 56.37 0.6 57.58 0.34 58.79 0.51 60 0.42" class="primitive"/>
          </g>
          <g transform="translate(81.78,48.27)" id="img-37201d2b-37" stroke-dasharray="none" class="color_0.3" stroke="#D4CA3A">
            <path fill="none" d="M-60,37.55 L -58.79 35.09 -57.58 10.06 -56.37 -2.5 -55.16 -10.06 -53.94 -13.71 -52.73 -15.23 -51.52 -15.5 -50.31 -15.89 -49.09 -14.95 -47.88 -14.2 -46.67 -14.04 -45.46 -12.75 -44.25 -12.05 -43.03 -11.38 -41.82 -10.72 -40.61 -10.03 -39.4 -9.32 -38.18 -9.26 -36.97 -8.15 -35.76 -7.64 -34.55 -7.09 -33.34 -6.97 -32.12 -6.05 -30.91 -5.12 -29.7 -4.87 -28.49 -4.58 -27.27 -4.03 -26.06 -3.52 -24.85 -3.65 -23.64 -3.21 -22.43 -2.64 -21.21 -2.73 -20 -2.39 -18.79 -1.69 -17.58 -1.8 -16.36 -1.73 -15.15 -1.57 -13.94 -1.34 -12.73 -0.6 -11.52 -0.05 -10.3 -0.09 -9.09 0.41 -7.88 0.81 -6.67 1.03 -5.45 0.5 -4.24 0.8 -3.03 1.28 -1.82 1.24 -0.61 1.29 0.61 1.59 1.82 1.46 3.03 1.75 4.24 2.02 5.45 1.92 6.67 2.01 7.88 2.1 9.09 2.07 10.3 2.49 11.52 1.99 12.73 2.1 13.94 2.5 15.15 2.13 16.36 2.46 17.58 2.64 18.79 2.92 20 3.1 21.21 2.74 22.43 3.02 23.64 3.58 24.85 3.77 26.06 3.98 27.27 4.18 28.49 3.68 29.7 3.76 30.91 4.11 32.12 3.66 33.34 4.27 34.55 4.03 35.76 4.88 36.97 4.89 38.18 4.69 39.4 4.75 40.61 4.78 41.82 4.55 43.03 4.59 44.25 4.91 45.46 4.93 46.67 4.9 47.88 4.77 49.09 4.75 50.31 4.93 51.52 4.82 52.73 4.88 53.94 5.16 55.16 4.74 56.37 4.66 57.58 4.78 58.79 4.96 60 4.68" class="primitive"/>
          </g>
          <g transform="translate(81.78,66.43)" id="img-37201d2b-38" stroke-dasharray="none" class="color_0.6" stroke="#FF6DAE">
            <path fill="none" d="M-60,19.42 L -58.79 17.26 -57.58 -6.38 -56.37 -14.5 -55.16 -17.63 -53.94 -18.23 -52.73 -17.26 -51.52 -16.31 -50.31 -15.35 -49.09 -14.43 -47.88 -13.99 -46.67 -12.83 -45.46 -12.02 -44.25 -10.47 -43.03 -9.97 -41.82 -8.86 -40.61 -8.3 -39.4 -7.31 -38.18 -6.99 -36.97 -6.01 -35.76 -5.08 -34.55 -4.62 -33.34 -4.12 -32.12 -3.63 -30.91 -3.51 -29.7 -3.15 -28.49 -2.97 -27.27 -2.51 -26.06 -2.11 -24.85 -1.54 -23.64 -0.92 -22.43 -0.78 -21.21 -0.59 -20 -0.23 -18.79 0.24 -17.58 0.16 -16.36 0.54 -15.15 0.48 -13.94 0.83 -12.73 0.89 -11.52 1.13 -10.3 1 -9.09 1.16 -7.88 1.7 -6.67 1.54 -5.45 1.94 -4.24 2.08 -3.03 2.36 -1.82 2.39 -0.61 2.22 0.61 2.72 1.82 2.33 3.03 2.95 4.24 2.79 5.45 2.82 6.67 2.65 7.88 2.97 9.09 2.8 10.3 2.87 11.52 3.05 12.73 3.22 13.94 3.09 15.15 3.02 16.36 3.22 17.58 3.25 18.79 3.09 20 3.45 21.21 3.21 22.43 3.51 23.64 3.7 24.85 3.88 26.06 3.84 27.27 3.84 28.49 3.8 29.7 3.6 30.91 3.76 32.12 4.01 33.34 4.1 34.55 4.1 35.76 4.01 36.97 4.09 38.18 4.37 39.4 4.45 40.61 4.63 41.82 4.36 43.03 4.67 44.25 4.83 45.46 4.68 46.67 4.7 47.88 4.92 49.09 4.86 50.31 4.8 51.52 4.85 52.73 4.8 53.94 4.88 55.16 4.98 56.37 4.97 57.58 5.16 58.79 5.44 60 5.15" class="primitive"/>
          </g>
          <g transform="translate(81.78,74.24)" id="img-37201d2b-39" stroke-dasharray="none" class="color_0.8" stroke="#00B78D">
            <path fill="none" d="M-60,11.58 L -58.79 9.28 -57.58 -11.73 -56.37 -17.31 -55.16 -18.26 -53.94 -17.29 -52.73 -15.26 -51.52 -13.9 -50.31 -12.55 -49.09 -11.09 -47.88 -9.87 -46.67 -7.97 -45.46 -7.2 -44.25 -6.81 -43.03 -5.95 -41.82 -4.93 -40.61 -4.26 -39.4 -4.15 -38.18 -3.75 -36.97 -3.77 -35.76 -3.03 -34.55 -2.82 -33.34 -2.51 -32.12 -2.07 -30.91 -1.59 -29.7 -1.13 -28.49 -0.96 -27.27 -0.86 -26.06 -0.69 -24.85 -0.3 -23.64 -0.16 -22.43 -0.09 -21.21 0.33 -20 0.35 -18.79 0.57 -17.58 0.88 -16.36 1.06 -15.15 1 -13.94 0.62 -12.73 1.1 -11.52 1.03 -10.3 1.59 -9.09 1.09 -7.88 1.4 -6.67 1.79 -5.45 1.85 -4.24 1.75 -3.03 1.93 -1.82 1.79 -0.61 1.86 0.61 2 1.82 2.03 3.03 2.02 4.24 1.7 5.45 1.99 6.67 2.31 7.88 2.62 9.09 2.31 10.3 2.41 11.52 2.22 12.73 2.19 13.94 2.55 15.15 2.52 16.36 2.55 17.58 3 18.79 2.74 20 2.79 21.21 3.13 22.43 3.04 23.64 2.75 24.85 2.92 26.06 3.2 27.27 3.01 28.49 3.04 29.7 2.75 30.91 2.88 32.12 2.9 33.34 3.08 34.55 3.13 35.76 3.11 36.97 3.19 38.18 3.18 39.4 3.17 40.61 3.02 41.82 3.12 43.03 3.13 44.25 3.31 45.46 3.25 46.67 3.62 47.88 3.5 49.09 3.65 50.31 3.66 51.52 4.05 52.73 3.66 53.94 3.73 55.16 3.7 56.37 4.17 57.58 3.87 58.79 3.79 60 3.74" class="primitive"/>
          </g>
          <g transform="translate(81.78,78.12)" id="img-37201d2b-40" stroke-dasharray="none" class="color_1.0" stroke="#BEA9FF">
            <path fill="none" d="M-60,7.73 L -58.79 5.39 -57.58 -11.14 -56.37 -12.39 -55.16 -12.54 -53.94 -11.39 -52.73 -10.29 -51.52 -9.4 -50.31 -7.9 -49.09 -7.17 -47.88 -6.4 -46.67 -5.6 -45.46 -5.25 -44.25 -4.63 -43.03 -4.08 -41.82 -3.54 -40.61 -3 -39.4 -2.61 -38.18 -2.43 -36.97 -1.99 -35.76 -1.74 -34.55 -1.6 -33.34 -1.3 -32.12 -1.09 -30.91 -0.64 -29.7 -0.71 -28.49 -0.38 -27.27 -0.05 -26.06 0.06 -24.85 0.2 -23.64 0.36 -22.43 0.54 -21.21 0.32 -20 0.4 -18.79 0.34 -17.58 0.8 -16.36 0.51 -15.15 0.78 -13.94 0.8 -12.73 0.94 -11.52 0.73 -10.3 0.92 -9.09 0.54 -7.88 0.97 -6.67 0.97 -5.45 1.05 -4.24 1.27 -3.03 1.39 -1.82 1.54 -0.61 1.52 0.61 1.99 1.82 1.83 3.03 1.69 4.24 1.82 5.45 1.72 6.67 1.49 7.88 1.28 9.09 1.58 10.3 1.39 11.52 1.64 12.73 1.41 13.94 1.93 15.15 1.77 16.36 1.83 17.58 1.76 18.79 1.72 20 1.86 21.21 1.63 22.43 1.89 23.64 2.15 24.85 1.84 26.06 1.92 27.27 2.04 28.49 2.1 29.7 2.41 30.91 2.06 32.12 1.98 33.34 1.98 34.55 1.87 35.76 1.92 36.97 1.93 38.18 1.85 39.4 1.99 40.61 1.86 41.82 1.97 43.03 1.9 44.25 1.89 45.46 2 46.67 2.33 47.88 2.25 49.09 2.4 50.31 2.47 51.52 2.5 52.73 2.41 53.94 2.71 55.16 2.33 56.37 2.35 57.58 2.39 58.79 2.58 60 2.54" class="primitive"/>
          </g>
        </g>
      </g>
    </g>
  </g>
  <g class="guide ylabels" font-size="3.53" font-family="'PT Sans Caption','Helvetica Neue','Helvetica',sans-serif" fill="#6C606B" id="img-37201d2b-41">
    <g transform="translate(18.78,97.06)" id="img-37201d2b-42">
      <g class="primitive">
        <text text-anchor="end" dy="0.35em">0</text>
      </g>
    </g>
    <g transform="translate(18.78,74.55)" id="img-37201d2b-43">
      <g class="primitive">
        <text text-anchor="end" dy="0.35em">20</text>
      </g>
    </g>
    <g transform="translate(18.78,52.03)" id="img-37201d2b-44">
      <g class="primitive">
        <text text-anchor="end" dy="0.35em">40</text>
      </g>
    </g>
    <g transform="translate(18.78,29.52)" id="img-37201d2b-45">
      <g class="primitive">
        <text text-anchor="end" dy="0.35em">60</text>
      </g>
    </g>
    <g transform="translate(18.78,7)" id="img-37201d2b-46">
      <g class="primitive">
        <text text-anchor="end" dy="0.35em">80</text>
      </g>
    </g>
  </g>
  <g font-size="4.94" font-family="'PT Sans','Helvetica Neue','Helvetica',sans-serif" fill="#564A55" stroke="#000000" stroke-opacity="0.000" id="img-37201d2b-47">
    <g transform="translate(9.3,50.03)" id="img-37201d2b-48">
      <g class="primitive">
        <text text-anchor="middle" dy="0.35em" transform="rotate(-90,0, 2)">Varietal richness in community</text>
      </g>
    </g>
  </g>
</g>
<defs>
  <clipPath id="img-37201d2b-19">
    <path d="M19.78,5 L 145 5 145 99.06 19.78 99.06" />
  </clipPath>
</defs>
</svg>
