<?xml version="1.0" encoding="UTF-8"?>
<svg xmlns="http://www.w3.org/2000/svg"
     xmlns:xlink="http://www.w3.org/1999/xlink"
     xmlns:gadfly="http://www.gadflyjl.org/ns"
     version="1.2"
     width="150mm" height="100mm" viewBox="0 0 150 100"
     stroke="none"
     fill="#000000"
     stroke-width="0.3"
     font-size="3.88"
>
<defs>
  <marker id="arrow" markerWidth="15" markerHeight="7" refX="5" refY="3.5" orient="auto" markerUnits="strokeWidth">
    <path d="M0,0 L15,3.5 L0,7 z" stroke="context-stroke" fill="context-stroke"/>
  </marker>
</defs>
<g class="plotroot xscalable yscalable" id="img-53f6119e-1">
  <g font-size="3.88" font-family="'PT Sans','Helvetica Neue','Helvetica',sans-serif" fill="#564A55" stroke="#000000" stroke-opacity="0.000" id="img-53f6119e-2">
    <g transform="translate(77.73,88.39)">
      <g class="primitive">
        <text text-anchor="middle" dy="0.6em">Quality</text>
      </g>
    </g>
  </g>
  <g class="guide xlabels" font-size="2.82" font-family="'PT Sans Caption','Helvetica Neue','Helvetica',sans-serif" fill="#6C606B" id="img-53f6119e-3">
    <g transform="translate(19.96,81.72)">
      <g class="primitive">
        <text text-anchor="middle" dy="0.6em">0.0</text>
      </g>
    </g>
    <g transform="translate(77.73,81.72)">
      <g class="primitive">
        <text text-anchor="middle" dy="0.6em">0.5</text>
      </g>
    </g>
    <g transform="translate(135.5,81.72)">
      <g class="primitive">
        <text text-anchor="middle" dy="0.6em">1.0</text>
      </g>
    </g>
  </g>
  <g class="guide colorkey" id="img-53f6119e-4">
    <g fill="#4C404B" font-size="2.82" font-family="'PT Sans','Helvetica Neue','Helvetica',sans-serif" id="img-53f6119e-5">
      <g transform="translate(141.31,37.42)" id="img-53f6119e-6" class="color_0.0">
        <g class="primitive">
          <text dy="0.35em">0.0</text>
        </g>
      </g>
      <g transform="translate(141.31,41.04)" id="img-53f6119e-7" class="color_0.3">
        <g class="primitive">
          <text dy="0.35em">0.3</text>
        </g>
      </g>
      <g transform="translate(141.31,44.67)" id="img-53f6119e-8" class="color_0.6">
        <g class="primitive">
          <text dy="0.35em">0.6</text>
        </g>
      </g>
      <g transform="translate(141.31,48.3)" id="img-53f6119e-9" class="color_0.8">
        <g class="primitive">
          <text dy="0.35em">0.8</text>
        </g>
      </g>
      <g transform="translate(141.31,51.92)" id="img-53f6119e-10" class="color_1.0">
        <g class="primitive">
          <text dy="0.35em">1.0</text>
        </g>
      </g>
    </g>
    <g fill-opacity="1" id="img-53f6119e-11">
      <g transform="translate(139.41,37.42)" id="img-53f6119e-12" fill="#00BFFF" class="color_0.0" stroke="#FFFFFF">
        <path d="M-0.91,-0.91 L 0.91 -0.91 0.91 0.91 -0.91 0.91 z" class="primitive"/>
      </g>
      <g transform="translate(139.41,41.04)" id="img-53f6119e-13" fill="#D4CA3A" class="color_0.3" stroke="#FFFFFF">
        <path d="M-0.91,-0.91 L 0.91 -0.91 0.91 0.91 -0.91 0.91 z" class="primitive"/>
      </g>
      <g transform="translate(139.41,44.67)" id="img-53f6119e-14" fill="#FF6DAE" class="color_0.6" stroke="#FFFFFF">
        <path d="M-0.91,-0.91 L 0.91 -0.91 0.91 0.91 -0.91 0.91 z" class="primitive"/>
      </g>
      <g transform="translate(139.41,48.3)" id="img-53f6119e-15" fill="#00B78D" class="color_0.8" stroke="#FFFFFF">
        <path d="M-0.91,-0.91 L 0.91 -0.91 0.91 0.91 -0.91 0.91 z" class="primitive"/>
      </g>
      <g transform="translate(139.41,51.92)" id="img-53f6119e-16" fill="#BEA9FF" class="color_1.0" stroke="#FFFFFF">
        <path d="M-0.91,-0.91 L 0.91 -0.91 0.91 0.91 -0.91 0.91 z" class="primitive"/>
      </g>
    </g>
    <g fill="#362A35" font-size="3.88" font-family="'PT Sans','Helvetica Neue','Helvetica',sans-serif" stroke="#000000" stroke-opacity="0.000" id="img-53f6119e-17">
      <g transform="translate(138.5,33.6)" id="img-53f6119e-18">
        <g class="primitive">
          <text dy="-0em">α</text>
        </g>
      </g>
    </g>
  </g>
  <g clip-path="url(#img-53f6119e-19)">
    <g id="img-53f6119e-20">
      <g pointer-events="visible" fill="#000000" fill-opacity="0.000" stroke="#000000" stroke-opacity="0.000" class="guide background" id="img-53f6119e-21">
        <g transform="translate(77.73,42.86)" id="img-53f6119e-22">
          <path d="M-59.77,-37.86 L 59.77 -37.86 59.77 37.86 -59.77 37.86 z" class="primitive"/>
        </g>
      </g>
      <g class="guide ygridlines xfixed" stroke-dasharray="0.5,0.5" stroke-width="0.2" stroke="#D0D0E0" id="img-53f6119e-23">
        <g transform="translate(77.73,78.72)" id="img-53f6119e-24">
          <path fill="none" d="M-59.77,0 L 59.77 0" class="primitive"/>
        </g>
        <g transform="translate(77.73,60.79)" id="img-53f6119e-25">
          <path fill="none" d="M-59.77,0 L 59.77 0" class="primitive"/>
        </g>
        <g transform="translate(77.73,42.86)" id="img-53f6119e-26">
          <path fill="none" d="M-59.77,0 L 59.77 0" class="primitive"/>
        </g>
        <g transform="translate(77.73,24.93)" id="img-53f6119e-27">
          <path fill="none" d="M-59.77,0 L 59.77 0" class="primitive"/>
        </g>
        <g transform="translate(77.73,7)" id="img-53f6119e-28">
          <path fill="none" d="M-59.77,0 L 59.77 0" class="primitive"/>
        </g>
      </g>
      <g class="guide xgridlines yfixed" stroke-dasharray="0.5,0.5" stroke-width="0.2" stroke="#D0D0E0" id="img-53f6119e-29">
        <g transform="translate(19.96,42.86)" id="img-53f6119e-30">
          <path fill="none" d="M0,-37.86 L 0 37.86" class="primitive"/>
        </g>
        <g transform="translate(77.73,42.86)" id="img-53f6119e-31">
          <path fill="none" d="M0,-37.86 L 0 37.86" class="primitive"/>
        </g>
        <g transform="translate(135.5,42.86)" id="img-53f6119e-32">
          <path fill="none" d="M0,-37.86 L 0 37.86" class="primitive"/>
        </g>
      </g>
      <g class="plotpanel" id="img-53f6119e-33">
        <metadata>
          <boundingbox value="17.958333333333343mm 5.0mm 119.54166666666666mm 75.715mm"/>
          <unitbox value="-0.01730977280923188 41.115526737781494 1.0346195456184637 -42.231053475562994"/>
        </metadata>
        <g stroke-width="0.3" fill="#000000" fill-opacity="0.000" class="geometry" id="img-53f6119e-34">
          <g transform="translate(77.73,69.75)" id="img-53f6119e-35" stroke-dasharray="none" class="color_0.0" stroke="#00BFFF">
            <path fill="none" d="M-54.88,8.96 L -49.11 8.96 -43.33 8.96 -37.55 8.96 -31.77 8.84 -26 8.38 -20.22 6.79 -14.44 -0.14 -8.67 -23.5 -2.89 -34.84 2.89 -32.25 8.67 -25.01 14.44 -3.41 20.22 6.51 26 8.37 31.77 8.62 37.55 8.89 43.33 8.96 49.11 8.96 54.88 8.96" class="primitive"/>
          </g>
          <g transform="translate(77.73,69.75)" id="img-53f6119e-36" stroke-dasharray="none" class="color_0.3" stroke="#D4CA3A">
            <path fill="none" d="M-54.88,8.96 L -49.11 8.96 -43.33 8.96 -37.55 8.92 -31.77 8.83 -26 8.41 -20.22 7.05 -14.44 0.13 -8.67 -21.24 -2.89 -37.75 2.89 -35.3 8.67 -25.2 14.44 -0.68 20.22 6.95 26 8.41 31.77 8.77 37.55 8.92 43.33 8.96 49.11 8.96 54.88 8.96" class="primitive"/>
          </g>
          <g transform="translate(77.73,69.75)" id="img-53f6119e-37" stroke-dasharray="none" class="color_0.6" stroke="#FF6DAE">
            <path fill="none" d="M-54.88,8.96 L -49.11 8.96 -43.33 8.96 -37.55 8.93 -31.77 8.93 -26 8.91 -20.22 8.33 -14.44 4.63 -8.67 -13.18 -2.89 -47.74 2.89 -50.12 8.67 -20.78 14.44 3.34 20.22 8.22 26 8.84 31.77 8.94 37.55 8.96 43.33 8.96 49.11 8.96 54.88 8.96" class="primitive"/>
          </g>
          <g transform="translate(77.73,69.75)" id="img-53f6119e-38" stroke-dasharray="none" class="color_0.8" stroke="#00B78D">
            <path fill="none" d="M-54.88,8.96 L -49.11 8.96 -43.33 8.96 -37.55 8.96 -31.77 8.95 -26 8.91 -20.22 8.44 -14.44 2.77 -8.67 -15.46 -2.89 -45.8 2.89 -48.34 8.67 -17.12 14.44 2.3 20.22 6.03 26 8.75 31.77 8.87 37.55 8.96 43.33 8.96 49.11 8.96 54.88 8.96" class="primitive"/>
          </g>
          <g transform="translate(77.73,69.75)" id="img-53f6119e-39" stroke-dasharray="none" class="color_1.0" stroke="#BEA9FF">
            <path fill="none" d="M-54.88,8.96 L -49.11 8.96 -43.33 8.87 -37.55 8.14 -31.77 5.53 -26 1.47 -20.22 -2.01 -14.44 -5.4 -8.67 -12.17 -2.89 -17.97 2.89 -20.38 8.67 -18.45 14.44 -10.29 20.22 0.22 26 3.42 31.77 6.12 37.55 8.34 43.33 8.7 49.11 8.96 54.88 8.96" class="primitive"/>
          </g>
        </g>
      </g>
    </g>
  </g>
  <g class="guide ylabels" font-size="2.82" font-family="'PT Sans Caption','Helvetica Neue','Helvetica',sans-serif" fill="#6C606B" id="img-53f6119e-40">
    <g transform="translate(16.96,78.72)" id="img-53f6119e-41">
      <g class="primitive">
        <text text-anchor="end" dy="0.35em">0</text>
      </g>
    </g>
    <g transform="translate(16.96,60.79)" id="img-53f6119e-42">
      <g class="primitive">
        <text text-anchor="end" dy="0.35em">10</text>
      </g>
    </g>
    <g transform="translate(16.96,42.86)" id="img-53f6119e-43">
      <g class="primitive">
        <text text-anchor="end" dy="0.35em">20</text>
      </g>
    </g>
    <g transform="translate(16.96,24.93)" id="img-53f6119e-44">
      <g class="primitive">
        <text text-anchor="end" dy="0.35em">30</text>
      </g>
    </g>
    <g transform="translate(16.96,7)" id="img-53f6119e-45">
      <g class="primitive">
        <text text-anchor="end" dy="0.35em">40</text>
      </g>
    </g>
  </g>
  <g font-size="3.88" font-family="'PT Sans','Helvetica Neue','Helvetica',sans-serif" fill="#564A55" stroke="#000000" stroke-opacity="0.000" id="img-53f6119e-46">
    <g transform="translate(8.81,40.86)" id="img-53f6119e-47">
      <g class="primitive">
        <text text-anchor="middle" dy="0.35em" transform="rotate(-90,0, 2)">Occupied area (%)</text>
      </g>
    </g>
  </g>
</g>
<defs>
  <clipPath id="img-53f6119e-19">
    <path d="M17.96,5 L 137.5 5 137.5 80.72 17.96 80.72" />
  </clipPath>
</defs>
</svg>
