<?xml version="1.0" encoding="UTF-8"?>
<svg xmlns="http://www.w3.org/2000/svg"
     xmlns:xlink="http://www.w3.org/1999/xlink"
     xmlns:gadfly="http://www.gadflyjl.org/ns"
     version="1.2"
     width="150mm" height="90mm" viewBox="0 0 150 90"
     stroke="none"
     fill="#000000"
     stroke-width="0.3"
     font-size="3.88"
>
<g class="plotroot xscalable yscalable" id="img-241bf38f-1">
  <g font-size="3.88" font-family="'PT Sans','Helvetica Neue','Helvetica',sans-serif" fill="#564A55" stroke="#000000" stroke-opacity="0.000" id="img-241bf38f-2">
    <text x="83.12" y="79.18" text-anchor="middle" dy="0.6em">time</text>
  </g>
  <g class="guide xlabels" font-size="2.82" font-family="'PT Sans Caption','Helvetica Neue','Helvetica',sans-serif" fill="#6C606B" id="img-241bf38f-3">
    <text x="23.23" y="73.06" text-anchor="middle" dy="0.6em">0</text>
    <text x="83.12" y="73.06" text-anchor="middle" dy="0.6em">5.0×10⁵</text>
    <text x="143" y="73.06" text-anchor="middle" dy="0.6em">1.0×10⁶</text>
  </g>
<g clip-path="url(#img-241bf38f-4)">
  <g id="img-241bf38f-5">
    <g pointer-events="visible" opacity="1" fill="#000000" fill-opacity="0.000" stroke="#000000" stroke-opacity="0.000" class="guide background" id="img-241bf38f-6">
      <rect x="21.23" y="5" width="123.77" height="67.06"/>
    </g>
    <g class="guide ygridlines xfixed" stroke-dasharray="0.5,0.5" stroke-width="0.2" stroke="#D0D0E0" id="img-241bf38f-7">
      <path fill="none" d="M21.23,70.06 L 145 70.06"/>
      <path fill="none" d="M21.23,38.53 L 145 38.53"/>
      <path fill="none" d="M21.23,7 L 145 7"/>
    </g>
    <g class="guide xgridlines yfixed" stroke-dasharray="0.5,0.5" stroke-width="0.2" stroke="#D0D0E0" id="img-241bf38f-8">
      <path fill="none" d="M23.23,5 L 23.23 72.06"/>
      <path fill="none" d="M83.12,5 L 83.12 72.06"/>
      <path fill="none" d="M143,5 L 143 72.06"/>
    </g>
    <g class="plotpanel" id="img-241bf38f-9">
      <g stroke-width="0.3" fill="#000000" fill-opacity="0.000" class="geometry" stroke-dasharray="none" stroke="#00BFFF" id="img-241bf38f-10">
        <path fill="none" d="M23.23,7 L 24.43 13.68 25.63 17.66 26.82 22.58 28.02 27.75 29.22 32.6 30.42 36.64 31.61 40.04 32.81 43.26 34.01 46.22 35.21 48.81 36.41 50.95 37.6 52.91 38.8 54.49 40 55.81 41.2 57.13 42.39 58.14 43.59 59.15 44.79 60.03 45.99 60.67 47.18 61.48 48.38 62.12 49.58 62.68 50.78 63.19 51.98 63.69 53.17 64.2 54.37 64.51 55.57 64.89 56.77 65.27 57.96 65.46 59.16 65.77 60.36 66.03 61.56 66.28 62.75 66.59 63.95 66.72 65.15 66.84 66.35 67.03 67.55 67.16 68.74 67.29 69.94 67.41 71.14 67.54 72.34 67.73 73.53 67.79 74.73 67.92 75.93 67.98 77.13 68.11 78.32 68.17 79.52 68.23 80.72 68.3 81.92 68.36 83.12 68.42 84.31 68.48 85.51 68.48 86.71 68.61 87.91 68.67 89.1 68.67 90.3 68.74 91.5 68.8 92.7 68.8 93.89 68.86 95.09 68.93 96.29 68.99 97.49 68.99 98.69 69.05 99.88 69.05 101.08 69.12 102.28 69.12 103.48 69.12 104.67 69.18 105.87 69.18 107.07 69.24 108.27 69.24 109.46 69.24 110.66 69.24 111.86 69.3 113.06 69.3 114.26 69.3 115.45 69.3 116.65 69.37 117.85 69.37 119.05 69.37 120.24 69.43 121.44 69.43 122.64 69.43 123.84 69.43 125.03 69.43 126.23 69.43 127.43 69.49 128.63 69.49 129.83 69.49 131.02 69.49 132.22 69.56 133.42 69.56 134.62 69.56 135.81 69.56 137.01 69.62 138.21 69.62 139.41 69.62 140.6 69.62 141.8 69.62"/>
      </g>
    </g>
  </g>
</g>
  <g class="guide ylabels" font-size="2.82" font-family="'PT Sans Caption','Helvetica Neue','Helvetica',sans-serif" fill="#6C606B" id="img-241bf38f-11">
    <text x="20.23" y="70.06" text-anchor="end" dy="0.35em">0</text>
    <text x="20.23" y="38.53" text-anchor="end" dy="0.35em">500</text>
    <text x="20.23" y="7" text-anchor="end" dy="0.35em">1000</text>
  </g>
  <g font-size="3.88" font-family="'PT Sans','Helvetica Neue','Helvetica',sans-serif" fill="#564A55" stroke="#000000" stroke-opacity="0.000" id="img-241bf38f-12">
    <text x="8.76" y="36.53" text-anchor="middle" dy="0.35em" transform="rotate(-90, 8.76, 38.53)">nSpecie</text>
  </g>
</g>
<defs>
  <clipPath id="img-241bf38f-4">
  <path d="M21.23,5 L 145 5 145 72.06 21.23 72.06" />
</clipPath>
</defs>
</svg>
