<?xml version="1.0" encoding="UTF-8"?>
<svg xmlns="http://www.w3.org/2000/svg"
     xmlns:xlink="http://www.w3.org/1999/xlink"
     xmlns:gadfly="http://www.gadflyjl.org/ns"
     version="1.2"
     width="150mm" height="90mm" viewBox="0 0 150 90"
     stroke="none"
     fill="#000000"
     stroke-width="0.3"
     font-size="3.88"
>
<g class="plotroot xscalable yscalable" id="img-27810d93-1">
  <g font-size="3.88" font-family="'PT Sans','Helvetica Neue','Helvetica',sans-serif" fill="#564A55" stroke="#000000" stroke-opacity="0.000" id="img-27810d93-2">
    <text x="83.12" y="79.18" text-anchor="middle" dy="0.6em">time</text>
  </g>
  <g class="guide xlabels" font-size="2.82" font-family="'PT Sans Caption','Helvetica Neue','Helvetica',sans-serif" fill="#6C606B" id="img-27810d93-3">
    <text x="23.23" y="73.06" text-anchor="middle" dy="0.6em">0</text>
    <text x="83.12" y="73.06" text-anchor="middle" dy="0.6em">5.0×10⁵</text>
    <text x="143" y="73.06" text-anchor="middle" dy="0.6em">1.0×10⁶</text>
  </g>
<g clip-path="url(#img-27810d93-4)">
  <g id="img-27810d93-5">
    <g pointer-events="visible" opacity="1" fill="#000000" fill-opacity="0.000" stroke="#000000" stroke-opacity="0.000" class="guide background" id="img-27810d93-6">
      <rect x="21.23" y="5" width="123.77" height="67.06"/>
    </g>
    <g class="guide ygridlines xfixed" stroke-dasharray="0.5,0.5" stroke-width="0.2" stroke="#D0D0E0" id="img-27810d93-7">
      <path fill="none" d="M21.23,70.06 L 145 70.06"/>
      <path fill="none" d="M21.23,38.53 L 145 38.53"/>
      <path fill="none" d="M21.23,7 L 145 7"/>
    </g>
    <g class="guide xgridlines yfixed" stroke-dasharray="0.5,0.5" stroke-width="0.2" stroke="#D0D0E0" id="img-27810d93-8">
      <path fill="none" d="M23.23,5 L 23.23 72.06"/>
      <path fill="none" d="M83.12,5 L 83.12 72.06"/>
      <path fill="none" d="M143,5 L 143 72.06"/>
    </g>
    <g class="plotpanel" id="img-27810d93-9">
      <g stroke-width="0.3" fill="#000000" fill-opacity="0.000" class="geometry" stroke-dasharray="none" stroke="#00BFFF" id="img-27810d93-10">
        <path fill="none" d="M23.23,7 L 24.43 7.06 25.63 7.82 26.82 10.47 28.02 14 29.22 18.04 30.42 22.01 31.61 25.73 32.81 29.07 34.01 32.35 35.21 35.25 36.41 37.9 37.6 40.36 38.8 42.57 40 44.65 41.2 46.48 42.39 48.12 43.59 49.63 44.79 51.08 45.99 52.34 47.18 53.54 48.38 54.55 49.58 55.56 50.78 56.38 51.98 57.2 53.17 57.89 54.37 58.58 55.57 59.21 56.77 59.85 57.96 60.41 59.16 60.92 60.36 61.42 61.56 61.86 62.75 62.24 63.95 62.68 65.15 63.06 66.35 63.38 67.55 63.63 68.74 64.01 69.94 64.26 71.14 64.51 72.34 64.7 73.53 64.95 74.73 65.21 75.93 65.33 77.13 65.58 78.32 65.77 79.52 65.96 80.72 66.09 81.92 66.28 83.12 66.4 84.31 66.53 85.51 66.66 86.71 66.78 87.91 66.91 89.1 66.97 90.3 67.1 91.5 67.16 92.7 67.29 93.89 67.35 95.09 67.41 96.29 67.54 97.49 67.6 98.69 67.66 99.88 67.73 101.08 67.85 102.28 67.92 103.48 67.98 104.67 67.98 105.87 68.04 107.07 68.11 108.27 68.17 109.46 68.23 110.66 68.23 111.86 68.3 113.06 68.36 114.26 68.42 115.45 68.42 116.65 68.48 117.85 68.55 119.05 68.55 120.24 68.61 121.44 68.61 122.64 68.67 123.84 68.67 125.03 68.74 126.23 68.74 127.43 68.8 128.63 68.8 129.83 68.86 131.02 68.86 132.22 68.86 133.42 68.93 134.62 68.93 135.81 68.99 137.01 68.99 138.21 68.99 139.41 69.05 140.6 69.05 141.8 69.12"/>
      </g>
    </g>
  </g>
</g>
  <g class="guide ylabels" font-size="2.82" font-family="'PT Sans Caption','Helvetica Neue','Helvetica',sans-serif" fill="#6C606B" id="img-27810d93-11">
    <text x="20.23" y="70.06" text-anchor="end" dy="0.35em">0</text>
    <text x="20.23" y="38.53" text-anchor="end" dy="0.35em">500</text>
    <text x="20.23" y="7" text-anchor="end" dy="0.35em">1000</text>
  </g>
  <g font-size="3.88" font-family="'PT Sans','Helvetica Neue','Helvetica',sans-serif" fill="#564A55" stroke="#000000" stroke-opacity="0.000" id="img-27810d93-12">
    <text x="8.76" y="36.53" text-anchor="middle" dy="0.35em" transform="rotate(-90, 8.76, 38.53)">nSpecie</text>
  </g>
</g>
<defs>
  <clipPath id="img-27810d93-4">
  <path d="M21.23,5 L 145 5 145 72.06 21.23 72.06" />
</clipPath>
</defs>
</svg>
