<?xml version="1.0" encoding="UTF-8"?>
<svg xmlns="http://www.w3.org/2000/svg"
     xmlns:xlink="http://www.w3.org/1999/xlink"
     xmlns:gadfly="http://www.gadflyjl.org/ns"
     version="1.2"
     width="150mm" height="90mm" viewBox="0 0 150 90"
     stroke="none"
     fill="#000000"
     stroke-width="0.3"
     font-size="3.88"
>
<g class="plotroot xscalable yscalable" id="img-fb3c9978-1">
  <g font-size="3.88" font-family="'PT Sans','Helvetica Neue','Helvetica',sans-serif" fill="#564A55" stroke="#000000" stroke-opacity="0.000" id="img-fb3c9978-2">
    <text x="76.57" y="79.18" text-anchor="middle" dy="0.6em">time</text>
  </g>
  <g class="guide xlabels" font-size="2.82" font-family="'PT Sans Caption','Helvetica Neue','Helvetica',sans-serif" fill="#6C606B" id="img-fb3c9978-3">
    <text x="21.47" y="73.06" text-anchor="middle" dy="0.6em">0</text>
    <text x="49.02" y="73.06" text-anchor="middle" dy="0.6em">5.0×10³</text>
    <text x="76.57" y="73.06" text-anchor="middle" dy="0.6em">1.0×10⁴</text>
    <text x="104.13" y="73.06" text-anchor="middle" dy="0.6em">1.5×10⁴</text>
    <text x="131.68" y="73.06" text-anchor="middle" dy="0.6em">2.0×10⁴</text>
  </g>
  <g class="guide colorkey" id="img-fb3c9978-4">
    <g fill="#4C404B" font-size="2.82" font-family="'PT Sans','Helvetica Neue','Helvetica',sans-serif" id="img-fb3c9978-5">
      <text x="137.24" y="33.86" dy="0.35em" id="img-fb3c9978-6" class="color_0.025">0.025</text>
      <text x="137.24" y="36.97" dy="0.35em" id="img-fb3c9978-7" class="color_0.05">0.05</text>
      <text x="137.24" y="40.09" dy="0.35em" id="img-fb3c9978-8" class="color_0.075">0.075</text>
      <text x="137.24" y="43.21" dy="0.35em" id="img-fb3c9978-9" class="color_0.1">0.1</text>
      <text x="137.24" y="46.32" dy="0.35em" id="img-fb3c9978-10" class="color_0.25">0.25</text>
    </g>
    <g stroke="#000000" stroke-opacity="0.000" id="img-fb3c9978-11">
      <rect x="134.68" y="33.08" width="1.56" height="1.56" id="img-fb3c9978-12" fill="#00BFFF" class="color_0.025"/>
      <rect x="134.68" y="36.19" width="1.56" height="1.56" id="img-fb3c9978-13" fill="#D4CA3A" class="color_0.05"/>
      <rect x="134.68" y="39.31" width="1.56" height="1.56" id="img-fb3c9978-14" fill="#FF6DAE" class="color_0.075"/>
      <rect x="134.68" y="42.43" width="1.56" height="1.56" id="img-fb3c9978-15" fill="#00B78D" class="color_0.1"/>
      <rect x="134.68" y="45.54" width="1.56" height="1.56" id="img-fb3c9978-16" fill="#BEA9FF" class="color_0.25"/>
    </g>
    <g fill="#362A35" font-size="3.88" font-family="'PT Sans','Helvetica Neue','Helvetica',sans-serif" stroke="#000000" stroke-opacity="0.000" id="img-fb3c9978-17">
      <text x="134.68" y="29.8" id="img-fb3c9978-18">u</text>
    </g>
  </g>
<g clip-path="url(#img-fb3c9978-19)">
  <g id="img-fb3c9978-20">
    <g pointer-events="visible" opacity="1" fill="#000000" fill-opacity="0.000" stroke="#000000" stroke-opacity="0.000" class="guide background" id="img-fb3c9978-21">
      <rect x="19.47" y="5" width="114.21" height="67.06" id="img-fb3c9978-22"/>
    </g>
    <g class="guide ygridlines xfixed" stroke-dasharray="0.5,0.5" stroke-width="0.2" stroke="#D0D0E0" id="img-fb3c9978-23">
      <path fill="none" d="M19.47,70.06 L 133.68 70.06" id="img-fb3c9978-24"/>
      <path fill="none" d="M19.47,38.53 L 133.68 38.53" id="img-fb3c9978-25"/>
      <path fill="none" d="M19.47,7 L 133.68 7" id="img-fb3c9978-26"/>
    </g>
    <g class="guide xgridlines yfixed" stroke-dasharray="0.5,0.5" stroke-width="0.2" stroke="#D0D0E0" id="img-fb3c9978-27">
      <path fill="none" d="M21.47,5 L 21.47 72.06" id="img-fb3c9978-28"/>
      <path fill="none" d="M49.02,5 L 49.02 72.06" id="img-fb3c9978-29"/>
      <path fill="none" d="M76.57,5 L 76.57 72.06" id="img-fb3c9978-30"/>
      <path fill="none" d="M104.13,5 L 104.13 72.06" id="img-fb3c9978-31"/>
      <path fill="none" d="M131.68,5 L 131.68 72.06" id="img-fb3c9978-32"/>
    </g>
    <g class="plotpanel" id="img-fb3c9978-33">
      <g stroke-width="0.3" fill="#000000" fill-opacity="0.000" stroke-dasharray="none" id="img-fb3c9978-34">
        <path fill="none" d="M21.47,7 L 22.02 18.98 22.57 30.96 23.12 38.53 23.67 43.58 24.22 47.99 24.77 50.51 25.32 53.03 25.88 54.93 26.43 56.19 26.98 58.08 27.53 59.34 28.08 60.6 28.63 61.23 29.18 62.49 29.73 63.12 30.28 63.76 30.83 64.39 31.39 65.02 31.94 65.02 32.49 65.65 33.04 65.65 33.59 66.28 34.14 66.28 34.69 66.28 35.24 66.91 35.79 66.91 36.35 67.54 36.9 67.54 37.45 67.54 38 67.54 38.55 67.54 39.1 67.54 39.65 68.17 40.2 68.17 40.75 68.17 41.31 68.17 41.86 68.17 42.41 68.17 42.96 68.17 43.51 68.17 44.06 68.17 44.61 68.17 45.16 68.8 45.71 68.8 46.26 68.8 46.82 68.8 47.37 68.8 47.92 68.8 48.47 68.8 49.02 68.8 49.57 68.8 50.12 68.8 50.67 68.8 51.22 68.8 51.78 68.8 52.33 68.8 52.88 68.8 53.43 68.8 53.98 68.8 54.53 68.8 55.08 68.8 55.63 68.8 56.18 68.8 56.74 68.8 57.29 68.8 57.84 68.8 58.39 68.8 58.94 68.8 59.49 69.43 60.04 69.43 60.59 69.43 61.14 69.43 61.69 69.43 62.25 69.43 62.8 69.43 63.35 69.43 63.9 69.43 64.45 69.43 65 69.43 65.55 69.43 66.1 69.43 66.65 69.43 67.21 69.43 67.76 69.43 68.31 69.43 68.86 69.43 69.41 69.43 69.96 69.43 70.51 69.43 71.06 69.43 71.61 69.43 72.17 69.43 72.72 69.43 73.27 69.43 73.82 69.43 74.37 69.43 74.92 69.43 75.47 69.43 76.02 69.43 76.57 69.43 77.12 69.43 77.68 69.43 78.23 69.43 78.78 69.43 79.33 69.43 79.88 69.43 80.43 69.43 80.98 69.43 81.53 69.43 82.08 69.43 82.64 69.43 83.19 69.43 83.74 69.43 84.29 69.43 84.84 69.43 85.39 69.43 85.94 69.43 86.49 69.43 87.04 69.43 87.59 69.43 88.15 69.43 88.7 69.43 89.25 69.43 89.8 69.43 90.35 69.43 90.9 69.43 91.45 69.43 92 69.43 92.55 69.43 93.11 69.43 93.66 69.43 94.21 69.43 94.76 69.43 95.31 69.43 95.86 69.43 96.41 69.43 96.96 69.43 97.51 69.43 98.07 69.43 98.62 69.43 99.17 69.43 99.72 69.43 100.27 69.43 100.82 69.43 101.37 69.43 101.92 69.43 102.47 69.43 103.02 69.43 103.58 69.43 104.13 69.43 104.68 69.43 105.23 69.43 105.78 69.43 106.33 69.43 106.88 69.43 107.43 69.43 107.98 69.43 108.54 69.43 109.09 69.43 109.64 69.43 110.19 69.43 110.74 69.43 111.29 69.43 111.84 69.43 112.39 69.43 112.94 69.43 113.5 69.43 114.05 69.43 114.6 69.43 115.15 69.43 115.7 69.43 116.25 69.43 116.8 69.43 117.35 69.43 117.9 69.43 118.45 69.43 119.01 69.43 119.56 69.43 120.11 69.43 120.66 69.43 121.21 69.43 121.76 69.43 122.31 69.43 122.86 69.43 123.41 69.43 123.97 69.43 124.52 69.43 125.07 69.43 125.62 69.43 126.17 69.43 126.72 69.43 127.27 69.43 127.82 69.43 128.37 69.43 128.93 69.43 129.48 69.43 130.03 69.43 130.58 69.43 131.13 69.43" id="img-fb3c9978-35" stroke="#00B78D" class="geometry color_0.1"/>
        <path fill="none" d="M21.47,7 L 22.02 7 22.57 8.26 23.12 10.78 23.67 13.31 24.22 16.46 24.77 18.98 25.32 21.5 25.88 23.4 26.43 25.29 26.98 27.18 27.53 28.44 28.08 29.7 28.63 31.59 29.18 32.86 29.73 33.49 30.28 34.75 30.83 36.01 31.39 37.27 31.94 38.53 32.49 39.79 33.04 40.42 33.59 41.68 34.14 42.31 34.69 43.58 35.24 44.21 35.79 44.84 36.35 45.47 36.9 46.1 37.45 46.73 38 47.36 38.55 47.99 39.1 48.62 39.65 49.25 40.2 49.88 40.75 50.51 41.31 50.51 41.86 51.14 42.41 51.77 42.96 52.4 43.51 52.4 44.06 52.4 44.61 53.03 45.16 53.67 45.71 53.67 46.26 54.3 46.82 54.3 47.37 54.3 47.92 54.93 48.47 54.93 49.02 54.93 49.57 55.56 50.12 55.56 50.67 56.19 51.22 56.19 51.78 56.82 52.33 57.45 52.88 57.45 53.43 57.45 53.98 58.08 54.53 58.08 55.08 58.08 55.63 58.71 56.18 58.71 56.74 58.71 57.29 58.71 57.84 59.34 58.39 59.34 58.94 59.34 59.49 59.97 60.04 59.97 60.59 59.97 61.14 59.97 61.69 60.6 62.25 60.6 62.8 61.23 63.35 61.23 63.9 61.23 64.45 61.23 65 61.23 65.55 61.23 66.1 61.86 66.65 61.86 67.21 61.86 67.76 61.86 68.31 62.49 68.86 62.49 69.41 62.49 69.96 62.49 70.51 62.49 71.06 63.12 71.61 63.12 72.17 63.12 72.72 63.12 73.27 63.12 73.82 63.12 74.37 63.76 74.92 63.76 75.47 63.76 76.02 63.76 76.57 63.76 77.12 64.39 77.68 64.39 78.23 64.39 78.78 64.39 79.33 64.39 79.88 64.39 80.43 64.39 80.98 64.39 81.53 65.02 82.08 65.02 82.64 65.02 83.19 65.02 83.74 65.02 84.29 65.02 84.84 65.02 85.39 65.02 85.94 65.02 86.49 65.65 87.04 65.65 87.59 65.65 88.15 65.65 88.7 65.65 89.25 65.65 89.8 65.65 90.35 65.65 90.9 66.28 91.45 66.28 92 66.28 92.55 66.28 93.11 66.28 93.66 66.28 94.21 66.28 94.76 66.28 95.31 66.28 95.86 66.28 96.41 66.28 96.96 66.28 97.51 66.91 98.07 66.91 98.62 66.91 99.17 66.91 99.72 66.91 100.27 66.91 100.82 66.91 101.37 66.91 101.92 66.91 102.47 66.91 103.02 66.91 103.58 66.91 104.13 66.91 104.68 66.91 105.23 66.91 105.78 66.91 106.33 66.91 106.88 66.91 107.43 66.91 107.98 66.91 108.54 66.91 109.09 67.54 109.64 67.54 110.19 67.54 110.74 67.54 111.29 67.54 111.84 67.54 112.39 67.54 112.94 67.54 113.5 67.54 114.05 67.54 114.6 67.54 115.15 67.54 115.7 67.54 116.25 67.54 116.8 67.54 117.35 67.54 117.9 67.54 118.45 67.54 119.01 67.54 119.56 67.54 120.11 67.54 120.66 67.54 121.21 67.54 121.76 67.54 122.31 67.54 122.86 67.54 123.41 67.54 123.97 67.54 124.52 67.54 125.07 67.54 125.62 67.54 126.17 67.54 126.72 67.54 127.27 67.54 127.82 67.54 128.37 67.54 128.93 67.54 129.48 67.54 130.03 67.54 130.58 67.54 131.13 67.54" id="img-fb3c9978-36" stroke="#00BFFF" class="geometry color_0.025"/>
        <path fill="none" d="M21.47,7 L 22.02 70.06 22.57 70.06 23.12 70.06 23.67 70.06 24.22 70.06 24.77 70.06 25.32 70.06 25.88 70.06 26.43 70.06 26.98 70.06 27.53 70.06 28.08 70.06 28.63 70.06 29.18 70.06 29.73 70.06 30.28 70.06 30.83 70.06 31.39 70.06 31.94 70.06 32.49 70.06 33.04 70.06 33.59 70.06 34.14 70.06 34.69 70.06 35.24 70.06 35.79 70.06 36.35 70.06 36.9 70.06 37.45 70.06 38 70.06 38.55 70.06 39.1 70.06 39.65 70.06 40.2 70.06 40.75 70.06 41.31 70.06 41.86 70.06 42.41 70.06 42.96 70.06 43.51 70.06 44.06 70.06 44.61 70.06 45.16 70.06 45.71 70.06 46.26 70.06 46.82 70.06 47.37 70.06 47.92 70.06 48.47 70.06 49.02 70.06 49.57 70.06 50.12 70.06 50.67 70.06 51.22 70.06 51.78 70.06 52.33 70.06 52.88 70.06 53.43 70.06 53.98 70.06 54.53 70.06 55.08 70.06 55.63 70.06 56.18 70.06 56.74 70.06 57.29 70.06 57.84 70.06 58.39 70.06 58.94 70.06 59.49 70.06 60.04 70.06 60.59 70.06 61.14 70.06 61.69 70.06 62.25 70.06 62.8 70.06 63.35 70.06 63.9 70.06 64.45 70.06 65 70.06 65.55 70.06 66.1 70.06 66.65 70.06 67.21 70.06 67.76 70.06 68.31 70.06 68.86 70.06 69.41 70.06 69.96 70.06 70.51 70.06 71.06 70.06 71.61 70.06 72.17 70.06 72.72 70.06 73.27 70.06 73.82 70.06 74.37 70.06 74.92 70.06 75.47 70.06 76.02 70.06 76.57 70.06 77.12 70.06 77.68 70.06 78.23 70.06 78.78 70.06 79.33 70.06 79.88 70.06 80.43 70.06 80.98 70.06 81.53 70.06 82.08 70.06 82.64 70.06 83.19 70.06 83.74 70.06 84.29 70.06 84.84 70.06 85.39 70.06 85.94 70.06 86.49 70.06 87.04 70.06 87.59 70.06 88.15 70.06 88.7 70.06 89.25 70.06 89.8 70.06 90.35 70.06 90.9 70.06 91.45 70.06 92 70.06 92.55 70.06 93.11 70.06 93.66 70.06 94.21 70.06 94.76 70.06 95.31 70.06 95.86 70.06 96.41 70.06 96.96 70.06 97.51 70.06 98.07 70.06 98.62 70.06 99.17 70.06 99.72 70.06 100.27 70.06 100.82 70.06 101.37 70.06 101.92 70.06 102.47 70.06 103.02 70.06 103.58 70.06 104.13 70.06 104.68 70.06 105.23 70.06 105.78 70.06 106.33 70.06 106.88 70.06 107.43 70.06 107.98 70.06 108.54 70.06 109.09 70.06 109.64 70.06 110.19 70.06 110.74 70.06 111.29 70.06 111.84 70.06 112.39 70.06 112.94 70.06 113.5 70.06 114.05 70.06 114.6 70.06 115.15 70.06 115.7 70.06 116.25 70.06 116.8 70.06 117.35 70.06 117.9 70.06 118.45 70.06 119.01 70.06 119.56 70.06 120.11 70.06 120.66 70.06 121.21 70.06 121.76 70.06 122.31 70.06 122.86 70.06 123.41 70.06 123.97 70.06 124.52 70.06 125.07 70.06 125.62 70.06 126.17 70.06 126.72 70.06 127.27 70.06 127.82 70.06 128.37 70.06 128.93 70.06 129.48 70.06 130.03 70.06 130.58 70.06 131.13 70.06" id="img-fb3c9978-37" stroke="#BEA9FF" class="geometry color_0.25"/>
        <path fill="none" d="M21.47,7 L 22.02 8.89 22.57 13.94 23.12 19.61 23.67 24.66 24.22 28.44 24.77 32.22 25.32 35.38 25.88 37.9 26.43 40.42 26.98 41.68 27.53 43.58 28.08 45.47 28.63 46.73 29.18 47.99 29.73 49.25 30.28 49.88 30.83 51.14 31.39 52.4 31.94 53.03 32.49 54.3 33.04 54.93 33.59 55.56 34.14 56.19 34.69 56.82 35.24 57.45 35.79 58.08 36.35 58.71 36.9 58.71 37.45 59.34 38 59.34 38.55 59.97 39.1 59.97 39.65 60.6 40.2 60.6 40.75 61.23 41.31 61.23 41.86 61.23 42.41 61.86 42.96 61.86 43.51 62.49 44.06 62.49 44.61 62.49 45.16 62.49 45.71 63.12 46.26 63.76 46.82 63.76 47.37 63.76 47.92 63.76 48.47 63.76 49.02 63.76 49.57 64.39 50.12 64.39 50.67 64.39 51.22 64.39 51.78 64.39 52.33 65.02 52.88 65.02 53.43 65.02 53.98 65.02 54.53 65.65 55.08 65.65 55.63 65.65 56.18 66.28 56.74 66.28 57.29 66.28 57.84 66.28 58.39 66.28 58.94 66.28 59.49 66.28 60.04 66.28 60.59 66.28 61.14 66.28 61.69 66.91 62.25 66.91 62.8 66.91 63.35 66.91 63.9 66.91 64.45 66.91 65 66.91 65.55 66.91 66.1 66.91 66.65 66.91 67.21 66.91 67.76 67.54 68.31 67.54 68.86 67.54 69.41 67.54 69.96 67.54 70.51 67.54 71.06 67.54 71.61 67.54 72.17 67.54 72.72 67.54 73.27 67.54 73.82 67.54 74.37 67.54 74.92 67.54 75.47 67.54 76.02 67.54 76.57 67.54 77.12 68.17 77.68 68.17 78.23 68.17 78.78 68.17 79.33 68.17 79.88 68.17 80.43 68.17 80.98 68.17 81.53 68.17 82.08 68.17 82.64 68.17 83.19 68.17 83.74 68.17 84.29 68.17 84.84 68.17 85.39 68.17 85.94 68.17 86.49 68.17 87.04 68.17 87.59 68.17 88.15 68.17 88.7 68.17 89.25 68.17 89.8 68.17 90.35 68.8 90.9 68.8 91.45 68.8 92 68.8 92.55 68.8 93.11 68.8 93.66 68.8 94.21 68.8 94.76 68.8 95.31 68.8 95.86 68.8 96.41 68.8 96.96 68.8 97.51 68.8 98.07 68.8 98.62 68.8 99.17 68.8 99.72 68.8 100.27 68.8 100.82 68.8 101.37 68.8 101.92 68.8 102.47 68.8 103.02 68.8 103.58 68.8 104.13 68.8 104.68 68.8 105.23 68.8 105.78 68.8 106.33 68.8 106.88 68.8 107.43 68.8 107.98 68.8 108.54 68.8 109.09 68.8 109.64 68.8 110.19 68.8 110.74 68.8 111.29 68.8 111.84 68.8 112.39 68.8 112.94 68.8 113.5 68.8 114.05 68.8 114.6 68.8 115.15 68.8 115.7 68.8 116.25 68.8 116.8 68.8 117.35 68.8 117.9 68.8 118.45 68.8 119.01 68.8 119.56 68.8 120.11 68.8 120.66 68.8 121.21 68.8 121.76 68.8 122.31 68.8 122.86 68.8 123.41 68.8 123.97 68.8 124.52 68.8 125.07 68.8 125.62 68.8 126.17 68.8 126.72 68.8 127.27 68.8 127.82 68.8 128.37 68.8 128.93 68.8 129.48 68.8 130.03 68.8 130.58 68.8 131.13 68.8" id="img-fb3c9978-38" stroke="#D4CA3A" class="geometry color_0.05"/>
        <path fill="none" d="M21.47,7 L 22.02 12.68 22.57 22.77 23.12 30.96 23.67 36.01 24.22 39.79 24.77 42.94 25.32 45.47 25.88 47.99 26.43 49.88 26.98 51.14 27.53 52.4 28.08 54.3 28.63 54.93 29.18 56.82 29.73 57.45 30.28 58.08 30.83 58.71 31.39 59.34 31.94 59.97 32.49 60.6 33.04 61.23 33.59 61.86 34.14 62.49 34.69 63.12 35.24 63.12 35.79 63.12 36.35 63.76 36.9 64.39 37.45 64.39 38 65.02 38.55 65.02 39.1 65.65 39.65 65.65 40.2 65.65 40.75 65.65 41.31 65.65 41.86 66.28 42.41 66.28 42.96 66.28 43.51 66.91 44.06 66.91 44.61 66.91 45.16 66.91 45.71 66.91 46.26 66.91 46.82 66.91 47.37 67.54 47.92 67.54 48.47 67.54 49.02 67.54 49.57 67.54 50.12 67.54 50.67 67.54 51.22 67.54 51.78 68.17 52.33 68.17 52.88 68.17 53.43 68.17 53.98 68.17 54.53 68.17 55.08 68.17 55.63 68.17 56.18 68.17 56.74 68.17 57.29 68.17 57.84 68.17 58.39 68.17 58.94 68.17 59.49 68.17 60.04 68.17 60.59 68.17 61.14 68.17 61.69 68.17 62.25 68.17 62.8 68.17 63.35 68.17 63.9 68.17 64.45 68.17 65 68.17 65.55 68.17 66.1 68.17 66.65 68.17 67.21 68.17 67.76 68.17 68.31 68.17 68.86 68.17 69.41 68.17 69.96 68.8 70.51 68.8 71.06 68.8 71.61 68.8 72.17 68.8 72.72 68.8 73.27 68.8 73.82 68.8 74.37 68.8 74.92 68.8 75.47 68.8 76.02 68.8 76.57 68.8 77.12 68.8 77.68 68.8 78.23 68.8 78.78 68.8 79.33 68.8 79.88 68.8 80.43 68.8 80.98 68.8 81.53 68.8 82.08 68.8 82.64 68.8 83.19 68.8 83.74 68.8 84.29 68.8 84.84 68.8 85.39 68.8 85.94 68.8 86.49 68.8 87.04 68.8 87.59 68.8 88.15 68.8 88.7 68.8 89.25 68.8 89.8 68.8 90.35 68.8 90.9 68.8 91.45 68.8 92 68.8 92.55 68.8 93.11 68.8 93.66 68.8 94.21 68.8 94.76 68.8 95.31 68.8 95.86 68.8 96.41 68.8 96.96 68.8 97.51 68.8 98.07 68.8 98.62 69.43 99.17 69.43 99.72 69.43 100.27 69.43 100.82 69.43 101.37 69.43 101.92 69.43 102.47 69.43 103.02 69.43 103.58 69.43 104.13 69.43 104.68 69.43 105.23 69.43 105.78 69.43 106.33 69.43 106.88 69.43 107.43 69.43 107.98 69.43 108.54 69.43 109.09 69.43 109.64 69.43 110.19 69.43 110.74 69.43 111.29 69.43 111.84 69.43 112.39 69.43 112.94 69.43 113.5 69.43 114.05 69.43 114.6 69.43 115.15 69.43 115.7 69.43 116.25 69.43 116.8 69.43 117.35 69.43 117.9 69.43 118.45 69.43 119.01 69.43 119.56 69.43 120.11 69.43 120.66 69.43 121.21 69.43 121.76 69.43 122.31 69.43 122.86 69.43 123.41 69.43 123.97 69.43 124.52 69.43 125.07 69.43 125.62 69.43 126.17 69.43 126.72 69.43 127.27 69.43 127.82 69.43 128.37 69.43 128.93 69.43 129.48 69.43 130.03 69.43 130.58 69.43 131.13 69.43" id="img-fb3c9978-39" stroke="#FF6DAE" class="geometry color_0.075"/>
      </g>
    </g>
  </g>
</g>
  <g class="guide ylabels" font-size="2.82" font-family="'PT Sans Caption','Helvetica Neue','Helvetica',sans-serif" fill="#6C606B" id="img-fb3c9978-40">
    <text x="18.47" y="70.06" text-anchor="end" dy="0.35em" id="img-fb3c9978-41">0</text>
    <text x="18.47" y="38.53" text-anchor="end" dy="0.35em" id="img-fb3c9978-42">50</text>
    <text x="18.47" y="7" text-anchor="end" dy="0.35em" id="img-fb3c9978-43">100</text>
  </g>
  <g font-size="3.88" font-family="'PT Sans','Helvetica Neue','Helvetica',sans-serif" fill="#564A55" stroke="#000000" stroke-opacity="0.000" id="img-fb3c9978-44">
    <text x="8.76" y="36.53" text-anchor="middle" dy="0.35em" transform="rotate(-90, 8.76, 38.53)" id="img-fb3c9978-45">nSpecie</text>
  </g>
</g>
<defs>
  <clipPath id="img-fb3c9978-19">
  <path d="M19.47,5 L 133.68 5 133.68 72.06 19.47 72.06" />
</clipPath>
</defs>
</svg>
