<?xml version="1.0" encoding="UTF-8"?>
<svg xmlns="http://www.w3.org/2000/svg"
     xmlns:xlink="http://www.w3.org/1999/xlink"
     xmlns:gadfly="http://www.gadflyjl.org/ns"
     version="1.2"
     width="150mm" height="90mm" viewBox="0 0 150 90"
     stroke="none"
     fill="#000000"
     stroke-width="0.3"
     font-size="3.88"
>
<g class="plotroot xscalable yscalable" id="img-68f4e328-1">
  <g font-size="3.88" font-family="'PT Sans','Helvetica Neue','Helvetica',sans-serif" fill="#564A55" stroke="#000000" stroke-opacity="0.000" id="img-68f4e328-2">
    <text x="77.98" y="79.18" text-anchor="middle" dy="0.6em">time</text>
  </g>
  <g class="guide xlabels" font-size="2.82" font-family="'PT Sans Caption','Helvetica Neue','Helvetica',sans-serif" fill="#6C606B" id="img-68f4e328-3">
    <text x="21.47" y="73.06" text-anchor="middle" dy="0.6em">0</text>
    <text x="49.73" y="73.06" text-anchor="middle" dy="0.6em">5.0×10³</text>
    <text x="77.98" y="73.06" text-anchor="middle" dy="0.6em">1.0×10⁴</text>
    <text x="106.24" y="73.06" text-anchor="middle" dy="0.6em">1.5×10⁴</text>
    <text x="134.5" y="73.06" text-anchor="middle" dy="0.6em">2.0×10⁴</text>
  </g>
  <g class="guide colorkey" id="img-68f4e328-4">
    <g fill="#4C404B" font-size="2.82" font-family="'PT Sans','Helvetica Neue','Helvetica',sans-serif" id="img-68f4e328-5">
      <text x="140.06" y="35.41" dy="0.35em" id="img-68f4e328-6" class="color_50">50</text>
      <text x="140.06" y="38.53" dy="0.35em" id="img-68f4e328-7" class="color_75">75</text>
      <text x="140.06" y="41.65" dy="0.35em" id="img-68f4e328-8" class="color_100">100</text>
      <text x="140.06" y="44.76" dy="0.35em" id="img-68f4e328-9" class="color_125">125</text>
    </g>
    <g stroke="#000000" stroke-opacity="0.000" id="img-68f4e328-10">
      <rect x="137.5" y="34.63" width="1.56" height="1.56" id="img-68f4e328-11" fill="#00BFFF" class="color_50"/>
      <rect x="137.5" y="37.75" width="1.56" height="1.56" id="img-68f4e328-12" fill="#D4CA3A" class="color_75"/>
      <rect x="137.5" y="40.87" width="1.56" height="1.56" id="img-68f4e328-13" fill="#FF6DAE" class="color_100"/>
      <rect x="137.5" y="43.98" width="1.56" height="1.56" id="img-68f4e328-14" fill="#00B78D" class="color_125"/>
    </g>
    <g fill="#362A35" font-size="3.88" font-family="'PT Sans','Helvetica Neue','Helvetica',sans-serif" stroke="#000000" stroke-opacity="0.000" id="img-68f4e328-15">
      <text x="137.5" y="31.36" id="img-68f4e328-16">n</text>
    </g>
  </g>
<g clip-path="url(#img-68f4e328-17)">
  <g id="img-68f4e328-18">
    <g pointer-events="visible" opacity="1" fill="#000000" fill-opacity="0.000" stroke="#000000" stroke-opacity="0.000" class="guide background" id="img-68f4e328-19">
      <rect x="19.47" y="5" width="117.04" height="67.06" id="img-68f4e328-20"/>
    </g>
    <g class="guide ygridlines xfixed" stroke-dasharray="0.5,0.5" stroke-width="0.2" stroke="#D0D0E0" id="img-68f4e328-21">
      <path fill="none" d="M19.47,70.06 L 136.5 70.06" id="img-68f4e328-22"/>
      <path fill="none" d="M19.47,38.53 L 136.5 38.53" id="img-68f4e328-23"/>
      <path fill="none" d="M19.47,7 L 136.5 7" id="img-68f4e328-24"/>
    </g>
    <g class="guide xgridlines yfixed" stroke-dasharray="0.5,0.5" stroke-width="0.2" stroke="#D0D0E0" id="img-68f4e328-25">
      <path fill="none" d="M21.47,5 L 21.47 72.06" id="img-68f4e328-26"/>
      <path fill="none" d="M49.73,5 L 49.73 72.06" id="img-68f4e328-27"/>
      <path fill="none" d="M77.98,5 L 77.98 72.06" id="img-68f4e328-28"/>
      <path fill="none" d="M106.24,5 L 106.24 72.06" id="img-68f4e328-29"/>
      <path fill="none" d="M134.5,5 L 134.5 72.06" id="img-68f4e328-30"/>
    </g>
    <g class="plotpanel" id="img-68f4e328-31">
      <g stroke-width="0.3" fill="#000000" fill-opacity="0.000" stroke-dasharray="none" id="img-68f4e328-32">
        <path fill="none" d="M21.47,7 L 22.03 19.61 22.6 31.59 23.16 38.53 23.73 44.21 24.29 47.99 24.86 49.88 25.42 53.03 25.99 54.3 26.55 56.19 27.12 56.82 27.68 58.71 28.25 59.97 28.81 60.6 29.38 61.86 29.94 62.49 30.51 63.12 31.07 63.75 31.64 63.75 32.21 64.39 32.77 64.39 33.34 64.39 33.9 65.02 34.47 65.02 35.03 65.65 35.6 65.65 36.16 66.28 36.73 66.28 37.29 66.28 37.86 66.28 38.42 66.91 38.99 66.91 39.55 66.91 40.12 66.91 40.68 67.54 41.25 67.54 41.81 67.54 42.38 67.54 42.94 67.54 43.51 67.54 44.07 67.54 44.64 67.54 45.2 68.17 45.77 68.17 46.33 68.17 46.9 68.17 47.46 68.17 48.03 68.17 48.6 68.17 49.16 68.17 49.73 68.17 50.29 68.17 50.86 68.17 51.42 68.17 51.99 68.17 52.55 68.17 53.12 68.17 53.68 68.17 54.25 68.17 54.81 68.8 55.38 68.8 55.94 68.8 56.51 68.8 57.07 68.8 57.64 68.8 58.2 68.8 58.77 68.8 59.33 68.8 59.9 68.8 60.46 68.8 61.03 68.8 61.59 68.8 62.16 68.8 62.72 68.8 63.29 68.8 63.86 68.8 64.42 68.8 64.99 68.8 65.55 68.8 66.12 68.8 66.68 68.8 67.25 68.8 67.81 68.8 68.38 68.8 68.94 68.8 69.51 68.8 70.07 68.8 70.64 68.8 71.2 68.8 71.77 68.8 72.33 68.8 72.9 69.43 73.46 69.43 74.03 69.43 74.59 69.43 75.16 69.43 75.72 69.43 76.29 69.43 76.85 69.43 77.42 69.43 77.98 69.43 78.55 69.43 79.12 69.43 79.68 69.43 80.25 69.43 80.81 69.43 81.38 69.43 81.94 69.43 82.51 69.43 83.07 69.43 83.64 69.43 84.2 69.43 84.77 69.43 85.33 69.43 85.9 69.43 86.46 69.43 87.03 69.43 87.59 69.43 88.16 69.43 88.72 69.43 89.29 69.43 89.85 69.43 90.42 69.43 90.98 69.43 91.55 69.43 92.11 69.43 92.68 69.43 93.24 69.43 93.81 69.43 94.37 69.43 94.94 69.43 95.51 69.43 96.07 69.43 96.64 69.43 97.2 69.43 97.77 69.43 98.33 69.43 98.9 69.43 99.46 69.43 100.03 69.43 100.59 69.43 101.16 69.43 101.72 69.43 102.29 69.43 102.85 69.43 103.42 69.43 103.98 69.43 104.55 69.43 105.11 69.43 105.68 69.43 106.24 69.43 106.81 69.43 107.37 69.43 107.94 69.43 108.5 69.43 109.07 69.43 109.63 69.43 110.2 69.43 110.77 69.43 111.33 69.43 111.9 69.43 112.46 69.43 113.03 69.43 113.59 69.43 114.16 69.43 114.72 69.43 115.29 69.43 115.85 69.43 116.42 69.43 116.98 69.43 117.55 69.43 118.11 69.43 118.68 69.43 119.24 69.43 119.81 69.43 120.37 69.43 120.94 69.43 121.5 69.43 122.07 69.43 122.63 69.43 123.2 69.43 123.76 69.43 124.33 69.43 124.89 69.43 125.46 69.43 126.03 69.43 126.59 69.43 127.16 69.43 127.72 69.43 128.29 69.43 128.85 69.43 129.42 69.43 129.98 69.43 130.55 69.43 131.11 69.43 131.68 69.43 132.24 69.43 132.81 69.43 133.37 69.43 133.94 69.43" id="img-68f4e328-33" stroke="#00B78D" class="geometry color_125"/>
        <path fill="none" d="M21.47,7 L 22.03 18.35 22.6 32.22 23.16 39.79 23.73 44.84 24.29 47.99 24.86 51.14 25.42 53.03 25.99 54.3 26.55 56.19 27.12 58.08 27.68 58.71 28.25 59.97 28.81 60.6 29.38 61.23 29.94 61.86 30.51 62.49 31.07 63.12 31.64 63.12 32.21 63.75 32.77 63.75 33.34 64.39 33.9 65.02 34.47 65.02 35.03 65.65 35.6 65.65 36.16 65.65 36.73 66.28 37.29 66.28 37.86 66.28 38.42 66.28 38.99 66.91 39.55 66.91 40.12 66.91 40.68 66.91 41.25 66.91 41.81 66.91 42.38 66.91 42.94 67.54 43.51 67.54 44.07 67.54 44.64 67.54 45.2 68.17 45.77 68.17 46.33 68.17 46.9 68.17 47.46 68.17 48.03 68.17 48.6 68.17 49.16 68.17 49.73 68.17 50.29 68.17 50.86 68.8 51.42 68.8 51.99 68.8 52.55 68.8 53.12 68.8 53.68 68.8 54.25 68.8 54.81 68.8 55.38 68.8 55.94 68.8 56.51 68.8 57.07 68.8 57.64 69.43 58.2 69.43 58.77 69.43 59.33 69.43 59.9 69.43 60.46 69.43 61.03 69.43 61.59 69.43 62.16 69.43 62.72 69.43 63.29 69.43 63.86 69.43 64.42 69.43 64.99 69.43 65.55 69.43 66.12 69.43 66.68 69.43 67.25 69.43 67.81 69.43 68.38 69.43 68.94 69.43 69.51 69.43 70.07 69.43 70.64 69.43 71.2 69.43 71.77 69.43 72.33 69.43 72.9 69.43 73.46 69.43 74.03 69.43 74.59 69.43 75.16 69.43 75.72 69.43 76.29 69.43 76.85 69.43 77.42 69.43 77.98 69.43 78.55 69.43 79.12 69.43 79.68 69.43 80.25 69.43 80.81 69.43 81.38 69.43 81.94 69.43 82.51 69.43 83.07 69.43 83.64 69.43 84.2 69.43 84.77 69.43 85.33 69.43 85.9 69.43 86.46 69.43 87.03 69.43 87.59 69.43 88.16 69.43 88.72 69.43 89.29 69.43 89.85 69.43 90.42 69.43 90.98 69.43 91.55 69.43 92.11 69.43 92.68 69.43 93.24 69.43 93.81 69.43 94.37 69.43 94.94 69.43 95.51 69.43 96.07 69.43 96.64 69.43 97.2 69.43 97.77 69.43 98.33 69.43 98.9 69.43 99.46 69.43 100.03 69.43 100.59 69.43 101.16 69.43 101.72 69.43 102.29 69.43 102.85 69.43 103.42 69.43 103.98 69.43 104.55 69.43 105.11 69.43 105.68 69.43 106.24 69.43 106.81 69.43 107.37 69.43 107.94 69.43 108.5 69.43 109.07 69.43 109.63 69.43 110.2 69.43 110.77 69.43 111.33 69.43 111.9 69.43 112.46 69.43 113.03 69.43 113.59 69.43 114.16 69.43 114.72 69.43 115.29 69.43 115.85 69.43 116.42 69.43 116.98 69.43 117.55 69.43 118.11 69.43 118.68 69.43 119.24 69.43 119.81 69.43 120.37 69.43 120.94 69.43 121.5 69.43 122.07 69.43 122.63 69.43 123.2 69.43 123.76 69.43 124.33 69.43 124.89 69.43 125.46 69.43 126.03 69.43 126.59 69.43 127.16 69.43 127.72 69.43 128.29 69.43 128.85 69.43 129.42 69.43 129.98 69.43 130.55 69.43 131.11 69.43 131.68 69.43 132.24 69.43 132.81 69.43 133.37 69.43 133.94 69.43" id="img-68f4e328-34" stroke="#00BFFF" class="geometry color_50"/>
        <path fill="none" d="M21.47,7 L 22.03 17.72 22.6 30.96 23.16 37.9 23.73 42.94 24.29 47.36 24.86 49.88 25.42 51.77 25.99 54.3 26.55 56.19 27.12 56.82 27.68 58.08 28.25 58.71 28.81 59.97 29.38 59.97 29.94 61.23 30.51 61.86 31.07 62.49 31.64 63.12 32.21 63.75 32.77 64.39 33.34 64.39 33.9 65.02 34.47 65.02 35.03 65.65 35.6 65.65 36.16 66.28 36.73 66.28 37.29 66.28 37.86 66.91 38.42 66.91 38.99 66.91 39.55 66.91 40.12 67.54 40.68 67.54 41.25 67.54 41.81 67.54 42.38 67.54 42.94 67.54 43.51 67.54 44.07 67.54 44.64 67.54 45.2 67.54 45.77 68.17 46.33 68.17 46.9 68.17 47.46 68.17 48.03 68.17 48.6 68.17 49.16 68.17 49.73 68.8 50.29 68.8 50.86 68.8 51.42 68.8 51.99 68.8 52.55 68.8 53.12 68.8 53.68 68.8 54.25 68.8 54.81 68.8 55.38 68.8 55.94 68.8 56.51 68.8 57.07 68.8 57.64 68.8 58.2 68.8 58.77 68.8 59.33 68.8 59.9 68.8 60.46 68.8 61.03 68.8 61.59 68.8 62.16 68.8 62.72 68.8 63.29 68.8 63.86 68.8 64.42 69.43 64.99 69.43 65.55 69.43 66.12 69.43 66.68 69.43 67.25 69.43 67.81 69.43 68.38 69.43 68.94 69.43 69.51 69.43 70.07 69.43 70.64 69.43 71.2 69.43 71.77 69.43 72.33 69.43 72.9 69.43 73.46 69.43 74.03 69.43 74.59 69.43 75.16 69.43 75.72 69.43 76.29 69.43 76.85 69.43 77.42 69.43 77.98 69.43 78.55 69.43 79.12 69.43 79.68 69.43 80.25 69.43 80.81 69.43 81.38 69.43 81.94 69.43 82.51 69.43 83.07 69.43 83.64 69.43 84.2 69.43 84.77 69.43 85.33 69.43 85.9 69.43 86.46 69.43 87.03 69.43 87.59 69.43 88.16 69.43 88.72 69.43 89.29 69.43 89.85 69.43 90.42 69.43 90.98 69.43 91.55 69.43 92.11 69.43 92.68 69.43 93.24 69.43 93.81 69.43 94.37 69.43 94.94 69.43 95.51 69.43 96.07 69.43 96.64 69.43 97.2 69.43 97.77 69.43 98.33 69.43 98.9 69.43 99.46 69.43 100.03 69.43 100.59 69.43 101.16 69.43 101.72 69.43 102.29 69.43 102.85 69.43 103.42 69.43 103.98 69.43 104.55 69.43 105.11 69.43 105.68 69.43 106.24 69.43 106.81 69.43 107.37 69.43 107.94 69.43 108.5 69.43 109.07 69.43 109.63 69.43 110.2 69.43 110.77 69.43 111.33 69.43 111.9 69.43 112.46 69.43 113.03 69.43 113.59 69.43 114.16 69.43 114.72 69.43 115.29 69.43 115.85 69.43 116.42 69.43 116.98 69.43 117.55 69.43 118.11 69.43 118.68 69.43 119.24 69.43 119.81 69.43 120.37 69.43 120.94 69.43 121.5 69.43 122.07 69.43 122.63 69.43 123.2 69.43 123.76 69.43 124.33 69.43 124.89 69.43 125.46 69.43 126.03 69.43 126.59 69.43 127.16 69.43 127.72 69.43 128.29 69.43 128.85 69.43 129.42 69.43 129.98 69.43 130.55 69.43 131.11 69.43 131.68 69.43 132.24 69.43 132.81 69.43 133.37 69.43 133.94 69.43" id="img-68f4e328-35" stroke="#D4CA3A" class="geometry color_75"/>
        <path fill="none" d="M21.47,7 L 22.03 18.35 22.6 30.96 23.16 38.53 23.73 43.58 24.29 47.36 24.86 50.51 25.42 53.03 25.99 54.93 26.55 56.19 27.12 57.45 27.68 59.34 28.25 60.6 28.81 61.23 29.38 61.86 29.94 62.49 30.51 63.12 31.07 63.75 31.64 63.75 32.21 63.75 32.77 64.39 33.34 64.39 33.9 65.02 34.47 65.02 35.03 65.65 35.6 65.65 36.16 65.65 36.73 66.28 37.29 66.28 37.86 66.28 38.42 66.91 38.99 66.91 39.55 66.91 40.12 67.54 40.68 67.54 41.25 67.54 41.81 67.54 42.38 67.54 42.94 67.54 43.51 67.54 44.07 67.54 44.64 67.54 45.2 67.54 45.77 67.54 46.33 67.54 46.9 68.17 47.46 68.17 48.03 68.17 48.6 68.17 49.16 68.17 49.73 68.17 50.29 68.17 50.86 68.17 51.42 68.17 51.99 68.17 52.55 68.17 53.12 68.17 53.68 68.17 54.25 68.17 54.81 68.17 55.38 68.17 55.94 68.17 56.51 68.17 57.07 68.17 57.64 68.17 58.2 68.17 58.77 68.17 59.33 68.17 59.9 68.17 60.46 68.17 61.03 68.8 61.59 68.8 62.16 68.8 62.72 68.8 63.29 68.8 63.86 68.8 64.42 68.8 64.99 68.8 65.55 68.8 66.12 68.8 66.68 68.8 67.25 68.8 67.81 68.8 68.38 68.8 68.94 68.8 69.51 68.8 70.07 68.8 70.64 68.8 71.2 68.8 71.77 68.8 72.33 68.8 72.9 68.8 73.46 68.8 74.03 68.8 74.59 68.8 75.16 68.8 75.72 68.8 76.29 68.8 76.85 68.8 77.42 68.8 77.98 68.8 78.55 68.8 79.12 68.8 79.68 68.8 80.25 68.8 80.81 68.8 81.38 68.8 81.94 68.8 82.51 68.8 83.07 68.8 83.64 68.8 84.2 68.8 84.77 68.8 85.33 68.8 85.9 68.8 86.46 68.8 87.03 68.8 87.59 68.8 88.16 69.43 88.72 69.43 89.29 69.43 89.85 69.43 90.42 69.43 90.98 69.43 91.55 69.43 92.11 69.43 92.68 69.43 93.24 69.43 93.81 69.43 94.37 69.43 94.94 69.43 95.51 69.43 96.07 69.43 96.64 69.43 97.2 69.43 97.77 69.43 98.33 69.43 98.9 69.43 99.46 69.43 100.03 69.43 100.59 69.43 101.16 69.43 101.72 69.43 102.29 69.43 102.85 69.43 103.42 69.43 103.98 69.43 104.55 69.43 105.11 69.43 105.68 69.43 106.24 69.43 106.81 69.43 107.37 69.43 107.94 69.43 108.5 69.43 109.07 69.43 109.63 69.43 110.2 69.43 110.77 69.43 111.33 69.43 111.9 69.43 112.46 69.43 113.03 69.43 113.59 69.43 114.16 69.43 114.72 69.43 115.29 69.43 115.85 69.43 116.42 69.43 116.98 69.43 117.55 69.43 118.11 69.43 118.68 69.43 119.24 69.43 119.81 69.43 120.37 69.43 120.94 69.43 121.5 69.43 122.07 69.43 122.63 69.43 123.2 69.43 123.76 69.43 124.33 69.43 124.89 69.43 125.46 69.43 126.03 69.43 126.59 69.43 127.16 69.43 127.72 69.43 128.29 69.43 128.85 69.43 129.42 69.43 129.98 69.43 130.55 69.43 131.11 69.43 131.68 69.43 132.24 69.43 132.81 69.43 133.37 69.43 133.94 69.43" id="img-68f4e328-36" stroke="#FF6DAE" class="geometry color_100"/>
      </g>
    </g>
  </g>
</g>
  <g class="guide ylabels" font-size="2.82" font-family="'PT Sans Caption','Helvetica Neue','Helvetica',sans-serif" fill="#6C606B" id="img-68f4e328-37">
    <text x="18.47" y="70.06" text-anchor="end" dy="0.35em" id="img-68f4e328-38">0</text>
    <text x="18.47" y="38.53" text-anchor="end" dy="0.35em" id="img-68f4e328-39">50</text>
    <text x="18.47" y="7" text-anchor="end" dy="0.35em" id="img-68f4e328-40">100</text>
  </g>
  <g font-size="3.88" font-family="'PT Sans','Helvetica Neue','Helvetica',sans-serif" fill="#564A55" stroke="#000000" stroke-opacity="0.000" id="img-68f4e328-41">
    <text x="8.76" y="36.53" text-anchor="middle" dy="0.35em" transform="rotate(-90, 8.76, 38.53)" id="img-68f4e328-42">nSpecie</text>
  </g>
</g>
<defs>
  <clipPath id="img-68f4e328-17">
  <path d="M19.47,5 L 136.5 5 136.5 72.06 19.47 72.06" />
</clipPath>
</defs>
</svg>
