<?xml version="1.0" encoding="UTF-8"?>
<svg xmlns="http://www.w3.org/2000/svg"
     xmlns:xlink="http://www.w3.org/1999/xlink"
     xmlns:gadfly="http://www.gadflyjl.org/ns"
     version="1.2"
     width="150mm" height="90mm" viewBox="0 0 150 90"
     stroke="none"
     fill="#000000"
     stroke-width="0.3"
     font-size="3.88"
>
<g class="plotroot xscalable yscalable" id="img-c2093784-1">
  <g font-size="3.88" font-family="'PT Sans','Helvetica Neue','Helvetica',sans-serif" fill="#564A55" stroke="#000000" stroke-opacity="0.000" id="img-c2093784-2">
    <text x="77.98" y="79.18" text-anchor="middle" dy="0.6em">time</text>
  </g>
  <g class="guide xlabels" font-size="2.82" font-family="'PT Sans Caption','Helvetica Neue','Helvetica',sans-serif" fill="#6C606B" id="img-c2093784-3">
    <text x="21.47" y="73.06" text-anchor="middle" dy="0.6em">0</text>
    <text x="77.98" y="73.06" text-anchor="middle" dy="0.6em">5.0×10⁴</text>
    <text x="134.5" y="73.06" text-anchor="middle" dy="0.6em">1.0×10⁵</text>
  </g>
  <g class="guide colorkey" id="img-c2093784-4">
    <g fill="#4C404B" font-size="2.82" font-family="'PT Sans','Helvetica Neue','Helvetica',sans-serif" id="img-c2093784-5">
      <text x="140.06" y="33.86" dy="0.35em" id="img-c2093784-6" class="color_10">10</text>
      <text x="140.06" y="36.97" dy="0.35em" id="img-c2093784-7" class="color_30">30</text>
      <text x="140.06" y="40.09" dy="0.35em" id="img-c2093784-8" class="color_50">50</text>
      <text x="140.06" y="43.21" dy="0.35em" id="img-c2093784-9" class="color_70">70</text>
      <text x="140.06" y="46.32" dy="0.35em" id="img-c2093784-10" class="color_100">100</text>
    </g>
    <g stroke="#000000" stroke-opacity="0.000" id="img-c2093784-11">
      <rect x="137.5" y="33.08" width="1.56" height="1.56" id="img-c2093784-12" fill="#00BFFF" class="color_10"/>
      <rect x="137.5" y="36.19" width="1.56" height="1.56" id="img-c2093784-13" fill="#D4CA3A" class="color_30"/>
      <rect x="137.5" y="39.31" width="1.56" height="1.56" id="img-c2093784-14" fill="#FF6DAE" class="color_50"/>
      <rect x="137.5" y="42.43" width="1.56" height="1.56" id="img-c2093784-15" fill="#00B78D" class="color_70"/>
      <rect x="137.5" y="45.54" width="1.56" height="1.56" id="img-c2093784-16" fill="#BEA9FF" class="color_100"/>
    </g>
    <g fill="#362A35" font-size="3.88" font-family="'PT Sans','Helvetica Neue','Helvetica',sans-serif" stroke="#000000" stroke-opacity="0.000" id="img-c2093784-17">
      <text x="137.5" y="29.8" id="img-c2093784-18">r</text>
    </g>
  </g>
<g clip-path="url(#img-c2093784-19)">
  <g id="img-c2093784-20">
    <g pointer-events="visible" opacity="1" fill="#000000" fill-opacity="0.000" stroke="#000000" stroke-opacity="0.000" class="guide background" id="img-c2093784-21">
      <rect x="19.47" y="5" width="117.04" height="67.06" id="img-c2093784-22"/>
    </g>
    <g class="guide ygridlines xfixed" stroke-dasharray="0.5,0.5" stroke-width="0.2" stroke="#D0D0E0" id="img-c2093784-23">
      <path fill="none" d="M19.47,70.06 L 136.5 70.06" id="img-c2093784-24"/>
      <path fill="none" d="M19.47,38.53 L 136.5 38.53" id="img-c2093784-25"/>
      <path fill="none" d="M19.47,7 L 136.5 7" id="img-c2093784-26"/>
    </g>
    <g class="guide xgridlines yfixed" stroke-dasharray="0.5,0.5" stroke-width="0.2" stroke="#D0D0E0" id="img-c2093784-27">
      <path fill="none" d="M21.47,5 L 21.47 72.06" id="img-c2093784-28"/>
      <path fill="none" d="M77.98,5 L 77.98 72.06" id="img-c2093784-29"/>
      <path fill="none" d="M134.5,5 L 134.5 72.06" id="img-c2093784-30"/>
    </g>
    <g class="plotpanel" id="img-c2093784-31">
      <g stroke-width="0.3" fill="#000000" fill-opacity="0.000" stroke-dasharray="none" id="img-c2093784-32">
        <path fill="none" d="M21.47,7 L 22.6 10.15 23.73 21.5 24.86 29.07 25.99 36.01 27.12 39.79 28.25 43.58 29.38 46.73 30.51 49.25 31.64 50.51 32.77 51.77 33.9 53.67 35.03 55.56 36.16 55.56 37.29 56.82 38.42 58.08 39.55 58.71 40.68 59.34 41.81 59.34 42.94 59.97 44.07 60.6 45.2 60.6 46.33 61.23 47.46 61.23 48.6 61.86 49.73 61.86 50.86 62.49 51.99 62.49 53.12 62.49 54.25 63.12 55.38 63.12 56.51 63.12 57.64 63.12 58.77 63.12 59.9 63.12 61.03 63.76 62.16 63.76 63.29 63.76 64.42 64.39 65.55 64.39 66.68 65.02 67.81 65.02 68.94 65.02 70.07 65.02 71.2 65.65 72.33 65.65 73.46 65.65 74.59 65.65 75.72 65.65 76.85 65.65 77.98 65.65 79.12 65.65 80.25 66.28 81.38 66.28 82.51 66.28 83.64 66.28 84.77 66.28 85.9 66.28 87.03 66.91 88.16 66.91 89.29 66.91 90.42 66.91 91.55 66.91 92.68 66.91 93.81 66.91 94.94 66.91 96.07 66.91 97.2 66.91 98.33 66.91 99.46 66.91 100.59 66.91 101.72 67.54 102.85 67.54 103.98 67.54 105.11 67.54 106.24 67.54 107.37 67.54 108.5 67.54 109.63 67.54 110.77 67.54 111.9 67.54 113.03 67.54 114.16 67.54 115.29 67.54 116.42 67.54 117.55 67.54 118.68 67.54 119.81 67.54 120.94 67.54 122.07 67.54 123.2 67.54 124.33 67.54 125.46 67.54 126.59 67.54 127.72 67.54 128.85 67.54 129.98 67.54 131.11 67.54 132.24 67.54 133.37 67.54" id="img-c2093784-33" stroke="#00B78D" class="geometry color_70"/>
        <path fill="none" d="M21.47,31.59 L 22.6 69.43 23.73 69.43 24.86 69.43 25.99 69.43 27.12 70.06 28.25 70.06 29.38 70.06 30.51 70.06 31.64 70.06 32.77 70.06 33.9 70.06 35.03 70.06 36.16 70.06 37.29 70.06 38.42 70.06 39.55 70.06 40.68 70.06 41.81 70.06 42.94 70.06 44.07 70.06 45.2 70.06 46.33 70.06 47.46 70.06 48.6 70.06 49.73 70.06 50.86 70.06 51.99 70.06 53.12 70.06 54.25 70.06 55.38 70.06 56.51 70.06 57.64 70.06 58.77 70.06 59.9 70.06 61.03 70.06 62.16 70.06 63.29 70.06 64.42 70.06 65.55 70.06 66.68 70.06 67.81 70.06 68.94 70.06 70.07 70.06 71.2 70.06 72.33 70.06 73.46 70.06 74.59 70.06 75.72 70.06 76.85 70.06 77.98 70.06 79.12 70.06 80.25 70.06 81.38 70.06 82.51 70.06 83.64 70.06 84.77 70.06 85.9 70.06 87.03 70.06 88.16 70.06 89.29 70.06 90.42 70.06 91.55 70.06 92.68 70.06 93.81 70.06 94.94 70.06 96.07 70.06 97.2 70.06 98.33 70.06 99.46 70.06 100.59 70.06 101.72 70.06 102.85 70.06 103.98 70.06 105.11 70.06 106.24 70.06 107.37 70.06 108.5 70.06 109.63 70.06 110.77 70.06 111.9 70.06 113.03 70.06 114.16 70.06 115.29 70.06 116.42 70.06 117.55 70.06 118.68 70.06 119.81 70.06 120.94 70.06 122.07 70.06 123.2 70.06 124.33 70.06 125.46 70.06 126.59 70.06 127.72 70.06 128.85 70.06 129.98 70.06 131.11 70.06 132.24 70.06 133.37 70.06" id="img-c2093784-34" stroke="#00BFFF" class="geometry color_10"/>
        <path fill="none" d="M21.47,7 L 22.6 7.63 23.73 9.52 24.86 12.68 25.99 17.09 27.12 20.87 28.25 24.66 29.38 27.81 30.51 30.33 31.64 32.86 32.77 35.38 33.9 37.9 35.03 39.79 36.16 41.68 37.29 43.58 38.42 44.21 39.55 46.1 40.68 46.73 41.81 47.99 42.94 48.62 44.07 49.88 45.2 51.14 46.33 51.77 47.46 52.4 48.6 53.67 49.73 54.3 50.86 54.3 51.99 54.93 53.12 55.56 54.25 55.56 55.38 56.82 56.51 56.82 57.64 56.82 58.77 57.45 59.9 58.08 61.03 58.08 62.16 58.08 63.29 58.71 64.42 58.71 65.55 58.71 66.68 59.34 67.81 59.34 68.94 59.97 70.07 59.97 71.2 59.97 72.33 60.6 73.46 60.6 74.59 60.6 75.72 60.6 76.85 61.23 77.98 61.23 79.12 61.23 80.25 61.86 81.38 61.86 82.51 61.86 83.64 61.86 84.77 61.86 85.9 61.86 87.03 62.49 88.16 62.49 89.29 62.49 90.42 63.12 91.55 63.12 92.68 63.12 93.81 63.12 94.94 63.12 96.07 63.12 97.2 63.12 98.33 63.12 99.46 63.12 100.59 63.12 101.72 63.76 102.85 63.76 103.98 63.76 105.11 63.76 106.24 63.76 107.37 63.76 108.5 63.76 109.63 63.76 110.77 63.76 111.9 63.76 113.03 64.39 114.16 64.39 115.29 64.39 116.42 64.39 117.55 64.39 118.68 64.39 119.81 64.39 120.94 64.39 122.07 64.39 123.2 65.02 124.33 65.02 125.46 65.02 126.59 65.02 127.72 65.02 128.85 65.02 129.98 65.02 131.11 65.02 132.24 65.02 133.37 65.02" id="img-c2093784-35" stroke="#BEA9FF" class="geometry color_100"/>
        <path fill="none" d="M21.47,7 L 22.6 53.67 23.73 59.34 24.86 63.12 25.99 65.02 27.12 66.28 28.25 66.91 29.38 66.91 30.51 67.54 31.64 67.54 32.77 67.54 33.9 68.17 35.03 68.17 36.16 68.17 37.29 68.17 38.42 68.17 39.55 68.17 40.68 68.8 41.81 68.8 42.94 68.8 44.07 68.8 45.2 68.8 46.33 68.8 47.46 68.8 48.6 68.8 49.73 68.8 50.86 68.8 51.99 68.8 53.12 68.8 54.25 68.8 55.38 68.8 56.51 68.8 57.64 68.8 58.77 68.8 59.9 69.43 61.03 69.43 62.16 69.43 63.29 69.43 64.42 69.43 65.55 69.43 66.68 69.43 67.81 69.43 68.94 69.43 70.07 69.43 71.2 69.43 72.33 69.43 73.46 69.43 74.59 69.43 75.72 69.43 76.85 69.43 77.98 69.43 79.12 69.43 80.25 69.43 81.38 69.43 82.51 69.43 83.64 69.43 84.77 69.43 85.9 69.43 87.03 69.43 88.16 69.43 89.29 69.43 90.42 69.43 91.55 69.43 92.68 69.43 93.81 69.43 94.94 69.43 96.07 69.43 97.2 69.43 98.33 69.43 99.46 69.43 100.59 69.43 101.72 69.43 102.85 69.43 103.98 69.43 105.11 69.43 106.24 69.43 107.37 69.43 108.5 69.43 109.63 69.43 110.77 69.43 111.9 69.43 113.03 69.43 114.16 69.43 115.29 69.43 116.42 69.43 117.55 69.43 118.68 69.43 119.81 69.43 120.94 69.43 122.07 69.43 123.2 69.43 124.33 69.43 125.46 69.43 126.59 69.43 127.72 69.43 128.85 69.43 129.98 69.43 131.11 69.43 132.24 69.43 133.37 69.43" id="img-c2093784-36" stroke="#D4CA3A" class="geometry color_30"/>
        <path fill="none" d="M21.47,7 L 22.6 29.07 23.73 42.31 24.86 49.25 25.99 53.67 27.12 56.19 28.25 58.08 29.38 59.97 30.51 60.6 31.64 61.86 32.77 62.49 33.9 62.49 35.03 63.12 36.16 63.76 37.29 64.39 38.42 64.39 39.55 64.39 40.68 65.02 41.81 65.02 42.94 65.02 44.07 65.65 45.2 66.28 46.33 66.28 47.46 66.28 48.6 66.28 49.73 66.28 50.86 66.91 51.99 66.91 53.12 66.91 54.25 66.91 55.38 66.91 56.51 66.91 57.64 66.91 58.77 66.91 59.9 67.54 61.03 67.54 62.16 67.54 63.29 67.54 64.42 67.54 65.55 67.54 66.68 67.54 67.81 67.54 68.94 67.54 70.07 67.54 71.2 67.54 72.33 68.17 73.46 68.17 74.59 68.17 75.72 68.17 76.85 68.17 77.98 68.17 79.12 68.17 80.25 68.17 81.38 68.17 82.51 68.17 83.64 68.17 84.77 68.17 85.9 68.17 87.03 68.17 88.16 68.17 89.29 68.17 90.42 68.17 91.55 68.17 92.68 68.17 93.81 68.17 94.94 68.17 96.07 68.17 97.2 68.17 98.33 68.17 99.46 68.17 100.59 68.17 101.72 68.17 102.85 68.17 103.98 68.17 105.11 68.17 106.24 68.17 107.37 68.17 108.5 68.17 109.63 68.17 110.77 68.17 111.9 68.17 113.03 68.17 114.16 68.17 115.29 68.17 116.42 68.8 117.55 68.8 118.68 68.8 119.81 68.8 120.94 68.8 122.07 68.8 123.2 68.8 124.33 68.8 125.46 68.8 126.59 68.8 127.72 68.8 128.85 68.8 129.98 68.8 131.11 68.8 132.24 68.8 133.37 68.8" id="img-c2093784-37" stroke="#FF6DAE" class="geometry color_50"/>
      </g>
    </g>
  </g>
</g>
  <g class="guide ylabels" font-size="2.82" font-family="'PT Sans Caption','Helvetica Neue','Helvetica',sans-serif" fill="#6C606B" id="img-c2093784-38">
    <text x="18.47" y="70.06" text-anchor="end" dy="0.35em" id="img-c2093784-39">0</text>
    <text x="18.47" y="38.53" text-anchor="end" dy="0.35em" id="img-c2093784-40">50</text>
    <text x="18.47" y="7" text-anchor="end" dy="0.35em" id="img-c2093784-41">100</text>
  </g>
  <g font-size="3.88" font-family="'PT Sans','Helvetica Neue','Helvetica',sans-serif" fill="#564A55" stroke="#000000" stroke-opacity="0.000" id="img-c2093784-42">
    <text x="8.76" y="36.53" text-anchor="middle" dy="0.35em" transform="rotate(-90, 8.76, 38.53)" id="img-c2093784-43">nSpecie</text>
  </g>
</g>
<defs>
  <clipPath id="img-c2093784-19">
  <path d="M19.47,5 L 136.5 5 136.5 72.06 19.47 72.06" />
</clipPath>
</defs>
</svg>
