<?xml version="1.0" encoding="UTF-8"?>
<svg xmlns="http://www.w3.org/2000/svg"
     xmlns:xlink="http://www.w3.org/1999/xlink"
     xmlns:gadfly="http://www.gadflyjl.org/ns"
     version="1.2"
     width="150mm" height="90mm" viewBox="0 0 150 90"
     stroke="none"
     fill="#000000"
     stroke-width="0.3"
     font-size="3.88"
>
<g class="plotroot xscalable yscalable" id="img-77e8034f-1">
  <g font-size="3.88" font-family="'PT Sans','Helvetica Neue','Helvetica',sans-serif" fill="#564A55" stroke="#000000" stroke-opacity="0.000" id="img-77e8034f-2">
    <text x="77.1" y="79.18" text-anchor="middle" dy="0.6em">time</text>
  </g>
  <g class="guide xlabels" font-size="2.82" font-family="'PT Sans Caption','Helvetica Neue','Helvetica',sans-serif" fill="#6C606B" id="img-77e8034f-3">
    <text x="21.47" y="73.06" text-anchor="middle" dy="0.6em">0</text>
    <text x="77.1" y="73.06" text-anchor="middle" dy="0.6em">5.0×10⁴</text>
    <text x="132.74" y="73.06" text-anchor="middle" dy="0.6em">1.0×10⁵</text>
  </g>
  <g class="guide colorkey" id="img-77e8034f-4">
    <g fill="#4C404B" font-size="2.82" font-family="'PT Sans','Helvetica Neue','Helvetica',sans-serif" id="img-77e8034f-5">
      <text x="138.3" y="30.74" dy="0.35em" id="img-77e8034f-6" class="color_1">1</text>
      <text x="138.3" y="33.86" dy="0.35em" id="img-77e8034f-7" class="color_2">2</text>
      <text x="138.3" y="36.97" dy="0.35em" id="img-77e8034f-8" class="color_5">5</text>
      <text x="138.3" y="40.09" dy="0.35em" id="img-77e8034f-9" class="color_10">10</text>
      <text x="138.3" y="43.21" dy="0.35em" id="img-77e8034f-10" class="color_25">25</text>
      <text x="138.3" y="46.32" dy="0.35em" id="img-77e8034f-11" class="color_50">50</text>
      <text x="138.3" y="49.44" dy="0.35em" id="img-77e8034f-12" class="color_2500">2500</text>
    </g>
    <g stroke="#000000" stroke-opacity="0.000" id="img-77e8034f-13">
      <rect x="135.74" y="29.96" width="1.56" height="1.56" id="img-77e8034f-14" fill="#00BFFF" class="color_1"/>
      <rect x="135.74" y="33.08" width="1.56" height="1.56" id="img-77e8034f-15" fill="#D4CA3A" class="color_2"/>
      <rect x="135.74" y="36.19" width="1.56" height="1.56" id="img-77e8034f-16" fill="#FF6DAE" class="color_5"/>
      <rect x="135.74" y="39.31" width="1.56" height="1.56" id="img-77e8034f-17" fill="#00B78D" class="color_10"/>
      <rect x="135.74" y="42.43" width="1.56" height="1.56" id="img-77e8034f-18" fill="#BEA9FF" class="color_25"/>
      <rect x="135.74" y="45.54" width="1.56" height="1.56" id="img-77e8034f-19" fill="#FF6765" class="color_50"/>
      <rect x="135.74" y="48.66" width="1.56" height="1.56" id="img-77e8034f-20" fill="#C6C6C6" class="color_2500"/>
    </g>
    <g fill="#362A35" font-size="3.88" font-family="'PT Sans','Helvetica Neue','Helvetica',sans-serif" stroke="#000000" stroke-opacity="0.000" id="img-77e8034f-21">
      <text x="135.74" y="26.68" id="img-77e8034f-22">r</text>
    </g>
  </g>
<g clip-path="url(#img-77e8034f-23)">
  <g id="img-77e8034f-24">
    <g pointer-events="visible" opacity="1" fill="#000000" fill-opacity="0.000" stroke="#000000" stroke-opacity="0.000" class="guide background" id="img-77e8034f-25">
      <rect x="19.47" y="5" width="115.27" height="67.06" id="img-77e8034f-26"/>
    </g>
    <g class="guide ygridlines xfixed" stroke-dasharray="0.5,0.5" stroke-width="0.2" stroke="#D0D0E0" id="img-77e8034f-27">
      <path fill="none" d="M19.47,70.06 L 134.74 70.06" id="img-77e8034f-28"/>
      <path fill="none" d="M19.47,38.53 L 134.74 38.53" id="img-77e8034f-29"/>
      <path fill="none" d="M19.47,7 L 134.74 7" id="img-77e8034f-30"/>
    </g>
    <g class="guide xgridlines yfixed" stroke-dasharray="0.5,0.5" stroke-width="0.2" stroke="#D0D0E0" id="img-77e8034f-31">
      <path fill="none" d="M21.47,5 L 21.47 72.06" id="img-77e8034f-32"/>
      <path fill="none" d="M77.1,5 L 77.1 72.06" id="img-77e8034f-33"/>
      <path fill="none" d="M132.74,5 L 132.74 72.06" id="img-77e8034f-34"/>
    </g>
    <g class="plotpanel" id="img-77e8034f-35">
      <g stroke-width="0.3" fill="#000000" fill-opacity="0.000" stroke-dasharray="none" id="img-77e8034f-36">
        <path fill="none" d="M21.47,7 L 22.58 27.81 23.69 41.68 24.8 48.62 25.92 53.03 27.03 55.56 28.14 58.08 29.26 59.34 30.37 59.97 31.48 61.23 32.59 62.49 33.71 62.49 34.82 63.12 35.93 63.75 37.04 63.75 38.16 64.39 39.27 65.02 40.38 65.02 41.5 65.65 42.61 65.65 43.72 65.65 44.83 66.28 45.95 66.28 47.06 66.28 48.17 66.28 49.28 66.91 50.4 66.91 51.51 66.91 52.62 66.91 53.74 67.54 54.85 67.54 55.96 67.54 57.07 67.54 58.19 67.54 59.3 67.54 60.41 67.54 61.52 67.54 62.64 67.54 63.75 67.54 64.86 67.54 65.98 67.54 67.09 67.54 68.2 67.54 69.31 67.54 70.43 68.17 71.54 68.17 72.65 68.17 73.76 68.17 74.88 68.17 75.99 68.17 77.1 68.17 78.22 68.17 79.33 68.17 80.44 68.17 81.55 68.17 82.67 68.17 83.78 68.17 84.89 68.17 86 68.17 87.12 68.17 88.23 68.17 89.34 68.17 90.46 68.17 91.57 68.17 92.68 68.17 93.79 68.17 94.91 68.17 96.02 68.8 97.13 68.8 98.24 68.8 99.36 68.8 100.47 68.8 101.58 68.8 102.7 68.8 103.81 68.8 104.92 68.8 106.03 68.8 107.15 68.8 108.26 68.8 109.37 68.8 110.48 68.8 111.6 68.8 112.71 68.8 113.82 68.8 114.94 68.8 116.05 68.8 117.16 68.8 118.27 68.8 119.39 68.8 120.5 68.8 121.61 68.8 122.72 68.8 123.84 68.8 124.95 68.8 126.06 68.8 127.18 68.8 128.29 68.8 129.4 68.8 130.51 68.8 131.63 68.8" id="img-77e8034f-37" stroke="#00B78D" class="geometry color_10"/>
        <path fill="none" d="M21.47,7 L 22.58 48.62 23.69 56.19 24.8 60.6 25.92 63.12 27.03 65.02 28.14 66.28 29.26 66.91 30.37 67.54 31.48 67.54 32.59 68.17 33.71 68.17 34.82 68.8 35.93 68.8 37.04 68.8 38.16 68.8 39.27 68.8 40.38 68.8 41.5 69.43 42.61 69.43 43.72 69.43 44.83 69.43 45.95 69.43 47.06 69.43 48.17 69.43 49.28 69.43 50.4 69.43 51.51 69.43 52.62 69.43 53.74 69.43 54.85 69.43 55.96 69.43 57.07 69.43 58.19 69.43 59.3 69.43 60.41 69.43 61.52 70.06 62.64 70.06 63.75 70.06 64.86 70.06 65.98 70.06 67.09 70.06 68.2 70.06 69.31 70.06 70.43 70.06 71.54 70.06 72.65 70.06 73.76 70.06 74.88 70.06 75.99 70.06 77.1 70.06 78.22 70.06 79.33 70.06 80.44 70.06 81.55 70.06 82.67 70.06 83.78 70.06 84.89 70.06 86 70.06 87.12 70.06 88.23 70.06 89.34 70.06 90.46 70.06 91.57 70.06 92.68 70.06 93.79 70.06 94.91 70.06 96.02 70.06 97.13 70.06 98.24 70.06 99.36 70.06 100.47 70.06 101.58 70.06 102.7 70.06 103.81 70.06 104.92 70.06 106.03 70.06 107.15 70.06 108.26 70.06 109.37 70.06 110.48 70.06 111.6 70.06 112.71 70.06 113.82 70.06 114.94 70.06 116.05 70.06 117.16 70.06 118.27 70.06 119.39 70.06 120.5 70.06 121.61 70.06 122.72 70.06 123.84 70.06 124.95 70.06 126.06 70.06 127.18 70.06 128.29 70.06 129.4 70.06 130.51 70.06 131.63 70.06" id="img-77e8034f-38" stroke="#00BFFF" class="geometry color_1"/>
        <path fill="none" d="M21.47,7 L 22.58 27.81 23.69 41.68 24.8 49.25 25.92 52.4 27.03 55.56 28.14 57.45 29.26 58.71 30.37 59.97 31.48 61.23 32.59 61.86 33.71 61.86 34.82 63.12 35.93 63.75 37.04 63.75 38.16 64.39 39.27 64.39 40.38 64.39 41.5 64.39 42.61 65.02 43.72 65.02 44.83 65.02 45.95 65.65 47.06 65.65 48.17 65.65 49.28 66.28 50.4 66.28 51.51 66.28 52.62 66.91 53.74 66.91 54.85 66.91 55.96 66.91 57.07 66.91 58.19 67.54 59.3 67.54 60.41 67.54 61.52 67.54 62.64 67.54 63.75 67.54 64.86 68.17 65.98 68.17 67.09 68.17 68.2 68.17 69.31 68.17 70.43 68.17 71.54 68.17 72.65 68.17 73.76 68.17 74.88 68.17 75.99 68.17 77.1 68.17 78.22 68.17 79.33 68.17 80.44 68.17 81.55 68.17 82.67 68.17 83.78 68.17 84.89 68.17 86 68.17 87.12 68.17 88.23 68.17 89.34 68.17 90.46 68.17 91.57 68.17 92.68 68.17 93.79 68.17 94.91 68.17 96.02 68.8 97.13 68.8 98.24 68.8 99.36 68.8 100.47 68.8 101.58 68.8 102.7 68.8 103.81 68.8 104.92 68.8 106.03 68.8 107.15 68.8 108.26 68.8 109.37 68.8 110.48 68.8 111.6 68.8 112.71 68.8 113.82 68.8 114.94 68.8 116.05 68.8 117.16 68.8 118.27 68.8 119.39 68.8 120.5 68.8 121.61 68.8 122.72 68.8 123.84 68.8 124.95 68.8 126.06 68.8 127.18 68.8 128.29 68.8 129.4 68.8 130.51 68.8 131.63 68.8" id="img-77e8034f-39" stroke="#BEA9FF" class="geometry color_25"/>
        <path fill="none" d="M21.47,7 L 22.58 30.33 23.69 43.58 24.8 49.25 25.92 53.03 27.03 56.19 28.14 58.08 29.26 59.34 30.37 59.97 31.48 61.23 32.59 61.86 33.71 62.49 34.82 63.12 35.93 63.12 37.04 63.75 38.16 64.39 39.27 65.02 40.38 65.02 41.5 65.65 42.61 65.65 43.72 66.28 44.83 66.28 45.95 66.91 47.06 66.91 48.17 66.91 49.28 66.91 50.4 66.91 51.51 67.54 52.62 67.54 53.74 68.17 54.85 68.17 55.96 68.17 57.07 68.17 58.19 68.17 59.3 68.17 60.41 68.17 61.52 68.17 62.64 68.8 63.75 68.8 64.86 68.8 65.98 68.8 67.09 68.8 68.2 68.8 69.31 68.8 70.43 68.8 71.54 68.8 72.65 68.8 73.76 68.8 74.88 68.8 75.99 68.8 77.1 68.8 78.22 68.8 79.33 68.8 80.44 69.43 81.55 69.43 82.67 69.43 83.78 69.43 84.89 69.43 86 69.43 87.12 69.43 88.23 69.43 89.34 69.43 90.46 69.43 91.57 69.43 92.68 69.43 93.79 69.43 94.91 69.43 96.02 69.43 97.13 69.43 98.24 69.43 99.36 69.43 100.47 69.43 101.58 69.43 102.7 69.43 103.81 69.43 104.92 69.43 106.03 69.43 107.15 69.43 108.26 69.43 109.37 69.43 110.48 69.43 111.6 69.43 112.71 69.43 113.82 69.43 114.94 69.43 116.05 69.43 117.16 69.43 118.27 69.43 119.39 69.43 120.5 69.43 121.61 69.43 122.72 69.43 123.84 69.43 124.95 69.43 126.06 69.43 127.18 69.43 128.29 69.43 129.4 69.43 130.51 69.43 131.63 69.43" id="img-77e8034f-40" stroke="#C6C6C6" class="geometry color_2500"/>
        <path fill="none" d="M21.47,7 L 22.58 44.84 23.69 54.3 24.8 58.08 25.92 60.6 27.03 63.12 28.14 64.39 29.26 65.65 30.37 66.28 31.48 66.28 32.59 66.91 33.71 66.91 34.82 67.54 35.93 67.54 37.04 67.54 38.16 67.54 39.27 68.17 40.38 68.17 41.5 68.17 42.61 68.17 43.72 68.17 44.83 68.17 45.95 68.8 47.06 68.8 48.17 68.8 49.28 68.8 50.4 68.8 51.51 68.8 52.62 68.8 53.74 68.8 54.85 68.8 55.96 68.8 57.07 68.8 58.19 69.43 59.3 69.43 60.41 69.43 61.52 69.43 62.64 69.43 63.75 69.43 64.86 69.43 65.98 69.43 67.09 69.43 68.2 69.43 69.31 69.43 70.43 69.43 71.54 69.43 72.65 69.43 73.76 69.43 74.88 69.43 75.99 69.43 77.1 69.43 78.22 69.43 79.33 69.43 80.44 69.43 81.55 69.43 82.67 69.43 83.78 69.43 84.89 69.43 86 69.43 87.12 69.43 88.23 69.43 89.34 69.43 90.46 69.43 91.57 69.43 92.68 69.43 93.79 69.43 94.91 69.43 96.02 69.43 97.13 69.43 98.24 69.43 99.36 69.43 100.47 69.43 101.58 69.43 102.7 69.43 103.81 69.43 104.92 69.43 106.03 69.43 107.15 69.43 108.26 69.43 109.37 69.43 110.48 69.43 111.6 69.43 112.71 69.43 113.82 69.43 114.94 69.43 116.05 69.43 117.16 69.43 118.27 69.43 119.39 69.43 120.5 69.43 121.61 69.43 122.72 69.43 123.84 69.43 124.95 69.43 126.06 69.43 127.18 69.43 128.29 69.43 129.4 69.43 130.51 69.43 131.63 69.43" id="img-77e8034f-41" stroke="#D4CA3A" class="geometry color_2"/>
        <path fill="none" d="M21.47,7 L 22.58 29.07 23.69 42.31 24.8 49.25 25.92 53.03 27.03 55.56 28.14 56.82 29.26 58.71 30.37 59.97 31.48 61.23 32.59 62.49 33.71 63.12 34.82 63.12 35.93 63.75 37.04 64.39 38.16 64.39 39.27 65.02 40.38 65.02 41.5 65.02 42.61 65.65 43.72 65.65 44.83 65.65 45.95 66.28 47.06 66.28 48.17 66.28 49.28 66.28 50.4 66.28 51.51 66.91 52.62 66.91 53.74 66.91 54.85 66.91 55.96 66.91 57.07 66.91 58.19 66.91 59.3 66.91 60.41 67.54 61.52 67.54 62.64 67.54 63.75 67.54 64.86 67.54 65.98 67.54 67.09 67.54 68.2 67.54 69.31 67.54 70.43 68.17 71.54 68.17 72.65 68.17 73.76 68.17 74.88 68.17 75.99 68.17 77.1 68.17 78.22 68.17 79.33 68.17 80.44 68.17 81.55 68.17 82.67 68.17 83.78 68.8 84.89 68.8 86 68.8 87.12 68.8 88.23 68.8 89.34 68.8 90.46 68.8 91.57 68.8 92.68 68.8 93.79 68.8 94.91 68.8 96.02 68.8 97.13 68.8 98.24 68.8 99.36 68.8 100.47 68.8 101.58 68.8 102.7 68.8 103.81 68.8 104.92 68.8 106.03 68.8 107.15 68.8 108.26 68.8 109.37 68.8 110.48 68.8 111.6 68.8 112.71 68.8 113.82 68.8 114.94 68.8 116.05 68.8 117.16 68.8 118.27 68.8 119.39 68.8 120.5 68.8 121.61 68.8 122.72 68.8 123.84 68.8 124.95 68.8 126.06 68.8 127.18 68.8 128.29 68.8 129.4 68.8 130.51 68.8 131.63 68.8" id="img-77e8034f-42" stroke="#FF6765" class="geometry color_50"/>
        <path fill="none" d="M21.47,7 L 22.58 28.44 23.69 42.31 24.8 49.88 25.92 54.93 27.03 58.08 28.14 60.6 29.26 61.86 30.37 62.49 31.48 63.75 32.59 64.39 33.71 64.39 34.82 64.39 35.93 65.02 37.04 65.02 38.16 65.65 39.27 66.28 40.38 66.28 41.5 66.28 42.61 66.91 43.72 66.91 44.83 66.91 45.95 66.91 47.06 66.91 48.17 66.91 49.28 66.91 50.4 67.54 51.51 67.54 52.62 67.54 53.74 67.54 54.85 67.54 55.96 67.54 57.07 67.54 58.19 67.54 59.3 67.54 60.41 68.17 61.52 68.17 62.64 68.17 63.75 68.17 64.86 68.17 65.98 68.17 67.09 68.17 68.2 68.17 69.31 68.17 70.43 68.17 71.54 68.17 72.65 68.17 73.76 68.17 74.88 68.17 75.99 68.17 77.1 68.17 78.22 68.17 79.33 68.17 80.44 68.17 81.55 68.17 82.67 68.17 83.78 68.17 84.89 68.17 86 68.17 87.12 68.17 88.23 68.17 89.34 68.17 90.46 68.17 91.57 68.17 92.68 68.17 93.79 68.17 94.91 68.17 96.02 68.17 97.13 68.8 98.24 68.8 99.36 68.8 100.47 68.8 101.58 68.8 102.7 68.8 103.81 68.8 104.92 68.8 106.03 68.8 107.15 68.8 108.26 68.8 109.37 68.8 110.48 68.8 111.6 68.8 112.71 68.8 113.82 68.8 114.94 68.8 116.05 68.8 117.16 68.8 118.27 68.8 119.39 68.8 120.5 68.8 121.61 68.8 122.72 68.8 123.84 68.8 124.95 68.8 126.06 68.8 127.18 68.8 128.29 68.8 129.4 68.8 130.51 68.8 131.63 68.8" id="img-77e8034f-43" stroke="#FF6DAE" class="geometry color_5"/>
      </g>
    </g>
  </g>
</g>
  <g class="guide ylabels" font-size="2.82" font-family="'PT Sans Caption','Helvetica Neue','Helvetica',sans-serif" fill="#6C606B" id="img-77e8034f-44">
    <text x="18.47" y="70.06" text-anchor="end" dy="0.35em" id="img-77e8034f-45">0</text>
    <text x="18.47" y="38.53" text-anchor="end" dy="0.35em" id="img-77e8034f-46">50</text>
    <text x="18.47" y="7" text-anchor="end" dy="0.35em" id="img-77e8034f-47">100</text>
  </g>
  <g font-size="3.88" font-family="'PT Sans','Helvetica Neue','Helvetica',sans-serif" fill="#564A55" stroke="#000000" stroke-opacity="0.000" id="img-77e8034f-48">
    <text x="8.76" y="36.53" text-anchor="middle" dy="0.35em" transform="rotate(-90, 8.76, 38.53)" id="img-77e8034f-49">nSpecie</text>
  </g>
</g>
<defs>
  <clipPath id="img-77e8034f-23">
  <path d="M19.47,5 L 134.74 5 134.74 72.06 19.47 72.06" />
</clipPath>
</defs>
</svg>
