<?xml version="1.0" encoding="UTF-8"?>
<svg xmlns="http://www.w3.org/2000/svg"
     xmlns:xlink="http://www.w3.org/1999/xlink"
     xmlns:gadfly="http://www.gadflyjl.org/ns"
     version="1.2"
     width="150mm" height="90mm" viewBox="0 0 150 90"
     stroke="none"
     fill="#000000"
     stroke-width="0.3"
     font-size="3.88"
>
<g class="plotroot xscalable yscalable" id="img-5db082cb-1">
  <g font-size="3.88" font-family="'PT Sans','Helvetica Neue','Helvetica',sans-serif" fill="#564A55" stroke="#000000" stroke-opacity="0.000" id="img-5db082cb-2">
    <text x="77.98" y="79.18" text-anchor="middle" dy="0.6em">time</text>
  </g>
  <g class="guide xlabels" font-size="2.82" font-family="'PT Sans Caption','Helvetica Neue','Helvetica',sans-serif" fill="#6C606B" id="img-5db082cb-3">
    <text x="21.47" y="73.06" text-anchor="middle" dy="0.6em">0</text>
    <text x="77.98" y="73.06" text-anchor="middle" dy="0.6em">5.0×10⁴</text>
    <text x="134.5" y="73.06" text-anchor="middle" dy="0.6em">1.0×10⁵</text>
  </g>
  <g class="guide colorkey" id="img-5db082cb-4">
    <g fill="#4C404B" font-size="2.82" font-family="'PT Sans','Helvetica Neue','Helvetica',sans-serif" id="img-5db082cb-5">
      <text x="140.06" y="33.86" dy="0.35em" id="img-5db082cb-6" class="color_10">10</text>
      <text x="140.06" y="36.97" dy="0.35em" id="img-5db082cb-7" class="color_30">30</text>
      <text x="140.06" y="40.09" dy="0.35em" id="img-5db082cb-8" class="color_50">50</text>
      <text x="140.06" y="43.21" dy="0.35em" id="img-5db082cb-9" class="color_70">70</text>
      <text x="140.06" y="46.32" dy="0.35em" id="img-5db082cb-10" class="color_100">100</text>
    </g>
    <g stroke="#000000" stroke-opacity="0.000" id="img-5db082cb-11">
      <rect x="137.5" y="33.08" width="1.56" height="1.56" id="img-5db082cb-12" fill="#00BFFF" class="color_10"/>
      <rect x="137.5" y="36.19" width="1.56" height="1.56" id="img-5db082cb-13" fill="#D4CA3A" class="color_30"/>
      <rect x="137.5" y="39.31" width="1.56" height="1.56" id="img-5db082cb-14" fill="#FF6DAE" class="color_50"/>
      <rect x="137.5" y="42.43" width="1.56" height="1.56" id="img-5db082cb-15" fill="#00B78D" class="color_70"/>
      <rect x="137.5" y="45.54" width="1.56" height="1.56" id="img-5db082cb-16" fill="#BEA9FF" class="color_100"/>
    </g>
    <g fill="#362A35" font-size="3.88" font-family="'PT Sans','Helvetica Neue','Helvetica',sans-serif" stroke="#000000" stroke-opacity="0.000" id="img-5db082cb-17">
      <text x="137.5" y="30.15" id="img-5db082cb-18">L</text>
    </g>
  </g>
<g clip-path="url(#img-5db082cb-19)">
  <g id="img-5db082cb-20">
    <g pointer-events="visible" opacity="1" fill="#000000" fill-opacity="0.000" stroke="#000000" stroke-opacity="0.000" class="guide background" id="img-5db082cb-21">
      <rect x="19.47" y="5" width="117.04" height="67.06" id="img-5db082cb-22"/>
    </g>
    <g class="guide ygridlines xfixed" stroke-dasharray="0.5,0.5" stroke-width="0.2" stroke="#D0D0E0" id="img-5db082cb-23">
      <path fill="none" d="M19.47,70.06 L 136.5 70.06" id="img-5db082cb-24"/>
      <path fill="none" d="M19.47,38.53 L 136.5 38.53" id="img-5db082cb-25"/>
      <path fill="none" d="M19.47,7 L 136.5 7" id="img-5db082cb-26"/>
    </g>
    <g class="guide xgridlines yfixed" stroke-dasharray="0.5,0.5" stroke-width="0.2" stroke="#D0D0E0" id="img-5db082cb-27">
      <path fill="none" d="M21.47,5 L 21.47 72.06" id="img-5db082cb-28"/>
      <path fill="none" d="M77.98,5 L 77.98 72.06" id="img-5db082cb-29"/>
      <path fill="none" d="M134.5,5 L 134.5 72.06" id="img-5db082cb-30"/>
    </g>
    <g class="plotpanel" id="img-5db082cb-31">
      <g stroke-width="0.3" fill="#000000" fill-opacity="0.000" stroke-dasharray="none" id="img-5db082cb-32">
        <path fill="none" d="M21.47,7 L 22.6 11.41 23.73 23.4 24.86 31.59 25.99 37.9 27.12 41.68 28.25 44.84 29.38 47.36 30.51 49.25 31.64 50.51 32.77 52.4 33.9 53.67 35.03 54.93 36.16 55.56 37.29 56.82 38.42 58.08 39.55 58.71 40.68 59.34 41.81 59.97 42.94 60.6 44.07 60.6 45.2 61.23 46.33 61.23 47.46 61.86 48.6 62.49 49.73 62.49 50.86 63.12 51.99 63.75 53.12 63.75 54.25 63.75 55.38 64.39 56.51 64.39 57.64 65.02 58.77 65.02 59.9 65.02 61.03 65.65 62.16 65.65 63.29 65.65 64.42 65.65 65.55 65.65 66.68 65.65 67.81 66.28 68.94 66.28 70.07 66.28 71.2 66.28 72.33 66.28 73.46 66.28 74.59 66.91 75.72 66.91 76.85 66.91 77.98 66.91 79.12 66.91 80.25 67.54 81.38 67.54 82.51 67.54 83.64 67.54 84.77 67.54 85.9 67.54 87.03 67.54 88.16 67.54 89.29 67.54 90.42 67.54 91.55 68.17 92.68 68.17 93.81 68.17 94.94 68.17 96.07 68.17 97.2 68.17 98.33 68.17 99.46 68.17 100.59 68.17 101.72 68.17 102.85 68.17 103.98 68.17 105.11 68.17 106.24 68.8 107.37 68.8 108.5 68.8 109.63 68.8 110.77 68.8 111.9 68.8 113.03 68.8 114.16 68.8 115.29 68.8 116.42 68.8 117.55 68.8 118.68 68.8 119.81 68.8 120.94 68.8 122.07 68.8 123.2 68.8 124.33 68.8 125.46 68.8 126.59 68.8 127.72 68.8 128.85 68.8 129.98 68.8 131.11 68.8 132.24 68.8 133.37 68.8" id="img-5db082cb-33" stroke="#00B78D" class="geometry color_70"/>
        <path fill="none" d="M21.47,31.59 L 22.6 69.43 23.73 69.43 24.86 69.43 25.99 69.43 27.12 69.43 28.25 69.43 29.38 69.43 30.51 69.43 31.64 69.43 32.77 69.43 33.9 69.43 35.03 69.43 36.16 69.43 37.29 69.43 38.42 69.43 39.55 69.43 40.68 69.43 41.81 69.43 42.94 69.43 44.07 69.43 45.2 69.43 46.33 69.43 47.46 69.43 48.6 69.43 49.73 69.43 50.86 69.43 51.99 69.43 53.12 69.43 54.25 69.43 55.38 69.43 56.51 69.43 57.64 69.43 58.77 69.43 59.9 69.43 61.03 69.43 62.16 69.43 63.29 69.43 64.42 69.43 65.55 69.43 66.68 69.43 67.81 69.43 68.94 69.43 70.07 69.43 71.2 69.43 72.33 69.43 73.46 69.43 74.59 69.43 75.72 69.43 76.85 69.43 77.98 69.43 79.12 69.43 80.25 69.43 81.38 69.43 82.51 69.43 83.64 69.43 84.77 69.43 85.9 69.43 87.03 69.43 88.16 69.43 89.29 69.43 90.42 69.43 91.55 69.43 92.68 69.43 93.81 69.43 94.94 69.43 96.07 69.43 97.2 69.43 98.33 69.43 99.46 69.43 100.59 69.43 101.72 69.43 102.85 69.43 103.98 69.43 105.11 69.43 106.24 69.43 107.37 69.43 108.5 69.43 109.63 69.43 110.77 69.43 111.9 69.43 113.03 69.43 114.16 69.43 115.29 69.43 116.42 69.43 117.55 69.43 118.68 69.43 119.81 69.43 120.94 69.43 122.07 69.43 123.2 69.43 124.33 69.43 125.46 69.43 126.59 69.43 127.72 69.43 128.85 69.43 129.98 69.43 131.11 69.43 132.24 69.43 133.37 69.43" id="img-5db082cb-34" stroke="#00BFFF" class="geometry color_10"/>
        <path fill="none" d="M21.47,7 L 22.6 7.63 23.73 8.89 24.86 12.68 25.99 16.46 27.12 20.24 28.25 22.77 29.38 25.92 30.51 28.44 31.64 30.96 32.77 32.86 33.9 35.38 35.03 37.27 36.16 39.16 37.29 40.42 38.42 42.31 39.55 43.58 40.68 44.84 41.81 46.1 42.94 47.36 44.07 47.99 45.2 48.62 46.33 49.88 47.46 50.51 48.6 51.77 49.73 52.4 50.86 53.03 51.99 53.67 53.12 54.3 54.25 54.3 55.38 54.93 56.51 54.93 57.64 56.19 58.77 56.82 59.9 57.45 61.03 57.45 62.16 58.08 63.29 58.08 64.42 58.71 65.55 58.71 66.68 59.34 67.81 59.34 68.94 59.34 70.07 59.97 71.2 60.6 72.33 60.6 73.46 61.23 74.59 61.23 75.72 61.23 76.85 61.86 77.98 61.86 79.12 61.86 80.25 61.86 81.38 62.49 82.51 62.49 83.64 62.49 84.77 62.49 85.9 63.12 87.03 63.12 88.16 63.12 89.29 63.12 90.42 63.12 91.55 63.75 92.68 63.75 93.81 63.75 94.94 63.75 96.07 63.75 97.2 64.39 98.33 64.39 99.46 64.39 100.59 64.39 101.72 64.39 102.85 64.39 103.98 65.02 105.11 65.02 106.24 65.02 107.37 65.02 108.5 65.02 109.63 65.02 110.77 65.65 111.9 65.65 113.03 65.65 114.16 65.65 115.29 65.65 116.42 65.65 117.55 65.65 118.68 66.28 119.81 66.28 120.94 66.28 122.07 66.28 123.2 66.28 124.33 66.28 125.46 66.28 126.59 66.28 127.72 66.28 128.85 66.28 129.98 66.28 131.11 66.28 132.24 66.28 133.37 66.28" id="img-5db082cb-35" stroke="#BEA9FF" class="geometry color_100"/>
        <path fill="none" d="M21.47,7 L 22.6 57.45 23.73 63.12 24.86 65.02 25.99 65.65 27.12 66.91 28.25 67.54 29.38 68.17 30.51 68.17 31.64 68.17 32.77 68.8 33.9 68.8 35.03 68.8 36.16 68.8 37.29 69.43 38.42 69.43 39.55 69.43 40.68 69.43 41.81 69.43 42.94 69.43 44.07 69.43 45.2 69.43 46.33 69.43 47.46 69.43 48.6 69.43 49.73 69.43 50.86 69.43 51.99 69.43 53.12 69.43 54.25 69.43 55.38 69.43 56.51 69.43 57.64 69.43 58.77 69.43 59.9 69.43 61.03 69.43 62.16 69.43 63.29 69.43 64.42 69.43 65.55 69.43 66.68 69.43 67.81 69.43 68.94 69.43 70.07 69.43 71.2 69.43 72.33 69.43 73.46 69.43 74.59 69.43 75.72 69.43 76.85 69.43 77.98 69.43 79.12 69.43 80.25 69.43 81.38 69.43 82.51 69.43 83.64 69.43 84.77 69.43 85.9 69.43 87.03 69.43 88.16 69.43 89.29 69.43 90.42 69.43 91.55 69.43 92.68 69.43 93.81 69.43 94.94 69.43 96.07 69.43 97.2 69.43 98.33 69.43 99.46 69.43 100.59 69.43 101.72 69.43 102.85 69.43 103.98 69.43 105.11 69.43 106.24 69.43 107.37 69.43 108.5 69.43 109.63 69.43 110.77 69.43 111.9 69.43 113.03 69.43 114.16 69.43 115.29 69.43 116.42 69.43 117.55 69.43 118.68 69.43 119.81 69.43 120.94 69.43 122.07 69.43 123.2 69.43 124.33 69.43 125.46 69.43 126.59 69.43 127.72 69.43 128.85 69.43 129.98 69.43 131.11 69.43 132.24 69.43 133.37 69.43" id="img-5db082cb-36" stroke="#D4CA3A" class="geometry color_30"/>
        <path fill="none" d="M21.47,7 L 22.6 29.7 23.73 44.21 24.86 50.51 25.99 54.3 27.12 56.82 28.25 58.71 29.38 59.97 30.51 60.6 31.64 61.23 32.77 61.86 33.9 62.49 35.03 63.75 36.16 64.39 37.29 64.39 38.42 65.02 39.55 65.65 40.68 65.65 41.81 66.28 42.94 66.28 44.07 66.28 45.2 66.28 46.33 66.91 47.46 66.91 48.6 66.91 49.73 66.91 50.86 66.91 51.99 67.54 53.12 67.54 54.25 67.54 55.38 67.54 56.51 68.17 57.64 68.17 58.77 68.17 59.9 68.17 61.03 68.17 62.16 68.17 63.29 68.17 64.42 68.17 65.55 68.8 66.68 68.8 67.81 68.8 68.94 68.8 70.07 68.8 71.2 68.8 72.33 68.8 73.46 68.8 74.59 68.8 75.72 68.8 76.85 68.8 77.98 68.8 79.12 68.8 80.25 68.8 81.38 68.8 82.51 68.8 83.64 68.8 84.77 68.8 85.9 68.8 87.03 68.8 88.16 68.8 89.29 68.8 90.42 68.8 91.55 69.43 92.68 69.43 93.81 69.43 94.94 69.43 96.07 69.43 97.2 69.43 98.33 69.43 99.46 69.43 100.59 69.43 101.72 69.43 102.85 69.43 103.98 69.43 105.11 69.43 106.24 69.43 107.37 69.43 108.5 69.43 109.63 69.43 110.77 69.43 111.9 69.43 113.03 69.43 114.16 69.43 115.29 69.43 116.42 69.43 117.55 69.43 118.68 69.43 119.81 69.43 120.94 69.43 122.07 69.43 123.2 69.43 124.33 69.43 125.46 69.43 126.59 69.43 127.72 69.43 128.85 69.43 129.98 69.43 131.11 69.43 132.24 69.43 133.37 69.43" id="img-5db082cb-37" stroke="#FF6DAE" class="geometry color_50"/>
      </g>
    </g>
  </g>
</g>
  <g class="guide ylabels" font-size="2.82" font-family="'PT Sans Caption','Helvetica Neue','Helvetica',sans-serif" fill="#6C606B" id="img-5db082cb-38">
    <text x="18.47" y="70.06" text-anchor="end" dy="0.35em" id="img-5db082cb-39">0</text>
    <text x="18.47" y="38.53" text-anchor="end" dy="0.35em" id="img-5db082cb-40">50</text>
    <text x="18.47" y="7" text-anchor="end" dy="0.35em" id="img-5db082cb-41">100</text>
  </g>
  <g font-size="3.88" font-family="'PT Sans','Helvetica Neue','Helvetica',sans-serif" fill="#564A55" stroke="#000000" stroke-opacity="0.000" id="img-5db082cb-42">
    <text x="8.76" y="36.53" text-anchor="middle" dy="0.35em" transform="rotate(-90, 8.76, 38.53)" id="img-5db082cb-43">nSpecie</text>
  </g>
</g>
<defs>
  <clipPath id="img-5db082cb-19">
  <path d="M19.47,5 L 136.5 5 136.5 72.06 19.47 72.06" />
</clipPath>
</defs>
</svg>
