<?xml version="1.0" encoding="UTF-8"?>
<svg xmlns="http://www.w3.org/2000/svg"
     xmlns:xlink="http://www.w3.org/1999/xlink"
     xmlns:gadfly="http://www.gadflyjl.org/ns"
     version="1.2"
     width="150mm" height="90mm" viewBox="0 0 150 90"
     stroke="none"
     fill="#000000"
     stroke-width="0.3"
     font-size="3.88"
>
<g class="plotroot xscalable yscalable" id="img-d3f7261d-1">
  <g font-size="3.88" font-family="'PT Sans','Helvetica Neue','Helvetica',sans-serif" fill="#564A55" stroke="#000000" stroke-opacity="0.000" id="img-d3f7261d-2">
    <text x="74.81" y="79.18" text-anchor="middle" dy="0.6em">time</text>
  </g>
  <g class="guide xlabels" font-size="2.82" font-family="'PT Sans Caption','Helvetica Neue','Helvetica',sans-serif" fill="#6C606B" id="img-d3f7261d-3">
    <text x="21.47" y="73.06" text-anchor="middle" dy="0.6em">0</text>
    <text x="74.81" y="73.06" text-anchor="middle" dy="0.6em">5.0×10⁴</text>
    <text x="128.15" y="73.06" text-anchor="middle" dy="0.6em">1.0×10⁵</text>
  </g>
  <g class="guide colorkey" id="img-d3f7261d-4">
    <g fill="#4C404B" font-size="2.82" font-family="'PT Sans','Helvetica Neue','Helvetica',sans-serif" id="img-d3f7261d-5">
      <text x="133.71" y="32.3" dy="0.35em" id="img-d3f7261d-6" class="color_0.0">0.0</text>
      <text x="133.71" y="35.41" dy="0.35em" id="img-d3f7261d-7" class="color_0.00025">0.00025</text>
      <text x="133.71" y="38.53" dy="0.35em" id="img-d3f7261d-8" class="color_0.0005">0.0005</text>
      <text x="133.71" y="41.65" dy="0.35em" id="img-d3f7261d-9" class="color_0.00075">0.00075</text>
      <text x="133.71" y="44.76" dy="0.35em" id="img-d3f7261d-10" class="color_0.001">0.001</text>
      <text x="133.71" y="47.88" dy="0.35em" id="img-d3f7261d-11" class="color_0.01">0.01</text>
    </g>
    <g stroke="#000000" stroke-opacity="0.000" id="img-d3f7261d-12">
      <rect x="131.15" y="31.52" width="1.56" height="1.56" id="img-d3f7261d-13" fill="#00BFFF" class="color_0.0"/>
      <rect x="131.15" y="34.63" width="1.56" height="1.56" id="img-d3f7261d-14" fill="#D4CA3A" class="color_0.00025"/>
      <rect x="131.15" y="37.75" width="1.56" height="1.56" id="img-d3f7261d-15" fill="#FF6DAE" class="color_0.0005"/>
      <rect x="131.15" y="40.87" width="1.56" height="1.56" id="img-d3f7261d-16" fill="#00B78D" class="color_0.00075"/>
      <rect x="131.15" y="43.98" width="1.56" height="1.56" id="img-d3f7261d-17" fill="#BEA9FF" class="color_0.001"/>
      <rect x="131.15" y="47.1" width="1.56" height="1.56" id="img-d3f7261d-18" fill="#FF6765" class="color_0.01"/>
    </g>
    <g fill="#362A35" font-size="3.88" font-family="'PT Sans','Helvetica Neue','Helvetica',sans-serif" stroke="#000000" stroke-opacity="0.000" id="img-d3f7261d-19">
      <text x="131.15" y="28.24" id="img-d3f7261d-20">m</text>
    </g>
  </g>
<g clip-path="url(#img-d3f7261d-21)">
  <g id="img-d3f7261d-22">
    <g pointer-events="visible" opacity="1" fill="#000000" fill-opacity="0.000" stroke="#000000" stroke-opacity="0.000" class="guide background" id="img-d3f7261d-23">
      <rect x="19.47" y="5" width="110.69" height="67.06" id="img-d3f7261d-24"/>
    </g>
    <g class="guide ygridlines xfixed" stroke-dasharray="0.5,0.5" stroke-width="0.2" stroke="#D0D0E0" id="img-d3f7261d-25">
      <path fill="none" d="M19.47,70.06 L 130.15 70.06" id="img-d3f7261d-26"/>
      <path fill="none" d="M19.47,38.53 L 130.15 38.53" id="img-d3f7261d-27"/>
      <path fill="none" d="M19.47,7 L 130.15 7" id="img-d3f7261d-28"/>
    </g>
    <g class="guide xgridlines yfixed" stroke-dasharray="0.5,0.5" stroke-width="0.2" stroke="#D0D0E0" id="img-d3f7261d-29">
      <path fill="none" d="M21.47,5 L 21.47 72.06" id="img-d3f7261d-30"/>
      <path fill="none" d="M74.81,5 L 74.81 72.06" id="img-d3f7261d-31"/>
      <path fill="none" d="M128.15,5 L 128.15 72.06" id="img-d3f7261d-32"/>
    </g>
    <g class="plotpanel" id="img-d3f7261d-33">
      <g stroke-width="0.3" fill="#000000" fill-opacity="0.000" stroke-dasharray="none" id="img-d3f7261d-34">
        <path fill="none" d="M21.47,7 L 22.53 29.7 23.6 42.94 24.67 47.36 25.73 51.14 26.8 53.67 27.87 56.19 28.93 58.08 30 58.71 31.07 59.34 32.14 59.97 33.2 60.6 34.27 61.23 35.34 61.86 36.4 62.49 37.47 63.12 38.54 63.12 39.6 63.75 40.67 63.75 41.74 64.39 42.8 64.39 43.87 65.02 44.94 65.02 46 64.39 47.07 64.39 48.14 65.65 49.21 65.02 50.27 65.65 51.34 66.28 52.41 66.28 53.47 66.28 54.54 66.28 55.61 66.91 56.67 65.65 57.74 66.28 58.81 65.65 59.87 66.28 60.94 66.28 62.01 66.28 63.07 66.91 64.14 66.28 65.21 66.28 66.27 66.28 67.34 66.91 68.41 66.28 69.48 66.91 70.54 66.91 71.61 66.91 72.68 66.28 73.74 66.91 74.81 66.91 75.88 67.54 76.94 66.91 78.01 66.91 79.08 66.28 80.14 66.28 81.21 66.91 82.28 66.91 83.34 66.91 84.41 66.91 85.48 66.91 86.55 66.28 87.61 66.28 88.68 66.28 89.75 66.91 90.81 66.91 91.88 66.91 92.95 66.91 94.01 66.91 95.08 66.91 96.15 67.54 97.21 66.28 98.28 66.91 99.35 66.28 100.41 66.91 101.48 66.91 102.55 67.54 103.61 67.54 104.68 66.91 105.75 67.54 106.82 67.54 107.88 67.54 108.95 66.91 110.02 66.28 111.08 66.91 112.15 66.91 113.22 66.91 114.28 66.91 115.35 66.28 116.42 66.91 117.48 66.91 118.55 66.91 119.62 66.91 120.68 66.91 121.75 66.91 122.82 66.28 123.89 66.28 124.95 66.28 126.02 67.54 127.09 66.91" id="img-d3f7261d-35" stroke="#00B78D" class="geometry color_0.00075"/>
        <path fill="none" d="M21.47,7 L 22.53 30.96 23.6 44.21 24.67 49.88 25.73 53.67 26.8 56.82 27.87 58.71 28.93 59.97 30 61.23 31.07 62.49 32.14 63.12 33.2 63.75 34.27 64.39 35.34 65.02 36.4 65.65 37.47 66.28 38.54 66.28 39.6 66.91 40.67 66.91 41.74 66.91 42.8 67.54 43.87 67.54 44.94 67.54 46 67.54 47.07 67.54 48.14 67.54 49.21 67.54 50.27 67.54 51.34 68.17 52.41 68.17 53.47 68.17 54.54 68.17 55.61 68.17 56.67 68.17 57.74 68.17 58.81 68.17 59.87 68.17 60.94 68.17 62.01 68.17 63.07 68.17 64.14 68.17 65.21 68.17 66.27 68.17 67.34 68.17 68.41 68.8 69.48 68.8 70.54 68.8 71.61 68.8 72.68 68.8 73.74 68.8 74.81 68.8 75.88 68.8 76.94 68.8 78.01 68.8 79.08 68.8 80.14 68.8 81.21 68.8 82.28 68.8 83.34 68.8 84.41 68.8 85.48 68.8 86.55 68.8 87.61 68.8 88.68 69.43 89.75 69.43 90.81 69.43 91.88 69.43 92.95 69.43 94.01 69.43 95.08 69.43 96.15 69.43 97.21 69.43 98.28 69.43 99.35 69.43 100.41 69.43 101.48 69.43 102.55 69.43 103.61 69.43 104.68 69.43 105.75 69.43 106.82 69.43 107.88 69.43 108.95 69.43 110.02 69.43 111.08 69.43 112.15 69.43 113.22 69.43 114.28 69.43 115.35 69.43 116.42 69.43 117.48 69.43 118.55 69.43 119.62 69.43 120.68 69.43 121.75 69.43 122.82 69.43 123.89 69.43 124.95 69.43 126.02 69.43 127.09 69.43" id="img-d3f7261d-36" stroke="#00BFFF" class="geometry color_0.0"/>
        <path fill="none" d="M21.47,7 L 22.53 29.07 23.6 43.58 24.67 49.25 25.73 52.4 26.8 54.3 27.87 55.56 28.93 56.82 30 58.08 31.07 59.34 32.14 59.34 33.2 59.34 34.27 59.34 35.34 59.97 36.4 61.23 37.47 60.6 38.54 62.49 39.6 61.86 40.67 63.12 41.74 63.12 42.8 62.49 43.87 63.12 44.94 63.75 46 63.75 47.07 63.12 48.14 64.39 49.21 64.39 50.27 64.39 51.34 63.75 52.41 64.39 53.47 64.39 54.54 65.02 55.61 65.02 56.67 65.02 57.74 65.02 58.81 65.02 59.87 65.02 60.94 65.02 62.01 65.02 63.07 64.39 64.14 65.02 65.21 65.02 66.27 65.02 67.34 65.65 68.41 65.02 69.48 65.65 70.54 66.28 71.61 65.65 72.68 65.65 73.74 65.65 74.81 65.65 75.88 65.02 76.94 65.02 78.01 65.02 79.08 65.65 80.14 65.65 81.21 65.02 82.28 66.28 83.34 66.28 84.41 66.28 85.48 66.28 86.55 65.65 87.61 65.65 88.68 66.28 89.75 66.91 90.81 65.65 91.88 66.28 92.95 65.65 94.01 66.28 95.08 66.91 96.15 66.28 97.21 65.65 98.28 66.28 99.35 65.65 100.41 65.65 101.48 65.65 102.55 66.28 103.61 66.28 104.68 66.28 105.75 66.91 106.82 65.65 107.88 66.28 108.95 66.28 110.02 65.65 111.08 65.65 112.15 66.28 113.22 66.28 114.28 65.65 115.35 66.28 116.42 66.28 117.48 66.91 118.55 66.28 119.62 66.28 120.68 65.65 121.75 66.28 122.82 65.65 123.89 66.28 124.95 66.28 126.02 66.28 127.09 66.91" id="img-d3f7261d-37" stroke="#BEA9FF" class="geometry color_0.001"/>
        <path fill="none" d="M21.47,7 L 22.53 30.33 23.6 44.84 24.67 49.88 25.73 53.67 26.8 56.19 27.87 58.08 28.93 59.34 30 59.97 31.07 61.86 32.14 62.49 33.2 63.12 34.27 63.75 35.34 63.75 36.4 63.75 37.47 64.39 38.54 64.39 39.6 65.02 40.67 65.65 41.74 65.65 42.8 65.65 43.87 65.65 44.94 66.28 46 66.28 47.07 66.28 48.14 66.28 49.21 66.28 50.27 66.28 51.34 66.28 52.41 66.28 53.47 66.91 54.54 66.28 55.61 66.91 56.67 66.91 57.74 66.91 58.81 66.91 59.87 67.54 60.94 67.54 62.01 67.54 63.07 67.54 64.14 67.54 65.21 68.17 66.27 67.54 67.34 68.17 68.41 68.17 69.48 67.54 70.54 68.17 71.61 68.17 72.68 68.17 73.74 68.17 74.81 68.17 75.88 68.17 76.94 68.17 78.01 68.17 79.08 68.17 80.14 68.17 81.21 68.8 82.28 68.8 83.34 68.17 84.41 68.8 85.48 68.17 86.55 68.17 87.61 67.54 88.68 68.17 89.75 68.17 90.81 68.17 91.88 68.8 92.95 68.8 94.01 68.17 95.08 68.17 96.15 68.17 97.21 68.17 98.28 68.17 99.35 68.17 100.41 68.17 101.48 68.17 102.55 68.8 103.61 68.8 104.68 68.8 105.75 68.8 106.82 68.17 107.88 68.8 108.95 68.17 110.02 68.8 111.08 68.17 112.15 68.8 113.22 68.17 114.28 68.8 115.35 68.17 116.42 68.8 117.48 68.17 118.55 68.8 119.62 68.8 120.68 68.17 121.75 68.17 122.82 68.8 123.89 68.17 124.95 68.8 126.02 68.8 127.09 68.8" id="img-d3f7261d-38" stroke="#D4CA3A" class="geometry color_0.00025"/>
        <path fill="none" d="M21.47,7 L 22.53 22.77 23.6 30.33 24.67 34.12 25.73 37.27 26.8 37.9 27.87 37.9 28.93 37.9 30 39.16 31.07 41.68 32.14 41.05 33.2 42.31 34.27 43.58 35.34 42.94 36.4 42.94 37.47 44.21 38.54 44.21 39.6 46.1 40.67 43.58 41.74 44.84 42.8 44.84 43.87 44.84 44.94 45.47 46 46.1 47.07 45.47 48.14 48.62 49.21 48.62 50.27 47.99 51.34 47.99 52.41 49.25 53.47 47.99 54.54 49.88 55.61 49.88 56.67 49.25 57.74 49.25 58.81 49.88 59.87 50.51 60.94 48.62 62.01 49.88 63.07 49.88 64.14 49.88 65.21 49.25 66.27 49.88 67.34 49.25 68.41 48.62 69.48 47.99 70.54 47.99 71.61 49.25 72.68 49.25 73.74 49.25 74.81 49.88 75.88 50.51 76.94 50.51 78.01 51.14 79.08 51.14 80.14 50.51 81.21 51.14 82.28 51.14 83.34 50.51 84.41 51.77 85.48 50.51 86.55 51.14 87.61 51.14 88.68 49.88 89.75 49.25 90.81 49.88 91.88 49.88 92.95 51.77 94.01 51.77 95.08 51.77 96.15 51.77 97.21 52.4 98.28 51.77 99.35 52.4 100.41 51.14 101.48 51.14 102.55 51.14 103.61 51.77 104.68 51.77 105.75 53.03 106.82 52.4 107.88 52.4 108.95 52.4 110.02 52.4 111.08 52.4 112.15 52.4 113.22 53.03 114.28 52.4 115.35 52.4 116.42 53.03 117.48 53.03 118.55 53.67 119.62 53.03 120.68 53.67 121.75 54.3 122.82 53.67 123.89 54.3 124.95 53.67 126.02 52.4 127.09 53.03" id="img-d3f7261d-39" stroke="#FF6765" class="geometry color_0.01"/>
        <path fill="none" d="M21.47,7 L 22.53 31.59 23.6 43.58 24.67 49.25 25.73 52.4 26.8 54.93 27.87 57.45 28.93 58.71 30 59.34 31.07 60.6 32.14 61.86 33.2 61.86 34.27 61.86 35.34 62.49 36.4 63.12 37.47 63.12 38.54 63.75 39.6 64.39 40.67 64.39 41.74 65.02 42.8 65.02 43.87 65.65 44.94 65.02 46 65.65 47.07 65.02 48.14 65.65 49.21 65.65 50.27 65.65 51.34 66.28 52.41 66.28 53.47 65.65 54.54 65.65 55.61 65.65 56.67 66.28 57.74 66.28 58.81 66.28 59.87 66.28 60.94 66.91 62.01 66.28 63.07 66.28 64.14 66.28 65.21 66.28 66.27 66.28 67.34 66.91 68.41 66.91 69.48 66.91 70.54 66.91 71.61 66.91 72.68 66.91 73.74 67.54 74.81 66.91 75.88 67.54 76.94 67.54 78.01 67.54 79.08 66.91 80.14 66.91 81.21 66.91 82.28 67.54 83.34 67.54 84.41 67.54 85.48 66.91 86.55 67.54 87.61 67.54 88.68 67.54 89.75 66.91 90.81 67.54 91.88 67.54 92.95 67.54 94.01 67.54 95.08 67.54 96.15 67.54 97.21 67.54 98.28 67.54 99.35 67.54 100.41 67.54 101.48 68.17 102.55 67.54 103.61 67.54 104.68 67.54 105.75 67.54 106.82 66.91 107.88 66.91 108.95 67.54 110.02 67.54 111.08 67.54 112.15 67.54 113.22 67.54 114.28 67.54 115.35 67.54 116.42 67.54 117.48 68.17 118.55 67.54 119.62 68.17 120.68 68.17 121.75 67.54 122.82 67.54 123.89 67.54 124.95 67.54 126.02 67.54 127.09 67.54" id="img-d3f7261d-40" stroke="#FF6DAE" class="geometry color_0.0005"/>
      </g>
    </g>
  </g>
</g>
  <g class="guide ylabels" font-size="2.82" font-family="'PT Sans Caption','Helvetica Neue','Helvetica',sans-serif" fill="#6C606B" id="img-d3f7261d-41">
    <text x="18.47" y="70.06" text-anchor="end" dy="0.35em" id="img-d3f7261d-42">0</text>
    <text x="18.47" y="38.53" text-anchor="end" dy="0.35em" id="img-d3f7261d-43">50</text>
    <text x="18.47" y="7" text-anchor="end" dy="0.35em" id="img-d3f7261d-44">100</text>
  </g>
  <g font-size="3.88" font-family="'PT Sans','Helvetica Neue','Helvetica',sans-serif" fill="#564A55" stroke="#000000" stroke-opacity="0.000" id="img-d3f7261d-45">
    <text x="8.76" y="36.53" text-anchor="middle" dy="0.35em" transform="rotate(-90, 8.76, 38.53)" id="img-d3f7261d-46">nSpecie</text>
  </g>
</g>
<defs>
  <clipPath id="img-d3f7261d-21">
  <path d="M19.47,5 L 130.15 5 130.15 72.06 19.47 72.06" />
</clipPath>
</defs>
</svg>
