<?xml version="1.0" encoding="UTF-8"?>
<svg xmlns="http://www.w3.org/2000/svg"
     xmlns:xlink="http://www.w3.org/1999/xlink"
     xmlns:gadfly="http://www.gadflyjl.org/ns"
     version="1.2"
     width="150mm" height="90mm" viewBox="0 0 150 90"
     stroke="none"
     fill="#000000"
     stroke-width="0.3"
     font-size="3.88"
>
<g class="plotroot xscalable yscalable" id="img-fc4cdf79-1">
  <g font-size="3.88" font-family="'PT Sans','Helvetica Neue','Helvetica',sans-serif" fill="#564A55" stroke="#000000" stroke-opacity="0.000" id="img-fc4cdf79-2">
    <text x="77.98" y="79.18" text-anchor="middle" dy="0.6em">time</text>
  </g>
  <g class="guide xlabels" font-size="2.82" font-family="'PT Sans Caption','Helvetica Neue','Helvetica',sans-serif" fill="#6C606B" id="img-fc4cdf79-3">
    <text x="21.47" y="73.06" text-anchor="middle" dy="0.6em">0</text>
    <text x="77.98" y="73.06" text-anchor="middle" dy="0.6em">5.0×10⁴</text>
    <text x="134.5" y="73.06" text-anchor="middle" dy="0.6em">1.0×10⁵</text>
  </g>
  <g class="guide colorkey" id="img-fc4cdf79-4">
    <g fill="#4C404B" font-size="2.82" font-family="'PT Sans','Helvetica Neue','Helvetica',sans-serif" id="img-fc4cdf79-5">
      <text x="140.06" y="35.41" dy="0.35em" id="img-fc4cdf79-6" class="color_50">50</text>
      <text x="140.06" y="38.53" dy="0.35em" id="img-fc4cdf79-7" class="color_75">75</text>
      <text x="140.06" y="41.65" dy="0.35em" id="img-fc4cdf79-8" class="color_100">100</text>
      <text x="140.06" y="44.76" dy="0.35em" id="img-fc4cdf79-9" class="color_125">125</text>
    </g>
    <g stroke="#000000" stroke-opacity="0.000" id="img-fc4cdf79-10">
      <rect x="137.5" y="34.63" width="1.56" height="1.56" id="img-fc4cdf79-11" fill="#00BFFF" class="color_50"/>
      <rect x="137.5" y="37.75" width="1.56" height="1.56" id="img-fc4cdf79-12" fill="#D4CA3A" class="color_75"/>
      <rect x="137.5" y="40.87" width="1.56" height="1.56" id="img-fc4cdf79-13" fill="#FF6DAE" class="color_100"/>
      <rect x="137.5" y="43.98" width="1.56" height="1.56" id="img-fc4cdf79-14" fill="#00B78D" class="color_125"/>
    </g>
    <g fill="#362A35" font-size="3.88" font-family="'PT Sans','Helvetica Neue','Helvetica',sans-serif" stroke="#000000" stroke-opacity="0.000" id="img-fc4cdf79-15">
      <text x="137.5" y="31.36" id="img-fc4cdf79-16">n</text>
    </g>
  </g>
<g clip-path="url(#img-fc4cdf79-17)">
  <g id="img-fc4cdf79-18">
    <g pointer-events="visible" opacity="1" fill="#000000" fill-opacity="0.000" stroke="#000000" stroke-opacity="0.000" class="guide background" id="img-fc4cdf79-19">
      <rect x="19.47" y="5" width="117.04" height="67.06" id="img-fc4cdf79-20"/>
    </g>
    <g class="guide ygridlines xfixed" stroke-dasharray="0.5,0.5" stroke-width="0.2" stroke="#D0D0E0" id="img-fc4cdf79-21">
      <path fill="none" d="M19.47,70.06 L 136.5 70.06" id="img-fc4cdf79-22"/>
      <path fill="none" d="M19.47,38.53 L 136.5 38.53" id="img-fc4cdf79-23"/>
      <path fill="none" d="M19.47,7 L 136.5 7" id="img-fc4cdf79-24"/>
    </g>
    <g class="guide xgridlines yfixed" stroke-dasharray="0.5,0.5" stroke-width="0.2" stroke="#D0D0E0" id="img-fc4cdf79-25">
      <path fill="none" d="M21.47,5 L 21.47 72.06" id="img-fc4cdf79-26"/>
      <path fill="none" d="M77.98,5 L 77.98 72.06" id="img-fc4cdf79-27"/>
      <path fill="none" d="M134.5,5 L 134.5 72.06" id="img-fc4cdf79-28"/>
    </g>
    <g class="plotpanel" id="img-fc4cdf79-29">
      <g stroke-width="0.3" fill="#000000" fill-opacity="0.000" stroke-dasharray="none" id="img-fc4cdf79-30">
        <path fill="none" d="M21.47,7 L 22.6 30.33 23.73 44.21 24.86 51.14 25.99 54.3 27.12 57.45 28.25 58.71 29.38 60.6 30.51 61.23 31.64 61.86 32.77 62.49 33.9 63.12 35.03 63.75 36.16 64.39 37.29 65.02 38.42 65.65 39.55 65.65 40.68 65.65 41.81 66.28 42.94 66.28 44.07 66.28 45.2 66.28 46.33 66.91 47.46 66.91 48.6 66.91 49.73 67.54 50.86 67.54 51.99 67.54 53.12 67.54 54.25 68.17 55.38 68.17 56.51 68.17 57.64 68.17 58.77 68.17 59.9 68.17 61.03 68.8 62.16 68.8 63.29 68.8 64.42 68.8 65.55 68.8 66.68 68.8 67.81 68.8 68.94 68.8 70.07 68.8 71.2 68.8 72.33 68.8 73.46 68.8 74.59 68.8 75.72 68.8 76.85 68.8 77.98 69.43 79.12 69.43 80.25 69.43 81.38 69.43 82.51 69.43 83.64 69.43 84.77 69.43 85.9 69.43 87.03 69.43 88.16 69.43 89.29 69.43 90.42 69.43 91.55 69.43 92.68 69.43 93.81 69.43 94.94 69.43 96.07 69.43 97.2 69.43 98.33 69.43 99.46 69.43 100.59 69.43 101.72 69.43 102.85 69.43 103.98 69.43 105.11 69.43 106.24 69.43 107.37 69.43 108.5 69.43 109.63 69.43 110.77 69.43 111.9 69.43 113.03 69.43 114.16 69.43 115.29 69.43 116.42 69.43 117.55 69.43 118.68 69.43 119.81 69.43 120.94 69.43 122.07 69.43 123.2 69.43 124.33 69.43 125.46 69.43 126.59 69.43 127.72 69.43 128.85 69.43 129.98 69.43 131.11 69.43 132.24 69.43 133.37 69.43" id="img-fc4cdf79-31" stroke="#00B78D" class="geometry color_125"/>
        <path fill="none" d="M21.47,7 L 22.6 30.96 23.73 44.21 24.86 49.88 25.99 53.67 27.12 56.19 28.25 58.08 29.38 59.97 30.51 60.6 31.64 61.23 32.77 61.86 33.9 63.12 35.03 63.75 36.16 64.39 37.29 65.02 38.42 65.65 39.55 65.65 40.68 66.28 41.81 66.28 42.94 66.91 44.07 66.91 45.2 66.91 46.33 66.91 47.46 66.91 48.6 66.91 49.73 67.54 50.86 67.54 51.99 67.54 53.12 67.54 54.25 67.54 55.38 67.54 56.51 67.54 57.64 68.17 58.77 68.17 59.9 68.17 61.03 68.17 62.16 68.17 63.29 68.17 64.42 68.17 65.55 68.17 66.68 68.17 67.81 68.17 68.94 68.17 70.07 68.17 71.2 68.17 72.33 68.8 73.46 68.8 74.59 68.8 75.72 68.8 76.85 68.8 77.98 68.8 79.12 68.8 80.25 68.8 81.38 68.8 82.51 68.8 83.64 68.8 84.77 68.8 85.9 68.8 87.03 68.8 88.16 68.8 89.29 68.8 90.42 68.8 91.55 68.8 92.68 68.8 93.81 68.8 94.94 68.8 96.07 68.8 97.2 68.8 98.33 68.8 99.46 68.8 100.59 68.8 101.72 68.8 102.85 68.8 103.98 68.8 105.11 68.8 106.24 68.8 107.37 68.8 108.5 68.8 109.63 68.8 110.77 68.8 111.9 68.8 113.03 68.8 114.16 68.8 115.29 68.8 116.42 68.8 117.55 68.8 118.68 68.8 119.81 68.8 120.94 68.8 122.07 68.8 123.2 68.8 124.33 68.8 125.46 68.8 126.59 68.8 127.72 68.8 128.85 68.8 129.98 69.43 131.11 69.43 132.24 69.43 133.37 69.43" id="img-fc4cdf79-32" stroke="#00BFFF" class="geometry color_50"/>
        <path fill="none" d="M21.47,7 L 22.6 30.33 23.73 42.94 24.86 49.25 25.99 53.03 27.12 55.56 28.25 57.45 29.38 59.34 30.51 59.97 31.64 61.23 32.77 61.86 33.9 62.49 35.03 63.12 36.16 63.12 37.29 63.75 38.42 64.39 39.55 64.39 40.68 65.02 41.81 65.02 42.94 65.65 44.07 65.65 45.2 66.28 46.33 66.28 47.46 66.28 48.6 66.91 49.73 66.91 50.86 66.91 51.99 66.91 53.12 67.54 54.25 67.54 55.38 67.54 56.51 67.54 57.64 67.54 58.77 68.17 59.9 68.17 61.03 68.17 62.16 68.17 63.29 68.17 64.42 68.17 65.55 68.17 66.68 68.17 67.81 68.17 68.94 68.17 70.07 68.17 71.2 68.17 72.33 68.17 73.46 68.17 74.59 68.17 75.72 68.8 76.85 68.8 77.98 68.8 79.12 68.8 80.25 68.8 81.38 68.8 82.51 68.8 83.64 68.8 84.77 68.8 85.9 68.8 87.03 68.8 88.16 68.8 89.29 68.8 90.42 68.8 91.55 68.8 92.68 68.8 93.81 68.8 94.94 68.8 96.07 68.8 97.2 68.8 98.33 68.8 99.46 68.8 100.59 68.8 101.72 68.8 102.85 68.8 103.98 68.8 105.11 68.8 106.24 68.8 107.37 68.8 108.5 68.8 109.63 68.8 110.77 68.8 111.9 68.8 113.03 68.8 114.16 68.8 115.29 69.43 116.42 69.43 117.55 69.43 118.68 69.43 119.81 69.43 120.94 69.43 122.07 69.43 123.2 69.43 124.33 69.43 125.46 69.43 126.59 69.43 127.72 69.43 128.85 69.43 129.98 69.43 131.11 69.43 132.24 69.43 133.37 69.43" id="img-fc4cdf79-33" stroke="#D4CA3A" class="geometry color_75"/>
        <path fill="none" d="M21.47,7 L 22.6 30.96 23.73 44.21 24.86 51.14 25.99 55.56 27.12 57.45 28.25 58.71 29.38 59.97 30.51 61.23 31.64 61.86 32.77 63.12 33.9 63.75 35.03 64.39 36.16 65.02 37.29 65.65 38.42 65.65 39.55 65.65 40.68 65.65 41.81 66.28 42.94 66.28 44.07 66.91 45.2 66.91 46.33 66.91 47.46 67.54 48.6 67.54 49.73 67.54 50.86 67.54 51.99 67.54 53.12 67.54 54.25 67.54 55.38 68.17 56.51 68.17 57.64 68.17 58.77 68.17 59.9 68.17 61.03 68.17 62.16 68.17 63.29 68.17 64.42 68.17 65.55 68.17 66.68 68.17 67.81 68.17 68.94 68.8 70.07 68.8 71.2 68.8 72.33 68.8 73.46 68.8 74.59 68.8 75.72 68.8 76.85 68.8 77.98 68.8 79.12 68.8 80.25 68.8 81.38 68.8 82.51 68.8 83.64 68.8 84.77 68.8 85.9 68.8 87.03 68.8 88.16 68.8 89.29 68.8 90.42 68.8 91.55 68.8 92.68 68.8 93.81 68.8 94.94 68.8 96.07 68.8 97.2 68.8 98.33 68.8 99.46 68.8 100.59 68.8 101.72 68.8 102.85 68.8 103.98 68.8 105.11 68.8 106.24 69.43 107.37 69.43 108.5 69.43 109.63 69.43 110.77 69.43 111.9 69.43 113.03 69.43 114.16 69.43 115.29 69.43 116.42 69.43 117.55 69.43 118.68 69.43 119.81 69.43 120.94 69.43 122.07 69.43 123.2 69.43 124.33 69.43 125.46 69.43 126.59 69.43 127.72 69.43 128.85 69.43 129.98 69.43 131.11 69.43 132.24 69.43 133.37 69.43" id="img-fc4cdf79-34" stroke="#FF6DAE" class="geometry color_100"/>
      </g>
    </g>
  </g>
</g>
  <g class="guide ylabels" font-size="2.82" font-family="'PT Sans Caption','Helvetica Neue','Helvetica',sans-serif" fill="#6C606B" id="img-fc4cdf79-35">
    <text x="18.47" y="70.06" text-anchor="end" dy="0.35em" id="img-fc4cdf79-36">0</text>
    <text x="18.47" y="38.53" text-anchor="end" dy="0.35em" id="img-fc4cdf79-37">50</text>
    <text x="18.47" y="7" text-anchor="end" dy="0.35em" id="img-fc4cdf79-38">100</text>
  </g>
  <g font-size="3.88" font-family="'PT Sans','Helvetica Neue','Helvetica',sans-serif" fill="#564A55" stroke="#000000" stroke-opacity="0.000" id="img-fc4cdf79-39">
    <text x="8.76" y="36.53" text-anchor="middle" dy="0.35em" transform="rotate(-90, 8.76, 38.53)" id="img-fc4cdf79-40">nSpecie</text>
  </g>
</g>
<defs>
  <clipPath id="img-fc4cdf79-17">
  <path d="M19.47,5 L 136.5 5 136.5 72.06 19.47 72.06" />
</clipPath>
</defs>
</svg>
