<?xml version="1.0" encoding="UTF-8"?>
<svg xmlns="http://www.w3.org/2000/svg"
     xmlns:xlink="http://www.w3.org/1999/xlink"
     xmlns:gadfly="http://www.gadflyjl.org/ns"
     version="1.2"
     width="150mm" height="90mm" viewBox="0 0 150 90"
     stroke="none"
     fill="#000000"
     stroke-width="0.3"
     font-size="3.88"
>
<g class="plotroot xscalable yscalable" id="img-c8015665-1">
  <g font-size="3.88" font-family="'PT Sans','Helvetica Neue','Helvetica',sans-serif" fill="#564A55" stroke="#000000" stroke-opacity="0.000" id="img-c8015665-2">
    <text x="76.57" y="79.18" text-anchor="middle" dy="0.6em">time</text>
  </g>
  <g class="guide xlabels" font-size="2.82" font-family="'PT Sans Caption','Helvetica Neue','Helvetica',sans-serif" fill="#6C606B" id="img-c8015665-3">
    <text x="21.47" y="73.06" text-anchor="middle" dy="0.6em">0</text>
    <text x="76.57" y="73.06" text-anchor="middle" dy="0.6em">5.0×10⁴</text>
    <text x="131.68" y="73.06" text-anchor="middle" dy="0.6em">1.0×10⁵</text>
  </g>
  <g class="guide colorkey" id="img-c8015665-4">
    <g fill="#4C404B" font-size="2.82" font-family="'PT Sans','Helvetica Neue','Helvetica',sans-serif" id="img-c8015665-5">
      <text x="137.24" y="33.86" dy="0.35em" id="img-c8015665-6" class="color_0.025">0.025</text>
      <text x="137.24" y="36.97" dy="0.35em" id="img-c8015665-7" class="color_0.05">0.05</text>
      <text x="137.24" y="40.09" dy="0.35em" id="img-c8015665-8" class="color_0.075">0.075</text>
      <text x="137.24" y="43.21" dy="0.35em" id="img-c8015665-9" class="color_0.1">0.1</text>
      <text x="137.24" y="46.32" dy="0.35em" id="img-c8015665-10" class="color_0.25">0.25</text>
    </g>
    <g stroke="#000000" stroke-opacity="0.000" id="img-c8015665-11">
      <rect x="134.68" y="33.08" width="1.56" height="1.56" id="img-c8015665-12" fill="#00BFFF" class="color_0.025"/>
      <rect x="134.68" y="36.19" width="1.56" height="1.56" id="img-c8015665-13" fill="#D4CA3A" class="color_0.05"/>
      <rect x="134.68" y="39.31" width="1.56" height="1.56" id="img-c8015665-14" fill="#FF6DAE" class="color_0.075"/>
      <rect x="134.68" y="42.43" width="1.56" height="1.56" id="img-c8015665-15" fill="#00B78D" class="color_0.1"/>
      <rect x="134.68" y="45.54" width="1.56" height="1.56" id="img-c8015665-16" fill="#BEA9FF" class="color_0.25"/>
    </g>
    <g fill="#362A35" font-size="3.88" font-family="'PT Sans','Helvetica Neue','Helvetica',sans-serif" stroke="#000000" stroke-opacity="0.000" id="img-c8015665-17">
      <text x="134.68" y="29.8" id="img-c8015665-18">u</text>
    </g>
  </g>
<g clip-path="url(#img-c8015665-19)">
  <g id="img-c8015665-20">
    <g pointer-events="visible" opacity="1" fill="#000000" fill-opacity="0.000" stroke="#000000" stroke-opacity="0.000" class="guide background" id="img-c8015665-21">
      <rect x="19.47" y="5" width="114.21" height="67.06" id="img-c8015665-22"/>
    </g>
    <g class="guide ygridlines xfixed" stroke-dasharray="0.5,0.5" stroke-width="0.2" stroke="#D0D0E0" id="img-c8015665-23">
      <path fill="none" d="M19.47,70.06 L 133.68 70.06" id="img-c8015665-24"/>
      <path fill="none" d="M19.47,38.53 L 133.68 38.53" id="img-c8015665-25"/>
      <path fill="none" d="M19.47,7 L 133.68 7" id="img-c8015665-26"/>
    </g>
    <g class="guide xgridlines yfixed" stroke-dasharray="0.5,0.5" stroke-width="0.2" stroke="#D0D0E0" id="img-c8015665-27">
      <path fill="none" d="M21.47,5 L 21.47 72.06" id="img-c8015665-28"/>
      <path fill="none" d="M76.57,5 L 76.57 72.06" id="img-c8015665-29"/>
      <path fill="none" d="M131.68,5 L 131.68 72.06" id="img-c8015665-30"/>
    </g>
    <g class="plotpanel" id="img-c8015665-31">
      <g stroke-width="0.3" fill="#000000" fill-opacity="0.000" stroke-dasharray="none" id="img-c8015665-32">
        <path fill="none" d="M21.47,7 L 22.57 30.96 23.67 44.84 24.77 51.14 25.88 54.3 26.98 56.82 28.08 59.34 29.18 60.6 30.28 61.86 31.39 62.49 32.49 63.12 33.59 63.76 34.69 64.39 35.79 64.39 36.9 65.02 38 65.65 39.1 65.65 40.2 66.28 41.31 66.28 42.41 66.91 43.51 66.91 44.61 67.54 45.71 67.54 46.82 67.54 47.92 68.17 49.02 68.17 50.12 68.17 51.22 68.17 52.33 68.17 53.43 68.8 54.53 68.8 55.63 68.8 56.74 68.8 57.84 68.8 58.94 68.8 60.04 68.8 61.14 68.8 62.25 68.8 63.35 68.8 64.45 68.8 65.55 68.8 66.65 68.8 67.76 68.8 68.86 68.8 69.96 68.8 71.06 68.8 72.17 68.8 73.27 69.43 74.37 69.43 75.47 69.43 76.57 69.43 77.68 69.43 78.78 69.43 79.88 69.43 80.98 69.43 82.08 69.43 83.19 69.43 84.29 69.43 85.39 69.43 86.49 69.43 87.6 69.43 88.7 69.43 89.8 69.43 90.9 69.43 92 69.43 93.11 69.43 94.21 69.43 95.31 69.43 96.41 69.43 97.51 69.43 98.62 69.43 99.72 69.43 100.82 69.43 101.92 69.43 103.02 69.43 104.13 69.43 105.23 69.43 106.33 69.43 107.43 69.43 108.54 69.43 109.64 69.43 110.74 69.43 111.84 69.43 112.94 69.43 114.05 69.43 115.15 69.43 116.25 69.43 117.35 69.43 118.45 69.43 119.56 69.43 120.66 69.43 121.76 69.43 122.86 69.43 123.97 69.43 125.07 69.43 126.17 69.43 127.27 69.43 128.37 69.43 129.48 69.43 130.58 69.43" id="img-c8015665-33" stroke="#00B78D" class="geometry color_0.1"/>
        <path fill="none" d="M21.47,7 L 22.57 12.68 23.67 22.13 24.77 29.7 25.88 36.01 26.98 40.42 28.08 42.94 29.18 44.84 30.28 47.99 31.39 49.88 32.49 50.51 33.59 52.4 34.69 53.67 35.79 54.93 36.9 55.56 38 56.19 39.1 56.82 40.2 58.08 41.31 58.71 42.41 59.34 43.51 59.97 44.61 60.6 45.71 60.6 46.82 61.23 47.92 61.23 49.02 61.23 50.12 61.86 51.22 62.49 52.33 63.12 53.43 63.12 54.53 63.76 55.63 63.76 56.74 64.39 57.84 64.39 58.94 64.39 60.04 65.02 61.14 65.02 62.25 65.65 63.35 65.65 64.45 66.28 65.55 66.28 66.65 66.28 67.76 66.91 68.86 66.91 69.96 66.91 71.06 66.91 72.17 66.91 73.27 66.91 74.37 66.91 75.47 66.91 76.57 66.91 77.68 66.91 78.78 66.91 79.88 66.91 80.98 67.54 82.08 67.54 83.19 67.54 84.29 67.54 85.39 67.54 86.49 67.54 87.6 67.54 88.7 67.54 89.8 67.54 90.9 67.54 92 67.54 93.11 68.17 94.21 68.17 95.31 68.17 96.41 68.17 97.51 68.17 98.62 68.17 99.72 68.17 100.82 68.17 101.92 68.17 103.02 68.17 104.13 68.17 105.23 68.17 106.33 68.17 107.43 68.17 108.54 68.17 109.64 68.17 110.74 68.17 111.84 68.17 112.94 68.17 114.05 68.17 115.15 68.17 116.25 68.17 117.35 68.17 118.45 68.17 119.56 68.17 120.66 68.17 121.76 68.17 122.86 68.8 123.97 68.8 125.07 68.8 126.17 68.8 127.27 68.8 128.37 68.8 129.48 68.8 130.58 68.8" id="img-c8015665-34" stroke="#00BFFF" class="geometry color_0.025"/>
        <path fill="none" d="M21.47,7 L 22.57 70.06 23.67 70.06 24.77 70.06 25.88 70.06 26.98 70.06 28.08 70.06 29.18 70.06 30.28 70.06 31.39 70.06 32.49 70.06 33.59 70.06 34.69 70.06 35.79 70.06 36.9 70.06 38 70.06 39.1 70.06 40.2 70.06 41.31 70.06 42.41 70.06 43.51 70.06 44.61 70.06 45.71 70.06 46.82 70.06 47.92 70.06 49.02 70.06 50.12 70.06 51.22 70.06 52.33 70.06 53.43 70.06 54.53 70.06 55.63 70.06 56.74 70.06 57.84 70.06 58.94 70.06 60.04 70.06 61.14 70.06 62.25 70.06 63.35 70.06 64.45 70.06 65.55 70.06 66.65 70.06 67.76 70.06 68.86 70.06 69.96 70.06 71.06 70.06 72.17 70.06 73.27 70.06 74.37 70.06 75.47 70.06 76.57 70.06 77.68 70.06 78.78 70.06 79.88 70.06 80.98 70.06 82.08 70.06 83.19 70.06 84.29 70.06 85.39 70.06 86.49 70.06 87.6 70.06 88.7 70.06 89.8 70.06 90.9 70.06 92 70.06 93.11 70.06 94.21 70.06 95.31 70.06 96.41 70.06 97.51 70.06 98.62 70.06 99.72 70.06 100.82 70.06 101.92 70.06 103.02 70.06 104.13 70.06 105.23 70.06 106.33 70.06 107.43 70.06 108.54 70.06 109.64 70.06 110.74 70.06 111.84 70.06 112.94 70.06 114.05 70.06 115.15 70.06 116.25 70.06 117.35 70.06 118.45 70.06 119.56 70.06 120.66 70.06 121.76 70.06 122.86 70.06 123.97 70.06 125.07 70.06 126.17 70.06 127.27 70.06 128.37 70.06 129.48 70.06 130.58 70.06" id="img-c8015665-35" stroke="#BEA9FF" class="geometry color_0.25"/>
        <path fill="none" d="M21.47,7 L 22.57 15.83 23.67 27.81 24.77 36.01 25.88 41.68 26.98 44.84 28.08 47.99 29.18 49.88 30.28 52.4 31.39 54.3 32.49 55.56 33.59 56.82 34.69 58.08 35.79 58.71 36.9 59.97 38 61.23 39.1 61.86 40.2 61.86 41.31 62.49 42.41 63.12 43.51 63.12 44.61 63.76 45.71 64.39 46.82 64.39 47.92 64.39 49.02 65.02 50.12 65.02 51.22 65.65 52.33 65.65 53.43 65.65 54.53 66.28 55.63 66.28 56.74 66.28 57.84 66.91 58.94 66.91 60.04 66.91 61.14 66.91 62.25 66.91 63.35 66.91 64.45 66.91 65.55 66.91 66.65 66.91 67.76 67.54 68.86 67.54 69.96 67.54 71.06 67.54 72.17 68.17 73.27 68.17 74.37 68.17 75.47 68.17 76.57 68.17 77.68 68.17 78.78 68.17 79.88 68.17 80.98 68.17 82.08 68.17 83.19 68.17 84.29 68.17 85.39 68.17 86.49 68.17 87.6 68.17 88.7 68.8 89.8 68.8 90.9 68.8 92 68.8 93.11 68.8 94.21 68.8 95.31 68.8 96.41 68.8 97.51 68.8 98.62 68.8 99.72 68.8 100.82 68.8 101.92 68.8 103.02 68.8 104.13 68.8 105.23 68.8 106.33 68.8 107.43 68.8 108.54 68.8 109.64 68.8 110.74 68.8 111.84 68.8 112.94 69.43 114.05 69.43 115.15 69.43 116.25 69.43 117.35 69.43 118.45 69.43 119.56 69.43 120.66 69.43 121.76 69.43 122.86 69.43 123.97 69.43 125.07 69.43 126.17 69.43 127.27 69.43 128.37 69.43 129.48 69.43 130.58 69.43" id="img-c8015665-36" stroke="#D4CA3A" class="geometry color_0.05"/>
        <path fill="none" d="M21.47,7 L 22.57 21.5 23.67 33.49 24.77 41.68 25.88 46.1 26.98 49.88 28.08 52.4 29.18 54.93 30.28 56.82 31.39 58.08 32.49 59.34 33.59 59.97 34.69 61.23 35.79 61.86 36.9 62.49 38 63.12 39.1 63.12 40.2 63.76 41.31 63.76 42.41 64.39 43.51 65.02 44.61 65.02 45.71 65.65 46.82 66.28 47.92 66.28 49.02 66.28 50.12 66.28 51.22 66.28 52.33 66.28 53.43 66.91 54.53 66.91 55.63 66.91 56.74 66.91 57.84 66.91 58.94 66.91 60.04 66.91 61.14 67.54 62.25 67.54 63.35 67.54 64.45 67.54 65.55 67.54 66.65 67.54 67.76 67.54 68.86 67.54 69.96 68.17 71.06 68.17 72.17 68.17 73.27 68.17 74.37 68.17 75.47 68.17 76.57 68.17 77.68 68.17 78.78 68.17 79.88 68.17 80.98 68.17 82.08 68.17 83.19 68.17 84.29 68.17 85.39 68.17 86.49 68.8 87.6 68.8 88.7 68.8 89.8 68.8 90.9 68.8 92 68.8 93.11 68.8 94.21 68.8 95.31 68.8 96.41 68.8 97.51 68.8 98.62 68.8 99.72 68.8 100.82 68.8 101.92 68.8 103.02 68.8 104.13 68.8 105.23 68.8 106.33 68.8 107.43 68.8 108.54 68.8 109.64 68.8 110.74 68.8 111.84 68.8 112.94 68.8 114.05 68.8 115.15 68.8 116.25 68.8 117.35 68.8 118.45 68.8 119.56 68.8 120.66 68.8 121.76 68.8 122.86 68.8 123.97 68.8 125.07 69.43 126.17 69.43 127.27 69.43 128.37 69.43 129.48 69.43 130.58 69.43" id="img-c8015665-37" stroke="#FF6DAE" class="geometry color_0.075"/>
      </g>
    </g>
  </g>
</g>
  <g class="guide ylabels" font-size="2.82" font-family="'PT Sans Caption','Helvetica Neue','Helvetica',sans-serif" fill="#6C606B" id="img-c8015665-38">
    <text x="18.47" y="70.06" text-anchor="end" dy="0.35em" id="img-c8015665-39">0</text>
    <text x="18.47" y="38.53" text-anchor="end" dy="0.35em" id="img-c8015665-40">50</text>
    <text x="18.47" y="7" text-anchor="end" dy="0.35em" id="img-c8015665-41">100</text>
  </g>
  <g font-size="3.88" font-family="'PT Sans','Helvetica Neue','Helvetica',sans-serif" fill="#564A55" stroke="#000000" stroke-opacity="0.000" id="img-c8015665-42">
    <text x="8.76" y="36.53" text-anchor="middle" dy="0.35em" transform="rotate(-90, 8.76, 38.53)" id="img-c8015665-43">nSpecie</text>
  </g>
</g>
<defs>
  <clipPath id="img-c8015665-19">
  <path d="M19.47,5 L 133.68 5 133.68 72.06 19.47 72.06" />
</clipPath>
</defs>
</svg>
