<?xml version="1.0" encoding="UTF-8"?>
<svg xmlns="http://www.w3.org/2000/svg"
     xmlns:xlink="http://www.w3.org/1999/xlink"
     xmlns:gadfly="http://www.gadflyjl.org/ns"
     version="1.2"
     width="150mm" height="90mm" viewBox="0 0 150 90"
     stroke="none"
     fill="#000000"
     stroke-width="0.3"
     font-size="3.88"
>
<g class="plotroot xscalable yscalable" id="img-ed7a1c50-1">
  <g font-size="3.88" font-family="'PT Sans','Helvetica Neue','Helvetica',sans-serif" fill="#564A55" stroke="#000000" stroke-opacity="0.000" id="img-ed7a1c50-2">
    <text x="74.81" y="79.18" text-anchor="middle" dy="0.6em">time</text>
  </g>
  <g class="guide xlabels" font-size="2.82" font-family="'PT Sans Caption','Helvetica Neue','Helvetica',sans-serif" fill="#6C606B" id="img-ed7a1c50-3">
    <text x="21.47" y="73.06" text-anchor="middle" dy="0.6em">0</text>
    <text x="48.14" y="73.06" text-anchor="middle" dy="0.6em">5.0×10³</text>
    <text x="74.81" y="73.06" text-anchor="middle" dy="0.6em">1.0×10⁴</text>
    <text x="101.48" y="73.06" text-anchor="middle" dy="0.6em">1.5×10⁴</text>
    <text x="128.15" y="73.06" text-anchor="middle" dy="0.6em">2.0×10⁴</text>
  </g>
  <g class="guide colorkey" id="img-ed7a1c50-4">
    <g fill="#4C404B" font-size="2.82" font-family="'PT Sans','Helvetica Neue','Helvetica',sans-serif" id="img-ed7a1c50-5">
      <text x="133.71" y="32.3" dy="0.35em" id="img-ed7a1c50-6" class="color_0.0">0.0</text>
      <text x="133.71" y="35.41" dy="0.35em" id="img-ed7a1c50-7" class="color_0.00025">0.00025</text>
      <text x="133.71" y="38.53" dy="0.35em" id="img-ed7a1c50-8" class="color_0.0005">0.0005</text>
      <text x="133.71" y="41.65" dy="0.35em" id="img-ed7a1c50-9" class="color_0.00075">0.00075</text>
      <text x="133.71" y="44.76" dy="0.35em" id="img-ed7a1c50-10" class="color_0.001">0.001</text>
      <text x="133.71" y="47.88" dy="0.35em" id="img-ed7a1c50-11" class="color_0.01">0.01</text>
    </g>
    <g stroke="#000000" stroke-opacity="0.000" id="img-ed7a1c50-12">
      <rect x="131.15" y="31.52" width="1.56" height="1.56" id="img-ed7a1c50-13" fill="#00BFFF" class="color_0.0"/>
      <rect x="131.15" y="34.63" width="1.56" height="1.56" id="img-ed7a1c50-14" fill="#D4CA3A" class="color_0.00025"/>
      <rect x="131.15" y="37.75" width="1.56" height="1.56" id="img-ed7a1c50-15" fill="#FF6DAE" class="color_0.0005"/>
      <rect x="131.15" y="40.87" width="1.56" height="1.56" id="img-ed7a1c50-16" fill="#00B78D" class="color_0.00075"/>
      <rect x="131.15" y="43.98" width="1.56" height="1.56" id="img-ed7a1c50-17" fill="#BEA9FF" class="color_0.001"/>
      <rect x="131.15" y="47.1" width="1.56" height="1.56" id="img-ed7a1c50-18" fill="#FF6765" class="color_0.01"/>
    </g>
    <g fill="#362A35" font-size="3.88" font-family="'PT Sans','Helvetica Neue','Helvetica',sans-serif" stroke="#000000" stroke-opacity="0.000" id="img-ed7a1c50-19">
      <text x="131.15" y="28.24" id="img-ed7a1c50-20">m</text>
    </g>
  </g>
<g clip-path="url(#img-ed7a1c50-21)">
  <g id="img-ed7a1c50-22">
    <g pointer-events="visible" opacity="1" fill="#000000" fill-opacity="0.000" stroke="#000000" stroke-opacity="0.000" class="guide background" id="img-ed7a1c50-23">
      <rect x="19.47" y="5" width="110.69" height="67.06" id="img-ed7a1c50-24"/>
    </g>
    <g class="guide ygridlines xfixed" stroke-dasharray="0.5,0.5" stroke-width="0.2" stroke="#D0D0E0" id="img-ed7a1c50-25">
      <path fill="none" d="M19.47,70.06 L 130.15 70.06" id="img-ed7a1c50-26"/>
      <path fill="none" d="M19.47,38.53 L 130.15 38.53" id="img-ed7a1c50-27"/>
      <path fill="none" d="M19.47,7 L 130.15 7" id="img-ed7a1c50-28"/>
    </g>
    <g class="guide xgridlines yfixed" stroke-dasharray="0.5,0.5" stroke-width="0.2" stroke="#D0D0E0" id="img-ed7a1c50-29">
      <path fill="none" d="M21.47,5 L 21.47 72.06" id="img-ed7a1c50-30"/>
      <path fill="none" d="M48.14,5 L 48.14 72.06" id="img-ed7a1c50-31"/>
      <path fill="none" d="M74.81,5 L 74.81 72.06" id="img-ed7a1c50-32"/>
      <path fill="none" d="M101.48,5 L 101.48 72.06" id="img-ed7a1c50-33"/>
      <path fill="none" d="M128.15,5 L 128.15 72.06" id="img-ed7a1c50-34"/>
    </g>
    <g class="plotpanel" id="img-ed7a1c50-35">
      <g stroke-width="0.3" fill="#000000" fill-opacity="0.000" stroke-dasharray="none" id="img-ed7a1c50-36">
        <path fill="none" d="M21.47,7 L 22 18.98 22.53 31.59 23.07 39.16 23.6 43.58 24.13 47.36 24.67 49.88 25.2 51.14 25.73 53.67 26.27 54.93 26.8 56.19 27.33 57.45 27.87 57.45 28.4 58.08 28.93 59.34 29.47 59.97 30 60.6 30.53 61.23 31.07 61.23 31.6 61.23 32.14 61.86 32.67 62.49 33.2 63.12 33.74 63.12 34.27 63.12 34.8 63.75 35.34 63.75 35.87 63.75 36.4 64.39 36.94 63.75 37.47 64.39 38 65.02 38.54 64.39 39.07 64.39 39.6 65.02 40.14 65.65 40.67 65.65 41.2 65.65 41.74 65.65 42.27 65.65 42.8 65.65 43.34 66.28 43.87 65.65 44.4 65.02 44.94 66.28 45.47 65.65 46 65.65 46.54 66.28 47.07 65.65 47.6 66.28 48.14 66.28 48.67 66.91 49.21 66.28 49.74 66.91 50.27 66.91 50.81 66.28 51.34 66.28 51.87 66.91 52.41 66.91 52.94 66.91 53.47 66.91 54.01 66.91 54.54 67.54 55.07 66.91 55.61 67.54 56.14 67.54 56.67 67.54 57.21 67.54 57.74 66.91 58.27 67.54 58.81 66.91 59.34 67.54 59.87 67.54 60.41 67.54 60.94 66.91 61.47 66.91 62.01 67.54 62.54 67.54 63.07 66.91 63.61 67.54 64.14 66.91 64.67 67.54 65.21 67.54 65.74 67.54 66.27 67.54 66.81 67.54 67.34 67.54 67.88 66.91 68.41 67.54 68.94 66.91 69.48 67.54 70.01 67.54 70.54 67.54 71.08 67.54 71.61 67.54 72.14 66.91 72.68 67.54 73.21 67.54 73.74 66.91 74.28 67.54 74.81 67.54 75.34 67.54 75.88 66.91 76.41 67.54 76.94 67.54 77.48 67.54 78.01 67.54 78.54 68.17 79.08 67.54 79.61 67.54 80.14 67.54 80.68 66.91 81.21 67.54 81.74 67.54 82.28 66.91 82.81 67.54 83.34 67.54 83.88 67.54 84.41 67.54 84.94 67.54 85.48 67.54 86.01 68.17 86.55 67.54 87.08 67.54 87.61 67.54 88.15 67.54 88.68 67.54 89.21 67.54 89.75 66.91 90.28 67.54 90.81 67.54 91.35 67.54 91.88 67.54 92.41 66.91 92.95 67.54 93.48 67.54 94.01 67.54 94.55 67.54 95.08 67.54 95.61 67.54 96.15 67.54 96.68 67.54 97.21 67.54 97.75 68.17 98.28 66.91 98.81 67.54 99.35 66.91 99.88 67.54 100.41 66.91 100.95 68.17 101.48 67.54 102.01 68.17 102.55 66.91 103.08 67.54 103.61 67.54 104.15 67.54 104.68 66.91 105.22 67.54 105.75 66.91 106.28 67.54 106.82 66.91 107.35 67.54 107.88 67.54 108.42 67.54 108.95 67.54 109.48 66.91 110.02 67.54 110.55 67.54 111.08 68.17 111.62 66.91 112.15 67.54 112.68 67.54 113.22 68.17 113.75 67.54 114.28 67.54 114.82 67.54 115.35 66.91 115.88 67.54 116.42 67.54 116.95 68.17 117.48 68.17 118.02 67.54 118.55 67.54 119.08 67.54 119.62 67.54 120.15 67.54 120.68 67.54 121.22 66.91 121.75 66.91 122.29 67.54 122.82 66.91 123.35 67.54 123.89 67.54 124.42 67.54 124.95 67.54 125.49 67.54 126.02 66.91 126.55 67.54 127.09 67.54 127.62 67.54" id="img-ed7a1c50-37" stroke="#00B78D" class="geometry color_0.00075"/>
        <path fill="none" d="M21.47,7 L 22 17.72 22.53 31.59 23.07 39.16 23.6 44.84 24.13 47.99 24.67 51.14 25.2 53.03 25.73 55.56 26.27 57.45 26.8 58.71 27.33 59.34 27.87 59.97 28.4 60.6 28.93 61.86 29.47 62.49 30 62.49 30.53 63.12 31.07 63.75 31.6 63.75 32.14 64.39 32.67 64.39 33.2 65.02 33.74 65.02 34.27 65.65 34.8 66.28 35.34 66.28 35.87 66.91 36.4 66.91 36.94 67.54 37.47 67.54 38 67.54 38.54 67.54 39.07 67.54 39.6 67.54 40.14 68.17 40.67 68.17 41.2 68.17 41.74 68.17 42.27 68.17 42.8 68.17 43.34 68.17 43.87 68.17 44.4 68.17 44.94 68.17 45.47 68.17 46 68.17 46.54 68.17 47.07 68.17 47.6 68.8 48.14 68.8 48.67 68.8 49.21 68.8 49.74 68.8 50.27 68.8 50.81 68.8 51.34 68.8 51.87 68.8 52.41 68.8 52.94 68.8 53.47 68.8 54.01 68.8 54.54 68.8 55.07 68.8 55.61 68.8 56.14 68.8 56.67 68.8 57.21 69.43 57.74 69.43 58.27 69.43 58.81 69.43 59.34 69.43 59.87 69.43 60.41 69.43 60.94 69.43 61.47 69.43 62.01 69.43 62.54 69.43 63.07 69.43 63.61 69.43 64.14 69.43 64.67 69.43 65.21 69.43 65.74 69.43 66.27 69.43 66.81 69.43 67.34 69.43 67.88 69.43 68.41 69.43 68.94 69.43 69.48 69.43 70.01 69.43 70.54 69.43 71.08 69.43 71.61 69.43 72.14 69.43 72.68 69.43 73.21 69.43 73.74 69.43 74.28 69.43 74.81 69.43 75.34 69.43 75.88 69.43 76.41 69.43 76.94 69.43 77.48 69.43 78.01 69.43 78.54 69.43 79.08 69.43 79.61 69.43 80.14 69.43 80.68 69.43 81.21 69.43 81.74 69.43 82.28 69.43 82.81 69.43 83.34 69.43 83.88 69.43 84.41 69.43 84.94 69.43 85.48 69.43 86.01 69.43 86.55 69.43 87.08 69.43 87.61 69.43 88.15 69.43 88.68 69.43 89.21 69.43 89.75 69.43 90.28 69.43 90.81 69.43 91.35 69.43 91.88 69.43 92.41 69.43 92.95 69.43 93.48 69.43 94.01 69.43 94.55 69.43 95.08 69.43 95.61 69.43 96.15 69.43 96.68 69.43 97.21 69.43 97.75 69.43 98.28 69.43 98.81 69.43 99.35 69.43 99.88 69.43 100.41 69.43 100.95 69.43 101.48 69.43 102.01 69.43 102.55 69.43 103.08 69.43 103.61 69.43 104.15 69.43 104.68 69.43 105.22 69.43 105.75 69.43 106.28 69.43 106.82 69.43 107.35 69.43 107.88 69.43 108.42 69.43 108.95 69.43 109.48 69.43 110.02 69.43 110.55 69.43 111.08 69.43 111.62 69.43 112.15 69.43 112.68 69.43 113.22 69.43 113.75 69.43 114.28 69.43 114.82 69.43 115.35 69.43 115.88 69.43 116.42 69.43 116.95 69.43 117.48 69.43 118.02 69.43 118.55 69.43 119.08 69.43 119.62 69.43 120.15 69.43 120.68 69.43 121.22 69.43 121.75 69.43 122.29 69.43 122.82 69.43 123.35 69.43 123.89 69.43 124.42 69.43 124.95 69.43 125.49 69.43 126.02 69.43 126.55 69.43 127.09 69.43 127.62 69.43" id="img-ed7a1c50-38" stroke="#00BFFF" class="geometry color_0.0"/>
        <path fill="none" d="M21.47,7 L 22 18.98 22.53 31.59 23.07 39.16 23.6 43.58 24.13 46.1 24.67 48.62 25.2 51.14 25.73 51.77 26.27 53.03 26.8 54.93 27.33 54.93 27.87 56.82 28.4 58.08 28.93 58.08 29.47 58.71 30 59.97 30.53 60.6 31.07 61.23 31.6 61.86 32.14 62.49 32.67 62.49 33.2 62.49 33.74 62.49 34.27 62.49 34.8 63.12 35.34 63.12 35.87 63.75 36.4 63.75 36.94 64.39 37.47 65.02 38 64.39 38.54 63.75 39.07 64.39 39.6 65.02 40.14 65.02 40.67 65.02 41.2 64.39 41.74 65.02 42.27 65.02 42.8 65.02 43.34 64.39 43.87 65.65 44.4 65.65 44.94 65.02 45.47 65.65 46 65.65 46.54 65.02 47.07 65.02 47.6 65.65 48.14 65.65 48.67 65.65 49.21 65.02 49.74 65.65 50.27 65.65 50.81 65.65 51.34 66.28 51.87 66.28 52.41 65.65 52.94 65.65 53.47 66.28 54.01 66.28 54.54 65.65 55.07 65.65 55.61 65.65 56.14 66.28 56.67 65.65 57.21 65.65 57.74 65.65 58.27 65.65 58.81 65.65 59.34 66.28 59.87 66.28 60.41 66.28 60.94 66.28 61.47 65.65 62.01 66.28 62.54 66.28 63.07 66.28 63.61 66.28 64.14 66.28 64.67 66.28 65.21 66.28 65.74 66.28 66.27 66.91 66.81 66.91 67.34 66.28 67.88 66.91 68.41 66.91 68.94 66.91 69.48 66.91 70.01 66.91 70.54 66.91 71.08 66.28 71.61 66.28 72.14 66.91 72.68 66.28 73.21 66.28 73.74 66.91 74.28 66.91 74.81 66.91 75.34 66.91 75.88 66.28 76.41 66.28 76.94 66.91 77.48 66.91 78.01 66.91 78.54 66.91 79.08 66.91 79.61 66.28 80.14 66.91 80.68 66.91 81.21 66.91 81.74 66.91 82.28 66.91 82.81 66.28 83.34 66.91 83.88 66.91 84.41 66.91 84.94 66.91 85.48 66.91 86.01 66.28 86.55 66.91 87.08 66.91 87.61 66.91 88.15 67.54 88.68 66.91 89.21 66.91 89.75 66.91 90.28 66.91 90.81 66.28 91.35 66.91 91.88 66.28 92.41 66.91 92.95 67.54 93.48 66.91 94.01 66.91 94.55 66.91 95.08 66.91 95.61 66.28 96.15 66.91 96.68 66.91 97.21 66.91 97.75 66.91 98.28 66.91 98.81 66.91 99.35 66.91 99.88 66.91 100.41 66.91 100.95 67.54 101.48 66.91 102.01 66.91 102.55 66.91 103.08 66.91 103.61 66.91 104.15 67.54 104.68 66.91 105.22 66.91 105.75 66.91 106.28 66.91 106.82 66.91 107.35 66.91 107.88 66.91 108.42 66.91 108.95 66.91 109.48 66.91 110.02 66.91 110.55 66.91 111.08 66.91 111.62 66.91 112.15 66.91 112.68 66.91 113.22 66.91 113.75 66.91 114.28 66.91 114.82 66.91 115.35 66.91 115.88 66.91 116.42 66.91 116.95 66.91 117.48 66.91 118.02 67.54 118.55 67.54 119.08 66.91 119.62 67.54 120.15 66.91 120.68 66.28 121.22 66.91 121.75 66.28 122.29 66.91 122.82 66.91 123.35 66.91 123.89 66.91 124.42 66.91 124.95 66.91 125.49 66.91 126.02 67.54 126.55 66.91 127.09 67.54 127.62 66.91" id="img-ed7a1c50-39" stroke="#BEA9FF" class="geometry color_0.001"/>
        <path fill="none" d="M21.47,7 L 22 19.61 22.53 31.59 23.07 38.53 23.6 43.58 24.13 46.73 24.67 49.88 25.2 51.14 25.73 53.03 26.27 55.56 26.8 56.82 27.33 58.08 27.87 58.71 28.4 59.34 28.93 61.23 29.47 61.23 30 61.86 30.53 62.49 31.07 62.49 31.6 63.12 32.14 63.12 32.67 63.75 33.2 63.75 33.74 64.39 34.27 64.39 34.8 65.02 35.34 65.65 35.87 65.02 36.4 65.65 36.94 65.65 37.47 65.65 38 65.65 38.54 66.28 39.07 66.28 39.6 66.91 40.14 66.91 40.67 67.54 41.2 66.91 41.74 66.91 42.27 66.91 42.8 66.91 43.34 66.91 43.87 66.91 44.4 66.91 44.94 67.54 45.47 67.54 46 68.17 46.54 67.54 47.07 67.54 47.6 67.54 48.14 67.54 48.67 67.54 49.21 67.54 49.74 68.17 50.27 68.17 50.81 68.17 51.34 68.17 51.87 68.17 52.41 68.17 52.94 68.17 53.47 68.8 54.01 68.17 54.54 68.17 55.07 68.17 55.61 68.17 56.14 68.17 56.67 68.17 57.21 68.17 57.74 68.17 58.27 68.8 58.81 68.17 59.34 68.8 59.87 68.17 60.41 68.17 60.94 68.17 61.47 68.17 62.01 68.17 62.54 68.17 63.07 68.17 63.61 67.54 64.14 68.17 64.67 68.17 65.21 68.8 65.74 68.17 66.27 68.17 66.81 68.8 67.34 68.17 67.88 68.17 68.41 68.17 68.94 68.17 69.48 68.17 70.01 68.8 70.54 68.17 71.08 68.17 71.61 67.54 72.14 67.54 72.68 68.17 73.21 68.17 73.74 68.17 74.28 68.17 74.81 68.17 75.34 68.17 75.88 68.17 76.41 68.17 76.94 68.17 77.48 68.17 78.01 68.17 78.54 68.8 79.08 68.8 79.61 68.8 80.14 68.8 80.68 68.17 81.21 68.8 81.74 68.8 82.28 68.17 82.81 68.17 83.34 68.17 83.88 68.17 84.41 68.8 84.94 68.17 85.48 68.8 86.01 68.8 86.55 68.17 87.08 68.17 87.61 68.8 88.15 68.8 88.68 68.8 89.21 68.8 89.75 68.8 90.28 68.8 90.81 68.8 91.35 68.8 91.88 68.8 92.41 68.8 92.95 68.8 93.48 68.17 94.01 68.8 94.55 68.8 95.08 68.8 95.61 68.8 96.15 68.8 96.68 68.8 97.21 68.8 97.75 68.8 98.28 68.8 98.81 68.17 99.35 68.8 99.88 68.8 100.41 68.17 100.95 68.8 101.48 68.8 102.01 68.8 102.55 68.8 103.08 68.17 103.61 68.8 104.15 68.8 104.68 68.8 105.22 68.8 105.75 68.17 106.28 68.8 106.82 68.17 107.35 68.17 107.88 68.8 108.42 68.8 108.95 68.8 109.48 68.8 110.02 68.8 110.55 68.8 111.08 68.17 111.62 68.8 112.15 68.8 112.68 68.8 113.22 68.8 113.75 68.8 114.28 68.8 114.82 68.8 115.35 68.8 115.88 68.8 116.42 68.8 116.95 68.8 117.48 68.8 118.02 68.8 118.55 68.8 119.08 69.43 119.62 68.8 120.15 68.8 120.68 68.8 121.22 68.8 121.75 68.8 122.29 68.8 122.82 68.8 123.35 68.8 123.89 68.8 124.42 68.8 124.95 68.8 125.49 68.8 126.02 68.8 126.55 68.8 127.09 68.8 127.62 68.8" id="img-ed7a1c50-40" stroke="#D4CA3A" class="geometry color_0.00025"/>
        <path fill="none" d="M21.47,7 L 22 13.31 22.53 21.5 23.07 24.66 23.6 29.07 24.13 30.96 24.67 34.12 25.2 33.49 25.73 35.38 26.27 37.27 26.8 38.53 27.33 37.9 27.87 41.05 28.4 41.68 28.93 42.31 29.47 42.94 30 44.21 30.53 44.21 31.07 44.21 31.6 45.47 32.14 46.73 32.67 46.73 33.2 46.73 33.74 47.99 34.27 47.99 34.8 47.99 35.34 48.62 35.87 49.25 36.4 49.25 36.94 50.51 37.47 51.77 38 52.4 38.54 51.77 39.07 51.77 39.6 52.4 40.14 53.67 40.67 53.67 41.2 53.67 41.74 53.67 42.27 54.3 42.8 54.93 43.34 55.56 43.87 54.93 44.4 55.56 44.94 54.93 45.47 55.56 46 54.93 46.54 54.93 47.07 56.19 47.6 55.56 48.14 55.56 48.67 55.56 49.21 55.56 49.74 56.19 50.27 57.45 50.81 57.45 51.34 56.82 51.87 57.45 52.41 58.08 52.94 57.45 53.47 56.82 54.01 56.82 54.54 56.19 55.07 56.19 55.61 56.82 56.14 58.08 56.67 58.08 57.21 56.19 57.74 58.08 58.27 58.08 58.81 57.45 59.34 59.34 59.87 58.71 60.41 58.71 60.94 58.71 61.47 58.08 62.01 58.08 62.54 57.45 63.07 58.08 63.61 58.71 64.14 58.08 64.67 58.08 65.21 58.08 65.74 58.08 66.27 58.71 66.81 58.71 67.34 58.71 67.88 58.08 68.41 58.08 68.94 58.08 69.48 58.71 70.01 59.34 70.54 58.71 71.08 59.34 71.61 58.71 72.14 58.71 72.68 58.71 73.21 58.08 73.74 57.45 74.28 58.71 74.81 59.34 75.34 58.08 75.88 58.71 76.41 58.71 76.94 59.34 77.48 58.71 78.01 59.34 78.54 58.08 79.08 58.71 79.61 57.45 80.14 58.08 80.68 58.08 81.21 58.08 81.74 58.71 82.28 58.71 82.81 58.71 83.34 58.08 83.88 58.08 84.41 58.08 84.94 58.08 85.48 58.71 86.01 58.71 86.55 58.08 87.08 58.08 87.61 58.71 88.15 58.08 88.68 58.71 89.21 59.34 89.75 58.71 90.28 58.71 90.81 59.34 91.35 59.34 91.88 58.71 92.41 59.34 92.95 59.34 93.48 60.6 94.01 59.97 94.55 59.34 95.08 58.08 95.61 58.71 96.15 59.34 96.68 58.71 97.21 59.34 97.75 58.71 98.28 58.71 98.81 59.34 99.35 58.71 99.88 59.34 100.41 58.71 100.95 58.71 101.48 58.08 102.01 58.08 102.55 58.08 103.08 59.34 103.61 59.34 104.15 58.08 104.68 58.71 105.22 58.71 105.75 58.71 106.28 57.45 106.82 59.34 107.35 58.71 107.88 58.71 108.42 58.71 108.95 58.71 109.48 59.97 110.02 58.71 110.55 59.34 111.08 58.71 111.62 59.34 112.15 58.71 112.68 58.71 113.22 58.71 113.75 58.71 114.28 58.71 114.82 59.34 115.35 58.71 115.88 58.71 116.42 59.34 116.95 58.08 117.48 59.34 118.02 58.71 118.55 59.34 119.08 59.34 119.62 59.34 120.15 58.08 120.68 59.34 121.22 59.34 121.75 58.71 122.29 59.34 122.82 58.71 123.35 58.71 123.89 58.08 124.42 58.71 124.95 58.08 125.49 58.71 126.02 58.71 126.55 58.08 127.09 58.71 127.62 58.08" id="img-ed7a1c50-41" stroke="#FF6765" class="geometry color_0.01"/>
        <path fill="none" d="M21.47,7 L 22 20.24 22.53 31.59 23.07 37.9 23.6 43.58 24.13 47.36 24.67 50.51 25.2 51.77 25.73 53.67 26.27 54.93 26.8 56.82 27.33 57.45 27.87 59.34 28.4 59.34 28.93 60.6 29.47 61.23 30 61.86 30.53 61.86 31.07 62.49 31.6 63.12 32.14 63.12 32.67 63.12 33.2 63.12 33.74 64.39 34.27 63.75 34.8 63.75 35.34 64.39 35.87 65.02 36.4 65.02 36.94 64.39 37.47 65.02 38 65.02 38.54 64.39 39.07 65.02 39.6 65.02 40.14 65.02 40.67 65.65 41.2 65.65 41.74 65.65 42.27 66.28 42.8 66.28 43.34 66.28 43.87 66.28 44.4 66.28 44.94 66.28 45.47 66.28 46 66.28 46.54 66.28 47.07 66.28 47.6 66.91 48.14 66.28 48.67 66.91 49.21 66.91 49.74 67.54 50.27 66.91 50.81 66.91 51.34 66.91 51.87 66.91 52.41 66.91 52.94 66.91 53.47 66.91 54.01 66.91 54.54 66.91 55.07 66.91 55.61 66.91 56.14 67.54 56.67 67.54 57.21 66.91 57.74 66.91 58.27 66.91 58.81 66.91 59.34 66.91 59.87 66.91 60.41 66.91 60.94 66.91 61.47 66.91 62.01 67.54 62.54 67.54 63.07 67.54 63.61 67.54 64.14 67.54 64.67 67.54 65.21 67.54 65.74 67.54 66.27 67.54 66.81 67.54 67.34 67.54 67.88 67.54 68.41 68.17 68.94 67.54 69.48 67.54 70.01 67.54 70.54 66.91 71.08 66.91 71.61 67.54 72.14 66.91 72.68 67.54 73.21 66.91 73.74 67.54 74.28 66.91 74.81 67.54 75.34 66.91 75.88 67.54 76.41 67.54 76.94 67.54 77.48 67.54 78.01 68.17 78.54 68.17 79.08 67.54 79.61 67.54 80.14 67.54 80.68 67.54 81.21 67.54 81.74 67.54 82.28 67.54 82.81 67.54 83.34 67.54 83.88 67.54 84.41 67.54 84.94 67.54 85.48 67.54 86.01 67.54 86.55 68.17 87.08 67.54 87.61 68.17 88.15 67.54 88.68 67.54 89.21 67.54 89.75 68.17 90.28 67.54 90.81 67.54 91.35 67.54 91.88 67.54 92.41 67.54 92.95 67.54 93.48 67.54 94.01 68.17 94.55 67.54 95.08 68.17 95.61 68.17 96.15 68.17 96.68 67.54 97.21 68.17 97.75 68.17 98.28 67.54 98.81 68.17 99.35 68.17 99.88 68.17 100.41 67.54 100.95 68.17 101.48 68.17 102.01 67.54 102.55 67.54 103.08 67.54 103.61 68.17 104.15 67.54 104.68 67.54 105.22 67.54 105.75 67.54 106.28 66.91 106.82 67.54 107.35 68.17 107.88 67.54 108.42 67.54 108.95 68.17 109.48 67.54 110.02 68.17 110.55 68.17 111.08 68.17 111.62 68.17 112.15 67.54 112.68 67.54 113.22 67.54 113.75 68.17 114.28 67.54 114.82 67.54 115.35 67.54 115.88 67.54 116.42 67.54 116.95 67.54 117.48 67.54 118.02 67.54 118.55 68.17 119.08 68.17 119.62 68.17 120.15 67.54 120.68 68.17 121.22 68.17 121.75 68.17 122.29 68.17 122.82 67.54 123.35 67.54 123.89 67.54 124.42 67.54 124.95 67.54 125.49 67.54 126.02 67.54 126.55 67.54 127.09 67.54 127.62 67.54" id="img-ed7a1c50-42" stroke="#FF6DAE" class="geometry color_0.0005"/>
      </g>
    </g>
  </g>
</g>
  <g class="guide ylabels" font-size="2.82" font-family="'PT Sans Caption','Helvetica Neue','Helvetica',sans-serif" fill="#6C606B" id="img-ed7a1c50-43">
    <text x="18.47" y="70.06" text-anchor="end" dy="0.35em" id="img-ed7a1c50-44">0</text>
    <text x="18.47" y="38.53" text-anchor="end" dy="0.35em" id="img-ed7a1c50-45">50</text>
    <text x="18.47" y="7" text-anchor="end" dy="0.35em" id="img-ed7a1c50-46">100</text>
  </g>
  <g font-size="3.88" font-family="'PT Sans','Helvetica Neue','Helvetica',sans-serif" fill="#564A55" stroke="#000000" stroke-opacity="0.000" id="img-ed7a1c50-47">
    <text x="8.76" y="36.53" text-anchor="middle" dy="0.35em" transform="rotate(-90, 8.76, 38.53)" id="img-ed7a1c50-48">nSpecie</text>
  </g>
</g>
<defs>
  <clipPath id="img-ed7a1c50-21">
  <path d="M19.47,5 L 130.15 5 130.15 72.06 19.47 72.06" />
</clipPath>
</defs>
</svg>
