<?xml version="1.0" encoding="UTF-8"?>
<svg xmlns="http://www.w3.org/2000/svg"
     xmlns:xlink="http://www.w3.org/1999/xlink"
     xmlns:gadfly="http://www.gadflyjl.org/ns"
     version="1.2"
     width="150mm" height="90mm" viewBox="0 0 150 90"
     stroke="none"
     fill="#000000"
     stroke-width="0.3"
     font-size="3.88"
>
<g class="plotroot xscalable yscalable" id="img-1b90472e-1">
  <g font-size="3.88" font-family="'PT Sans','Helvetica Neue','Helvetica',sans-serif" fill="#564A55" stroke="#000000" stroke-opacity="0.000" id="img-1b90472e-2">
    <text x="77.98" y="79.18" text-anchor="middle" dy="0.6em">time</text>
  </g>
  <g class="guide xlabels" font-size="2.82" font-family="'PT Sans Caption','Helvetica Neue','Helvetica',sans-serif" fill="#6C606B" id="img-1b90472e-3">
    <text x="21.47" y="73.06" text-anchor="middle" dy="0.6em">0</text>
    <text x="49.73" y="73.06" text-anchor="middle" dy="0.6em">5.0×10³</text>
    <text x="77.98" y="73.06" text-anchor="middle" dy="0.6em">1.0×10⁴</text>
    <text x="106.24" y="73.06" text-anchor="middle" dy="0.6em">1.5×10⁴</text>
    <text x="134.5" y="73.06" text-anchor="middle" dy="0.6em">2.0×10⁴</text>
  </g>
  <g class="guide colorkey" id="img-1b90472e-4">
    <g fill="#4C404B" font-size="2.82" font-family="'PT Sans','Helvetica Neue','Helvetica',sans-serif" id="img-1b90472e-5">
      <text x="140.06" y="33.86" dy="0.35em" id="img-1b90472e-6" class="color_10">10</text>
      <text x="140.06" y="36.97" dy="0.35em" id="img-1b90472e-7" class="color_30">30</text>
      <text x="140.06" y="40.09" dy="0.35em" id="img-1b90472e-8" class="color_50">50</text>
      <text x="140.06" y="43.21" dy="0.35em" id="img-1b90472e-9" class="color_70">70</text>
      <text x="140.06" y="46.32" dy="0.35em" id="img-1b90472e-10" class="color_100">100</text>
    </g>
    <g stroke="#000000" stroke-opacity="0.000" id="img-1b90472e-11">
      <rect x="137.5" y="33.08" width="1.56" height="1.56" id="img-1b90472e-12" fill="#00BFFF" class="color_10"/>
      <rect x="137.5" y="36.19" width="1.56" height="1.56" id="img-1b90472e-13" fill="#D4CA3A" class="color_30"/>
      <rect x="137.5" y="39.31" width="1.56" height="1.56" id="img-1b90472e-14" fill="#FF6DAE" class="color_50"/>
      <rect x="137.5" y="42.43" width="1.56" height="1.56" id="img-1b90472e-15" fill="#00B78D" class="color_70"/>
      <rect x="137.5" y="45.54" width="1.56" height="1.56" id="img-1b90472e-16" fill="#BEA9FF" class="color_100"/>
    </g>
    <g fill="#362A35" font-size="3.88" font-family="'PT Sans','Helvetica Neue','Helvetica',sans-serif" stroke="#000000" stroke-opacity="0.000" id="img-1b90472e-17">
      <text x="137.5" y="30.15" id="img-1b90472e-18">L</text>
    </g>
  </g>
<g clip-path="url(#img-1b90472e-19)">
  <g id="img-1b90472e-20">
    <g pointer-events="visible" opacity="1" fill="#000000" fill-opacity="0.000" stroke="#000000" stroke-opacity="0.000" class="guide background" id="img-1b90472e-21">
      <rect x="19.47" y="5" width="117.04" height="67.06" id="img-1b90472e-22"/>
    </g>
    <g class="guide ygridlines xfixed" stroke-dasharray="0.5,0.5" stroke-width="0.2" stroke="#D0D0E0" id="img-1b90472e-23">
      <path fill="none" d="M19.47,70.06 L 136.5 70.06" id="img-1b90472e-24"/>
      <path fill="none" d="M19.47,38.53 L 136.5 38.53" id="img-1b90472e-25"/>
      <path fill="none" d="M19.47,7 L 136.5 7" id="img-1b90472e-26"/>
    </g>
    <g class="guide xgridlines yfixed" stroke-dasharray="0.5,0.5" stroke-width="0.2" stroke="#D0D0E0" id="img-1b90472e-27">
      <path fill="none" d="M21.47,5 L 21.47 72.06" id="img-1b90472e-28"/>
      <path fill="none" d="M49.73,5 L 49.73 72.06" id="img-1b90472e-29"/>
      <path fill="none" d="M77.98,5 L 77.98 72.06" id="img-1b90472e-30"/>
      <path fill="none" d="M106.24,5 L 106.24 72.06" id="img-1b90472e-31"/>
      <path fill="none" d="M134.5,5 L 134.5 72.06" id="img-1b90472e-32"/>
    </g>
    <g class="plotpanel" id="img-1b90472e-33">
      <g stroke-width="0.3" fill="#000000" fill-opacity="0.000" stroke-dasharray="none" id="img-1b90472e-34">
        <path fill="none" d="M21.47,7 L 22.03 9.52 22.6 18.98 23.16 25.29 23.73 30.96 24.29 36.01 24.86 39.79 25.42 42.94 25.99 44.84 26.55 46.73 27.12 48.62 27.68 49.88 28.25 51.14 28.81 52.4 29.38 53.67 29.94 54.3 30.51 55.56 31.07 56.82 31.64 57.45 32.21 58.08 32.77 58.71 33.34 59.34 33.9 59.97 34.47 59.97 35.03 61.23 35.6 61.23 36.16 61.86 36.73 61.86 37.29 62.49 37.86 63.12 38.42 63.12 38.99 63.12 39.55 63.75 40.12 64.39 40.68 64.39 41.25 65.02 41.81 65.02 42.38 65.02 42.94 65.65 43.51 65.65 44.07 65.65 44.64 65.65 45.2 65.65 45.77 66.28 46.33 66.28 46.9 66.28 47.46 66.28 48.03 66.91 48.6 66.91 49.16 66.91 49.73 66.91 50.29 66.91 50.86 67.54 51.42 67.54 51.99 67.54 52.55 67.54 53.12 67.54 53.68 67.54 54.25 67.54 54.81 67.54 55.38 67.54 55.94 67.54 56.51 67.54 57.07 67.54 57.64 68.17 58.2 68.17 58.77 68.17 59.33 68.17 59.9 68.17 60.46 68.17 61.03 68.17 61.59 68.17 62.16 68.17 62.72 68.17 63.29 68.17 63.86 68.17 64.42 68.17 64.99 68.17 65.55 68.17 66.12 68.17 66.68 68.17 67.25 68.17 67.81 68.17 68.38 68.17 68.94 68.17 69.51 68.17 70.07 68.17 70.64 68.8 71.2 68.8 71.77 68.8 72.33 68.8 72.9 68.8 73.46 68.8 74.03 68.8 74.59 68.8 75.16 68.8 75.72 68.8 76.29 68.8 76.85 68.8 77.42 68.8 77.98 68.8 78.55 68.8 79.12 68.8 79.68 68.8 80.25 68.8 80.81 68.8 81.38 68.8 81.94 68.8 82.51 68.8 83.07 68.8 83.64 68.8 84.2 68.8 84.77 68.8 85.33 68.8 85.9 68.8 86.46 68.8 87.03 68.8 87.59 68.8 88.16 68.8 88.72 68.8 89.29 68.8 89.85 68.8 90.42 68.8 90.98 68.8 91.55 68.8 92.11 68.8 92.68 68.8 93.24 68.8 93.81 68.8 94.37 68.8 94.94 68.8 95.51 68.8 96.07 68.8 96.64 68.8 97.2 68.8 97.77 68.8 98.33 68.8 98.9 68.8 99.46 68.8 100.03 68.8 100.59 68.8 101.16 68.8 101.72 68.8 102.29 68.8 102.85 68.8 103.42 68.8 103.98 68.8 104.55 68.8 105.11 68.8 105.68 68.8 106.24 68.8 106.81 69.43 107.37 69.43 107.94 69.43 108.5 69.43 109.07 69.43 109.63 69.43 110.2 69.43 110.77 69.43 111.33 69.43 111.9 69.43 112.46 69.43 113.03 69.43 113.59 69.43 114.16 69.43 114.72 69.43 115.29 69.43 115.85 69.43 116.42 69.43 116.98 69.43 117.55 69.43 118.11 69.43 118.68 69.43 119.24 69.43 119.81 69.43 120.37 69.43 120.94 69.43 121.5 69.43 122.07 69.43 122.63 69.43 123.2 69.43 123.76 69.43 124.33 69.43 124.89 69.43 125.46 69.43 126.03 69.43 126.59 69.43 127.16 69.43 127.72 69.43 128.29 69.43 128.85 69.43 129.42 69.43 129.98 69.43 130.55 69.43 131.11 69.43 131.68 69.43 132.24 69.43 132.81 69.43 133.37 69.43 133.94 69.43" id="img-1b90472e-35" stroke="#00B78D" class="geometry color_70"/>
        <path fill="none" d="M21.47,32.22 L 22.03 66.28 22.6 68.17 23.16 68.8 23.73 68.8 24.29 68.8 24.86 69.43 25.42 69.43 25.99 69.43 26.55 69.43 27.12 69.43 27.68 69.43 28.25 69.43 28.81 69.43 29.38 69.43 29.94 69.43 30.51 69.43 31.07 69.43 31.64 69.43 32.21 69.43 32.77 69.43 33.34 69.43 33.9 69.43 34.47 69.43 35.03 69.43 35.6 69.43 36.16 69.43 36.73 69.43 37.29 69.43 37.86 69.43 38.42 69.43 38.99 69.43 39.55 69.43 40.12 69.43 40.68 69.43 41.25 69.43 41.81 69.43 42.38 69.43 42.94 69.43 43.51 69.43 44.07 69.43 44.64 69.43 45.2 69.43 45.77 69.43 46.33 69.43 46.9 69.43 47.46 69.43 48.03 69.43 48.6 69.43 49.16 69.43 49.73 69.43 50.29 69.43 50.86 69.43 51.42 69.43 51.99 69.43 52.55 69.43 53.12 69.43 53.68 69.43 54.25 69.43 54.81 69.43 55.38 69.43 55.94 69.43 56.51 69.43 57.07 69.43 57.64 69.43 58.2 69.43 58.77 69.43 59.33 69.43 59.9 69.43 60.46 69.43 61.03 69.43 61.59 69.43 62.16 69.43 62.72 69.43 63.29 69.43 63.86 69.43 64.42 69.43 64.99 69.43 65.55 69.43 66.12 69.43 66.68 69.43 67.25 69.43 67.81 69.43 68.38 69.43 68.94 69.43 69.51 69.43 70.07 69.43 70.64 69.43 71.2 69.43 71.77 69.43 72.33 69.43 72.9 69.43 73.46 69.43 74.03 69.43 74.59 69.43 75.16 69.43 75.72 69.43 76.29 69.43 76.85 69.43 77.42 69.43 77.98 69.43 78.55 69.43 79.12 69.43 79.68 69.43 80.25 69.43 80.81 69.43 81.38 69.43 81.94 69.43 82.51 69.43 83.07 69.43 83.64 69.43 84.2 69.43 84.77 69.43 85.33 69.43 85.9 69.43 86.46 69.43 87.03 69.43 87.59 69.43 88.16 69.43 88.72 69.43 89.29 69.43 89.85 69.43 90.42 69.43 90.98 69.43 91.55 69.43 92.11 69.43 92.68 69.43 93.24 69.43 93.81 69.43 94.37 69.43 94.94 69.43 95.51 69.43 96.07 69.43 96.64 69.43 97.2 69.43 97.77 69.43 98.33 69.43 98.9 69.43 99.46 69.43 100.03 69.43 100.59 69.43 101.16 69.43 101.72 69.43 102.29 69.43 102.85 69.43 103.42 69.43 103.98 69.43 104.55 69.43 105.11 69.43 105.68 69.43 106.24 69.43 106.81 69.43 107.37 69.43 107.94 69.43 108.5 69.43 109.07 69.43 109.63 69.43 110.2 69.43 110.77 69.43 111.33 69.43 111.9 69.43 112.46 69.43 113.03 69.43 113.59 69.43 114.16 69.43 114.72 69.43 115.29 69.43 115.85 69.43 116.42 69.43 116.98 69.43 117.55 69.43 118.11 69.43 118.68 69.43 119.24 69.43 119.81 69.43 120.37 69.43 120.94 69.43 121.5 69.43 122.07 69.43 122.63 69.43 123.2 69.43 123.76 69.43 124.33 69.43 124.89 69.43 125.46 69.43 126.03 69.43 126.59 69.43 127.16 69.43 127.72 69.43 128.29 69.43 128.85 69.43 129.42 69.43 129.98 69.43 130.55 69.43 131.11 69.43 131.68 69.43 132.24 69.43 132.81 69.43 133.37 69.43 133.94 69.43" id="img-1b90472e-36" stroke="#00BFFF" class="geometry color_10"/>
        <path fill="none" d="M21.47,7 L 22.03 7.63 22.6 9.52 23.16 13.31 23.73 17.09 24.29 22.13 24.86 25.92 25.42 30.33 25.99 33.49 26.55 37.27 27.12 39.16 27.68 42.31 28.25 44.84 28.81 46.1 29.38 47.99 29.94 49.88 30.51 50.51 31.07 51.77 31.64 53.03 32.21 53.67 32.77 54.93 33.34 56.19 33.9 56.82 34.47 57.45 35.03 58.71 35.6 59.34 36.16 59.34 36.73 59.97 37.29 60.6 37.86 60.6 38.42 61.23 38.99 61.86 39.55 62.49 40.12 62.49 40.68 63.12 41.25 63.12 41.81 63.75 42.38 63.75 42.94 64.39 43.51 64.39 44.07 64.39 44.64 64.39 45.2 65.02 45.77 65.02 46.33 65.02 46.9 65.02 47.46 65.65 48.03 65.65 48.6 65.65 49.16 65.65 49.73 66.28 50.29 66.28 50.86 66.28 51.42 66.28 51.99 66.28 52.55 66.28 53.12 66.91 53.68 66.91 54.25 66.91 54.81 66.91 55.38 66.91 55.94 66.91 56.51 66.91 57.07 66.91 57.64 66.91 58.2 66.91 58.77 67.54 59.33 67.54 59.9 67.54 60.46 67.54 61.03 67.54 61.59 67.54 62.16 67.54 62.72 67.54 63.29 67.54 63.86 67.54 64.42 67.54 64.99 67.54 65.55 67.54 66.12 67.54 66.68 67.54 67.25 67.54 67.81 67.54 68.38 67.54 68.94 67.54 69.51 67.54 70.07 68.17 70.64 68.17 71.2 68.17 71.77 68.17 72.33 68.17 72.9 68.17 73.46 68.17 74.03 68.17 74.59 68.17 75.16 68.17 75.72 68.17 76.29 68.17 76.85 68.17 77.42 68.17 77.98 68.17 78.55 68.17 79.12 68.17 79.68 68.17 80.25 68.17 80.81 68.17 81.38 68.17 81.94 68.8 82.51 68.8 83.07 68.8 83.64 68.8 84.2 68.8 84.77 68.8 85.33 68.8 85.9 68.8 86.46 68.8 87.03 68.8 87.59 68.8 88.16 68.8 88.72 68.8 89.29 68.8 89.85 68.8 90.42 68.8 90.98 68.8 91.55 68.8 92.11 68.8 92.68 68.8 93.24 68.8 93.81 68.8 94.37 68.8 94.94 68.8 95.51 68.8 96.07 68.8 96.64 68.8 97.2 68.8 97.77 68.8 98.33 68.8 98.9 68.8 99.46 68.8 100.03 68.8 100.59 68.8 101.16 68.8 101.72 68.8 102.29 68.8 102.85 68.8 103.42 68.8 103.98 68.8 104.55 68.8 105.11 68.8 105.68 68.8 106.24 68.8 106.81 68.8 107.37 68.8 107.94 68.8 108.5 68.8 109.07 68.8 109.63 69.43 110.2 69.43 110.77 69.43 111.33 69.43 111.9 69.43 112.46 69.43 113.03 69.43 113.59 69.43 114.16 69.43 114.72 69.43 115.29 69.43 115.85 69.43 116.42 69.43 116.98 69.43 117.55 69.43 118.11 69.43 118.68 69.43 119.24 69.43 119.81 69.43 120.37 69.43 120.94 69.43 121.5 69.43 122.07 69.43 122.63 69.43 123.2 69.43 123.76 69.43 124.33 69.43 124.89 69.43 125.46 69.43 126.03 69.43 126.59 69.43 127.16 69.43 127.72 69.43 128.29 69.43 128.85 69.43 129.42 69.43 129.98 69.43 130.55 69.43 131.11 69.43 131.68 69.43 132.24 69.43 132.81 69.43 133.37 69.43 133.94 69.43" id="img-1b90472e-37" stroke="#BEA9FF" class="geometry color_100"/>
        <path fill="none" d="M21.47,7.63 L 22.03 41.68 22.6 51.77 23.16 56.82 23.73 59.97 24.29 61.86 24.86 62.49 25.42 63.75 25.99 63.75 26.55 65.02 27.12 65.65 27.68 65.65 28.25 66.28 28.81 66.28 29.38 66.91 29.94 66.91 30.51 67.54 31.07 67.54 31.64 67.54 32.21 67.54 32.77 68.17 33.34 68.17 33.9 68.17 34.47 68.17 35.03 68.17 35.6 68.17 36.16 68.17 36.73 68.17 37.29 68.17 37.86 68.8 38.42 68.8 38.99 68.8 39.55 68.8 40.12 68.8 40.68 68.8 41.25 68.8 41.81 68.8 42.38 68.8 42.94 68.8 43.51 68.8 44.07 68.8 44.64 68.8 45.2 68.8 45.77 68.8 46.33 68.8 46.9 68.8 47.46 68.8 48.03 68.8 48.6 68.8 49.16 68.8 49.73 68.8 50.29 68.8 50.86 68.8 51.42 68.8 51.99 68.8 52.55 68.8 53.12 68.8 53.68 68.8 54.25 68.8 54.81 68.8 55.38 68.8 55.94 68.8 56.51 69.43 57.07 69.43 57.64 69.43 58.2 69.43 58.77 69.43 59.33 69.43 59.9 69.43 60.46 69.43 61.03 69.43 61.59 69.43 62.16 69.43 62.72 69.43 63.29 69.43 63.86 69.43 64.42 69.43 64.99 69.43 65.55 69.43 66.12 69.43 66.68 69.43 67.25 69.43 67.81 69.43 68.38 69.43 68.94 69.43 69.51 69.43 70.07 69.43 70.64 69.43 71.2 69.43 71.77 69.43 72.33 69.43 72.9 69.43 73.46 69.43 74.03 69.43 74.59 69.43 75.16 69.43 75.72 69.43 76.29 69.43 76.85 69.43 77.42 69.43 77.98 69.43 78.55 69.43 79.12 69.43 79.68 69.43 80.25 69.43 80.81 69.43 81.38 69.43 81.94 69.43 82.51 69.43 83.07 69.43 83.64 69.43 84.2 69.43 84.77 69.43 85.33 69.43 85.9 69.43 86.46 69.43 87.03 69.43 87.59 69.43 88.16 69.43 88.72 69.43 89.29 69.43 89.85 69.43 90.42 69.43 90.98 69.43 91.55 69.43 92.11 69.43 92.68 69.43 93.24 69.43 93.81 69.43 94.37 69.43 94.94 69.43 95.51 69.43 96.07 69.43 96.64 69.43 97.2 69.43 97.77 69.43 98.33 69.43 98.9 69.43 99.46 69.43 100.03 69.43 100.59 69.43 101.16 69.43 101.72 69.43 102.29 69.43 102.85 69.43 103.42 69.43 103.98 69.43 104.55 69.43 105.11 69.43 105.68 69.43 106.24 69.43 106.81 69.43 107.37 69.43 107.94 69.43 108.5 69.43 109.07 69.43 109.63 69.43 110.2 69.43 110.77 69.43 111.33 69.43 111.9 69.43 112.46 69.43 113.03 69.43 113.59 69.43 114.16 69.43 114.72 69.43 115.29 69.43 115.85 69.43 116.42 69.43 116.98 69.43 117.55 69.43 118.11 69.43 118.68 69.43 119.24 69.43 119.81 69.43 120.37 69.43 120.94 69.43 121.5 69.43 122.07 69.43 122.63 69.43 123.2 69.43 123.76 69.43 124.33 69.43 124.89 69.43 125.46 69.43 126.03 69.43 126.59 69.43 127.16 69.43 127.72 69.43 128.29 69.43 128.85 69.43 129.42 69.43 129.98 69.43 130.55 69.43 131.11 69.43 131.68 69.43 132.24 69.43 132.81 69.43 133.37 69.43 133.94 69.43" id="img-1b90472e-38" stroke="#D4CA3A" class="geometry color_30"/>
        <path fill="none" d="M21.47,7 L 22.03 18.35 22.6 30.96 23.16 39.16 23.73 44.21 24.29 47.99 24.86 51.14 25.42 53.03 25.99 55.56 26.55 57.45 27.12 58.71 27.68 59.97 28.25 60.6 28.81 61.23 29.38 61.86 29.94 62.49 30.51 63.12 31.07 63.75 31.64 64.39 32.21 64.39 32.77 65.02 33.34 65.02 33.9 65.02 34.47 65.65 35.03 65.65 35.6 66.28 36.16 66.28 36.73 66.28 37.29 66.28 37.86 66.28 38.42 66.91 38.99 66.91 39.55 66.91 40.12 67.54 40.68 67.54 41.25 67.54 41.81 67.54 42.38 67.54 42.94 67.54 43.51 68.17 44.07 68.17 44.64 68.17 45.2 68.17 45.77 68.17 46.33 68.17 46.9 68.17 47.46 68.17 48.03 68.17 48.6 68.17 49.16 68.8 49.73 68.8 50.29 68.8 50.86 68.8 51.42 68.8 51.99 68.8 52.55 68.8 53.12 68.8 53.68 68.8 54.25 68.8 54.81 68.8 55.38 68.8 55.94 68.8 56.51 68.8 57.07 68.8 57.64 68.8 58.2 68.8 58.77 68.8 59.33 68.8 59.9 68.8 60.46 68.8 61.03 68.8 61.59 68.8 62.16 68.8 62.72 68.8 63.29 68.8 63.86 68.8 64.42 68.8 64.99 68.8 65.55 68.8 66.12 68.8 66.68 68.8 67.25 68.8 67.81 68.8 68.38 68.8 68.94 68.8 69.51 68.8 70.07 68.8 70.64 69.43 71.2 69.43 71.77 69.43 72.33 69.43 72.9 69.43 73.46 69.43 74.03 69.43 74.59 69.43 75.16 69.43 75.72 69.43 76.29 69.43 76.85 69.43 77.42 69.43 77.98 69.43 78.55 69.43 79.12 69.43 79.68 69.43 80.25 69.43 80.81 69.43 81.38 69.43 81.94 69.43 82.51 69.43 83.07 69.43 83.64 69.43 84.2 69.43 84.77 69.43 85.33 69.43 85.9 69.43 86.46 69.43 87.03 69.43 87.59 69.43 88.16 69.43 88.72 69.43 89.29 69.43 89.85 69.43 90.42 69.43 90.98 69.43 91.55 69.43 92.11 69.43 92.68 69.43 93.24 69.43 93.81 69.43 94.37 69.43 94.94 69.43 95.51 69.43 96.07 69.43 96.64 69.43 97.2 69.43 97.77 69.43 98.33 69.43 98.9 69.43 99.46 69.43 100.03 69.43 100.59 69.43 101.16 69.43 101.72 69.43 102.29 69.43 102.85 69.43 103.42 69.43 103.98 69.43 104.55 69.43 105.11 69.43 105.68 69.43 106.24 69.43 106.81 69.43 107.37 69.43 107.94 69.43 108.5 69.43 109.07 69.43 109.63 69.43 110.2 69.43 110.77 69.43 111.33 69.43 111.9 69.43 112.46 69.43 113.03 69.43 113.59 69.43 114.16 69.43 114.72 69.43 115.29 69.43 115.85 69.43 116.42 69.43 116.98 69.43 117.55 69.43 118.11 69.43 118.68 69.43 119.24 69.43 119.81 69.43 120.37 69.43 120.94 69.43 121.5 69.43 122.07 69.43 122.63 69.43 123.2 69.43 123.76 69.43 124.33 69.43 124.89 69.43 125.46 69.43 126.03 69.43 126.59 69.43 127.16 69.43 127.72 69.43 128.29 69.43 128.85 69.43 129.42 69.43 129.98 69.43 130.55 69.43 131.11 69.43 131.68 69.43 132.24 69.43 132.81 69.43 133.37 69.43 133.94 69.43" id="img-1b90472e-39" stroke="#FF6DAE" class="geometry color_50"/>
      </g>
    </g>
  </g>
</g>
  <g class="guide ylabels" font-size="2.82" font-family="'PT Sans Caption','Helvetica Neue','Helvetica',sans-serif" fill="#6C606B" id="img-1b90472e-40">
    <text x="18.47" y="70.06" text-anchor="end" dy="0.35em" id="img-1b90472e-41">0</text>
    <text x="18.47" y="38.53" text-anchor="end" dy="0.35em" id="img-1b90472e-42">50</text>
    <text x="18.47" y="7" text-anchor="end" dy="0.35em" id="img-1b90472e-43">100</text>
  </g>
  <g font-size="3.88" font-family="'PT Sans','Helvetica Neue','Helvetica',sans-serif" fill="#564A55" stroke="#000000" stroke-opacity="0.000" id="img-1b90472e-44">
    <text x="8.76" y="36.53" text-anchor="middle" dy="0.35em" transform="rotate(-90, 8.76, 38.53)" id="img-1b90472e-45">nSpecie</text>
  </g>
</g>
<defs>
  <clipPath id="img-1b90472e-19">
  <path d="M19.47,5 L 136.5 5 136.5 72.06 19.47 72.06" />
</clipPath>
</defs>
</svg>
