<?xml version="1.0" encoding="UTF-8"?>
<svg xmlns="http://www.w3.org/2000/svg"
     xmlns:xlink="http://www.w3.org/1999/xlink"
     xmlns:gadfly="http://www.gadflyjl.org/ns"
     version="1.2"
     width="150mm" height="90mm" viewBox="0 0 150 90"
     stroke="none"
     fill="#000000"
     stroke-width="0.3"
     font-size="3.88"
>
<g class="plotroot xscalable yscalable" id="img-1a8ebf51-1">
  <g font-size="3.88" font-family="'PT Sans','Helvetica Neue','Helvetica',sans-serif" fill="#564A55" stroke="#000000" stroke-opacity="0.000" id="img-1a8ebf51-2">
    <text x="77.1" y="79.18" text-anchor="middle" dy="0.6em">time</text>
  </g>
  <g class="guide xlabels" font-size="2.82" font-family="'PT Sans Caption','Helvetica Neue','Helvetica',sans-serif" fill="#6C606B" id="img-1a8ebf51-3">
    <text x="21.47" y="73.06" text-anchor="middle" dy="0.6em">0</text>
    <text x="49.28" y="73.06" text-anchor="middle" dy="0.6em">5.0×10³</text>
    <text x="77.1" y="73.06" text-anchor="middle" dy="0.6em">1.0×10⁴</text>
    <text x="104.92" y="73.06" text-anchor="middle" dy="0.6em">1.5×10⁴</text>
    <text x="132.74" y="73.06" text-anchor="middle" dy="0.6em">2.0×10⁴</text>
  </g>
  <g class="guide colorkey" id="img-1a8ebf51-4">
    <g fill="#4C404B" font-size="2.82" font-family="'PT Sans','Helvetica Neue','Helvetica',sans-serif" id="img-1a8ebf51-5">
      <text x="138.3" y="30.74" dy="0.35em" id="img-1a8ebf51-6" class="color_1">1</text>
      <text x="138.3" y="33.86" dy="0.35em" id="img-1a8ebf51-7" class="color_2">2</text>
      <text x="138.3" y="36.97" dy="0.35em" id="img-1a8ebf51-8" class="color_5">5</text>
      <text x="138.3" y="40.09" dy="0.35em" id="img-1a8ebf51-9" class="color_10">10</text>
      <text x="138.3" y="43.21" dy="0.35em" id="img-1a8ebf51-10" class="color_25">25</text>
      <text x="138.3" y="46.32" dy="0.35em" id="img-1a8ebf51-11" class="color_50">50</text>
      <text x="138.3" y="49.44" dy="0.35em" id="img-1a8ebf51-12" class="color_2500">2500</text>
    </g>
    <g stroke="#000000" stroke-opacity="0.000" id="img-1a8ebf51-13">
      <rect x="135.74" y="29.96" width="1.56" height="1.56" id="img-1a8ebf51-14" fill="#00BFFF" class="color_1"/>
      <rect x="135.74" y="33.08" width="1.56" height="1.56" id="img-1a8ebf51-15" fill="#D4CA3A" class="color_2"/>
      <rect x="135.74" y="36.19" width="1.56" height="1.56" id="img-1a8ebf51-16" fill="#FF6DAE" class="color_5"/>
      <rect x="135.74" y="39.31" width="1.56" height="1.56" id="img-1a8ebf51-17" fill="#00B78D" class="color_10"/>
      <rect x="135.74" y="42.43" width="1.56" height="1.56" id="img-1a8ebf51-18" fill="#BEA9FF" class="color_25"/>
      <rect x="135.74" y="45.54" width="1.56" height="1.56" id="img-1a8ebf51-19" fill="#FF6765" class="color_50"/>
      <rect x="135.74" y="48.66" width="1.56" height="1.56" id="img-1a8ebf51-20" fill="#C6C6C6" class="color_2500"/>
    </g>
    <g fill="#362A35" font-size="3.88" font-family="'PT Sans','Helvetica Neue','Helvetica',sans-serif" stroke="#000000" stroke-opacity="0.000" id="img-1a8ebf51-21">
      <text x="135.74" y="26.68" id="img-1a8ebf51-22">r</text>
    </g>
  </g>
<g clip-path="url(#img-1a8ebf51-23)">
  <g id="img-1a8ebf51-24">
    <g pointer-events="visible" opacity="1" fill="#000000" fill-opacity="0.000" stroke="#000000" stroke-opacity="0.000" class="guide background" id="img-1a8ebf51-25">
      <rect x="19.47" y="5" width="115.27" height="67.06" id="img-1a8ebf51-26"/>
    </g>
    <g class="guide ygridlines xfixed" stroke-dasharray="0.5,0.5" stroke-width="0.2" stroke="#D0D0E0" id="img-1a8ebf51-27">
      <path fill="none" d="M19.47,70.06 L 134.74 70.06" id="img-1a8ebf51-28"/>
      <path fill="none" d="M19.47,38.53 L 134.74 38.53" id="img-1a8ebf51-29"/>
      <path fill="none" d="M19.47,7 L 134.74 7" id="img-1a8ebf51-30"/>
    </g>
    <g class="guide xgridlines yfixed" stroke-dasharray="0.5,0.5" stroke-width="0.2" stroke="#D0D0E0" id="img-1a8ebf51-31">
      <path fill="none" d="M21.47,5 L 21.47 72.06" id="img-1a8ebf51-32"/>
      <path fill="none" d="M49.28,5 L 49.28 72.06" id="img-1a8ebf51-33"/>
      <path fill="none" d="M77.1,5 L 77.1 72.06" id="img-1a8ebf51-34"/>
      <path fill="none" d="M104.92,5 L 104.92 72.06" id="img-1a8ebf51-35"/>
      <path fill="none" d="M132.74,5 L 132.74 72.06" id="img-1a8ebf51-36"/>
    </g>
    <g class="plotpanel" id="img-1a8ebf51-37">
      <g stroke-width="0.3" fill="#000000" fill-opacity="0.000" stroke-dasharray="none" id="img-1a8ebf51-38">
        <path fill="none" d="M21.47,7 L 22.02 22.13 22.58 36.64 23.14 45.47 23.69 50.51 24.25 54.93 24.8 56.19 25.36 58.08 25.92 59.97 26.47 60.6 27.03 61.23 27.59 62.49 28.14 63.12 28.7 63.75 29.26 64.39 29.81 64.39 30.37 65.02 30.92 65.02 31.48 65.65 32.04 65.65 32.59 65.65 33.15 65.65 33.71 66.28 34.26 66.28 34.82 66.28 35.38 66.28 35.93 66.28 36.49 66.91 37.04 66.91 37.6 66.91 38.16 66.91 38.71 66.91 39.27 66.91 39.83 66.91 40.38 66.91 40.94 66.91 41.5 67.54 42.05 67.54 42.61 67.54 43.16 67.54 43.72 67.54 44.28 67.54 44.83 67.54 45.39 67.54 45.95 67.54 46.5 67.54 47.06 67.54 47.62 67.54 48.17 67.54 48.73 67.54 49.28 67.54 49.84 67.54 50.4 67.54 50.95 67.54 51.51 67.54 52.07 67.54 52.62 67.54 53.18 67.54 53.74 67.54 54.29 67.54 54.85 67.54 55.4 67.54 55.96 67.54 56.52 67.54 57.07 67.54 57.63 67.54 58.19 67.54 58.74 68.17 59.3 68.17 59.86 68.17 60.41 68.17 60.97 68.17 61.52 68.17 62.08 68.17 62.64 68.17 63.19 68.17 63.75 68.17 64.31 68.17 64.86 68.17 65.42 68.17 65.98 68.17 66.53 68.17 67.09 68.17 67.64 68.17 68.2 68.17 68.76 68.17 69.31 68.17 69.87 68.17 70.43 68.17 70.98 68.17 71.54 68.17 72.1 68.17 72.65 68.17 73.21 68.17 73.76 68.17 74.32 68.17 74.88 68.17 75.43 68.17 75.99 68.17 76.55 68.17 77.1 68.17 77.66 68.17 78.22 68.17 78.77 68.17 79.33 68.17 79.88 68.17 80.44 68.17 81 68.17 81.55 68.17 82.11 68.17 82.67 68.17 83.22 68.17 83.78 68.17 84.34 68.17 84.89 68.17 85.45 68.17 86 68.17 86.56 68.17 87.12 68.17 87.67 68.17 88.23 68.17 88.79 68.17 89.34 68.17 89.9 68.17 90.46 68.17 91.01 68.17 91.57 68.17 92.12 68.17 92.68 68.17 93.24 68.17 93.79 68.17 94.35 68.17 94.91 68.17 95.46 68.17 96.02 68.17 96.58 68.17 97.13 68.17 97.69 68.17 98.24 68.17 98.8 68.17 99.36 68.17 99.91 68.17 100.47 68.17 101.03 68.17 101.58 68.17 102.14 68.17 102.7 68.17 103.25 68.17 103.81 68.17 104.36 68.17 104.92 68.17 105.48 68.17 106.03 68.17 106.59 68.17 107.15 68.17 107.7 68.17 108.26 68.17 108.82 68.17 109.37 68.17 109.93 68.17 110.48 68.8 111.04 68.8 111.6 68.8 112.15 68.8 112.71 68.8 113.27 68.8 113.82 68.8 114.38 68.8 114.94 68.8 115.49 68.8 116.05 68.8 116.6 68.8 117.16 68.8 117.72 68.8 118.27 68.8 118.83 68.8 119.39 68.8 119.94 68.8 120.5 68.8 121.06 68.8 121.61 68.8 122.17 68.8 122.72 68.8 123.28 68.8 123.84 68.8 124.39 68.8 124.95 68.8 125.51 68.8 126.06 68.8 126.62 68.8 127.18 68.8 127.73 68.8 128.29 68.8 128.84 68.8 129.4 68.8 129.96 68.8 130.51 68.8 131.07 68.8 131.63 68.8 132.18 68.8" id="img-1a8ebf51-39" stroke="#00B78D" class="geometry color_10"/>
        <path fill="none" d="M21.47,7 L 22.02 35.38 22.58 46.73 23.14 53.67 23.69 58.08 24.25 60.6 24.8 63.12 25.36 64.39 25.92 65.65 26.47 65.65 27.03 66.28 27.59 66.91 28.14 67.54 28.7 67.54 29.26 68.17 29.81 68.17 30.37 68.8 30.92 68.8 31.48 68.8 32.04 68.8 32.59 68.8 33.15 69.43 33.71 69.43 34.26 69.43 34.82 69.43 35.38 69.43 35.93 69.43 36.49 69.43 37.04 69.43 37.6 69.43 38.16 69.43 38.71 69.43 39.27 69.43 39.83 69.43 40.38 69.43 40.94 69.43 41.5 69.43 42.05 69.43 42.61 69.43 43.16 69.43 43.72 69.43 44.28 69.43 44.83 69.43 45.39 69.43 45.95 69.43 46.5 69.43 47.06 69.43 47.62 69.43 48.17 69.43 48.73 69.43 49.28 69.43 49.84 69.43 50.4 69.43 50.95 69.43 51.51 69.43 52.07 69.43 52.62 69.43 53.18 70.06 53.74 70.06 54.29 70.06 54.85 70.06 55.4 70.06 55.96 70.06 56.52 70.06 57.07 70.06 57.63 70.06 58.19 70.06 58.74 70.06 59.3 70.06 59.86 70.06 60.41 70.06 60.97 70.06 61.52 70.06 62.08 70.06 62.64 70.06 63.19 70.06 63.75 70.06 64.31 70.06 64.86 70.06 65.42 70.06 65.98 70.06 66.53 70.06 67.09 70.06 67.64 70.06 68.2 70.06 68.76 70.06 69.31 70.06 69.87 70.06 70.43 70.06 70.98 70.06 71.54 70.06 72.1 70.06 72.65 70.06 73.21 70.06 73.76 70.06 74.32 70.06 74.88 70.06 75.43 70.06 75.99 70.06 76.55 70.06 77.1 70.06 77.66 70.06 78.22 70.06 78.77 70.06 79.33 70.06 79.88 70.06 80.44 70.06 81 70.06 81.55 70.06 82.11 70.06 82.67 70.06 83.22 70.06 83.78 70.06 84.34 70.06 84.89 70.06 85.45 70.06 86 70.06 86.56 70.06 87.12 70.06 87.67 70.06 88.23 70.06 88.79 70.06 89.34 70.06 89.9 70.06 90.46 70.06 91.01 70.06 91.57 70.06 92.12 70.06 92.68 70.06 93.24 70.06 93.79 70.06 94.35 70.06 94.91 70.06 95.46 70.06 96.02 70.06 96.58 70.06 97.13 70.06 97.69 70.06 98.24 70.06 98.8 70.06 99.36 70.06 99.91 70.06 100.47 70.06 101.03 70.06 101.58 70.06 102.14 70.06 102.7 70.06 103.25 70.06 103.81 70.06 104.36 70.06 104.92 70.06 105.48 70.06 106.03 70.06 106.59 70.06 107.15 70.06 107.7 70.06 108.26 70.06 108.82 70.06 109.37 70.06 109.93 70.06 110.48 70.06 111.04 70.06 111.6 70.06 112.15 70.06 112.71 70.06 113.27 70.06 113.82 70.06 114.38 70.06 114.94 70.06 115.49 70.06 116.05 70.06 116.6 70.06 117.16 70.06 117.72 70.06 118.27 70.06 118.83 70.06 119.39 70.06 119.94 70.06 120.5 70.06 121.06 70.06 121.61 70.06 122.17 70.06 122.72 70.06 123.28 70.06 123.84 70.06 124.39 70.06 124.95 70.06 125.51 70.06 126.06 70.06 126.62 70.06 127.18 70.06 127.73 70.06 128.29 70.06 128.84 70.06 129.4 70.06 129.96 70.06 130.51 70.06 131.07 70.06 131.63 70.06 132.18 70.06" id="img-1a8ebf51-40" stroke="#00BFFF" class="geometry color_1"/>
        <path fill="none" d="M21.47,7 L 22.02 22.13 22.58 35.38 23.14 43.58 23.69 47.99 24.25 51.14 24.8 54.3 25.36 56.82 25.92 58.08 26.47 59.34 27.03 59.97 27.59 60.6 28.14 61.23 28.7 61.86 29.26 62.49 29.81 62.49 30.37 63.12 30.92 63.75 31.48 63.75 32.04 64.39 32.59 64.39 33.15 65.02 33.71 65.02 34.26 65.02 34.82 65.02 35.38 65.65 35.93 65.65 36.49 65.65 37.04 65.65 37.6 65.65 38.16 66.28 38.71 66.28 39.27 66.28 39.83 66.28 40.38 66.91 40.94 66.91 41.5 66.91 42.05 66.91 42.61 66.91 43.16 66.91 43.72 66.91 44.28 66.91 44.83 66.91 45.39 67.54 45.95 67.54 46.5 67.54 47.06 67.54 47.62 67.54 48.17 67.54 48.73 67.54 49.28 67.54 49.84 67.54 50.4 67.54 50.95 67.54 51.51 67.54 52.07 67.54 52.62 67.54 53.18 67.54 53.74 67.54 54.29 67.54 54.85 67.54 55.4 67.54 55.96 67.54 56.52 67.54 57.07 67.54 57.63 68.17 58.19 68.17 58.74 68.17 59.3 68.17 59.86 68.17 60.41 68.17 60.97 68.17 61.52 68.17 62.08 68.17 62.64 68.17 63.19 68.17 63.75 68.17 64.31 68.17 64.86 68.17 65.42 68.17 65.98 68.17 66.53 68.17 67.09 68.17 67.64 68.17 68.2 68.17 68.76 68.17 69.31 68.17 69.87 68.17 70.43 68.17 70.98 68.17 71.54 68.17 72.1 68.17 72.65 68.17 73.21 68.17 73.76 68.17 74.32 68.17 74.88 68.17 75.43 68.17 75.99 68.17 76.55 68.17 77.1 68.17 77.66 68.17 78.22 68.17 78.77 68.17 79.33 68.17 79.88 68.17 80.44 68.17 81 68.17 81.55 68.17 82.11 68.8 82.67 68.8 83.22 68.8 83.78 68.8 84.34 68.8 84.89 68.8 85.45 68.8 86 68.8 86.56 68.8 87.12 68.8 87.67 68.8 88.23 68.8 88.79 68.8 89.34 68.8 89.9 68.8 90.46 68.8 91.01 68.8 91.57 68.8 92.12 68.8 92.68 68.8 93.24 68.8 93.79 68.8 94.35 68.8 94.91 68.8 95.46 68.8 96.02 68.8 96.58 68.8 97.13 68.8 97.69 68.8 98.24 68.8 98.8 68.8 99.36 68.8 99.91 68.8 100.47 68.8 101.03 68.8 101.58 68.8 102.14 68.8 102.7 68.8 103.25 68.8 103.81 68.8 104.36 68.8 104.92 68.8 105.48 68.8 106.03 68.8 106.59 68.8 107.15 68.8 107.7 68.8 108.26 68.8 108.82 68.8 109.37 68.8 109.93 68.8 110.48 68.8 111.04 68.8 111.6 68.8 112.15 68.8 112.71 68.8 113.27 68.8 113.82 68.8 114.38 68.8 114.94 68.8 115.49 68.8 116.05 68.8 116.6 68.8 117.16 68.8 117.72 68.8 118.27 68.8 118.83 68.8 119.39 68.8 119.94 68.8 120.5 68.8 121.06 68.8 121.61 68.8 122.17 68.8 122.72 68.8 123.28 68.8 123.84 68.8 124.39 68.8 124.95 68.8 125.51 68.8 126.06 68.8 126.62 68.8 127.18 68.8 127.73 68.8 128.29 68.8 128.84 68.8 129.4 68.8 129.96 68.8 130.51 68.8 131.07 68.8 131.63 68.8 132.18 68.8" id="img-1a8ebf51-41" stroke="#BEA9FF" class="geometry color_25"/>
        <path fill="none" d="M21.47,7 L 22.02 18.35 22.58 30.33 23.14 37.9 23.69 43.58 24.25 48.62 24.8 50.51 25.36 52.4 25.92 54.3 26.47 56.19 27.03 57.45 27.59 58.71 28.14 59.97 28.7 60.6 29.26 61.23 29.81 61.86 30.37 62.49 30.92 63.12 31.48 63.12 32.04 63.75 32.59 63.75 33.15 64.39 33.71 64.39 34.26 65.02 34.82 65.65 35.38 65.65 35.93 65.65 36.49 66.28 37.04 66.91 37.6 66.91 38.16 66.91 38.71 66.91 39.27 66.91 39.83 66.91 40.38 66.91 40.94 67.54 41.5 67.54 42.05 67.54 42.61 67.54 43.16 67.54 43.72 68.17 44.28 68.17 44.83 68.17 45.39 68.17 45.95 68.17 46.5 68.17 47.06 68.17 47.62 68.17 48.17 68.17 48.73 68.17 49.28 68.17 49.84 68.17 50.4 68.17 50.95 68.17 51.51 68.17 52.07 68.17 52.62 68.17 53.18 68.17 53.74 68.17 54.29 68.17 54.85 68.17 55.4 68.17 55.96 68.17 56.52 68.17 57.07 68.17 57.63 68.17 58.19 68.17 58.74 68.17 59.3 68.17 59.86 68.17 60.41 68.17 60.97 68.17 61.52 68.17 62.08 68.8 62.64 68.8 63.19 68.8 63.75 68.8 64.31 68.8 64.86 68.8 65.42 68.8 65.98 68.8 66.53 68.8 67.09 68.8 67.64 68.8 68.2 68.8 68.76 68.8 69.31 68.8 69.87 68.8 70.43 68.8 70.98 68.8 71.54 68.8 72.1 68.8 72.65 68.8 73.21 68.8 73.76 68.8 74.32 69.43 74.88 69.43 75.43 69.43 75.99 69.43 76.55 69.43 77.1 69.43 77.66 69.43 78.22 69.43 78.77 69.43 79.33 69.43 79.88 69.43 80.44 69.43 81 69.43 81.55 69.43 82.11 69.43 82.67 69.43 83.22 69.43 83.78 69.43 84.34 69.43 84.89 69.43 85.45 69.43 86 69.43 86.56 69.43 87.12 69.43 87.67 69.43 88.23 69.43 88.79 69.43 89.34 69.43 89.9 69.43 90.46 69.43 91.01 69.43 91.57 69.43 92.12 69.43 92.68 69.43 93.24 69.43 93.79 69.43 94.35 69.43 94.91 69.43 95.46 69.43 96.02 69.43 96.58 69.43 97.13 69.43 97.69 69.43 98.24 69.43 98.8 69.43 99.36 69.43 99.91 69.43 100.47 69.43 101.03 69.43 101.58 69.43 102.14 69.43 102.7 69.43 103.25 69.43 103.81 69.43 104.36 69.43 104.92 69.43 105.48 69.43 106.03 69.43 106.59 69.43 107.15 69.43 107.7 69.43 108.26 69.43 108.82 69.43 109.37 69.43 109.93 69.43 110.48 69.43 111.04 69.43 111.6 69.43 112.15 69.43 112.71 69.43 113.27 69.43 113.82 69.43 114.38 69.43 114.94 69.43 115.49 69.43 116.05 69.43 116.6 69.43 117.16 69.43 117.72 69.43 118.27 69.43 118.83 69.43 119.39 69.43 119.94 69.43 120.5 69.43 121.06 69.43 121.61 69.43 122.17 69.43 122.72 69.43 123.28 69.43 123.84 69.43 124.39 69.43 124.95 69.43 125.51 69.43 126.06 69.43 126.62 69.43 127.18 69.43 127.73 69.43 128.29 69.43 128.84 69.43 129.4 69.43 129.96 69.43 130.51 69.43 131.07 69.43 131.63 69.43 132.18 69.43" id="img-1a8ebf51-42" stroke="#C6C6C6" class="geometry color_2500"/>
        <path fill="none" d="M21.47,7 L 22.02 23.4 22.58 37.9 23.14 45.47 23.69 49.88 24.25 53.67 24.8 56.82 25.36 59.34 25.92 61.23 26.47 62.49 27.03 63.75 27.59 65.02 28.14 65.02 28.7 66.28 29.26 66.28 29.81 66.91 30.37 66.91 30.92 66.91 31.48 66.91 32.04 67.54 32.59 67.54 33.15 67.54 33.71 67.54 34.26 68.17 34.82 68.17 35.38 68.17 35.93 68.17 36.49 68.17 37.04 68.17 37.6 68.17 38.16 68.8 38.71 68.8 39.27 68.8 39.83 68.8 40.38 68.8 40.94 68.8 41.5 68.8 42.05 68.8 42.61 68.8 43.16 68.8 43.72 68.8 44.28 68.8 44.83 68.8 45.39 68.8 45.95 68.8 46.5 68.8 47.06 68.8 47.62 68.8 48.17 69.43 48.73 69.43 49.28 69.43 49.84 69.43 50.4 69.43 50.95 69.43 51.51 69.43 52.07 69.43 52.62 69.43 53.18 69.43 53.74 69.43 54.29 69.43 54.85 69.43 55.4 69.43 55.96 69.43 56.52 69.43 57.07 69.43 57.63 69.43 58.19 69.43 58.74 69.43 59.3 69.43 59.86 69.43 60.41 69.43 60.97 69.43 61.52 69.43 62.08 69.43 62.64 69.43 63.19 69.43 63.75 69.43 64.31 69.43 64.86 69.43 65.42 69.43 65.98 69.43 66.53 69.43 67.09 69.43 67.64 69.43 68.2 69.43 68.76 69.43 69.31 69.43 69.87 69.43 70.43 69.43 70.98 69.43 71.54 69.43 72.1 69.43 72.65 69.43 73.21 69.43 73.76 69.43 74.32 69.43 74.88 69.43 75.43 69.43 75.99 69.43 76.55 69.43 77.1 69.43 77.66 69.43 78.22 69.43 78.77 69.43 79.33 69.43 79.88 69.43 80.44 69.43 81 69.43 81.55 69.43 82.11 69.43 82.67 69.43 83.22 69.43 83.78 69.43 84.34 69.43 84.89 69.43 85.45 69.43 86 69.43 86.56 69.43 87.12 69.43 87.67 69.43 88.23 69.43 88.79 69.43 89.34 69.43 89.9 69.43 90.46 69.43 91.01 69.43 91.57 69.43 92.12 69.43 92.68 69.43 93.24 69.43 93.79 69.43 94.35 69.43 94.91 69.43 95.46 69.43 96.02 69.43 96.58 69.43 97.13 69.43 97.69 69.43 98.24 69.43 98.8 69.43 99.36 69.43 99.91 69.43 100.47 69.43 101.03 69.43 101.58 69.43 102.14 69.43 102.7 69.43 103.25 69.43 103.81 69.43 104.36 69.43 104.92 69.43 105.48 69.43 106.03 69.43 106.59 69.43 107.15 69.43 107.7 69.43 108.26 69.43 108.82 69.43 109.37 69.43 109.93 69.43 110.48 69.43 111.04 69.43 111.6 69.43 112.15 69.43 112.71 69.43 113.27 69.43 113.82 69.43 114.38 69.43 114.94 69.43 115.49 69.43 116.05 69.43 116.6 69.43 117.16 69.43 117.72 69.43 118.27 69.43 118.83 69.43 119.39 69.43 119.94 69.43 120.5 69.43 121.06 69.43 121.61 69.43 122.17 69.43 122.72 69.43 123.28 69.43 123.84 69.43 124.39 69.43 124.95 69.43 125.51 69.43 126.06 69.43 126.62 69.43 127.18 69.43 127.73 69.43 128.29 69.43 128.84 69.43 129.4 69.43 129.96 69.43 130.51 69.43 131.07 69.43 131.63 69.43 132.18 69.43" id="img-1a8ebf51-43" stroke="#D4CA3A" class="geometry color_2"/>
        <path fill="none" d="M21.47,7 L 22.02 20.87 22.58 34.75 23.14 41.68 23.69 47.36 24.25 51.77 24.8 54.3 25.36 56.19 25.92 57.45 26.47 59.34 27.03 59.97 27.59 60.6 28.14 61.23 28.7 61.86 29.26 62.49 29.81 62.49 30.37 63.12 30.92 63.12 31.48 63.75 32.04 64.39 32.59 64.39 33.15 65.02 33.71 65.02 34.26 65.65 34.82 65.65 35.38 65.65 35.93 66.28 36.49 66.28 37.04 66.28 37.6 66.28 38.16 66.28 38.71 66.91 39.27 66.91 39.83 66.91 40.38 66.91 40.94 66.91 41.5 67.54 42.05 67.54 42.61 67.54 43.16 67.54 43.72 67.54 44.28 67.54 44.83 67.54 45.39 67.54 45.95 68.17 46.5 68.17 47.06 68.17 47.62 68.17 48.17 68.17 48.73 68.17 49.28 68.17 49.84 68.17 50.4 68.17 50.95 68.17 51.51 68.17 52.07 68.17 52.62 68.17 53.18 68.17 53.74 68.17 54.29 68.17 54.85 68.17 55.4 68.17 55.96 68.17 56.52 68.17 57.07 68.17 57.63 68.17 58.19 68.17 58.74 68.17 59.3 68.17 59.86 68.17 60.41 68.17 60.97 68.17 61.52 68.17 62.08 68.17 62.64 68.17 63.19 68.17 63.75 68.17 64.31 68.17 64.86 68.17 65.42 68.17 65.98 68.17 66.53 68.17 67.09 68.8 67.64 68.8 68.2 68.8 68.76 68.8 69.31 68.8 69.87 68.8 70.43 68.8 70.98 68.8 71.54 68.8 72.1 68.8 72.65 68.8 73.21 68.8 73.76 68.8 74.32 68.8 74.88 68.8 75.43 68.8 75.99 68.8 76.55 68.8 77.1 68.8 77.66 68.8 78.22 68.8 78.77 68.8 79.33 68.8 79.88 68.8 80.44 68.8 81 68.8 81.55 68.8 82.11 68.8 82.67 68.8 83.22 68.8 83.78 68.8 84.34 68.8 84.89 68.8 85.45 68.8 86 68.8 86.56 68.8 87.12 68.8 87.67 68.8 88.23 68.8 88.79 68.8 89.34 68.8 89.9 68.8 90.46 68.8 91.01 68.8 91.57 68.8 92.12 68.8 92.68 68.8 93.24 68.8 93.79 68.8 94.35 68.8 94.91 68.8 95.46 68.8 96.02 68.8 96.58 68.8 97.13 68.8 97.69 68.8 98.24 68.8 98.8 68.8 99.36 68.8 99.91 68.8 100.47 68.8 101.03 68.8 101.58 68.8 102.14 68.8 102.7 68.8 103.25 68.8 103.81 68.8 104.36 68.8 104.92 68.8 105.48 68.8 106.03 68.8 106.59 68.8 107.15 68.8 107.7 68.8 108.26 68.8 108.82 68.8 109.37 68.8 109.93 68.8 110.48 68.8 111.04 68.8 111.6 68.8 112.15 68.8 112.71 68.8 113.27 68.8 113.82 68.8 114.38 68.8 114.94 68.8 115.49 68.8 116.05 68.8 116.6 68.8 117.16 68.8 117.72 68.8 118.27 68.8 118.83 68.8 119.39 68.8 119.94 68.8 120.5 68.8 121.06 68.8 121.61 68.8 122.17 68.8 122.72 68.8 123.28 68.8 123.84 68.8 124.39 68.8 124.95 68.8 125.51 68.8 126.06 68.8 126.62 68.8 127.18 68.8 127.73 68.8 128.29 68.8 128.84 68.8 129.4 68.8 129.96 68.8 130.51 68.8 131.07 68.8 131.63 68.8 132.18 68.8" id="img-1a8ebf51-44" stroke="#FF6765" class="geometry color_50"/>
        <path fill="none" d="M21.47,7 L 22.02 24.03 22.58 37.27 23.14 46.1 23.69 51.14 24.25 54.93 24.8 57.45 25.36 58.71 25.92 59.97 26.47 61.23 27.03 62.49 27.59 63.12 28.14 63.75 28.7 63.75 29.26 64.39 29.81 65.02 30.37 65.02 30.92 65.65 31.48 65.65 32.04 66.28 32.59 66.28 33.15 66.28 33.71 66.28 34.26 66.28 34.82 66.28 35.38 66.91 35.93 66.91 36.49 66.91 37.04 66.91 37.6 66.91 38.16 66.91 38.71 66.91 39.27 66.91 39.83 66.91 40.38 66.91 40.94 66.91 41.5 67.54 42.05 67.54 42.61 67.54 43.16 67.54 43.72 67.54 44.28 67.54 44.83 67.54 45.39 67.54 45.95 67.54 46.5 67.54 47.06 67.54 47.62 67.54 48.17 67.54 48.73 67.54 49.28 68.17 49.84 68.17 50.4 68.17 50.95 68.17 51.51 68.17 52.07 68.17 52.62 68.17 53.18 68.17 53.74 68.17 54.29 68.17 54.85 68.17 55.4 68.17 55.96 68.17 56.52 68.17 57.07 68.17 57.63 68.17 58.19 68.17 58.74 68.17 59.3 68.17 59.86 68.17 60.41 68.8 60.97 68.8 61.52 68.8 62.08 68.8 62.64 68.8 63.19 68.8 63.75 68.8 64.31 68.8 64.86 68.8 65.42 68.8 65.98 68.8 66.53 68.8 67.09 68.8 67.64 68.8 68.2 68.8 68.76 68.8 69.31 68.8 69.87 68.8 70.43 68.8 70.98 68.8 71.54 68.8 72.1 68.8 72.65 68.8 73.21 68.8 73.76 68.8 74.32 68.8 74.88 68.8 75.43 68.8 75.99 68.8 76.55 68.8 77.1 68.8 77.66 68.8 78.22 68.8 78.77 68.8 79.33 68.8 79.88 68.8 80.44 68.8 81 68.8 81.55 68.8 82.11 68.8 82.67 68.8 83.22 68.8 83.78 68.8 84.34 68.8 84.89 68.8 85.45 68.8 86 68.8 86.56 68.8 87.12 68.8 87.67 68.8 88.23 68.8 88.79 68.8 89.34 68.8 89.9 68.8 90.46 68.8 91.01 68.8 91.57 68.8 92.12 68.8 92.68 68.8 93.24 68.8 93.79 68.8 94.35 68.8 94.91 68.8 95.46 68.8 96.02 68.8 96.58 68.8 97.13 68.8 97.69 68.8 98.24 68.8 98.8 68.8 99.36 68.8 99.91 68.8 100.47 68.8 101.03 68.8 101.58 68.8 102.14 68.8 102.7 68.8 103.25 68.8 103.81 68.8 104.36 68.8 104.92 68.8 105.48 68.8 106.03 68.8 106.59 68.8 107.15 68.8 107.7 68.8 108.26 68.8 108.82 68.8 109.37 68.8 109.93 68.8 110.48 68.8 111.04 68.8 111.6 68.8 112.15 68.8 112.71 68.8 113.27 68.8 113.82 68.8 114.38 68.8 114.94 68.8 115.49 68.8 116.05 68.8 116.6 68.8 117.16 68.8 117.72 68.8 118.27 68.8 118.83 68.8 119.39 68.8 119.94 68.8 120.5 68.8 121.06 68.8 121.61 68.8 122.17 68.8 122.72 68.8 123.28 68.8 123.84 68.8 124.39 68.8 124.95 68.8 125.51 68.8 126.06 68.8 126.62 68.8 127.18 68.8 127.73 68.8 128.29 68.8 128.84 68.8 129.4 68.8 129.96 68.8 130.51 68.8 131.07 68.8 131.63 68.8 132.18 68.8" id="img-1a8ebf51-45" stroke="#FF6DAE" class="geometry color_5"/>
      </g>
    </g>
  </g>
</g>
  <g class="guide ylabels" font-size="2.82" font-family="'PT Sans Caption','Helvetica Neue','Helvetica',sans-serif" fill="#6C606B" id="img-1a8ebf51-46">
    <text x="18.47" y="70.06" text-anchor="end" dy="0.35em" id="img-1a8ebf51-47">0</text>
    <text x="18.47" y="38.53" text-anchor="end" dy="0.35em" id="img-1a8ebf51-48">50</text>
    <text x="18.47" y="7" text-anchor="end" dy="0.35em" id="img-1a8ebf51-49">100</text>
  </g>
  <g font-size="3.88" font-family="'PT Sans','Helvetica Neue','Helvetica',sans-serif" fill="#564A55" stroke="#000000" stroke-opacity="0.000" id="img-1a8ebf51-50">
    <text x="8.76" y="36.53" text-anchor="middle" dy="0.35em" transform="rotate(-90, 8.76, 38.53)" id="img-1a8ebf51-51">nSpecie</text>
  </g>
</g>
<defs>
  <clipPath id="img-1a8ebf51-23">
  <path d="M19.47,5 L 134.74 5 134.74 72.06 19.47 72.06" />
</clipPath>
</defs>
</svg>
